<?xml version="1.0"?>
    
<!--********* Copyright (c) 2024 Pareto Softare, LLC DBA Simplemaps.com ***************************************
************* Free for Commercial Use, full terms at  https://simplemaps.com/resources/svg-license ************
************* Attribution is appreciated! https://simplemaps.com *******************************************-->

<svg baseprofile="tiny" fill="#6f9c76" height="375" stroke="#ffffff" stroke-linecap="round" stroke-linejoin="round" stroke-width=".5" version="1.2" viewbox="0 0 1000 375" width="1000" xmlns="http://www.w3.org/2000/svg">
 <g id="features">
  <path d="M796.7 145.2l-0.5 0-0.3-1.8-2.3-0.5-2.3 0-0.8-2.4-2-0.9-3.1-1.9 1.2-1 2.3 0 3.9 1 1.9 2.4 2.4 0 1.9 0 2.3 1.4 1.6 2.8-0.7 0-2.4 0.5-1.6 0.4-1.5 0z m-19.4-15.2l-1.6-0.8-0.4-1.6 0.7-2.9 0.5-2.2 2.4-0.9 3 0.4 0 6.2-2.7 0.9-1.9 0.9z m-19.9 8.1l-0.7 9.2-10.5 4-13.1 13.1-3.7 7.7-3.4 9.9-2.5 10.9-0.9 10.8 1.1 11.6-1.3 5-4.7 2.1-3 2.3-3.5 10.8-2.2 3.4-7.6 2.3-16.6 0.1-6.3 1.7-4.4 4.6-5.1 7-5.9 6.3-6.8 2.8-15.9 4-14.4 7-11.7 2.6-7.5-9.1-0.5 17-14.1 8.8-36.9 7.7-7.5 3.5-4.5 3-6.2 4.1-7.2 1.4-35.8-4.2-35.7 4.2-7.7 2.1-7 4.9-23.1 21.4-5.1 10.2-12.4 0-10.5 1.5-3.5 4.2-3.4-2.3-0.8-8.5 5.7-5.3 2.4 3.4 9.7 0-1.2-16.5-16.3-2.4-6.2 6.1-3.1 5.7-3.1-2.8-6.2-2.9-1.8 4.2-14.5-3.8-9.4-7.4-2.6-5.4-0.4-7.8-2.9 0.7-3.9 0-2.5 0-2.6-0.2-1.7-0.7-2.4 2.7-2.4 3.1-1.6 2.2-6.7 1.2-3.6 8.9-10-1.3-5.9-1.8-3.3 4.2 0.3 9.7-5.7 2-20.8 2.7-20.7-4.1-19.7-8.7-25.5-15.9-9.1-4-10.4-2.5-21.1-2.2-8.7-3.6-8.4-5.3-19.8-15.8-2.9-3.3-3.1-17.5-2-2.8-0.4-5.7-11.5-31.9-5.6-4.8-10.6-7.1-4.5-4.7-4-6.1-3-7.3-0.4-7.8 4.3-7.8-9.5-15.8-1-6.4 0-13.2-2.1-11.5-10.9-18.8-4-9.3-2.1-15.2 1.7-11.1 5.7-3.7 10 7 14.9 16.3 8.3 6.6 9.4 3.9 20.6-0.9 18-9.6 14.8-14.7 11.1-16 7.4-18.8 5.3-10.3 7.9-5.7 1-2.9 1.4-2.9 2.9-1.3 2.4 0.7 3.8 2.6 0.8 0.6 3.3 0.7 5-1.2 3.9 7 7.4 4.2 7.3 1.4 5.9-1.4 6.2-4.2 3.5-8.1 3.1-7.8 15.8 2.1 3.2 16.1 3.1 8.1 4.2 6.2 7.8 4.2 13.2 4.3 10.1 5.7 10.2 4.7 5.4 4.8 1.9 9 0 5.6 2.7 4.9 5.1 2.3 4.2 0 13.2-3.8 6.2-4.3 1.6-2.8 3.1-6.6 3.9-2.4 4.7 2.4 3.1 4.3 7.7 5.1 6.6 0 6.6-4.2 9.3-9.5 9-8.5 8.9-4.3 11.6-7.2 5.4-5.1 4.7-1 12.4 1.4 13.2 2.9 12.4 0 7-3.3 3.1-2.4 3.1-5.3 12-8.5 7.8 0 6.6 2.8 6.7 2.4 6.1 0.5 5.1 2.4 6.7 7.6 5 6.6 8.1 4.7 11.3 2.9 3.9-1.4 2.3-3.3 0.8-4.8 6.2-4.7 10.1-11 4.3-1.4 8.1 1 12.8-1.5 8.6-1.4 2.7 1.9 0 7.6 1.5 9 3.9 3.8 5.4 6.2 7 7.6 0.8 3.8 0.8 10.4-0.8 10 0 11.9-3.1 13.7-3.1 10.9 1.5 8 4.7 6.2 5.5 0 8.1-2.4 3.5-9.5 1.9-17.4 2.9-3 3.7-3.7 4.6-4.3 3.9 4.3 0 14.7 3.1 8.1 6.2 2.7 9-3.7 3.8-8.1 4.4-3.3 5.4 0.9 5.7 3.9 4.3-1 4-1.9 5.3 1.9 4.7 2.4 10.9 5.7 6.2 0.9 5.4 0.9 7.8 5.3 1.1 0.4z m97.1-44.5l6.2 2.3 5.5 2.4 4.6 1.5 7 0 8.6-3.9 8.9 0 4.7 3.4 6.2 2.8 5-1 2.7-1.8 2.3-3.1 6.9 5.9 7.5 8.6 5.6 16.6 5.6 10.7 6.8 9.9 5.9 4.1-6.9 0.4-12.8-1.3-12.4-3.6-5.5-6.1-5.9-3.1-27 3.5-23.5 7.1-5.1 3.1-4 4.2-13.6-2.9-9.3 1.9-3.8-2.4 6.1-5.6 4.3-1 0-10.4-9.3-1-5.4-4.7 0.4-13.3-3.9-4.3-11.7-5.1 2.7-6.7 4.7-3.8 6.6-3.3 3.9 2.8 3.1 3.4 7-1.5 6.2-4.3 3.5-4.2 2.7-3.4 8.9 7.2z" id="CY" name="Cyprus">
  </path>
 </g>
 <g id="points">
  <circle class="34.65312254355183|32.363108757306144" cx="90.9" cy="341" id="0">
  </circle>
  <circle class="34.87794763360577|33.276805040185714" cx="545.5" cy="204.9" id="1">
  </circle>
  <circle class="35.1589789961732|34.00776206648937" cx="909.1" cy="34.2" id="2">
  </circle>
 </g>
 <g id="label_points">
  <circle class="Cyprus" cx="449.6" cy="183.4" id="CY">
  </circle>
 </g>
</svg>