<?xml version="1.0"?>
    
<!--********* Copyright (c) 2024 Pareto Softare, LLC DBA Simplemaps.com ***************************************
************* Free for Commercial Use, full terms at  https://simplemaps.com/resources/svg-license ************
************* Attribution is appreciated! https://simplemaps.com *******************************************-->

<svg baseprofile="tiny" fill="#6f9c76" height="651" stroke="#ffffff" stroke-linecap="round" stroke-linejoin="round" stroke-width=".5" version="1.2" viewbox="0 0 1000 651" width="1000" xmlns="http://www.w3.org/2000/svg">
 <g id="features">
  <path d="M399.4 527.2l1.5-2.5 1.1-2.5 0.5-3.1 0.3-3.2 0.5-3 6.8-16.9 2.5-10.6 6.9-8.5 2.5-4.8 0-13.1 1-5.9 0.2-3.3-0.7-2.9-1.1-2.5-0.7-2.9 0-3 1.8-5.8 0.1-3-0.1-3 0.5-3 2.9-4.1 4.3-2.8 3.9-3.6 1.7-6.2-1.4-5.9-3.2-4.6-12.1-9.7-5.8-2.5-6-0.5-4.9 2.5-1.6 2.2-1.6 3.3-1.3 3.5-0.5 3.3-0.2 4.2-0.6 2.5-4.4 7.9-1.8 2.5-2.1 1.7-2.6 0.7-5.2-1.5-2.6 0-2.4 2.4-2.6 6.2-1.3 1.1-2.6-0.9-1.5-1.7-4.3-7.5-6.6-6-3.8-4.9-9.5-4.1-5.8-0.5-2.7-1.2-0.8-0.8-1.5-2.4-0.7-0.7-1.3-0.2-0.9 0.8-0.8 1-1 0.4-1.3-0.6-1.4-1.2-1.4-0.5-1.3 1.3-0.9 1.6-0.9 1.2-1 0.3-1.1-1.1-0.9-2.3-0.8-3.1-0.5-3.3-0.3-2.7-0.6-4-1.7-2.2-1.9-1.5-1.5-2.5-0.9-3.6 0-2.8 0.9-6.7 0.1-8.1-0.8-6.7-2.1-3.3-4.1 2.1-1.8-0.2-2.8-1.9-2.7-2.4-1.5-1.9-1.1-3.9-0.1-3.1-0.6-1.6-2.2 0.9-1.9 2.6-1.1 3-1.2 1.3-2.1-2.1-0.5-2.7 0.9-2.9 1.3-3 0.7-2.8-0.9-5.1-1.6-6.8-1.1-7.2 0.6-6.4 1.3-2.4 1.2-0.4 3 1.1 1-0.6 0.5-1.3 0-1.3-2.4-2.3-0.3-3.7 0.8-3.1 1.8-0.1 5.5 2.7 5.4-0.9 5.3-2.1 5.4-0.6 2.8 1.1 5.6 3.7 2.3 0.8 4.4 0 0.4-0.9 0.2-1.9-0.2-1.9-0.9-0.9-2.2-1.3-0.6-2.9 0.9-3.2 2-2.1 2.4 0.2 5.6 3.2 2.7 0.4-3.8-4.6-4.6-3.2-4.5-0.3-3.8 4.3-2.6-3.4-2.9-0.3-6.1 1.9-10.5-0.8-3.3 0.8-2.8 1.7-1.5 1.4-1 1.5-0.9 0.2-4.6-1.2-2.7 0.5-8 3.4 5.3-9.9 2.7-2.5 4.7-0.8 1.1-2-9-12.2-1.2-5.3-4.7-7.1 0-5.5 3.1-4.3 9.5 0.7 3.1-4.2 2.5 1.7 2.5 0.1 2.5-0.9 4.6-3.9 1.2-1.4 0.4-1.8 0.1-3.4-1-6.7-2.3-4.8-3.1-3.3-3.4-2.3 1.8 3.7 4.2 4.2 1.8 3.7-1.2 0.7-2.6 0.3-1.1 0.7-2.9 3.8-0.2 1 0 1.6-0.8 3.1-1.4 0.3-0.8-1.3-0.8-1.7-0.9-0.9-9.2-2.4-3.8-3.2-3.8-6 1 0.2 2.1-0.3 0.9 0.1-1-5 0.8-3.5 6.5-7.7 1.5-1.3 1.5 0.8 2.5 3.4 0.1-14.4-4.7-13.7-2.2-10.6 7.8-5.1 1.6 0.2 3 1.2 1.7 0.3 1.3-0.6 2-2.6 3.3-1.7 1.7-2.3 2-2.1 3-0.2 7.6 7.4 0.4 0.1 1.7 0.3 1.7-2.5 0.1-3-1-2.7-1.8-1.5 1.6-3.6 3.2-1.6 12.7-0.3 6.2 1.7 6.7-0.6 7.4-2.9 7.3-0.6 6 6.1 2.8-6.5-1.1-5-9.2-12.7-1.2-2.7 0.4-3 1.8-3 1.9-1.8 2.1-0.6 2.5 0.5 4 3 8.1 8.6 4.1 1.8 4-2.1-1.2-4.8-3.7-5.1-3.5-3.3 2.8-1.8 12.7-1 5-1.9 1.6-3.4 1.7-9.2 0.6-1.9 9.5-2.3 3.2 0.3 2.8 2.2 5.2 6 2.9 1.3 2.6-1.2 2.3-2.4 2.2-1.8 2.7 0.8 8.3 6 2.5 0.7 2.6-1.2-0.6-2.6-2.3-2.6-2.7-1.1 0-2.1 3.8 0.4 1.5-0.8 0.6-2.6 0.5-3.1 1.3-1.1 1.6 0.3 1.6 1.1 2.6 4.3 1.8 4.9 2.3 3.2 4-0.9 1.7-1.3 0.8-1.1 3.3-7.1 0.4-1.5-1.3-4.3-0.9-1.7-1.3-1.2-1.1-1.4-0.5-2.6 0-2.6-0.2-2-0.3-1.9-0.6-2.2 4.4-3 5.5 4.5 9.7 12.1 3.6 1 11.1-2.9 3.4 0.9 5.9 4 2.9 0.9 2.7-1.5-1.2-7.3 2-3 3.4 0.2 6.9 4.6 30.6 8.9 0.2 0-1-6.5 1.9-3.6 3.5-1.5 13.3 0 1.5-0.8 0-2-1-2-1.5-0.9-4.1-5.2-2.2-11.4-0.5-11.4 0.9-5.2 2.5 2.1 4.7 9.5 2.7 2.1 3 1.3 2.5 3.1 4.3 7.2 3.2 2.4 4.6 1.6 4.1-0.9 1.9-5.1-1.2-4.8-2.1-3.2-1.6-3.6 0.9-5.9-0.9-0.3-1.3-1.1-0.7-0.3 3.4-4.4 4.4 1.4 7.9 8.6-1 2.1 1.7 3.6 1.2 6.8 2 3.1 2.7 1.4 1.5-0.3 1.1-0.2 2.4-2.5 2.1-4.2-1-1.9 2-6.7 3.1 2.1 3.2 5.3 2.5 3 2.9-0.8 0.3-1.8-0.6-2.5 0.2-2.5 1.8-2.8 1.7-0.9 1.9 0.5 4.9 2.7 5.5 5.3 0.5 1.2 0.3 1.6 0.2 2 1.3 0.5 27.1-0.5 2.7 0.9 5.9 3.9 8.8 2.1 8 4.8 5.7 1.7 3.2 0.1 2.4-0.8 4.8-4 2.1-0.9 5.9 0.5 5.6 1.7 5.3 3 5.3 4.4 5.9 6.6 6.6 7.2 7 2.6 6 3.8 2.9 1.1 25.5 2.3 22.8-1.4 19.1-1.4 22.1 5.6 22 1.4 22.3 5.5 6-2 5.5-3.8 4.3-5.3 5.1-9.8 2.8 5.3 6.4 3.4 3.1 3.3 3.3 8.4 1.4 2.5 1.7 2.1 3.7 3.1 1.5 2-0.6 5.3-3.5-2.3-6.3 5.3-11.6 0.9-4.5 2.3 10.3 4.2 3.4-0.1-2.9 3.9-16.7-0.3-8 4.5-3.1 4.1 1.2 5-2.4 6-4.5 21-8.3 23.4-2.4 6-6.2 11.5-1.5 6.3-2.5 4-0.3 0.4-12.7 11.4-18.2 16.4-4.6 15.7-5.1 17.7 2.7 12.5 2.9 14 7.1 34 8 38.1-8.7 20.7-1.6 13.8 1.8 12.9 3.4 7.3 3 6.2 5.6 12.4 7.3 10.2 0.9 7.9-1 7 0.3 7.8 2.7 1.1 2.6 2.2 0.9 6.5-0.7 3.5-1 3-0.6 3.1 0.8 3.8 1.2 1.5 14.5 5.9 2.3 2.7 1.3 5.3-1.8 3.6-3.4 2.4-9 3.7-20.6 3.2-2.7 0.4-1.8 1.1 1.1 0.6 3 2.8-3.9 2-2 1.6-1.4 2.4-0.7 4.5 1.6 7.6-0.2 3.3-2.4 2.8-11.9 4.2-2.3 2.3-1 1.6-0.7 2.1-0.4 2.6 0.2 1.3 0.3 1.1 0.4 3.5 0.3 0.9 0.3 1-0.3 5.5-0.4 1.1-1.1 1.3-1.7 0.9-2 0.1-1.7 0.7-1.3 2.2 0.1 3.4 1 4.4 1.4 4.3 1.1 2.8-4.7 3-22.1-8.1-11.5-0.8-3.4-1.6-2.9-3.4-5.2-8.2-3.4-2.7-5-1.7-2.4 0-2.6 0.6-2.2-0.5-1.6-1.9-1.7-1.3-2.7 1.2-2.2 3.4-1.5 4-1.7 3.7-2.9 2.6-2.6 0.8-11.1-0.7-4.8 1.6-4.6 2.8-4.3 3.8-0.9 1.7-0.5 2-0.7 1.6-1.4 0.7-1.4-0.5-2.6-1.9-1.4-0.4-1.9 1.1-2 1.8-2.2 0.4-2.7-3-4.7-6.9-2.4-2.3-0.1-0.1-11.3-4.9-1.8-0.8-6-4.2-4.8-5.8-13.6-22.3-4.7-5.5-15.8-13.3-1.3-3.3-0.4-5.6 0.4-2.4 0.8-1.6 0.5-1.6-0.4-2.6-1.1-1.3-1.7-0.9-30-2.6-3.6-3.5-1.9-5.4-1.3-5.5-2.2-3.7-2.2-0.1-1.6 0.6-7.6 2.6-3.6 0.3-3.4-0.5-3.2-1.9-3-4-0.7-2.2-0.2-1.7 0-0.3-0.2-1.5-1.2-2-1.4-1-5.1-1.1-5.6-3.7-8.7-10.5-5.7-3.1-1.5 0-0.9 0.5-0.9 0.3-1.3-0.8-0.9-1.6-1.7-4.9-1-1.9-2.5-2.1-2.6-0.5-1.9 1.8-0.1 4.7 4 7.3 0.9 4.3-2.8 3.8-4.6 2.4-2.2 0-2.1-1.8-1.8-5.8-1.3-6.7-2-5.5-3.7-2.5-6.7 0.2-3.3 1-3.2 2-2 2-8.5 8.9-3.7 2.5-11 1.6-3.4 2.3-3 2.7-1.6 1.4-3.7-0.6-3.7-2.4-4.5-1.1-2.1 2.7-2.6 7.5-2.2 1.8-8.7 1-10.1-1-2.8 0.7-7.6 6.9-5.6 3-1.8 2.1-2.4 6.4-1.6 2.7-3.3 1.9-4.1 0.2-6.2-2.5z m-51.9-66.2l-0.8-6.5 2.5-3.9 4.1-1.5 4.2 1 1.2 6.4-2.8 5.8-4.5 2.4-3.9-3.7z m-102-106.6l3.5 1.3 4.8 3.2 4.3 4.3 2.1 4.4-1.2 3.9-9.1-6.5-3.4 2.6 1.8 0.5 1.7 0.8 1.3 1.6 1 2.6-6.2-1-2.7-1.6-2.8-2.9-0.6-1.3-0.6-1.9-0.9-1.8-1.4-0.7-2.2 0-0.2 0.5-0.9 1.5-0.3 1-0.7 4-0.5 1.5-1.1 1.8-1 1.1-2.1 1.8-1-0.1-1.4-0.6-1.1 0.5-0.6 3.1 0.1 1.7 0.2 1.7 0.3 1.7 0.3 1.3-3.3 2.6-3 3.8-2.9 2.3-6.4-5.1-3.3 0.2-1 2.3 3.1 3.4-9.5 13.2-2.3 1.2-2.3 0.7-2.4 1.7-4.1 5.3-2 1.5-3.2 0.6-6.6-0.7-3.1 1-1.6 3.4 6.7 4.2-4.8 4.6-7.7 1.1-2.1-6.3-2.1-1.6-2.7-0.6-2.7 0.1-2.3 1.2-2.2 2.3-0.8 1.1-0.7-0.5-1.6-2.9-2-1.7-1.3 1.8-1.2 4.6-1 0.9-0.5 0.6-0.4 0.4-1 0.1-0.1-0.9-0.7-4.1-0.1-0.8-2-0.2-2.5 1.2-2.4 1.8-1.5 2-1.5 1.4-1.7-0.6-1.7-1-1.5 0.2-1 0.9-2.7 1.6-1.1 0.2-4.4 2.8-4 3.7-1.9 2.8-1.1 0.9-0.4 1.4-0.3 10.1-0.6 5.9-1.2 5.9-4 11.1-1.1 2.5-1.6 2.2-1.5 2.4-0.2 2.6 0.7 6.1-1.9 2.7-20.2 18.5-4.6 0.2-3.8-5.7 0.6-3.1-0.5-3-1.4-2.2-2-0.9-0.4-0.4-0.2-1.1-0.1-1.2 0.2-1.1 3.8 0.3 1.1-0.3 1-1.9 1.5-5.7 0.9-2.5 5.4-8.4 2.4-5.7 1.4-2.5 1.5-1 2.1 0.6 1.8 1.2 1.7 0.8 1.8-0.8 0.8-1.8 0.8-5.6 0.9-2.7 5.4-8.4-3.3-3.5-5.5-2.3-9.9-1.7-2.8-3-5.2-12.8-3.2-2.9-9.3-0.2-4.7-1.5-4.1-3.8-2.3-4.7-1.1-3.2-0.1-2.3 1.8-1.3 7.5 2.3-1.6-4.2-2.5-4.2-0.9-3.3 3-1.4 2.6 1.9 2.3 3.5 2.3 2.2 2.7-2.1-1.2-4.8 1.9-2.9 3.2-0.9 2.9 1.1-1.2-3.1-1.8-5.9-6.3-12.4-3.1-4-3.3-5.9-1.9-2.4-4.1-4-3.8-5.2 7.5 3.5 2.3 0 2.2-0.8 0.3-1 0-1.4 1.4-2.3 5.5 0.2 4.1 1.4 3.6 3.6 6.2 11.7 0.8 2.7 0.3 3.8 0.3 1.6 0.6 0.8 0.8 0.4 0.8 0.1 1.3-1.1 0.1-2.4-0.8-4 0.8-7.2 0.7-3.1 1.4-3 1.9-1.8 4.6-2.4 1.8-2.2 1.7-3.8 0.6-2 1-0.9 2.6-0.1 0.4 0.6 0.5 1.4 0.4 1.7 0.2 1.2 0.2 3.3 0.6 1.6 2.1 1.6 4.2 0.7 1.4-5.4 0.2-7.6 0.6-5.4 4.8-4.2 20.2-2.3 12.5-10 4.7-1.4 1.5 1.5 2.7 6.4 1.6 1.5 0.9 0.6 1.5 2.5 1.1 0.6 1.4-0.6 2.5-2.6 0.9-0.5 3 0.9 2.3 1.6 2.5 0.9 3.1-1.4 4.7-6 2.9-2.2 5 2.6 7.7-1.9 3.2 0.8 3.1 2 6.5 2.3 6.7 4.8 7.8 3.7 2.9 4.1 2.1 5.7 1.1 1.7 2.1 2 5.8 3.1 6 1.5z m21.6-20.6l2.2 4.5 0.5 2.2-2.9 2.2-1.2 2.4-1.4 1.7-2.2-0.8-2.2-1.7-2.5-0.8-5-0.5-2 0.7-4.3 2.5-1.6-0.2-12.7-12.2-7.4-2.9-3.4-3.6 0.5-5.8 1.8-1.4 4.4 1.5 2.1-1.1 0.4-1.5 1-5.7 0.6-2 2.8-3.9 3.1-1.4 3.1 0.1 13 3.9 6 3.7 1.9 2.3 0.8 2.6-0.2 2.8-0.3 2.6 0.2 2.3 1.2 2.4 2.6 3.3 1.1 1.8z m-2.5-124l3.7 5.9 0.5 3.1-1.2 4.4-1.5 1.4-1.8-0.5-1.7-1.3-1.4-0.5-1.6 0.5-4.3 3.1-2.9 0-4.9-2.9-3-0.7-0.9 0.5-0.3 1.3-0.6 1.2-5.3 1.3-1.5-0.2-2.2-1.4-4.1-11.7-0.8-1.6 0.7-3.2 1.8-2 2.4-1 3.2-0.5 5.4 0.5 10 3.3 6.3-1.8 3.2-0.1 2.8 2.9z m-153.4 37.1l-9.3 2.4-4.6-0.4-18.9-10.5-2.6-2.9 1.6-4.6 5.5-0.9 10.6 1.6 42.2-5.7-2.8-1.9-0.2-1.9 1.8-0.7 3.1 1.8 1.7-0.2-0.1-9.8 2.4-2.5 3.2-0.2 2.5-1.1 2.2-2.3 1.9-4 0.5-2.5 0-2.3 0.3-2.3 1.2-2.4 1.5-0.7 6.2 0.7 0.1 0 3.6 0.6 4.3 1.6 2.5 2.7-3.2 7.9 1.4 4.5 2.7 3.7 2.3 1.8 14.4-1 13.9 6.8 2.2 3.7 0.4 2.8-0.7 4.3 0.3 2.5 1.3 2.6 3 2.6 1.1 1.5 0.9 1.7 2.1 2.4 1 1.5 0.4 1.3 0.1 1.4 0 3.2 0.4 1.8 1 0.5 1 0.1 0.5 0.2 0.2 5.6-1 2.9-2.1 0.4-5.9-4.2-1.5-0.7-1.5-0.2-1 1-0.4 1.7-0.7 0.9-1.8-1.6-2.4 1.3-2.4 0-2.3 0.8-1.8 3.5 1.4 0 0.9 0.7 0.5 1.5 0.2 2.5-0.2 3.4-0.7 0.7-1.1 0-1.5 1.6-2.6 1.6-4.1 0.1-3.8-1.4-1.7-3 1.6-2.9 3.1-2.3 2.2-2.3-1-2.9-2.5-0.2-3.5 1.7-3.5 2.5-2.4 2.4-3 6.8-4.9 15.9-3.8 5.9-6.2 3.4-8 1-7.7-2.2-5.5-6 1.3-0.9 1.3-1.4 2.3-3.5-2-2.9-2.6-5.1-2.3-5.6-0.9-4.4 0-6.7-0.4-3.9-1.4-3.1-6.9-8.2-3.9-2.8-4.3-1.2-4.7 0.4z m318.2-196.7l2.1 4 2.8 7.4-1.1 2.8-3.8 1-3.8-4.3-0.3-5.4 1.9-5 2.2-0.5z m-179.6 491.7l1.4 1.5 0.7 2.4-0.7 3.6-2.9 0.3-3-2-1.6-2.5 0.1-2.3 0.3-2.2 0.5-1.6 2.2 0.3 3 2.5z" id="EE" name="Estonia">
  </path>
 </g>
 <g id="points">
  <circle class="57.623571905510815|22.150072772734582" cx="90.9" cy="592.7" id="0">
  </circle>
  <circle class="58.48559829270947|25.327126813713637" cx="545.5" cy="359.6" id="1">
  </circle>
  <circle class="59.563131276707786|27.86877004649688" cx="909.1" cy="60.1" id="2">
  </circle>
 </g>
 <g id="label_points">
  <circle class="Estonia" cx="622.7" cy="293.9" id="EE">
  </circle>
 </g>
</svg>