<?xml version="1.0"?>
    
<!--********* Copyright (c) 2024 Pareto Softare, LLC DBA Simplemaps.com ***************************************
************* Free for Commercial Use, full terms at  https://simplemaps.com/resources/svg-license ************
************* Attribution is appreciated! https://simplemaps.com *******************************************-->

<svg baseprofile="tiny" fill="#6f9c76" height="1000" stroke="#ffffff" stroke-linecap="round" stroke-linejoin="round" stroke-width=".5" version="1.2" viewbox="0 0 1000 1000" width="1000" xmlns="http://www.w3.org/2000/svg">
 <g id="features">
  <path d="M106.5 506.9l5.7-8.4 0.6-8.3-1.3-9 0.1-10.4 1.7-5.2 5.3-10.3 6.3-16.5-0.9-2.3-3.7-6.7-26.9-25.9-0.5-0.4-5.3-9.9 0.8-12.7 3.9-5.3 9.8-8 4.5-3.6 5.3-2.5 16.9 4.4 17.6 10.7 16 4.8 11.8-13.4 0.8-6.2-0.8-5.9 0.4-6.2 4-7.1 4-2.6 18.1-6.7 38.2-6.6 39-8.5 22.8-9.5 10.6-14.4-2.1-6.2-2.6-7.6-10.5-6.6-7.4-8.1 4-18 8-10.5 8-2.5 8.4 0 9.1-3.2 3.8-3.6 2.5-4.2 4.5-9.9 4.3-4.5 4.9 0.1 5.4 1.6 5.7-0.1 9.9-9.7 12.5-19.5 10-21.4 2-15.7-3.5-4-4.8-0.3-5.1 0.7-4.2-1.3-2.8-4.2-2.6-6.2-4-13.9-5.6-12.3-1.2-7.2 3-8.4 3.9-2.8 15.4-0.6 10.4-4.2 37-27.9 11.4-5.2 11.8-1.4 7.2 2.2 4.6 1.4 8.9 7.5 4.8 5 3.1 4.3 4.5 9.2-1.4-0.1-4.8-1.5-5.4 5 0.3 3.3-0.8 9.4-1.4 8.4-1.9 0.6 3.1 5.2 34.9 20.5 38.2 22.4 5.5 3.2 9.8 3.8 31.5 1.7 7.5 5.9 7.3 15 7.2 33.9 4.1 8.5 8.2 4.9 6.6-3.6 6.5-4.7 7.9 1.3 7.3 14.4 0.7 20 2.7 20.4 13.2 15.7 5.2 1.5 11.1-0.1 5.3 1.2 5.1 3.1 9.1 7.9 4.9 2.9 15.1 3.6 9.5 0.5 4.5 4.9 0 3.3 0 13.5-2 10.8-6.4 21.6-1.6 9.9-1.5 3.3-2.3 1.9-0.2 1.8 4.7 3.3 7.9 2.4 5.8-0.2 11.4-0.3 47.5 6.6 10.7 3.6 7.2 6.4 15.2 19.1 7.9 5.3 6.9-0.1 20.4-9.3 10.2-0.2 14 3.2 2.7 1.8 9.5 6.3 3.9 14.1-2.7 5.7-4.9 3.2-5.7 2.6-4.6 3.5 0.4 1.9-2.6 13-0.6 1.7-0.9 1.2-3.2 1.6-0.9 1.9 0.7 2.8 3.3 5.5 0.5 2.5-4.8 14.7-23.5 39.1-18.8 19-4.2 7.1-1 9.8 2.3 20.3-2.1 10-9.8 9.2-28 8.6-10 10.7-0.6 15.4 18.4 28 4.8 17.6-1-0.5-19.8 5.2-9.7 0.2-8.4-5.8-4.5 5.5-2.1 2.5-4.9-1.2-4.4-4.5-5.4-1.8-7.8 4.4 0.8 5.5 3.4 5.6 0.5 4.3-5.1 0.5-16.4-6.3-8.2 0.7-3 2.4-3.2 2.6-27.7 42.7-0.6 5.6 1 3.4 1.4 3.5 0.7 5.4 0.4 12.9-0.2 1.4-0.7 4.4-4.9 1.1-20.4-4.1-3.7-0.7-4-4.2-1.9-1.8-4.3-9.2-7.7-12.7-16.7-16.5-18-13.9-6.3-3.5-3.2-0.9-3.7-0.1-11.3 7.3-15.8 15.6-5.5 5.5-12 6-13.6 4.6-33.4 11.5-44.2 15.1-12.1 6.9-9.2 11.2-4.8 13.7-5.8 31.4-0.6 14.4 4.6 19.3 1.4 6-1.6 13.1-0.3 2.2-4.9 11.8-7.9 13.6-4.2 4.7-5.4 6.1-10.1 3.5-4.6-3.3-8.9-12.7-4.5-2.7-3 2-5.1 9.7-3.5 2.9-7.7 0.4-5.8-3-10.9-11.7 0.3-4.7-2.4-7.8-0.1-4.6 2.3-7.7 2.8-3.4 3.5-2.6 3.8-5 5-11.6 0-8.1-2.4-8.3-2.1-12.6-14.9-39.1-2.9-11.9 0-20.3-1.3-11.3-5-16.9-17.9-38.9-9-12.4-3.8-4.1-7.9-8.6-58.3-42.9-7.3-1.3-32.2 0.8-5.6-0.8-3.9-4.4-4.1-10.4-0.6-4.6 0.8-8.6-1.1-4.9-2.8-3.9-7.3-6.4-2.2-4 0.6-4 4.8-7.5 0.2-5.3-2.4-4.9-6.3-6.2-2.6-3.6-13.3-32.2 0-0.1 0-0.1-0.1 0-7.9-10.2-23.6-13-9.8-10.8z" id="XK" name="Kosovo">
  </path>
 </g>
 <g id="points">
  <circle class="41.91496333269872|20.112151758774367" cx="128.8" cy="909.6" id="0">
  </circle>
  <circle class="42.48258760365955|20.986155260539704" cx="541.2" cy="548" id="1">
  </circle>
  <circle class="43.192117942360596|21.685358061951973" cx="871.2" cy="91.4" id="2">
  </circle>
 </g>
 <g id="label_points">
  <circle class="Kosovo" cx="482.1" cy="476.9" id="XK">
  </circle>
 </g>
</svg>