<?xml version="1.0"?>
    
<!--********* Copyright (c) 2024 Pareto Softare, LLC DBA Simplemaps.com ***************************************
************* Free for Commercial Use, full terms at  https://simplemaps.com/resources/svg-license ************
************* Attribution is appreciated! https://simplemaps.com *******************************************-->

<svg baseprofile="tiny" fill="#6f9c76" height="793" stroke="#ffffff" stroke-linecap="round" stroke-linejoin="round" stroke-width=".5" version="1.2" viewbox="0 0 1000 793" width="1000" xmlns="http://www.w3.org/2000/svg">
 <g id="features">
  <path d="M89 273.6l8.2 8.7 4.3 2.4 5.8-0.4 2.7-2.2 3.8-7.2 2.3-1.6 3.3 2.1 6.7 9.5 3.4 2.5 7.7-2.6 4-4.6 3.2-3.5 5.9-10.2 3.7-8.9 0.2-1.7 1.2-9.8-1.1-4.5-3.4-14.5 0.5-10.8 4.3-23.6 3.6-10.2 6.9-8.5 9.1-5.2 33.2-11.3 25.1-8.6 10.2-3.5 9-4.5 4.1-4.1 11.9-11.7 8.5-5.5 2.8 0 2.4 0.7 4.7 2.6 13.5 10.5 12.6 12.4 5.7 9.5 3.3 6.9 1.4 1.4 3 3.1 2.8 0.6 15.3 3 3.7-0.8 0.5-3.3 0.2-1.1-0.3-9.6-0.6-4.1-1.1-2.6-0.7-2.6 0.4-4.2 20.9-32 2.4-2 2.2-1.8 6.2-0.5 12.3 4.7 3.8-0.3-0.4-3.3-2.5-4.2-0.6-4.1 5.8-3.3 4.2 1.3 3.2 3.4 3.7 0.9 1.6-1.9 3.4-4.1 6.3 4.3 7.2-0.1 14.9-3.9 0.8 0.4 3.9 2 17.6-0.3 12.4 3.4 6.1 0.3 5.4-3.4 5.1-6.2 4.6-2.8 34.6-21.2 7.2-1.6 14.1 0.1 2.5-0.6 12-10.5 3.8-1.8 4.5 1 18.9 9.8 11.6 4.2 6.3 0.7 5.5 0.6 12.2-2.2 48.9-20.7 9.3-9.7 3.3-0.6 1.5 2.4 0.3 8.1 1 3.5 5.2 6.2 5.7 4.3 6.3 2.4 7 0.4 34.9 47.4 13.4 10.1 4.7 13.8 4.3 7.5 1.2 1.9 7.4 7.5 30.7 22.2 3.3 1.7 17.3 8.8 10.6 2.3 1.6 1.4 1.3 2.1 1.6 1.9 2.3 1 16.2-0.7 3.6 0.4 1.6 1.9 0.8 3.1 1.2 3.2 2.8 2.2 2.5 0 5.4-1.9 2 0.1 4 2.7 2 2.4 0.6 3.3 0.1 0.3 0.3 6.3 0.1 0.1 2.8 5.1 0.8 5.2 0.6 11.4 2.7 11 3.8 10.8 0.5 3.4-0.1 7 0.9 3.6 0.5 0.5 1 1.2 4.2 2.2 1.6 1.9 2.2 5.7 3.8 16.3 7.6 17.8 2.2 3.5 3.9 1.8 8.4 0.4 3.7 1.8 6.3 10 0.2 11.2-3.8 11-4.7 7.6-3.1 5-2.3 6.9-1.1 2.4-2 1.2-5.6 1.6-1.7 1.7-1.7 5.4-1.1 6.5-0.3 6.9 0.6 6.3 1.1 2.7 3.4 5.3 0.8 3.2-0.3 2.7-1.7 7.9 0.2 7.3 0.9 33.1 0.5 2.3 2 4.8 0.5 2.7-0.9 2.2-4.1 5.1-1.2 2.9 0.8 10.1 1.8 9.9-1.3 8.8-8.5 6.7-32.2-2.5-10.4 1.9-5.6 1-6.6 5.8-3.9 3.5-3.3 13.2-0.4 1.7-1.4 37.3-3.4 18.2-4.1 9.5-3.8 2.8-4.6-2.3-6.3-5.7-2.8-3.7-1.6-3.7-1.6-2.2-0.4-0.5-4.1-1-5.4 1.5-1.2 3.4 0.3 4.2-0.8 3.9-6.1 7.8-6.1 5.1-1.2 0.5-5.5 2.1-7.8 0.5-11.6-1.7-5.6 0-6.8 2.1-4.9 1.3-5.7 0.6-10.5-0.5-4.1-1.5-7.5-4.9-3.2-1.6-4.4-0.3-9 1.6-6.7 0.2-3 1.9-2.2-0.2-0.7-1.7-0.5-6.2-1-1.8-3.2-0.9-10.8-1.4-13.4-4.3-4.1-0.5-2.8-0.4-8 0.7-8.1 3.8-12.7 11.6-7.5 2.7-2.6-1-11.8-6.4-0.8-1.3-0.6-2.4-1.1-2.2-2.6-1-1.5 0.9-3.6 4.1-1.7 1.3-22.7 6.7-10.7 5.8-3.3 2.4-5.8 4.4-2.8 3.2-1.4 4.4-0.3 7.8-0.1 1.6-0.7 3.5-4.8 7.3-12.6 12.2-4.8 8.8-0.1 0 0 0.1-13.3 9.3-3.6 4.4-0.6 3.9-0.1 5.1-1.2 5.3-4.5 4.6-3 0.7-7.1 1.5-18.4-4.1-10 4.6-0.7 1.8-0.8 6.1-1.4 2.6-1.7 0.6-5.1-0.3-2.1 0.4-3.5 2.8-8.3 8.3-3.1 2-9.9-1.9-15.6-14.1-1.4-0.2-27-3.8-8.7 0.2-8.4 3.8-12.9 12.9-5.5 3.1-12 2.6-12.2 0-5.4-1.1-13-2.8-9.2-0.5-25.1 7.6-52.1 2.1-0.1-12.4-2.9-8.8-6-5.8-17.6-5.2-18.7-2.8-0.3 0.1-6.9 1.7-11.8 10-6.3 2.5-8.9-2-3.7-3.1-4.7-4.1-5.1-10.8-6.9-27-6.8-30.7-3.6-7.6-3.9-2.9-3.1-0.5-0.9-0.1-4.5 0.2-4.8-0.5-2.8-1.3-7.3-3.4-2.5-6.4 0.2-8.4-1.7-10.6-5.7-10.9-13.1-18.6-4.4-12-6-25.4-1.9-14.2 0.1-1 1.2-9.2 5.1 1.6 5.1-3.1 4.6-5.9 3.4-6.4 2.5-7.9 0.1-6.4-0.4-1.1-1.8-4.7-4.2-6-2.7-1.8-5.9-1-2.5-2.1-0.7-2.6-0.7-7.7-1.2-3.6-0.7-1.3-3.8-7.4-2.7-2.8-4-1.8-2.5-7.1 1.1-12.7-1.3-6.8 17.2-3.8 5.2-2.1 4.7-2.9 3-3.1 1.9-4.9 0-1 0-3.2-7.5-22-1.8-10.1-2.8-34.3 1-5 2.9-6.3 3.4-4.7 8.3-8.1 2.3-4.1-0.3-3.2-0.6-6.7-2.8-12 0.1-2.6 0.3-7.9 9-5.5z" id="MK" name="North Macedonia">
  </path>
 </g>
 <g id="points">
  <circle class="40.9254410823674|20.57242859470441" cx="90.9" cy="721.3" id="0">
  </circle>
  <circle class="41.53381736054885|21.855140996727467" cx="545.5" cy="434.6" id="1">
  </circle>
  <circle class="42.29428770827567|22.881310918345914" cx="909.1" cy="72.5" id="2">
  </circle>
 </g>
 <g id="label_points">
  <circle class="North Macedonia" cx="439.4" cy="423.1" id="MK">
  </circle>
 </g>
</svg>