<?xml version="1.0"?>
    
<!--********* Copyright (c) 2024 Pareto Softare, LLC DBA Simplemaps.com ***************************************
************* Free for Commercial Use, full terms at  https://simplemaps.com/resources/svg-license ************
************* Attribution is appreciated! https://simplemaps.com *******************************************-->

<svg baseprofile="tiny" fill="#6f9c76" height="1000" stroke="#ffffff" stroke-linecap="round" stroke-linejoin="round" stroke-width=".5" version="1.2" viewbox="0 0 1000 1000" width="1000" xmlns="http://www.w3.org/2000/svg">
 <g id="features">
  <path d="M584.7 184.5l-8 0.6-8 0.6 7.4 9.6 0.2 1.4 0.2 7.5-0.1 1.6-0.4 1.7-3.2 9-2.6 4.4-5.8 5.5 8.7 5.4-7.2 9.4-1.2 1.1-1.2 0.1-13.8-6.2-13.6-6.8-10.4 0.8-1.7-0.4-4.9-5.1-1.4-1-7.6 3-0.6 0.2-0.3 0.5-0.1 0.9-0.6 7.7-0.1 2.6 1.7 16.3-0.7 3.3-5.7 11.7-0.9 2.1-0.9 1.5-0.8 0.2-8.8-5.5-8.8-5.6-0.7 0.6-2.4 4.8-12.7 10.5-0.7 1.2-0.7 1.6-4.7 18.6-0.6 1.7-3.2 5.5-1.7 1.9-1.9 1-5.1 1.1-0.6 0.9-1.6 5.9 9.5 17.7 0.2 1.4-0.9 10.2-0.5 1.3-0.9 1-1.8 1.1-5.7 5.9-2.6 3.7-11.4 22.3-7.4 8.4 0.1 2.1 1.4 8.3 0.2 1.1 0.2 2.5 0.1 1.5-0.3 1-13.2 9.3-7.8 1-7.9 1.1 3.2 21.3 0.1 3-0.3 1.6-2.1 4.8-0.3 1.2-1.5 17.5 0 3.5 0.2 3.9-0.1 3.4-1 2.1-2.5 2.5-0.6 1.1-0.4 1.8-0.9 6.8-0.1 0.5-0.1 0.1-0.6 2.2-4.3 6.7-8.1 14.7-8.1 14.6 9.1 6.7 1.3 0.5 2.4 0.5 1.1 0.8 0.6 1.7 1.4 16.7 0 1.3-0.4 1.3-5.1 10.5-0.5 0.7-0.8 0-10.8-2.9-10.8-2.8-7.7 2.2-7 4.7-2.3 2.5-6.1 10.2-5.8 10.6-3.7 4 1.5 7 0 1.6-0.5 1.3-6.5 11.3 2.1 5.8 5 13.7-3.7 5.3-0.3 1.1 0.1 1.4 1.8 10.2 0 1.6-0.5 1.9-1.1 3.2-0.4 1.8 0 1.4 5.8 16 0.2 0.6 0.9 3.3 0 0.9 0.1 2.5-2.4 16.7-2.4 16.5 0.4 0.9 3.6 3.9 1.4 1.2 2.4 3.2 0.9 0.6 1.1 0.3 2.1 0.1 1 0.4 1 0.9 8 11.3 0.3 0.6 0.1 0.8-1.1 6-0.4 1.8-0.6 1.4-2.3 3.4-0.2 0.6-0.2 0.8-0.6 4.3-0.1 0.3-0.2 0.7-0.6 0.3-3.5-0.6-1.8 0.1-7 2.1-0.9 0.9 0.1 1.3 1.2 2.9 0.5 2.1 0.7 4.6 0.5 2.2 0.8 2.5 3.2 6.1 3.5 8.8 0.4 1.8 0.1 1.9-0.2 2.3-0.4 1.5-0.4 1.2-0.6 1-1.7 2.1-0.4 0.8-0.1 1 0.2 2.1 0.8 4 0.1 2.2-0.4 2.7-0.8 2.3-1.2 1.8-4.8 5.7-4.5 3.7-1.2 0.3-4.9-0.5-1.6 0.5-0.5 0.5-0.8 0.8-0.2 2 0.4 0.9 0.9 1.2 0.2 0.2 0.3 1 0.1 0.9-0.2 2.3 0 1.1-0.2 0.5-1.2 2-0.7 0.8-4.2 2.3-0.5 0.9-0.2 1.6 0.2 1.3 3.3 12 0.7 4 0.2 1.4 0 1.3-0.1 0-0.2 0.9-0.6 0.9-0.2 1-0.9 3.7-0.1 2.9-0.3 1.6-0.8 2.6-0.3 1.3-0.2 1.5-0.9 3.2-1.6 1.6-1.9 0.5-2-0.1-1-0.6 0.1-3.8-0.5-1.8 0-0.4-1-2.4-0.2-0.6-0.1-1.3-0.2-0.6-0.6-1.2-0.8-0.7-0.9-0.2-3 0.3-1-0.3-0.4-1.2 0.1-0.3 0.3-0.2 0.5 0.1 0.2-0.2-0.1-0.4-0.3-0.3-0.1 0.1-0.2-0.3-0.1-0.3-0.1-0.4 0-0.5 0.1-0.2 0-0.3-0.1-0.5-0.3 0.3-1 0.5 0.5 0.5 0.1 0.8-0.2 0.7-0.4 0.5-0.5 0-0.3-0.5-0.6-1.5 0.3 1.6 0 0.9-0.2 0.3-1.8 0 0.2-0.9-0.4-0.5-0.6-0.4-0.3-0.8-0.2-0.2-1.3-0.5-0.4 0 0.3 1.1 0 1-0.3 0.5-0.6-0.1-0.2-0.5-0.3-0.8-0.1-1 0.2-1-0.6 0.6-0.3 0.2-0.4 0-0.3 0.2-0.1 0.4 0 0.4-0.2 0.3-0.6-0.1-0.6-1.5-0.7 0 0.2-1-0.6-1.6 0.2-1.2-0.3 0.4-0.4 1.3-0.3 0.4-0.2-1.4 0.3-1.6 0.6-1.6 0.5-1.1-0.5-0.2-0.3-0.4-0.3-0.5-0.3-0.2-0.3 0.2-0.4 1.2-0.3 0.2-0.8-0.5-0.3-1.3-0.1-1.3-0.6-1 0.4-0.9 0.1-0.6-0.2-0.5-0.5-0.4-1.2-0.5-0.1-0.4 0.2-1.2 0.9-1.7 0.5-0.9 0.3-0.3 0.2 0.6 0 0.9-0.4 1.8 0.4 0.3 0.4-0.1 0.3-0.6 0.2-0.8 0-1-0.2-0.6-0.3-0.3-0.4-0.6-0.3-1.3-0.2-1.4 0.1-1.4 0.2-1.3-0.5-1.3-0.4-1.3-0.2-1.6-0.1-2.1-0.6 0.8-0.6-0.9-0.5-1.6 0.1-1.4 0.4-1.1 0.8-2.9 0.4-1.2 1.2-1.4 0.8 1.8 0.5 3.1 0.6 2.4 0.3-2.4 0.6-2.3 0.4-2.2-0.4-1.9 0.2-0.4-0.4-0.4-0.9-0.4-0.7-0.6-0.2 0.4-0.2 0.6-0.3 0.4-1.3-0.5-0.2 0.1-0.4 0.6-0.3 0.2-1.2-0.1-0.7 0.1-0.7 0.6-1 1.3-0.1 0.6 0.8 0.4-0.3 1.1-0.1 0.8 0 0.9 0 1.9 0.2 1.6 0.3 1.3 0.5 1.2 0.7 0.9 0.7 0.3 0.6 0.5 0.5 1.1 0.3 1.2 0.2 1-0.7 2.2-1.5 2.1-1.8 1.3-1.5-0.2-0.4-1 0-1.2 0.2-2.6-0.1-0.6-0.3-2.1-0.2-1.2 0-0.6-0.2-0.7-0.2-0.3-0.7-1-0.1-0.1-0.3-0.3-0.2 0-0.1 0-0.1 0-0.5 0-1.1-1.3-0.9-0.4-0.9 0-0.4 0.9 0.4 0.3 0.6 1.1 0.4 0.2 0.4 0.1 0.4 0.3 2 1.1 0.5 0.9 0.4 1.2 0.1 1.7 0 1.5-0.1 1.7-0.3 1.4-0.5 0.5-1-0.4-1.9-1.6-1 0 0.3 1 0.6 1.1 0.7 0.9 0.6 0.3 0.7 0.6 1.1 2.4 2.8 0.9 0.6 0.6 0 1.1-0.2 1.1-0.8 1.7-0.1 1 0.6 0.8 1.1 0.9 0.5 1.1-0.3 0.5-0.5 0.6-0.3 0.9-0.3 1.3-0.5-0.1-1.1-1-1.4-0.5-0.3 0.2-0.1 0.3 0.1 1.2 0 0.5 0.1 0.7-0.1 0.4-0.8 0.2-0.2 0.4 0 0.4-0.4 1.4-0.1 1.2 0 1.1 0 0.7-0.7-0.4-0.1 1.2 0.3 1.8 0.3 1.5-0.4-0.6-0.2-0.9-0.1-0.9-0.3-0.8-0.2 1.1 0.1 2.8-0.2 0.6-0.1-0.7-0.9-3.8-0.2 0-0.1 0.8-0.3 1.3 0 0.7 0.2 0.5 0.2 0.5 0.2 0.6-0.1 0.6-0.6 0.8-1 0.7-1.1 0.3-0.8-0.3 0.4-0.6 1.1-0.8 0.2-0.4-0.2-1-0.4 0-1 0.8-0.4 0.2-0.8 0.8-0.6 0.2-0.1-0.3-0.7-0.5-0.5-0.1 0.5 2.4-0.5 1.2-1 0.7-0.8 0.2-3.4 0.1-1-0.5 0.8-0.5 0.2-1-0.3-1.2-0.5-1-1.2-1.5-0.5-0.1-0.2 1.2-0.3-0.3-0.7-1.3-0.2-0.1-0.2 0-0.2-0.2-0.1-0.3 0-0.9 0-0.1-0.4-0.2-0.1 0.6 0 1-0.1 1-0.4-0.3-0.3-0.3-0.3-1-0.2-0.6 0-0.6-0.1-0.5-0.4-0.4 0.4-0.5 0-0.6-0.3-0.3-0.9 1-1.9-0.3 0.6 1.1 1.9 1.6 0.4 1.5 0.6 0.7 1.3 0.5 0.9 0.9 0 1.8-0.2 0-0.1-0.3-0.2-0.2-0.2-0.3-0.2 0.6-0.3 0.3-0.9-0.1 0 0.4 0.3 0.1 0.3 0.2 0.3 0.4 0.1 0.5-0.8-0.1-2.1 1 0 0.4 0.1 0.1 0.3 0.3-1 0.4-3.2-0.4 1.2 1.1 0.4 0.6-0.4 0.3-1.2-0.3-0.5 0.2-0.1 0.9-0.7-0.7-0.9-0.3-0.8 0.2-0.4 0.8 0.7-0.4 0.3-0.1 0.3 0.1 0 0.4-0.1 0.4-0.2 0.3-0.2 0.2-1.4 0.2-0.7-0.2-0.6-0.9-0.1 0.8-0.7 2.1 0.3 0 0.7 0.3 0.2 0.1 0.4-0.2 0.9-0.6 0.8-0.3 0.7 0 0.7 0.3 0.8 0.4-0.5 0.7-1.4 1-0.7 0.7 0.7-0.1 0.6-0.3 0 0.4-0.5 0.3-0.7 0.5-0.6 0.8-0.3 0.8-1 0.8-1.8 0.3-5.2-0.7-0.3 0.2-0.2 0.4-0.1 0.5 0.1 0.1 2.5 0.9 0.7-0.4-1.6-0.9-0.4-0.4 3.4 1 0.1 1.1-0.9 0.6-2.8 0.1-1.1 0.5 0.9-0.1 2-0.3 0.9 0.2 0.5 0.8-0.3 0.4-1.2 1.3-1.9 1.7-1.7 1.2-1.3-0.4-0.2 0.2-0.1 0.3-0.1 0.2-0.2 0.1-0.2-0.1-0.3-0.5-0.2-0.2-0.7-0.4-0.4 0 0.2 0.6 0.6 0.6 0.3 0.4-0.1 0.6 0.1 1.3-0.2 1.3-0.4 0.7-0.6 0.8-1.9 1.9-0.7 0.9-0.9 0.7-0.6 0.4-0.7 0.4-0.4 0.7-0.2 0.6-0.6 0.8-0.2 0.7-0.8 0.5-0.4 0.2-0.5 0-0.3 0.2-0.3 0.4-0.2 0.5-0.2 0.6-0.4 0.3-0.4 0.1-0.2-0.2 0-0.4-0.2-0.4-1.1 2.1-1 1.1-0.2 0.6 0.4 0.7-0.5 0.8-0.7-0.1-0.7-0.3-0.6 0.4-0.4-0.7-0.4-0.1-0.3 0.3 0.1 0.7 0.1 0.6-0.6 0.1-1.1-0.2-0.2 0.2-0.9 0.9-0.2 0.4-0.4 0.4-1.1 0.3-0.5 0.3 0.2 0 0.4 0.2 0.2 0.2-0.4 1-0.3 0.4-0.6 0.5-0.1 0.4-0.1 0.3 0 0.6 0 0.3-0.6 0.7-0.5-0.6-0.4-0.7-0.5 0.1-0.6 1.7-0.4 0.7-0.4 0-0.4-0.3-1-0.1-0.4-0.2-0.2-0.2-0.3-0.8-0.3-0.6 0.8-0.4 0.5-0.4 0.4-0.4-0.7-0.9-0.4-1.6-0.5-1.2-0.8 0.1 0.6 1.2 0.2 1.1-0.2 1.2-0.5 1.1-1.6 1.1-0.6 0.9 0.7 0.9-1.3 0.7-4.9 0.7-1.2 0.5-0.6 0.2-1-0.5-0.3 0.1 0.2 1.1-0.5 0-0.3-0.1-0.2-0.3 0 1.2-0.4 0.6-0.6-0.3-0.5-1.1-0.1 0.8 0 0.3 0.1 0.5-5.8 0-3.7-1-0.5-0.5-0.1-0.8-1.8 0.9-0.5 0.6-0.3-0.8-0.3-0.3-2.2 0.8-0.1 0.3 0 0.2 0 0.2-0.1 0.3 0 0.4 0 0.4-0.3 0.1-0.2 0.1-1.1 0.4-0.5 0.1-0.3-0.2 0.2-0.8-0.2-1.1 0.7-0.8 1-0.5 0.7-0.6 0.3-0.4 0.3 0.1 0.3 0.4 0.3 0.2 0.3-0.3 0.5-1.3 0.2-0.5 0-0.3-0.6 0.1-2 1.1-0.4 0.6-0.5 0.3-2.3 1-0.7 0 0.5-0.7 0.8-1.8 0.5-0.6-0.5-0.4-1.7 2.4-0.7 0.7 0.2-0.7 0.2-0.6 0-0.7-0.2-0.7-0.3 0.2-0.6 0.7-0.3 0.2-0.5 0-0.6-0.2-0.5-0.4-0.4-0.5 1.4-0.9 0.7-0.3 2.4-0.1 0.8-0.3 0.4-0.8-0.9 0-1.7 0.6-0.9-0.3-0.8-0.7-1.4-1.9-0.8-0.1 1.1 3.1-0.1 0.5-1.6 0.2-0.8-0.2-0.5-0.9 0.4-0.6 0-0.7-0.1-0.8-0.1-1-0.7 3-0.3 1 0.5 0 0.2 0.3 0.1 0.4 0.2 0.5 0.4 0.3 0.6 0.4 0.6 0.8 0.3 0.2 0 0.3-0.6 0.4-0.3 0-0.6-0.4-0.4-0.1-3.1-0.1-0.7-0.4-1.7-1.9-0.3-0.7 0.6-0.2 0.5-0.5 0.4-0.8 0.2-1.1 0.3-0.7 1.7-0.1 0.7-0.2-0.5-0.4-0.2 0 0.7-1.1 1.5-0.8 1.3-1.4 2.4-1.5-0.5-0.2-0.8 0.2-1.4 1-1.8 1.7-0.5 0.1-0.4-0.5-0.9-1.9-0.2-0.6 0.2-1.1 0.5-0.5 0.6 0 0.6 0.6 0.4-1.2-0.6-0.9-0.7 0.2-0.8 0.5-0.6-0.2 0 3.2 0.2 1.1-2 0.1-1.9-1.1-3-0.6-1.7-0.8-1.7-1.3-0.3-0.2-0.5-0.1-0.5-0.2-0.5-0.3-0.4-0.4-0.5-0.4-1.9-0.2-1.7-1.2-0.7-0.8-0.4-0.3-0.9-0.2-0.3-0.1-0.3-0.3-0.5-1-0.2-0.5-0.1-0.5-0.2-0.8 0-0.7 0-0.6-0.1-0.5-0.3-0.6-0.8-0.3-2.8 0.1-1.2-0.5-0.6-1.8-1.1-0.4-1.2 0.4-1.8-1.6 0.2-0.9-1.1-1.8-1.3-2-0.8-2.3-0.6-1.6-0.3-1.2-0.3-0.9-0.9-1.5 0.5-0.6 1-1.1 0.2-0.9 0.2-1 0-1.1-0.1-1.1-0.2-0.9 0.3-0.4 0.4-0.2 0.3-0.2 0.3-0.7-0.1-0.4-0.2-0.3-0.4-0.6 0-0.3-0.2-0.9-0.2-0.6 0-0.6 0.3 0.1 0.3 0.4 0.3 0.3 1 1.6 0.6 0.5 0.2-1.1-0.3-0.6-0.7-0.9-1.3-1.2 0.3-0.4 0.3-0.3 0.3 0 0.4 0.3-0.4-0.7-1.2 0.3-0.5-0.4 0.4-0.4 0.2-0.7 0.2-1.7 5.1 3.6-0.3 1.5-0.2 2 0.1 1.8 0.4 1.3 0.6-3.7 0.6-0.3 1.4 0.1 0.5-0.2 0.1-0.4-0.1-1 0.1-0.3 1 0 0.4 0 0.5 0.3 1.1 0.8 0.5 0.6 0.7 1.3 0.4 0.6 3.7 3.3 1.3 0.5 2.9 0-0.7-0.6-2.7-0.2-0.5-0.4-0.6-0.7-0.5-0.8-0.2-1 0.1-0.7 0.5-0.9 0.8-1.3 0.7-0.7 2.1-1.3 13.2-4.1 0-0.4-8.4 1.6-1.7 1.1-4.2 1-1 0.8-2.9 4.7-1.5-2.8-0.3-0.7 0.3-1.2 0.7-0.4 0.8-0.1 0.5-0.3-0.4-0.3-0.5-1-0.3-0.4-0.5 0.1-1.2 0.5-0.6-0.1-0.6-0.6-0.7-1-0.5-1.3-0.1-1.2 0.5-1 1-0.6 3.1-0.8 0.8-0.5 1.8-0.4 0.6-0.4-1.2-0.3-1.5 0.4-0.9-0.1 0.6-1.6 1.1-1.9 0.4-0.6 1.4-1 1.4-1.7 2.5-0.9 2.2-2.3 1.4-0.3 2.8 0 0-0.4-3.7 0-0.8 0.3-3.4 2.7-1.5 0.6-1.3-0.4-0.8-2 4.6-0.3 0-0.5-0.3-0.6-0.4-0.6-0.4-0.7 0 0.5-0.1 0.5-0.2 0.5-0.5 0.4-0.3-0.4-0.2-0.6-0.3-0.2-0.1 0.2-0.4 0.8-0.2 0.2-0.4 0.1-0.3 0-0.3-0.1-0.4-0.2-0.3-0.5-0.2-0.6-0.1-0.7-0.2 1.2-0.5 0.4-0.6-0.1-0.6-0.3 0-0.4 0.3-0.3 0.3-0.6 0.2-0.6 0.2-0.6 0.4-0.5 0.3-0.4 0.8-0.7 1.6-0.9 0.7-0.6 0.6-1 0.1 0.2 0.3 0.4 0.1 0.2 0.1-0.5 0.2-0.4 0.4-0.9 0.1-0.5 0.1-1.2 0.1-0.6 0.6-0.7 5.7-2.5 3.6-0.5-1.2-0.7-5.2 1-2 1.6-1.1 0.1 0.4-0.9 0.5-0.9 0.4-1 0.2-1.1 0-1.2 0.1-1.1 0.3-1 0.4-0.6-0.7 0.4-0.6 1.4-0.4 1.8-0.2 1.6-0.1 0.4-0.2 0.8-0.6 1.2-0.6 1.1-1.1 2.6-0.3 0.5-0.4 0.6-1.3 1.1-0.6 0.8-1.1 0.8-0.5 0.2-0.5-0.3-0.4-1.3-0.4-0.1 0.1 0.9-0.1 0.1-0.3 0.2-0.2 0.1 0 0.4 0.3 0.1 0.3 0.3 0.1 0.4 0.2 0.5-1.5 1.2-0.7 0.3-0.4-1-0.1-0.6-0.2-0.4-0.3-0.4-0.2-0.4-0.1-0.8 0-0.6 0.1-0.6 0-0.7 1.2 0 7-1.8-0.6-0.8-0.9-0.2-0.9 0.3-1.6 0.8-3.7-0.2-0.5-0.2-0.4-0.4-0.3-0.4-0.4-0.8-0.2-0.2-0.3-0.3-0.3-1.1-0.2-0.3-0.3 0-0.6 0.7-0.3 0.1 0.8 1.9 0.1 0.9-0.3 1-0.7 0.8-0.8 0.3-0.8-0.4-0.5-1.1 0.2 1.4-0.5 1-1.6 1.3 0.6 0.1 2.2-1.4 0.8-0.1 0.7 0.2 0.5 0.5 1.6 2.1 0.1 0.7 0.1 1.4-0.4 0.2-1.9 0.2-0.7-0.2-0.3 0.7-0.4 0-1.1-0.3-0.2 0.1 0 0.4 0.1 0.4-0.2 0.3-0.3 0.5-0.2 0.1-0.3 0.4-1.3 0.7-0.4 0-0.1-0.8 0.3-0.7 0.4-0.5 0.4-0.1 0-0.4-0.7-1.2-0.4-2.2-0.7-1.6-0.8 0.5 0.3 0.1 0.3 0.3 0.2 0.4-0.3 1.2 0 2.6-0.3 1-0.5 1-0.6 0.8-0.8 0.5-0.9-0.1-0.6-0.6-0.6-1.1-0.4-1.4 0.2-1.2 0.3-1.2 0.1-1.3-0.3-0.8-0.6 0.6-0.3 1 0 1.2 0.1 2.6-0.1 0.7-0.1 0.4-0.3 0.2-0.3-0.3-0.2-0.5-0.1-0.7-0.2-1.3-0.3-0.9-0.1-0.7 0.2-1.2 0-0.8-0.1-0.6-0.2-0.3-0.4 0-0.1 0.2 0 3.2 0 0.3-1.1 0.6-2-4.8-0.9-0.4-0.2-0.8-0.1-1.2-0.1-2.1-0.1-0.3-0.1-0.2 0-0.3 0.2-0.4 0.4-0.4 0.4-0.1 0.9 0 0-0.3-1.3-0.5 0-0.4 0.7-0.3 0.4-0.5 1.6-2.5 0.5-1.7 0.5-0.6 0.7-0.5 0.7-0.4 0.6 0.2 0.2 0.7 0.2 2 0.4 0.7 0.1-1 0.4-0.9-0.1-0.6-0.3-0.9-0.5-0.6 0-0.6 0.4-1.2 0.7-1.1 1.6-1.8-0.1 0.6-0.1 0.2 0.3 0.4 0.2 0.2 0.1 0.3 0.1 1 0 1.3-0.2 1.3-0.4 1.1-0.1 0.6 0 0.7 0.2 0.7 0 0.7 0 0.8-0.1 0.3-0.7 0.6-0.1 0.2-0.2 0.5 0 0.1-0.6-0.1-0.3 0.1-0.2 0.2-0.1 0.5-0.2 0.8 0 0.3 0 0.4 0.3 0.3 0.2-0.1 0.4-0.5 0.2-0.2 1.9-0.9 0.4-0.4 0.3-0.9 0-0.2 0.3-1.2 0.1-1.3-0.4-0.5-0.1-0.6 0.3-1.4 0.5-1.4 0.4-0.8 0.5-0.2 0.9 0.5 0.5 0.1 2.1 0 0.9 0.4 0.2 1-0.1 1.2-0.3 1.2 0.8 0 0.4-0.2 0.2-0.2 0.1-0.4 0-1.1 0-0.4 0.7-0.7 1-0.1 1.8 0.2 0-1.3-2.8 1-0.8-0.1-0.5-0.8 0.3-0.8 1.3-1.3 0.2-0.4 0.1-0.5 0.2-0.3 1.9-0.4 0.3-0.1 0.2-0.5 0-0.5 0-0.5 0.3-0.2 0.3 0.2 0.3 0.4 0.2 0.4 0.2 0.2 1.6 0.6 1.6-0.6 3.8-3.1 0.2-0.4 0.2-0.2 0.5 0 0.2-0.2 0.4-0.9 0.1-0.2 2.3-0.8 0.6-0.8-2 0.6-3.8 2.4-2.6 2.4-0.5 0.3-0.5 0.1-1.2-0.1-0.6-0.3-0.3-0.8 0-1 0.3-0.4 0.3-0.3 0.2-0.6-0.1-1.5 0-0.6 0.3-0.6-0.6 0.3-0.4 0.9-0.2 1.1 0 1.2-0.4 0.7-0.9 0.6-1 0.5-0.7 0.1-0.7-0.4-0.5-0.7-1-1.6-0.7-0.8-0.6-0.1-0.3-0.4 0.5-1.4-0.6 0.6-0.7 0.6-0.6 0-0.5-0.8 0.8-0.1 0.8-0.4 1.4-1.2-0.1-1.7 1-1.3 1.4-0.8 1.3-0.4 3.2-0.4 0.2-0.2 0.2-0.4 0.1-0.5 0.1-0.4-0.2-0.2-0.9-0.8 1.9-3.7 2.7-2.1 5.9-1.8 0-0.5-0.7 0.1-0.2-0.6 0.1-0.9-0.2-0.6-0.3 0-0.5 0.5-0.3 0.5-0.2 0.4-0.5 0.9-1 0.6-1.1 0.4-0.8 0.1 0.1-1.7-0.7-2.1-0.3-1.8 2.1-1.1 0.4-0.7 0.3-0.9 0.4-1.1 0.9-1.1 0.1-0.6-0.3-0.8 1.7-0.5 0.6-0.4 0.3-0.4 0.7-1.1 0.4-0.2 0.3-0.1 0.1-0.1 0-0.3 0.1-0.3 0-0.3 0.2-0.3 0.2-0.2 1-0.6 1-0.3 0.7-0.4 1.2-2 0.7-0.6 1.1-0.2 1.1 0.1 2 1-1.5 3.2-0.6 2.1 0.2 1.5-0.3 0.8-0.9 1.3-0.2 0.6-0.3 4.7-0.3 2.1-0.1 1 0 1.6 0.2 1.8 0.2 0 0.1-3.3 0.1-1.8 0.6-1.2 0.9-2.6 0.1-0.8 0-0.6-0.3-1.5 0.8-1.4 1-3.9 0.7-1.5 0.6-0.5 0.9-0.6 0.4-0.6 1-2.3 0.5-0.7 0.6-0.6 0.6-0.3 4.3-1.2 2.7 0.8 1.5 0 0.8-1.7-6.3 0 0-0.4 0.2 0 0.3-0.1 0.3-0.2 0.1-0.3 0.1-0.7 0.3-0.2 0.3 0 0.3-0.2 1.7-3-0.9-0.1-1.2 0.9-1.1 1.4-0.8 1.2-1 1.9-0.5 0.4-2 0.7-1.1 0.9-1.9 2.1-0.6 0.2-0.8 0.2-0.7-0.2-0.5-0.6 0.4-1.4 2.1-2.2 0.7-1.1-1.5 0.4-2.6 3.1-1.5 0.7-0.9 0.2-1.7 0.9-0.9 0.2-0.8 0.4-1.6 1.7-0.7 0.5-0.8-0.1-0.8-0.5-0.6-0.9-0.5-1.1-0.4-2.1-0.2-0.4-0.4 0 0 0.6 0.1 0.7 0.2 0.6 0.2 0.5 0.6 1.6 0.6 0.7 0.3 0.4-0.1 0.6-0.4 0.3-1-0.6-0.8 0.6-1 0-0.5 0.4 0.5 0.3 1.7 0.5-0.3 0.9-0.9 1.2-0.3 0.9 0.2 0.6 0.2 0.3 0.2 0.3-0.3 1.2-0.3 0.8-0.5 0.5-0.6 0.1-0.6-0.4-1.5-1.1-0.6-0.2-0.6 0.4-0.3 0.9-0.3 1.1-0.3 1-1 1.6-0.6 1.4-0.3 0.4-0.5 0.1-0.5-0.2-0.4 0-0.3 0.9 0.1 0.7 0.6 3.1 0 2.2-0.5 1.7-1 1-1.2 0.2 0.1-0.5 0.1-0.4-0.6-0.3-0.5 2-0.5-0.2-1-0.9-0.2-0.4 0-0.5-0.2-0.4-0.2-0.4-0.2-0.2 0.2-1.3 0.4-0.3 1.1 0.4 0.6 0 0.6-0.4 0.5-0.6 0.2-1.1-1.3 0-0.2 0.1-0.1 0.3-0.1 0.3-0.3 0.1-0.4-0.2-0.2-0.4-0.1-0.5-0.3-0.3 0.2-0.4 0.6-0.5 0.1-0.9-0.7-1.7 0-1 0.6-0.6 2-1.1 0-0.4-1 0-1.2 0.5-1.2 0.7-0.8 0.9-0.1 0.3 0 1-0.2 0.4-0.2 0.1-0.6-0.2-0.8 0.7-0.6-0.1-0.6-0.6-0.3-0.7 0.5-0.3 0.4-0.6 0.2-0.7-0.5-0.5 0-0.5 1.1-0.1 2.2-1.3 1.1-0.3 0-0.4-2.5 0.1-0.8 0.3 0.9-1.3 0.3-0.7-0.2-0.5-0.5 0-0.4 0.7-0.5 0.9-0.4 0.5 0.1-1.1 0.3-0.5 0.4-0.3 0.2-0.4 0.2-0.6 0.8-1.8 0.2-0.4 0.1-0.4 0.2-0.6 0.2-0.7 0.2-0.4 0.5-0.5 1.1-0.5 0.4-0.5 0.1-0.8-0.6 0.1-0.6 0.6-0.3 0.3-0.4 0.2-0.4 0.4-0.4 0.5-0.2 0.6-0.1-0.3-0.1-0.6-0.1-0.3-0.4 0.8-0.6 1.3-0.5 1.4-0.1 1.3-0.3 0.5-1.2 3.2-0.1 0.8-0.3 0.2-1.3 1.7-1.1 0.9-0.4 0.6-0.1 0.6-0.2 0.8-0.2 0.5-0.7-0.8-1.1-0.7 0.5-0.4 0.2 0 0-0.5-1.7-0.7-0.4-0.6 0.2-0.5 0.4-0.4 0.8-0.3 0-0.4-0.9-0.3-2.2 0.9-0.8-0.2 2.2-2.4 0.4-1-1 0-3.2-0.8-0.3-0.3 0-0.7 0.1-0.8 0.2-0.6 0.3-0.3 0.5 0 0.9 0.1-0.5-0.8-0.4-0.3-1.2-0.2-0.4-0.1-0.1-0.5 0.1-1 1-1.3 2.7 0.1 1-0.6-0.5-0.3-1-1.8 0.3-1 0.1-0.3-0.8-1.4 0-1 1.3-2 0.8-0.4 0.9 0.9 0.9 1.2 0.7 0.6 0.3 0.2 1.6 2.2 0.8 0.7 1.6 0.9 1.4 0.4 1.4-0.2 1.1-0.8-0.1-1.1 0.5-0.5 0.7-0.4 0.5-0.5 0.2-0.9 0-0.9-0.2-2.1 0-1.8 0.1-2.6 0.4-2.2 0.6-1.1-0.6-0.7 0.1-1.1 0.4-1.2 0.3-0.9-0.6 0.8-0.6 0.2-1.4-0.1-0.1-0.4 0.3-1 0.4-1.1 0.3-0.5-0.6-0.3-0.4 0.8-0.4 1.1-0.6 0.5-0.3 0.2-0.5 0.8-0.3 0.3-0.5 0.1-1.3-0.1-0.3 0.7 0.4 3-0.3 0.6-0.7 0.1-1.9 0.8-2.1 2.2-2.3 1.2-0.7 0.1-0.8-0.3-0.8-0.7-1.1-1.2-0.9-1.3-1.9-2.1-0.4-0.9 1.2 0.2 1 0.7 2.1 2.1 0.1-0.4-2-3-2.4-2.6 0.5 0 1.4 0.4-0.6-1.3-1-0.3-1-0.1-0.9-0.6-1.4-2.4-0.9-0.9-0.9-0.4 0.8-0.5 0.9 0 0.9 0.4 1.4 1.4 1.6 0.4 1.2 1.4 0.9 0.6 3.1 1.2 0.8 0.6 0 0.9 0.1 1.4 0.5 1.3 0.7 0.9 0.8 0.3-0.3-0.2-0.2-0.4-0.1-0.5-0.1-0.6 0.7 0.5 1.2 1.4 0.6 0.2-0.4-0.9-0.9-1-0.6-0.9 0.3-0.6 0.4 0.2 1 1.1 0.2 0-0.1-0.7-0.3-0.4-0.3-0.5 0.1-1-1-0.5-0.2-0.4-0.2-0.4-0.1-0.6-0.1-0.4-0.2-0.2-1.4 0-0.8-0.2-0.8-0.8-0.3 0-0.2-0.2-0.1-0.8 0.1-0.2 0.7-0.8 0.7-0.5 1.3-0.4 0.7-0.4-0.4-1.7 0.6-0.8 2.2-1.1 0.6 0.2 0.5 0.2 0.5 0.1 0.5-0.1 0.4-0.2 0.8-0.6-0.9-0.1-0.9-0.4-0.2-0.7 0.7-0.9-0.7 0.1-2.2 1.6-1.6 0.3-0.7 0.6-0.2 1.5-0.8 1.4-1.6 0.3-1.6-0.6-0.6-1.7-0.1 1.5-0.5 1-0.5 0.1-0.4-0.9 0.4-0.5-0.6-0.2-1.4 0.2-0.6-0.6-0.2-0.7-0.4-1.9-0.3-0.8-0.2-0.4 0-0.3-0.1-0.4 0-0.7-0.1-0.3-0.6-0.7-0.1-0.5 0.2-0.7 0.7-0.2 0.8 0.2 0.6 0.3 0.6 0.5 0.2 0.5-0.2 2.2 0.2 1.1 0.2 0.7 0.3 0 0.1-0.9-0.2-2.9 0.1-0.8 0.4-0.7 0.6-0.2 0.3-0.4-0.1-1.3-0.2 0.2 0 0.1 0 0.1-0.4 0.1-0.8 0.7-0.5 0.1-1.6-0.4-0.4-0.3-0.2-0.9 0-1.2 0.1-1.1 0.2-0.8 1.6-1.8 2.1-0.2 2 0.8 2.5 1.7 0.9 0.4 2 0.3 1.3-0.1 0.4 0.1 0.2 0.6 0.1 0.8 0.2 0.6 0.4-0.3 0.2-0.5-0.2-0.5-0.1-0.6-0.1-0.7 0.1-0.9 0.5-0.3 0.4-0.2 1.2-1.1 1.2 0.3 1.3 0.5 1 0.2 0-0.5-0.9-0.7-0.4-0.4 0.1-0.2 1.1-0.3 0.6-0.1 0.5 0.4 0.7-0.7 1.2-0.7 1.2-0.3 0.5 0.7-0.3 1.7 0 0.8 0.4-0.4 0.3-0.5 0.4-0.5 0.4-0.3 0.5-0.2-0.4-0.7-0.1-0.2 1-0.6 0.9-0.2 2.6 0 1 0.4 0.6 0 2.1-0.4 1 0.2 2 0.9 1 0.2 0.9 0.5 0.4 1-0.1 1.2-0.8 0.8 1-0.1 0.4-0.4 0.4-0.6 0.4-0.3 0.5-0.2 0.5 0.1 0.4 0.1 0.3 0.7-0.2 0.8-0.4 0.9-0.3 1.1 0.5 0.1 0.5-0.1-0.1-0.9 0.2-0.7 0.2-0.5 1-1.4 0.7-0.8 0.9-0.6 1.7-0.4 0.7-0.5 0.7-0.9 0.6-1.5 0.2-1.6 0.2-0.5 0.4 0.1 0.7 0.7 0.4 0.3 4.2 0.5 1.5 0.7 0.4 0.3 0.2 0.4 0.1 0.6 0 0.8 0.1 0.6 0.2 0.4 0.4 0.1 1.8-0.2 0.5 0.2 0.3 0.5 0.5 2.2 0.5 1.1 0.3 0.6 0 0.6-0.2 0.6-0.4 0.6-0.5 0.6-1 0.5-2 2.3 2.8-1.8 1.4-0.4 1.2 0.4 2 1.6 0.4 0.8 0.1 0.9-0.8 3.2 0.8-0.8 0.8-1.4 0.4-1.7-0.3-1.7-0.3-0.2-1.6-0.3-0.2-0.3-0.3-0.7-1.2-3.3-0.3-0.5-0.3-0.5-0.3-0.6-0.3-1.7-0.2-0.5 0.1-0.4 0.5-0.5 1.3-0.4 3.2-0.2 0.9-1.2 0.5-0.6 0.4-0.1 2.5 0.6 0.3 0.3 0.7 0.9 1 0.5 2 0.2 0-0.5-0.6 0-0.4-0.2-0.3-0.3-1.1-1.3-0.3-0.3 0.4-0.6 1.4-1 0.3-0.4 0.3-0.8 0.9-0.4 4.6-0.4 1.5-0.5 1.3-1.6-1.1 0.1-0.8 0.3-1 0.8-4.7 1-1.8-0.1-0.9-0.4-0.4-1.1-0.1-0.7-0.1-1.2 0-0.7-0.2-0.7-0.2-0.3-0.3-0.2-0.2-0.4 0.1-1.3 1.3-1.1 0.3-1.2 0.1-1.5 0.3-0.7 1.3-1.1 0.4-0.8 0.5-1 0.5-0.9 0.6-0.4 0.7-0.2 0.8-0.6 0.6-0.8 0.5-1-2.6 1.6-4.3 4.5-0.7 0.2-1.2-0.5-0.7-0.1 0.6 0.8 0.5 0.6 0.3 0.7-0.1 1-1.8 2.5-0.2 0.7 0.6 0.9 0.7 0.6 0.5 0.9 0.4 2.7 0.3 0.8 0.6 0.5 0.6 0.4-1.3 1.5-0.4 0.2-0.4 0.1-0.4-0.1-0.7-0.4-0.2-0.2-0.4-0.5-0.2-0.2-0.5 0-1.2 0.5-0.4 0.4-0.1 0.2 0 0.4-0.1 0.4-0.2 0.3-0.3 0.3-4 1-1.1 0.9-0.6 0.2-0.5-0.2-0.6-1.3 0.8-1.1 1.1-0.9 0.8-1.1-1.7 1.1-0.8 0.3-0.9-0.1-2.6-1.1-4.4-0.9-3.3-1.9 0.4-1 1.1-1.1 0.5-0.7 1.1-3.3 0.3-0.4 0.7-0.9 0.1-0.2 0-0.5 0.2-1.2 0.1-0.3 0.2-0.3 0.1-0.7 0-0.6-0.4-0.1-0.1 0.2-1.9 5.7-1 2-1.2 0.8-0.4-0.2-0.4-0.9-0.3-0.3-0.3 0.3-0.3 0.4-0.2 0.6-0.1 0.3 0.4 1 0.3 1 0.1 0.3-0.1 0.4 0.1 0.5 0.4 0.5-2.1-0.4-0.1 0.2 0.3 0.4 0.4 0.2 0.3 0.4 0.1 0.7 0.1 0.9 0.1 0.7-0.1 0.6-0.3 0.6-0.3 0.4-1.6 1-1.9 0.1-2.7-0.8-2.5-1.4-0.9-2.3-1.3 1.6-1.8 0.7-1.8-0.1-1.6-0.9 1.4-0.9 0.6-0.6 0.3-1.1-2.9 2.2-2.1 0.8-2.1 0.1-0.6-0.6-0.1-1.1 0-0.9-0.4 0.4-0.2 0.6-0.1 1.1-0.3 0.5-0.4 0.1-0.5-0.1-0.5 0-0.3 0.6-0.5 0.3-3.7 0.3-0.6 0.4-1.9 2.3-1.6 1-1.4-0.1-1.3-1-1.1-2.1-0.6 0.8-0.6 0.4-1.7 0.2-0.2 0.1-0.1 0-0.3-0.4-0.3-0.6-0.2-0.3-0.3-0.2 0.3-0.7 0.6 0 0.7 0.1 0.5-0.2-0.7-0.3-0.7-0.5-0.6-0.1-0.6 0.6-0.5 0.1-2-0.8-0.5-0.4 0.5-1.5 1.8 0.1 3.2 1.4-0.1-0.2-0.1-0.8-0.1-0.3 1.1 0-1.6-1.7-0.9-0.6-0.9-0.3-3.6 0.6-1-0.6 0.6-0.3 0.7 0 0.6-0.2 0.4-0.8-1 0.5-0.6 0.1-0.4-0.4-0.3-0.6-0.2-0.3-0.3 0-0.6 0.3 0.3-0.9 0.5-0.6 1.1-0.8 0.8-0.2 0.7-0.2 0.3-0.1 0.5-0.6 0.2-0.1 1.3 0 0.6-0.3 0.6-1.8 0.7-0.2 0.9 0.2 0.6 0.3 0.5 0.4 0.4 0.5 0.3 0.6 0.3 0.7 0.3 2.1 0.4 1 0.4-0.3 0.1-0.8-0.1-1.2-0.2-1.1-0.2-0.8-0.5-0.7-1-0.6-0.5-0.6 5.6-1.3 5.9 0.4-1-0.9-1.4-0.2-11.9 1.5-0.5 0.2-0.6 0.8-1.1 0.7-1.1 0.3-0.6-0.3-0.4-0.7-0.6-0.5-0.3-0.9 0.1-1 0.4-0.9 0.5-0.7 0.5 0 0.3 0.6 0.1 0.8 0.2 0.4 0.4-0.6 0.1-0.3-0.1-1.1 0-0.3 0.3-0.2 1-0.2-0.1-0.3 0-0.2 0-0.2-0.1-0.2-0.6 0.6-0.7 0.2-1.3 0.1-1.2 0.3-1.3 0.1 0-0.4 3.4-1.8 3.2-0.4 0.8-0.9-0.2-0.5 1.1 0.3 1.5 0.8 1.4 0.4 0.8-1 4.5 2.1 1 0.1 0.8-0.4-0.2-0.5 0.6-0.3 1.3-0.2 0.6-0.4 0.3-0.4 0.3-0.6 0.4-0.5 0.5-0.2 1.4-0.1 0.7 0.1 0.5 0.6 0.6 1.3 0.3 0.3 0.7 0 0-0.5-0.7-0.5-1.1-1.7-0.7-0.4-1.8 0-0.8 0.3-0.8 0.6-0.9 1.1-0.2 0.2-1.6 0-1 0.7-0.9 0.1-0.7-0.5 0.1-1.2-1.4-0.5-3.3 0.4-1.1-1-2.3-0.9-1.2-0.9 0.2-1-0.1-0.5-0.1 0 0-0.5 0.5 0 1.4 0.5 0.4 0 1-0.5 3.4 0 0-0.4-0.8 0-4.9-1.6-0.8-0.6 5.9 0-0.6 0.3-0.3 0.1 0 0.4 2.9 0.2 0.7-0.6-2.3-1.1-2.5-0.6 1.5-0.9 0.7-0.9-1.8 0.1-1.3 0.7-0.3 0.1-7.3-0.1-0.7-0.3-0.2-0.4-0.6-1.6-0.1-0.8 0.2-0.6 0.3-0.4 0.4-0.2-0.3-0.6 0.1-0.7 0.3-0.5 0.5 0-0.1-0.3-0.1-0.2-0.1-0.2-0.1-0.2 0.4-0.5 0.4-0.3 1.1 0 0.5 0.1 0.5 0.3 0.2 0.2 0 0.2 0 0.3 0 0.1 0.2 0.1 0.5-0.1 0.1 0 0.6 0.8 0.1 0.2 0.3 0 0.3 0 0.7-0.5-1-1.2-0.3-0.5 0.7-0.5 1.3-0.6-3.9 0.6 0.5-0.9 0.7-0.8 0.9-0.6 3.4-1.5 0.8-0.7-0.1 0-0.1-0.1-0.2-0.3 1.2-0.4 1.3 0-0.5-0.4-0.6-0.1-0.3-0.2-0.1-0.7 0.2-0.4 2-2.4 1-0.4 2.9 0.2 1 0.6 0.6 0.2 1.2-0.2 0.6 0 1.1 0.7 1.3 0.1 0.4 0.5 0.8 1.2 0.8 0.8-0.9 0.5-1.2 0.1-1 0.3-0.7 1.3 0.9 0 2.7-1.3 5.7-1 0.6 0.3 0.1 0.5 0 0.7-0.2 0.8-0.3 2.1-0.9 2.1 0 0.7 0.5-0.8 0.4-0.5 0.4-0.6 0.4-1.2 0.3-2.1 0.3-0.8 0.5-0.2 0.6 0.2 1.5 1.5 1.2 1.9 0.8 0.6 1.7 0.2-0.3-0.9-0.5-0.3-0.5-0.2-0.4-0.5-0.5-0.8-0.5-0.6-0.5-0.5-0.5-0.2 0-0.4 7.1 0 0.7 0.2 1.4 1.3 0.8 0.3 2.7 0.2 0.9-0.2 0.6-0.5 0.3-0.6 0.6-1.6 0.5-0.9 0.7-0.5 0.7-0.3 0.8-0.1 0.9 0.2 1.6 0.9 0.8 0.2 0.3 0.3 0.3 0.4 0.3 0.3 0.3-0.3 0.5-0.9 0.2-0.4 0.3-0.3 0-0.4-0.5 0-1 0.4-0.4-0.2-0.4-0.3-1.5-0.3-0.1-0.2-0.2-0.6-0.2-0.1-0.2 0-0.3 0.4-0.2 0.1-3.1 0.7-0.5 0.8-0.4 1-0.5 1-1 0.6-6.7-2-5 0.5-0.4-0.2-1.4-1.2-0.5-0.1-1.8 0.1-1.7-0.7-0.6-0.1-0.4 0.1-0.9 0.6-0.5 0.1-0.1 0.2-0.4 0.6-0.2 0.1-0.3-0.1-2-2 0-0.5 6.2-0.4 0.9-0.5 0-0.4-9.7-0.6-3.9-0.8-2.1 0.8-0.2-0.2-0.2-0.4-0.3-0.2-2.4 0.7-1.4 0.9-0.8 0.2-1.7-0.3-0.8 0.2-0.7 0.8-0.5 0.2-0.6-0.3-1.1-1 0.4-0.9 0.4-0.9 0.4-1.6 0-0.2 0.5-0.3 0.2 0.3 0.1 0.5 0.3 0.4 0.3-0.1 0.2-0.3 0.1-0.4 0.2-0.1 0.3 0.2 0.4 0.6 0.1 0.1 0.3-0.2 0.1-0.3 0-0.4 0.3-0.5 1.2-0.9 0.4-0.6 0.2-1.6 0.9 0.5 1.2 0.2 0.7-0.3-0.4-0.9-0.5-0.2-0.9 0-0.4-0.4-0.5-0.9-0.4-0.7-2.8-2.2-3-0.5-0.6-0.9 0.3 0 0.3-0.1 0.5-0.3-0.5-0.7-0.9-0.8-0.3-0.8 0.2-0.1 0.3-0.2 0.1-0.1-0.1-0.2-0.2-0.5-0.1-0.2 0.2 0 0-0.1 0-0.4 0.4-0.1 0.9 0.1 0.1 0 0.4 0.1 0.1-0.1 0-0.1 0-0.6 0-0.2 0.7-0.6 0.4 0.1 0.9 1.2 0.9 0.8 0.4 0.5 0.2 0.3 0.3 0 0.2 0 0 0.6 0 0.4-0.2 0.9 0 0.4 1.5 1.9 2.2 1.2 1.9 1.7 0.3 3.6 0.2-0.2 0.4-0.3 0.4-0.9 1-2.7 0.1-0.4 0.2-0.2 0.4-0.2 0.3 0.1 0.6 0.6 0.4 0.2-0.9-1.4-4.4-1.3-0.6-0.4-0.3-0.5 0-0.7 0.7-1.9 0.2-0.9 0.4-0.7 0.7-0.3 0.7 0.2 1.4 0.9 3 0.6 0.6 0.5 0.2 0.8 0.2 0.8 0.2 0.8 1 0.5 1.7 1.6-0.6-1-1-1.2-0.9-1.4 0-1.7 0.5-0.6 0.9-0.1 1.7 0.2 0.5-0.2 1.6-1.3 0.6-0.2 0.8 0.2 0.7 0.6 0.5 0.9 0.1 0.9 0 0.9-0.1 2-0.5 1.7-1.6 2.8-0.2 2.1 1.9-2.8 0.9-1.7 0.5-3.4 0.5 0 2.2 2.6 0.4 0.9-0.2 1.2 1.2-0.6 1.1-0.4 2.6 0.1 4.8 1.3 0-0.4-8.5-2.7-0.4-0.3-0.8-1.6-0.3-0.3-0.4-0.4-1.3-2.3-1.7-1-0.2-0.6 0.1-1.1 0.4-0.3 0.6 0.3 1.2 0.9 0.6 0.3 1.5 0.1-0.5-0.3-0.6-0.3-1.2-0.3-0.2-0.3-0.3-0.7-0.3-0.7-0.5-0.1 0.9-2.2 1.5-1.7 1.7-1.1 1.6-0.4 3.5-2.2 1.9-0.7 0.9 1.3 0.1 0.4 0.9 2.1 0.7 2.2 0.6 1 1.4 1.2 0.7 1 2.1 4.1 0.3 1.2-0.1 0.9-0.8 1.9 1.8-1.7-0.3-1.7-2.6-6.1-2.4-3.8-0.6-1.7-0.3-1.8 0.4-1.5 1-0.6 1.4-0.3 0.6 0.1 0.7 0.6 0.4 0.4 0.9 1.9-0.1-1.1 0-1-0.1-0.7-0.4-0.4 0-0.5 0.6-0.4 2.6-1.2 1.2-1 0.6-0.1 0.5 0.3 0.7 0.9 4 1.1 0.1 1-0.2 1.4 0 1.7 0.4 0.9 2.8 3.8 0.3 0.7 0.2 0.8 0.1 0.5 0.3 3-0.1 0.9-0.3 0.8-1.6 3-0.1 1 0.5 1.3 1 0.8 1-0.1 2.4-0.9 0.8-0.6 0.4-0.2 0.4 0.1 1.1 0.9-1.2-1.9-3.6 2-1.6-0.8-0.2-1.1 0.4-0.9 1.3-1.6 0.3-1.1 0-1.3-0.4-3.7 0.1-0.4 0.3-0.5 0.4-0.2 1.9-0.3 3 2 0.7-0.4 0.6-0.9 0.9-0.7 0.9 0 0.7 0.7 0.5 0.9 0.7 0.8 0.7 0.6 0.6 0.2 0-0.5-1.3-2.2-1.3-0.8-0.3-0.3-0.9-0.5-4 0.7-4.3-1.1-2-1.4-1.3-3 1 0 0.5-0.1 0.4-0.3-3.8-5.2-0.4-0.3-0.6-0.1-1.3 0.1-0.6-0.3 0.5-0.4 0.5-0.5-3 0-6.4 3.1-2.6 0.4-1.2-0.4-0.5-0.5-0.7-1.1-0.5-0.3-0.6 0.1-0.6 0.3-0.7 0.2-0.6-0.6 0.8-0.6 2.8-0.2 2.3-1.2 0.5-0.4 0.7-0.4 2.4 0 1.2 0.6 3.2 0 0-0.5-0.7-0.2-1.2-1.1-1.4 0.6-2.8-0.2 0-0.4 2-0.6 0.7 0.1-1-0.6-8.2 0.6 0.1-0.5 0-0.1-0.1-0.1 0-0.2 0.2-0.9-0.2-0.5-0.3-0.4-0.2-0.4 0.2-0.7 0.4-0.6 0.7-0.6 0.9-0.4 6.7-0.5 0.6 0.3 0.8 0.8 0.5 1.2 0.2 1.4 0.2 0 0.3-1.9 0-0.8-0.3-0.6 0.2-0.6 0.4-0.3 0.3 0.3 0.1 0.6 1.2-1.6 1.4-1.1 0.8-0.3 0.6 0.3 3.2 3.3 0.6 0.8 0 0.4-0.1 0.3 0.1 0.2 0.5 0.1 0.2-0.3-0.1-0.6-0.2-0.6-0.2-0.4 0.2-0.3 0.5-1.1-0.4 0-0.3-0.3-0.3-0.4-0.3-0.6 1.4-0.8 4.9 0.3-0.3 0.8-0.4 0.5-0.5 0.4-0.5 0.1 0.4 0.9 1.4-0.1 0.3 0.8 0.1 1.1 0.5 2 0 1.3 0.2 0 0.2-0.6 0.4-1.6 0.1-0.5-0.1-0.5-0.5-0.8-0.1-0.4 0.8-2 0.4 0.1 1.2 0.8 3.2 0.7 1.5 0.8 2 3 1.8 0 0.9 0.5 0.3 0.9 0.2 1.1 0.3 0.5 0.6-0.9 0.1-0.7 0.1-0.8 0.1-0.7 0.5-0.3 5.8-1.3-1-0.8-7.4 1.3-1.3-0.5-0.6-0.7-0.6-0.9-0.3-1.1 0.2-1.2 0.8-0.8 1 0.3 0.7 1.3-0.1 2.1 0.7 0.3 0.4-0.7 0-1.2-0.7-2.4 0-1 0.4-0.7 1.5-0.5 1.4-1.2 6.7-2.2 3.4 0.1 1.5-0.3 0.7 0.1 0.7 0.4 2.6 2.3 0.6 0.1-0.5-1.7-2-1.4-0.6-1.4 0.3-0.1 0.2-0.3 0.2-0.4 0.1-0.6-0.7 0.1-1.5 0.6-2.8 0.5-1.3 0.9-6.7 1.4-3.8 2.4-1.1 0.4-3.1-0.1-0.8-0.7 1-0.4 0.3-0.5-0.3-0.6-0.8-0.8 1.1-0.4 2.1-1.9 6.4-1.8-0.7 0.1-1.5-0.2-4.8 1.6-1.1 0.8-0.6 0.2-1.4 0.1-1.2 0.7-10.5 1.3-0.6-0.5 0.3 0 0.4-0.2 0.2-0.4 0.1-0.8-0.1-0.4-0.6-0.4-0.1-0.3 0.2-0.9 0.4-0.9 1-1.2 1.6-0.8 4.8 0.8-0.8-0.5-1.1-1.4-0.7-0.4-3.5 0.5-0.4-0.4-1.5-2.6-0.2-1.3-0.6-0.4-1.5 0 0.3-0.7 0.6-0.5 2.8-1.5 2.3-2.1 1-0.5 1.9-0.5 2-1.2 1.1 0.1 0.8 0.6 1.4 1.8 0.8 0.4 1.6 1.4 0.1 0.5 0.5 1.8 1.8 0.5 1.8-1.4 1.7-2 1.6-1.3 0.7-0.1 2.6 0.3 0.2 0.3-0.2 0.5-0.2 0.7-0.6 0.8-2.5 1.7 0.8 0.4 4.3-2.5 0.4-0.2 1.1-0.1 0.5-0.2 1.2-1.4 1.1 0 3.1 1.8 0.4 0.3 0.2 0.6 0 0.5 0.2 0.5 0.4 0.3 0 1.2 0.3 2.2 0.5 2.1 0.4 1.4 1.1 1.1 2.7 0.8 1.3 0.6 2.9 3.5 1.1 0.4 0.9 0.2 1 0.6 0.8 1.3 0.2 2.1 0.7-1.7-0.1-1.4-0.6-1.2-2.7-2.4-2.4-1.4-1.4-1.5-2.6-1.1-1.9-2.1-0.4-0.7-0.1-1.3 0.1-1 0.2-0.7 0.4-0.4 0.5-0.2-0.3-0.2-0.4-0.2-0.3-0.2-0.3-0.5-0.2-0.5-0.2-0.7-0.2-0.4-0.5-0.5-1.3-0.5-2.7-2.7-0.1-0.2-0.3-0.9-0.1-0.3-0.3-0.1-0.4 0-0.3 0.2-0.3 0.4 0.4-0.1 0.2 0.2 0.1 0.3 0.2 0.5-0.7 0.2-1 0.1-0.9-0.1-0.3-0.5 0.5-0.8 1.2-1 0.5-0.7 1-2.3 0.5-0.7 0.6-0.6 0.7-0.4 0.8-0.3 0.7 0.1 0.4 0.4 0.6 0.7 0.4 0.9-0.2 2 0.4 0.9 0.6 0.8 0.5 0.4 2.2 0.8 0.6 0.8 0.6 0.9 0.3 0.2 0.5 0 0.3 0.1 0.2 0.3 0.2 0.5 0.1 0.5-0.9 1 0.3 1 0.5 1.2-0.2 1.7 0 0.4 0.5-0.1 0.9-0.5 0.4 0 0.5 0.2 2.6 2.2 1 0.6 0.5-0.5-0.4-1.3-2.2-0.8-0.8-0.9 0.7 0.1 3.8 1.3 0.6 0.4 0.4 0.5 0.5 1 0.4 0.4 0.5 0.4 1 0.5 0.6 0.4-2.6-3.7-0.7-0.5-2.3-0.5-0.7-0.4-0.6-0.6-1.7-2.7-0.2-0.8 7-0.6 0.7-0.8-0.9-0.6-2 0.6-0.9 0-0.7-0.6 0.4-0.8 1.6-1.3-1-0.2-2 1.9-2.9 1.5-0.6 0-0.2-0.2-0.3-0.7-0.2-0.3-0.2-0.2-0.8-0.4 1.1-0.6 2.5-0.1 1-0.7-1-0.8-4 0.8-1.4-0.1-0.7-0.3-0.5-0.5 0-0.4 0-0.5 0.1-0.5 0.1-0.6-0.1-0.2-0.2-0.2-0.1-0.2-0.4-1.4-0.7-0.9-0.4-0.7 0.7-1 0.9-0.3 0.7 0.8 0.7 1.1 0.8 0.7 0 0.4-0.1 0.7-0.1 0.3 0.7-0.2 0.4-0.2 0.2-0.4 0-0.4-0.2-0.3-0.2-0.3 0.2-0.5-0.5-1-0.6-0.6-1.5-0.7 0-0.5 9.5 1.3 3 1.5-0.5-1.2-1.5-1.1-0.3-1.2 0.4-0.9 0.9-0.4 7.4-1.5 2.8-0.6-2.3 0.1-6.7 0.3-0.8 0.3-0.3-0.2-0.3-1.4-0.3-0.7-0.6-1.2-1.4-1.8-0.8-0.6-0.8-0.4 1.2-0.8 5.7-1.3 1.1-0.7 0.8-1-1.1 0-0.5-0.1-0.5-0.4-0.2-0.4-0.2-0.6-0.2-0.6-1.1-0.8 0.2-1.2 0.8-0.8 1.4 0.9 0.7-0.4 0.8-0.7 0.6-0.4 0.2-0.1 1 0.1 0.5 0.6 0.5 0.9 0.7 0.7 0.3-1.6 1.1-0.2 1.3 0.4 0.9 0 0-0.4-0.8 0-0.1-0.6 0.2-1 0.8-1.3 0.2-0.1 0.3 0.1 1.1 1 1.9 2.3 0.2 0.7 0.2 0.9 0.2 0.7 0.4 0.6-0.7 0.9-0.7 1.3-0.4 1.6 0.1 1.8 1-1.8 0.6-0.7 1.4-0.5 2.3-1.7 5.2-1.2 1.3-1.6-0.8 0.2-1.8 1-4.1 0.3-0.9 0.6-0.4 0.1-0.4-0.4-0.4-0.4-0.7-1.3 0-1.3 0.5-0.9 9.1-2.7 0.1-0.2 0-0.4-0.1-0.3-0.3 0.1-0.4 0.4-2.9 0.9-0.9 0-1-0.8-0.5-0.1-0.2-0.2-0.3-0.9-0.3-0.3 0.1 1 0.2 0.8 0.3 0.6 0.4 0.4-2.5 0-1.3-0.5-0.6-1.3 0.4-1.5 1-0.5 1.6 0-0.3-1.4 0.6 0 0.9 0.3 0.5 0 0.5-0.9 0.8-0.8 0.7-0.6 0.7 0.1-0.4 0.6-0.1 0.8 0.2 0.8 0.3 0.6 0.4 0.2 0.4-0.4 1.4-2.6 0.5-0.7 0.6-0.3 0.7 0.1 0.5 0.6 0.7 1.4 0.4 0.4-0.4-1.7-0.4-1.1-0.7-0.4-1-0.2 0.8-1 0.9-0.4 1.9-0.5 1.8-1.4 1-0.5 0.8 0.6-0.2 1.1 0.6 1.2 1.4 1.9 0.5 0.8 0.3 1 0.1 1.2-0.2 1.2 2.8 2.5 1.5 1.9 0.4 1.5-0.6 2.3-0.4 1.2-2.9 3.3 0.7 0.2 1.2-0.4 1.1-0.7 1.5-1.5 1 0.1 1.1 0.7 1.6 1.9 1.2 0.2 2.2-0.5 0.9 0.2 0.4 0.8 0.2 3.2 0.3-0.4 0.1-0.6 0-1.6 0-0.2 0.1-0.1 0.1-0.2 0-0.4-0.1-0.3-0.1-0.3-0.2-0.1 0-0.2-0.7-0.8-4.9-1.2-0.5-0.3-0.3-0.5-0.3-0.6-0.2-0.9 0-0.8 0.2-0.3 0.4-0.3 0.7-1.2 0.3-0.4 1.9-0.9 4.4-1 0.5 0.2 1.2 1.3 0.6 0.2 0.4-0.1 0.9-0.6 0.9-0.3 1.1 0.1 1 0.5 1 0.9 0.9 0.2 3.5-1.4 0.2 0.3 1.9 0.6 0.7 1.1 0.5 0.4 0.4-0.3 0.6-1.3 0.3-0.3 1.1-0.1 0.5-0.3 0.5-0.4 0.2-0.7-2.9-0.7-1.3-0.8-0.6-2 0.7-1.5 1.5-0.8 2.8-0.3 0-0.5-1.4-0.1-0.6-0.4 0.1-0.6 0.6-0.4 0.5 0 0.5-0.3 0.3-1-2.2 0.3-1 0.5-1 0.9-0.5 0.3-1.2 0.1-0.5 0.5-0.4 0.5-0.4 0.4-0.5 0.2-0.5 0 0-0.4 0.5-0.2 0.3-0.7 0.2-0.6 0.3-0.4 0.2-0.1 0.1-0.3 0.1-0.3 0.1-0.4 0.2-0.3 0.3-0.4 0.1-0.3 0.7-0.8 1-0.7 1.7-0.6 0.6-0.6 1.3-2.2 3.9-2.4 0.7 0.2 0.8 0.8 1.1 0 1.2-0.5 0.8-0.6 0.7-0.9 1.1-2.2 0.7-0.7 2.2-0.6 3.3-0.2 0.4-0.2 0.2-0.9-0.1-0.7-0.3-0.5-0.4-0.2-0.4 0 0.1-0.2 0.2-0.5 0.1-0.2-0.7-1-1.8 0.1-0.9-0.3-0.8-0.7-0.7-0.3-0.8 0-4.3 1.2-0.3-0.1-0.2-0.5 0-0.6 0-0.7 0-0.9 0.2-0.2 0.3-0.1 2-1 0.7-0.8 0.3-1 0.4-0.8 2.4-1.4 4.2-1.2 0.8-0.7 0.7-0.9 0.3-1-1.3 0.2-0.4-0.6-0.5-0.2-1.8 0.1-3.2-0.6-0.2-0.1-0.4-1 0-0.6 0.3-0.5 0.9-0.6 2-2 0.5-0.9-1.1 0.2-0.8 0.5-2.3 2.5-0.7 3.1-0.2 0.5-0.7 0.9-6.5 4.2-0.8 0.8-0.8 1-0.5 1-0.7 0.7-1 0.7-3.6 1.2-1 0.7-1.3 1.9-1.5 0.9-0.7 0.7 0.6 0.1 0.6-0.2 0.6-0.4 1.7-1.6 0.4-0.2 2.1-0.5 4-3.1 1.1-0.3 2 1.5 0.9 0.4 0.8 0.7 0.5 1.8-0.6 0.3-0.7 0.5-0.7 0.7-0.5 0.8-0.1 0.6-0.2 1.2-0.1 0.6-0.2 0.3-0.5 0.5-0.2 0.4-1.2 1.3-3 0.8-2.2 2.1-2.1 0.2-0.9 0.6-0.3 0.6-0.6 2-0.3 0.3-1.1 0.8-1.1 0.4-3.5 2.7-0.5 0.2-1 0.2-1 0.7-0.5 0.1-2.4 0-0.4 0.2-0.7 1-0.3 0.3-0.9 0.2-2.6 2.1-1.2 0.4-1.3 0.1-0.2 0.1-0.2 0.2-0.2 0.1-0.2-0.2-0.1-0.2-0.2-0.3-0.2-0.2-1.2-0.5-0.3-1.2-0.1-1.6-0.5-1.4 0.3-0.8 0.1-0.2-0.5-0.4-1.1-0.1-0.5-0.4-0.5-0.8-0.2-0.9 0.1-0.7 0.6-0.4-0.2-0.7-0.3-0.4-0.7-0.4 0.1-0.2 0-0.3 0.1-0.2 0.2-0.2-0.1-0.2-0.1-0.7 1.3-0.3 2.5-1.4 2.3-0.6 1.1-0.7 1.1-1.1 0.9-1.2-0.8 0.1-1.4 1.3-0.7 0.1 0.1-0.8 0.3-0.6 0.3-0.4 0.3-0.2-0.3-0.6-0.5 0.2-0.6 0.6-0.6 0.3-0.5 0.1-1.5 0.6-1.5 1.8-2.4 0.6-1.6 1.4-2.4 0.2-0.1 0.2-0.1 0.4 0 0.3-0.1 0.1-0.1 0.1-0.4-0.1-0.1 0-1 1-1.4 0.4 0.3-1.2 0.5-1.7-0.5-0.9 0-0.4 5.1-2.6 1.8-0.3 0-0.5-6 1.1-1.1-1.1 3.6-3 5.1-3 1.4-0.1 0-0.5-1.4 0-0.6-0.3-0.5-0.7 3-1.3 0.6 0.2 0.1 0.6-0.2 0.4 0 0.1 0.5 0 0.4-0.1 1-1.3 3-0.9 1.5-1.7 1.7 0.5 0.8-0.3-0.8-1.3-0.4-0.4-0.5-0.2-0.5 0.3-0.9 0.9-1 0.4-1 0.6-1.2 0.4-0.9 0.7-0.6 0 0.9-1.6 3.5-1.7 1.2-1.4-0.4-0.1-0.3 0.4-0.4 0.4-0.3 0.2-0.3-0.2-0.2-0.5-0.2-0.3-2 1.6-0.9 0.3-0.8 0.1 0.2-0.9 0.9-0.8 0.3-0.7 0.2-1.1 0.1-1.2 0.2-0.7 0.6 0.1-0.2-0.7 0.1-0.3 0.3-0.9-0.3-0.6-0.4-0.8-0.2-1 0.1-1 0.4-0.6 0.7 0.2 1.5 1 0.4 0.7 0.3 0.1 2.6-0.8 0.5-0.6 0.3-1-0.8 0.5-2.6 0 0.3-0.9 0.5-0.6 0.6-0.1 0.5 0.2-0.2-0.7-0.2-0.3 0-0.5 1.3 0-0.4-0.2-0.2-0.4-0.1-0.5 0.2-0.8-0.1-0.2-0.1-0.3-0.1-0.2-0.1-0.2 0.6 0 0.5 0.3 0.5 0.1 0.5-0.4-0.1-0.2-0.1-0.3 0.7 0 1.3-0.3 0.7 0.3 1.4 1.4 0.3 0-0.3-1.5-1.3-1.1-2.4-0.8 0.5-0.8 0.7-0.5 1.5-0.6 0-0.2-0.2-0.7 0.8-0.1 1.4 0.7-0.2-0.9 0-0.7 0.5-0.1 0.9 0.3 0.4-0.4 0.4-0.3 0.4-0.1 0.5 0.1 0-0.5-1 0.1-0.3-0.9 0.1-1.3-0.1-1.3 0.7 0 0.2 0-0.2-0.5 0.7 0 0.7 0.5 1.3 1.5-0.2-1-0.4-0.7-1.1-0.8 0-0.4 1.3 0.1 0.6 0.3 1 1.3 0.5-0.1 1-0.7 0-0.5-0.8 0.1-0.5-0.2-0.2-0.6 0-0.6-0.3-0.4-0.3-0.2-0.3 0-0.1-0.2-0.1-0.3-0.1-0.3-0.2-0.2-2.8 0 0.3-0.8 0.3-0.5 0.5-0.4 0.4-0.2 1 0.4 1.7 1.7 0.9 0.3-0.2-0.9-0.3-0.7-0.3-0.4-0.3 0.1 0-0.4-0.2-0.2 0-0.1 0.2-0.5 0.2-0.5 0.2-0.3 0.3 0.2 0.5 0.7 0.2 0.1 0.2 0.2 0.4 1 0.2 0.3 1.7 0 0.4 0.1 0.1 0.4 0.1 0.5 0.2 0.4 0.2 0.3 1.9 1.7 0.6 0 0.6-0.6-1.7-1.6-0.4-0.8 0.6-0.6-0.3-0.8-0.6-0.7-0.7-0.3-2.2 0.5-0.8-0.5 0-0.5 0.5-0.1 0.6-1 0.4-0.3 0.3 0 0.8 0.4 0.4 0.1 0-0.2 0-0.3 0.1-0.4 0.2-0.1 0.9 0 0.4 0.2 0.7 0.7 0.4 0.1-0.1-1.2-0.3-0.7-0.4-0.4-0.4-0.7 0.7-0.3 0.7 0.5 0.7 0.9 0.5 1.1 0.2 0.1 0.2-0.4 0.3-0.5 0.2-0.4 0.3 0.1 0.3 0.3 0.3 0.3 0.4-0.2-1-1.1-0.1-0.4 0.2-0.4 0.3 0 0.8 0.4 0-0.5-0.5-0.4 0-0.6 0.2-0.8 0.1-0.9-0.2-0.5-0.4-0.5-0.4-0.4-0.3-0.3 0-0.5 0.3 0.1 0.3-0.1 0.5-0.5 0.1-0.2 0-0.3 0.1-0.3 0-0.1 0.4 0 0.7 0.7 1.8 0.9 0.2 0.3 0.1 0.7-0.1 1.4 0.1 0.6 0.4 1.1 0.3 0.1 0.5 0 2 2.3 0.3 0.8 0 0.9-0.4 1.4 0.7 0.3 1.8-0.8 0.7 0 0.8 0.3 0.7 0.5 0.7 0.7-0.2 1.4-0.4 0.9-1.6 2.3-1.3 3.1 0.7-0.2 0.6-1 1-2.1 2.4-2 0.3-0.5-0.6-0.4-0.2-0.1 0.2-0.6 0.9-1.8 0.3-0.5 0.3 0.2 0.5 0.6 0.3 0.2 0.3-0.1 0.7-0.9 1.3-0.7 2.9-0.5 1.3-0.7-6.7 1 0.3-0.8 0.1-1.4 0.3-1.1 0.4-0.4 1.5-0.1 0.5-0.2 0-0.5-0.3-0.1-0.3-0.2-0.3-0.5-0.1-0.6 2.1-0.5-0.6 0.8-0.3 0.2 0.8 0.3 2.6-2.3 2.9-1.2 0.9-0.8-3.7 0.2-0.7 0.8-0.4-0.7 0.1-0.7 0.2-0.7-0.1-0.8-0.6-0.3-0.7 0.4-0.6 0.7-0.5 0.7 0.3 0.3 0.3 0.2 0.4 0 0.3-0.1-0.5 1.6-0.9 0.5-1-0.4-0.6-0.9-0.3-0.7-0.7-1.1-0.3-0.7-0.3-0.4-0.5-0.4-0.2-0.3 0.1-0.5 0-0.6-0.4-0.3-0.3-0.5-0.2-0.7 0-0.9 0.2-0.2 0.3 0.1 0.3 0 0.1-0.7-0.1-0.2-0.3-0.3-0.3-0.2-0.2 0 0.8-0.5 1.8-0.5 1.6-1.8 0.9 0.2 0.8 0.4 0.9-0.2-0.2-0.1-0.5-0.5 0-0.8-0.3-0.2-0.5-0.1-0.5-0.3 7.3-1.2 1-0.7 0.6-0.1 0-0.5-3.2 0 0.2-0.5-0.9-0.2-1.4-0.6-0.8-0.2 1-0.7 3.4-0.2 0-0.4 0-0.2-0.2-0.5 0.2-0.5-2.1 1.2-1.1 0.3-1-0.5 1.8-1 0.5-1.4 0.6-0.5 0.7-0.4 1.4-0.4 3.2-2.2 2.3-0.3 0.5-0.5 0.3-0.5 1-1 0.4-0.2 4.9 1.5-1.2-1.5-1.3-0.7-2.7-0.2-0.6 0.2-1.1 1-0.5 0.2-2.2 0.3-5.3 4.2-3.7 1.5-0.3 0.6 0.4 0.8 0 0.5-2.2 1.7-0.8 0.3-0.8 0.1-0.6 0.3-0.4 0.7-0.5 1.1-0.6 1.1-0.8 0.8-0.7 0.5-3.6 1.3-0.7-0.4 0.4-0.4 1.8-0.8 0.8-0.6 0.5-0.2 0.2-0.3 1.9-2.6 0.3-0.6-2.6 0.8-1.4-1.2-1.4 0.4-0.7-0.5 0.6-1.1 0.9-0.5 7.4-1.2 4.4-2.3 1-1.3-0.8 0-2.2 1.5-10.9 2.4 0.7-0.9 4.1-3.8 0.7-0.2 0.8 0.2 1.9 1.8 0.6 0.1 0.7-0.2 0.6-0.6 0.6-0.8 0-0.5-0.5 0.2-0.9 1.1-0.5 0.2-0.3-0.2-1.4-1.8 0.6-0.6 1.9-0.9 0.7 0 1.2 0.6 0.5-0.1-0.2-0.2-0.2-0.5-0.2-0.3 0.4-0.4 0.3 0.2 0.3 0.5 0.4 0.2 1.5-0.3 1.7-1 0.3-0.4 1.3-0.3 0.5-0.4-0.6-0.4-0.4-0.5 0-0.7 0.3-0.7 1.8-1.7 1.1-0.6 1.1-0.9 1.1-0.5 1 1-0.1 0.7 0 0.7 0.2 0.5 0.3-0.2 0.2-0.3 0.2-1.1 0.2-0.6 0.3-0.5 0.2 0.4 0.1 0.7 0 0.4 0.4 0.4 0.4-0.1 0.4-0.4 0.4-0.2 0.6 0.2 0.5 0.5 0.4 0.8 0.4 1-0.1 0.3 0 0.1-0.1 0.4 0 0.5 0.4 0.2 0.3 0 0.2-0.3 0.2-0.5 0.1-0.7-0.3-0.3-0.2-0.5-0.2-0.6-0.1-0.8 0.3-0.4 2.6-0.7 1.8-1.6 0.9-0.6 2.2 0.5 1-0.4 0.4-1.7 0.7-0.6 3-0.4 0.9-0.3-0.4-0.5-0.3-0.1-0.3 0.1 0.5-0.9 0.6-0.3 0.6 0 0.6-0.4 1.2-1.8 1.8-2 0.5-0.2 0.1-0.3 0.2-0.9 0.2-0.8 0.3-0.4 0.6-0.5 2.9-4.3 0.3-1.1-0.3-0.4-1.1 1.5-1.2 1.2-0.3 0.5-0.7 1.1-4.8 5.7-3 2.2-0.5 0.1-0.4 0.2-0.8 1-0.4 0.3-2.2 0.4-1.2-0.3-0.7-0.6 0.4-1.9 2.8-0.4 0.8-1.3-0.3 0-0.8-0.2-0.3-0.2-0.4-0.6 0-0.1 0-0.7 0-0.1-0.7-0.3-1.2 0.7-0.7 0.1 0-0.5 1.1-1.2 0.6-0.3 0.6 0 1.6 0.5 0.8 0 0.4-0.8 4.8 0.1 1.1-0.3-1-0.6-2.8 0.1-2.2-0.5-0.5 0.2-0.8 0.7-0.5 0.1 0.1-0.8 0.1-0.2-0.9-0.4-2.8 0.4-0.7 0.5-0.7 1.2-0.7 0.9-0.9-0.1 0.3-0.9 1.3-1.6 0.4-0.6 0.6-1.4 0.3-0.6 1.1-0.5 1.2 0.1 1.1-0.4 0.8-1.7-0.6 0-1.5 1.1 0.3-1 0.4-0.7 1.8-1.8 0.2-0.1 0.3 0.2 0.1 0.3 0.1 0.4 0.1 0.1 2.6 0.2 0.7 0.5 0.4 0.9 0.6 0.7 0.5 0.3 0.5-0.6-0.8-1.8-1.2-0.2-1.3-0.1-1.1-0.4-0.3-0.6-0.1-1.4-0.2-1-0.4-0.9-0.8-1.1-0.3-1.1 1.5-0.1 0.7 0.1 0.5 0.5 0.1 0.4 0 0.4 0 0.4 0.1 0.4 0.3 0 0.3-0.8 0.3-0.2 0.8 0.8 1.6 3 1 0.7-2.2-3.3-0.4-1.2 0.7-1.3 4-0.7-1.2-0.6-4.1 0.6 0-0.6 0.4-0.2 0.7-0.6 0.4-0.2-0.7-0.5-1.2-0.1-0.5-0.7-0.5-1.1 0.3-0.4 0.6-0.2 0.7-0.5-0.6-0.4-0.5-1.2-0.2-1.5 0-1.5-0.6 1.7-0.5 2.4-0.7 1.7-1.5-0.7 0.6-1.2 0.7-0.8 0.6-1 0.2-1.6-0.7 0.7-1.4 2.8-0.8 0.6-1.1-0.5-0.2-1.3 0.2-1.6 0.4-1.7-0.6 0.1-0.5 0.2-0.4 0-0.4-0.8 0.1-0.3 0-0.7 0-0.9-0.3-0.7 0.5-1 1-1.4 0.5-0.9 0.5-1.3 0.3-0.4 0.3-0.3 0.5-0.5 0.3-0.5 0.6-0.7 0.9-0.1 0.9 0.4 0.6 0.6 0.3 0.6 0.1 0.5 0 0.5 0.1 0.7 0.2 0.3 1.2 0-0.3 0.4-0.3 0.5-0.2 0.8 0 0.9 0.2-0.1 1.3 1 1.1-0.4 0.6 0 0.8 1.1 0.6-0.1 0.5-0.2 0.4-0.4-0.3-0.8-0.6-0.4-0.7-0.2-1.2-0.1-0.4-0.2-0.3-0.4-0.3-0.9-0.2-0.8-0.1-0.8-0.1-0.7-0.9-0.4-1.1-0.9-0.4-0.5-0.5-1.5 0.3-0.9 1.5-1.7 0.6-1 0.3-0.4 0.5-0.1 0.4 0.2 0.3 0.6 0.5 0.6 0.5 0.1-0.4-1 0.2-1.8-0.5-0.7-0.8 0.1-1.3 0.5-0.3 0-0.1-0.5 0.1-1.2 0.1-0.4 0.4-0.3 0.1-0.3 0.1-0.5 0.1-1.1 0-0.5 0.6-1.5 0.7-1.1 3.2-2.9 0.9-0.3 0.9 0.2 2.2 1 0.3 0.5 0.7 1.2 0.4 0.4 0.6 0 1.2-0.3 0.5 0.3 0.3 0.4 0.3 1.1 0.3 0.5 0.3 0.2 0.5 0.2 0.2 0.1 0.2 0 0.2 0 0.2 0 0.1 0.3 0 0.6 0 0.1 1 2.1 0.6-0.4-0.3-1.2-0.5-1.5 0-1.5-0.5-0.9-0.2-0.7-0.1-0.7-0.4-0.3-1.9 0-2.2-1-1.1-1.1-0.5-1.5 0.6-0.4 0.6-0.8 0.1-1-0.5-0.9 0.6-1.3 1.6-1.1 0.5-1.2-1.1 0-2.3 1.6-6.6 1.5 0.1-0.4 0-0.2 0.1-0.2 0.2-0.3-0.4-0.4-0.4-0.1-0.9 0 0.5-0.9 2-2.3 0.6-0.4 1-0.4 2-1.4 5.5-1.3 0.8 0.4 0.4 0 0.2-0.7 0.3-0.5 1.6-0.5 0.5-0.5 1.6-0.8 2.5-2.4 6.8-1.7 1 0.4 0.5 1.2-0.6 1-1.1 0.8-0.9 0.1 0 0.6 2.7 0-0.3 1-0.8 1.6-0.3 1-0.2 1.4 0.2 0.7 0.4 0.2 0.4-0.2 0.4-0.6 0.8-1.9 0.5-0.6 0.7-0.4 2.2-0.1 1.1-0.6 0.4 0 0.3 0.2 0.6 0.6 1 0.7 0.3-0.2 0.1-0.7-0.1-0.8-0.3-0.2-1.4-0.4-2.2 0.3-2.9-1 0.9-2.6 1.7-1.4 1.9-0.3 1.6 0.6-0.3 0.8-0.8 1.1-0.4 0.8 0.9-0.1 1.4-1.6 4.2-1.3 0.4-0.2 0.3-0.7 0.2-0.8 0.3-0.8 0.8-0.5 0.4-0.7 1.1-0.4 0.8-0.8 0.7-1 0.3-1.4-0.4-0.7-1 0.5-1.6 1.5-2.6 1-0.7 0.7-0.7 1.8-0.3 0.2-3.2-0.7-0.7-0.4-0.5-0.8-0.3-0.2-0.4 0.5 0 0.9-0.5 1.1-0.8 0.8-2.4 0.9-0.9-0.2-0.5-1.4 1.5-1-0.3-0.4-0.4-0.4-0.4-0.2-0.4-0.1-0.3 0.3-1.9 2-1.1 0.3-1.6 1-2.7-0.3-1.2 0.4-2.5 2.8-4.2 2.3-0.9-0.4-0.2-1.4 0.7-1 1-0.7 0.7-0.8 0.7-1.2 0.9-1 4.8-3.1 5.3 0 1.3-0.7-0.9-0.7-3.1 0.1 0.2-0.8 0.4-0.4 0.8-0.3-0.5-0.5-0.6 0.1-1.1 0.4-0.4-0.1-0.2-0.3-0.2-0.4-0.3-0.7-0.6-1-0.4-0.4-0.1 0.4 0.2 1.5 0.5 1 0.2 0.7-0.1 0.3-0.5 0.2-2.8 1.8-0.4 0.2-1.7-0.7-0.6 0.1 0.3-0.5 0.3-0.7 0.1-0.6-0.3-0.3-0.5 0.1-1.2 0.9-0.9 0.2-0.9-0.4-0.6-1.1-0.5-1.7 4.3-2.3 0.9-2-0.1-0.3-0.2-0.4-0.1-0.5 0-0.6-0.2-0.6-1.5-0.8 0.5-0.4 0.4-0.1 1 0.1 0-0.6-0.4-0.2-1-0.1-0.5-0.2-0.3-0.6-0.1-0.7-0.2-0.5-0.4-0.3-0.9-0.1-0.7-0.2-0.6-0.5-0.8-0.8 4-1.6 0.4 0.2 0.6 0.7 1.6 0.7 0.7 0.6 0.3 0.7 0.1 1.1 0.2 1 0.1 0.8-0.2 0.6 0 0.4 4.2-0.1 1.1-0.9-3.4 0.6-0.6-0.6 0.1-1.3 0.4-1.1 0.1-0.8-0.9-0.5 0-0.5 0.8-0.2 1.4-1.1 0.8-0.3 2.6 0.2 0.8-0.5 0.7-0.3 0.9 0.5 1.5 1.2 1.6 0.7 1.6 0.3-0.7-1.1-0.8-0.7-4.4-1.2-0.6-0.7 1.4-1.6 2.9-1.8 3.9 0.2-1.2-0.8-5.7 0.7-0.9 0.7-1.5 2.7-0.9 0.4-1.8 0.1-2 0.6-1 0-1-0.6 0.1-1.4 0.3-0.7 0.8-1.1-0.2-0.3-0.2-0.3 0.6-0.7 1.1-0.2 1.4-0.7 1.5 0.5 0.7-0.4-1-0.7-3.7 0-2.5-1.4 0.7-1.1 0.6 0.3 0.8 0.6 0.7-0.1 0.7-0.4 0.7 0.3 0.7 0.5 0.6 0.4 0.8-0.2 1.5-0.9 0.8 0.1 2.2 1.4 0.8 0.1-0.8-1.7-1.3-1.1-6.5-2.1-1.3-0.9 0.9-0.8 7.3 0.8 0.2 0.2 0.5 1.1 0.4 0.3 5 0.1 0.8-0.7-0.6-0.5 0-0.5 3.1 0.2 1.6-0.5 1.2-1.4-5.5 0-1.1 0.4-2 1.3-1.1 0-0.8-0.8-0.2-1.2 0.5-1.1 1-0.6 3.9 0.8 1.1-0.8-1-0.6-4.8-0.6-0.4 0.3-0.3 0.1-1.1-0.8 1.1-1.7 2.2-0.5 2.3 0.3 2.4 1.1 6.9 0.2-1.3-0.8-4.5-0.7-0.5-0.4-0.9-1.4-0.5-0.4-1.2 0.4-0.4-0.2-0.3-1.3 0.2-0.1 0.2-0.3 0.2-0.1-0.4-0.3-0.9-0.2-0.4-0.3-0.2-0.5 0-1.3-0.2-0.7-0.7-0.5-1.8 0.5-0.8-0.4 0.7-1.3 0.6-0.8 0.8-0.5 4.7 0.1 1.1-0.7-0.2-0.4-0.2-0.4-0.2-0.9 2.4 0.3 0.7-0.3 0.2-0.3 0.4-0.9 0.3-0.4 0.3-0.3 0.4-0.2 0.8 0 1 0-0.4 1.6-0.7 0.6-0.7 0.4-0.7 0.6 0.8 1.9 0.5 0.6 0.8-0.4-0.2-0.1-0.6-0.4 1.4-1.6 0.1-0.2 0-0.4 0.1-0.4 0.2-0.1 0.9 0.1 0.2-0.1 0.5-1 0-1.1-0.4-1.2-0.5-1 0.3-0.6 0.3-1.4 0.2-0.6 0.6-0.4 0.3 0.6 0.3 0.8 0.2 0.5 0 0.5 0.4 2.1 0.3 1 1.3 1.5 0.4-0.6 0.4 0 0.4 0.2 0.3-0.1 0.3-0.2 0.4-0.1 0.1-0.1 0-0.7 0.1-0.2 0.7-0.7 0.5-1.6 0.1-1.5-0.8-0.5 0.8-0.8 4.5-0.3 0.6 0.2 1.1 1.1 0.6 0.3 1.1-0.4 0.4 0.2 0.4 1.3-0.1 0.8 0.5 0 0.6-0.6 0.2-1.3-0.4-1.2-0.9-0.5-1.7 0.1-3.7-1.1-2.7 0.1-0.7-0.6 0.7-0.5 0.5-0.9 0.4-1 0.5-0.9-0.4-0.9 0.2-0.8 0.5-0.6 0.6-0.4 2.7-0.5-0.3 0.5-0.4 1.2-0.4 1.2-0.1 0.8 0.3 0.8 0.6-0.5 0.5-1 0.4-0.9-0.1-0.2-0.1-0.3-0.1-0.3-0.1-0.3 6.7-0.5 1 0.7 0.7 2 0.3 0.6 0.3-0.5 0-0.9-0.1-0.8-0.4-0.8-0.4-0.4-2.2-1.2-4.2-0.3 0.7-0.8 1-0.8 1.1-0.3 0.7 0.5 0.7 1 0.9-0.2 0.8-0.7 1.1-0.5 0.8-0.7 0.4-0.2 3.1 0.6 3-0.6 0 0.6-1.3 0.2-0.4 0.3 0.2 1.6-0.4 0.6-0.5 0.5-0.3 1 0.2 0.9 1.3 1.4 1 1.6 0.6 0.4 0.5-0.3-0.2-1-0.5-1-1.1-1.1-0.6-0.9 0.4-0.3 1.9-3.2 0.4-0.5 1.7-0.7 0.6 0 1.1 1.3 0.6 0.3 2.1 0 0.6 0.4 1.3 1.1 0.6 0.4 1.7 0.2 0.9 0.7 0.3 1.2-0.1 1.6-0.4 1.9 0.8 1 1 0.7 1 0.4 1 0.1-0.3-0.9-1.1-0.7-0.5-0.6 0.1-0.8-0.1-0.9 0.9-1.9 0.3-0.8-0.2 0-0.5-1.5-1.7-1.2-0.7-1 1-1 1.4-0.1 8 3.2 0.7 0-0.2-1.1-0.4-0.5-0.5-0.3-0.4-0.7 0.5-0.6-3.1 0.9-1.7-1.3-4.4-1.3-0.7 0.1-0.9 0.5-1.3 1.5-0.8 0.3-0.8-0.7 0.7-0.5 0.7-0.1 0.7-0.4 0.4-1.2-1.8-0.4-0.5 0.2-0.4 0.3-0.4 0.3-0.9 0.2-4.6-1.1 0.5-1 0.6-0.2 0.7-0.1 0.5-0.4 0.3-0.6 0.6-2.6-0.9-0.1-2.5 1.2-0.8 0.1-0.5 0.2-0.2 0.5 0 0.6-0.2 0.4-0.3 0.2-0.3 0.1-2.2-0.4-4.1 0.4 0.4 0.5 1 0.2 0.5 0.4-0.8 0.9-4.2 2.2-1.7 0.2 1.7-1.6 0.6-1.1 0-1.7 0.2-0.5-0.5-0.2-0.6 0.3-1.2 1-1.5 0.8-5.1 0.3-0.6 0.3-0.6 0.5-0.6 0.2-0.7-0.5 2-1.4 0.6-0.8-0.2-0.7 0.4-0.5 1-0.9 1.2-2.1 3.4-4.4 0.3-0.8-0.2-0.5-0.9 0.1 0-0.5 0.3 0 0.4-0.1 0.6-0.5 0.2-1.1 0.9-0.5 2.7 0.5 0.9-0.2 0.9 0.1 0.7 1.2-0.3 0.3-0.2 0.4-0.4 1 0.9 0.6 0.9-0.9 0.9-1.3 0.9-0.6 1-0.2 1.2-0.7 2-1.8-3.4 0.5-3.5-0.5 0.1-0.3 0.5-0.9-0.6-0.3-1.2 0.2-0.5-0.4 0.4-0.6-0.4-0.4-0.4-0.4-0.4-0.2-0.5-0.1 0.4-0.9 0.8-1.1 0.9-0.9 6-3.6 2.1-0.6 0.8 0.3 0.9 0.8 0.9 1.1 0.5 1.2-0.4 0.2-0.4 0.2-0.8 0.1-0.3-0.2-0.5-0.8-0.9-0.6-0.7-0.9-0.6-0.3-0.7 1.2 0.6 0.7 0.9 1.7 0.6 0.3-1.4 2.3-3.8 0-1.7 0.9 0.7 0.4 4.1 0.4 0.9-0.3 0.7-0.7 0.5-0.9 0.7-0.6 0.8-0.3 0.6-0.2 0.6-0.3 0.5-0.7 0.5-0.5 0.5 0.5-0.1 0.5 0.1 0.6 0.3 0.4 0.3 0.1 0 0.5-0.4 0.4-0.5 0.2-1 0 0 0.5 0.2 0.1 0.5 0.5-0.3 1-0.3 0.7-0.3 0.8-0.2 1.3 0.6-0.3 1-1.5 0.6-0.3 0.3-0.2 0.1-0.5 0.1-0.7 0.1-0.6 0.1-0.4 0.3-0.2 4-0.7 1.8 0.4 1.3 1.7 0.2 0.7 0.4 1.7 1.5 4.2 0.1 0.4 0 1.2 0.1 0.6 0.1 0.1 0.8 1.5 1 1.3 1.1 0.9 0 0.6-1.2 0.4-0.1 0.8 0.7 0.7 1-0.3 1.3-2.2-0.3-0.7-1.6-0.9-0.5-0.8-0.1-0.5 0-0.5-0.1-0.9-0.5-1.5-0.1-0.5-0.3-1-0.8-1.1-1.4-1.4 0.5-1 1.1-1 0.5-0.8-0.9 0.1-0.4-0.2-0.4-0.4 0.9-2 1.2-1.4 5.8-3.2 3.4-0.5-0.9-1.3-6.1 1.7-3.4 2.9-1.8 0.4-7.1-1.1-0.9-0.4-0.3-0.8 0-1.6 0.2-0.6 0.8-0.9-0.2-0.1-0.4-0.4 1.1-0.8 0.9 0 2.2 0.8 1 0 0.5 0.4 0.3 1.5 0.3-0.1 0.4-0.6 0.2-0.7-1.5-2.2 0.2-0.1 0.5-0.5-0.5-0.9-0.5-0.6-0.6-0.1-0.5 0.6 0.3 0.8 0.1 0.2-0.8 0.6-0.9-0.5-0.8-0.8-0.9-0.3-1.6 1-0.8 0.3-0.5-0.8 0.5-2.1 4.3-3.4-0.9 0-0.5-0.1-0.5-0.5 0.5-1.7 0.3-0.4 0.5-0.1 0.4 0.1 1.2 0.8 1.3 1.7 4 1.3-0.6-1.3-0.2-0.4 4.4 1.1-2.2-1.9-1.2-0.6-1.9 1-0.9-0.7-1.6-2.2 0-0.5 5.9-0.6 1.9 1.1 4.3 4.5 0.7 0.1 0.5-1.3-0.5 0.1-0.5-0.2-0.4-0.4-0.3-0.6 0.1-0.5 0-0.6 0.1-0.5-3.7-2.8-1.2 0 0.3-1.1 0.6-0.5 0.5-0.5 0.5-0.7-0.5 0-0.5 0.2-1.5 1.5-0.5 0.2-5.6-1.9 0.3-1.3 0.8-1.6 0-1-0.4-1.3-0.4 0.3-0.3 1.2-0.2 1.5-0.6-2.5-0.5-0.9-0.4 1.2 0.1 0.6 0.6 2.3 0.2 0.9-2.3 2.3-1.5 1.9-1.1 0.7-1 1.9-0.3 0.5-0.6 0.1-3.7 2.9-2.8 1.1-0.5 0.6-0.5 0.4-2.5 0.7-0.9-0.5-1.7 0-0.8-0.9 4.6-3.3 0-0.6-2.9-0.5 0.4-1.2 0.6 0 0.7 0.4 0.6-0.1 0.6-0.5 7.4-0.8-0.9-0.6-1.2 0.3-1-0.1-0.7-1.9 0.7-0.4 0.6-0.7-4.9 0.8-1.4 0.9 0.3-0.3 0.1-0.3-0.1-0.2-0.3-0.3 0-1.3-0.3-0.4-0.6 0.2-0.4 0.9-0.3-0.1-0.3-0.4-0.2-0.6-0.2-0.6 0.5-1 0.6-0.5 0.5-0.2 2 0.2 2.7-1.2 3.1-0.1 1.3-1-0.9-0.9-6.9 1.4 0-0.5 0.3 0 0.2-0.1 0.5-0.5 0.5-1.2 1.4-1.1 1.7-0.7 1.1 0.1 1.5 0.5 3.3 0.1 1.3 1.2-0.6 0.3-0.4 0.7-0.3 1 0.2 1.3 3.2-4.8 1-0.8 0.1 0.7 0.6 0 3.8-2.1 1.6-0.2 0.3 0.2-0.8 2.3-0.3 0.5-0.1 0.2-0.1 0.4 0.2 0.8 0.2 0.8 0.3 0.3 0.2 0 0.3-0.5-0.5-0.7 0-0.9 0.3-1 0.4-0.8 0.6-0.5 0.5-0.3 0.4-0.5 0.2-1.2 4.6-1.7 1.1 0 1 1.1 0.3 0.9 0.2 1.4 0.1 0.7 0.3 0.2 0.3-0.1 0.1-0.2 0.2-2 0.5-1 1.4-1.5 0.4-0.6 0.2-0.7 0.4-1.8-0.4 0 0.5-1.1 1-0.3 1.9 0.3 0-0.6-5-0.6-1.5-1.1 0-0.5 1.1-1.2 0.3-0.7-0.6-0.4-0.4 0.3-1.2 1.2-0.3 0.5-0.8 1-5.7-0.3-0.3-0.4-0.2-0.7-0.3-1-0.6-0.8-0.4-0.1-0.3 0.4-0.4 0.5-4.2 3.4 0.3 0.9 0.4 0.2 0.5-0.2 0.5 0.2-1.3 1.2-1.3-0.1-1.2-1.2-1.1-2.2 0.4-0.8 0.5-0.4 0.5-0.1 0.5-0.3 0.4-1.9 1.5-2 1.8-1.6 1.4-0.7-0.2 1.2 0.1 1 0.2 0.8 0.5 0.4 0.2-0.3 0-1.2 0.1-0.2 1.4 0 0.3-0.3 1.1-1.6 0.3-0.7-0.1-1.8 0.2-0.3 0.7 0.1-0.1 0.4 0 0.2-0.1 0.3 0 0.3 0.6 0.3 1.2 0.3 0.5 0.5-0.5 0.7-0.5 0.4 0.4 0.4 0.4 0.7 0.3 0.8-0.1 1-0.7 0.5-2-1-0.9 0.5 0.3 0.5 0.1 0.7-0.1 0.7-0.3 0.9 0.4 0.3 0.3 0.2 0.4 0.1 0.4-0.1-0.2-1.3 0.3-0.5 2 0 0.9-0.4 0-0.3 0-0.4 0.1-0.3 0.4-0.1 1.4-0.1 0.6-0.3 0.6-0.8 0.8-1.6 0.5-0.6 0.6 0-1.1-1.8-0.5-1.3-0.1-1.4 0.6-0.5 0.8 0.5 0.8 0.1 0.3-1.6 0-0.7-0.2-0.7 0-0.8 0.1-0.6 0.5-0.7 0.4-0.2 1.1 0 0.7 0.6 0.3 1.2 0.1 1.3 0.4 0.9-0.2 0.7-0.3 0.6-0.3 0.3-0.3 0.1 0.5 1.5 0.6-0.1 0.6-0.7 0.4-0.1 0.3 1.1-0.2 1.5-0.3 1.3-0.6 1.1 0.2 1.2 0.4 2-0.2 1.3-0.4 0.8-0.5 0.6-0.3 0.9 3.5 2.5 1.1 1.5 0.5 1.8 0.1 2 0 1.9 0.2 1.5 0.5 0.7 1.4 0.6 0.5 0.7 0.4 0.6 3.9 4.3 1.4 0.8 1-0.5-0.8-0.4-0.9-0.7-0.5-1.1 0.3-1.6-4.4-1.9-1.3-1.2-0.4-0.9 0.1-0.7 0.3-0.7 0.2-0.8 0-1.1-0.1-2 0.1-0.8-0.4-1-0.6-0.6-1.1-0.7 1.2-0.5 0.9 0.3 0.8 1 3.2 6 0.2 1.1 1.2 0.6 0.5-0.1-0.2-0.6-0.1-0.6-0.4-1 0.2-0.2 0.3-0.7 0.2-0.2-0.5-0.5-1.4-0.7-0.3-0.3-0.7-1.3-1.2-1.6 0-0.7 0.7-0.5 0.7 0 0.5 0.7 0.9 2.1 0.8 1 0.9 0.4 1 0.1 0.9-0.4-0.6-0.5-1.3-0.2-0.5-0.7 0-0.7 0.3-0.9 0.8-1.5-4.2-1.1 0.3-1.3 0.5-1.1 0.6-0.7 0.5-0.3 0.5-0.4 0.3-0.9 0.4-0.6 0.7 0.3 1.9 2 3.5 1.3 0.7-0.5-0.2-0.1-0.4-0.5 0.3-0.4 0.4-0.2-3.4-1.1-0.7-0.7-1.1-1.5-0.6-0.6-1.7 0.3-3 2.7-1.8-0.7 0.2-0.5 0.2-1.2-1-0.4-0.5-0.4-0.3-0.9 1.6 0.5 0.8 0 1.2-1.5 1.3 0.6 0.3-0.7-0.2-0.3-0.2-0.3 0.5-0.5 0.6 0.1 0.6 0.3 0.6 0.1-0.3-1.1-0.5-0.6-1.1-0.6 0-0.5 4.1 1.8 1.4-0.2-0.6-0.5-1.2-0.4-1.7-1.7-0.3-0.2-0.2-0.3 0-1.6-0.2-0.3-0.4 0.2-0.7 1.2-0.4 0.2-7.2 0.4-0.3-0.6 0.7-0.8 0.9-0.5 4.1-0.1 0.3-0.3 0-0.6-0.2-0.6-0.3-0.3-4.6-0.7-2.2-1.3-0.5-0.8 0.6-0.5 0.9-1.9 0.6-0.4 0.7 0.1 1 0.8 0.7 0.2 0.4-0.1 0.3-0.1 0.3-0.1 0.4 0.3 0.3 0.4 0.2 1 0.2 0.3 0.7 0.3 1.5-0.3 0.3 0.5 3.3 1.8 1.6 1.9 0.1 3.2 5.4 4.5 1 0.6 1 0-1.7-2.1-0.2-1-0.3-0.6-2.7-2-1-1.5-0.6-1.7 0.4-1.3-1.1-1.7-1.4-1-3.4-0.9-1.7-1-0.5-0.8-0.7-0.7-1.6 0.4-0.7-0.6 1.2-1.1-0.5-0.2-0.9 0.2-0.5-0.5 1.4-0.9 2.8-0.8 2-1.5 8.4-1.3 0.8 0.3 2.5 1.8 1.4 0.1 0.6 0.5 0.3 1.5-0.2 0.4-1.1 1.4-0.4 0.7 0.7 0.1 4.6-1.8 1-1.1 0.6-0.4 2.4-0.8 0.6 0.3 0.9 2.3 0.2 0.3 0.3 2.5 0.2 0.6 0.8 1.3 3.3 2.4-0.6 1.6-0.1 0.3 0.1 0.8 0.2 0.5 0.2 0.3 0.2 0.4-0.1 1.4-0.3 1.1 0 0.7 0.5 0.2 0.6-0.4 0.3-0.9 0-1.2-0.3-1.1-0.1-1.2 0.7-0.6 1.4-0.3-0.9-2.5-1.2-1.5-2.5-2.1-0.6-0.7-0.4-0.8-0.4-1-0.3-0.9-0.3-1.8 0.4-0.4 0.6-0.2 0.6-1.1-0.1-0.3-0.2-0.8 2.5-0.2 5.1 3.6 2.5 0.6-1-1.5-5.5-3.1 0.9-0.8 4.5-0.4 5.2 1.3 3.3 2.3 1.7-0.7-1.8-0.3-6.2-4.5-4.4 0.3 2.3-6 0.1-0.9-0.7 0-1.3 0.8-1.3 1.1-2.3 0.3-1.1 1-2.1 3-6.5 1.8-1.4-1.1 0.6-0.4 1.8-0.5 0.5-0.9-0.2-1-0.6-0.7-0.7-0.4-0.6-0.1-0.3-0.2-0.6-0.8-0.3-0.2-0.4 0.1-2.3 2.8-0.4 0.8-1.2 1.4-3.4-0.3-2.1 1.1-4.1 0-0.8-0.2-0.3-0.8 0-1.2-0.1-0.7-0.3-1.3-0.3-0.8-0.3-0.4-0.1-0.6 0.3-1.1 0.3-0.4 1.8-1.3 1.2 0.8 0.7 0.5 0.5-0.4 0.3-1.1-0.1-0.4-0.4-0.1-0.5-0.4-0.5-0.5-0.3-0.5-0.2-0.7-0.1-1.2 0.3-1.7 0.8-1.5 1-1 2-0.8 3.5-2.5 3.5-1.1 1.1-0.9 1-0.3 0.8 1.2 0.8 1.5 1.1 1 0 0.5 0 0.6 0.1 0.4 0.2 0.2 1.2 0.9 0.6 0.1 0.6-0.2 0.5-0.4-0.2-0.7-0.3-0.4-0.7-0.1-0.4-0.2-0.4-0.7-0.4-0.2-0.2-0.3-0.1-0.5 0-0.7 0.1-0.5 0.3-0.6 0.2-0.1 2.7-1.1 1.4-1 0.6 0.3 1.2 1 0.7-0.1 0.6-0.3 0.6 0.1 1 2.3 0.5 0.7 0.6 0.5 0.6 0.3 0.9 0.1 2.7-0.7 2.4 1.4 0.8-0.3-1.9-1.8-3.8-0.7-1.5-2.1-0.5-1.2-0.8-1.3-0.9-0.5-0.8 1-0.8 0.6-1-0.4-1.7-1.7 0.9-1 2.1-1.6 1.9-0.8 1-1 1.1-0.6 3.1 2.3 4.8 0.8 1.9 2.6 0-2.5-1.3-1.1-2.9-0.5-5.4-2.9 2.4-1.4 1.9-2.1 0.6-0.4 1.1-0.4 0.9-0.9 0.4-0.1 0.3 0.2 0.8 1 0.8 0.6 0.8 0.3 0.9 0 0.8-0.4-0.8-1.7-3.6-1.8 0.1-0.4 0.3-1.3-6.1 1.5-1.9 1.4-1 0.1 0.3-1.2 1.3-3 0.5-0.5 0.9-0.1 0.3-0.5 0.1-1.2-0.2-1-0.4-0.3-0.9 0.1 0-0.5 2.2-3.1 1.3-2.5 1.7-1.5 0.7-1.2-0.4-0.3-0.7-0.5-0.4-0.4 0.8-0.9 6.5-0.4 2.7-2.4 2-0.6 4 0.2-2.2-1.3-0.3-0.8 0-1.7 0.2-0.8 0.3-0.7 0.5-1.2-0.9-0.7-1.8 0.7-0.9-0.6 0.5-1.2 0-3.1 0.4-1.6 0.9-1.2 2-1.4 0.8-1.6-0.2-1.5 0.4-1.1 0.6-1 0.5-1.2-0.1-0.4-0.2-0.5-0.1-0.3 0.1-1.1-0.2-0.4-0.2-0.3-0.1-0.6 0-0.8 0.1-0.2 0.3 0 0.8-0.8 1.5-0.6 0.2-0.3 0.2-0.4 0.3-0.3 0.3-0.2 0.8 0.3 0.7 0.7 0.5 0.9 1.3 3.2 0.2 0.8-0.2 0.7-0.2 0.6-0.2 1.2-0.1 0.2 0.1-0.1 2.4-0.1 0.6 0.3 0.6 0.7 0.5 1.1 0.2 1.2-0.1 1.6-0.3 2.6 0 1.5 0.4 0.6 0.2 0.6-0.1 0.8-0.3 0.7-0.1 0.6-0.1 0.6 0.2 0.8 0.7-2.3 0.2-1.3 0.1-1.5 0-3 0.1-1.6 0.2-1 0.6-0.5 0.5 1 0.2 1.8 0.1 1.6 0.3 1.2 0.8 0.6 0.8 0.5 0.5 0.7 0.3 0.7 0.4 0.7 0.3 0.1 0.2-1.2-0.2-1-0.3-0.4-0.3-0.3-0.3-0.7 0.5-1.2 1.4-0.6 2.7 0 1.3 0.5 2 2 2.3 0.9 0.2-0.1 0.1-0.6 0-0.5-0.2-0.3-0.3-0.1-0.3-0.3-1.1-1.8-0.6-0.5-8.2-3.1-1.1-1.2-0.4-0.2-0.3-0.4-0.2-0.9-0.1-1-0.2-0.8-0.4-0.9-0.5-0.5-1-0.4-1.2 0-0.7-0.3-0.4-0.8 0.1-1 0.3-0.7 0.3-0.5 0.4-0.2-0.7-1.9 0.2-1.1 0.7-0.5 2.1-0.4 2-1.3 6.8-1 0.3 0.5 0.1 1.4 0 0.8-0.2 0.6-0.2 0.6-0.2 0.5 0.4-0.1 0.6 0.1 0.5 0.4 0.4 0.7 0.1 0.7 0.1 1.4 0.1 0.7 0.6 1 2.2 1.6-0.2 1.8 0.4 0.9 1.3 1 2 2.3 0.7 0.6 6.2 0.7 1 1.9-0.3 1.9-0.6 0.9-2 1.3-1.7-0.7-0.5 0.1-0.8 0.9-0.6 0.4 0 0.6 0.3 0.6 0.3 0.3 0.3-0.1 0.8-1 0.3-0.4 0.5-0.6 0.6 0.7 0.1 1.2-0.7 0.8 0.4 0.6 1.2 1 0.5 0.2 0.6-0.3 0.8-1.1 0.5-0.4 1 0.2 2 1.7 1-0.7-0.7-1.1-0.7-0.6-0.5-1-0.2-2 0-0.8 0.2-0.5 0.2-0.7 0-1.1-0.2-0.5-0.6-1.5-2.4-3.2-0.8-0.5-0.8-0.1-4.4 0.7-1.1-0.7-0.3-0.6-0.8-1.9 0-0.3 0-0.5 0-0.5-0.2-0.5-0.2-0.2-0.8-0.4-0.7-0.7-0.6-1.3-0.3-1.6 0.4-2 0.8-1.3 1.2-1.1 3.3-1.5 0.5 0 0.8 1.5 0.5 0.4 0.4 0.4 0.4 0.1-0.3-1.1-0.3-0.7-0.3-0.8-0.1-1.3-2.5 0.2-1.4 0.8-1.5 0.3-0.6 1.1-0.6 0.5-0.6-0.5-0.7-0.9-0.5-0.9-0.4-4.8 4.3-6.9 0.5-3.8 0.5-0.6 0.7-0.4 1.4-0.2 0.5-0.3 1-1.5 0.5-0.6 1.4-0.5 4.6 0.5 1.1-0.4 2.4-1.6 5.4-1.2 1.5 0.8-0.2 1.1-0.3 0.7-1.1 2.4 0 0.3 0.1 1.2-0.2 1.5-0.6 1.5-0.6 1.4-0.5 0.8 0.6 1.5 0.7 0.8 0.3 1.1-0.3 2.6-0.5 1.7-1.7 4.7-0.3 0.8-0.2 0.9-0.1 1.1 0 1.1 0.2 0.9 0.4 1.2 0.2 1-0.2 0.5-0.9 0.4-1 1.1-0.9 1.5-0.7 1.7 4.8-3.9 0.3-1.8 0.6-2.3 0.3-2.1-0.5-1.3 1.4-6-0.1-0.3-0.1-0.2-0.1-0.3-0.1-0.4 0.7 0.1 1.2-0.2 3.8 0.8 2 1.4 2 0.9 1.6-0.6-1.1 0.1-1.3-0.3-1.3-0.8-1.1-1.1-0.9-0.5-1.1-0.3-1-0.8-0.4-2 0-0.8-0.4-1.2-0.2-0.7 0-0.7 0-2 0.4-1.1 0.7-0.8 0.6-1-0.2-1.7 0.5-1 1.2-0.8 0.5-0.9 1-3.2 0.4-0.8 0.5-0.3 0.1 0.7-0.2 1.2-0.6 2.2-0.5 2.9 1.2-0.4 0.8-2 1.4-4.9 1.1-2.9 0.9-3.9 0.3-1.1 0.4-0.7 0.1 1 0 0.4-0.1 0.5 0.1 2.2 0 1.4 0.3 0.7 0.4 0.4 0.3 0.8 0.1 0 0.1-1.8-0.2-4 0.2-0.7 0.8-1.2 1.1-2 0.7-0.3 0.6 0.7 3.2 6.5 0.2 1.2-0.1 0.9-0.4 0.9-0.2 1-0.1 1-0.1 1.9 0 0.8-0.3 0.6-0.3 0.8-0.4 0.9-0.1 1-0.1 0.9-0.2 1-0.2 1.1-0.2 0.7-0.4 3.5-0.1 0.4 0.1 1 0.2 0.6 1.4 1.8 0.2 0.7 0.1 1 0 1.1-0.1 1-0.2 0.9-0.3 0.3-1.1 0.3-1.2 0.8-0.5 1.1 0.9 1.4-0.4 0.6-0.4 0.8-0.2 1-0.2 1.3 0.4 1.5-0.3 1.5-0.8 0.7-0.8-0.7-0.3 2.5-0.4 2.3-0.7 1.7-1.6 0.9-1.8 2.1-1.8 0.9-0.6 0.9 0.2 0.2 0.3 0.7 0.2 0.3-2 3.1-0.7 1.7 1 0.5 0.7-0.6 0.9-1.3 0.8-1.7 0.6-1.5 0.8-1.2 4.7-4.2 1.3-0.3 0.3-0.4 2.4-6.6 0.5-1.2 1.6-2.2 0.5-1.4 0.2-2.2 0.2-0.7 0.2-0.8 0.4-0.7 0.3-0.4 0.4 0 0.5 0.5 0.4 0.7 1.4 1.7 2.3 2.1 4.5 1 0.5 0.6 0.4 0.7 0.5 0.4 0.4-0.5-1.2-1.3-2.9-1.6-1-1.7-0.8-2.5-0.4-0.8-0.6-0.8-2.6-1.4-1.5-1.5-0.3-0.8 0.2-1 1.2-2.6 0.4-2.5-0.2-2.2-0.7-1.6-0.9-0.6 0-0.7 0.9-0.5 4-0.3 4.4-2.6 0.5-0.9 0.6-1.5 0.1-1.1-0.3-1.1-0.5-1.1-0.2-1.2 1.1-0.3 6.8-5.5 1.3-0.4 0 0.6-3.4 3.4-1.9 3.3-0.8 0.7 0 0.6 0.6 0.3 0.7 0 0.6 0.3 0.4 1.2-0.3 0-0.2 0.2-0.2 0.4-0.2 0.6 1.7 2.3 0.8 0.4 0.9-0.8-0.5-0.7-0.9-0.8-0.3-0.9 0.7-0.2 1-0.5 0.6-0.9-0.4-1.5 0.9-0.6 2.6-0.9 0.5 0.6-0.2 1.3-1.2 2.6-0.5 1.3 0.7-0.1 0.9-0.7 0.9-1 0.5-1.3 0-1-0.4-4.5 3.5 0-0.7-1.1-1-0.9-1-0.4-0.8 0 0.5-3.6 0.8-2.5 1.1-1.7 1.4-0.8 1.8 0.1 5.1 3.6-0.1 1.3 0.4 0.8 1.1 0.9-0.8 2.5 0.9 1.4 1.2 1.2 1.1 0.7 2.3 0.7 4.5 5.1 0.8 1.5 0.3 1.9 0.5 0.8 2.9 2.5-0.5 0.6-0.6 0-1.2-0.6 0.7 0.9 0.9 0.5 1 0.1 0.8-0.6 0.3-0.9-0.2-0.7-1-1.1-0.1-2.1-1.4-1.6-2.9-2.4 0.7-0.3 1.9 0.6 0.6-0.9-0.2-1.2-0.7-0.8-1.4-0.4-0.4-0.6-0.1-1.3 0-1.5-0.1-1.2-0.3-1.2 0-0.7 0.4-1.5 0-0.5-0.1-0.4-0.1-0.4 0.2-0.6 0.4-0.2 1.3 0.2 0.8-0.2 0.4 0 0.4 0.6 0 0.5-0.3 1.6 0.8 1.5 0.3-1.6-0.1-2.9-0.2-2.5 0.5-0.1 0.9-0.6 0.5 0.1 0-0.6-5 1.6-2.6 0.1-2.1-2.3 1.3-1.6 4.4-0.2 0.7-0.4 0.4-0.6 1-1.6 0.9-0.9 0.4-0.8 0.2-1.4-2.5 1.5-0.4 0.1-0.6 1.2-0.9 0.4-3.6-0.7-0.3 0.3-0.4 1.3-0.4 0.3-2.6 1-0.9-0.4-1.8-2.6-0.5-0.4-3.1 0.6-1-0.6-0.4-0.7-0.9-2.8-0.1-1.1 0.6-0.9 0.8-0.7 0.5-0.7-4.3 1-1.4-0.4-0.5-0.3-0.4-0.4-0.3-0.6-0.4-0.9-0.4-0.6-1-0.7-0.1-0.2 0.7-1.4 0.1-0.1 1-1.2 1.2-0.7 1-0.3 2-1.6 1-0.2-0.1 1.8 0.3 1.1 1.4 2.6 0.1-0.7 0-0.4-0.1-0.3 0-0.8 0.1-0.6 0.4-1 0.1-0.5 0-1.2 0-1.1 0-1.1 0.2-1 0.5-1.1 0.6-0.4 0.6 0.2 0.4 0.6 0.1 0.4-0.1 1.4 0.1 0.5 0.8 1.6 0.7 0.7 1.5 0.6 0.7 0.5 2.7 3.9 0.2 0.8 0.2 0.9 0.3 1.2 0.3 0.6 1.3 1.9 0.2-1.2-0.1-0.9-0.1-0.7-0.1-1-0.1-0.1-0.1-0.1-0.1-0.2 0-0.8 0.2-0.5 0.3-0.2 0.3 0 0.3 0.1-0.7-0.6-1.4-1-0.6-1.2 0-1.6 0.4-1 5.1-5 0.7-0.1 0.7 0.6-0.4 0.8-0.9 1.2-0.2 1.1 0.8-0.2 1.9-1.7 0.7-0.3 0.3 0.4 0.1 0.9 0 4.4 0.3 1.1 0.7-0.3 0.4-0.9 0-1.2-0.4-2.2 3.9-1 1.2 0.7 0.3 1.3-0.5 1.6-0.7 1.5-0.6 0.8 0.5 1.1 0.1 1.4 0.1 1.6 0.4 1.5-0.5 0.9-0.9 0.7-0.3 0.9 1.1 0.4 4-1 3.7 2.1 1.1-0.3-0.7-1.1-0.9-0.7-5.6-1.9 0.2-1.1 0.9-3.2 0.4-2.8 0-0.3 0.8-0.8 1-0.2 1.1 0.1 1.3 0.5 1.3 1.4 0.3 0.1 0.4-0.3 0.3-0.1 0.4 0.5-0.2 1.3 0.3 0.3 2.2-0.4 9 1.4 0.3 0.8-0.2 0.9-3.4 5.7-0.7 0.5-1 0.3-2.1 1.4-5.7 1.4-2.3-0.4-1.3 0.1-1.3 1.9-3.3 2.2 0.6 0.4 0.9-0.1 0.8-0.5 1.1-1.4 7.8-1.3 2-1.7 4.7-1 3.4-3.6 1.2-0.1-0.5 2.9-0.1 1.3 0 1.6 0.1 1.5 0.2 1.4 0.4 1.1 0.4 0.7 0.6-0.2 1-0.6 0.9-0.3 0.4 0.8-0.1 1.9-0.2 1.2 0.2 1 0.7 1.1-0.4 0.8-0.4 0.5-0.4 0.4-0.4 0.1 0.9 1 1-0.6 3.9-3.8 0.4-0.2 0.5-0.1 0.1 0.3 0.2 0.7 0.3 0.4 0.2 0.3-0.1 0.5-0.8 1.6 0 0.4 0.6 0.1 2.8-2.6 1.4-0.7 0.3-0.6 0.2-1.2 0.6-0.5 0.6-0.3 0.5-0.8-1.6-0.9-5.8-0.5-0.8-0.7-3-4.1 0.6-0.4 1 0 0.6-0.5 0.4-0.5 0.5-0.3 2.5-0.3 0.7-0.8 0.7-1.5-0.7-0.8-1.7-0.9-0.8-0.8 0.9-0.7 2.3-0.5 0.6-1.3-2.9 0.2-1.4-0.4-1.2-1.6 1-0.9 3.5-0.4 0.9-0.4 2.1-0.1 0.5-0.2 0.1-0.6 0.8 0-0.9-0.8-1-0.3-5.5 1.1 0.7-1.2 2.6-1.9 5.3-1.1 1.3-1.3-3.1 0.6 0.2-0.7 0.8-1.7-0.7 0.1-1.2 0.7-0.6-0.2 0.6-1.1 0.9-3.2 0.7-0.7 0.8-0.4 0.9-0.9 1.6-2.2 3.3-3.4 2-3.5 0.7-1 2.4-1.1 8.2 1.4 3.5 1.8 0.4 0.4 0.7 1 0.5 0.3 0.2-0.6-0.1-0.9-0.3-0.4-0.9-0.6-1.7-2.8-0.9-0.9-3.6-1.3-0.3-0.3 0.3-0.7 3-3.4 0.8-1.3 0.1 0 32.8 0-0.1 0-0.6 0.6-1 1.9-0.5 0.7-4.2 3.8-0.9 1.9 5.3-2.3 1.3 1.6-1.4 2.2-5.6-0.3 1.2 1.7 4.4-0.7 1.4 2.1-0.6 0-0.5 0.7-0.2 1.3 0.6 2.6 0 1.2-0.3 0.6-1.8-1.3-1.2 0.6-2.3 3.1 0.4 0.5 0.4 0.1 0.8 0-0.5 0.6-0.4 0.9 0 1 0.5 0.7 0.6-0.4 0.7-1 0.7-0.5 0.5 0.6 0.2 1.4-0.2 0.9-4.4 4.8-1 0.5-0.4 0.4-0.3 0.5-0.3 0.5-0.1 0.3-0.3 0-0.1 0.4 0 0.6 0 0.3-0.2 0.8-0.2 0.7 0 0.7 0.2 1.3-0.2 0.6-0.6 1.1 0 0.9-0.1 4.1 0.7 2 1.2 1.5 1-0.1-0.1-2.5-0.3-0.7-0.4-0.7-0.1-0.9 0.2-1.4 0.4-0.8 2.1-1-0.2 0.5-0.5 1.9 0.6 0 0.5-0.3 0.4-0.2 0.4 0.5-0.9 0.5-0.4 0.4-0.3 1 0.3 0.5 0.3 0.9 0.4 0.7 0.7 0.3 0.7-0.1 1.4-0.9 0.7-0.2 0.7-0.8 0.7-1.9 1.1-4.4 0.4-1 0.6-0.7 0.6-0.4 0.6-0.1 0.4-0.4 0.5-0.9 0.5-1.1 0.3-1 0.4-1.5 2-2.6 0.7-1.8-0.7-1.2-2.8-1.2 0.5-1.6 6.6-9 6.5-11.3 0.9-0.7 0.9-0.5 1-1.1 0.6-1 19.9 0-0.8 3.8 0.1 1.3-0.4 0.8-0.6 0.6-0.4 1 0 1.3 0.1 0.7 0.3 0.6 0.3 1.2-1.3 1.4-0.6 1.2-0.2 1.5 0 0.8 0.3 0.9 0.1 0.5-0.1 0.7-0.3 1.2 0 0.7-0.1 0.2-0.1 0.6-0.1 0.7 0.4 0.3 1.1 0.6 0.4-0.3 0.3-0.5 0.1-0.6 0.1-0.5 0.4-0.5 0.4-0.1 0.8 0.4 0.5-0.3-0.6-2-0.1-0.6 0.2-0.5 0.6-1 0.2-0.2 1 0.6 0.9-0.1 0.9-0.6 0.9-1 0.5-1.5 0.2-1.3 0.2-1 4.1-0.3-0.4 1.5 0.5 0.4 3.2-1.2 0.7 0.1 0.8 0.4-0.3-0.4-1.1-0.8-0.3-0.4-0.6-1.4-1.5-2.3-0.3-0.9 0.7-0.6 0.3-0.4 0.2-0.9-0.8-0.6-0.2-0.1 0.5-1.6 1-1.4 0-0.1 2.8 0 0.1 0 0.4 0.1 1.2-0.1 2.2 1.3 0.8 0-0.9-1.3 29.4 0-0.9 1.1-3.4 3-0.7 1.3-1.2 1.3-2.5 1.4-1.2 1.2-0.8 1.4 0.4 1.2 0.3 1.1 0.4 2.7 0.3-1 0.6-3.1 0.4-0.9 0.6-0.5 1-0.8-0.6 1.2-0.6 1.3 3.6-2.1 3.9-0.9-3.2 2.4-0.9 1.6-0.3 1.3 0.3 0.2 1.1-0.8 0.8-1.1 0.6-0.6-0.1 0.1-0.6 0.7-0.2 0.7 0.2 0.7 0.6 0.4 0.3-0.4 1.2-2.8 1.1-1.7 1.2-1.4 1.3-0.7 1.2 0-0.4 1.9-0.6 1-0.6 0.7-0.6 1.1-0.5 1.7-1 2.5-1.3 2.3-0.3 1.2-0.1 1.3 0.3 1.7 0.2 1.5-0.1 1.6-0.4 2.9 0 3.3 0.6 5.9 0 2.6-0.3 1.6-0.5 1.1-0.5 0.9-1.1 2.3-0.9 1-0.9 0.5-0.8 0 1.6 0.8 1.9-1.7 1.7-3.1 1.1-3.4 0.2-1.8-0.2-1.1-0.4-1.1-0.2-1.6 0-1 0.1-1.7-0.1-0.7-0.1-0.6-0.2-2.2 0.1-1.6 0.7-2.6 0.3-1.4 0.1-1.9 0-1.6 0.1-1.4 0.4-1.4 0.4-0.6 1-1.1 0.9-0.5 0.1-0.9 0-1 0.1-1 0.8-1.3 1.1-0.8 1.2-0.3 0.9 0.6-0.1 1.6 0.4 1.6 0.7 0.9 0.5-0.3 0.1-0.9-0.1-0.7-0.2-0.8 0-0.8 0.3-0.8 0.5-0.5 0.9-0.5 0-0.7-2.3-0.2-0.7-0.5-1.6-2.5-0.3-0.3 0.2-1 1.4-3.7 58.1 0 0.1 0.3-0.6 1-1.9 1.4-3.5 1.1-0.8 0.6 0 0.6 0.4-0.1 0.4 0 0.3 0.5 0.1 0.9-1.2-0.1-2.6-1.1-1.2-0.1 0 0.7 5 1.2 9-3.4 1.3 0.3 2.5 1.5 0.5 1.1-1.1 1.1 5.2 4.6 0.3 2.4 1.4 1.9 0.8 0.6 0.3-0.9 0.4-0.7 2.8-2.2 0.6 0.5 0.8 2.7 0.5 0.6 0.5 0.5 1.8 3.9-0.5 0.9-0.5 0.7-0.4 0.8 0.1 1.4 0.4 0.9 0.5 0.5 0.5 0.8 0.3 1.5-1.1-0.1-3.3 1.9-11.8 1.4-1 0.9-0.1 2.1-0.7 1.1-2.8 0.7-0.7 0.9-0.6 1.1 0 1.1 0.8 0.7-0.8 2.2-1.2 1.1-5.3 2.2-0.8 0.7 0 0.6 0.4 0.5 0.8 0.1-14.3-2.2-14.4-2.2 0.2 0-8.8-2.8-8.8-2.8-1.1 0.5-0.7 1.4 4.9-0.6-0.7 1.7-1.3 1.4-1.4 0.9-1 0.3 0.5 1.2 1.1 0.6 2.1 0.2 1.3-1.2 0.4 0 1.4 1.1 0.5 0.1 0 0.5-2.8-0.1-0.8 0.7 5.9 1.1 2.1 1.6 4.4-0.1-0.2 0.9-0.2 0.3 1.2-0.1 0.6 0.1 0.3 0.6-0.3 0.4-1.6 1.4 0.9 0.7 5.6-0.7 1.4 1.1 9.1 3.2-0.6 0.3-2.7 2.7-1.5 0.9-1.3 1.3-1.4 0.9-0.6 0.9-0.2 0.6-0.1 0.4-0.1 0.3-0.3 0.6-0.2 0.3-0.8 0.6 1.5 0.2 0.7-0.5 1.1-2.2 1.3-2 0.6-0.4 0.5 0 0.4 0.1 0.4 0.3 0.4 0.5 0.4 0.3 0.8-0.6 1.2 0.5 1.4-1 0.8 0.5-0.3 1.2 0.2 0.7 0.3 0.8-0.2 1 1.1 2.4-0.6 0.9-0.6 2.3-1.1 0.9-1.6 1.9-0.1 0.7 0 0.7-0.6 0.1-0.4 0.8-0.3 1.1-0.4 0.9-0.6 0.6-1.3 0.3-0.6 0.3 1.1 0.1-0.3 1.1-0.9 1.7-0.6 1.4 1.1-0.7 0.5-0.6 0.9-1.7 3.5-3.6 1-0.5 3.3-0.3 2.5 0.7 0.2-0.1 2.6-2.7 1.1-0.7 1 0.5-0.6 0.8-0.7 2.1-0.6 1.1-1.4 0.9-0.6 0.8 0.1 1.6 0.4-1.5 0.8-0.8 1.5-0.8 1.3-1.5 0.3 0.1 0.7 2 0.4 0.9 1.8 1.7 0.4-0.1 0-0.7-0.2-0.5-0.6-0.9-1.2-2.9-0.3-1 0.6-0.4 1.8-0.2 0.5-0.7 0.1-1.2-0.5-0.9-0.6-0.7-0.5-0.8 0.3-1.2 0-2 0-1.9-0.1-1 2.4 0 1.4-0.6 0.4 0.3 0.7 1.4-0.2 0.7-1.5 1.2 0.9 0.7 2.3-0.9 0.8 0.8 0.1 0.7 0 0.8 0 0.8 0.1 0.8 0.2 2 0 0.1 0 3.9-0.1 3-0.6 2-1.6 0.5 0.7 0.6 2.1-0.6 0.5-0.4 0.1-0.9 0.1-2.3-0.1-1 0-0.6 0.4-0.4 0.1-0.4 0.1-0.4 0-0.6-0.1-1-0.3-0.8-0.1-0.7 0.3-0.8-0.3-1.7 1-0.7 6.6 0.8 0.7 1-0.5 0.4-0.2 0.8 0.1 0.8 0.4 0.4 0.5-0.2 0.6-0.4 0.9-1.2 0.3 0 1.5-1.4 0.1 3.6 0.8 1.5 0.3 1 0.1 1.5 0 0.9 0.1 0.7 0.5 1.2 0.8 1.5 0.1 6.8-0.1 1.4-0.9 3-1.4 1.5-3 0.5-7.4-1.3-1-0.7-5.7-6.6-2-1.5-1.3-0.4-1.4 0.1-0.7 0.5 0.3 0.7 0.6 0.7 1.9 0.9 0.3 0.7 0.3 1.6 0.1 2.1-0.2 1.5-0.5 1.1-0.5 0.8-0.9 0.7-0.3 0.5-0.3 1.3-0.1 1.2 0 1.1-0.1 1-0.4 1-3.8 4.1-1 1.9-0.6 0.6-1.5 0.7-4.6 0.1-0.7 0.5-2 2.3-1.8 0.8-5.2 0.3-1.7 0.9-1.3 2.1-0.3 1.3-0.3 2.4-0.3 0.7 0 0.7 0 0.8-0.1 0.7-0.3 0.8-0.5 1.4-0.2 0.8-0.6 3.1-0.3 1.3-0.6 1.4-1.5 2.5-1.6 2-1.7 1-1.7-0.2-1.1 0.3-0.6 0.6-3.5-4.6-0.4-0.9 0-1.4 0.5-6.4 0.3-1.9 0.4-1.1 11.1-13.9 3.6-7.7-4.4-10.6-1.7-6.9-0.5-0.9-9.9-4.9-10-5-1.2-0.5-1.1-0.9-0.8-1.8 0-3-5.8-2.7-0.7-0.7-5.7-10.3-1.7-4-0.9-1.5-0.9-0.4-2.3 1.4-3.9-0.8-1.6 0.6-1.3 1.9-0.2 1.5-3.7 1.8-1.9 2.6-0.5 0.3-0.5 0-0.4 0.2-0.4 0.8 0.2 0.2 0.5 0.6 0.2 0.2-1.2 1.7-6.5 2.5-0.6-0.1-2.3-1.7-0.8-0.1-0.9 0.3-1.7-1.3-1-0.3-2.8 0.8-2-0.6-5.3 0.9-1 0.6-0.6 1.7-1.1 1.6-0.3 0.7 0.4 1.6-0.9 1.8-3.1 3.6-1.5 3.3-1.4 2.3-0.4 0.8-0.4 0.7-0.5 0.3-4.6 1.3-0.8 0.7-0.7 1.2-0.4 1.1-0.2 0.9 0 0.9 0.6 0.8 0.7 2 0 2.1-0.6 1.9-0.8 1.4-1.8 1.5-0.4 1 0.1 0.5 0.3 0.5 0.2 0.7-0.5 0.9-0.2 1 0.1 2.1-0.3 0.7-0.4 0.6-0.7 2 0.9 3.4 0.2 0.7-2.8 5-0.4 1.2-1.1 7-0.1 2.3 0.5 2.3 0.1 0.5 0.4 1.5 0.1 0.6 0 0.7-0.1 0.4-0.1 0.3-0.1 0.3 0 2.9-0.1 0.5-0.2 0.9 0 0.5 0.4 1.4 0.1 0.3-0.1 0.4 0.1 0.4 0.2 0.4 0.6 0.6 0.2 0.5 0.2 0.6-0.3 1.1-1.3 1.2-0.3 1.1-0.2 1.1-0.4 0.9-0.9 1.4-0.5 1.2-0.4 1.2-0.4 1.2-0.8 0.8-0.7 0.2-3.8-1.3-1.4 0.3-1.4 0.8-5.7 5.2-1.2 2.4-0.4 1.7-0.2 1.9 0 3.9-0.2 0.7-0.1 0.4-0.1 0.5 0.4 0.8-0.4 1.7-0.4 0.8-0.6 0.4-0.8 0.2-2 1.4-0.8-0.1-0.9 0.9-0.4 1.4-0.4 1.5-0.6 1.1-0.8 0.2-0.6-0.7-0.9-2.6-2.4-3.7-2.7-2.4-5.6-1.9-4.6-1.7-4.4-3-0.8-0.9-1-1.8-6.2-3.4-2.3 0-2 1.4-0.6 3.7-1 3.5-2.9 1.7-4.9 0.8-8.7 5.7-0.7-0.3-2.3-4.1-0.8-0.9-1.6-0.5-5.2 0.9-7.8-4.1-0.8-0.2-0.8 0.1-3.5 1.3-0.6-0.2-0.4-1.6-0.8-7.7-0.5-0.9-2.4-2.1-2.4-4.3-0.3-0.9-0.4-2.1-0.5-1.1-4.2-4.7-2.3-4.6-8.7-17.1-0.8-0.7-9.9-1.7-6.6 4.5-0.6 0.8-0.5 1.3-0.9 2.9 3.7 8.1-1.7 3.7-0.9 0.6-1.2-0.3-8.8-5.5-0.8 0.5-2.9 5.4z m-176.3 68.4l-0.9-0.3-0.9-0.4-0.6-1.2 0.7-1.8 2.1-2.7 1.7-0.1 0.4 2-1.7 2.8-0.8 1.7z m-20.6-7.6l1.2 0.1 0.9 2.6-0.8 2.1-1.3 0.7-1.2-1.2-0.6-0.9-0.1-0.9 0.2-0.9-1.2 0-1.5-0.1-0.5-1.3 1.2-0.2-0.4-1.4 1.5-0.5 1 0.3 0.6 1 1 0.6z m-5.3 4.3l1.8-1.6 1.2 0.6 1 1.6-1.5 4-1.4 0.5-0.4 0.9-0.2 0.6-0.3 0.2-2.7 0.2-0.3 0.3-0.4 0.4-0.4 0.2-0.3-0.4-0.3-0.5-0.4-0.2-0.2 0.3-0.2 0.6-0.3 0.6-0.4 0.2-2.1 0 0.3 1.1 1.3 0.3 0.5 0.9 0.1 1-0.2 0.7-0.4 0.4-1.6 0.4-0.4-0.3-0.2-0.4-0.1-1.1-0.2-0.2-0.7 0.3-0.2 0.6-0.2 0.7-0.3 0.7 0.2 1 0.2 0.4 0.2 0.3-0.6 0.6-0.5 0-0.5-0.1-0.7 0 0.3-0.5-0.3-0.1-0.4-0.4-0.2-0.1 0-1.9-0.9-1-1.1 0-0.5 1.5 0 0.5 0.2 0.4 0.1 0.3 0.2 0.2 0.2 0.2-0.2 0.6-0.2 0.4-0.1-0.1-0.3 1.4-0.3 0.9-0.5 0.2-1.7-2.5 0.9-2.9 3.2-4.4-0.8-0.3-1.7 2.2-0.9 0.4 0-0.6 0.3-0.1 0.3-0.3 0.3-0.5 0.1-0.8-0.3 0.1-0.2-0.2-0.5-0.5 1.5-0.5-0.4-0.5-1.1-0.6 1.1-1.9 1.7-0.6 1.4-0.8-0.6-0.4-0.5-0.4-0.5-0.1-2-0.4 4.2-4.3 0.9 0.3 0.4 0 0.2 0.2 0.5 0.8 0.4 0.3 0.6-0.3 0.5-0.3 0.6 0.2 0.6 1 0.3-0.1 0.3-0.4 0.3-1.1 0.3-0.3 0.5-0.9 0.9-2 1.4-1.3 1.9 0.3 0.8 3.6-1.2 2.1 0.8 0.9 1-0.4z m22.5-19.3l-1.4 0.3-0.4-1.8-1.4-1.4-0.9-1.1-0.7-1.3 0.5-1 1.5-1.4 1.3 0.8 2.3 0.3 2.4 0.4 2 0.6 2.1 0.6 0 1.6 0 0.1-0.1 0 0 0.1-0.1 0 0 0.1 0 0.1-0.1 0 0 0.1-0.1 0 0 0.1-0.1 0.1-0.1 0 0 0.1-0.1 0 0 0.1-0.1 0 0 0.1-0.1 0 0 0.1-0.1 0.1-0.1 0 0 0.1-0.1 0 0 0.1-0.1 0.1-0.1 0.1 0 0.1-0.1 0 0 0.1-0.1 0 0 0.1-0.1 0 0 0.1-0.1 0.1-0.1 0 0 0.1-0.1 0 0 0.1 0 0.1-0.1 0-1.2 1-4 0z m-290.8 647.3l0.1 0.4 0.5 0.6 0.6 0.5 0.1 1 0 1.7-0.5 1.4-0.2 2.2-1 1-0.8 0.7-0.9-0.2-0.6-0.8-0.3-0.8-0.4-1.5 0-1.4 0.2-1.3 0-1.1 0-0.6-0.2-0.3 0.4-1.1 1.5 0.4-1.4-2.1-0.2-0.8 0-0.9 0.3-0.4 0.4-0.4 0.3-0.8-0.6-0.5-0.2-1 0.1-0.9 0.7 0 1.1 2.8 0.3 1.3 0.3 0.4 0.3 0.3 0.2 0.3 0.2 0.6-0.1 0.3-0.1 0.3-0.1 0.7z m1-27.8l0.3 0.4 0.5 1.9 0.3 0.7-1.1 1.2-0.6 0.4-0.6 0 0-0.4 0.3-0.1 0.9-0.7-0.2-0.9-0.1-1.1-0.3-0.9-0.6-0.1 0.1 1-0.4 0.1-0.6-0.5-0.4-0.8-0.2 0-0.3 0.1-0.3 0.3-0.2 0.2-0.1 0.6 0 0.4 0 0.4 0.1 0.5-0.2 0.7-0.9 1.2-0.1 0.8 0.1 0.9 0.5-0.4 0.5-0.9 0.5-0.4-0.5 1.2-0.1 0.5 0.1 0.5 0.2 0.4 0.1 0.4-0.2 0.7 0.2 0.5-0.2 0.4-0.3 0.3-0.2 0.3-0.7 0.3-0.1 0 0-0.1-0.2-0.4-0.3-0.5-0.4-0.8-0.2-0.8-0.1-1 0.1-2.1 0.5-1.6 0.7-1.4 1-1.4-1.3 0.1-0.6-0.3-0.2-1-0.4 0.7-0.5 0.3-0.4-0.3-0.2-1 0.2-0.7 0.3-0.4 0.3-0.5 0.1-1.1 0.1 0.1 0.3 0.2 0.2 0.2 0.1-0.5 0.2-0.2 0.2 0 0.3 0.2-0.2-0.8-1.1-1.7 0.4-0.3 0.4-0.1 0.8 0 0.1 0.9 0.3 0.6 0.8 1 0.3 0.2 0.3 0.1 0.2 0.2 0.1 0.6 0.1 0.5 0.3 0.2 0.4-0.1 0.3 0.2 0.6 1.5 0.4 0.9 0.5 0.3z m5.5-6.2l0.1 0.5 0 1.7 0.2 1.3-0.5 0.9-1.8 1.8-1 0-0.8-0.3-0.2-0.5 0.4-0.2 0.5 0.2 0.4 0 0.2-0.4-0.1-0.5-0.4-0.3-0.4-0.1-0.1 0.2-0.2 0.6-0.5 0.1-0.5 0-0.3-0.3-0.3-0.4-0.1-0.3-0.2-1.1-0.6-2.2-0.4-0.8-0.5-0.8 0.2-0.6 0-0.6-0.2-0.5-0.2-0.4 1.2-1.7 0.3-0.8-0.6-0.4-0.1-0.2 0.2-0.4 0.4-0.4 0.3-0.3 0.3 0 0.3 0.1 0.4 0.3 0.2 0.5 1.3 0.3 1 1.2 0.8 1.7 0.7 1.8 0.6 1.3z m4-13.1l0.9-0.4 0.3 0.1 0.1 0.8 0 3-0.3 1-1.4 2.4 0 0.7 0.5 0.7 0.6 1.4-0.6 0.3-0.9-0.7-0.6 0-1.4 1.3-0.6 0.1-0.6-1-0.2-2.3-0.1-0.6-0.4 0.2-0.3 0.3 0 0.3-0.7-0.1-0.7-0.3-0.6-0.6-0.5-0.7-0.4-1.1 0.4-0.4 2.3-0.1 0.1-0.3-0.2-0.8-0.2-0.6 0.1-0.6 0.3-0.4 0.3-0.3 0.2 0 0.2 0.3 0.3 0.1 0.2-0.2 0.2-0.2 0.3-0.4 0.2 0 2-0.4 0.1 0.1 0.2 0.2 0.2 0.1 0.2-0.2 0.1-0.3 0.1-0.2 0.1-0.1 0.2-0.1z m-15.5-7.8l-0.3 0.6-0.6 0.1-0.6-0.1-0.2-0.1-0.1-1-0.2-1-0.4-0.8-0.4-0.4-0.1 1.5-0.8-0.3-0.9-1.1-0.5-1-0.3-1 0-0.6 0.1-0.4 1.6-0.3 0.5 0.1 0.4 0.5 0.5-1.7-0.5 0.4-0.5-0.3-0.4-0.6-0.4-0.3-0.3-0.3-0.1-1.7-0.2-0.5 0.4-1-0.1-0.5-0.3-0.4-0.2-0.5-0.3-1.5 0.2-0.5 0.6-0.3 0.2 0.1 0.2 0.3 0.6 2.3 2.1 3.2 0.7 1.7 0.1 1.4-0.4 0.8-1-0.1 0.2 0.7 0.9 0.9 0.4 0.6 0.1 0.6 0.2 0.7 0 0.9 0.1 0.9z m-4.1-20l-0.6-2.3 0.3 0.4 0.2 0 0.2 0.1 1.3 1.8 3.8 1.4 1.4 1.9 0.3 1.3 0 1.1-0.4 0.8-1.6 1.1-0.4-0.1-0.2-0.6-0.1-1 0.1-0.4 0.4-0.5-1.6-0.8-0.5-0.5 0.2-0.3 0.1-0.1 0.1 0 0-0.5-0.4 0.1-0.2-0.3 0-0.6-0.1-0.7-0.3-0.2-0.4 0.1-0.4 0.2-0.4 0.2-0.5-0.5-0.3-1.1z m21.7-9.6l0 4.1 0 1-0.4 3.1 0 1.1 0.2 2.9-0.1 0.6-0.4 0.1-0.9 0-0.3 0.2-0.3 0.6-0.1 0.6-0.1 0.3-2.4 0.5-0.9-0.1-0.5-0.5-0.8-1.3-0.4-0.3-0.3-0.4-1.3-2.2-2.1-2.1 0.4-0.4 1.5 0 0.7-0.3 0.2-0.3 0.2-0.5 0.4-0.5 1.2-1 1.4-0.8 0.7-0.7 0.8-0.4 0.4-0.5 0.2-0.6 0-1.5 0.1-0.7 0.5-0.7 0.8-0.3 0.9 0.3 0.7 0.7z m-22.3-31.6l0.8 3.7 0 1-0.5 0.8-1.3 1-0.5 0.8-0.5 0.4-0.3-0.8-0.3-1.3-0.5-0.7-0.1 0.3-0.9 1.1-0.2 0.1-0.1 0.5-0.1 0.5 0 0.5-0.3 0.5-0.2-1.1 0-1.3 0-2.2 0-0.5-0.2-0.7 0-0.6 0.1-0.4 0.8-0.2 0.3-0.5 0.7 2.2 0.3 0.5 0.3-1-0.1-0.8-0.7-3 0.5-0.4 0.3 0.6 0.4 1.9 0.2 1.2 0.1 0.5 0.3-0.1 0.1-0.5-0.1-0.5 0-0.6-0.1-0.4 0.3 0.1 0.2-0.1 0.3-0.2 0.2-0.3-0.1-0.1-0.2-0.4-0.1-0.3 0.4-0.1 0.3 0.1 0.3 0.4 0.2 0.4z m-2.9-45.7l1.4-0.6 1.3 0.1 8.3 3.1-0.6 1-0.9 0.5-1.7 0.3 0.4-0.4 0.2-0.7-0.1-0.6-0.3-0.6-1.1 1.8-1.1 1.3-1.3 0.8-2.9 1-0.8-0.3-0.6-1 0-0.8 0.3-0.1 0.6 0.5 0.2-0.3 0.2-0.3 0.4-0.8-0.9 0.1-2.1-0.5-0.8-0.4 0.6-0.8 0.7-0.6 0.6-0.7 0-1z m26.7-25.7l1.4 0 0.6 0.2 0.1 0.7-0.3 0.2-0.2 0.4-0.1 0.4 0 0.6 0 0.3 0.2 0.3 0.1 0.2 0.1-0.1-0.2 0.9 0 0.3-0.4 0.4-2.4 1.1-4.7-0.1-0.3-0.1-0.2-0.2-0.2-0.5-0.2-0.5-0.1-0.5-0.4-0.4 2.5 0.5 0.7-0.5-0.5-0.4-0.6-0.2-1.2-0.3-0.4-0.2 0.2-0.5 0.5-0.5 0.5-0.1-0.1-0.2 0-0.2-0.1-0.3-0.2-0.2 0.6-1.2 1.1-0.4 2.2 0.2 0.3-0.1 0.2-0.2 0.3-0.2 0.2 0.3 0.3 0.4 0.2 0.4 0.2 0.3 0.3 0z m7.7-7.6l0.2 0.7 0 0.7 0.2 0.6 0.4 0.2 0.4 0.2 1.2 0.8 0.4 0.4-0.3 0-0.3 0.1-0.7 0.3-5 5.3-1.9 0.6 0.2-0.7 0.7-0.9 0.3-0.7-0.1 0-0.3-0.3-0.2-0.1 0.3-1.7-0.4-1.1-0.5-0.9-0.2-1.3 0.3-1.5 0.7-1.2 0.8-0.8 0.7-0.5 0.9-0.4 0.9 0.1 0.7 0.7 0.6 1.4z m8.5-1.8l1.2-0.1 0.5 0.1 0.4 0.8-0.2 0-0.1 0.1 0 0.2-0.1 0.2-4.7 0.5-2.3-0.4-2.1-2.3 5.5-0.5 0.4 0.2 1.5 1.2z m18-21.5l0.8 0.2 0.8 0.7 0.5 1-0.2 1.3-5 1.5-2.1 1.2-0.3 0.1-0.1-0.3-0.1-0.6-0.1-0.3-0.2-0.2-0.3-0.1 0-0.4 0.3 0 0.3-0.2 0.2-0.3 0.3-0.4-0.2-1.3 0.3-0.8 0.5-0.4 0.6 0.2-0.2 0.5 0.9 0.2 3.3-1.6z m-0.6-6.4l0.9-0.2 1-0.6 0.9-0.2 0.6 1 0 1.1-1.4 0.4-0.5 0.8 0.3 0.1 0.2 0.5 0.2 0.5-0.1 0.7-0.4 0.4-0.6-0.3-0.9-1-1.7-0.9-0.4-0.6 0.1-0.4 0.4-0.1 0.5 0.1-0.5-0.7-0.3-0.5 0-0.6 0.4-0.6 0.5 0.2 0.8 0.9z m29-16.2l2.2-1.1 1.1-0.1 0.9 1.2-0.5 1.3-0.8 1.2-0.9 0.9-1.1 0.4-0.6 0.3-0.3 0.1-0.2-0.2-0.4-0.6-0.1-0.1-0.6-0.2-1.7-1.3 0-0.4 0.6 0 0.2-0.7 0.1-0.8 0.1-0.3 0.2-0.2 0.2-0.2 0.2-0.1 1.4 0.9z m-4.2 1.8l0.3 0.2 0.4 0.7 0.5 1.5 0.5 0.7 0.3 0.2-0.8 0.7-0.5 0.2-1.2 0.2-0.5 0.5-0.3 0.5-2.2 2-0.6 0.2-0.5-0.2-0.1-0.1-0.5-1-0.2-0.2-2.2-1-0.6-0.5-0.2-0.6 0.3-0.7 0.6-0.4 1.2-0.5-0.4-0.5-0.2-0.6 0.1-0.5 0.5-0.3-0.5-0.4-0.3-0.1-0.2 0 0-0.4 0.6 0 2.1-0.5-0.4 0.9 0.8 0.1 0.7 0.5 1.2 1.8 0.2-0.5 0.1-0.6 0-0.6-0.4-0.4 0.3-0.4 0.5-0.4 0.2-0.1 0.3-1 0-0.7-0.6-1.8 1.1-0.1 0.5 0.1 0.3 0.4 0 1.2 0.1 0.8 0 0.7-0.3 1z m14.5-12.5l0.6 0.7 0.7 1.2 0.4 1.4 0 0.9 0.4 0.7 0.2 0.2 0 0.5-5.2 1.3-1.3-0.4-1.5-2.3 0.3-0.6 1.6-0.8 1.8-2.2 0.9-0.7 1.1 0.1z m11.3-0.5l2 1.9 0.8 1.3-0.2 1.5-4.4 1.1-1.5-0.2-0.9-0.8-1.6-2.7-0.9-1.1 0.2-0.8 0.1-1.6 0.1-0.5 0.3-0.2 0.4 0.2 0.2 0.3 0.3 0.4 0.3 0.3 0.3-0.2 0.3-0.2 0.2-0.1 0.5 0.9 0.4 1.2 0.4 0.7 0.4-0.9-0.2-1.2 0-1 0.3-0.8 0.5-0.3 0.6 0.3 0.4 0.7 0.7 1.8z m-17.4-6.5l0.6-0.3 1.9 0.3-1-0.8-4.8-1.2-0.6-0.8 0.1-1.4-0.1-0.1-0.3-0.4 1-0.8 0.8-0.4 1.9-0.2 0.8-0.4 1.6-1.9 0.8-0.5 2.1-0.1 0.9 0.7 0.7 2.6 1.5 1.3 0.3 1.1-1 2.1-0.3 0.6-0.4 0.2-0.8 0.4-0.2 0.2-0.1 0.5-0.1 0.2-1.5 0-0.5 0.2-0.9 0.7-0.5 0-0.1-0.7-1.2-0.6-0.6-0.5z m37.5-15.5l1.2 0 0 0.4-1.1 0.5-1.1 1.5-7.6 3.2-4.3 0.2-1.7 1.1-2.7 0.6-2.2 1.7-0.8 0.2-2.1 0-0.5-0.2-1.4-1.2 0-0.1-0.1-0.2-0.1-0.1-0.2-0.1-0.2 0.1-0.1 0.4-0.1 0.3-0.2 0.2-0.4-0.1-0.4-0.2-0.1-0.4 0-0.8-0.2 0 0.3-1.4 0.4-1 0.5-0.8 3-3.1 0.7-0.3 5.6-0.6 2.2 0.5 0.6 0 0.4-0.3-1.3-0.7-3-0.6-1.2-1.1 0.6-0.6 0.6-0.1 1.1 0.2 5.2-2.1 1.2 0.1 0.2 1.5 0.4 0.1 0.2-0.3 0.2-0.5 0-0.9 0.2-0.4 0.5-0.2 1.1-0.1 1-0.5 0.4 0.1 0.4 0.9-0.2-0.1-0.2 0.3-0.2 0.4-0.1 0.3 0.2 0.4 0.4 0.3 0.4 1.9 0.8-0.3 1.1-0.8 0.9 0.2 1.3 1.6 0.1 0.4 0 0.3 0 0.2 0.4 0.1z m-23.8-7.1l-0.8 0.2-0.7 0-0.6-0.4-0.7-0.8 1.9-1.1 5.7-1.3 6.9-3.8-0.5-0.4-0.6 0.1-0.5 0.3-0.5 0.5 0.2-0.9 1.7-2 0.5 0.5 0.5-0.2 0.5-0.5 0.6-0.2-0.1 0.3-0.1 0.2-0.1 0.2-0.1 0.2 0 0.5 0.4 0.3 0.2 0.6 0 1.5 0.2 0.7 0.1 0.5 0.1 0.6 0 1-1 1.5-1.5 0.7-6.1 0.7-2.1 1-0.6-0.5 2.1-1.4-1.7 0.5-0.4 0.4-0.5-0.5-0.8 0.2-1.6 0.8z m89.7-62.4l0.7 1.4 3.5 0 0.8 1.8-0.4 0.5-0.2 0.8-0.4 1.7-0.8-0.7-2.3-0.4-0.5-0.6-0.5-1.2-1.2-0.1-2 0.5-1.6-3.4 0.4-1.1 0.9-0.2 1.7 0.3-1-1.9-3.3 0.5-1.3-0.8-0.2-1 0.2-1.2 0.3-0.9 0.4-0.6 0.6 0 0.6 0.4 1.1 1.1 2.7 1.4 1.2 1.4 0.6 2.3z m-6-24.6l-0.3 0.3-2.3 0-2.1 1.7-1 1.2-0.8 0.4-0.9 0.2-0.7-0.1 0-0.5 8-6.7 0.4-0.2 0.4 0.1 0.8 0.7 0.8 0.3 0.4 0.4 0.4 0.6 0.1 0.6 0.3 0.5 1.8 0.8 0 0.3 0 0.1-0.1 0-0.1 0.1-1.3 1.8-1.2 1.3-1.4 0.7-1.5 0.2 0.1-0.8 0.1-0.3-0.3-0.2-0.4-0.1-0.3 0.1-0.3 0.2 0-0.5 0.5-0.4 0.5-0.9 0.4-1 0-0.9z m-7.7 1.8l-0.7 0.6-2.4 1.3 0.1-0.7 0.1-0.2-1.1 0 0.6-0.6 0.3-1.1 0.3-1.2 0.5-1.1 0.6-0.4 2-0.1 0.6-0.2 1.7-1 1.2-1.1 2.1-1.1 0-1.1 0.8-0.2 1 0.5 0.7 0.8-0.1 0.2-0.1 0.1-0.1 0-4.3 3.6-2 0.7-1.8 2.3z m42.4-17.9l0.8 0.3 1.1 0.2 0.7 0.5-0.3 1-0.9 1.1-1.2 0.9-2.3 1-0.7-0.1-1.3-0.7-0.6-0.2-0.7 0-1.5-0.5-0.6-0.5 0.4-0.3 1.3 0.3 0.4-0.2 0-0.5-0.1-0.5 0-0.6 0.5-0.7 1.2-0.5 0.7-0.5-0.5 0.1-0.2-0.1-0.2-0.4-0.2-0.6 0.1-0.3 0.1-1 0.1-0.9 0-0.3 0.5-1 0.8-0.8 0.9-0.6 0.7-0.2 0.5 0.5 1 2.1 1 1-0.4 1.2-1.1 1.8z m7-22.2l0.3 1 0.4 0.8 0.5 0.3 0.5 0-0.5 0.8-1 0.4-0.4 0.8-1.6 0.8-0.4 0.4-0.4 0.8-0.5 0.6-0.5 0.3-2.9 0.7-0.9-0.2-0.2 0.4 0.2 1.2 0.2 0.1 0.6 0.8 0.3 0.8-0.3 0.3-0.5 0.4-0.8 1.4-0.3 0.3-3.2 2.3-0.8-0.3 0.7-1 0.5-1.6 0.9-3.5-0.4 0.1-0.3 0-0.3-0.2-0.3-0.3 0.5-1.2 0.4-1.3 0.4-1.1 0.6-0.5 0.4 0.1 0.5 0.7 0.3 0.2 0.2-0.3 0.4-1.3 0.3-0.4 0-0.5-0.8 0.1-0.2-0.1-0.1-0.1-0.3-0.4-0.1-0.3 0.4-0.5 1.1-1.8 1.7-1.7 1.9-1.3-0.2-0.5-0.1-0.5-0.1-0.5 0-0.5-1.7 1.6-0.9 0.3-1-0.4 1.1-1-0.9 0 0.8-1.8 0.3-1 0.2-1.2-0.3-0.1-0.2-0.3-0.2-0.1 0.6-0.8 0.5-1.1 0.4-0.6 0.8 1.2 0.5 1.8 0.3 0.7 0.3 0.4 1.6 0.9 0.3 0.5 1.5 3 0 0.7 0 1.4 0.2 0.9z m-13.7-19.5l-0.2 0.9-0.4 0.4-0.9 0.6 0.5 1.1 0.1 0.6-0.1 0.7-0.4 0.7-1 2-0.3 0.4-0.3 0-0.1-0.4-0.2-0.4-0.2-0.2-0.4 0.1-0.3 0.3-0.3 0-0.3-0.4 0.6-0.5-0.6-0.3-2.1 0.6-0.6-0.8 0.1-1.3 0.6-1.9 0.8-1.7 0.5-0.7 2-1 1.1-0.2 0.8 0.9 0.4 0 0.5-0.2 0.5-0.1 0.2 0.8z m21.2-23.1l1.3-1.2 1.9-0.8 1.8-0.2 1.3 0.9-0.4 1.1-1 0-3.8 1.9-1.8 1.8-1.6 0.7-4 4.7-0.8 0.5-1.1 0.2 0.5-0.6 0.4-0.3 0.4-0.4 0.2-0.8-3.4 0.5 0.5-1.1 1.4-2 0.4-0.8 0.6-2 0.3-0.8 0.6-0.7 3.4-2.4 0.8-0.1 0.7 0.6-0.9 1.7-0.4 1 0.2 0.4 0.6-0.1 0.7-0.4 0.7-0.6 0.5-0.7z m-3.8-5.9l-1.2 1.2-7.3 3.4 1.2-2 0.5-0.5 0.4-0.2 0.5-0.4 0.4-0.8 0.8-1 0.3-0.5-0.4-0.2-0.6 0.1-1.1 0.8-0.6 0.1 0-0.5 0.5-0.3 0.9-1.1 0.4-0.2 1.7-0.2 0.5-0.3 0.2-0.5 0.1-0.7 0.2-0.6 1.1-0.5 1.5-1.3-0.9-0.9-1.2-0.4-1.2 0.1-1.1 0.6 0-0.5 2.9-1.9 0.3-0.1 0.3-0.2 0.2-1.4 0.4-0.1 0.6 0.6 0.4 0.7 0.2 0.8 0.1 1 0.2 0.9 0 0.9-0.7 0.7-1.3 0.7 0 0.6 2.3 0-0.5 0.6-0.5 0.4 0 0.5 1.2-0.3 0.6 0.1 0.3 0.7-0.2 0.8-0.3 0.2-1.3 0.2-0.3 0.3-0.5 0.6z m52.1-84.2l-0.4 2.2-0.6 1.8-0.7 1.4-0.8 1.1 0.7 2.7 0 1.3-0.5 0.8 0.1 0.3 0.1 0.5 0.1 0.3-0.5 0.4-0.5 0.3-0.5-0.1-0.2-0.9 0-1.1-0.1-0.5-0.2-0.3-1.3-2-1-0.6-2.3-0.6 0-0.5 0.7-0.5 0.5-0.6 1-1.7-0.2-1.1 0.3-0.1 2.1 1.9 0.5 0.2 0.6-0.3 0.7-1.4 0.8-2.1 0.8-1.4 0.8 0.6z m-37.3-75.1l0-0.6 0.7 0.1 2.4 1.6 0 0.6-0.4 0-0.3 0.8-0.4 0.4-0.4 0.3-0.4 0.2 0 0.5 1.3 0-0.5 1-0.6 0.2-0.6-0.1-0.6 0.3-0.4 0.7 0 0.7 0.3 0.4 0.5 0.2 0.3-0.5 0.5-0.8 0.3-0.3 0.2 2 0.3 1.4 0.1 1.9 0 0.9-0.2 0.7-0.6 0.3-1.5 0.1-0.5-0.1-1.3-2-0.6-0.4 0.3 1.8-0.5-0.1-0.3 0.2 0 0.5 0.3 0.5 0.6 0.3 1 0.2 0.6 0.4 0.1 0.7-0.1 0.8-0.3 0.7-0.5 0.5 0 0.3 0 0.4-0.1 0.2-0.6 0.6-3 1.3-0.4 1.2-0.4 1.3-0.9 0.8-1.6 0.4 0.2-0.8 1.1-2.1 0.5-0.5 0-0.2 0-0.5-0.2-1.1 0-0.4 0.3-0.9 0.3-0.7 0.6-1.5 0.3-0.9 0.1-1.6 0.2-0.8 0.2-0.2 0.5-0.1 0.2-0.3 0.1-0.5-0.1-1 0.1-0.4 1.5-3.9 0.3-0.7 0.7-1 1-0.7 0.5-0.5 0.4-1.1-0.2-0.3-0.3-0.6-0.1-0.2z m6.9-2.6l0.5-1.9 1-0.2 2.2 0.8 0.2 0.2 0.6 1.1 0.3 0.3-0.7 3.5-0.6 1.9-0.5 0.8 0 0.4-0.2 2-0.2 0.7-0.3 0.2-0.7-1.3-0.3-0.3-1.7 2.6-0.9 1-0.4-1.1 0-1.8-0.1-0.9-0.2-0.4-0.6 0.3-0.1 0.6 0 0.8-0.3 0.6-0.3 0-0.2-0.5-0.1-0.8 0-1 0.2-1 0.2-0.8 1.9-2.7 0.6-0.3 0.6 0.6 0.6 1.9 0.5 0.6 0.5-0.5 0.3-1.8-0.6-1.5-0.8-1.2-0.4-0.9z m52.7-19.5l-1.7 1.2 0.6 0.5 0.5 0.6-1.3 0.8-5.4 5.7-0.8 0.4-0.5-0.7 0.1-1.4 0.5-1.3 1.1-1.8-0.6 0-0.2-0.6-0.2-0.7-0.3-0.4-0.4 0-0.3 0.4-0.5 1.9 0.3 1.1-0.3 0.9-0.5 0.5-0.8 0.3-0.3 0.3-0.4 0.4-0.1 0.4 0.2 0.4 1.2 0.7-0.4 0.7-1.3 1.4-1.3 0.4-0.5 0.3-1.1 1.2-0.7 0.4-2.4 0.2-0.4 0.1-0.4 0.8-0.3 0.2-0.5 0-0.9-0.5-0.5 0 0.1 0.8 0.1 0.3-0.5 0.4-1.1 0.1-0.9 0.7-1 0.5-0.5 0 0.4-1.3 0.1-0.4 0.1-0.1 0.1-0.1 0-0.4-0.3-0.3-0.1-0.4-0.2-0.5-0.1-0.5 1.2-1.5 2.5-1.1 1.2-0.8-1.7 0.6-0.8-0.1-0.7-1.1 0.5-0.7 0.6-0.3 1.2-0.1-0.7-1-0.3-1.5 0.3-1.6 0.7-1 0.9 0.3 1.2 2.8 0.9 0.3 0-0.6-0.4-0.5 0.2-0.4 0.4-0.3 0.2-0.7 0.1-0.4 0.4 0.3 0.5 0.9 0.7-0.2 0.1-0.8-0.4-1.2-0.6-1.2-0.3 0.6-0.3 0-0.3-0.5 0.1-1.2-1.3-0.7-0.4-0.5 3.4-1.1 0.8 0.3 1.3 1.2 0.8 0.2-0.2-1.3-0.9-1.1-0.3-1 3.4-1.9 0.5 1 0.1 1.1 0.1 0.7 0.6 1.1 0.3 0.4 0.1-0.9-0.1-2.1 0.2-0.8 0.4-0.6 0.5-0.3 0.6 0 1.1 0.6 0.5 0.6 0.3 0.8 0.1 1.2-0.2 0.5-2 2.6 0 0.6 0.9-0.3 1.7-1.6 0.9-0.5 0.3-0.5 0.2-2.8 0.4-1.2 1-0.3 2.4 0.8 1.6-1.7 1.2-0.5 2.2 0-0.6 1.3-3.6 6.3-0.7 0.4 0.1-0.4 0.1-0.6 0-0.5-0.2-0.3-0.3 0.2 0 0.4 0 0.4-0.1 0.2z m43.6-10.5l0.3 0.5 0.7 0.7 0.4 0.7-0.7 0.5-1.6 0.6-0.6 0.7 0.4 0.5 0.6 1 0.3 0.9-0.5 0.4-5.2 0.3-1.5 0.8-1.2 1.4-0.5 0.4-0.2-0.6-0.7-1 0.6-1 1.7-1.5-0.4 0-0.4-0.1-0.8-0.4 0.6-2.9 0.9-2.5 0.8-1.4 0.9-0.7 3.7-1.1 0.5 0.2 0.9 0.7 0.4 0.2 0.3 0.3 0.1 0.8 0.1 0.9 0.1 0.7z m19.3-27.5l0.7 0.5 1.8 2.4 0.4 1.1-1.3 1.1-8.1 2.7-0.7-0.8 0.2-0.4 0.2-0.6 0.2-0.8 0-0.9 0.2-0.5 1.1-1.2 1-0.8 1.9-4.1 0.9-1.2 0.4-0.1 0.2 1 0.2 0.1 0.7 2.5z m4.7-6.4l0-1.7 0.6-0.7 2.9 0.2 1.4 0.8 1.3 1.5 1 2.2-2.8 2.6-1.5 2.7-1.1 0.9-1.2 0-0.9-0.9-0.5-1-0.2-2.8-0.4-1.5-1.5-1.7-0.7-1.1-0.1-1.3 0.6-0.9 0.8 0.8 1.3 2.5 0.8 1.1 0.8 1 1 0.5 0.8-0.2-0.6-0.9-1.3-1.2-0.5-0.9z m-20.7 14.5l1.5 1.2-0.3 0.7-1 1.6 0.8 0.8-0.1 1.3-0.5 1.6-0.6 1.2-0.3 0.5-0.4 0.4-0.3 0.5-0.1 0.9 0.1 1.1 0.2 0.2 0.1 0.3 0.2 0.7-0.3 1.2-0.5 0.5-0.7-0.1-1.2-0.7-2.2-0.2-3.8 1-2.1 1.9-0.4 0.1-0.4-0.3-0.3-0.6-0.4-0.3-0.4 0.4-0.3 1.5-0.4 2.2-0.5 2-1.3 1.5-0.5 1.5-0.9 3-0.7 1.1-1.2 0.8-0.8 0.1 0-1.4-0.2-1.2 0.1-1.2 0.2-1.2 0.1-1.3-0.1-1-0.2-0.8-0.1-1 0-1.4-0.4 0.7 0.1 0.8 0.1 0.8 0 1.1-0.2 1.1-0.3 0.5-0.8 0.9-0.3-0.2-0.5-0.6-0.4-0.4-0.3 0.7 0.2 1 0.9 1.3 0.2 0.8-0.7 0-0.3-0.7-0.3-1-0.3-0.9-0.5-0.1-0.2 0.9-0.2 1.1-0.4 0.7 0 0.4 0.1 0.9 0.1 0.4-1.1 0-0.5 0.1-0.5 0.5 0.3 0.3 0.4 0.2 0.4 0.1 0.4 0-0.5 1.3-1.6 2.1 0 1.1-0.5 0.3-0.8-0.3-0.4 0 0.2-0.3 0.2-0.2 0-0.6-0.7-0.2-0.9-1.2-0.5-0.3-4.7 0.8-1.1-0.3-0.5-1.6 0.6 0.2 0.5-0.5 0.9-2.3 0.6-0.8 2-1.2 1.1-1.4 1.9-3.3 1.2-1-0.9-1.1-0.1-0.3-0.1-1-0.3-0.5-0.3-0.2-0.4 0.2 0.4 1.8 0 1-0.4 0.8-3.1 4-0.9 0.4-0.2-0.1-0.6-0.5-0.3 0.3-0.1 0.4-0.2 0.5-1.5 0.9-1.1 1.9-2.1 0.6-0.8 1.2 0.9-0.1 0.4 0.3 0.2 0.9-0.6 0.2-2.1 1.9-0.4 0.4-0.6 1.7-0.9 1.3-1.3 1.2-1.3 0.3-0.4-1.3 0.2-0.2 0.1-0.2 0.2-0.3 0.1-0.5-0.3-1.2 0.4-1.3 0.8-1 0.6-0.5 0.4-0.6 1.1-3.2 0.6-1.3 2.1-3.5 0.9-0.7 0.9-1.2 0.5-0.3 2.7 0-0.8-0.3-2.1-0.1-0.6-0.7 0.2-1 1-0.3 1.7 0.1-1.7-0.5-0.2-0.3 0-0.6 0-0.6-0.1-0.2-2.8-0.7 0.6-1.6 0.6-1.2 0.6-0.6 0.9 0 1.4 0.5 0.3-0.4-0.4-1.3 2.6-0.5 0.3 0.3 0.9 1.6 0.6 0.4-0.4-1.4-1.5-2.6 0.5 0 0.9 0.5 0.5 0.1-0.3-1-0.1-0.2 0-0.6 3.3-0.6 0.3 0.2 0.3 0.8 0.2 0.3 0.5 0.4 0.4 0.1 0.4-0.2 0.4-0.4-0.4-0.1-0.3-0.5-0.4-0.6-0.3-0.5-0.6-0.3-1.5 0-0.5-0.6-0.6-1.1-0.7-0.9-0.4-1.3-0.1-2.2 0.1-1.3 0.2-0.5 3.7 0 0.3-0.2 0.4-0.2 0.4-0.1 0.3 0.2 0.8 0.8 0.6 0.4 1.6 1.5-0.8-0.8-0.3-0.4-0.1-0.3-0.2-1.1-0.1-0.3-0.8-0.7-4.2 0-0.8-0.3-0.5-0.8-0.1-1.1 0.1-2.3-0.2-1.2 0.3 0.1 0.7 0.4 0.3 0.1 0.4-0.2 0.2-0.6 0.1-0.6 0.3-0.4 0.9-0.1 1.7 0.7 0.8-0.6-0.6-0.4-0.9-0.3-0.8-0.5-0.5-1.1 0.2-1.7 0.7-0.9 1.4-0.3-0.1-0.7-0.2-0.5-0.2-0.4-0.3-0.2 0.4-1 0.6-2.2 0.5-0.8 1-0.7 3.1 0.7 2.4-1.4 0.8 0.2 0.7 0.8 0 0.1 0.1 0.7-0.2 1.1-0.2 1.6 0.2 1.2 0.4 0.7 0.2 0.8-0.2 1.4-1.2 4.4 0 0.6-0.1 1.1-0.1 0.6-0.2 0.7-0.5 0.8-0.2 0.5-0.5 0.9-1.9 1.8 1.3-0.3 1.5-0.7 1.4-1.4 1.1-2 0.6-0.4 0.7 0.9 0.3 1.5-0.1 1.5-0.4 1.2-0.5 2.3-0.4 1.2-0.3 0.5-0.2 0.2-0.3 0.1-0.4 0.3-0.2 0.5-0.6 1.1-0.2 0.4-0.7 0.4-1.7 0.5-0.6 0.9-0.2 1.4 0.1 1 0.2 1 0.2 1.1-0.1 1.4-0.4 0.7-0.4 0.7-0.4 1.3 1.3-1 0.6-0.8 0.4-1.1 0.1-1.6-0.1-1.2 0-1.1 0.7-1.3 0.6-0.7 2.3-1.6 1.4-1.5 0.8-0.5 0.7 0.3 0.6 2.6 0.4 1 0.7-0.7 0.2-1.4-0.2-1.4-0.8-1.8-0.2-0.2-0.3-0.6-0.2-0.7 0.4-0.3 0.7-1.4 0.2-0.3 1-0.5 3.2 0.5-0.4-2.2-0.7-0.9-1.6-1-0.5-0.7-0.4-0.8-0.2-1.1 0.2-1.4 0.4-0.4 2.5-1.8 0.5-0.1 0.6 0.2 0.8 1.1 0.5 0.3 0.5-0.1 0.3-0.6 0-0.6-1-1-0.4-1.5-0.1-1.4 0.3-0.3 1.8 2.9 2.4 1.3 1.1 0.2 0.3 0.2 0.1 0.6-0.1 1.2 0.5 1.1 2.3-0.9 0.8 0.1-0.5 0.8-1 1-0.4 1.1 0.6 0 0.5 0.1 0.5 0.6 0.3 1-0.9 0.8 0 0.7 0.2 1-0.1 1.6z m1.1-20.9l0.6 0.5 0.4 1.3 0.1 1.4-0.6 0.8 0.2 2-0.7 0.9-2.7 0.1-1.3-0.4-1.2-1-1.6-2.7-1.8-1.5-0.7-1.4 1.4-2.3 1.6 0.4 1.7 1.5 1.6 0.9 1.6 0 1.4-0.5z m-66.5 26.1l-0.3-0.3-0.1-0.4-0.4-1.5 0.3-0.9 0.4-0.4 1 0.1 0-1.1 1.2-0.9 2.4-0.9 0-0.6-0.8 0-2.4-1.2 0.5-1.7 1-1.6 1.1-1 0.8 0.3 0.1 0.8 0.1 2 0.2 1.2 0.3 0.9 0.5 0.6 0.5 0.3 0.6 0-0.3-0.5-0.2-0.3-0.3-0.2-0.3-0.1 0.3-1.6 0.3-0.9 0.5-0.6 0.6-0.5-0.9-0.7-0.2-0.7 0.2-1.2 0.4-0.7 0.6-0.3 0.7 0.2 0.5 0.5-0.2 0.6 0.4 0.6-0.4 3.7 0.2 0.8 1-0.4 2.5-2.3 1.3-0.6 1.2 0.5-0.3 0.9 0 0.9 0.2 0.8 0.5 0.3 0.4-0.3 0.6-1.6 0.5-0.4-0.1-0.8 0-0.7 0.2-0.7 0.2-0.7-1.5-2.3 1.1-1.3 0.4-0.5 0.7 1.5 0.4 0.5 0.1 0.7 0 0.8 0 0.6 0.2 1.6 0.2 0.4 0.3-0.5 0.3-0.7 0.1-0.5-0.1-0.5-0.1-0.4 0.8-2.4 1.1 0.7 1.2 1.6 1.1 0.7-0.4-2.1-0.8-1.2-0.9-0.8-0.7-1.1 0.3-1.7-0.4-1.2-1.1-1.8-0.3-0.9-0.3-1.6-0.1-1.5 2.4-2.6 0.6-0.3 0.6 0 0.4 0.2 0.5 0.9 0.5 1.2 0 1.2-0.6 1 1.3 1.7 0.4 0.2-0.3 0.4-0.1 0.1 0 0.6 0.4 0 0.4 0.2 0.7 0.9-1 0.9-0.4 0.6-0.3 0.9 0.9 0.4 1.7-3.3 0.8 1.1-0.5 3.5-0.2 1-1 2.5 1.9-1.5 0.5-1.1 0.2-0.3 0.2 0 0.2 0.3 0.1 0.6 0.2 0.1 1.1-0.4-0.4 1.4-0.3 1.5-0.3 1.3-0.7 0.5-0.9-0.5-0.5-0.1-0.3 0.6 0.1 0.4 0.8 1.3-0.6 0.9-0.3 0.3 1.2 0.8 1.4 0.6 1.1 1.2 0.1 3.2-0.7 2-1.2 1.4-8.4 6.3-5.8-0.5-0.9-0.6 0.2-0.2 0.3-0.7 0.1-0.2-1.7-0.8 0-0.1 0-0.3 0.3-1.6 0.5-0.5 1.3-0.2 2.2-1.5 0.8-0.2 1.9 0 0.2-0.2 0.3-0.5 0.2-0.6 0.1-0.4 0.8-0.7 1.6 0 0.8-0.5-0.4-1-0.2-1.1 0-1.2 0.1-1.4-3.8-1.2-1 0.7 0.6-0.1 1.7 1.3-0.6 1.6-0.9 1.4-1 0.9-0.9-0.5 0.2-0.7 0-0.2-0.1-0.3-0.1-0.6-0.3 1.2-0.7 1.7-0.7 1.2-0.7-0.3-0.5-0.5-1.1 1.4-0.6-0.6 0.4-1.1 0-1.1-0.2-0.7-0.3 0.3-0.2 0.9-0.4 1.5-0.3 0.8-0.7 0.5-0.9-0.5-0.8-1.2-0.5-1.7-0.2 1.8-0.4 1.1-0.9 1.7-0.2 0.7-0.1 1.4-0.1 0.2-1.8-0.1-0.4 0.4-0.8 1.1-0.9 0.2-1.7-0.4-0.6-0.6-0.1-1.5 0.2-1.5 0.4-1-0.3-0.5-0.2 0.3-0.2 0.6-0.4 0.1z m34.7-21.5l-0.8 1.6-1.2 1.1-1-0.1-0.4-2.6 0.3-0.9 0.1-0.8-0.1-1.1-0.1-1.3 0.2-1.3 0.7-2 0.2-1 1.8-3.5 0.7-2.4 0.9-2.1 1.2-1.7 1.5-1.1 3-0.7 1.1-1.3 1.6-5.1 0.8-0.7-0.1-0.4 0-1-0.1-0.4 0.5-0.4 1.1-0.4 0.5-0.4 1.3-2 3.9-2.5 0.9 0.4 0.6 1.7-0.1 1.9-0.5 1.8-0.5 1.4-0.5 1.8-0.3 3.5-0.4 1.5-0.5 0.8-1.4 1-1.3 2-0.5 0.3-0.3 0.3-0.3 0.8-0.6 1.5-0.2 0.3-0.5 0.5-0.5 0.4-0.1 0.4 0 0.6-0.1 0.5-0.4 0.9-0.3 0.4-1 0.5-1.7 1.5-3.9 1.6-1.1-0.7-0.9-1.5-0.6-0.3-0.6 0.6 0.5 0.8 0.5 0.8 0.3 1.1 0 1.3-0.2 0.9-1.1 3.2z m78-45.2l0.2 1.2 0.1 3.2 0.2 0.7 0.3 0.3 0 0.8-0.2 0.8-0.2 0.5-0.4 0.3-1.7-0.3-1.9 0.8-1 0.9-0.5 1.2 0.4 0.6 0.1 0.7 0 0.9 0.1 0.9 0.3 0.5 0.7 0.8 0.3 0.4-0.5 1.1-0.8 0.3-1.4-0.2 0 0.6 1 0.8 0.6 0.5 0.3 0.8 0.2 1.2 0.6 0.2 0.7-0.1 0.6 0.2-0.7 1.2-0.9 0.6-4.2 0.9-3.5-0.3-2.9 1.7-2.9-0.4-0.9 0.4 0.2-1.3 0.3-1 0.8-1.8-1-0.1-0.8 0.2-0.8 0.6-0.8 1.1-1.3 2.3-4.4 4.1-1.4 1.9-0.9 2.9 0.4 0.4 0.8-0.2 0.5 0.3-0.9 1.7-1.7 1.1-1.7 0.3-1-0.8 0.1-1.1 0.4-0.8 0.6-0.3 0.6-0.1-0.3-0.4-0.1-0.1 0.2-1 0.5-0.4 0.5-0.2 0.5-0.3-0.9-1.1-8.8 2.6-0.4-0.9-0.9-0.4-0.2-1.6 0.4-1.7 0.9-0.9 1.7 1.2 0.7 0-0.1-1.9 3-1.1 1.3 0.7 0.7-0.1 0.5-1.2-0.2-0.3-0.1-0.3-0.1-0.3-0.1-0.3 2.8-2 0.8-1.5-2.8 1.7-1 0.1-2.3-1.3-2.3 0 0-0.5 0.3-0.2 0.1-0.2 0.1-0.3 0.1-0.5-0.6-0.5-0.3-0.1-0.3 0 2-1.3 4.4 0.7 1.8-2.4-0.7 0.6-0.2 0-0.2-0.2-0.1-0.4 0.1-0.4 0-0.2 0-0.4-0.3-1.1-0.4-0.8-0.1 0.9-0.4 1-0.9 0-1.9-0.7 0-0.6 0.3-0.2 0.2-0.2 0.4-0.9-2.6 0.4-0.6-0.4-0.2-1.2 0.5-0.5 6.7 0.6-0.3-0.2-0.6-1 0.4-0.6-1.2 0.1-0.6-0.3-0.5-1 0.5-0.4 0.5-0.2 1.1 0-0.8-0.8-0.9-0.3-2.6 0.7-2.8-0.2 0-0.6 0.5 0 0.4-0.2 0.8-1-0.1-0.3-0.1-0.9 0.3-0.4 0.4 0 0.9 0.5 0.3 0.5 0.3 0.1 0.2-0.2 0.3-0.9 0.2-0.2 0.5 0.2 0.7 0.8 0.5 0.3 0.5-0.1 0.9-1 0.6-0.2 4.1 0.6 2.8 2.3 1 0.1-0.3-1.2-0.6-0.6-1.2-0.6-1.1-1.5-0.4-0.3 5 0 1.5-1.2-5.2-1-2.5-1.3-1.8-4.2 1.2 0.1 0.7 0.5 0.5 1.5 0.6 0.7 0.6 0.6 0.4 0.2-0.2-1.4-0.2-0.4 2.1 0.5 0.6-0.5-0.7-0.8-1.3-2.3-0.7-0.5 0.4-1 0.8-0.3 0.9 0.3 1 1 0.5 0.3 0.9 0.2 0.4 0.3 0.5 1.3 0.3 0.3 0.7 0.1 0.6 0.4 1.6 1.9 0.6 0.4 1.3 0.2 0-0.6-0.9-0.7-0.4-0.5-0.4-0.7-0.2-0.6-0.4-1.9-0.1-0.4-2.2-1.5-0.6-1.1-0.2-0.6-0.3-1.1 0.3-0.6 0.1-0.7 0-0.6-0.1-0.5 1.5 0.2 1.1 2 2 5 0.4 0.4 0.8 0.4 0.7-0.1 0.4-1-0.1-0.8-0.6-0.2-0.2-0.7 0-0.9-0.1-1.7-0.1-0.7 0-0.6-0.1-0.4-0.1-0.4 0.2-0.5 0.5-0.4 0.4 0.4 0.4 0.6 0.2 0.6 0.9 3 0.5 1 0.6-0.7 0.8-2.4 0.6-1 0.6-0.5 0.7 0.5 0.4 1.2 0.6 3.2-0.3 0.8-0.7 1-0.3 0.6-0.2 0.6-0.1 0.4 0 0.5-0.1 0.9-0.4 1.4-0.1 0.7 0.3 0.8 0.4 0.3 0.4-0.6 0.6-1.8 0.2-1.5 0.2-0.8 0.9-0.6 0.5-1.2 0.3-0.3 0.8 0.3 2.4 2.1-0.3 0.9-0.6 0.4-1.2-0.1 0.4 1.7-0.3 1.1-1.3 1.9 1.2 1.3 0.6 0.3 0.5-1-0.2-1 0.4-0.7 0.8-0.2 0.7 0.4z m28.4-34.4l0.6 1.3 0.8 1.1 0.5 1.3-0.1 2.1-0.7 1.8-2 0.9-1.7 3-1.1 0.6-1.2 0.3-1.1 0.7-0.3 0.5-0.3 0.9-0.3 0.9-0.1 0.7 0.2 1 0.5 0.4 0.6 0.2 0.5 0.5 0.2 1.7-0.4 1.2-1.6 1.6-1.2 0.6-3.2-1.1-0.4 0.3-1.1 1.2-0.5 0.2-2.3 0-6.9 2.4-2.1 0-0.7-0.8-1.3-2.2-0.7-0.6-1.8 0-0.8-0.4-0.8-1.4 0.3-0.7 0.7-1.2 0.3-0.5-0.1-0.3-0.1-0.9 0.3 0.1 0.3 0.2 0.6 0.5 0.4 0.1 0.3-0.2 0.6-0.7 0.7-0.3 3.1 0.7 0.8 0.6 0.2 0.4 0.4 1-0.1 0.1-0.1 0.5 0.1 0.4 0.4 0.2 0.2-0.3 0.5-1.2 0.3-0.3 0-0.5 0.6 0 0.4-0.4 0.3-0.4 0.7-0.6 0.3-0.5-2.3 0.6-0.6-0.1-0.4-0.4-3.2-6.2 0.9-0.4 3.1 0.4-0.2 0 1.3 0.4 3.9-0.4 4 1.5 0.7-0.8-1.2-0.8-6.3-0.8-1.1-0.9-0.3-1.8-0.5-1.4 0.2-1.3 0.7-1.1 0.8-0.4 0.4 0.1 0.2 0.4 0.6 1 0.5 0.4 0.9-0.4 0.5 0.3 0.1 0.7-0.1 0.9 0 0.7 0.6 0.1 0.3-0.4 0.3-0.7 0.3-1.6 0.8-1.4 0.8-0.6 2.1-0.1-0.4 4.3 0.7 3.8 1.4 2.3 1.7-0.1-0.7-0.6-0.1-1 0.1-1.3 0.5-2.8 1-2.8-0.5-1-2.6-3.6-0.5-1-0.2-1.1 0.4-2.4 1.2 0.4 1.4 1.1 1-0.3-0.4-0.6 0.6-0.7 0.6 0.1 0.6 0.7 0.5 1.1-0.3 0.4-0.1 0.4-0.2 1 0.6 0.1 1.2-0.3 2.7 1.3 0.4 0.4z m81.8-10.7l0.6-0.4 0.5-0.1 0.5 0.1 0.5 0.4-0.2 0.9-0.3 0.4-0.3 0.2-0.4 0.4-0.3-0.2-0.3-0.4-0.2-0.5-0.1-0.8z m-54.2-6.1l0.6-0.6 0.9-0.3 0.9 0.2 0.6 0.7-1.4 0.7-1.1-0.2-0.2-0.2-0.3-0.3z m32.5 1.3l4.3-0.7-3.6 2.6-0.2 1.7-1.1 1.4-1.5 0.8-1.5 0-1.1-1-0.9-2.1-0.5-1.4 0-1 0.7-2.2 0.6-1.2 0.7-0.5 1.1-0.1 0.8 0.6 1.5 2.5 0.7 0.6z m2.5-5.3l0.2 2-0.8 1-2 0.4 0.3-1 0.8-1.5 0.9-1.1 0.6 0.2z m-43.6 4l0.5-0.3 0.5-0.1 0.6 0.4 0.4 0.9 0 1.9-1.1 1.4-3.3 1.7-0.2 0.4-0.3 1.1-0.1 0.3 0 1-0.1 0.5-0.3 0.6-0.5 0.5-0.2 0.4-0.4 1-1.2 1.5-0.3 0.7-0.2 0.8-0.1 0.6-0.2 0.6-1 1.4-1.2 0.9-6.5 2.2-1.1-1.1-1-2.7-0.3-0.7-6.2-5.7-2.4-1.1-0.9-1.4-0.2-1.5 1.3-0.7 2.9 1.2 0.6-0.3 0.9-1.5 0.6-0.6-1.8-0.4-0.9-0.8-0.4-1.5 0.4-1.4 0.9-0.8 1.8-0.6 1.6 0.6 0.4-0.2 0.6-0.8 0.4-0.2 0.4 0.3 0.2 0.6 0.1 0.6 0.1 0.3 0.5 0.1 1.4-1.3-0.5-1-0.6-0.8-0.5-1-0.1-1.6 0.7 0.6 0.5 0.2 0.5-0.2 2.7-2.3 0.6 0.4 0 0.9-0.1 0.9 0.3 0.8 0.7-0.2 0.6-1 0.7-0.7 0.8 0.6-0.5 1.2-0.4 1.7-0.1 1.4 1.5 1.2 1.6 2.4 0.8 0.2 0-2.2 0.6-1.8 0.9-1.2 2.1-0.9 0.6 0 0.6 0.8 0.2 1.3-0.1 0.9-0.2 0.9 0 1 0.3 0.8 0.4-0.4 0.3-1 0.4-0.7z m36-6.8l0.1 1.4-0.1 0.8-0.2 0.5-0.5 0.5-0.7 0.1-0.7-0.5-0.6-0.6-0.5-0.3-0.4 0.3-0.5 1.2-0.4 0.3-0.3 0.1-0.7 0.5-0.3 0.1-0.5-0.2 0-0.4 0.2-0.7 0.2-0.6 0.1-1.9-0.1-1-0.2-0.8-0.5-0.3-0.4 0.4-0.2 1 0.2 1.3-1.4 0 0.1 1.5-0.5 0.4-1.1-0.6-0.6 0-0.6-0.3-0.5-0.6-0.4-1-0.3-1-0.1-0.5 0.1-0.6 0.1-1.3 0.1-2.4 0.5-1.9 0.7-1.4 0.8-0.8 1.9-0.7 0.6-0.5 0-0.2 0-0.6 0.1-0.6 0.1-0.5 0.3-0.3 0.8-0.3 4.5 0 1.3 0.6 1 0.9 0.5 0.9 0 1.4-0.5 2.1-0.6 1.6-0.3 1-0.1 1.6-0.1 0.4-0.1 0.4 0.1 0.6 0.5 1.4 0.1 0.1z m-24.9-4.9l4 2.4 1.3 0 0 0.7-3 1-1 0.8 0.4 0.9-0.2 0.7-0.4 0.5-1.2 0.8-4.8 0-1.4-0.6-0.8-1.7 0-0.7 0-2.7 0-1.1-0.2-0.4-0.2-0.3-0.3-0.6-0.8-2.8-0.2-0.7-0.6-0.9-0.3-0.6-1-1.2-2.2-1.1-0.7-1.7 0.4-0.6 0.4 0 0.9 0.6 0-0.6-0.1-1.1 0.8-1 1.9-1 0.4 0.5 0.1 1 0.1 1.3 0.1 0.9 0.5 1 0.5 0.8 0.6 0.5 0.5 0.2 0.7 1.1 0.3 2.1 0.4 1.5 0.9-0.4 0.3-0.9 0.4-2.3 0.2-0.5 0.6 0.2 1.5 1.6-0.3 1.7 0.2 1.2 0.6 0.8 0.7 0.7z m90.2-14.3l0.6 0.4 0.7 0.2 0.7 0.5 0.6 1.1 0.4 1.4-0.1 1-0.5 0.5-8.3-0.7-8.7-3.2-2-3.1-0.2-0.6 0.1-1.3 0.6-1 0.7-0.4 0.6 0.5 0.4 1 0.5 0.7 1.1 1.2-0.9-2.1-0.2-0.5 0-1.4 0.1-1.1 0.4-0.4 1.4 1.9 1.3-1.6 0.8 1.4 0.2-1.3 0.4-0.6 0.4 0.2 0.3 1.1 0.2 0 0.1-1.2 0.3-0.9 0.4-0.3 0.4 0.5 0.2 0.7 0 2.1 0.1 0.9 0.5 1.5 0.5-0.7 0.2-1.9-0.2-2 0.8-0.7 0.7 0.8 0.6 1.8 0.2 2.2 0.7 0.8 3.9 0.8-0.3 0.1-0.3 0.4-0.2 0.6-0.2 0.7z m22.5-18.1l-0.2 0.2-0.5 0.8-0.2 0.2 0.3 0.6 0.5 0.9 0.3 0.3-0.9 3-1.3 2-5.6 5.7-2.8 1-0.8 0.9 0.7 0 0.8 0.1 0.7 0.5 0.6 0.7-5.1 3.2-1.9 0.5-1.5-0.5-0.7-1.7 0.1-2.4 0.9-2.9 0.4-1 0.2-1.3 0.1-1.4-0.1-1.3-1.8 5-1.1 1.7-1-0.8-0.4-0.7-0.4-0.1-0.5 0-0.5-0.1-0.3-0.3-2.1-3.6-0.5-0.5 0.8-0.6 1.8 0.7 0.8-1.3-1.4-0.9-0.3-0.4-0.4-1 0-0.4 0.8-0.5 0.4-0.5 0.2-0.1 0.3 0 0.2-0.2 0.1-0.5 0.1-0.6 0.2 0 0.6 0.1 0.2-0.1 0.2-0.4 0.3-1.1 0.1-0.4 3.3-2.1 0.5 0.6 0.3 1.4 0.7-0.4 0.8-1 0.7-0.4 0-0.5-0.7-0.5-0.6-0.9-0.2-0.8 0.7-0.4 0.5 0.1 0.8 0.5 0.7 0.8 0.3 1.5-0.1 1.3-0.2 1.3 0 1 0.5 0.4 0.4-0.7 0.6-3.2 0.5-1.1-0.7-0.4-0.2-0.7 0.3-0.7 0.8-0.1 0.6 0.5 1 1.2 0.7 0.2-0.5-1-0.1-0.3 0.7-1.5 2.8 1.5 1.1 0-0.7-1.4-0.8-1-1.7-1.3 0.2-0.4 0.3-0.9 3.5 0 0.1 0.2 1 1.7-0.2 1.2-0.3 1.1-0.1 1 0 1.1 0.3 1.4 0.6 0.3 0.7 0.2 0.7 0.7z m13.9-8.9l-0.3 1-2.7 1.9-2.6 4.1-1.8 1-2-0.1-1.6-0.9-0.4-1.2-0.9-2-0.4-1.2 0-0.6-0.1-0.9 0-0.8-0.2-0.3-1.4 0 0.1 0 14.3 0z m-51.7 8.2l-0.5-0.4-0.3 0.1-0.7 1-1 0.3-1-0.3-0.5-1.1 0.6-1.5-0.8-1-0.6 1.2-0.7 3.6-0.7 0.8-1.1 0.7-1 0.1-0.4-1 0.4-1.5 0.2-1.1 0.8-2.1 0.5-0.9 1.3-1.2 0.6-1.3-0.2-0.1-0.6-0.6 2.1-1.9 20.9 0-0.1 0 0.6 0.3 0.1 1-0.3 1.2-0.6 0.6-0.8-0.1-1.4-1-0.8-0.1 0 0.7 1.7 1.2-0.3 0.8-0.4 0.5-0.3 0.4-0.5 0.2-0.5-0.2-0.8-0.9-0.3-0.2-0.4 0.4-0.7 1.8-0.3 0.4-0.5-0.2-0.2-0.5 0-0.8 0.4-1.1-2.8-1.1-1.4 0-0.2 1.1-0.3 0.6 0.3 1.2-0.1 0.5-0.3 0.2-0.4 0.1-0.2-0.2-0.2-0.3-0.2 0-0.2 1.3-0.1 0.5-0.3 0.4-0.1 0.2-1.5-2.3-0.9-0.4-0.4 2.3-0.2 1.1-0.6-0.2-0.6-0.8-0.2-0.4z m-10.4-8.2l-0.2 0.4-0.3 0.2-0.8-0.1-0.9-0.5 2.2 0z m31.2 0l-0.4 1.2-1-0.4-0.8-0.8 2.2 0z m-313.5 361.1l0.2 0.7 0.1 1.5-0.2 1-0.3 0.3-0.4 0.4-0.3 0.6-0.7 0.8-0.4-0.6-0.7 0.5-0.8-0.3-0.3-0.9-0.3-0.6-0.7-0.1-0.4 0.1-0.2-0.2 0.2-0.5 0.2-0.7 0.7-0.8 0.6-0.6 1.1-1.3 0.1-0.4 0-0.4 0-0.4 0.2-0.1 0.2 0.6 0.1 0.6 0.4-0.2 0.2 0.2 0.2 0.2 0.1 0 0.6 0.1 0.2 0.1 0.2 0.2 0.1 0.2z m2-13.3l0.6 0 0.2 0.5-0.4 1.5-0.2 1.9-0.3 1.1-0.2 0.4-0.5-0.4-0.2-0.3-0.2-0.5-0.1-0.9-0.2 0.6-0.2 0.5-0.1 0.9 0 1.1 0.4 1.2 0.1 0.4-0.7-0.3-0.3-0.3-0.2-0.3-0.4-0.4-0.3 0.1-0.2-0.2-0.1-0.2-0.3-0.4-0.5-0.3 0.3-0.3 1-0.7 0.2-0.9-0.5-1.1-0.2-0.9-0.3-0.1 0-0.4 0.4-0.4 1.7-0.7 0.3 0.1 0.2 0.2 0 0.5 0.1 0.3 0.2 0.4 0 0.5 0.2 0 0.3-0.8 0-0.8 0-0.5 0.4-0.1z m72.2-117.6l0.2 0 0.1 0.6-0.5 1-1.1 0.8-0.2-0.1-0.2-0.2-2.4 0.7-0.5 0-0.8-0.4-3-0.2-1.3 0.3-0.2-0.1-0.1-0.7-0.3-1.4 0.1-0.9 0.4-0.5 0-0.4-0.2-0.5 0.2-0.2 1.3 0.2 0.6 0.2 0.4-0.1 0.3-0.5 0.2-0.5 0.8-1 0.3-0.6 0.2 0 0.1 0.5-0.1 0.6-0.1 0.5 0 0.4 1 1.4 0.7 0.4 1.5 0.2 0.5 0.3 0.1 0.5 0.5 0 0.3 0.1 0.2 0.7 0.5-0.6 0-0.3 0.5-0.2z m19.4-5.1l0.1 0.3 0 0.6-0.2 0.3-1.3 0.7-1.3 0.1-1.7-0.8-1.8-1.5-0.6-0.1-0.9 1.6-0.5 0.4-0.3 0.1-1.1 0.2-2.8-0.4-0.4-0.3-0.3-0.2-0.2-0.1-0.4-0.5 0-0.2 0.4 0 0.4-0.2 0.4-0.6 0.4-0.5 1.2-0.3 8.8-0.2 0.9 0.7 0.9 0.4 0.3 0.5z m-23.4 1.7l-0.2-0.4 0-0.3 0.1-0.4 0.3-0.4 0.1-0.5 0.4-0.6 0.7-0.5 0.3-0.5 0-0.5 0.3 0 0.3 0.7 0.5 1.5 0.5 1.2 0.4 1.5-0.6 0.8-2.5 0.1-0.4-0.7-0.2-1z m-5.2-76.3l-0.3 1.4-0.9 0.8-1.7 0.3-0.3-0.1-1-0.9-0.5-0.1-0.1-0.6 0.5-1.3-0.1-0.5 0-0.5 0.1-0.3 0.5-0.6 0.8-0.1 1.8 0.4 0.8 0.7 0.4 1.4z m174.9-86l-0.1 0.4 0 0.5 0.2 1.5 0.5 2.2-0.4 1.7-1.4 1.3-1.7 0.8-1.6-0.6-0.7-1-0.2-0.8-0.1-1.6 0.2-1.3 0.6-1.8 0.2-0.7 0.1-0.7 0.1-0.6 0.5-0.4 0.7-0.3 3.5-0.5 0.2 0.5 0 0.6-0.1 0.3-0.1 0.1-0.4 0.4z m285.7 5l2.4-0.2 0.3 0.5-0.6 1.1-1 0.6-2.5 0.8-1.4 1.7-0.7 0.4-0.7-0.4-0.6-0.8-0.5-0.5-0.5 0.5 0.4 1-0.4 0.9-1.1 1.2-2.5-0.7 0.7-2.4 2-2.7 0.9-1.6-0.7-2.4 0.2-2.2 0.8-1.6 1.1-0.5 2.9 1.1 0.7 0.7 0.1 0.5 0 1.3 0.1 0.7 0.1 0.3 0.7 0.9 0 0.4-0.1 1-0.1 0.4z m-312.9-15.2l0.6 0.7 0.7 1.9-0.7 2.1-1.3 2.2-1 3-1.2 2.4-1.3 0.9-5.9 1.5-1.5-0.2 0.2-1.6 2.1-3.2 0.7-2.3 0.4-0.5 1.5-0.8 3-2.6 1-1.4 0.7-1.4 0.8-0.9 0.8 0 0.4 0.2z m-35.2-2.2l-0.2-0.6-0.1-1.3 0.6-1.4 0.8-1.1 0.3-0.7-0.1-0.2 0.1-0.8-0.2-0.7-0.1-0.8 0.6-0.4 1 0.4 0.8 0.9 0.5 1.6 0.1 1.6 0.2 0.6 0.4-0.5 0.3-0.7 1.9-3 0.5 0.1 0.4 0.7 1.5 1.2 0.2 0.9-0.5 0.9-0.7 0.9-0.8 0.7-2.3 0.7-2.2 1.7-1 1.7-0.4 0.9-0.2 0.1-0.1 0.2-0.2 0.2-0.4-0.3-0.6-1 0-1.2 0.6-0.9 0-0.3-0.7-0.1z m68.3-4.7l-1 0.9-1.1-0.3-0.5-0.7-0.3-1.2-0.2-2.3 0.4-1.9 0.8-1 0.8 0.6 1.7 3.3 0.1 1.1-0.7 1.5z m-41.5-1.3l-1.5 0-2.3-0.9-1.8-0.8-0.4-0.5-0.3-0.9 0.2-1.1 0.8-1.2 1.2-0.8 1.2 0.6 3.3 3.2 0.6 0.8-0.1 0.9-0.6 0.6-0.3 0.1z m-9.1-9.7l0.2 0.7 0.1 0.6-0.1 1.2-0.6 1.2-0.2 0.6 0 0.4 0.1 0.4 0.1 0.4-0.1 0.5-1.6 1.8-1.1 0.4-1.1-0.6-2.2-2.1-0.7-0.5-0.4-0.6 0.2-0.5 1.3-1 0.6-0.1 0.4 0.3 0.3 0.9 0.4-0.1-0.1-2.5 0.5-0.7 0.7-0.3 0.1-0.4-0.6-0.7-0.2-0.7 0-0.4-0.1-0.3-0.4-0.5-0.2-0.3 0-0.4 0.5-0.3 0.9 0 0.3 0.1 0.2 0.2 0.1-0.1 0-0.4 0.1-0.5 0.3-0.6 0.3 0 0.2 0.2 0.2-0.1 0.2-0.3 0.2 0.3 0.2 0.3 0.6 1.5 0 1.2-0.1 0.8 0.5 1z m76.5-16.1l1.7 1.9 0.2 1-0.2 2.1-0.9 3.3-0.5 1.2-0.5 0.8-0.5 0.5-0.4-0.2-0.4-0.8-0.4-1.3 0.1-2 0.3-2.6 0-1.7-0.2-0.9 0.1-0.5 0.2-0.1 0.2 0 0.1-0.5 0-0.9 0.3-0.3 0.5 0.6 0.3 0.4z m-327.1 824.9l0.2 0 0.2 0.2 0 0.5-0.2 0.6-0.3 0.4-0.4 0.3-0.1 0.3 0.2 0.3-0.3 0.6-0.5 0.3-0.4 0.1-0.1-0.1-0.1-0.2 0-0.3-0.3 0-0.3-0.2 0-0.8 0.1-0.9 0-0.9 0.3-0.6 0.5-0.3 0.4 0.2 0.2 0.4 0 0.4 0.2 0.1 0.7-0.1 0-0.2 0-0.1z m-4.9-2.2l0.1 0.3 0.1 0.7-0.3 0.6-0.7 1.1-0.2 0-0.1-0.2-0.1-0.1-0.4 0.2-0.4-0.1-0.1-0.3-0.1-0.4-0.3-0.8 0.1-0.3 0.4-0.3 0.3-0.3 0.3-0.1 0.1 0.2-0.1 0.3-0.1 0.1-0.1 0.3 0 0.2 0.5-0.5 0.7-0.5 0.4-0.1z m-172.3-58l0.3 0.9 0 0.5 0 0.3 0 0.5-0.1 0.7-0.5 0.9-0.1 0.5-0.2 0.6-0.5 0.1-0.2-0.3 0-0.4-0.2-0.1-0.3 0-0.4-0.2-0.4-0.4-0.2-0.5 0.1-0.3-0.1-0.3-0.7-0.8-0.1-0.2 0-0.3 0.2-0.8 0.6-0.9 0.2-0.4 0.1 0.1 0 0.5 0.1 0.5 0.2 0.6 0.1 0.6 0.1 0.6 0.2 0.1 0.3-0.2 0.1-0.2-0.1-0.2 0.1-0.1 0.1 0-0.2-0.2-0.4-0.8-0.1-0.7-0.1-0.4-0.1-0.1-0.1-0.1-0.3-1.1 0-0.6 0.4-0.1 0.1 0.1 0.3 0.3 0.5 0.8 0.2 0.5-0.1 0.1 0.1 0.2 0.2 0.6 0.1 0 0.1-0.4 0.2-0.1 0.2 0.2 0.3 0.4z m-11.2-49.3l0.1 0.2 0.1 0.2 0 0.1-0.2 0.2-0.2 0-0.6-0.2-0.6-0.4-0.2-0.6 0-0.6-0.1-0.2-0.1 0.1-0.1 0.1-0.5-0.4-0.3-0.3-0.1-0.4 0-0.4 0-0.4-0.2-0.4-0.2 0.1-0.1 0.5-0.2 0-0.3-0.4-0.3 0-0.2 0-0.1 0 0.1-0.2 0-0.2-0.2-0.4 0.1-0.3 0.5-0.2 1.2-0.3 0.2 0.3-0.2 0.3-0.3 0.2 0 0.1 0.9-0.2 0.5-0.1 0.3 0.2 0.1 0.3-0.2 0-0.2 0.1 0.1 0.4 0.3 0.2 0.4 0.4 0.8 1.9 0 0.4-0.1 0.2 0.1 0.1z m-6.2-10.9l0.3 0.3 0.3 0.4-0.1 0.9-0.2 0.9-0.4 0.6-0.4 0.1-0.1-0.3 0-0.5 0.1-0.6 0.1-0.6-0.1 0.1-0.2 0.7-0.2 0.3-0.1 0.2-0.3 0.2-0.2-0.4-0.1-0.7-0.1-0.3-0.3 0-0.2-0.5-0.1-0.6-0.1-0.6 0.1-0.4 0.1-0.2-0.2-0.1 0-0.2 0.5-0.4 0.1-0.1 0.2 0 0.2-0.3 0.1-0.4 0.3-0.2 0.3 0 0.2 0.4 0.1 0.5 0.2 0.5-0.1 0.3 0 0.4 0.3 0.6z m12.2-63.4l0.4 0.3 0.6 1.5-0.1 0.6-0.3 0.6-0.3 1 0 0.3-0.2 0.7-0.3 0.8-0.5 0.6-0.7 0-1-0.5-0.2 0-0.4-0.3-0.2-0.3 0-0.6 0.3-0.5 0.4 0 0.2 0.2 0.1 0.3 0.2-0.4 0-0.9-1.7-1.5-0.4-0.6 0-0.3-0.1-0.6 0.1-0.5 0-0.5 0.2 0 0.5 0.2 1.8 1.5 0.4 0.1 0.2-0.2 0.1-0.4 0.4-0.4 0.5-0.2z m15.8-19.3l-0.6-0.4-0.4-0.2 0.2-0.4 0.7-0.5 0.7-0.2 0.6 0.1 0.2-0.2-0.1-0.6 0.2-0.4 0.4-0.2 0.6-0.1 0.1 0.2 0.1 0.2 0.2-0.1 0.4 0 0 0.8-0.2 0.8-0.1 0.3 0.2 0-0.3 0.4-0.9 0.3-0.8 0-0.2-0.4 0-0.1-0.2 0.1-0.2 0.2-0.1 0.3-0.5 0.1z m-1.3-1.4l-0.5 0.3-1 0.3-0.7-0.2-0.2-0.4 0-0.4 0.1-0.2-0.2-1 0.4-0.3 0.7 0.1 0.5 0.4 0.6 0.2 0.4 0.3 0.1 0.6-0.2 0.3z m83.5-56.3l0.1 0.2 0.2 0.4-0.6 0.3-2.3 0.5-0.7-0.1-0.4-0.4-0.1-0.5-0.3-1.8-0.3-0.5-0.2-0.3 0.1-0.5 0.6-0.3 0.7-0.2 0.7 0.4 1.3 1.5 0.4 0.2 0.5 0.6 0.3 0.5z m25.9-32l0.2 0 0.1 0.4-0.3 0.6-0.9 0.3-0.6 0.5-1.1 0.6-1.4-0.3-0.5-0.6 0.4-0.3 0.1-0.2 0-0.3 0.2-0.5 0.1-0.3 0-0.4 0.2-0.3 0.3-0.1 0.9-0.1 0.7 0.2 0.3 0.3 0 0.2 0.1 0.2 0.7-0.2 0.2 0.1 0.2 0.2 0.1 0z m23.6-26.4l0.3 0.4 0.1 0.7-0.5 0.6-0.6 0.4-0.5 0-0.3-0.4-0.4-0.2-0.5-0.2 0.1-0.3 0.6-0.2 0.2-0.3-0.2-0.2-0.2 0-0.4 0-0.3-0.2-0.1-0.5 0.3-0.4 0.7 0 0.1-0.3 0.3-0.4 0.5 0.2 0.4 0.6 0.1 0.4 0 0.2 0.3 0.1z m47-39.6l0.3 1.3 0.2 0.4 0 0.5-0.4 0.4-0.9 0.1-0.1 0.2 0.1 0.2-0.2 0.1-0.5-0.2-0.9-0.5-1.1-0.9-0.2-0.6 0.1-0.7 0.2-0.3 0.5-0.3 0-0.9-0.2-1.7 0.1-0.5 0.8 1.7-0.1-0.6 0.1-0.4 0.3 0.2 1.3 1.9 0.3 0.2 0.3 0.4z m-3.5-4.6l-0.2 0.9-0.1 0.8 0.1 0.3-0.1 0.2-0.2 0.3-0.1 0.2-0.1 0.3-0.2 0.5-0.2 0.2-0.5-0.2-0.5-0.6-0.5-0.8-0.3-0.8-0.3-0.4-0.3 0-0.1 0.2-0.1 0.2-0.3 0-1.4-0.3-0.1-0.5 0.4-0.6-0.1-0.3-0.4-0.2 0.1-0.3 0.1-0.3 0.4-0.4 3.6-1.3 0.4 0.2 0 0.6 0.8 0.2 0.4 0.8-0.2 1.1z m12.6-33.8l0.5 0.1 0 0.6-0.4 0.6-0.6 0.5-1.1 1-0.6 0.3-0.5 0.4 0 0.2 0.5 0 0.4 0.3-0.1 0.5-0.4 0.5-0.5 0.4-0.4 0.2-0.1-0.2 0-0.4 0-0.5 0-0.2 0.2-0.3-0.3 0-0.7 0.5-0.7 0.7-0.7 0.4-0.7 0.1-1.2-1 0-0.3 0.2-0.2 0.1-0.1-0.1-0.1 0.1-0.8 0.1-0.7 0.3-0.5 0.4-0.3 0.3-0.5 0.5-0.5 2.5-0.6 0.8 0 0.6 0.3 0.3 0.4 0.2 0.2 0.2-0.2 0-0.2 0.4-0.3 0.5-0.3z m177.4-313.8l0.3 0 0.5 0.2-0.2 0.3-0.5 0.4-0.1 0.6 0 0.6-0.1 0.6-0.2 0.4-0.4 0.7-0.7 0.7-0.7 0.4-0.6 0.7-0.5 0.8-0.7 1.8-0.6 0.6-0.7 0-0.8-0.6-0.2-0.6 0.1-0.5 0.1-0.6-0.1-0.7 0.1-0.9 0.4-1.1 0.7-1.4 1-1.3 1-0.5 2.9-0.6z m-361.2 708.7l0.3 0.3 0.1 0.7-0.1 1.3-0.7 0.5-2.6-1.7-2-0.9-0.8-0.5 0.3-0.2 0.2-0.3 0.5-0.1 0.5 0.2 0.3-0.1 0.4 0.1 0.9 0.5 0.6 0.1 0.7-0.3 0.6 0.1 0.8 0.3z m-9.3-5.5l0.1 0.4 0.1 0.4-0.1 0.8-0.4 1.2-0.3 0.3-0.2-0.1-0.2-0.3 0.1-0.1 0-0.2-0.2-0.2-0.1-0.2-0.8-0.6-0.4-0.5-0.2-0.7-0.1-0.7 0.1-0.5 0.2-0.4 0.3-0.4 0.3-0.1 0.3 0.1 0.4 0.3 0.2 0.2 0.2 0.1 0.4 0.5 0.3 0.7z m17-4.9l1.7 0.4 0.9 0.5-0.3 0.9-1.1 1.3-1.6 0.6-1.4 0.2-0.9-1 0.1-1.5 0.6-0.9 1.1-0.4 0.9-0.1z m-35.9-81.8l0.2 0.4 0 0.4-0.2 0.2-0.1 0.3 0 1.1-0.2 0.2-0.5 0.1-0.5-0.2-0.6-0.3-0.1-0.4 0.3 0.1 0-0.2-0.1-0.7 0-0.3 0.1 0.2 0.1-0.1 0-0.2-0.1-0.8-0.1-0.4 0-0.4 0-0.3 0-0.5 0.1-0.6 0.3-0.1 0.3 0.4 0.3 0.3 0.1 0.3 0 0.3 0.1 0.2 0.1 0.2 0.1 0.3-0.2 0.3 0.1 0.1 0.3-0.1 0.2 0.2z m-0.3-66.5l-0.1-0.5-0.1-0.5 0.1-0.4 0.2-0.2 0.3-0.2 0.3 0 0.1-0.4 0.3-0.4 0.3 0.2-0.1 0.7 0.2 0.3 0.1 0.5 0.2 0.2 0.3 0.6 0 1 0 0.5-0.1-0.1-0.1-0.3-0.2-0.3-0.2-0.1-0.6 0.4-0.2-0.2-0.2-0.1-0.1-0.1-0.2-0.3-0.2-0.3z m293.5-412l0.1 0 0.2 0.2-0.2 0.8-0.6 1.1-0.8 0.6-2.5 1-0.3 0.2-0.6 0.2-0.5 0-0.4-0.3 0.1-0.5 0.6-0.4-0.1-0.3 0.1-0.2 0.3 0 0.3-0.4 0.3-0.7 0.9-1.1 1.9-1.5 0.6 0 0.3 0.4 0.1 0.5-0.1 0.5 0 0.2 0.3-0.3z" id="NO" name="Norway">
  </path>
 </g>
 <g id="points">
  <circle class="58.62349273420988|5.965468783295785" cx="135.3" cy="917.8" id="0">
  </circle>
  <circle class="63.6662326355952|19.182062206510178" cx="540.5" cy="596.6" id="1">
  </circle>
  <circle class="69.96965751232682|29.75533694508169" cx="864.7" cy="102.7" id="2">
  </circle>
 </g>
 <g id="label_points">
  <circle class="Norway" cx="272.3" cy="741.4" id="NO">
  </circle>
 </g>
</svg>