<?xml version="1.0"?>
    
<!--********* Copyright (c) 2024 Pareto Softare, LLC DBA Simplemaps.com ***************************************
************* Free for Commercial Use, full terms at  https://simplemaps.com/resources/svg-license ************
************* Attribution is appreciated! https://simplemaps.com *******************************************-->

<svg baseprofile="tiny" fill="#6f9c76" height="601" stroke="#ffffff" stroke-linecap="round" stroke-linejoin="round" stroke-width=".5" version="1.2" viewbox="0 0 1000 601" width="1000" xmlns="http://www.w3.org/2000/svg">
 <g id="features">
  <path d="M862.3 36.3l0.4-0.3 0.8-0.4 1-0.3 0.7-0.5 0.3-0.5 0.4-1 0.3-0.5 0.6-0.5 0.6-0.1 1.3-0.1 0.7-0.2 1.3-0.9 0.6-0.3 5.6-0.9 0.7-0.3 0.9-0.8 0.3-0.2 0.3-0.1 0.6 0 0.7-0.3 1.1-0.8 0.3 0.5 0.3 0.7-0.1 2.1 0.1 0.8 0.5 0.4 0.5-0.2 0.7-0.3 0.7-0.1 0.7 0.3 0.6 0.6 0.3 0.7-0.1 0.9-0.4 0.6-0.6 0.5-1 0.6-1.1 1.1-1.4 2.1-0.3 0.8-0.1 1 0.4 0.8 1.3 0.5 0.3 0.4 0.1 0.7-0.2 1.1 0 0.1 3.1 0.2 1.6-0.4 0.1-0.1 1.1-1.2 0.4-0.6 0.4-0.5 0.6-0.2 0.5 0.1 0.7 0 0.4-0.6 0.1-0.9 0.2-0.5 0.7-0.3 0.1 1.3 0.3 1.4 1.1 0 0.3-0.3 0.1-0.3 0.2-0.2 0.3-0.2 1 0.1 2.3-0.6 1-0.5 0.6 0.2 1 0.7 0.6 0.3 1.9 0.1-0.5 1.5 0 0.5 0.6 0.3 0.6 0.1 0.8-0.2 0.7-0.2 0.6-0.4 0.2-0.4 0-0.3 0.1-0.3 0.3-0.2 0.2 0 0.6 0.4 0.3 0 0.5 0.2 0.5 0.6 0.4 0.9 0.1 0.8 0.5-0.5 0.9-1 0.5-0.3 0.5-0.1 1.3 0 0.7-0.1 2.5-0.9 1.2-0.7 0.4-0.5 0.4-0.6 0.1-0.8-0.3-1.5 0.1-0.7 0.3-0.3 0.5-0.4 0.7-0.4 0.5-0.1 1.2 0.7 1.1 1 1.1 0.5 1.3-0.5 0.8-0.7 0.4 0.2 0.5 0.3 0.9 0.7 1 0.2 2.2-0.2 0.9-0.6 0.2-1.4 1.1 0.2 1.3 2 1.1 0.4 2.6-0.1 1.2-0.4 0.5-1.1 0.9 0.4 0.5 0.6 0.1 0.8-0.3 2.1 0.3 0.4 0.7 0 0.9 0.4-0.4 0.9-0.9 4-0.1 0.4-0.3 0.4-0.2 0.5 0.1 0.4 0.2 0.4 0.2 0.5 0.1 0.9 0.2 0.9 0.5 0.8 1 0.4 0.4-0.1 0.5-0.3 0.5-0.3 0.3-0.3 0.2-0.3 0.5 0.1 2.9 0.6 1.8 0.6 1.6 1.1 1.6 1.6 0.5 0.7 0.3 0.5-1.7 2.5-0.9 1-0.3 0.5 0.1 0.4 0.1 0.3 0 0.4-1.4 2.2 0 0.4-1.2 0.1-0.5 0.2-0.4 0.4 0.1 0 0 0.3 0 0.4-0.1 0.2-0.2 0.1-0.4-0.1-0.2 0-1.1 1.9-1.2 1.2-1.2 0.9-2.1 0.9-0.3 0.3-2.4 0-0.6 0.1-0.4 0.5-1.3 1.9-0.3 0.8-0.2 0.4-1.3 1.1-0.5 0.6-0.1 0.3 0.1 1.2-0.3 0.9-1.4 2.1-0.5 0.5-1 0.1-2.3-0.2-0.7 0.4-0.2 0.9-0.4 0.6 0.1 0.6 0.4 0.6 1.1 1.2 0.5 0.9 0.8 1.9 0.3 1 0.3 0.4 0.5 0.2 0.4 0.2 0.2 0.7-0.1 0.6-0.6 0.2-0.1 1.2 0.1 0.3 0.1 0.5 0 0.3-0.1 0.2-0.1 0.5 0 0.9 0.1 0.7 0.4 1.6 0.3 1.6 0.1 0.8 0 0.6-0.3 0.8-0.8 1.6-0.2 0.7 0.1 0.8 0.3 0.5 0.4 0.5 0.4 0.6 0.2 0.8-0.1 0.6-0.9 1.2-0.7 1.7 0.3 1.5 0.8 1.4 1.2 1.2-0.6 1.1-0.3 0.3-1.6 1.2-0.2 0.3-0.2 0.3 0 0.4 0 0.4-0.1 0.3-0.7 0.5-0.7 0-0.7-0.1-0.2 0.1-0.5 0.1-1.6 1-0.6 0.3-0.3 0.4-0.4 1.1-0.3 0.6 0.3 0.7 0.3 1.6 0.4 0.6 0.4 0.2 1 0.1 0.4 0.2 0.4 0.3 0.5 0.8 0.8 1 1.4 2.6-0.6 1.1-0.2 0.5 0.1 0.5-0.1 0.4-0.3 1.2-0.1 0.2-0.3 0.2-0.1 0.3 0 0.2 0.1 0.5 0 0.2-0.1 0.5 0 0.7-0.1 0.5-0.9 1.4-0.4 0.2-0.8 0.3-0.3 0.3-0.2 0.6 0 0.5 0.2 0.4 0 0.4-0.1 0.5-0.5 0.8-0.1 0.4 0 0.4 0.1 0.4 0 0.3-0.4 1-0.5 0.2-5.4 0.7-1.1 0-0.8-0.5-0.6 0.2-1.5-0.1-0.6 0.2-0.6 0.2-0.5 0.2-7.8-0.4 0 0.1 0.3 0.7 1.2 3.2 0.6 0.6 1.1 1.5 0.6 0.6 1.2 0.6 0.3 0.4 0.4 1 0.5 0.5 0.8 0.4 1.5 0.4 0.3 0.4 0 1.1-0.2 1-0.3 0.7-0.2 0.7 0 1 0.2 1 0.3 0.5 0.7 0.6 1.8 2.2-0.5 0.9-0.1 0.9 0.3 1 0.5 0.7 0.9 0.5 1 0.3 0.9 0.4 0.4 0.9-0.1 0.5-0.4 0.9 0.1 0.4 0.4 0.3 0.5 0.3 0.5 0.1 0.5-0.2 0.9-0.5 0.9-0.1 1 0.3 0.8 0.5 0.6 0.6 0.5 0.8 0.2 1-0.2 0.8 0.4 0.3 0 0.4-0.2 0.5-0.3 0.4-1.2 2.4-0.9 1.1-0.7 0.7 0.5 0.9-0.2 0.7 0 0.7-0.3 0.2-0.4 0.4-0.5 0.4-0.5 0.3-1.7 0.4-0.4 0.3-0.2 0.4-0.5 0.6-0.6 0.5-0.5 0.2-0.5 0.4-1.6 1.4-0.1 0.2-0.3 0.6-0.1 0.3-0.3 1.6-0.1 1 0.1 0.5 0 0.4 0.2 0.3 0.2 0.1 0.2 0.2 0.2 0.3-0.2 0.7-1.6 2.2-0.6 2.3-0.4 0.6 0.5 0.6-0.1 0.5-0.3 0.5-0.6 0.6 0.5 0.2 1.1 0.8 3.8 4.9 0.2 0.3 0.2 0.6 0.1 0.3 0.3 0.3 0.6 0.4 0.2 0.2 1.5 3.8 0.3 0.3 0.5 0.5 0.6 0 0.9-0.2 0.9-0.4 0.4-0.6 0.2 0 0.1 0.1 0.9-0.3 1.1-0.1 0.5 0.3 0.1 0.1-0.4 1.3-0.3 0.7-0.5 1.6-0.7 1.3-0.3 1.4-0.3 0.6-0.3 1.1-0.9 0.1-2.1-0.8-0.6-0.1-0.3 0.4-0.4 0.9-0.4 0.5-0.2 0.2-0.5 0.2-0.5 0.2-0.4-0.1-0.5-0.1-0.4 0-0.4 0.2-1.2 0.3-0.2 0.2 0 0.4 0.1 0.4 0 0.5-0.2 0.8-0.8 2.2-0.4 1.5-1 1.8-3.3 2.8-0.6 1-0.5 1.3-0.3 2.2-0.2 0.7-0.3 0.4-0.9 1-0.4 0.3 0.1 0.2 0 0.3-0.1 0.2 0 0.2-0.4 0.4-0.1 0.2 0 0.5 0 0.1 0.2 0 0.2 0.6 0 0.3 0.1 0.3 0.3 0.5 0.3 0.3 0.6 0.5 0.2 0.3 0.3 0.8 0.2 1.1 0.1 1-0.1 0.5 0.6 1.5 0.3 3.6 0.4 1.5-0.3 0.7 0.2 1 0.5 2 0.1 0.2 0.1 0.2 0.1 0.2 0.3 0.1 0 0.2-0.3 0.4-0.6-0.5-0.8-0.2-0.8 0-0.8 0.1-0.8 0.3-1.5 1-0.6 0.2-2.1 1.4-0.3 0.4-5.5 3.7-1.1 1.1-0.6 0-0.5-0.2-0.8-0.2-2.2 0-0.7-0.3-0.3 0.5-0.4 0-0.4-0.3-0.4-0.2 0.4 0.6 0.1 0.3 0.1 0.4-0.9-1.2-1.3-1.1-2.6-1.5-1.4-0.3-1.2-0.5-1.2 0-2.9 0.4-1.3-0.4-1.3-0.5-1.1 0.5-1.6 0.2-1.6-0.6 0 0.1-2-1.1-1.5-0.3-1.7 0.2-0.5 0.1-0.5 0.4-1.2 1.2-2.2 0-0.4 0.1-1 0.6-0.4 0.2-0.6 0.1-0.8 0.2-0.8 0.7-0.7-0.3-0.7 0.7-0.3 0.2-0.4 0.2-0.7 0.6-0.4 0.1-0.5-0.2-0.4-0.4-0.4-0.2-0.6 0.2 0.3-1.3 0.2-0.6 0.2-0.3 1.4-2.2 0.5-1.3 0.5-1.1-0.3-1.3 0.6-0.6 0.9-0.9 0.5-2-0.3-0.8-0.3-0.7 0.6-1.2 1-1.1 0.2-1.1 0.6-1.6 0.5-2 0.2-1.2 0.1-2.1-0.2-1.1-0.4-0.7-0.5-0.6 0-0.6 0.4-2 0.2-1.3 0.3-1.1 0.5-0.3 1-0.2 0.2-1.1 0-0.1-0.3 0.3-0.8 0.2-0.9 0-0.3-0.8 0.3-2.3 0.4-2.5 0-1.5-0.3-1.1-0.5-1.2-1.2-0.2-1.5-0.9 0.1-0.4 0.3-0.2 0.3-0.1 0.3-0.3 1.8-4.1 0.7-3.3 0.8-2.4-0.1-2.5-0.3-2.9-0.3-2.6-0.9-1.8-1-1-1.1-1.4-1.3-1-1.1-0.4 0.6-0.6 0.8 0.3 1.4 1.2 1.6 0.6 0.8 0.4 0.1 0.6 1.5 0 3.6 0.9 1.8-0.5-1.1-0.1-0.9-0.2-2.7-1.3-0.3-0.4-0.2-0.6-0.1-0.6 0.1-0.6 0.2-0.5 0.3-0.2 0-0.3-0.5-0.2-0.4-0.6-0.1-0.6 0.2-0.5-0.5-0.1-0.7 1.4-0.8 0.3 0 0.3 0.9 0.1 0.3 0.6 0 0.8-0.3 0.4-0.8-0.1-0.8-0.2-1.2-0.7-1.4-0.5-1.8 0.4-1.6 1.9 0.3 0.2-2.1 0.8-3.5 0.5-0.8 0.3-0.5 0.4-0.7 0.1-0.9-0.2-0.2 0-0.1-0.3 0-0.3 0.1-0.3 0.1-0.1 0.3-0.4 1.1-1.1 0.2-1.5 0-2.2-0.9-2.1-1.1-1.8-0.5-1.4 0.7-0.3 1.7-0.3 1.5-0.1 0.8 0.5 0.3 0.5 0.3 0-0.3-0.9 0.6-0.3 1.1-0.3 0.6-0.1 0-0.3 0.5-0.6 0.6-0.6 1-0.8 1.3-1.1 0.2-0.1 0.2-0.2 0.1-0.1 0-0.3-0.3-0.6-0.4-0.9-0.3-1 0.3-0.7-0.8 0.1-0.4-0.8-0.2-1.1-0.4-1.1 1.6-3.3 0.9-1.5 1.3-0.9 0.7-0.2 1.6-0.1 0.7-0.3 1.3-1 0.5-0.6 0.4-0.7-1 0.7-1.6 1.2-3.1 0.4-0.5 0.4-0.7 1.3-1.8 2.5-2 4-1.1 1.3-0.4 0.7-0.2 0.7 0.1 0.9 0.1 1.6 0.1 1.1-0.5 1.1-1.9 0.5-2 0.4-2.4-0.2-0.6 0.5-0.7 0.8-1.4-0.9-1.6-0.7-0.9-0.1-1.5 0.2-0.8-0.2 0.1-1 0.2-0.8-0.5-2 0-1 0.2-0.4 0.5-0.6 0.9-0.9 1.1-3.7-0.1-2.9-0.4-1.7 0.4-1.1 0.1-1.2 1.5-2.6 0.4-1.3 0.7-1.7 0.2-1.7 0.2-1.5-0.5-2.3-0.4-1-1.3-1.3-0.3-0.5 0.4-0.1 1.7 0.4 2.6-1.7 0.7-0.6 0.8-0.1 0.4 0.5 0.4 0.2 0.4-0.5-0.3-0.6-0.6-0.6 0.6-0.9 0.8-1 0.3-0.5 0.7-0.4 1-0.7 0.6-0.9 0.3-0.7 0.8-1.4 0.1-0.8-0.1-0.9 0.4-1.3 0.3-1.7 2.8-7.7 4.5-13.3 0.6-0.7 0.4 0.6 0.6 0.3 1.5 0.1 0-0.4-0.6-0.6-0.6-0.4-0.6-0.2-1.7-0.2-0.6-0.4-0.4-0.7 0-1 0.4-1.4 1.1-2.2 2.5-9.5 0.5-2.9 0.7-2.2 0.4-2.8 0.1-0.1 0.2-0.2 0 1 0 0.3 0.7-1.2 0.6-0.4 0.5 0.3 0.2 0 0-0.3-0.1-0.1-0.1-0.3-0.1-0.3 0.1-0.3 0.3-0.2 0.2 0.2 0.2 0.2 0.2 0.2 0.3-0.2 0.3-0.3 0.5-0.8-0.6-0.4-0.3-0.6 0.1-0.5 0.6-0.2 0.9-0.1 0.6-0.2 0.6-0.4 0.6-0.6-0.7 0.1-0.9 0.4-0.7 0.2-0.2 0.1-0.2 0-0.8-0.4-0.3-0.4-0.3-1.3 1.4-1.9-0.3-1.1-0.1 0.8-0.2 0.7-0.3 0.2-0.2-0.7-0.5 1-0.4 1.2-0.2 1.4-0.1 1.2-0.2 0.7-0.4 1.2-0.5 1-0.4 0.5 3.5-16.3 0-1.8-0.5-3.2 0.1-1.7 0.6-0.6 0-0.3-1.3-0.4-0.7-1.3-0.5-1.7-0.7-1.3 0.2-0.7-0.1-0.5-0.2-0.5-0.2-0.6 0-1.5-0.1-0.5-0.3-0.1-0.1-0.5-0.2-0.5-0.5-0.9-0.2-0.7 0-0.6-0.1-1.4 0.4-1.6-0.4-1.1-0.1-1-0.1-0.7-0.1-0.8-0.5-1.4-0.2-1.1-0.2-0.8 0-0.9-0.3-0.9-0.1-1.1 0.1-0.6 0.8-0.3 2.3-0.4 0.6-0.2 0.6-0.5 0.5-0.5-4 1.2-0.9 0.2-0.4-0.1-0.7-0.4-0.7-1.6 0-1.4 0.3-2.2-0.2-1.4 0.1-0.5 0.3-0.4 2.5-2.2 1.3-1.4 0.4-1.8z m-280.4 432.6l-1.3-2.1-0.3-0.4-0.2-0.4-0.2-0.4 0-0.6 0.6 0.6 0.7 1 0.5 1.2 0.2 1.1z m-11-8.4l-0.6 1.3-1.5 0.5-1.8 0.1-2.9-0.2-6-2.5-1.4-0.9-1.2-1.1-1-1.2-0.3-0.8-0.1-0.7 0.2-0.7 0.6-0.2 0.2-0.2 0.9-1.3 0.3-0.2 0.3 0 0.2 0 0.4 0.2 0.4 0.3 0.9 1 0.4 0.2 0.2 0 0.8 0.3 0.9 0.6 1 0.1 1-0.3 0.7-0.4 0.5-0.3 0.8-0.1 1.4-0.2 0.6 0.2 1.1 0.8 0.4 0.2 1.9 1.4 0.4 0.3 0.4 0.1 1.4 0 0.7 0.2 0.6 0.4 0.3-0.3 0.4-0.1 0.4 0.1 0.3 0.3-0.6 0.1-1.3 0.6-0.4 0.1-0.5 0.4-1.1 1.5-0.3 0.4z m16.3-16l-0.5 0.6-0.4 0.4-0.5 0.1-0.7-0.4 0-0.3 0.4 0 0.2-0.2 0.3-0.3 0.4-1.4 0.7-0.6 0.9-0.2 0.8 0.4 0.2-0.4 0 1.3 0.2 0.5 0.3 0.3-1.2-0.2-0.6 0-0.5 0.4z m303.9-173.7l1.9 0.2 0.7-0.3 0.9-0.9 0.1 0.2 0 0.1 0.1 0.4-0.2 0.1 0 0.2-0.7 0.4-0.9 0.2-1 0-0.9-0.3 0-0.3z m-620.2-1.9l0.7 0.5 0.6 0.8 0.5 1 0.1 1-0.5 0.6-1.2-0.1-2.1-0.7-1.2 0.3-0.7 0-0.2-0.4-0.3-0.6-0.4-0.5-0.2-0.5 0.4-0.5 0.7-0.6 1.3-0.4 1.5 0 1 0.1z m-4.8-38.5l1.4 0.6 0.9 1.3 0.1 1.7-0.9 1.4-1.4 0.7-4.8 0.6-1.6 0.4-1.8 0.2-1.6-0.1-0.8 0.1-0.7 0.3-0.9-0.6-1-0.4-2-0.5-3.3-0.2-4.3-3.2-1.3-1.8 0.7-2.4 2.8-0.3 0.9 0.3 1.2 1.1 0.3 0.4 0 0.5 0.1 0.4 0.2 0.4 0.3 0.1 4.6 0.6 0.5-0.1 1-0.7 0.5-0.2 0.3 0.2 0.8 0.6 0.4 0.2 0.6-0.3 3.7-1.2 5.1-0.1z m-105.5-26.8l1.6 0.1 0.6 0.5 0.3 1.1-0.5 0.5-1.1 0-2.9-0.4-0.8 0-0.7 0.3-1.3 1.1-0.5-0.3-0.3-0.5-0.4-0.5-0.8-0.3-5.2-0.1-0.7 0.4-2.4-2.3-0.9-1.4 0-2 1.1-1 1.2-0.4 2.6 0.1 1.5 0.3 3.6 2.2 1.3 0.6 0 0.1 0.4 0.1 0.8 0.6 0.3 0.2 0.8 0.1 2.4 0.9z m-18.2-7l0.5 2.1-0.2 0-1.2 0.5-0.3 0.3 0.2 0.2 0.1 0.2 0.1 0.1 0.3 0.1-0.4 0.3-0.5 0-0.8-0.3-0.5 0-1.1 0.3-0.4 0-0.8-0.4-1-1.4-0.7-0.7-1.7-1 0-0.4 1.2-0.2 1.1-0.1 0.5-0.1 0.4-0.2 0.3-0.3 0.6-0.9 0.3-0.3 3.2 1.4 0.8 0.8z m26.1-0.3l2.7 1 1.3 0.7 0.7 0.8-0.6 0.3-0.7 0.1-1.4-0.1-0.6-0.2-1.2-0.6-1.1-0.2-0.6-0.3-0.6-0.3-0.5-0.4-0.5-0.3-1 0.2-0.6-0.4-0.5 0.3-0.4-0.2-0.6-0.8-0.5-0.3-3.7-1.2-0.7-0.5-0.7-1.3-0.3-0.1-0.2 0-0.2 0.1-0.1 0-0.3-0.1-0.1-0.2 0-0.2 0-0.2-0.3-0.1-0.3-0.1-1.7-1.5-0.1-0.3 0-0.6 0.6 0.2 1.2 0.9 0.6 0.1 0.6 0.1 7.2 2.8 5.2 2.9z m31.5-4.2l-0.2 0.2-0.8 0.3-0.2 0.2-0.1 0.3 0.2 0.8-0.1 0.5-0.2 0.1-1.1 0.5-0.9-0.3-2.4-0.1-0.8-0.6-0.5 0.5-0.4 0.1-0.9-0.6-0.9-0.2-1-0.1-0.8-0.3-0.9-0.9-0.8-1-0.3-1-0.3-1.4 0.8-1.1 1.4-0.7 1.2-0.3 5.5 0.4 1.1 0.4 1.5 0.9 1.1 1.1 0.2 0.9-0.1 0.4 0.3 0.3 0.4 0.3 0 0.4z m-34.9-15l-0.7 0-0.8-0.1-0.7-0.3-0.6-0.5-0.4-0.8 0-0.7 0.6-1.4 0.4-0.3 0.4 0 0.4 0 0.3 0.3 0.3-0.3 0.5 0.8 1.2 1 0.6 0.6 0.3 0.8-0.5 0.5-0.6 0.3-0.7 0.1z m-116.9-23.1l0.4 0.3 0.4 0.3 0.5 0.1 0.5-0.3 0.7 0.9 0.3 0.8 0 2-0.3 1-0.6 1.3-0.7 0.8-0.6-0.4-0.7 0.3-0.8 0.1-0.8-0.1-0.5-0.3-0.3-0.6-0.2-1 0-0.8 0.3-0.5-0.2-0.8 0.2-0.6 0.3-0.7 0.2-1 0.2-0.7 0.6-0.5 0.7-0.2 0.7 0-0.3 0.6z m3.3-10.3l1.3 0.3 0.1 1.4-0.7 1.3-1.2 0.3 0-0.3-0.6-1.5-0.2-0.2 0.2-0.5 0.3-0.4 0.4-0.3 0.4-0.1z m547 429.4l0.2 0.1 0 0.1-0.2 0 0-0.2z m5.9-5l0.4 0.3 0 0.3-0.2 0.2-0.1 0-0.3-0.1-0.1-0.1 0-0.1 0-0.1 0.3-0.4z m247.4-384.1l0.2-0.1 0 0.3-0.2 0.7-0.5 0.7-0.7 0.7-0.2-0.1 0.3-0.8 0.3-0.7 0.4-0.4 0.3-0.2 0.1-0.1z" id="PT" name="Portugal">
  </path>
 </g>
 <g id="points">
  <circle class="30.635461623995162|-30.03095379698591" cx="90.9" cy="547.8" id="0">
  </circle>
  <circle class="35.48521658364194|-17.491476654031555" cx="545.5" cy="338" id="1">
  </circle>
  <circle class="41.54741028320043|-7.4598949396680725" cx="909.1" cy="56.8" id="2">
  </circle>
 </g>
 <g id="label_points">
  <circle class="Portugal" cx="879.7" cy="149.4" id="PT">
  </circle>
 </g>
</svg>