<?xml version="1.0"?>
    
<!--********* Copyright (c) 2024 Pareto Softare, LLC DBA Simplemaps.com ***************************************
************* Free for Commercial Use, full terms at  https://simplemaps.com/resources/svg-license ************
************* Attribution is appreciated! https://simplemaps.com *******************************************-->

<svg baseprofile="tiny" fill="#6f9c76" height="1000" stroke="#ffffff" stroke-linecap="round" stroke-linejoin="round" stroke-width=".5" version="1.2" viewbox="0 0 1000 1000" width="1000" xmlns="http://www.w3.org/2000/svg">
 <g id="features">
  <path d="M388.9 61.2l10.4 12.9 2 3.6 3.4 10.9 2.6 3.9 2.8 2.1 6.5 2.9 3.1 2.1 8.7 8.1 3 1.4 6.3 0.7 3.1 1.3 2.5 2.5 5.5 9.9 1.2 1.1 2.9 1.9 1.1 1.5 0.6 2 0.3 4.8 0.2 0.8 0.4 1.5 1.6 2.7 3.8 4.9 1.6 3.2 2 1.8 2.2 0.5 2.2-0.6 2.1-1.8 1-2.7 1.4-2 1.9-0.8 2 1.1 1.4 2.3-0.1 2.1-0.6 2.3-0.4 2.4 0.1 12.3-0.4 3.4-0.7 2-1.8 4.3-1.3 6 0.6 3.8 4.8 8.4 2.2 5.5-0.5 3.3-2.4 2.5-3.7 3 1.1 3.3 2.4 1.6 2.9 0.9 2.8 1.4 2.3 2.4 5.4 8 10.7 9.7 6.4 8.4 2.5 2.1 5.8 2.6 7.9 3.6 1.7 1.4 1.4 1.6 1.4 1.3 2 0.5 1.6-0.8 2.7-3 1.6-0.4 2.7 2 5.7 8.4 2.7 3.2 5.5 3.9 2.9 1.2 7 0.2 17.6 5.6 4.6 2.5 4.3 3.5 4.1 5 1.5 1.8 0.7 3.1-0.6 2.9-2.1 1.8-2.1 0.1-1.7 0.9-1.4 1.5-1.2 1.9 0.2 0.3 0.1 1.5 0 1.7-0.1 1.2-0.5 1-1.4 1.6-0.5 1-0.6 3.3-0.1 1.7-0.5 1.1-2.1 1.7-1.8 0.6-4.2 0.3-1.6 0.9-1.2 1.8-0.8 2.4 0.3 2 2.3 0.6 2.8 0.1 0.5 1.2-0.4 1.6 0.1 1.3 3.8 2.6 8 1.4 4.1 2 5.8 2.3 2.4 2.1 1.3 3.8-0.4 4.5-2.4 2-6.7 1.9-4.6 0.7-9.6-0.5-4.5 1.6-2.1 1.9-1.5 2.6-0.6 3.2 2.8 1.2 0.1 0.1 3 2.2 2.9 6.2 2.6 1.3 14.1 1.5 10.1-0.8 3.3 0.9 2.9 2.8 1.4 3.7 1 4.2 1.6 4.2 6 6.1 8.1 2.4 8.5 0 7.5-1.6 6-2.6 2.8-0.7 2.8 0.5 14.9 7.9 5.3 0.8 1.7 1.7 4.6 11.2 0.3 1.6 0.3 1.6 0.6 2.9 0.9 1.8 1.8 1.6 1.8 1.2 1.6 1.5 1.7 6.7 2.9 2.8 3.7 1.6 3.6 0.4 3.9-1 2.2-2.3 18.8-34 1-3.6 2.4-1.9 6.9-1.5 3.2-2 5.8-6.4 1.7-1.3 4 0.1 3.1 0.7 2.4 1.4 11.5 12.8 5.7 4.6 5.6 2.7 13 1.6 2.4 1.8 8.4 9.3-1 4.2-2.9 3-3.7 1.8-3.2 0.5-3.6-0.8-6-4.1-3.4-1.4-3.5-0.1-3.3 1-2.4 2.3-1 3.9-0.5 4-1.4 2.2-2.1 1-5.8 0.3-1.6 0.5-1.1 1-0.7 2.2-0.4 3.1-0.1 3 0.5 1.9 3.5 3.2 0.7 1.6 0.2 1.7-0.4 3.7 0.2 1.8 2.9 6.7 4.4 6 5.5 4.8 6.4 2.9 6.8 0.9 3.1 1.5 1.4 3.1-0.7 11.1 0.9 3.5 0.1 0.1-7.1 3.3-1.4 1.5-2.5 4.2-2.7 3.1-0.4 0.3-0.2 1.4 0.1 1.2 0.4 0.7 0.2 0.1-1.7 6.8-0.3 2.6 0.1 2.2 1.1 4.9 0 2-1.9 3.6-2.9 0.6-3.4-0.3-3.4 1.2-1.9 2.9-1.3 3.3-1.9 2.4-3.6 0.1-2.6 0.4-5.2 0.9-3.8 1.6-2 3.1-0.4 2.9 0 6.6-0.4 3.6-0.4 1-1.7 3.1-0.5 1.1-0.3 6.9-1.6 7.1-2.1 5.3-0.9 5 2.2 6.2 4.3 5.1 0.2 1.8-0.7 3.8 0.1 1.9 0.7 3 1.1 3 1.3 2.8 1.5 2.4 2.1 1.9 4.8 2.7 1.7 1.7 1.1 3 0.2 5.2 1.3 2.9 0 0.1 0 0.1 0 0.2-0.6 0.9-0.2 0.8 0.2 0.8 0.6 0.8 0.2 0.6 0 0.5 0 0.6-0.2 0.6-0.5 1.1-0.2 1.2 0.2 1.1 2 4.2 3.1 10.8 1.5 4.4 2.3 2.1 5.5 2.7 1.1 1.1 2.4 3.2 1.5 1.2 1.8 0.4 3.6-0.2 1.5 0.4 1.3 1.4 1.8 3.9 0.4 0.4 1 1 1.5 0.6 3.2-0.1 1.6 0.2 2.7 1.2 0.8 0.6 1.5 1 11.8 12 2.1 3 0.6 1.8 0.5 4.2 0.5 1.8 1 1.5 4 4 4.4 6 2.3 2.3 2.9 1.9 8.2 1.7 2.7 1.3 0.3 2.6 0.2 2.9-1.7 7.6-3 7.4-3.4 5.2-1.4 1-2.8 1.3-1.4 1.3-0.8 1.5-1.2 4.2-0.8 1.7-7 6.6-2.2 3.2-2.2 0.9-4.5 1-2 1.2-1.1 1.9-1.1 2.9-2.9 11-1 2.5-0.1 0.3-1.9 2.4-5.1 2.1-5 1.3-12.4-3.4-4.6 0.6-2.2 1.5-0.9 1.3 0 0.1-1.2 0.7-2.9-0.5-2.3 0.1-1.5 1.3-2.5 3.9-1.8 1.5-4.2 2.3-1.4 1.3-1.1 1.6-0.5 0.8-0.2 0.9 0.5 0.8 4 9.6 2.2 3.4 2.5 1.9 0.1 0.7 0.1 0.7-0.1 0.7-0.1 0.7-2.2 2.1-4.4 8.2 1.2 3.1-0.7 5.6-0.6 2.3-2 9-0.6 4.5 0.7 0.3 8.6 8 5 3.7 2.1 2.6 1.3 3.2 0.7 3.4-0.6 4.6-2.3 8.2-1.7 3.6-1.9 1.3-2 0.5-2.6 1.2-2.5 3.3-2.7 8.3-2.3 3.1-3.1 1-6.8 0.1-3.2 1.7-3.3-0.2-2.9-1.1-2.6-2-2.5-2.9-0.4-1.6-0.2-3.8-0.7-1.1-1.5 0.3-4.4 4.5-22.8 9.6-5.7 1.1-2.5-0.3-3-0.4-5.4-1.9-8.8-4.6-2.1-0.4-1.8 0.8-5.6 4.9-1.1 0.3-6.6-0.1-3.4 0.8-16.1 9.8-2.2 1.4-2.4 2.9-2.5 1.5-2.8-0.1-5.8-1.6-8.2 0.2-1.8-1-1.7-6.2-6.5-9.8 0.2-5.4 3.5-3.7 9.8-3 3.5-3.3 0.7-3.5-0.8-7.1 0.3-3.4 1.5-2.5 6.6-6.7 8.3-13.7 1.6-5.1-0.1-0.9-1.2-1.9-0.2-1 0.3-0.6 1.1-0.6 0.3-0.4 0.2-0.6 0.9-4.6-0.1-0.7 1.6-1.2 2-0.9 1.7-1.1 1-2-1.4-5-3.3-2.2-1-0.6-4.9-1.1-3.5 0.1-7.2 3.2-2.4 0.1-2.8-1.9-5.3-6.7-2.5-2.2-3.8-1.3-16.7-2.3-3.9 0.1-2 0.1-2.8-0.9-1.7-1.1 0.1-0.7 0.8-0.7 0.5-1.1 0.6-3.5 2.2-7.5 0.7-3.8 0-4.7 0-1.2-1.5-1.7-3.4-0.2-5.3-1.2-1.7-1.1-3.2-2.7-1.8-1.1-1.8-0.5-3.9 0.1-1.8-0.5-4.7-5.5-0.9-7.2-0.3-7-2.5-5-2.8-0.5-2.2 1.7-2.4 1.2-2.9-1.7-1.4-3-2.5-11.8-2.6-5.3-2.6-2.1-11-0.6-3.5-1.3-1.9-1.1-13.4-7.9-12.2-7.2-1.1-1.8 0.7-0.2 0.5-2.9 0.2-3.3-0.1-1.2 1.9-1.8 1.7 0.6 0.5 0-1.6-3.2-1.1-1.5-1.6-1.8-3.2-2.6-1.6-0.5-2.5-0.8-4.1 0.5-4 1.8-13 9.9-3.6 1.4-5.4 0.2-1.4 1-1.1 3 0.5 2.5 2 4.3 1.4 4.9 0.9 2.1 1 1.5 1.4 0.4 1.8-0.2 1.7 0.1 1.2 1.4-0.7 5.5-3.5 7.5-4.4 6.8-3.4 3.4-2 0.1-1.9-0.6-1.8 0-1.5 1.5-1.5 3.5-0.9 1.5-1.3 1.3-3.2 1.1-3 0-2.8 0.8-2.8 3.7-1.4 6.4 2.6 2.8 3.7 2.3 0.9 2.7 0.7 2.1-3.7 5.1-8 3.3-13.7 3 1.7-8.7-0.3-5.6-2.7-3.6-10.2-5.2-8.7-6.3-4.7-2.1-8.9-0.9-1.9-0.6-2-0.7-10-10-0.4-0.3-5.7-5.7-9.9-7-1.7-1.7-1.2-2.2-0.9-2.3-1.3-1.8-2-0.8-1.6 0.9-3.9 4-1.9 1.2-5.6 0.4-5.5-0.3-3.8-1.5-3.4-2.8-3.1-4-4.8-8.9-1.4-0.1-1.3 1.4-2.1 0.8-3.6-0.4-7.3-2.3-3.4-1.8-2.9-2.6-5.1-6.7-0.3-0.3-5.9-5-1.7-2.5-2.8-6.4-2-3-9.8-10.3-6.9-10.4-2.7-2-22.7-10.3-4.3-3.7-2.7-6-0.1-6.6 3.3-5.3 3.6 0 2-3.8 1.6-5.1 2.3-3.8 1.8-0.5 4.2 0.7 1.9-0.1 2-1.1 3.8-3.1 1.8-0.5 2.8 1.7 2.8 3.6 2.3 4.4 1.4 3.8 1.3 2 1.4-1.9 2.1-5 2-0.2 6.2 2.6 1.3-0.9 0.4-0.9-0.5-1.1-1.2-1.1-0.8-2.4-0.2-3.2 0.3-3.3 0.7-2.7 4.3-4.2-0.3-6-4-12.7-3.3-7.6-16.9-18.3-8.8-14.3-5.1-6.6-5.7-4.4-1.9-1.2 1.9-1.9 0.3-1.6-0.7-2.9-0.1-1.6 0.9-2.2 1.5-1.3 3.4-1.1 2.4-0.1 2.2 0.8 4.2 3 4.2 4 2.2 1.3 2.4-0.1 2.4-0.8 8.8-0.6 9.4 1 4.1-0.4 3.9-1.4 6.8-5.1 2.8-3.2 1.4-3.7-1.2-4.4-2.1-1.8-1.5 0.5-1 1.4-0.6 0.6-1.5-1.2-2.7-3.3-5.4-3.2-1-1.4-2.9-4.4-2.6-2.4-1-1.5-0.4-4.1-1.4-1.8-1 0-1.9 1.9-0.9 0.3-1.2-0.7-1.8-1.7-7.2-5.4-3.1-3.3-1-2.9-0.4-4.7-2-5-2.9-4.1-2.8-2.4-1.9-0.4-5.3 1.3-2.4-0.1-1.4-0.5-3.4-1.7-7.1-1.6-3.4-1.5-2.9-3.6-3.7-8-1.3-4.6-0.3-4.4 1.4-4.8 2.3-2.9 2-3.4 0.3-6.4-2.7-10.2 0.5-3.7 5.8-1.9 1.3-1.1 1.1-1.6 0.9-1.9 0.4-1.6-0.2-3.7 0.3-1.6 0.8-1 1.8-1.1 0.8-0.8 7.8-13.3 2.3-6.9 1.3-2.2 1.7-1.9 3.4-2.8 1.6-2.4 1.7-4.3 5.8-28.1 0.7-1.1 0.9-0.2 0.6-0.7-0.2-2.3-0.5-2-0.7-1.3-0.9-0.9-1-1.1-0.6-0.8-0.1 0.2-0.4 0.3-1.7 0.2-1.6-0.6-3.3-3.2-1.5 0-1.4 0.7-1.5 0.2-7.3-1.5-1.7 0.3-2.9 1.2-1.6 0-0.9-1.1-0.6-1.9-1-1.4-2.1 0.5-14.8 10.8-2.7 1-3.4 0.5-5.3 1.6-3.6-6.8-0.4-4.7 4.4-2.5 2.3 0.7 3.3 3.7 2.4 0.3 2-1.2 1.5-2 2.6-4.4 1.6-1 1.9-0.8 1.2-1.7-0.7-3.6-1.5-1.7-3.4 1.3-1.8-1.6-0.3-2.4 0.5-2.8 0.8-2.9 0.4-2.2-0.2-2.4-1.4-6.9-0.6-5.6-0.5-2.3-1.3-2.9-1.2-1.6-1.7-1.6-1.3-1.8-0.2-2.1 2.5-2.3 9.3 1 3.5-0.8 0.7-3.7-2.1-4.5-1.2-3.4 3.7-0.9 1.9 1.1 3.2 4.5 1.7 1.8 3.2 1.2 3.5 0.2 7-0.9 0.8-0.6 0.5-1.1 0.6-1 1.2-0.5 0.8 0.4 1.3 2.1 0.8 0.5 14.3-0.6 0.5-0.6 1.9-1.9 0.4-5.5-1.7-4.7-3.2-1.5-14.6-1.5-4.9-1.6-10.4-5.2-6.4-2.6-9-5.3-0.9-5-0.4-2.2-2.2-2.3-2.6-1-2.4-0.5-3.7 0.1-2.7-2-1.1-1.4-1.8-0.6-0.1-0.1-3-2.1-0.4-4.6 3.6-2.1 4.2-0.6 1.5-3.3-2.5-4-2.3-2.4-0.9-2.8-0.1-4.3 2.2-5.9 1.3 0.2 9.9 1.5 4.8-4.8-1.9-3.4-2.1-1.2-2.4-0.5-2.8-1.3-1.6-1.4-0.8-1.1-0.5-1.2-1-1.9-1.5-1.1-1.5 0.4-1.4 1-2.9 1.6-1.7 2-2.1 1.7-3.1 0-1.6-1.6-3.3-5.3-1.4-1.2 0.6-2 0.2-4.4 0.7-4.5 2-2 1.8-1.3 4.6-6.3 0.9-2.1-1-3.4-2.4-2.1-2.8-1.6-2.3-1.8-1.4-3.1-0.7-7.2-0.7-3.5-4.8-6-1.2-2-2.5-2.6-0.6-1.5 0.2-1 0.6-1 0.4-1.4 0.5-6.5 5.2-0.5 2.1-0.4 1.2-1.6-0.5-1.8-1.7-2-3.4-2.7 1.5-1.7 1.3-1.3 2.8-1.8-0.9-3.7 10.1 0.7 3.2 1.5 0.9-0.5 0.2-0.7-0.4-1-1.2-2.1-0.2-0.8 0.2-0.9 0.5-0.9 3.9-2.8 4.2 0.6 2.9-0.8 0.2-7.1 2.6-4.5 3.8-1.6 3.7 1.4 2.5 4.7 3.7 2.2 14.5 1.5 4.5-0.9 1.9-2.4 0.8-2.9 1.2-2.9 1.9-1.5 1.4-1 3.1-0.7 6.1-0.1 2.7-0.9 1.7-1.9 1.3-2.4 1.3-2 2.1-1 1.8-0.3 1.4-0.6 2.8-2.3 1.2-1.6 0.8-1.8 1.2-1.6 4.3-2.4-0.4-1.9-1.2-2.2-0.3-2 2.4-2.7 3.8-2.6 4.1-1.8 3.1-0.6 3.5 0.1 9.6-1.8 3.6 0.1 3.4 1.2 3.6 2.3 10.1 6.5 2.9 0.5 13.7-5.7 2.6-1 6.6-1.5 10.6 1 6.9 3.9 4.7-0.5 4.2-2.1 1.6-0.2 2.7 0.6 0.9 0.7 1.7 2.4 1.3 0.7 1.2-0.2 4.1-2 3 1.2 9 7.8z" id="RS" name="Serbia">
  </path>
 </g>
 <g id="points">
  <circle class="42.43189131313164|19.051958089874024" cx="192" cy="910.5" id="0">
  </circle>
  <circle class="44.00746347815442|21.12175424178103" cx="534.2" cy="553" id="1">
  </circle>
  <circle class="45.97692868443289|22.777591163306635" cx="808" cy="92.4" id="2">
  </circle>
 </g>
 <g id="label_points">
  <circle class="Serbia" cx="479" cy="510.9" id="RS">
  </circle>
 </g>
</svg>