<?xml version="1.0"?>
    
<!--********* Copyright (c) 2024 Pareto Softare, LLC DBA Simplemaps.com ***************************************
************* Free for Commercial Use, full terms at  https://simplemaps.com/resources/svg-license ************
************* Attribution is appreciated! https://simplemaps.com *******************************************-->

<svg baseprofile="tiny" fill="#6f9c76" height="1000" stroke="#ffffff" stroke-linecap="round" stroke-linejoin="round" stroke-width=".5" version="1.2" viewbox="0 0 1000 1000" width="1000" xmlns="http://www.w3.org/2000/svg">
 <g id="features">
  <path d="M590.7 45.5l1.6 1.5 3.6 0.6 2.1 2.1 1.4 0.5 0.7 1.1 0 1.6-0.5 1.3-0.9 0.5-0.1 1.7 0.7 1 5 2.2 2.5 2.3 1.9 2.1 1.8 3.4 0.4 0.5 0.2 0.2 0.2 0.7 0.1 0.3 0.3 0.2 2.1 0 0.7 0.4 0.2 0.8 0.2 1 0.9 2.6 0.4 0.8 1 0.9 2.3 0.7 2.7 2.8 1.7 1.2 0.6 2.6 5.5 1.7 1.4 1.7 0.2 0.5 0.8 1.3 0.5 0.8 0.3 0.5 0.2 0 0.2 0.3 0 0.5 0 0.6 0.1 0.4 1 0.9 7 0.1 2.1 0.6 0.1 0.2-0.1 0.8 0.2 0.2 2.4 0.2 1.9 1.1 1.4 0.2 1.2 0.9 0.6 0 0.5-0.2 0.6 0 0.8 0.9 0.9 1.5 0.9 1.1 1.8-0.8 0.8 0.8 1.3 2.8 0.8 1.2 4.5 3.2 0.5 0.6 0.2 0.7 0.1 0.7 0.1 0.7 0.4 0.8 1.4 1.7 0.5 1.4-0.2 1.9 0.3 0.6 0 0.6-0.2 2.1-0.1 0.7 0 0.5 0.1 0.7 0 0.2 0.2 0 0.2 0.5 0.6 0 2.6-1.9 1.1-0.1 0.4 0.6 0.3 0.9 1.2 4.8 0.1 0.7 0.3 0.7 2.2 2.2 0.9 0.7 2.7 3.4 2.1 0.9 0.6 1-0.1 1.4-0.7 1.6-1 0.8-2.2 0.8-1 0.9-0.5 1.4-0.2 1.9 0.1 2 0.2 1.6 0 4.8 0.1 1 0.3 1.2 0.4 3.2 0.2 1.3 0.7 2.1 0.3 1.3 0.1 1.9-0.6 0.8-1.1 0.8-0.8 0.9 0.4 1-0.6 1.6-0.7 1.4-0.4 1.5 0.4 2 1 1.3 1.2-0.1 1.2-0.5 1.2-0.1 2.1 1.3 2 0.4 0.7 0.3 0.4 0.6-0.1 1.8-0.3 2.2 0 1.8 1 0.7-0.7 2.5-0.8 1.3-3.5 1.6-0.5 0.7-0.3 1.2-0.1 1.6 0.2 0.5 0.5 0.3-0.2 1-0.3 0.9-0.3 0.7-0.4 0.6 0.2 1.6 0.5 1 0.7 0.9 0.8 1.6 0.3 0.3 0.3 0.5 0.1 0.9 0 1 0.1 0.6 0.1 0.6 0.2 0.7 1.1 2.5 0.7 1.3 0.6 0.5 0.9 0.4 0.7 1 1.8 4 1.2 1.6 0.6 1.2 0.8 2 1.2 3.8 0.1 0.6-0.1 0.7-0.5 0.2-0.7 0-0.6 0.2-0.5 1.4-1 1.7 0 0.6 0.4 2.8 0 1.5-0.2 1.6-0.2 1.4-0.3 1.2 0.2 1.4 0.2 1.4-0.1 1.3-0.3 1.1-0.6 0.7-1.6 1.2-0.1 0.8-0.6 0.8-0.9 0.5-0.8 0.6 0 1.3-0.7 0.3-0.9 0.7-0.7 1.1-0.3 1.7 0.1 1 0.6 1.4 0.1 0.7 0 1.1 0.2 1.3 0 1.1-0.1 0.8-0.3 1 0 0.7 0.1 0.8 0.4 1.7 0.3 2 1 3.8 0.8 1.3 1.1 0.9 3.2 1.2 0.6 1 1.7 5 0.2 0.6 0.4 0.5 0.7 0.8 0.3 0.5 0.3 1.1 0.8 3.7 0 1.1 0 1.7 0.6 1.4 0.8 1.5 0.7 2.9 1.2 2.1 0 1.4-0.7 1.3-1.1 0.2-2.2-0.6 0.2 0.5 0.1 0.2 0 0.2 0.3 0.1-0.7 0.5-1.5-0.4-0.7 0.5-0.2 0.4-0.2 1.2-0.2 0.4-0.3 0.1-0.3-0.2-0.2-0.3-0.5-0.2-0.3-0.3-0.2-0.4-0.1-0.5-0.1-0.7-0.2 0-0.3 0.5-1.5-0.1-0.7-0.2-0.3-1-0.3-1.2-0.7-0.5-1.5-0.1-0.5 0.4-0.7 1.6-0.5 0.5-0.3 0-0.2-0.3-0.2-0.4-0.1-0.3-2.4 0-1.3-0.4 0.1-1.1-0.2-0.3-0.4 0.1-0.4 0.2 0.1 0.1-0.3 1-0.2 0.2-0.2 0.1-0.2 0.2-0.2 0.5 0.3 0.3 0.1 0.4 0.1 0.6-0.1 0.7-0.1 0.6-0.1 0.1-0.3-0.1-0.5-0.1-0.6-0.5-0.3-1.1-0.1-1.4 0.1-1-0.6 0.1-0.5 0.6-0.4 0.7-0.4 0.5-0.7 0.1-0.6-0.6-1.2-1.4-0.5-0.4-0.5 0-0.4 0.6 0 1.3 0.2 0.9 0.5 0.6 1 1-0.5 0.3-1.9 1-0.3 0.4-0.6 0.8 0 1.4-0.8 0.8-0.8-0.2 0.3-1.5-0.9-2-0.4-0.5-1.7-0.2-1.3-0.8-0.3-0.3-0.6-1.3-0.5-0.2-0.7 0.3-0.5-0.1-0.7-0.8-0.9-3.1-0.7-1.1-3.4-3.1-0.6-0.2-0.6 0.2 0.4 0.8 0.8 1 0.3 0.8 0.1 0.6 0.1 1.9 0.1 1 0.2 0.7 0 0.8-0.1 1.1-0.2 1-0.3 0.8-0.5 0.5-0.4 0.2 0.1-1.7-0.7-0.9-1.8-0.5-0.4 0.3-1 1.2-0.4 0.1-0.2-0.6 0.2-0.9 0.4-0.7 0.2-0.4-0.4-0.9-0.4-0.6-1-1 0-0.2 0.2-0.8-2.2-0.5-1.1 0.2-0.1 1.3-1.2 0.5 1.2 2 0 0.9-0.4 0.1-1-0.4 0.3 0.7 0.5 1.6 0.4 0.7-1 1.9-1.2-0.6-1.3-1.2-1.1-0.1 0.7 1.2 0.6 0.7 0.7 0.4 2 0.5 0.7 0.5 0.4 1.2 0.4 2.1-0.4-0.1-0.4 0-0.4 0.2-0.3 0.4-0.3-1.8-0.7-0.8-0.8-0.1-0.7 0.7 0.2 0.3 0.1 0.5 0 0.6-0.3 0.6 0.2 0.4 0.3 0.6 0.3 1.5-0.7 0.4-2.2 0.1 2.3 0.9 1.1 0.1 0.6-1.5-0.2-0.8-0.7-1-0.2-0.7 0.3-0.6 0.5 0.3 0.4 0.7 0.3 0.6-0.2 0.5 1.6 0.8 0.2 0.5-1.4 1.1-0.2 0.6 0.3 0.6 0.7 0.5 1.2 0.4 0.2 0.3 0.2 0.8 0.3 1.4-0.7 0.6-0.6-0.6-0.5-1-0.6-0.5-0.9-0.1-0.6-0.4-0.8-0.8-0.3-0.1-0.4 0.4 0.2 1.1-0.9-0.2-3.1-2.4-2.3-1-0.9-1.3-0.4-0.5-1.3-0.3-1-1.3-1.9-0.6-0.5-0.5-0.3-0.4-0.6-1.4-0.4-0.5-0.9-0.7-0.5-0.6 0.7 3 1.9 1.9 3.7 2.2 2.5 2.5 2 1 0.4 0.4 0.5 0.6 0.7 1.2 0.4 0.4 0.6-0.1-0.8 0.7-1.7 0-0.9 0.3-0.3 0.3 0 0.2 0 0.3-0.2 0.5-0.3 0.3-0.3-0.4-0.3-0.4-0.2 0-0.9 0.6-4.1-1.5-0.7 0.1 1.5 2.5 0.8 0.9 0.7-0.4-0.6-0.8-0.3-0.1 0.8-0.2 1.7 2.4 0.9 0.7-0.3 1.1-0.1 0.8-0.3 0.7-0.4 0.4-0.5 0-0.4-0.5-0.8-1.5-0.3 0.9 0.1 0.8 0.3 0.7-0.1 0.7-0.4 0.5-0.6 0.1-0.6-0.3-0.2-0.8-0.9 0.8-0.9 0.5-1 0-2.5-1-0.6 0.1 0.5 1.1-1.4 0.1-0.8-0.3-0.6-1.3-0.8 0-1.2 0.5 0 0.4 1.2 0.6 0.4 0 0 0.4-2.2-0.3-1.1 0.2-0.6 1.2 0.2 0.1 0.3 0.3 0.1 0.1-1.2 1 0.6 0.2 0.7 0.4 0.6 0.7 0.4 0.9 0.5 0.6 0.7 0.2 0.6-0.4 0-1.1 0.6 0.2 0.5 0.5 1 1.3 1 0.9 0.4 0.7 0 1.1-1 1.4-1.4 0.8-1.3 0.2-1-0.7-0.3-0.7-0.6-1.9-0.4-0.9-0.4-0.7-0.5-0.6-0.5-0.4-0.6-0.2-0.9-0.8-0.9-1.6-1-1.3-1 0.2 0.2 0.1 0.3 0.3 0.1 0.1-0.4 0.9-1.2 0.1-0.4 1 3.8 1 0.9 1 1.9 3.5 1.7 2.1 2.1 4.5 0.3 1.5-0.6 0.7-1.6 0.1 0.3 0.4 0.2 0.7 0 0.7-0.6 2.1 0.2 0.4 0.5 0.2 0.6 0.4-0.7 0.6-2.5-0.1-0.4 0.5 0.3 1.1 0.6 1 0.2 0.4-0.9 0.8-0.3 0.1-0.3-0.1-0.6-0.4-0.4 0 0 0.2 0 0.3-0.1 0.3-0.1 0.2-0.5 0.5-0.4 0.6-0.1 0.6 0.4 0.8-0.5 0.5-3.7 0.2-0.4 0.3 0 0.5 0.1 0.4 0.2 0.5-0.2 0.8-0.2 0.5-0.3 0.6-0.4 0.4-0.4 0.2 0.3 1.9-0.6 0.7-0.6 0.6 0.2 1.3-0.4 0.4-1.1 0.4-0.5 0.1-0.5-0.4-0.2-0.7 0-0.9-0.2-0.5-0.5-0.2-0.4 0.3-0.4 0.7-0.1 1 0.1 0.9 0.4 0.4 0.9 0.4-0.1 0.7-0.1 0.3 0.6 0.7 0.5 0.2 1.2 0 1.9-0.5 2 0.9 0.7 0.6 0.2 1-0.4 0.4-1.5-0.2-0.6 0.2 0.5 1.2 0.6 1 1.4 1.3 0 0.5-0.5 0-0.2 0.4 0.1 0.5 0.4 0.5 0 0.5-0.8-0.4-1.4-1.6-0.8-0.4-0.7-0.6-0.6-1-0.6-0.8-0.7 0.2-0.4 1 0.1 1.2 0.4 1.1 0.5 0.8 0.8 0.3 1.1 0.1 0.9 0.4 0.5 1.2-0.5 0.1 0 0.7 0.4 0.8 0.5 0.3 0.7 0.1 0.3 0.1 0.3 0.3 0.2 0.3 0.2 0.9 0.1 0.2 0.3 0.2 0.4 1 0.3 0.3 0.2-0.2 0.1-0.4 0-0.3-0.1-0.1 0.2-0.8 0-0.7 0.2-0.2 0.6 0.3 0.6 0.9 0.7 1.4 0.6 0.6 0.3-1.8 0.3 0 0.3 0.3 0.1 0.3 0 1.6 0.4 0.9 0.4 0.5 0.5 0.2 0.6-0.1-0.4 0.5-0.4 0.4-0.5 0.1-0.4-0.3-0.8-1.4-0.2-0.2-1.5 1.3-0.8 0.5-0.4-0.6-0.1-0.5-0.2-0.3-0.2 0-0.2 0.3-0.1 0.4 0.2 0.2 0.4 0.1 0.6 1.3 0.4 0.3 0.3-0.4 0.4-0.3 1.2-0.1 0.4 0.1 0.1 0.3 0.2 1.2 0.1 0.5-0.4 1.1 0.1 0.7 0.4 0.5 0.5 0.1 0.3-0.2 0.4-1 0.2-0.2 0.6 0.2 0.6 0.3-0.2-1 0.4 0 0.4 0.3 0.2 0.7 0 0.9-0.1 0.7-0.4 0.1-0.4 0-0.4 0.5-0.4 0.4-0.7 0.5-0.4 0.5-1.7 3-1.2 1.3-0.6 0.9-0.7 0.7-0.7-0.7-0.5-1.1-0.5-0.6 0.1 0.7 0.1 0.6-0.1 0.6-0.1 0.6 0.2 0.2 0.1 0.2 0 0.3 0.1 0.3-0.5 0.2-0.8 0.7-0.5 0-0.5-0.2-0.2-0.3-0.2 0.1-3.8 6-0.1 0.2-1-0.5-0.1-0.1-0.2 0.4-0.8 2.1-2.4 2.9-0.5 1.4 0.3 1.2-0.2 1.2-1.2 2.7 0 0.3-0.1 0.3-0.1 0.9 0.1-0.1 0.1 0.2 0 0.4 0 0.2 0 0.3-0.1 0-0.2 0.1-0.1 0.3 0 1.4-0.1 0.8-0.2 0.3-0.3 0.1-0.3 0.3-0.1 0.4-0.1 0.1-0.7 0.4-0.5 1-0.6 2.4-0.5 2.2-0.3 0.6-1.5 1.4-1.3 0.1-0.3 0.4-0.2 0.9 0.3 0.5 0.4 0.1 0.5-0.1-0.7 1.6-0.3 0.7-0.4-0.2-0.6-1.6-0.4-0.4-0.5-0.1-1.5 1.6-0.1 0.9-0.2 0.6-0.4 0.1-0.3-0.4 0.3-0.7-0.1-0.6-0.3-0.6-0.6-0.8-0.1-0.1-1.5 3.4-0.6 0.8-0.7-0.4 0.2 0.5 0 0.4-0.1 0.3-0.1 0.6 0.2 1.5 0.1 0.4-0.2 0.8-0.3 0.8-0.4 0.6-0.3 0.2-0.5-0.2-0.4-0.6 0-0.8 0.3-1 0-0.7-0.3-0.9-0.4-0.8-0.4-0.2-0.3 0.9 0 4.2-0.3 1.7-0.4 0.2-0.4-0.5-0.4-0.8 0-0.7 0.2-0.8 0.3-1 0.1-0.9-0.1-0.9-0.6 0.9-0.6 1.5-0.3 1.7 0.2 1.6-0.7-0.2-2 0.2-0.3 0.1-0.3 0.3-0.4 0.1-0.3-0.3-0.2-0.7-0.1-0.3-0.2-0.2-0.6-0.1-0.6 0.2-0.6 0.4-0.4 0.7-0.3 0.9 0.1 0.8 0.5 1.4-2.4-1.2-0.4 0-0.5 0.5-1.1 0.6-0.2 0.3-0.4 1.8-1.1 1.2-1.3 1-1 1.1-0.1 0.7 0.5 1.8 0.2 1.6-0.1 0.2-0.8 0.2-0.3 0.3-0.3 0.6-0.7 0.7-0.4 0.2-1.5-0.9-0.1-1 0.2-0.7-0.1-0.6-0.8-0.5 0.1-0.3 0.1-0.4 0-0.3-0.4-0.2-0.8-1.2-1.6-0.6-0.4-0.5-0.6-1.1-0.7-0.5-0.7 0-0.8 0.8 0.3 0.4 0.4 0.3 0.7 0.3-0.4 1.7 0.4 0.6 0.8 0.2 0.9 0.8-0.8 0.6-0.5 0.2-0.5 0.1-0.1 0.3 0.3 0.5 1.3 1.9 0.1 0.5 0 0.7-0.3 0.2-0.6-0.3-1-1-2.5-3.3-0.8-0.4 0 0.6 0.8 2.2-0.6 0.3-0.6-0.5-0.6-0.9-0.6-0.4-0.4 0.5-0.1 1.1 0 2.4 0 0.7-0.2 1.1 0 0.6 0 2-0.3 0.9-0.4 0.5-0.4-0.2-0.1-1.2-0.7 1.1-1.5 0.5-0.7 0.7 0.1 0.2 0.5 0.8-0.4 0.5-0.5 1.5-0.4 0.8 0.7 0-0.5 1.1-0.6-0.1-1.2-1.5-0.6 1.4 0.5 0.9 1 0.3 0.7 0.1-0.2 0.8-0.4 0.1-0.4-0.1-0.3 0.4-0.2 0.7-0.1 0.5-0.2 0.4-0.5 0-0.1-0.2-0.9-1.2-0.1-0.2-0.3-0.4-0.6-0.7-0.2-0.5 0.1-0.9-0.3-0.4-0.6-0.4-0.4-0.4-0.5-0.7-0.6-0.3-0.4 0.2 0.1 1.1-0.4 0.2-1.6-0.7-1.3-0.1-0.5 0.1-0.5 0.5 0.6 0.7 4.8 2-0.6 1-1 0.4-2 0 0.2 0.7 0 0.2-0.4 0.7-0.5 0-0.4-0.6-0.1-1-0.1-1.1 0.7-0.2 1.5-0.1 0-0.5-2.9-0.8-0.9 0.4 0.4 0.5 0.2 0.5 0.1 0.6 0.2 0.7 0.6 1.7 0.2 0.6-4.4-1.4-1.4 0 0 0.5 0.6 0 0.7 0.4 0.7 0.6 0.4 0.6 0.2 0.8 0.2 0.8-0.1 0.7-0.4 0.2-0.7-0.3-0.6-0.5-0.6-0.2-0.6 0.6-0.3 0.6-0.1 0.8-0.2 0.7-0.5 0.6 1.1 0-1.4 1.2-0.4 0.2-0.2 0.3-0.2 1.7-0.2 0.3-0.3-0.2-1.1-1.6-0.4-0.4-0.5-0.2-0.5 0.1-0.4 0.5 0.9 0.8 0.6 0.6 0.3 0.8-2-0.4 0-0.1-0.3-0.7-0.2-0.3-0.2-0.2-0.1 0.3 0 0.3-0.1 0.3 0.1 0.1-0.5 0.7-0.7 0.5-1.8 0.5 0.7 0.6 7.9-0.1 0.8 0.4 0.6 0.9 0.2 0.9-0.3 0.4-0.4-0.4-0.3-0.9-0.3 0-0.2 1.3-0.7 0.3-0.9-0.3-1.7-1.1-0.5 0.3-0.3 1.3 1.4 1.2 0.5 0.2 1.1-0.4 0.6-0.1 0.3 0.5-0.3 1.4-1.2 0.1-2.2-0.6 0.5 0.9 1.4 0.7 0.4 0.7-0.1 0.6-0.3 0.4-0.3 0.3-0.8 0.2-0.3 0.3-0.2 0.3-0.3 0.2-0.7 0.4-0.3 0-0.6-0.2-0.5-0.1-0.2-0.1-0.1-0.2-0.1-0.3 0-0.4-1-1.4-0.5-0.5-0.6 0 0.1 0.3 0.1 0.7-1.5 0 0 0.4 0.4 0.3 0 0.4-0.1 0.6-0.3 0.5 0.7 0.4 1-1.2 0.6 0.4-0.7 2.1-0.4 0.8-0.6 0.3-0.3 0.3-0.3 0.5-0.3 0.3-0.4-0.4 0-0.4 0.2-0.6 0.2-0.4 0.2-0.2-0.5-0.3-0.3 0.5-0.2 0.9-0.3 0.7-0.6 0.6-0.6 0.1-1.3-0.3 0.1-0.6 0.1-0.2-0.5-0.5-0.6-0.1-1.2 0.1 0.8-1.2 2.6 0.4 0.8-1.1-1.3-0.6-0.6-0.4-0.4-0.8 0.1-0.1 0-0.1 0.1-0.2-0.7 0.2-1 0.8-1 1-0.4 0.9-0.2 0.3-0.5-0.2-0.5-0.4-0.3-0.4 0-0.6 0-2.3 0-0.2-0.3-0.6-0.1-0.4 0.1-0.3 0.3-0.6 0-0.2-0.1-1-0.4 0-0.5 0.3-0.4 0-0.2-0.5-0.6-2.4-0.2-0.6-0.3-0.4-0.4-0.4-0.4-0.2 0.2-0.3 0.4-1.1-0.7 0.1-0.9 1-0.5 0.3-0.5-0.3-0.5-0.6-0.5-0.4-0.5 0.3 3.7 3.4 0.9 1.4 0.6 1.3 0.7 2.1 0.4 2.1-0.5 1.1 0 0.5 1.3 1 0.4 0.4 0.3 0.5 0.1 0.3 0 1.2 0.2 0.8 1 1.6 0.2 1.2 0 0.8-0.3 1.1 0 0.4 0.2 0.7-0.1 0.3-0.3 0.1-0.3 0.1-0.2-0.2-0.7-0.6-0.4-0.1-1.8 0 0.6 0.8 4.6 2.1 0 0.7 0.1 0.6 0.2 0.4 0.3 0.3-0.7 0.3-2.2 2-0.2-0.2 0-0.8-0.3-1.9 0-0.4 0-0.2-0.5-0.1-0.1 0.2-0.2 0.5-0.3 2.1-0.1 0.5 0 0.5-0.1 0.6-0.3 0.2-0.6 0.3 0.4 0.9-0.9 1.8-0.6 0.7-0.6 0.3-0.3-0.3-0.6-0.9-0.2-0.2-1.6 0-1.3 0.6-0.6 0.5-0.4 0.7 0 1.2 0.5 0.4 0.6 0.3 0.4 0.8-4-0.2-0.4-0.2-0.4-0.3-0.6-0.9-0.1-0.2-1.4-2.7-1.3-2-0.3-0.3-0.7 0.4-0.3 1.6-0.5 0.3-0.6 0.2-0.5 0.3-0.4 0.7 0 1 1.4 2.3 0.1 0.3 0 0.5 0 0.6 0 0.4-0.2 0.3-0.4 0.1-0.4 0.1-0.3-0.1 0.4 0.4 0.3 0.6 0.2 0.7-0.1 0.8-0.1 0.7 0.3 0.8 0.4 0.7 0.3 0.3 1-0.2 0.4 0.1 0.5 0.5 0.2 0.6 0.2 0.7 0.3 0.6 0.3 0.4 0 0.4-0.3 0-0.2 0.1-0.3 0.4 2.6 1.6 0.6-0.4 1 0.3 1 0.6 0.6 0.6-2.5 1.7-0.8 0.2-0.1-0.3 0.9-1.6-0.5-0.4-0.6 0.2-0.4 0.4-0.4 0.7-0.1 0.9 0 1.1 0.1 0.9 0 0.6-0.2 0.9-0.1 0.2-0.5 1.1-0.2 0.9-0.1 1.3 0.1 0.7-0.2 0.6-0.6 0.5 0.6 0.4-0.3 0.9-1 1.4 0.4 0.3 0.4 0.6 0.3 0.6-0.3 0.3-1.5 0.2-0.3 0.2-0.2 0.7 0.1 0.7-0.1 0.6-0.6 0.2-0.3 0.2-0.2 0.5-0.1 0.7-0.1 0.8 0.2 0.8 0.4 1.2 0.1 0.5-0.1 0.4-0.5 0.3-0.1 0.3 0-0.1 0 0.5 0 0.5 0.1 0.1 0.2 0.1 0 0.4-0.1 0.5-0.2 0.3-0.1 0.4-0.1 0.3 0.1 0.4 0.4 0.2 1.6-0.4-0.1 0.6-0.3 0.4-0.3 0.2-0.3 0.1 0 0.5 0.5 0.3 0.1 0.7-0.2 0.9 0 1.1 0.2 1.2 0.2 0.3 1.5-0.4 0.5-0.3 0.6-0.1 0.5 0.6 0.4 0.7 0.2 0.8 0 0.7-0.3 0.7-0.2 0.8 0 1.1-0.2 1-0.5 0.4-0.6-0.1-0.5-0.2-0.4-0.4-0.4-0.7-1.1-2.7-0.6-1.1-1-0.5 0.1 0.8 0.1 0.6 0.5 1.2-1.2-0.3-0.4-0.5 0.1-1-1.1-1.1-1.3-0.3-2.6 0.1 0.4 0.7 0.4 0.3 1.1-0.1 2.1 1.3-0.3 1.1-1 0.7-1.1 0.4-0.8 0 0 0.4 0.3 0.1 0.6 0.4-0.9 0.4-1.4-0.6-0.7 0.6 3.9 0.9 0.7 0.9-0.6 0.3-0.6-0.1-1.1-0.7-0.6-0.1-2.1 0.1 0 0.5 1.1-0.1 0.5 0.2 0.3 0.7-1.3 0.7-1.4 0.2 0.8 0.7 3.2 0.6 0 0.4-3-0.1-0.3 0.4 0.3 0.3 0.7 0.3 0.5 0.5 0.8 0.2 0.3 0.2 0 0.5-1.2 0 0 0.4 1.2 0.5 0.2 0.4 0.2 0.7-0.2 0.4-0.3 0.4-0.3 0.6 0.2 0.6 0.1 0.5 0.2 0.4 0.4 0.3 0.3 0 0.2-0.3 0.2-0.4 0.3-0.2 0.2 0.2 0 0.4-0.1 0.5-0.3 0.2-0.4 0.1-0.3 0.1-0.3 0.3-0.3 0.4-0.2-0.5-0.3-0.6-0.4-0.2-0.2 1.2-0.6 0.6-0.1 0.6 0.1 0.4 0.9 1.5 0.9 0.9 1 0.4 0 0.7 2.3 1.5-0.9 0.2-1-0.2-1.9-0.9 0.4 1.2 0.9 0.6 0.9 0.3 0.7 0.5-1.3-0.1-0.5-0.2-1.6-1.5-0.5-0.3-0.7 0 0 0.4 0.8 0.4 0.9 0.9 0.9 1.1 0.6 1 0.4 1.6-0.5 0.5-0.8 0.4-0.6 1 1.1 0.9-0.2 1.5-0.2 0.6-0.5 0.5 0.6 0.8 0.1 0.8-0.3 0.5-0.8 0.1 0.4 0.1 0.8 0.1 0.3 0.1 0.1 0.4 0.1 0.4-0.1 0.4-0.2 0.1-0.3 0.3-0.2 0.7-0.2 0.8-0.1 0.8 0.1 0.3 0.3 0.3 0.3 0.3-0.7 0.7-0.2 0.1 1.6-0.2 0.8 0.1 0.3 0.6-1.8 0.5-0.6 0.7-0.3 1.8 0 0.7 0 0.3 0.7 0.7 0.5 0 0.2 0.2-0.1 0.8 0.1 0.4 0.3 0.7 0.1 0.2 0.5-0.3 0.2 0.1 0.2 0.3 1.1 3.6-0.3 0.1-0.3 0.1-0.2 0.3 0 0.3 0.1 0.8 0.2 0 0.2-0.1 0.3 0.2 0 0.8 0 0.7 0 0.5 0.4 0.5 0.6 0.2 0.4 0 0.2 0.2-0.4 0.9-0.3 0.4-1 0.6-0.8 1-1.2 0.9-0.7 0.2-0.1 0.3 0 0.3 0.2 0.2 0.3-0.1 0.7-0.3 0.3-0.1 0.6 0.2 0.6 0.9 1 0.4 1.7 1.5-1.3 0.8 0 0.5 0.5 0.3 0.6 0.1 0.5-0.1 0.1-0.1 0.5-0.4 0.6-0.4 4-0.7 0.9 0.1 0.5 0.5 0.5 0.6 1.1 0.7 0.4 0.6-0.4 0.6-1 0.7-0.3 0.2 0.1 0.9 0.5 1.4 0.1 0.7 0.4 1.3 1 0.7 2.1 0.3 0-0.4-0.4-1.8 1-1.8 1.7-1.3 3.1-1 0.9 0.1 0.8 0.7 0.6 2.1 0 0.8-0.2 0.6-0.3 0.5-0.3 0.3 0 0.4 0.8 0 0.7 0.6 1.4 1.5 1 0.8 0.2 0.4 0.2 1 0.1 0.3 0.9 1.4 1.1 0.9 2.5 1.1-0.5 0.3-0.8 0.8-0.4 0.5 0 0.5 0.5 0.5 0.2 0.3 0.2 0.5 0.5-0.5 0.8-0.9 0.6-0.4 0.5-0.1 0.4 0.1 0.9 0.5 2.2-0.1 0.6 0.5-0.1 0.2 0 0.5 0 0.5 0.1 0.5 0.1 0.2 0.7 0.6 0 0.4-0.4 0.2-0.4-0.1-0.3 0-0.4 0.4 4.2 1.6 1.2 1.3-1.2 0.6-5-1.9-0.9-1.2-1.6-2.6 0.4 2.2 1.2 1.6 1.4 1.5 1 1.5-0.6 0-0.4-0.3-0.7-1 0.2 1.5 0.6 0.8 1.5 1.1 0.7 0.9 0.4 0.3 0.5 0 0.4-0.2 0.3-0.3 0.1-0.5 0-0.1 0 1.9 0.1 0.9 0.1 0.4 0.6 2.1 0.1 0.8 0.2 0 0.2-0.9 0-1.2-0.1-1.1-0.3-0.9 0.7-0.4 0.8-0.2 0.7 0.2 1.1 1.1 1 0.2 0.5 0.7 0.1 1 0 2.1 0.2 0.9 1.3 1.9 0.2 0.8-0.4-1.6-0.6-1.5-0.3-1.6 0.4-1.7 1.1-0.7 0.5 0.3 0.1 0.2-0.1 1 0 1 0.2 0.8 1.3 4.5 1.1 2.8 0.6 0.8 1.3 0.5 0.7 0.4 0.5 0.5 0.1 0.1 0 0.2 0 0.5 0 0.1 0.5 0.7 0.2 0.2 0.3 0 0-0.3-0.1-0.7-0.1-0.3 0.6 0.1 0.5 0.3-0.1 0.9-0.1 2.4 0.1 0.5-1-0.1-0.4-0.3-2.2-3.6-1-1.3-0.9-0.5 0.3 0.7 1 2 0.2 1-0.4 1-1.9 2.9-0.5 0.5-0.7 0.2-1.4-0.1-0.6 0.2-0.5 0.5-0.2 0.8 0.6 0 1.1-0.6 7.7-0.4 1.3 0.8-0.3 1.4-0.5 0.8-0.7 0.4-1.8 0.6-0.6 0-0.5-0.3-0.3-0.4-0.3-0.9-0.2-0.4-0.4 1.1-0.6 0.7-0.8 0.6-2.2 0.7-0.7 0.6-0.1 0.9-1.1 0-0.2 0.2 0 0.5-0.1 0.4-0.2 0.3-0.3 0.2 1.5 0-0.2 0.5-0.4 0.5-0.4 0.5-0.3 0.2-0.3-0.2-0.2-0.3-0.3-0.4-0.4 0 0.6 1.1 0.2 0.7-0.3 0.3-0.4 0.2-0.7 0.8-1.3 0.6-1.7 1.7-1.7 0.7-0.8 0.7-1.4 1.9-1 0.9-1.1 0.2-2.3-0.3 0 0.4 1.1 0.8-0.5 0.4-0.8-0.1-0.4 0.1 0.6 0.3 0.4 0.5-0.1 0.9 0.5 0.5 0.7 0.2 0.6 0.1-0.9 0.7-1.8 0-1.8-0.6-0.9-0.9 0.3-0.2 0.4-0.2 0.4 0.1 0.3 0.3-0.1-0.5-0.1-1.2-0.2-0.4-0.3-0.1-0.7 0.7-0.4 0.2-0.3-0.1-0.3-0.6-0.2-0.1-0.2 0.2-0.4 0.5-0.2 0.1-0.3 0.3 0 0.7 0.2 0.7 0.2 0.4-1 0.7-0.3 0.1-0.4-0.1-0.6-0.5-0.4-0.2 4.2 4.1-1.1 0.2-0.5-0.1 0 0.7 2.4 0 0.7-0.5 0.3 0.1 0.3 0.8 0.2 0 1-2.6 1.9-0.7 2.2 0.3 1.8 1-0.2 0.2-0.3 0.4-0.2 0.2 0.9 0.3 0.4-0.1 0.4-0.7-0.8-2-0.2-0.8 1.4 0-1.2-0.9-0.6-0.5-0.3-1.1 1.8 0.2 0.8 0.3 0.7 0.8 0.1 0.2 0.1 0.8 0.1 0.2 2 1.2-0.3 0.8-0.5 0-0.6-0.3-0.6-0.1 0.7 0.4 1 0.4 1 0.5 0.4 1-0.2 0.9-0.6 0.4-1.6 0.1-0.5 0.1-0.5 0.3-0.5 0.1-0.5-0.3-0.4-0.3-0.8-0.3-0.4 0-2.6 0.4-0.8-0.4 0.1-0.3 0.1-0.7 0-0.3-0.6 0-0.5 0.3-0.5 0.4-0.5 0.6 0.4 0.3 0.4 0.4 0.3 0.5 0.2 0.4 0 0.4-1 0-0.4 0.3 0.2 0.7 1.8 1.1 0.7 0.2 0.8 0.6 0.8 0.9 0.4 1.1-2.8-2.3-0.6 0.1 0 0.7 0.5 0.4 0.6 0.3 0.4 0 0.3 0.4 0.1 0.7 0.3 0.5 0.6-0.4-0.1 0.3-0.1 0.2-0.1 0.1-0.1 0.2 0 0.5 0.8-0.4 0.3 0 0.1 0.6 0 0.7-0.3 0.5-0.3 0.3-0.3-0.3-0.7-0.2-1.1 0.4-1.1 0.6-0.5 0.6 0.3-0.1 0.3 0.1 0.3 0.3 0.1 0.5-2.8 1.4-0.9 0.2 0.4-0.4 0.8-0.5 0.4-0.3-0.4-0.4 0.2-0.3 0.2-0.1 0-0.4-0.5 0-0.5 0.1-0.4 0.3-0.3 0.6-0.4 0.3-1 0.1-0.4 0.2-0.3 0.4-0.6 1.4-0.4 0.3-1.6-0.1 0 0.3 0.1 0.7 0.1 0.3-0.8-0.4-0.3 0-0.4 0.4 0.5 0.9-0.4 1-0.8 1.1-0.5 1.4 0 0.7 0.2 0.4 0.1 0.5-0.3 0.8-0.4 0.5-0.5 0.2-0.6 0-0.4-0.3-0.2 0.7 0 0.8 0 1.7-0.4-0.4-0.3-0.5-0.1-0.7 0.2-0.8-0.3-0.8-0.1-0.2-0.2-0.3-0.3 0-0.2 0.1-0.2 0-0.5-0.3-0.3-0.4-0.5-1.1-0.4-0.4 0 0.7 0.4 1.3 0.5 1-0.4 1.1-0.1 0.3-0.2 0.2-0.2-0.3 0-0.6 0.2-0.7 0.1-0.4-1.1-0.5 0-1.1 0.1-1.3-0.3-1.1 0-0.5 0.4-0.8 0.2-1.8 0-1.8-0.1-0.8 0-0.3 0.3-1.4 0-0.7-0.3-0.3-0.4 0.2-0.4 0.5-0.1 0.6-0.1 1.8-0.1 0.9-0.3 0.3-0.3-0.2-1.1-1.4 0.1-0.9 0.6-1.3 0.2-0.8-0.2-0.7-0.2-0.6-0.4-0.6-0.3-0.3 0.4 2-0.3 0.9-0.4 0.7-0.5 0.5-0.6 0.3 0.2 1.3-0.1 1.2 0 1.1 0.5 0.9-0.3 0.9-0.3 1.3-0.2 0.8-0.3-0.3-0.3 0.4-0.2 0.2-0.1 0.3 0.2 0.3 0.3 0.3 0.3 0.1 0.3 0.1 0 0.4-0.3 0.5 0.3 0.2 0.4 0.4-0.2 0.9-0.6 0.5-0.7-0.1-0.6-0.3-0.6-0.1 0.3 0.7 0.4 0.6 0.9 0.7 0 0.4-0.6 0 0.2 0.3 0.2 0.1-0.8 0-2.3-1.9-1-0.5 0 0.4 0.5 0.4 0.1 0.7-0.2 1.7-0.3 1 0 0.5 0.2 0.1 0.2 0.1 0.7 0.7-0.8 0.5-3.8-0.9 1.1 1.6 0.1 0.9-0.5 0.7-1.6 0-0.9 0.2 0 1-3.5 0-0.9-0.4-0.3-0.3-0.6-1-0.5-0.3-0.3 0.2-0.9 0.5-0.5 0.1 0.4 0.3 0.9 0.1 0.3 0.4 0 0.6-0.2 0.5-0.2 0.3-0.2 0.2 0.6 0.5 1.3-0.2 0.6 0.2 0 0.3-0.7 0.8-0.4 0.8-0.5 0.5-0.7 0-1.8-1.2-1.1-0.2-0.6 0.9 1.4 0.1 0.6 0.5 0.5 1.1-0.7 0-2.7 0.9-10.5-1.3-10.5-1.3 0 0.5 0.4 0.2 0.3 0.4 0.2 0.5-0.2 0.5-0.5 0.1-1.3-0.3-0.5 0.2 0 0.3 0.4-0.2 0.3-0.1 0.3 0.2 0.2 0.6 0.6-0.5 1.4 0.7 0.6-0.5 0.5-0.6 0.4-0.2 0.3 0.2 0.7 0.8 0.1 0.1 0 0.2 0 0.8 0.2 0.5 0.3 0.2 0.4-0.1 0.3-0.2 0.2-0.8 0.1-0.9 0.2-0.8 0.4-0.5 0.4 0.1 1.6 0.9 0.4 0.3 3.5-0.1 0.7 0.3 0.6 0.7 0.4 0.3 1.2 0.1 0.6 0.6-0.1-0.3-0.1-0.7 0-0.2 1 0.3 0.4 0.1-0.3 1 0.2 1 0.6 0.6 0.7 0.1-0.2 0.4-0.2 0.1 0 0.3 0.9 0 0 0.4-0.3 0.6 0.3 0.3 1.2 0.3 1.7 1.6-0.7 0.5-1.6 0-0.6 0.3 0.2 0.8-0.7 0.7-1 0.4-0.7 0.1-0.2 0.1-0.4 0.6-0.1 0.1-0.3 0-0.4-0.3-0.2-0.1-3.7-0.7-1.8-1.2-3-1-0.8 0.5 1 0.2 6.5 3.4 1 0.2 0.4 0.3 0.2 0.7 0 0.5-0.1 0.5 0 0.5 0.1 0.5 0.3 0 0.5-0.3 0.4-0.3 0-0.2 0.4 0.3 0.2 0.3 0.1 1.4-4.4-0.8 0.5 0.6 1.1 0.9 0.5 0.5-0.1 0.6 0 0.4 0.4 0.2 0.4-0.1 0.1-0.2 0-0.4-0.2-0.5 1.8-0.4 0.6 0.1-0.3 1.1-0.2 0-0.5-0.1-0.1 0.1-0.1 0.1 0 0.4 0 0.4-0.2 0.2-0.3 0.3-1.1 0.1 0 0.4 0.7 0.2 2.2 1.4-0.3 0.3-0.1 0.1 0.4 0.4 0.3 0.6 0.3 0.7 0.1 0.9-0.1 0.7-0.2 0.2-0.2-0.2-0.4-0.1-0.2 0.1 0.1 0.4 0.2 0.4 0.3 0.2-1 1.9-1.7-1.2-1.8-2-1.3-1 0.4 1 1.2 1.2 0.5 1-0.2-0.1-0.4 0.1-0.2 0 0.6 1.1 1.1 1.4 0.6 1.1-0.7 0.3 0.1 0.7-0.1 0.4-0.4 0.2-0.4-0.1 0.6 0.5 0.5 0.2 0.5 0.4 0.4 0.8-0.2 0.5-0.3 0.1-0.2-0.1-0.3-0.5-0.9 0.6-0.1 0.3 0.4 0.7-0.6-0.5-0.7-1.7-0.4-0.2-0.4 0.6 0.2 0.8 0.7 1.4 0.3-0.1 0.5 0.1 0 0.1 0.3 1 0.3 0.5 0.3-0.2 0.3-0.5 0.3 0.2 0.1 0.5 0.1 0.9 0.1 0.4 0.8 0.9 0.3 0.5-0.5 0-1.2-0.8 0.3 0.9 0.9 0.8 0.1 0.7-0.3 0.6-0.6 0-0.5-0.4-0.4-0.4-0.6-1.5-0.2-0.1-0.1 1.2-0.3 0.4-0.6 0-1.2-0.2 0.1-0.5 0-0.5-0.1-0.5-0.2-0.5 0.3 0 0.3 0 0.3 0.2 0.3 0.2-3.9-4.4-0.3 0-0.2 0.3-0.1 0.6 0 0.3 0.3 0.5 0.8 1.1 1.8 0.8-0.2 0.2-0.3 0.5-0.2 0.1 0.2 0.6 0.1 0.6-0.2 0.4-0.3 0.4-0.5-0.7-0.6-0.4-1.4-0.5 0.5 0.7-0.3 0.5-0.2-0.2-0.6-0.3 0 0.5 6.5 7.4 1 0.8-0.2 0.4-0.5-0.2-1.5-1.1-0.4-0.5-2.4-3.7-3.7-3.1 0.2 1 0.4 0.6 1 1.1 1.7 1.2 1.3 1.7 0.3 0.5 0.2 0.5 0.2 0.3 0.4 0.1 0.3 0.3 1.1 1.1 0.3 0.6-0.4 0.4 0.7 0 0.5 0.2 0.4 0.5 0.3 0.8-0.6 0 0 0.4 0.4 0 0 0.4-2.1-0.2-0.9-0.4-0.9-0.6 0.2 0.5 0.5 0.7 0.3 0.4 0.3 0.9-0.1 0.4-0.4 0.1-0.7-0.3 0.3 0.6 0.4 0.1 0.3 0.1 0.3 0.4 0.2 0.7-0.2 0.2-0.2 0.2-0.3 0.3-0.3 0.3-0.9 0.9-0.2 0.1-0.1-0.2-0.1-0.5 0-0.7 0-0.5-0.2 0.3-0.3 0.1-0.3-0.1-0.3-0.3 0.3 0.7 0.2 0.2 0.2 0.2-0.5 0.7-0.2 0.1 0 0.4 0.7 0.4 0 0.4-0.8 0 0 0.3 2.3 0.1 1.1 0.5 0.9 2.3 0.7 1.5 0.3 1-0.9-0.3 0.3 1-0.1 0.2-0.5 0.1-0.4 0.3-0.1 0.6 0.1 0.6 0.5 0.5 0.6 0.2-0.5 0.3-0.6 0.2-0.4 0.4 0.2 1-1.8-0.4-0.7 0.3-0.4 1.3 1 0.7-0.3 0.6-0.3 0.2 0 0.2 0.4 0.6-2.3 1.4-0.5 1 0.8 1.9-0.9 0.8-0.3 1.3 0.3 1.5 0.4 1.3 0.9 1.5 0.3 0.4 0.4 0.2 0.2-0.1 0.1 0.1 0.3 0.4 0.5 1.3-0.4 0.3 0.2 0.7 0.4 0.7 0.2 0.6-0.3 0.1-1.1-0.4-0.1-0.2 0.1-0.2 0-0.3-0.2-0.1-0.2 0.1-0.1 0.1-0.1 0.1 0 0.1-0.2 0.1 0 0.3-0.1 0.3 0 0.2-0.2 0.1-0.1-0.1-0.1-0.1-0.5-0.1-0.7-0.3-0.4 0 0.2 0.4 0.3 0.3 0.2 0.3 0.3 0.1 0 0.4-0.6 0-0.4 0.6-0.2 0.9 0.2 1.2 0.3 0.6 0.3 0.5 0.3 0.4-0.2 0.6-0.8 1.5 0 0.4 0.1 1.4 0 0.7-0.1 0.5-0.8 2.7-0.1 0.5 0.3 0.6 0.3 0.3 0.4-0.2 0.4-0.4 0.3-0.2 0.3 0.2 0 0.4 0 0.5-0.2 0.4-0.4 0.1-0.8-0.4-0.4-0.1-0.5 0.2-0.6 0.5-0.5 0.1-0.1 0.3 0.2 0.6 0.4 1.2 0.1 1.7 0 1.1-0.3 0.7-0.4 0.4-0.5 0.2-0.5-0.1-0.7-0.6-0.4 0.1-0.4 0.3-0.3 0.2-0.3 0.1-0.3 0.5-0.7 1.5-0.1 0.3 0.1 0.3-0.1 0.6-0.1 1.2-0.1 1.3-0.2 0.5-0.8 0.1-0.2 0.5-0.2 1.1-1.5 2.9-0.7 2-0.8 4.5-0.9 4.5-0.2 0.3-0.3 0.1-0.2 0.5-0.1 0.5-0.2 0.5-0.5 0.6-1.2 1.2-0.5 0.7-1.8 3.9-0.7 0.9-0.5-0.1-0.5-0.6-0.9-0.4 0.9-1.9 0.3-1-0.6-0.5-1.5 0.6-0.8 0-0.6-0.9-0.3 0.2-0.2-0.2-0.1-0.3-0.3-0.1-0.4-0.1-0.4-0.5-0.2-0.1-0.5 0.5-0.6 0.8-0.6 0.5-0.5-0.7 0.2-0.4 0.3-0.6 0.1-0.6-0.3-0.3-0.4 0.1-1.2 1-1.3 0.7-0.1 0.2-0.1 0.9-0.1 0.2-0.7-0.5-0.2-0.3-0.2-0.3-0.4-0.4-0.4-0.1-0.5 0.1-0.3 0.2-0.5 0.8-0.2 0.5 0 0.4-0.1 0.2-1.4 0.1-0.4-0.2-0.4-0.3 0.6-0.3 0.3 0-0.2-0.5-0.7-1.4-0.6 0.9-1.2 0.8-1.3 0.2-0.9-0.6-0.2-0.2-0.3 0.1-0.2 0.2-0.2 0.1-1.2 0-0.2-0.2-0.1-1-0.2-0.3-0.2 0-0.8 0.3-0.3 0.1 0.1 0.3 0.3 0.9 0.1 0.3-1.9-0.8-1-0.3-0.8 0.5-0.7 0.2-1-0.2-0.7 0 0 0.9-0.6 0.3-0.5-0.4-0.5-0.6-0.7-0.4-1.5 0-0.7 0.4-0.5 0.7 0 0.5-0.1 0.6 0 0.6 0.2 0.2 0.5 0.2 0.2 0.4 0.1 0.5 0.2 0.5 0.8 1.3 0.3 0.6 0.3 1-0.3 0.2-0.4 0.3-0.4 0.4-0.2 0.4-0.3 0.2-0.1-0.2-0.2-0.6-0.6 0-0.2 0.5-0.1 0.2-0.3-0.1-0.2-0.1-0.3-0.1-0.8 0-0.3 0-0.1-0.3 0.5-0.5-0.3-0.3-0.2-0.4-0.2-0.4 0-0.7-0.6 0.8-0.3-0.4-0.2-0.3 0.1-0.1-0.4 0.2-0.7 0.5-0.3 0.1-0.8 0.2-0.5 0.4-1.1 1.6-1.1 1.4-0.7 0.6-0.6 0.2-0.6 0.5-0.4 1-0.3 1-0.3 0.5-1.3 0.7-1.1 1.7-0.7 2.2-0.4 2.3-0.1 2 0.1 0.9 0.3 0.9 0.5 0.7 1.1 0.9 0.4 0.6 0.1 0.6 0 0.6 0 0.6 0.3 0.6 0.3 0.4 0.6 0.7 1.3 2.1 0.3 1-0.2 1.2-0.4 0.7-1.6 1.8-0.6 0.4-0.3 0.4-1.4 2.5-0.6 0.8-0.6 0.5-0.7 0.2-1.9 0-0.9-0.2-0.9-0.4-2.4-1.6-0.8-0.3-1-0.1-0.5 0.1-0.7 0.5-0.5 0.1-0.4 0-1.4-0.3-4.1 0.3-0.5 0.2-0.4 0.4-0.3 0.5-0.3 0.4-0.5 0.3-1.3-0.3-1.1 0.3-2.8 1.9-0.9 0.4-2.1 0.1-0.9-0.1-5-1.9-1.7 0-0.6-0.2-0.3-0.1-0.2-0.1-0.5-0.5-0.2-0.1-0.7-0.2-0.6 0.2-0.3 0.2-0.5 0.4-0.3 0.1-0.4 0-0.4-0.3-0.3-0.1-0.6 0.3-0.6 0.3-0.4 0-0.1-0.9 0.9-1.9 0.2 0 0.2 0 0.2 0.2 0.2 0.4 0.6 0.3 0.7 0 0.7-0.4 0.4-0.5-0.2-0.7 0.1-0.3 0.3 0 0.4 0.3-0.3-1.4-1.4-2.4-0.3-1.5 0.3-1.7 0.9-1 2.1-1.6 0.3-0.4 0.4-0.7 0.2-0.7 0.1-0.7-0.2-1.1-0.4-0.6-0.4-0.4-0.5-0.8-0.6 0.1-0.5 0-0.3-1.1-0.7 0-0.6-0.2-0.3-0.8 0.3 0 0.3-0.3 0.1-0.4 0.1-0.7-0.4-2.4-1-1-1.3-0.7-0.9-1.1-0.3-0.8-0.1-0.5 0-0.8-0.1-0.2-0.2-0.3-0.2-0.3-0.2-0.1-0.4-0.3-0.2-0.9-0.1-1-0.3-0.8-0.5-0.5-0.5-0.3-0.3-0.5-0.1-1.1-0.2-0.5-2.7-3.6-0.2-0.3-1.2-2.7-0.3-0.5-0.3-1.7-0.1-0.6-0.7-1.6-0.4-1.2-1.2-0.9-0.4-0.7 5.9 2.5 0.2 0.2 0.4 0.8 0.3 0.2 0.2 0.1 0.5 0.5 0.2 0.1 0.3 0 0.4-0.3 0.2 0 1.3 0.1 0.6-0.1 0.5-0.4 0.4-0.8 0.2-0.8-0.1-0.7-1.4-0.8-0.6-1.2-1-2.5-2.7-2-0.6-1.2 1-2 1.8-0.7 3.6 1.4 1.7-0.7 0.5-0.7 0.4-1 0.4-1.1 0.2-1.2-0.1-1.1-1-2.5-0.5-2.4-0.4-0.7-0.9-0.2-0.8 0-1.2 0.5-0.5 0-0.4 0-0.5-0.2-1.6-1.8-0.2-0.7-0.2-1.2-0.5-0.6-0.5-0.5-0.5-0.9-0.6-2.1 0.1-1.2 0-0.6-2-1.4-0.1-0.2 0-0.2 0-0.2-0.1-0.2-0.2-0.1-0.5-0.1-0.1-0.1-0.6-1.1-0.3-0.3-1-0.3-0.8-0.5-1.1-0.4-0.6-0.6-0.3-1-0.1-1.2 0.1-0.3 0.2-0.5 0.1-0.1 0-0.4-0.2-0.5 0-0.3-0.1-0.3-0.1-0.4-0.3-0.4-0.9-0.5-1-0.7-0.7-1-0.1-1.1-0.2-0.1-0.6-0.6 0.6-0.9-0.1-0.7-0.9-1.5-0.1-0.4-0.1-1.2 0-0.5-0.2 0-0.9 0.1-0.4-0.3 1-0.9 0.3-0.4-0.3-0.2-0.7-0.1-0.6-0.1-0.5-0.4-0.6-0.6 0.8 0 0.4-0.1 0.5-0.2-0.5-0.3-0.4-0.1-1-0.1 0-0.3 0.3-0.4 0.2-0.3 0.2-0.4 0.7-0.2 0.2-0.3 0-0.4-0.2-0.3 0.1-0.7-0.2-0.5-0.4-0.4-0.3-0.4-0.1-0.1-0.1-0.3-0.1-0.2-0.2-0.2-0.3 0.1-0.5 0.3-0.2 0-0.5-0.6 0.4-0.7 0.8-0.8 0.6-0.9-1.5 0 0.7-0.5 0.3-0.5-0.1-0.7-0.9-2-0.2-0.2-0.3 0-0.2 0.3-0.2 0.3-0.2 0.2-0.5 0.8-0.4 3.8-0.4 1.1-0.2-0.9-0.7 0.1-0.5 0 0.3-1.5-0.3 0.1-0.3-0.1-0.3-0.1-0.3-0.2 0.3-0.6 0-0.7-0.2-0.9-0.1-0.9 0.1-0.9 0.3-0.7 0.4-0.4 0.4-0.3-0.5-0.5-0.5-0.3 0.2-0.1 0.4-0.3-0.6-0.6-0.2-0.2 0.4-0.8-0.2-3.2 0.2-1.5-0.1-0.1-0.4-0.2-0.1 0-0.2 0.8-0.4 0.4-0.3-0.1-0.2-0.5-0.1-0.9-0.3-0.6-0.2-0.5-0.2-0.6 0.3-1.2 2-0.2 0.4-0.9-0.7 0.4-0.8 0.1-0.9 0-0.7-0.1-1.6-0.9-0.7-0.1 0.2 1-0.4 0.1-0.6 0-0.4-0.3-0.1-0.6 0.1-0.7 2.9-3 0.2-0.4 0-0.4-0.6-0.1-0.7 0.1-0.4 0.2-0.8-1-0.6-1.2-0.6-0.8-0.9-0.1 0.6-0.8 0.4-0.3 0.4-0.1-0.3-1.2 0.4-0.5 1.6-0.7 0-0.3-0.4 0 0-0.4 0.3-0.1 0.1-0.1 0.2-0.6-0.9-0.5 0.2-1 1.3-2.4 0.4-1.4 0.1-0.9-0.2-0.7-0.2-0.5-0.2-0.6 0.1-0.6 0.5-0.4-0.1-0.2-0.1-0.2-0.1-0.4 0.8-0.2 0.3-1 0.3-3.8 0.1-0.4 0.3-0.1 0.4-0.1 0.3-0.1 0.3-0.4 0.2-0.6-0.5 0.1-0.4-0.2-0.3-0.5-0.2-1.5-0.3-0.5-0.4-0.4-0.2-0.6-0.2-1.3 0.5-0.9 1.7-0.9-0.3-0.7-0.7 0.1-1.3 0.9-1.6-0.1-0.8 0.1 0 0.8-0.5 0.3-0.9 0.1-1.6 1.5-0.3 0.1-0.2 0.3-0.6 1-0.3 0.3-0.4 0.1-0.5 0-0.4-0.2-0.4-0.3 0.1 0.3 0.3 0.9-1-0.3-0.3-0.9 0.2-1.3 0.5-1.4 0.7-1.7 0.8-1.2 1.6-1.9-0.4-0.4 0.4-0.6 0.5-0.5 1-0.5-0.5-0.9-0.8 0.4-0.7 0.9-0.5 0.8-0.3-0.7-0.6-2-0.2-0.9-0.1 0 0.1 1.7 0 2-0.3 2-0.6 1.7-0.8 1.4-0.9 1-2.1 1.7 0.2-0.8 0.4-0.7 0.4-0.5 0.4-0.3 0-0.5-0.5 0.1-0.8 0.5-0.3-0.1-0.2-0.8 0.2-0.6 0.3-0.4 0.4-0.2 1.1-0.1-0.3-0.5-0.5-0.8 0-1.4-0.5 0-0.3 0.5-0.2 0.7-0.2 0.8-0.4 0.3-0.5 0.2-0.3-0.1 0.2-0.6 1.1-2.4 0.6-1.2 0.3-0.6 0.2-0.8-0.3 0.6-1.2 1.9-0.5 0.4-0.3 0.3-0.1 0.2-0.2 0.7-0.1 0.3-0.8 0.4-0.9-0.3-0.8 0-0.6 1.5-0.4-0.4 0-0.4 0.1-0.4 0.1-0.6-0.1-0.5-0.6-1.3 0.2-1 0.4-0.3 1.1 0.1-0.2-1.2 0.3-0.5 0.5-0.4 0.5-0.7-1.1-0.7-0.2-0.3-0.1-0.3-0.2-0.5-0.1-0.4 0.1-0.2 0.1-0.3 0.1-0.1 0.1 0 0-1.7 0.1-0.4 0.3-0.5 0.2-0.2 0.3-0.2 0.1-0.6-0.6 0 0.1-0.7-0.1-0.2-0.3-0.2-0.1-0.4 0-0.6 0.2-0.5 0-0.5-0.3-0.9-1.2-1.7 0.1-1.2 0.2-0.5-0.2-0.2-0.8 0-0.3-0.4 0.1-1.1 0.3-1 0.6-0.2-0.1-0.8 0.2-0.5 0.3-0.5 0.3-0.7 0-0.5 0-2.1-0.2-0.3-0.3-0.1-0.4-0.2-0.2-0.6 0-1.4 0-0.6-0.2-0.6 0.1-0.2 0.1-0.2 0-0.4-1.5-0.5-0.8-0.6-0.4-0.7 0.3-0.9 0.7-0.6 1.3-0.8-1.3 0.1-0.5-0.2-0.3-0.8 0.2-0.8 0.3-0.6 1.9-2.9 0.8-0.6 3.1-0.5 1 0.4 0.4 1.7 0.3 1.3 0.5 1.3 0.6 1.1 0.5 0.5 0.2 0 0 0.1 0.5 1.8 0 3.8 0.9 0.5 2 0.1 1.9-0.5 1.6-1.6 0.9-3.1 0.2-1.5 0.3-1.3 0.7-2.6 0.4-1.6 0.1-2.8 0.8-3.7 0.3-1 0.5-0.9 0.3-0.9 0-1.3-0.2-1.3-0.7-4-3.2-11.9-0.2-1.3 0.1-1.6 0.6-0.9 4.1-2.2 0.7-0.9 1.2-1.9 0.2-0.5 0-1.1 0.2-2.3-0.1-0.9-0.3-1-0.2-0.2-0.9-1.1-0.4-0.9 0.2-2.1 0.8-0.7 0.5-0.5 1.5-0.5 4.9 0.4 1.3-0.2 4.4-3.7 4.8-5.6 1.1-1.8 0.8-2.3 0.4-2.6-0.1-2.2-0.7-4-0.3-2 0.1-1 0.4-0.9 1.7-2.1 0.5-0.9 0.5-1.2 0.4-1.5 0.2-2.2-0.1-1.9-0.5-1.8-3.3-8.8-3.3-6-0.8-2.4-0.4-2.3-0.7-4.5-0.5-2.1-1.2-2.9-0.1-1.3 0.8-0.8 7-2.1 1.8-0.1 3.4 0.6 0.7-0.3 0.2-0.7 0.1-0.3 0.6-4.2 0.1-0.9 0.3-0.6 2.2-3.3 0.6-1.4 0.5-1.8 1-6-0.1-0.7-0.3-0.6-8-11.2-0.9-0.9-1-0.4-2-0.1-1.2-0.3-0.9-0.5-2.3-3.3-1.5-1.1-3.5-3.9-0.4-0.9 2.4-16.3 2.3-16.6 0-2.4-0.1-1-0.8-3.2-0.2-0.6-5.7-15.9-0.1-1.3 0.4-1.8 1.1-3.2 0.5-1.9 0-1.5-1.8-10.2-0.1-1.3 0.4-1.1 3.6-5.2-5-13.7-2-5.6 6.4-11.3 0.5-1.3 0-1.5-1.5-6.9 3.7-4.1 5.8-10.4 6-10.2 2.2-2.4 6.9-4.7 7.7-2.2 10.7 2.8 10.7 2.9 0.7 0 0.6-0.7 5-10.4 0.4-1.3 0-1.3-1.4-16.5-0.5-1.7-1.1-0.8-2.4-0.5-1.3-0.5-9-6.6 8-14.4 8.1-14.6 4.2-6.7 0.6-2.1 0-0.1 0.2-0.6 0.8-6.7 0.5-1.7 0.6-1.1 2.5-2.5 0.9-2.1 0.2-3.4-0.3-3.8 0-3.5 1.5-17.3 0.3-1.2 2.1-4.8 0.3-1.5-0.1-3-3.2-21.1 7.8-1.1 7.8-1 13-9.2 0.3-0.9 0-1.6-0.3-2.4-0.2-1.1-1.4-8.2-0.1-2.1 7.4-8.3 11.2-22.2 2.7-3.6 5.6-5.8 1.8-1.2 0.9-0.9 0.5-1.3 0.8-10.1-0.2-1.4-9.4-17.5 1.6-5.8 0.6-1 5.1-1 1.9-1 1.6-1.9 3.2-5.4 0.6-1.7 4.7-18.5 0.6-1.6 0.8-1.1 12.5-10.5 2.4-4.7 0.7-0.6 8.7 5.5 8.7 5.5 0.8-0.2 0.9-1.5 0.9-2 5.6-11.6 0.7-3.3-1.6-16.2 0-2.5 0.6-7.6 0.2-1 0.3-0.5 0.5-0.2 7.5-2.9 1.4 1 4.9 5 1.7 0.5 10.3-0.8 13.4 6.7 13.7 6.1 1.2-0.1 1.2-1 7.1-9.4-8.6-5.3 5.8-5.4 2.6-4.4 3.1-8.9 0.4-1.7 0.1-1.6-0.2-7.4-0.3-1.5-7.2-9.4 7.9-0.6 7.9-0.6z m-106.2 800.8l-0.9 0.1-0.6 0.7-1 1.9 0.7 1.6 0 0.9-0.5 1.4 0 0.5 0 0.2-0.1 0.1-0.4 0.2-0.1 0.1-0.2 0.5-0.1 0.9-0.1 0.5-1.3 2.4-0.2 0.9-0.2 1.4-0.5 0.7-0.7 0.3-0.7 0.4 0.2 0.5 0.3 0.3 0.3 0.3 0.3 0.1-0.6 0.5-0.5 0.7-0.8 1.5 0.2 0.7 0.2 1.1-0.1 1.1-0.4 0.5-0.3 0.6-0.5 2.9-0.4 1-1.4 0.9-0.2 0.3-0.2 0.4-0.2 0.6 0 0.5 0 0.6-0.2 1.1-1.8 5.6-0.2 1.1-0.1 1.3-0.1 0.5-0.3 0.5-0.3 0.5-0.2 0.2-0.4 0.2-0.2 0.4-0.2 1.3 0 0.3 0.2 0.1 0 0.3-0.1 0.3-0.2 0.6-0.1 0.2-0.1 1 0 0.6-0.2 0.5-0.5 1-0.4 1.2-0.3 1.1-0.2 1 0 0.5 0 1.2-0.1 0.6-0.4 0.8-0.1 0.5-0.2 0.9-1.6 3.6-0.5 0.7-0.7 0.5-0.7 0-0.4-0.6-0.1-0.5 0.1-1.3 0-0.5-0.4-1.5 0.2-1.2 0-1.3 0-2.4 0.2-0.8-0.2-1-0.3-1-0.2-1.1 0.3-4.7 0-0.6 0.6-1.7 0.7-1.3 0.1-0.4 0.2-1.1 5.1-13 0.5-0.6 0.6-0.2 1-0.1 0.8-0.2 0.4-0.7 0.6-2.1 1.3-3.5 1.6-3 1.3-3.4 0.5-4.1 0.2-0.6 0.2-0.2 0.7-0.3 0.4-0.6 0.2-0.4 0-3.2 0.2-1 0.7-0.7 0.9-1.5 0.5-0.5 0.6-0.3 0.3 0 0.2 0.8 0.3 0.1 0.3-0.1 0.1-0.5 0.3 0 0 0.2 0 0.2 0.1 0.1 0.1 0.2 0.1 0.3 0.1 0.2 0.1 0.3 0.1 0.4z m58.1-31.1l0.3 0.3 0.9 1.6 0.2 0.5-2.1 0.2-0.9 0.8-0.1 2.1-0.4-0.5-0.4-0.3-0.2 0.2-0.1 0.6-0.3 0.5-0.1 0.6 0 0.6 0.2 0.7-1.2 0.3-1.1 0-0.4-0.1-0.6-0.5-0.3-0.1-0.4 0.1-0.1 0.4 0.1 0.5 0.1 0.5-0.5 1.9-0.5 1.4-0.1 0.6-0.2 0.4-0.1 0.4-0.1 0.6 0.2 0.1 1.3 0.4-0.3 0.9-0.2 0.8-0.1 0.8-0.1 0.9-0.2 0.7-0.4 0.8-0.2 0.8 0.4 0.5-0.2 0.9 0.1 0.6 0.4 0.2 0.5-0.1-0.1 0.3-0.3 0.9 1.2 0.5 1.2 0.2 0.2-0.1 0-0.4 0.2-0.2 0.4 0.2 0.4 0.3 0.2 0.2 0.2 0.4 0.2 0.6 0.1 0.8-0.1 0.6-0.5 0.3-1 0-0.1 0-0.3-0.3-0.2 0-0.1 0.1-0.4 0.5-0.2 0.1-1 0.3-1 0.6-0.8 1-0.7 1-1.2 1.1-0.4 0.7 0.2 1.1 0.2 0.1 0.7-0.1 0.2 0.2 0.1 1.8-1 0.5 0 0.2-2.7 0.6-0.8 0.5 0 0.5 0.4 0 0 0.3-0.7 0.2-3.8 2.1-0.7 0.7-0.6 0.8 2.1 0-0.8 0.6-2.1 1.2-0.5 0.7-0.2 2.9 0.3 0.7 0.5 0.4 1.1 0.4-1.7 0 0 0.4 0.4 0.4-0.8 0.7-0.3 0.5-0.3 1.1-0.4 0.4-2.9 1.5-1 0.1-0.9-0.5 1.9-3.6 0.1-0.5 0-0.5-0.1-0.7 0.4-0.5 1.1-0.4 0.4-0.5 0.3-0.7 0.2-1.5 0.3-0.6-0.8 0.4-0.6 0.8-0.7 0.6-0.6-0.3 0-0.4 0.4-0.5 0.3-0.7 0.1-0.8-0.4-0.3 0.1-0.3 0.2-0.5 0.1-0.3-1.3-0.6-0.8-4.8-1.8-1.6 0-1.1 0.5-1.1 1.1-0.9 0.4-1 0.2-1.2-0.2-0.8 0.4-0.7-0.1-0.4-0.3-0.2-0.2-0.2-0.1-0.3-0.3-0.5-0.1-0.3 0.1-0.7-0.1-0.4-0.3-0.7-0.4-1.1-0.2-1.3 0-1.3 0.4-2.1 1.1-1.7 4.9-5.4 4.2-7.4 1.1-1.3 1.6-0.8 0.4 0.1 0.4 0.3 0.5 0.1 0.4-0.3 0.2-0.4 0.2-0.8 0.2-0.6 0.4-1 0.5-0.9 0.6-0.7 0.7-0.5 0.7-0.1 0.6 0.3 0.4 0.7 0.4 1.1 0 0.2 0 0.3-0.1 0.2-0.1 0.2 0.1 0.4 0.1 0.1 0.2 0.1 0 0.2 0.1 0.6 0.2 0.4 0.5 0.8 0.3-1.5 0.5-0.7 0.5-0.5 0.2-1-0.1-0.4-0.3-0.4 0-0.4 0.4-0.2 1.9-0.4 0 0.4-0.5 1 0.6 0.5 0.7 0 0-0.8 0.5-0.3 0.6-0.2 0.6 0 0.4 0.2-0.2 0.3 0.1 0.6 0.2 0.6 0.4 0.6 0.4 0.2z m7.1-6.2l1 0 0.5 0.2 0.5 0.5-0.2 0.3-0.2 0.1-0.2 0.1-0.3-0.1-0.4 0.8-1.5-0.5-0.6 0.3-0.7 0.7-1.3 0.5-0.6 1 0.4 0.3 0.2 0.4 0.1 0.4-0.1 0.5-0.9 1.6 0 0.3-0.5-0.1-0.5-0.2-0.4-0.4-0.4-0.5-1.1-2.1 0.1-0.7 0.2-0.4 0.7-0.9 0.2-0.5 0.1-0.6 0.2-0.6 0.4-0.4 0.5-0.2 1 0 0.5-0.4 0.2 0 0.5 0.1 0.6 0.1 0.5-0.4 0.1 0.9 0.4 0.2 1-0.3z m-228.7-4.7l0 1 0 0.3 0.2 0.3-0.3 1.5-0.1 0.4-0.4 0.3-0.3-0.1-0.1-0.3 0.1-0.7-0.5-0.2-0.4 0.5-0.4 0.9-0.2 1.5-0.3 0.5-0.3 0.2-0.7-0.1-0.2 0.3-0.2 0.4-0.3 0.3-0.4 0-0.3-0.2-0.2-0.4-0.2-0.2-0.8 0-0.1-0.2-0.1-0.7-0.1-0.5-0.2-0.5-0.1-0.5 0.1-0.5 0.3-0.3 0.9 0.2 0.4-0.1-0.6-0.3-0.7 0-0.6-0.2-0.2-0.9 0.2-1 0.6-0.3 1.3 0.3 2.8 0 0.6-0.2 0.6-0.5 0.5-0.4 0.7 0.4z m2-9.9l0.2 1.1 0.1 1.3 0 2.5-0.3 1.1-0.7 0.3-0.8 0.2-1.5 1.1-1.6-0.6-0.8 0.5-0.5-1.1-0.8-0.2-0.9 0.3-0.6 0.6-0.4 0.6-0.1 0.4-0.1 0.2-0.3 0-0.3-0.2-1-1 0 2-0.2 0-0.2-1.4-0.1-0.4-0.9-1.1-0.3-0.5 0.1-0.8 0.6-0.9 3-3 1-0.4 0.8-0.7 0.4-0.3 0.5 0 0.9 0.2 0.5-0.2-0.2-0.6 0.1-0.6 0.2-0.5 0.3-0.3-0.1-0.5-0.1-0.3 0.5-0.3 0.5 0 1.1 0.3 0.3 1.3 0.6 0.6 0.6 0.4 0.5 0.9z m228.5-7.9l-1.2 1-1.3 0.4-1.1-0.7-0.8-2.3 1.1 0 0.8 0.5 1.7 0.4 0.8 0.7z m-27.4-52.2l-0.1-0.2-0.3-0.8-0.1-0.3-0.5-0.4-1.6-0.8 3.6 0.1 1.8 0.5 2.7 1.9-1.5 0-0.7-0.1-0.7-0.7 0.1 1.3 0.4 0.4 1.4-0.1-0.8 1.1-0.9-0.2-1.6-1.4-1.2-0.3z m3.7-64.5l0.1 0.1 0.2 0.1 0.2 0.1 0.1 0.3-0.1 0.6-0.3 0-1.3-0.9-1.7-2-1.7-1-0.4-1.3-0.2-1.6 0.2-3.1-0.1-0.7-0.4-1.3 0.2-0.5 0.3-0.1 0.5 0.3 0.1 0.3 0.4 0.6 0.1 0.3 0 0.2 0 0.4-0.1 0.3 0.1 0.4 0.4 0.6 0.8 0.8 0.3 0.7-0.5-0.1-0.7-0.6-0.5-0.1 0.3 0.8 1.4 3 0.3 0.9 0.3 0.6 0.4 0.1 0.6-0.8 0.1 0.9 0.2 0.6 0.4 1.1z m69.5-223.1l0.7-2.1 1.2 0.3 0.5 1.3-1.4 1.4 0.2-0.5-0.2-0.7-0.3-0.2-0.4 0.2-0.3 0.3z m-71.5 297.1l0.1 0.1 0 0.4 0 0.2-0.2 0.2-0.8 1.5-0.6 0.4-0.1 0.4-0.1 0.3 0 0.4-0.1 0.3-0.1 0.3-0.1 0.2-0.2 0.3-0.2 0.2-0.3-0.1-0.2 0-0.1 0.2-0.3 0-0.3-0.1-0.4-0.4-0.3-0.6-0.1-0.4 0.2-0.3 0.2 0.1 0.2-0.2-0.1-0.3-0.2-0.5 0-0.2 0.2 0 0.3-0.1 0.3-0.3 0.1-0.4-0.3-0.2 0.1-0.3 1.3-0.9 0.5-0.6 0.5-0.5 0.5-0.3 0.4 0 0.2 0.7 0 0.5z m7-6.6l0.8 0.1 0.2 0.1-0.3 0.4-2.1 1.4-0.3-0.1 0.2-0.7 0.3-0.6 0.4-0.6 0.4-0.2 0.4 0.2z m2.5-5.1l0.1 0 0.3 0.3-0.1 0.4-0.3 0.3-0.2 0.3-0.4 0.7 0 0.2 0 0.2-0.1 0.1-0.2 0.1-0.2 0-0.3-0.3-0.3-0.2-0.2 0-0.1 0-0.3-0.2 0.1-0.6 0.4-0.7 0.6-0.6 0.5-0.2 0.4 0.1 0.3 0.1z m-3.7-2.7l-0.4-0.4-0.3-0.5-0.2-0.3-0.3-0.5 0.3-0.2 1.2 0 0.1-0.1 0.3 0 0.2 0.1 0.3 0.3 0.5 0.8 0.2 0.1 0.1 0.1 0 0.3 0.1 0.8-0.1 0.7-0.5 0.5-1.3 0.7-0.2 0-0.1-0.3 0.1-0.4 0.2-0.1 0.1-0.2-0.1-0.4 0-0.5-0.2-0.5z m-17.3-2.7l0.5-0.2 3.5 0.9 0.3 0.4-0.5 0.1-0.2 0-0.7 0 0.2 0.2 0.4 0.6-0.3 0.6-0.7 0.2-0.7-0.1-0.8-0.5-0.5-0.5-0.2-0.5-0.1-0.4-0.2-0.3 0-0.5z m22.7-1l0.3 0.1 0.2 0.4-0.2 0.2-0.3 0.3-0.2-0.2 0-0.4 0.2-0.4z m2.7 0.5l0.1 0.3 0 0.6-0.3 0.3-0.5-0.3-0.4-0.6-0.1-0.1-0.1-0.2 0-0.4 0.2-0.4 0.4 0.1 0.5 0.4 0.2 0.3z m-0.5-2.4l-0.5 0.9-0.5 0.7-0.7-0.1-0.3-0.9 0.4-1 0.7-0.3 0.4-0.1 0.2 0.1 0.2 0.3 0.1 0.4z m-8.2-4.4l-0.3 0.2-0.3 0.3-0.1 0.6-0.3 0-0.5-0.3-0.1 0.1 0 0.3-0.1 0.1-0.2-0.1 0.3 1.2-0.1 0.7-0.3 0.2-0.3-0.2-0.1-0.5 0.1 2-0.2-0.1-0.4 0.2-0.2 0.4-0.1 0-0.2-0.4-0.1-0.5-0.2-0.6-0.2-0.4-0.3-0.6 0-0.6-0.1-0.3-0.1-0.2 0.1-0.5 0.3-0.3 0.4 0 0.3 0.2 0.3 0.6-0.1-0.3 0.1-0.2 0.2-0.1 0.2-0.1 0.2-0.1-0.3 0-0.1 0-0.1-0.1-0.2-0.1-0.2 0-0.1-0.2 0.2-0.5 0.3-0.4 0.6-0.8 0.3-0.5 0.6-0.4 0.7-0.2 0.6 0 0.6 0.2 0.3 0.4 0 0.2 0.2 0.1 0.1 0 1.4-0.4-0.1 0.3-1.7 0.9-0.7 0.8z m9.7-7.6l0.2 0.1 0.1 0.2-0.1 0.3-0.1 0-0.1 0.1-0.3 0.2-0.3 0.1-0.6-0.1-0.3-0.2-0.4 1.8-0.3 0.6-0.3 0.1-0.3 0.1-0.6-0.3-0.2-0.7 0.3-0.6 2.1-2.6 0.5-0.2 0.3 0.3 0.4 0.8z m-3.7 2l-0.7 0.6-0.1 0.1 0 0.2-0.1 0.1-0.3 0.1-0.2 0-0.8 0.5-0.4 0.1-0.4 0 0-0.2 0.6-0.3 0.6-0.5 0.6-0.8 0.3-0.4 1.2-1.4 1.8-1.5 0 0.6-0.6 0.8-1.4 1.9-0.1 0.1z m4.3-12.6l0.1 0.1 0.1 0.2 0 0.3-0.2 0.3-0.3 0.4-0.4 0.1-0.5 0-0.4-0.2-0.2-0.1-0.1 0.1-0.2 0.2-0.3 0-0.8 0.1-0.2-0.5 0.4-1 1.3-2.3 0.3-0.8 0.3-0.1 0.3 0.1 0.3 0.2 0.3 0.5 0.2 0.6 0 0.8-0.1 0.8 0 0.4 0.1-0.1 0-0.1z m-8.3-23.5l0.2 0 0-0.2-0.5-0.7 0.2-0.3 0.6 0.1 0.4 0.4 0.3 0.3 0.1 0.5 0.2 0.2 0.3 0.2 0.2 0.3 0 0.4-0.1 0.1 0 0.1 0.1-0.1 0.2-0.1 0.2 0.1 0.1 0.5 0.1 0.4-0.8 0.5-0.6 0.2-0.8-0.2-0.4-0.1-0.1-0.4-0.2-0.7 0-0.6 0.1-0.3 0.1-0.4 0.1-0.2z m-91.6 235.1l0.4 0 0.2-0.1 0 0.3-0.3 0.3-0.4 0.1-0.1 0.3 0.1 0.6 0 0.5 0 0.2-0.2 0.1-0.2 0-0.2 0-1-0.8-0.2-0.8 0.4-0.8 0.4-0.3 0.2 0.2 0.2 0.2 0.3 0 0.4 0z m35.3-122.7l0.3 0.3 0.1 0.4-0.1 0.7-0.3 0.5-0.4 0-0.2-0.2-0.4-0.9-0.1-0.8 0.4-0.3 0.7 0.3z m0.7-1.7l0.6-0.2 0.2 0.1-0.1 0.1-0.2 0.3-0.1 0.2-0.3 0.3-0.4 0.2-0.5 0-0.6-0.2-0.5-0.4-0.4-0.7-0.2-0.5-0.1-0.3-0.2-0.3 0.1-0.4-0.2-0.3-0.3-0.5 0.1-0.6 0.6-0.3 0.2 0 0.4-0.3 0.2 0 0.2 0.1 0.4-0.2 0.1 0.1 0.2 0.1-0.1 0.4-0.3 0.5-0.4 0.1-0.3 0 0.6 0.5-0.1 0.2-0.3 0-0.2 0.3 0.1 0.4 0.4 0.7 0.8 0.7 0.6-0.1z m43.4-37l0.9-0.7 0.2 0.2-0.1 0.6-0.5 0.5-0.6 0.4-0.3 0.2-0.2 0.1-0.2 0-0.1 0.3 0.2 0.4 0.5 0.2 0.1 0.2-0.9 0.2-0.5 0.3-1 0.3-0.7 0.5-0.3 0-0.2-0.2-0.2-0.1 0.1-0.6 0.5-0.8 0.4-0.6 1.1-0.9 0.5-0.1 0.4 0 0.2-0.1 0.2-0.1 0.5-0.2z m-3.7-2.4l-0.1 0.7-0.2 0.2-0.2-0.3-0.2-0.2-0.3 0.3-0.2 0-0.3-0.5-0.1 0.1 0.1 0.6 0 0.5 0 0.5-0.1 0.5-0.5 0.2-0.4-0.1-0.5-0.7-0.2 0-0.2 0.2-0.5 0.6-0.4 0.3-0.2-0.1 0-0.3 0.1-0.2 0.1-0.9 0.2-0.3 0.4-0.2 0.1-0.2 0-0.3 0.1-0.4 0.3-0.5 0.3-0.3 0.7 0.1 0.7-0.3 0.7-0.1 1.3 0.2 0 0.3-1.1 0.5 0 0.1 0.2-0.1 0.2-0.1 0.2 0.2z m-14.9 0.9l-0.2 0.5 0 0.5 0.1 0.7 0 0.6-0.1 0.6-0.1 0.5-0.1 0.4-0.2 0.3-0.2 0.1 0 0.5 0.3 0.7-0.2 0.1-0.8-1.3-0.1 0.3-0.2-0.1-0.3-0.7 0-1-0.2-0.5-0.2 0 0-0.4 0-1.1 0.3-0.9 0.3-0.7 0.1-0.5-0.1-0.3 0-0.7-0.1-1.6 0.3-0.6 0.3 0 0.1 0.4 0.1 0.4 0.1 0 0.2 0.1 0.2 0.4 0.3 0.6 0.2 0.9 0.1 0.9 0.1 0.9z m12.6-230.5l-1.3 0.6-1.6-0.3-0.7-1.4 0.3-1.1 0.3-0.9 0.1-0.7 0.4-0.6 0.7-0.2 0.5 0.2 0.4 0.4 0.3 0.2 0.7-0.4 0.7 0.1 0.3 0.2 0 0.5-0.1 0.9-0.2 0.7-0.1 0.4-0.1 0.2-0.4-0.1-0.3 0.1-0.1 0.3 0.2 0.2 0.2 0.4-0.2 0.3z m83.4-66l-0.2 0.7-0.2 0.5-0.4 0.5-0.6 0 0.1-0.6 1.1-1.6 0.2 0.1 0 0.4z m0.8-5.8l0.3-0.2 0.4-0.5 0.6-0.6 0.3-0.1-0.1 0.1-0.1 0.2-0.1 0.3 0.1 0.3 0 0.3-0.2 0.3-0.1 0.5 0.1 0.5 0 0.7-0.1 0.8-0.3 0.9-0.4 0.5-0.5 0.4-0.2-0.1-0.2 0-0.5 0.5-0.1-0.7 0.6-3.3 0.3-0.5 0.2-0.3z m45.9-120.5l0.3 0.4-0.2 0.6-0.7 0.6-0.4 0.2-2.5 0.2-0.2-0.3 0-0.8 0.2-0.7 0.4-0.2 0.3 0.2 0.1 0.4 0.4 0.3 0.6-0.5 0.6-0.7 0.6 0 0.5 0.3z m-7.7 1.8l-0.2-0.3-0.2-0.8 0.1-0.6 0.1-0.3 0-0.8 0.2-0.4 0.6 0 1.1 0.6 0.1 0.5-0.2 0.2 0 0.5 0.3 0.6 0.3 0.4 0.1 0.3 0.1 0.6-0.1 0.4-0.3-0.1-0.3-0.2-0.3-0.2-1.4-0.4z m13.4-7.1l0.4 0.3 0.2 0.5-0.1 0.4-0.2 0.1-0.5-0.1-0.7-0.4-0.4-1 0.2-0.6 0.5 0.4 0.3 0.3 0.3 0.1z m-11.5 1.5l-0.7-1.4-0.2-0.8 0.3-0.3 0.4-0.3 0.5 0.1 2.3 1.6 0.2 0 0.3-0.1 0.2 0.2 0.3 0.6 0.7 0.6 0 0.7-0.5 0.3-0.3-0.1-0.4-0.6-0.4-0.5-0.4-0.3-0.4-0.1-0.3 0.2 0.1 0.6-0.1 0.1 0 0.3 0.1 0.4 0.3 0.6 0.1 0.3-0.2 0-0.4-0.2-1.5-1.9z m10.9-5.5l1.5-0.8 0.5 0.3-0.2 0.7-0.4 0.3-0.3 0.3 0 0.6-0.2 0.4-0.3 0.3-0.3-0.1-0.3-0.2-0.1 0 0.1 0.3-0.2-0.1-0.9-0.6-0.2-0.3-0.1-0.7 0.2-0.3 0.3-0.1 0.4 0.1 0.5-0.1z m-0.2-0.9l-0.3-0.5-0.2-0.3 0.4-0.5 0.9-0.1 0.2 1-0.4 0.5-0.6-0.1z m11.9-9l0.5 0.5 0.2 0.7-0.1 0.5-0.3-0.1-0.2 0-0.1 0.4 0 0.6 0.3 1.1-0.4-0.3-1-1-0.8-1.3-0.5-1.4 0.1-1.2 0.6-0.4 0.7 0 0.8 0.7 0.1 0.6-0.4 0 0 0.2 0.5 0.4z m25.4-2.7l0.1 0.3 0 0.4-0.1 0.7-0.2 0.4-0.2 0.3-0.1 0.3 0.1 0.2-0.4 0.5-1 1.1-1.2-0.8-0.6-1.1 0-1.5 0.3-0.4 0.2 0.6 0.2 0.3 0.2-0.3 0.1-0.9 0.2 0.1 0.3 0.4 0.4 0.2 0.3 0.1 0.4-0.2 0.3-0.4 0.2 0.1 0.1 0.3 0.1-0.2 0.1-0.5 0.2 0z m-32.1 2.9l-0.3-0.3-0.2-0.4 0-0.5 0.2-0.6 0-1 0.1-1.1 0.4-0.3 1.3 1.5 0.4 1.2 0.2 1.5-0.2 0.7-1.3-0.3-0.6-0.4z" id="SE" name="Sweden">
  </path>
 </g>
 <g id="points">
  <circle class="56.02736200368693|11.760927344514418" cx="321.6" cy="917.7" id="0">
  </circle>
  <circle class="61.504833075544866|18.28855165779902" cx="519.8" cy="596.2" id="1">
  </circle>
  <circle class="68.3516719153673|23.5106511084267" cx="678.4" cy="102.7" id="2">
  </circle>
 </g>
 <g id="label_points">
  <circle class="Sweden" cx="541.9" cy="297.4" id="SE">
  </circle>
 </g>
</svg>