<?xml version="1.0" encoding="UTF-8" standalone="no"?>
<?xml-stylesheet type="text/css" href="/styles/home.css"?>
<!-- https://www.amcharts.com/svg-maps -->

<svg version="1.1" xmlns="http://www.w3.org/2000/svg" id="map-andorra" viewBox="0 0 792.55579 647.32111" width="792.55579" height="647.32111">
   <defs id="defs4">
      <style type="text/css" id="style2">
         .land {
            fill: #f5c32c;
            fill-opacity: 1;
            stroke: white;
            stroke-opacity: 1;
            stroke-width: 0.5;
         }
      </style>
      <!-- <amcharts:ammap
       projection="mercator"
       leftLongitude="1.409457"
       topLatitude="42.654913"
       rightLongitude="1.786852"
       bottomLatitude="42.426982" /> -->
      <!-- All areas are listed in the line below. You can use this list in your script. -->
      <!--{id:"AD-02"},{id:"AD-03"},{id:"AD-04"},{id:"AD-05"},{id:"AD-06"},{id:"AD-07"},{id:"AD-08"}-->
   </defs>
   <path
      d="m 490.42734,79.88363 20.26,3.25 3.21,10.35 3.04,2.98 2.43,2.12 12.55,5.15 2.87,-1.26 4.43,-5.24 2.37,-0.43 6.12,1.52 3.5,-0.33 4.12,-1.61 2.44,-2.05 4.37,-0.42 4.72,-4.97 6.29,-1.32 2.7,0.2 17.38,6.59 13.33,-0.4 6.57,5.78 7.69,2.15 16.7,13.14 14.21,-0.53 4.89,-2.42 5.68,-0.56 5.82,1.95 5.09,0.18 11.51,-3.96 2.13,2.49 2.34,11.44 -11.99,12.51 -5.12,13.86 -7.74,6.42 -3.27,12.49 0.4,17.34 1,1.69 3.12,2.19 10.74,-0.72 21.01,2.05 23.72,12.21 25.6,7.1 24.35,-3.69 5.06,-2.01 5.37,0.17 4.25,9.97 2.24,2.36 4.34,10.61 -4.68,5.59 -7.52,6.78 -6.24,3.21 -9.24,6.58 -10.12,4.23 -7.61,-1.06 -21.1,0.38 -12.25,2.1 -10.59,8.64 -13.14,15.07 v 0 l -25.9,0.43 -44.69,-5.4 h -8.25 l -6.49,-1.69 -16.23,-0.34 -5.24,1.35 -2.25,3.38 -3.25,2.7 -3.74,-1.69 -2.75,-4.73 -2.74,-1.01 -5.25,0.34 -4.49,5.74 -10.24,7.43 -17.69,17.78 -11.48,5.06 -10.18,-1.62 -7.59,-6.24 -9.87,-0.53 -11.23,-11.34 -2.55,-0.51 -2.77,0.61 -3,2.02 -15.52,3.35 -8.09,6.79 -4.28,6.75 -3.49,0.54 -1.71,-0.96 -6.77,1.67 -4.91,5.1 -2.7,1.21 -4.49,-0.27 -3.99,-1.35 -3.74,-5.16 -6.59,-3.64 -89.23,3.54 v 0 l 11.75,-7.38 3.93,-1.59 2.38,-4.05 3.87,-15.2 v -6.25 l -1.75,-6.58 -2.62,-5.24 -3.6,-2.53 -1.42,-2.44 -1.5,-12.06 -2.92,-6.48 1.42,-23.19 -1.72,-10.14 -1.63,-1.11 0.83,-3.9 2.44,-2.11 2.93,-0.84 4.67,-5.02 6.74,-4.56 3.6,-6.9 0.6,-3.34 -0.68,-4.62 2.25,-13.48 7.11,-8.32 14.32,-3.97 2.32,-2.79 3.37,-2.19 2.24,-3.55 5.5,-5.39 2.24,-4.42 4.75,-4.56 15.86,-4.06 5.86,-0.17 1.58,-6.09 -0.57,-3.3 -2.37,-3.04 -0.27,-3.34 1.89,-8.25 -4.49,-7.37 -0.97,-3.94 v 0 l 3.61,-1.19 7.43,-6.98 3.83,0.65 3,4.39 9.11,-0.17 5.18,2.11 13.06,-2.76 7.25,0.2 7.26,-1.82 3.83,-4.22 8.03,-3.08 7.31,5.84 z"
      class="land" title="Canillo" id="AD-02" />
   <path
      d="m 316.39734,309.05363 89.23,-3.54 6.59,3.64 3.74,5.16 3.99,1.35 4.49,0.27 2.7,-1.21 4.91,-5.1 6.77,-1.67 1.71,0.96 3.49,-0.54 4.28,-6.75 8.09,-6.79 15.52,-3.35 3,-2.02 2.77,-0.61 2.55,0.51 11.23,11.34 9.87,0.53 7.59,6.24 10.18,1.62 11.48,-5.06 17.69,-17.78 10.24,-7.43 4.49,-5.74 5.25,-0.34 2.74,1.01 2.75,4.73 3.74,1.69 3.25,-2.7 2.25,-3.38 5.24,-1.35 16.23,0.34 6.49,1.69 h 8.25 l 44.69,5.4 25.9,-0.43 v 0 l -1.44,2.63 -1.19,6.88 -5.91,7.78 -0.8,3.78 1.2,6.62 -2.2,18.24 1.7,19.35 -4.1,8.91 -3.99,4.19 -2.2,7.83 -5.79,7.02 -6.6,10.13 -2.89,2.01 -0.1,7.93 8.59,4.99 1.5,34.56 -1.8,3.58 -12.59,6.75 -8.35,13.56 -8.13,10.6 -7.89,5.53 -4.19,1.35 -3.6,-0.27 -22.22,-18.08 -5,-2.16 -4.09,-0.41 -8.39,2.16 -11.87,0.92 -11.85,2.86 -9.69,0.41 -7.58,-1.09 -4.91,2.18 -1.12,2.53 v 0 l -11.82,-1.82 -19.38,-5.4 -7.99,-1.08 -20.58,-6.21 -10.58,-1.35 -6.9,-2.49 -11.86,-6.79 h -5.86 l -5.37,5.07 -8.37,2.02 -14.11,-3.71 -5.85,-5.79 -18.87,-10.58 -21.72,-20.42 -7.87,-5.23 -17.23,-14.28 -2.87,-0.17 -6.37,3.55 -5.24,-2.53 -4.86,0.67 -3.17,2.57 -4.57,7.05 -4.74,2.53 -5.25,0.51 -4.86,-1.01 -4.62,-3.88 -3.75,-4.9 -1.75,-5.4 -1.75,-12.83 v 0 l 3.74,-5.3 0.26,-3.81 -1.37,-8.44 1.24,-4.22 5.25,-6.59 7.49,-6.75 7.24,-10.64 2.25,-11.26 2.44,-5.93 v 0 z"
      class="land" title="Encamp" id="AD-03" />
   <path
      d="m 124.76734,137.81363 6.46,8.73 9.55,2.28 3.37,3.72 4.49,0.85 11.61,4.59 1.88,3.69 3.49,1.69 6.11,-1.45 5.75,2.8 3.38,7.94 -0.63,9.73 2.4,10.06 -0.6,11.84 1.2,10.86 2.16,4.54 3.23,3.41 3.72,9.24 6.47,10.19 7.43,6.76 8.63,3.08 2.16,3.4 3.6,9.73 4.91,2.27 2.88,4.38 0.6,4.38 -1.2,2.75 v 9.25 l 2.64,3.89 0.68,4.16 1.96,3.02 11.38,-1.67 1.68,1.13 5.39,0.65 10.19,3.41 7.12,4.02 5.43,1.44 6.03,-1.92 6.37,-0.16 3.62,-2.54 5.61,-1.35 12.12,2.53 4.63,3.04 v 0 l -2.44,5.93 -2.25,11.26 -7.24,10.64 -7.49,6.75 -5.25,6.59 -1.24,4.22 1.37,8.44 -0.26,3.81 -3.74,5.3 v 0 l -1.31,-1.61 -2.19,0.46 -2.67,2.53 -13.36,2.53 -6.87,-1.35 -6.93,-3.24 -10.92,0.71 -3.54,3.21 v 0 l -4.25,-2.19 -4.74,1.18 -4.43,6.92 -3.63,3.21 -15.73,1.68 -3.24,4.39 -4.25,3.38 -6.49,0.33 -4.12,1.19 -3.12,3.71 -2.5,1.35 h -8.61 l -5.75,-1.18 -10.23,1.01 -11.99,4.56 -7.62,1.69 -8.36,5.23 -7.17,1.63 v 0 l 0.76,-1.34 -1.08,-5.18 -10.42,-24.63 -6.36,-10.69 -7.430002,-8.1 -3.23,-5.35 -2.52,-6.81 -1.08,-5.18 0.24,-4.22 2.4,-5.35 0.01,-5.25 -1.68,-2.27 -14.69,-8.52 -3.57,-1.42 -7.55,-0.85 -3.36,0.57 -20.65,11.23 -5.59,0.97 -3.35,1.71 -10.83,8.47 -5.15,0.65 -3.75,-1.18 -0.84,-4.25 0.42,-4.83 4.65,-5.14 4.55,-7.78 2.4,-2.43 -0.27,-13.32 10.29,-22.42 7.34,-8.52 23.09,-10.22 3.57,-2.27 6.71,-7.67 0.63,-6.24 -2.73,-7.67 -2.09,-1.42 -9.45,-1.71 -7.35,-3.97 -14.48,-21.58 -0.84,-2.84 3.15,-12.22 7.77,-3.12 7.76,-7.96 5.25,-3.4 4.41,-4.55 2.73,-11.93 2.72,-5.97 0.63,-8.47 11.34,-0.05 5.87,1.71 9.28,0.9 3.360002,-0.97 2.27,-1.79 2.76,-7.14 6.47,-0.38 2.73,-2.27 z"
      class="land" title="La Massana" id="AD-04" />
   <path
      d="m 404.33734,85.29363 0.97,3.94 4.49,7.37 -1.89,8.25 0.27,3.34 2.37,3.04 0.57,3.3 -1.58,6.09 -5.86,0.17 -15.86,4.06 -4.75,4.56 -2.24,4.42 -5.5,5.39 -2.24,3.55 -3.37,2.19 -2.32,2.79 -14.32,3.97 -7.11,8.32 -2.25,13.48 0.68,4.62 -0.6,3.34 -3.6,6.9 -6.74,4.56 -4.67,5.02 -2.93,0.84 -2.44,2.11 -0.83,3.9 1.63,1.11 1.72,10.14 -1.42,23.19 2.92,6.48 1.5,12.06 1.42,2.44 3.6,2.53 2.62,5.24 1.75,6.58 v 6.25 l -3.87,15.2 -2.38,4.05 -3.93,1.59 -11.75,7.38 v 0 l -3.73,-0.88 v 0 l -4.63,-3.04 -12.12,-2.53 -5.61,1.35 -3.62,2.54 -6.37,0.16 -6.03,1.92 -5.43,-1.44 -7.12,-4.02 -10.19,-3.41 -5.39,-0.65 -1.68,-1.13 -11.38,1.67 -1.96,-3.02 -0.68,-4.16 -2.64,-3.89 v -9.25 l 1.2,-2.75 -0.6,-4.38 -2.88,-4.38 -4.91,-2.27 -3.6,-9.73 -2.16,-3.4 -8.63,-3.08 -7.43,-6.76 -6.47,-10.19 -3.72,-9.24 -3.23,-3.41 -2.16,-4.54 -1.2,-10.86 0.6,-11.84 -2.4,-10.06 0.63,-9.73 -3.38,-7.94 -5.75,-2.8 -6.11,1.45 -3.49,-1.69 -1.88,-3.69 -11.61,-4.59 -4.49,-0.85 -3.37,-3.72 -9.55,-2.28 -6.46,-8.73 v 0 l 2.73,-4.83 13.37,-17.34 -5.52,-12.34 -1.53,-9.42 -2.98,-5.63 -4.12,-2.64 1.41,-8.62 -1.63,-4.6 -3.13,-3.22 -0.6,-3.73 2.39,-5.52 0.84,-5.36 4.56,-5.52 3.33,-0.6 6.86,-8.41 0.36,-14.61 2.55,-2.15 0.2,-12.14 1.32,-1.95 20.73,-0.41 1.54,-2.67 3.84,-1.3 4.91,0.55 4.82,6.83 6.93,12.79 2.94,2.28 8.81,0.85 18.36,-2.09 12.17,2.17 3,-3.73 2.36,-5.16 11.44,-7.18 4.43,-0.98 8.27,5.36 4.2,-1.18 6.21,-6.39 3.49,-0.71 17.62,-7.79 3.72,-0.17 13.9,9.74 3.84,-0.16 4.55,-4.55 5.65,-0.21 4.76,9.15 3.83,4.71 3.84,3.08 10.02,-1.02 3.28,7.68 v 7.47 l 1.56,1.94 4.19,-0.31 0.8,2.4 -0.1,8.06 4.55,7.47 8.28,7.14 14.62,0.97 4.19,2.76 13.19,18.83 z"
      class="land" title="Ordino" id="AD-05" />
   <path
      d="m 86.337338,447.50363 9.18,7.74 19.380002,12.76 9.87,7.75 18.47,11.31 20.23,17.54 6.24,3.2 5.5,1.02 7.24,-2.87 4.24,-1.86 10.24,-7.76 9.74,1.35 18.21,7.09 30.84,1.35 18.48,2.36 8.24,-0.51 v 0 l 0.5,7.42 1.62,5.74 2.5,3.88 11.8,1.7 1.56,1.33 1.37,11.13 13.36,15.68 3.21,5.86 v 0 l -2.3,3.11 -1.09,6.77 1.99,9.93 -0.71,8.63 1.62,9.98 -0.69,3.75 -7.31,1.2 -3.44,2.53 -1.24,27.81 -2.19,1.69 -6.24,0.84 -4.68,-2.11 -6.25,1.69 h -6.24 l -2.81,-1.27 h -3.12 l -2.18,2.53 -8.61,-0.92 -3.35,0.85 h -10.81 l -3.77,3.86 -8.11,1.69 -8.12,3.79 -19.04,-2.53 -6.55,-3.79 -1.13,-1.72 -10.68,-5.26 -8.4,-1.99 -24.13,1.42 -8.63,-2.2 -9.46,-3.73 -13.11,-2.11 -1.97,-1.55 -26.700002,-0.95 -3.59,-1.94 -6.65,-0.55 -2.51,-1.14 -3.78,-1.98 -7.77,-9.07 -3.36,-5.38 v -0.85 l 1.05,-0.29 4.54,0.39 -1.54,-8.96 -1.32,-1.78 -1.55,-6.15 -3.24,-3.24 -0.66,-13.7 10.91,-12.18 -0.63,-2.84 -10.71,-8.22 -2.3,-3.97 -1.05,-20.98 1.96,-6.9 -1.41,-2.72 -16.33,-17.41 -18.43,-0.3 -6.47,-1.52 -5.04,1.42 -2,-0.74 -2.88,-4.73 -5.9899998,0.27 -2.6,1.49 -1.69,-0.27 -2.4,-2.84 -1.20000004,-4.18 1.50000004,-2.97 7.79,-5.8 5.7899998,-6.88 5.6,-2.97 6.59,-0.14 7.8,-1.96 21.42,0.37 6.8,-1.34 3.58,-3.41 7.4,-1.45 4.9,-2.16 z"
      class="land" title="Sant Julià de Lòria" id="AD-06" />
   <path
      d="m 236.33734,374.35363 1.75,6.25 4.37,9.62 6.36,1.35 6.62,9.62 2.12,8.1 5.25,10.97 2.62,9.11 -0.5,3.37 -4.37,2.37 -1.75,2.86 2.62,9.79 2.13,2.36 6.86,15.61 3.25,1.18 3,9.44 7.11,9.45 5.25,9.62 v 2.86 l -6.59,9.69 v 0 l -8.24,0.51 -18.48,-2.36 -30.84,-1.35 -18.21,-7.09 -9.74,-1.35 -10.24,7.76 -4.24,1.86 -7.24,2.87 -5.5,-1.02 -6.24,-3.2 -20.23,-17.54 -18.47,-11.31 -9.87,-7.75 -19.380002,-12.76 -9.18,-7.74 v 0 l 1.79,-2.11 1.25,-6.03 9.51,-9.31 7.500002,-4.25 13.72,-13.36 v 0 l 7.17,-1.63 8.36,-5.23 7.62,-1.69 11.99,-4.56 10.23,-1.01 5.75,1.18 h 8.61 l 2.5,-1.35 3.12,-3.71 4.12,-1.19 6.49,-0.33 4.25,-3.38 3.24,-4.39 15.73,-1.68 3.63,-3.21 4.43,-6.92 4.74,-1.18 z"
      class="land" title="Andorra la Vella" id="AD-07" />
   <path
      d="m 236.33734,374.35363 3.54,-3.21 10.92,-0.71 6.93,3.24 6.87,1.35 13.36,-2.53 2.67,-2.53 2.19,-0.46 1.31,1.61 v 0 l 1.75,12.83 1.75,5.4 3.75,4.9 4.62,3.88 4.86,1.01 5.25,-0.51 4.74,-2.53 4.57,-7.05 3.17,-2.57 4.86,-0.67 5.24,2.53 6.37,-3.55 2.87,0.17 17.23,14.28 7.87,5.23 21.72,20.42 18.87,10.58 5.85,5.79 14.11,3.71 8.37,-2.02 5.37,-5.07 h 5.86 l 11.86,6.79 6.9,2.49 10.58,1.35 20.58,6.21 7.99,1.08 19.38,5.4 11.82,1.82 v 0 l -1.37,4.64 -0.19,28.32 -2.06,8.18 0.18,2.11 2.44,4.8 2.97,3.94 v 3.12 l -6.63,5.19 -5.96,11.25 -3.36,1.71 -9.87,0.56 -8.18,-3.12 -10.61,6.34 -5.7,-1.21 -2.7,-4.14 -3.69,-0.45 -9.19,7.69 -1.14,3.61 -2.69,0.97 -3.27,-0.29 -1.31,-1.37 -12.51,-5.14 -4.7,3.35 -9.45,-1.13 -4.82,0.28 -9.45,2.27 -10.49,-2.84 -6.3,-4.82 -7.76,0.85 -1.42,1.65 -11.95,3.83 -3.69,3.64 -7.99,13.35 -6.02,20.05 -2.1,3.97 -2.72,1.7 -4.08,-0.73 -9.78,-10.61 -6.92,-9.35 -1.92,-4.42 -2.42,-2.34 -5.55,-0.32 -3.32,3.15 -6.24,-0.54 v 0 l -3.21,-5.86 -13.36,-15.68 -1.37,-11.13 -1.56,-1.33 -11.8,-1.7 -2.5,-3.88 -1.62,-5.74 -0.5,-7.42 v 0 l 6.59,-9.69 v -2.86 l -5.25,-9.62 -7.11,-9.45 -3,-9.44 -3.25,-1.18 -6.86,-15.61 -2.13,-2.36 -2.62,-9.79 1.75,-2.86 4.37,-2.37 0.5,-3.37 -2.62,-9.11 -5.25,-10.97 -2.12,-8.1 -6.62,-9.62 -6.36,-1.35 -4.37,-9.62 z"
      class="land" title="Escaldes-Engordany" id="AD-08" />
   <g id="stadiums" data-country="andorra" data-circle-radius="6"></g>
</svg>