<?xml version="1.0" encoding="UTF-8" standalone="no"?>
<?xml-stylesheet type="text/css" href="/styles/home.css"?>
<!-- https://www.amcharts.com/svg-maps -->

<svg version="1.1" xmlns="http://www.w3.org/2000/svg" id="map-armenia"
   viewBox="0 0 792.31866 801.75549">
  <defs
     id="defs4">
    <style
       type="text/css"
       id="style2">
			.land
			{
				fill: #CCCCCC;
				fill-opacity: 1;
				stroke:white;
				stroke-opacity: 1;
				stroke-width:0.5;
			}
		</style>
    <!-- <amcharts:ammap projection="mercator" leftLongitude="43.454090" topLatitude="41.300808" rightLongitude="46.632730" bottomLatitude="38.832890"></amcharts:ammap> -->
    <!-- All areas are listed in the line below. You can use this list in your script. -->
    <!--{id:"AM-AG"},{id:"AM-AR"},{id:"AM-AV"},{id:"AM-ER"},{id:"AM-GR"},{id:"AM-KT"},{id:"AM-LO"},{id:"AM-SH"},{id:"AM-SU"},{id:"AM-TV"},{id:"AM-VD"}-->
  </defs>
  <path
     style="fill:#cccccc;fill-opacity:1;stroke:#ffffff;stroke-width:0.5;stroke-opacity:1"
     inkscape:connector-curvature="0"
     d="m 184.5425,177.58941 6.62,-0.87 4.13,2.32 7.08,8.54 h 10.33 l 1.47,-7.37 5.02,-0.78 h 4.43 l 11.5,6.98 5.02,-2.32 6.2,6.59 -0.26,11.37 v 0 l -0.33,2.2 6.49,8.14 2.06,5.42 8.85,10.46 21.54,4.64 -2.65,13.93 -7.97,12.38 h -3.54 l 0.88,11.21 -4.71,10.04 -1.48,16.6 -7.97,-0.38 -2.36,6.17 -18,18.51 -0.88,2.7 1.47,2.7 10.33,-1.93 1.77,3.08 0.59,3.86 -4.31,10.17 v 0 l -5.13,8.7 v 4.71 0 l -28.47,-10.94 -7.25,-8.08 -11.94,10.86 -6.82,-1.67 -4.05,-5.29 -2.35,0.83 1.28,20.04 -2.99,2.22 -22.39,-0.55 -33.69,-8.35 -9.81,-0.83 -10.88,-8.91 -3.199995,-0.83 -0.64,-4.73 -14.07,-1.67 -7.68,-3.62 -14.29,1.11 -6.94,5.03 v 0 l -8.02,-3.59 -1.98,-10.58 -11.53,-12.67 8.8,-16.73 -2.08,-9.64 -3.92,-3.76 v 0 l 14.54,-3.09 16.78,-15.5 9.53,-0.87 9.21,-3.44 9.21,4.31 10.849995,-2.16 8.22,4.74 h 6.91 l 7.56,-4.31 h 4.28 l 4.6,1.29 5.92,6.04 4.6,0.43 5.59,-2.59 13.49,1.29 10.19,-3.87 3.62,-3.45 h 2.96 l 1.32,-6.89 -5.6,-6.47 -0.32,-3.88 v -5.61 l 2.96,-7.76 -11.84,-1.72 -0.99,-9.93 -7.56,-11.66 -0.33,-4.75 0.98,-4.75 8.23,-7.78 12.82,-1.73 z"
     class="land"
     title="Aragac̣otn"
     id="AM-AG" />
  <path
     style="fill:#cccccc;fill-opacity:1;stroke:#ffffff;stroke-width:0.5;stroke-opacity:1"
     inkscape:connector-curvature="0"
     d="m 233.3325,424.73941 -4.16,-5.43 -9.62,-3.8 v 0 l 1.78,-18.69 -5.97,-7.78 0.21,-6.94 8.1,-1.95 10.88,0.28 10.2,2.52 v 0 l 6.6,6.55 8.85,1.92 10.33,7.68 6.49,-6.53 7.67,-1.53 10.63,-8.46 5.16,-8.27 v 0 l -0.59,13.84 3.24,5 11.51,1.54 2.07,-0.77 1.47,-5.38 h 3.54 l 5.31,-3.85 3.54,0.39 3.25,-6.92 17.56,-0.96 4.13,-9.23 4.42,-1.93 4.72,0.39 5.32,-2.31 25.03,-0.12 v 0 l 1.37,2.62 -3.54,19.23 v 9.99 l 20.95,31.86 1.18,26.07 -1.47,12.65 1.98,3.54 v 0 l -7.59,6.03 -3.25,5.35 -2.26,11.74 v 0 l -8.08,4.31 -5.02,9.53 -11.39,5.84 -51.31,5.84 -0.84,-6.3 -5.81,-1.23 -4.61,-9.58 -4.22,0.04 1.71,-6.6 -2.32,-1.81 -5.73,1.88 -13.39,-8.94 0.98,-4.17 -5.97,0.91 -1.16,-8.08 -8.16,-8.71 -1.66,-8.55 -8.61,-7.33 -8.56,-12.52 -5.76,-1.67 -11.57,-9.66 z"
     class="land"
     title="Ararat"
     id="AM-AR" />
  <path
     style="fill:#cccccc;fill-opacity:1;stroke:#ffffff;stroke-width:0.5;stroke-opacity:1"
     inkscape:connector-curvature="0"
     d="m 54.552505,339.97941 6.94,-5.03 14.29,-1.11 7.68,3.62 14.07,1.67 0.64,4.73 3.199995,0.83 10.88,8.91 9.81,0.83 33.69,8.35 22.39,0.55 2.99,-2.22 -1.28,-20.04 2.35,-0.83 4.05,5.29 6.82,1.67 11.94,-10.86 7.25,8.08 28.47,10.94 v 0 l 4.8,8.53 -1.71,11.67 1.82,1.26 -0.89,6.13 v 0 l -10.2,-2.52 -10.88,-0.28 -8.1,1.95 -0.21,6.94 5.97,7.78 -1.78,18.69 v 0 l -3.57,-1.95 -4.24,1.11 -4.98,-4.09 -4.88,-0.52 -8.2,2.31 -1.73,2.05 -6.95,0.35 -1.02,2.53 -15.65,-0.12 -2.51,-1.82 -11.87,2.71 -19.35,-0.46 -5.89,2.58 -15.94,0.1 -24.899995,-13.04 -8.91,-6.77 -12.76,-0.05 -5.73,-5.03 -8.28,-3.42 -3.52,-4.49 0.44,-7.27 3.31,-4.58 12.51,-3.37 -1.6,-4.33 -14.27,-13.18 0.71,-2.63 7.26,-0.53 -0.06,-9.3 z"
     class="land"
     title="Armavir"
     id="AM-AV" />
  <path
     style="fill:#cccccc;fill-opacity:1;stroke:#ffffff;stroke-width:0.5;stroke-opacity:1"
     inkscape:connector-curvature="0"
     d="m 240.7325,355.35941 v -4.71 l 5.13,-8.7 v 0 l 3.72,4.08 11.51,-0.39 12.98,-4.62 6.79,1.16 2.06,6.54 16.82,13.09 2.95,5 -2.21,7.5 v 0 l -5.16,8.27 -10.63,8.46 -7.67,1.53 -6.49,6.53 -10.33,-7.68 -8.85,-1.92 -6.6,-6.55 v 0 l 0.89,-6.13 -1.82,-1.26 1.71,-11.67 z"
     class="land"
     title="Erevan"
     id="AM-ER" />
  <path
     style="fill:#cccccc;fill-opacity:1;stroke:#ffffff;stroke-width:0.5;stroke-opacity:1"
     inkscape:connector-curvature="0"
     d="m 509.2825,232.16941 -3.56,-0.93 -3.92,-14.8 6.41,-9.82 8.78,1.09 4.87,5.45 -1.07,8.1 -6.77,3.74 -2.25,5.92 z m -169.71,-18.23 11.1,0.19 13.42,-12.8 14.36,8.73 6.05,0.94 11.88,-2.3 15.63,-16.57 9.14,-4.37 17.04,-2.85 14.9,3.42 7.81,3.73 15.05,14.14 v 0 l -1.67,5.97 6.26,6.29 -0.93,7.69 4.13,3.84 7.12,0.31 5.94,6.38 -3.92,5.6 1.31,3.89 -2.61,4.2 0.95,5.29 3.82,5.6 12.12,8.23 0.67,5.08 5.1,5.59 9.38,5.59 6.65,-0.47 3.68,2.33 8.43,7.92 0.83,4.19 3.8,5.12 10.8,0.16 5.48,4.19 11.37,2.48 5.43,6.55 20.46,5.86 5.09,5.57 11.52,-0.3 6.77,4.96 0.03,5.79 -4.64,1.27 -0.14,2.31 10.25,13.45 -3.73,8.34 -1.65,18.51 -12.57,6.31 0.94,9.92 -6.9,17.27 -8.93,2.85 -1.5,5.36 -1.66,0.62 -11.51,-10.8 -3.8,1.54 -20.03,-0.88 -5.1,-1.7 -5.22,2.78 -8.19,0.15 -2.24,2.14 -1.43,6.66 -5.87,0.08 v 0 l -5.02,-3.58 -7.97,-0.38 -1.77,5.76 -5.9,4.6 -12.39,3.07 -28.62,1.54 -23.6,8.43 -12.98,9.97 -10.33,11.49 -5.98,2.78 v 0 l -1.99,-3.55 1.48,-12.64 -1.18,-26.07 -20.95,-31.86 v -9.99 l 3.54,-19.23 -1.37,-2.62 v 0 l -1.14,-2.57 -5.02,-3.08 -3.83,0.39 -3.54,-1.92 -4.42,-6.16 -1.77,-11.94 -3.8,-6.44 -10.24,-47.71 7.84,-10.27 -10.33,-2.7 -5.82,-5.29 -6.23,-19.64 -8.31,-4.07 -0.19,-28.99 v 0 z"
     class="land"
     title="Geġark'unik'"
     id="AM-GR" />
  <path
     style="fill:#cccccc;fill-opacity:1;stroke:#ffffff;stroke-width:0.5;stroke-opacity:1"
     inkscape:connector-curvature="0"
     d="m 338.2025,213.59941 0.19,28.99 8.31,4.07 6.23,19.64 5.82,5.29 10.33,2.7 -7.84,10.27 10.24,47.71 3.8,6.44 1.77,11.94 4.42,6.16 3.54,1.92 3.84,-0.38 5.01,3.08 1.14,2.57 v 0 l -25.03,0.12 -5.32,2.31 -4.72,-0.39 -4.42,1.93 -4.13,9.23 -17.56,0.96 -3.25,6.92 -3.54,-0.39 -5.31,3.85 h -3.54 l -1.47,5.38 -2.07,0.77 -11.51,-1.54 -3.24,-5 0.59,-13.84 v 0 l 2.21,-7.5 -2.95,-5 -16.82,-13.09 -2.06,-6.54 -6.79,-1.16 -12.98,4.62 -11.51,0.39 -3.72,-4.08 v 0 l 4.31,-10.17 -0.59,-3.86 -1.77,-3.08 -10.33,1.93 -1.47,-2.7 0.88,-2.7 18,-18.51 2.36,-6.17 7.97,0.38 1.48,-16.6 4.71,-10.04 -0.88,-11.21 h 3.54 l 7.97,-12.38 2.65,-13.93 -21.54,-4.64 -8.85,-10.46 -2.06,-5.42 -6.49,-8.14 0.33,-2.2 v 0 l 12.35,-9.04 18.89,-1.16 4.72,2.32 h 4.72 l 2.95,-1.94 h 4.43 l 38.37,17.04 v 0 l 2.36,3.51 v 0 z"
     class="land"
     title="Kotayk'"
     id="AM-KT" />
  <path
     style="fill:#cccccc;fill-opacity:1;stroke:#ffffff;stroke-width:0.5;stroke-opacity:1"
     inkscape:connector-curvature="0"
     d="m 356.2425,12.73941 2.6,5.91 6.62,3.45 1.89,3.13 -0.7,3.13 -5.92,6.58 -7.33,2.51 -5.21,5.01 4.86,5.68 15.32,9.52 4.45,5.65 -1.52,6.12 -3.47,4.7 -9.34,5.06 -18.25,4.7 -4.63,8.7 1.33,9.87 5.7,3.76 17.09,4.42 2.94,4.58 v 3.29 l -1.34,3.05 -4.89,3.17 -5.88,21.7 -8.63,7.61 -11.75,6.52 -4.1,7.03 -0.71,5.97 7.66,5.15 -4.63,4.8 0.44,2.81 7.49,10.15 -3.82,12.8 v 0 l -38.37,-17.04 h -4.43 l -2.95,1.94 h -4.72 l -4.72,-2.32 -18.89,1.16 -12.35,9.04 v 0 l 0.26,-11.37 -6.2,-6.59 -5.02,2.32 -11.5,-6.98 h -4.43 l -5.02,0.78 -1.47,7.37 h -10.33 l -7.08,-8.54 -4.13,-2.32 -6.62,0.87 v 0 -2.1 l -15.13,0.87 -0.33,-6.06 -7.56,-3.46 -8.22,1.3 -5.27,-9.52 -0.98,-15.59 2.3,-4.77 8.22,-6.06 8.88,-1.3 3.62,-2.61 2.3,-3.03 -1.32,-7.81 h 4.61 l 3.29,-3.47 4.27,-10.41 -3.94,-2.17 -13.49,0.43 -0.33,-14.32 -2.63,-3.91 -3.61,-1.31 -2.96,-8.69 -8.88,-2.6 -5.59,-5.22 -0.33,-18.7 2.54,-7.18 v 0 l 8.85,-3.39 22.02,-0.14 5.73,-17.35 6.22,3.19 5.42,-0.63 7.71,7.47 4.01,1.18 6.93,-1.58 6.13,4.72 2.81,-0.19 3.42,-10.52 6.02,3.43 6.24,7.09 5.29,1.61 7.61,5.46 4.1,-0.47 7.81,-4.45 4.96,-9.34 1.69,-0.35 1.16,0.7 -1.6,8.96 11.04,-4.01 3.47,4.25 5.34,-15.8 8.19,2 8.72,-1.41 2.85,6.37 6.71,0.65 2.26,4.25 4.89,-4.34 16.3,-0.75 8.38,3.52 9.08,0.81 4.08,-1.57 -1.23,-3.08 -5.32,0.56 -11.06,-3.46 -5.56,-6.29 -0.57,-8.68 2.24,-7.43 4.65,-0.44 5.13,6.36 9.97,3.33 z"
     class="land"
     title="Loṙy"
     id="AM-LO" />
  <path
     style="fill:#cccccc;fill-opacity:1;stroke:#ffffff;stroke-width:0.5;stroke-opacity:1"
     inkscape:connector-curvature="0"
     d="m 64.992505,162.07941 -0.99,-4.31 -5.82,-8.12 -1.3,-7.51 1.42,-11.57 -2.13,-10.48 -13.18,-11.75 -9.99,-6.03 -5.4,-0.74 -7.65,-6.81 -11.1200001,-1.51 -2.62,-4.26 -0.44,-14.31 -4.6,-5 -0.91,-4.28 4.17,-8.5 4.81,0.01 17.0900001,-6.26 5.26,0.39 8.57,5.5 3.86,-1.57 15.13,-0.4 17.18,8.64 8.26,-10.62 12.39,-7.44 22.549995,-3.14 8.16,2.75 8.01,-5.89 8.3,1.03 v 0 l -2.54,7.18 0.33,18.7 5.59,5.22 8.88,2.6 2.96,8.69 3.61,1.31 2.63,3.91 0.33,14.32 13.49,-0.43 3.94,2.17 -4.27,10.41 -3.29,3.47 h -4.61 l 1.32,7.81 -2.3,3.03 -3.62,2.61 -8.88,1.3 -8.22,6.06 -2.3,4.77 0.98,15.59 5.27,9.52 8.22,-1.3 7.56,3.46 0.33,6.06 15.13,-0.87 v 2.1 0 l -0.99,11.31 -12.82,1.73 -8.23,7.78 -0.98,4.75 0.33,4.75 7.56,11.66 0.99,9.93 11.84,1.72 -2.96,7.76 v 5.61 l 0.32,3.88 5.6,6.47 -1.32,6.89 h -2.96 l -3.62,3.45 -10.19,3.87 -13.49,-1.29 -5.59,2.59 -4.6,-0.43 -5.92,-6.04 -4.6,-1.29 h -4.28 l -7.56,4.31 h -6.91 l -8.22,-4.74 -10.849995,2.16 -9.21,-4.31 -9.21,3.44 -9.53,0.87 -16.78,15.5 -14.54,3.09 v 0 l -5.33,-5.27 -4.62,-1.08 -2.86,-5.62 2.32,-0.81 0.33,-3.66 14.72,-10.79 2.91,1.37 1.24,-5.82 4.02,1.91 -1.49,-8.99 6.97,-2.1 4.63,-5.45 8.42,-16.82 1.9,-8.57 5.03,-6.85 -2.06,-12.01 1.72,-6.13 z"
     class="land"
     title="Širak"
     id="AM-SH" />
  <path
     style="fill:#cccccc;fill-opacity:1;stroke:#ffffff;stroke-width:0.5;stroke-opacity:1"
     inkscape:connector-curvature="0"
     d="m 589.9025,573.36941 -2.26,-8.95 -5.35,-5.07 -15.87,-3.75 v 0 l -1.32,-27 3.98,-10.3 -2.84,-11.29 0.76,-9.58 15.16,-22.12 7.16,-4.38 v 0 l 3.57,9.9 12.7,3.39 9.03,6.14 12.45,1.24 2.73,1.7 5.33,6 2.21,6.95 5.96,5.57 1.93,5.04 6.31,3.93 -1.3,2.9 0.95,3.53 1.54,1.39 4.51,-3.23 2.5,0.46 8.78,9.53 7.36,5.06 1.69,3.45 0.92,14.09 4.87,-4.34 15.66,0.46 15.07,-9.97 12.44,-0.94 2.58,7.43 4,-0.45 5.37,-5.69 1.43,0.61 -1.07,15.19 1.42,2.61 5.54,1.59 2.16,-1.92 3.63,1.23 2.94,-2.48 12.6,-1.59 8.74,4.71 4.15,5.06 0.48,6.13 -7.94,-2.23 -11.15,8.79 0.95,5.47 9.75,10.93 -8.77,-2 -3.86,-3.5 -9.35,11.17 -13.19,-1.9 -5.39,9.58 0.52,9.26 5.35,10.24 16.8,11.3 7.04,-4.75 7.14,9.41 0.11,2.84 -3.2,4.58 7.14,11.49 6.93,2.41 3.47,6.75 9.41,2.17 -13.78,2.58 -0.17,4.44 -8.37,11.27 -2.14,-1.52 -2.14,-10.52 -2.85,-1.03 -2.01,2.47 0.35,5.88 -9.4,-5.65 -5.16,-0.16 -1.84,2.1 2.16,12.27 6.73,2.78 3.86,-1.65 2.14,1.32 -1.87,5.93 4.08,2.8 1.05,5.73 6.26,5.67 -3.45,6.62 6.17,2.81 -3.37,6.13 2.61,11.72 -6.05,2.12 0.83,7.45 -5.22,4.11 -0.12,2.28 0.36,3.34 7.83,12.61 1.98,7.98 -2.49,1.85 -2.35,-0.72 -1.63,-5.24 -8.55,1.38 -7.38,-3.65 -7.12,0.41 -3.14,2.13 -11.93,-8.82 -6.05,-1.06 -7.6,5.62 -7.48,-0.61 -0.11,6.68 -1.78,2.43 -2.14,-0.15 0.47,-5.77 -2.49,-2.12 -2.97,8.19 h -4.15 l -0.95,2.28 2.32,6.1 -1.19,1.22 -2.75,-3.08 v 0 l -0.2,-0.53 v 0 l -4.65,-1.4 -5.1,6.07 -2.37,-1.21 0.11,-3.8 -1.66,-1.21 -2.39,7 -3.66,-0.32 1.19,-15.64 -6.65,-16.4 -3.06,-24.68 -6.08,-5.05 -0.59,-14.61 -1.54,-2.74 -10.54,-6.34 0.15,-9.89 -4.81,-6.48 1.18,-7.14 -3.47,-3.52 -0.83,-9.2 -0.26,-10.9 2.91,-3.65 0.47,-4.89 -1.98,-6.77 -8.28,-1.99 -25.55,-18.39 -11.7,-1.48 -5.09,-4.32 -0.61,-7.19 11.5,-17.87 -1.35,-7.84 -3.41,-5.17 0.78,-10.36 z"
     class="land"
     title="Syunik'"
     id="AM-SU" />
  <path
     style="fill:#cccccc;fill-opacity:1;stroke:#ffffff;stroke-width:0.5;stroke-opacity:1"
     inkscape:connector-curvature="0"
     d="m 475.9625,206.19941 -15.04,-14.14 -7.81,-3.73 -14.9,-3.42 -17.05,2.85 -9.14,4.37 -15.63,16.56 -11.88,2.3 -6.05,-0.93 -14.36,-8.73 -13.42,12.79 -11.11,-0.18 v 0 l -4.7,-1.16 v 0 l -2.36,-3.51 v 0 l 3.82,-12.8 -7.49,-10.15 -0.44,-2.81 4.63,-4.8 -7.66,-5.15 0.71,-5.97 4.1,-7.03 11.75,-6.52 8.63,-7.61 5.88,-21.7 4.89,-3.17 1.34,-3.05 v -3.29 l -2.94,-4.58 -17.09,-4.42 -5.7,-3.76 -1.33,-9.87 4.63,-8.7 18.25,-4.7 9.34,-5.06 3.47,-4.7 1.52,-6.12 -4.45,-5.65 -15.32,-9.52 -4.86,-5.68 5.21,-5.01 7.33,-2.51 5.92,-6.58 0.7,-3.13 -1.89,-3.13 -6.62,-3.45 -2.6,-5.91 v 0 l 1.46,-4.42 4.36,4.67 10.28,1.43 4.41,-6.1 10.37,-7.95 9.53,16 -1.8,9.63 -4.64,3.47 0.31,2.37 h 4.93 l 7.42,7.54 2.79,-0.08 2.86,-4.68 6.51,-3.1 9.93,11.18 7.19,1.18 2.01,2.12 0.6,4.79 -4.54,5.43 -11.06,4.08 -12.26,1.48 -3,2.19 -6.86,14.53 3.32,5.51 3.17,-0.22 4.76,-3.42 6.37,0.19 -0.21,-10.35 3.37,-2.05 6.43,4.7 -0.53,8.55 4.46,-0.53 7.18,2.67 7.56,10.52 4.36,-1.51 3.09,-5.33 3.76,-0.84 6.35,11.02 7.49,-0.46 4.92,1.8 13.19,-8.49 5.9,-0.73 2.39,2.51 -1.12,2.35 -8.13,7.28 2.84,7.29 3.53,1.2 6.22,-2.03 6.64,7.98 -0.59,5.48 5.88,0.78 5.04,5.48 8.6,3.28 1.9,4.7 5.34,-2.59 3.19,2.79 2.81,12.12 -3.03,6.95 -6.41,5.86 -5.4,9.21 -2.07,2.19 -9.38,1.01 -6.53,5.94 -12.34,2.45 -7.83,4.83 -2.02,2.81 0.95,6.24 -1.66,1.72 -2.02,-2.34 -2.73,0.31 z"
     class="land"
     title="Tavuš"
     id="AM-TV" />
  <path
     style="fill:#cccccc;fill-opacity:1;stroke:#ffffff;stroke-width:0.5;stroke-opacity:1"
     inkscape:connector-curvature="0"
     d="m 408.5725,494.52941 -6.2,-1.45 v 0 l 2.26,-11.74 3.25,-5.35 7.59,-6.03 v 0 l 5.98,-2.78 10.33,-11.49 12.98,-9.97 23.61,-8.43 28.62,-1.53 12.39,-3.07 5.9,-4.6 1.77,-5.76 7.97,0.38 5.02,3.58 v 0 l 5.99,-0.01 1.54,6.25 1.67,0.93 11.03,-0.46 10.92,2.16 7.12,6.01 13.53,2.16 3.46,6.38 -2.97,5.09 5.46,9.71 1.53,6.42 v 0 l -7.16,4.38 -15.16,22.12 -0.76,9.58 2.84,11.29 -3.98,10.3 1.32,27 v 0 l -6.08,-2.3 -5.37,5.42 -6.28,1.4 -6.05,4.76 -9.26,-1.38 -5.22,7.2 -6.17,1.69 -2.88,4.64 -11.87,9.97 -7.57,-0.58 -5.89,-9.52 -5.47,0.17 -3.73,-2.84 -8.9,0.3 -2.37,-1.37 -7.01,-6.44 -4.83,-11.42 -4.38,-3.23 -7.04,-0.95 -2.21,1.2 -5.7,8.51 -2.98,0.33 -7.27,-3.34 0.09,-14.38 1.8,-3.88 -2.37,-2.15 -0.12,-3.99 2.52,-2.95 -1.68,-5.21 -7.21,-7.83 -7.26,-14.42 z"
     class="land"
     title="Vayoc Jor"
     id="AM-VD" />
     <g id="stadiums" data-country="armenia"></g>
</svg>
