<?xml version="1.0" encoding="UTF-8" standalone="no"?>
<?xml-stylesheet type="text/css" href="/styles/home.css"?>
<!-- https://www.amcharts.com/svg-maps -->

<svg version="1.1" xmlns="http://www.w3.org/2000/svg" id="map-austria" viewBox="0 0 613.01746 613.01746"
   width="613.01746" height="613.01746" class="">

   <defs id="defs4">
      <style type="text/css" id="style2">
         .land {
            fill: #f69a69;
            fill-opacity: 1;
            stroke: white;
            stroke-opacity: 1;
            stroke-width: 0.5;
         }

         .rectangle:hover {
            fill: #bdbdbd;
            cursor: pointer;
         }
      </style>
      <!-- <amcharts:ammap projection="mercator" leftLongitude="9.501127" topLatitude="49.015154" rightLongitude="17.163378" bottomLatitude="46.370917"></amcharts:ammap> -->
      <!-- All areas are listed in the line below. You can use this list in your script. -->
      <!-- {id:"AT-1"},{id:"AT-2"},{id:"AT-3"},{id:"AT-4"},{id:"AT-6"},{id:"AT-5"},{id:"AT-7"},{id:"AT-8"},{id:"AT-9"}-->
   </defs>
   <rect id="background" class="rectangle" stroke-width="0" stroke="#000" width="613.01746" height="613.01746" y="0"
      x="0" fill="#d3d3d3" />
   <path
      d="m 605.32342,251.61365 -0.08,9.93 7.29,2.93 -5.28,4.35 -0.72,11.33 -6.03,1.98 5.06,5.95 1.32,11.87 -16.57,2.36 -1.4,-3.85 -3.08,4.51 -6.28,0.15 -2.35,-6.07 -9,-3.34 -14.7,11.32 18.24,5.02 5.05,9.84 -5.05,4.7 0.75,5.18 -6.73,5.75 -10.38,-0.07 -1.04,6.48 4.43,8.49 -5.9,8.81 3.09,7.39 6,1.85 -5.36,3.83 4.64,4.26 -6.51,3.24 5.91,3.22 -17.65,-1.36 -1.42,5.97 -11.31,10.11 -10.74,4.79 v 0 l 12.67,-18.38 -5.38,-10.04 2.13,-8.01 -6.73,-27.39 10.99,-5.02 v 0 l 8.9,-3.85 4.68,-7.07 -2.02,-5.92 4.72,-9.25 -5.24,-5.13 -0.34,-11.47 -2.8,-0.99 1.4,-2.15 3.13,2.64 5.03,-6.42 -3.01,-2.74 4.97,-1.82 2.86,-6.34 5.66,-1.04 4.84,6.69 9.54,-9.41 0.68,-5.57 9.72,-1.78 4.94,-5.61 7.15,6.08 2.79,-6.04 -3.23,-3.64 4.84,2.25 2.57,-3.91 v 0 z"
      class="land" title="Burgenland" id="AT-1" />
   <path
      d="m 251.82342,371.37365 6.62,-3.49 0.42,3.29 14.55,2.57 11.08,7.42 15.24,-3.51 2.16,-5.45 7.04,-0.35 2.83,3.3 23.53,3.48 7.24,11.14 v 0 l 5.27,3.98 6.54,-1.31 6.74,-9.71 15.01,-8.15 2.44,5.56 10.61,0.34 2.69,5.17 6.1,-5.06 10.99,3.03 18.29,-6.13 14.66,16.26 -4.12,14.38 4.27,2 -0.53,11.19 3.51,2.46 v 0 l -7.07,5.69 -1.86,-2.99 -7.01,2.99 -3.95,10.9 -8.24,0.83 -1.13,4.36 -9.08,4.03 -1.85,6.51 -3.27,-5.96 -6.08,0.29 -1.27,-2.82 -21.74,1.39 -3.24,-4.93 -16.43,-5.15 -9.36,1.8 -33.72,-8.28 -10.71,3.17 -5.7,-4.29 -25.66,-2.17 -12.43,-6.01 v 0 l 1.96,-9.39 17.22,-2.91 2.83,-3.44 -17.58,-19.59 -1.78,-4.06 3.86,-5.29 -4.47,-0.45 z"
      class="land" title="Carinthia" id="AT-2" />
   <path
      d="m 442.51342,143.33366 9.78,2.6 0.34,6.13 8.07,-1.35 1.38,-5.01 15.17,5.24 17.71,11.65 11.88,-2.64 20.37,15.82 22.81,2.11 5.58,-8.54 7.29,-1.69 9.82,3.95 1.49,6.42 17.57,1.24 4.07,20.68 -8.09,11.52 -1.37,8.31 9.87,13.93 1.4,11.07999 7.35,6.42 v 0 l -2.57,3.91 -4.84,-2.25 3.24,3.64 -2.8,6.04 -7.14,-6.08 -4.95,5.61 -9.71,1.77 -0.68,5.57 -9.54,9.41 -4.84,-6.69 -5.66,1.03 -2.85,6.35 -4.98,1.82 3.01,2.74 -5.03,6.42 -3.13,-2.63 -1.4,2.15 2.8,0.98 0.34,11.48 5.23,5.13 -4.71,9.25 2.01,5.91 -4.68,7.07 -8.89,3.85 v 0 l -4.7,-11.59 -4.41,3.99 -11.04,-5.32 -2.23,-4.73 -3.31,0.54 0.9,-6.22 -9.21,-1.28 -1.94,-9.17 -3.37,1.25 -5.22,-6.13 -7.93,0.5 -8.12,-4.49 -0.5,-3.51 -8.41,-0.56 -0.9,3.47 -5.7,-0.55 -1.44,4.88 -18.09,1.01 -3.56,3.88 -15.1,-4.38 v 0 l -2.29,-12.18 4.35,-2.67 -0.36,-3.43 -2.56,-3.89 -18.07,-6.94 -3.62,-5.62 2.58,-21.20999 6.97,-0.96 9.29,8.25999 11.3,-4.05999 3.94,-5.04 7.49,3.85 0.97,-6.84 -0.43,-7.36 -3.42,-0.54 1.75,-7.91 -3.79,0.11 1.9,-4.01 -5.89,-7.13 4.45,-2.92 -18.4,-9.55 v 0 l 9.4,-23.38 13.6,0.86 -0.1,-25.22 1.39,-4.24 z m 103.72,88.21 v 0 l -6.12,5.04 -4.05,-2.49 -1.78,10.89999 3.1,5.61 17.12,0.52 6.22,-4.68 4.46,2.63 -1.84,-14.94999 -11.62,-6.6 v 0 l -0.61,-0.22 v 0 l -3.16,4.24 v 0 l -0.5,-0.74 z"
      class="land" title="Lower Austria" id="AT-3" />
   <path
      d="m 347.71342,172.94366 16.93,11.57 -3.93,4.22 4.51,5.31 16.37,1.68 5.05,3.51 4.16,-4.95 3.45,0.57 3.18,-7.18 2.6,3.75 4.69,1.53 3.99,-2.94 6.43,5.23 v 0 l 18.4,9.55 -4.45,2.92 5.89,7.14 -1.9,4 3.79,-0.1 -1.75,7.91 3.42,0.54 0.44,7.36 -0.98,6.84 -7.49,-3.85 -3.94,5.04 -11.31,4.05999 -9.29,-8.24999 -6.97,0.95 -2.58,21.20999 3.61,5.62 18.08,6.94 2.55,3.88 0.36,3.44 -4.35,2.67 2.28,12.18 v 0 l -3.61,-1.94 -13.35,6.43 -0.56,3.51 -16.55,8.72 -4.53,-0.68 -1.89,-4.52 -14.52,3.93 0.33,-6.01 -3.66,-3.93 -18.44,-1.86 -6.67,10.46 -0.13,5.32 4.95,3.64 -2.57,10.7 -10.99,-1.3 v 0 l -8.68,-7.4 3.64,-9.68 -3.09,-2.78 4.86,-8.6 -8.52,-2.76 2.1,-5.81 4.22,1.64 0.83,-3.07 -10.94,0.45 -8.34,-4.21 -0.57,-14.23 6.22,1.27 0.93,-4.39 -5.67,-4.12 -12.02,4.88 -7.91,-8.84 -9.18,0.98 -5.82,4.53 v 0 l -8.17,-9.56 0.1,-5.9 20.92,-15.59999 25,-8.15 8.36,-12.56 v -15.35 l 5.59,-3.79 17.79,9.05 7.31,-11.99 1.14,-10.14 -3.42,-2.04 z"
      class="land" title="Upper Austria" id="AT-4" />
   <path
      d="m 418.95342,295.29365 15.1,4.38 3.57,-3.89 18.08,-1 1.44,-4.89 5.71,0.55 0.89,-3.48 8.42,0.56 0.5,3.51 8.12,4.49 7.92,-0.5 5.22,6.14 3.37,-1.26 1.94,9.17 9.21,1.28 -0.9,6.22 3.31,-0.54 2.23,4.73 11.04,5.32 4.41,-3.99 4.67,11.6 v 0 l -10.99,5.02 6.73,27.39 -2.13,8.01 5.38,10.04 -12.67,18.38 v 0 l -0.92,11.02 3.82,9.82 -15.43,-7.81 -19.57,3.8 -7.48,8.76 -7.07,-4.75 -27.87,0.41 v 0 l -3.51,-2.46 0.53,-11.19 -4.27,-2 4.12,-14.38 -14.66,-16.26 -18.29,6.13 -10.99,-3.03 -6.1,5.06 -2.69,-5.17 -10.61,-0.34 -2.44,-5.56 -15.01,8.15 -6.74,9.71 -6.54,1.31 -5.27,-3.98 v 0 l 9.94,-14.22 -2.22,-4.96 9.14,-3.76 -7.68,-4.99 -5.96,-13 -8.94,4.08 -8.33,-2.88 -3.47,-16.14 1.75,-6.14 v 0 l 10.99,1.3 2.57,-10.7 -4.95,-3.64 0.13,-5.32 6.67,-10.46 18.44,1.86 3.66,3.93 -0.33,6.01 14.52,-3.93 1.89,4.52 4.53,0.68 16.55,-8.72 0.56,-3.51 13.35,-6.43 z"
      class="land" title="Styria" id="AT-6" />
   <path
      d="m 268.82342,265.62365 5.82,-4.53 9.18,-0.98 7.91,8.84 12.02,-4.88 5.67,4.12 -0.93,4.39 -6.22,-1.27 0.57,14.23 8.34,4.21 10.94,-0.45 -0.83,3.07 -4.22,-1.64 -2.1,5.81 8.52,2.76 -4.86,8.6 3.09,2.78 -3.64,9.68 8.68,7.4 v 0 l -1.75,6.14 3.47,16.14 8.33,2.88 8.94,-4.08 5.96,13 7.68,4.99 -9.14,3.76 2.22,4.96 -9.94,14.22 v 0 l -7.24,-11.14 -23.53,-3.48 -2.83,-3.3 -7.04,0.35 -2.16,5.45 -15.24,3.51 -11.08,-7.42 -14.55,-2.57 -0.42,-3.29 -6.62,3.49 v 0 l -12.31,-6.42 -7.57,0.51 -12.96,9.76 v 0 l -8.13,-1.43 v 0 l -4.32,-13.34 2.27,-12.77 28.79,-2.34 2.85,-8.19 5.74,0.14 4.5,-8.74 5.21,-1.33 -5.43,-8.18 2.82,-3.5 -7.27,-3.02 v -3.58 0 l 2.43,-4.78 14.23,-0.09 -1.9,2.64 5.23,4.57 -3.5,3.66 1.29,3.04 16.43,10.87 3.54,-3.41 2.67,-22.96 -5.08,-4.32 h -8.71 l 7.64,-14.92 z"
      class="land" title="Salzburg" id="AT-5" />
   <path
      d="m 218.98342,375.22365 12.96,-9.76 7.57,-0.52 12.31,6.43 v 0 l 5.42,6.64 4.47,0.44 -3.86,5.29 1.78,4.06 17.58,19.59 -2.84,3.44 -17.22,2.91 -1.96,9.39 v 0 l -10.09,0.59 -11.89,-5.58 -4.83,-8.74 -5.69,-1.05 1.86,-6.49 -2.44,-4.99 -4.91,0.99 -5.78,-4.29 2.03,-2.99 -3.8,-8.36 z m 0.77,-75.55 1.02,3.89 14.4,-2 4.69,8.25 6.15,-0.87 v 0 l -0.01,3.58 7.27,3.02 -2.81,3.49 5.42,8.18 -5.21,1.33 -4.5,8.74 -5.74,-0.14 -2.84,8.2 -28.79,2.34 -2.27,12.77 4.32,13.35 v 0 l -30.98,13.1 -10.26,-5.13 -6.55,3.48 -4.56,-3.3 -6.02,5.48 -6.73,-3.21 -12.38,3.1 -5.5,6.16 -1.04,10.68 -5.03,6.33 -23.280001,-2.45 2.730001,-4.12 -7.750001,-6.04 -9.5,4.43 -6.03,-2.22 1.49,-9.78 -8.07,-7.22 -5.77,8.79 -5.95,-0.62 -0.81,7.55 -6.89,1.81 v 0 l -3.99,-8.65 5.02,-6.69 -2.12,-11.54 6.26,-7.83 0.75,-12.24 -3.23,-2.14 v 0 l 12.05,-4.09 8.44,-8.94 3.17,-6.06 -2.99,-17.81 3.41,-0.09 -2.04,3.49 5.43,2.42 3.88,0.15 2.09,-4.13 14.280001,6.43 8.72,-2.69 2.39,2.82 -3.87,3.63 5.29,0.18 3.31,9.7 11.11,0.21 7.2,-4.4 3.8,0.68 -2.33,3.87 3.56,-0.24 5.54,-6.15 6.73,0.54 -3,-3.27 3.94,-4.82 11.17,-0.2 5.12,-9.37 16.61,1.5 13.09,-5.1 15.46,2.26 -3.17,-11.08 7.41,-5.08 z"
      class="land" title="Tyrol" id="AT-7" />
   <path
      d="m 24.533419,313.45365 1.05,5.5 4.67,2.26 7.65,-2.14 2.42,7.47 7.16,2.86 0.69,12.17 6.76,-4.43 4.33,1.25 -4.59,13.12 v 0 l 3.22,2.13 -0.75,12.24 -6.26,7.83 2.12,11.55 -5.02,6.68 3.99,8.65 v 0 l -3.21,1.12 -6.9,-7 -11.27,-3.9 0.14,-10.05 -21.6799996,-4.71 1.8699996,-8.12 -5.0199996,-5.03 -3.01,-11.44 11.3799996,-14.1 -1.2,-7.45 -4.9999996,-1.26 -7.53999999,-11.24 18.41999959,3.2 z"
      class="land" title="Vorarlberg" id="AT-8" />
   <path
      d="m 551.37342,227.45366 0.34,0.08 v 0 l 11.63,6.6 1.84,14.94999 -4.46,-2.63 -6.22,4.68 -17.12,-0.52 -3.1,-5.62 1.78,-10.89999 4.05,2.49 6.12,-5.04 v 0 l 1.72,0.01 v 0 l 3.16,-4.23 v 0 z"
      class="land" title="Vienna" id="AT-9" />
   <g id="stadiums" data-country="austria" data-circle-radius="6" data-circle-colors="#a149be,#bea149" />
</svg>