<?xml version="1.0" encoding="UTF-8" standalone="no"?>
<?xml-stylesheet type="text/css" href="/styles/home.css"?>
<!-- https://www.amcharts.com/svg-maps -->

<svg version="1.1" xmlns="http://www.w3.org/2000/svg" id="map-azerbaijan"
   viewBox="0 0 774.02295 612.3905">
  <defs
     id="defs4">
    <style
       type="text/css"
       id="style2">
			.land
			{
				fill: #aa6658;
				fill-opacity: 1;
				stroke:white;
				stroke-opacity: 1;
				stroke-width:0.5;
			}
		</style>
    <!-- <amcharts:ammap projection="mercator" leftLongitude="44.760601" topLatitude="41.906070" rightLongitude="50.614493" bottomLatitude="38.353659"></amcharts:ammap> -->
    <!-- All areas are listed in the line below. You can use this list in your script. -->
    <!--{id:"AM-GR"},{id:"AZ-ABS"},{id:"AZ-AGA"},{id:"AZ-AGC"},{id:"AZ-AGM"},{id:"AZ-AGS"},{id:"AZ-AGU"},{id:"AZ-AST"},{id:"AZ-BA"},{id:"AZ-BAB"},{id:"AZ-BAL"},{id:"AZ-BAR"},{id:"AZ-BEY"},{id:"AZ-BIL"},{id:"AZ-CAB"},{id:"AZ-CAL"},{id:"AZ-CUL"},{id:"AZ-DAS"},{id:"AZ-FUZ"},{id:"AZ-GA"},{id:"AZ-GAD"},{id:"AZ-GOR"},{id:"AZ-GOY"},{id:"AZ-GYG"},{id:"AZ-HAC"},{id:"AZ-IMI"},{id:"AZ-ISM"},{id:"AZ-KAL"},{id:"AZ-KAN"},{id:"AZ-KUR"},{id:"AZ-LA"},{id:"AZ-LAC"},{id:"AZ-LAN"},{id:"AZ-LER"},{id:"AZ-MAS"},{id:"AZ-MI"},{id:"AZ-NA"},{id:"AZ-NEF"},{id:"AZ-NV"},{id:"AZ-OGU"},{id:"AZ-ORD"},{id:"AZ-QAB"},{id:"AZ-QAX"},{id:"AZ-QAZ"},{id:"AZ-QBA"},{id:"AZ-QBI"},{id:"AZ-QOB"},{id:"AZ-QUS"},{id:"AZ-SA"},{id:"AZ-SAB"},{id:"AZ-SAD"},{id:"AZ-SAH"},{id:"AZ-SAK"},{id:"AZ-SAL"},{id:"AZ-SAR"},{id:"AZ-SAT"},{id:"AZ-SBN"},{id:"AZ-SIY"},{id:"AZ-SKR"},{id:"AZ-SM"},{id:"AZ-SMI"},{id:"AZ-SMX"},{id:"AZ-SR"},{id:"AZ-SUS"},{id:"AZ-TAR"},{id:"AZ-TOV"},{id:"AZ-UCA"},{id:"AZ-XAC"},{id:"AZ-XCI"},{id:"AZ-XIZ"},{id:"AZ-XVD"},{id:"AZ-YAR"},{id:"AZ-YE"},{id:"AZ-YEV"},{id:"AZ-ZAN"},{id:"AZ-ZAQ"},{id:"AZ-ZAR"}-->
  </defs>
  <path
     d="m 94.699616,214.1129 -1.9,2.99 0.7,2.79 3.11,2.93 3.560004,0.06 1.46,-2.29 0.57,-2.1 -2.670004,-3.11 -3.24,-1.91 z"
     class="land"
     title="Geġark'unik'"
     id="AM-GR" />
  <path
     d="m 613.89962,298.9429 -2.42,1.51 -1.87,2.11 -0.12,1.51 0.93,2.3 -0.1,1.51 -2.24,4.35 -1.83,2.32 -1.24,2.67 -0.05,2.68 1.02,2.83 0.01,2.1 -4.17,6.06 -0.43,5.32 -2.33,4.51 -2.87,-4.21 -2.71,-2.92 v 0 l -0.73,-1.38 -0.27,-4.82 v 0 l -1.68,-3.03 v 0 l -2.12,-2.28 -1.36,-2.64 -0.21,-1.56 v 0 l -0.21,-4.85 v 0 0 0 l -1.52,-2 v 0 l -1.43,-2.36 -1.87,-1.19 v 0 l -11.09,-0.45 v 0 l -2.31,-0.96 v 0 l -5.55,-0.2 -1.77,-0.5 -2.77,-3.67 -2.05,-4.03 -4.27,-4.45 v 0 l -0.34,-0.42 v 0 l -1.31,-2.26 -3.72,-3.5 v 0 l -1.37,-0.69 v 0 l -3.69,-2.78 -1.12,-7.51 2.73,0.9 5.68,3.55 v 0 l 0.39,0.29 v 0 l 1.02,1.68 v 0 l 0.92,0.77 v 0 l 1.59,-1.18 v 0 l 1.05,-1.94 1.92,-1.98 v 0 l 2.56,-1.61 1.59,-2.68 v 0 l 1.38,-2.18 1.97,-1.9 v 0 l 1.9,-1.09 3.65,-0.33 v 0 l 0.34,-0.17 v 0 l 4.22,-6.73 2.44,-1.28 3.36,-1.01 4.14,-0.4 2.67,-3.12 1.94,-1.08 v 0 l 2.1,-1.13 v 0 l 0.87,-0.73 v 0 l 4.09,-7.26 v 0 l 5.83,-0.36 v 0 l 1.59,-0.19 v 0 l 1.81,-0.74 4.98,-0.02 v 0 l 2.05,-0.84 v 0 l 2.21,-2.42 0.42,-5.34 v 0 l 2.92,-3.43 0.65,-1.3 1.92,-1.97 2.02,-1.18 0.99,-1.07 1.11,-2.11 v 0 l 0.54,-1.76 0.74,-0.07 v 0 l 0.35,0.18 v 0 l 8.93,8.97 1.02,1.82 v 0 l 3.02,5.22 v 0 l 1.23,0.45 v 0 l 3.35,0.12 v 0 l 1.64,-0.07 2.31,-0.9 2.84,-0.35 2.03,-0.9 2.15,-3.96 3.04,0.68 -1.41,2.11 -0.74,5 1.23,0.04 4.85,-2.2 1.52,-0.09 3.84,1.33 3.53,1.84 3.77,0.4 4.4,1.36 0.62,0.91 v 0.98 l -1.08,1.04 -6.6,1.29 -4.66,1.64 -3.15,0.39 -5.66,2.53 -3.42,-1.63 -1.58,-0.26 -6.69,-0.06 -3.62,1.27 -3.56,0.66 -3.45,-1.09 -2.1,0.07 -3.37,1.51 -0.99,1.6 -0.56,2.4 -1.32,1.6 -3.38,1.24 -3.87,0.04 -1.53,0.61 -1.66,2.64 -1.23,3.21 0.95,2.82 0.23,3.22 0.98,2.86 -0.03,15.42 -0.95,2.69 -0.34,2.61 z m 37.48,-37.25 -4.27,0.31 -1.07,6.17 -2.29,5.18 -0.08,2.9 2.74,0.84 5.64,-4.42 3.81,2.82 2.06,-1.14 0.91,-2.52 1.6,-2.21 -2.13,-4.96 -0.38,-2.44 z"
     class="land"
     title="Abşeron"
     id="AZ-ABS" />
  <path
     d="m 82.079616,156.1529 0.01,-4.63 -0.93,-2.42 -0.2,-4.39 -0.93,-2.33 -0.07,-1.61 0.23,-1.02 1.73,-2.38 -0.74,-3.78 0.89,-2.29 0.35,-2.64 1.77,-4.61 0.49,-3.14 0.79,-1.8 0.02,-2.15 -1.22,-2.8 -1.14,-1.37 -1.5,-0.84 -5.52,-0.35 -1.81,-0.81 -2.64,-0.4 -3.85,-1.32 -6.94,-3.71 -3.03,-2.55 -9.96,-5.479998 v 0 l 3.11,-4.82 3.64,-3.84 0.86,-0.5 3.68,-0.74 2.23,-2.27 2.94,-1.81 1.1,-3.19 0.87,-0.98 3.75,-0.25 2.37,-1.34 1.36,0.24 1.78,0.98 1.91,2.06 6.19,4.17 2.01,-0.06 0.78,-0.5 3.16,-3.57 2.68,0.29 0.95,0.51 2.95,3.35 1.18,0.72 6.940004,1.96 1.78,0.81 0.63,1.46 0.44,2.62 1.45,1.39 1.11,0.49 1.1,0.37 4.73,-0.89 1.47,0.36 3.54,2.14 2.29,0.54 2.77,-1.71 0.77,0.05 3.01,3.47 -0.99,0.7 -3.31,0.469998 -1.38,1.4 -1.32,2.44 -0.72,0.15 -0.42,1.36 5.39,7.9 8.11,5.12 v 0 l -12.24,6.44 -3.06,3.07 -1.22,3.54 -1.98,1.78 -1,0.05 -6.94,-3.57 -1.22,-0.11 -0.41,1.14 0.09,3.34 0.74,1.79 0.51,3.2 1.94,4.06 -0.12,4.89 -1.72,3.04 -4.28,4.06 -7.870004,2 -0.86,3.13 -3.26,3.11 v 0 l -3.95,1.81 -1.89,-0.78 0.28,-5.34 2.55,-3.87 -0.06,-0.68 -0.63,-0.26 -3.12,0.38 z"
     class="land"
     title="Ağstafa"
     id="AZ-AGA" />
  <path
     d="m 393.61962,311.5329 -6.99,14.75 -0.32,5.84 -0.98,2.91 -0.13,4.72 -0.9,2.31 -0.35,2.58 -2.61,4.96 -2.21,1.45 -4.78,0.31 -4.16,2.77 -7.6,0.23 -0.45,0.44 -0.54,1.89 -0.71,0.8 -1.33,0.71 -2.44,0.51 -1.73,1.35 -0.12,4.24 1.66,2.79 -0.37,0.63 -2.66,1.64 -0.75,1.46 0.67,1.23 2.5,1.85 1.42,3.62 v 0 l -4.25,0.51 -2.27,0.82 -3.26,0.21 -4.56,2.87 -6.06,0.79 v 0 l 4.26,-8.41 0.01,-2.01 -1.84,-2.98 -8.33,-5.37 -1.32,-1.26 -0.56,-1.14 -0.48,-4.35 v 0 l 2.4,-1.86 2.46,-3.51 -0.12,-3.72 -1.92,-2.95 -1.78,-0.51 -3.32,0.02 -6.27,2.87 -3.8,0.99 -3.01,-1.71 -3.03,-0.6 -3.96,-1.58 -2.37,-2.31 -0.48,-1.51 0.07,-1.59 0.54,-1.1 1.24,-1.14 2.37,-1.28 1.18,-1.4 0.19,-8.09 0.47,-1.8 1.24,-0.8 4.79,-0.31 0.91,-0.68 1.31,-2.37 -0.07,-0.8 -0.68,-0.84 -2.65,-0.89 -1.57,-1.14 -0.38,-1.29 0.19,-0.97 1.41,-1.22 7.12,-3.5 2.29,-3.32 2.57,-2.85 v 0 l -1.09,-2.48 0.63,-0.93 0.96,-0.22 1.09,0.82 2.55,4.21 2.44,1.41 2.05,0.04 2.83,-1.49 2.54,-2.18 1.71,-0.82 3.67,-3.26 3.94,-2.01 2.95,-2.43 1.89,-0.95 3.57,-3.6 v 0 l -0.67,5.3 0.04,4.93 0.42,0.96 2.61,3.07 0.47,2.03 1.58,3.19 2.02,0.14 3.45,-1.84 3.26,-0.21 2.32,-0.83 3.26,-0.16 2.28,-0.74 5.46,1.75 0.57,-0.75 0.63,-2.74 0.66,-0.91 0.86,-0.3 2.68,1.1 1.54,1.18 1.34,3.12 z"
     class="land"
     title="Ağcabədi"
     id="AZ-AGC" />
  <path
     d="m 326.41962,303.4429 -2.57,2.85 -2.29,3.32 -7.12,3.5 -1.41,1.22 -0.19,0.97 0.38,1.29 1.57,1.14 2.65,0.89 0.68,0.84 0.07,0.8 -1.31,2.37 -0.91,0.68 -4.79,0.31 -1.24,0.8 -0.47,1.8 -0.19,8.09 -1.18,1.4 -2.37,1.28 -1.24,1.14 -0.54,1.1 -0.07,1.59 0.48,1.51 2.37,2.31 3.96,1.58 3.03,0.6 3.01,1.71 3.8,-0.99 6.27,-2.87 3.32,-0.02 1.78,0.51 1.92,2.95 0.12,3.72 -2.46,3.51 -2.4,1.86 v 0 l -2.3,-0.76 -6.63,0.27 -1.31,1.37 -1.57,3.26 -0.9,0.97 -6.77,-2.47 -3.4,-1.65 -2.8,-1.61 -3.46,-3.19 -1.09,-0.53 -2.15,-0.09 -2.34,0.85 -2.7,0.15 -0.72,0.32 -0.37,0.69 -1.17,5.96 -1.89,2.24 -4.6,1.55 -6.2,3.25 v 0 l 2.78,-6.63 5.24,-6.6 1.28,-3.76 -0.3,-2.96 -1.5,-1.45 -3.1,0.89 -1.66,-0.55 -2.73,-1.67 -0.65,-1.52 -0.24,-4.3 -2.66,-3.1 -1.17,-2.1 -2.14,-2.07 -1.63,-0.63 -1.62,0.01 -4.04,1.87 -1.55,0.09 -3.07,-1.53 -1.7,-2.24 v 0 l 1.47,-1.63 3.26,-0.11 3.68,-0.81 v 0 l 1.21,-4.69 -0.9,-2.59 0.14,-2.03 0.73,-0.79 3.35,-1.6 1.07,-0.99 1.25,-3.2 0.12,-4.91 0.43,-1.2 2.94,-1.78 0.97,0.04 1.8,0.79 2.15,0.07 4.88,-1.85 2.17,-2.38 v -0.95 l -0.86,-2.35 0.29,-1.86 1.79,-0.05 3,2.55 1.6,0.57 1.23,-0.33 1.7,-1.61 1.45,0.1 2.09,2.13 0.43,4.27 1.49,1.7 2.17,0.58 2.49,-0.79 1.74,0.11 v 0 0 0 l 5.26,-1.25 2.75,0.15 3.4,1.08 z"
     class="land"
     title="Ağdam"
     id="AZ-AGM" />
  <path
     d="m 373.65962,242.0229 -6.14,-2.65 -3.45,1.47 -3.66,0.4 -0.62,0.88 -0.34,2.05 -0.76,1.79 -0.13,4.91 -1.01,2.8 -0.02,2.12 1.75,3.23 4.29,2.56 1.14,1.13 0.56,1.27 0.02,1.35 v 0 l -3.15,6.64 -0.65,2.42 -8.94,8.7 v 0 l -2.29,-1.15 -3.24,-0.71 -0.61,-0.92 -0.33,-2.07 -1.59,-2.73 -4.43,-2.35 -0.44,-2.3 0.6,-3.43 -3.71,-0.77 -2.08,-1.72 -1.4,-3.07 -0.12,-4.93 -0.43,-1.21 -3.63,-2.54 -1.79,-2.65 -2.29,-0.89 -2.12,-2.01 -0.61,-0.93 -0.78,-3.72 -2.23,-4.2 v 0 l 3.23,-1.41 1.65,-1.41 1.06,-1.32 2.22,-4.39 0.13,-3.73 -2.07,-4.54 -0.06,-4.92 0.98,-2.81 0.35,-2.61 1.77,-3.47 2.62,-11.88 v 0 0 0 l 3.1,0.91 5.58,0.45 6.27,3.19 2.01,-0.15 1.18,-1.49 1.19,-0.31 7.05,2.56 2.47,1.26 5.87,-1.65 v 0 l 0.78,4.8 0.24,11.43 1.38,1.28 4.47,2.31 1.46,1.36 v 0 l 4.33,5.89 -2.5,2.92 -1.38,2.6 z"
     class="land"
     title="Ağdaş"
     id="AZ-AGS" />
  <path
     d="m 486.47962,284.7129 -2.9,-1.47 -1.77,-1.63 -1.49,-2.88 -0.44,-2.04 -1.59,-2.72 -1.54,-0.68 -3.87,-0.27 -1.49,-1.17 -1.16,-2.57 0.82,-2.24 0.39,-2.61 0.66,-1.29 0.13,-1.51 -1.35,-3.11 -1.45,-1.72 -8.17,-0.42 -2.13,0.23 -3.08,2.51 -2.31,3.07 -1.51,0.57 -1.27,-0.36 -1.46,-1.3 -0.86,-3.15 -0.41,-0.34 -4.36,1.56 -4.37,-2.21 -0.65,-1.58 0.09,-3.27 1.94,-5.06 1.77,-6.23 v 0 l 1.79,1.7 0.9,0.04 1.14,-0.61 1.1,-1.33 0.29,-3.77 0.69,-1.32 6.13,-5.9 3.42,-1.21 1.3,-0.82 0.94,-2.98 0.7,-0.87 10.32,-5.07 6.87,-4.31 2.69,-2.33 2.45,-1.41 2.13,-3.47 3.75,-11.72 v 0 l 1.61,2.57 0.84,3.03 2.28,2.37 2.44,1.73 1.37,3.57 0.12,1.54 -3.05,5.02 0.7,2.7 -0.28,0.88 -2.58,3.69 -6.56,6.47 -1.36,2.61 0.19,1.38 3.32,5.5 1.69,1.56 4.1,1.54 9.97,0.42 6.01,3.99 2.52,1.35 1.46,0.37 0.48,0.54 -0.75,1.7 -1.14,1.08 -6.97,3.92 -5.66,2.68 -2.5,2.17 -0.68,1.75 -0.21,6.52 -2.79,3.18 -2.91,4.31 v 0 l -1.67,1.25 -0.39,2.11 z"
     class="land"
     title="Ağsu"
     id="AZ-AGU" />
  <path
     d="m 548.26962,569.9429 0.4,15.57 -0.13,15.7 -7.1,1.5 -3,2.18 -1.92,2.05 -3.27,0.96 -5.33,0.41 -2.05,2.45 -2.45,1.37 -4.78,-0.55 -2.05,-2.04 -3.96,-1.23 -5.32,-3.83 0.39,-4.08 -2.01,-5.43 -1.47,-2.51 -3.61,-3.92 v 0 l 1,-0.86 1.47,-2.42 0.43,-4.14 1.34,-1.52 6.35,-3.56 1.55,-0.07 2.63,0.75 5.2,-2.85 v 0 0 0 0 0 l 3.29,1.09 5.6,0.12 6.26,-2.79 7.2,-2.14 v 0 l 4.52,-1.02 v 0 z"
     class="land"
     title="Astara"
     id="AZ-AST" />
  <path
     d="m 773.76962,278.1029 -0.32,0.84 -2.06,-0.47 -3.08,1.1 -1.68,2.7 -1.77,1.1 -0.48,-0.4 2.59,-3.17 -0.3,-0.58 0.05,-2.26 -0.45,-0.76 -1.75,-0.8 -0.14,-0.25 0.82,-0.68 -0.69,-1.1 -0.88,0.08 -0.8,-1.19 0.3,-0.25 1.42,0.49 1.62,2.21 1.45,1.01 0.62,1.45 0.51,-0.79 v -0.79 l -0.69,-3.28 2.25,1.44 0.44,-0.08 0.12,-0.9 2.73,2.99 z m -32.23,12.2 -0.1,6.8 -0.76,1.87 -0.45,-5.07 -1.59,-5.21 0.31,-1.68 -0.82,-3.64 -0.69,-1.13 -2.94,-3.44 -1.12,-0.3 -1.61,-1.45 -2.29,-0.48 -0.53,-0.72 -6.51,-3.44 -2.12,-0.7 -1.92,-0.25 -2.83,0.23 -2.37,-1.44 -3.83,-1.05 -2.56,-0.22 -1.83,0.59 -1.11,0.93 -0.9,2.1 -1.7,-0.03 -1.88,-0.76 -1.64,0.14 -2.15,0.57 -2.58,2.83 -1,0.07 -3.4,-1.01 -2.59,0.65 -0.46,-2.06 -0.91,-1.43 -3.51,-2.52 -2.5,-0.45 -3.76,-0.08 -1.18,0.38 -0.52,-0.36 -2.17,0.85 -1.16,1.53 0.51,1.95 0.26,0.22 0.82,-0.33 0.66,0.69 -0.96,0.63 -0.03,2.26 -0.99,3.29 -0.66,0.78 -0.83,0.45 -1.58,-0.05 -1.11,-0.45 -2.9,0.55 -2.94,1.1 -3.59,2.75 -1.26,0.45 -2.1,-0.45 -2.77,0.48 -1.07,0.98 -1.29,2.15 -2.62,1.09 -1.27,1.04 -0.29,1.12 0.91,0.04 -0.15,0.38 -1.54,0.47 -0.2,-1.47 -0.4,-0.09 -1.16,1.3 -4.33,1.79 -2.23,2.11 -5.7,2.07 -3.08,3.39 -2.46,0.59 -1.04,1.18 -0.45,3.21 0.44,3.35 2.1,3.41 -1.64,0.26 -0.85,0.8 -1.55,-0.36 -1.28,1.24 -1.21,0.26 -0.97,1.27 -1.58,0.98 -0.47,1.46 1.13,4.71 1.42,2.95 4.1,4.94 2.04,3.27 -0.37,0.95 -2.91,2.36 -3.56,1.79 -0.87,0.97 -0.61,1.87 -0.25,2.13 1.3,6.63 2.5,5.11 -1.24,1.65 -1.52,0.32 -1.14,1.25 -0.56,3.63 -2.68,4.75 -0.12,2.43 0.4,3 1.59,5.95 2.29,4.75 -5.47,2.63 -2.53,2.77 -0.73,-1.87 -0.2,-5.32 -0.77,-1.84 -0.24,-1.75 0.06,-11.17 0.27,-1.24 1.3,-1.98 -0.56,-8.26 -4.19,-6.21 -1.09,-2.22 -0.44,-3.12 -1.09,-2.94 -1.2,-1.42 2.33,-4.51 0.43,-5.32 4.17,-6.06 -0.01,-2.1 -1.02,-2.83 0.05,-2.68 1.24,-2.67 1.83,-2.32 2.23,-4.35 0.1,-1.51 -0.93,-2.3 0.12,-1.51 1.87,-2.11 3.08,-2.13 1.33,-2.38 0.34,-2.61 0.91,-2.28 0.07,-15.83 -0.98,-2.86 -0.22,-3.22 -0.95,-2.82 1.23,-3.21 1.65,-2.64 1.27,-0.56 4.64,-0.21 3.08,-1.23 1.11,-1.5 0.56,-2.4 0.99,-1.6 3.37,-1.51 2.07,-0.07 3.47,1.09 3.56,-0.66 3.62,-1.27 6.66,0.06 1.58,0.26 3.45,1.63 5.67,-2.54 3.15,-0.39 4.66,-1.64 6.6,-1.29 0.92,-0.6 0.16,-1.42 -0.62,-0.91 -4.4,-1.36 -3.77,-0.4 -3.53,-1.84 -3.85,-1.33 -1.55,0.09 -4.85,2.2 -1.2,-0.04 0.74,-5 1.41,-2.11 5.7,-0.33 2.23,1.38 2.38,0.52 8.26,-1.25 7.29,-1.61 5.54,-2.03 1.71,0.03 1.92,1.32 1.54,0.17 4.99,-1.16 1.23,0.03 1.21,-0.63 0.32,0.92 -0.94,1.67 0.32,0.86 2.87,3.08 0.56,2.28 0.64,0.89 1.47,0.96 0.76,1.26 0.95,0.52 3.7,0.44 0.69,0.7 1.69,0.27 1.91,1.32 1.47,-0.51 0.86,0.55 1.28,-0.05 1.27,0.95 0.93,-0.2 1.55,2.68 0.06,1.08 1.28,1.27 0.29,1.14 1.28,0.83 0.36,1.7 0.8,0.35 0.73,-0.65 1,2.99 1,1.2 6.46,4.12 0.4,2.14 2.96,6.3 0.08,6.12 -0.76,3.98 0.9,3.57 -0.21,1.45 0.76,1.26 0.17,2.08 z m -83.6,-28.07 -6.56,-0.53 -4.27,0.31 -1.07,6.17 -2.29,5.18 -0.08,2.9 2.74,0.84 5.64,-4.42 3.81,2.82 2.06,-1.14 0.91,-2.52 1.6,-2.21 -2.13,-4.96 z m -13.73,73.91 -0.67,1.12 0.37,0.58 3.27,-0.8 0.63,-1.2 -0.95,-1.99 -0.03,-1.2 h -2.98 z m 92.08,-80.15 0.02,1.15 1.11,0.5 1.15,1.73 -1.16,0.49 0.13,0.37 0.87,0.08 1.17,5.51 0.43,0.08 -0.2,-3.47 0.72,-1.8 0.61,-0.58 -0.02,-0.68 -0.56,-1.76 -0.71,0.01 -0.64,-0.81 -0.31,-1.9 -0.42,-0.59 0.65,-1.49 -0.96,-2.95 -0.62,-0.57 h -0.83 l -0.84,-0.9 -0.92,1.06 -1.44,0.94 -0.86,-0.2 -0.16,0.42 0.55,0.92 1.73,1.07 0.79,2.3 z"
     class="land"
     title="Bakı"
     id="AZ-BA" />
  <path
     d="m 94.079616,417.7429 -0.32,2.28 -1.79,0.77 -2.82,3.58 -6.91,4.87 0.76,3.07 2.82,0.77 h 1.79 l 1.54,2.05 0.51,3.84 2.05,3.33 7.94,0.51 3.840004,4.35 3.84,2.82 -1.28,3.58 1.03,1.54 v 0 h 2.81 v 0 l 0.26,2.82 -0.77,2.3 -3.07,2.05 v 3.84 l -0.51,2.56 -4.1,0.52 -2.560004,0.76 v 2.82 l 5.380004,4.35 0.76,2.31 -0.25,3.33 -2.31,2.05 -1.28,4.35 2.56,3.07 3.33,2.31 1.03,3.33 -0.26,3.07 -1.79,2.3 0.25,5.92 v 0 l -1.95,1.12 -1.82,-0.05 -3.360004,-2.01 -5.96,-1.85 -2.91,-1.75 -1.02,-1.12 -0.37,-1.42 1.89,-3.88 0.28,-3.05 -0.43,-0.46 -2.13,-0.06 -3.02,-1.88 -0.8,-0.91 -0.34,-1.81 0.34,-1.78 -0.8,-1.98 -4.13,-5.49 -0.74,-4.3 -1.39,-0.86 -2.72,0.48 -1.25,-1.81 1.04,-0.95 1.19,-2.19 -0.47,-1.07 -1.16,-0.23 -1.64,0.71 -1.98,1.58 -8.85,-3.05 -2.59,0.02 -0.79,-0.91 -0.31,-1.02 -1.39,-1.47 -0.9,0.43 -0.2,1.64 -2.18,0.27 -0.51,-5.01 -5.87,-11.83 v 0 l 3.67,-0.46 2.05,2.05 3.08,-1.54 2.04,-0.51 1.54,1.02 5.63,-4.86 1.28,-4.36 4.1,-8.19 1.03,-3.33 v -5.38 l -0.52,-3.84 3.08,-1.79 0.51,-3.84 2.64,-6.98 v 0 l 4.96,1.27 3.82,2.08 2.9,-0.09 1.18,1.13 1.46,3.42 0.48,0.5 z"
     class="land"
     title="Babək"
     id="AZ-BAB" />
  <path
     d="m 219.26962,0.46290224 0.98,0.71999996 0.73,1.22 1.54,0.94 3.96,0.6 4.73,-0.17 3.31,1.28 0.84,1.05 0.15,8.5099998 1.48,2.29 1.18,0.86 2.09,0.21 1.03,-0.4 3.74,-2.22 4.55,-2.06 1.88,-0.28 4.15,1.32 0.99,-0.48 0.78,-2.84 v 0 l 0.93,1.25 0.3,1.15 -0.25,6.48 -1.22,2.74 -5.86,5.97 -2.1,1.15 -2.68,2.36 -1.78,0.91 -5.77,4.46 -1.5,2.85 -0.32,2.67 -1.23,3.86 -2.35,4.19 -8.8,5.48 -5.81,0.37 -2.61,2.63 -5.95,3.46 -1.4,-0.21 -4.77,-2.62 v 0 l -0.32,-1.92 0.58,-1.5 -1.03,-2.05 -3.9,-1.69 0.08,-0.26 -2.29,-0.34 -3.75,3.75 -2.41,-2.95 -0.27,-8.3 -1.88,-5.62 -1.88,-9.64 3.48,-4.55 5.89,-2.14 6.62,-1.38 5.76,-5.18 4.94,-2.99 2.93,-3.28 1.42,-2.8999998 0.66,-2.16 z"
     class="land"
     title="Balakən"
     id="AZ-BAL" />
  <path
     d="m 307.57962,303.9429 -0.3,-2.61 -0.89,-2.13 -0.23,-1.71 0.02,-11.84 1.02,-3.47 -0.17,-1.37 -1.05,-1.05 -3.67,-0.52 -1.5,-0.81 -1.13,-1.35 -2.52,-4.87 -2.91,-2.09 -1.36,-3.62 -0.77,-5.5 v 0 l 3.62,-4.55 2.14,-4.11 2.74,-3.8 2.11,-0.31 2.02,0.37 3.7,3.08 1.09,0.35 5.45,-3.79 1.92,-2.32 2.12,-7.13 v 0 l 2.23,4.2 0.78,3.72 0.61,0.93 2.12,2.01 2.29,0.89 1.79,2.65 3.63,2.54 0.43,1.21 0.12,4.93 1.4,3.07 2.08,1.72 3.71,0.77 -0.6,3.43 0.44,2.3 4.43,2.35 1.59,2.73 0.33,2.07 0.61,0.92 3.24,0.71 2.29,1.15 v 0 l -1.59,2.89 0.37,1.62 1.63,1.01 4.51,-0.22 0.76,0.38 -0.08,0.78 v 0 l -3.57,3.6 -1.89,0.95 -2.95,2.43 -3.94,2.01 -3.67,3.26 -1.71,0.82 -2.54,2.18 -2.83,1.49 -2.05,-0.04 -2.44,-1.41 -2.55,-4.21 -1.09,-0.82 -0.96,0.22 -0.63,0.93 1.09,2.48 v 0 l -7.43,0.48 -3.4,-1.08 -2.75,-0.15 z"
     class="land"
     title="Bərdə"
     id="AZ-BAR" />
  <path
     d="m 378.76962,410.1129 1.81,-3.38 0.23,-1.54 -0.08,-3.24 -1.41,-3.03 -1.56,-1.55 -5.07,-3.11 -2.77,-2.63 -5.08,-7.62 -4.08,-0.55 -1.07,-0.57 -1.05,-1.66 -0.9,-3.71 v 0 l -1.42,-3.62 -2.5,-1.85 -0.67,-1.23 0.75,-1.46 2.66,-1.64 0.37,-0.63 -1.66,-2.79 0.12,-4.24 1.73,-1.35 2.44,-0.51 1.33,-0.71 0.71,-0.8 0.54,-1.89 0.45,-0.44 7.6,-0.23 4.16,-2.77 4.78,-0.31 2.21,-1.45 2.61,-4.96 0.35,-2.58 0.9,-2.31 0.13,-4.72 0.98,-2.91 0.32,-5.84 6.99,-14.75 v 0 l 3.79,2.74 1.02,1.23 -0.38,0.65 -2.94,2.06 v 0 l 3.38,4.76 3.71,2.3 1.11,1.11 0.76,1.35 1.27,4.34 -0.37,1.43 -1.63,2.49 -7.95,4.82 -0.96,1.09 -0.03,2.4 0.74,0.82 2.84,1.71 0.72,2.04 -0.49,2 -3.83,4.02 v 2.54 l 1.75,1.44 2.43,0.61 3.85,1.63 2.28,4.06 2.47,3.39 5.39,2.53 2.17,2.05 0.53,1.2 -0.23,0.77 -1.18,1.23 -2.13,1.11 -2.7,2.3 -5.1,2.94 -1.55,1.49 -2.54,4.03 -0.08,7.56 v 0 l -5.53,5.75 z"
     class="land"
     title="Beyləqan"
     id="AZ-BEY" />
  <path
     d="m 529.24962,433.7929 -5.51,-0.2 -4.2,-1.96 -2.09,0.96 -1.17,3.25 -2.99,1.88 -0.58,0.74 0.67,2.73 -0.02,6.92 -1.49,2.88 -1.79,0.9 -3.14,-0.3 -3.07,-2.68 -0.4,-0.97 -0.29,-4.78 -2.46,-4.62 -1.26,-0.86 -2.66,0.01 -2.44,1.29 -2.59,4.21 -3.07,2.99 -1.51,0.75 -3.28,0.22 -1.09,0.45 -1.11,1 -1.57,2.48 -2.41,1.21 -2.75,-0.16 -1.44,-1.2 -0.47,-9.48 v 0 l 4.76,-1.18 -2.86,-1.99 -4.48,-4.51 -2.79,-2.01 -1.78,-2.13 -12.03,-11.71 -2.06,-2.78 -3.91,-7.74 -3.09,-2.35 -3.26,-3.23 -2.12,-2.59 -3.37,-5.27 -7.04,-6.56 -1.94,-2.68 -4.87,3.83 v 0 l -2.3,-4.11 0.24,-0.97 0.93,-1 3.27,-1.77 1.35,-0.17 1.39,0.12 3.78,1.3 3.61,2.24 11.77,11.64 1.75,0.9 2.67,2.43 5.1,3.15 2.54,2.27 5.5,2.85 5.07,0.15 1.58,-0.55 5.77,-5.49 2.21,-4.06 v 0 l 3.66,-4.7 2.56,-2.44 1.11,-0.61 0.84,-0.02 3.83,1.62 2.47,3.41 1.42,2.7 0.81,0.72 1.01,0.24 4.49,0.11 1.78,-0.41 1.06,-1.36 1.74,-4.4 v 0 0 0 l 2.4,-0.02 3.68,1.82 18.36,6.07 v 0 l -1.51,4.8 -0.46,2.66 -0.78,1.75 -0.21,3.18 -0.8,1.75 -0.23,1.53 0.46,1.96 2.43,2.66 2.63,4.21 z"
     class="land"
     title="Biləsuvar"
     id="AZ-BIL" />
  <path
     d="m 332.31962,443.1929 -6.08,3.88 -2.24,3.31 -8.83,2.2 -5.88,4.65 -4.57,4.75 -0.56,3.02 -1.73,5.33 -1.86,3.09 -2.66,2.22 -2.05,0.12 -0.27,1.7 -1.79,1.22 -3.59,2.09 -3.98,-4.04 -4.81,0.67 -2.13,0.81 v 0 l -0.19,-5.14 -1.11,-2.2 -2.53,-3.52 -1.86,-1.51 -0.82,-1.28 v 0 l -2.42,-2.31 -6.47,-3.5 -1.14,-1.33 -1.08,-2.2 -0.41,-7.43 -1.52,-2.81 -2.42,-1.99 -0.33,-1.34 0.24,-4.79 2.23,-3.82 1.5,-0.52 v 0 l 3.91,0.68 4.51,2.54 1.44,-0.41 2.78,-5.26 -2.78,-6.37 1.33,-1.62 2.09,-0.04 3.38,2.71 2.78,0.77 1.59,1 0.31,0.53 -0.65,2.13 0.29,1.26 9.32,6.25 -0.41,2.06 0.34,0.73 1.99,0.14 1.52,-0.78 3.42,-2.93 1.2,-0.14 1.77,0.63 1.2,-0.69 0.21,-1.12 -2.92,-6.14 0.48,-0.95 1.95,-1.41 1.22,-2.04 v 0 l 5.85,3.62 2.37,0.75 1.5,1.04 2.93,5.42 0.5,1.88 0.71,0.85 1.14,0.23 1.81,-0.7 4.79,-0.81 4.55,2.95 1.91,2.03 z"
     class="land"
     title="Cəbrayıl"
     id="AZ-CAB" />
  <path
     d="m 476.99962,499.8229 -1.4,-3.46 -5.12,-6.69 -1.69,-1.54 -0.64,-3.36 -0.45,-0.44 -1.52,-0.29 -1.17,-0.89 -2.85,-0.5 -2.33,-1.03 -1.26,-1.23 -1.47,-3.59 0.08,-0.82 -2.09,-1.7 -5.14,-2.86 -3.07,-2.78 -0.51,-1.11 0.47,-1.49 -0.61,-0.8 -0.78,-2.77 0.44,-2.35 -0.15,-1.82 0.39,-0.64 1.04,-0.24 1.36,-2.91 1.64,-1.78 0.85,-0.08 1.08,-1.05 1.58,-0.5 0.64,-1.35 1.47,-1.12 0.69,-0.22 0.71,0.28 1.95,-0.94 1.45,0.21 1.92,-0.7 0.82,-0.66 0.01,-0.86 0.71,0.17 2.73,-1.67 2.19,-0.84 0.97,-0.89 1.41,0.06 1.72,-1.12 v 0 l 0.47,9.48 1.44,1.2 2.75,0.16 2.41,-1.21 1.57,-2.48 1.11,-1 1.09,-0.45 3.28,-0.22 1.51,-0.75 3.07,-2.99 2.59,-4.21 2.44,-1.29 2.66,-0.01 1.26,0.86 2.46,4.62 0.29,4.78 0.4,0.97 3.07,2.68 3.14,0.3 1.79,-0.9 1.49,-2.88 0.02,-6.92 -0.67,-2.73 0.58,-0.74 2.99,-1.88 1.17,-3.25 2.09,-0.96 4.2,1.96 5.51,0.2 v 0 0 0 l -4.22,5.07 -2.47,4.71 v 0 l -0.01,11.75 5.14,10.02 0.14,9.12 v 0 l -1.65,3.81 v 0 l -2.71,-1.08 -2.25,-0.13 -0.71,0.34 -0.31,0.7 0.62,2.32 -0.33,0.7 -0.89,0.09 -1.82,-0.81 -1.58,-0.19 -2.18,1.04 -0.58,1.02 v 1.56 l 2.02,2.89 0.84,1.8 -0.24,0.74 -9.54,4.91 -2.7,2.64 -1.35,2.58 -0.65,2.35 -2.41,2.29 -7.95,1.62 v 0 l -3.91,-4.68 -4.3,-2.82 -1.58,-0.2 -2.93,1.54 z"
     class="land"
     title="Cəlilabab"
     id="AZ-CAL" />
  <path
     d="m 157.38962,448.7729 -6.78,10.17 -3.07,1.28 -2.31,3.33 -0.25,8.45 -4.36,5.64 -1.53,5.89 -4.61,5.89 -1.8,3.84 -0.25,3.33 -1.03,3.84 -1.02,1.79 2.82,2.05 2.04,0.25 2.57,3.33 0.51,3.08 -2.05,2.05 -0.51,2.3 -1.58,1.58 v 0 l -0.87,-0.35 -4.06,-0.2 -2.2,-0.63 -0.43,-1.07 -0.84,-0.76 -4.55,-0.98 -1.73,-0.74 -1.82,-0.17 -4.24,1.69 -1.13,-0.08 -0.37,-0.45 0.21,-1.31 -0.36,-0.45 -2.06,-0.57 -1.56,-1.7 -1.14,-0.2 -0.47,0.27 v 0 l -0.25,-5.92 1.79,-2.3 0.26,-3.07 -1.03,-3.33 -3.33,-2.31 -2.56,-3.07 1.28,-4.35 2.31,-2.05 0.25,-3.33 -0.76,-2.31 -5.380004,-4.35 v -2.82 l 2.560004,-0.76 4.1,-0.52 0.51,-2.56 v -3.84 l 3.07,-2.05 0.77,-2.3 -0.26,-2.82 v 0 h -0.53 v 0 l 6.17,-4.61 h 3.58 l 2.31,-1.53 1.79,-2.82 h 2.56 l 1.28,1.02 0.51,2.31 2.31,1.53 3.58,-3.58 1.79,-2.56 0.52,-2.56 3.1,-1.64 v 0 l 1.21,0.68 6.15,0.77 2.76,1.28 z"
     class="land"
     title="Culfa"
     id="AZ-CUL" />
  <path
     d="m 184.60962,279.6929 -7.15,0.43 -2.93,0.9 -4.79,-0.07 -6.16,-1.49 -1.88,-0.8 -3.05,-0.17 -7.06,1.37 -1.13,1.42 v 0 l -4.46,0.38 -2,-0.19 -2.74,-3.05 v 0 l 0.06,-2.74 0.56,-1.12 1.21,-1.05 0.28,-0.86 0.28,-6.53 2,-3.84 -5.36,-9.57 -0.14,-7.06 1.08,-1.72 3.53,-3.32 7.6,-4.09 v 0 l 1.08,-1.1 0.03,-1.09 3.73,-3.64 1.2,-2.1 2.43,-2.6 2.86,-5.73 1.94,-2.92 1.09,-0.36 1.16,0.15 6.58,3.79 v 0 l 7.19,4.49 2.75,2.55 1.71,0.87 2.77,2.54 1.64,0.82 0.49,0.74 -2.58,3.94 -4.44,4.43 -0.85,1.67 -1.42,1.62 -0.27,0.99 2.01,3.65 7.08,7.1 4.63,3.16 0.2,1.62 -3.04,5.04 -2.91,2.69 -2.08,1.08 -1.39,1.54 -1.22,2.65 z"
     class="land"
     title="Daşkəsən"
     id="AZ-DAS" />
  <path
     d="m 341.81962,433.3929 -0.99,1.25 -1.66,3.45 -1.95,1.98 -4.9,3.12 v 0 l -1.03,-1.88 -1.91,-2.03 -4.55,-2.95 -4.79,0.81 -1.81,0.7 -1.14,-0.23 -0.71,-0.85 -0.5,-1.88 -2.93,-5.42 -1.5,-1.04 -2.37,-0.75 -5.85,-3.62 v 0 l 1.33,-1.43 -0.21,-2.89 3.93,-0.4 0.76,-0.53 -0.59,-2.11 -0.26,-3.23 -0.75,-2.23 0.7,-1.19 1.82,-1.14 -0.27,-1.98 0.47,-2.08 -1.25,-0.65 -1.82,0.36 -3.86,3.28 -2.36,1.18 -0.71,0.03 -1.26,-0.75 -0.54,-1.05 0.11,-0.98 2.12,-2.69 1.07,-0.53 3.23,-0.23 2.63,-1.13 1.55,-1.12 0.38,-1.27 -0.2,-0.95 -0.91,-0.56 -1.23,0.27 -2.73,1.57 -2,-0.29 -2.02,-1.18 -0.72,-0.91 -0.26,-1.4 0.42,-1.2 1.24,-0.4 6.09,-0.07 7.28,-3.54 3.58,-3.88 2.51,0.02 4.04,-1.75 6.62,-0.02 4.23,-1.88 1.95,-0.4 v 0 l 6.06,-0.79 4.56,-2.87 3.26,-0.21 2.27,-0.82 4.25,-0.51 v 0 l 0.9,3.71 1.05,1.66 1.07,0.57 4.08,0.55 5.08,7.62 2.77,2.63 5.07,3.11 1.56,1.55 1.41,3.03 0.08,3.24 -0.23,1.54 -1.81,3.38 v 0 l -3.44,2.37 -4.11,3.6 -3.43,2.25 -8.44,3.09 -6.94,3.01 -2.8,0.16 -2.57,0.9 -1.52,2.89 z"
     class="land"
     title="Füzuli"
     id="AZ-FUZ" />
  <path
     d="m 206.03962,207.0629 3.66,-0.19 2.29,1.16 0.79,1.07 0.2,1.09 -0.78,3.6 v 0 l -1.16,2.8 -3.34,3.06 -2.53,2.98 -1.46,0.4 -2.71,-1.6 -0.59,-2.03 0.89,-2.3 0.12,-1.62 -0.12,-1.62 -0.71,-1.81 0.09,-1.01 1.46,-1.73 z"
     class="land"
     title="Gəncə"
     id="AZ-GA" />
  <path
     d="m 90.209616,203.1429 -3.71,1.6 -0.66,0.7 -1.35,4.05 -3.08,3.48 -2.39,4.26 -0.15,1.14 0.23,1.75 1.4,0.84 0.53,0.77 -0.04,3.97 0.61,0.89 1.36,0.79 3.42,-0.45 3.35,2.01 1.77,3.03 -1.6,3.2 -0.11,1.03 0.97,2.05 -1.39,2.57 -0.21,1.54 0.31,1.63 1.03,1.22 5.37,4.17 5.360004,0.76 2.8,1.63 1.13,1.7 1.35,3.56 4.57,4.14 6.07,7.75 3.75,0.24 2.43,0.56 8.04,2.84 7.6,3.86 2.3,1.99 v 0 l 0.06,-2.74 0.55,-1.12 1.21,-1.05 0.28,-0.86 0.28,-6.53 2,-3.85 -5.37,-9.56 -0.14,-7.06 1.09,-1.72 3.52,-3.32 7.6,-4.09 v 0 l -0.98,-1.02 -0.14,-0.74 1.13,-1.55 -0.1,-3.78 -0.84,-2.31 1.34,-3.35 -0.07,-0.9 -4.07,-3.44 -0.99,-2.66 -0.71,-0.9 -6.35,-3.78 -4.46,-6.52 -1.36,-2.66 -0.58,-4.6 -1.18,-1.3 -2.23,-1.42 -3.38,-5.25 v 0 l -0.74,4.18 -0.99,2.82 0.01,6.48 1,3.42 -1.01,3.39 -0.12,13.65 -1.99,4.09 -1.11,1.09 -1.34,0.65 -1.95,-0.73 -3.14,-3.3 -3.12,-0.59 -0.83,-0.71 -0.76,-1.79 0.84,-2.27 0.11,-2.16 -0.23,-1 -0.72,-0.83 -5.84,-3.07 -6.570004,-0.38 -1.56,-0.7 -0.67,-1.56 -0.23,-6.54 -1.34,-2.64 -1.4,-1.55 z m 11.420004,17.45 -1.46,2.29 -3.560004,-0.06 -3.11,-2.92 -0.7,-2.8 1.91,-2.99 1.59,-0.64 3.24,1.91 2.670004,3.11 z"
     class="land"
     title="Gədəbəy"
     id="AZ-GAD" />
  <path
     d="m 228.27962,216.6629 1.93,3.86 0.12,2.73 -1.02,2.8 0.01,6.62 0.65,1.55 1.86,1.4 v 1.23 l -0.73,1.7 -2.46,2.6 -1.29,2.18 -10.99,10.75 -3.17,6.16 -6.03,6.2 -0.29,5.93 -1,2.72 0.15,10.02 v 0 l 5.97,3.27 6.63,0.14 2.75,-1.14 8.39,-4.68 4.89,-3.97 v 0 l 0.33,-2.81 1.56,-1.68 4.01,-1.02 3.07,-2.32 2.27,-0.64 4.36,-2.11 3.19,-2.52 3.92,-2.33 11.43,-0.1 2.66,-1.19 7.64,-5.72 1.81,-0.98 1.9,-2.72 1.7,-1.76 1.64,-0.95 v 0 l 1.21,-0.57 1.35,0.03 0.93,-0.65 0.25,-1.99 0.72,-1.14 0.62,-4.55 -1.15,-0.44 -1.65,-0.01 -3.97,1 -1.31,-0.42 -0.74,-0.87 -1.82,-5.43 0.07,-1.59 0.93,-2.32 0.14,-4.76 -0.3,-2.13 -0.93,-1.14 -3.48,-2.24 -2,-0.26 -1.62,0.56 -5.23,3.5 -1.78,-0.13 -0.35,-1.34 0.26,-3.8 2.52,-3.74 2.34,-2.52 2.28,-3.64 -0.36,-0.66 -3.49,-2.3 -5.66,-0.77 -2.44,-1.39 -0.85,-1.27 0.08,-4.86 2.92,-5.66 0.2,-1.12 -0.01,-10.87 -0.99,-3 -0.1,-4.81 1.66,-7.14 v 0 l -3.78,3.64 -1.93,2.89 -4.13,4.09 -1.16,2.08 -4.42,4.45 -2.14,3.16 -3.51,3.36 -2.07,1.07 -2.4,2.15 -2.1,1.07 -1.29,1.21 -0.18,0.84 1.36,3.37 -1.35,2.31 -4.31,2.33 -2.43,2.33 -0.6,3.54 -1.4,2.94 -0.36,2.63 z m 41.65,41.78 -1.84,1.35 -3.56,-0.49 -1.72,-1.84 -0.12,-2.45 0.98,-1.96 3.07,-0.98 3.19,1.23 0.61,3.19 z"
     class="land"
     title="Goranboy"
     id="AZ-GOR" />
  <path
     d="m 427.34962,256.5129 -3.48,-1.84 -2.85,0.84 -5.48,-0.29 -15.19,-7.8 -2.37,0.3 -2.19,3.29 -1.43,0.42 -4.7,-2.5 -2.7,-2.31 -2.81,-1.62 -1.55,-0.08 -2.94,1.81 -1.43,0.07 -1.33,-2.09 -3.1,-1.59 -0.14,-1.1 v 0 l 0.75,-8.36 1.38,-2.6 2.5,-2.92 -4.33,-5.89 v 0 l 7.04,-3.78 8.25,-0.13 3.72,-2.25 v 0 l 6.81,1.68 5.74,3.01 0.95,0.02 3.51,-1.68 0.95,0.01 4.63,1.86 3.16,0.52 7.99,3.04 3.17,0.5 2.84,1.58 1.36,1.37 1.05,2.47 -2.02,4.29 -1.85,2.33 -1.25,2.7 0.22,2.74 1.69,1.65 v 0 l 1.3,4.99 -0.14,4.35 -1.27,3.05 -1.48,0.27 z"
     class="land"
     title="Göyçay"
     id="AZ-GOY" />
  <path
     d="m 184.60962,279.6929 0.12,-5.58 1.22,-2.65 1.39,-1.54 2.08,-1.08 2.91,-2.69 3.04,-5.04 -0.2,-1.62 -4.63,-3.16 -7.08,-7.1 -2.01,-3.65 0.27,-0.99 1.42,-1.62 0.85,-1.67 4.44,-4.43 2.58,-3.94 -0.49,-0.74 -1.64,-0.82 -2.77,-2.54 -1.71,-0.87 -2.75,-2.55 -7.19,-4.49 v 0 l 2.98,-2.14 2.35,-2.42 9.34,-0.07 1.32,-0.36 1.47,-1.2 1.62,-3.32 0.31,-4.84 1.92,-4.02 0.32,-5.89 1.81,-2.38 2.77,-5.63 v 0 l 3.88,7.08 0.35,2.63 0.9,2.33 0.24,6.37 v 0 l -3.9,2.25 -1.46,1.73 -0.09,1.01 0.71,1.81 0.12,1.62 -0.12,1.62 -0.89,2.3 0.59,2.03 2.71,1.6 1.46,-0.4 2.53,-2.98 3.34,-3.06 1.16,-2.8 v 0 l 2.63,1.35 3.81,0.98 4.26,0.09 2.46,-0.62 0.87,-0.68 v 0 l 2.05,1.75 1.93,3.86 0.12,2.72 -1.02,2.8 0.01,6.62 0.65,1.56 1.86,1.39 v 1.23 l -0.74,1.7 -2.46,2.6 -1.28,2.18 -10.99,10.75 -3.17,6.16 -6.03,6.2 -0.29,5.93 -1,2.72 0.15,10.02 v 0 l -6.25,-1.42 -2.4,-0.95 -8.75,-0.37 -1.05,-0.41 z"
     class="land"
     title="Göygöl"
     id="AZ-GYG" />
  <path
     d="m 551.40962,347.4429 0.13,-3.17 1.88,-2.56 0.01,-0.93 -2.68,-3.09 -2.04,-3.75 -0.84,-0.36 -2.19,0.79 -0.92,1.62 0.13,1.14 1.9,3.69 -0.14,5.34 v 0 l -4.84,-2.82 -0.53,-3.41 -0.51,-1.12 -1.22,-1.2 -2.34,-1.39 -2.74,-3.35 -2.1,-1.16 -12.09,-2.88 -3.84,-1.65 -1.66,-2.69 -1.1,-2.69 1.84,-3.9 0.98,-3.35 -0.12,-0.6 -0.78,-0.72 -3.08,-1.02 -6.3,-3.1 -17.43,-0.16 v 0 l 0.24,-5.74 1,-2.86 0.07,-3.6 -1,-2.99 -0.21,-6.5 -0.8,-1.44 -1.61,-1.11 v 0 l 2.38,-5.77 0.39,-2.11 1.67,-1.25 v 0 l 2.43,1.2 6.6,0.53 3.42,2.65 5.85,2.14 5.28,3.65 2.94,1.35 1.05,-0.38 2.5,-2.11 1.86,-0.96 2.47,-2.37 1.71,-8.01 v 0 l 2.41,2.52 1.39,0.74 5.62,0.18 4.27,-0.64 v 0 l 1.12,7.51 3.69,2.78 v 0 l 1.37,0.69 v 0 l 3.71,3.5 1.31,2.26 v 0 l 0.34,0.42 v 0 l 4.27,4.45 2.05,4.03 2.77,3.67 1.77,0.49 5.55,0.2 v 0 l 2.3,0.97 v 0 l 11.1,0.44 v 0 l 0.74,0.31 v 0 0 0 l 1.12,0.88 v 0 0 0 l 1.44,2.36 v 0 l 1.51,2.01 v 0 0 0 l 0.21,4.85 v 0 l 0.2,1.56 v 0 0 0 l 1.37,2.64 v 0 0 0 l 2.12,2.28 v 0 l 1.68,3.03 v 0 l 0.27,4.81 0.73,1.38 v 0 l 2.72,2.92 2.86,4.21 1,0.91 1.3,3.45 0.44,3.13 1.36,2.63 3.78,5.3 0.7,8.75 v 0 l -4.33,-3.87 -2.93,-1.91 -1.75,-1.92 -1.01,-1.89 -1.8,-1.39 -0.83,-0.06 -4.04,1.79 -2.14,-0.05 -1.82,-0.83 -1.57,-0.24 -4.45,0.92 -5.76,-2.15 -4.94,-0.39 -3.25,-1.85 -3.91,-2.99 -3.29,-1.7 -4.5,-0.15 -3.13,1.51 z"
     class="land"
     title="Hacıqabul"
     id="AZ-HAC" />
  <path
     d="m 399.73962,395.7729 0.08,-7.56 2.54,-4.03 1.55,-1.49 5.1,-2.94 2.7,-2.3 2.13,-1.11 1.18,-1.23 0.23,-0.77 -0.53,-1.2 -2.17,-2.05 -5.39,-2.53 -2.47,-3.39 -2.28,-4.06 -3.85,-1.63 -2.43,-0.61 -1.75,-1.44 v -2.54 l 3.83,-4.02 0.49,-2 -0.72,-2.04 -2.84,-1.71 -0.74,-0.82 0.03,-2.4 0.96,-1.09 7.95,-4.82 1.63,-2.49 0.37,-1.43 -1.27,-4.34 -0.76,-1.35 -1.11,-1.11 -3.71,-2.3 -3.38,-4.76 v 0 l 9.7,0.63 1.53,-0.96 1.64,-3.1 v 0 0 0 l 1.54,3.51 0.49,2.88 1.58,2.08 2.09,0.19 3.96,-1.65 6.09,2.66 1.01,-0.87 0.56,-1.45 -1.65,-3.75 0.05,-0.85 4.65,-0.73 0.67,-2.75 1.25,-2.54 1.35,-1.3 1.55,-0.34 2.71,1.61 1.07,2.9 0.85,1.3 2.4,1.05 1.54,1.14 0.7,2.72 0.92,1.14 3.85,2.35 5.46,-0.07 3.87,2.47 3.79,4.05 0.98,5.61 v 0 l -3.14,5.8 2.74,3.42 1.12,2.23 0.12,1.51 -5.33,10.39 v 3.09 l 1.34,3.75 1.06,2.1 0.94,1.03 3.24,1.88 7.49,1.73 0.89,0.71 2.24,3.11 0.45,1.97 -1.1,3.81 0.06,9.14 3.4,3.1 1.63,2.57 v 0 l -2.21,4.06 -5.77,5.49 -1.58,0.55 -5.07,-0.15 -5.5,-2.85 -2.54,-2.27 -5.1,-3.15 -2.67,-2.43 -1.75,-0.9 -11.77,-11.64 -3.61,-2.24 -3.78,-1.3 -1.39,-0.12 -1.35,0.17 -3.27,1.77 -0.93,1 -0.24,0.97 2.3,4.11 v 0 l -3.29,1.92 -2.22,0.49 -1.65,0.84 -8.47,-0.68 -3.67,1.51 z"
     class="land"
     title="İmişli"
     id="AZ-IMI" />
  <path
     d="m 489.25962,195.4429 -3.75,11.72 -2.13,3.47 -2.45,1.41 -2.69,2.33 -6.87,4.31 -10.32,5.07 -0.7,0.87 -0.94,2.98 -1.3,0.82 -3.42,1.21 -6.13,5.9 -0.69,1.32 -0.29,3.77 -1.1,1.33 -1.14,0.61 -0.9,-0.04 -1.79,-1.7 v 0 l -4.28,1.63 -1.79,1.17 -4.66,0.56 v 0 l -1.69,-1.65 -0.22,-2.74 1.25,-2.7 1.85,-2.33 2.02,-4.29 -1.05,-2.47 -1.36,-1.37 -2.84,-1.58 -3.17,-0.5 -7.99,-3.04 -3.16,-0.52 -4.63,-1.86 -0.95,-0.01 -3.51,1.68 -0.95,-0.02 -5.74,-3.01 -6.81,-1.68 v 0 l 1.97,-3.45 2.24,-1.36 1.2,-1.25 4.06,-8.18 1.12,-1.57 13.71,-7.68 0.46,-1.75 -0.01,-5.57 0.43,-1.2 2.81,-0.61 2.16,-1.05 2.24,-2.01 1.23,-2.72 -0.13,-2.65 -1.39,-3.78 -3.78,-5.4 -0.14,-1.54 1.21,-3.88 1.39,-1.48 1.01,-0.12 1.45,1.46 1.11,-0.71 1.8,-6.72 3.31,-4.35 v 0 l 3.06,0.95 5.58,0.46 4.41,2.76 5.06,1.9 11.89,6.5 1.54,0.14 2.82,-0.88 2.84,0.98 2.64,0.4 5.42,3 1.19,1.45 0.88,2.34 v 0 l 1.55,3.06 1.62,1.83 9.92,7 1.63,2.75 -0.01,2.04 z"
     class="land"
     title="İsmayıllı"
     id="AZ-ISM" />
  <path
     d="m 256.24962,329.5329 -4.55,1.25 -3.47,0.29 -1.01,0.51 -1.05,1 -2.01,4.13 -5.2,3.02 -1.2,-0.04 -1.35,-1.89 -1.47,-1.29 -4.05,-1.4 -0.96,0.44 -2.48,3.04 -3.83,1.25 v 0 l -4.17,1.42 -5.93,2.91 -6.52,0.27 -8.66,4.65 -3.78,1.22 -4.89,0.21 -2.31,0.84 -3.26,0.13 -1.82,0.73 -2.64,0.27 -6.27,1.71 -1.2,-0.2 -1.1,-0.86 -1.66,-2.71 -1.99,-2.03 -1.25,-0.64 -0.95,0.02 -0.56,0.54 -1.7,7.35 -3.34,3.25 -2.77,1.63 -5.74,5.12 v 0 l -7.59,-2.62 -1.71,-1.41 -2.67,-12.76 -0.06,-3.15 -0.66,-1.22 -2.06,-1.08 -2.2,-0.5 -3.77,-0.22 -3.69,-3.07 -7.09,-2.2 -3.99,-0.34 -1.7,-1.81 -0.48,-1.05 -0.05,-1.59 -5.05,0.01 2.7,-4.06 4.61,-2.76 2.56,-0.22 12.18,1.27 1.97,0.89 3.77,3.52 2.59,1.19 1.34,-0.27 5.01,-3.75 0.87,-0.29 1.64,0.26 0.77,-0.45 0.45,-0.57 1.6,-7.3 -0.27,-4.53 0.39,-1.01 1.19,-1.14 3.61,-1.88 1.68,-1.94 1.1,-2.01 1.37,-9.21 1.55,-2.39 -0.25,-0.91 -2.17,-2.96 -1.38,-1.2 -4.21,-1.37 -0.84,-0.63 -0.44,-1 0.33,-1.29 1.53,0.02 3.11,1.29 1.42,-0.97 -4.44,-4.82 -1.19,-0.79 -2.03,-0.1 v 0 l 1.13,-1.42 7.06,-1.37 3.05,0.17 1.88,0.8 6.16,1.49 4.79,0.07 2.93,-0.9 7.15,-0.43 v 0 0 0 l 2.96,2.26 1.05,0.41 8.75,0.37 2.4,0.95 6.25,1.42 v 0 l 5.98,3.27 6.62,0.14 2.75,-1.13 8.39,-4.68 4.9,-3.97 v 0 l -1.21,5.56 -2.64,2.24 -0.47,2.39 0.1,8.1 1.92,4.03 0.32,3.72 1.33,4.73 1.78,0.14 2.98,-2.41 3.33,-1.61 2.14,0.05 5.16,1.61 1.87,2.54 4.87,4.97 3.64,2.78 0.41,0.98 -0.6,2.64 2.36,2.2 2.71,3.59 v 0 l -3.68,0.81 -3.26,0.11 z"
     class="land"
     title="Kəlbəcər"
     id="AZ-KAL" />
  <path
     d="m 77.449616,409.2029 -2.64,6.98 -0.51,3.84 -3.08,1.79 0.52,3.84 v 5.38 l -1.03,3.33 -4.1,8.19 -1.28,4.36 -5.63,4.86 -1.54,-1.02 -2.04,0.51 -3.08,1.54 -2.05,-2.05 -3.67,0.46 v 0 l -0.16,-0.33 -1.8,1.4 -0.51,-2.04 -6.61,-8.3 v 0 l 0.72,-3.23 2.56,-3.33 4.35,-3.33 4.87,-2.81 5.12,-3.84 3.07,-6.66 1.8,-5.38 0.76,-5.89 4.1,-4.1 6.61,-2.02 v 0 l 3.16,5.47 0.32,1.19 z"
     class="land"
     title="Kǝngǝrli"
     id="AZ-KAN" />
  <path
     d="m 407.97962,314.7829 2.68,-1.9 3.04,-0.49 1.52,-0.76 1.93,-1.93 1.02,-1.83 2.6,-2.96 0.13,-5.9 -0.77,-1.8 -1.36,-6.06 0.06,-8.73 0.81,-3.71 v 0 l 3.19,-3.05 3.55,-6.88 0.26,-8.17 0.71,-4.1 v 0 l 2.98,0.33 1.48,-0.27 1.27,-3.05 0.14,-4.35 -1.3,-4.99 v 0 l 4.66,-0.56 1.79,-1.17 4.28,-1.63 v 0 l -1.77,6.23 -1.94,5.06 -0.09,3.27 0.65,1.58 4.37,2.21 4.36,-1.56 0.41,0.34 0.86,3.15 1.46,1.3 1.27,0.36 1.51,-0.57 2.31,-3.07 3.08,-2.51 2.13,-0.23 8.17,0.42 1.45,1.72 1.35,3.11 -0.13,1.51 -0.66,1.29 -0.39,2.61 -0.82,2.24 1.16,2.57 1.49,1.17 3.87,0.27 1.54,0.68 1.59,2.72 0.44,2.04 1.49,2.88 1.77,1.63 2.9,1.47 v 0 l 1.61,1.11 0.8,1.44 0.21,6.5 1,2.99 -0.07,3.6 -1,2.86 -0.24,5.74 v 0 l -3.19,1.57 -2.29,0.66 -2.83,4.28 -6.8,4.11 -2.45,5.73 0.15,1.53 0.62,1.29 -0.2,1.11 -0.85,0.68 -4.62,1.7 -5.02,4.53 v 0 l -0.98,-5.61 -3.79,-4.05 -3.87,-2.47 -5.46,0.07 -3.85,-2.35 -0.92,-1.14 -0.7,-2.72 -1.54,-1.14 -2.4,-1.05 -0.85,-1.3 -1.07,-2.9 -2.71,-1.61 -1.55,0.34 -1.35,1.3 -1.25,2.54 -0.67,2.75 -4.65,0.73 -0.05,0.85 1.65,3.75 -0.56,1.45 -1.01,0.87 -6.09,-2.66 -3.96,1.65 -2.09,-0.19 -1.58,-2.08 -0.49,-2.88 z"
     class="land"
     title="Kürdəmir"
     id="AZ-KUR" />
  <path
     d="m 537.74962,550.6929 0.55,2.46 2.73,1.64 2.32,-0.55 1.37,-1.77 -0.55,-2.59 -1.64,-1.64 -2.59,0.27 z"
     class="land"
     title="Lənkəran City"
     id="AZ-LA" />
  <path
     d="m 223.61962,339.8429 -2.17,6.39 0.15,2.04 0.74,0.82 2.83,1.66 3.84,3.86 4.43,8.85 1.11,3.3 0.89,7.45 v 0 l 0.49,2.67 0.97,2.4 0.21,4.31 0.56,1.69 -0.87,2.06 -1.85,2.31 -1.24,2.65 -0.11,4.89 0.44,1.84 1.47,0.98 2.06,-0.47 1.79,0.34 1.46,1.25 1.63,2.32 2.89,1.38 1.43,-1.02 1.13,-2.06 0.45,-2.01 1.05,-2.2 1.31,-1.79 3.59,-1.35 3.88,0.03 1.23,0.45 0.86,1.22 0.97,6.99 v 0 l -2.37,0.95 -4.61,0.22 -1.53,0.77 -0.91,0.99 -0.31,1.25 0.26,0.82 2.33,1.58 0.6,1.03 0.08,5.35 -0.61,1.1 -5.48,3.92 v 0 l -1.74,0.49 -6.46,6.02 -1.89,1.09 -6.06,-0.19 -5.63,-3.98 v 0 l 1.22,-2.18 1.79,-1.29 1.2,0.5 0.84,1.35 2.38,0.59 1.06,0.63 1.21,-0.16 -0.94,-1.7 -4.23,-4.09 -0.63,-1.8 0.34,-1.39 3.47,-1.91 1.39,-2.05 1.3,-0.52 2.13,0.25 0.37,-0.26 -1.38,-3.7 -1.83,-1.05 -1.5,-1.86 -1.92,-0.53 -5.89,0.86 -1.56,1.32 -1.92,-0.65 -0.65,0.82 -1.05,0.15 -1.28,-1.01 -0.53,-1.99 0.44,-5.12 -0.62,-0.47 -1.29,0.05 -1.11,1.64 -0.98,0.46 -1.17,-1.57 -1.17,-0.46 -0.98,-2.33 -0.74,-0.45 -2.41,0.28 -3.03,0.91 -8.72,4.76 -1.79,0.2 -3.75,-0.91 -1.58,0.38 -0.9,0.58 -1.42,3.23 -0.73,0.21 -1.08,-0.99 0.43,-2.18 -0.86,-1.66 0.38,-2.38 -1.01,-2.59 -4.83,-3.42 -3.37,-3.25 -0.57,-0.27 -2.8,0.36 -1.58,-1.22 -0.54,-0.98 1.51,-1.33 -0.39,-1.07 -4.27,-2.59 -1.01,-2.67 -3.16,-2.95 -0.78,-1.48 -0.39,-2.21 -0.53,-0.68 -7.17,-2.58 -5.22,-2.41 v 0 l 5.74,-5.12 2.77,-1.63 3.34,-3.25 1.7,-7.35 0.56,-0.54 0.95,-0.02 1.25,0.64 1.99,2.03 1.66,2.71 1.1,0.86 1.2,0.2 6.27,-1.71 2.64,-0.27 1.82,-0.73 3.26,-0.13 2.31,-0.84 4.89,-0.21 3.78,-1.22 8.66,-4.65 6.52,-0.27 5.93,-2.91 z"
     class="land"
     title="Laçın"
     id="AZ-LAC" />
  <path
     d="m 543.48962,540.0529 -4.1,-6.96 -0.68,-3.28 0.45,-7.84 0.41,-1.42 -2.23,-0.06 v 0 l -2.07,0.66 -2.84,4.19 -3.58,0.84 -3.57,2.11 -2.84,2.25 -5.74,2.08 -2.71,-1.33 -7.25,-5.58 v 0 l -4.34,8.17 v 1.98 l 2.22,4.37 1.13,1.32 10.24,6.11 2.02,4.66 1.82,2.36 0.19,2.05 -0.9,2.25 0.01,1.41 0.72,0.79 2.82,1.67 2.52,3.66 -4.62,7.38 v 0 l 3.29,1.09 5.6,0.13 6.26,-2.79 7.2,-2.14 v 0 l 4.51,-1.03 v 0 l 0.82,0.82 v 0 l 0.14,-2.59 -1.09,-4.1 -1.37,-9.56 -0.27,-4.5 z m -0.14,14.19 -2.32,0.55 -2.73,-1.64 -0.55,-2.46 2.18,-2.18 2.59,-0.27 1.64,1.64 0.55,2.59 z m -2.12,-73.32 3.08,-5.25 15.85,-15.08 1.91,-2.62 1,-0.51 1.04,0.01 1.09,0.5 1.35,1.36 4.03,8.21 1.14,1.52 1.32,0.41 4.43,0.22 1.09,0.51 2.35,2.05 2.81,1.57 4.96,0.27 2.21,1.05 0.38,1.09 -0.68,3.7 -0.71,1.88 -1.18,1.34 -0.68,2.5 0.31,3.03 -0.27,1.55 v 0 l -0.96,3.93 -0.95,-0.58 0.18,-1.82 -3.02,-3.89 0.41,-2.27 -2.49,2.65 -2.17,0.59 -2.56,1.38 -2.76,-0.79 -0.42,-3.06 -0.32,-0.34 1.02,-3.06 -1.3,-0.7 0.93,-1.35 -0.39,-1.22 -0.87,-0.45 -1.65,0.52 -0.9,-0.13 -0.78,-1.33 0.49,-1.76 1.01,-0.03 -0.16,-1.52 -4.66,1.45 -2.71,1.48 -1.23,2.46 h -3.2 l -5.17,5.17 -2.1,1.18 0.77,1.61 -0.52,0.72 -0.65,3.63 -1.27,1.4 1.82,1.06 0.73,0.95 1.21,4.73 -0.22,3.58 0.36,2.47 -1.61,3.61 2.47,3.36 -0.25,3.69 -0.98,3.94 -2.71,1.72 0.25,3.45 -1.23,3.44 -1.97,2.21 -2.71,0.25 -2.71,-0.49 0.74,-3.45 1.97,-1.23 0.49,-1.97 v -3.45 l 3.94,-5.41 0.36,-1.78 -0.76,-5.71 v 0 l -1.56,-2.01 v 0 l -1.51,-3.09 v 0 l 0.04,-3.17 0.78,-1.73 -0.23,-1.36 v 0 l -3,-3.03 -2.03,-1.23 v 0 0 0 l -0.94,-1.1 v 0 0 0 l -0.26,-4.66 z m 45.35,17.29 1.66,-1.19 v 0 l -0.69,6.51 -5.08,5.32 -0.4,2.34 1.37,1.05 1.01,4.28 v 0 l -12.13,1.77 -2.18,-0.64 -1.37,-2.5 0.4,-1.21 2.1,-1.61 h 2.66 l 1.69,-1.45 5.4,-5.48 4.19,-5 z"
     class="land"
     title="Lənkəran"
     id="AZ-LAN" />
  <path
     d="m 520.57962,573.8729 -5.2,2.85 -2.63,-0.75 -1.55,0.07 -6.35,3.56 -1.34,1.52 -0.43,4.14 -1.47,2.42 -1,0.86 v 0 l -1.57,-2.16 -2.48,-1.97 -1.69,-4.82 -3.82,-0.82 -0.77,-0.77 -1,-2.35 -0.04,-4.82 -1.53,-1.39 -2.23,-0.59 -3.78,1.72 -2.77,0.21 -3.11,1.11 -1.71,-0.11 -4.07,-1.23 -1.64,-2.54 -0.34,-2.3 -0.86,-1.77 -4.09,-2.16 -1.07,-1.34 -0.49,-4.38 0.93,-2.44 -1.3,-3.44 v 0 l 1.35,-3.38 1.97,-1.32 0.66,-0.86 0.48,-5.08 2.48,-2.78 2.43,-3.54 4.67,-2.51 4.2,-4.33 18.3,-10.12 2.97,-2.85 v 0 l 4.46,5.04 1.35,2.6 0.24,4.65 v 0 l -4.34,8.17 v 1.97 l 2.22,4.37 1.14,1.32 10.24,6.11 2.02,4.66 1.82,2.36 0.19,2.05 -0.91,2.24 0.02,1.41 0.72,0.8 2.81,1.67 2.52,3.66 z"
     class="land"
     title="Lerik"
     id="AZ-LER" />
  <path
     d="m 549.08962,511.1929 -5.5,0.44 -1.97,1.97 -0.24,2.46 -1.48,2.46 -0.2,2.03 -2.36,-0.06 v 0 l -2.07,0.66 -2.84,4.19 -3.59,0.83 -3.56,2.11 -2.85,2.26 -5.73,2.07 -2.71,-1.33 -7.25,-5.58 v 0 l -0.24,-4.65 -1.35,-2.6 -4.46,-5.04 v 0 l -2.83,-1.86 -2.94,1.49 -1.56,0.03 -0.72,-0.35 -1.49,-3.55 0.31,-3.52 v 0 l 7.95,-1.62 2.41,-2.29 0.65,-2.35 1.35,-2.58 2.7,-2.64 9.54,-4.91 0.24,-0.74 -0.84,-1.8 -2.02,-2.89 v -1.56 l 0.58,-1.02 2.18,-1.04 1.58,0.19 1.82,0.81 0.89,-0.09 0.33,-0.7 -0.62,-2.32 0.31,-0.7 0.71,-0.34 2.25,0.13 2.71,1.08 v 0 l 1.84,2.2 v 0 l 1.55,0.97 2.76,0.12 2.87,-0.9 1.67,-0.08 v 0 l 4.36,0.34 -1.09,6.76 0.27,4.66 v 0 0 0 l 0.94,1.1 v 0 0 0 l 2.03,1.24 3,3.03 v 0 l 0.23,1.35 -0.78,1.73 -0.04,3.17 v 0 l 1.5,3.09 v 0 l 1.56,2.01 v 0 z"
     class="land"
     title="Masallı"
     id="AZ-MAS" />
  <path
     d="m 294.04962,199.5729 0.96,0.02 v 0 l 3.2,-1.56 1.16,-0.03 1.14,1.21 0.7,0.18 v 1.67 l 0.95,0.88 0.45,1.08 v 0 l -1.48,2.82 v 0 l -2.78,1.6 -3.37,1.03 -1.54,0.1 -5.17,-2.71 -3.01,-4.13 -0.01,-0.95 v 0 l 2.1,-3.81 v 0 l 1.21,-0.2 v 0 z"
     class="land"
     title="Mingəçevir"
     id="AZ-MI" />
  <path
     d="m 262.69962,255.0129 0.12,2.45 1.72,1.84 3.55,0.49 1.84,-1.35 0.62,-1.96 -0.62,-3.19 -3.19,-1.22 -3.06,0.98 z"
     class="land"
     title="Naftalan City"
     id="AZ-NA" />
  <path
     d="m 584.48962,516.5129 -0.04,0.01 v 0 l -1.01,-4.28 -1.37,-1.05 0.4,-2.34 5.08,-5.32 0.69,-6.51 v 0 l 1.56,0.95 0.4,9.11 -0.97,2.98 -0.64,4.27 -1.21,1.45 z m -22.9,-96.25 1.35,-1.31 0.61,-1.21 0.06,-3.77 -4.37,-3.76 -1.29,-2.57 -0.32,-5.46 6.75,0.96 2.39,6.95 0.34,-0.07 v 0 l 1.13,0.6 3.81,5.38 v 0 l 0.86,1.66 2.03,1.76 v 0 l 4.37,2.27 3.17,0.54 v 0 l 1.25,0.62 1.02,-0.36 v 0 l 1.76,-1.97 2.82,-1.46 v 0 l 3.86,-1.12 v 0 l 2.67,-0.25 1.53,-0.73 -0.11,3.92 0.73,2.16 2.39,4.26 9.93,9.91 1.04,0.83 1.06,0.28 1,-0.34 0.4,0.3 -0.36,0.49 0.2,0.36 1.11,-0.18 -0.03,1.72 -1.61,3.28 -0.12,0.96 0.88,1.41 1.18,3.35 1.77,1.58 0.98,2.76 2.76,3.15 v 3.35 l -2.56,0.59 -6.1,-0.79 -1.18,-0.98 -4.13,-5.71 -2.17,-0.99 -2.56,-2.36 -2.27,0.57 -2.84,2.38 -1.18,3.54 0.59,4.53 -1.32,2.42 -0.45,6.24 0.2,5.51 -1.77,9.84 -1.58,4.72 -0.39,4.73 -3.69,-0.94 0.88,-3.59 v 0 l 0.27,-1.55 v 0 0 0 l -0.31,-3.03 0.68,-2.5 1.18,-1.34 0.71,-1.88 0.68,-3.7 -0.38,-1.09 -2.21,-1.05 -4.96,-0.27 -2.81,-1.57 -2.35,-2.05 -1.09,-0.51 -4.43,-0.22 -1.32,-0.41 -1.14,-1.52 -4.03,-8.21 -1.35,-1.36 -1.09,-0.5 -1.04,-0.01 -1,0.51 -1.91,2.62 -15.85,15.08 -3.08,5.25 v 0 l -4.36,-0.34 v 0 l -1.67,0.08 -2.87,0.9 -2.76,-0.13 -1.55,-0.96 v 0 l -1.84,-2.2 1.66,-3.81 v 0 l -0.14,-9.11 -5.14,-10.02 0.01,-11.75 v 0 l 2.46,-4.71 4.23,-5.07 4.32,3.21 v 0 l 2.71,1.89 v 0 l 3.6,3.47 1.32,0.67 v 0 l 1.46,1.11 v 0 l 1.08,0.65 1.42,0.15 v 0 l 0.38,-0.1 v 0 l 4.12,-3.49 v 0 l 1.91,-1.3 1.97,-0.32 v 0 l 0.92,-0.58 0.15,-3.06 v 0 l -1.02,-2.8 0.05,-4.84 2.4,-4.66 0.76,-0.83 v 0 z"
     class="land"
     title="Neftçala"
     id="AZ-NEF" />
  <path
     d="m 87.359616,462.0229 3.33,1.28 1.28,2.56 v 2.81 l -2.05,2.05 -2.82,1.03 -3.84,-2.05 -1.79,-2.82 1.02,-2.05 1.79,-1.79 z"
     class="land"
     title="Naxçıvan"
     id="AZ-NV" />
  <path
     d="m 345.14962,111.0729 4.53,1.92 1.12,0.1 3.79,-0.95 2.18,1.16 2.6,-0.62 0.83,0.29 1.66,1.78 -0.22,3.31 0.66,1 4.69,4.28 0.8,0.16 5.59,-1.73 1.74,-1.06 2.15,-2.49 1.42,-0.28 0.87,0.25 1.74,1.82 0.86,0.41 1.51,0.21 2.83,-0.44 1.75,0.75 v 0 l -0.59,9.04 1.04,4.65 -2.07,4.48 -0.17,5.5 -2.62,5.31 -2.24,3.28 -2.67,3.04 -0.2,3.22 1.03,2.86 0.01,2.14 -2.37,4.9 -1.84,2.35 -1.09,2.2 -1.44,7.05 -2.04,6.69 -0.07,3.31 0.56,4.17 v 0 l -4.88,-3.31 -12.34,-6.42 -3.61,-2.3 -6.31,-6.68 -2.2,-4.5 -0.44,-4.81 -1.4,-0.59 -2.33,0.86 -1.2,-0.34 -0.4,-1.77 0.84,-2.33 -0.21,-1.15 -4.12,-2.64 -0.86,-1.27 -0.12,-2.73 1.01,-2.82 0.32,-3.75 7.38,-14.49 0.46,-2.03 1.79,-3.48 0.39,-12.43 z"
     class="land"
     title="Oğuz"
     id="AZ-OGU" />
  <path
     d="m 134.17962,516.8629 1.58,-1.58 0.51,-2.3 2.05,-2.05 -0.51,-3.08 -2.57,-3.33 -2.04,-0.25 -2.82,-2.05 1.02,-1.79 1.03,-3.84 0.25,-3.33 1.8,-3.84 4.61,-5.89 1.53,-5.89 4.36,-5.64 0.25,-8.45 2.31,-3.33 3.07,-1.28 6.78,-10.17 v 0 l 6.64,4.07 v 6.72 l -0.58,1.48 0.14,5.77 0.44,1.9 v 2.98 l 1.83,1.87 -0.62,3.78 2.55,3.43 -0.36,4.23 1.22,3.34 4.87,3.3 1.66,5.29 2.2,2.45 0.14,4.61 1.58,5.9 4.87,12.7 -1.86,8.58 -1.77,-0.95 -2.55,-2.82 -2.49,-0.89 -1.3,-0.88 -1.66,-2.3 -0.81,0.09 -0.28,1.65 -0.65,0.77 -1.76,0.23 -4.81,-0.67 -7.1,-2.96 -0.84,0.33 -2.5,2.5 -0.76,0.29 -6.29,-2.55 -0.77,-0.71 -0.69,-1.72 -0.74,-0.52 -1.3,-0.17 -2.62,0.86 -3.87,-2.96 z"
     class="land"
     title="Ordubad"
     id="AZ-ORD" />
  <path
     d="m 392.96962,216.0929 -3.72,2.25 -8.25,0.13 -7.04,3.78 v 0 l -1.46,-1.36 -4.47,-2.31 -1.38,-1.28 -0.24,-11.43 -0.78,-4.8 v 0 l 0.79,-1.31 0.76,-0.46 1.38,0.11 1.83,0.87 1.24,-0.29 0.39,-1.56 -0.54,-3.3 v 0 l -0.56,-4.17 0.07,-3.31 2.04,-6.69 1.44,-7.05 1.09,-2.2 1.84,-2.35 2.37,-4.9 -0.01,-2.14 -1.03,-2.86 0.2,-3.22 2.67,-3.04 2.24,-3.28 2.62,-5.31 0.17,-5.5 2.07,-4.48 -1.04,-4.65 0.59,-9.04 v 0 l 3.06,4.1 1.46,1.05 2.94,0.45 1.85,-0.17 0.88,-0.51 2.15,-3.12 1.57,-1.08 v 0 l 2.43,5.88 1.1,1.14 2.12,1.19 3.22,0.52 1.99,0.84 5.59,0.76 v 0 l -1.58,3.62 1.45,3.18 5.45,5.49 1.1,0.52 4.05,0.64 3.35,3.08 v 0 l -3.31,4.35 -1.8,6.72 -1.11,0.71 -1.45,-1.46 -1.01,0.12 -1.39,1.48 -1.21,3.88 0.14,1.54 3.78,5.4 1.39,3.78 0.13,2.65 -1.23,2.72 -2.24,2.01 -2.16,1.05 -2.81,0.61 -0.43,1.2 0.01,5.57 -0.46,1.75 -13.71,7.68 -1.12,1.57 -4.06,8.18 -1.2,1.25 -2.24,1.36 z"
     class="land"
     title="Qəbələ"
     id="AZ-QAB" />
  <path
     d="m 249.23962,143.5229 0.16,-0.48 v 0 l -1.03,-2.28 v 0 l 1.64,-3.53 -0.26,-5.24 0.43,-1.37 0.86,-0.45 v -2.06 l 0.49,-0.44 -1.14,-2.18 -0.28,-1.73 2.31,-3.15 0.5,-1.3 2.31,-2.34 0.13,-3.56 2.08,-2.67 1.91,-1.36 -0.04,-0.76 -0.72,-0.96 -3.46,-0.4 0.12,-1.27 -1.4,-1.75 0.3,-1.08 -0.51,-1.38 0.46,-0.44 -0.16,-0.46 -2.91,0.02 0.05,-1.989998 -1.44,-0.31 0.47,-0.72 -0.29,-2.63 -0.63,-0.2 -0.24,1.99 -0.66,0.98 -0.7,-0.74 -1.63,-0.23 0.48,-0.98 1.28,-0.33 0.55,-1.67 v 0 l 1.9,-1.77 2.42,-3.63 7.57,-15.08 0.67,-2.49 1.49,-1.64 5.57,-1.54 7.2,0.09 2.85,1.04 2.64,0.42 1.81,0.81 3.26,0.29 2.32,0.98 h 2.14 l 3.81,-2.7 3.24,-0.74 1.63,-2.63 1.3,-3.78 v 0 l 3,0.71 0.86,-0.28 0.6,-0.69 0.34,-1.84 0.64,-0.73 3.98,-2.22 1.17,0.06 1.42,1.48 0.18,3.48 0.95,1.9 4.77,4.32 -0.25,4.82 1.76,1.53 v 0 l -2.01,9.71 -2.46,2.95 -5.18,2.96 -1.95,2.88 -1.11,1.02 -3.75,0.8 -10.23,4.89 -2.04,0.42 -2.25,1.019998 -7.16,4.63 -2.72,2.88 -0.38,3.77 -0.52,1.02 -5.12,3.21 -0.77,1.27 -0.24,9.93 -0.91,2.32 -0.24,3.26 -0.88,2.77 0.56,0.91 4.25,1.67 5.3,3.42 1.55,1.68 3.61,6.12 0.46,2.05 1.77,3.56 0.2,1.11 v 14.33 l -0.37,4.26 v 0 0 0 l -7.35,-3.48 -10.21,-6.47 -4.94,0.36 v 0 l -0.25,-4.53 -2.28,-4.09 -1.25,-3.86 -0.11,-6.09 -0.42,-1.24 -3.48,-2.12 -3.28,-0.03 -2.27,0.79 -1.75,-0.75 v 0 z"
     class="land"
     title="Qax"
     id="AZ-QAX" />
  <path
     d="m 82.079616,156.1529 -4.95,2.81 -3.19,0.03 -2.86,-5.84 -1.38,-0.72 -2.48,1.49 -0.26,2.23 -0.33,0.35 -0.65,0.22 -2.17,-0.58 -2.1,0.62 -1.3,-0.44 -1.71,-3.32 -1.58,-1.88 -1.06,-0.51 -1.85,0.43 -0.59,-0.49 -0.93,-2.47 -0.38,-4.96 -0.87,-0.47 -3.56,0.35 -0.57,0.38 -0.16,1.16 1.9,0.97 0.14,0.52 -1.2,2.93 -1.13,0.72 -3.03,-0.32 -2.52,1.82 -1.68,0.11 -1.18,-0.87 -0.58,-2.05 2.99,-4.48 -0.03,-2.12 1.54,-2 7.22,-1.05 4.11,-1.28 1.75,-0.88 1.62,-2.31 1.81,-0.43 0.34,-0.59 -1.84,-1.57 -3.31,-0.41 -4.93,-8.23 -1.24,-0.39 -1.36,0.28 -2.62,2.14 -1.34,0.8 -0.93,0.1 -4.42,-0.68 -3.05,0.37 -0.86,-1.03 0.04,-1.56 3.47,-2.59 1.26,-2.33 -0.03,-1.65 -0.26,-0.89 -3.1,-4.12 -1.06,-3.8 -1.22,-0.83 5.61,-2.35 2.99,-2.21 2.91,-0.93 1.59,-0.96 2.36,-3.059998 v 0 l 9.96,5.479998 3.03,2.55 6.94,3.71 3.85,1.32 2.64,0.4 1.81,0.81 5.52,0.35 1.5,0.84 1.14,1.37 1.22,2.8 -0.02,2.15 -0.79,1.8 -0.49,3.14 -1.77,4.61 -0.35,2.64 -0.89,2.29 0.74,3.78 -1.73,2.38 -0.23,1.02 0.07,1.61 0.93,2.33 0.2,4.39 0.93,2.42 z"
     class="land"
     title="Qazax"
     id="AZ-QAZ" />
  <path
     d="m 479.75962,168.5229 -0.88,-2.34 -1.19,-1.45 -5.42,-3 -2.64,-0.4 -2.84,-0.98 -2.82,0.88 -1.54,-0.14 -11.89,-6.5 -5.06,-1.9 -4.41,-2.76 -5.58,-0.46 -3.06,-0.95 v 0 l -3.35,-3.08 -4.05,-0.64 -1.1,-0.52 -5.45,-5.49 -1.45,-3.18 1.58,-3.62 v 0 l 7.69,-6.7 31.17,-21.56 18.85,-13.999998 4.51,-4.29 7.29,-3.61 2.05,-0.41 5.76,-2.78 2.04,-0.41 4.52,-2.07 1.88,-1.27 v 0 l 0.48,1.67 2.35,2.28 0.9,1.52 8.98,17.98 1.2,0.26 5.79,-2.63 0.53,0.15 2.06,2.46 v 0 l -0.85,6.819998 -0.92,2.13 -0.12,3.52 0.23,1.43 2.37,2.74 0.3,1.14 -1.07,2.15 -2.46,2.63 -1.17,1.83 -4.16,2.43 -1.17,1.82 -2.44,2.63 -2.55,5.14 0.62,1.48 9.27,9.42 1.06,1.66 -0.01,1.25 -1.42,4.04 -1.55,1.52 -2.79,1.68 -1.93,2.49 0.13,2.73 3,3.87 -0.92,2.86 0.08,9.83 v 0 l -11.37,-4.22 -3.15,-0.54 -9.63,-4.33 z"
     class="land"
     title="Quba"
     id="AZ-QBA" />
  <path
     d="m 226.90962,424.5029 5.63,3.98 6.06,0.19 1.89,-1.09 6.46,-6.02 1.74,-0.49 v 0 l 2.89,0.44 2.65,0.87 6.24,-1.58 1.44,0.46 2.78,4.27 -1.34,3.36 -2.39,3.63 v 0 l -1.5,0.52 -2.23,3.82 -0.24,4.79 0.33,1.34 2.42,1.99 1.52,2.81 0.41,7.43 1.08,2.2 1.14,1.33 6.47,3.5 2.42,2.31 v 0 l -6.05,3.15 -2.75,2.38 -2.81,1.69 -3.76,3.68 -3.36,5.97 -1.52,1.8 -1.22,0.48 h -1.57 l -1.57,-3.27 -0.07,-4.76 1,-2.9 0.13,-2.97 -0.36,-2.09 -1.64,-1.81 v 0 l -0.26,-0.72 -0.6,-0.16 -4.07,-0.35 -1.02,-1.18 -0.82,-2.4 -3.67,-1.27 -1.52,-2.2 -1.03,-3.83 -0.08,-0.5 0.89,-1.39 -0.25,-1.89 -3.94,-5.2 -0.88,0.22 -2.13,2.09 -1.36,-0.02 -5.59,-4.11 -2.89,-4.02 -2.9,-7.96 1.53,-1.71 0.89,-2.99 1.64,-0.58 5.79,1.21 0.79,-0.48 z"
     class="land"
     title="Qubadlı"
     id="AZ-QBI" />
  <path
     d="m 527.02962,273.2729 -5.66,-0.13 -3.97,1 -1.79,-0.5 -0.78,-1.22 0.3,-1.13 0.96,-1.17 2.94,-0.58 2.98,-1.8 0.68,-4.41 4.09,-8.27 -0.3,-0.89 -2.44,-3.02 0.56,-1.68 0.02,-2.12 -0.92,-2.31 -0.21,-4.35 -0.93,-2.82 0.8,-3.21 -1.41,-1.77 -2.53,-2 -0.22,-1.32 4.34,-6.61 0.06,-3.82 -1.01,-2.84 -0.11,-3.28 0.22,-1.56 1.1,-2.2 3.06,-3.97 3.61,-0.84 4.63,-3.43 v 0 l 2.84,-0.18 8.32,4.86 2.67,2.46 2.45,1.51 2.36,3.5 10.21,10.31 3.22,1.92 4.29,0.49 5.06,2.74 1.35,1.36 2.77,5.77 1.38,1.61 2.09,1.18 2.88,2.51 8.25,4.39 v 0 l -4.09,7.26 v 0 l -0.87,0.73 v 0 l -2.11,1.13 v 0 l -1.94,1.08 -2.67,3.12 -4.14,0.4 -3.36,1.01 -2.43,1.28 -4.22,6.73 v 0 l -0.34,0.17 v 0 l -3.65,0.33 -1.9,1.09 v 0 l -1.97,1.9 v 0 0 0 l -0.99,1.25 v 0 0 0 l -0.39,0.94 v 0 l -1.59,2.68 -2.56,1.61 v 0 l -1.92,1.97 -1.05,1.94 v 0 l -1.59,1.18 v 0 l -0.35,-0.12 v 0 0 0 l -0.57,-0.65 v 0 l -1.02,-1.67 v 0 l -0.39,-0.29 v 0 l -5.68,-3.55 -2.73,-0.9 v 0 l -4.27,0.64 -5.62,-0.18 -1.39,-0.74 z"
     class="land"
     title="Qobustan"
     id="AZ-QOB" />
  <path
     d="m 504.36962,74.892902 -1.88,1.27 -4.52,2.07 -2.04,0.41 -5.76,2.78 -2.05,0.41 -7.29,3.61 -4.51,4.29 -18.85,13.999998 -31.17,21.56 -7.69,6.7 v 0 l -5.59,-0.76 -1.99,-0.84 -3.22,-0.52 -2.12,-1.19 -1.1,-1.14 -2.43,-5.88 v 0 l 2.53,-0.4 5.83,0.31 1.79,-0.34 1.63,-1.06 1.06,-2.23 -0.47,-4.92 0.27,-1.11 0.72,-1.32 3.55,-3.56 0.94,-2.11 0.51,-8.329998 1.18,-2.18 1.06,-0.9 3.72,-1.59 3.44,-4.89 1.72,-3.16 1.75,-4.72 0.16,-3.94 0.72,-1.2 0.8,-0.48 5.47,-1.19 2.51,-0.08 3.37,-1.12 2.74,0.05 2.46,0.52 2.28,-0.29 2.57,-1.69 2.9,-0.62 2.24,-0.95 2.12,-4.74 1.77,-1.74 2.42,-1.14 2.87,-0.74 4.57,-2.6 6.02,-4.93 1.7,-2.55 0.67,-2.1 1.23,-8 1.39,-6.27 v 0 l 3.37,-0.97 3.91,0.03 1.54,0.71 1.3,2.3 v 0.78 l -2.78,5.77 -0.03,10.06 0.52,1.15 1.47,1.29 1.29,0.41 4.47,0.21 1.06,0.59 0.62,0.96 0.08,1.01 -0.82,1.78 -1.9,2.38 -0.87,2.12 0.4,0.67 2.41,1.53 1.02,1.33 0.34,2.68 0.93,2.37 z"
     class="land"
     title="Qusar"
     id="AZ-QUS" />
  <path
     d="m 314.54962,121.8129 -2.05,2.59 v 2.46 l 1.1,2.46 4.77,0.82 2.33,-0.96 1.09,-2.87 -0.96,-3.55 -1.5,-1.36 -2.46,-1.09 z"
     class="land"
     title="Şəki City"
     id="AZ-SA" />
  <path
     d="m 505.23962,392.3429 -2.41,0.08 -1.29,-0.59 -0.2,-1.96 1.03,-1.59 5,-1.53 3.78,-0.22 6.9,-3.36 1.7,-2.44 2.46,-4.75 v -2 l -2.95,-5.69 -0.2,-1.02 0.02,-3.25 1.02,-2.76 0.02,-3.21 -3.99,-5.68 -2.48,-2.26 -4.03,-0.65 -1.09,-0.5 -3.66,-3.41 -4.23,-2.57 -6.07,-0.18 -1.05,0.56 -1.51,2.32 -1.35,0.21 -1.17,-0.46 -2.04,-1.92 -1.4,-3.15 2.39,-2.89 -0.1,-0.93 -1.16,-1.1 -4.77,-2.77 -1.24,-0.08 -3.45,1.05 -5.4,2.22 -7.88,4.73 -1.04,-0.93 -2.09,-3.52 v 0 0 0 l 5.02,-4.53 4.62,-1.7 0.85,-0.68 0.2,-1.11 -0.62,-1.29 -0.15,-1.53 2.45,-5.73 6.8,-4.11 2.83,-4.28 2.29,-0.66 3.19,-1.57 v 0 l 17.43,0.16 6.3,3.1 3.08,1.02 0.78,0.72 0.12,0.6 -0.98,3.35 -1.84,3.9 1.1,2.69 1.66,2.69 3.84,1.65 12.09,2.88 2.1,1.16 2.74,3.35 2.34,1.39 1.22,1.2 0.51,1.12 0.53,3.41 4.84,2.82 v 0 l -0.61,1.4 0.66,0.57 v 0 l -0.65,0.98 -1.41,1 -0.8,1.54 0.09,2.07 0.77,1.55 3.16,2.59 1.94,2.15 -0.01,0.66 -2.45,5.03 0.73,1.18 4.76,4.72 0.74,1.36 -0.15,2.59 -1.83,3.41 -0.2,1.01 0.08,4.86 1,2.8 -0.11,3.77 -0.85,1.21 -5.54,2.72 -0.84,0.72 -0.21,1.11 1.55,4.51 -0.86,0.79 -1.49,-0.27 -2.68,-2.37 -1.23,-0.45 -5.58,-0.14 -2.85,0.9 -2.1,0.08 v 0 l -18.36,-6.07 -3.68,-1.82 z"
     class="land"
     title="Sabirabad"
     id="AZ-SAB" />
  <path
     d="m 18.469616,377.0029 5.46,1.99 3.78,-0.51 3.11,-1.27 v 0 l 0.46,5.17 -1.79,2.3 -2.82,1.02 -3.07,2.82 v 3.07 l 1.79,2.56 v 1.79 l -1.02,3.58 -5.12,2.3 -3.33,1.02 -1.85,-0.12 v 0 l 0.34,-2.81 -1.6,0.69 -2.47,-1.98 -4.6599996,0.89 -2.05,-2.82 3.33,-5.38 -1.28,-2.82 -2.82,-2.05 -2.57000005,-2.53 1.02000005,-2.82 3.33,-1.54 2.82,-2.56 5.6299996,-1.28 z m 7.94,-4.87 h -1.54 l -1.79,-1.54 -1.02,-2.05 v -2.05 l 3.58,-1.28 h 2.3 l 0.51,2.56 -1.02,0.77 -0.26,2.05 z"
     class="land"
     title="Sədərək"
     id="AZ-SAD" />
  <path
     d="m 138.85962,440.6629 -3.1,1.64 -0.52,2.56 -1.79,2.56 -3.58,3.58 -2.31,-1.53 -0.51,-2.31 -1.28,-1.02 h -2.56 l -1.79,2.82 -2.31,1.53 h -3.58 l -6.17,4.61 v 0 h -2.28 v 0 l -1.03,-1.54 1.28,-3.58 -3.84,-2.82 -3.840004,-4.35 -7.94,-0.51 -2.05,-3.33 -0.51,-3.84 -1.54,-2.05 h -1.79 l -2.82,-0.77 -0.76,-3.07 6.91,-4.87 2.82,-3.58 1.79,-0.77 0.32,-2.28 v 0 l 2.02,0.13 1.87,-0.62 1.23,-0.83 4.880004,-5.23 4.38,-1.68 4.06,-2.35 3.48,-0.4 2.16,-0.84 2.22,-1.53 2.24,-2.99 1.78,-1.44 1.16,0.11 4.76,2.56 3.89,0.52 2.25,2.07 1.03,2.11 3.18,4.4 0.36,1.66 -0.41,5.49 0.42,1.28 1.38,1.46 0.52,1.56 -2.14,5.6 -3.76,6.47 -0.17,2.48 0.5,1.32 z"
     class="land"
     title="Şahbuz"
     id="AZ-SAH" />
  <path
     d="m 339.12962,108.5729 -7.29,-4.72 -0.99,-1.1 -0.71,-5.719998 -0.52,-1.16 -0.22,-5.26 -0.48,-0.79 -0.83,-0.24 -2.35,0.28 -1.07,-1.02 0.05,-3.18 1.55,-2.62 -0.03,-0.93 -3.65,-1.68 -0.59,-0.96 -0.68,-3.22 -1.8,-2.03 v 0 l -2.01,9.71 -2.46,2.95 -5.18,2.96 -1.95,2.89 -1.11,1.02 -3.75,0.8 -10.23,4.89 -2.04,0.42 -2.25,1.019998 -7.17,4.63 -2.72,2.88 -0.38,3.77 -0.52,1.02 -5.12,3.21 -0.78,1.26 -0.23,9.93 -0.91,2.33 -0.25,3.26 -0.88,2.77 0.57,0.91 4.25,1.67 5.3,3.42 1.54,1.68 3.61,6.13 0.46,2.04 1.77,3.56 0.2,1.11 v 14.33 l -0.37,4.26 v 0 l 3.42,1.4 9.13,4.8 6.84,4.21 6.7,3.43 2.63,0.47 7.4,4.19 7.86,2.75 v 0 l 3.1,0.91 5.58,0.45 6.27,3.19 2.01,-0.15 1.18,-1.49 1.19,-0.31 7.05,2.56 2.46,1.26 5.87,-1.65 v 0 l 0.79,-1.31 0.76,-0.46 1.39,0.11 1.83,0.87 1.24,-0.29 0.4,-1.56 -0.55,-3.29 v 0 l -4.87,-3.31 -12.35,-6.42 -3.6,-2.3 -6.32,-6.68 -2.2,-4.5 -0.44,-4.8 -1.39,-0.59 -2.33,0.85 -1.2,-0.34 -0.4,-1.77 0.83,-2.33 -0.2,-1.14 -4.13,-2.64 -0.86,-1.27 -0.12,-2.73 1.01,-2.82 0.32,-3.75 7.38,-14.49 0.45,-2.03 1.79,-3.48 0.39,-12.43 1.9,-5.08 z m -18.43,20.61 -2.32,0.96 -4.78,-0.82 -1.09,-2.46 v -2.46 l 2.05,-2.59 2.32,-1.5 2.46,1.09 1.5,1.37 0.96,3.55 z"
     class="land"
     title="Şəki"
     id="AZ-SAK" />
  <path
     d="m 567.11962,410.0229 -0.35,0.07 -2.39,-6.95 v 0 0 0 l -6.74,-0.96 0.32,5.46 1.28,2.57 4.37,3.76 -0.06,3.77 -0.61,1.21 -1.35,1.31 v 0 l -4.79,2.69 v 0 l -0.76,0.83 -2.39,4.67 -0.05,4.84 1.02,2.8 v 0 l -0.15,3.06 -0.92,0.57 v 0 l -1.97,0.32 -1.92,1.3 v 0 l -4.12,3.49 v 0 l -0.37,0.1 v 0 l -1.04,-0.02 -1.47,-0.78 v 0 l -1.45,-1.11 v 0 l -1.32,-0.66 -3.6,-3.47 v 0 l -2.71,-1.89 v 0 l -4.33,-3.21 v 0 0 0 l 1.96,-9.08 -2.63,-4.21 -2.43,-2.66 -0.46,-1.96 0.23,-1.53 0.8,-1.75 0.21,-3.18 0.78,-1.75 0.46,-2.66 1.51,-4.8 v 0 l 2.1,-0.08 2.85,-0.9 5.58,0.14 1.23,0.45 2.68,2.37 1.49,0.27 0.86,-0.79 -1.55,-4.51 0.21,-1.11 0.84,-0.72 5.54,-2.72 0.85,-1.21 0.11,-3.77 -1,-2.8 -0.08,-4.86 0.2,-1.01 1.83,-3.41 0.15,-2.59 -0.74,-1.36 -4.76,-4.72 -0.73,-1.18 2.45,-5.03 0.01,-0.66 -1.94,-2.15 -3.16,-2.59 -0.77,-1.55 -0.09,-2.07 0.8,-1.54 1.41,-1 0.65,-0.98 v 0 l 2.58,1.08 1.16,0.09 0.74,-0.53 0.23,-1.33 v 0 0 0 l 0.76,0.28 3.13,-1.51 4.5,0.15 3.29,1.7 3.91,2.99 3.25,1.85 4.94,0.39 5.76,2.15 4.45,-0.92 1.57,0.24 1.82,0.83 2.14,0.05 4.04,-1.79 0.83,0.06 1.8,1.39 1.01,1.89 1.75,1.92 2.93,1.91 4.33,3.87 v 0 l -1.29,1.98 -0.27,1.24 -0.06,11.17 0.25,1.76 0.76,1.84 0.2,5.31 0.73,1.87 -3.49,3.48 -1.74,4.51 -0.24,2.32 -1.3,3.32 -0.74,3.89 -2.03,5.18 -1,4.2 -1.53,0.74 -2.67,0.25 v 0 l -3.86,1.12 v 0 l -2.82,1.46 -1.76,1.96 v 0 l -1.02,0.36 -1.25,-0.62 v 0 l -3.18,-0.53 -4.36,-2.28 v 0 l -2.03,-1.76 -0.86,-1.66 v 0 l -3.81,-5.38 z"
     class="land"
     title="Salyan"
     id="AZ-SAL" />
  <path
     d="m 72.199616,401.3529 -6.61,2.02 -4.1,4.1 -0.76,5.89 -1.8,5.38 -3.07,6.66 -5.12,3.84 -4.87,2.81 -4.35,3.33 -2.56,3.33 -0.72,3.23 v 0 l -2.87,-3.48 -3.07,-0.26 -7.68,-5.63 -1.28,-5.13 -2.82,-3.32 -0.51,-7.17 -3.07,-2.82 -2.57,-3.07 -0.51,-6.66 0.2,-1.65 v 0 l 1.85,0.11 3.33,-1.02 5.12,-2.31 1.03,-3.58 v -1.8 l -1.8,-2.56 v -3.07 l 3.08,-2.82 2.81,-1.02 1.8,-2.31 -0.46,-5.17 v 0 l 3.55,-2.21 2.51,-2.36 2.33,-4.08 1.54,-1.8 5.89,0.52 2.56,1.28 1.54,4.35 -0.34,2.96 0.93,1.48 1.31,3.61 2.47,1.87 1.35,2.28 0.89,2.76 0.13,4.24 -1.1,2.63 0.58,2.62 -0.5,2.44 0.72,2.27 0.63,0.88 2.92,-1.87 4.6,-4.1 2.57,-0.26 3.32,0.26 1.03,1.54 -0.52,2.3 z"
     class="land"
     title="Şərur"
     id="AZ-SAR" />
  <path
     d="m 505.23962,392.3429 -1.74,4.4 -1.06,1.36 -1.78,0.41 -4.49,-0.11 -1.01,-0.24 -0.81,-0.72 -1.42,-2.7 -2.47,-3.41 -3.83,-1.62 -0.84,0.02 -1.11,0.61 -2.56,2.44 -3.66,4.7 v 0 l -1.63,-2.57 -3.4,-3.1 -0.06,-9.14 1.1,-3.81 -0.45,-1.97 -2.24,-3.11 -0.89,-0.71 -7.49,-1.73 -3.24,-1.88 -0.94,-1.03 -1.06,-2.1 -1.34,-3.75 v -3.09 l 5.33,-10.39 -0.12,-1.51 -1.12,-2.23 -2.74,-3.42 3.14,-5.8 v 0 l 2.09,3.52 1.04,0.93 7.88,-4.73 5.4,-2.22 3.45,-1.05 1.24,0.08 4.77,2.77 1.16,1.1 0.1,0.93 -2.39,2.89 1.4,3.15 2.04,1.92 1.17,0.46 1.35,-0.21 1.51,-2.32 1.05,-0.56 6.07,0.18 4.23,2.57 3.66,3.41 1.09,0.5 4.03,0.65 2.48,2.26 3.99,5.68 -0.02,3.21 -1.02,2.76 -0.02,3.25 0.2,1.02 2.95,5.69 v 2 l -2.46,4.75 -1.7,2.44 -6.9,3.36 -3.78,0.22 -5,1.53 -1.03,1.59 0.2,1.96 1.29,0.59 z"
     class="land"
     title="Saatlı"
     id="AZ-SAT" />
  <path
     d="m 581.36962,135.3529 -2.09,-0.79 -3.29,-2.96 -2.62,-3.25 -2.31,-1.34 -1.57,0.1 -6.28,2.92 -1.03,-0.03 -2.83,-1.01 -2.83,0.87 -4.99,0.04 -1.53,0.62 -1.42,2.26 -0.36,1.46 3.23,8.46 -0.12,6 -3.25,5.35 -1.01,0.75 -3.9,-0.08 -4.06,2.79 -1.61,1.69 -0.42,0.97 0.02,2.14 1.01,2.95 0.12,5.93 0.94,2.4 0.76,4.68 v 0 l -3.22,1.65 -5.07,4.87 v 0 l -13.45,-6.97 v 0 l -0.08,-9.83 0.92,-2.86 -3,-3.87 -0.13,-2.73 1.93,-2.49 2.79,-1.68 1.55,-1.52 1.42,-4.04 0.01,-1.25 -1.06,-1.66 -9.27,-9.42 -0.62,-1.48 2.55,-5.14 2.44,-2.63 1.17,-1.82 4.16,-2.43 1.17,-1.83 2.46,-2.63 1.07,-2.15 -0.3,-1.14 -2.37,-2.74 -0.23,-1.43 0.12,-3.52 0.92,-2.13 0.85,-6.819998 v 0 l 2.37,0.4 6.37,-2.78 4.86,2.93 3.64,-1.1 4.41,-2.61 1.58,-0.19 4.43,0.19 5.21,2.27 10.58,-0.42 v 0 l 0.3,0.91 2.64,3.409998 3.71,9.5 0.25,2.55 1.13,3.7 1.32,10.67 z"
     class="land"
     title="Şabran"
     id="AZ-SBN" />
  <path
     d="m 608.98962,179.8629 -1.43,0.56 -2.33,-0.1 -3.9,-1.41 -1.02,0.3 -2.59,2.14 -1.67,0.57 -12.12,-0.45 -10.9,-6.22 -2.5,-0.71 -1.97,-1.27 -1.38,-2.5 -0.05,-6.64 -0.39,-0.88 -0.81,-0.38 -6.3,3.03 -1.19,3.12 -0.51,3.01 -1.03,1.08 -7.71,3.16 -2.04,0.41 -3.6,1.71 -3.62,-0.12 v 0 l -0.76,-4.68 -0.94,-2.4 -0.12,-5.93 -1.01,-2.95 -0.02,-2.14 0.42,-0.97 1.61,-1.69 4.06,-2.79 3.9,0.08 1.01,-0.75 3.25,-5.35 0.12,-6 -3.23,-8.46 0.36,-1.46 1.42,-2.26 1.53,-0.62 4.99,-0.04 2.83,-0.87 2.83,1.01 1.03,0.03 6.28,-2.92 1.57,-0.1 2.31,1.34 2.62,3.25 3.29,2.96 2.09,0.79 v 0 l 0.09,3.89 2.68,6.82 0.74,4.55 0.65,1.45 -0.84,0.54 v 0.44 l 1.3,0.82 1.58,2.96 3.12,3.6 3.18,2.85 1.91,2.27 2.88,1.98 4.4,7.19 3.83,2.18 z"
     class="land"
     title="Siyəzən"
     id="AZ-SIY" />
  <path
     d="m 174.45962,220.9229 -6.58,-3.79 -1.16,-0.15 -1.09,0.36 -1.94,2.92 -2.86,5.73 -2.43,2.6 -1.2,2.1 -3.73,3.64 -0.03,1.09 -1.08,1.1 v 0 l -0.99,-1.02 -0.14,-0.74 1.13,-1.56 -0.1,-3.78 -0.84,-2.31 1.34,-3.35 -0.07,-0.91 -4.07,-3.43 -1,-2.66 -0.7,-0.9 -6.35,-3.78 -4.46,-6.52 -1.36,-2.67 -0.58,-4.59 -1.18,-1.3 -2.24,-1.42 -3.38,-5.25 v 0 0 0 l 0.27,-2.3 -0.71,-1.9 -0.12,-1.56 1.49,-2.9 5.62,-3.17 3.33,-3.57 2.06,-1.1 3.53,-3.21 3.08,-1.98 2.91,-4.25 1.78,-6.11 1.78,-0.42 21.76,0.53 1.8,-0.43 0.84,-1.22 0.62,-3.07 2.4,-2.63 0.96,-1.79 7.97,-7.98 2.33,-5.6 v 0 l 4.16,6.82 5.79,6.12 4.83,9.82 -0.32,2.08 -3.87,6.31 -0.31,3.82 -0.9,2.15 -0.32,2.71 -3.08,4.95 0.35,2.07 2.75,3.22 0.52,2.91 v 0 l -2.77,5.63 -1.81,2.38 -0.32,5.89 -1.92,4.02 -0.31,4.84 -1.62,3.32 -1.47,1.2 -1.32,0.36 -9.34,0.07 -2.35,2.42 z"
     class="land"
     title="Şəmkir"
     id="AZ-SKR" />
  <path
     d="m 653.85962,233.2129 -2.15,3.96 -2.03,0.91 -2.84,0.35 -2.31,0.9 -1.64,0.07 v 0 l -3.35,-0.12 v 0 l -1.23,-0.45 v 0 l -3.02,-5.22 v 0 l -1.02,-1.83 -8.92,-8.96 v 0 l -0.35,-0.18 v 0 l -0.74,0.07 v 0 l -0.85,-1.3 0.37,-1.35 2.24,-1.06 3.89,-0.31 v 0 l 0.92,2.64 1.45,2.3 2.06,0.65 3.96,2.15 2.12,0.33 7.19,0.07 3.51,4.79 1.26,1.06 z"
     class="land"
     title="Sumqayıt"
     id="AZ-SM" />
  <path
     d="m 535.09962,201.0229 -4.63,3.43 -3.61,0.84 -3.06,3.97 -1.1,2.2 -0.22,1.56 0.11,3.28 1.01,2.84 -0.06,3.82 -4.34,6.61 0.22,1.32 2.53,2 1.41,1.77 -0.8,3.21 0.93,2.82 0.21,4.35 0.92,2.31 -0.02,2.12 -0.56,1.68 2.44,3.02 0.3,0.89 -4.09,8.27 -0.68,4.41 -2.98,1.8 -2.94,0.58 -0.96,1.17 -0.3,1.13 0.78,1.22 1.79,0.5 3.97,-1 5.66,0.13 v 0 l -1.71,8.01 -2.47,2.37 -1.86,0.96 -2.5,2.11 -1.05,0.38 -2.94,-1.35 -5.28,-3.65 -5.85,-2.14 -3.42,-2.65 -6.6,-0.53 -2.43,-1.2 v 0 l 2.91,-4.31 2.79,-3.18 0.21,-6.52 0.68,-1.75 2.5,-2.17 5.66,-2.68 6.97,-3.92 1.14,-1.08 0.75,-1.7 -0.48,-0.54 -1.46,-0.37 -2.52,-1.35 -6.01,-3.99 -9.97,-0.42 -4.1,-1.54 -1.69,-1.56 -3.32,-5.5 -0.19,-1.38 1.36,-2.61 6.56,-6.47 2.58,-3.69 0.28,-0.88 -0.7,-2.7 3.05,-5.02 -0.12,-1.54 -1.37,-3.57 -2.44,-1.73 -2.28,-2.37 -0.84,-3.03 -1.61,-2.57 v 0 l 5.21,-10.24 0.01,-2.04 -1.63,-2.75 -9.92,-7 -1.62,-1.83 -1.55,-3.06 v 0 l 14.28,0.21 9.63,4.33 3.15,0.54 11.37,4.22 v 0 l 13.45,6.97 v 0 l -2.25,3.52 -0.07,3.8 2.47,5.29 z"
     class="land"
     title="Şamaxı"
     id="AZ-SMI" />
  <path
     d="m 182.83962,122.8529 3.01,1.51 5.28,-0.61 7.68,0.31 3.92,3.61 10.24,13.11 h 2.41 l 2.87,-1.51 3.01,1.21 0.6,3.76 3.02,4 1.8,-0.46 1.81,-3.46 3.77,-5.42 2.56,-1.81 3.16,0.75 3.02,1.21 2.11,2.41 1.5,0.15 1.06,-0.91 2.7,0.06 v 0 l 1.03,2.28 v 0 l -0.07,0.51 v 0 l 1.75,0.75 2.27,-0.79 3.28,0.03 3.48,2.12 0.42,1.24 0.11,6.09 1.25,3.86 2.28,4.09 0.25,4.53 v 0 l -3.78,3.64 -1.93,2.88 -4.14,4.1 -1.15,2.08 -4.43,4.45 -2.13,3.16 -3.51,3.35 -2.07,1.07 -2.4,2.15 -2.1,1.07 -1.29,1.21 -0.17,0.84 1.36,3.37 -1.35,2.31 -4.31,2.33 -2.43,2.33 -0.6,3.54 -1.4,2.94 -0.36,2.62 v 0 l -0.87,0.68 -2.46,0.62 -4.26,-0.09 -3.81,-0.98 -2.63,-1.35 v 0 l 0.78,-3.6 -0.2,-1.09 -0.79,-1.07 -2.29,-1.16 -3.66,0.19 v 0 l -0.24,-6.37 -0.9,-2.33 -0.35,-2.63 -3.88,-7.08 v 0 l -0.52,-2.91 -2.75,-3.22 -0.35,-2.07 3.08,-4.95 0.32,-2.71 0.9,-2.15 0.31,-3.82 3.87,-6.31 0.32,-2.08 -4.83,-9.82 -5.79,-6.12 -4.16,-6.82 v 0 l -1.17,-1.06 -6.04,-1.9 -4.8,-2.95 -1.66,-0.27 -1.09,-1.57 v 0 l 0.33,-0.19 0.94,-3.4 2.47,-0.67 0.68,-0.81 z"
     class="land"
     title="Samux"
     id="AZ-SMX" />
  <path
     d="m 551.40962,347.4429 -0.23,1.33 -0.74,0.53 -1.16,-0.09 -2.58,-1.08 v 0 l -0.66,-0.57 0.61,-1.4 v 0 l 0.14,-5.34 -1.9,-3.69 -0.13,-1.14 0.92,-1.62 2.19,-0.79 0.84,0.36 2.04,3.75 2.68,3.09 -0.01,0.93 -1.88,2.56 z"
     class="land"
     title="Şirvan City"
     id="AZ-SR" />
  <path
     d="m 235.43962,374.2129 3.13,-0.7 3.9,-0.34 4.42,-2.55 1.27,-0.36 2.12,0.2 3.58,1.42 6.06,3.95 2.54,5.67 4.24,4.16 0.63,3.82 1.01,2.22 v 0 l -7.1,11.39 v 0 l -0.97,-6.99 -0.86,-1.22 -1.23,-0.45 -3.88,-0.03 -3.59,1.35 -1.31,1.79 -1.05,2.2 -0.45,2.01 -1.13,2.06 -1.43,1.02 -2.89,-1.38 -1.63,-2.32 -1.46,-1.25 -1.79,-0.34 -2.06,0.47 -1.47,-0.98 -0.44,-1.84 0.11,-4.89 1.24,-2.65 1.85,-2.31 0.87,-2.06 -0.56,-1.69 -0.21,-4.31 -0.97,-2.4 z"
     class="land"
     title="Şuşa"
     id="AZ-SUS" />
  <path
     d="m 307.57962,303.9429 -1.74,-0.11 -2.49,0.79 -2.17,-0.58 -1.49,-1.7 -0.43,-4.27 -2.09,-2.13 -1.45,-0.1 -1.7,1.61 -1.23,0.33 -1.6,-0.57 -3,-2.55 -1.79,0.05 -0.29,1.86 0.86,2.35 v 0.95 l -2.17,2.38 -4.88,1.85 -2.15,-0.07 -1.8,-0.79 -0.97,-0.04 -2.94,1.78 -0.43,1.2 -0.12,4.91 -1.25,3.2 -1.07,0.99 -3.35,1.6 -0.73,0.79 -0.14,2.03 0.9,2.59 -1.21,4.69 v 0 l -2.71,-3.59 -2.36,-2.2 0.6,-2.64 -0.41,-0.98 -3.64,-2.78 -4.87,-4.97 -1.87,-2.54 -5.16,-1.61 -2.14,-0.05 -3.33,1.61 -2.98,2.41 -1.78,-0.14 -1.33,-4.73 -0.32,-3.72 -1.92,-4.03 -0.1,-8.1 0.47,-2.39 2.64,-2.24 1.21,-5.56 v 0 l 0.32,-2.82 1.56,-1.68 4,-1.02 3.07,-2.32 2.27,-0.64 4.36,-2.1 3.19,-2.52 3.92,-2.33 11.43,-0.1 2.66,-1.19 7.63,-5.72 1.82,-0.98 1.89,-2.72 1.71,-1.76 1.64,-0.95 v 0 l 0.89,1.35 0.29,3.12 1.22,2.68 3.59,3.97 v 0 l 0.77,5.5 1.36,3.62 2.91,2.09 2.52,4.87 1.13,1.35 1.5,0.81 3.67,0.52 1.05,1.05 0.17,1.37 -1.02,3.47 -0.02,11.84 0.23,1.71 0.89,2.13 z"
     class="land"
     title="Tərtər"
     id="AZ-TAR" />
  <path
     d="m 127.36962,190.3329 -0.73,4.18 -0.99,2.82 0.01,6.48 1,3.42 -1,3.39 -0.13,13.65 -1.99,4.1 -1.11,1.08 -1.34,0.65 -1.96,-0.73 -3.14,-3.3 -3.11,-0.6 -0.84,-0.71 -0.75,-1.79 0.84,-2.28 0.11,-2.16 -0.23,-1 -0.72,-0.83 -5.83,-3.07 -6.580004,-0.39 -1.55,-0.69 -0.67,-1.57 -0.24,-6.54 -1.34,-2.64 -1.4,-1.55 v 0 l 13.530004,-10.15 2.13,-2.99 1.26,-4.5 -0.21,-3.32 -0.78,-1.7 -1.06,-0.59 -1.58,0.75 -0.6,-1.1 -1.91,-1.18 -3.09,-0.57 -1.990004,-2.78 -2.52,0.28 0.44,-2.69 -2.46,-1.56 -0.64,-1.25 -0.08,-2.56 -0.41,-0.73 -1.22,-0.56 -0.62,0.29 v 0 l 3.26,-3.11 0.86,-3.13 7.870004,-2 4.28,-4.06 1.72,-3.04 0.12,-4.89 -1.94,-4.06 -0.51,-3.2 -0.74,-1.79 -0.09,-3.34 0.41,-1.14 1.22,0.11 6.94,3.57 1,-0.05 1.98,-1.78 1.22,-3.54 3.06,-3.07 12.24,-6.44 v 0 l 1.17,0.94 2.46,0.92 1.94,0.39 3.17,-0.13 1.59,0.42 5.31,2.67 2.79,2.51 3.42,1.92 4.27,0.28 3.83,-0.78 2.95,0.31 3.41,-0.19 3.76,1.11 1.47,-0.83 v 0 l 1.09,1.57 1.66,0.27 4.8,2.95 6.04,1.9 1.17,1.06 v 0 l -2.33,5.6 -7.97,7.98 -0.96,1.79 -2.4,2.63 -0.62,3.07 -0.84,1.22 -1.8,0.43 -21.76,-0.53 -1.78,0.42 -1.78,6.11 -2.91,4.25 -3.08,1.98 -3.53,3.21 -2.06,1.1 -3.33,3.57 -5.62,3.17 -1.49,2.9 0.12,1.56 0.71,1.9 z"
     class="land"
     title="Tovuz"
     id="AZ-TOV" />
  <path
     d="m 419.63962,278.7129 -8.07,-0.18 -1.81,0.74 -2.64,0.29 -3.39,0.92 -6.12,-0.17 -2.85,-1.05 -2.14,-0.06 -5.28,2.93 -1.98,0.56 -0.9,-0.63 -2.2,-3.94 -6.05,-6.09 -7.07,-3.81 -3.85,-2.89 v 0 l -0.02,-1.35 -0.56,-1.27 -1.14,-1.13 -4.29,-2.56 -1.75,-3.23 0.02,-2.12 1.01,-2.8 0.13,-4.91 0.76,-1.79 0.34,-2.05 0.62,-0.88 3.66,-0.4 3.45,-1.47 6.14,2.65 v 0 l 0.14,1.1 3.1,1.59 1.33,2.09 1.43,-0.07 2.94,-1.81 1.55,0.08 2.81,1.62 2.7,2.31 4.7,2.5 1.43,-0.42 2.19,-3.29 2.37,-0.3 15.19,7.8 5.48,0.29 2.85,-0.84 3.48,1.84 v 0 l -0.71,4.1 -0.26,8.17 -3.55,6.88 z"
     class="land"
     title="Ucar"
     id="AZ-UCA" />
  <path
     d="m 526.65962,98.582902 -2.06,-2.46 -0.53,-0.15 -5.79,2.63 -1.2,-0.26 -8.98,-17.98 -0.9,-1.52 -2.35,-2.28 -0.48,-1.67 v 0 l 0.33,-2.38 -0.93,-2.37 -0.34,-2.68 -1.02,-1.33 -2.41,-1.53 -0.4,-0.67 0.87,-2.12 1.9,-2.38 0.82,-1.78 -0.08,-1.01 -0.62,-0.96 -1.06,-0.59 -4.47,-0.21 -1.29,-0.41 -1.47,-1.29 -0.52,-1.15 0.03,-10.06 2.78,-5.77 v -0.78 l -1.3,-2.3 -1.54,-0.71 -3.91,-0.03 -3.37,0.97 v 0 l 0.87,-1.55 3.74,-10.32 1.63,-5.56 1.75,-1.91 -0.23,-4.8799998 1.39,-1.96 0.83,-2.59 2.51,-0.48 2,1.69 0.9,2.13 2.46,2.6399998 1.87,0.98 1.34,1.76 2.4,1.63 5.79,5.35 5.98,6.58 2.54,4.06 1.7,1.74 3.65,6.7 2.09,4.72 0.65,0.57 0.77,-0.1 0.66,0.45 12.89,17.3 5.51,6.22 1.52,3.01 4.23,5.52 4.32,7.54 7.36,10.86 0.62,1.82 v 0 l -10.58,0.42 -5.21,-2.27 -4.43,-0.19 -1.58,0.19 -4.41,2.61 -3.64,1.1 -4.86,-2.93 -6.37,2.78 z"
     class="land"
     title="Xaçmaz"
     id="AZ-XAC" />
  <path
     d="m 268.33962,391.7029 -1.01,-2.22 -0.63,-3.82 -4.24,-4.16 -2.54,-5.67 -6.06,-3.95 -3.58,-1.42 -2.12,-0.2 -1.27,0.36 -4.42,2.55 -3.9,0.34 -3.13,0.7 v 0 l -0.89,-7.45 -1.11,-3.3 -4.43,-8.85 -3.84,-3.86 -2.83,-1.66 -0.74,-0.82 -0.15,-2.04 2.17,-6.39 v 0 l 3.83,-1.25 2.48,-3.04 0.96,-0.44 4.05,1.4 1.47,1.29 1.35,1.89 1.2,0.04 5.2,-3.02 2.01,-4.13 1.05,-1 1.01,-0.51 3.47,-0.29 4.55,-1.25 v 0 l 1.7,2.24 3.07,1.53 1.55,-0.09 4.04,-1.87 1.62,-0.01 1.63,0.63 2.14,2.07 1.17,2.1 2.66,3.1 0.24,4.3 0.65,1.52 2.73,1.67 1.66,0.55 3.1,-0.89 1.5,1.45 0.3,2.96 -1.28,3.76 -5.24,6.6 -2.78,6.63 v 0 l -0.91,1.87 -1.8,2.31 -0.01,0.92 2.46,3.77 6.04,6.39 1.26,3.8 -0.14,3.12 -0.74,0.79 -3.31,1.8 -4.03,3.78 -1.21,0.5 -1.67,-0.97 -1.86,-2.65 z"
     class="land"
     title="Xocalı"
     id="AZ-XCI" />
  <path
     d="m 629.90962,218.6929 -3.89,0.31 -2.24,1.06 -0.37,1.35 0.85,1.3 v 0 l -0.54,1.76 v 0 l -1.12,2.11 -0.98,1.08 -2.02,1.18 -1.92,1.97 -0.64,1.29 -2.92,3.43 v 0 l -0.42,5.34 -2.21,2.42 v 0 l -2.05,0.84 v 0 l -4.98,0.02 -1.81,0.75 v 0 l -1.58,0.19 v 0 l -5.83,0.36 v 0 l -8.25,-4.39 -2.88,-2.51 -2.09,-1.18 -1.38,-1.61 -2.77,-5.77 -1.35,-1.36 -5.06,-2.74 -4.29,-0.49 -3.22,-1.92 -10.21,-10.31 -2.36,-3.5 -2.45,-1.51 -2.67,-2.46 -8.32,-4.86 -2.84,0.18 v 0 l -3.31,-3.62 -2.47,-5.29 0.07,-3.8 2.25,-3.52 v 0 l 5.07,-4.87 3.22,-1.65 v 0 l 3.62,0.12 3.6,-1.71 2.04,-0.41 7.71,-3.16 1.03,-1.08 0.51,-3.01 1.19,-3.12 6.3,-3.03 0.81,0.38 0.39,0.88 0.05,6.64 1.38,2.5 1.97,1.27 2.5,0.71 10.9,6.22 12.12,0.45 1.67,-0.57 2.59,-2.14 1.02,-0.3 3.9,1.41 2.33,0.1 1.43,-0.56 v 0 l 2.35,2.37 1.06,2.2 1.27,1.62 1.26,0.82 3.13,0.69 1.65,0.89 3.3,-0.34 1.75,0.58 1.59,1.13 1.4,1.83 2.18,4.68 -0.44,0.53 -0.85,0.17 -0.24,0.54 0.72,1.93 -1.52,2.59 -0.3,1.73 0.15,5.56 1,6.97 z"
     class="land"
     title="Xızı"
     id="AZ-XIZ" />
  <path
     d="m 337.33962,382.7229 -1.95,0.4 -4.23,1.88 -6.62,0.02 -4.04,1.75 -2.51,-0.02 -3.58,3.88 -7.28,3.54 -6.09,0.07 -1.24,0.4 -0.42,1.2 0.26,1.4 0.72,0.91 2.02,1.18 2,0.29 2.73,-1.57 1.23,-0.27 0.91,0.56 0.2,0.95 -0.38,1.27 -1.55,1.12 -2.63,1.13 -3.23,0.23 -1.07,0.53 -2.12,2.69 -0.11,0.98 0.54,1.05 1.26,0.75 0.71,-0.03 2.36,-1.18 3.86,-3.28 1.82,-0.36 1.25,0.65 -0.47,2.08 0.27,1.98 -1.82,1.14 -0.7,1.19 0.75,2.23 0.26,3.23 0.59,2.11 -0.76,0.53 -3.93,0.4 0.21,2.89 -1.33,1.43 v 0 l -1.22,2.04 -1.95,1.41 -0.48,0.95 2.92,6.14 -0.21,1.12 -1.2,0.69 -1.77,-0.63 -1.2,0.14 -3.42,2.93 -1.52,0.78 -1.99,-0.14 -0.34,-0.73 0.41,-2.06 -9.32,-6.25 -0.29,-1.26 0.65,-2.13 -0.31,-0.53 -1.59,-1 -2.78,-0.77 -3.38,-2.71 -2.09,0.04 -1.33,1.62 2.78,6.37 -2.78,5.26 -1.44,0.41 -4.51,-2.54 -3.91,-0.68 v 0 l 2.39,-3.63 1.34,-3.36 -2.78,-4.27 -1.44,-0.46 -6.24,1.58 -2.65,-0.87 -2.89,-0.44 v 0 l 5.48,-3.92 0.61,-1.1 -0.08,-5.35 -0.6,-1.03 -2.33,-1.58 -0.26,-0.82 0.31,-1.25 0.91,-0.99 1.53,-0.77 4.61,-0.22 2.37,-0.95 v 0 l 7.1,-11.39 v 0 l 2.45,1.51 1.86,2.65 1.67,0.97 1.21,-0.5 4.03,-3.78 3.31,-1.8 0.74,-0.79 0.14,-3.12 -1.26,-3.8 -6.04,-6.39 -2.46,-3.77 0.01,-0.92 1.8,-2.31 0.91,-1.87 v 0 l 6.2,-3.25 4.6,-1.55 1.89,-2.24 1.17,-5.96 0.37,-0.69 0.72,-0.32 2.7,-0.15 2.34,-0.85 2.15,0.09 1.09,0.53 3.46,3.19 2.8,1.61 3.4,1.65 6.77,2.47 0.9,-0.97 1.57,-3.26 1.31,-1.37 6.63,-0.27 2.3,0.76 v 0 l 0.48,4.35 0.56,1.14 1.32,1.26 8.33,5.37 1.84,2.98 -0.01,2.01 z"
     class="land"
     title="Xocavənd"
     id="AZ-XVD" />
  <path
     d="m 500.68962,513.4129 -2.97,2.85 -18.3,10.12 -4.2,4.33 -4.67,2.51 -2.43,3.54 -2.48,2.78 -0.48,5.08 -0.66,0.86 -1.97,1.32 -1.35,3.38 v 0 l -4.52,-2.22 -2.27,-2.06 -1.31,-0.7 -3.71,-0.71 -3.85,-1.86 -2.38,-0.42 -1.08,-2.18 -7.12,-4.48 -3.89,-5.45 -0.95,-2.55 -0.58,-3.8 0.59,-4.37 0.89,-0.74 2.14,0.93 3.45,-0.14 1.64,-0.51 0.72,-1.08 0.31,-3 0.5,-0.8 2.43,-0.98 4.79,-0.39 2.81,-1.31 5.07,-0.17 6.06,-1.43 5.95,-0.6 8.97,-5.51 1.21,-2.23 -0.05,-1.6 v 0 l 1.74,-0.33 2.93,-1.54 1.58,0.2 4.3,2.82 3.91,4.68 v 0 l -0.31,3.52 1.49,3.55 0.72,0.35 1.56,-0.03 2.94,-1.49 z"
     class="land"
     title="Yardımlı"
     id="AZ-YAR" />
  <path
     d="m 312.47962,223.7529 -2.21,1.83 -0.49,2.33 0.73,2.46 2.58,1.71 3.43,0.25 2.09,-0.98 0.49,-2.09 -0.37,-3.31 -1.1,-1.22 -2.7,-1.23 z"
     class="land"
     title="Yevlax City"
     id="AZ-YE" />
  <path
     d="m 262.75962,172.6129 0.1,4.81 0.99,3 0.01,10.87 -0.2,1.12 -2.92,5.66 -0.08,4.86 0.85,1.27 2.44,1.39 5.66,0.77 3.49,2.3 0.36,0.66 -2.28,3.64 -2.34,2.52 -2.52,3.74 -0.26,3.8 0.35,1.34 1.78,0.13 5.23,-3.5 1.62,-0.56 2,0.26 3.48,2.24 0.93,1.14 0.3,2.13 -0.14,4.76 -0.93,2.32 -0.07,1.59 1.82,5.43 0.74,0.87 1.31,0.42 3.97,-1 1.65,0.01 1.15,0.44 -0.62,4.55 -0.72,1.14 -0.25,1.99 -0.93,0.65 -1.35,-0.03 -1.21,0.57 v 0 l 0.89,1.36 0.29,3.12 1.22,2.68 3.58,3.97 v 0 l 3.62,-4.55 2.14,-4.11 2.75,-3.81 2.11,-0.31 2.02,0.38 3.7,3.07 1.09,0.36 5.45,-3.79 1.91,-2.33 2.13,-7.12 v 0 l 3.23,-1.41 1.65,-1.42 1.06,-1.31 2.22,-4.39 0.13,-3.73 -2.07,-4.54 -0.06,-4.92 0.98,-2.81 0.35,-2.61 1.77,-3.47 2.62,-11.87 v 0 l -7.86,-2.75 -7.4,-4.19 -2.63,-0.47 -6.7,-3.43 -6.84,-4.21 -9.13,-4.8 -3.42,-1.4 v 0 l -7.35,-3.48 -10.21,-6.47 -4.94,0.36 z m 39.17,31.94 -0.81,1.29 v 0 l -2.77,1.6 -3.37,1.03 -1.55,0.09 -5.17,-2.71 -3.01,-4.13 -0.01,-0.95 v 0 l 2.1,-3.81 v 0 l 1.21,-0.2 v 0 l 5.49,2.8 0.96,0.02 v 0 l 3.2,-1.56 1.16,-0.03 1.15,1.21 0.7,0.18 v 1.67 l 0.94,0.89 0.45,1.07 v 0 z m 16.68,26.8 -2.08,0.98 -3.43,-0.25 -2.57,-1.72 -0.74,-2.45 0.49,-2.33 2.21,-1.84 2.45,-0.25 2.7,1.23 1.1,1.23 0.37,3.31 z"
     class="land"
     title="Yevlax"
     id="AZ-YEV" />
  <path
     d="m 279.28962,478.2129 -2.58,1.35 -1.64,3.46 -5.44,5.37 -4.67,5.7 -1.16,5.09 -3.37,2.64 -3.52,0.23 -1.2,1.56 -2.13,1.63 -2.5,4.43 -1.72,2.16 -2.47,2.02 -2.36,3.69 -8.19,7.22 -0.79,-5.64 -2.71,-4.56 -0.94,-2.42 0.39,-1.77 1.46,-1.96 0.06,-0.82 -0.55,-1.24 0.14,-1.41 2.45,-7.39 1,-1.35 0.11,-1.33 -0.77,-0.49 -2.13,-0.32 -0.84,-1.03 0.44,-1.51 1.23,-0.82 0.15,-1.18 -1.21,-1.82 -2.1,-1.18 -0.55,-1.17 -0.01,-1.87 -2.16,-1.49 -0.05,-1.28 1.04,-1.86 -1.14,-0.7 -2.04,0.88 -1.79,-1.13 -1.78,-0.34 -1.16,-3.31 0.02,-3.19 0.75,-1.03 1.23,-0.24 1.73,0.24 3.19,1.57 0.42,-0.1 2.4,-3.08 1.48,-0.61 0.52,0.2 0.65,1.05 0.39,5.15 0.62,1.16 1.17,-1.71 1.41,-1.15 2.41,-3.58 2.16,-1.51 3.53,-0.74 1.06,-0.77 v 0 l 1.64,1.81 0.36,2.09 -0.13,2.97 -1,2.9 0.07,4.76 1.57,3.27 h 1.57 l 1.22,-0.48 1.52,-1.8 3.36,-5.97 3.76,-3.68 2.81,-1.69 2.75,-2.38 6.05,-3.15 v 0 l 0.82,1.28 1.86,1.51 2.53,3.52 1.11,2.2 z"
     class="land"
     title="Zəngilan"
     id="AZ-ZAN" />
  <path
     d="m 218.20962,76.352902 -7.68,-3.07 -1.28,-1.11 -0.57,-1.02 0.35,-2.52 -0.3,-1.55 -3.62,-4.95 -0.92,-1.97 v 0 l 4.78,2.62 1.39,0.21 5.95,-3.46 2.61,-2.63 5.81,-0.37 8.8,-5.49 2.35,-4.18 1.23,-3.86 0.32,-2.67 1.5,-2.85 5.76,-4.46 1.78,-0.91 2.69,-2.36 2.09,-1.15 5.87,-5.97 1.22,-2.74 0.25,-6.49 -0.3,-1.14 -0.93,-1.25 v 0 l 2.73,-2.0999998 1.24,-0.51 1.64,-0.41 0.78,0.52 0.87,1.25 0.39,3.0199998 1.25,3.58 0.03,2.63 0.97,2.72 6.6,6.62 0.79,1.09 0.35,1.27 0.82,0.56 1.22,0.58 1.25,0.02 4.12,-0.65 0.95,0.29 0.96,1.02 0.86,1.53 0.41,2.21 -0.15,3.1 2.87,4.99 2.51,3.1 3.45,0.42 1.06,0.49 1.09,1.63 0.26,1.22 -0.37,0.95 -1.01,0.76 -0.74,1.22 -0.01,1.04 0.15,1.06 2.76,5.9 2.63,-0.43 v 0 l -1.3,3.78 -1.63,2.63 -3.24,0.74 -3.81,2.7 h -2.14 l -2.32,-0.98 -3.26,-0.29 -1.81,-0.81 -2.64,-0.42 -2.85,-1.04 -7.2,-0.09 -5.57,1.54 -1.49,1.64 -0.67,2.49 -7.57,15.08 -2.42,3.63 -1.9,1.77 v 0 l -1.03,-0.98 -0.49,1.26 -0.63,-0.19 -0.6,-1.11 -0.56,0.44 -0.73,-0.02 0.33,-2.08 -0.44,-0.55 -0.45,-0.01 -0.49,1.17 -0.7,-0.84 -3.97,-1.28 -0.32,-0.81 -9.56,-3.64 -3.55,-2.56 -1.08,-2.02 -1.19,-1.22 -0.83,-0.44 -3.32,-0.42 -0.05,-1.61 z"
     class="land"
     title="Zaqatala"
     id="AZ-ZAQ" />
  <path
     d="m 407.97962,314.7829 -1.64,3.1 -1.53,0.96 -9.7,-0.63 v 0 l 2.94,-2.06 0.38,-0.65 -1.02,-1.23 -3.79,-2.74 v 0 l -0.69,-3.69 -1.34,-3.12 -1.54,-1.18 -2.68,-1.1 -0.86,0.3 -0.66,0.91 -0.63,2.74 -0.57,0.75 -5.46,-1.75 -2.28,0.74 -3.26,0.16 -2.32,0.83 -3.26,0.21 -3.45,1.84 -2.02,-0.14 -1.58,-3.19 -0.47,-2.03 -2.61,-3.07 -0.42,-0.96 -0.04,-4.93 0.67,-5.3 v 0 l 0.08,-0.78 -0.76,-0.38 -4.51,0.22 -1.63,-1.01 -0.37,-1.62 1.59,-2.89 v 0 l 8.94,-8.7 0.65,-2.42 3.15,-6.64 v 0 l 3.85,2.89 7.07,3.81 6.05,6.09 2.2,3.94 0.9,0.63 1.98,-0.56 5.28,-2.93 2.14,0.06 2.85,1.05 6.12,0.17 3.39,-0.92 2.64,-0.29 1.81,-0.74 8.07,0.18 v 0 l -0.81,3.71 -0.06,8.73 1.36,6.06 0.77,1.8 -0.13,5.9 -2.6,2.96 -1.02,1.83 -1.93,1.93 -1.52,0.76 -3.04,0.49 z"
     class="land"
     title="Zərdab"
     id="AZ-ZAR" />
     <g id="stadiums" data-country="azerbaijan" data-circle-radius="6"></g>
</svg>
