<?xml version="1.0" encoding="UTF-8" standalone="no"?>
<?xml-stylesheet type="text/css" href="/styles/home.css"?>
<!-- https://www.amcharts.com/svg-maps -->

<svg version="1.1" xmlns="http://www.w3.org/2000/svg" id="map-belarus"
   viewBox="0 0 709.90222 709.90222" width="709.90222" height="709.90222" class="">

  <defs
     id="defs4">
    <style
       type="text/css"
       id="style2">
			.land
			{
				fill: #aa84bd;
				fill-opacity: 1;
				stroke:white;
				stroke-opacity: 1;
				stroke-width:0.5;
			}
         .rectangle:hover {
         fill: #bdbdbd;
         cursor: pointer;
         }
		</style>
    <!-- <amcharts:ammap projection="mercator" leftLongitude="23.178942" topLatitude="56.172064" rightLongitude="32.780288" bottomLatitude="51.262469"></amcharts:ammap> -->
    <!-- All areas are listed in the line below. You can use this list in your script. -->
    <!--{id:"BY-BR"},{id:"BY-HO"},{id:"BY-HM"},{id:"BY-HR"},{id:"BY-MA"},{id:"BY-MI"},{id:"BY-VI"}-->
  </defs>
  <rect id="background" class="rectangle" stroke-width="0" stroke="#000" width="709.90222" height="709.90222" y="0" x="0" fill="#d3d3d3" />
  <path
     d="m 56.360303,475.76724 11.68,-0.91 0.11,-1.43 2.28,-0.74 2.95,1.59 -0.24,3.02 4.04,1.37 0.12,-0.93 0.84,2.44 0.7,-2.43 1.8,-1.18 0.93,0.51 -0.64,1.77 1.23,-1.39 3.85,2.04 4.01,-2.33 1.13,0.28 -0.02,2.41 8.939997,-0.19 3.13,-1.72 0.79,0.94 -0.99,-4.82 2.77,-6.88 -1.73,0.39 0.93,-0.82 -1.46,-1.51 2.62,-4.1 2.94,-0.93 -2.87,-2.19 0.31,-1.5 7,-6.15 1.52,0.17 -0.49,4.32 2.31,1 2.5,-1.11 1.34,1.45 2.04,-2.26 1.24,1.96 4.29,-0.39 1.52,-1.76 2.46,0.4 2.12,3.9 -1.21,1.44 2.97,3.24 2.68,-4.83 1.25,0.43 -1.01,7.03 0.76,3.69 1.79,-2.31 1.91,1.32 1.9,-2.6 4.55,2.78 1.37,-3.7 3.96,-1.68 0.96,4.71 2.76,1.05 2.19,-2.73 -0.5,-1.32 -2.53,0.26 -0.51,-2.59 2.47,-2.2 -2.32,-4.12 4.16,0.7 4.39,-0.91 -0.24,-3.99 1.89,-2.89 5.22,-2.51 1.69,-2.65 3.7,-0.81 -0.31,-1.59 1.51,-1.79 -2.39,-3.36 1.61,-0.42 1.15,-3.37 h -0.94 l 0.37,-3.61 -2.85,-2.73 1.69,-1.5 0.16,-2.56 1.39,-0.01 -1.31,-2.64 1.66,-3.88 -1.01,-2.03 3.05,-0.5 1.57,-6.23 -0.52,-3.38 1.07,0.21 2.1,-3.51 7.09,1.84 2.05,-1.38 2.7,0.94 1.16,-1.99 2.81,-0.27 -0.33,1.4 5.16,0.39 0.01,1.29 h 2.79 l 2.06,1.97 3.1,-2.55 0.65,2.27 2.49,-1.55 1.95,1.02 10.17,0.04 1.29,2.38 3.52,-1.5 v 0 l 1.58,5.34 1.41,0.23 -1.09,7.26 -3.08,0.11 -0.12,2.28 -2.83,1.67 0.46,1.46 -2.81,0.73 0.8,2.78 2.84,1.05 1,2.97 1.64,-0.31 1.46,3.31 2.22,1.51 4.59,-0.08 0.87,3.86 2.08,0.14 1.2,4.31 -4.12,-0.62 -1.19,1.76 0.4,4.81 -2.86,-0.3 -2.16,1.51 1.26,5.55 3.7,4.68 -5.42,5.43 0.26,3.68 4.06,2.34 0.11,1.35 4.83,-7.01 0.93,3.46 2.27,-1.19 2.26,-6.13 2.86,3.48 2.84,-0.23 1.74,2.73 2.03,0.54 -0.41,-1.14 3.06,-0.23 0.82,6.49 2.71,3.53 5.06,-0.7 1.4,2.07 5.38,2.68 3.96,-5.44 1.68,4.39 -0.66,3.19 1.98,0.92 0.84,3.6 -3.04,0.94 0.8,6.78 -2.08,0.03 0.1,2.44 2.22,1.13 0.27,3.37 1.2,0.11 0.18,8.4 4.87,0.21 0.74,4.44 2.03,-0.2 0.33,4.12 4.64,-0.08 0.12,2.4 3.42,0.94 v 0 l -1.21,4.06 0.49,4.38 7.92,-0.08 0.09,1.98 2.57,2.12 4.4,0.2 1.75,2.43 3.04,0.89 1.82,5.92 -2.42,2.97 1.57,2.34 -2.31,6.26 0.34,5.78 3.64,0.53 0.66,3.36 h 2.54 l 0.08,3.01 -7.23,7.18 1.72,6.08 -2.76,4.92 4.49,5.23 -1.87,4.51 1.35,2.55 -2.02,2.56 -1.69,-0.29 -0.95,1.27 -0.44,6.32 2.22,3.89 v 0 l -0.37,3.46 1.1,-0.06 -1.7,2.39 -1.87,-1.07 0.3,-2.36 -1.38,0.95 -0.85,-1.51 -1.93,1.92 -4.8,-1.5 -1.48,1.4 -7.17,0.31 2.19,-6.07 -1.77,-1.52 -3.03,0.33 -0.52,-12.98 -15.39,0.59 -3.38,3.98 -7.44,-3.66 -3.94,1.07 -3.02,-2.39 -0.22,-3.12 -4.4,-2.59 -7.26,-0.48 -3.68,3.73 -5.24,-0.2 -0.24,-1.64 -1.88,-0.48 -1.57,-2.4 -1.81,0.25 -0.22,-4.82 -2.06,1.45 -10.57,-1.08 -4.77,0.83 -0.17,-1.6 -1.18,0.21 -3.43,-4.01 -6.23,-2.62 -6.42,2.13 -7.03,-1.18 -0.2,-2.22 -3.3,-0.85 -0.85,0.28 0.97,3.07 -12.91,-0.04 -5.59,-2.03 -1.22,2.1 -1.92,-0.99 -0.8,1.27 h -4.76 l -5.5,-1.89 -5.63,-3.84 -2.37,0.94 -2.63,-1.08 -4.06,2.09 -3.22,0.02 -9.67,6.49 -2.46,0.01 -0.95,-1.7 -5.52,1.68 -1.42,-1.91 -4.94,3.52 -3.05,-1.55 -3.29,0.45 -3.15,-1.18 -11.289997,2.46 -6.65,-0.07 -3.6,2.67 0.34,1.33 -3.5,5.54 1.67,6.25 -3.48,3.85 -10.98,6.04 -3.39,5.39 -5.81,4.73 -5.47,-2.1 -3.05,0.86 -0.2,-2 2.46,-2.82 -6.26,-1.7 -2.59,0.8 -0.84,-3.28 -5.29,2.02 -2.32,-0.45 -5.18,3.49 1.82,3.71 2.31,1.32 -1.97,3.56 2.93,5.46 -4.01,0.18 -0.98,-2.87 -3.33,-0.83 0.9,-2.61 -2.72,-5.35 -0.19,-4.9 1.57,-6.48 -2.3,-3.63 2.32,-3.81 2,0.29 3.22,-2.47 0.73,-2.47 -2.83,-4.8 0.34,-4.26 1.81,0.47 -0.65,-1.52 1.18,-0.87 -1.91,-2.9 2.44,-1.94 -0.38,-1.88 -1.02,-0.02 3.24,-1.7 -0.35,-1.65 1.68,-1.75 -3.4,-7.97 0.92,-0.21 -0.19,-2.47 -2.6,-1.44 0.27,-1.7 -1.63,-1.29 -2.98,-0.17 -0.7,1.01 -2.66,-4.51 -1.84,-0.57 1.01,-3.21 -2.55,0.59 -0.7,-1.26 -2.4,1.49 -0.65,-1.17 -1.15,0.57 -0.42,-2.77 -1.46,0.62 -0.71,-1.47 -3.98,-0.16 -0.6700005,-1.55 -2.71,0.85 -4.41,-1.38 -0.13,-5.91 -1.78,-1.02 10.0900005,-17.78 7.8,-10.86 4.05,-4.08 7.85,-4.6 9.48,-2.56 1.68,0.93 11.63,-8.82 3.39,-4.01 z"
     class="land"
     title="Brest"
     id="BY-BR"
      />
  <path
     d="m 390.9103,488.00724 1.02,0.72 2.1,-2.03 0.67,1.09 4.98,0.02 4.27,-2.03 3.49,1.32 1.86,-1.4 2.63,1.35 2.3,-3.61 3.88,-0.02 -0.1,-2.06 -1.4,0.38 -1.23,-1.31 0.64,-3.26 3.48,1.13 1.62,-1.97 1.65,0.29 5.87,-8.2 -0.41,-3.02 11.5,-1.62 -0.97,-4.33 5.86,-7.74 13.21,5.12 0.63,-1.49 1.31,0.17 -0.13,1.58 2.11,1.06 3.52,-1.59 3.19,-3.48 8.52,0.48 2.95,2.15 4.1,-1.31 -0.66,-1.41 1.51,-1.7 -4.02,-1.75 -2.51,-3.57 3.07,-3.87 -0.86,-1.88 -2.2,0.77 -1.64,-3.32 1.91,-1.29 -1,-2.44 1.33,-1.78 1.56,1.88 3.16,0.26 4.08,-2.12 -1.51,-1.61 1.52,-3.33 -2.09,-1.04 3.56,-1.28 -2.11,-5.69 0.47,-1.55 -1.43,-1.72 -0.07,-5.09 7.07,-5.36 0.81,3.92 2.13,-0.9 -0.66,-0.89 0.96,-0.49 1.43,1.06 -1.14,3.05 3.49,0.52 1.03,-3.33 9.22,2.17 5.89,11.18 5.32,-0.86 2.05,-2.66 0.08,1.26 4.84,-2.06 3.39,0.53 0.21,-2.01 2.26,-1.79 3.42,1.06 0.86,-2.37 1.8,0.31 0.93,-2.58 2.67,0.27 1.94,-4.6 1.23,0.68 -1.45,2.68 1.37,0.74 -0.63,1.42 6.99,1.36 -1.05,2.16 1.91,1.84 3.06,-0.36 -0.05,-1.76 3.2,-1.13 5.13,0.73 1.33,-1.17 -0.32,-1.38 1.53,-0.52 10.23,-0.25 -0.53,2.66 -2.08,1.98 1.16,1.82 1.43,-1.02 1.98,0.62 -0.04,3.09 1.93,1.21 0.11,2.9 2.47,-0.49 0.61,2.02 1.36,0.38 0.15,1.99 -1.61,1.55 1.09,2 6.45,-0.58 1.26,3.49 2.07,-0.76 0.02,0.87 5.69,0.12 1.02,2.26 h 1.5 v 0 l -2.01,0.6 -0.38,6.06 -4.8,-0.1 -1.57,1.64 8.32,5.42 1.65,3.76 -0.27,3.31 8.09,8.14 4.04,0.23 0.07,2.17 -1.36,1.21 4.95,4.63 0.98,6.05 -2.87,4.32 -4.79,1.7 4.61,5.59 0.33,6.16 5.01,4.04 3.03,0.34 -2.72,2.44 -1.74,-1.09 -1.36,4.18 -2.6,-0.31 1.12,2.58 2.13,-0.99 1.54,1.69 -1.38,3.04 -1.79,0.82 1.94,0.58 -1.03,4.46 2.03,-0.18 0.71,2.38 -0.39,8.19 -3.1,0.94 3.12,3.92 0.37,-0.79 1.63,2.25 4.34,1.55 -1.05,1.12 0.87,4.85 -1.56,2.51 6.88,1 1.29,7.88 -5.65,2.97 -0.58,-1.37 -3.09,-0.92 -11.27,-1.32 -2.8,1.04 -1.42,-0.49 -0.71,-2.33 -3.62,-0.11 -1.99,1.04 0.59,1.42 -4.51,1.91 -2.01,6.29 -3.16,1.23 -2.06,-1.02 -0.97,-2.52 -3.88,-0.91 -1.35,-2.71 -11.48,2.93 -2.71,-1.4 0.13,1.75 -1.39,0.2 1.09,2.76 -1.78,-1.01 1.11,1.63 -1.16,0.65 0.51,1.88 -1.19,0.23 1.29,3.27 -2.23,-1.21 -0.69,1.04 1.28,1.08 -1.82,0.41 0.29,1.7 -3.7,0.9 1.07,0.89 -0.69,0.85 -1.56,-0.98 -0.96,0.84 1.1,3.27 -1.59,2.69 -4.1,-0.43 -2.98,4.21 -0.82,3.64 -3.22,1.42 1.31,3.41 -0.92,2.55 -3.19,0.8 2.62,0.94 -1.86,5.47 -4.42,0.94 0.49,5.24 -3.02,-1.61 -0.97,0.71 1.34,1.51 -1.95,3.52 3.53,2.44 -3.45,1.07 3.29,2.11 -1.87,1.91 1.37,2.57 2.55,-0.63 -0.98,4.26 1.58,3.93 2.35,1.34 -3.04,1.86 0.34,2.62 2.42,0.21 2.64,5.38 -1.28,2.36 1,2.55 -4.2,2.98 1.37,0.79 -0.66,0.81 1.48,-0.55 -1.1,2.74 -4.94,2.3 -2.52,-2.21 -4.02,0.85 0.72,-3.87 -4.36,-0.32 -5.74,-5.9 2.25,-2.06 -1.18,-4.93 0.77,-0.48 -7.71,-7.27 -5.4,-3.11 -0.85,2.65 -2.59,-2.15 -0.6,2.3 -7.58,-1.94 -0.35,1.72 -2.56,0.65 -0.8,1.56 -2.81,-2.19 -2.38,0.62 -1.29,4.61 -2.62,-1.38 -2.01,0.86 -0.8,-1.17 -0.85,2.1 -3.57,-1.88 -1.3,-3.7 1.36,-0.6 -0.13,-2.46 -0.54,-1.74 -1.54,0.02 -3.42,3.17 -2.74,-0.21 -3.68,4.94 -3.21,-2.07 -2.81,9.62 -6.65,-1.58 -6.55,3.99 -1.36,-9.03 -2.67,-0.86 -1.54,-4.04 0.43,-8.35 -3.09,-0.75 -0.41,-2.84 -2.15,-1.76 0.52,-1.26 -1.51,-0.65 0.22,-2.97 -4.32,0.2 -8.01,9.13 -1.73,0.15 -0.52,-1.99 -4.43,0.14 -6.19,3.32 -4.58,8.64 1.49,4.14 -2.16,4.31 -1.12,-6.01 -2.62,2.8 -1.36,-0.58 -3.02,-12.49 0.86,-0.89 -1.65,0.04 2.02,-0.97 -7.52,-0.21 -0.01,-1.21 -2.81,-1.22 -3.51,-0.28 -8.6,6.37 -0.65,-4.12 -4.61,-5.81 -1.84,0.26 0.02,-7.24 -6.28,4.26 -1.45,4.52 -1.9,0.31 -1.75,3.08 -4.94,1.64 -7.15,0.91 2.61,-4.3 -3.97,2.05 -0.74,-4.68 -4.11,-1.62 -2.02,1.01 -0.64,0.68 1.4,1.04 -0.95,4.26 1.65,3.48 -3.64,1.27 -3.24,6.8 -6.82,-4.99 4.14,-5.64 0.27,-4.67 -5.69,-1.43 -1.82,1.29 -5.24,-3.7 -0.93,1.63 -1.52,-1.61 v 0 l -2.21,-3.89 0.44,-6.32 0.95,-1.27 1.69,0.3 2.02,-2.57 -1.34,-2.55 1.87,-4.51 -4.49,-5.23 2.76,-4.91 -1.72,-6.08 7.23,-7.19 -0.08,-3 h -2.54 l -0.66,-3.36 -3.64,-0.53 -0.34,-5.78 2.3,-6.26 -1.56,-2.34 2.42,-2.97 -1.82,-5.92 -3.04,-0.89 -1.74,-2.43 -4.4,-0.2 -2.58,-2.12 -0.09,-1.98 -7.91,0.09 -0.49,-4.39 1.21,-4.05 v 0 l 6.3,-6.04 0.67,-1.27 -1.85,-4.57 2.42,-1.22 1.53,-3.81 8.94,0.44 1.71,-2.06 1.9,1.79 1.82,-1.9 0.4,1.05 1.3,-0.65 -0.1,1.83 1.46,0.06 -1.24,5.58 7.79,3.65 0.38,2.3 5.95,-0.6 6.73,1.84 4.12,-1.22 0.08,-3.3 1.7,-0.98 -0.86,-4.62 1.82,-0.99 9.49,-1.23 0.89,4.47 4.62,-0.87 0.44,2.26 10.47,-1.67 6.73,-6.7 0.11,-12.44 z m 226.58,25.03 -0.18,-1.28 3.45,0.85 -0.52,1.81 -0.88,-1.48 z"
     class="land"
     title="Homyel'"
     id="BY-HO"
      />
  <path
     d="m 326.7403,351.72724 -1.79,-2.65 v 0 l 1.47,-0.77 v 0 z m 22.8,-9.15 -0.77,-1.82 1.26,0.74 z m 10.29,-2.89 1.61,2 -1.38,1.04 v 0 l -2.54,-2.99 z m -33.65,-9.77 2.46,1.34 1.56,-0.7 -0.35,1.3 1.41,0.88 6.58,-1.68 -0.76,3.65 -4.13,2.09 1.37,4.66 -1,2.69 3.24,2.37 0.48,-3.37 4.42,0.21 1.47,1.58 -2.21,1.69 -0.1,1.69 -2,0.42 -2.68,-1.9 -0.68,2.9 -2.42,1.16 -1.11,-2.47 1.21,-0.84 -0.63,-1.32 -3.68,1.42 -11.06,-0.37 -2.68,-1.79 -0.84,-2.58 -1.68,1.37 -1.95,-1.21 2.9,-1.79 v -4.95 l 3.58,-5.05 z"
     class="land"
     title="Minsk City"
     id="BY-HM"
      />
  <path
     d="m 223.7203,198.80724 3.11,1.57 0.96,4.62 1.85,1.09 v 0 l -0.26,0.95 6.31,5.81 -2.41,3.78 0.5,4.91 6.36,-1.66 1.54,1.36 4.28,7.18 3.31,1.38 -0.41,5.58 2.43,6.9 1.82,2.04 1.37,-1.27 1.68,1.12 2.74,-0.67 -0.97,6.1 2.45,0.94 -0.31,1.28 -2.35,-0.05 0.07,4.14 -3.67,-1.5 1.05,1.18 -0.88,2.67 1.2,0.52 -0.41,1.37 1.31,-0.2 0.75,3.74 -1.19,4.21 -1.27,0.61 1.92,1.08 -3.56,4.62 -2.6,-0.11 -0.96,2.25 -1.17,0.09 0.5,2.29 -1.17,-0.01 -2.69,6.18 0.28,2.35 -4.77,1.63 -5.88,10.02 -6.56,-0.67 -1.79,-2.72 -1.3,1.19 -1.28,-1 -7.3,6.53 -2.24,0.15 -1.31,-2.64 -3.91,6.8 0.39,1.38 6.32,3.51 0.45,-1.27 -2.01,-1.83 5.65,-1.57 -1.82,5.23 3.23,9.57 2.5,0.93 8.74,-4.23 0.55,5.88 -1.59,4.29 3.31,-0.76 3.46,-2.76 2.79,6.45 -2.14,2.73 -3.77,0.45 1.96,3.56 -4.15,1.48 -2.24,2.35 -1.03,-1.27 -0.96,1.46 -2.77,0.19 1.92,4.46 -2.17,0.27 -0.14,1.81 1.23,1.22 1.46,-0.89 1.22,1.46 -1.51,1.25 1.3,1.92 -0.94,0.94 3.57,7.34 4.39,1.27 -0.8,3.45 3.13,1.14 -0.13,1.49 3.04,2.67 3.16,5.98 4.44,2.19 -0.1,3.36 -3.49,2.6 1.29,0.99 1.4,-1.36 0.5,1.47 1.09,-0.33 0.29,8.48 1.76,4.12 -4.9,1.8 -7.34,0.21 -2.01,2.4 -2.12,0.26 v 0 l -3.52,1.51 -1.29,-2.38 -10.17,-0.04 -1.95,-1.02 -2.49,1.56 -0.65,-2.27 -3.1,2.54 -2.06,-1.96 h -2.79 l -0.01,-1.3 -5.16,-0.38 0.33,-1.41 -2.81,0.27 -1.16,1.99 -2.69,-0.94 -2.05,1.38 -7.09,-1.84 -2.1,3.51 -1.07,-0.21 0.52,3.38 -1.57,6.23 -3.05,0.51 1.01,2.03 -1.66,3.88 1.31,2.63 -1.4,0.01 -0.15,2.56 -1.69,1.5 2.85,2.73 -0.37,3.61 h 0.94 l -1.14,3.38 -1.61,0.42 2.38,3.36 -1.51,1.79 0.31,1.59 -3.7,0.81 -1.7,2.65 -5.21,2.51 -1.89,2.89 0.24,4 -4.39,0.9 -4.16,-0.7 2.32,4.12 -2.47,2.2 0.51,2.59 2.53,-0.26 0.5,1.32 -2.19,2.73 -2.76,-1.05 -0.96,-4.71 -3.96,1.68 -1.37,3.7 -4.55,-2.78 -1.9,2.6 -1.91,-1.32 -1.79,2.31 -0.75,-3.68 1,-7.03 -1.25,-0.43 -2.68,4.82 -2.97,-3.23 1.21,-1.44 -2.12,-3.9 -2.46,-0.4 -1.52,1.76 -4.29,0.39 -1.25,-1.96 -2.04,2.26 -1.34,-1.45 -2.5,1.11 -2.3,-1 0.49,-4.32 -1.52,-0.17 -7,6.15 -0.31,1.5 2.87,2.19 -2.94,0.93 -2.62,4.1 1.46,1.51 -0.93,0.82 1.73,-0.39 -2.77,6.88 1,4.82 -0.79,-0.94 -3.13,1.72 -8.939998,0.19 0.02,-2.41 -1.12,-0.28 -4.01,2.32 -3.85,-2.03 -1.23,1.39 0.64,-1.77 -0.93,-0.51 -1.79,1.18 -0.71,2.42 -0.83,-2.43 -0.12,0.93 -4.04,-1.36 0.24,-3.02 -2.95,-1.6 -2.28,0.74 -0.11,1.43 -11.68,0.91 v 0 l -1.67,-18.98 2.2,-2.56 -1.55,-8.03 -3.91,-6.89 3.35,-9.36 -3.92,-4.6 -0.64,-4.51 -2.76,-1.6 -11.67,-34.12 -5.74,-27.6 -2.46,-3.29 0.25,-10.15 -2.09,-1.45 -0.65,-11.74 1.53,1.47 3.31,0.13 2.12,2.08 7.52,-1.65 4.17,1.98 0.63,2.9 1.11,0.15 2.04,-1.35 -1.23,-3.16 3.32,-2.49 3.71,1.37 1.43,-3.05 3.55,2.08 0.48,3.03 1.46,0.18 8.14,-1.6 0.98,-2.24 2.08,0.39 4.4,-2 0.68,2.53 1.59,0.63 1.5,-0.99 4.51,5.92 1.25,0.33 1.15,-1.36 0.79,1.4 4.64,-0.71 0.46,0.99 -0.13,-1.09 0.69,0.8 1.63,-0.81 4.68,-6.38 7.549998,-6.31 5.88,-0.73 -0.91,6.63 3.62,-0.43 2.34,-3.34 3.38,-0.21 1.91,-1.54 -0.3,-2.59 2.62,-0.87 -2.18,0.1 -1.51,-1.43 -0.17,-3.25 -3.54,-5.14 4.34,-2.51 -0.92,-1.76 3.87,-0.14 6.53,-3.13 2.62,3.65 5.91,1.04 9.53,-10.8 1.37,-4.9 0.85,-0.52 1.36,1.44 1.22,-2.69 2.59,1.46 3.7,-0.3 4.13,-2.31 0.98,-1.99 3.33,0.96 2.36,-2.56 1.21,0.52 0.19,2.89 3.27,1.3 1.96,5.8 -3.4,-0.3 1.34,4.17 -3.46,1.44 -0.32,1.31 1.77,2.4 6.85,1.55 1.04,1.91 3.22,-1.48 1.52,-3.53 2.52,1.62 1.2,-1.99 2.8,1.76 -1.65,-3.23 0.21,-2.46 -2.08,-2.05 3.57,-2.48 -2.13,-0.47 -1.13,-3.59 -3.57,-0.95 0.56,-2.49 -1.68,-2.78 -5.01,1.28 -2.25,-1.55 -2.68,0.99 -0.19,-2.16 -1.1,-0.19 4.16,-5.42 0.09,-3.38 0.96,0.65 1.83,-3.15 -0.17,-4.33 -1.65,-0.35 2.43,-1.34 3.24,-8.28 5.88,-5.26 -2.13,-13.29 1.23,-8.62 -0.98,-6.77 1.17,-2.83 1.83,-0.26 0.44,-4.02 5.18,-5.2 0.49,-3.91 5.17,-1.03 3.94,-2.72 5.99,2.05 -0.69,-0.82 1.99,-0.71 -0.21,-1.86 2.27,-0.29 0.84,-2.1 z m -53.09,91.69 -1.05,-0.26 2.08,-1 z"
     class="land"
     title="Hrodzen"
     id="BY-HR"
      />
  <path
     d="m 459.4103,294.52724 2.09,-0.51 1.22,1.11 2.11,-2.39 1.12,0.57 3.21,-6.76 3.22,0.26 -0.85,-2.77 0.91,-1.72 3.62,-1.36 -0.03,1.46 5.23,3.4 9.08,-1.25 1.9,-1.74 2.14,1.43 1.88,-2.83 0.83,0.68 -1.26,1.78 1.98,2.02 -0.82,1.12 3.33,1.67 3.38,-1.98 -1.16,3.63 2.71,-0.01 0.89,-0.47 -1.59,-4.33 3.4,1.08 -0.01,-1.16 1.94,-0.65 -3.02,-2.79 2.43,0.15 1.41,1.92 1.85,-3.08 -1.85,-2.01 0.53,-1.65 2.88,-0.54 -1.54,2.81 3.01,-1.03 1.85,2.57 -0.1,2.14 1.66,-0.11 1.13,-4.15 2.43,1.88 2.88,0.24 1,-5.17 1.96,1.03 -0.59,4.22 -2.83,2.47 -1.32,4.06 5.4,1.41 2.31,-3.69 3.15,0.28 0.23,-3.22 1.64,1.11 2.55,7.51 1.96,-1.43 0.36,2.28 2.65,1.26 -0.83,-2.71 2.79,-0.04 -2.71,-0.95 3.24,-2.62 -1.24,-0.63 1.48,-3.27 2.37,-1.65 -3.11,-2.66 9.09,-2.77 -0.48,-3.98 2.01,-0.65 2.54,1.61 2.64,-0.02 0.47,2.28 2.81,-0.87 3.12,1.02 1.9,-0.95 0.83,-4.43 1.83,-1.45 1.44,2.89 4.61,0.43 1.29,3.27 3.09,-4.38 5.65,-2.66 -1.16,-2.2 5.37,0.19 v 0 l 2.18,0.54 0.29,3.85 2.47,4.26 -1.3,2.9 3.57,1.57 1.57,3.44 -2.64,2.49 2.54,0.88 -0.36,8.39 3.32,0.96 1.31,-1.47 0.54,3.22 1.95,-0.24 -2.28,1.89 4.08,0.41 3.04,3.47 1.42,-0.18 -0.33,2.57 4.49,1.18 0.72,1.81 4.66,0.48 2.06,-1.1 1.59,4.75 7.32,-1.18 -1.52,4.42 2.47,0.16 2.63,-2.15 1.14,1.46 1.24,-0.9 0.74,1.25 2.35,-0.39 -1.13,1.69 0.61,4.15 -2.52,3.77 2.45,1.9 0.11,3.14 -2.73,1.89 -1.6,8.41 -2.34,0.86 1.47,1.37 -2.79,2.81 0.71,1.09 -2.43,0.25 1.11,1.4 -0.75,3.27 3.13,-1.46 6.84,3.95 0.55,-1.35 3.29,0.27 2.79,-2.46 4.3,0.67 -0.28,-0.9 2.89,0.34 3.22,-1.9 3.72,3.21 2.33,-0.77 1.37,3.96 4.29,-1.13 -0.9,1.98 3.72,-0.15 3.31,5.52 6.71,-2.61 0.2,2.07 2.66,1.93 0.16,2.51 -3.39,2.24 -1.94,-0.28 -1.11,2.05 0.36,2.3 0.89,0.49 -0.05,-2.48 1.4,1.73 -1.55,3.91 3.92,4.74 -0.49,2.23 5.75,2.64 -0.79,1.35 4.56,0.57 0.17,4.29 1.67,0.35 1.41,-3.61 3,2.61 -1.96,0.53 -0.26,1.24 8.28,0.66 -1.47,2.09 1.08,2.95 -1.64,0.19 -0.06,1.49 2.6,2.38 -2.67,-0.58 -1.08,2.61 1.94,4.68 -3.61,0.67 -1.27,-1.21 -2.54,3.22 -2.58,-3.15 0.2,3.02 -1.47,0.07 -1.11,2.87 -2.84,-1.35 -1.46,1.04 -0.19,-1.69 -2.66,0.48 1.89,2.41 -4.82,9.24 -2.65,2.72 -4.03,0.19 -1.91,4.88 -2.19,2.06 -4.36,0.08 -0.47,3.52 -3.75,-1.06 -1.04,2.41 -5.66,1.41 -5.64,-1.63 -0.13,-1.12 -1.98,1.8 -4.15,0.24 -1.5,-0.63 -0.31,-2.56 -5.8,-0.27 -2.41,-3.67 -0.68,-4.42 -3.17,-2.57 -1.09,0.53 -7.54,-4.38 -3.59,4.46 -13.08,-2.38 1.01,4.43 -3.95,4.33 0.14,1.77 2.43,2.02 -0.65,1.56 -2.05,0.2 v 0 h -1.5 l -1.02,-2.26 -5.68,-0.12 -0.02,-0.88 -2.07,0.76 -1.27,-3.48 -6.44,0.58 -1.09,-2.01 1.61,-1.54 -0.15,-2 -1.36,-0.38 -0.61,-2.01 -2.47,0.49 -0.11,-2.9 -1.93,-1.21 0.04,-3.09 -1.98,-0.61 -1.43,1.02 -1.16,-1.83 2.07,-1.98 0.54,-2.66 -10.24,0.25 -1.53,0.51 0.32,1.38 -1.33,1.17 -5.13,-0.72 -3.2,1.13 0.05,1.76 -3.05,0.36 -1.92,-1.84 1.05,-2.15 -6.99,-1.36 0.64,-1.42 -1.38,-0.74 1.45,-2.67 -1.23,-0.68 -1.94,4.6 -2.67,-0.27 -0.93,2.57 -1.8,-0.3 -0.87,2.36 -3.41,-1.06 -2.26,1.79 -0.21,2.01 -3.39,-0.53 -4.84,2.05 -0.09,-1.25 -2.04,2.66 -5.32,0.86 -5.89,-11.19 -9.22,-2.17 -1.03,3.33 -3.48,-0.51 1.13,-3.05 -1.43,-1.06 -0.96,0.49 0.67,0.89 -2.14,0.9 -0.81,-3.92 -7.07,5.36 0.06,5.09 1.44,1.73 -0.48,1.55 2.11,5.69 -3.55,1.28 2.09,1.05 -1.53,3.33 1.51,1.6 -4.07,2.13 -3.16,-0.26 -1.56,-1.88 -1.33,1.78 0.99,2.44 -1.9,1.29 1.64,3.33 2.2,-0.78 0.86,1.88 -3.07,3.87 2.51,3.58 4.03,1.75 -1.51,1.7 0.66,1.4 -4.09,1.31 -2.95,-2.15 -8.52,-0.48 -3.19,3.49 -3.52,1.58 -2.11,-1.06 0.12,-1.58 -1.31,-0.17 -0.63,1.5 -13.21,-5.13 -5.86,7.74 0.96,4.33 -11.49,1.63 0.41,3.02 -5.87,8.2 -1.64,-0.29 -1.62,1.97 -3.48,-1.13 -0.64,3.26 1.24,1.32 1.4,-0.38 0.1,2.05 -3.89,0.03 -2.29,3.61 -2.63,-1.35 -1.86,1.4 -3.49,-1.33 -4.27,2.03 -4.98,-0.02 -0.66,-1.1 -2.1,2.03 -1.02,-0.71 v 0 l -1.19,-2.42 -6.38,-2.91 0.08,-2.09 0.34,-1.86 3.76,-2.56 1.94,-4.68 -2.35,-5.29 3.47,-0.92 1.07,-2.64 -3.55,-7.56 1.03,-2.56 1.71,0.14 1.74,-1.95 3.86,1.7 1.51,-2.97 -2.23,-2.56 -0.89,-3.88 1.05,-2.17 -1.17,-3.84 1.17,-1.26 -1.98,-2.85 -1.15,0.55 1.26,-2.1 -1.47,-2.05 -5.96,1.63 -2.65,-2.22 0.46,1.82 -2.45,0.76 v -2.26 l -2.6,0.72 2.67,-3.61 -2.91,-1.98 -1.86,3.01 -1.47,-1.94 -1.38,0.14 -0.35,1.43 -1.44,-1.57 -2.58,1.1 -0.48,-2.43 -5.2,-2 0.41,-1.87 -1.69,-1.17 -0.71,-3.34 2.15,0.75 2.22,-1.43 4.1,2.21 7.17,0.64 2.48,-0.15 -0.01,-1.93 7.74,-0.85 -0.07,-5.03 -2.31,-2.76 -3.3,-1.29 -0.25,-1.37 0.71,-2.83 1.49,0.29 1.69,-1.95 0.03,-6.51 -5.09,-3.06 2.73,-1.5 2.24,1.33 4.94,-5.12 0.58,0.86 0.89,-0.7 v -1.91 l 1.92,2.85 0.77,-1.31 3.07,-0.26 0.14,-1.35 -1.27,0.33 -0.85,-1.25 0.57,1.8 -4.21,-1.07 2.73,-2.52 4.06,0.2 0.27,-2.75 2.59,0.11 -0.04,-4.28 6.64,4.09 4.95,0.2 -0.29,-2.16 3.04,-1.09 1.19,2.97 2.96,0.3 2.75,5.34 3.52,0.59 0.77,1.23 -1.22,-5.61 1.53,-0.35 -1.75,-1.54 3.51,-1.69 0.41,1.02 5.45,0.55 0.89,-1.59 -1.95,-4.29 0.59,-1.4 1.67,0.84 0.87,-1.34 -0.1,-5.34 1.78,0.18 0.14,1.63 1.79,-0.66 1.79,3.02 1.49,-0.37 4.31,-3.88 3.35,-0.97 1.52,-6.3 1.54,-0.01 1.88,2.88 1.79,-0.48 -0.3,-3.55 2.43,-0.94 -2.99,-0.96 0.63,-2.13 7.38,-0.2 0.3,-1.92 -2.74,-1.63 -2.3,0.45 -0.7,-2.51 -4.45,0.3 4.8,-4.35 -2.59,1.51 -1.38,-1.01 2.43,-2.02 -2.03,-0.83 1.93,-4.03 -1.85,-1.12 0.18,-3.43 -1.95,-1.58 1.39,-1.6 -0.41,-1.88 -2.42,-2.39 4.88,-3.85 2.63,0.04 -0.86,-1.24 1.67,-14.45 -1.05,-1.11 2.6,-4.34 -2.04,-2.42 h -2.38 z"
     class="land"
     title="Mahilyow"
     id="BY-MA"
      />
  <path
     d="m 229.6303,206.08724 2.22,-3.81 1.48,1.16 1.09,-0.67 0.14,-1.41 -1.45,-0.23 0.99,-1.6 10.62,4.94 1.45,-1.35 4.42,2.84 3.33,-3.12 -1.34,-2.19 2.64,0.53 1.29,-1.37 2.13,1.84 1.13,-0.42 1.99,2.61 1.65,-0.11 0.02,-1.51 1.46,-0.51 1.82,0.87 1.01,-1.22 1.24,1.14 0.58,-2.36 -2.05,-1.59 1.37,-2.25 1.54,0.15 0.82,2.25 1.95,-2.84 2.02,-0.42 4.47,4.46 0.51,2.76 3.53,-1.75 4.37,-0.03 0.35,-1.44 -1.9,-0.59 1.63,-0.76 1.63,0.68 2.92,-1.03 0.77,2.03 1.54,-2.22 0.89,1.22 1.37,-1.1 0.67,1.72 3.74,-0.74 1.09,2.03 -1.02,2.3 4.09,3.11 -0.84,4.53 1.99,0.55 1.67,3.42 3.79,2.33 1.53,-1.01 4.74,3.03 0.39,4.07 2.3,-1.09 2.05,0.79 -1.45,5.3 7.29,-0.31 4.87,3.1 0.04,8.57 3.06,2.71 -0.7,2.52 2.25,3.42 4.13,-1.58 0.98,0.69 2.69,-3.02 1.51,1.17 -0.81,1.96 2.5,1.45 3.21,-0.42 2,3.42 2.08,-0.81 0.46,-3.08 3.96,-2.21 1.65,1.15 3.23,-2.19 -0.79,-1.85 0.98,-1.39 -0.24,0.92 4.34,-2.08 5.29,3.81 0.76,4.15 0.21,-2.76 0.63,2.24 1.48,-0.8 0.58,2.53 1.84,0.67 3.51,5.05 1.49,-0.02 1.78,-3.09 1.96,-10.56 8.74,0.09 0.69,-1.41 1.7,1.44 1.79,-0.36 3.49,6.01 -0.94,2.98 0.82,2.19 2.54,0.62 3.23,-1.56 3.97,2.12 3.6,-0.41 1.8,-1.64 -1.19,-2.85 2.67,-1 8.28,4.02 1.27,-4.35 5.14,-2.93 4.28,1.45 3.94,-1.35 -0.64,1.32 1.7,0.83 -1.44,1.43 1.15,4.29 2.18,1.02 3.15,-0.11 2.05,-2.11 1.81,1.45 2.69,-3.27 -1.23,1.83 2.64,0.56 1.57,-4.09 2.83,-0.69 1.98,3.99 -2.32,1.89 0.26,3.04 -1.7,3.72 0.76,2.41 -3.63,4.72 1.39,0.57 1.31,3.47 -1.13,0.29 -0.18,2.82 1.81,2.39 -1.95,0.09 -1.45,2.09 -4.08,-0.08 0.24,1.69 1.58,0.28 -0.67,1.58 1.48,2.64 2.65,0.72 -2.43,1.55 -0.03,3.37 -1.24,1.49 -0.85,-1.44 0.22,2.04 -1.56,2.16 2.22,1.39 2.3,-1.2 v 0 l 0.44,1.74 h 2.38 l 2.04,2.42 -2.6,4.34 1.05,1.11 -1.67,14.45 0.86,1.24 -2.63,-0.04 -4.89,3.85 2.42,2.38 0.41,1.88 -1.4,1.6 1.96,1.58 -0.18,3.43 1.85,1.13 -1.93,4.03 2.03,0.84 -2.44,2.01 1.38,1.01 2.59,-1.51 -4.8,4.36 4.45,-0.3 0.7,2.51 2.3,-0.45 2.74,1.62 -0.29,1.92 -7.38,0.2 -0.63,2.13 2.99,0.96 -2.42,0.95 0.3,3.55 -1.79,0.47 -1.88,-2.88 -1.53,0.01 -1.53,6.3 -3.34,0.97 -4.31,3.88 -1.48,0.37 -1.79,-3.02 -1.79,0.66 -0.13,-1.63 -1.78,-0.19 0.1,5.35 -0.87,1.34 -1.67,-0.84 -0.59,1.4 1.95,4.28 -0.89,1.59 -5.46,-0.55 -0.41,-1.02 -3.51,1.69 1.74,1.54 -1.52,0.35 1.22,5.62 -0.77,-1.23 -3.52,-0.6 -2.75,-5.34 -2.96,-0.3 -1.19,-2.97 -3.03,1.09 0.29,2.16 -4.95,-0.2 -6.65,-4.1 0.04,4.28 -2.58,-0.11 -0.27,2.75 -4.06,-0.2 -2.72,2.52 4.21,1.07 -0.57,-1.8 0.85,1.25 1.26,-0.33 -0.14,1.35 -3.06,0.26 -0.77,1.31 -1.93,-2.85 0.01,1.91 -0.89,0.71 -0.58,-0.87 -4.93,5.13 -2.24,-1.34 -2.72,1.5 5.09,3.07 -0.03,6.5 -1.69,1.95 -1.49,-0.28 -0.71,2.83 0.25,1.37 3.29,1.28 2.31,2.76 0.07,5.03 -7.74,0.85 0.01,1.93 -2.48,0.15 -7.17,-0.64 -4.1,-2.2 -2.22,1.43 -2.15,-0.75 0.71,3.34 1.69,1.17 -0.41,1.87 5.2,2.01 0.48,2.42 2.58,-1.09 1.44,1.57 0.35,-1.44 1.38,-0.14 1.47,1.94 1.85,-3.01 2.92,1.98 -2.8,3.58 2.6,-0.72 v 2.26 l 2.45,-0.76 -0.46,-1.82 2.65,2.22 5.97,-1.63 1.47,2.05 -1.26,2.1 1.15,-0.55 1.98,2.85 -1.17,1.26 1.17,3.84 -1.05,2.17 0.89,3.88 2.23,2.56 -1.51,2.97 -3.86,-1.7 -1.74,1.94 -1.71,-0.13 -1.03,2.56 3.54,7.56 -1.07,2.64 -3.46,0.93 2.35,5.29 -1.94,4.68 -3.77,2.56 -0.34,1.86 -0.07,2.09 6.38,2.91 1.19,2.42 v 0 l -2.29,4.21 -0.11,12.44 -6.73,6.71 -10.47,1.67 -0.44,-2.26 -4.61,0.87 -0.89,-4.46 -9.49,1.23 -1.82,0.99 0.86,4.62 -1.7,0.98 -0.08,3.3 -4.12,1.22 -6.73,-1.84 -5.95,0.6 -0.38,-2.3 -7.79,-3.65 1.24,-5.58 -1.45,-0.06 0.1,-1.83 -1.3,0.65 -0.4,-1.05 -1.82,1.9 -1.9,-1.79 -1.71,2.06 -8.93,-0.44 -1.53,3.81 -2.42,1.22 1.85,4.57 -0.67,1.27 -6.3,6.04 v 0 l -3.42,-0.94 -0.12,-2.4 -4.64,0.09 -0.33,-4.12 -2.03,0.19 -0.75,-4.44 -4.87,-0.21 -0.18,-8.4 -1.2,-0.11 -0.27,-3.37 -2.21,-1.14 -0.1,-2.44 2.08,-0.02 -0.8,-6.78 3.04,-0.94 -0.85,-3.6 -1.97,-0.92 0.66,-3.19 -1.68,-4.39 -3.96,5.44 -5.38,-2.68 -1.4,-2.07 -5.06,0.69 -2.71,-3.53 -0.82,-6.48 -3.06,0.23 0.41,1.14 -2.03,-0.54 -1.74,-2.73 -2.84,0.23 -2.86,-3.48 -2.26,6.13 -2.27,1.2 -0.92,-3.46 -4.83,7.01 -0.11,-1.35 -4.07,-2.34 -0.25,-3.67 5.41,-5.43 -3.7,-4.68 -1.26,-5.55 2.16,-1.51 2.86,0.29 -0.4,-4.81 1.2,-1.75 4.12,0.61 -1.2,-4.3 -2.08,-0.15 -0.87,-3.85 -4.58,0.07 -2.22,-1.51 -1.45,-3.3 -1.64,0.31 -1,-2.97 -2.84,-1.04 -0.8,-2.78 2.81,-0.74 -0.46,-1.45 2.83,-1.67 0.13,-2.28 3.08,-0.11 1.09,-7.26 -1.41,-0.23 -1.57,-5.34 v 0 l 2.12,-0.26 2.01,-2.4 7.34,-0.21 4.9,-1.8 -1.76,-4.12 -0.29,-8.48 -1.08,0.33 -0.5,-1.47 -1.4,1.36 -1.35,-1.01 3.43,-2.66 0.1,-3.36 -4.44,-2.19 -3.16,-5.98 -3.03,-2.67 0.13,-1.49 -3.13,-1.14 0.8,-3.44 -4.39,-1.27 -3.57,-7.33 0.94,-0.93 -1.3,-1.92 1.51,-1.25 -1.22,-1.46 -1.45,0.89 -1.23,-1.22 0.14,-1.81 2.17,-0.27 -1.92,-4.46 2.77,-0.19 0.96,-1.46 1.03,1.27 2.25,-2.35 4.15,-1.47 -1.96,-3.56 3.77,-0.45 2.14,-2.73 -2.79,-6.45 -3.46,2.76 -3.31,0.76 1.59,-4.29 -0.55,-5.88 -8.73,4.23 -2.5,-0.93 -3.23,-9.56 1.82,-5.23 -5.65,1.57 2.01,1.84 -0.45,1.27 -6.32,-3.51 -0.39,-1.38 3.91,-6.8 1.31,2.64 2.24,-0.15 7.3,-6.52 1.29,1 1.3,-1.18 1.79,2.72 6.56,0.67 5.89,-10.02 4.77,-1.63 -0.28,-2.35 2.7,-6.18 1.17,0.01 -0.49,-2.29 1.17,-0.09 0.96,-2.25 2.6,0.11 3.56,-4.62 -1.92,-1.08 1.27,-0.61 1.19,-4.21 -0.75,-3.74 -1.31,0.2 0.41,-1.37 -1.2,-0.52 0.88,-2.67 -1.05,-1.18 3.67,1.5 -0.07,-4.14 2.36,0.05 0.31,-1.28 -2.45,-0.94 0.98,-6.1 -2.74,0.68 -1.68,-1.12 -1.37,1.27 -1.82,-2.04 -2.43,-6.89 0.41,-5.58 -3.31,-1.38 -4.28,-7.18 -1.54,-1.35 -6.36,1.66 -0.49,-4.91 2.41,-3.78 -6.31,-5.81 z m 96.55,123.83 2.46,1.34 1.56,-0.7 -0.35,1.3 1.41,0.88 6.58,-1.68 -0.76,3.65 -4.13,2.09 1.37,4.66 -1,2.69 3.24,2.37 0.48,-3.37 4.42,0.21 1.47,1.58 -2.21,1.69 -0.1,1.69 -2,0.42 -2.68,-1.9 -0.68,2.9 -2.42,1.16 -1.11,-2.47 1.21,-0.84 -0.63,-1.32 -3.68,1.42 -11.06,-0.37 -2.68,-1.79 -0.84,-2.58 -1.68,1.37 -1.95,-1.21 2.9,-1.79 v -4.95 l 3.58,-5.05 z m 33.65,9.77 1.61,2 -1.38,1.04 v 0 l -2.42,-3.32 z m -10.29,2.89 -0.77,-1.82 1.26,0.74 z m -23.17,9.38 -1.42,-2.88 v 0 l 1.47,-0.77 v 0 z"
     class="land"
     title="Minsk"
     id="BY-MI"
      />
  <path
     d="m 367.0903,45.667244 0.8,3.699999 2.97,0.7 3.39,3.32 0.05,3.46 2.6,-0.7 2.62,4.17 4.72,-0.09 0.7,-2.72 -1.05,-2.11 0.97,-1.72 2.8,1.61 -0.3,1.27 3.41,-2.35 4.53,0.07 1.55,-1.22 5.02,2.1 4.55,-0.41 -3.01,3.8 1.57,3.69 3.05,2.59 0.34,3.75 2.48,3.91 4.87,-0.58 3.02,2.3 1.02,-4.26 4.92,-1.54 1.38,0.73 -0.01,-2.22 4.53,-0.21 0.63,-1.84 5.41,-1.02 1.82,2.38 1.65,-1.58 1.69,0.21 4.54,5.1 2.82,-1.14 3.59,0.54 3.79,2.72 4.86,0.36 2.12,1.71 -1.97,1.89 2.52,0.71 1.47,2.32 -6.21,2.35 2.28,3.68 -1.52,0.01 -1.08,1.959998 0.18,4.51 -2.05,2.81 -0.45,4.77 6.99,4.409999 2.28,3.21 2.49,0.43 4.54,-4.06 0.62,-3.229999 2.4,-2.67 1.19,0.51 2.9,-2.07 5.48,-1.42 1.07,2.81 2.79,0.02 5.51,-7.83 -0.73,-1.28 2.02,-1.549998 3.93,1.359998 1.79,-0.77 0.02,-1.539998 1.81,-0.13 8.06,5.079998 2,-0.04 0.76,-2.39 1.83,-0.05 -0.08,-3.729998 0.98,2.17 7.32,-0.79 0.68,4.859998 3.75,-0.45 2.09,3.12 8.81,-0.31 2.31,2.66 -1.64,1.46 2.48,4.149999 3.93,0.13 3.56,2.86 1.52,3.65 -0.65,3.34 2.21,0.19 -1.08,1.86 1.27,0.09 -0.22,2.74 1.16,0.12 0.74,-2.77 2.5,-0.42 2.6,9.12 3.26,-0.02 -0.04,-1.25 1.42,-0.13 1.77,-2.51 -1.04,-1.25 2.08,-0.24 3.29,2.4 1.44,-1.31 1.76,10.49 -3.12,2.16 3.46,3.61 -4.66,2.8 2.8,10.17 -1,2.88 -1.62,0.35 -5.4,6.07 -0.39,6.11 4.61,1.16 0.02,1.76 1.67,0.7 1.2,6.29 2.77,1.21 0.8,2.85 1.2,0.22 -0.93,3.06 1.76,0.35 -1.06,6.62 1.18,7.86 -0.79,0.67 -3.74,-1.63 -2.16,2.25 4.18,5.13 -2.02,0.63 0.14,2.11 -2.58,0.05 0.01,1.47 -3.51,-0.25 -2.64,1.31 1.05,4.12 -1.52,1.99 0.61,1.45 -1.82,0.44 -3.46,8.96 6.67,2.7 3.13,3.41 5.12,2.83 1.7,3.01 1.52,-1.2 -0.4,6.57 7.41,1.35 1.72,-1.47 1.24,1 3.72,-0.35 1.84,5.21 -4.85,6.19 -0.67,4.32 -2.85,1.46 -0.65,3.05 5.59,4.15 2.87,-0.51 0.19,1.24 v 0 l -5.37,-0.19 1.16,2.2 -5.65,2.66 -3.09,4.38 -1.29,-3.27 -4.61,-0.43 -1.44,-2.89 -1.83,1.45 -0.83,4.43 -1.9,0.95 -3.12,-1.02 -2.81,0.87 -0.47,-2.28 -2.64,0.02 -2.54,-1.61 -2.01,0.65 0.48,3.98 -9.09,2.77 3.11,2.66 -2.37,1.65 -1.48,3.27 1.24,0.63 -3.24,2.62 2.71,0.95 -2.79,0.04 0.83,2.71 -2.65,-1.26 -0.36,-2.28 -1.96,1.43 -2.55,-7.51 -1.64,-1.11 -0.23,3.22 -3.15,-0.28 -2.31,3.69 -5.4,-1.41 1.32,-4.06 2.83,-2.47 0.59,-4.22 -1.96,-1.03 -1,5.17 -2.88,-0.24 -2.43,-1.88 -1.13,4.15 -1.66,0.11 0.1,-2.14 -1.85,-2.57 -3.01,1.03 1.54,-2.81 -2.88,0.54 -0.53,1.65 1.85,2.01 -1.85,3.08 -1.41,-1.92 -2.43,-0.15 3.02,2.79 -1.94,0.65 0.01,1.16 -3.4,-1.08 1.59,4.33 -0.89,0.47 -2.71,0.01 1.16,-3.63 -3.38,1.98 -3.33,-1.67 0.82,-1.12 -1.98,-2.02 1.26,-1.78 -0.83,-0.68 -1.88,2.83 -2.14,-1.43 -1.9,1.74 -9.08,1.25 -5.23,-3.4 0.03,-1.46 -3.62,1.36 -0.91,1.72 0.85,2.77 -3.22,-0.26 -3.21,6.76 -1.12,-0.57 -2.11,2.39 -1.22,-1.11 -2.09,0.51 v 0 l -2.3,1.2 -2.22,-1.39 1.56,-2.16 -0.22,-2.04 0.85,1.44 1.24,-1.49 0.03,-3.37 2.43,-1.56 -2.66,-0.71 -1.48,-2.65 0.67,-1.58 -1.58,-0.27 -0.24,-1.7 4.08,0.08 1.46,-2.09 1.95,-0.09 -1.81,-2.39 0.18,-2.82 1.13,-0.29 -1.31,-3.48 -1.39,-0.57 3.62,-4.71 -0.76,-2.41 1.7,-3.73 -0.26,-3.03 2.32,-1.9 -1.98,-3.99 -2.83,0.69 -1.56,4.09 -2.64,-0.56 1.22,-1.83 -2.69,3.27 -1.81,-1.45 -2.05,2.11 -3.14,0.11 -2.18,-1.01 -1.15,-4.29 1.44,-1.42 -1.7,-0.83 0.64,-1.32 -3.94,1.35 -4.28,-1.46 -5.14,2.93 -1.27,4.35 -8.27,-4.02 -2.67,1.01 1.19,2.85 -1.8,1.64 -3.6,0.4 -3.97,-2.12 -3.23,1.56 -2.54,-0.62 -0.82,-2.19 0.95,-2.97 -3.49,-6.01 -1.79,0.35 -1.7,-1.44 -0.69,1.42 -8.73,-0.09 -1.96,10.56 -1.78,3.09 -1.5,0.02 -3.5,-5.04 -1.84,-0.67 -0.58,-2.54 -1.47,0.81 -0.63,-2.24 -0.22,2.76 -0.76,-4.15 -5.28,-3.81 -4.34,2.08 0.23,-0.92 -0.97,1.39 0.79,1.84 -3.24,2.19 -1.64,-1.14 -3.96,2.21 -0.46,3.08 -2.07,0.81 -2.01,-3.42 -3.21,0.42 -2.49,-1.45 0.81,-1.96 -1.51,-1.17 -2.69,3.02 -0.98,-0.69 -4.12,1.58 -2.26,-3.43 0.71,-2.52 -3.06,-2.71 -0.05,-8.57 -4.86,-3.1 -7.29,0.3 1.45,-5.3 -2.04,-0.79 -2.3,1.08 -0.4,-4.06 -4.74,-3.04 -1.52,1.02 -3.79,-2.33 -1.67,-3.42 -1.99,-0.55 0.84,-4.53 -4.09,-3.1 1.02,-2.3 -1.1,-2.03 -3.74,0.74 -0.66,-1.72 -1.37,1.11 -0.89,-1.22 -1.53,2.22 -0.77,-2.03 -2.92,1.03 -1.64,-0.68 -1.63,0.75 1.91,0.59 -0.35,1.44 -4.37,0.03 -3.53,1.74 -0.51,-2.76 -4.47,-4.45 -2.02,0.42 -1.95,2.84 -0.82,-2.25 -1.54,-0.15 -1.38,2.25 2.06,1.59 -0.58,2.36 -1.24,-1.14 -1.01,1.22 -1.83,-0.88 -1.46,0.52 -0.02,1.51 -1.65,0.12 -1.99,-2.61 -1.13,0.43 -2.13,-1.84 -1.3,1.37 -2.64,-0.52 1.34,2.19 -3.32,3.12 -4.42,-2.84 -1.45,1.35 -10.62,-4.94 -0.98,1.61 1.45,0.23 -0.14,1.41 -1.09,0.67 -1.48,-1.16 -2.22,3.81 v 0 l -1.84,-1.09 -0.96,-4.62 -3.11,-1.57 v 0 l 2.85,-9.01 2.01,-1.27 -2.9,-4.08 9.37,-5.39 3.08,2.13 1.13,-0.94 3.53,1.45 3.97,-3.94 1.93,2.13 9.84,-1.8 0.31,-1.48 1.84,-0.46 -2.01,-3.35 2.07,-0.24 1.85,-1.98 0.1,-3.7 7.49,-4.63 -0.23,-3.42 -2.9,-1.83 -5.21,-0.14 -4.01,-2.24 -2.42,2.29 -0.29,-1.68 -1.61,2.02 -1.7,-0.91 -1.54,0.89 -8.85,-3.74 2.01,-1.01 0.4,-1.76 5.76,-2.46 -0.93,-6.86 1.22,0.15 -1.05,-1.5 1.72,-2.52 -2.92,-4.78 6.29,-7.35 2.38,-1.11 -0.73,-4.74 1.29,-2.18 -1.56,-6.88 1.23,-3.11 5.24,0.44 1.96,2.49 2.9,0.6 1.27,-2.59 5.24,-2.19 3.86,-9.889999 1.77,0.19 4.92,-5.36 6.08,0.28 0.63,-2.26 3.58,-1.1 9.44,8.68 4.89,-1.82 1.31,-1.96 4.88,2.64 13.61,0.86 1.77,-7.9 -1.13,-5.779998 2.12,-2.76 v -2.05 l 6.21,-5.71 4.54,-1.32 1.1,-2.28 -0.99,-1.25 2.31,-1.9 -1.66,-1.7 4.69,-2.23 2.13,0.87 5.38,-9.77 1.47,-0.74 3.46,1.06 1.96,-2.73 1.72,0.43 0.25,-1.83 z"
     class="land"
     title="Vitsyebsk"
     id="BY-VI"
      />
  <g
     id="stadiums"
     data-country="belarus"
     data-circle-radius="6"
     data-circle-colors="#a149be,#bea149" />
</svg>
