<?xml version="1.0" encoding="UTF-8" standalone="no"?>
<?xml-stylesheet type="text/css" href="/styles/home.css"?>
<!-- https://www.amcharts.com/svg-maps -->

<svg version="1.1" xmlns="http://www.w3.org/2000/svg" id="map-belgium"
   viewBox="0 0 752.27374 752.27374" width="752.27374" height="752.27374" class="">

  <defs
     id="defs4">
    <style
       type="text/css"
       id="style2">
			.land
			{
				fill: #83c442;
				fill-opacity: 1;
				stroke:white;
				stroke-opacity: 1;
				stroke-width:0.5;
			}
         .rectangle:hover {
         fill: #bdbdbd;
         cursor: pointer;
         }
		</style>
    <!-- <amcharts:ammap projection="mercator" leftLongitude="2.543698" topLatitude="51.499939" rightLongitude="6.408540" bottomLatitude="49.497691"></amcharts:ammap> -->
    <!-- All areas are listed in the line below. You can use this list in your script. -->
    <!--{id:"BE-VAN"},{id:"BE-BWR"},{id:"BE-BRU"},{id:"BE-WHT"},{id:"BE-WLG"},{id:"BE-VLI"},{id:"BEW-LX"},{id:"BE-WNA"},{id:"BE-VOV"},{id:"BE-VBR"},{id:"BE-VWV"}-->
  </defs>
  <rect id="background" class="rectangle" stroke-width="0" stroke="#000" width="752.27374" height="752.27374" y="0" x="0" fill="#d3d3d3" />
  <path
     d="m 436.05968,71.596448 11.07,5.98 1.3,18.09 -14.38,2.36 22.27,-0.87 6.24,7.370002 21.16,-28.480002 9.67,4.64 5.1,12.2 -6.34,11.980002 12.24,24.36 20.56,3.44 -0.62,13.46 v 0 l -4.49,12.64 9.3,21.54 -48.55,23.15 -6.09,12.47 v 0 l -31.92,7.25 -5.06,-8.57 -18.38,12.34 -2.57,-8.05 -19.61,10.45 -36.53,-1.36 -2.88,-10.76 -27.31,-2.13 v 0 l -9.63,-1.02 -3.05,-18.77 27.04,-7.7 3.35,-9.06 -8.19,-30.53 6.24,-9.27 -16.4,-21.42 v 0 l -4.08,-6.56 41.88,3.11 -10.37,-25.590002 18.44,-9.75 12.66,-1.28 -0.49,18.24 20.25,0.12 z"
     class="land"
     title="Antwerp"
     id="BE-VAN"
      />
  <path
     d="m 302.96968,316.86645 10.68,-7.3 17.99,12.66 17.12,-13.94 7.43,5.42 23.46,-12.01 6.19,8.52 13.71,-11.1 7.57,6.53 1.63,-17.33 22.9,-2.3 32.09,19.48 11.05,-8.25 7.3,6.07 v 0 l -7.12,33.2 v 0 l -37.51,16.08 -24.7,-4.95 0.97,12.28 -13.26,-0.88 -4.44,8.43 v 0 l -21.63,4.02 0.6,-9.31 -11.24,-1.98 -15.54,6.47 -29.36,-36.13 -14.68,9 z"
     class="land"
     title="Walloon Brabant"
     id="BE-WBR"
      />
  <path
     d="m 366.51968,257.89645 0.78,0.58 v 0 l 11.51,32.02 -20.5,8.4 -27.04,-16.51 10.29,-19.82 15.68,-4.64 v 0 0 0 l 8.66,-1.42 v 0 z"
     class="land"
     title="Brussels Capital Region"
     id="BE-BRU"
      />
  <path
     d="m 178.37968,298.13645 33.19,14.35 9.22,-15.76 15.85,-2.7 3.21,10.27 23.56,4.72 v 0 l 3.11,12.74 36.45,-4.9 v 0 l 1.21,22.68 14.69,-8.99 29.35,36.13 15.54,-6.47 11.24,1.99 -0.6,9.31 21.63,-4.03 v 0 l -1.36,30.58 8.91,5.12 -4.55,29.48 -37.02,4.68 -22.45,16.94 21.96,7.04 -7.37,19.33 13.67,68.37 v 0 l -56.49,-11.19 3.52,-20.77 13.64,-6.38 -5.88,-19.26 -13.97,-0.21 15.56,-42.01 -8.99,-5.19 -4.8,9.47 -22,-30.68 -23.85,9.73 -30.07,-7.36 -7.7,14.01 -9.69,-19.6 0.31,-26.39 -10.13,-12.01 -21.01,2.68 3.54,-11.07 -8.58,-2.93 -19.2,12.81 -16.44,-10.13 -10.15,-40.79 4.16,-13.35 -16.17,-16.73 v 0 l 25,0.18 10.5,14.04 z m -116.149995,18.54 -4.07,-13.33 23.17,-7.24 -4.61,-6.08 12.39,-5.19 3.62,11.51 v 0 l -15.46,8.86 -5.82,15.75 z"
     class="land"
     title="Hainaut"
     id="BE-WHT"
      />
  <path
     d="m 612.93968,284.44645 -2.02,16.45 v 0 l 38.94,14.96 1.89,-14.2 v 0 l 24.96,0.1 3.81,11.22 15.02,-1.08 11.75,29.39 17.82,-0.03 -17.61,25.73 9.26,14.28 24.2,2.01 4.98,16.09 -6.85,17.14 12.84,13.62 -8.99,9.48 -10.5,-4.53 -5.29,15.67 -20.13,9.62 2.82,15.91 -8.7,2.21 -1.26,13.84 -5.06,-11.02 -10.21,3.96 -7.08,-9.14 v 0 l -8.82,-44.57 -22.7,-5.2 -3.38,20.17 6.98,0.46 -14.3,7.61 -16.28,-2.15 -0.41,-29.13 -36.02,-10.5 -4.79,-9.89 -8.54,5.36 -9.24,-6.76 -5.23,15.43 v 0 l -18.67,4.32 -12.16,-11.71 -7.26,-23.12 -6.81,3.17 -4.26,-13.42 -20.6,-6.25 -10.07,-33.43 v 0 l 7.12,-33.2 v 0 l 15.68,12.63 v 0 l 12.62,4.07 1.79,-8.73 25.27,2.36 16.05,-9.62 5.99,8.88 11.44,-1.47 40.92,-27.02 v 0 z"
     class="land"
     title="Liege"
     id="BE-WLG"
      />
  <path
     d="m 630.60968,297.67645 21.14,3.99 v 0 l -1.89,14.19 -38.94,-14.96 v 0 z m -48.4,-156.94 5.1,17.2 56.92,24.11 -26.01,56.17 7.12,3.79 -21.88,24.15 8.4,18.25 v 0 l -40.93,27.02 -11.44,1.47 -5.99,-8.89 -16.05,9.62 -25.27,-2.34 -1.79,8.73 -12.63,-4.07 v 0 l 16.55,-59.62 -18.38,-1.66 -9.43,-10.31 14.34,-24.04 8.05,-1.11 -7.84,-7.9 -11.65,10.83 -14.9,-6.2 v 0 l 6.09,-12.47 48.55,-23.15 -9.3,-21.54 4.49,-12.64 v 0 l 34.94,-0.56 13.34,-11.82 z"
     class="land"
     title="Limburg"
     id="BE-VLI"
      />
  <path
     d="m 554.79968,416.95645 5.23,-15.43 9.24,6.76 8.54,-5.36 4.79,9.89 36.02,10.5 0.41,29.13 16.28,2.15 14.3,-7.61 -6.98,-0.46 3.38,-20.17 22.7,5.2 8.82,44.57 v 0 l -24.79,21.55 -15.17,30.04 3.39,9.59 -11.89,6.07 -7.86,18.59 9.48,6.14 -8.49,12.88 2.69,13.59 6.59,-1.29 7.34,21.86 11.45,4.05 -4,9.74 8.83,3.81 -13.5,33.13 -37.18,0.42 -7.47,13.18 -10.66,-6.78 -16.32,9.59 -8.4,-29.33 -15.66,-10.45 -6.81,5.9 3.41,-12.82 -10.8,-11.54 -21.36,-0.24 -14.04,-20.85 -24.42,-11.66 v 0 l 4.03,-15.48 25.46,-20.9 -28.53,-31.91 13.42,-7.4 4.65,-20.95 2,9.01 37.62,-6.14 -5.21,-6.14 7.51,-7.78 -14.32,-17.18 36.34,-21.84 -1.07,-8.42 -8.95,0.4 10.06,-6.47 z"
     class="land"
     title="Luxembourg"
     id="BE-WLX"
      />
  <path
     d="m 396.02968,367.47645 4.44,-8.43 13.26,0.88 -0.97,-12.28 24.7,4.95 37.51,-16.08 v 0 l 10.07,33.43 20.6,6.25 4.26,13.42 6.81,-3.17 7.26,23.12 12.16,11.71 18.67,-4.32 v 0 l 0.1,13.14 -10.06,6.47 8.95,-0.4 1.07,8.42 -36.34,21.84 14.32,17.18 -7.51,7.78 5.21,6.14 -37.62,6.14 -2,-9.01 -4.65,20.95 -13.42,7.4 28.53,31.91 -25.46,20.9 -4.03,15.48 v 0 l -22.83,2.53 -0.86,-22.14 8,-12.88 -19.2,-17.85 10.03,-20.91 -4.1,-8.13 14.82,-21.68 -13.52,-9.6 -25.89,25.21 -0.17,26.94 -50.35,16.22 v 0 l -13.67,-68.37 7.37,-19.33 -21.96,-7.04 22.45,-16.94 37.02,-4.68 4.55,-29.48 -8.91,-5.11 z"
     class="land"
     title="Namur"
     id="BE-WNA"
      />
  <path
     d="m 329.59968,117.33645 16.4,21.42 -6.25,9.27 8.19,30.53 -3.34,9.06 -27.04,7.7 3.05,18.77 9.63,1.02 v 0 l -1.42,10.98 -17.12,10.26 3.58,11.09 -13.2,-0.13 -10.43,28.97 4.08,15.02 -21.98,4.26 0.55,13.46 h -10.9 v 0 l -23.55,-4.72 -3.21,-10.27 -15.86,2.7 -9.22,15.76 -33.18,-14.35 v 0 l 12.06,-11.76 -13.4,-19.07 5.05,-9.2 -12.14,-2.21 8.68,-11.85 -9.06,-4.28 6.3,-27.87 -22.35,-15.93 15.42,-19.02 -9.86,-9.68 4.14,-25.63 v 0 l 9.15,9.27 19.2,-0.37 -2.26,-12.77 14.73,-5.87 36.27,13.25 2.65,15.03 18.71,-2.67 -0.09,7.03 33.86,-13.53 z"
     class="land"
     title="East Flanders"
     id="BE-VOV"
      />
  <path
     d="m 474.49968,215.93645 14.9,6.2 11.65,-10.83 7.84,7.9 -8.05,1.11 -14.34,24.04 9.43,10.31 18.38,1.66 -16.55,59.62 v 0 l -15.68,-12.63 v 0 l -7.29,-6.07 -11.05,8.25 -32.1,-19.48 -22.9,2.3 -1.63,17.33 -7.57,-6.53 -13.71,11.1 -6.19,-8.52 -23.46,12.02 -7.43,-5.42 -17.12,13.94 -17.99,-12.65 -10.68,7.29 v 0 l -36.45,4.9 -3.11,-12.74 v 0 h 10.89 l -0.54,-13.46 21.98,-4.26 -4.08,-15.01 10.43,-28.97 13.21,0.12 -3.58,-11.09 17.12,-10.26 1.42,-10.98 v 0 l 27.31,2.13 2.88,10.76 36.53,1.36 19.61,-10.45 2.57,8.05 18.38,-12.34 5.06,8.57 z m -108.6,40.57 v 0 l -20.99,2.95 -13.52,23.29 26.92,16.15 20.5,-8.41 -11.52,-32.01 z"
     class="land"
     title="Flemish Brabant"
     id="BE-VBR"
      />
  <path
     d="m 160.70968,112.67645 2.51,28.96 v 0 l -4.14,25.63 9.86,9.68 -15.42,19.02 22.35,15.93 -6.3,27.87 9.06,4.28 -8.68,11.85 12.14,2.21 -5.05,9.2 13.4,19.07 -12.06,11.76 v 0 l -19.44,17.75 -10.5,-14.04 -25,-0.19 v 0 l -5.29,-10.39 -25.419995,5.09 v 0 l -3.62,-11.51 -12.39,5.19 4.61,6.07 -23.17,7.24 4.07,13.33 v 0 l -14.18,-5.94 -12.9,-25.71 -17.04,-0.64 -6.95,-11.43 -1.8,-21.55 8.09,-8.53 -17.14000005,-43.73 124.25999505,-75.04 0.51,-10.16 2.35,10.63 0.06,-10.88 5.8,7.21 z"
     class="land"
     title="West Flanders"
     id="BE-VWV"
      />
  <g
     id="stadiums"
     data-country="belgium"
     data-circle-radius="6"
     data-circle-colors="#a149be,#bea149" />
</svg>
