<?xml version="1.0" encoding="UTF-8" standalone="no"?>
<?xml-stylesheet type="text/css" href="/styles/home.css"?>
<!-- https://www.amcharts.com/svg-maps -->

<svg version="1.1" xmlns="http://www.w3.org/2000/svg" id="map-bosnia_and_herzegovina"
   viewBox="0 0 612.57397 588.5271">
  <defs
     id="defs4">
    <style
       type="text/css"
       id="style2">
			.land
			{
				fill: #faa44d;
				fill-opacity: 1;
				stroke:white;
				stroke-opacity: 1;
				stroke-width:0.5;
			}
		</style>
    <!-- <amcharts:ammap projection="mercator" leftLongitude="15.714400" topLatitude="45.275910" rightLongitude="19.625600" bottomLatitude="42.560878"></amcharts:ammap> -->
    <!-- All areas are listed in the line below. You can use this list in your script. -->
    <!--{id:"BA-BIH "},{id:"BA-SRP"},{id:"BA-BRC"}-->
  </defs>
  <path
     d="m 456.69973,43.181811 -3.55,4.02 7.86,1.52 -0.25,-5.85 3.19,-2.19 1.8,3.47 -2.91,3.2 10.58,9.95 -1.27,4.85 10.3,0.22 -1.31,6.12 -3.25,0.41 v 0 l -8.86,3.28 v 0 l -4.27,-1.64 v 0 l -21.66,-12.8 v 0 l -8.69,-10.31 5.59,0.46 1.38,3.55 2.69,-6.38 -2.5,-4.22 6.18,5.79 -0.31,-6.14 5.93,2.92 3.16,-3.18 z m -54.24,-7.18 3.44,-0.38 2.85,3.12 14.8,-1.77 7.79,9.64 v 0 l -8.28,4.25 0.33,4.27 -5.25,-2.3 -1.31,3.28 -4.92,-1.31 v 0 l -2.95,5.25 -4.59,0.98 1.31,-5.58 -12.14,-7.22 v 0 l -4.3,-4.48 v 0 l 3.45,-3.98 -1.88,-3.93 2.41,-3.6 6.2,-1.66 z m -368.99,-25.2 1.33,5.38 5.76,-4.34 7.1,3.5 1.13,3.78 -2.1,3.5 4.85,0.38 6.48,16.36 10.31,4.88 11.24,10.82 1.27,4.24 5.65,-0.28 v 0 l 1.05,3.49 -16.08,3.61 10.83,25.6 5.58,-1.31 5.91,9.52 4.27,0.979999 7.88,-11.489999 13.46,5.25 9.19,-1.97 3.94,2.3 3.94,-1.97 4.59,8.209999 12.14,-0.98 5.58,3.28 7.55,17.72 -1.97,8.2 8.53,3.94 v 9.19 l 5.25,6.56 -2.3,6.89 3.28,3.61 -1.31,3.94 -7.22,4.27 -48.57,-3.94 -12.14,3.28 -0.33,6.24 3.45,8.06 13.88,10.48 6.24,9.52 9.19,6.24 10.17,2.63 12.14,12.14 8.86,5.25 4.59,-0.33 2.63,2.63 -1.97,2.3 6.24,8.2 17.07,13.13 5.25,9.52 10.17,4.92 16.41,-1.31 9.06,-9.85 -0.66,-20.68 -5.25,-5.25 -5.25,-19.36 -5.25,-4.92 v -4.92 l 6.56,-5.25 -1.64,-12.14 1.97,-2.3 9.52,3.61 6.24,-1.97 1.31,-3.28 12.47,6.56 4.59,4.92 0.66,5.25 9.19,2.63 1.97,4.27 19.69,0.98 7.22,-6.24 3.61,0.33 11.16,-7.55 1.31,-3.94 14.11,-2.63 12.47,-8.86 1.64,-9.19 -1.97,-8.53 -10.5,-20.68 9.84,-14.11 1.97,2.3 10.83,-1.31 8.2,3.61 -0.33,8.2 2.95,5.58 -1.64,1.31 3.61,2.95 -0.33,10.17 8.86,-4.92 12.47,-0.66 8.53,3.94 16.74,-2.63 4.59,-5.25 -5.58,-4.92 -5.25,0.33 -4.92,-4.59 -1.31,-4.92 -11.81,-5.25 -5.58,0.33 -4.92,-4.27 -2.63,1.64 -1.64,-9.85 14.77,-5.58 10.5,0.66 7.22,-8.86 -1.64,-2.949999 1.64,-6.56 8.21,-10.83 -1.31,-2.63 11.82,1.31 7.22,11.16 1.31,6.89 7.32,0.5 v 0 l -0.43,0.16 v 0 l -4.59,3.279999 -4.92,-0.33 -0.33,3.28 4.27,2.3 -1.97,2.63 3.61,2.3 -0.33,3.28 4.92,5.91 9.19,-0.98 2.63,2.95 5.58,-0.33 5.58,-5.91 8.86,-1.64 0.98,3.61 3.61,-2.95 v 0 l 0.31,-0.37 v 0 l 1.99,9.23 -9.19,3.94 -4.92,10.17 2.63,7.55 7.88,4.92 0.33,5.91 6.89,1.31 5.25,4.27 7.55,-2.63 2.63,-10.17 4.92,-6.24 8.2,0.66 2.3,1.64 -2.3,5.25 1.13,6.07 -3.98,6.29 2.15,1.82 -1.66,5.96 -2.98,-0.66 v 5.8 l -4.31,0.83 -5.3,12.59 -4.97,-1.66 -3.98,1.66 -1.16,5.3 -17.72,14.74 1.99,15.57 2.98,7.78 4.31,3.64 -1.99,2.48 1.33,6.54 -5.96,4.47 0.33,1.99 -9.11,2.32 -2.98,4.64 -14.08,9.11 -1.16,5.13 -9.94,12.09 -8.45,18.55 1.16,4.97 -5.47,8.45 -8.61,-4.14 -3.31,1.66 -7.29,9.61 0.5,3.64 5.13,2.15 0.83,5.3 6.29,6.13 23.52,-0.33 2.65,5.13 8.12,4.71 4.11,-2.39 5.47,1.66 9.61,-17.06 5.8,-3.31 12.09,1.32 5.63,-2.48 2.98,1.66 0.33,6.79 3.97,1.66 4.47,9.28 2.32,-0.83 3.64,4.97 -15.9,11.76 -2.15,4.8 -17.23,5.8 -21.04,-11.26 -5.63,-0.83 -6.46,2.98 -8.38,-8.85 -2.51,1.4 -9.77,-6.96 -8.12,10.1 -1.19,8.7 -6.96,7.95 2.32,2.82 -1.99,12.26 -2.98,-1.49 -5.63,3.15 -6.96,-2.82 -6.29,2.18 -5.14,-3.92 -2.32,3.31 -21.04,-2.15 -6.63,6.13 1.66,6.63 -5.13,7.95 1.33,5.96 7.79,4.31 -0.99,13.75 -3.97,9.11 -8.78,5.96 -3.98,5.96 6.29,8.45 -0.17,6.13 5.96,-0.33 4.47,8.45 -10.27,9.61 -2.48,11.1 8.28,15.24 1.49,10.6 4.31,0.66 7.95,8.37 7.79,8.45 1.16,5.3 8.94,2.98 7.45,13.25 11.09,10.43 v 0 l -7.78,3.85 -11.02,-13.16 -4.24,0.53 -1.86,-4.94 -6.46,-1.78 0.17,-5.16 -10.06,-7.54 -5.21,-1.15 -1.94,-4.67 -7.07,-4.44 -9.14,-2.46 0.83,-5.02 -3.65,-1.17 -3.3,-12.51 -5.51,-4.6 -4.44,6.07 -9.15,-6.45 -5.35,-0.92 -6.53,8.05 -15.51,-9.77 11.19,4.13 -7.1,-5.49 20.91,-7.37 -11.3,-24.42 -32.44,-19.76 0.5,-4.83 -7.59,-9.48 -8.11,-1.52 -1.27,-6.77 -12.05,-22.62 4.13,-8.52 -0.67,-9.06 -7.96,-7.26 -12.69,0.49 -11.67,-11.23 -4.74,0.32 -38.15,-46.37 -9.44,-4.21 -4.08,-6.7 -1.33,-8.97 -25.26,-21.02 -6.38,-15.13 -9.75,-1.13 -1.92,-11.05 -9.03,0.2 -6.96,-12.36 -8.68,-7.41 -5.63,-9.14 -3.69,-31.26 -13.21,-4.63 -0.77,-3.82 7.51,-1.11 -4.91,-10.92 1.94,-6.12 -2.61,-7.3 -15.21,-8.2 -3.39,-6.93 4.82,-1.18 -0.41,-4.03 2.94,-0.35 -3.72,-9.14 -8.83,-4.41 -3.02,-8.56 -5.4,-2.28 -3.87,-5.42 -12.63,5.53 -16.02999955,-21.19 10.94999955,-6.359999 -5.2699996,-5.04 -1.78,-11.03 1.89,-10.24 5.4799996,-1.28 -0.28,-7.06 -6.0599996,-12.95 5.6999996,-11.09 -3.2799996,-11.74 12.4299996,-13.08 8.22,1.57 -0.06,-2.44 z"
     class="land"
     title="Federacija Bosna i Hercegovina"
     id="BA-BIH " />
  <path
     d="m 548.04973,83.931811 6.46,-3.59 3.97,2.07 3.9,-1.08 9.47,4.18 3.32,5.55 -2.61,3.33 -2.74,-0.7 1.61,3.1 -2.75,3.669999 -3.96,-0.11 -0.3,5.74 -3.25,1.98 5.16,2.33 -4.26,1.8 3.87,5.89 -1.27,2.04 -2.75,-0.92 1.64,8.27 -5.4,2.68 -3.9,11.91 -4.9,4.56 0.42,3.53 -5.02,2.45 -1.66,3.68 2.32,3.28 -3.71,5.89 -6.93,0.46 -1.56,4.57 4.46,10.21 0.03,8.13 -5.98,4.89 -0.99,5.35 2.19,1.2 -0.34,5.04 3.07,1.11 -0.55,4.71 5.04,6.52 7.37,-0.85 4.4,6.32 6.59,-3.14 6.96,1.11 5.66,19.15 7.45,3.02 1.74,5.39 3.99,2.41 4.85,-3.54 -0.78,6.37 3.33,0.87 2.64,6.86 6.96,2.8 2.99,4.99 2.41,-4.93 2.61,4.25 2.99,0.24 -0.45,7.48 -8.81,3.66 0.31,3.1 -6.74,6.31 -21.16,-0.91 -5.67,-4.75 -18.59,-6.94 3.69,11.86 10.53,9.9 0.61,5.28 9.64,10.32 1.8,10.87 8.28,4.34 1.3,4.51 6.92,5.85 3.04,18.52 -2.13,2.05 -1.94,-2.31 -1.77,1.49 1.83,3.47 -1.28,4.01 2.39,2 -14.43,4.39 -6.68,-8.29 -5.79,2.69 -9.51,-2 -3.18,1.85 -1.06,13.56 -12.39,-2.65 -6.29,4.71 -11.61,-8.84 -6.32,1.33 -1.52,-1.85 -3.9,5.98 -5.52,1.87 0.5,4.8 4.12,-2.47 0.83,12.44 3.38,3.54 2.04,-0.86 4.19,14.79 8.36,12.57 -0.27,7.84 -7.07,1.46 -5.43,6.77 -4.21,-4.05 -0.08,-3.64 -4.58,-2.18 0.61,-8.46 -7.7,-6.56 -10.84,2.55 2.44,6.11 -9.76,2.76 -15.65,10.75 3.91,6.89 -9.51,13.22 -1.66,7.91 8.18,22.78 -7.73,2.45 -15.41,-2.47 -10.34,17.75 4.05,10.2 -4.66,9.02 1.61,9.59 -3.82,1.87 1.08,7.26 6.67,7.39 6.48,-0.55 2.03,2.61 -1.67,4.14 1.57,9.71 -11.55,4.11 6.9,7.84 -6.09,0.87 -3.44,4.79 -6.53,0.89 -11.83,-12.79 -9.48,1.15 v 0 l -11.09,-10.43 -7.45,-13.25 -8.94,-2.98 -1.16,-5.3 -7.79,-8.45 -7.95,-8.37 -4.31,-0.66 -1.49,-10.6 -8.28,-15.24 2.48,-11.1 10.27,-9.61 -4.47,-8.45 -5.96,0.33 0.17,-6.13 -6.29,-8.45 3.98,-5.96 8.78,-5.96 3.97,-9.11 0.99,-13.75 -7.79,-4.31 -1.33,-5.96 5.13,-7.95 -1.66,-6.63 6.63,-6.13 21.04,2.15 2.32,-3.31 5.14,3.92 6.29,-2.18 6.96,2.82 5.63,-3.15 2.98,1.49 1.99,-12.26 -2.32,-2.82 6.96,-7.95 1.19,-8.7 8.12,-10.1 9.77,6.96 2.51,-1.4 8.38,8.85 6.46,-2.98 5.63,0.83 21.04,11.26 17.23,-5.8 2.15,-4.8 15.9,-11.76 -3.64,-4.97 -2.32,0.83 -4.47,-9.28 -3.97,-1.66 -0.33,-6.79 -2.98,-1.66 -5.63,2.48 -12.09,-1.32 -5.8,3.31 -9.61,17.06 -5.47,-1.66 -4.11,2.39 -8.12,-4.71 -2.65,-5.13 -23.52,0.33 -6.29,-6.13 -0.83,-5.3 -5.13,-2.15 -0.5,-3.64 7.29,-9.61 3.31,-1.66 8.61,4.14 5.47,-8.45 -1.16,-4.97 8.45,-18.55 9.94,-12.09 1.16,-5.13 14.08,-9.11 2.98,-4.64 9.11,-2.32 -0.33,-1.99 5.96,-4.47 -1.33,-6.54 1.99,-2.48 -4.31,-3.64 -2.98,-7.78 -1.99,-15.57 17.72,-14.74 1.16,-5.3 3.98,-1.66 4.97,1.66 5.3,-12.59 4.31,-0.83 v -5.8 l 2.98,0.66 1.66,-5.96 -2.15,-1.82 3.98,-6.29 -1.13,-6.07 2.3,-5.25 -2.3,-1.64 -8.2,-0.66 -4.92,6.24 -2.63,10.17 -7.55,2.63 -5.25,-4.27 -6.89,-1.31 -0.33,-5.91 -7.88,-4.92 -2.63,-7.55 4.92,-10.17 9.19,-3.94 -1.99,-9.23 v 0 l 1.33,-1.6 v 0 -3.28 l 2.95,-0.66 10.5,2.3 3.61,-2.3 3.28,-9.52 4.27,-1.969999 2.95,3.939999 2.95,-3.939999 -3.61,-1.64 -0.18,-3.44 v 0 l 12.21,-2.08 17.37,-13.16 3.3,0.55 z m -356.13,-73.79 5.88,1.04 -0.75,-5.1800004 3.54,6.4500004 1.89,-3.7200004 2.41,0.51 -1.67,4.6300004 4.04,-2.26 2.3,5.29 20.09,12.1 10.63,0.07 4.18,-9.36 1.91,2.77 3.68,-0.49 0.19,2.72 2.71,-0.15 0.09,3.14 5.29,3.16 8.47,0.73 4.96,-5.62 0.44,7.27 6.51,-1.97 -1.28,6.01 7.23,0.04 2.86,-4.62 0.88,4.64 3.38,-1.46 3.41,1.92 11.22,-6.19 28.01,19.88 13.91,-8.17 -0.59,-5.92 5.13,-1.7 6.01,-7.89 4.83,5.84 1.96,-3.67 3.4,0.04 2.52,4.71 -2.3,2.81 6.43,5.55 13.53,0.67 v 0 l 4.3,4.48 v 0 l 12.14,7.22 -1.31,5.58 4.59,-0.98 2.95,-5.25 v 0 l 4.92,1.31 1.31,-3.28 5.25,2.3 -0.33,-4.27 8.28,-4.25 v 0 l 11.74,11.14 v 0 l 21.66,12.8 v 0 l 3.74,1.44 v 0 l -2.43,5.78 -9.85,7.22 -5.25,12.47 v 0 l -3.18,1.16 v 0 l -7.32,-0.5 -1.31,-6.89 -7.22,-11.16 -11.82,-1.31 1.31,2.63 -8.21,10.83 -1.64,6.56 1.64,2.949999 -7.22,8.86 -10.5,-0.66 -14.77,5.58 1.64,9.85 2.63,-1.64 4.92,4.27 5.58,-0.33 11.81,5.25 1.31,4.92 4.92,4.59 5.25,-0.33 5.58,4.92 -4.59,5.25 -16.74,2.63 -8.53,-3.94 -12.47,0.66 -8.86,4.92 0.33,-10.17 -3.61,-2.95 1.64,-1.31 -2.95,-5.58 0.33,-8.2 -8.2,-3.61 -10.83,1.31 -1.97,-2.3 -9.84,14.11 10.5,20.68 1.97,8.53 -1.64,9.19 -12.47,8.86 -14.11,2.63 -1.31,3.94 -11.16,7.55 -3.61,-0.33 -7.22,6.24 -19.69,-0.98 -1.97,-4.27 -9.19,-2.63 -0.66,-5.25 -4.59,-4.92 -12.47,-6.56 -1.31,3.28 -6.24,1.97 -9.52,-3.61 -1.97,2.3 1.64,12.14 -6.56,5.25 v 4.92 l 5.25,4.92 5.25,19.36 5.25,5.25 0.66,20.68 -9.06,9.85 -16.41,1.31 -10.17,-4.92 -5.25,-9.52 -17.07,-13.13 -6.24,-8.2 1.97,-2.3 -2.63,-2.63 -4.59,0.33 -8.86,-5.25 -12.14,-12.14 -10.17,-2.63 -9.19,-6.24 -6.24,-9.52 -13.88,-10.48 -3.45,-8.06 0.33,-6.24 12.14,-3.28 48.57,3.94 7.22,-4.27 1.31,-3.94 -3.28,-3.61 2.3,-6.89 -5.25,-6.56 v -9.19 l -8.53,-3.94 1.97,-8.2 -7.55,-17.72 -5.58,-3.28 -12.14,0.98 -4.59,-8.209999 -3.94,1.97 -3.94,-2.3 -9.19,1.97 -13.46,-5.25 -7.88,11.489999 -4.27,-0.979999 -5.91,-9.52 -5.58,1.31 -10.83,-25.6 16.08,-3.61 -1.05,-3.49 v 0 l 2.19,2.33 12.11,-0.44 0.42,-6.29 7.25,-13.12 -1.25,-4.82 10.59,-6.7 1.69,-8.74 5.95,-8.77 13.69,-1.88 14.88,7.5 5.71,-2.35 13.05,5 4.49,-2.12 -0.3,-8.21 5.87,-0.22 8.32,-9.81000035 3.44,4.24999995 z"
     class="land"
     title="Republika Srpska"
     id="BA-SRP" />
  <path
     d="m 512.80973,93.691811 0.18,3.45 3.61,1.64 -2.96,3.929999 -2.95,-3.929999 -4.27,1.959999 -3.28,9.52 -3.61,2.3 -10.5,-2.3 -2.95,0.66 v 3.28 0 l -1.64,1.97 v 0 l -3.61,2.95 -0.99,-3.61 -8.86,1.64 -5.58,5.91 -5.58,0.33 -2.62,-2.95 -9.19,0.98 -4.93,-5.91 0.33,-3.28 -3.61,-2.3 1.97,-2.62 -4.26,-2.3 0.32,-3.28 4.93,0.33 4.59,-3.279999 v 0 l 3.61,-1.32 v 0 l 5.25,-12.47 9.85,-7.22 2.43,-5.78 v 0 l 0.52,0.2 v 0 l 8.86,-3.28 v 0 l 3.25,-0.41 3.13,5.1 -2.22,1.77 -6.15,-1.44 3.16,4.56 -1.29,3.29 12.44,10.76 z"
     class="land"
     title="BrÄko distrikt"
     id="BA-BRC" />
     <g id="stadiums" data-country="bosnia_and_herzegovina" data-circle-radius="6"></g>
</svg>
