<?xml version="1.0" encoding="UTF-8" standalone="no"?>
<?xml-stylesheet type="text/css" href="/styles/home.css"?>
<!-- https://www.amcharts.com/svg-maps -->

<svg version="1.1" xmlns="http://www.w3.org/2000/svg" id="map-bulgaria"
   viewBox="0 0 612.55042 395.75009" width="612.55042" height="395.75009">
  <defs
     id="defs4">
    <style
       type="text/css"
       id="style2">
			.land
			{
				fill: #f37a8b;
				fill-opacity: 1;
				stroke:white;
				stroke-opacity: 1;
				stroke-width:0.5;
			}
		</style>
    <!-- <amcharts:ammap projection="mercator" leftLongitude="22.356421" topLatitude="44.212643" rightLongitude="28.610539" bottomLatitude="41.235569"></amcharts:ammap> -->
    <!-- All areas are listed in the line below. You can use this list in your script. -->
    <!--{id:"BG-01"},{id:"BG-02"},{id:"BG-03"},{id:"BG-04"},{id:"BG-05"},{id:"BG-06"},{id:"BG-07"},{id:"BG-08"},{id:"BG-09"},{id:"BG-10"},{id:"BG-11"},{id:"BG-12"},{id:"BG-13"},{id:"BG-14"},{id:"BG-15"},{id:"BG-16"},{id:"BG-17"},{id:"BG-18"},{id:"BG-19"},{id:"BG-20"},{id:"BG-21"},{id:"BG-22"},{id:"BG-23"},{id:"BG-24"},{id:"BG-25"},{id:"BG-26"},{id:"BG-28"},{id:"BG-27"}-->
  </defs>
  <path
     d="m 110.73509,284.65499 5.81,-0.23 2.6,-2.03 3.9,-11.6 h 6.57 l 1.92,3.83 3.38,1.53 2.53,-0.73 -0.8,-3.73 h 2.72 v 0 l -0.73,4.98 2.21,1.33 1.05,11.38 2.36,1.84 -3.94,2.33 -3.56,4.59 2.47,17.2 2.35,2.64 6.02,2.12 10.33,6.66 13.33,12.18 v 0 l 1.06,2.27 -3.17,4.45 -1.98,12.21 v 0 l 1.04,7.56 -2.32,1.84 -2.33,-0.17 -0.82,-1.73 -4.36,3.82 -5.82,-5.52 -2.13,3.93 -8.96,1.77 -3.36,5.29 -8.98,-1.8 -2.88,4.05 -2.81,0.43 -3.61,-1.9 -2.92,0.41 -2.2,-2.26 -8.71,-0.2 -3.3,0.59 -6.029998,4.78 -1.99,-4.55 -3.8,-0.07 -4.96,3.28 -0.14,3.48 -2.37,3.16 -6.63,1.48 -5.29,-0.13 -5.54,-2.64 -8.62,-0.57 2.49,-2.09 0.18,-5.15 -1.42,-3.08 2.61,-3.72 -1.98,-6.29 1.39,-8.73 -2.01,-3.36 -0.42,-5.94 1.04,-1.77 2.51,-0.18 0.84,-3.25 3.96,-5.01 -2.32,-7.31 -4.44,-0.93 -2.71,-9.57 -2.02,-3.79 -1.33,-0.11 -0.74,-5.09 -1.96,-2.64 -0.55,-10.28 v 0 l 3.92,-1.89 2.09,-9.61 1.88,-1.37 2.48,5.99 3.75,-0.17 2.25,2.94 9.47,-2.38 6.05,-4.7 15.65,4.38 3.039998,2.19 6.68,-1.81 z"
     class="land"
     title="Blagoevgrad"
     id="BG-01" />
  <path
     d="m 464.83509,172.49499 5.98,-3.33 9.9,0.96 14.42,9.93 5.57,-0.69 2.35,1.6 4.41,-2.99 14.65,1.31 2.27,0.79 -0.27,2.62 4.94,2.9 4.1,1.02 7.91,-1.33 v 0 l 1.76,8.65 -1.13,2.86 0.88,6.68 -16.67,-1.01 -1.6,4.41 2.99,2.11 -2.1,0.16 -0.85,1.67 -1.83,-0.77 -1.49,1.92 -2.85,-0.3 -1.37,2.07 -0.06,5.94 1.64,3.11 -3.31,-1.38 -3.27,0.13 -2.38,1.76 -3.98,-0.62 -2.72,3.68 -0.71,5.73 -2.59,-0.49 -0.87,3.33 1.67,1.68 0.29,3.19 1.07,-4.77 3.57,4.31 2.35,-3.69 3.92,1.47 0.61,-2.29 2.35,2.44 1.6,-0.36 0.17,-1.55 0.95,1.47 1.39,-0.32 -0.59,3.62 1.45,1.56 1.5,0.3 2.28,-2.34 0.61,2.25 2.39,-0.1 -2.05,1.73 1.51,2.54 -1.14,2.02 2.51,4.46 4.69,-0.92 -1.27,2.02 2.1,1.79 -3.78,2.65 1.02,2.89 -1.24,0.36 0.01,1.9 8.43,7.31 1.92,2.61 -0.57,1 4.18,3.09 1.84,4.16 3.16,0.92 2.17,5.47 2.22,0.09 4.25,10.11 -2.54,0.73 -3.04,-1.47 -1.67,1.69 -2.52,-1.04 -2.16,1.63 -1.18,-2.6 -3.89,-1.77 -0.39,1.89 -0.45,-1.47 -0.63,1.61 -1.35,-1 -1.17,1.54 1.62,5.05 -2.02,-0.8 -0.01,1.55 -1.15,-1.4 h -2.41 l 0.69,-1.47 -4.13,-0.51 -0.53,-1.52 -3.81,0.22 0.47,0.91 -1.75,-0.06 -1.3,2.07 -4.85,-0.5 0.73,1.1 -1.43,1.31 -0.92,-0.92 -1.58,2.12 -1.43,-0.77 0.18,2.28 -1.32,0.59 0.95,1.19 -1.13,0.24 -5.06,-7.18 -3.96,0.04 -3.76,-4.24 -3.85,-1.82 -2.57,-6.67 -3.11,-0.41 -0.98,-2.76 -3.25,-2.23 -5.14,-1.02 -1.77,0.87 -2.28,2.51 0.3,2.56 -1.96,-1.37 -4.84,0.39 -2.25,-2.51 -4.01,-0.91 -2.98,1.34 v 0 l -10.04,-9.61 -0.34,-2.12 2.79,-3.29 -2.48,-6.2 1.59,-5.05 -7.85,-8.84 -0.97,-4.24 1.28,-1.52 7.2,-1.23 1.91,-4.77 -7.05,-0.56 -12.68,-24.5 -8.22,-9.35 v 0 l 0.37,-3.62 -2.91,-5.52 -5.35,-1.74 -2.73,-3.35 1.1,-5.93 -1.54,-9.64 -3.11,-0.05 v 0 l 6.25,-0.24 0.51,3.94 7.6,-0.07 6.32,-4.47 8.04,-0.36 3.91,1.64 5.55,-1.09 5.04,3.78 7.24,-3.89 z"
     class="land"
     title="Burgas"
     id="BG-02" />
  <path
     d="m 496.34509,84.664993 5.68,5.55 1.65,6.57 2.4,-0.06 5.8,-4.72 2.08,-0.27 1.84,1.65 0.03,5.13 5.17,2.599997 5.3,-0.25 12.25,15.83 5.74,-5.68 4.12,0.21 9.57,10.98 v 0 l -4.89,11.9 -6.11,1.22 -2.03,3.16 -1.64,-0.93 1.14,0.42 -0.18,2.42 3.09,0.76 -3.31,14.15 -2.33,3.14 1.6,14.51 -0.34,9.89 -1.91,2.42 v 0 l -7.91,1.33 -4.1,-1.02 -4.94,-2.9 0.27,-2.62 -2.27,-0.79 -14.65,-1.3 -4.42,2.99 -2.34,-1.59 -5.57,0.69 -14.42,-9.93 -9.9,-0.96 -5.98,3.33 v 0 l 0.28,-3.91 -5.03,-5.58 2.68,-2.54 13.54,-2.89 -1.56,-8.75 -2.47,-2.7 1,-3.81 8.98,-5.3 -3.54,-14 0.45,-1.19 2.75,0.88 1.92,-1.72 -1.01,-10.83 5.09,-7.72 -0.46,-1.77 -1.88,-0.41 1.92,-5.029997 -2.65,-1.18 0.01,-3.54 9.53,-3.04 z"
     class="land"
     title="Varna"
     id="BG-03" />
  <path
     d="m 296.44509,80.744993 6.05,-1.33 v 0 l 2.33,1.92 2.53,-1.19 0.35,2.39 -1.92,3.83 3.64,9.2 5.16,4.889997 -1.46,6.25 9.84,5.38 4.48,-2.56 7.34,5.23 4.55,-0.24 5.74,2.26 4.59,-1.86 1.88,4.46 4.98,1.12 v 0 l 6.64,6.36 -0.95,2.9 5.31,6.99 -0.05,1.72 -3.11,2.17 -1.92,6.15 0.44,10.13 4.28,4.53 -3.72,4.82 11.15,3.91 v 0 l -2.64,4.02 -11.45,6.08 0.31,5.6 -6.82,5.42 -5.61,-1.47 -5.83,1.44 -5.25,-0.97 v 0 l -6.63,-0.43 -9.39,4.36 v 0 l -2.93,-2.32 -2.22,-6.2 3.88,-3.56 0.34,-2.05 -2.03,-1 -0.07,-3.63 -4.23,-0.54 -2,-2.14 0.09,-4.73 4.02,-3.85 -0.64,-2.83 -6.6,-3.27 -6.26,-1.35 -3.29,0.71 -2.45,-2.11 -7.02,0.35 -0.76,-2.03 1.35,-4.23 -1.03,-1.27 -7.72,2.32 -6.23,-1.61 -6.12,-6.04 -0.52,-3.9 v 0 l 3.42,-0.6 0.11,-3.84 2.82,-4.19 0.24,-3.46 v 0 l 7.19,-7.32 1.05,-3.52 -0.79,-2.11 -3.89,-0.76 1.07,-6.63 -6.92,0.75 -1.29,-2.08 1.1,-1.82 6.56,-3.01 1.33,-8.349997 -2.43,-4.03 1.69,-6.38 -1.18,-4.03 5.74,-4.8 v 0 l 8.07,6.88 z"
     class="land"
     title="Veliko Tarnovo"
     id="BG-04" />
  <path
     d="m 31.785092,0.25499294 6.51,1.92999996 6.06,5.74 11.06,7.0100001 10.29,1.84 1.47,1.3 0.42,3.84 -3.38,5.7 -7.76,1.3 -4.85,3.21 -3.96,13.06 1.51,4.67 2.07,1.92 17.29,5.2 v 0 l -1.81,2.2 -8.02,1.04 0.37,2.84 8.47,3.25 1.12,3.46 -12.78,5.74 -4.08,10.66 -3.54,3.55 -3.02,7.09 -4.33,2.83 -0.46,6.179997 -3.63,5.27 v 0 l -4.96,-0.28 -1.91,-4.38 -5.93,-1.2 -2.2,-3.58 -4.07,-1.07 -4.58,-12.489997 0.47,-5.05 -1.38,-2.84 1.14,-2.34 -8.17,-7.78 -1.3,-4.39 0.63,-3.93 -4.26999998,-7.12 2.79999998,-7.87 0.22,-7.67 1.9,-1.78 0.21,-8.76 3.39,-1.75 8.31,-0.46 1.43,-1.86 -0.99,-2.36 8.57,-1.66 -1.02,-5.95 1.75,-6.8900001 -1.45,-1.04 2.13,-1.35 -0.77,-1.17 1.22,-0.23 0.45,-3.11999996 z"
     class="land"
     title="Vidin"
     id="BG-05" />
  <path
     d="m 153.72509,63.664993 4.72,0.28 19.66,8.27 16.72,-2.08 v 0 l -2.11,9.53 -1.66,-1.06 -0.37,2.02 -1.81,-2.56 -1.74,0.11 -5.7,7.25 -3.23,-1.3 -1.37,0.8 1.77,12.93 6.95,2.939997 -1.62,6.84 -10.34,1.3 -1.81,5.23 -10.96,0.97 -2.36,1.74 -1.82,15.25 2.07,2.01 4.04,-1.26 2,2.39 v 0 l 0.96,12.61 -5.43,-0.01 0.1,6.66 v 0 l -0.98,4.01 -4.8,-2.44 -9.58,-0.26 -2.55,-1.89 -9.35,4.29 -5.04,-2.4 -9.78,8.62 -2.65,-1.73 -5.9,-9 -0.85,-5.12 3.59,-6.61 -8.63,-1.44 v 0 l -1.09,-5.26 1.4,-1.72 3.7,0.05 0.24,-3.47 -3.32,-2.23 -6.819998,-1.42 -2.44,-3.22 5.309998,-5.37 3.82,-7.4 -0.59,-6.82 3.87,-6.269997 1.85,-0.89 8.32,1.73 2.69,-4.18 h 4.62 l -0.66,-3.31 -4.79,-4.8 6.36,-11.48 -0.69,-17.18 v 0 l 9.06,-1.49 11.66,6.12 z"
     class="land"
     title="Vratsa"
     id="BG-06" />
  <path
     d="m 268.84509,138.94499 0.52,3.9 6.12,6.04 6.23,1.61 7.72,-2.32 1.03,1.27 -1.35,4.23 0.76,2.03 7.02,-0.35 2.45,2.11 3.29,-0.71 6.26,1.35 6.6,3.27 0.64,2.83 -4.02,3.85 -0.09,4.73 2,2.14 4.23,0.54 0.07,3.63 2.03,1 -0.34,2.05 -3.88,3.56 2.22,6.2 2.93,2.32 v 0 l -0.19,1.66 -2.33,0.96 -3.23,-2.8 -4.74,2.39 -3.55,-0.8 -2.88,-2.92 -3.14,-0.24 0.43,3.62 -1.16,1.03 -11.92,-3.3 -3.7,0.56 -6.24,-3.77 -10.58,4.97 -7.19,-0.91 v 0 l 0.52,-4.09 -2.83,-5.58 -4.52,-6.06 -4.94,-2.39 -1.71,-9.73 2.93,-6.32 4.47,-1.58 -0.98,-9.72 3.81,-4.21 -0.28,-8.95 z"
     class="land"
     title="Gabrovo"
     id="BG-07" />
  <path
     d="m 547.68509,34.644993 4.28,15.68 11.54,6 12.2,5.46 10.83,0.82 9.72,2.53 13.01,-0.7 -0.06,4.56 -1.41,2.25 1.5,6.65 -1.01,5.1 3.99,8.02 -5.3,12.389997 -5.69,5.18 -3.03,6.62 -1.83,-2.85 -11.05,-4.66 -13.36,2.51 -4.2,-1.08 -6.39,4.28 -3.45,8.8 v 0 l -9.57,-10.98 -4.12,-0.21 -5.74,5.68 -12.25,-15.83 -5.3,0.25 -5.17,-2.599997 -0.03,-5.13 -1.84,-1.65 -2.08,0.27 -5.8,4.72 -2.4,0.06 -1.65,-6.57 -5.68,-5.55 v 0 l -2.59,-4.75 -6.95,4.05 -1.5,-0.58 -4.26,-5.93 -4.52,-0.63 -2.49,-2.96 v 0 l 1.91,-1.08 -1.07,-6.12 6.96,-7.95 5.7,-1.2 9.71,-9.15 3.22,2.07 1.99,-0.37 4.98,-8.56 2.46,2.64 3.05,0.38 0.01,-2.78 3.73,-5.35 6.96,-3.36 v 0 l 3.06,2.32 10.65,-1.73 7.11,-5.64 2.65,3.28 z"
     class="land"
     title="Dobrich"
     id="BG-08" />
  <path
     d="m 286.84509,304.04499 -1.32,4.43 3.11,12.3 5.52,-5.15 2.35,5.64 7.38,4.17 8.48,2.61 5.92,-1.75 2.21,2.78 2.97,10.06 -1.38,4.52 1.02,2.58 2.39,-1.53 3.74,1.66 5.5,-4.97 5.84,0.78 1.65,5.34 -4.19,3.27 -1.81,8.73 5.19,4.19 -0.65,6.73 8.46,8.06 1.49,5.98 v 0 l -5.18,1.99 -1.38,-1.09 0.19,-1.94 -4.68,-2.41 -4.44,3.31 -5.71,0.47 -1.28,3.4 -4.83,-2.92 -4.39,1.28 -5.11,-1.71 -2.98,5.18 -5.42,-1.37 -4.7,2.94 -5.91,0.64 -3.11,2.39 -3.61,-0.54 -1.26,1.37 -5.17,-1.58 -1.08,-4.26 -5.1,-4.23 v 0 l 0.32,-2.29 -2.03,-1.06 -1.18,-5.75 3.75,-4.82 -3.02,-1.3 1.31,-4.61 -0.7,-2.46 -3.73,-2.59 -5.54,2.66 -5.05,-1.88 -1.85,-8.14 0.83,-3.22 7.16,-2.62 2.1,-2.45 1.02,-10.89 -2.49,-10.19 v 0 l 5.78,-4.66 5.32,-9.58 z"
     class="land"
     title="Kardzhali"
     id="BG-09" />
  <path
     d="m 11.775092,206.29499 4.01,3.35 5.94,1.97 3.61,9.49 5.6,2.97 0.42,6.32 4.21,6.64 1.24,4.57 5.7,1.02 2.11,3.16 h 2.85 l 0.43,2.7 2.99,-1.7 4.16,2.47 1.26,-3.66 3.33,-1.14 2.19,-2.78 6.78,4.29 3.12,-0.53 3.08,-3.91 1.06,4.37 5.7,3.26 3.11,0.44 2.98,-2.26 v 0 l 8.42,1.63 2.3,7.08 6.549998,5.31 v 1.36 l -4.9,1.82 -2.479998,5.93 1.88,1.58 6.579998,-2.17 1.71,5.63 7.11,3.05 -0.21,2.4 -3.88,3.7 v 0 l -3.03,2.83 -6.68,1.81 -3.039998,-2.19 -15.65,-4.38 -6.05,4.7 -9.47,2.38 -2.25,-2.94 -3.75,0.17 -2.48,-5.99 -1.88,1.37 -2.09,9.61 -3.92,1.89 v 0 l -1.63,-1.4 -2.67,0.44 -2.45,-3.07 -2.26,0.99 -4.13,-1.08 -1.96,-2.75 -3.87,0.31 -10.58,-6.85 -5.32,-4.63 -1.03,-5.45 -3.12,-1.08 -2.08,-5.43 -8.60999998,-9.31 4.29999998,-2.39 2.72,1.05 1.9,-1.32 2.49,-7.93 4.03,-0.68 3.76,-10.73 -3.61,-6.19 -5.03,-4.55 -3.08,-0.73 z"
     class="land"
     title="Kyustendil"
     id="BG-10" />
  <path
     d="m 164.75509,135.26499 7,-1.32 6.5,-3.41 6.36,1.66 6.1,-0.62 5.88,-1.82 3.37,-3.6 1.14,2.15 2.82,0.62 3.4,3.29 17.48,2.24 1.11,-7.11 3.16,3.47 2.42,-4.41 8.48,-5.33 4.58,0.24 7.28,3.5 5.05,-1.68 3.68,-3.59 2.49,-5.51 1.51,0.51 3.09,7.72 7.78,4.59 v 0 l -0.24,3.46 -2.82,4.19 -0.11,3.84 -3.42,0.6 v 0 l -11.51,-2.9 0.28,8.95 -3.81,4.21 0.98,9.72 -4.47,1.58 -2.93,6.32 1.71,9.73 4.94,2.39 4.52,6.06 2.83,5.58 -0.52,4.09 v 0 l -9.7,4.27 -6.2,-1.86 -9.18,1.52 -2.65,-0.77 -2.31,-4.37 -4.22,-3.32 -12.77,-1.51 -3.7,4.56 -9.28,0.17 v 0 l -9.89,-2.85 -12.37,-0.85 4.04,-6.84 -2.61,-1.96 -0.38,-4.74 -3.13,-2.21 3.13,-3.16 -6.84,-3.66 -0.86,-6.28 -4.89,-2.44 -0.58,-3.54 -6.09,-0.31 v 0 l -0.1,-6.66 5.43,0.01 z"
     class="land"
     title="Lovech"
     id="BG-11" />
  <path
     d="m 105.06509,49.524993 8.55,2.23 6.7,5.07 5.33,0.49 v 0 l 0.69,17.18 -6.36,11.48 4.79,4.8 0.66,3.31 h -4.62 l -2.69,4.18 -8.32,-1.73 -1.85,0.89 -3.87,6.269997 0.59,6.82 -3.82,7.4 -5.309998,5.37 2.44,3.22 6.819998,1.42 3.32,2.23 -0.24,3.47 -3.7,-0.05 -1.4,1.72 1.09,5.26 v 0 l -6.399998,-0.37 -4.39,4.75 -19.48,1.34 -11.79,-11.3 -4.55,1.33 v 0 l -4.1,-2.93 -2.8,-5.45 -1.93,-1.16 -2.16,-7.37 -9.46,-8.31 v 0 l 3.63,-5.27 0.46,-6.179997 4.33,-2.83 3.02,-7.09 3.54,-3.55 4.08,-10.66 12.78,-5.74 -1.12,-3.46 -8.47,-3.25 -0.37,-2.84 8.02,-1.04 1.81,-2.2 v 0 l 8.79,-1.58 12.58,-5.26 z"
     class="land"
     title="Montana"
     id="BG-12" />
  <path
     d="m 139.36509,271.69499 7.76,-5.98 5.14,-6.81 2.18,2.74 3.19,-1.71 -1.47,-4.67 2,-6.19 7.15,-3 3.69,-7.74 -1.46,-3.21 -5.04,2.18 -3.55,-1.04 -3.75,-5.94 -0.8,-9.11 5.79,-1.28 6.39,2.95 6.04,-6.54 4.75,0.09 1.1,-4.92 8.84,-2.36 6.13,2.42 3.16,9.69 2.88,-1.7 2.55,2.38 v 0 l -0.6,4.66 -3.23,3.4 -0.55,2.66 4.19,13.13 4.54,4.93 0.19,4.01 -1.87,1.53 1.72,10.87 5.25,9.21 -0.74,1.24 -5.07,1.03 -1.53,8.7 0.63,9.87 -2.54,7.92 v 0 l -1.32,6.92 -5.89,3.58 -2.39,3.21 0.22,8.51 -5.85,3.88 -5.87,-1.47 -8.86,1.21 -1.21,8 v 0 l -13.33,-12.18 -10.33,-6.66 -6.02,-2.12 -2.35,-2.64 -2.47,-17.2 3.56,-4.59 3.94,-2.33 -2.36,-1.84 -1.05,-11.38 -2.21,-1.33 z"
     class="land"
     title="Pazardzhik"
     id="BG-13" />
  <path
     d="m 26.295092,177.80499 5.66,3.49 1.61,-2.24 4.28,-0.16 1.28,-1.26 v 0 l 1.78,4.47 4.01,-0.28 3.18,5.21 11.92,4.16 1.98,3.14 5.34,2.3 1.35,2.13 v 0 l 6.32,7.41 3.99,2.44 1.17,6.44 -0.95,2.2 4.52,0.78 3.79,5.68 2.59,-0.54 0.25,1.64 v 0 l -3.85,9.18 1.14,13.34 v 0 l -2.98,2.26 -3.11,-0.44 -5.7,-3.26 -1.06,-4.37 -3.08,3.91 -3.12,0.53 -6.78,-4.29 -2.19,2.78 -3.33,1.14 -1.26,3.66 -4.16,-2.47 -2.99,1.7 -0.43,-2.7 h -2.85 l -2.11,-3.16 -5.7,-1.02 -1.24,-4.57 -4.21,-6.64 -0.42,-6.32 -5.6,-2.97 -3.61,-9.49 -5.94,-1.97 -4.01,-3.35 v 0 l -1.4,-1.33 3.71,-4.47 0.29,-2.39 -3.85,-4.9 -1.97,-6.14 6.4,-3.54 2.65,-4.03 3.92,2.17 0.97,-3.67 z"
     class="land"
     title="Pernik"
     id="BG-14" />
  <path
     d="m 232.92509,71.984993 7.11,-3.49 7.8,0.54 7.33,-3.13 3.78,0.33 5.62,4.68 4.29,1.04 8.12,-1.92 7.69,2.73 v 0 l -5.74,4.8 1.18,4.03 -1.69,6.38 2.43,4.03 -1.33,8.349997 -6.56,3.01 -1.1,1.82 1.29,2.08 6.92,-0.75 -1.07,6.63 3.89,0.76 0.79,2.11 -1.05,3.52 -7.19,7.32 v 0 l -7.78,-4.59 -3.09,-7.72 -1.51,-0.51 -2.49,5.51 -3.68,3.59 -5.05,1.68 -7.28,-3.5 -4.58,-0.24 -8.48,5.33 -2.42,4.41 -3.16,-3.47 -1.11,7.11 -17.48,-2.24 -3.4,-3.29 -2.82,-0.62 -1.14,-2.15 -3.37,3.6 -5.88,1.82 -6.1,0.62 -6.36,-1.66 -6.5,3.41 -7,1.32 v 0 l -2,-2.39 -4.04,1.26 -2.07,-2.01 1.82,-15.25 2.36,-1.74 10.96,-0.97 1.81,-5.23 10.34,-1.3 1.62,-6.84 -6.95,-2.939997 -1.77,-12.93 1.37,-0.8 3.23,1.3 5.7,-7.25 1.74,-0.11 1.81,2.56 0.37,-2.02 1.66,1.06 2.11,-9.53 v 0 l 5.95,-5.11 10.3,-3.63 11.57,2.78 5.98,5.79 z"
     class="land"
     title="Pleven"
     id="BG-15" />
  <path
     d="m 200.85509,193.36499 9.28,-0.17 3.7,-4.56 12.77,1.51 4.22,3.32 2.31,4.37 2.65,0.77 9.18,-1.52 6.2,1.86 9.7,-4.27 v 0 0 0 l -1.02,2.35 0.45,11.76 -3.18,7.08 1.77,7.5 2.99,5.26 3.44,1.38 10.44,-3.57 2.32,3.53 -0.4,2.55 -4.15,4.19 2.87,6.33 -4.11,-0.99 -0.71,1.6 -0.01,12.2 4.6,3.44 -9.91,4.28 -0.62,8.56 7.08,3.95 9.42,-1.55 3.82,-2.47 7.01,8.03 v 0 l -3.98,10.34 0.42,10.46 -2.56,3.16 v 0 l -9.28,5.5 -5.32,9.58 -5.78,4.66 v 0 l -5.92,-5.83 -1.86,1.67 -0.3,6.59 -3.77,4.37 -6.88,-0.21 -6.16,6.96 -3.05,-6.58 1.32,-4.96 -1.36,-2.34 -1.58,1.34 -1.33,-2.45 2.41,-7.01 -2.08,-4.13 -10.4,-1.56 -11.4,3.2 -4.72,-6.14 -2.69,0.29 -4.27,-1.89 v 0 l 2.54,-7.92 -0.63,-9.87 1.53,-8.7 5.07,-1.03 0.74,-1.24 -5.25,-9.21 -1.72,-10.87 1.87,-1.53 -0.19,-4.01 -4.54,-4.93 -4.19,-13.13 0.55,-2.66 3.23,-3.4 0.6,-4.66 v 0 l 5.76,-1.01 2.37,-6.1 -5.07,-5.04 -7.81,-4.31 -0.36,-3.12 z"
     class="land"
     title="Plovdiv"
     id="BG-16" />
  <path
     d="m 392.71509,37.504993 9.21,0.56 2.35,3.78 6.73,-0.8 2.5,3.31 0.79,4.33 12.75,3.79 2.65,-0.6 1.27,2.22 4.31,-3.46 3.77,4.61 4.41,1.37 2.84,5.33 3.51,0.38 1.37,4.08 4.17,3.88 v 0 l 0.93,4.61 -1.47,2.21 -4.29,2.12 -3.22,4.07 -5.71,-1.62 -0.94,4.23 -5.72,4.86 0.31,6.05 -6.52,6.299997 0.32,3.51 4.86,4.2 -4.25,4.36 v 0 l -5.28,0.42 -1.99,-1.65 -2.25,4.41 -5.65,-0.54 -5.4,-2.36 -4.82,2.18 -2.97,-0.53 0.33,2.08 -3.99,5.35 -0.18,2.61 -4.14,1.99 -1.17,-1.92 1.36,-2.63 -1.29,-2.02 -3.16,-1.12 -0.71,-2.4 9.82,-7.87 0.58,-6.33 -5.3,-1.27 -2.48,-6.349997 -4.04,-0.88 -6.63,-6.52 -3.28,0.65 -2.27,3.16 -7.24,0.09 -1.77,-1.2 v 0 l -3.54,-6.93 0.4,-3.32 6.62,-1.73 4.32,-5.27 3.71,0.83 7,5.33 8.58,-2.85 5.51,1.25 5.9,-0.73 3.25,-4.98 -0.01,-6.82 -3.59,-5.75 -3.98,-0.73 -3.66,-3.24 -3.2,1.54 -0.79,-1.27 -4.44,0.73 -4.97,-1.71 0.07,-2.99 3.66,-2.88 2.89,-8.82 z"
     class="land"
     title="Razgrad"
     id="BG-17" />
  <path
     d="m 389.44509,24.834993 1.13,4.46 4.14,4.03 -2,4.18 v 0 l -3.26,4.69 -2.89,8.82 -3.66,2.88 -0.07,2.99 4.97,1.71 4.44,-0.73 0.79,1.27 3.2,-1.54 3.66,3.24 3.98,0.73 3.59,5.75 0.01,6.82 -3.25,4.98 -5.9,0.73 -5.51,-1.25 -8.58,2.85 -7,-5.33 -3.71,-0.83 -4.32,5.27 -6.62,1.73 -0.4,3.32 3.54,6.93 v 0 l -6.32,3.03 -1.69,8.559997 -5.7,7.29 4.95,4.22 -0.44,4.86 v 0 l -4.98,-1.12 -1.88,-4.46 -4.59,1.86 -5.74,-2.26 -4.55,0.24 -7.34,-5.23 -4.48,2.56 -9.84,-5.38 1.46,-6.25 -5.16,-4.889997 -3.64,-9.2 1.92,-3.83 -0.35,-2.39 -2.53,1.19 -2.33,-1.92 v 0 l 3.82,-1.91 7.3,-0.13 9.92,-6.02 6.95,-0.23 5.11,-2.73 2.79,-4.92 6.55,-4.39 7.33,-11.21 10.16,-6.24 5,-8.1 4.02,-2.48 5.15,-0.01 z"
     class="land"
     title="Ruse"
     id="BG-18" />
  <path
     d="m 464.03509,10.764993 3.34,-0.26 7.36,3.1 6.61,-1.08 2.02,7.07 6.43,2.34 4.25,6.1 7.06,-1.37 13.64,1.32 3.13,-4.83 2.88,2.4 2.89,7.48 v 0 l -6.96,3.36 -3.73,5.35 -0.01,2.78 -3.05,-0.38 -2.46,-2.64 -4.98,8.56 -1.99,0.37 -3.22,-2.07 -9.71,9.15 -5.7,1.2 -6.96,7.95 1.07,6.12 -1.91,1.08 v 0 l -4.29,0.17 -5.51,-6.8 -8.89,3.05 v 0 l -4.17,-3.88 -1.37,-4.08 -3.51,-0.38 -2.84,-5.33 -4.41,-1.37 -3.77,-4.61 -4.31,3.46 -1.27,-2.22 -2.65,0.6 -12.75,-3.79 -0.79,-4.33 -2.5,-3.31 -6.73,0.8 -2.35,-3.78 -9.21,-0.56 v 0 l 2,-4.18 -4.14,-4.03 -1.13,-4.46 v 0 l 4.84,-1.33 5.87,1.15 9.1,-2.51 6.24,0.38 9.11,-3.19 6.38,-0.21 14.65,-7.53 8.17,-0.23 7.13,-2.1300001 z"
     class="land"
     title="Silistra"
     id="BG-19" />
  <path
     d="m 374.59509,170.17499 4.98,-4.25 1.97,-5.83 5.17,-1.03 1.06,4.86 2.53,-2.39 4.82,2.89 9.9,-2.09 10.1,1.55 v 0 l -6.42,5.68 -0.55,2.82 1.2,1.45 v 0 l 3.11,0.06 1.54,9.63 -1.1,5.93 2.73,3.35 5.36,1.74 2.9,5.52 -0.37,3.63 v 0 l -2.58,-1.16 1.88,4.46 -0.03,3.99 -2.89,3.61 -2.1,-2.31 -2.84,4.56 -4.84,0.49 -8.77,5.48 -5.47,-0.9 -3.97,3.27 1.9,1.3 0.34,2.18 -4.53,4.93 -4.1,0.53 -1.46,2.01 -6.76,-1.87 -1.32,0.83 0.27,5.93 -4.13,-1.56 2.22,4.92 4.21,-3.53 0.84,1.65 -0.63,8.07 -5.78,12.9 v 0 l -10.26,-6.15 -3.69,2.49 -0.03,-2.01 -8.37,-5.48 -2.81,-9.67 -3.76,-4.58 2.4,-5.86 -3.57,-8.27 3.03,-6.53 -3.04,-5.11 -1.18,-7.1 -4.02,-8.02 -0.38,-6.89 v 0 l 5.25,0.97 5.83,-1.44 5.61,1.47 6.82,-5.42 -0.31,-5.6 11.45,-6.08 z"
     class="land"
     title="Sliven"
     id="BG-20" />
  <path
     d="m 202.42509,305.10499 4.27,1.89 2.69,-0.29 4.72,6.14 11.4,-3.2 10.4,1.56 2.08,4.13 -2.41,7.01 1.33,2.45 1.58,-1.34 1.36,2.34 -1.32,4.96 3.05,6.58 6.16,-6.96 6.88,0.21 3.77,-4.37 0.3,-6.59 1.86,-1.67 5.92,5.83 v 0 l 2.49,10.19 -1.02,10.89 -2.1,2.45 -7.16,2.62 -0.83,3.22 1.85,8.14 5.05,1.88 5.54,-2.66 3.73,2.59 0.7,2.46 -1.31,4.61 3.02,1.3 -3.75,4.82 1.18,5.75 2.03,1.06 -0.32,2.29 v 0 l -5.25,-3.45 -3.7,-0.13 -2.34,-3.07 -10.99,-2.79 -2.8,-2.79 -3.89,2.14 -5.4,-1.21 -0.25,5.93 -1.35,1.06 -5.52,-4.48 -1.65,-4.46 -4.49,-1.18 -2.41,1.01 -0.38,-2.34 -4.33,1.13 -1.35,-4.94 -2.31,-1.51 -1.28,-3.49 -0.62,-6.18 -2.57,-2.27 -5.15,2.12 -2.33,3.9 -4.48,-2.33 -2.02,0.4 -1.8,2.51 -2.65,-1.19 -3.5,1.94 -0.12,-3.47 -3.89,-4.58 -3.16,3.18 -1.95,-0.28 -2.37,4.63 -2.63,-2.78 -2.44,0.3 -3.01,-2.12 -4.02,3.27 v 0 l 1.98,-12.21 3.17,-4.45 -1.06,-2.27 v 0 l 1.21,-8 8.86,-1.21 5.87,1.47 5.85,-3.88 -0.22,-8.51 2.39,-3.21 5.89,-3.58 z"
     class="land"
     title="Smolyan"
     id="BG-21" />
  <path
     d="m 57.255092,136.30499 4.55,-1.33 11.79,11.3 19.48,-1.34 4.39,-4.75 6.399998,0.37 v 0 l 8.63,1.44 -3.59,6.61 0.85,5.12 5.9,9 2.65,1.73 9.78,-8.62 5.04,2.4 9.35,-4.29 2.55,1.89 9.58,0.26 4.8,2.44 0.98,-4.01 v 0 l 6.09,0.31 0.58,3.54 4.89,2.44 0.86,6.28 6.84,3.66 -3.13,3.16 3.13,2.21 0.38,4.74 2.61,1.96 -4.04,6.84 12.37,0.85 9.89,2.85 v 0 l -3.93,9 0.36,3.12 7.81,4.31 5.07,5.04 -2.37,6.1 -5.76,1.01 v 0 l -2.55,-2.38 -2.88,1.7 -3.16,-9.69 -6.13,-2.42 -8.84,2.36 -1.1,4.92 -4.75,-0.09 -6.04,6.54 -6.39,-2.95 -5.79,1.28 0.8,9.11 3.75,5.94 3.55,1.04 5.04,-2.18 1.46,3.21 -3.69,7.74 -7.15,3 -2,6.19 1.47,4.67 -3.19,1.71 -2.18,-2.74 -5.14,6.81 -7.76,5.98 v 0 h -2.72 l 0.8,3.73 -2.53,0.73 -3.38,-1.53 -1.92,-3.83 h -6.57 l -3.9,11.6 -2.6,2.03 -5.81,0.23 v 0 l 3.88,-3.7 0.21,-2.4 -7.11,-3.05 -1.71,-5.63 -6.579998,2.17 -1.88,-1.58 2.479998,-5.93 4.9,-1.82 v -1.36 l -6.549998,-5.31 -2.3,-7.08 -8.42,-1.63 v 0 l -1.14,-13.34 3.85,-9.18 v 0 l 5.26,2.12 9.119998,9.85 1.69,-0.99 2.26,-8.93 2.72,0.31 3.62,6.91 0.72,8.55 1.86,-0.71 4.57,1.72 5.96,-2.16 -4.52,-13.28 -4.57,-5.9 -0.37,-10.88 -4.58,-2.51 0.64,-2.44 2.2,-0.86 1.15,-3.95 4.84,-2.5 2.82,-10.68 -1.26,-4.93 -5.67,2.22 -7.86,-5.1 -13.189998,2.6 -3.05,-5.54 -2.9,-2.02 -6.97,17.68 1.45,2.36 -0.71,2.32 -2.82,-0.91 -2.33,1.33 -11.76,0.27 v 0 l -1.35,-2.13 -5.34,-2.3 -1.98,-3.14 -11.92,-4.16 -3.18,-5.21 -4.01,0.28 -1.78,-4.47 v 0 l 2.52,-4.92 -0.94,-2.14 1.37,-4.57 6.25,-2.87 4.76,-4.19 2.35,-6.19 6.06,-3.97 1.42,-6.12 -1.08,-1.25 1.97,-3.39 -2.98,-1.74 z"
     class="land"
     title="Sofia-Grad"
     id="BG-22" />
  <path
     d="m 68.685092,198.76499 11.76,-0.27 2.33,-1.33 2.82,0.91 0.71,-2.32 -1.45,-2.36 6.97,-17.68 2.9,2.02 3.05,5.54 13.189998,-2.6 7.86,5.1 5.67,-2.22 1.26,4.93 -2.82,10.68 -4.84,2.5 -1.15,3.95 -2.2,0.86 -0.64,2.44 4.58,2.51 0.37,10.88 4.57,5.9 4.52,13.28 -5.96,2.16 -4.57,-1.72 -1.86,0.71 -0.72,-8.55 -3.62,-6.91 -2.72,-0.31 -2.26,8.93 -1.69,0.99 -9.119998,-9.85 -5.26,-2.12 v 0 l -0.25,-1.64 -2.59,0.54 -3.79,-5.68 -4.52,-0.78 0.95,-2.2 -1.17,-6.44 -3.99,-2.44 z"
     class="land"
     title="Sofia"
     id="BG-23" />
  <path
     d="m 321.28509,194.22499 9.39,-4.36 6.63,0.43 v 0 l 0.38,6.89 4.02,8.02 1.18,7.1 3.04,5.11 -3.03,6.53 3.57,8.27 -2.4,5.86 3.76,4.58 2.81,9.67 8.37,5.48 0.03,2.01 3.69,-2.49 10.26,6.15 v 0 l 3.6,2.24 v 0 l -8.09,7.96 3.39,15.42 -5.94,0.45 -3.25,3.45 -2.09,-0.59 -4.18,-8.54 -4.26,-0.53 -2.35,-2.27 -3.4,-0.1 -2.76,-2.1 -1.35,0.9 -1.53,5.76 -9.59,3.49 -5.97,-12.53 -6.65,3.51 -0.14,-8.79 -1.24,-2.46 -7.09,6.08 1.83,0.6 -0.93,1.81 -5.63,-1.82 -0.41,3.26 -3.44,4.56 -8.55,-3.15 v 0 l -7.01,-8.03 -3.82,2.47 -9.42,1.55 -7.08,-3.95 0.62,-8.56 9.91,-4.28 -4.6,-3.44 0.01,-12.2 0.71,-1.6 4.11,0.99 -2.87,-6.33 4.15,-4.19 0.4,-2.55 -2.32,-3.53 -10.44,3.57 -3.44,-1.38 -2.99,-5.26 -1.77,-7.5 3.18,-7.08 -0.45,-11.76 1.02,-2.35 v 0 l 7.19,0.91 10.58,-4.97 6.24,3.77 3.7,-0.56 11.92,3.3 1.16,-1.03 -0.43,-3.62 3.14,0.24 2.88,2.92 3.55,0.8 4.74,-2.39 3.23,2.8 2.33,-0.96 z"
     class="land"
     title="Stara Zagora"
     id="BG-24" />
  <path
     d="m 365.72509,92.534993 1.77,1.2 7.24,-0.09 2.27,-3.16 3.28,-0.65 6.63,6.52 4.04,0.88 2.48,6.349997 5.3,1.27 -0.58,6.33 -9.82,7.87 0.71,2.4 3.16,1.12 1.29,2.02 -1.36,2.63 1.17,1.92 4.14,-1.99 0.18,-2.61 3.99,-5.35 -0.33,-2.08 2.97,0.53 4.82,-2.18 5.4,2.36 5.65,0.54 2.25,-4.41 1.99,1.65 5.28,-0.42 v 0 l -1.23,1.59 0.66,7.86 3.26,2.98 0.49,2.52 -5.81,6.13 -2.16,6.07 -3.98,0.27 2.72,9.67 -5.3,5.43 0.04,4.58 -3.21,1.6 v 0 l -10.1,-1.55 -9.9,2.09 -4.82,-2.89 -2.53,2.39 -1.06,-4.86 -5.17,1.03 -1.97,5.83 -4.98,4.25 v 0 l -11.15,-3.91 3.72,-4.82 -4.28,-4.53 -0.44,-10.13 1.92,-6.15 3.11,-2.17 0.05,-1.72 -5.31,-6.99 0.95,-2.9 -6.64,-6.36 v 0 l 0.44,-4.86 -4.95,-4.22 5.7,-7.29 1.69,-8.559997 z"
     class="land"
     title="Targovishte"
     id="BG-25" />
  <path
     d="m 376.58509,265.71499 7.33,3.09 3.28,2.99 5.97,1.56 2.46,-1.41 2.51,2 3.89,-0.92 1.56,2.76 3.63,-0.4 -0.45,13.76 -2.44,2.37 -0.07,2.77 7.48,11.25 v 0 l 2.12,2.91 -1.55,2.38 1.28,1.75 -4,6.38 -16.99,0.8 -3.58,8.68 -0.05,1.86 2.87,3.21 -7.21,0.02 -5.34,-3.75 -2.9,0.77 -2.73,-1.96 -4.77,2.48 -1.09,2.26 -4.19,0.52 -0.8,2.67 1.13,5.38 2.28,2.66 4.03,-0.79 1.63,3.58 -0.58,6.49 2.92,0.33 0.79,4.54 -3.11,4.96 4.61,5.82 -3.05,0.45 -1.12,1.5 0.07,3.79 -2.77,4.71 -9.3,0.69 -2.75,0.92 -0.89,2.27 -5.98,0.66 v 0 l -1.49,-5.98 -8.46,-8.06 0.65,-6.73 -5.19,-4.19 1.81,-8.73 4.19,-3.27 -1.65,-5.34 -5.84,-0.78 -5.5,4.97 -3.74,-1.66 -2.39,1.53 -1.02,-2.58 1.38,-4.52 -2.97,-10.06 -2.21,-2.78 -5.92,1.75 -8.48,-2.61 -7.38,-4.17 -2.35,-5.64 -5.52,5.15 -3.11,-12.3 1.32,-4.43 v 0 l 2.56,-3.16 -0.42,-10.46 3.98,-10.34 v 0 l 8.55,3.15 3.44,-4.56 0.41,-3.26 5.63,1.82 0.93,-1.81 -1.83,-0.6 7.09,-6.08 1.24,2.46 0.14,8.79 6.65,-3.51 5.97,12.53 9.59,-3.49 1.53,-5.76 1.35,-0.9 2.76,2.1 3.4,0.1 2.35,2.27 4.26,0.53 4.18,8.54 2.09,0.59 3.25,-3.45 5.94,-0.45 -3.39,-15.42 z"
     class="land"
     title="Haskovo"
     id="BG-26" />
  <path
     d="m 423.52509,203.69499 8.22,9.35 12.69,24.49 7.04,0.56 -1.9,4.77 -7.21,1.23 -1.28,1.51 0.97,4.24 7.85,8.84 -1.59,5.04 2.48,6.2 -2.79,3.29 0.34,2.12 10.04,9.61 v 0 l -1.43,0.29 0.48,2.63 -1.94,2.76 -2.59,0.22 0.28,2.28 -2.18,3.06 -9,0.94 -2.66,2.79 -5.3,-2.68 -3.53,4.14 -8.54,-0.99 -4.07,-1.84 -6.17,6.99 v 0 l -7.48,-11.25 0.07,-2.77 2.44,-2.37 0.45,-13.76 -3.63,0.4 -1.56,-2.76 -3.89,0.92 -2.51,-2 -2.46,1.41 -5.97,-1.56 -3.28,-2.99 -7.33,-3.09 v 0 l -3.6,-2.24 v 0 l 5.78,-12.9 0.63,-8.07 -0.84,-1.65 -4.21,3.53 -2.22,-4.92 4.13,1.56 -0.27,-5.93 1.32,-0.83 6.76,1.87 1.46,-2.01 4.1,-0.53 4.53,-4.93 -0.34,-2.18 -1.9,-1.3 3.97,-3.27 5.47,0.9 8.77,-5.48 4.84,-0.49 2.84,-4.56 2.1,2.31 2.89,-3.61 0.03,-3.99 -1.88,-4.46 z"
     class="land"
     title="Yambol"
     id="BG-28" />
  <path
     d="m 455.34509,70.284993 8.89,-3.05 5.51,6.8 4.29,-0.17 v 0 l 2.49,2.96 4.52,0.63 4.26,5.93 1.5,0.58 6.95,-4.05 2.59,4.75 v 0 l -1.96,2.8 -9.53,3.04 -0.01,3.54 2.65,1.18 -1.92,5.029997 1.88,0.41 0.46,1.77 -5.09,7.72 1.01,10.83 -1.92,1.72 -2.75,-0.88 -0.45,1.19 3.54,14 -8.98,5.3 -1,3.81 2.47,2.7 1.56,8.75 -13.54,2.89 -2.68,2.54 5.03,5.58 -0.28,3.91 v 0 l -5.02,0.58 -7.24,3.89 -5.04,-3.78 -5.55,1.09 -3.9,-1.64 -8.04,0.36 -6.32,4.48 -7.61,0.06 -0.51,-3.94 -6.25,0.24 v 0 l -1.2,-1.45 0.55,-2.82 6.42,-5.68 v 0 l 3.21,-1.6 -0.04,-4.58 5.3,-5.43 -2.72,-9.67 3.98,-0.27 2.16,-6.07 5.81,-6.13 -0.49,-2.52 -3.26,-2.98 -0.66,-7.86 1.23,-1.59 v 0 l 4.25,-4.36 -4.86,-4.2 -0.32,-3.51 6.52,-6.299997 -0.31,-6.05 5.72,-4.86 0.94,-4.23 5.71,1.62 3.22,-4.07 4.29,-2.12 1.47,-2.21 z"
     class="land"
     title="Shumen"
     id="BG-27" />
     <g id="stadiums" data-country="bulgaria" data-circle-radius="6"></g>
</svg>
