<?xml version="1.0" encoding="UTF-8" standalone="no"?>
<?xml-stylesheet type="text/css" href="/styles/home.css"?>
<!-- https://www.amcharts.com/svg-maps -->

<svg version="1.1" xmlns="http://www.w3.org/2000/svg" id="map-croatia"
   viewBox="0 0 611.99579 599.39093">
  <defs
     id="defs4">
    <style
       type="text/css"
       id="style2">
			.land
			{
				fill: #CCCCCC;
				fill-opacity: 1;
				stroke:white;
				stroke-opacity: 1;
				stroke-width:0.5;
			}
		</style>
    <!-- <amcharts:ammap projection="mercator" leftLongitude="13.492149" topLatitude="46.542610" rightLongitude="19.400320" bottomLatitude="42.403920"></amcharts:ammap> -->
    <!-- All areas are listed in the line below. You can use this list in your script. -->
    <!--{id:"HR-01"},{id:"HR-02"},{id:"HR-03"},{id:"HR-04"},{id:"HR-05"},{id:"HR-06"},{id:"HR-07"},{id:"HR-08"},{id:"HR-09"},{id:"HR-10"},{id:"HR-11"},{id:"HR-12"},{id:"HR-13"},{id:"HR-14"},{id:"HR-15"},{id:"HR-16"},{id:"HR-17"},{id:"HR-18"},{id:"HR-19"},{id:"HR-20"},{id:"HR-21"}-->
  </defs>
  <path
     style="fill:#cccccc;fill-opacity:1;stroke:#ffffff;stroke-width:0.5;stroke-opacity:1"
     inkscape:connector-curvature="0"
     d="m 286.26248,71.244737 2.35,6.72 1.81,1.51 4.15,-2.12 v 0 l 6.92,3.92 2.2,-0.74 1.56,1.18 0.38,2.04 2.21,1.05 0.49,4.38 3.52,-2.08 0.84,1.4 3,-0.39 5.52,5.73 1.45,-1.07 2.28,1.44 3.15,-1.59 3.84,0.91 v 0 l 0.62,7.780003 -1.76,3.95 0.57,2.24 -1.89,-1.42 -2.72,0.77 -0.6,-1.7 -0.7,1.95 -3.49,1.7 0.41,3.85 -2.85,-1.66 -7.29,0.71 0.78,2.03 -1.37,1.26 2.15,1.64 -1.99,4.92 4.04,3.05 3.15,0.06 1.53,3.67 1.51,-0.62 2.3,3.03 v 0 h 0.08 v 0 l -2.81,6.74 -4.79,1.16 -7.35,7.71 -1.81,-3.91 -4.26,-1.23 -2.34,-4.55 -4.43,1.11 -1,-3.68 -4.54,2.21 -1.22,2.07 -1.51,-0.81 -3.24,3.82 -10.72,-5.67 -7.74,10.15 3.93,3.95 -0.04,10.64 -2.57,2.12 -3.76,-5.08 -2.47,-0.71 -3.24,2.67 -5.53,-0.33 v 0 l -0.24,-0.03 v 0 l -1.48,-1.84 0.55,-4.17 -1.95,-2.35 -3.27,0.18 -0.24,-2.44 -3,-0.28 -4.72,3.96 -5.07,-6.03 0.45,-5.32 -2.07,1.74 -11.6,-5.14 -8.5,7.07 -0.86,-1.54 1.33,-3.1 -3.05,-0.05 0.56,-4.74 -5.6,-3.18 -1.82,-4.66 -3.39,-0.39 -1.63,-3.88 -6.13,-2.84 1.02,-5.12 v 0 l 6.77,-3.34 6.42,-0.38 -0.77,-3.19 2.61,-1.83 1.15,1.43 2.43,-0.22 1.41,-3.69 2.2,1.47 1.28,-2.04 7.22,4.87 2.41,-3.08 4.09,-0.55 -2.09,-2.62 -0.48,-6.030003 2.82,-2.91 0.05,-7.12 v 0 l 5.57,-0.06 0.83,1.23 1.37,-3.28 3.45,-0.04 8.89,4.42 4.35,4.08 0.32,3.32 v 0 l -11.64,7.650003 -1.74,3.34 1.78,6.01 -2.09,2.58 5.42,3.58 -0.72,3.01 -1.78,1.38 -4.91,-3.18 -3.1,4.21 0.86,3.81 9.23,4.39 3.72,3.67 -0.36,3.3 h 3.74 l 2.1,-1.74 3.56,-7.57 0.91,-5.94 2.47,-0.45 1.18,-4.11 10.63,-6.68 1.08,-2.31 5.54,1.58 0.51,-4.91 3.07,-1.59 -3.17,-7.330003 -2.52,-1.16 -0.17,-5.91 -2.32,-4.8 v 0 l 0.13,-3.08 3.32,-2.45 -0.5,-1.82 3.46,-0.58 -1.9,-4.65 2.23,0.22 z"
     class="land"
     title="Zagrebačka županija"
     id="HR-01" />
  <path
     style="fill:#cccccc;fill-opacity:1;stroke:#ffffff;stroke-width:0.5;stroke-opacity:1"
     inkscape:connector-curvature="0"
     d="m 245.81248,40.644737 1.48,6.26 4.71,1.57 1.55,2.89 4.19,0.96 v 0 l 4.32,1.29 v 0 l 6.82,-1.47 2.12,0.22 0.84,2.03 3.32,0.13 2.03,-2.99 3.42,-1.27 0.87,1.03 -1.33,1.5 5.5,0.57 -1.72,2.35 2.24,2.88 -1.24,8.8 1.33,3.85 v 0 l -3.68,2.64 -2.23,-0.22 1.9,4.65 -3.46,0.58 0.5,1.82 -3.32,2.45 -0.13,3.08 v 0 l -3.98,-0.09 -0.7,1.9 -3.5,0.36 -13.1,7 v 0 l -0.32,-3.32 -4.35,-4.08 -8.89,-4.42 -3.45,0.04 -1.37,3.28 -0.83,-1.23 -5.57,0.06 v 0 l -0.7,-4.47 3.15,-6.48 -1.75,-2.24 -5.75,-1.65 -1.22,-2.49 -2.68,-0.22 -1.74,-3.97 0.74,-3.14 -1.51,-1.36 1.78,-1.03 -1.01,-1.59 4.22,-3.67 0.36,-4.44 3.22,-1.58 5.05,1.72 2.21,-0.78 -0.02,1.61 1.7,0.19 3.53,-4.36 -0.85,-2.62 z"
     class="land"
     title="Krapinsko-zagorska županija"
     id="HR-02" />
  <path
     style="fill:#cccccc;fill-opacity:1;stroke:#ffffff;stroke-width:0.5;stroke-opacity:1"
     inkscape:connector-curvature="0"
     d="m 243.30248,195.58474 -4.56,-4.12 1.12,-3.87 2.11,-1.47 -4.15,-8.31 0.56,-2.39 5.6,-3.07 -1.18,-6.46 1.66,-4.13 -1.88,-0.93 1.93,-2.3 3.94,-1.62 3.45,3.09 0.83,-0.91 v 0 l 0.24,0.03 v 0 l 5.53,0.33 3.24,-2.67 2.47,0.71 3.76,5.08 2.57,-2.12 0.04,-10.64 -3.93,-3.95 7.74,-10.15 10.72,5.67 3.24,-3.82 1.51,0.81 1.22,-2.07 4.54,-2.21 1,3.68 4.43,-1.11 2.34,4.55 4.26,1.23 1.81,3.91 7.35,-7.71 4.79,-1.16 2.81,-6.74 v 0 l 0.18,0.01 v 0 l 3.79,-0.72 0.62,2.11 5.45,1.21 1.61,3.26 6.62,0.52 1.91,7.68 4.05,2.62 1.57,3.42 -1.43,2.51 -2.23,-0.61 -0.66,1.06 2.49,2.22 1.68,-0.94 4.3,4.8 2.59,-2.08 v 0 l 2.23,3.73 4.1,-0.05 2.04,1.66 1.38,4.24 2.27,-1.75 -0.27,-2.16 1.41,0.26 0.72,2.27 -1.94,3.88 6.65,3.02 2.18,4.14 4.42,-0.72 v 0 l -0.03,8.1 -6.45,6.37 -4.16,1.67 -0.85,2.33 4.39,3.47 3.4,6.57 v 0 l -9.8,-5.72 -1.52,-3.5 -2.75,1.43 1.18,-3 -1.59,-0.34 -1.25,2.46 -1.75,-0.93 -3.65,0.19 -0.36,-2.55 1.77,-1.86 -2.14,-2.82 -5.62,6.49 -1.06,-0.6 -3.48,3.01 0.9,3.06 -2.47,1.46 -9.18,-3.25 -3.78,1.55 -9.68,-4.93 -4.96,1.33 -2.24,-0.88 -4.12,2.61 -3.09,9.9 -6.87,4.26 0.83,3.19 -4.79,8.67 -0.28,4.16 -4.61,0.52 -8.59,-1.59 -0.83,-2.8 -7.44,-7.15 -6.82,-3.23 -4.28,-10.82 -3.21,-0.25 1.38,-2.32 -0.74,-2.5 -4.7,-2.31 -3.81,2.87 -1.3,-3.99 -3.1,0.37 0.15,1.55 z"
     class="land"
     title="Sisačko-moslavačka županija"
     id="HR-03" />
  <path
     style="fill:#cccccc;fill-opacity:1;stroke:#ffffff;stroke-width:0.5;stroke-opacity:1"
     inkscape:connector-curvature="0"
     d="m 192.26248,114.97474 -1.02,5.12 6.13,2.84 1.63,3.88 3.39,0.39 1.82,4.66 5.6,3.18 -0.56,4.74 3.05,0.05 -1.33,3.1 0.86,1.54 8.5,-7.07 11.6,5.14 2.07,-1.74 -0.45,5.32 5.07,6.03 4.72,-3.96 3,0.28 0.24,2.44 3.27,-0.18 1.95,2.35 -0.55,4.17 1.48,1.84 v 0 0 0 l -0.83,0.91 -3.45,-3.09 -3.94,1.62 -1.93,2.3 1.88,0.93 -1.66,4.13 1.18,6.46 -5.6,3.07 -0.56,2.39 4.15,8.31 -2.11,1.47 -1.12,3.87 4.56,4.12 v 0 l -8.16,8.62 2.16,7.76 -3.77,7.34 4.01,8.56 0.18,4.67 -3.47,0.64 -1.46,5.76 v 0 l -2.8,2.24 -5.31,-3.58 -5.24,2.13 -4.47,-4.75 -3.79,5.01 3.66,4.6 -0.72,1.47 -4.14,-5.12 -7.83,-1.65 -7.94,-11.71 -6.52,-2.32 -1.55,-2.83 -8.22,-5.99 -1.28,-3.5 -3.65,1.31 -2.35,3.48 -4.85,-1.59 -2.47,-3.38 -5.82,-2.4 v 0 l -4.23,-6.3 1.73,-5.26 0.04,-7.08 -2.47,-2.97 2.04,-1.37 1.05,-4.36 2.52,-1.04 1.99,3.04 4.57,0.39 0.35,2.01 1.75,0.51 2.31,-3.22 5.64,-1.48 -0.44,-2.63 5.63,-9.84 -0.43,-4.7 v 0 l 2.13,-3.9 2.99,-1.85 6.04,1.9 5.8,-5.11 -8.8,-7.22 -0.28,-6.9 -2.24,-3.05 3.14,-1.4 -0.51,-2.61 5.04,-0.89 -0.41,-1.47 4.19,1.29 2.09,-1.58 -3.91,-6.3 -2.09,2.63 1.43,-3.41 -0.59,-2.84 -1.88,0.05 -2.01,2.57 0.21,3.33 -1.17,-3.61 -1.3,1.58 -1.55,-3.33 -4.58,-1.73 z"
     class="land"
     title="Karlovačka županija"
     id="HR-04" />
  <path
     style="fill:#cccccc;fill-opacity:1;stroke:#ffffff;stroke-width:0.5;stroke-opacity:1"
     inkscape:connector-curvature="0"
     d="m 279.07248,24.174737 2.64,1.15 4.99,-1.63 1.39,2.4 1.8,-0.32 v 0 l 4.19,2.2 3.21,5.31 3.79,0.02 1.22,1.39 3.73,-2 0.66,1.87 5.82,1.21 0.18,-1.06 2.95,0.16 1.88,-2.57 4.54,3.47 7.96,-2.08 2.17,2.03 3.46,-2.59 -0.57,2.83 4,0.75 v 0 l -0.43,6.76 -8.05,8.44 -4.92,0.38 -2.95,-1.35 -7.12,3.84 0.59,2.36 -11.72,0.66 -0.75,2.17 -4.9,3.44 -4.26,13.94 v 0 l -4.15,2.12 -1.81,-1.51 -2.35,-6.72 v 0 l -1.33,-3.85 1.24,-8.8 -2.24,-2.88 1.72,-2.35 -5.5,-0.57 1.33,-1.5 -0.87,-1.03 -3.42,1.27 -2.03,2.99 -3.32,-0.13 -0.84,-2.03 -2.12,-0.22 -6.82,1.47 v 0 l -4.32,-1.29 v 0 l -4.19,-0.96 -1.55,-2.89 -4.71,-1.57 -1.48,-6.26 v 0 l 3.7,-2.82 4.76,0.03 3.7,-3.2 3.5,-0.03 2.43,-3.48 3.63,-0.36 -1.89,-7.16 5.9,0.63 3.33,-3.49 z"
     class="land"
     title="Varaždinska županija"
     id="HR-05" />
  <path
     style="fill:#cccccc;fill-opacity:1;stroke:#ffffff;stroke-width:0.5;stroke-opacity:1"
     inkscape:connector-curvature="0"
     d="m 349.02248,29.794737 1.7,1.72 0.65,8.8 6.99,5.31 2.04,-0.37 0.36,2.73 3.67,0.56 7.56,5.19 1.99,-0.28 2.4,2.84 3.46,-0.2 -0.03,1.68 2.37,1.16 -0.56,6.34 3.69,-0.83 -0.3,2.23 2.31,-0.03 -1.39,2.56 1.74,0.46 -0.4,2.8 4.05,0.52 -1.73,3.97 4.28,0.49 -3.83,1.91 2.44,1.87 2.51,-0.14 -1.02,2.64 v 0 l -8.55,0.27 -9.32,15.51 v 0 l -5.87,-3.79 -1.67,-4.63 -6.75,0.82 0.96,-3.76 -3.34,-3.57 -7.34,-0.55 3.24,-5.44 -2.26,-0.01 -3.21,-5.55 0.39,-2.44 -3.97,-2.42 -1.26,6.1 -4.62,1.66 0.75,-1.87 -1.39,-0.66 -5.55,3.38 -1.69,5.35 -0.59,11.41 v 0 l -3.84,-0.91 -3.15,1.59 -2.28,-1.44 -1.45,1.07 -5.52,-5.73 -3,0.39 -0.84,-1.4 -3.52,2.08 -0.49,-4.38 -2.21,-1.05 -0.38,-2.04 -1.56,-1.18 -2.2,0.74 -6.92,-3.92 v 0 l 4.26,-13.94 4.9,-3.44 0.75,-2.17 11.72,-0.66 -0.59,-2.36 7.12,-3.84 2.95,1.35 4.92,-0.38 8.05,-8.44 0.43,-6.76 v 0 l 1.8,-0.93 0.55,1.39 1.47,-1.91 0.52,3.78 2.41,-0.36 2.45,-9.98 v 0 z"
     class="land"
     title="Koprivničko-križevačka županija"
     id="HR-06" />
  <path
     style="fill:#cccccc;fill-opacity:1;stroke:#ffffff;stroke-width:0.5;stroke-opacity:1"
     inkscape:connector-curvature="0"
     d="m 331.93248,93.534737 0.59,-11.41 1.69,-5.35 5.55,-3.38 1.39,0.66 -0.75,1.87 4.62,-1.66 1.26,-6.1 3.97,2.42 -0.39,2.44 3.21,5.55 2.26,0.01 -3.24,5.44 7.34,0.55 3.34,3.57 -0.96,3.76 6.75,-0.82 1.67,4.63 5.87,3.79 v 0 l 6.28,3.160003 1.57,3.61 4.62,3.41 3.32,0.63 1.12,4.84 2.92,0.67 0.24,2.53 1.74,0.79 1.03,-2.47 1.8,1.59 -0.96,6.14 2.46,-1.98 1.34,3.96 5.54,-3.7 0.97,2.09 4.84,2.28 -5.1,9.12 0.02,3.79 -2.4,1.4 0.04,3.17 1.83,-0.57 v 0 l 0.91,1.38 -1.34,5.73 -3.1,2.62 -4.78,-0.81 -0.42,-1.41 -6.49,0.8 -1.05,1.31 -6.11,-0.18 -4.42,-3.76 -2.26,2.6 -4.11,-1.18 -4.21,2.74 -2.74,-2.39 -3.76,2.24 -5.25,-1.63 -0.69,-4.22 -3.03,5.14 0.48,4.87 v 0 l -2.59,2.08 -4.3,-4.8 -1.68,0.94 -2.49,-2.22 0.66,-1.06 2.23,0.61 1.43,-2.51 -1.57,-3.42 -4.05,-2.62 -1.91,-7.68 -6.62,-0.52 -1.61,-3.26 -5.45,-1.21 -0.62,-2.11 -3.79,0.72 v 0 l -0.26,-0.01 v 0 l -2.3,-3.03 -1.51,0.62 -1.53,-3.67 -3.15,-0.06 -4.04,-3.05 1.99,-4.92 -2.15,-1.64 1.37,-1.26 -0.78,-2.03 7.29,-0.71 2.85,1.66 -0.41,-3.85 3.49,-1.7 0.7,-1.95 0.6,1.7 2.72,-0.77 1.89,1.42 -0.57,-2.24 1.76,-3.95 z"
     class="land"
     title="Bjelovarsko-bilogorska županija"
     id="HR-07" />
  <path
     style="fill:#cccccc;fill-opacity:1;stroke:#ffffff;stroke-width:0.5;stroke-opacity:1"
     inkscape:connector-curvature="0"
     d="m 109.92248,306.90474 3.18,2.69 -4.11,-0.29 -1.08,-1.73 1.37,-1.5 z m -22.929996,-7.37 -2.41,2.01 -1.98,-3.28 z m -5.25,-25.19 0.74,3.39 -2.73,-0.83 2.16,9.05 -4.82,-3.39 1.63,-0.88 -0.89,-3.73 z m 6.54,-3.82 5.39,2.8 0.51,10.7 5.01,8.98 9.529996,8.65 -0.86,2.95 -8.179996,-6.87 -0.37,-0.88 -0.6,-2.46 -0.87,-2.75 -0.79,0.68 -1.4,-1.95 -1.71,2.93 -2.61,-1.03 0.4,-3.94 2.06,-2.14 -4.37,-6.01 z m 51.759996,3.67 -7.74,-8.16 5.95,4.88 z m -17.27,-16.19 8.41,6.86 -7.96,-2.27 -2.44,-3.28 z m 16.57,-7.93 -0.73,3.81 -2.77,-3.75 z m -11.17,0.12 2.52,-0.16 1.23,1.48 -2.36,3.45 9.21,8.88 4.06,7.46 -3.2,0.67 -5.95,-6.93 -7.33,-4.98 -1.06,-3.66 2.93,0.95 -5.03,-6.11 4.64,1.43 z m 3.89,-3.61 1.99,2.63 -3.47,-0.19 -1.56,-2.23 0.97,-1.6 z m 1.5,-8.33 3.99,2.58 2.08,4.63 -7.02,-4.24 -0.33,-3.13 z m -25.41,-6.9 2.13,3.54 -1.84,0.16 -5.29,-3.91 3.89,-0.96 z m -21.429996,-27.95 3.26,1.36 1.39,2.53 -1.81,4.45 4.77,15.1 3.52,4.65 3.739996,-0.42 1.73,4 -2.65,0.38 -1.519996,11.12 2.339996,12.5 -1.719996,-0.8 -0.49,1.35 3.259996,5.99 -1.62,2.63 1.48,4.79 3.67,4.54 -0.96,3.5 1.44,-0.65 0.38,1.71 2.52,0.02 -4.85,4.23 -4.17,-3.19 -6.959996,-10.08 0.64,-7.3 -2.81,-1.63 -0.38,-6.92 -1.39,-2.22 -1.78,0.52 -0.29,-5.77 -2.99,-8.55 -0.29,-3.45 1.39,-2.32 4.91,7.13 2.91,0.2 1.19,-1.46 -1.83,-4.44 0.79,-1.92 2.56,1.37 -0.78,-1.89 -1.76,-0.07 -1.45,-4.46 -2.79,-1.74 0.95,-3.57 -1.21,-3.79 -4.47,-2.48 -1.5,-4.35 -1.5,-0.7 -0.47,-2.41 2.98,-6.19 z m 24.619996,-10.3 2.85,0.54 1.07,1.9 -1.99,-0.38 5.12,9.12 -2.63,-0.76 -1.02,2.88 4.07,-1.52 3.21,2.06 1.22,2.03 -1.77,6.11 1.1,2.03 3.04,1.88 1.53,-0.93 2.9,2.57 -0.25,2.61 7.98,8.22 -1.28,2.35 -5.6,-0.89 0.6,4.34 -2.61,0.63 -4.71,-2.06 -1.18,-2.27 -2.62,0.15 -3.35,-2.04 0.53,-8.97 -1.78,1.81 1.27,1.99 -4.26,-1.85 -1.78,2 -3.73,-0.41 -3.76,-1.56 -5.519996,-6.1 -0.06,-3.51 3.559996,-0.94 0.64,-4.31 3.02,1.78 2.29,-1.2 -0.47,-3.85 2.44,-2.44 -1.15,-4.76 1.74,-1.14 -1.51,-4.19 z m 1.36,-62.91 3.91,0.95 -1.89,5.36 9.99,7.37 -0.17,7.4 2.79,-1.15 8.09,4.67 2.07,6.24 9.4,-2.49 0.57,-6.14 1.88,-1.52 5.29,4.51 10.72,2.38 0.1,2.43 7.45,6.16 2.37,0.24 1.26,-1.93 3,1.38 v 0 l 0.42,4.7 -5.63,9.84 0.45,2.63 -5.64,1.48 -2.31,3.23 -1.75,-0.51 -0.35,-2.01 -4.57,-0.4 -1.99,-3.04 -2.51,1.04 -1.06,4.36 -2.04,1.38 2.47,2.96 -0.04,7.09 -1.73,5.25 4.22,6.3 v 0 l 1.51,5.36 -2.1,3.39 -6.32,0.72 -0.94,-2.45 -2.17,2.85 -2.36,0.37 -0.97,3.17 v 0 l -3.94,-9.27 0.52,-2.91 -1.47,1.14 0.04,-1.12 -2.08,0.18 -10.46,-5.22 -6.16,-7.57 -8.32,-6.81 -1,-4.87 1.71,0.16 -1.1,-1.67 -3.38,-2.19 2.33,3.39 -1.76,0.78 -4.66,-2.51 -1.7,-2.96 -15.769996,-5.94 -4.81,7.43 -5.79,22.48 v 0 l -2.54,-1.67 0.73,-6.92 -1.6,-6.59 0.65,-6.58 2.11,-2.42 -3.17,-8.43 1.98,-3.35 -7.91,-5.03 -1.73,-3.04 -0.02,-4.34 v 0 l 8.97,1.1 1.83,-4.46 2.38,-0.79 1.88,2.89 2.37,-1 4.22,3.36 9.23,-5.31 1.56,0.4 5.829996,-4.53 1.57,-9.99 3.4,-1.09 z"
     class="land"
     title="Primorsko-goranska županija"
     id="HR-08" />
  <path
     style="fill:#cccccc;fill-opacity:1;stroke:#ffffff;stroke-width:0.5;stroke-opacity:1"
     inkscape:connector-curvature="0"
     d="m 145.67248,307.55474 7.69,7.74 -7.56,-5.27 -1.41,-2.15 z m -9.69,-27.34 8.78,10.61 -1.57,-5 3.96,-0.85 -0.18,1.38 5.18,3.52 2.76,6.33 6.96,2.75 2.75,5.63 -3.2,-1.65 0.13,-1.34 -3.76,0.12 -0.77,-2.34 -9.13,-5.06 -0.02,1.42 1.87,0.48 11.18,13.3 0.94,-1.34 -1.07,-4.11 7.42,5.35 2.55,4.48 3.8,1.99 1.05,2.97 1.6,-0.16 4.74,4.13 0.95,3.89 -8.94,-6.3 6.71,6.71 -2.43,0.07 1.18,2.26 -9.03,-4.18 4.34,6.23 -6.81,-4.09 -1.95,-2.96 1.34,-1.51 -1.89,-1.82 2.91,-2.47 -3.55,-2.87 -1.56,-0.06 0.03,1.44 -2.75,-0.59 -0.3,-2.4 -4.42,-5.39 -4.07,-2.18 0.21,-1.23 -1.73,0.9 -3.23,-2.75 -0.8,-1.75 2.19,-0.51 -5.17,-6.89 1.1,-1.48 -9.65,-10.36 -5.89,-10.85 z m 21.52,-69.86 5.83,2.4 2.46,3.38 4.85,1.59 2.35,-3.48 3.65,-1.31 1.27,3.51 8.22,5.99 1.55,2.83 6.52,2.32 7.94,11.71 7.84,1.65 4.14,5.13 0.71,-1.47 -3.65,-4.6 3.79,-5.01 4.47,4.75 5.24,-2.13 5.31,3.58 2.8,-2.24 v 0 l 1.24,8.52 3.48,3.44 -2.95,2.53 -3.56,0.1 -0.67,1.66 6.41,10.03 4.15,3.8 8.35,-3.66 2.56,3.59 3.57,1.51 2,5.66 5.73,2.77 2.57,6.19 -1.95,0.23 0.27,2.67 -3.19,0.78 2.24,4.58 9.82,4.95 1.94,5.11 -0.66,4.46 v 0 l -4.61,1.65 v 0 l -3.36,-1.75 -0.28,4.55 -1.96,-1.89 v 0 l 0.21,-3.01 -3.29,-4.2 v 0 l -6.44,-1.54 v 0 l -5.39,4.76 v 0 h -2.17 l -0.63,2.17 -11.7,6.93 3.36,0.91 0.98,1.82 -2.59,3.08 v 0 l 0.98,1.96 v 0 l 3.5,-0.07 1.19,1.96 -1.75,8.33 -1.89,1.26 -8.82,0.28 -5.81,-2.73 -5.25,0.07 -3.01,-1.47 -2.45,-5.11 -4.21,-3.21 v 0 l -18.86,-8.79 -3.62,7.24 v 0 l -10.77,-12.21 -5.12,-3.69 -3.63,-5.97 -11.43,-8.78 -2.87,-8.2 -6.73,-9.59 -1.49,-21.46 4.61,-15.6 -0.9,-3.18 -2.28,-1.79 -1.52,-6.84 v 0 l 0.97,-3.17 2.36,-0.36 2.17,-2.85 0.94,2.45 6.32,-0.72 2.1,-3.39 z"
     class="land"
     title="Ličko-senjska županija"
     id="HR-09" />
  <path
     style="fill:#cccccc;fill-opacity:1;stroke:#ffffff;stroke-width:0.5;stroke-opacity:1"
     inkscape:connector-curvature="0"
     d="m 399.78248,85.284737 -0.82,4.69 3.95,-0.76 0.8,2.43 1.95,-1.23 0.28,1.37 2.19,0.32 0.18,-3.27 9.62,2.37 3.99,-0.39 5.77,4.96 4.41,9.840003 7.7,1.14 1.98,2.66 2.15,-0.71 3.52,1.89 1.12,-0.9 3.95,6.59 3.16,-3.3 2.41,-0.11 v 0 l 2.2,8.33 6.68,2.44 3.01,11.75 1.95,0.31 -5.69,9.07 0.3,2.87 -2.86,1.25 -3.36,6.53 -5.14,2.44 v 0 l -0.58,-0.24 v 0 l -9.74,1.24 1.43,-1.38 -2.25,-1.9 -15.46,-2.53 -3.81,-5 -2.51,-0.28 -4.03,-3.74 -1.97,0.03 -1.3,2.46 -4.12,-3.36 -1.52,0.8 v 0 l -1.83,0.57 -0.04,-3.17 2.4,-1.4 -0.02,-3.79 5.1,-9.12 -4.84,-2.28 -0.97,-2.09 -5.54,3.7 -1.34,-3.96 -2.46,1.98 0.96,-6.14 -1.8,-1.59 -1.03,2.47 -1.74,-0.79 -0.24,-2.53 -2.92,-0.67 -1.12,-4.84 -3.32,-0.63 -4.62,-3.41 -1.57,-3.61 -6.28,-3.160003 v 0 l 9.32,-15.51 8.55,-0.27 v 0 l 2.69,-0.7 -1.51,2.84 1.96,0.37 0.56,-4.25 z"
     class="land"
     title="Virovitičko-podravska županija"
     id="HR-10" />
  <path
     style="fill:#cccccc;fill-opacity:1;stroke:#ffffff;stroke-width:0.5;stroke-opacity:1"
     inkscape:connector-curvature="0"
     d="m 454.61248,157.63474 1.15,4.59 4.61,0.77 8.26,6.82 4.61,-0.26 4,2.13 0.38,4.4 -2.41,1.78 2.31,1.72 1.7,4.97 -4.31,4.78 v 0 l -9.24,-2.49 -9.34,0.22 -2.79,3.71 0.79,1.81 -4.07,5.15 -3.73,-1.09 -2.07,3.06 0.93,1 -4.03,0.48 -4.77,-1.84 1.95,-2.55 -2.06,-7.49 -12.83,-1.35 -7.46,-5.26 -1.66,-4.55 -2.77,-0.79 -6.04,-6.17 -6.25,0.66 -0.49,2.11 -2.06,0.74 -7.84,-3.7 -6.94,5.34 v 0 l -4.42,0.72 -2.18,-4.14 -6.65,-3.02 1.94,-3.88 -0.72,-2.27 -1.41,-0.26 0.27,2.16 -2.27,1.75 -1.38,-4.24 -2.04,-1.66 -4.1,0.05 -2.23,-3.73 v 0 l -0.48,-4.87 3.03,-5.14 0.69,4.22 5.25,1.63 3.76,-2.24 2.74,2.39 4.21,-2.74 4.11,1.18 2.26,-2.6 4.42,3.76 6.11,0.18 1.05,-1.31 6.49,-0.8 0.42,1.41 4.78,0.81 3.1,-2.62 1.34,-5.73 -0.91,-1.38 v 0 l 1.52,-0.8 4.12,3.36 1.3,-2.46 1.97,-0.03 4.03,3.74 2.51,0.28 3.81,5 15.46,2.53 2.25,1.9 -1.43,1.38 9.74,-1.24 v 0 z"
     class="land"
     title="Požeško-slavonska županija"
     id="HR-11" />
  <path
     style="fill:#cccccc;fill-opacity:1;stroke:#ffffff;stroke-width:0.5;stroke-opacity:1"
     inkscape:connector-curvature="0"
     d="m 382.14248,176.33474 6.94,-5.34 7.84,3.7 2.06,-0.74 0.49,-2.11 6.25,-0.66 6.04,6.17 2.77,0.79 1.66,4.55 7.46,5.26 12.83,1.35 2.06,7.49 -1.95,2.55 4.77,1.84 4.03,-0.48 -0.93,-1 2.07,-3.06 3.73,1.09 4.07,-5.15 -0.79,-1.81 2.79,-3.71 9.34,-0.22 9.24,2.49 v 0 l 3.31,2.21 3.01,-0.33 1.05,1.81 4.34,0.36 2.89,2.88 5.25,-0.85 3.19,-2.52 6.33,-0.63 7.84,4.37 8.15,1.32 3.33,2.44 v 0 l -5.47,9.86 1.91,4.05 2.11,0.66 v 0 l 1.59,2.8 -1.99,4.25 -0.7,-2.38 -5.52,-0.64 -4.98,-6.44 -10.63,0.99 -1.41,-2.03 -2.59,0.16 -0.71,-2.79 -1.92,-0.81 -4.53,2.36 1,3.83 -1.84,2.36 -8.55,0.13 -5.09,-3.97 1.52,-1.86 -1.67,-3.11 -2.24,-0.03 -1.3,2.43 -2.83,-3.91 -2.26,0.95 -2.18,4.4 -3.3,1.04 0.4,3.92 -9.21,5.4 -18.52,-13.15 -7.42,4.1 -2.26,-1.28 -2.24,0.97 -0.58,-3.07 -1.89,3.05 -4.78,-0.03 0.85,-3.97 -4.31,1.3 -0.29,-4.81 -3.28,3.71 -5.6,-0.48 -3.5,-2.09 -0.06,-2.08 -1.79,0.1 -0.12,-1.8 -2.44,0.33 -1.26,-1.83 -3.06,6.32 -6.93,-0.22 -3.29,-2.24 v 0 l -3.4,-6.57 -4.39,-3.47 0.85,-2.33 4.16,-1.67 6.45,-6.37 z"
     class="land"
     title="Brodsko-posavska županija"
     id="HR-12" />
  <path
     style="fill:#cccccc;fill-opacity:1;stroke:#ffffff;stroke-width:0.5;stroke-opacity:1"
     inkscape:connector-curvature="0"
     d="m 208.87248,393.74474 1.1,1.24 -1.94,0.23 -1.53,-2.2 z m -24.7,-22.74 5.81,2.97 3.55,4.07 1.69,-0.23 1.49,4.27 6.78,5.89 -0.42,1.45 -6.92,-4.02 0.02,1.09 -2.54,-0.64 -0.87,-3.09 -4.49,-3.11 -5.82,-8.34 z m -21.88,-3.72 2.93,4.81 -3.26,-2.24 z m 2.02,-5.72 7.19,7.65 2.12,4.55 -9.36,-8.26 z m 2.25,-8.11 9.14,6.31 1.58,3.92 5.39,4.16 -0.56,3.41 -3.21,-4.81 -1.97,2.11 -8.62,-10.75 -5.16,-3.51 -0.25,-4.04 z m -17.94,-3.71 2.22,2.66 -5.91,-4.28 z m -6.38,-1.07 4.88,4.07 1.21,2.86 2.45,0.6 0.16,2.31 5.1,3.3 -0.02,-1.28 1.25,0.59 -0.82,1.31 2.38,1.54 3.79,8.98 3.76,3.27 0.1,-1.76 2.3,1.66 -0.43,1.29 5.5,4.39 0.46,2.02 5.18,3.01 -1.33,2.38 -4.58,-2.1 -2.74,-3.38 -1.04,0.66 7.26,6.1 0.1,1.96 -10.08,-8.82 -11.45,-18.39 -10.87,-10.56 -1.41,-0.79 0.09,1.61 -5.13,-3.16 -0.56,-1.6 1.34,-1.16 0.24,2.67 2.73,1.47 -1.6,-2 1.09,-0.23 2.47,1.6 -2.32,-5.2 z m 8.61,-4.16 8.37,7.65 0.31,2.73 -5.96,-4.38 -2.9,-4.13 z m -14.48,-9.1 7.63,6.52 0.6,-1.9 1.61,1.09 -0.85,0.63 1.88,1.07 -1.68,2.06 -8.41,-5.48 2.89,4.59 -1.3,0.43 -4.33,-8.2 z m -10.95,-3.9 2.96,2.21 -2.1,0.07 -2.03,-2.03 z m 8.83,1.62 1.51,1.33 -1.47,0.97 -2.2,-1.43 0.41,2.4 -3.26,-3.47 2.49,0.35 -0.91,-2.39 z m 25.84,-6.58 6.47,1.72 3.57,3.6 -1.42,0.75 -0.04,-1.47 -2.52,-1.02 -4.55,2.09 -3.35,-4.79 0.24,-1.18 z m -42.71,-1.52 5,4.64 -7.49,-4.53 -1.55,-2.51 0.91,-0.78 z m 6.89,-11.18 1.93,2.15 -0.41,3.75 1.95,0.97 0.69,2.45 -3.1,-1.33 -1.32,-4.46 -2.43,-0.84 0.28,-2.05 z m 11.07,-0.72 1.65,2.44 -1.78,2.4 2.78,4.21 -0.63,1.9 -7.19,-3.79 3.28,-1.59 -1.77,-5.43 z m 129.49,-2.1 1.05,1.26 0.28,-4.55 3.36,1.75 v 0 l 4.61,-1.65 v 0 l 0.36,3.9 2.3,3.11 -4.97,0.74 0.48,2.41 8.66,3.06 0.87,1.67 -0.29,9.33 2.02,9.97 v 0 l -5.63,1.89 v 0 l -2.59,0.07 -1.26,2.73 -0.07,6.93 v 0 l -2.38,1.89 v 0 l -2.31,1.33 -9.87,-4.55 -2.03,-4.55 v 0 l -1.96,-0.14 -4.27,7.21 -4.48,4.55 -2.38,0.49 v 0 l -1.26,2.94 -5.04,-0.49 v 0 l 1.19,1.75 v 0 l 5.53,2.52 0.14,2.17 v 0 l -1.89,2.52 0.98,2.24 -2.94,2.73 v 0 l -2.52,0.7 2.69,3.86 -2.76,0.91 v 0 l -2.19,1.22 1.41,1.46 -1.86,3.09 -2.4,1.2 0.1,3.44 v 0 l -0.29,1.9 -3.49,-1.99 v 0 l -3.12,-1.27 -4.42,2.09 -2.03,-0.63 v 0 l -3.42,-3.08 -3.63,2.16 -2.67,-3.72 -6.96,-3.52 -1.23,-3.41 -3.66,-2.58 -6.62,-9.05 -4.63,-2.21 1.11,-1.15 -2.71,-1.38 -1.9,-4.68 -4.21,-2.56 -0.38,-2.4 -1.88,-0.47 0.67,-2.11 -6.87,-7.05 1.83,-1.21 0.83,-3.57 -5.85,-4.48 1.52,-2.68 2.03,-0.07 3.67,5.53 3.35,-2.45 -2.39,-3.64 2.29,0.2 -0.45,-1.67 7.83,6.7 1.7,-0.6 -1.97,-4.38 1.84,0.32 0.69,-1.35 -4.64,-4.7 1.43,-1.79 5.34,4.08 0.17,1.73 7.57,4.84 4.4,-0.6 6.27,1.77 0.91,5.92 -4.06,1.61 4.55,4.13 5.74,-1.4 2.87,3.57 1.05,4.62 1.61,-0.49 -1.68,-7.63 -8.47,-6.51 0.82,-5.13 -3.35,-1.86 -2.77,0.69 -6.15,-6.22 -13.43,-7.24 v 0 l 3.6,-7.26 18.86,8.79 v 0 l 4.21,3.21 2.45,5.11 3.01,1.47 5.25,-0.07 5.81,2.73 8.82,-0.28 1.89,-1.26 1.75,-8.33 -1.19,-1.96 -3.5,0.07 v 0 l -0.98,-1.96 v 0 l 2.59,-3.08 -0.98,-1.82 -3.36,-0.91 11.7,-6.93 0.63,-2.17 h 2.17 v 0 l 5.39,-4.76 v 0 l 6.44,1.54 v 0 l 3.29,4.2 -0.21,3.01 v 0 z"
     class="land"
     title="Zadarska županija"
     id="HR-13" />
  <path
     style="fill:#cccccc;fill-opacity:1;stroke:#ffffff;stroke-width:0.5;stroke-opacity:1"
     inkscape:connector-curvature="0"
     d="m 540.29248,94.334737 8.82,5.17 1.49,-0.2 0.45,-4.41 1.16,0.92 0.75,4.540003 2.79,2.19 -0.62,8.13 3.56,3.99 2.4,10.19 5.96,4.3 -2.86,7.86 -3.68,1.12 1.18,2.19 -1.99,5.39 6.27,4.44 3.44,-1.08 0.92,-2.14 2.35,-0.11 1.23,3.25 6.97,3.06 -1.88,4.04 -8.7,-0.98 -1.11,5.98 0.99,1.93 v 0 l -5.12,0.49 -3.51,-4.79 -6.22,-2.15 -0.52,1.34 -5.51,1.49 2.01,6.41 -1.99,0.15 -0.11,1.94 -2.65,0.57 -1.98,-1.81 -10.82,3.59 -0.02,5.19 -2.72,1.52 0.7,4.02 -4.13,0.31 -1.75,2.75 -2.9,-0.51 -2.86,1.74 -0.01,6.57 6.45,2.42 -0.81,4.36 -2.11,0.69 v 0 l -3.33,-2.44 -8.15,-1.32 -7.84,-4.37 -6.33,0.63 -3.19,2.52 -5.25,0.85 -2.89,-2.88 -4.34,-0.36 -1.05,-1.81 -3.01,0.33 -3.31,-2.21 v 0 l 4.31,-4.78 -1.7,-4.97 -2.31,-1.72 2.41,-1.78 -0.38,-4.4 -4,-2.13 -4.61,0.26 -8.26,-6.82 -4.61,-0.77 -1.15,-4.59 v 0 l 0.57,0.23 v 0 l 5.14,-2.44 3.36,-6.53 2.86,-1.25 -0.3,-2.87 5.69,-9.07 -1.95,-0.31 -3.01,-11.75 -6.68,-2.44 -2.2,-8.33 v 0 l 8.59,-1.05 8.72,4.34 2.23,-0.57 1.94,-3.01 4.81,1.91 1.83,-1.68 4.47,1.28 1.47,2.51 5.48,0.19 4.22,2.07 2.75,-3.92 4.41,4.84 4.2,0.49 -0.14,-3.61 3.68,-0.62 0.96,-4.19 3.15,1.64 3.82,-2.95 1.63,0.39 -0.01,-2.1 5.08,-3.64 0.85,-5.410003 0.8,1.290003 1.56,-1.180003 -1.27,-1.88 3.07,-3.41 z"
     class="land"
     title="Osječko-baranjska županija"
     id="HR-14" />
  <path
     style="fill:#cccccc;fill-opacity:1;stroke:#ffffff;stroke-width:0.5;stroke-opacity:1"
     inkscape:connector-curvature="0"
     d="m 219.72248,419.71474 5.38,1.18 2.39,3.22 4.7,2.05 -7.49,-1.35 -3.25,-3.61 -2.18,-0.31 -0.46,-1.73 z m 14.53,-3.48 2.35,2.54 -3.06,-1.21 -0.15,-2.75 z m 10.71,0.21 1.39,5.11 -5.03,-5.26 1.54,0.17 0.39,-1.67 z m -18.73,-3.04 5.59,3.9 -0.69,2.88 -2.46,-1.3 -0.24,-1.07 1.62,0.23 z m 8.91,-1.45 2.13,1.78 -1.25,-0.13 0.66,1.5 -2.55,-2.87 z m 4.92,0.58 -1.42,0.71 -1.1,-3.31 z m -20.88,-14.61 -0.13,1.72 2.45,3.03 1.63,-0.57 2.29,4.83 -4.23,-1.37 -6.29,-8.39 2.56,1.47 0.77,-1.9 z m -38.22,-6.95 2.81,0.92 -0.88,1.59 13.33,12.14 -5.67,-1.97 -2.86,-2 0.18,-1.37 -4.55,-2.49 -4.05,-5.98 z m 3.17,-2.53 3.03,1.09 -1.23,0.26 1.18,1.33 1.99,0.26 0.11,-1.96 5.75,9.5 -9.73,-8.08 -1.91,-0.19 -0.7,-1 z m 110.62,-31.62 2.84,4.15 5.97,-0.13 1.59,7.58 6.12,0.49 4.1,9.66 v 0 l -4.39,-0.24 -5,3.48 -4,0.53 0.95,3.02 -6.44,-0.83 -1.66,5.37 10.19,9.64 -9.3,7.24 1.23,2.87 -2,2.15 2.06,2.7 -3.04,3.42 -7.93,-0.58 -1.9,2.68 -4.65,-0.38 -1.22,3.31 -4.45,0.13 -3.15,5.03 -2.92,0.66 -3.07,3.32 1.33,3.36 2.82,0.47 0.67,3.73 -4.57,1.12 -0.63,2.48 -2.5,1.12 v 0 l -1.74,1.95 0.03,-1.71 -3.32,0.71 -2,-2 4.04,-1.46 -0.93,-2.53 -1.88,0.39 -0.19,-0.92 -3.6,-1.82 2.05,-0.77 -0.12,-1.64 -2.65,-0.06 1.42,-2.21 -1.51,-0.68 0.93,-3 -1.41,-2.17 6.01,-0.67 -7.08,-2.22 2.64,-0.95 2.3,2.01 -0.33,-2.69 -5.32,-5.75 -1.35,0.64 -10.27,-8.95 -3.97,0.73 -1.56,-1.77 -3.65,-0.06 -1.06,-2.59 -4.67,-2.48 -2.54,-3.23 1.67,1.84 2.34,-0.87 2.88,2.82 0.04,-2.77 -5.89,-3.95 -3.57,-0.61 -1.57,-2.69 -1.6,1.07 -0.23,-1.46 2.63,-2.65 3.42,3.08 v 0 l 2.03,0.63 4.42,-2.09 3.12,1.27 v 0 l 3.49,1.99 0.29,-1.9 v 0 l -0.1,-3.43 2.4,-1.2 1.86,-3.09 -1.41,-1.46 2.19,-1.22 v 0 l 2.76,-0.91 -2.69,-3.86 2.52,-0.7 v 0 l 2.94,-2.73 -0.98,-2.24 1.89,-2.52 v 0 l -0.14,-2.17 -5.53,-2.52 v 0 l -1.19,-1.75 v 0 l 5.04,0.49 1.26,-2.94 v 0 l 2.38,-0.49 4.48,-4.55 4.27,-7.21 1.96,0.14 v 0 l 2.03,4.55 9.88,4.55 2.31,-1.33 v 0 l 2.38,-1.89 v 0 l 0.07,-6.93 1.26,-2.73 2.59,-0.07 v 0 l 5.63,-1.89 v 0 l 3.82,6.06 5.6,4.72 z"
     class="land"
     title="Šibensko-kninska županija"
     id="HR-15" />
  <path
     style="fill:#cccccc;fill-opacity:1;stroke:#ffffff;stroke-width:0.5;stroke-opacity:1"
     inkscape:connector-curvature="0"
     d="m 523.60248,200.39474 2.11,-0.69 0.81,-4.36 -6.45,-2.42 0.01,-6.57 2.86,-1.74 2.9,0.51 1.75,-2.75 4.13,-0.31 -0.7,-4.02 2.72,-1.52 0.02,-5.19 10.82,-3.59 1.98,1.81 2.65,-0.57 0.11,-1.94 1.99,-0.15 -2.01,-6.41 5.51,-1.49 0.52,-1.34 6.22,2.15 3.51,4.79 5.12,-0.49 v 0 l 2.5,2.07 -0.04,1.88 -4.9,5.33 5.2,4.69 7.08,1.54 2,5.72 14.41,7.53 15.31,1.63 -0.13,8.89 -4.19,0.6 -4.06,-4.67 -2.44,0.23 -0.77,3.95 h -2.36 l -8.81,-4.48 0.71,4.45 -4.21,6.16 -5.56,0.18 2.43,11.42 -1.82,1.9 -0.26,6.04 -4.28,2.67 6.18,0.98 3,-1.49 1.27,3.72 -1.22,1.73 -4,1.71 -2.54,3.09 -7.12,1.02 1.44,6.78 -17.89,0.18 -9.08,-7.52 0.86,-2.17 -2.1,-3.01 3.7,0.96 1.83,-1.01 -2.08,-3.67 1.02,-3.68 -6.94,-0.39 0.84,-3.21 -7,-6.58 1.93,-2.12 -1.04,-2.15 -2.17,1.05 -0.23,4.2 -5,-1.23 2.89,-3.05 -0.4,-1.35 -2.25,2.05 -3.92,-1.93 0.34,4.06 -1.07,-2.25 -3.09,-1.59 v 0 l -2.11,-0.66 -1.91,-4.05 z"
     class="land"
     title="Vukovarsko-srijemska županija"
     id="HR-16" />
  <path
     style="fill:#cccccc;fill-opacity:1;stroke:#ffffff;stroke-width:0.5;stroke-opacity:1"
     inkscape:connector-curvature="0"
     d="m 279.07248,503.79474 1.37,0.93 -1.38,1.91 1.02,0.44 2.43,-2.26 2.39,1.24 1.43,-1.16 -0.09,3.01 -2.52,3.09 -12.1,3.29 -4.52,-0.1 2.3,-2.23 0.09,-2.1 -0.98,-1.4 -1.81,0.96 -1.34,-2.06 4.7,-2.61 z m 52.63,-2.5 5.05,1.67 -2.79,1.14 -5.33,-1.02 z m -35.3,-10.67 3.03,1.7 1.98,-0.65 0.19,1.63 -3.71,0.37 -3.6,-1.75 z m 21.95,-8.03 1.06,-0.06 -0.64,1.84 1.41,1.9 2.74,-1.74 6.31,0.85 -0.3,2.08 3.53,2.77 -2.74,-0.49 5.47,3.51 2.35,-1.2 9.69,1.26 3.74,-0.85 2.15,1.48 21.41,2.56 4.15,-0.93 5.26,2.15 -8.55,1.57 -18.32,0.26 -16.86,-2.22 -11.37,0.86 -12.65,-2.66 -6.49,-3.24 -1.43,0.85 -10.38,-5.3 5.46,0.13 5.61,-2.39 5.59,1.03 4.22,3.48 3.06,-0.75 -2.1,-0.75 -2.06,-4.15 -1.84,1.08 -1.95,-1.99 z m -12.29,-22.58 10.79,0.14 23.87,4.43 0.25,1.19 1.64,-0.77 2.08,1.16 0.26,0.85 1.05,1.15 0.95,-1.4 6.2,4.54 -1.33,0.52 0.86,1.25 -1.36,0.45 -0.05,1.9 -1.76,-0.54 -0.91,2.1 -6.64,1.3 -16.17,0.94 -10.93,-2.04 -7.94,-4.12 -0.95,-0.68 -3.55,-1.79 -0.2,-2.44 1.72,1.63 2.39,-0.43 -1.53,-2.76 2.9,-1.11 -3.2,-4.45 z m -20.83,-3.3 5.35,1.48 0.55,1.49 2.81,-0.3 7.3,9.42 -1.87,0.37 -7.78,-3.93 0.29,-1.02 -10.65,-3.62 -0.48,-3.55 z m -15.97,-5.84 0.83,1.21 -1.11,1.44 -3.49,-1.56 z m 5.3,-0.4 2.62,0.23 0.19,3.28 -6.12,0.53 z m 14.47,-7.97 11.52,3.93 -8.01,0.73 -4.45,-1.48 -2.77,1.88 -4.2,-2.16 5.28,0.11 0.29,-2.09 -1.89,-0.73 z m -27.25,1.86 2.51,-1.12 0.63,-2.47 4.58,-1.12 -0.67,-3.73 -2.81,-0.47 -1.32,-3.36 3.07,-3.32 2.92,-0.65 3.15,-5.03 4.45,-0.13 1.22,-3.31 4.65,0.39 1.9,-2.68 7.93,0.58 3.04,-3.42 -2.06,-2.7 2,-2.15 -1.23,-2.87 9.31,-7.24 -10.18,-9.64 1.66,-5.37 6.44,0.83 -0.95,-3.02 4,-0.53 5,-3.48 4.39,0.24 v 0 l 16.83,14.25 0.88,5.94 2.7,4.43 6.24,2.79 2.85,4.98 8.16,7.18 14.23,18.51 3.14,-0.21 7.72,7.43 8.4,-0.33 3.31,2.25 2.72,5.71 -3,8.68 7.9,14.73 0.84,4.48 5.36,1 2.73,2.11 2.29,4.16 -0.52,3.03 1.51,0.38 v 0 l -3.57,3.34 -5.26,-1.3 -2.17,1.09 0.17,2.02 3.57,1.15 -0.06,2.88 -2.67,2.99 v 0 l -1.42,-2.63 -4.81,-2.2 -3.12,-3.43 -8.82,-3.21 -6.39,-4.85 -0.63,-2.63 -2.84,-0.92 -2.83,-5.21 -16.87,-18.55 -16.95,-1.8 -3.52,-4.3 -4.94,0.74 -12.1,-8.36 -14.39,-1.56 5.23,-2.86 3.77,0.23 -0.6,-1.36 -12.12,-2.15 -6.01,3.69 -8.58,2.13 -8.09,-1.29 -1.6,1.11 5.94,1.51 0.3,1.27 -6.46,3.1 -4.86,-1.96 -0.8,1.39 -2.26,-0.47 0.53,-1.69 -2.9,0.67 z"
     class="land"
     title="Splitsko-dalmatinska županija"
     id="HR-17" />
  <path
     style="fill:#cccccc;fill-opacity:1;stroke:#ffffff;stroke-width:0.5;stroke-opacity:1"
     inkscape:connector-curvature="0"
     d="m 27.032484,239.18474 3.45,2.72 -2.57,0.16 -0.32,-1.54 -2.04,-1.09 z m 27.74,-85.75 5.25,4.02 4.8,0.44 v 0 l 0.02,4.34 1.73,3.04 7.91,5.03 -1.98,3.35 3.17,8.43 -2.11,2.42 -0.65,6.58 1.6,6.59 -0.72,6.92 2.54,1.67 v 0 l -5.02,10.31 -1.28,1.3 -1.21,-0.99 -0.73,1.71 1.29,1.31 -0.38,4.51 1.74,6.1 -2.38,4.16 -4.29,-1.87 -4.37,3.72 0.85,-3.64 2.21,-0.94 -1.79,-4.12 -2.4,0.13 -0.89,-5.63 -0.82,6.17 3.19,0.83 0.77,2.32 -1.23,0.03 -1.23,4.42 -0.23,1.43 -2.34,4.79 -2.28,1.78 -2.55,-1.4 0.01,1.4 2.4,1.22 -2.6,6.45 2.47,5.37 -5.57,0.01 -4.1,-3.9 -0.84,1.82 2.41,2.11 -0.34,3.92 -1.52,1.09 -0.33,-5.87 -4.91,-0.93 -0.85,-1.21 1.3,-1.37 -2.86,-0.01 0.41,-2.5 -4.05,-1.86 -0.09,-1.86 4.18,1.67 1.2,-2.87 -3.1,0.96 -2.35,-1.91 1.94,-3.48 -5.26,-10.35 h -2.85 l -2.57,-3.4 0.21,-1.98 -2.34,-0.16 -0.11,-3.96 -6.54,-2.77 1.2,-0.22 0.32,-3.75 -3.57,-2.66 -0.98,-3.8 1.47,-2.56 -2.3,-2.53 1.63,-0.57 -2.48,-2.71 2.08,-6.59 -2.83,-3.09 0.99,-1.88 2.24,0.06 -3.73,-3.23 2.28,0.19 2.44,-2.45 -5.67,-0.13 0.4,-1.09 -2.47,-1 -0.13,-3.26 1.74,-0.94 -1.3,-0.4 -0.67,-5.92 -2.07,-2.12 0.82,-3.16 -1.41,-0.57 -0.07,-4.64 -1.94,-2.43 1.3,-2.22 2.42,0.54 15.33,8.55 7.78,-4.15 4.65,1.9 1.27,3.68 6.59,1.24 3.32,-4 4.28,-0.73 2.16,1.31 1.59,-1.31 0.42,-3.99 -3.17,-3.03 0.73,-1.31 3.21,0.65 0.76,-1.74 z"
     class="land"
     title="Istarska županija"
     id="HR-18" />
  <path
     style="fill:#cccccc;fill-opacity:1;stroke:#ffffff;stroke-width:0.5;stroke-opacity:1"
     inkscape:connector-curvature="0"
     d="m 468.47248,560.59474 0.41,2.24 -3.51,-1.95 z m -5.34,-1.19 1.16,1.25 -2.68,0.53 -2.54,-2.13 1.48,0.39 0.96,-1.6 z m -16.46,-8.76 3.78,1.55 v 1.42 l -3.54,-2.56 z m 2.85,-0.97 2.15,0.1 6.27,4.54 -0.32,3.37 z m -99.66,-2.12 6.84,0.17 0.33,2.43 -3.45,3.54 -1.87,0.53 -1.94,-1.95 -2.71,1.99 -2.96,-3.54 1.26,0.38 0.99,-4.41 z m 52.08,-4.2 2.7,-0.11 -2.66,1.32 0.78,0.79 6.35,-0.11 16.15,5.93 0.28,1.18 4.47,-0.15 0.75,1.18 1.94,-0.95 0.29,1.52 7.87,2.26 0.51,2.83 -10.95,-3.87 -14.14,-2.22 -5.34,-2.96 -1.51,1.22 -3.55,-2.53 -2.14,-0.58 -0.05,1.48 -5.95,-2.58 0.34,-1.62 z m -69.89,-26.91 16.02,4.92 6.09,-1.97 14.42,-1.37 -0.27,0.97 6.71,2.09 2.67,-0.66 2.52,5.02 4.44,1.55 -8.7,1.42 -7.52,-2.39 -7.63,-0.44 -11.48,4.89 -1.68,-0.59 0.54,-1.27 -8.13,0.31 -10.74,-3.53 -0.69,1.9 -2.43,-2.94 3.1,-0.9 -0.65,-1.42 4.92,-0.55 -5.73,-3.98 -1.01,1.59 -1.8,-1.55 z m 32.44,-7.66 6.42,3.12 10.12,-0.23 13.7,3.23 14.77,7.2 0.65,3.33 4.18,2.62 4.07,0.99 -1.38,-2.97 1.08,-0.08 12.57,7.5 3.22,0.17 5.38,5.09 1.31,-0.13 -4.67,-4.7 -4.93,-2.62 0.95,-1.65 3.36,-3.68 3.54,0.61 6.45,4.28 2.55,-4.03 3.64,3.04 2.19,8.27 2.41,0.77 -0.55,3.32 6.05,1.63 4.68,2.94 1.28,3.09 3.45,0.76 6.66,4.98 -0.11,3.41 4.28,1.18 1.23,3.27 2.81,-0.35 7.29,8.7 7.4,-3.42 4.51,0.59 7.12,7.27 1.84,8.05 -0.89,4.01 7.04,8.04 -0.8,2.5 -5.73,-6.78 -2.34,-0.14 -19.99,-14.6 -1.26,-2.33 0.69,-3.49 -2.27,-3.14 -2.86,1.06 -5.63,-3.6 -6.76,-1.51 1.17,-2.54 -20.13,-13.12 1.14,-3.48 -2.17,1.6 -2.41,-3.85 -4.92,-0.58 -1.33,2.84 -4.11,-3.16 2.72,4.37 -1.03,2.4 -2.16,-4.38 -3.24,-0.55 -3.15,-2.81 -2.03,0.58 -21.67,-7.72 -1.82,-1.07 2.27,-2.41 -3.39,-2.62 -5.79,-0.37 -15.04,-9.54 -8.64,1.03 -6.75,-1.48 -5.48,-3.13 1.93,-2.51 -1.98,-0.49 z m 48.48,-16.14 16.81,10.27 7.45,16.42 -10.18,4.37 -7.94,-0.06 -6.7,-6.65 0.94,-2 -2.25,-3.16 -2.78,1.37 -0.92,-7.37 -1.49,3.8 -6.26,-7.41 v 0 l 2.67,-2.99 0.06,-2.88 -3.57,-1.15 -0.16,-2.02 2.17,-1.09 5.26,1.3 3.57,-3.34 v 0 z"
     class="land"
     title="Dubrovačko-neretvanska županija"
     id="HR-19" />
  <path
     style="fill:#cccccc;fill-opacity:1;stroke:#ffffff;stroke-width:0.5;stroke-opacity:1"
     inkscape:connector-curvature="0"
     d="m 301.73248,2.2847368 9.1,3.34 3.3,4.2300001 13.57,2.5300001 6.5,10.4 1.74,-1.08 2.6,3.05 3.96,-0.91 5.78,4.86 v 0 l -2.45,9.98 -2.41,0.36 -0.52,-3.78 -1.47,1.91 -0.55,-1.39 -1.8,0.93 v 0 l -4,-0.75 0.57,-2.83 -3.46,2.59 -2.17,-2.03 -7.96,2.08 -4.54,-3.47 -1.88,2.57 -2.95,-0.16 -0.18,1.06 -5.82,-1.21 -0.66,-1.87 -3.73,2 -1.22,-1.39 -3.79,-0.02 -3.21,-5.31 -4.19,-2.2 v 0 l 1.79,-3.81 -3.79,-4.67 -2.12,-9.2300001 1.85,-3.4900001 7.34,-1.79 0.56,-1.87999995 2.06,-0.2 1.04,1.70999995 1.96,-2.00999995 z"
     class="land"
     title="Međimurska županija"
     id="HR-20" />
  <path
     style="fill:#cccccc;fill-opacity:1;stroke:#ffffff;stroke-width:0.5;stroke-opacity:1"
     inkscape:connector-curvature="0"
     d="m 275.84248,86.244737 2.32,4.8 0.17,5.91 2.52,1.16 3.17,7.330003 -3.07,1.59 -0.51,4.91 -5.54,-1.58 -1.08,2.31 -10.63,6.68 -1.18,4.11 -2.47,0.45 -0.91,5.94 -3.56,7.57 -2.1,1.74 h -3.74 l 0.36,-3.3 -3.72,-3.67 -9.23,-4.39 -0.86,-3.81 3.1,-4.21 4.91,3.18 1.78,-1.38 0.72,-3.01 -5.42,-3.58 2.09,-2.58 -1.78,-6.01 1.74,-3.34 11.64,-7.650003 v 0 l 13.1,-7 3.5,-0.36 0.7,-1.9 z"
     class="land"
     title="Grad Zagreb"
     id="HR-21" />
</svg>
