<?xml version="1.0" encoding="UTF-8" standalone="no"?>
<?xml-stylesheet type="text/css" href="/styles/home.css"?>
<!-- https://www.amcharts.com/svg-maps -->

<svg version="1.1" xmlns="http://www.w3.org/2000/svg" id="map-czechRepublic"
   viewBox="0 0 612.62207 612.62207" width="612.62207" height="612.62207" class="">



  <defs
     id="defs4">
    <style
       type="text/css"
       id="style2">
			.land
			{
				fill: #97d3b7;
				fill-opacity: 1;
				stroke:white;
				stroke-opacity: 1;
				stroke-width:0.5;
			}
         .rectangle:hover {
         fill: #bdbdbd;
         cursor: pointer;
         }
		</style>
    <!-- <amcharts:ammap projection="mercator" leftLongitude="12.090946" topLatitude="51.055243" rightLongitude="18.859518" bottomLatitude="48.551226"></amcharts:ammap> -->
    <!-- All areas are listed in the line below. You can use this list in your script. -->
    <!--{id:"CZ-JC"},{id:"CZ-JM"},{id:"CZ-KA"},{id:"CZ-KR"},{id:"CZ-LI"},{id:"CZ-MO"},{id:"CZ-OL"},{id:"CZ-PA"},{id:"CZ-ZL"},{id:"CZ-PL"},{id:"CZ-PR"},{id:"CZ-ST"},{id:"CZ-US"},{id:"CZ-VY"}-->
  </defs>
  <rect id="background" class="rectangle" stroke-width="0" stroke="#000" width="612.62207" height="612.62207" y="0" x="0" fill="#d3d3d3" />
  <path
     d="m 151.50453,353.33722 9.66,-1.5 5.43,3.27 5.9,-2.44 3.73,-5.75 3.08,0.44 -0.07,3.89 4.76,0.18 7.64,-0.59 1.56,-4.28 4.31,-0.49 5.19,5.5 7.44,-1.44 -0.67,-2.99 5.26,3.77 1.15,-1.99 7.5,1.99 2.62,-1.77 -0.65,3.56 4.69,-0.17 1.14,2.22 3.24,-4.84 4.8,-1.43 -0.57,-6.76 3.43,-3.4 7.05,6.4 2.86,-1.55 1.28,4.65 3.72,0.43 v 0 l 0.92,3.59 -3.8,1.3 2.96,4.36 -4.07,14.84 4.08,2.89 -2.64,3.15 6.77,8.02 4.61,-2.95 6.73,3.74 -0.34,2.83 -2.3,-0.56 4.36,0.77 1.46,3.59 4.62,-2.07 5.56,4.27 8.09,-1.55 -0.45,6.92 7.9,6.7 1.55,-2.06 2.39,1.87 8.98,-1.3 2.68,7.4 -3.93,-0.25 -1.73,7.04 -4.18,3.85 8.89,6.71 v 0 l -4.09,5.57 v 0 l -6.53,-6 -17.14,-5.92 -1.56,5.67 -9.13,1.53 -0.41,-6.97 -14.49,-3.02 -1.06,23.7 -2.81,6.11 2.06,3.99 -15.07,-1.41 -0.12,6.18 -7.34,6.38 -2.32,14.31 -3.32,0.07 -4.82,-6.39 -4.52,3.32 -5.31,-1.73 -2.96,-4.24 -2.35,0.71 -1.23,7.42 -3.9,-0.64 0.18,2.86 -2.84,-0.33 -2.15,3.08 -5.62,-3.99 -18.51,-1.9 -5.11,-6.01 4.45,-4.78 -16.79,-12.73 -5.56,-0.93 -6.73,-15.29 -5.99,0.83 -3.78,-9.43 -1.92,1.51 -2.54,-4.47 -2.68,0.35 v 0 l -0.6,-7.09 5.43,-5.03 -1.42,-12.47 3.77,1.4 5.77,-3.76 -0.2,-3.3 2.47,-1.14 -2.45,-3.98 3.31,-4.61 -2.61,-3 2.44,0.2 -0.41,-4.53 4.51,-1.95 1.64,-5.5 -2.86,-4.77 2.58,-4.88 -3.47,-7.24 z"
     class="land"
     title="Jihočeský"
     id="CZ-JC"
      />
  <path
     d="m 502.56453,444.60722 -9.15,5.22 -8.51,-4.03 -8.01,4.4 -3.91,-4.23 -11.38,-4.32 -13.65,15.01 -9.35,20.16 -2.03,-0.85 -1.49,-12.98 -9.2,1.63 -6.81,-4.37 -3.88,1.34 -1.65,-7.23 -6.32,-0.15 -4.82,-4.35 -8.25,1.92 -6.31,9.67 -3.43,-2.42 -0.9,2.08 -20.69,-1.87 -9.9,-4.58 -3.89,-3.63 0.61,-2.46 -5.78,-1.57 -4.89,-5.84 -5.47,0.37 -2.42,3.18 -5.42,-0.53 -6.74,-5.59 -6.93,-1.63 v 0 l 4.1,-5.57 v 0 l 2.38,-1.37 3.28,2.83 1.15,-3.53 4.05,-0.55 2.09,2.88 7.99,-8.79 5.14,0.23 0.89,-4.1 2.93,1.32 3.9,-3.71 3.21,4.06 3.32,-2.9 4.82,2.31 14.61,-9.49 2.01,-3.99 -0.91,-2.12 -2.21,1.05 -0.87,-3.78 4.36,-4.95 -3.28,-1.63 1.37,-5.55 3.18,-0.69 -2.58,-4.67 2.73,-4.63 8.8,-4.77 -1.96,-11.64 2.23,-4.54 -3.23,-3.25 2.89,0.89 2.96,-4.25 -4.13,-3.9 1.64,-4.2 v 0 l 1.35,1.2 3.25,-3.69 8.94,1.31 1.36,-5.65 22.51,4.37 v 0 l -0.82,3.52 -4.5,-1.1 -0.81,5.42 8.72,1.6 -4.1,3.06 0.83,7.3 2.82,2.88 -2.88,3.31 5.7,4.27 4.7,-7.27 -2.78,-6.38 5.32,-1.28 5.41,13.24 3.73,1.05 0.94,-2.52 -1.77,5.73 9.72,5.26 1.76,6.94 v 0 l -2.66,4.08 3.33,7.54 -1.83,2.1 5.1,0.14 -8.25,13.35 9.4,-2.05 0.69,8.23 12.48,3.66 -0.58,3.82 3.68,-0.58 3.49,4.38 5.86,-2.42 4.64,2.94 -0.9,3.4 5.65,1.67 z"
     class="land"
     title="Jihomoravský"
     id="CZ-JM"
      />
  <path
     d="m 72.504543,224.70722 5.08,3.73 v 0 l 13.59,3.14 1.56,4.98 8.479987,-1.95 2.48,3.59 -1.42,13.11 3.05,2.21 -1.97,2.71 2.53,0.34 2.34,5.3 -1.95,1.51 1.54,2.81 -4.81,0.51 4,0.85 2.54,3.99 v 0 l -1.79,0.04 -0.03,6.59 -4.4,0.42 0.06,7.31 -12.299987,-5.32 -12.44,8.58 0.55,4.28 -3.47,3.13 -12.62,-2.72 -7.67,1.98 -2.03,4.83 -3.11,-3.49 -4.66,3.19 -3.93,-1.66 v 0 l -7.21,-5.34 1.67,-5.26 -2.67,-1.95 -2.56,1.48 -0.09,-2.5 -9.34,-4.22 -0.95,-2.85 -5.1,-0.78 1.26,-2.54 -6.8200001,-4.62 1.4600001,-8.34 -5.9300002,-9.47 -5.29000003,-1.93 4.38000003,-3.71 -3.53999998,-5.97 7.53999998,-0.58 1.4800001,7.03 4.8900001,0.25 1.01,2.87 -2.4,0.64 4.89,3.54 -0.34,6.21 4.25,0.57 -0.55,-9.72 2.64,-0.05 3.57,-11.28 8.16,-3.9 2.05,-6.71 14.5,-2.82 3.05,2.77 2.6,-4.98 5.41,-2.4 1.36,2.55 0.82,-4.03 z"
     class="land"
     title="Karlovarský"
     id="CZ-KA"
      />
  <path
     d="m 313.77453,175.61722 13.12,5.69 9.9,-2.6 4.15,11.5 11.67,-1.4 2.85,7.7 -3.19,2.37 3.3,2.06 7.18,-9.13 7.63,5.05 2.83,-0.96 1.45,-5.27 9.78,1.31 9.21,11.84 -3.59,1.45 -0.34,5.75 -3.62,3.78 -4.32,-0.72 -10.56,10.47 7.59,9.29 2.28,-2.23 5.09,0.49 1.99,7.13 4.77,1.11 11.1,14.05 2.15,10.99 v 0 l -8.46,-3.17 -1.57,4.05 -11.67,6.08 1.09,2.26 -3.98,2.28 1.95,2.94 -7.62,-0.3 -0.09,-1.8 -4.59,2.31 -10.95,-6.76 -1,-3.55 -4.81,0.05 -1.74,-6.41 -6.66,-1.9 -7.42,5.66 -5.47,-6.19 -7.81,6.95 -3.68,-2.12 -5.62,1 -1.64,-2.37 -4.12,2.06 -0.05,2.58 -7.18,1.65 v 0 l -2.43,-4.8 -6.08,-0.81 4.34,-7.01 -1.68,-12.57 -2.43,-2.24 -4.01,2.63 -9.01,-1.97 0.85,-3.31 -7.72,-3.72 -2.51,-4.52 4.88,-4.4 -3.94,-13.37 2.8,-2.82 v 0 l 7.07,4.01 3.91,-4.51 9.33,4.4 0.98,-1.83 1.13,4.01 4.5,-1.25 -0.5,-4.65 3.67,-3.52 5.3,4.64 8.71,-1.29 -5.54,-8.29 2.79,-4.74 -3.33,-3.25 0.78,-14.01 -3.61,-6.24 v 0 z"
     class="land"
     title="Královéhradecký"
     id="CZ-KR"
      />
  <path
     d="m 264.93453,140.29722 7.65,1.88 -0.01,3.08 3.35,-0.31 2.46,-4.04 1.84,5.71 4.63,-2.62 4.63,6.4 -2.16,3.12 0.83,6 8.17,7.82 0.48,8.14 5.82,-4.28 8.73,4.01 v 0 l 3.61,6.24 -0.78,14.01 3.33,3.25 -2.79,4.74 5.54,8.29 -8.71,1.29 -5.3,-4.64 -3.67,3.52 0.5,4.65 -4.5,1.25 -1.13,-4.01 -0.98,1.83 -9.33,-4.4 -3.91,4.51 -7.07,-4.01 v 0 l -3.99,-1.36 -3.25,-5.47 -2.31,0.86 -3.07,-5.62 -3.4,1.81 -3.93,-3.85 -12.49,15.37 -5.48,-1.24 -3.18,5.4 -9.09,0.99 -1.12,-5.23 -2.74,2.11 -3.3,-1.91 -0.88,2.43 -1.55,-1.84 v 0 l -9.37,-13.42 -2.8,-10.71 2.66,-2.19 -0.05,-4.14 4.72,-2.23 -0.21,-4.29 2.69,-2.05 -1.23,-4.42 9.79,1.94 1.48,-5.73 4.63,-2.92 v 0 l 13.51,5.57 2.67,-0.4 3.03,-7.32 15.36,0.93 -1.12,-8.02 2.93,-6.31 -4.83,-3.34 z"
     class="land"
     title="Liberecký"
     id="CZ-LI"
      />
  <path
     d="m 510.63453,243.09722 -1.18,6.19 3.59,2.96 -0.58,4.17 -14.97,6.59 5.18,6.84 4.27,-0.77 2.98,2.67 4.27,10.98 4.58,1.24 3.75,5.35 4.57,-0.75 7.65,-5.66 3.67,1.88 -0.06,-4.39 -3.63,-0.31 2.65,-3.83 5.03,3.1 2.41,6.89 3.45,1.71 4.75,-2.2 0.74,3.66 5.66,1.04 3.77,6.93 3.01,-2.71 -1.69,-1.99 8.71,1.48 5.34,4.76 7.56,-2.42 -0.63,5.76 3.56,2.62 -3.12,4.7 4.96,14.69 7.56,2.51 2.97,3.97 6.19,0.34 4.4,17.2 -1.59,4.07 -7.66,4.29 -17.2,-2.5 -8.14,13.72 -6.41,1.8 v 0 l -3.58,-1.28 0.11,-3.7 -6.2,-8.13 -8.76,0.13 -6.76,-4.27 -11.7,2.34 -2.21,-4.74 -5.23,-0.1 v 0 l -0.98,-3.61 -4.56,1.82 0.82,-4.13 -10.68,-13.3 -4.81,-0.05 0.4,-8.14 -5.7,-2.34 -3.43,2.57 -5.48,-3.81 -1.35,2.89 -3.34,-2.57 -4.89,0.39 -6.45,-7.88 -3.05,2.01 -6.6,-3.91 -3.16,1.09 0.78,-5.74 -3.49,2 -3.47,-4.67 4.76,-11.19 -4.08,-3.49 7.28,-11.18 0.64,-11.37 6.21,-6.23 2.7,0.43 3.47,-5.34 3.55,1.85 1.2,-6.34 v 0 l 5.75,-2.94 10.83,1.23 6.6,-4.85 -0.02,-3.84 z"
     class="land"
     title="Moravskoslezský"
     id="CZ-MO"
      />
  <path
     d="m 436.42453,222.80722 5.19,3.68 12.24,1.88 3.02,3.4 5.46,-0.68 -0.26,3.01 4.32,4.52 3.97,2.06 5.22,-1.44 0.05,8.91 3.68,-2.5 3.65,4.04 v 0 l -1.2,6.34 -3.55,-1.85 -3.47,5.34 -2.7,-0.43 -6.21,6.23 -0.64,11.37 -7.28,11.18 4.08,3.49 -4.76,11.19 3.47,4.67 3.49,-2 -0.78,5.74 3.16,-1.09 6.6,3.91 3.05,-2.01 6.45,7.88 4.89,-0.39 3.34,2.57 1.35,-2.89 5.48,3.81 3.43,-2.57 5.7,2.34 -0.4,8.14 4.81,0.05 10.68,13.3 -0.82,4.13 4.56,-1.82 0.98,3.61 v 0 l -1.35,3.78 -5.24,-1.61 -5.88,8.9 v 0 l -0.47,2.94 v 0 l -4.7,-0.04 -2.51,-3.48 -2.57,3.28 -1.41,-1.68 v 0 l -2.29,0.31 2.48,4.66 v 0 l -1.92,2.23 -11.34,-0.31 1.06,2.51 -3.79,3.95 -2.31,-3.3 -6.68,-0.19 -0.44,-4.71 -3.25,4.26 2.02,5.53 -5.59,5.77 -9.03,0.72 -1.49,3.96 -1.71,-0.94 v 0 l -1.77,-6.94 -9.72,-5.26 1.78,-5.73 -0.94,2.52 -3.73,-1.05 -5.41,-13.24 -5.31,1.27 2.77,6.38 -4.7,7.28 -5.69,-4.27 2.87,-3.31 -2.82,-2.89 -0.83,-7.3 4.09,-3.05 -8.72,-1.6 0.81,-5.42 4.5,1.1 0.83,-3.52 v 0 l -0.1,-7.82 3.88,-3.53 0.11,-4.9 -5.26,-1.51 1.35,-5.69 -6.17,-8.61 2.86,-6.46 -5.02,-17.3 3.32,0.59 5.72,-5.18 -0.61,-10.76 5.44,-12.73 v 0 l 10.03,-6.5 2.1,4 2.63,-1.91 -2.25,-10.19 -5.06,-1.86 -3.41,-10.44 -4.58,-2.59 2.02,-4.99 z"
     class="land"
     title="Olomoucký"
     id="CZ-OL"
      />
  <path
     d="m 431.65453,257.51722 0.14,0.02 v 0 l -5.44,12.73 0.61,10.76 -5.72,5.18 -3.32,-0.59 5.02,17.3 -2.86,6.46 6.17,8.61 -1.35,5.69 5.26,1.51 -0.11,4.9 -3.88,3.53 0.1,7.82 v 0 l -22.52,-4.37 -1.35,5.65 -8.94,-1.31 -3.26,3.69 -1.35,-1.2 v 0 l -17.75,-13.61 -8.18,-0.56 -9.27,-7.71 -3.6,6.75 -3.78,0.78 -6.47,-4.61 1.43,-3.67 -8.02,-1.63 0.64,-3.37 -4.03,0.2 -6.5,-5.1 -6.6,1.05 -8.67,-7.51 v 0 l 3.1,-14.14 -14.68,-10.69 3.04,-1.21 -1.96,-1.84 2.98,-0.38 -0.92,-3.44 2.2,-0.15 -1.87,-2.32 3.16,-0.1 v 0 l 7.18,-1.65 0.05,-2.58 4.12,-2.06 1.64,2.37 5.62,-1 3.68,2.12 7.81,-6.95 5.47,6.19 7.42,-5.66 6.66,1.9 1.74,6.41 4.81,-0.05 1,3.55 10.95,6.76 4.59,-2.31 0.09,1.8 7.62,0.3 -1.95,-2.94 3.98,-2.28 -1.09,-2.26 11.67,-6.08 1.57,-4.05 8.46,3.17 v 0 l 11.22,6.49 7.06,-6.8 2.66,-6.56 z"
     class="land"
     title="Pardubický"
     id="CZ-PA"
      />
  <path
     d="m 567.42453,368.39722 0.11,-3.7 -6.2,-8.13 -8.76,0.13 -6.76,-4.27 -11.7,2.34 -2.21,-4.74 -5.23,-0.1 v 0 l -1.35,3.78 -5.24,-1.61 -5.88,8.9 v 0 l -0.47,2.94 v 0 l -4.7,-0.04 -2.51,-3.48 -2.57,3.28 -1.41,-1.68 v 0 l -2.16,0.25 2.35,4.72 v 0 l -1.92,2.23 -11.34,-0.31 1.06,2.51 -3.79,3.95 -2.31,-3.3 -6.68,-0.19 -0.44,-4.71 -3.25,4.26 2.02,5.53 -5.59,5.77 -9.03,0.72 -1.49,3.96 -1.71,-0.94 v 0 l -2.66,4.08 3.33,7.53 -1.83,2.1 5.1,0.14 -8.26,13.35 9.41,-2.05 0.68,8.23 12.48,3.65 -0.58,3.82 3.68,-0.58 3.49,4.39 5.86,-2.42 4.64,2.94 -0.9,3.4 5.65,1.67 4.21,7.89 v 0 l 5,-0.81 7.14,-8.79 9.08,-0.48 4.29,-12.93 12.63,-2.17 4.19,-7.81 2.76,-21.2 3.47,-5.52 16.35,-5.2 3.44,-3.72 0.09,-6.3 z"
     class="land"
     title="Zlínský"
     id="CZ-ZL"
      />
  <path
     d="m 109.54453,271.53722 2.96,1.69 1.92,-2.1 1.49,3.36 3.39,-1.6 v 0 l 1.88,3.83 -2.83,4.23 10.44,-1.32 1.92,1.43 -3.05,0.63 6.08,4.55 8.87,-0.31 2.99,4.57 4.24,-0.12 -0.36,3.51 7.96,1.78 0.23,8.3 -2.37,0.03 -2.27,14.92 3.27,0.99 -13.26,8.02 0.77,2.85 4.24,-0.42 -3.66,2.34 2.72,2.34 -0.85,2.3 4.15,1.15 -1.5,10.47 2.43,-0.05 0.16,4.43 v 0 l -1.52,3.77 3.47,7.24 -2.58,4.88 2.86,4.77 -1.64,5.5 -4.51,1.95 0.41,4.53 -2.44,-0.2 2.61,3 -3.31,4.61 2.45,3.98 -2.47,1.14 0.2,3.3 -5.77,3.76 -3.77,-1.4 1.42,12.47 -5.43,5.03 0.6,7.09 v 0 l -3.89,-0.2 -1.09,3.83 -8.37,-6.25 -0.91,-9.21 -9.41,-8.93 -4.86,0.64 -5.139987,-3.19 -0.62,-4.9 -12.5,-12.71 -0.43,-5.47 -5.15,-4.14 -17.24,-1.77 -2.16,-6.66 -9.04,-5.5 -1.2,-12.38 -4.91,-2 -2.66,-11.35 -2.92,0.21 -0.57,-9.49 -7.21,-2.39 -3.46,-5.44 -0.16,-2.54 6.4,-3.6 0.21,-6.87 6.91,-9.75 v 0 l 3.93,1.66 4.66,-3.19 3.11,3.49 2.03,-4.83 7.67,-1.98 12.62,2.72 3.47,-3.13 -0.55,-4.28 12.44,-8.58 12.299987,5.32 -0.06,-7.31 4.4,-0.42 0.03,-6.59 z"
     class="land"
     title="Plzeňský"
     id="CZ-PL"
      />
  <path
     d="m 220.72453,261.54722 0.17,0.32 v 0 l 2.66,1.64 -1.46,1.46 4.19,-1.1 0.57,3.38 9.4,5.3 -0.44,2.85 -5.38,2.15 1.8,1.55 v 0 l 0.7,3.83 v 0 l -2.49,3.52 -5.22,-3.14 -4.84,0.77 -6.08,5.36 -5.47,0.42 -0.43,3.88 -6.48,-2.44 1.68,-4.54 -3.17,-0.68 -0.38,-4.77 -5.05,-4.21 4.16,-2.5 -6.43,-3.47 7.42,-3.84 0.62,2.07 4.56,-0.24 0.43,-4.49 14.85,-3.3 v 0 z"
     class="land"
     title="Prague"
     id="CZ-PR"
      />
  <path
     d="m 216.38453,214.17722 1.55,1.84 0.88,-2.44 3.3,1.91 2.74,-2.11 1.12,5.23 9.09,-0.99 3.18,-5.4 5.48,1.25 12.5,-15.37 3.92,3.85 3.4,-1.8 3.07,5.61 2.31,-0.85 3.25,5.46 3.99,1.36 v 0 l -2.8,2.82 3.94,13.37 -4.88,4.4 2.51,4.52 7.72,3.71 -0.85,3.32 9.01,1.96 4.01,-2.63 2.43,2.24 1.68,12.56 -4.34,7.01 6.08,0.82 2.43,4.79 v 0 l -3.16,0.1 1.87,2.32 -2.2,0.15 0.91,3.44 -2.97,0.38 1.96,1.84 -3.05,1.21 14.68,10.69 -3.1,14.14 v 0 l -6.93,4.06 0.1,5.57 -3.55,-1.03 -3.15,4.27 -11.39,2.32 -3.92,9.01 0.7,2.76 4.4,0.54 0.68,5.78 -6.46,1.27 -0.8,3.39 -4.05,-2.99 -5.58,2.32 -6.88,-1.66 0.61,3.6 -4.18,0.11 -0.65,4.02 v 0 l -3.72,-0.43 -1.28,-4.66 -2.86,1.56 -7.05,-6.4 -3.44,3.4 0.58,6.76 -4.8,1.43 -3.25,4.85 -1.14,-2.22 -4.68,0.17 0.64,-3.56 -2.61,1.76 -7.5,-1.99 -1.15,1.99 -5.26,-3.77 0.67,2.99 -7.43,1.44 -5.2,-5.5 -4.3,0.49 -1.56,4.28 -7.64,0.6 -4.76,-0.18 0.06,-3.89 -3.07,-0.44 -3.73,5.75 -5.9,2.44 -5.43,-3.28 -9.66,1.5 v 0 l -0.16,-4.43 -2.43,0.06 1.5,-10.47 -4.15,-1.16 0.85,-2.3 -2.72,-2.34 3.66,-2.34 -4.24,0.42 -0.77,-2.84 13.26,-8.02 -3.27,-0.99 2.27,-14.92 2.37,-0.03 -0.23,-8.3 -7.97,-1.78 0.36,-3.52 -4.24,0.13 -2.98,-4.57 -8.87,0.31 -6.08,-4.55 3.06,-0.63 -1.93,-1.43 -10.43,1.32 2.83,-4.23 -1.88,-3.84 v 0 l 1.41,-2.63 3.36,0.35 0.71,-3.66 1.8,0.69 -0.22,-5.49 5.29,-3.58 5.55,-0.08 5.65,-5.83 7.19,1.35 5.7,-5.54 4.73,2.85 1.13,-3.79 7.08,-3.03 -0.33,-2.19 3.56,0.51 -0.86,-4.26 2.31,-1.81 21.7,2.49 2.41,-3.62 8.23,0.42 -0.59,-11 5.6,0.99 0.15,-4.4 4.48,0.54 -1.49,-6.73 z m 15.85,64.92 v 0 l -1.79,-1.54 5.37,-2.15 0.44,-2.85 -9.39,-5.3 -0.58,-3.38 -4.19,1.1 1.46,-1.46 -2.67,-1.63 v 0 l -0.28,-0.55 v 0 l -14.85,3.31 -0.43,4.49 -4.56,0.24 -0.61,-2.07 -7.42,3.84 6.43,3.47 -4.16,2.5 5.05,4.21 0.38,4.77 3.17,0.67 -1.68,4.54 6.48,2.44 0.42,-3.88 5.47,-0.42 6.08,-5.36 4.84,-0.77 5.23,3.14 2.49,-3.52 z"
     class="land"
     title="Středočeský"
     id="CZ-ST"
      />
  <path
     d="m 203.00453,138.03722 2.48,-0.76 5.01,3.76 3.26,-2.48 3.45,1.8 0.71,-3.34 -0.18,3.53 5.96,1.78 3.28,4.24 -3.15,8.81 7.62,-1.86 -2.75,10.5 v 0 l -4.63,2.92 -1.48,5.73 -9.79,-1.94 1.23,4.42 -2.69,2.05 0.21,4.29 -4.72,2.23 0.05,4.14 -2.66,2.19 2.8,10.71 9.37,13.42 v 0 l -2.53,1.25 1.49,6.73 -4.47,-0.54 -0.16,4.4 -5.59,-0.99 0.59,11.01 -8.23,-0.43 -2.41,3.62 -21.7,-2.49 -2.3,1.81 0.86,4.27 -3.57,-0.51 0.33,2.19 -7.08,3.03 -1.13,3.79 -4.73,-2.85 -5.7,5.55 -7.18,-1.36 -5.65,5.84 -5.56,0.08 -5.29,3.58 0.22,5.48 -1.8,-0.69 -0.71,3.66 -3.37,-0.35 -1.41,2.63 v 0 l -3.39,1.6 -1.49,-3.36 -1.92,2.1 -2.96,-1.69 v 0 l -2.54,-3.99 -4,-0.85 4.81,-0.51 -1.54,-2.81 1.95,-1.51 -2.34,-5.3 -2.53,-0.34 1.97,-2.71 -3.05,-2.21 1.42,-13.11 -2.48,-3.59 -8.479987,1.95 -1.56,-4.98 -13.59,-3.14 v 0 l 6.56,-6.21 1.01,-8.69 4.85,1.44 4.17,-2.67 5.739996,2.14 4.699991,-12.57 6.83,1.76 0.23,-3.91 4.65,-2.85 -0.42,-3.22 8.57,6.63 5.24,-5.11 0.16,-9.41 12.5,-3.72 3.86,2.05 1.77,-2.35 11.69,0.88 3.78,-2.42 0.18,-6.94 3.36,0.41 4.73,-4.18 3.64,2.24 4.26,-1.14 13.29,-6.85 0.85,-3.89 3.01,-1.1 3.35,1.58 7.54,-2.03 0.92,-5.43 -7.8,-2.66 1.3,-4.31 -5.94,-0.45 1.27,-7.35 3.72,-2.32 z"
     class="land"
     title="Ústecký"
     id="CZ-US"
      />
  <path
     d="m 308.05453,304.90722 8.67,7.51 6.6,-1.05 6.5,5.1 4.03,-0.2 -0.64,3.37 8.02,1.63 -1.43,3.67 6.47,4.61 3.78,-0.78 3.6,-6.75 9.27,7.71 8.18,0.56 17.75,13.61 v 0 l -1.63,4.2 4.13,3.9 -2.96,4.25 -2.89,-0.89 3.23,3.25 -2.24,4.54 1.97,11.64 -8.8,4.77 -2.73,4.63 2.57,4.67 -3.18,0.69 -1.37,5.55 3.28,1.63 -4.36,4.95 0.87,3.78 2.21,-1.05 0.91,2.13 -2.01,3.99 -14.61,9.49 -4.82,-2.31 -3.32,2.91 -3.21,-4.06 -3.89,3.71 -2.93,-1.32 -0.89,4.1 -5.14,-0.24 -8,8.8 -2.09,-2.89 -4.05,0.55 -1.15,3.53 -3.28,-2.83 -2.38,1.38 v 0 l -8.89,-6.71 4.18,-3.85 1.73,-7.04 3.93,0.25 -2.68,-7.4 -8.98,1.3 -2.39,-1.87 -1.55,2.06 -7.9,-6.7 0.45,-6.92 -8.09,1.55 -5.56,-4.27 -4.62,2.07 -1.46,-3.59 -4.36,-0.77 2.3,0.56 0.34,-2.83 -6.73,-3.74 -4.61,2.95 -6.77,-8.02 2.64,-3.15 -4.08,-2.89 4.07,-14.84 -2.96,-4.36 3.8,-1.3 -0.92,-3.59 v 0 l 0.65,-4.01 4.18,-0.12 -0.61,-3.6 6.88,1.66 5.58,-2.33 4.05,3 0.81,-3.4 6.46,-1.27 -0.68,-5.77 -4.4,-0.55 -0.69,-2.76 3.92,-9 11.39,-2.32 3.15,-4.27 3.55,1.03 -0.1,-5.58 z"
     class="land"
     title="Vysočina"
     id="CZ-VY"
      />
  <g
     id="stadiums"
     data-country="czech_republic"
     data-circle-radius="6"
     data-circle-colors="#a149be,#bea149" />
</svg>
