<?xml version="1.0" encoding="UTF-8" standalone="no"?>
<?xml-stylesheet type="text/css" href="/styles/home.css"?>
<!-- https://www.amcharts.com/svg-maps -->

<svg version="1.1" xmlns="http://www.w3.org/2000/svg" id="map-denmark"
   viewBox="0 0 980.48608 792.64435" width="980.48608" height="792.64435">
  <defs
     id="defs4">
    <style
       type="text/css"
       id="style2">
			.land
			{
				fill: #07bada;
				fill-opacity: 1;
				stroke:white;
				stroke-opacity: 1;
				stroke-width:0.5;
			}
		</style>
    <!-- <amcharts:ammap projection="mercator" leftLongitude="8.074878" topLatitude="57.751786" rightLongitude="15.157522" bottomLatitude="54.559212"></amcharts:ammap> -->
    <!-- All areas are listed in the line below. You can use this list in your script. -->
    <!--{id:"DK-84"},{id:"DK-82"},{id:"DK-81"},{id:"DK-85"},{id:"DK-83"}-->
  </defs>
  <path
     d="m 927.92323,615.42465 -0.13,1.36 3.86,3.11 2.54,5.86 7.01,3.71 1.23,2.23 5.22,2.1 1.9,1.89 1.11,0.48 3.56,-1.31 2.74,5.1 4.39,4.18 2.93,1.19 6.44,5.13 4.14,1.74 2.65,-0.18 1.11,2.4 1.18,0.19 0.18,2.5 -1.68,2.45 1.91,7.23 -2.67,3.52 0.08,2.81 -1.45,0.17 -0.55,2.32 -1.96,1.77 1.58,3 -0.14,2.98 -5.22,6.23 -16.46,-3.71 -3.96,-2.69 -1.48,0.09 -5.35,-4.1 -5.77,-2.54 -1.6,0.32 -5.19,-3.11 -2.48,0.35 -4.42,-2.67 -2.8,-3.79 -4.59,-2.84 0.96,-1.06 -0.61,-1.07 0.75,-1.73 -0.09,-3.59 1.13,-2.08 -0.9,-12.79 1.55,-9.54 5.66,-11 0.67,-2.25 -0.79,-2.37 2.98,-2.87 z m -282.29,-81.02 -0.77,-2.66 0.74,-0.37 0.49,-5.73 3.58,-2.15 1.48,2.93 0.53,9.23 0.91,0.64 -0.68,1.11 1.33,1.36 -4.19,0.95 -1.38,-3.65 -1.53,0.43 z m -14.7,-15.27 0.42,0.68 -2.09,1.64 1.36,2.44 -0.79,-2.3 1.47,-1.11 0.5,1.13 0.78,0.27 0.57,0.91 -1.38,1.8 -1.12,-0.57 0.22,1.6 3.44,6.42 -0.36,0.92 2.94,0.31 0.72,0.95 0.07,3.74 -1.6,2.24 0.7,2.6 0.99,0.36 -2.48,2.47 -4.44,1.32 -5.56,5.37 -3.88,-1.31 -0.95,-3.49 -2.22,0.49 -1.76,-1 -2.21,-4.3 -0.45,-3.52 6.02,-7.83 2.19,-5.04 5.04,-5.59 0.5,-3.25 2.31,-0.04 0.48,0.82 z m -89.62,-54.78 2.58,-0.44 2.77,1.95 0.32,1.73 -3.48,4.53 -0.48,4.59 0.54,1.19 3.94,1.77 1.18,8.8 1.96,1.38 -1.57,0.85 -0.08,1.8 0.41,0.72 2.06,-0.3 -0.8,3.15 2,4.39 -1.63,2.46 1.12,0.97 -0.15,5.59 -2.11,-0.8 -5.53,2.55 -0.09,-2.89 -1.42,0.69 -0.76,-2.17 -1.32,2.58 v 0 l -6.81,-3.72 -3.72,3.42 -4.05,-1.59 v 0 l -2.62,0.33 -0.09,-3.86 -0.78,0.31 -0.64,-1.27 0.96,0.15 0.74,-1.66 0.86,-8.36 1.98,-1.27 -0.12,-3.07 4.89,-1.59 1.15,0.95 2.72,-1.22 2.64,-7.36 -2.08,-4.81 -1.59,-0.84 -0.34,-4.27 -4.03,-6.52 0.51,-4.82 8.12,2.02 z m 44.94,-52.37 5.43,1.41 4.99,4.57 6.87,2.01 8.76,0.46 5.75,2.85 9.19,8.89 2.49,1.15 -1.31,0.41 0.15,1.34 -2.61,4.75 -4.54,4.32 -6.46,18.1 7.62,18.2 0.67,8.92 2.58,5.79 -0.49,3.36 1.22,3.67 -2.88,6.73 1.04,1.21 -0.48,2.8 0.86,0.75 1.63,-3.17 2.88,1.94 -0.2,0.83 -1.4,1.15 -2.13,-0.71 0.83,1.31 -1.43,0.27 1.21,3.72 -0.93,2.89 -4.35,3.87 -1.29,3.84 -1,2.03 -2.04,1.81 0.05,-1.49 -3.47,0.5 -1.75,3.97 1.36,1.22 -1.78,3.46 -5.91,-0.89 -0.53,-1.95 -0.31,-0.74 -5.54,-0.24 -0.97,0.46 -0.64,0.9 1.29,1.08 -5.04,3 v 0 l -1.11,-1.04 v 0 l -2.5,-2.34 -8.44,-3.49 -4.58,2.02 -1.11,-1.75 -2.74,0.83 -0.79,3.21 -6.89,-2.02 0.99,-5.23 -1.34,0.07 -0.93,-9.08 4.85,-4.21 3.68,0.25 5.36,-5.19 -5.03,-4.51 1.77,-3.28 -2.56,-2.57 -5.77,0.91 -10.75,-8.34 v 0 l -2.19,-1.4 0.67,-3.11 -1.39,-2.29 -0.72,-4.85 -0.77,0.16 -0.97,-3.54 -1.18,-0.46 0.64,-3.43 2.45,-0.51 0.35,-4.31 -2.82,-5.54 0.23,-3.57 -4.18,-11.15 -5.72,-1.76 -6.03,4.18 -5.89,2.01 -2.7,-0.8 -0.73,0.83 -1.71,-1.08 -1.37,-5.16 1.66,-2.39 21.2,-13.44 7.41,-6.98 16.2,-12.08 14.89,-5.23 3.13,-0.06 z"
     class="land"
     title="Hovedstaden"
     id="DK-84" />
  <path
     d="m 312.07323,499.70465 -0.81,5.47 -2.06,1.45 -3.66,-1.62 -4.69,0.31 -1.68,-1.21 1.92,-2.42 3.52,0.62 3.61,-1 -0.44,-1.62 1.97,-5.91 z m -33.11,-14.73 1.77,1.12 -2.65,1.88 -2.62,-1.17 -0.88,-2.06 2.31,-1.05 z m 50.54,-29.21 -2.18,1.21 -1.28,-0.32 -3.66,-3.69 8.31,1.89 z m -321.149995,-13.26 3.24,11.32 2.01,1.56 -0.49,5.35 0.99,0.86 0.1,3.22 -0.74,2.43 1.83,4.71 -0.61,2.13 2.41,2.46 -3.09,4.77 0.22,4.72 1.93,1.96 v 0 l -2.6,0.48 v 0 l -4.35,-34.61 -3.25,-10.62 z m 338.869995,13.89 3.2,4.14 6.44,3.07 -1.14,1.44 -1.89,-0.87 -2.81,1.63 1.11,3.88 1.73,0.56 -0.65,1.08 0.96,1.75 1.62,0.94 4.62,-2.31 0.25,3.11 -2.81,2.7 -2.46,5.51 0.2,9.96 -3.02,7.98 -5.64,-1.33 -3.96,0.23 -1.96,-2.19 -1.29,-4.1 0.23,-13.99 2.6,-2.98 3.89,-0.33 0.94,-0.9 2.34,-9.33 -0.83,-2.97 -2.18,-2.85 -3.02,-1.92 -2.9,0.4 -0.95,-1.56 -0.93,-8.96 5.48,-5.8 1.32,10.41 z m -266.589995,-158.14 -0.73,1.11 -1.52,-0.12 1.57,1.9 -2.48,4.28 0.42,7.11 -2.29,2.57 1.39,-2.57 -2.46,-7.27 3.77,-6.79 z m -10.06,-26.79 1.1,2.15 -1.37,1.32 -1.56,5.04 2.01,3.21 1.55,0.65 0.39,-2.75 -1.85,-0.76 0.9,-2.37 2.81,-0.23 2.61,1.23 1.47,-0.71 -1.7,3.76 1.01,1.61 -0.73,2.85 1.11,2.08 -3.89,-3.81 -2.09,-0.23 -1.15,8.97 -5.22,0.17 -2.69,1.77 0.11,1.67 2.62,1.03 0.46,1.13 -3.44,-0.73 -1.89,-2.13 -4.41,-11.23 -7.85,-7.59 -3.08,-1.53 v 0 l 0.16,-1.37 v 0 l 2.83,1.32 2.55,-2.46 3.53,-1.17 1,0.55 0.91,2.73 3.24,1.24 4.47,-4.1 1.69,0.1 0.77,-1.33 2.37,0.77 0.73,-1.5 z m 424.409995,-12.41 1.82,0.46 -6.39,4.56 -5.78,7.16 -5,0.04 -4.26,-6.88 3.37,-2.44 4.43,0.83 z m -357.47,-16.39 6.36,4.32 -0.75,1.85 0.5,2.28 2.83,7.3 6.06,8.11 -5.62,4.48 -1.93,3.15 -0.38,2.72 -2.85,-0.24 1.11,6.15 -3,0.18 -4,3.91 -1.67,8.56 1.72,5.72 0.23,1.82 -0.92,0.36 1.07,1.27 2.56,-0.02 2.18,-3.1 0.44,-8.5 2.75,-1.25 1.23,1.73 1.59,0.32 2.23,-2.53 0.02,-2.25 -3.48,0.7 -2.24,-1.07 3.78,-3.39 1.92,-5.37 0.62,2.46 -0.79,2.51 2.84,3.46 2.07,0.16 3.44,-2.25 7.38,0.41 -0.83,0.36 0.61,0.98 1.32,-0.61 1.73,0.84 1.49,3.21 -0.68,-0.05 -0.05,1.76 -4.6,2.34 -1.58,4.79 1.36,0.61 0.73,3.98 1.94,2.86 2.93,2.65 1.78,0.05 -1.17,3.25 5.05,-5.07 4.59,1.38 -0.56,-4.09 1.23,-3.78 -2.34,0.11 -2.66,2.13 -4.08,1.45 -1.72,-0.3 -1.34,-2.76 1.45,-7.92 -0.76,-2.49 2.63,-2.67 0.13,-4.52 1.8,-4.5 -0.74,-5.01 v 0 l 4.77,0.2 1.56,2.2 4.24,-0.69 -0.16,2.99 4.96,3.53 3.43,0.63 3,-9.47 2.12,-0.16 0.42,-1.79 4.13,0.44 -0.35,2.26 1.42,0.14 1.18,1.93 -1.8,1.7 0.39,1.45 5.1,0.61 -0.56,3.36 4.58,1.56 3.97,-0.77 6.18,0.88 0.76,3.54 -4.37,1.49 -0.13,7.14 4.67,-2.55 4.94,1.25 5.22,7.45 6.24,-1.56 5.12,2.8 6.39,-1.41 1.31,-4.55 8.37,-1.71 1.46,-3.92 2.67,1.43 8.75,-2.68 6.29,-4.37 3.94,-1.16 1.02,-5.67 4.87,-1.45 -0.23,-3.12 5.53,-3.52 -0.35,-1.49 v 0 l 1.49,0.63 6.45,-4.09 4.51,1.21 3.51,-1.93 4,-0.1 2,2.17 1.4,7.82 -1.83,0.92 1.28,4.79 -2.17,3.98 -6.27,3.49 -2.17,4.48 -2.47,0.79 -2.51,2.55 -1.5,4.85 -2.02,0.91 -0.84,3.01 1.76,9.88 -2.01,6.77 -11.68,4.48 -1.31,-0.48 -0.35,-1.47 -4,-0.45 -7.27,2.95 0.05,0.3 7.48,-2.35 5.86,2.06 7.49,-3.27 4.63,-1.37 4.19,1.75 6.16,-0.42 -7.61,-1.24 -0.88,-1.4 -0.36,-10.11 1.6,-6.93 1.49,-0.78 0.05,-1.99 2.77,-4.33 4.09,-3.73 -0.03,-3.98 1.14,0.17 1.08,1.41 3.42,1.34 1.46,6.86 7.24,8.8 2.98,2.02 11.09,3.04 7.26,-0.37 15.39,-3.82 9.75,-0.77 3.56,-1.29 9.61,1.84 3.42,3.26 2.19,7.64 6.62,4.29 3.45,3.4 1.13,2.82 -0.43,2.05 -2.76,1.09 -1.38,3.04 0.33,3.21 -0.98,0.73 -0.8,6.41 -0.03,8.76 -7.06,10.89 -4.38,3.63 -2.85,7.02 -2.72,3.24 -3.32,1.03 -2.26,2.11 -1.64,2.97 -0.71,3.22 0.79,6.56 -3.55,9.46 -3.47,0.16 -1.25,-1.16 -0.32,-2.26 -4.52,-3.58 -1.04,-2.38 -0.03,-2.01 2.46,1.01 1.96,-1.63 1.09,-3.56 -1.83,-4.48 -1.19,-0.9 -5.63,-0.58 -3.97,2.1 -1.24,4.19 -4.71,5.27 -1.34,4.34 2.62,4.08 0.67,8.51 -1.64,2.81 -4.51,1.83 -4.35,-11.17 1.35,-1.59 3.57,0.28 1.64,-5.69 -1.11,-1.15 -2.08,1.17 -7.24,-3.43 -2.16,1.04 -2.51,3.77 -3.49,0.02 -2.24,-1.59 -0.86,-4.31 -3.52,-1.97 0.35,-1.81 1.51,0.57 6.46,-2.11 0.4,-2.48 2.45,-0.8 1.79,0.31 -2.06,2.5 1.29,1.94 4.36,0.56 2.05,-1.96 -1.73,-3.37 0.4,-1.14 -1.8,-1.15 -1.29,1.48 -0.24,-1.01 3.89,-4.07 1.36,-3.91 3.09,-0.3 -0.28,-3.31 -3.38,-1.96 -0.88,0.62 -2.84,-0.69 -0.12,-3.05 -1,1 -2.46,-1.09 -1.63,1.47 -3.6,-0.74 -1.06,0.82 0.92,2.76 -1.86,2.11 -1.98,-0.52 -2.19,2.25 1.01,3.71 -1.3,1.13 -0.64,-0.66 -0.24,2.81 -4.34,2.25 -3.47,6.38 -5.3,3.28 -2.12,4.57 0.74,0.72 -2.37,1.58 -0.07,1.73 1.84,-1.39 -1.2,3.97 3.13,-1.79 0.64,-2.33 0.6,1.05 0.04,1.11 -5.78,3.45 5.39,10.48 3.17,13.02 -0.51,4.01 -1.56,0.8 -0.19,-1.27 -1.38,0.43 -2.37,3.01 -1.87,0.77 3.33,-0.08 1.76,-2.85 3.35,-0.53 0.89,0.74 -3.88,6.79 -0.1,3.29 1.86,5.35 -1.18,11.59 -2.72,0.81 -4.2,5.15 -2.12,0.23 0.28,3.77 1.45,2.8 -1.71,1.7 0.84,2.67 -0.79,1.02 -4.63,-2.21 -2.36,-2.74 0.3,-3.89 -1.58,-1.9 -1.94,2.48 0.05,2.7 -2.08,-0.43 -3.16,3.12 -5.93,1.53 -0.2,-2.19 2.98,-4.42 7.64,1.35 0.51,-1.73 -1,-2.79 -5.35,-0.38 -4.84,2.05 -8.6,-1.05 -0.84,0.2 -0.89,2.98 0.64,2.01 -4.69,-0.63 -2.29,0.89 -3.3,-2.96 0.18,-1.25 1.19,-0.12 -0.44,-0.55 -6.22,-0.55 0.2,1 2.43,0.67 2.45,-0.57 0.67,2.66 -2.06,0.57 -0.83,1.38 0.44,2.27 1.97,1.26 14.89,4.22 2.74,-2.36 -0.48,1.99 0.7,0.45 -0.99,1.85 2.29,-1.52 3.14,0.49 1.76,3.3 -6.39,6.77 -0.33,3.68 1.08,1.71 7.17,1.43 0.72,1.8 -3.92,-0.07 -2.44,2.74 -4.85,1.62 -0.2,2.22 2.69,0.79 1.46,4.64 -2.37,-1.17 -5.13,1.52 -7.51,0.56 -5.44,1.53 -5.02,3.25 -3.69,1.1 -1.49,-2.22 -3.44,-0.88 -5.13,0.27 -4.28,-5.42 -2.2,-0.1 -3.81,-2.22 v 0 l 1.73,-5.82 -0.41,-3.33 -4.09,-2.48 -0.57,1.4 -3.22,-1.08 -3.1,1.54 -2.39,-2.96 1.64,-2.18 -1.52,-2.06 -0.86,1.62 -5.56,0.36 0.23,-2.54 -2.86,-0.51 -2.28,-10.15 -2.88,-0.07 0.06,-1.32 -4.99,-0.49 1.15,-3.77 -2.14,-0.93 2.77,-1.99 -10.2,-14.09 -0.04,-1.59 v 0 l -5.18,-3.35 -0.5,0.68 v 0 l 0.02,0.07 v 0 l -0.67,0.4 v 0 l -0.51,0.54 v 0 l -3.69,-1.67 -0.88,0.53 v 0 l -3.16,-0.34 -3.26,-3.75 -5.23,-0.3 -3.35,5.91 0.08,3.45 -6.33,8.18 -4.48,3.51 -2.8,-1.95 -3.66,8.06 -1.67,-1.53 -1.73,3.51 -2.24,-1.02 -2.86,2.44 -7.12,-3.66 1.07,-9.68 -11.63,-2.67 -2.27,0.08 -1.32,3.73 -2.21,-0.38 -2.28,8.44 -3.97,2.38 4.47,4.52 -9.379995,3.27 -5.05,-1.91 -1.99,-5.88 -4.4,-2.59 -11.51,3.3 -3.2,-3.14 -5.2,1.6 1.94,4.63 -1.31,2.28 -3.33,0.69 0.17,5.58 -2.66,2.65 -6.27,0.08 -1.2,-2.86 -3.54,-1.81 1.24,-0.88 -6.1,-0.61 -4.04,-5.1 -4.01,5.24 -5.21,-0.12 -1.8,1.06 -6.55,-5.1 0.12,-2.11 -6.18,-1.01 v 0 l 0.76,-4.96 1.63,-0.37 1.64,-2.51 -0.17,-2.25 -1.8,-1.64 2.46,-0.58 -1.01,-1.7 0.83,-2.43 2.87,0.53 0.06,1.12 -1.31,-0.13 2.81,3.48 0.66,-1.35 1.47,-0.39 2.87,1.37 -2.62,3.03 -0.35,4.8 1.64,1.2 0.78,-1.81 7.14,-4.89 7.8,-8.93 -1.9,-3.13 0.91,-1.14 -0.03,-5.64 -8.75,-12.51 -1.46,-10.41 0.24,-4.86 -10.16,-8.59 -9.7,-2.98 -4.68,-3.36 2.71,4.78 -2.07,3.6 -1.02,11.6 1.47,7.03 1.33,0.44 -2.12,0.93 -1.11,-0.48 -0.9,1.54 -2.21,-11.03 0.79,-15.21 3.39,-25.98 0.23,-9.93 -2.16,-30.37 2.22,0.07 0.45,0.56 -0.16,0.29 0.71,0.9 -1.66,3.89 0.39,5.09 4.79,-2.19 0.48,3.42 3.16,-0.92 2.24,1.67 4.21,-0.33 -0.37,1.79 1.23,3.12 -1.46,0.78 1.43,2.21 1.01,0.43 3.63,-2.36 3.38,-5.46 0.02,-0.79 -1.5,1.37 -5.89,-3.15 1.4,-1.17 -0.89,-3.06 -2.23,-2.83 -6.96,-5.4 -3.29,-8.31 0.95,-0.99 -0.7,-4.65 -2.39,0.86 -2.15,-1.79 -0.21,1.43 -0.8,-0.2 1.07,3.13 -1.22,1.12 1.07,3.24 0.03,1.22 0.6,2.46 -1.54,-0.26 1,1.34 -1.36,1.32 1.25,0.37 -0.1,1.05 -2.1,0.42 1.39,-25.2 -1.35,-12.78 1.15,-8.49 6.28,-25.46 4.72,-10.61 1.38,-1.65 1.28,0.49 -0.03,4.51 1.13,1.52 -3.57,4.4 1.85,2.63 -1.62,0.73 -1.42,-0.86 -1.19,5.87 1.67,-0.48 4.37,2.1 -0.05,4.81 1.91,1.14 7.9,1.69 0.58,1.88 -3.13,0.81 2.27,4.87 -0.4,2.92 1.58,0.6 v -5.2 l 2.86,-1.54 3.21,0.66 4.98,-0.92 13.85,6.64 3.71,2.79 2.6,-1.48 2.93,-3.76 1.58,-4.68 0.19,4.66 1.23,1.97 -0.36,2.8 1.61,1.2 2.57,5.03 -2.88,4.6 -0.54,-0.9 -3.92,0.28 -1.23,4.09 0.87,0.72 1.21,-3.7 5.75,1.41 1.81,-1.88 0.01,3.69 1.46,2.72 4.99,1.8 10.94,-3.67 0.86,-4.54 -1.32,-7.89 3.85,-5.29 -1.4,-3.14 -7.22,-5.83 -1.24,-4.61 -2.2,-0.9 0.84,-3.83 6.4,0.55 4.22,-4.15 2.31,-3.7 1.4,-4.97 3.959995,-5 1.18,-0.12 2.09,1.97 2.09,-1.61 2.36,0.51 -0.03,-1.67 1.68,-1.01 1.56,2.42 3.69,-1.61 -0.46,-2.22 -1.86,-0.74 -1.73,0.71 -0.69,-2.31 -1.15,2.97 -1.85,-1.68 -1.66,1.14 -3.57,0.09 4,-9.15 2.4,-2.66 -1.17,-2.57 2.89,-0.17 11.14,-9.34 9.4,4.41 1.16,-1.38 -2.09,-2.63 z m -3.97,-11.05 5.11,0.76 -2.2,1.83 0.35,1.66 2.2,0.3 -3.14,2.83 -1.1,-0.76 -2.39,0.35 -1,3.89 -1.77,0.47 0.03,1.47 -4.31,-3.87 -2.06,-4.36 -1.84,-1.13 0.75,-1.11 z"
     class="land"
     title="Midtjylland"
     id="DK-82" />
  <path
     d="m 140.99323,222.58465 -3.32,-2.78 1.93,-2.89 2.72,3.84 -0.57,2.16 z m -25.1,-18.58 -0.42,2.46 2.09,7.03 -1.9,2.59 -2.38,10.7 -1,1.25 0.27,-5.16 -2.16,0.41 -1.56,-1.84 -2.17,0.37 -2.1,3.91 1.87,9.23 1.42,3.47 3.05,3.31 -0.45,2.95 -2.23,0.66 -0.14,1.23 1.5,1.37 -3.44,3.01 0.12,5.08 -1.57,0.74 0.16,1.96 -4.39,3.11 -4.299995,5.77 1.05,2.46 -6.28,3.57 -3.61,-0.6 -8.52,3.46 -1.66,-3.64 0.62,-2.42 -3.2,-3.4 0.19,-2.2 -1.54,-0.15 -1.22,-0.55 0.54,-1.46 -0.82,-1.93 -1.82,0.07 -0.18,2.05 1.87,0.24 -1.32,1.18 1.25,2.15 -3.78,1.48 -1.08,-4.55 2.08,-0.8 -4.09,-4.1 -5.13,4.48 0.99,-6.11 6.67,-2.95 -2.54,-7.23 1.6,-1.02 1.54,1.34 1.66,-2.32 1.65,-0.28 4.67,1.15 6.17,-3.5 -0.39,-2.89 -7.31,-1.27 1.71,-3 2.52,0.83 1.03,-0.66 0.08,-1.51 -2.33,0.02 2.38,-3.95 -0.43,-6.18 -1.07,-1.38 4.47,-1.45 2.52,0.75 5.25,-1 1.42,0.65 2.84,-2.3 8.339995,-1.44 1.85,-6.88 2.86,-3.35 1.16,-3.05 1.18,1.48 4.07,-0.09 2.94,-3.42 0.33,-2.69 0.82,0.06 -0.23,2.37 z m 131.05,-25.21 -2.01,0.4 -2.62,-1.2 -1.41,-3.38 6.15,-0.32 2.35,2.22 z m 23.08,-5.36 1.76,3.96 3.92,3.11 3.81,3.38 6.09,6.68 7.49,5.47 5.54,2.1 9.65,-0.96 -0.3,4.35 -1.27,0.01 -0.98,1.69 1.22,1.09 -2.68,4.25 -1.41,11.21 1.99,22.77 2.97,12.32 4.92,7.81 -0.07,3.83 -1.13,1.04 -3.4,-1.7 -6.49,-0.47 -3.61,-1.81 -3.24,2.07 -0.55,1.51 -2.16,0.69 -2.55,-1.31 -0.42,-2.85 -2.66,-0.26 -5.31,2.65 -0.63,2.4 -2.53,1.66 -2.89,-2.04 -5.05,1.9 -1.57,1.99 0.24,1.32 -4.06,0.64 -3.08,3.27 -2.01,-0.27 -0.12,1.68 -4.44,2.26 -13.04,1.22 -3.06,1.92 6.59,0.36 1.77,-1.82 9.04,-0.29 2.01,-1.08 1.18,0.58 2.73,-1.96 2.02,0.6 1.41,-3.08 1.22,-0.03 1.22,-1.52 2.9,-0.33 2.64,-4.52 1.16,-0.22 2.46,2.3 1.44,-0.13 3.46,-3.44 1.35,-2.91 4.36,0.91 1.51,-0.39 4.16,5.46 v 0 l 0.35,1.49 -5.53,3.53 0.23,3.12 -4.87,1.45 -1.02,5.67 -3.94,1.16 -6.28,4.37 -8.75,2.68 -2.67,-1.43 -1.46,3.92 -8.37,1.71 -1.31,4.55 -6.39,1.41 -5.12,-2.8 -6.23,1.56 -5.22,-7.45 -4.94,-1.25 -4.67,2.55 0.13,-7.14 4.38,-1.49 -0.76,-3.54 -6.18,-0.88 -3.97,0.77 -4.58,-1.56 0.56,-3.36 -5.1,-0.61 -0.39,-1.45 1.8,-1.7 -1.18,-1.93 -1.42,-0.14 0.35,-2.26 -4.12,-0.44 -0.42,1.8 -2.12,0.16 -3,9.47 -3.43,-0.63 -4.96,-3.53 0.16,-2.99 -4.24,0.69 -1.56,-2.2 -4.77,-0.2 v 0 l -1.98,-5.11 -3.25,-1.59 -4.16,2.45 -2.26,0.11 -7.44,5.73 -0.84,0.21 -2.26,-3.22 0.08,-1.2 2.05,-1.03 2.36,-3.63 3.83,-3.29 2.43,-4.1 0.9,-3.76 -1.6,-3.95 -4.53,-1.63 -2.05,0.23 0.49,-5.08 -2.72,-4.86 5.55,-9.07 0.35,-4.9 -1.56,-3.09 -4.42,-3.03 -0.31,-1.71 1.76,-6.3 2.59,-3 0.24,-1.67 4.15,-3.53 1.93,-4.33 4.83,-1.5 2.58,-6.44 18.23,-4.81 11.43,1.05 10.12,6.36 -2.53,4.46 1,2.63 -0.99,1.21 -1.15,-2.47 -0.96,-0.16 -1.66,2.5 4.11,7.69 1.4,-5.94 0.51,-2 5.31,-3.24 1.57,-4.48 1.32,-0.4 4.21,-5.62 0.37,-4.7 3.4,-2.88 11.08,-2.86 9,2.28 3.49,-2.81 3.48,-0.9 2.01,0.13 3.01,2.1 2.03,-0.15 1.98,-0.81 2.19,-4 3.18,-2.46 z m 139.78,-34.77 -0.07,2.2 -5.12,1.25 -0.53,-0.7 1.5,-2.32 z m 22.88,-27.4 -1.06,5.57 -1.39,-0.74 -1.58,0.73 -7.52,0.03 -5.27,2.59 -0.32,2.04 2.46,0.38 -1.09,6.37 -2.73,3.03 0.19,0.42 -1.11,1.52 -7.54,4.23 -2.06,-0.5 -1.79,0.95 -1.3,-4.47 -2.85,-0.67 -0.71,-2.17 -2.58,-0.57 -1.67,0.75 -5.43,-3.44 0.06,-1.91 4.6,-3.7 2.17,-3.73 3.64,-2.17 8.69,-1.01 2.68,-3.11 12.38,-0.3 3.85,-2.12 7.02,1.22 z m -82.54,-102.9199953 -1.1,1.02 -1,-0.71 -0.84,0.7 -0.71,0.31 -3.64,3.1000003 -8.6,10.76 -6.31,10.87 -2.53,10.66 3.11,11.29 12.14,16.77 1.54,4.8 2.05,0.76 -0.76,2 -1.75,0.01 -0.57,1.03 -1.73,1.95 0.3,2.96 -1.85,8.71 1.03,9.819995 1.73,3.12 -1.05,2.04 2.53,13.04 0.22,11.75 -4.82,4.55 -2.62,1.08 -7.07,8.86 -5.57,12.74 -3.63,18.1 -3.21,9.55 -3.03,5.71 -4.23,-1.34 -5.81,1.94 -4.96,-0.83 -5.75,-4.42 -9.87,-10.1 -4.31,-2.14 -8.41,-8.11 -1.91,-0.62 -3.16,1.3 -3.52,3.6 0.03,3.21 -2.78,1.05 -8.56,-4.14 -4.99,-5.42 -8.25,-4.38 0.41,1.92 -3.05,7.38 -1.93,1.41 -5.92,0.96 -4.98,-3.04 -2.08,0.81 0.05,-2.86 2.6,-0.69 1.53,-1.95 0.06,-0.72 -2.12,0.19 -3.88,1.7 -3.73,3.4 1.66,1.58 2.61,0.14 -2.49,1.72 -1.74,3.01 -3.23,-0.19 -1.78,2.41 -4.16,-0.99 -6.79,0.74 -1.11,-1.02 -8.15,2.25 -16.76,6.31 -7.13,5.08 -4.77,-0.75 -1.77,-1.2 -10.58,-10.09 -9.89,4.25 -2.48,3.71 -1.41,-0.16 -0.04,-2.52 -0.93,-0.95 -3.49,0.33 -2.35,0.95 -2.51,3.51 -2.93,-0.74 -2.57,1.44 -1.98,4.86 -2.05,-0.01 -1.1,-2.44 -3.38,-0.96 -1.76,-0.16 -3.16,0.64 -0.12,1.7 2.46,1.77 0.1,1.68 -7.629995,3.28 -0.88,1.99 -3.29,1.42 -7.68,-1.64 -5.39,0.65 -1.45,4.06 0.71,2.65 -3.07,3.03 -0.03,3.09 -2.04,2.86 0.8,3.03 -0.95,2.12 1.24,0.87 -3.19,5.74 -4.88,5.85 -5.61,0.31 0.09,2.93 -2.15,-0.19 -4.43,2.67 -2.54,3.7 4.32,6.67 -1.54,1.9 -1.44,6.17 -2.71,2.52 3.4,-0.95 4.45,0.54 0.6,1.14 -1.33,2.75 1.72,-0.97 0.74,0.56 -2.11,2.66 0.27,2.7 -8.5,-4.54 -3.82,1.94 -1.1,1.91 -1.92,-0.25 -0.58,1.73 0.77,0.06 v 0 l -0.16,1.38 v 0 l -6.73,-1.73 -1.08,-3.89 -4.3,-5.71 -2.45,-10.71 -2.37,-2.84 -3.53,-2.12 -1.26,19.41 -1.24,-0.16 0.01,-2.75 -1.49,-2.67 -1.02,-0.06 2.31,-20.42 4.84,-13.69 12.38,-25.33 2.64,-1.51 4.1,-5.22 7.84,-13.67 1.26,-1.32 3.67,-0.67 3.97,-4.67 8.12,-14.49 1.23,0.56 3.09,-1.69 16.49,6.94 2.09,0.01 15.089995,-4.59 16.14,-10.28 3.24,0.59 3.55,-0.8 10.12,3.95 11.53,1.34 9.35,-1.04 9.24,-3.18 6.41,-0.5 4.45,-1.81 19.39,-15.82 13.78,-20.66 10.7,-18.739995 10.82,-24.83 9.55,-10.08 9.85,-17.31 2.65,-2.19 3.22,-1.31 3.46,1.41 11.62,0.64 10.18,-1.22 11.8,-4.58 10.83,-6.49 32.36,-27.5400003 7.29,-2.34000004 5.21,1.96000004 z"
     class="land"
     title="Nordjylland"
     id="DK-81" />
  <path
     d="m 474.95323,707.82465 -2.84,1.07 4.63,5.32 -1.59,-0.79 -3.67,0.94 -0.59,-2.89 2,-0.63 -2.45,-3.16 z m -33.42,-10.63 4.06,2.7 3.54,5.22 5.65,1.81 0.23,4.54 3.04,3.38 6.54,3.09 -0.59,1.65 0.87,0.64 1.89,-1.12 2.35,0.58 0.75,1 -0.14,4.67 3.45,0.32 0.04,1.63 8.58,0.58 1.42,1.32 3.44,-0.74 0.42,-0.92 -2.33,-0.84 -2.07,-2.85 0.43,-1.53 2.7,-1.26 3.47,2.09 5.93,-2.36 -1.24,-2.7 0.77,-4.48 -1.57,-3.69 3.14,0.65 7.28,6.38 4.1,-0.13 0.75,0.8 -1.44,2.94 1.73,4.84 5.53,1.81 -1.22,2.77 0.18,3.27 2.48,2.99 3.04,1.06 4.95,5 1.06,7.7 -2.55,2.42 -1.83,0.08 -2.49,-2.05 -0.1,2.81 1.13,1.04 -2.18,1.02 1.2,2.48 6.1,2.99 -1.66,6.1 -4.26,1.66 2.35,1.8 -2.43,1.15 -1.79,0.47 -10.39,-2.11 0.73,-1.05 -1.1,-1.88 -0.76,0.62 0.45,1.84 -1.69,0.89 -0.99,-1.97 -2.27,-1.06 -2.48,0.64 -1.62,1.1 -2.38,-1.21 -4.62,0.69 -2.33,-1.29 -1.1,0.51 0.82,1.17 -2.72,1.39 -2.51,0.14 -1.05,2.73 -6.42,1.1 -4.95,5.71 6.74,3.47 2.29,-0.6 0.06,0.93 -3.9,0.03 -21.43,-14.26 -6.41,-7.31 -4.74,-3.87 -20.74,-8.63 -8.31,-2.47 -6.98,-3.75 -5.55,-9.57 0.08,-0.44 1.95,2.3 2.87,-0.31 2.12,-2.4 -3.95,-3.24 7.26,2.56 1.06,2.8 3.49,-0.17 1.35,-1.7 -1.68,-1.71 0.22,-1.97 2.23,2.58 1.09,-0.29 0.82,-2.2 1.76,-0.71 -0.34,-1.49 2.51,-0.1 -0.35,-0.78 -4.62,0.9 -1.84,-0.88 v -3.23 h -1.3 l -0.23,-1.89 -1.6,-1.27 -1.45,-1.53 -2.07,-0.74 -1.75,-2.35 -0.29,-2.06 1.68,-5.86 7.62,-6.96 3.27,0.35 0.69,-1.4 0.8,-0.61 1.75,-0.56 1.8,0.55 5.35,-2.76 z m 20.34,-2.85 2.11,1.43 3.33,-0.42 2.87,3.95 -0.26,1.2 -4.94,-0.39 -4.54,5.51 -3.96,-3.31 -1.24,-5.32 -1.18,0.01 -0.61,-2.57 2.22,1.04 0.6,3.53 1.4,-1.52 3.27,1.9 0.97,-1.27 z m 59.27,2.18 5.37,3.87 -0.57,1.09 2.05,1.69 0.18,2.38 1.97,1.15 2.12,-0.12 0.83,-5.38 1.11,1.05 4.64,-0.74 1.93,1.48 0.53,6.83 2.6,2.06 7.57,1.73 2.01,-1.14 6.61,1.55 0.93,4.68 3.96,4.77 1.34,3.21 -0.84,1.37 -3.45,1.42 -2.56,5.37 -4.88,2.81 -5.62,7.55 -3.42,8.2 -3.89,3.4 -2.27,4.18 -1.36,9.71 1.77,17.76 -0.46,3.81 -7.33,-3.6 0.72,-1.28 -0.37,-3.52 -7.5,-14.86 1.7,-7.71 4.47,-6.48 -5.65,-2.48 0.7,-3.48 1.3,-1.4 -2.31,-3 -0.78,-3.33 -3.52,-3.16 -0.79,-2.31 -2.61,-0.56 -2.18,-2.19 2.55,-4.85 -1.43,-1.97 0.31,-1.67 -3.18,-2.47 -3.93,-0.39 0.43,-1.31 -1.23,-2.4 1.03,-2.49 -1.38,-1 -0.89,-2.65 2.05,-5.56 -1.4,-2.39 -5.62,-0.65 2.25,-2.92 2.17,0.55 0.48,-1.12 -1.31,-0.71 1.81,-2.64 h 3.2 l 2.27,1.4 2.45,4.43 2.99,-1.85 0.93,-3.63 -0.85,-2.01 z m 36.6,-0.45 -1.09,1.53 -0.62,0.37 -2.14,1.28 -2.21,-1.2 z m -81.09,-7.26 4.33,0.81 2.54,3.79 -4.08,6.21 -3.18,-6 -2.4,-2.13 z m 84.92,0.72 -2.17,4.3 -1.23,-0.39 -0.47,1.14 -0.25,-1.2 1.83,-1.88 -0.53,-1.02 z m 14.53,-16.83 -2.59,6.03 -4.28,-1.71 -0.94,-1.48 2.43,-0.48 2.67,-2.53 z m 5.93,3.71 1.38,1.94 3.72,1.8 20.18,1.15 8.26,3.64 3.49,6.51 0.75,3.75 -1.6,4.53 -4.41,0.68 -12.54,-4.51 -8.19,-0.53 -5.99,2.64 -4.64,3.77 -10.45,13.5 -3.68,0.73 -5.34,-0.72 -2.34,-4.28 2.39,0.87 0.79,-1.19 -5.47,-0.41 -14.6,-4.74 -1.25,-2.74 0.31,-1.97 -1.77,-1.83 1.35,-1.87 2.18,5.54 1.65,0.34 1.57,-1.37 5.16,0.02 2.64,2.92 -1.77,3.96 3.97,1.13 2.5,-0.97 -1.79,-1.93 1.38,-3.76 3.77,-2.48 -2.27,-0.94 -1.18,-2.74 5.78,-3.22 2.52,0.96 -1.97,-4.57 4.14,1.44 1.31,3.38 9.74,-4.09 1,0.85 -2.41,4.09 0.95,0.49 2.4,-0.94 2.9,-3.3 5.46,-1.42 -7.11,-0.74 -2.02,1.5 -0.78,-0.87 -1.26,-3.34 1.66,-4.02 -2.87,-4.7 -1.16,-1.04 -2.38,0.52 -0.57,-1.21 0.38,-1.6 3.71,-2.87 z m -76.32,-22.73 -1.53,3.31 -0.62,-3.03 1.02,-2.7 z m -76.22,-8.06 0.34,0.96 -2.3,2.02 -1.7,4.42 -2.38,-4.78 6.31,-4.05 z m 69.54,-2.19 0.34,4.95 -2.89,-0.93 -1.92,-3.11 2.32,0.46 z m 5.72,-0.98 -0.77,2.85 -1.41,-0.65 -2.12,0.61 1.73,-7.26 4.17,1.6 z m -73.45,-13.73 -1.06,0.85 -0.6,-0.55 -0.15,1.88 2.28,2.2 1.83,5.89 -1.39,1.04 -3.07,-1.13 0.1,-10.48 -0.84,-1.6 0.54,-0.59 1.52,0.9 z m 161.4,-86.79 0.92,0.81 v 0 l -1.25,0.76 z m -145.9,-42.16 0.56,1 -1.88,-1.24 -1.74,-3.8 0.65,-2.52 1.44,1.45 -0.69,1.3 1.96,2.22 z m 75.23,-3.22 -1.32,6.35 -2.98,1.62 -1.71,-1.87 -1.36,-0.11 -2.43,-5.95 2.12,-0.76 1.12,-1.67 2.47,2.4 1.48,-6.53 2.05,3.06 z m -94.05,-25.7 3.45,3.97 3.08,1.71 0.47,2.29 -1.55,-1.65 -8.52,-3.61 -3.87,-5.06 -4.33,-1.97 -0.8,-3.64 5.11,1.85 0.98,2.1 z m 25.37,-22.51 4.58,2.77 5.06,1.33 8.77,0.34 5.5,2.25 9.59,-2.57 2.35,3.93 3.24,1.66 9.39,-2.21 10.65,-7.12 2.15,6.88 -1.76,-1.14 -3.45,3.23 -0.84,4.02 0.44,4.71 -2.49,1.51 -3.17,-1.19 -0.52,-2.24 -2.62,0.29 -1.25,-0.83 -1.87,4.89 0.36,3.43 3.21,1.71 2.39,3.24 3.08,6.1 0.32,3.84 -2.58,3.61 -0.57,-1.08 -6.54,-1.89 -2.02,2.38 0.98,1.18 -1.21,0.51 -0.05,1.79 -4.91,2.4 -0.17,1.16 2.93,2.02 2.76,-0.3 11.22,-5.8 1.65,1.79 0.72,3.72 1.59,2.11 -1.08,0.65 -0.48,-1.93 -1.13,1.74 0.91,1.62 3.04,1.45 0.03,1.63 -6.71,2.08 -8.19,0.45 -1.43,0.78 0.72,1.45 -0.66,0.96 1.54,0.36 0.1,0.91 6.78,-1.5 7.81,0.34 0.74,-1.37 -1.52,-1.38 1.12,0.26 2.92,4.53 -0.12,3.2 1.57,0.33 0.51,2.64 -2.44,1.35 v 2.57 l -1.82,0.66 -0.76,2.47 3.88,-1.11 0.61,0.65 1.35,-3.27 3.27,-2.42 0.51,-5.65 2.32,-6.05 2.56,-1.59 v 0 l 4.05,1.59 3.73,-3.42 6.81,3.72 v 0 l -0.09,3.36 -6.99,13.39 0.36,3.51 1.25,-3.32 1.54,-0.7 -0.13,-2.93 6.29,-0.64 -0.91,-2.89 -1.41,-0.81 1.54,-1.13 -0.05,-2.15 0.51,1 1.82,-0.63 -1.14,3.05 0.85,0.37 1.1,-1.26 0.78,0.76 1.63,-0.44 1.75,1.17 -0.39,1.3 1.62,0.87 -0.32,0.82 -1.85,-1.11 -1.82,0.46 -3.54,-2.15 -0.28,1 1.24,0.03 0.92,2.87 -0.68,1.41 3.93,-0.87 0.94,0.82 0.44,-1.08 1.8,-0.23 -0.33,3.99 3.33,1.8 1.47,-4.94 -1.23,0.12 -1.59,-2.55 1.18,-2.1 0.88,-0.29 0.92,1.32 0.45,-2.07 -1.81,0.38 0.17,-0.75 2.14,-0.35 1.48,-1.74 0.59,-1.53 -1.66,-0.34 v -2.1 l 2.42,-2.35 -1.46,-1 -1.87,-2.61 0.75,-3.06 -2.12,-2.42 0.56,-3.69 v 0 l 10.75,8.34 5.77,-0.91 2.56,2.58 -1.77,3.28 5.03,4.51 -5.36,5.19 -3.67,-0.25 -4.85,4.22 0.93,9.08 1.34,-0.07 -0.99,5.23 6.89,2.02 0.79,-3.21 2.75,-0.83 1.11,1.75 4.58,-2.01 8.44,3.49 2.5,2.34 v 0 l -0.47,1.83 -7.73,4.01 -7.72,7.83 -6.45,18.03 0.8,2.7 -0.55,1.49 0.7,2.42 3.74,4.39 10.46,5.46 8.6,0.88 7.11,6.79 3.91,5.18 0.33,3.15 1.01,0.97 -1.3,3.95 1.38,5.1 -0.36,2.15 -5.33,5.92 -2.52,1.61 -3.56,-0.11 -2.18,4.38 -11.19,-1.46 -11.14,4.31 -3.64,2.92 -0.85,-0.48 -7.22,9.41 0.57,8.34 -1.92,1.54 -1.74,0.19 -1.13,-1.15 0.86,-5.91 1.67,-2.87 -0.66,-0.61 -4.14,0.47 -4.35,2.12 -2.62,4.31 1.03,1.28 2.39,0.59 0.64,1.67 -0.66,2.72 1.67,-0.77 1.15,1.33 1.66,-2.36 2.52,0.06 0.01,1.78 2.13,-0.15 0.36,-0.87 1.35,0.65 2.29,-1.79 4.83,1.75 2.22,2.38 -1.49,6.5 -2.21,2.74 -2.65,-1.58 -1.67,0.93 -0.37,-1.32 -2.86,-1.61 0.49,1.58 1.78,0.18 -0.07,1.98 1.44,0.35 -1.55,1.36 0.94,0.05 1.22,2.98 -0.43,1.95 2.27,0.45 -0.67,1.82 4.42,8.3 -0.28,2.42 -6.58,-0.27 -6.12,5.85 -3.48,1.95 -3.69,-0.04 -6.55,-3.35 -3.34,-4.81 -5.74,-2 -0.62,0.45 1.34,0.59 0.14,1.31 -2.95,0.18 -9.44,-7.12 -2.72,-3.29 -11.01,-4.15 -6.92,-4.07 -7.49,-2.01 -0.8,-0.74 17.57,4.53 10.84,5.53 1.06,-1.26 -3.29,-6.08 -4.79,-3.54 -1,0.7 1.6,1.88 -2.5,-0.2 -1.73,-2.65 1.14,0.03 0.86,-1.57 -2.7,0.21 -3.22,-4.8 0.61,-3.77 0.96,0.81 -0.45,1.3 4.39,0.34 2.57,-3.36 4.02,0.91 1.42,-1.5 -1.07,-3.6 -2.05,-0.93 -2.25,1.7 -1.12,-0.76 0.28,-1.55 -4.4,0.04 -1.06,0.95 -2.31,-0.96 -0.24,-3.14 3.89,-2.69 -0.63,-1.04 -1.53,0.77 -0.44,-0.66 2.89,-3.31 -1.28,0.18 -3.17,-2.87 -3.74,0.54 -4.33,4.5 0.16,1.6 -2.29,1.21 -5.87,-3.3 -2.28,0.48 -10.66,-2.83 -1.44,0.53 -0.62,-1.78 -2.94,0.09 0.13,-1.27 -1.57,-1.62 -1.22,0.68 -2.45,-1.3 -2.14,3.09 0.38,0.81 1.37,-0.87 2.34,0.43 1.65,4 -3.04,0.6 -6.53,-0.87 1.12,-1.64 3.73,1.47 -1.25,-3.94 -2.18,-0.62 -3.96,2.66 -2.26,-2.85 -2.13,2.32 -0.89,-2.26 -1.93,0.05 -0.65,2.18 0.65,1.13 -2.91,0.7 -1.93,-1.86 -3.29,-0.22 -1.85,-1.61 -0.94,-2.57 1.93,-1 -2.44,-5.13 0.79,-0.58 1.06,1.39 4.72,1.11 3.5,-7.63 -0.67,-2.84 -1.99,1.32 -0.47,4.06 1.04,0.79 -2.46,1.65 -0.9,1.97 -1.24,-1.99 -2.64,-0.67 0.82,-3.2 -1.39,-5.67 -8.34,-4.75 -3.32,-3.57 -2.82,-1.35 -0.17,-1.57 0.89,-0.55 2.61,1.73 4.67,0.33 0.35,-1.24 2.06,-1.15 -0.14,-2.1 -3.3,-2.2 -2.13,-0.07 -1.18,1.03 0.92,2.91 -3.03,0.78 -4.45,-3.26 -2.31,0.35 2.93,-5.67 0.87,1.31 4.26,-0.68 3.66,-2.92 3.43,-0.74 1.81,-3.64 -2.78,-5.02 1.29,-6.25 -3.7,-7.79 -0.53,-5.12 -4.49,-4.5 -2.51,-4.2 -1.08,1.04 0.35,1.48 0.86,-0.28 -1.55,2.72 -2.54,0.37 -1.94,-1.03 2.09,-5.14 6.2,-0.09 2.38,-5 -1,-6.93 -2.85,-6.62 -2.65,-2.77 -9.88,-6.28 -13.22,-2.32 -1.42,-1.11 -0.14,-1.66 1.16,-0.85 3.3,1.34 4.73,-0.23 8.09,1.85 3.76,-0.95 0.39,1.02 2.02,-1.09 0.25,-0.8 -1.94,-0.39 1.7,-1.41 -4.22,-0.99 -1.44,-0.56 -5.11,-3.78 -4.1,-6.35 -1.43,-0.76 -10.38,-0.42 -5.59,-3.46 10.58,-2.07 5.72,1.22 8.26,3.61 4.83,-0.83 6.45,-4.17 4.47,0.27 2.48,-0.83 -0.19,1.77 2.79,3.77 2.19,-0.15 0.9,-1.76 -0.57,-1.23 1.05,-0.74 4.73,4.41 4.03,-2.45 0.77,-3.38 0.71,-0.18 0.99,2.8 0.82,-2.75 5.5,-0.87 2.94,-2.64 1.67,-5.09 -0.91,-2.2 -0.41,-8.71 -1.19,-2.04 -1.36,0.26 0.38,-0.74 0.77,-0.48 4.26,3.68 7.46,-4.13 6.15,0.14 3.29,-4.48 1.27,-4.6 0.18,-8.06 -1.32,-3.79 -7.65,-4.25 -11.73,-1 -5.64,-3.96 -5.24,-1.46 -2.85,-8.73 3.57,5.29 z"
     class="land"
     title="Sjælland"
     id="DK-85" />
  <path
     d="m 353.16323,710.16465 -0.44,1.84 -2.25,1.11 -2.05,-5.8 3.63,-0.91 z m -18.82,-3.7 0.31,0.96 -2.34,-0.64 0.89,-1.85 z m 1.84,-4.07 1.22,1.85 -1.8,0.18 -0.43,-1.8 0.72,-1.05 z m 22.57,-6.13 4.56,0.84 0.52,1.99 -1.58,0.01 z m -23.33,-1.41 -1.69,1.93 -1.22,-2.05 z m -40.34,-1.25 2.29,0.62 0.35,2.17 4,4.08 4.01,0.81 5.79,5.97 1.67,3.54 3.83,1.27 0.94,2.45 1.76,-0.47 3.22,-4 -2.27,-1.84 0.63,-0.76 2.55,2.82 -1.16,1.34 2.04,4.74 2.26,2.54 1.65,1.02 1.85,-3.14 2.84,2.71 0.59,-0.41 -3.48,-4.83 1.45,-0.27 6.86,7.02 -0.15,3.16 -8.67,1.31 -1.96,1.18 -1.2,2.86 -1.9,1.45 -6.65,-4.99 -7.26,-9.45 -4.49,-2.91 -5.74,-7.3 -1.01,-5.44 -3.81,-3.94 z m 29.99,-3.03 2.47,3.4 -1.97,1.87 -5.28,-3.61 -2.16,1.57 -1.6,-1.45 2.87,-1.26 0.64,0.9 4.96,0.93 z m 5.98,-6.65 3.56,2.34 -2.13,-0.46 -1.1,1.28 -1.68,-0.2 -0.32,-1.61 1.46,-2.06 z m -26.53,-2.7 3.52,0.85 2.46,1.81 2.78,-1.12 0.38,2.57 -1.38,0.34 -4.77,-3.26 -5.32,0.03 -2.96,-3.18 0.46,-1.5 1.82,-0.54 z m 49.41,-7.78 1.65,2.4 -0.62,2.09 2.53,0.71 0.35,2.21 -1.45,1.1 -1.42,5.26 -0.64,0.91 -0.73,-0.55 -0.75,1.65 1.5,2.1 2.97,0.68 1.66,-1.66 0.49,-2.27 2.9,-0.52 -0.46,5.49 -5.02,0.55 -4.48,5.67 -5.02,-1.78 -1.05,0.17 1.73,1.8 -2.42,-0.32 -2.34,1.34 1.38,-1.99 -2.03,-0.18 0.12,-2.41 -2.86,-2.39 -0.78,-4.99 0.67,-0.94 -1.7,-0.84 -0.22,-1.94 2.41,0.02 1.65,-2.33 7.3,-4.73 3.9,-3.69 z m 9.66,-0.14 0.99,0.63 1.29,5.69 -2.11,-0.94 -4.72,0.81 0.38,-1.75 -2.85,-0.36 -0.42,-2.38 0.83,-0.72 2.38,0.44 z m -74.86,1.53 2.04,0.5 0.75,1.3 -1.36,1.47 -3.22,0.99 -2.9,-3.18 -0.15,-2.24 2.15,-1.54 -0.11,1.92 z m 14.73,-1.5 -3.61,-1.77 -0.57,-2.01 z m -58.9,1.53 7.89,7.06 3.96,0.31 3.18,1.4 6.55,6.9 6.59,12.72 0.72,5.38 2.33,3.75 0.72,3.99 -0.94,0.87 -5.97,0.23 -4.53,4.79 -6.41,-0.3 -4.63,-2.55 -2.5,-0.16 -3.02,-3.58 4.26,-4.02 2.4,3.04 4.83,2.36 0.32,1.4 2.33,0.17 2.57,2.78 1.08,-1.01 -2.5,-4.52 -9.71,-6.43 -2.42,-0.51 -1.66,2.15 -1.16,-0.26 -5.47,2.63 -4.96,-2.01 -1.78,-2.08 -0.21,-2.22 -1.69,-0.75 -1.42,-12.64 -1.13,-1.56 1.2,-1.18 1.89,2.89 2.74,0.83 5.05,7.06 3.31,-1 -2.51,-1.55 2.9,-1.09 -3.31,-0.96 1.41,-2.19 1.79,-0.16 -4.58,-3.06 -5.25,-0.8 -0.04,-2.11 -0.59,-0.4 -0.49,-1.54 2.14,-0.88 0.27,-1.6 -12.95,0.77 -5.33,-3.51 -0.12,-1.77 3.48,-0.91 1.53,-1.4 1.15,0.37 -0.1,1.21 1.92,0.1 -1.21,-1.79 -1.62,-0.16 1.15,-1.3 -1.34,0.11 -1.4,1.44 0.26,0.41 -1.15,0.35 -4.98,-0.94 -0.74,-1.32 0.06,-1.61 3.9,-3.54 4.45,-2.81 6.18,-1.52 3.32,0.75 6.72,3.9 z m -37.22,-15.38 -2.6,0.61 -1.08,-3.3 0.61,-1.46 1.71,0.26 1.36,1.98 z m 191.51,-7.96 -2.76,15.39 -5.65,21.16 -5.12,6.55 -3.79,8.49 -0.5,3.67 -1.27,1.95 -0.4,5.54 -5.32,13.54 -5.6,20.51 -2.65,3.87 -3.1,1.32 -3.68,-4.32 -0.13,-2.13 1.26,-2.21 -2.19,-5.16 -0.22,-4.24 -3.17,-4.92 -4.55,-2.99 -0.96,-2.02 7.15,2.01 1.74,-3.81 1.37,-0.38 -0.9,-0.88 1.12,-7.27 1.52,-0.2 0.49,1.89 2.22,1.05 0.52,-1.52 3.04,-0.24 -2.86,-4.65 -0.05,-2.44 -1.25,2.44 -1.58,-0.91 -0.86,0.69 -0.68,-2.94 1.47,-3.2 9.77,-12.55 1.87,-1.68 2.52,0.28 2.9,-3.14 2.53,-6.24 2.68,-3.34 4.13,-16.32 3.09,-5.66 0.38,-3.13 5.29,-6.31 1.74,1.4 z m -165.87,-30.48 0.67,4.01 1.14,-1.11 -0.95,-1.27 2.19,-0.96 -0.4,1.7 -2.37,3.12 -2.78,0.09 -1.92,-2.33 1.03,-0.73 -0.84,-1.91 2.76,-1.04 z m 8.75,-13.27 1.39,4.01 -0.34,2.32 -4.01,1.34 -1.19,-5.02 0.8,-2.39 1.37,0.64 z m -14.7,-6.82 -1.88,0.98 -1.81,-1.43 1.44,-1.61 1.64,-0.25 1.65,1.78 z m -189.429995,-25.19 0.78,1.25 0.61,-2.03 2.29,-1.83 3.22,0.22 2.03,0.92 -0.54,7.21 0.73,1.4 1.36,1.06 2.68,-3.13 2.02,1.38 1.63,6.38 -2.6,2.78 2.74,4.22 0.8,5.28 1.35,-0.19 -1.56,3.26 0.43,0.88 -3.24,-0.49 -3.5,-2.72 -7,-15.41 -6.08,-6.1 -0.44,-4.17 4.2,-2.96 z m 187.729995,-3.92 -1.78,-0.37 -1.81,-3.66 0.53,-2.24 1.77,0.64 1.65,2.77 1.52,0.27 0.17,1.62 z m 126.42,-33.13 0.35,-2.22 0.89,1.19 8.06,14.86 3.17,3.68 -0.33,2.73 1.48,4.14 3.56,3.79 1.38,3.25 -1.66,1.86 -3.37,-0.41 -5.45,2.85 -1.08,3.23 -1.77,0.94 -2.63,-1.35 0.29,1.29 -1.24,0.26 -2.71,-2.51 -3.58,-1.4 -0.09,0.88 -3.69,1.09 0.57,1.18 -0.45,1.01 -1.59,-0.14 0.13,1.05 4.44,4.65 0.93,-1.42 -1.12,-5.46 1.78,-1.65 7.09,4.65 3.86,-2.9 13.29,15.1 3.9,7.02 3.85,11.82 2.91,2.52 0.43,0.69 0.94,2.02 -3.43,0.95 0.81,-0.97 -0.64,-1.69 -1.08,-0.71 -0.51,0.85 -2.46,-2.46 -1.53,-0.16 0.38,1.92 -0.07,1.69 -0.1,4.46 3.82,10.14 -1.17,12.21 -2.13,4.11 -2.83,12.97 0.62,2.1 -2.61,1.23 -1.8,6.63 -5.3,2.88 0.18,-1.02 -2.36,-0.62 -0.73,1.34 -5.81,0.72 -0.82,-1.14 -2.96,-0.62 -0.17,2.06 -2.17,1.54 -11.27,5.02 -3.8,-1.12 -2.52,-2.68 -7.68,0.69 -4.03,-2.29 0.35,-1.22 -2.02,-2.69 -2.7,3.5 -4.76,-0.81 -0.18,-2.07 -2.92,-0.94 -1.93,-3.29 -6.24,-3.09 -1.42,-1.96 -2.74,1.69 2.01,1.36 0.85,2.64 -2.25,2.79 -1.5,-0.14 -2.34,-3 -3.43,-0.2 -4.13,-2.52 -7.73,3.46 -0.69,-2.53 1.85,-4.85 2.87,-0.01 1.76,-2.34 4.03,-1.02 1.62,-0.36 2.39,-1.56 -1.64,-0.96 -2.65,-5.13 -1.26,-0.13 -0.21,-2.96 -2.84,-5.61 -0.8,-0.12 -0.93,1.7 -0.83,-0.38 -1.21,2.02 -5.19,-0.27 -3.99,-1.04 -0.17,-3.37 -3.29,-1.55 -0.64,0.71 1.83,2.12 -0.97,1.58 -0.9,-0.59 -0.44,2.56 1.3,-0.98 0.31,3.35 2.02,1.37 4.42,6.43 -2.68,3.17 -6.38,-2.96 1.73,-3.56 -1.28,-4.8 0.47,-9.63 -2.69,-2.81 -5.23,-0.13 -2.75,-4.22 -2.27,-1.89 0.99,-1.8 -2.47,-3.49 1.2,-0.71 0.48,-8.87 -2.17,-6.43 0.14,-1.78 2.24,1.07 0.56,-1.11 -2.44,-0.9 -0.79,-3.28 -1.82,1.46 -3.05,0.15 -7.38,-3.22 0.41,-2.78 4.06,-0.38 2.92,-1.93 0.08,-1.69 -2.34,-2.73 -4.88,-2.02 1.38,-1.13 3.61,0.55 0.19,-2.46 -4.74,-2.15 -6.6,-0.66 0.4,-2.65 -4.13,-5.59 0.77,-1.2 0.81,1.78 7.76,6.48 3.97,1.74 1.69,-0.61 -2.57,-2.2 -0.38,-1.56 -1.09,0.22 -2.64,-1.94 0.48,-1.11 2.24,0.97 -0.91,-1.59 -0.89,0.19 -0.88,-1.3 -2.61,0.6 -2.3,-1.5 -1.71,-4.75 -3.84,-0.41 -2.8,-3.02 -0.46,-2.15 2.67,-0.58 3.54,2.41 3.15,0.42 3.3,-5.89 -1.8,-2.98 h 3.75 l 3.17,-2.27 3.87,-0.65 1.93,1.02 0.13,6.23 2.26,2.81 7.04,1.07 3.2,-0.63 11.59,-8.37 1.74,-2.64 5.19,-1.15 4.44,-3.08 4.46,-0.67 5.62,-2.95 2.11,0.14 1.13,-0.69 1.15,-2.15 10.01,-1.9 -0.41,0.77 0.86,2.5 -0.78,2.72 4.71,-0.24 0.3,-0.93 -1.71,-1.57 0.07,-3.52 -1.7,-2.8 2.72,-0.48 14.36,8.18 4.87,4.94 12.19,9.13 3.15,3.68 -1.07,0.61 -4.09,-5.54 -3.99,-2.82 -0.63,0.58 0.84,1.63 -1.18,0.27 -0.76,0.82 -1.56,0.78 -0.11,1.19 1.82,1.45 0.05,2.15 2.74,3.04 -1.54,1.02 -1.16,-0.57 -0.77,1.32 1.44,1.79 -4.37,-1.06 -0.44,2.53 -1.5,-0.31 -0.71,2.46 -0.22,1.18 -0.18,3.11 -1.51,3.26 2.59,0.45 1.85,-1.7 2.22,1.36 3.48,-3.58 -0.99,-1.97 -1.15,-2.94 5.55,1.87 2.3,-2.62 2.63,1.11 0.02,-0.87 2.13,-0.44 0.83,-1.34 2.45,-0.43 1.89,1.43 1.74,-2.1 -0.58,-4.2 -7.34,-3.75 0.11,-1.08 2.89,-1.92 3.63,3.65 1.93,-0.6 -1.43,-2.62 0.33,-3.72 -2.06,-3.23 -1.31,-6.18 0.2,-0.12 4.03,6.55 1.21,-2.39 -1.78,-1.46 1.33,-0.36 -0.53,-3.6 -1.69,-4.53 -1.28,0.81 -2.6,-2 0.36,-1.82 1.07,1.78 z m -61.68,-8.84 2.82,0.87 0.26,1.46 -1.37,1.68 0.82,5.16 -0.7,1.02 -0.33,-5.74 -2.53,-4.5 z m -119.81,-71.29 1.28,0.15 0.53,1.17 1.4,-0.37 0.86,0.88 0.5,-0.68 v 0 l 0.51,-0.54 v 0 l 1.37,-0.02 -0.7,-0.38 v 0 l -0.01,-0.07 v 0 l 5.68,2.67 v 0 l 0.04,1.59 10.2,14.1 -2.77,1.99 2.14,0.93 -1.14,3.77 4.99,0.49 -0.06,1.32 2.88,0.07 2.28,10.15 2.86,0.51 -0.22,2.54 5.56,-0.36 0.86,-1.62 1.52,2.06 -1.64,2.18 2.39,2.96 3.1,-1.54 3.23,1.09 0.57,-1.4 4.09,2.48 0.42,3.33 -1.73,5.82 v 0 l -12.77,1.92 -2.99,-1.53 -0.24,2.83 4.37,2.22 7.94,-1.02 1.4,1.05 1.66,-1.2 5.14,7.27 1.09,-0.34 3.53,1.96 1.21,6.24 1.78,2.47 6.55,-1.33 7.35,0.81 -8.97,7.43 -0.69,2.97 -2.8,3.37 -0.27,3.11 -1.7,-0.78 -3.07,0.38 -0.5,3.59 1.48,5.92 -2.31,0.12 -6.99,-2.32 -4.57,4.54 -1.9,-1.12 -2.53,0.79 -0.42,-2.28 -5.03,-1.89 -0.66,0.84 0.98,1.61 2.48,0.14 -1.63,1.4 0.9,3.44 -5.84,0.15 -3.72,-1.11 -4.48,2.69 4.41,1.56 7.64,-2.21 2.38,1.68 2.32,-2.71 3.09,-0.45 9.37,9.19 -5.52,5.96 -7.61,2.49 -0.79,1.84 4.04,7.83 -2.81,6.25 -1.51,-2.43 -2.43,-0.83 -1.29,0.55 1.56,2.38 6.76,1.42 3.15,3.54 0.44,3.54 -2.49,3.6 1.45,-0.08 4.06,6.65 -6.03,-1.02 -2.39,3.75 -3.76,0.98 -0.15,2.78 -1.52,0.15 -1.11,2.33 3.56,-2.22 v -2.66 l 3.04,-0.66 3.35,-3.44 1.45,1.15 1.63,-0.65 7.54,5.11 0.9,2.75 -0.94,1.88 0.51,1.33 -3.4,4.36 0.33,5.99 -7.64,4.12 -1.25,-2.81 -5.48,-0.95 -3.89,3.8 -8.71,5.05 0.9,5.15 1.96,2.03 -6.21,-1.04 -1.42,1.64 -0.12,1.07 -0.79,1.43 2.87,-1.03 0.55,0.92 1.25,-1.14 2.2,2.06 1.79,0.35 2.68,4.26 1.62,0.55 -0.06,3.43 -6.93,7.26 -4.71,-0.73 -3.37,1.83 -1.85,-0.5 -0.31,-0.98 -0.46,1.55 -0.1,0.54 -0.14,1.09 0.49,2.09 1.27,0.78 0.95,-0.88 1.74,2.18 5.33,0.36 7.69,-4.04 3.53,-0.68 0.09,-1.91 1.17,-0.4 3.34,2.05 3.27,6.07 3.2,1.03 5.56,4.35 6.14,0.11 0.22,3.21 1.73,1.93 0.4,8.94 1.25,0.8 0.49,2.33 2.07,1.18 -0.62,1.82 -2.95,1.52 -6.43,-1.53 -1.17,1.83 0.22,1.27 3.03,0.37 2.07,1.86 0.37,2.82 2.19,1.88 0.39,2.71 -1.2,2.43 -3.53,1.26 -3.11,-2.8 0.25,-1.36 -3.6,-1.15 -3.1,0.5 -2.66,-1.38 -0.34,-1.42 1.97,-1.39 0.86,-2.02 -2.03,-1.01 -0.74,-2.02 -5.27,-2.95 5.37,-2.33 1.55,0.12 1.01,1.59 2.58,-1.13 -2.85,-3.23 -4.48,-1.92 -1.4,4.59 -2.3,-0.6 -0.78,0.97 1.16,-0.03 0.6,1.12 -3.82,2.12 0.48,2.58 -1.59,2.54 -1.29,0.77 -2.51,-1.3 -0.37,1.19 -1.68,-0.06 -0.57,1.18 -1.44,0.14 -3.32,5.55 -7.37,3.86 -1.95,-0.01 0.01,-1.4 -1.29,-1.07 -3.57,0.79 -1.22,4.32 -2.45,1.42 -1.77,3.6 -1.97,-1.28 -4.96,-0.79 -1.3,-0.17 -1.9,-0.6 -2.82,0.6 -1.97,-5.17 1.25,-3.03 -0.64,-1.47 -12.06,-5.1 -14.56,-0.2 -4.62,-3.48 -9.15,-3.83 -7.76,-0.57 -4.52,1.96 -4.9,-2.42 -3.48,0.51 -3.049995,2.88 -3.05,-1.01 -3.75,0.99 -6.48,-4.23 -6.3,-0.28 3.09,-12.41 0.16,-5.58 -3.78,-12.9 2.01,-11.94 5,-9.92 -0.61,-1.22 1.14,-2.05 -1.85,-0.86 -8.9,0.7 -7.23,-1.17 -0.8,1.85 1.23,4.74 -1.16,5.09 2.57,3.91 -3.08,2.47 -3.07,-0.34 1.63,2.73 -1.45,0.69 -2.86,0.89 -1.02,-0.86 -4.76,-6.84 v -2.86 l 2.13,-18.32 1.05,-1.8 0.95,-3.91 1.48,-1.45 2.91,-0.47 -0.63,1.94 7.29,0.63 2.44,2.11 -0.74,2.58 -1.9,1.79 -0.63,4.48 8.68,1.36 4.7,-0.7 0.95,-1.6 2.28,0.8 0.41,-1.3 -0.83,-0.75 -2.63,-14.41 -0.49,1.34 -0.88,-0.27 1.3,-4.38 -1.07,-0.54 0.05,-2.87 0.98,-0.99 -1.5,-1.35 1.25,-0.44 -2.76,-2.09 1.07,-2.2 1.21,0.53 -0.82,-4.13 0.73,-2.74 -2.18,-0.73 -7.81,4.7 -2.32,5.15 -3.53,0.52 -1.72,-1.84 0.05,-2.1 2.12,-2.8 1.94,-0.66 4.09,0.6 7.12,-4.29 2.4,0.75 1.35,-3.67 0.14,-2.21 -1.89,-3.95 -4.7,-18.74 -9.77,-6.96 -4.48,0.74 -6.57,-1.6 -0.82,1.69 -3.46,-1.52 1.14,-0.09 -0.18,-0.64 -2.44,-0.06 0.76,-1.39 -2.72,-4.11 -13.81,-15.42 -3.28,-4.97 0.47,-1.84 2.57,-1.27 0.05,-0.92 -3.55,-2.83 -2.96,-0.25 -2.78,3.63 -1.62,3.46 0.03,2.87 2.12,4.15 2.45,1.02 -1.34,2.4 1.22,1.96 5.11,4.77 0.07,3.69 -1.76,1.05 -14.13,-12.25 -16.24000004,-7.73 11.74000004,-37.63 2.24,-14.9 -0.75,-10.52 v 0 l 2.6,-0.48 v 0 l -1.37,-3.25 v 0 l 6.18,1.01 -0.12,2.11 6.55,5.1 1.8,-1.06 5.22,0.12 4.01,-5.24 4.04,5.1 6.1,0.61 -1.24,0.88 3.54,1.82 1.2,2.86 6.27,-0.08 2.66,-2.65 -0.16,-5.58 3.33,-0.68 1.31,-2.28 -1.94,-4.63 5.21,-1.6 3.2,3.15 11.51,-3.3 4.4,2.59 1.99,5.88 5.05,1.91 9.389995,-3.27 -4.469995,-4.52 3.969995,-2.38 2.28,-8.44 2.21,0.38 1.32,-3.73 2.27,-0.08 11.63,2.67 -1.07,9.69 7.12,3.66 2.86,-2.44 2.24,1.02 1.73,-3.51 1.67,1.53 3.66,-8.06 2.8,1.95 4.48,-3.51 6.33,-8.18 -0.08,-3.44 3.35,-5.91 5.23,0.3 3.26,3.75 z"
     class="land"
     title="Syddanmark"
     id="DK-83" />
     <g id="stadiums" data-country="denmark" data-circle-radius="6"></g>
</svg>
