<?xml version="1.0" encoding="UTF-8" standalone="no"?>
<?xml-stylesheet type="text/css" href="/styles/home.css"?>
<!-- https://www.amcharts.com/svg-maps -->

<svg version="1.1" xmlns="http://www.w3.org/2000/svg" id="map-england-and-wales"
   viewBox="0 0 380.89841 458.80078" width="380.89841" height="458.80078">
   <defs
     id="defs4">
    <style
       type="text/css"
       id="style2">
			.land
			{
				fill: #78b967;
				fill-opacity: 1;
				stroke:white;
				stroke-opacity: 1;
				stroke-width:0.5;
			}
		</style>
  </defs>
  <path
     id="GBFLN"
     class="land"
     d="m 202.94271,0.41455512 -2.09961,0.80077998 -0.20117,0.19922 -0.29883,0.30078 -0.10156,0.59961 -0.19922,1.30078 -0.0996,0.40039 -0.20117,0.39844 -1.19923,1.30078 -0.19922,0.19922 -0.70117,0.30078 -0.29883,0.19922 -0.5,0.60156 -0.40039,0.29883 -0.20117,0.20117 -0.19922,0.39844 -0.19922,0.60156 -0.30078,0.59961 -2.5,3.9003899 -0.40039,0.39844 -0.40039,0.20117 -0.69922,0.09961 -1.90039,0.0996 -0.5,0.0996 -0.29883,0.20117 -0.20117,0.19922 v 0.5 0.30078 l 0.0996,0.29883 0.10156,0.30078 0.19922,0.19922 0.69922,0.40039 0.20117,0.20117 0.0996,0.29883 v 0.30078 l 0.0996,0.29883 0.20117,0.20117 0.5,0.59961 0.0996,0.19922 0.0996,0.30078 0.0996,0.30078 0.0996,0.59961 0.80078,2.09961 0.80078,1.40039 0.59961,1 0.40039,1 0.0996,0.19922 v 0.30078 0.0996 0.0996 0.30078 0.19922 l 0.0996,0.30078 1.09961,1.59961 0.20117,0.19922 0.0996,0.20117 v 0.29883 0.30078 0.40039 l -0.20117,0.40039 -0.5,0.59961 -0.59961,0.69922 -1,0.70117 -0.5,0.19922 -1.29883,0.30078 -0.70117,0.5 -0.40039,0.59961 -1.39834,0.59965 -0.30078,0.30078 -0.30078,0.59961 -0.19922,0.40039 -0.19922,0.79883 -0.30078,0.40039 -0.30078,0.40039 -1,0.59961 -0.39844,0.0996 -0.30078,-0.0996 -0.0996,-0.30078 -0.5,-0.29883 -0.20117,-0.0996 -0.69922,-0.20117 -1.19922,0.30078 -0.5,0.19922 -4.10156,3.80078 -2.59961,3.19922 -0.59961,0.5 -0.19922,0.20117 -0.10156,0.39844 v 0.60156 l 0.10156,0.29883 0.0996,0.30078 0.0996,0.19922 v 0.20117 0.29883 l -0.0996,0.59961 -0.20117,0.40039 -0.29883,0.30078 -0.59961,0.19922 -0.80078,0.70117 -1.09961,1.79883 -0.59961,0.90039 -1,1 -1.30078,0.90039 -2,1 -0.90039,0.19922 -0.59961,0.5 -1.30078,2 -1,1.5 -0.19922,0.30078 -0.40039,0.40039 -0.29883,0.29883 -1.5,0.70117 -0.30078,0.29883 -0.69922,1.80078 -0.20117,0.19922 -0.29883,0.20117 -0.70117,0.19922 -0.40039,-0.0996 -1.69922,-0.90041 -0.30078,-0.0996 -0.29883,0.0996 -0.20117,0.40039 v 2.19922 l -0.0996,0.30078 -0.59961,1.29883 -0.19922,1.5 0.19922,-0.0996 1.09961,0.59961 v 0.60156 l -0.90039,-0.40039 -0.69922,0.29883 -0.69922,0.5 -0.90039,0.10156 v 0.59961 h 3.19922 l -0.79884,0.5996 -3.90039,1.19922 -0.90039,-0.09961 -1.80078,-0.59961 -0.29883,-0.30078 -0.30078,-0.29883 -0.40039,-0.30078 -0.5,-0.19922 -3,0.90039 -0.69922,0.5 -1.19922,1.39844 2.29883,1.20117 0.59961,0.40039 -1.89844,1.09961 -0.5,0.0996 -0.80078,-0.30078 -0.5,-0.59961 -0.5,-0.5 -0.90039,0.20117 -1.09961,1.39844 -0.90039,2.20117 -1.59961,4.798826 0.5,1.40039 -0.40039,1.5 -0.79883,1.30078 -0.60156,0.79883 -0.5,0.40039 -1,0.40039 -0.39844,0.30078 -0.30078,0.69923 -0.69922,2.09961 -1.5,3.59961 -1.30078,6.300779 -1,2.80078 -0.19922,0.19922 -0.5,0.59961 -0.30078,0.59961 0.40039,0.60156 0.5,1.09961 0.29883,0.29883 0.70117,0.40039 4.40039,6.20117 1.09961,1 1.59961,3.39844 1.19922,0.5 0.10156,0.20117 0.0996,0.79883 0.29883,1.20117 -0.0996,0.69922 -0.19922,0.59961 -0.0996,0.70117 0.29883,1.19922 0.59961,1.09961 1.40039,1.80078 1.70117,3 1,1 1,-0.40039 0.69922,-0.19922 1.09961,0.0996 0.70117,-0.30078 -0.40039,-1.59961 0.40039,-2 0.39844,-0.79883 0.70117,-0.5 v 1.59961 l 0.0996,2.79884 -0.40039,2.30078 -1.59961,0.5 v 0.5 l 0.69922,0.59961 0.10156,1.20117 -0.30078,1.39844 -0.0996,1.20117 0.40039,0.59961 0.59961,0.30078 0.5996,0.19922 h 0.80078 l 0.39844,0.40039 1.70117,2.40039 v -0.90039 l -0.0996,-1.09961 0.0996,-0.90039 1.19922,-0.70117 0.5,-0.79883 0.80078,-1.70117 1.40039,-1.79883 0.19922,-0.59961 0.19922,-0.90039 0.20117,-1.09961 0.19922,-1.10156 -0.19922,-1.09961 0.59961,-0.29883 0.5,0.29883 0.40039,0.80078 0.40039,0.90039 -0.40039,0.89844 0.19922,1.20117 0.70117,1.19922 0.59961,0.5 2.09961,-0.0996 0.90039,-0.59961 0.40039,-1.20117 0.29883,-0.79883 0.90039,-0.70117 1.69922,-0.89844 1.40039,-1.20117 0.59961,-0.90039 0.20117,-1.19922 h 0.29883 l 0.10156,1.5 -0.80078,1.40039 -1,1 -1,0.40039 0.0996,0.79883 0.70117,1.40039 1.09961,2.19922 0.79883,1.20117 -0.89844,2.09961 -0.5,0.80078 -1.5,0.59961 -0.70117,0.69922 -0.90039,1.80078 -0.39844,0.40039 -0.5,0.39844 -0.30078,0.40039 0.0996,0.59961 0.70117,1.80078 0.29883,0.19922 1.40041,-0.19922 0.80078,-0.30078 0.79883,-0.59961 -0.19922,1.30078 -1.59961,1.59961 0.5,0.90039 -0.30078,0.19922 -0.40039,0.30078 -0.40039,0.40039 -0.19922,0.5 -0.0996,0.29883 -0.4004,-0.0996 -0.59961,-0.5 -0.80078,0.0996 -4.29883,1.70117 -1,0.59961 -0.80078,1.40039 0.59961,2.19922 -0.59961,6 0.40039,2.69922 1.29883,1.80078 1.70117,0.80078 4,0.0996 -0.59961,0.79883 -1.70117,1.20117 -0.19922,0.0996 -0.40039,0.90039 -0.40039,0.19922 -2.5,3.30078 -3,5.09961 -0.59961,1.30078 -0.0996,1.09961 0.19922,1.09961 2.30078,5 3.19922,6.90039 1.09961,1.69922 1.5,1.70117 1.80077,1.19924 0.5,0.19922 1.5,0.60156 1.5,0.19922 h 0.5 l 0.90039,-0.40039 0.29883,-1.09961 0.5,-0.40039 2.40039,-0.5 h 0.59961 l -0.39844,0.5 -0.40039,0.20117 -0.40039,0.0996 -0.40039,-0.20117 -0.40039,0.5 -0.39844,0.5 -0.10156,0.70117 0.30078,1 -1.30078,0.79883 -0.69922,0.20117 h -0.80078 l -0.29883,-0.0996 -0.70117,-0.30078 h -0.39844 l -0.40039,0.19922 -0.0996,0.30078 -0.10156,0.40039 v 0.0996 l -1.5,0.0996 -1.29883,-0.59961 -0.80078,-0.69922 -0.40039,-0.40039 -0.79883,-1.09961 -2.80079,-7.30077 -1.09961,-1.30078 -1.09961,-0.0996 -1.70117,1.40039 -0.89844,0.30078 -2,0.29883 -0.90039,0.5 -0.5,0.80078 0.0996,1.19922 0.59961,1.20117 1.70117,2.19922 1.19922,2.5 0.69922,1.19922 0.5,0.90039 v 1.30078 1.59961 l -0.0996,0.30078 -0.40039,-0.40039 -0.59961,-1 -0.69922,-0.80078 -6,-3.90039 -0.5,-0.59961 -0.40039,-0.79884 -1,-0.80078 -1.80078,-0.90039 -1.39844,0.0996 h -0.10156 -0.5 l -6.59961,3.30079 -2.29883,1.09961 -1.80078,0.40039 -5.40039,0.19922 -0.69922,-0.5 -0.80078,-1.09961 -1,-0.90039 -1,-0.39844 -0.90039,0.5 -0.59961,-0.70117 -0.79883,-0.5 -0.90039,-0.29883 -0.90039,-0.10156 0.40039,1 1.29883,1.40039 0.5,1.40039 h -1.59961 l -5.09961,2.19922 -1.19922,1 -0.40039,0.30078 -1.09961,0.30078 -1,0.5 -0.60156,0.39844 -0.39844,-0.0996 -0.30078,-0.19922 -0.40039,-0.0996 -1.5,0.0996 -1.40039,0.40039 -1.19922,0.79883 -1.09961,1.30078 -0.9004,2.0996 -0.69922,0.80078 -0.80078,0.39844 -0.5,0.40039 -1.90039,2.20117 -0.0996,0.39844 -0.30078,0.90039 -0.398436,0.59961 -0.20117,-0.5 -0.0996,-0.5 -0.30078,-0.19922 -0.39844,0.30078 -0.10156,0.89844 -0.0996,3.30078 -0.19922,1.40039 -0.40039,1 -3,2 -1,1.59961 -3.69922,2.90039 -0.90039,0.5 -0.90039,0.29883 -0.90039,0.10156 -0.69922,0.39844 -6.5,7.60156 -0.70117,1.19922 -0.29883,0.40039 0.19922,0.5 v 0.29883 l -0.5,0.80078 0.70117,0.40039 0.69922,-0.30078 0.59961,-0.79883 0.70117,-0.40039 2.59961,0.29883 1.09961,-0.29883 0.30078,-0.30078 0.29883,-0.29883 0.30078,-0.30078 0.59961,-0.19922 0.5,0.19922 0.90039,0.69922 1,0.40039 0.69922,0.80078 0.5,0.0996 0.40036,-0.19921 0.30078,-0.30078 0.59961,-0.59961 -0.59961,-0.80078 0.0996,-1 0.40039,-0.90039 0.69922,-0.5 -0.0996,-0.29883 -0.0996,-0.20117 1.59961,-1.89844 0.90039,-0.80078 1,-0.5 h 3.19921 l 1,-0.59961 0.699216,-0.5 3.40039,-1 2.70118,0.40039 1.29883,-0.10156 1.20117,-0.89844 0.29883,0.89844 0.5,0.10156 0.5,-0.40039 0.59961,-0.59961 0.10156,0.29883 0.19922,0.0996 0.30078,0.20117 -2.80078,2 -0.30078,0.29883 -0.0996,0.5 v 1.10156 l 0.20117,0.59961 0.39844,1.19922 0.10156,1.20117 -0.5,0.5 -0.80078,0.29883 -0.19922,0.59961 0.29883,0.70117 0.90039,1.90039 3.5,4.39844 0.80078,-0.19922 0.79883,-0.59961 1.30078,-0.20117 -0.59961,0.80078 -1.90039,1.5 -0.59961,0.19922 -0.10156,0.10156 -0.0996,0.29883 -0.29883,1.09961 -0.10156,0.20117 -0.89844,0.59961 -0.90039,1.5 -0.80078,1.90039 -0.19922,1.90039 0.59959,1.19923 2.09961,2.90039 0.70117,0.59961 1.29883,-0.19922 2.40039,-0.90039 h 1.30078 v 0.5 0.0996 l -2.40039,1.80078 -0.80078,0.29883 -0.5,-0.0996 -1.09961,-0.5 h -0.30078 l -0.29883,0.69922 -0.0996,0.90039 0.0996,0.90039 0.29883,0.69922 -0.59961,1.10156 -0.5,1.59961 -0.40039,1.79883 -0.39844,3.20117 -0.60156,1.79883 -1.39844,2.60156 -2.70117,3.89844 -5.599616,4.90039 -0.80078,0.20117 -1,0.0996 -0.79883,0.19922 -0.59961,0.40039 -1.40039,1.69922 -0.90039,0.90039 -1,0.59961 -1.40039,0.40039 -0.29883,0.5 -0.20117,0.5 -0.29883,0.40039 -0.60156,0.19922 -5.69922,-0.19922 -1.80078,0.90039 0.10156,2.19922 -1,-0.69922 -0.60156,-0.5 h -0.59961 l -0.90039,1 -1.09961,1.90039 -0.69922,0.79883 -0.90039,0.70117 -1.59961,0.19922 -0.30078,0.30078 -0.09961,0.69922 0.30078,0.90039 v 0.69922 l -0.40039,0.30078 -1,-0.0996 -1.80078,-0.80078 -0.90039,-0.0996 0.30078,1 -1.30078,0.59961 h -0.89844 l -2.5,-1.40039 -0.60156,-0.0996 -1.19922,-0.0996 -0.80078,0.19922 -0.5,0.30078 -0.0996,0.59961 0.59961,0.40039 v 0.5 h -0.69923 l -0.19922,2 -1.40039,1.29883 -1.90039,0.70117 -1.5,0.19922 -0.59961,0.30078 -1.40039,1.5 -0.90039,0.29883 -1.69922,0.20117 -0.40039,0.40039 0.40039,1 v 0.5 l -0.5,0.19922 -0.0996,0.30078 0.0996,0.19922 0.0996,0.40039 v 0.5 l -0.30078,0.19922 -0.29883,0.30078 h 0.90039 l 2.59961,-0.5 0.69922,-0.5 0.80078,0.5 1.90039,0.29883 0.79883,0.70117 0.30078,-0.5 0.69922,0.59961 0.40039,0.90039 0.19922,1.19922 v 1.09961 l 0.30078,1.90039 -0.19922,0.80078 -0.70117,0.69922 -0.79882,0.40035 -1.60156,0.30078 -0.69922,0.69922 -0.5,0.69922 -0.5,0.40039 -0.69922,0.0996 -1,0.10156 0.89844,0.19922 2.30078,1.80078 v 0.5 l -0.0996,0.79883 h 0.69922 l 0.5,-0.59961 -0.40039,-1.19922 0.80078,-0.40039 6.5,0.90039 h 1 l 3.69922,-0.90039 0.70117,-0.70117 0.0996,-0.89844 -0.59961,-0.60156 0.19922,-1.09961 -0.19922,-0.69922 -0.5,-0.30078 h -0.80078 l 0.59961,-0.29883 2.60156,-0.30078 1.39844,-0.59961 0.5,-0.30078 v 0.5 l -1.79883,0.5 -0.80078,1.5 0.30078,1.90039 1.29883,1.30078 v 0.5 l -0.59961,-0.40039 -0.5,0.0996 -1.09961,0.80078 -2.30078,0.5 -1.5,0.89844 -0.69922,0.20117 -0.59961,-0.0996 -1.30078,-0.5 -0.69922,0.0996 0.0996,0.19922 0.19922,0.59961 0.10156,0.20117 -3.60156,-0.5 -0.29883,0.5 0.90039,1.09961 2.29883,0.59961 0.70117,1.40039 -0.5,0.80078 1.19922,0.89844 3,1 0.5,0.30078 0.19922,0.0996 0.5,-0.19922 0.30078,-0.70117 0.90039,-0.39844 0.5,-0.5 0.29883,-0.70117 0.40039,-0.59961 0.80078,-0.5 0.69922,-0.0996 4.20117,0.0996 0.79883,-0.90039 0.30078,-0.19922 0.59961,0.5 0.5,0.19922 0.80078,-2.19922 0.0996,-0.5 v -0.30078 l 0.09963,-0.19919 h 0.5 v -1.90039 l 1.59961,-1.09961 0.30078,-0.0996 1.69922,-0.5 1.30078,-0.10156 3.5,0.5 1.79883,-0.0996 1.60156,-0.90039 -0.70117,-0.69922 -0.29883,-0.69922 0.0996,-0.5 0.90039,-0.20117 0.39844,0.59961 0.40039,0.30078 0.5,0.19922 0.30078,-0.19922 0.40039,-0.59961 0.29883,-0.30078 0.30078,-0.79883 0.29883,-0.20117 0.30078,0.5 v 0.70117 l -0.19921,0.6992 -0.30078,0.5 -0.0996,0.19922 0.40039,0.90039 0.79883,0.5 0.80078,0.20117 H 95.8431 l -0.499996,0.59961 -0.80079,0.0996 -1.90039,-0.19922 0.59961,1.39844 1.10156,1.30078 1.19922,1 1.099606,0.40039 3.59961,-0.59961 0.70118,-0.40039 2.59961,1.40039 1.80078,0.19922 0.5,-0.0996 0.39844,-0.20117 0.60156,-0.69922 0.19922,0.0996 v 0.20117 0.39844 0.5 l -1,1.70117 -2.19922,0.5 -2.40039,0.19922 -1.4004,0.5 -0.40039,-0.40039 -0.29883,-0.19922 v -0.5 h 0.29883 l -0.29883,-0.5 -0.30078,0.40039 -0.5,0.90039 -0.19922,0.29883 -1.60156,0.5 v 1.09961 l 0.5,1 0.10156,0.80078 -0.90039,0.69922 0.0996,0.5 0.0996,0.20117 0.0996,0.29883 0.90039,0.10156 2.70117,1.09961 0.59962,0.0996 0.19922,-0.80078 h 0.40042 l 0.5,0.40039 0.5,0.0996 0.5,-0.29883 0.59961,-0.80078 0.5,-0.40039 0.5,-0.29883 0.5,0.0996 1.09961,0.19922 0.5,0.40039 0.30078,0.0996 0.19922,-0.0996 0.5,-0.79883 0.10156,-0.10156 h 0.29883 l 0.40039,0.20117 0.30078,0.19922 0.0996,0.30078 0.19922,0.40039 0.20117,-0.10156 0.29883,-0.39844 v -0.10156 h 1.9004 l -0.30078,-0.69922 -0.5,-0.69922 -0.39844,-0.80078 0.0996,-0.69922 0.40039,-0.40039 0.59961,-0.40039 0.69922,-0.30078 3.5,-0.5 1.5,-0.0996 0.59961,0.0996 0.5,0.5 0.70117,1.40039 0.40039,0.59961 0.79883,0.5 0.40039,0.40039 0.59961,1 0.5,1.30078 0.30078,1 0.19922,0.40039 0.30078,1.5 h -0.0996 l -0.20117,0.0996 v 0.0996 0.30078 l 0.5,0.79883 0.90039,0.90044 1.09961,0.5 0.80078,-0.40039 0.69922,0.0996 2.70117,2.30078 1.39844,1.90039 0.80078,1.09962 0.90039,0.5 11.69922,1.09961 3.30078,-1.40039 0.69922,0.10156 0.90039,0.29883 0.80078,-1 0.39844,-1.59961 -0.59961,-1.59961 0.30078,-0.20117 0.59961,-0.0996 0.40039,-0.19922 0.19922,-0.40039 0.20117,-0.80078 0.19922,-0.29883 1.19922,-1.30078 0.80078,-0.59962 0.59961,-0.19922 h 0.0996 l 2.70117,-1.80078 0.29883,-0.5 1.20117,-1.5 0.40039,-0.30078 0.29883,0.20117 0.20117,0.5 0.39844,0.59961 0.60156,0.19922 4,-0.29883 2,-0.70117 0.79883,-0.59961 1.80078,-1.19922 2.19922,-0.5 0.90039,-0.80078 1.30078,-1.5 3.09961,-3.69922 0.40039,-0.70117 0.5,-0.5 2.69922,-1.89844 0.69922,-0.90039 0.60156,-1 0.59961,-0.80078 0.90039,-0.40039 0.89844,-0.0996 1.10156,-0.29883 0.89844,-0.80078 0.20117,-1.40039 0.59961,0.70117 0.19922,0.79883 -0.39844,0.90039 -0.80078,0.69922 -2,0.70117 -0.80078,0.5 -1.59961,2.19922 -1.69922,1.80078 -1,1 -0.20117,0.40039 -0.29883,0.69922 -0.30078,0.69922 -0.0996,0.60156 -0.19922,0.69922 -0.40039,0.30078 -0.5,0.19922 -0.40039,0.30078 -3.30078,5.69922 -0.79883,1.40039 -1,1 -0.59961,0.29883 -0.30078,0.10156 -1.19922,0.0996 -0.90039,0.29883 -0.80078,0.5 -0.79883,0.70117 -3.20117,4.19922 -1.69922,1.70117 -1.5,-0.30078 -1.09961,1.09961 0.79883,0.70117 -0.29883,0.69922 -0.70117,0.69922 -0.40039,0.70117 v 1.19922 l -0.19922,0.70117 -0.5,0.19922 -0.90039,-0.30078 0.59961,0.90039 0.10156,1.40039 v 2.80078 l 0.0996,0.69922 0.19922,0.40039 0.0996,0.5 -0.0996,1 -0.19922,0.5 -0.80077,1.59961 -0.59961,-0.59961 0.59961,-1 -0.29883,-0.5 -1.30078,0.90039 -1.90039,0.29883 -3.09961,-0.19922 -1.69922,0.19922 -3.30078,1.09961 -5.40039,0.20117 -0.90039,-0.40039 -1.39844,-1.30078 -5.80078,-1.39844 -3.80078,0.0996 -3.39844,-0.90039 -2.70117,-0.69922 -0.79883,0.0996 -1.5,0.79883 -1,0.20117 h -3.40039 l -0.90039,0.19924 -1.80078,0.59961 -8.5,0.80078 -3.59962,1.5 v 0.40039 l 0.5,0.40039 0.4004,0.59961 0.0996,0.79883 -0.29884,0.80078 -0.40039,0.19922 -1.59961,-0.19922 0.39844,0.69922 0.80078,1.20117 0.0996,0.40039 0.0996,0.59961 0.60156,2 0.29884,0.69922 -0.50001,0.30078 -0.29883,0.40039 -0.20117,0.5 -0.29883,0.39844 -3.10156,3.60156 -0.699216,0.5 -1,0.29883 -2.69922,-0.29883 -0.5,-0.20117 -1,-0.69922 -0.5,-0.20117 h -4.10156 l -0.29883,0.5 0.0996,1 0.0996,1.10156 0.20117,0.5 -0.60156,1.89844 -0.39844,0.60156 -0.20112,1.19922 -0.29883,1.90039 0.19922,6.59961 -1.19922,2.5 -2,1.5 -0.90039,1 -0.30078,1.30078 -0.59961,1 -3.30078,2.79883 -0.59961,-0.19922 -0.5,0.40039 -0.19922,0.79883 0.29883,1.09961 -0.69922,1.20117 -0.59961,1.29883 -0.70117,1.10156 -1.39844,0.5 -3.40039,0.19922 -1.20117,-0.19922 v 0.39844 l 0.20117,0.80078 -0.20117,0.59961 -0.0996,0.70117 0.80078,0.89844 1.5,0.60156 0.79883,0.5 0.5,1 -0.69922,-0.40039 -2,-0.0996 -0.80078,-0.5 -0.19923,0.19921 -0.0996,0.0996 -0.30078,0.20117 -0.09962,-0.80077 -0.0996,-1 -0.20117,-0.90039 -0.29883,-0.40039 -0.30078,0.10156 -0.59962,0.69922 -0.40039,0.30078 h -0.90039 l -1,0.69922 -0.39844,1 -0.20117,1.30078 v 1.5 l -0.40039,2.89844 -0.5,1 -0.0996,0.40039 -3.19922,1.70117 h -0.4004 l -0.69922,0.0996 -0.5,0.29883 0.29883,1.5 0.0996,0.90039 -0.0996,0.90039 -0.0996,0.40039 -0.69922,0.19922 -1.70117,1.20117 -5.40039,5.59961 -1.69922,1 h -1.69922 l -0.20117,0.29883 -0.19922,0.70117 -0.30078,0.69922 -0.69922,1.09961 -0.90039,0.60156 -1,-0.5 -1.40039,-1.40039 h -1.09962 l -1.80078,1.19922 -1.59961,0.59961 -3,1.70117 -1.29883,0.5 -0.40039,0.29883 -0.90039,1.5 -0.0996,0.20117 -0.0996,0.40039 v 0.79883 l 0.29883,1.30078 h 0.0996 l 0.10156,0.19922 0.0996,0.40039 v 0.40039 l -0.20117,0.29883 -0.29883,0.20117 h -0.5 l 0.5,2.29883 1.79883,0.60156 2.30078,-0.20116 1.90039,-0.59961 0.69922,-0.40039 0.80078,-0.69922 0.5,-0.90039 -0.30078,-1.30078 v -1 l 0.90039,-0.79883 1.30078,-0.40039 0.89844,-0.0996 0.80078,0.40039 1.59961,0.89844 1.90039,0.40039 2.80078,1.30078 0.89844,0.69922 0.80078,0.90038 1.30078,2.19922 0.29883,0.70117 0.0996,0.59961 -0.0996,0.5 0.20117,1 0.19922,0.5 0.19922,0.30078 1.40039,1.59961 0.5,0.40039 0.40039,0.0996 0.19922,-0.30078 0.5,-1.79883 1.40039,-1.60156 0.30078,-0.29883 0.59961,-0.0996 0.90039,0.19922 0.5,-0.0996 1.29883,-2 0.60156,-1.40039 -0.20117,-0.59961 -0.19922,-0.20117 -0.0996,-0.89844 -0.10156,-0.40039 h -0.29883 l -0.5,0.0996 -0.20117,-0.0996 -0.69923,-0.4004 -0.40039,-0.0996 h -0.5 l 1.5,-0.59961 0.40039,-0.40039 0.19922,-0.5 v -0.59961 -0.5 l 0.5,-0.40039 0.5,-0.40039 0.30078,-0.0996 h 0.40039 l -0.70117,-0.80078 -0.29883,-0.19922 v -0.5 l 0.59961,-0.8008 v -0.79883 -0.60156 l 0.90039,-0.29883 0.59961,0.5 0.30078,2.59961 0.59961,0.90039 1.90039,-3.30078 0.59961,-0.69922 2,-0.70117 0.90039,-0.39844 0.79883,-1.10156 0.90039,-0.39844 2.30078,0.39844 0.5,-0.5 0.0996,-0.39844 0.5,-1.40039 v -0.30078 l -0.20117,-0.5 -0.0996,-0.40039 0.20117,-0.5 0.39844,-0.5 0.40039,-0.5 0.30078,-0.29883 v -0.5 l -0.30078,-1 0.5,-0.59961 0.90039,-0.30078 1,-0.0996 0.30078,-0.0996 0.19922,-0.3008 0.30078,-0.19922 0.29883,0.0996 0.70117,2 h 0.19922 l 0.30078,-0.20117 0.0996,-0.19922 v -0.0996 l 7.69922,-0.5 1.80078,-0.70117 3.40039,-2.09961 2.19922,-0.29883 3.999996,1.09961 0.80078,0.5 0.39844,1 0.5,0.90039 1.00001,0.0996 v -0.5 l -0.19922,-0.5 v -0.5 l 0.40039,-0.40039 0.5,-0.0996 v -0.5 h -1.30078 l 0.30078,-0.59961 -0.9004,-0.10156 -0.40039,0.10156 v -0.5 l 1.59962,-0.40039 -1.00001,-0.80078 -2.69921,0.40039 -0.80078,-1.09961 2.30078,0.19922 0.59961,-0.19922 0.40039,-0.59961 0.19922,-0.80078 -0.19922,-0.69922 -0.69922,-0.5 v -0.40039 h 0.59961 l 0.5,-0.30078 0.29884,-0.5 0.10156,-0.19922 0.0996,-0.59961 0.5,0.39844 0.5,0.10156 0.90039,-0.5 -0.5,1.09961 -0.60156,1 -0.0996,0.40039 -0.29883,0.59961 0.39844,1.19922 0.40039,0.80078 0.20117,0.59961 0.29883,0.40039 0.59961,0.40039 0.5,0.19922 1.70117,-0.19922 -0.59961,1.39844 0.0996,0.30078 0.29883,0.80078 1.10156,0.79883 1,0.30078 -0.20117,0.69922 -0.0996,0.30078 0.80078,0.59961 0.5,0.30078 0.5,0.0996 0.39844,-0.20117 0.60156,-0.69922 0.29883,-0.0996 0.40039,-0.20117 1.19922,-0.69922 0.40039,-0.0996 0.59961,0.19922 3,2.90039 2.80078,3.40039 1.69922,1.59961 0.70117,-0.80078 0.69922,0.10156 0.90039,0.39844 1,0.30078 0.80078,-0.0996 1.89844,-0.59961 0.70117,-0.30078 -0.30078,-1.90039 0.20117,-1.69922 0.5,-1.5 0.29883,-1.30078 0.40039,-0.69922 1.09961,-0.30078 1,-0.59961 0.30078,-1.59961 0.79883,0.59961 0.70117,0.30078 0.59961,-0.40039 0.30078,-1.90039 0.0996,-0.0996 0.0996,-0.20117 0.40039,-0.19922 0.40039,-0.0996 0.0996,-0.30078 0.40039,-1.29883 v -0.5 l -2.10156,0.0996 -0.79883,-0.40039 -0.30078,-1.19922 0.30078,-1 0.79883,-0.60156 1.10156,-0.29883 1,-0.0996 -0.80075,-3.1016 v -0.5 -0.89844 l 0.5,-2 0.59961,-1.5 0.70117,-1.30078 0.69922,-1 0.90039,-0.80078 -0.40039,-1 -0.69922,-2.5 -0.60156,-0.69922 v -0.30078 l 0.10156,-0.39844 0.0996,-0.10156 h 0.29883 l 0.10156,0.20117 0.0996,0.0996 0.19922,0.0996 0.20117,0.30078 0.59961,1.79883 0.5,1.10156 0.69922,0.59961 0.80078,0.19922 1,0.0996 3.40039,-1.5 0.69922,-1 0.40039,-1 0.59963,-0.69919 1.90039,-0.5 1.59961,-0.69922 0.90039,-0.20117 0.5,0.0996 0.90039,0.40039 0.5,0.0996 0.39844,-0.19922 0.80078,-0.69922 0.30078,-0.10156 1,-0.89844 0.59961,-0.20117 1.69922,0.5 1.09961,-0.0996 1.70117,-1.09961 0.79883,-0.20117 2.70117,-0.69922 1.09961,0.0996 8,3 9.90039,7.59961 1,1.80078 0.0996,2.80078 h 0.30078 l 0.59961,-1 0.5,-1.20117 -0.0996,-0.90039 -1.20117,-0.39844 -0.40039,-0.70117 0.30078,-1.59959 0.5,-1.59961 0.59961,-0.70117 1.70117,-0.59961 1,-0.0996 1.69922,1 8.59961,0.90039 3.59961,1.69922 0.80078,0.20117 3.80078,-0.10156 0.79883,-0.39844 -0.0996,-1.10156 1.69922,-2 -0.29883,-0.0996 -0.70117,-0.5 0.30077,-1.19924 -0.30078,-0.59961 -0.69922,-0.10156 h -0.69922 l -0.90039,-0.19922 -0.59961,-0.59961 -1,-1.80078 -0.5,0.40039 -0.5,0.40039 -0.60156,0.19922 -0.59961,0.0996 1.70117,-2.69922 0.39844,-0.40039 0.20117,0.20117 0.40039,0.89844 v 0.10156 l 0.19922,0.29883 0.40039,0.0996 1.19922,-0.0996 1.80078,0.5 0.0996,0.4004 0.0996,0.69922 0.20117,0.60156 0.5,-0.40039 0.69923,-0.90039 0.80078,-0.59961 h 0.0996 l 0.90039,-0.5 0.89844,-0.30078 1,-0.0996 1.80078,0.40039 1.19922,0.19922 0.90039,-0.19922 1.80078,-1 1,-0.30078 h 0.90039 0.0996 l 3.19922,0.59961 1,0.70117 1,0.29883 0.0996,-0.29883 1.60156,-2.80078 1.5,0.20117 h 0.19925 l 0.5,-0.40039 1.19922,-0.5 2.20117,-0.4004 v -0.40039 l -0.30078,-0.29883 -0.40039,-0.30078 0.70117,-0.19922 3,-0.30078 1.09961,-0.30078 0.0996,-0.89844 -0.40039,-1 -3.59961,-4.20117 -1.19922,-1.40039 h -0.59961 l -0.80077,-0.59961 -0.5,-0.19922 v -0.5 l 0.80078,0.5 5.19922,2.90039 0.90039,1.09961 0.79883,1 0.70117,0.40039 1.5,0.5 1.09961,1 1.5,0.79883 0.30078,0.70117 0.39844,0.39844 0.70117,0.5 0.90039,0.30078 0.59961,0.0996 0.59961,-0.5996 0.19922,-0.80078 -0.0996,-1.39844 -0.29883,-0.5 -1.70117,-1.40039 0.70117,-0.20117 2.89844,-0.19922 h 0.10156 l 0.79883,0.40039 -0.29883,1 -0.80078,1.29883 -0.5,1.30078 1,1.09961 1.19922,-0.19922 0.70117,-1.40039 0.40039,-1.80078 0.59961,-1.29883 0.90039,-0.20117 h 0.29883 1.09961 l 1.5,0.30078 0.40039,0.19922 0.5,0.30078 -0.40039,1 0.30078,0.0996 0.59961,-0.40039 0.20117,-0.19922 0.59961,0.30078 0.90039,0.89844 0.39844,0.40039 v 0.4004 l -1.29883,0.59961 -0.59961,0.5 -0.30078,0.70117 0.30078,0.5 4.29883,2.69922 1.09961,0.40039 0.90039,-0.59961 0.20117,-0.70117 -0.30079,-1.40039 0.19922,-0.69922 0.5,-0.0996 0.40039,0.19922 0.40039,0.40039 0.40039,0.0996 7.59961,-2.59961 h 8.09961 l 6,-2.09961 1.70117,0.59961 1.09961,-0.59961 h 0.0996 l 1.59961,0.0996 8.90039,3.30078 0.80078,0.29883 2,0.0996 0.89844,0.30078 0.80078,0.80078 0.40039,0.29883 h 1.69922 0.5 l 2.09961,0.90039 1,0.0996 h 1.70117 l 1.69922,-2.5 1.59961,-1.09961 0.10156,-0.30078 0.5,-0.69922 0.5,-0.69922 h 0.19922 l 1.80078,-0.80076 10.09961,-2.19922 1.90039,-0.80078 4.59961,-4.5 1.90039,-0.69922 3.09961,1.09961 3.59961,1.19922 1.59961,-0.69922 -0.5,-2.90039 -0.0996,-1.90039 0.40039,-0.90039 2.40039,-3.5 1.89844,-1.69922 0.90039,-0.59961 0.90038,-0.30078 h 3.09961 l 0.90039,-0.40039 0.40039,-0.39844 0.40039,-0.5 0.5,-0.5 0.5,-0.20117 1,0.0996 0.59961,-0.0996 1.19922,-1 3.20117,-1.09961 1.19922,-1.5 1,-2.40039 0.40039,-2.79883 -0.40039,-3 -0.80078,-2 -0.29883,-1.20117 -0.20117,-1.69922 0.30078,-0.20117 h 1.59961 l 0.40039,-0.29883 0.19922,-0.30078 0.20117,-0.5 0.19922,-0.40039 0.40039,-2.5 -1.09961,-0.69922 -15.09961,1.40039 -5.80078,1.79883 -10,-1.09961 -0.5,-0.59961 -0.69922,-1.19922 -0.5,-1.40039 -0.10156,-0.90039 -1,-0.0996 -0.19922,0.79883 0.19922,1 0.40039,0.90039 -1.90039,-0.5 h -4.09961 l -0.40039,-0.19922 -0.29883,-0.5 -0.40039,-0.5 -0.30078,-0.4004 0.80078,-0.59961 1.69922,-0.40039 1.5,-1.40039 h 0.70117 l 1.69922,0.30078 1,-0.0996 0.5,-0.40039 -0.0996,-0.70117 -0.59961,-1.09961 -0.70117,-0.5 -7.5,-1.09961 -1,0.30078 -2,0.59961 -0.19922,0.19922 -0.19922,0.5 -0.20117,0.59961 -0.40039,0.20117 -3,0.5 0.70117,-0.40039 0.69922,-0.19922 0.70117,-0.40039 0.59961,-0.80078 0.29883,-0.79883 0.10156,-0.80078 0.29883,-0.5 3.20117,-0.90039 h 1 l 0.29883,-0.0996 0.70117,0.80078 0.69922,-0.70117 0.59961,-0.0996 h 0.59961 l 0.70117,-0.30078 0.90039,-0.79883 0.0996,-0.0996 0.0996,-0.10156 h 0.19922 0.60156 v 0.10156 l 1.29883,-0.10156 3.70117,0.60156 2.09961,-0.70117 0.59961,-0.40039 2.09961,-1.29883 2.40039,-2.20117 1.30078,-2.09961 -0.20117,-0.40039 -0.40039,-0.19922 -1.29883,0.0996 0.69923,-0.59964 0.40039,-0.30078 0.0996,-0.5 v -1.69922 l 0.20117,-0.69922 0.5,-0.40039 -0.40039,-0.90039 -0.20117,-0.59961 -0.0996,-0.59961 0.0996,-0.10156 0.20117,-0.59961 0.19922,-0.69922 -0.0996,-0.59961 -0.69922,-0.80078 -0.90039,0.19922 -1.30078,1.10156 -1.40039,0.59961 -3,0.59961 -1.39844,1.40039 -0.5,-1.20117 -0.80078,-0.39844 -0.80078,-0.10156 -0.79883,-0.39844 1.09961,-0.60156 2.09961,-0.89844 1.20117,-0.10156 0.39844,0.10156 1.10156,0.5 h 0.5 l 0.5,-0.30078 0.79883,-0.59961 0.5,-0.20117 0.30078,-0.39844 0.19922,-0.90039 0.0996,-0.90039 v -0.40039 l 0.40039,-0.19922 1.40039,-1.30078 1.80078,-0.90039 0.69922,-0.79883 0.0996,-1.5 0.40041,1.09961 1.5,2.09961 0.80078,1.5 0.39844,0.40039 0.90039,0.0996 3.30078,-0.5 1.5,-0.59961 2.40039,-1.69922 2.69922,-2.40039 0.5,-1.20117 v -1.59961 h -0.19922 l -0.40039,0.80078 -0.5,0.5 -1.70117,-0.30078 -0.69922,-0.29883 -0.59961,-0.40039 3.69922,-3.90039 0.0996,-1.40039 -0.89844,0.59961 -7.80078,-0.5 -0.80078,-0.39844 -0.39844,-0.20117 1.19922,-0.19922 2.19922,-0.80078 h 1.10156 l 1.29883,0.80078 0.59961,0.19922 0.5,-0.0996 1,-0.30078 0.60156,-0.0996 0.89844,0.30078 0.20118,-0.4004 v -1.19922 l -0.20117,-0.30078 -0.5,-0.30078 -2.09961,-0.5 -1,-0.69922 -1.69922,-1.59961 v -0.5 l 1.29883,0.29883 2.30078,1.80078 1.40039,0.5 3.19922,4.09961 0.5,-0.19922 0.59961,-0.80078 3.20117,-3.69922 1.19922,-1.70117 0.30078,-0.29883 0.40039,-0.5 0.0996,-1 0.29883,-0.59961 0.60156,0.5 0.79883,-0.90039 3.70117,-1.5 0.29883,-0.5 v -1 l 0.70117,-2.09961 0.19922,-1.40039 0.80078,-2.59961 0.29883,-1.5 -0.0996,-3.40039 0.0996,-2 0.5,-0.80078 0.5,-0.59961 1.5,-2.69922 2,-5.5 0.0996,-0.80078 v -0.69922 l 1.20117,-4 0.59961,-0.70117 0.19922,-0.69922 -1.09961,-3.59961 v -2.80078 l -0.0996,-1.5 -0.30078,-1.19922 0.30078,-1.60156 -0.59961,-2.29883 -0.80078,-2.30078 -0.90039,-3.59961 -1.09961,-1.90039 -1.40039,-1.59961 -11.59961,-9 -5.69922,-2.90039 -14.40039,-3.5 v 0.5 h 0.59961 0.5 l 0.59961,0.20117 0.5,0.39844 -2.09961,1 -2.29883,-0.59961 -2.10156,-1 -1.89844,-0.5 h -3.90039 l -1,-0.19922 -1.09961,-0.5 -1,-0.20117 -1,0.30078 0.39844,0.59961 -2.29883,-0.0996 -2.5,0.5 -2.30078,1.09961 -1.69922,1.70117 -0.59961,1.29883 -0.70117,1.90038 -0.59961,2.09961 -0.30078,1.90039 -0.59961,1 -1.19922,1.40039 -0.90039,1.40039 0.19922,1.29883 v 0.5 l -0.69922,-0.40039 -1.30078,-1.89844 -0.79883,-0.40039 -1.80078,-0.20117 -0.29883,0.10156 -0.70117,0.0996 -0.79883,0.59961 -1.20117,-1.40039 -2.40039,-3.79883 -1.09961,-0.70117 -0.69922,-0.29883 -1.30078,-1.10156 -0.59961,-0.19921 -2.40039,0.5 -1.40039,-0.0996 -0.0996,-0.90039 0.59961,-1.09961 0.80078,-0.5 1.09961,-0.5 0.90039,-1 3.69922,-5.5 0.70117,-0.5 0.79883,-0.40039 4.20117,-4.19922 0.79883,-0.5 0.90039,-0.20117 0.5,-0.19922 0.30078,-0.59961 1,-4.10156 v -3.29883 l -0.70117,-3 -3.79883,-10.5 -0.20117,-1.09961 -0.5,-1.30078 -0.79883,-1 -0.80078,-0.69922 0.40039,-0.5 -1.40039,-1 -0.40039,-0.10156 -0.29883,-0.29883 -0.0996,-0.70117 -0.10156,-0.89844 -0.0996,-0.5 -0.79883,-0.90039 -0.80081,-0.4004 -0.90039,-0.19922 -0.90039,-0.40039 -3.5,-2.90039 -1,-0.80078 -2.19922,-2.79883 -0.69922,-0.30078 -1.60156,-0.19922 -0.79883,-0.59961 -1.5,-1.70117 -2,-1.09961 -0.5,-0.80078 -2.90039,-4.5 -0.90039,-1.59961 -1.29883,-0.59961 -8.40039,1.59961 -1.30078,1.09961 -0.69922,0.20117 -0.70117,-0.40039 -0.5,-0.59961 -1.89844,-1.40039 -1.10156,-0.30078 -1.39844,0.10156 -1.30078,0.59961 -0.69922,1.29883 -0.40039,-0.29883 v -0.0996 l -0.40039,-0.30079 -0.40039,-0.19922 -0.40039,-0.20117 3.20117,-2.09961 1,-0.40039 2.69922,0.40039 0.0996,0.0996 1.20117,1.20117 0.29883,0.0996 1.60157,-0.40037 h 2.79883 0.90039 l 5.90039,-2 0.40039,0.0996 1.69922,0.30078 1.59961,1.19922 4.5,5.80078 0.80078,0.69922 1,0.5 1,0.30078 1.19922,0.19922 1,-0.29883 1.80078,-1.10156 0.90039,-0.29883 1,0.40039 2.09961,1.5 0.90039,0.29883 0.79883,0.59961 -0.29883,1.40039 -1,2.40039 1,-0.80078 0.29883,-0.29883 0.59961,-2.59961 -0.79883,-2.60156 -8.30078,-12.5 -5,-7.79883 -0.79883,-2.40039 -1.40039,-5.19922 -1,-2.30078 1.19922,-3.09961 1.40039,-1.70117 4.19922,-2.29883 -1.69922,-1.5996 -4.19922,-1.60156 -1.60156,-0.69922 -1.19922,-1.30078 -0.0996,-0.29883 -0.30078,-2.09961 -0.40039,-0.90039 -1.09961,-0.5 -0.5,-0.59961 -0.5,-0.30078 -1.90039,-0.5 -0.39844,-0.5 -0.80078,-1.30078 -0.40039,-0.39844 0.0996,-0.30078 0.20117,-0.80078 -0.5,-0.19922 -0.40039,-0.40039 -0.19922,-0.5 -0.20117,-0.59961 v -1.59961 l -0.59961,-2 -0.80078,-1.90039 -0.69922,-1.30078 -0.59961,-0.69922 -1.59961,-1.09961 -0.5,-0.70117 -0.10156,-0.79883 0.10156,-0.59961 -0.10156,-0.80078 -0.59961,-1.09961 -1.29883,-1.30078 -10.10156,-6.5 -0.39844,-0.19922 -9.60156,-3.099609 -2.29883,-1.5 -2,-0.30078 -0.90039,-0.30078 -0.80078,-0.69922 -0.79883,-1.09961 -0.40039,2.29883 -0.30078,0.40039 -0.59961,0.0996 0.0996,-0.0996 -0.0996,-0.40039 -0.19922,-0.39844 -0.0996,-0.20117 -0.20118,-0.0996 -0.0996,0.19922 -0.0996,0.30078 -0.0996,0.0996 h -0.40039 -0.0996 l -0.30081,-0.19921 -0.19922,-0.30078 -0.10156,-0.59961 1.10156,-0.5 0.5,-0.40039 0.29883,-0.69922 -0.29883,-0.40039 -0.30078,-0.59961 -0.19922,-0.5 -0.10156,-0.70117 -0.29883,-0.5 -0.0996,-0.19922 v -0.40039 h 1 v -0.59961 l -2.5,-1.09961 -0.70117,-0.59961 -0.19922,-0.30078 -1.5,-1.80078 -1,-2.59961 -2,-7.499996 -0.70117,-2.59961 0.10156,-0.80078 -0.30078,-0.29883 -0.0996,-0.70117 -0.0996,-1.79883 v -0.5 l 0.0996,-0.40039 v -0.40039 l -0.40039,-0.90039 -1.30078,-1.39844 -0.19922,-0.30078 -0.5,-0.30078 -0.30078,-1 -0.19922,-1 -0.30078,-0.69922 -0.39844,-0.80078 -0.70117,-2 -0.0996,-0.19922 -0.0996,-0.5 -0.0996,-0.19922 -0.20117,-0.20117 -0.59961,-0.29883 -0.0996,-0.10156 -0.20117,-0.5 -0.39844,-1.79883 -0.20117,-1.70117 -0.19922,-0.59961 -0.80078,-1.29883 -0.19922,-0.80078 0.19922,-0.69922 0.30078,-0.70117 0.19922,-0.90039 -0.29883,-0.79883 -0.5,-0.40039 -0.20117,-0.5 0.30078,-1.09961 -1,-1.20117 -0.59961,-0.89844 -0.30078,-1 -0.0996,-0.5 -0.20117,-0.5 -0.0996,-0.60156 0.20117,-0.59961 0.19922,-0.29883 0.19922,-0.40039 0.10156,-0.40039 v -0.40039 l -0.10156,-1.40039 -1.19922,-2.09961 -0.30078,-1.79883 0.10156,-0.70117 v -0.5 l 0.19917,-1.29883 0.0996,-0.80078 -0.19922,-5.59961 -0.20117,-1 -0.29883,-0.30078 -0.5,-0.29883 -0.20117,-0.40039 0.40039,-0.70117 v -0.59961 l -0.90039,-0.79883 -0.39844,-0.30078 v -0.59961 l 0.59961,-0.5 -0.5,-0.5 -0.30078,-0.59961 -0.0996,-0.70117 0.30078,-0.5 v -0.59961 l -3.20117,-2.30078 -1,-0.0996 -1.69922,0.5 -0.5,-0.40039 v -0.5 h 0.90039 l -0.40039,-1.19922 -0.59961,-0.69922 -0.60156,-0.30078 -0.5,-0.0996 -0.19922,0.1992 -0.19922,0.40039 -0.30078,0.40039 -0.40039,0.19922 -0.19922,-0.29883 -0.20117,-0.60156 -0.29883,-0.59961 -1,-0.69922 -0.5,-1 -0.70117,-1.9999999 -6.09961,-8 z M 90.442704,192.91455 l -6,2.10156 -0.80078,0.59961 0.40039,1.19922 0.0996,1.09961 -0.19922,2.60156 v 1.69922 l -0.0996,1.19922 -0.20117,0.80078 v 0.59961 l 0.80078,1.09961 1.59961,3 0.90039,0.90039 0.19922,0.59961 v 0.60156 0.19922 0.19922 0.70117 0.19922 h 0.0996 l 0.40039,-0.0996 0.20117,0.0996 1.5,1.30078 0.0996,0.29883 0.59961,-0.29883 1.09961,-1.5 0.70117,-0.40039 0.5,0.40039 -0.30078,0.69922 -0.5,0.70117 -0.40039,0.39844 -0.09959,0.30078 -0.0996,0.59961 v 0.80078 l 0.0996,0.40039 0.30078,0.0996 0.29883,-0.0996 0.30078,-0.30078 v -0.19922 l 1.19922,0.59961 0.59961,0.0996 0.5,-0.19922 2.999996,-1.80078 0.70117,-0.90039 1.69922,-1.19922 0.20117,0.0996 0.0996,-0.0996 0.0996,-0.59961 v -0.60156 -0.29883 l 0.0996,-0.20117 0.20117,-0.29883 0.89845,-1 1.10156,-0.90039 1.09961,-0.59961 1.19922,-0.20117 1.09961,-0.59961 1.60156,-3.09961 1,-1 -0.60156,-0.5 -0.59961,-0.0996 h -1.40039 l -0.19919,-0.0996 -0.59961,-0.40039 -0.30078,-0.0996 -0.29883,0.19922 -0.40039,0.80078 -0.30078,0.19922 h -0.5 l -1.09961,0.40038 h -0.59961 l -0.59961,-0.0996 -0.20117,-0.40039 -0.0996,-0.70118 -0.19923,-0.89844 -0.80078,-0.90039 v -0.20117 l -0.19922,-0.19922 v -0.40039 l 0.0996,-0.59961 -0.0996,-0.40039 h -0.20117 l -0.69922,-0.40039 -0.59961,-0.39844 0.0996,-0.20117 -0.20117,-0.5 -0.0996,-0.90039 -0.19922,-1 -0.5,-0.39844 -1.800776,-1 -0.90039,-0.10156 -3.19922,-0.5 z m -11.30078,8.10156 -1.29883,1.09961 v 0.59961 l 0.79883,1.30078 0.30078,0.19922 1.40039,-0.0996 0.39844,0.0996 0.40039,0.59961 1,1.70117 1,0.89844 0.40039,0.20117 0.40039,-0.20117 0.29883,-0.79883 -0.29883,-0.59961 -0.40039,-0.5 -0.19922,-0.40039 -0.20117,-1.09961 -0.40039,-0.90039 -0.69922,-0.90039 -0.69922,-0.69922 -0.30078,-0.30078 -0.90039,0.0996 h -0.5 z m 254.500006,144 -0.59961,0.19922 -0.30078,0.40039 -0.59961,2.09961 0.40039,0.90039 0.69922,1 0.80078,0.90039 0.90039,0.29883 5.5,0.5 1.19922,-0.5 0.20117,-0.90039 -0.40039,-1.09961 -1,-1.09961 -0.5,-0.40039 -0.5,-0.29883 z m -254.699226,19 -0.30078,0.0996 -0.0996,0.90039 v 1.09961 l 0.40039,0.5 0.29882,-0.40038 v -0.90039 l -0.0996,-0.5 v -0.29883 z m 173.199226,27.19922 -1.19922,2.09961 -1,0.40039 v 0.5 l 3.79883,0.59961 v -0.59961 l -0.29883,-0.19922 -0.40039,-0.5 -0.30078,-0.30078 v -0.40039 l 0.40039,-0.40039 0.20117,-0.29883 -0.10156,-0.5 -0.5,-0.40039 z m -16.19922,4.19922 -1.09961,0.90039 -1.60156,1.90039 -1.09961,0.90039 -1.19922,0.19922 0.0996,-0.29883 0.0996,-0.5 0.0996,-0.20117 -4,1.90039 -1.89844,1.59961 -1.10156,2.09961 0.80078,-0.5 0.80078,-0.39844 1.69922,-0.20117 0.59961,0.20117 1.5,1.19922 0.40039,0.40039 6.09961,4.40039 1.70117,0.5 5.19922,-1.60156 0.0996,-0.29883 0.0996,-0.90039 -0.0996,-1.59961 0.20117,-0.30078 0.19922,-0.40039 1.30078,-1.09961 0.79883,-0.40039 1.70117,-0.5 0.19926,-0.19922 0.0996,-0.19922 0.0996,-0.10156 h 0.20117 v -0.59961 l -0.90039,-1.5 -0.19922,-0.0996 -0.40039,0.0996 h -0.0996 v -0.19922 -0.59961 -0.20117 l -0.60156,-0.5 -0.39844,-0.0996 -1.20117,0.0996 -7.09961,-2.90039 z M 0.34309459,454.81494 v 0.59961 l 0.29883,0.80078 0.50000001,0.19922 0.20117,-0.5 v -0.59961 l -0.30078,-0.19922 -0.0996,-0.0996 -0.30078,-0.20117 z m 2.29883001,2.09961 -0.40039,0.5 -0.0996,1.10156 0.59961,0.19922 0.5,-0.30078 0.10156,-0.59961 -0.40039,-0.69922 z" />
     <g id="stadiums" data-country="england_and_wales" data-circle-radius="6"></g>
</svg>
