<?xml version="1.0" encoding="UTF-8" standalone="no"?>
<svg
   xmlns:dc="http://purl.org/dc/elements/1.1/"
   xmlns:cc="http://creativecommons.org/ns#"
   xmlns:rdf="http://www.w3.org/1999/02/22-rdf-syntax-ns#"
   xmlns:svg="http://www.w3.org/2000/svg"
   xmlns="http://www.w3.org/2000/svg"
   xmlns:sodipodi="http://sodipodi.sourceforge.net/DTD/sodipodi-0.dtd"
   xmlns:inkscape="http://www.inkscape.org/namespaces/inkscape"
   baseprofile="tiny"
   fill="#6f9c76"
   height="1000"
   stroke="#ffffff"
   stroke-linecap="round"
   stroke-linejoin="round"
   stroke-width=".5"
   version="1.2"
   viewbox="0 0 1000 1000"
   width="1000"
   id="svg704"
   sodipodi:docname="england_and_wales.svg"
   inkscape:version="1.0.1 (3bc2e813f5, 2020-09-07)">
  <metadata
     id="metadata710">
    <rdf:RDF>
      <cc:Work
         rdf:about="">
        <dc:format>image/svg+xml</dc:format>
        <dc:type
           rdf:resource="http://purl.org/dc/dcmitype/StillImage" />
        <dc:title></dc:title>
      </cc:Work>
    </rdf:RDF>
  </metadata>
  <defs
     id="defs708" />
  <sodipodi:namedview
     pagecolor="#ffffff"
     bordercolor="#666666"
     borderopacity="1"
     objecttolerance="10"
     gridtolerance="10"
     guidetolerance="10"
     inkscape:pageopacity="0"
     inkscape:pageshadow="2"
     inkscape:window-width="1920"
     inkscape:window-height="1106"
     id="namedview706"
     showgrid="false"
     inkscape:zoom="1.039447"
     inkscape:cx="381.3061"
     inkscape:cy="699.0066"
     inkscape:window-x="-11"
     inkscape:window-y="-11"
     inkscape:window-maximized="1"
     inkscape:current-layer="features" />
  <g
     id="features">
    <path
       id="GBFLN"
       d="M 684.40039 496.19922 L 682.30078 497 L 682.09961 497.19922 L 681.80078 497.5 L 681.69922 498.09961 L 681.5 499.40039 L 681.40039 499.80078 L 681.19922 500.19922 L 680 501.5 L 679.80078 501.69922 L 679.09961 502 L 678.80078 502.19922 L 678.30078 502.80078 L 677.90039 503.09961 L 677.69922 503.30078 L 677.5 503.69922 L 677.30078 504.30078 L 677 504.90039 L 674.5 508.80078 L 674.09961 509.19922 L 673.69922 509.40039 L 673 509.5 L 671.09961 509.59961 L 670.59961 509.69922 L 670.30078 509.90039 L 670.09961 510.09961 L 670.09961 510.59961 L 670.09961 510.90039 L 670.19922 511.19922 L 670.30078 511.5 L 670.5 511.69922 L 671.19922 512.09961 L 671.40039 512.30078 L 671.5 512.59961 L 671.5 512.90039 L 671.59961 513.19922 L 671.80078 513.40039 L 672.30078 514 L 672.40039 514.19922 L 672.5 514.5 L 672.59961 514.80078 L 672.69922 515.40039 L 673.5 517.5 L 674.30078 518.90039 L 674.90039 519.90039 L 675.30078 520.90039 L 675.40039 521.09961 L 675.40039 521.40039 L 675.40039 521.5 L 675.40039 521.59961 L 675.40039 521.90039 L 675.40039 522.09961 L 675.5 522.40039 L 676.59961 524 L 676.80078 524.19922 L 676.90039 524.40039 L 676.90039 524.69922 L 676.90039 525 L 676.90039 525.40039 L 676.69922 525.80078 L 676.19922 526.40039 L 675.59961 527.09961 L 674.59961 527.80078 L 674.09961 528 L 672.80078 528.30078 L 672.09961 528.80078 L 671.69922 529.40039 L 670.30078 530 L 670 530.30078 L 669.69922 530.90039 L 669.5 531.30078 L 669.30078 532.09961 L 669 532.5 L 668.69922 532.90039 L 667.69922 533.5 L 667.30078 533.59961 L 667 533.5 L 666.90039 533.19922 L 666.40039 532.90039 L 666.19922 532.80078 L 665.5 532.59961 L 664.30078 532.90039 L 663.80078 533.09961 L 659.69922 536.90039 L 657.09961 540.09961 L 656.5 540.59961 L 656.30078 540.80078 L 656.19922 541.19922 L 656.19922 541.80078 L 656.30078 542.09961 L 656.40039 542.40039 L 656.5 542.59961 L 656.5 542.80078 L 656.5 543.09961 L 656.40039 543.69922 L 656.19922 544.09961 L 655.90039 544.40039 L 655.30078 544.59961 L 654.5 545.30078 L 653.40039 547.09961 L 652.80078 548 L 651.80078 549 L 650.5 549.90039 L 648.5 550.90039 L 647.59961 551.09961 L 647 551.59961 L 645.69922 553.59961 L 644.69922 555.09961 L 644.5 555.40039 L 644.09961 555.80078 L 643.80078 556.09961 L 642.30078 556.80078 L 642 557.09961 L 641.30078 558.90039 L 641.09961 559.09961 L 640.80078 559.30078 L 640.09961 559.5 L 639.69922 559.40039 L 638 558.5 L 637.69922 558.40039 L 637.40039 558.5 L 637.19922 558.90039 L 637.19922 561.09961 L 637.09961 561.40039 L 636.5 562.69922 L 636.30078 564.19922 L 636.5 564.09961 L 637.59961 564.69922 L 637.59961 565.30078 L 636.69922 564.90039 L 636 565.19922 L 635.30078 565.69922 L 634.40039 565.80078 L 634.40039 566.40039 L 637.59961 566.40039 L 636.80078 567 L 632.90039 568.19922 L 632 568.09961 L 630.19922 567.5 L 629.90039 567.19922 L 629.59961 566.90039 L 629.19922 566.59961 L 628.69922 566.40039 L 625.69922 567.30078 L 625 567.80078 L 623.80078 569.19922 L 626.09961 570.40039 L 626.69922 570.80078 L 624.80078 571.90039 L 624.30078 572 L 623.5 571.69922 L 623 571.09961 L 622.5 570.59961 L 621.59961 570.80078 L 620.5 572.19922 L 619.59961 574.40039 L 618 579.19922 L 618.5 580.59961 L 618.09961 582.09961 L 617.30078 583.40039 L 616.69922 584.19922 L 616.19922 584.59961 L 615.19922 585 L 614.80078 585.30078 L 614.5 586 L 613.80078 588.09961 L 612.30078 591.69922 L 611 598 L 610 600.80078 L 609.80078 601 L 609.30078 601.59961 L 609 602.19922 L 609.40039 602.80078 L 609.90039 603.90039 L 610.19922 604.19922 L 610.90039 604.59961 L 615.30078 610.80078 L 616.40039 611.80078 L 618 615.19922 L 619.19922 615.69922 L 619.30078 615.90039 L 619.40039 616.69922 L 619.69922 617.90039 L 619.59961 618.59961 L 619.40039 619.19922 L 619.30078 619.90039 L 619.59961 621.09961 L 620.19922 622.19922 L 621.59961 624 L 623.30078 627 L 624.30078 628 L 625.30078 627.59961 L 626 627.40039 L 627.09961 627.5 L 627.80078 627.19922 L 627.40039 625.59961 L 627.80078 623.59961 L 628.19922 622.80078 L 628.90039 622.30078 L 628.90039 623.90039 L 629 626.69922 L 628.59961 629 L 627 629.5 L 627 630 L 627.69922 630.59961 L 627.80078 631.80078 L 627.5 633.19922 L 627.40039 634.40039 L 627.80078 635 L 628.40039 635.30078 L 629 635.5 L 629.80078 635.5 L 630.19922 635.90039 L 631.90039 638.30078 L 631.90039 637.40039 L 631.80078 636.30078 L 631.90039 635.40039 L 633.09961 634.69922 L 633.59961 633.90039 L 634.40039 632.19922 L 635.80078 630.40039 L 636 629.80078 L 636.19922 628.90039 L 636.40039 627.80078 L 636.59961 626.69922 L 636.40039 625.59961 L 637 625.30078 L 637.5 625.59961 L 637.90039 626.40039 L 638.30078 627.30078 L 637.90039 628.19922 L 638.09961 629.40039 L 638.80078 630.59961 L 639.40039 631.09961 L 641.5 631 L 642.40039 630.40039 L 642.80078 629.19922 L 643.09961 628.40039 L 644 627.69922 L 645.69922 626.80078 L 647.09961 625.59961 L 647.69922 624.69922 L 647.90039 623.5 L 648.19922 623.5 L 648.30078 625 L 647.5 626.40039 L 646.5 627.40039 L 645.5 627.80078 L 645.59961 628.59961 L 646.30078 630 L 647.40039 632.19922 L 648.19922 633.40039 L 647.30078 635.5 L 646.80078 636.30078 L 645.30078 636.90039 L 644.59961 637.59961 L 643.69922 639.40039 L 643.30078 639.80078 L 642.80078 640.19922 L 642.5 640.59961 L 642.59961 641.19922 L 643.30078 643 L 643.59961 643.19922 L 645 643 L 645.80078 642.69922 L 646.59961 642.09961 L 646.40039 643.40039 L 644.80078 645 L 645.30078 645.90039 L 645 646.09961 L 644.59961 646.40039 L 644.19922 646.80078 L 644 647.30078 L 643.90039 647.59961 L 643.5 647.5 L 642.90039 647 L 642.09961 647.09961 L 637.80078 648.80078 L 636.80078 649.40039 L 636 650.80078 L 636.59961 653 L 636 659 L 636.40039 661.69922 L 637.69922 663.5 L 639.40039 664.30078 L 643.40039 664.40039 L 642.80078 665.19922 L 641.09961 666.40039 L 640.90039 666.5 L 640.5 667.40039 L 640.09961 667.59961 L 637.59961 670.90039 L 634.59961 676 L 634 677.30078 L 633.90039 678.40039 L 634.09961 679.5 L 636.40039 684.5 L 639.59961 691.40039 L 640.69922 693.09961 L 642.19922 694.80078 L 644 696 L 644.5 696.19922 L 646 696.80078 L 647.5 697 L 648 697 L 648.90039 696.59961 L 649.19922 695.5 L 649.69922 695.09961 L 652.09961 694.59961 L 652.69922 694.59961 L 652.30078 695.09961 L 651.90039 695.30078 L 651.5 695.40039 L 651.09961 695.19922 L 650.69922 695.69922 L 650.30078 696.19922 L 650.19922 696.90039 L 650.5 697.90039 L 649.19922 698.69922 L 648.5 698.90039 L 647.69922 698.90039 L 647.40039 698.80078 L 646.69922 698.5 L 646.30078 698.5 L 645.90039 698.69922 L 645.80078 699 L 645.69922 699.40039 L 645.69922 699.5 L 644.19922 699.59961 L 642.90039 699 L 642.09961 698.30078 L 641.69922 697.90039 L 640.90039 696.80078 L 638.09961 689.5 L 637 688.19922 L 635.90039 688.09961 L 634.19922 689.5 L 633.30078 689.80078 L 631.30078 690.09961 L 630.40039 690.59961 L 629.90039 691.40039 L 630 692.59961 L 630.59961 693.80078 L 632.30078 696 L 633.5 698.5 L 634.19922 699.69922 L 634.69922 700.59961 L 634.69922 701.90039 L 634.69922 703.5 L 634.59961 703.80078 L 634.19922 703.40039 L 633.59961 702.40039 L 632.90039 701.59961 L 626.90039 697.69922 L 626.40039 697.09961 L 626 696.30078 L 625 695.5 L 623.19922 694.59961 L 621.80078 694.69922 L 621.69922 694.69922 L 621.19922 694.69922 L 614.59961 698 L 612.30078 699.09961 L 610.5 699.5 L 605.09961 699.69922 L 604.40039 699.19922 L 603.59961 698.09961 L 602.59961 697.19922 L 601.59961 696.80078 L 600.69922 697.30078 L 600.09961 696.59961 L 599.30078 696.09961 L 598.40039 695.80078 L 597.5 695.69922 L 597.90039 696.69922 L 599.19922 698.09961 L 599.69922 699.5 L 598.09961 699.5 L 593 701.69922 L 591.80078 702.69922 L 591.40039 703 L 590.30078 703.30078 L 589.30078 703.80078 L 588.69922 704.19922 L 588.30078 704.09961 L 588 703.90039 L 587.59961 703.80078 L 586.09961 703.90039 L 584.69922 704.30078 L 583.5 705.09961 L 582.40039 706.40039 L 581.5 708.5 L 580.80078 709.30078 L 580 709.69922 L 579.5 710.09961 L 577.59961 712.30078 L 577.5 712.69922 L 577.19922 713.59961 L 576.80078 714.19922 L 576.59961 713.69922 L 576.5 713.19922 L 576.19922 713 L 575.80078 713.30078 L 575.69922 714.19922 L 575.59961 717.5 L 575.40039 718.90039 L 575 719.90039 L 572 721.90039 L 571 723.5 L 567.30078 726.40039 L 566.40039 726.90039 L 565.5 727.19922 L 564.59961 727.30078 L 563.90039 727.69922 L 557.40039 735.30078 L 556.69922 736.5 L 556.40039 736.90039 L 556.59961 737.40039 L 556.59961 737.69922 L 556.09961 738.5 L 556.80078 738.90039 L 557.5 738.59961 L 558.09961 737.80078 L 558.80078 737.40039 L 561.40039 737.69922 L 562.5 737.40039 L 562.80078 737.09961 L 563.09961 736.80078 L 563.40039 736.5 L 564 736.30078 L 564.5 736.5 L 565.40039 737.19922 L 566.40039 737.59961 L 567.09961 738.40039 L 567.59961 738.5 L 568 738.30078 L 568.30078 738 L 568.90039 737.40039 L 568.30078 736.59961 L 568.40039 735.59961 L 568.80078 734.69922 L 569.5 734.19922 L 569.40039 733.90039 L 569.30078 733.69922 L 570.90039 731.80078 L 571.80078 731 L 572.80078 730.5 L 576 730.5 L 577 729.90039 L 577.69922 729.40039 L 581.09961 728.40039 L 583.80078 728.80078 L 585.09961 728.69922 L 586.30078 727.80078 L 586.59961 728.69922 L 587.09961 728.80078 L 587.59961 728.40039 L 588.19922 727.80078 L 588.30078 728.09961 L 588.5 728.19922 L 588.80078 728.40039 L 586 730.40039 L 585.69922 730.69922 L 585.59961 731.19922 L 585.59961 732.30078 L 585.80078 732.90039 L 586.19922 734.09961 L 586.30078 735.30078 L 585.80078 735.80078 L 585 736.09961 L 584.80078 736.69922 L 585.09961 737.40039 L 586 739.30078 L 589.5 743.69922 L 590.30078 743.5 L 591.09961 742.90039 L 592.40039 742.69922 L 591.80078 743.5 L 589.90039 745 L 589.30078 745.19922 L 589.19922 745.30078 L 589.09961 745.59961 L 588.80078 746.69922 L 588.69922 746.90039 L 587.80078 747.5 L 586.90039 749 L 586.09961 750.90039 L 585.90039 752.80078 L 586.5 754 L 588.59961 756.90039 L 589.30078 757.5 L 590.59961 757.30078 L 593 756.40039 L 594.30078 756.40039 L 594.30078 756.90039 L 594.30078 757 L 591.90039 758.80078 L 591.09961 759.09961 L 590.59961 759 L 589.5 758.5 L 589.19922 758.5 L 588.90039 759.19922 L 588.80078 760.09961 L 588.90039 761 L 589.19922 761.69922 L 588.59961 762.80078 L 588.09961 764.40039 L 587.69922 766.19922 L 587.30078 769.40039 L 586.69922 771.19922 L 585.30078 773.80078 L 582.59961 777.69922 L 577 782.59961 L 576.19922 782.80078 L 575.19922 782.90039 L 574.40039 783.09961 L 573.80078 783.5 L 572.40039 785.19922 L 571.5 786.09961 L 570.5 786.69922 L 569.09961 787.09961 L 568.80078 787.59961 L 568.59961 788.09961 L 568.30078 788.5 L 567.69922 788.69922 L 562 788.5 L 560.19922 789.40039 L 560.30078 791.59961 L 559.30078 790.90039 L 558.69922 790.40039 L 558.09961 790.40039 L 557.19922 791.40039 L 556.09961 793.30078 L 555.40039 794.09961 L 554.5 794.80078 L 552.90039 795 L 552.59961 795.30078 L 552.5 796 L 552.80078 796.90039 L 552.80078 797.59961 L 552.40039 797.90039 L 551.40039 797.80078 L 549.59961 797 L 548.69922 796.90039 L 549 797.90039 L 547.69922 798.5 L 546.80078 798.5 L 544.30078 797.09961 L 543.69922 797 L 542.5 796.90039 L 541.69922 797.09961 L 541.19922 797.40039 L 541.09961 798 L 541.69922 798.40039 L 541.69922 798.90039 L 541 798.90039 L 540.80078 800.90039 L 539.40039 802.19922 L 537.5 802.90039 L 536 803.09961 L 535.40039 803.40039 L 534 804.90039 L 533.09961 805.19922 L 531.40039 805.40039 L 531 805.80078 L 531.40039 806.80078 L 531.40039 807.30078 L 530.90039 807.5 L 530.80078 807.80078 L 530.90039 808 L 531 808.40039 L 531 808.90039 L 530.69922 809.09961 L 530.40039 809.40039 L 531.30078 809.40039 L 533.90039 808.90039 L 534.59961 808.40039 L 535.40039 808.90039 L 537.30078 809.19922 L 538.09961 809.90039 L 538.40039 809.40039 L 539.09961 810 L 539.5 810.90039 L 539.69922 812.09961 L 539.69922 813.19922 L 540 815.09961 L 539.80078 815.90039 L 539.09961 816.59961 L 538.30078 817 L 536.69922 817.30078 L 536 818 L 535.5 818.69922 L 535 819.09961 L 534.30078 819.19922 L 533.30078 819.30078 L 534.19922 819.5 L 536.5 821.30078 L 536.5 821.80078 L 536.40039 822.59961 L 537.09961 822.59961 L 537.59961 822 L 537.19922 820.80078 L 538 820.40039 L 544.5 821.30078 L 545.5 821.30078 L 549.19922 820.40039 L 549.90039 819.69922 L 550 818.80078 L 549.40039 818.19922 L 549.59961 817.09961 L 549.40039 816.40039 L 548.90039 816.09961 L 548.09961 816.09961 L 548.69922 815.80078 L 551.30078 815.5 L 552.69922 814.90039 L 553.19922 814.59961 L 553.19922 815.09961 L 551.40039 815.59961 L 550.59961 817.09961 L 550.90039 819 L 552.19922 820.30078 L 552.19922 820.80078 L 551.59961 820.40039 L 551.09961 820.5 L 550 821.30078 L 547.69922 821.80078 L 546.19922 822.69922 L 545.5 822.90039 L 544.90039 822.80078 L 543.59961 822.30078 L 542.90039 822.40039 L 543 822.59961 L 543.19922 823.19922 L 543.30078 823.40039 L 539.69922 822.90039 L 539.40039 823.40039 L 540.30078 824.5 L 542.59961 825.09961 L 543.30078 826.5 L 542.80078 827.30078 L 544 828.19922 L 547 829.19922 L 547.5 829.5 L 547.69922 829.59961 L 548.19922 829.40039 L 548.5 828.69922 L 549.40039 828.30078 L 549.90039 827.80078 L 550.19922 827.09961 L 550.59961 826.5 L 551.40039 826 L 552.09961 825.90039 L 556.30078 826 L 557.09961 825.09961 L 557.40039 824.90039 L 558 825.40039 L 558.5 825.59961 L 559.30078 823.40039 L 559.40039 822.90039 L 559.40039 822.59961 L 559.5 822.40039 L 560 822.40039 L 560 820.5 L 561.59961 819.40039 L 561.90039 819.30078 L 563.59961 818.80078 L 564.90039 818.69922 L 568.40039 819.19922 L 570.19922 819.09961 L 571.80078 818.19922 L 571.09961 817.5 L 570.80078 816.80078 L 570.90039 816.30078 L 571.80078 816.09961 L 572.19922 816.69922 L 572.59961 817 L 573.09961 817.19922 L 573.40039 817 L 573.80078 816.40039 L 574.09961 816.09961 L 574.40039 815.30078 L 574.69922 815.09961 L 575 815.59961 L 575 816.30078 L 574.80078 817 L 574.5 817.5 L 574.40039 817.69922 L 574.80078 818.59961 L 575.59961 819.09961 L 576.40039 819.30078 L 577.30078 819.30078 L 576.80078 819.90039 L 576 820 L 574.09961 819.80078 L 574.69922 821.19922 L 575.80078 822.5 L 577 823.5 L 578.09961 823.90039 L 581.69922 823.30078 L 582.40039 822.90039 L 585 824.30078 L 586.80078 824.5 L 587.30078 824.40039 L 587.69922 824.19922 L 588.30078 823.5 L 588.5 823.59961 L 588.5 823.80078 L 588.5 824.19922 L 588.5 824.69922 L 587.5 826.40039 L 585.30078 826.90039 L 582.90039 827.09961 L 581.5 827.59961 L 581.09961 827.19922 L 580.80078 827 L 580.80078 826.5 L 581.09961 826.5 L 580.80078 826 L 580.5 826.40039 L 580 827.30078 L 579.80078 827.59961 L 578.19922 828.09961 L 578.19922 829.19922 L 578.69922 830.19922 L 578.80078 831 L 577.90039 831.69922 L 578 832.19922 L 578.09961 832.40039 L 578.19922 832.69922 L 579.09961 832.80078 L 581.80078 833.90039 L 582.40039 834 L 582.59961 833.19922 L 583 833.19922 L 583.5 833.59961 L 584 833.69922 L 584.5 833.40039 L 585.09961 832.59961 L 585.59961 832.19922 L 586.09961 831.90039 L 586.59961 832 L 587.69922 832.19922 L 588.19922 832.59961 L 588.5 832.69922 L 588.69922 832.59961 L 589.19922 831.80078 L 589.30078 831.69922 L 589.59961 831.69922 L 590 831.90039 L 590.30078 832.09961 L 590.40039 832.40039 L 590.59961 832.80078 L 590.80078 832.69922 L 591.09961 832.30078 L 591.09961 832.19922 L 593 832.19922 L 592.69922 831.5 L 592.19922 830.80078 L 591.80078 830 L 591.90039 829.30078 L 592.30078 828.90039 L 592.90039 828.5 L 593.59961 828.19922 L 597.09961 827.69922 L 598.59961 827.59961 L 599.19922 827.69922 L 599.69922 828.19922 L 600.40039 829.59961 L 600.80078 830.19922 L 601.59961 830.69922 L 602 831.09961 L 602.59961 832.09961 L 603.09961 833.40039 L 603.40039 834.40039 L 603.59961 834.80078 L 603.90039 836.30078 L 603.80078 836.30078 L 603.59961 836.40039 L 603.59961 836.5 L 603.59961 836.80078 L 604.09961 837.59961 L 605 838.5 L 606.09961 839 L 606.90039 838.59961 L 607.59961 838.69922 L 610.30078 841 L 611.69922 842.90039 L 612.5 844 L 613.40039 844.5 L 625.09961 845.59961 L 628.40039 844.19922 L 629.09961 844.30078 L 630 844.59961 L 630.80078 843.59961 L 631.19922 842 L 630.59961 840.40039 L 630.90039 840.19922 L 631.5 840.09961 L 631.90039 839.90039 L 632.09961 839.5 L 632.30078 838.69922 L 632.5 838.40039 L 633.69922 837.09961 L 634.5 836.5 L 635.09961 836.30078 L 635.19922 836.30078 L 637.90039 834.5 L 638.19922 834 L 639.40039 832.5 L 639.80078 832.19922 L 640.09961 832.40039 L 640.30078 832.90039 L 640.69922 833.5 L 641.30078 833.69922 L 645.30078 833.40039 L 647.30078 832.69922 L 648.09961 832.09961 L 649.90039 830.90039 L 652.09961 830.40039 L 653 829.59961 L 654.30078 828.09961 L 657.40039 824.40039 L 657.80078 823.69922 L 658.30078 823.19922 L 661 821.30078 L 661.69922 820.40039 L 662.30078 819.40039 L 662.90039 818.59961 L 663.80078 818.19922 L 664.69922 818.09961 L 665.80078 817.80078 L 666.69922 817 L 666.90039 815.59961 L 667.5 816.30078 L 667.69922 817.09961 L 667.30078 818 L 666.5 818.69922 L 664.5 819.40039 L 663.69922 819.90039 L 662.09961 822.09961 L 660.40039 823.90039 L 659.40039 824.90039 L 659.19922 825.30078 L 658.90039 826 L 658.59961 826.69922 L 658.5 827.30078 L 658.30078 828 L 657.90039 828.30078 L 657.40039 828.5 L 657 828.80078 L 653.69922 834.5 L 652.90039 835.90039 L 651.90039 836.90039 L 651.30078 837.19922 L 651 837.30078 L 649.80078 837.40039 L 648.90039 837.69922 L 648.09961 838.19922 L 647.30078 838.90039 L 644.09961 843.09961 L 642.40039 844.80078 L 640.90039 844.5 L 639.80078 845.59961 L 640.59961 846.30078 L 640.30078 847 L 639.59961 847.69922 L 639.19922 848.40039 L 639.19922 849.59961 L 639 850.30078 L 638.5 850.5 L 637.59961 850.19922 L 638.19922 851.09961 L 638.30078 852.5 L 638.30078 855.30078 L 638.40039 856 L 638.59961 856.40039 L 638.69922 856.90039 L 638.59961 857.90039 L 638.40039 858.40039 L 637.59961 860 L 637 859.40039 L 637.59961 858.40039 L 637.30078 857.90039 L 636 858.80078 L 634.09961 859.09961 L 631 858.90039 L 629.30078 859.09961 L 626 860.19922 L 620.59961 860.40039 L 619.69922 860 L 618.30078 858.69922 L 612.5 857.30078 L 608.69922 857.40039 L 605.30078 856.5 L 602.59961 855.80078 L 601.80078 855.90039 L 600.30078 856.69922 L 599.30078 856.90039 L 595.90039 856.90039 L 595 857.09961 L 593.19922 857.69922 L 584.69922 858.5 L 581.09961 860 L 581.09961 860.40039 L 581.59961 860.80078 L 582 861.40039 L 582.09961 862.19922 L 581.80078 863 L 581.40039 863.19922 L 579.80078 863 L 580.19922 863.69922 L 581 864.90039 L 581.09961 865.30078 L 581.19922 865.90039 L 581.80078 867.90039 L 582.09961 868.59961 L 581.59961 868.90039 L 581.30078 869.30078 L 581.09961 869.80078 L 580.80078 870.19922 L 577.69922 873.80078 L 577 874.30078 L 576 874.59961 L 573.30078 874.30078 L 572.80078 874.09961 L 571.80078 873.40039 L 571.30078 873.19922 L 567.19922 873.19922 L 566.90039 873.69922 L 567 874.69922 L 567.09961 875.80078 L 567.30078 876.30078 L 566.69922 878.19922 L 566.30078 878.80078 L 566.09961 880 L 565.80078 881.90039 L 566 888.5 L 564.80078 891 L 562.80078 892.5 L 561.90039 893.5 L 561.59961 894.80078 L 561 895.80078 L 557.69922 898.59961 L 557.09961 898.40039 L 556.59961 898.80078 L 556.40039 899.59961 L 556.69922 900.69922 L 556 901.90039 L 555.40039 903.19922 L 554.69922 904.30078 L 553.30078 904.80078 L 549.90039 905 L 548.69922 904.80078 L 548.69922 905.19922 L 548.90039 906 L 548.69922 906.59961 L 548.59961 907.30078 L 549.40039 908.19922 L 550.90039 908.80078 L 551.69922 909.30078 L 552.19922 910.30078 L 551.5 909.90039 L 549.5 909.80078 L 548.69922 909.30078 L 548.5 909.5 L 548.40039 909.59961 L 548.09961 909.80078 L 548 909 L 547.90039 908 L 547.69922 907.09961 L 547.40039 906.69922 L 547.09961 906.80078 L 546.5 907.5 L 546.09961 907.80078 L 545.19922 907.80078 L 544.19922 908.5 L 543.80078 909.5 L 543.59961 910.80078 L 543.59961 912.30078 L 543.19922 915.19922 L 542.69922 916.19922 L 542.59961 916.59961 L 539.40039 918.30078 L 539 918.30078 L 538.30078 918.40039 L 537.80078 918.69922 L 538.09961 920.19922 L 538.19922 921.09961 L 538.09961 922 L 538 922.40039 L 537.30078 922.59961 L 535.59961 923.80078 L 530.19922 929.40039 L 528.5 930.40039 L 526.80078 930.40039 L 526.59961 930.69922 L 526.40039 931.40039 L 526.09961 932.09961 L 525.40039 933.19922 L 524.5 933.80078 L 523.5 933.30078 L 522.09961 931.90039 L 521 931.90039 L 519.19922 933.09961 L 517.59961 933.69922 L 514.59961 935.40039 L 513.30078 935.90039 L 512.90039 936.19922 L 512 937.69922 L 511.90039 937.90039 L 511.80078 938.30078 L 511.80078 939.09961 L 512.09961 940.40039 L 512.19922 940.40039 L 512.30078 940.59961 L 512.40039 941 L 512.40039 941.40039 L 512.19922 941.69922 L 511.90039 941.90039 L 511.40039 941.90039 L 511.90039 944.19922 L 513.69922 944.80078 L 516 944.59961 L 517.90039 944 L 518.59961 943.59961 L 519.40039 942.90039 L 519.90039 942 L 519.59961 940.69922 L 519.59961 939.69922 L 520.5 938.90039 L 521.80078 938.5 L 522.69922 938.40039 L 523.5 938.80078 L 525.09961 939.69922 L 527 940.09961 L 529.80078 941.40039 L 530.69922 942.09961 L 531.5 943 L 532.80078 945.19922 L 533.09961 945.90039 L 533.19922 946.5 L 533.09961 947 L 533.30078 948 L 533.5 948.5 L 533.69922 948.80078 L 535.09961 950.40039 L 535.59961 950.80078 L 536 950.90039 L 536.19922 950.59961 L 536.69922 948.80078 L 538.09961 947.19922 L 538.40039 946.90039 L 539 946.80078 L 539.90039 947 L 540.40039 946.90039 L 541.69922 944.90039 L 542.30078 943.5 L 542.09961 942.90039 L 541.90039 942.69922 L 541.80078 941.80078 L 541.69922 941.40039 L 541.40039 941.40039 L 540.90039 941.5 L 540.69922 941.40039 L 540 941 L 539.59961 940.90039 L 539.09961 940.90039 L 540.59961 940.30078 L 541 939.90039 L 541.19922 939.40039 L 541.19922 938.80078 L 541.19922 938.30078 L 541.69922 937.90039 L 542.19922 937.5 L 542.5 937.40039 L 542.90039 937.40039 L 542.19922 936.59961 L 541.90039 936.40039 L 541.90039 935.90039 L 542.5 935.09961 L 542.5 934.30078 L 542.5 933.69922 L 543.40039 933.40039 L 544 933.90039 L 544.30078 936.5 L 544.90039 937.40039 L 546.80078 934.09961 L 547.40039 933.40039 L 549.40039 932.69922 L 550.30078 932.30078 L 551.09961 931.19922 L 552 930.80078 L 554.30078 931.19922 L 554.80078 930.69922 L 554.90039 930.30078 L 555.40039 928.90039 L 555.40039 928.59961 L 555.19922 928.09961 L 555.09961 927.69922 L 555.30078 927.19922 L 555.69922 926.69922 L 556.09961 926.19922 L 556.40039 925.90039 L 556.40039 925.40039 L 556.09961 924.40039 L 556.59961 923.80078 L 557.5 923.5 L 558.5 923.40039 L 558.80078 923.30078 L 559 923 L 559.30078 922.80078 L 559.59961 922.90039 L 560.30078 924.90039 L 560.5 924.90039 L 560.80078 924.69922 L 560.90039 924.5 L 560.90039 924.40039 L 568.59961 923.90039 L 570.40039 923.19922 L 573.80078 921.09961 L 576 920.80078 L 580 921.90039 L 580.80078 922.40039 L 581.19922 923.40039 L 581.69922 924.30078 L 582.69922 924.40039 L 582.69922 923.90039 L 582.5 923.40039 L 582.5 922.90039 L 582.90039 922.5 L 583.40039 922.40039 L 583.40039 921.90039 L 582.09961 921.90039 L 582.40039 921.30078 L 581.5 921.19922 L 581.09961 921.30078 L 581.09961 920.80078 L 582.69922 920.40039 L 581.69922 919.59961 L 579 920 L 578.19922 918.90039 L 580.5 919.09961 L 581.09961 918.90039 L 581.5 918.30078 L 581.69922 917.5 L 581.5 916.80078 L 580.80078 916.30078 L 580.80078 915.90039 L 581.40039 915.90039 L 581.90039 915.59961 L 582.19922 915.09961 L 582.30078 914.90039 L 582.40039 914.30078 L 582.90039 914.69922 L 583.40039 914.80078 L 584.30078 914.30078 L 583.80078 915.40039 L 583.19922 916.40039 L 583.09961 916.80078 L 582.80078 917.40039 L 583.19922 918.59961 L 583.59961 919.40039 L 583.80078 920 L 584.09961 920.40039 L 584.69922 920.80078 L 585.19922 921 L 586.90039 920.80078 L 586.30078 922.19922 L 586.40039 922.5 L 586.69922 923.30078 L 587.80078 924.09961 L 588.80078 924.40039 L 588.59961 925.09961 L 588.5 925.40039 L 589.30078 926 L 589.80078 926.30078 L 590.30078 926.40039 L 590.69922 926.19922 L 591.30078 925.5 L 591.59961 925.40039 L 592 925.19922 L 593.19922 924.5 L 593.59961 924.40039 L 594.19922 924.59961 L 597.19922 927.5 L 600 930.90039 L 601.69922 932.5 L 602.40039 931.69922 L 603.09961 931.80078 L 604 932.19922 L 605 932.5 L 605.80078 932.40039 L 607.69922 931.80078 L 608.40039 931.5 L 608.09961 929.59961 L 608.30078 927.90039 L 608.80078 926.40039 L 609.09961 925.09961 L 609.5 924.40039 L 610.59961 924.09961 L 611.59961 923.5 L 611.90039 921.90039 L 612.69922 922.5 L 613.40039 922.80078 L 614 922.40039 L 614.30078 920.5 L 614.40039 920.40039 L 614.5 920.19922 L 614.90039 920 L 615.30078 919.90039 L 615.40039 919.59961 L 615.80078 918.30078 L 615.80078 917.80078 L 613.69922 917.90039 L 612.90039 917.5 L 612.59961 916.30078 L 612.90039 915.30078 L 613.69922 914.69922 L 614.80078 914.40039 L 615.80078 914.30078 L 615 911.19922 L 615 910.69922 L 615 909.80078 L 615.5 907.80078 L 616.09961 906.30078 L 616.80078 905 L 617.5 904 L 618.40039 903.19922 L 618 902.19922 L 617.30078 899.69922 L 616.69922 899 L 616.69922 898.69922 L 616.80078 898.30078 L 616.90039 898.19922 L 617.19922 898.19922 L 617.30078 898.40039 L 617.40039 898.5 L 617.59961 898.59961 L 617.80078 898.90039 L 618.40039 900.69922 L 618.90039 901.80078 L 619.59961 902.40039 L 620.40039 902.59961 L 621.40039 902.69922 L 624.80078 901.19922 L 625.5 900.19922 L 625.90039 899.19922 L 626.5 898.5 L 628.40039 898 L 630 897.30078 L 630.90039 897.09961 L 631.40039 897.19922 L 632.30078 897.59961 L 632.80078 897.69922 L 633.19922 897.5 L 634 896.80078 L 634.30078 896.69922 L 635.30078 895.80078 L 635.90039 895.59961 L 637.59961 896.09961 L 638.69922 896 L 640.40039 894.90039 L 641.19922 894.69922 L 643.90039 894 L 645 894.09961 L 653 897.09961 L 662.90039 904.69922 L 663.90039 906.5 L 664 909.30078 L 664.30078 909.30078 L 664.90039 908.30078 L 665.40039 907.09961 L 665.30078 906.19922 L 664.09961 905.80078 L 663.69922 905.09961 L 664 903.5 L 664.5 901.90039 L 665.09961 901.19922 L 666.80078 900.59961 L 667.80078 900.5 L 669.5 901.5 L 678.09961 902.40039 L 681.69922 904.09961 L 682.5 904.30078 L 686.30078 904.19922 L 687.09961 903.80078 L 687 902.69922 L 688.69922 900.69922 L 688.40039 900.59961 L 687.69922 900.09961 L 688 898.90039 L 687.69922 898.30078 L 687 898.19922 L 686.30078 898.19922 L 685.40039 898 L 684.80078 897.40039 L 683.80078 895.59961 L 683.30078 896 L 682.80078 896.40039 L 682.19922 896.59961 L 681.59961 896.69922 L 683.30078 894 L 683.69922 893.59961 L 683.90039 893.80078 L 684.30078 894.69922 L 684.30078 894.80078 L 684.5 895.09961 L 684.90039 895.19922 L 686.09961 895.09961 L 687.90039 895.59961 L 688 896 L 688.09961 896.69922 L 688.30078 897.30078 L 688.80078 896.90039 L 689.5 896 L 690.30078 895.40039 L 690.40039 895.40039 L 691.30078 894.90039 L 692.19922 894.59961 L 693.19922 894.5 L 695 894.90039 L 696.19922 895.09961 L 697.09961 894.90039 L 698.90039 893.90039 L 699.90039 893.59961 L 700.80078 893.59961 L 700.90039 893.59961 L 704.09961 894.19922 L 705.09961 894.90039 L 706.09961 895.19922 L 706.19922 894.90039 L 707.80078 892.09961 L 709.30078 892.30078 L 709.5 892.30078 L 710 891.90039 L 711.19922 891.40039 L 713.40039 891 L 713.40039 890.59961 L 713.09961 890.30078 L 712.69922 890 L 713.40039 889.80078 L 716.40039 889.5 L 717.5 889.19922 L 717.59961 888.30078 L 717.19922 887.30078 L 713.59961 883.09961 L 712.40039 881.69922 L 711.80078 881.69922 L 711 881.09961 L 710.5 880.90039 L 710.5 880.40039 L 711.30078 880.90039 L 716.5 883.80078 L 717.40039 884.90039 L 718.19922 885.90039 L 718.90039 886.30078 L 720.40039 886.80078 L 721.5 887.80078 L 723 888.59961 L 723.30078 889.30078 L 723.69922 889.69922 L 724.40039 890.19922 L 725.30078 890.5 L 725.90039 890.59961 L 726.5 890 L 726.69922 889.19922 L 726.59961 887.80078 L 726.30078 887.30078 L 724.59961 885.90039 L 725.30078 885.69922 L 728.19922 885.5 L 728.30078 885.5 L 729.09961 885.90039 L 728.80078 886.90039 L 728 888.19922 L 727.5 889.5 L 728.5 890.59961 L 729.69922 890.40039 L 730.40039 889 L 730.80078 887.19922 L 731.40039 885.90039 L 732.30078 885.69922 L 732.59961 885.69922 L 733.69922 885.69922 L 735.19922 886 L 735.59961 886.19922 L 736.09961 886.5 L 735.69922 887.5 L 736 887.59961 L 736.59961 887.19922 L 736.80078 887 L 737.40039 887.30078 L 738.30078 888.19922 L 738.69922 888.59961 L 738.69922 889 L 737.40039 889.59961 L 736.80078 890.09961 L 736.5 890.80078 L 736.80078 891.30078 L 741.09961 894 L 742.19922 894.40039 L 743.09961 893.80078 L 743.30078 893.09961 L 743 891.69922 L 743.19922 891 L 743.69922 890.90039 L 744.09961 891.09961 L 744.5 891.5 L 744.90039 891.59961 L 752.5 889 L 760.59961 889 L 766.59961 886.90039 L 768.30078 887.5 L 769.40039 886.90039 L 769.5 886.90039 L 771.09961 887 L 780 890.30078 L 780.80078 890.59961 L 782.80078 890.69922 L 783.69922 891 L 784.5 891.80078 L 784.90039 892.09961 L 786.59961 892.09961 L 787.09961 892.09961 L 789.19922 893 L 790.19922 893.09961 L 791.90039 893.09961 L 793.59961 890.59961 L 795.19922 889.5 L 795.30078 889.19922 L 795.80078 888.5 L 796.30078 887.80078 L 796.5 887.80078 L 798.30078 887 L 808.40039 884.80078 L 810.30078 884 L 814.90039 879.5 L 816.80078 878.80078 L 819.90039 879.90039 L 823.5 881.09961 L 825.09961 880.40039 L 824.59961 877.5 L 824.5 875.59961 L 824.90039 874.69922 L 827.30078 871.19922 L 829.19922 869.5 L 830.09961 868.90039 L 831 868.59961 L 834.09961 868.59961 L 835 868.19922 L 835.40039 867.80078 L 835.80078 867.30078 L 836.30078 866.80078 L 836.80078 866.59961 L 837.80078 866.69922 L 838.40039 866.59961 L 839.59961 865.59961 L 842.80078 864.5 L 844 863 L 845 860.59961 L 845.40039 857.80078 L 845 854.80078 L 844.19922 852.80078 L 843.90039 851.59961 L 843.69922 849.90039 L 844 849.69922 L 845.59961 849.69922 L 846 849.40039 L 846.19922 849.09961 L 846.40039 848.59961 L 846.59961 848.19922 L 847 845.69922 L 845.90039 845 L 830.80078 846.40039 L 825 848.19922 L 815 847.09961 L 814.5 846.5 L 813.80078 845.30078 L 813.30078 843.90039 L 813.19922 843 L 812.19922 842.90039 L 812 843.69922 L 812.19922 844.69922 L 812.59961 845.59961 L 810.69922 845.09961 L 806.59961 845.09961 L 806.19922 844.90039 L 805.90039 844.40039 L 805.5 843.90039 L 805.19922 843.5 L 806 842.90039 L 807.69922 842.5 L 809.19922 841.09961 L 809.90039 841.09961 L 811.59961 841.40039 L 812.59961 841.30078 L 813.09961 840.90039 L 813 840.19922 L 812.40039 839.09961 L 811.69922 838.59961 L 804.19922 837.5 L 803.19922 837.80078 L 801.19922 838.40039 L 801 838.59961 L 800.80078 839.09961 L 800.59961 839.69922 L 800.19922 839.90039 L 797.19922 840.40039 L 797.90039 840 L 798.59961 839.80078 L 799.30078 839.40039 L 799.90039 838.59961 L 800.19922 837.80078 L 800.30078 837 L 800.59961 836.5 L 803.80078 835.59961 L 804.80078 835.59961 L 805.09961 835.5 L 805.80078 836.30078 L 806.5 835.59961 L 807.09961 835.5 L 807.69922 835.5 L 808.40039 835.19922 L 809.30078 834.40039 L 809.40039 834.30078 L 809.5 834.19922 L 809.69922 834.19922 L 810.30078 834.19922 L 810.30078 834.30078 L 811.59961 834.19922 L 815.30078 834.80078 L 817.40039 834.09961 L 818 833.69922 L 820.09961 832.40039 L 822.5 830.19922 L 823.80078 828.09961 L 823.59961 827.69922 L 823.19922 827.5 L 821.90039 827.59961 L 822.59961 827 L 823 826.69922 L 823.09961 826.19922 L 823.09961 824.5 L 823.30078 823.80078 L 823.80078 823.40039 L 823.40039 822.5 L 823.19922 821.90039 L 823.09961 821.30078 L 823.19922 821.19922 L 823.40039 820.59961 L 823.59961 819.90039 L 823.5 819.30078 L 822.80078 818.5 L 821.90039 818.69922 L 820.59961 819.80078 L 819.19922 820.40039 L 816.19922 821 L 814.80078 822.40039 L 814.30078 821.19922 L 813.5 820.80078 L 812.69922 820.69922 L 811.90039 820.30078 L 813 819.69922 L 815.09961 818.80078 L 816.30078 818.69922 L 816.69922 818.80078 L 817.80078 819.30078 L 818.30078 819.30078 L 818.80078 819 L 819.59961 818.40039 L 820.09961 818.19922 L 820.40039 817.80078 L 820.59961 816.90039 L 820.69922 816 L 820.69922 815.59961 L 821.09961 815.40039 L 822.5 814.09961 L 824.30078 813.19922 L 825 812.40039 L 825.09961 810.90039 L 825.5 812 L 827 814.09961 L 827.80078 815.59961 L 828.19922 816 L 829.09961 816.09961 L 832.40039 815.59961 L 833.90039 815 L 836.30078 813.30078 L 839 810.90039 L 839.5 809.69922 L 839.5 808.09961 L 839.30078 808.09961 L 838.90039 808.90039 L 838.40039 809.40039 L 836.69922 809.09961 L 836 808.80078 L 835.40039 808.40039 L 839.09961 804.5 L 839.19922 803.09961 L 838.30078 803.69922 L 830.5 803.19922 L 829.69922 802.80078 L 829.30078 802.59961 L 830.5 802.40039 L 832.69922 801.59961 L 833.80078 801.59961 L 835.09961 802.40039 L 835.69922 802.59961 L 836.19922 802.5 L 837.19922 802.19922 L 837.80078 802.09961 L 838.69922 802.40039 L 838.90039 802 L 838.90039 800.80078 L 838.69922 800.5 L 838.19922 800.19922 L 836.09961 799.69922 L 835.09961 799 L 833.40039 797.40039 L 833.40039 796.90039 L 834.69922 797.19922 L 837 799 L 838.40039 799.5 L 841.59961 803.59961 L 842.09961 803.40039 L 842.69922 802.59961 L 845.90039 798.90039 L 847.09961 797.19922 L 847.40039 796.90039 L 847.80078 796.40039 L 847.90039 795.40039 L 848.19922 794.80078 L 848.80078 795.30078 L 849.59961 794.40039 L 853.30078 792.90039 L 853.59961 792.40039 L 853.59961 791.40039 L 854.30078 789.30078 L 854.5 787.90039 L 855.30078 785.30078 L 855.59961 783.80078 L 855.5 780.40039 L 855.59961 778.40039 L 856.09961 777.59961 L 856.59961 777 L 858.09961 774.30078 L 860.09961 768.80078 L 860.19922 768 L 860.19922 767.30078 L 861.40039 763.30078 L 862 762.59961 L 862.19922 761.90039 L 861.09961 758.30078 L 861.09961 755.5 L 861 754 L 860.69922 752.80078 L 861 751.19922 L 860.40039 748.90039 L 859.59961 746.59961 L 858.69922 743 L 857.59961 741.09961 L 856.19922 739.5 L 844.59961 730.5 L 838.90039 727.59961 L 824.5 724.09961 L 824.5 724.59961 L 825.09961 724.59961 L 825.59961 724.59961 L 826.19922 724.80078 L 826.69922 725.19922 L 824.59961 726.19922 L 822.30078 725.59961 L 820.19922 724.59961 L 818.30078 724.09961 L 814.40039 724.09961 L 813.40039 723.90039 L 812.30078 723.40039 L 811.30078 723.19922 L 810.30078 723.5 L 810.69922 724.09961 L 808.40039 724 L 805.90039 724.5 L 803.59961 725.59961 L 801.90039 727.30078 L 801.30078 728.59961 L 800.59961 730.5 L 800 732.59961 L 799.69922 734.5 L 799.09961 735.5 L 797.90039 736.90039 L 797 738.30078 L 797.19922 739.59961 L 797.19922 740.09961 L 796.5 739.69922 L 795.19922 737.80078 L 794.40039 737.40039 L 792.59961 737.19922 L 792.30078 737.30078 L 791.59961 737.40039 L 790.80078 738 L 789.59961 736.59961 L 787.19922 732.80078 L 786.09961 732.09961 L 785.40039 731.80078 L 784.09961 730.69922 L 783.5 730.5 L 781.09961 731 L 779.69922 730.90039 L 779.59961 730 L 780.19922 728.90039 L 781 728.40039 L 782.09961 727.90039 L 783 726.90039 L 786.69922 721.40039 L 787.40039 720.90039 L 788.19922 720.5 L 792.40039 716.30078 L 793.19922 715.80078 L 794.09961 715.59961 L 794.59961 715.40039 L 794.90039 714.80078 L 795.90039 710.69922 L 795.90039 707.40039 L 795.19922 704.40039 L 791.40039 693.90039 L 791.19922 692.80078 L 790.69922 691.5 L 789.90039 690.5 L 789.09961 689.80078 L 789.5 689.30078 L 788.09961 688.30078 L 787.69922 688.19922 L 787.40039 687.90039 L 787.30078 687.19922 L 787.19922 686.30078 L 787.09961 685.80078 L 786.30078 684.90039 L 785.5 684.5 L 784.59961 684.30078 L 783.69922 683.90039 L 780.19922 681 L 779.19922 680.19922 L 777 677.40039 L 776.30078 677.09961 L 774.69922 676.90039 L 773.90039 676.30078 L 772.40039 674.59961 L 770.40039 673.5 L 769.90039 672.69922 L 767 668.19922 L 766.09961 666.59961 L 764.80078 666 L 756.40039 667.59961 L 755.09961 668.69922 L 754.40039 668.90039 L 753.69922 668.5 L 753.19922 667.90039 L 751.30078 666.5 L 750.19922 666.19922 L 748.80078 666.30078 L 747.5 666.90039 L 746.80078 668.19922 L 746.40039 667.90039 L 746.40039 667.80078 L 746 667.5 L 745.59961 667.30078 L 745.19922 667.09961 L 748.40039 665 L 749.40039 664.59961 L 752.09961 665 L 752.19922 665.09961 L 753.40039 666.30078 L 753.69922 666.40039 L 755.30078 666 L 758.09961 666 L 759 666 L 764.90039 664 L 765.30078 664.09961 L 767 664.40039 L 768.59961 665.59961 L 773.09961 671.40039 L 773.90039 672.09961 L 774.90039 672.59961 L 775.90039 672.90039 L 777.09961 673.09961 L 778.09961 672.80078 L 779.90039 671.69922 L 780.80078 671.40039 L 781.80078 671.80078 L 783.90039 673.30078 L 784.80078 673.59961 L 785.59961 674.19922 L 785.30078 675.59961 L 784.30078 678 L 785.30078 677.19922 L 785.59961 676.90039 L 786.19922 674.30078 L 785.40039 671.69922 L 777.09961 659.19922 L 772.09961 651.40039 L 771.30078 649 L 769.90039 643.80078 L 768.90039 641.5 L 770.09961 638.40039 L 771.5 636.69922 L 775.69922 634.40039 L 774 632.80078 L 769.80078 631.19922 L 768.19922 630.5 L 767 629.19922 L 766.90039 628.90039 L 766.59961 626.80078 L 766.19922 625.90039 L 765.09961 625.40039 L 764.59961 624.80078 L 764.09961 624.5 L 762.19922 624 L 761.80078 623.5 L 761 622.19922 L 760.59961 621.80078 L 760.69922 621.5 L 760.90039 620.69922 L 760.40039 620.5 L 760 620.09961 L 759.80078 619.59961 L 759.59961 619 L 759.59961 617.40039 L 759 615.40039 L 758.19922 613.5 L 757.5 612.19922 L 756.90039 611.5 L 755.30078 610.40039 L 754.80078 609.69922 L 754.69922 608.90039 L 754.80078 608.30078 L 754.69922 607.5 L 754.09961 606.40039 L 752.80078 605.09961 L 742.69922 598.59961 L 742.30078 598.40039 L 732.69922 595.30078 L 730.40039 593.80078 L 728.40039 593.5 L 727.5 593.19922 L 726.69922 592.5 L 725.90039 591.40039 L 725.5 593.69922 L 725.19922 594.09961 L 724.59961 594.19922 L 724.69922 594.09961 L 724.59961 593.69922 L 724.40039 593.30078 L 724.30078 593.09961 L 724.09961 593 L 724 593.19922 L 723.90039 593.5 L 723.80078 593.59961 L 723.40039 593.59961 L 723.30078 593.59961 L 723 593.40039 L 722.80078 593.09961 L 722.69922 592.5 L 723.80078 592 L 724.30078 591.59961 L 724.59961 590.90039 L 724.30078 590.5 L 724 589.90039 L 723.80078 589.40039 L 723.69922 588.69922 L 723.40039 588.19922 L 723.30078 588 L 723.30078 587.59961 L 724.30078 587.59961 L 724.30078 587 L 721.80078 585.90039 L 721.09961 585.30078 L 720.90039 585 L 719.40039 583.19922 L 718.40039 580.59961 L 716.40039 573.09961 L 715.69922 570.5 L 715.80078 569.69922 L 715.5 569.40039 L 715.40039 568.69922 L 715.30078 566.90039 L 715.30078 566.40039 L 715.40039 566 L 715.40039 565.59961 L 715 564.69922 L 713.69922 563.30078 L 713.5 563 L 713 562.69922 L 712.69922 561.69922 L 712.5 560.69922 L 712.19922 560 L 711.80078 559.19922 L 711.09961 557.19922 L 711 557 L 710.90039 556.5 L 710.80078 556.30078 L 710.59961 556.09961 L 710 555.80078 L 709.90039 555.69922 L 709.69922 555.19922 L 709.30078 553.40039 L 709.09961 551.69922 L 708.90039 551.09961 L 708.09961 549.80078 L 707.90039 549 L 708.09961 548.30078 L 708.40039 547.59961 L 708.59961 546.69922 L 708.30078 545.90039 L 707.80078 545.5 L 707.59961 545 L 707.90039 543.90039 L 706.90039 542.69922 L 706.30078 541.80078 L 706 540.80078 L 705.90039 540.30078 L 705.69922 539.80078 L 705.59961 539.19922 L 705.80078 538.59961 L 706 538.30078 L 706.19922 537.90039 L 706.30078 537.5 L 706.30078 537.09961 L 706.19922 535.69922 L 705 533.59961 L 704.69922 531.80078 L 704.80078 531.09961 L 704.80078 530.59961 L 705 529.30078 L 705.09961 528.5 L 704.90039 522.90039 L 704.69922 521.90039 L 704.40039 521.59961 L 703.90039 521.30078 L 703.69922 520.90039 L 704.09961 520.19922 L 704.09961 519.59961 L 703.19922 518.80078 L 702.80078 518.5 L 702.80078 517.90039 L 703.40039 517.40039 L 702.90039 516.90039 L 702.59961 516.30078 L 702.5 515.59961 L 702.80078 515.09961 L 702.80078 514.5 L 699.59961 512.19922 L 698.59961 512.09961 L 696.90039 512.59961 L 696.40039 512.19922 L 696.40039 511.69922 L 697.30078 511.69922 L 696.90039 510.5 L 696.30078 509.80078 L 695.69922 509.5 L 695.19922 509.40039 L 695 509.59961 L 694.80078 510 L 694.5 510.40039 L 694.09961 510.59961 L 693.90039 510.30078 L 693.69922 509.69922 L 693.40039 509.09961 L 692.40039 508.40039 L 691.90039 507.40039 L 691.19922 505.40039 L 685.09961 497.40039 L 684.40039 496.19922 z M 571.90039 688.69922 L 565.90039 690.80078 L 565.09961 691.40039 L 565.5 692.59961 L 565.59961 693.69922 L 565.40039 696.30078 L 565.40039 698 L 565.30078 699.19922 L 565.09961 700 L 565.09961 700.59961 L 565.90039 701.69922 L 567.5 704.69922 L 568.40039 705.59961 L 568.59961 706.19922 L 568.59961 706.80078 L 568.59961 707 L 568.59961 707.19922 L 568.59961 707.90039 L 568.59961 708.09961 L 568.69922 708.09961 L 569.09961 708 L 569.30078 708.09961 L 570.80078 709.40039 L 570.90039 709.69922 L 571.5 709.40039 L 572.59961 707.90039 L 573.30078 707.5 L 573.80078 707.90039 L 573.5 708.59961 L 573 709.30078 L 572.59961 709.69922 L 572.5 710 L 572.40039 710.59961 L 572.40039 711.40039 L 572.5 711.80078 L 572.80078 711.90039 L 573.09961 711.80078 L 573.40039 711.5 L 573.40039 711.30078 L 574.59961 711.90039 L 575.19922 712 L 575.69922 711.80078 L 578.69922 710 L 579.40039 709.09961 L 581.09961 707.90039 L 581.30078 708 L 581.40039 707.90039 L 581.5 707.30078 L 581.5 706.69922 L 581.5 706.40039 L 581.59961 706.19922 L 581.80078 705.90039 L 582.69922 704.90039 L 583.80078 704 L 584.90039 703.40039 L 586.09961 703.19922 L 587.19922 702.59961 L 588.80078 699.5 L 589.80078 698.5 L 589.19922 698 L 588.59961 697.90039 L 587.19922 697.90039 L 587 697.80078 L 586.40039 697.40039 L 586.09961 697.30078 L 585.80078 697.5 L 585.40039 698.30078 L 585.09961 698.5 L 584.59961 698.5 L 583.5 698.90039 L 582.90039 698.90039 L 582.30078 698.80078 L 582.09961 698.40039 L 582 697.69922 L 581.80078 696.80078 L 581 695.90039 L 581 695.69922 L 580.80078 695.5 L 580.80078 695.09961 L 580.90039 694.5 L 580.80078 694.09961 L 580.59961 694.09961 L 579.90039 693.69922 L 579.30078 693.30078 L 579.40039 693.09961 L 579.19922 692.59961 L 579.09961 691.69922 L 578.90039 690.69922 L 578.40039 690.30078 L 576.59961 689.30078 L 575.69922 689.19922 L 572.5 688.69922 L 571.90039 688.69922 z M 560.59961 696.80078 L 559.30078 697.90039 L 559.30078 698.5 L 560.09961 699.80078 L 560.40039 700 L 561.80078 699.90039 L 562.19922 700 L 562.59961 700.59961 L 563.59961 702.30078 L 564.59961 703.19922 L 565 703.40039 L 565.40039 703.19922 L 565.69922 702.40039 L 565.40039 701.80078 L 565 701.30078 L 564.80078 700.90039 L 564.59961 699.80078 L 564.19922 698.90039 L 563.5 698 L 562.80078 697.30078 L 562.5 697 L 561.59961 697.09961 L 561.09961 697.09961 L 560.59961 696.80078 z M 815.09961 840.80078 L 814.5 841 L 814.19922 841.40039 L 813.59961 843.5 L 814 844.40039 L 814.69922 845.40039 L 815.5 846.30078 L 816.40039 846.59961 L 821.90039 847.09961 L 823.09961 846.59961 L 823.30078 845.69922 L 822.90039 844.59961 L 821.90039 843.5 L 821.40039 843.09961 L 820.90039 842.80078 L 815.09961 840.80078 z M 560.40039 859.80078 L 560.09961 859.90039 L 560 860.80078 L 560 861.90039 L 560.40039 862.40039 L 560.69922 862 L 560.69922 861.09961 L 560.59961 860.59961 L 560.59961 860.30078 L 560.40039 859.80078 z M 733.59961 887 L 732.40039 889.09961 L 731.40039 889.5 L 731.40039 890 L 735.19922 890.59961 L 735.19922 890 L 734.90039 889.80078 L 734.5 889.30078 L 734.19922 889 L 734.19922 888.59961 L 734.59961 888.19922 L 734.80078 887.90039 L 734.69922 887.40039 L 734.19922 887 L 733.59961 887 z M 717.40039 891.19922 L 716.30078 892.09961 L 714.69922 894 L 713.59961 894.90039 L 712.40039 895.09961 L 712.5 894.80078 L 712.59961 894.30078 L 712.69922 894.09961 L 708.69922 896 L 706.80078 897.59961 L 705.69922 899.69922 L 706.5 899.19922 L 707.30078 898.80078 L 709 898.59961 L 709.59961 898.80078 L 711.09961 900 L 711.5 900.40039 L 717.59961 904.80078 L 719.30078 905.30078 L 724.5 903.69922 L 724.59961 903.40039 L 724.69922 902.5 L 724.59961 900.90039 L 724.80078 900.59961 L 725 900.19922 L 726.30078 899.09961 L 727.09961 898.69922 L 728.80078 898.19922 L 729 898 L 729.09961 897.80078 L 729.19922 897.69922 L 729.40039 897.69922 L 729.40039 897.09961 L 728.5 895.59961 L 728.30078 895.5 L 727.90039 895.59961 L 727.80078 895.59961 L 727.80078 895.40039 L 727.80078 894.80078 L 727.80078 894.59961 L 727.19922 894.09961 L 726.80078 894 L 725.59961 894.09961 L 718.5 891.19922 L 717.40039 891.19922 z M 481.80078 950.59961 L 481.80078 951.19922 L 482.09961 952 L 482.59961 952.19922 L 482.80078 951.69922 L 482.80078 951.09961 L 482.5 950.90039 L 482.40039 950.80078 L 482.09961 950.59961 L 481.80078 950.59961 z M 484.09961 952.69922 L 483.69922 953.19922 L 483.59961 954.30078 L 484.19922 954.5 L 484.69922 954.19922 L 484.80078 953.59961 L 484.40039 952.90039 L 484.09961 952.69922 z " />
  </g>
  <g
     id="points">
    <circle
       class="50.45652698633212|-12.9181900793958"
       cx="174.1"
       cy="914.5"
       id="0" />
    <circle
       class="54.83183622502271|-5.186948213106515"
       cx="536.2"
       cy="576.4"
       id="1" />
    <circle
       class="60.30097277338595|0.9980452799249111"
       cx="825.9"
       cy="97.6"
       id="2" />
  </g>
  <g
     id="label_points">
    <circle
       class="Derry"
       cx="441.2"
       cy="565.2"
       id="circle239" />
    <circle
       class="Strabane"
       cx="432.7"
       cy="579.9"
       id="circle241" />
    <circle
       class="Fermanagh"
       cx="417.4"
       cy="613.1"
       id="circle243" />
    <circle
       class="Dungannon"
       cx="455.8"
       cy="605.2"
       id="circle245" />
    <circle
       class="Armagh"
       cx="468.9"
       cy="617"
       id="circle247" />
    <circle
       class="Newry and Mourne"
       cx="484.9"
       cy="628.6"
       id="circle249" />
    <circle
       class="Flintshire"
       cx="630"
       cy="705.3"
       id="circle251" />
    <circle
       class="Cheshire West and Chester"
       cx="650.3"
       cy="709.1"
       id="circle253" />
    <circle
       class="Wrexham"
       cx="637.1"
       cy="720"
       id="circle255" />
    <circle
       class="Shropshire"
       cx="649.7"
       cy="755.2"
       id="circle257" />
    <circle
       class="Powys"
       cx="619.7"
       cy="781.2"
       id="circle259" />
    <circle
       class="Herefordshire"
       cx="650.5"
       cy="791.3"
       id="circle261" />
    <circle
       class="Monmouthshire"
       cx="644.7"
       cy="815.6"
       id="circle263" />
    <circle
       class="Gloucestershire"
       cx="682.7"
       cy="811.7"
       id="circle265" />
    <circle
       class="Scottish Borders"
       cx="651.1"
       cy="519.2"
       id="circle267" />
    <circle
       class="Northumberland"
       cx="684.6"
       cy="547.2"
       id="circle269" />
    <circle
       class="Cumbria"
       cx="641.3"
       cy="594.9"
       id="circle271" />
    <circle
       class="Dumfries and Galloway"
       cx="594.9"
       cy="552.9"
       id="circle273" />
    <circle
       class="Limavady"
       cx="454.3"
       cy="565"
       id="circle275" />
    <circle
       class="Coleraine"
       cx="465.1"
       cy="558"
       id="circle277" />
    <circle
       class="Moyle"
       cx="491.4"
       cy="552"
       id="circle279" />
    <circle
       class="Larne"
       cx="503.8"
       cy="575.8"
       id="circle281" />
    <circle
       class="Carrickfergus"
       cx="506.7"
       cy="583.7"
       id="circle283" />
    <circle
       class="Newtownabbey"
       cx="499.2"
       cy="585.8"
       id="circle285" />
    <circle
       class="Belfast"
       cx="500.2"
       cy="594.9"
       id="circle287" />
    <circle
       class="North Down"
       cx="509.4"
       cy="591.4"
       id="circle289" />
    <circle
       class="Ards"
       cx="518.1"
       cy="596.1"
       id="circle291" />
    <circle
       class="Down"
       cx="506.3"
       cy="615.2"
       id="circle293" />
    <circle
       class="Clackmannanshire"
       cx="603.8"
       cy="468.1"
       id="circle295" />
    <circle
       class="Stirling"
       cx="571.9"
       cy="456.3"
       id="circle297" />
    <circle
       class="Falkirk"
       cx="601.8"
       cy="482.1"
       id="circle299" />
    <circle
       class="West Lothian"
       cx="613.1"
       cy="489.5"
       id="circle301" />
    <circle
       class="Edinburgh"
       cx="623.7"
       cy="487.7"
       id="circle303" />
    <circle
       class="Midlothian"
       cx="634.6"
       cy="495.1"
       id="circle305" />
    <circle
       class="East Lothian"
       cx="651.3"
       cy="484.5"
       id="circle307" />
    <circle
       class="North Tyneside"
       cx="709.4"
       cy="561.3"
       id="circle309" />
    <circle
       class="South Tyneside"
       cx="711.7"
       cy="566.5"
       id="circle311" />
    <circle
       class="Sunderland"
       cx="710.7"
       cy="574.6"
       id="circle313" />
    <circle
       class="Durham"
       cx="687.9"
       cy="590.8"
       id="circle315" />
    <circle
       class="Hartlepool"
       cx="720.5"
       cy="589.9"
       id="circle317" />
    <circle
       class="Redcar and Cleveland"
       cx="731"
       cy="599"
       id="circle319" />
    <circle
       class="North Yorkshire"
       cx="704.7"
       cy="627.2"
       id="circle321" />
    <circle
       class="East Riding of Yorkshire"
       cx="753.9"
       cy="651.4"
       id="circle323" />
    <circle
       class="Kingston upon Hull"
       cx="761.4"
       cy="662.7"
       id="circle325" />
    <circle
       class="North Lincolnshire"
       cx="749.8"
       cy="674.4"
       id="circle327" />
    <circle
       class="North East Lincolnshire"
       cx="773.5"
       cy="681"
       id="circle329" />
    <circle
       class="Lincolnshire"
       cx="765.6"
       cy="712.8"
       id="circle331" />
    <circle
       class="Norfolk"
       cx="823.6"
       cy="748.3"
       id="circle333" />
    <circle
       class="Suffolk"
       cx="826.3"
       cy="786.8"
       id="circle335" />
    <circle
       class="Essex"
       cx="800.9"
       cy="813.8"
       id="circle337" />
    <circle
       class="Southend-on-Sea"
       cx="813"
       cy="833"
       id="circle339" />
    <circle
       class="Thurrock"
       cx="796.6"
       cy="836.7"
       id="circle341" />
    <circle
       class="Kent"
       cx="815.7"
       cy="861.1"
       id="circle343" />
    <circle
       class="Medway"
       cx="804.9"
       cy="840.6"
       id="circle345" />
    <circle
       class="East Sussex"
       cx="788.8"
       cy="879.1"
       id="circle347" />
    <circle
       class="Brighton and Hove"
       cx="773"
       cy="885.5"
       id="circle349" />
    <circle
       class="West Sussex"
       cx="756.5"
       cy="878.3"
       id="circle351" />
    <circle
       class="Hampshire"
       cx="726.1"
       cy="866.7"
       id="circle353" />
    <circle
       class="Portsmouth"
       cx="729.6"
       cy="887.7"
       id="circle355" />
    <circle
       class="Southampton"
       cx="715.1"
       cy="880.7"
       id="circle357" />
    <circle
       class="Dorset"
       cx="671.2"
       cy="889.3"
       id="circle359" />
    <circle
       class="Bournemouth"
       cx="690.3"
       cy="894"
       id="circle361" />
    <circle
       class="Poole"
       cx="687.2"
       cy="893.4"
       id="circle363" />
    <circle
       class="Devon"
       cx="597.4"
       cy="892.5"
       id="circle365" />
    <circle
       class="Torbay"
       cx="610.8"
       cy="914.8"
       id="circle367" />
    <circle
       class="Plymouth"
       cx="585.8"
       cy="918.5"
       id="circle369" />
    <circle
       class="Cornwall"
       cx="567.5"
       cy="907.3"
       id="circle371" />
    <circle
       class="Somerset"
       cx="647.5"
       cy="868.5"
       id="circle373" />
    <circle
       class="North Somerset"
       cx="649.1"
       cy="843.8"
       id="circle375" />
    <circle
       class="Bristol"
       cx="658.5"
       cy="841.8"
       id="circle377" />
    <circle
       class="South Gloucestershire"
       cx="664.3"
       cy="834.1"
       id="circle379" />
    <circle
       class="Newport"
       cx="641.6"
       cy="830.4"
       id="circle381" />
    <circle
       class="Cardiff"
       cx="630.1"
       cy="836.4"
       id="circle383" />
    <circle
       class="Vale of Glamorgan"
       cx="622.2"
       cy="841"
       id="circle385" />
    <circle
       class="Bridgend"
       cx="612.2"
       cy="832.6"
       id="circle387" />
    <circle
       class="Neath Port Talbot"
       cx="603.8"
       cy="824.6"
       id="circle389" />
    <circle
       class="Swansea"
       cx="593.5"
       cy="822.6"
       id="circle391" />
    <circle
       class="Carmarthenshire"
       cx="585.1"
       cy="808.7"
       id="circle393" />
    <circle
       class="Pembrokeshire"
       cx="550.7"
       cy="806.5"
       id="circle395" />
    <circle
       class="Ceredigion"
       cx="594.9"
       cy="775.1"
       id="circle397" />
    <circle
       class="Gwynedd"
       cx="595.9"
       cy="734"
       id="circle399" />
    <circle
       class="Conwy"
       cx="603.3"
       cy="711.8"
       id="circle401" />
    <circle
       class="Denbighshire"
       cx="622.1"
       cy="716.4"
       id="circle403" />
    <circle
       class="Halton"
       cx="635.9"
       cy="693.3"
       id="circle405" />
    <circle
       class="Halton"
       cx="653.5"
       cy="696.6"
       id="circle407" />
    <circle
       class="Knowsley"
       cx="646.1"
       cy="688.5"
       id="circle409" />
    <circle
       class="Liverpool"
       cx="640.9"
       cy="688"
       id="circle411" />
    <circle
       class="Sefton"
       cx="636.5"
       cy="676.4"
       id="circle413" />
    <circle
       class="Lancashire"
       cx="655.8"
       cy="649.5"
       id="circle415" />
    <circle
       class="Blackpool"
       cx="638.6"
       cy="656.1"
       id="circle417" />
    <circle
       class="South Ayrshire"
       cx="560.4"
       cy="540.3"
       id="circle419" />
    <circle
       class="North Ayshire"
       cx="557.9"
       cy="504.1"
       id="circle421" />
    <circle
       class="Inverclyde"
       cx="557.3"
       cy="488.5"
       id="circle423" />
    <circle
       class="Renfrewshire"
       cx="567.7"
       cy="493.1"
       id="circle425" />
    <circle
       class="West Dunbartonshire"
       cx="566.9"
       cy="480.1"
       id="circle427" />
    <circle
       class="Argyll and Bute"
       cx="530.5"
       cy="456"
       id="circle429" />
    <circle
       class="Highland"
       cx="549.6"
       cy="365.3"
       id="circle431" />
    <circle
       class="Moray"
       cx="628.4"
       cy="352.6"
       id="circle433" />
    <circle
       class="Aberdeenshire"
       cx="656.1"
       cy="374.3"
       id="circle435" />
    <circle
       class="Aberdeen"
       cx="676"
       cy="381.3"
       id="circle437" />
    <circle
       class="Angus"
       cx="643"
       cy="416.7"
       id="circle439" />
    <circle
       class="Dundee"
       cx="641"
       cy="438.9"
       id="circle441" />
    <circle
       class="Perthshire and Kinross"
       cx="603.7"
       cy="431.7"
       id="circle443" />
    <circle
       class="Fife"
       cx="633"
       cy="458.6"
       id="circle445" />
    <circle
       class="Isle of Wight"
       cx="718.7"
       cy="898.2"
       id="circle447" />
    <circle
       class="Anglesey"
       cx="574.8"
       cy="698.6"
       id="circle449" />
    <circle
       class="Eilean Siar"
       cx="470.8"
       cy="288"
       id="circle451" />
    <circle
       class="Orkney"
       cx="631.1"
       cy="212.6"
       id="circle453" />
    <circle
       class="Shetland Islands"
       cx="719.1"
       cy="97.7"
       id="circle455" />
    <circle
       class="Isles of Scilly"
       cx="484.2"
       cy="953.7"
       id="circle457" />
    <circle
       class="Caerphilly"
       cx="629.6"
       cy="826.2"
       id="circle459" />
    <circle
       class="Rhondda, Cynon, Taff"
       cx="619.9"
       cy="827.3"
       id="circle461" />
    <circle
       class="Blaenau Gwent"
       cx="630"
       cy="816.5"
       id="circle463" />
    <circle
       class="Torfaen"
       cx="637.5"
       cy="823.2"
       id="circle465" />
    <circle
       class="Merthyr Tydfil"
       cx="621.9"
       cy="818.8"
       id="circle467" />
    <circle
       class="North Lanarkshire"
       cx="594"
       cy="491.5"
       id="circle469" />
    <circle
       class="East Dunbartonshire"
       cx="582.2"
       cy="483.8"
       id="circle471" />
    <circle
       class="Glasgow"
       cx="580.4"
       cy="492.6"
       id="circle473" />
    <circle
       class="East Renfrewshire"
       cx="575.7"
       cy="500.7"
       id="circle475" />
    <circle
       class="East Ayrshire"
       cx="577.6"
       cy="525.5"
       id="circle477" />
    <circle
       class="South Lanarkshire"
       cx="600.7"
       cy="513.7"
       id="circle479" />
    <circle
       class="Magherafelt"
       cx="466.3"
       cy="578.4"
       id="circle481" />
    <circle
       class="Omagh"
       cx="438.8"
       cy="596.1"
       id="circle483" />
    <circle
       class="Mid Ulster"
       cx="461.1"
       cy="591.2"
       id="circle485" />
    <circle
       class="Craigavon"
       cx="480.7"
       cy="603.9"
       id="circle487" />
    <circle
       class="Banbridge"
       cx="491.3"
       cy="616.1"
       id="circle489" />
    <circle
       class="Antrim"
       cx="485.7"
       cy="587.4"
       id="circle491" />
    <circle
       class="Lisburn"
       cx="493.3"
       cy="601.5"
       id="circle493" />
    <circle
       class="Ballymoney"
       cx="476.6"
       cy="558.8"
       id="circle495" />
    <circle
       class="Ballymena"
       cx="486.7"
       cy="570.9"
       id="circle497" />
    <circle
       class="Castlereagh"
       cx="504.5"
       cy="599.9"
       id="circle499" />
    <circle
       class="Wandsworth"
       cx="771.5"
       cy="840.8"
       id="circle501" />
    <circle
       class="Merton"
       cx="770.1"
       cy="843.7"
       id="circle503" />
    <circle
       class="Westminster"
       cx="771.9"
       cy="836"
       id="circle505" />
    <circle
       class="Kensington and Chelsea"
       cx="770.5"
       cy="837.2"
       id="circle507" />
    <circle
       class="Hounslow"
       cx="762.5"
       cy="839.1"
       id="circle509" />
    <circle
       class="Ealing"
       cx="763.8"
       cy="835.4"
       id="circle511" />
    <circle
       class="Hammersmith and Fulham"
       cx="769"
       cy="837.2"
       id="circle513" />
    <circle
       class="Stockton-on-Tees"
       cx="716.1"
       cy="599.1"
       id="circle515" />
    <circle
       class="Darlington"
       cx="707.8"
       cy="601.2"
       id="circle517" />
    <circle
       class="Middlesbrough"
       cx="720.5"
       cy="600.6"
       id="circle519" />
    <circle
       class="Richmond upon Thames"
       cx="763.7"
       cy="842.5"
       id="circle521" />
    <circle
       class="City"
       cx="775"
       cy="835.5"
       id="circle523" />
    <circle
       class="Tower Hamlets"
       cx="778.2"
       cy="835.7"
       id="circle525" />
    <circle
       class="Gateshead"
       cx="699.5"
       cy="567.3"
       id="circle527" />
    <circle
       class="Newcastle upon Tyne"
       cx="703"
       cy="562.1"
       id="circle529" />
    <circle
       class="York"
       cx="728.2"
       cy="647.4"
       id="circle531" />
    <circle
       class="Merseyside"
       cx="651.2"
       cy="687.9"
       id="circle533" />
    <circle
       class="Enfield"
       cx="775.3"
       cy="826"
       id="circle535" />
    <circle
       class="Hertfordshire"
       cx="772.8"
       cy="810"
       id="circle537" />
    <circle
       class="Barnet"
       cx="769.9"
       cy="828.8"
       id="circle539" />
    <circle
       class="Waltham Forest"
       cx="778.9"
       cy="830"
       id="circle541" />
    <circle
       class="Redbridge"
       cx="783.4"
       cy="831.3"
       id="circle543" />
    <circle
       class="Havering"
       cx="790.3"
       cy="832.2"
       id="circle545" />
    <circle
       class="Cambridgeshire"
       cx="781.4"
       cy="774.1"
       id="circle547" />
    <circle
       class="Bexley"
       cx="786.3"
       cy="840"
       id="circle549" />
    <circle
       class="Sutton"
       cx="771.6"
       cy="847.3"
       id="circle551" />
    <circle
       class="Milton Keynes"
       cx="744.7"
       cy="793.9"
       id="circle553" />
    <circle
       class="Buckinghamshire"
       cx="737.9"
       cy="809.1"
       id="circle555" />
    <circle
       class="Hillingdon"
       cx="759"
       cy="831.8"
       id="circle557" />
    <circle
       class="Brent"
       cx="766.8"
       cy="832.7"
       id="circle559" />
    <circle
       class="Luton"
       cx="760.4"
       cy="808.5"
       id="circle561" />
    <circle
       class="Harrow"
       cx="762.9"
       cy="830.4"
       id="circle563" />
    <circle
       class="Central Bedfordshire"
       cx="754"
       cy="800.4"
       id="circle565" />
    <circle
       class="Bedford"
       cx="757"
       cy="785.9"
       id="circle567" />
    <circle
       class="Rutland"
       cx="748.5"
       cy="749.3"
       id="circle569" />
    <circle
       class="Nottinghamshire"
       cx="733.7"
       cy="711.6"
       id="circle571" />
    <circle
       class="Northamptonshire"
       cx="737"
       cy="777.8"
       id="circle573" />
    <circle
       class="Camden"
       cx="772.3"
       cy="833.3"
       id="circle575" />
    <circle
       class="Islington"
       cx="774.7"
       cy="833.6"
       id="circle577" />
    <circle
       class="Peterborough"
       cx="764.8"
       cy="754.4"
       id="circle579" />
    <circle
       class="Lambeth"
       cx="773.9"
       cy="840.4"
       id="circle581" />
    <circle
       class="Southwark"
       cx="775.9"
       cy="838.1"
       id="circle583" />
    <circle
       class="Doncaster"
       cx="729.1"
       cy="680.6"
       id="circle585" />
    <circle
       class="Croydon"
       cx="775.8"
       cy="847.9"
       id="circle587" />
    <circle
       class="Lewisham"
       cx="778.7"
       cy="841.3"
       id="circle589" />
    <circle
       class="Haringey"
       cx="774.6"
       cy="830.3"
       id="circle591" />
    <circle
       class="Kingston upon Thames"
       cx="766.5"
       cy="844.8"
       id="circle593" />
    <circle
       class="Newham"
       cx="781.3"
       cy="835.1"
       id="circle595" />
    <circle
       class="Greenwich"
       cx="782"
       cy="839.7"
       id="circle597" />
    <circle
       class="Hackney"
       cx="776.7"
       cy="833.2"
       id="circle599" />
    <circle
       class="Barking and Dagenham"
       cx="785.9"
       cy="834.5"
       id="circle601" />
    <circle
       class="Leicestershire"
       cx="735.1"
       cy="747.7"
       id="circle603" />
    <circle
       class="Cheshire East"
       cx="672.1"
       cy="705.7"
       id="circle605" />
    <circle
       class="Derbyshire"
       cx="705.6"
       cy="713.2"
       id="circle607" />
    <circle
       class="Rotherham"
       cx="717.8"
       cy="691.2"
       id="circle609" />
    <circle
       class="Sheffield"
       cx="707.6"
       cy="691.7"
       id="circle611" />
    <circle
       class="Stoke-on-Trent"
       cx="677.5"
       cy="721.5"
       id="circle613" />
    <circle
       class="Telford and Wrekin"
       cx="663.9"
       cy="744"
       id="circle615" />
    <circle
       class="Staffordshire"
       cx="686.2"
       cy="734.9"
       id="circle617" />
    <circle
       class="Bromley"
       cx="782.3"
       cy="847.1"
       id="circle619" />
    <circle
       class="Worcestershire"
       cx="677.8"
       cy="781.4"
       id="circle621" />
    <circle
       class="Warwickshire"
       cx="705.1"
       cy="783.4"
       id="circle623" />
    <circle
       class="Oxfordshire"
       cx="714.4"
       cy="815.9"
       id="circle625" />
    <circle
       class="Wigan"
       cx="656.6"
       cy="680.3"
       id="circle627" />
    <circle
       class="Stockport"
       cx="677.5"
       cy="692.1"
       id="circle629" />
    <circle
       class="Warrington"
       cx="659.7"
       cy="692.6"
       id="circle631" />
    <circle
       class="West Berkshire"
       cx="716.9"
       cy="840.1"
       id="circle633" />
    <circle
       class="Wokingham"
       cx="736.8"
       cy="843.1"
       id="circle635" />
    <circle
       class="Bracknell Forest"
       cx="743.5"
       cy="844.2"
       id="circle637" />
    <circle
       class="Royal Borough of Windsor and Maidenhead"
       cx="744.1"
       cy="836.2"
       id="circle639" />
    <circle
       class="Slough"
       cx="753.6"
       cy="839.1"
       id="circle641" />
    <circle
       class="Reading"
       cx="730.1"
       cy="840.8"
       id="circle643" />
    <circle
       class="Surrey"
       cx="758.1"
       cy="855.7"
       id="circle645" />
    <circle
       class="Blackburn with Darwen"
       cx="664.2"
       cy="666.7"
       id="circle647" />
    <circle
       class="Swindon"
       cx="697.3"
       cy="833.7"
       id="circle649" />
    <circle
       class="Bath and North East Somerset"
       cx="664.2"
       cy="849"
       id="circle651" />
    <circle
       class="Wiltshire"
       cx="687.8"
       cy="854.6"
       id="circle653" />
    <circle
       class="Calderdale"
       cx="686.7"
       cy="663.6"
       id="circle655" />
    <circle
       class="Kirklees"
       cx="696.6"
       cy="673.8"
       id="circle657" />
    <circle
       class="Nottingham"
       cx="724.3"
       cy="727"
       id="circle659" />
    <circle
       class="Leicester"
       cx="726.3"
       cy="752.2"
       id="circle661" />
    <circle
       class="Derby"
       cx="710.4"
       cy="730.7"
       id="circle663" />
    <circle
       class="Leeds"
       cx="709.9"
       cy="658.6"
       id="circle665" />
    <circle
       class="Bradford"
       cx="694.4"
       cy="654.3"
       id="circle667" />
    <circle
       class="Wakefield"
       cx="713"
       cy="671.5"
       id="circle669" />
    <circle
       class="Barnsley"
       cx="708.7"
       cy="680.5"
       id="circle671" />
    <circle
       class="Salford"
       cx="666.2"
       cy="683.1"
       id="circle673" />
    <circle
       class="Bolton"
       cx="665.7"
       cy="675.5"
       id="circle675" />
    <circle
       class="Trafford"
       cx="668"
       cy="689.9"
       id="circle677" />
    <circle
       class="Manchester"
       cx="673.2"
       cy="686.6"
       id="circle679" />
    <circle
       class="Oldham"
       cx="684.1"
       cy="679.2"
       id="circle681" />
    <circle
       class="Rochdale"
       cx="677.3"
       cy="673.2"
       id="circle683" />
    <circle
       class="Tameside"
       cx="680.9"
       cy="686.2"
       id="circle685" />
    <circle
       class="Bury"
       cx="671"
       cy="675.7"
       id="circle687" />
    <circle
       class="Solihull"
       cx="698.5"
       cy="768"
       id="circle689" />
    <circle
       class="Coventry"
       cx="707.3"
       cy="768.6"
       id="circle691" />
    <circle
       class="Birmingham"
       cx="691.7"
       cy="763.2"
       id="circle693" />
    <circle
       class="Sandwell"
       cx="685.3"
       cy="759.5"
       id="circle695" />
    <circle
       class="Dudley"
       cx="680"
       cy="763.6"
       id="circle697" />
    <circle
       class="Walsall"
       cx="687.7"
       cy="753.1"
       id="circle699" />
    <circle
       class="Wolverhampton"
       cx="680.2"
       cy="753.4"
       id="circle701" />
  </g>
</svg>
