<?xml version="1.0" encoding="UTF-8" standalone="no"?>
<?xml-stylesheet type="text/css" href="/styles/home.css"?>
<!-- https://www.amcharts.com/svg-maps -->

<svg version="1.1" xmlns="http://www.w3.org/2000/svg" id="map-estonia"
   viewBox="0 0 611.68964 393.30511" width="611.68964" height="393.30511">
  <defs
     id="defs4">
    <style
       type="text/css"
       id="style2">
			.land
			{
				fill: #7795cb;
				fill-opacity: 1;
				stroke:white;
				stroke-opacity: 1;
				stroke-width:0.5;
			}
		</style>
    <!-- <amcharts:ammap projection="mercator" leftLongitude="21.770501" topLatitude="59.668926" rightLongitude="28.208948" bottomLatitude="57.509646"></amcharts:ammap> -->
    <!-- All areas are listed in the line below. You can use this list in your script. -->
    <!--{id:"EE-84"},{id:"EE-65"},{id:"EE-44"},{id:"EE-78"},{id:"EE-51"},{id:"EE-86"},{id:"EE-67"},{id:"EE-59"},{id:"EE-39"},{id:"EE-57"},{id:"EE-82"},{id:"EE-49"},{id:"EE-70"},{id:"EE-74"},{id:"EE-37"}-->
  </defs>
  <path
     d="m 380.94881,181.19949 0.35,4.28 -1.41,2.68 2.15,0.38 0.54,3.59 -1.01,1.75 -1.62,0.03 -1.85,1.53 0.77,1.42 6.94,1.13 5.17,-1.09 6.7,2.85 0.8,2.24 -0.92,1.47 1.16,0.64 -0.02,1.83 0.97,-0.22 1.79,1.71 2.27,-1.67 0.44,6.3 5.21,4.48 1.13,-0.91 5.11,5.48 v 0 l 1.39,2.03 0.1,2.8 2.58,6.86 -1.63,-0.27 -1.33,1.05 -1.29,3.22 -9.09,9.69 2.24,37.3 v 0 l -4.31,0.06 -0.75,1.49 -3.68,0.93 -0.06,1.07 -1.44,0.9 -3.68,-0.16 -0.42,-3.37 -1.74,-3.18 -2.97,-1.95 -2.13,0.01 1.43,3.27 -3.13,1.53 0.11,1.72 0.54,0.73 1.13,-2.19 0.52,3.43 -1.56,-0.04 0.24,1.13 -1.99,0.76 0.09,1.16 -1.48,-0.27 -0.46,1.58 -0.73,-0.48 -1.59,1.59 -3.15,-0.22 1,1.26 -5.8,6.98 -1.39,-1.56 h -5.73 l -0.78,1.01 2.18,5.27 -3.48,7.13 v 0 l -1.45,-2.68 -1.94,1.98 -0.65,-1.93 -2.96,1.09 -0.81,-0.53 0.71,-2.04 -3.36,0.79 -3.9,-3.36 2.07,-1.66 -1.28,-1.74 -4.01,-2.72 -4.27,-0.21 -2.76,-5.09 -4.25,-4.3 -2.61,3.46 3.92,5.53 -0.35,6.69 -1.55,0.74 -2.47,-0.61 -2.86,-4.13 1.56,-0.43 -1.06,-0.93 -0.94,0.52 -0.62,-3.22 0.91,-2.06 -0.95,0.48 -1.11,-2.85 0.67,-2.56 -1.15,-1.06 -1.42,0.52 0.34,1.26 -7.87,-0.29 -0.35,2.01 -2.15,0.05 -3.36,4.58 v 0 l -1.05,-1.28 -0.49,-3.76 -1.43,-0.78 0.97,-3.31 3.84,-2.15 -0.93,-1.35 0.25,-1.68 3.9,0.05 0.97,1.24 0.46,-1.18 1.03,0.01 0.4,1.19 0.61,-3.03 -2.84,-2.14 0.05,-1.58 1.28,0.22 0.55,-1.03 -0.72,-2.67 0.75,-0.72 0.74,1.25 0.63,3.6 1.23,-1.19 -0.77,-3.11 1.67,-0.61 0.34,-1.83 h -1.36 l 0.06,-1.01 1.78,-1.13 2.68,0.52 2.13,-2.1 1.78,2.37 0.02,-1.35 1.39,-0.79 0.04,-3.5 -1.36,-3.78 2.86,-1.62 -0.82,-4.33 -8.21,-1.35 -2.35,-5.25 -1.59,-0.97 -3.15,1.5 -0.56,-2.33 -0.69,0.78 -4.61,-1.63 -5.61,1.25 -0.83,-3.74 1.48,-9.81 -0.28,-4.99 1.25,0.65 1.74,-2.33 -0.53,-8.91 1.85,-1.06 0.4,-2.61 3.56,-0.5 0.88,-1.95 3.91,-0.67 2.41,-2.83 1.17,1.15 1.39,-1.06 -0.04,-3.03 1.6,-1.05 -0.36,-1.46 5.57,-1.16 -1.37,-1.05 -0.57,-5.51 -1.33,0.33 0.31,-2.33 3.08,-1.6 v 0 l 0.86,1.42 4.11,0.54 1.05,1.2 3.45,-1.02 0.88,1.82 1.69,0.15 2.35,-1.29 5.58,1.2 1.28,-1 -0.47,-1.1 2.42,-0.01 2.43,-2.71 1.39,2.09 1.22,-0.91 -0.96,-0.93 1.68,-1.31 3.32,0.69 2.07,-2.31 3.33,-0.46 1.44,-3.42 5.34,-0.42 4.95,-2.1 z"
     class="land"
     title="Viljandimaa"
     id="EE-84" />
  <path
     d="m 460.98881,284.24949 3.2,-1.06 -0.2,-1.69 1.64,-1.72 -1.5,-0.84 0.2,-0.92 1.42,0.25 -1.83,-2.56 0.44,-2.5 3.55,0.86 3.65,-2.3 1.09,2.21 -0.73,2.25 1.18,-1.19 1.05,0.75 0.31,-1.06 2.79,-1.63 1.89,-0.11 1.11,1.42 -0.12,-1.29 3.79,-3.04 0.62,-4.64 2.51,-3.92 0.8,-0.27 1,1.54 0.17,2.54 1.39,-2.09 1.75,0.47 0.72,-1.1 1.91,0.4 0.21,2.5 2.53,-0.77 0.88,-1.28 0.72,1.44 1.61,-1.57 0.44,-4.59 2.61,0.94 1.2,2.32 4.35,-1.08 0.52,-2.99 1.11,0.11 1.86,2.43 6.77,0.06 0.32,1.08 3.4,0.39 -0.78,3.84 7.45,1.56 0.55,-0.86 3.33,2.25 2.39,-0.54 1.14,2.75 9.57,1.18 v 0 l 6.74,12.16 3.33,3.86 -2.53,8.24 1.2,8.14 3.45,2.14 -0.48,-4.18 3.79,2.47 0.52,2.71 -1.75,3.01 0.63,2.28 -2.55,1.04 2.49,3.71 -0.06,1.59 3.17,0.7 -0.23,1.81 -1.71,0.75 0.95,0.98 2.38,-0.96 3.28,2.23 2.11,-0.96 2.2,0.35 0.55,1.45 -0.81,0.82 0.41,4.11 -2.07,2.12 0.27,1.57 -0.65,-0.41 -1.22,1.76 -1.46,-0.32 -1.85,1.09 -3.1,-2.94 -2.22,1.99 -5.72,-1.05 -7.23,1.44 v 0 l -4.23,0.32 -5.67,-1.54 -4.52,0.26 -1.86,0.52 -2.38,3.17 -0.34,-1.36 -1.04,0.38 -0.98,-1.39 -1.55,-0.14 -0.39,-2.19 -3.08,-0.13 1.66,-5.55 1.12,0.39 2.89,-3.05 0.22,-1.4 -2.79,-1.29 0.32,-1.91 -1.08,-0.05 -0.4,3.37 -3.05,-1.87 -2.13,0.51 -2.72,-1.69 0.15,-0.77 -2.7,0.56 -0.66,-1.95 -1.8,0.59 -1.93,-4.37 -1.79,0.2 -0.63,-1.81 -2.68,2.72 -1.39,-1 -1.48,1.85 2.98,5.51 -3.21,-0.64 -0.03,-0.75 -4.87,-0.05 -0.37,-0.86 -0.52,0.77 -1.65,-0.98 -0.37,-3.68 -6.89,4.13 v -1.61 l -0.97,-0.02 -2.65,0.81 -1.5,-0.58 -3.17,1.7 -1.38,-2.39 h -2.03 l -1.68,1.41 -0.54,-1.52 -1.99,-0.12 -2.16,-1.86 -2.43,1.7 -2.36,0.1 -0.48,-0.85 -2.85,0.96 -2.2,-1.82 0.28,-0.95 -2.21,0.15 -0.11,-1.82 -0.89,-0.22 v 0 l 1.89,-5.73 -1.8,-2.72 2.1,-3.13 0.14,-2.95 -0.99,-0.41 0.42,-2.85 -1.19,0.54 -0.28,-2.53 2.27,-3.6 1.32,-5.67 z"
     class="land"
     title="Põlvamaa"
     id="EE-65" />
  <path
     d="m 474.35881,31.88949 12.47,9.79 4.96,2.03 9.65,0.67 16.3,-1.92 14.81,-0.6 14.9,3.71 0.76,0.99 4.92,1.42 13.75,-0.22 1.88,2.57 4.5,1.19 5.16,-1.47 5.14,0.22 1.93,-0.99 5.52,-4.69 4.67,-7.46 0.64,1.36 4.33,2.16 2.61,2.72 1.5,3.52 5.66,4.38 1.02,2.42 -0.06,3.66 -3.65,5.41 -3.77,8.11 -6.77,-0.04 -6.7,3.12 -2.64,0.33 -4.79,5.19 -2.01,11.09 -2.31,4.47 -5.54,6.56 0.42,3.06 -1.99,2.88 0.26,4.02 -1.58,1.84 -0.65,5.14 -2,0.9 -0.73,9.03 -27.25,26.82 v 0 l -11.41,-4.23 -13.1,-1.76 -23.25,-0.11 -1.53,-0.62 -1.12,-2.58 -2.37,-1.67 -5.36,-0.82 -0.54,1.71 -7.33,1.3 -1.81,-4.62 0.54,-3.73 -1.4,-1.05 0.9,-2.17 -2.57,-1.82 -0.28,-1.6 v 0 l 2.42,-2.15 4.59,-0.81 1.82,-2.5 -0.19,-5.43 1.99,-1.82 -1.29,-1.49 0.96,-15.23 1.12,0.54 2.72,-3.25 3.51,-0.41 0.41,-1.35 1.29,1.89 1.98,-0.09 0.67,-5.15 1.1,-0.06 -0.45,-3.03 -1.81,-0.57 1.02,-2.07 -1.09,-2.48 -7.76,-4.07 0.68,-0.91 -0.65,-5.19 -8.08,4.47 -0.84,-4.97 -1.01,0.06 0.77,-4.25 -0.65,-0.85 2.15,-2.3 1.11,-4.27 0.91,0.22 0.46,-1.75 1.8,0.47 0.83,-1.69 -3.95,-2.21 -3.45,0.5 -1.1,-1.49 -1.29,1.15 -1.22,-0.87 5.02,-4.69 -2.39,-4.93 2.64,-1.23 1.26,1.66 2.16,0.37 -0.69,-10.32 -2.56,-5.15 0.01,-1.85 v 0 z"
     class="land"
     title="Ida-Virumaa"
     id="EE-44" />
  <path
     d="m 535.08881,181.48949 14.3,58.57 -6.23,11.33 0.24,13.96 3.57,6.83 v 0 l -9.57,-1.18 -1.14,-2.75 -2.39,0.54 -3.33,-2.25 -0.55,0.86 -7.45,-1.56 0.78,-3.84 -3.4,-0.39 -0.32,-1.08 -6.77,-0.06 -1.86,-2.43 -1.11,-0.11 -0.52,2.99 -4.35,1.08 -1.2,-2.32 -2.61,-0.94 -0.44,4.59 -1.61,1.57 -0.72,-1.44 -0.88,1.28 -2.53,0.77 -0.21,-2.5 -1.91,-0.4 -0.72,1.1 -1.75,-0.47 -1.39,2.09 -0.17,-2.54 -1,-1.54 -0.8,0.27 -2.51,3.92 -0.62,4.64 -3.79,3.04 0.12,1.29 -1.11,-1.42 -1.89,0.11 -2.79,1.63 -0.31,1.06 -1.05,-0.75 -1.18,1.19 0.73,-2.25 -1.09,-2.21 -3.65,2.3 -3.55,-0.86 -0.44,2.5 1.83,2.56 -1.42,-0.25 -0.2,0.92 1.5,0.84 -1.64,1.72 0.2,1.69 -3.2,1.06 v 0 l -0.23,-1 -1.79,0.25 -0.02,-2.43 -3.1,-1.11 -0.04,-2.1 -1.06,-0.93 -6.17,-0.11 -0.95,1.69 -1.78,0.21 -2.49,1.92 -1.01,-0.75 -1.14,0.54 -0.92,-4.64 -1.06,0.6 -2.35,-1.17 -3.7,7.22 -4.19,-0.86 -1.28,4.18 -11.57,-0.85 -0.45,-1.2 -2.08,0.56 -0.59,1.27 -0.57,-1.54 -2,0.7 -1.86,-0.92 v 0 l -2.24,-37.3 9.09,-9.69 1.29,-3.22 1.33,-1.05 1.63,0.27 -2.58,-6.86 -0.1,-2.8 -1.39,-2.03 v 0 l -0.09,-1.58 0.95,-0.33 0.97,-2.99 2,2.09 1.6,-1.18 1.7,1.03 8.23,-6.16 2.47,-0.75 0.82,-1.65 3.49,1.31 0.41,2.68 1.64,0.95 -0.54,-1.13 1.09,-2.99 1.5,-1.18 3.5,-0.15 2.84,1.54 0.72,-0.94 -1.1,-0.69 1.17,-1.03 4.29,-0.49 -2.07,2.16 2.54,1.25 1.54,-1.51 4.36,3.74 3.92,-2.18 -0.89,-1.01 0.12,-1.96 2.25,-3.22 -0.65,-1.29 4.87,4.69 2.55,-1.36 0.18,-1.64 1.54,1 1.64,-1.25 2.14,0.63 1.13,-1.43 2.09,-0.29 -0.42,-1.53 2.42,-0.16 1.05,-10.33 6.49,2.02 2.93,2.73 0.68,-0.88 1.27,0.89 0.41,-1.52 1.87,1.94 0.1,1.48 2.21,0.5 0.15,-2.25 -1.45,-2.93 0.69,-1.36 -0.6,-1.13 -1.42,0.34 -0.12,-1.2 3.97,-0.98 1.64,-1.97 1.58,0.86 0.95,-2.15 -0.6,-1.4 29.34,-9.36 v 0 z"
     class="land"
     title="Tartumaa"
     id="EE-78" />
  <path
     d="m 338.46881,125.61949 1.24,-3.24 1.04,-0.37 1.61,1.29 2.51,-2.83 0.91,-6.89 -2.05,-3.24 2.79,-2.49 1.47,0.57 2.34,3.63 2.71,-5.79 -4.12,-2.45 1.49,-3.51 -0.95,-1.98 5.28,-6.88 2.39,-6.23 -2.29,-6.08 -3.32,-4.04 3.21,-0.07 2.82,1.2 4.58,-2.18 5.47,3.52 1.38,-0.87 -0.02,-2.76 2.66,-0.04 1.97,-1.82 4.22,0.28 3.03,-2.6 9.86,1.56 2.75,3.21 v 0 l 0.36,1.59 -1.35,0.45 0.03,1.3 2.74,0.29 -0.48,5.28 1.85,-0.85 1.92,1.28 -0.98,2.22 -1.5,0.7 0.82,1.28 -1,1.42 1.92,0.02 1.68,1.67 1.66,-1.32 1.28,0.36 0.9,4.36 -2.65,2.11 -1.05,5.24 -1.6,-0.11 -1.38,1.48 -1.01,6.44 -2.11,2.49 0.88,1.8 0.91,-1.66 1.42,1.86 1.31,-2.02 2.99,3.02 3.27,-0.76 0.97,0.59 1.22,1.33 1.07,4.79 2.53,0.79 0.52,2.5 4.41,2.6 -0.47,2.44 1.33,3.62 1.27,0.5 -0.49,3.25 1.05,2.29 -1.56,4.02 0.57,1.62 v 0 l -0.05,1.61 -1.32,-0.64 -2.48,3.9 0.95,0.73 0.55,3.7 -7.89,0.99 -1.98,1.08 -1.15,-0.62 -0.94,3.09 -3.13,-0.47 -1.68,1.63 1.36,4.42 -0.13,3.25 -3.77,2.71 -0.86,-2.41 -2.28,-1.56 -1.53,0.21 0.25,2.26 -1.71,1.9 -3.13,-0.22 0.72,3.62 -2.83,1.89 -0.19,1.15 -1.07,-0.25 -1.46,4.43 v 0 l -1.28,1.51 -4.95,2.1 -5.34,0.42 -1.44,3.42 -3.33,0.46 -2.07,2.31 -3.32,-0.69 -1.68,1.31 0.96,0.93 -1.22,0.91 -1.39,-2.09 -2.43,2.71 -2.42,0.01 0.47,1.1 -1.28,1 -5.58,-1.2 -2.35,1.29 -1.69,-0.15 -0.88,-1.82 -3.45,1.02 -1.05,-1.2 -4.11,-0.54 -0.86,-1.42 v 0 l 1.12,-0.91 4.55,-13.29 -4.58,-2.53 -5.37,-0.84 v 0 l 1.23,-6.89 1.57,-0.89 -3.45,-6.2 0.61,-1.3 1.99,0.64 1.43,-3.02 2.13,-1.57 -0.71,-1.06 2.45,-4.82 -1.3,-1.71 -1.24,0.06 -1.44,-2.33 2.03,-4.36 4.3,-2.57 0.87,-6.65 -2.36,-3.62 z"
     class="land"
     title="Järvamaa"
     id="EE-51" />
  <path
     d="m 455.63881,313.77949 0.89,0.22 0.11,1.82 2.21,-0.15 -0.28,0.95 2.2,1.82 2.85,-0.96 0.48,0.85 2.36,-0.1 2.43,-1.7 2.16,1.86 1.99,0.12 0.54,1.52 1.68,-1.41 h 2.03 l 1.38,2.39 3.17,-1.7 1.5,0.58 2.65,-0.81 0.97,0.02 v 1.61 l 6.89,-4.13 0.37,3.68 1.65,0.98 0.52,-0.77 0.37,0.86 4.87,0.05 0.03,0.75 3.21,0.64 -2.98,-5.51 1.48,-1.85 1.39,1 2.68,-2.72 0.63,1.81 1.79,-0.2 1.93,4.37 1.8,-0.59 0.66,1.95 2.7,-0.56 -0.15,0.77 2.72,1.69 2.13,-0.51 3.05,1.87 0.4,-3.37 1.08,0.05 -0.32,1.91 2.79,1.29 -0.22,1.4 -2.89,3.05 -1.12,-0.39 -1.66,5.55 3.08,0.13 0.39,2.19 1.55,0.14 0.98,1.39 1.04,-0.38 0.34,1.36 2.38,-3.17 1.86,-0.52 4.52,-0.26 5.67,1.54 4.23,-0.32 v 0 l 0.99,0.4 -0.44,1.45 -0.75,-0.05 0.83,1.32 -1.81,1.4 0.1,2.53 -3.82,0.8 1.66,2.29 -0.44,1.78 1.89,1.56 -1.41,1.08 1.58,0.11 -0.08,1.58 1.49,1.24 -1.68,0.92 -0.36,3.41 -1.34,-0.48 -1.06,0.96 -0.48,-3.16 -2.49,2.77 -1.75,-1.32 -1.64,1.35 -0.13,1.69 -1.5,0.02 -3.82,5.93 1.05,1.91 -0.32,1.72 1.83,1.77 -0.96,2.87 1.49,0.92 -2.42,2.53 -2.59,0.4 -2.81,3.33 2.57,10.43 -6.69,-3.48 -1.65,-1.92 -2.14,0.28 -1.18,-1.06 -3.01,0.41 -6.95,-1.68 -3.65,-2.79 -3.73,-0.83 -0.94,-0.67 0.69,-2.09 -1.21,-1.32 -3.38,-0.07 -1.59,-1.33 -0.91,1.48 -2.05,0.43 -0.66,-1.22 0.9,-1.89 -2.34,-2.32 -1.66,-0.05 -4.06,3.07 -0.53,4.04 -2.28,1.75 -3.09,0.15 -0.74,1.51 -0.8,-0.06 -0.93,2.32 -1.81,-0.28 1.34,-2.28 -3.38,-2.02 -0.49,3.13 -1.97,0.32 -1.14,-0.81 -0.1,0.86 -2.15,0.18 -0.42,0.81 0.82,0.65 -2.6,0.37 -3.51,4.58 -0.03,3.37 -2.29,-1.29 -0.36,-3.87 -2.07,1.79 -0.48,2.91 -5.62,-2.16 -2.88,-8.98 v 0 l 1.66,-2.83 -3.56,-0.32 0.41,-0.79 1.25,0.51 2.89,-5.34 -5.32,-4.46 5.96,-7.67 -0.44,-2.27 -1.06,-0.11 0.02,-1.77 -1.74,1.08 -0.03,-1.81 -1.99,-2.77 0.34,-1.19 2.19,-0.21 1.71,-1.42 -1.11,-3.2 1.26,-0.42 0.05,-2.08 -1.94,-0.93 -3.53,1.67 -0.22,-1.99 -2.02,-2.06 1.33,-2.19 -1.54,-4.43 2.17,-2.04 -1.63,-2.46 -2.18,-0.11 -2.4,-1.64 2.02,-0.75 0.57,-2.37 1.71,-1.55 -0.32,-3.26 -1.56,-1.29 1.06,-2.17 2.24,1 2.19,-1.23 2.89,0.49 0.11,-1.78 1.19,-1 1.37,0.79 z"
     class="land"
     title="Võrumaa"
     id="EE-86" />
  <path
     d="m 212.04881,278.23949 1.91,0.56 -1.32,6.41 -1.59,2.74 -1.93,0.66 -1.69,-3.78 0.9,-5.78 z m 13.09,-12.51 -1.4,3.02 -2.14,0.61 0.42,-1.74 1.03,0.25 2.7,-3.94 z m -0.74,-86.1 5.23,4.5 4.5,-1.57 14.24,5.1 2.91,-3.02 4.12,-1.62 1.31,-1.64 0.91,-4.54 3.72,-2.14 1.74,-2.17 3.93,3.03 -1.59,1.59 0.44,1.61 2.71,-0.4 5.87,-3.21 2.42,-4.75 2.41,1.13 1.53,-0.6 4.17,2.76 2.44,-0.8 0.67,0.84 1.58,-0.4 1.47,-2.25 2.73,-1.73 5.25,4.26 -0.96,7.99 1.32,4.81 0.83,0.29 1.36,-0.64 0.73,-3.39 3.59,-4.92 1.34,0.29 1.62,-1.19 0.9,1.24 1.72,-0.46 1.83,-2.65 -0.52,-0.68 8.53,1.84 4.61,-1.13 v 0 l 5.36,0.84 4.59,2.54 -4.56,13.28 -1.12,0.91 v 0 l -3.07,1.6 -0.31,2.33 1.33,-0.33 0.57,5.51 1.38,1.06 -5.57,1.16 0.36,1.45 -1.6,1.05 0.05,3.03 -1.4,1.05 -1.17,-1.14 -2.41,2.83 -3.91,0.67 -0.88,1.94 -3.56,0.51 -0.4,2.61 -1.85,1.05 0.53,8.91 -1.74,2.33 -1.25,-0.65 0.28,4.99 -1.48,9.81 0.83,3.74 5.61,-1.25 4.61,1.62 0.69,-0.78 0.56,2.33 3.14,-1.5 1.6,0.97 2.35,5.25 8.2,1.35 0.83,4.32 -2.87,1.62 1.37,3.78 -0.04,3.51 -1.39,0.79 -0.02,1.35 -1.77,-2.37 -2.13,2.1 -2.68,-0.52 -1.78,1.13 -0.06,1.01 h 1.36 l -0.34,1.83 -1.67,0.61 0.77,3.11 -1.23,1.19 -0.63,-3.59 -0.74,-1.26 -0.75,0.72 0.72,2.68 -0.55,1.02 -1.28,-0.22 -0.06,1.58 2.85,2.14 -0.62,3.03 -0.4,-1.18 -1.02,-0.02 -0.47,1.18 -0.97,-1.24 -3.9,-0.05 -0.25,1.69 0.93,1.35 -3.84,2.15 -0.97,3.32 1.43,0.77 0.48,3.76 1.05,1.29 v 0 l -3.44,4.6 -5.34,0.38 -9.83,6.51 -1.66,0.45 -2.12,-3.11 -6.26,1.39 -0.09,3.16 -2.68,0.61 -2.07,2.54 -1.72,-2.12 -2.35,0.21 -2.5,3.13 -3.59,-3.5 -4.04,2.93 -1.86,-0.16 -1.17,2.77 -4.57,1.09 -1.52,2.59 1.35,0.78 -0.67,1.55 0.65,3.14 -4.45,2.46 -0.69,-1.09 -4.74,-0.46 0.39,-3.56 2.54,-5.08 0.17,-4.89 1.53,-4.96 1.57,-3.79 2.22,-1.73 3.4,-11.33 v -3.39 l -1.38,-1.99 1.15,-2.81 -0.31,-2.35 0.8,-0.2 -1.05,-1.96 0.65,-1.15 -1.22,-4.45 -1.28,0.23 1.87,-6.11 -0.89,-0.99 1.52,-1.58 0.37,-2.63 -1.47,-1.75 8.03,-5.6 2.4,-2.77 0.86,-4.9 -0.6,-2.27 -4.5,-6.37 -4.15,-1.26 -1.17,-1.64 -5.82,-0.9 -9.88,1.41 -1.75,2.91 -0.2,6.86 -2.48,7.54 0.66,1.21 -6.96,1.24 -1.45,1.01 -1.06,-1.12 -1.76,3.12 -3.07,2.23 -0.44,2.2 -0.32,-1.96 -3.79,-2.02 -5.89,-12.54 -1.27,0.23 0.29,4.27 -1.2,-2.52 -0.74,-0.49 0.08,1.37 -2.77,-3.95 -1.35,1.05 -2.36,-1.7 -0.87,3 -2.47,-1.51 -3.75,-6.73 -1.53,2.19 0.55,1.57 -1,0.23 -1.68,-1.46 -0.66,0.56 -2.16,-2.35 -0.43,3.88 -1.23,-0.51 -1.33,-2.13 0.53,-2.26 -2.61,-4.44 -3.63,-10.96 1.35,-6.45 -1.02,-1.69 0.99,-1.6 -1.14,-1.81 0.55,-2.88 -0.98,0.47 -0.3,-1.12 -0.69,2.2 -1.29,0.47 0.13,-0.85 -1.12,0.24 -2.56,-3.45 -0.41,0.44 v 0 l 1.72,-2.31 2.38,1.6 1.41,-1.47 2.46,-0.44 1.62,0.16 2.99,2.51 1.11,-1.4 2.05,0.8 0.83,-1.36 2.91,-0.96 0.59,-1.62 3.47,1.27 0.88,-1.05 3.1,0.35 1.57,1.09 -0.04,-2.45 -4.25,-7.23 -0.19,-0.87 1.48,-0.91 -2.24,-4.64 0.65,-0.38 2.21,1.89 -0.21,0.91 5.28,3.08 1.24,-2.97 2.84,-1.42 -1.02,-8.52 1.85,-1.06 1.15,2.02 3.36,0.68 -0.33,-0.82 4.91,-0.8 z"
     class="land"
     title="Pärnumaa"
     id="EE-67" />
  <path
     d="m 398.73881,7.13949 1.11,-0.43 1.26,1.29 -1.11,1.18 1.47,0.02 0.17,1.65 2.34,-1.5 0.31,-1.37 1.51,0.94 1.54,-1.09 -1.02,2.19 1.67,2.08 3.56,1.22 -1.47,0.58 1.09,2.25 16.27,-0.09 5.37,5.52 3.5,-0.24 1.01,1.16 5.91,1.1 -0.18,0.97 3.03,1.16 1.01,2 2.78,2.02 0.46,-0.6 -1.2,-0.88 4.22,-0.65 0.56,0.88 2.33,-0.82 1.65,-3.08 -1.94,-2.13 1.75,0.45 0.8,-0.2 0.88,-0.65 1.81,1.25 2.31,-0.02 1.68,1.83 2.13,0.09 2.35,1.42 0.55,1.83 2.2,-0.65 0.58,1.48 -0.66,0.88 1.61,1.81 v 0 l -0.01,1.85 2.56,5.15 0.69,10.32 -2.16,-0.37 -1.26,-1.66 -2.64,1.23 2.39,4.93 -5.02,4.69 1.22,0.87 1.29,-1.15 1.1,1.49 3.46,-0.5 3.95,2.21 -0.83,1.69 -1.8,-0.46 -0.45,1.75 -0.91,-0.22 -1.11,4.27 -2.14,2.3 0.65,0.85 -0.77,4.25 1.01,-0.06 0.85,4.97 8.08,-4.47 0.65,5.19 -0.68,0.91 7.77,4.07 1.09,2.48 -1.02,2.07 1.81,0.57 0.46,3.03 -1.1,0.06 -0.66,5.16 -1.98,0.09 -1.29,-1.88 -0.41,1.35 -3.51,0.41 -2.71,3.25 -1.12,-0.53 -0.96,15.23 1.29,1.49 -1.99,1.82 0.19,5.43 -1.82,2.5 -4.59,0.81 -2.42,2.15 v 0 l -1.98,-0.86 -11.89,6.25 -2.15,-0.11 0.16,-1.84 -1.19,-0.75 -3.8,0.68 0.19,0.99 -1.73,0.81 0.29,2.02 -1.78,0.31 0.84,3.14 -1.62,1.16 0.16,1.65 -2.53,0.51 -1.16,1.74 -4.37,-0.73 -2.82,-4.57 0.82,-0.51 -0.61,-2.33 -4.1,0.68 -0.69,1.3 -1.64,-0.51 -0.31,2.7 -2.09,0.73 -8.3,0.81 v 0 l -0.57,-1.61 1.56,-4.02 -1.04,-2.29 0.48,-3.25 -1.26,-0.5 -1.34,-3.62 0.48,-2.44 -4.41,-2.59 -0.51,-2.5 -2.53,-0.79 -1.07,-4.79 -1.22,-1.33 -0.97,-0.59 -3.27,0.76 -2.99,-3.02 -1.31,2.03 -1.42,-1.86 -0.9,1.66 -0.88,-1.81 2.11,-2.49 1.02,-6.44 1.38,-1.48 1.6,0.11 1.05,-5.25 2.65,-2.11 -0.9,-4.36 -1.27,-0.35 -1.66,1.31 -1.68,-1.66 -1.92,-0.02 1,-1.42 -0.82,-1.28 1.51,-0.7 0.98,-2.22 -1.93,-1.28 -1.84,0.85 0.48,-5.28 -2.73,-0.3 -0.04,-1.3 1.35,-0.44 -0.35,-1.59 v 0 l 4,-1.26 -1.59,-6.03 -0.28,-7.5 -0.69,-2.88 -4.11,-7.18 1.16,-4.49 -1.44,-1.08 -0.24,-1.51 -3.16,-0.13 -1.48,-11.47 -1.24,-3.12 -1.6,-0.45 -0.31,-2.91 3.39,-1.4 0.9,-1.57 -1.01,-1.53 v 0 l 3.75,-1.74 -0.28,-9.74 1.02,1.61 3.39,-0.17 1.01,3.02 -1.25,1.82 0.55,1.97 3.09,0.71 1.83,-0.84 0.8,-2.66 z"
     class="land"
     title="Lääne-Virumaa"
     id="EE-59" />
  <path
     d="m 122.20881,165.47949 -0.64,2.01 -1.17,-1.74 0.94,-1.46 z m -6.18,-7.11 0.48,1.67 1.53,0.62 -0.12,2.71 -0.48,-2.01 -2.14,-1.92 z m -11.36,-1.91 1.74,1.23 -1.76,1.3 1.23,4.23 -1.63,0.62 0.13,-0.79 h -1.35 l -0.75,0.84 0.48,1.04 -1.78,-0.58 -1.219998,2.27 0.549998,1.21 -1.819998,-0.97 -1.64,-0.33 -0.3,-3.29 0.67,-0.49 1.61,-1.24 0.36,-3.44 1.999998,0.35 1.53,0.11 z m 18.79,-0.36 0.88,1.59 -1.08,2.69 -0.88,-0.99 1.3,-1.12 -1.05,-2.14 z m 5.47,-1.65 1.52,1.65 -1.8,0.79 -1.06,-2.29 0.83,-0.69 z m -11.93,-17.6 3.67,2.42 0.48,2.2 -1.1,1.82 -1.96,-2.26 -0.03,-2.59 z m -38.619998,-28.27 2.5,1.16 3.47,-1.16 3.83,2.82 -1.06,5.01 0.7,4.53 1.52,2.25 2.4,0.63 1.78,-0.86 7.529998,2.7 0.79,-1.65 2.2,1.12 0.96,2.96 1.29,1.01 1.36,-1.34 0.28,1.32 1.28,0.15 2.29,-1.27 -1.14,1.89 2.47,2.79 -1.76,0.46 0.42,2.37 2.91,4.54 2.54,0.31 2.15,3.08 0.68,2.38 -0.57,0.9 2.33,2.44 -0.1,1.45 2.15,3.94 -4.08,2.42 -0.51,-4.08 -2.06,1.83 -1.49,-1.7 -2.44,-0.82 -1.39,1.43 1.31,2.14 -0.36,0.86 -1.9,-0.81 -1.24,-2.71 -0.43,4.54 -1.27,-1.59 -3.82,-1.28 -0.08,1.54 -2.9,0.99 -0.57,-0.77 -2.549998,1.45 -0.08,0.91 -0.85,-1.21 -1.47,0.16 0.2,1.98 -1.45,-1.26 -1,2.19 0.88,0.35 0.4,1.96 -2.78,-2.83 -1.89,5.38 1.45,1 -4.3,8.27 -1.45,5.16 -9.55,1.97 -3.51,-1.37 -0.74,0.53 -4.21,-2.61 0.44,-1.31 -0.74,-0.78 -0.87,-0.97 3.22,-0.24 0.77,-1.28 -2.06,-1.88 -0.27,-1.64 -2.04,-0.2 1.69,-1.39 0.08,-2.78 -3.38,-2.36 1.71,-2.01 -0.43,-1.52 v -0.68 l -0.86,-0.49 0.91,-2.67 -0.36,-2.64 -1.85,-2.29 -0.68,-2.89 -3.06,-3.72 -2.95,-1.3 -3.52,0.77 -0.59,1.56 -1.17,0.31 -2.31,-1.76 -2.35,1.91 -8.26,0.09 -3.09,-2.27 -0.38,-2.33 -7.03,-2.7 -0.77,0.5 -1.37,-1.54 1.11,-1.87 -0.74,-0.6 4.07,-1.1 1.76,1.21 2.61,-0.26 6.82,1.52 3.23,-0.33 3.44,-2.19 2,0.7 1.53,-0.97 5.9,2.96 2.06,-0.33 2.51,-3.64 -0.83,-2.54 1.02,-0.02 1.6,1.95 1.11,-0.35 -0.23,-1.41 0.65,1.05 1.19,-0.35 -2.87,-3.9 -0.1,-1.82 3.03,0.24 1.62,2.37 1.41,-1.05 -1.86,-1.07 1.37,-1.77 -1.29,-0.61 0.01,-1.27 -0.49,-0.92 -0.28,-1.58 1.42,-0.42 4.35,1.75 0.48,-1.6 -0.93,-1.14 3.65,0.37 0.97,-1.01 0.4,-10.19 z"
     class="land"
     title="Hiiumaa"
     id="EE-39" />
  <path
     d="m 159.15881,155.32949 3.16,1.7 -0.22,1.67 -1.36,-0.09 -0.35,0.9 -1.53,-1.43 -0.64,-2.31 z m -23.56,-38.12 5.32,0.9 -0.32,1.25 1.01,0.02 0.82,1.86 1.17,-1.78 0.86,1.1 1.44,-2.47 0.83,1.66 1.6,-1.69 1.74,2.63 1.06,0.18 0.45,2.39 2.23,2.72 -1.18,3.37 -2.46,-1.62 -1.72,0.4 -0.65,1.99 -1.46,-0.77 -0.61,-0.2 -1.44,0.53 0.28,2.46 2.05,0.66 -2.37,-0.11 -2.92,-3.45 -3.55,-1.58 0.21,3.9 -3.04,-1.82 0.19,2.5 -1.41,-0.04 -1.02,-0.07 -1.4,-2.89 1.8,-0.28 0.02,-1.21 -1.24,-0.33 -1.51,-3.03 -1.26,-0.4 -1.16,-3.9 1.24,-2.76 1.6,0.48 1.79,-2.25 z m 44.17,-38.32 1.17,2.28 2.07,1.24 3.33,-1.56 v 0 l 0.15,5.72 h 4.72 l 0.07,5.94 4.72,-0.15 1.03,2.96 2.13,-0.28 4.27,5.8 0.44,-1.13 2.08,0.11 1.21,-1.03 8.2,0.76 8.01,3.86 0.22,1.46 -1.72,1.51 0.79,1.72 -0.83,0.3 5.77,6.32 -7.45,7.37 0.58,4.51 v 0 l -2.17,3.77 1.35,4.23 2.42,3.78 2.31,1.1 -0.67,4.81 2.23,0.4 -0.75,2.2 1.52,1.05 -0.52,1.58 1.99,1.32 -0.5,1.47 1.22,-0.55 0.98,1.67 -0.56,2.33 -4.17,-0.66 -0.67,0.6 0.48,1.39 -1.38,3.11 1.6,2.09 2.06,0.06 0.13,1.04 -2.77,0.57 -3.42,3.93 -2.07,0.37 -0.28,1.75 1.3,1.22 2.23,-0.69 1.23,1.72 2.37,-2.47 0.89,1.26 0.74,1.79 -3.43,6.83 v 0 l -3.75,3.68 -4.91,0.8 0.33,0.82 -3.36,-0.67 -1.15,-2.02 -1.85,1.06 1.02,8.52 -2.84,1.42 -1.24,2.97 -5.28,-3.07 0.21,-0.91 -2.21,-1.89 -0.65,0.38 2.24,4.64 -1.48,0.91 0.19,0.87 4.25,7.23 0.04,2.45 -1.57,-1.09 -3.1,-0.34 -0.88,1.05 -3.47,-1.27 -0.59,1.62 -2.91,0.96 -0.83,1.36 -2.05,-0.8 -1.11,1.4 -2.99,-2.5 -1.62,-0.16 -2.46,0.44 -1.41,1.47 -2.38,-1.6 -1.72,2.31 v 0 l -1.36,-0.49 0.73,-1.27 -1.2,-0.73 -1.38,0.84 0.65,-2.49 -1.48,-1.13 1.72,-3.18 -1.9,0.02 -0.65,-2.38 -1.11,0.4 1.37,1.91 -1.22,2.38 1.16,0.67 -0.63,2.16 -0.85,0.49 0.02,-2.29 -1.67,-0.4 -1.64,1.02 -0.98,-1.91 1.99,-0.85 0.68,-3.47 1.15,0.04 -0.28,-0.84 -1.23,0.18 0.43,-3.02 -2.62,-7.39 0.65,-3.31 -0.97,-0.49 0.51,-1.22 -0.71,-1.19 -0.84,-0.15 2.71,-0.67 -0.17,-2.73 1.73,1.37 3.63,-0.8 0.79,-1 -4.65,-2.41 0.64,-1.7 -1.1,-0.95 1.79,-0.27 3.81,2.34 1.5,-0.13 4.01,-1.48 1.73,0.77 0.61,-0.58 -1.2,-0.2 0.41,-1.84 1.02,0.55 0.59,-0.99 1.28,0.62 0.68,-0.73 3.56,2.08 0.74,-0.73 1.31,1.06 -0.37,1.04 0.9,0.71 2.03,0.93 1.68,-1.77 1.32,0.6 0.5,-3.76 -1.47,-0.15 0.42,-1.02 -2.69,-0.33 -1.23,-3.47 1.13,-1.72 -2.37,1.26 -2.44,-2.36 -3.73,2.65 -6.34,-2.05 -3.58,0.99 -2.69,2.16 -3.77,-1.33 -6.85,2.21 1.68,-2.5 -0.77,-2.27 1.98,0.33 -0.59,-0.44 0.63,-1.41 0.74,0.44 0.84,-0.88 -1.03,-1.1 0.14,-2.64 1.05,1.12 -0.63,0.04 0.41,1.32 2.04,1.15 2.2,-2.12 -1.04,-0.77 -0.17,-3.33 -1.87,-2.12 -2.8,-4.71 -3.08,-2.66 0.15,-0.7 0.85,0.77 0.09,-2.71 -1.37,0.57 -1.36,-0.64 0.8,-3.76 -0.64,-3.41 1.43,0.7 1.24,-1.06 1.91,2.09 3.41,-2.09 1.82,0.55 -1.27,-4.08 3.53,3.25 2.19,-1.41 1.35,0.39 1.56,-1.89 -0.61,-1.65 0.35,-1.03 1,0.94 1.14,-0.73 2.83,2.43 0.75,-4.01 -1.94,-1.42 0.67,-0.75 -2.74,-1.51 -1.36,0.06 -0.84,0.15 -1.37,0.17 -0.07,-1.05 -1.13,0.33 -0.27,4.6 0.73,0.63 -0.66,1.45 -1.66,-0.68 0.02,0.97 -4.32,-2.79 -3.31,0.88 -4.61,-4.56 -1.75,-4.38 0.67,-0.48 2.89,1.71 0.72,-1.64 -0.71,-1.29 1.02,-0.86 -2.29,-0.31 0.64,-6.47 4.18,0.77 2.76,-4.17 3.1,0.77 -1.54,-5.26 0.65,-2.22 -1.15,-0.96 -0.79,-5.43 -1.86,-1.46 -0.62,-2.92 0.5,-3.59 1.92,-0.98 0.07,-2.44 2.6,2.2 3.73,-0.07 z m -28.36,-10.38 3.13,1 1.96,1.84 1.1,1.78 -1.53,0.02 -1.18,-1.13 -2.14,-0.3 z"
     class="land"
     title="Läänemaa"
     id="EE-57" />
  <path
     d="m 408.58881,283.77949 1.86,0.92 2,-0.7 0.57,1.54 0.59,-1.27 2.08,-0.56 0.45,1.2 11.57,0.85 1.28,-4.18 4.19,0.86 3.7,-7.22 2.35,1.17 1.06,-0.6 0.92,4.64 1.14,-0.54 1.01,0.75 2.49,-1.92 1.78,-0.21 0.95,-1.69 6.17,0.11 1.06,0.93 0.04,2.1 3.1,1.11 0.02,2.43 1.79,-0.25 0.23,1 v 0 l -1.47,0.48 -1.32,5.67 -2.27,3.6 0.28,2.53 1.19,-0.54 -0.42,2.85 0.99,0.41 -0.14,2.95 -2.1,3.13 1.8,2.72 -1.89,5.73 v 0 l -5.18,1.13 -1.37,-0.79 -1.19,1 -0.11,1.78 -2.89,-0.49 -2.19,1.23 -2.24,-1 -1.06,2.17 1.56,1.29 0.32,3.26 -1.71,1.55 -0.57,2.37 -2.02,0.75 2.4,1.64 2.18,0.11 1.63,2.46 -2.17,2.04 1.54,4.43 -1.33,2.19 2.02,2.06 0.22,1.99 3.53,-1.67 1.94,0.93 -0.05,2.08 -1.26,0.42 1.11,3.2 -1.71,1.42 -2.19,0.21 -0.34,1.19 1.99,2.77 0.03,1.81 1.74,-1.08 -0.02,1.77 1.06,0.11 0.44,2.27 -5.96,7.67 5.32,4.46 -2.89,5.34 -1.25,-0.51 -0.41,0.79 3.56,0.32 -1.66,2.83 v 0 l -4.7,0.69 -7.05,-2.09 -1.8,0.81 -1.49,-2.47 -2.17,0.19 -1.23,-1.13 -2.71,-3.64 0.23,-3.24 -1.37,-1.87 0.8,-0.45 -0.19,-1.4 -2.37,-1.24 -0.29,-2.49 -2.95,-1.37 1.83,-4.64 -0.66,-1.1 -4.71,-2.11 -0.87,-3.18 -5.39,-2.81 -2.06,0.71 -1.84,-1.58 -1.64,0.66 0.21,-3.66 2.84,-7.54 0.32,-3.31 -3.13,0.18 -2.09,-2.34 -3.67,2.6 -2.86,-1.3 -4.24,0.82 -1.08,-3.2 -1.52,1.53 -3.94,-1.05 -3.83,-8.57 -3.9,-1.97 -2.99,3.36 -2.19,-0.07 -0.29,-1.39 -3.03,-0.68 -1.54,-2.91 -4.47,-2.09 0.95,-2.57 v 0 l 3.48,-7.13 -2.18,-5.27 0.78,-1.01 h 5.73 l 1.39,1.56 5.8,-6.98 -1,-1.26 3.15,0.22 1.59,-1.59 0.73,0.48 0.46,-1.58 1.48,0.27 -0.09,-1.16 1.99,-0.76 -0.24,-1.13 1.56,0.04 -0.52,-3.43 -1.13,2.19 -0.54,-0.73 -0.11,-1.72 3.13,-1.53 -1.43,-3.27 2.13,-0.01 2.97,1.95 1.74,3.18 0.42,3.37 3.68,0.16 1.44,-0.9 0.06,-1.07 3.68,-0.93 0.75,-1.49 z"
     class="land"
     title="Valgamaa"
     id="EE-82" />
  <path
     d="m 416.69881,144.79949 8.3,-0.81 2.08,-0.74 0.32,-2.69 1.64,0.51 0.69,-1.3 4.1,-0.68 0.61,2.33 -0.82,0.51 2.82,4.57 4.37,0.73 1.16,-1.74 2.53,-0.51 -0.16,-1.65 1.62,-1.16 -0.83,-3.14 1.78,-0.31 -0.29,-2.02 1.73,-0.81 -0.19,-0.99 3.79,-0.68 1.19,0.76 -0.16,1.83 2.15,0.11 11.9,-6.24 1.98,0.86 v 0 l 0.29,1.6 2.57,1.82 -0.9,2.17 1.39,1.04 -0.54,3.73 1.81,4.62 7.33,-1.3 0.54,-1.71 5.36,0.83 2.38,1.67 1.12,2.58 1.53,0.62 23.24,0.11 13.1,1.76 11.41,4.23 v 0 l -8.49,8.22 2.53,11.87 v 0 l -29.34,9.36 0.6,1.4 -0.95,2.15 -1.58,-0.86 -1.64,1.97 -3.97,0.98 0.12,1.2 1.42,-0.34 0.6,1.13 -0.69,1.36 1.45,2.93 -0.15,2.25 -2.21,-0.5 -0.1,-1.48 -1.87,-1.94 -0.41,1.52 -1.27,-0.89 -0.68,0.88 -2.93,-2.73 -6.49,-2.02 -1.05,10.33 -2.42,0.16 0.42,1.53 -2.09,0.29 -1.13,1.43 -2.14,-0.63 -1.64,1.25 -1.54,-1 -0.18,1.64 -2.55,1.36 -4.87,-4.69 0.65,1.29 -2.25,3.22 -0.12,1.96 0.89,1.01 -3.92,2.18 -4.36,-3.74 -1.54,1.51 -2.54,-1.25 2.07,-2.16 -4.29,0.49 -1.17,1.03 1.1,0.69 -0.72,0.94 -2.84,-1.54 -3.5,0.15 -1.5,1.18 -1.09,2.99 0.54,1.13 -1.64,-0.95 -0.41,-2.68 -3.49,-1.31 -0.82,1.65 -2.47,0.75 -8.23,6.16 -1.7,-1.03 -1.6,1.18 -2,-2.09 -0.97,2.99 -0.95,0.33 0.09,1.58 v 0 l -5.11,-5.48 -1.13,0.91 -5.21,-4.48 -0.44,-6.3 -2.27,1.67 -1.79,-1.71 -0.97,0.22 0.02,-1.83 -1.16,-0.64 0.92,-1.47 -0.8,-2.24 -6.7,-2.85 -5.17,1.09 -6.94,-1.13 -0.77,-1.42 1.85,-1.53 1.62,-0.03 1.01,-1.75 -0.54,-3.59 -2.15,-0.38 1.41,-2.68 -0.35,-4.28 v 0 l 1.46,-4.43 1.07,0.25 0.19,-1.15 2.83,-1.89 -0.72,-3.62 3.13,0.22 1.71,-1.9 -0.25,-2.26 1.53,-0.21 2.28,1.56 0.86,2.41 3.77,-2.71 0.13,-3.25 -1.36,-4.42 1.68,-1.63 3.13,0.47 0.94,-3.09 1.15,0.62 1.98,-1.08 7.89,-0.99 -0.55,-3.7 -0.95,-0.73 2.48,-3.9 1.32,0.64 z"
     class="land"
     title=" Jõgevamaa"
     id="EE-49" />
  <path
     d="m 220.71881,126.59949 1.26,-0.32 -0.24,-1.32 2.04,-1.03 2.69,-4.38 1.61,1.21 2.8,-2.43 2.37,3.13 4.34,-1.34 1,2.26 1.55,0.68 -0.39,-2.72 1.93,-0.77 -0.75,-2.07 1.89,-2.85 0.72,0.55 1.43,-1.01 0.31,0.75 1.74,-0.95 -0.81,-2.92 -1.61,0.19 1.19,-1 -0.27,-2.65 2.18,1.16 0.35,-0.83 6.16,-0.17 4.55,-1.68 7.32,1.22 0.01,-5.46 -1.37,0.11 -1.59,-2.35 3.48,-1.16 -1.84,-2.44 1.04,-6.71 2.73,0.54 4.72,-5.7 2.83,0.4 1.27,-0.7 2.34,1.74 1.01,-2.04 1.83,2.41 1.77,0.13 1.32,2.2 1.06,0.11 0.51,-4.75 3.75,0.07 3.2,-1.11 2.69,0.66 1.53,-0.62 -0.71,7.01 0.16,1.33 1.72,-0.37 0.09,5.31 3.54,1.96 2.24,-0.43 1.26,1.43 1.15,-0.71 4.59,7.26 4.19,1.53 3.29,-0.61 0.74,1.42 1.07,-0.44 4.23,1.77 -1.76,2.64 2.01,3.22 -1.14,0.61 0.79,2.39 3.12,0.56 -0.8,1.1 4.3,0.74 -0.55,1.36 2.77,1.58 0.05,1.79 3.75,0.53 v 0 l -4.38,3.11 2.36,3.62 -0.87,6.65 -4.3,2.57 -2.03,4.36 1.44,2.33 1.24,-0.06 1.3,1.71 -2.45,4.82 0.71,1.06 -2.13,1.57 -1.43,3.02 -1.99,-0.64 -0.61,1.3 3.45,6.2 -1.57,0.89 -1.23,6.89 v 0 l -4.61,1.13 -8.53,-1.84 0.52,0.67 -1.83,2.65 -1.72,0.45 -0.9,-1.24 -1.63,1.19 -1.33,-0.29 -3.59,4.92 -0.73,3.39 -1.36,0.64 -0.83,-0.3 -1.31,-4.81 0.95,-7.99 -5.25,-4.25 -2.73,1.73 -1.47,2.25 -1.58,0.4 -0.66,-0.84 -2.44,0.8 -4.17,-2.75 -1.53,0.6 -2.41,-1.13 -2.42,4.74 -5.86,3.22 -2.71,0.4 -0.43,-1.61 1.59,-1.59 -3.93,-3.03 -1.74,2.18 -3.72,2.13 -0.91,4.54 -1.31,1.64 -4.12,1.63 -2.91,3.02 -14.24,-5.1 -4.5,1.57 -5.23,-4.51 v 0 l 3.43,-6.82 -0.74,-1.79 -0.9,-1.26 -2.37,2.46 -1.23,-1.71 -2.23,0.69 -1.3,-1.22 0.28,-1.76 2.07,-0.36 3.42,-3.93 2.77,-0.57 -0.13,-1.04 -2.06,-0.06 -1.6,-2.08 1.38,-3.11 -0.49,-1.39 0.68,-0.61 4.17,0.66 0.56,-2.32 -0.98,-1.67 -1.22,0.55 0.51,-1.46 -2,-1.32 0.52,-1.58 -1.51,-1.04 0.75,-2.21 -2.24,-0.4 0.68,-4.81 -2.31,-1.1 -2.42,-3.78 -1.35,-4.23 z"
     class="land"
     title="Raplamaa"
     id="EE-70" />
  <path
     d="m 139.17881,337.74949 3.47,2.94 0.17,4.76 -2.26,-0.41 -1.86,-1.79 -1.32,0.84 -0.27,-3.84 1.08,-0.84 -0.63,-0.41 0.52,-1.31 0.87,-0.62 z m -69.279998,-63.63 0.95,1.19 1.06,0.66 0.3,0.94 -0.46,1.51 1.28,1.19 -3.14,4.68 -1.15,-3.79 -1.4,0.65 z m 6.66,-6.05 2.51,1.35 -0.79,1.74 -0.13,-0.88 -1.36,0.34 0.39,-1.49 -1.27,0.02 z m -73.7800001,-21.95 1.56,0.78 -2.47,0.45 -0.1,-1.06 -1.34999999,-0.11 0.73999999,-1.25 z m 10.8300001,-10.4 0.67,1.77 -2.33,0.72 -0.71,-0.9 -1.9200001,1.99 -2.31,-0.43 -1.14,0.69 -2.18,-2.33 3.93,-1.79 3.3200001,1.48 -0.64,-1.9 1.43,1.08 1.52,-1.16 z m 138.969998,-24.47 1.43,2.72 -3.53,0.25 1.08,-2.97 z m -11.41,-2.12 1.32,0.07 0.45,1.03 -1.33,2.29 -0.98,-1.31 z m 17.24,-1.89 0.78,0.89 -2.24,0.93 0.37,-1.6 z m -0.44,-16.31 0.63,-0.22 0.47,1.42 -1.06,1.2 -1.76,-1.2 z m -84.779998,1.42 1.95,-1.51 1.4,0.69 5.46,9.68 4.39,0.58 1.61,-4.09 2.43,1.56 -0.08,2.29 3.09,1.22 2.18,-7.34 2.11,-2.13 4.599998,1.82 3.04,-1.82 2.24,1.78 h 5.4 l 0.13,1.35 5.69,2.96 1.32,3.18 0.91,-0.73 1.98,1.15 0.68,1.73 1.68,-0.2 0.07,0.93 4.39,0.91 0.12,1.13 -0.83,0.29 0.06,1.16 -0.01,1.16 1.03,2.45 1.79,1.05 -0.62,0.84 3.28,-0.87 3.84,2.99 4.03,1.05 1.6,2.38 1.3,0.05 -0.18,1.63 0.8,0.18 -0.66,1.7 1.95,-0.13 0.85,0.98 -0.43,1.29 -1.16,0.09 -0.18,3.66 -1.33,-2.1 0.22,-1.76 -1.9,-0.78 0.35,-1.33 -0.04,-2.57 -1.18,-0.6 0.07,4.26 -1.06,0.6 0.31,-1.19 -3.87,0.04 1.83,2.84 1.52,-0.38 -0.99,1.36 1.42,0.13 -1.23,1.72 -2.48,-1.16 -0.83,-0.31 -0.19,-2.21 -1.08,1.18 0.4,-1.99 -0.93,-1.19 -0.27,-1.19 2.24,-0.45 0.22,-0.81 -2.67,-0.29 -1.28,-0.09 -0.59,1.61 -1.05,-0.04 0.71,-1.07 -0.77,-1.38 -1.47,3.24 1.11,3.01 -1.88,0.29 0.81,1.67 -0.99,0.56 -0.52,1.61 -1.52,1.09 -0.9,-0.81 0.41,-1.43 -2.76,-0.16 -0.53,2.55 0.62,3.15 0.75,0.16 0.36,2.78 -2.05,-0.92 -1.34,1.1 -0.68,-1.52 2.38,-0.52 -0.75,-0.94 -1.7,0.56 -1.05,2.1 0.86,0.58 -0.2,1.26 -0.96,0.63 0.84,1.41 -1.91,-0.32 -1.3,0.13 -1.99,-1.05 -1.78,-3.69 -1.21,0.29 -0.83,3.32 1.93,0.76 0.41,2.08 -2.05,0.22 0.1,2.22 -0.02,0.58 -0.76,1.16 -0.58,-0.36 0.33,1.82 -1.61,0.43 0.43,2.52 -3.33,0.58 -0.92,-0.45 -0.05,-1.41 -0.08,-1.21 -0.65,0.67 -1.3,-0.59 -0.32,1.88 0.93,0.81 -3.1,1.41 -0.33,4.34 -0.939998,1.46 -1.21,-1.8 -4.55,-0.09 -2.3,-1.71 -2.84,0.99 -0.36,2.18 3.62,3.87 0.77,2.25 0.15,1.33 -1.6,1.33 -1.97,0.72 -2.98,-1.33 -1.91,-3.18 -1.4,3.31 -0.87,-3.6 0.54,-0.92 0.99,0.61 -0.64,-1.04 1.03,-0.43 -0.84,-1.08 -1.25,0.59 -1.08,-0.34 -0.9,0.88 0.3,2.52 -1.68,1.84 -0.8,-0.04 -0.36,-2.37 -2.86,2.99 -0.77,-0.25 -0.4,-6.12 -1.42,0.49 -1.96,6.89 -0.41,-1.15 -1.16,-0.02 0.48,-2.09 -1.08,-1.58 -1.02,0.51 0.16,-1.33 -0.73,-0.02 -1.35,0.86 -0.68,2.97 -1.91,1.3 -2.39,-0.13 -0.54,0.79 -1.4,-1.38 -2.57,0.27 -4.59,2.34 -3.37,3.06 -1.29,2.57 -0.37,4.53 1.23,3.39 -1.12,1.13 -0.51,6.35 -2.5,2.8 0.54,3.65 -4.16,7.52 1.82,5.31 -2.39,2.41 -2.45,0.28 -2.14,2.07 -3.27,4.39 -1.65,0.61 -2.77,4.55 0.65,-2.5 -1.16,-0.2 -1.14,1.19 -1.08,-1.19 -1.72,-2.91 0.28,-1.94 -2.06,-1.73 -0.55,-4.41 1.68,-0.89 0.6,1.2 1.63,-1 0.14,-3.73 2.13,-0.79 -0.48,-3.02 1.86,-0.91 -0.48,-1.24 1.33,-1.27 0.55,-4.74 1.7,-1.97 1.49,-0.34 -0.2,-1.07 2.63,1.08 0.39,2.6 2.88,0.32 0.27,-5.48 2.67,-5.77 2.67,-1.9 -1.36,-3.46 -5.26,0.66 -1.01,-1.15 0.06,-1.85 -2.33,-0.7 -0.69,0.94 -0.32,-0.93 -0.98,0.16 0.1,-1.15 -2.16,-0.88 0.36,1.76 -1.6,-0.05 -0.89,-3.4 -1.32,-1.44 0.18,-1.2 0.57,-0.48 -2.15,-2.75 -0.44,-2.25 -2.56,-1.91 -0.71,0.43 0.69,2 -3.71,-0.09 -1.34,-1.44 -4.78,-1.01 v -1.33 l -1.45,-0.2 -0.9500001,-0.38 -1.56,-1.98 0.14,-1.17 -1.77,-0.2 1.16,-1.87 -1.57,-1.28 0.64,-2.13 1.15,-0.4 4.6000001,2.89 -0.3,-1.12 1.52,-0.88 -3.6400001,-5.5 0.01,-0.97 1.3100001,0.09 3.47,2.36 0.62,2.83 1.72,1.08 0.4,-0.72 0.59,-0.63 0.27,-1.03 -2.5,-5.4 0.45,-0.99 2.27,2 0.38,-0.81 2.08,2.49 1.24,-1.41 -0.38,-1.25 -1.5,-1.77 0.01,-1.68 1.28,0.27 3.02,0.89 -1.44,-2.11 -1.42,-0.47 0.19,-1.3 -0.94,-0.9 0.43,-0.58 -0.23,-0.85 -0.88,-0.49 -0.82,0.81 -0.46,-1.19 -1.32,-0.31 -0.08,-2.26 -1.18,-0.63 0.87,-1.1 -3.66,-4.38 -0.6,-3.37 -2.45,-0.81 -1.2000001,1.36 -2.29,-2.12 -0.22,-3.73 3.5600001,3.5 1.6,0.16 2.93,-2.05 -1.4,-2.66 0.75,-2.39 4.5,2.07 2.7,-0.62 1.54,0.62 3.78,7 2.7,8.64 2.74,0.45 1.09,-1.32 -0.63,-1.79 0.63,-8.44 1.82,-3.04 0.82,-0.49 1.38,1.2 0.27,-2.34 3.64,-1.34 0.14,-5.82 1.51,0.04 1.69,2 0.98,8.47 3.97,0.51 2.45,-6.31 -1.11,-3.54 -1.42,-0.05 -0.11,-5.5 2.58,0.98 4.57,-2.25 2.61,0.78 8.08,-1.47 5.56,-6.44 z m 45.769998,-2.93 1.21,0.13 1.1,3.62 -3.42,-0.93 z m 16.58,-6.85 15.01,7.03 0.88,3.02 -1.76,1.86 0.13,1.8 4.33,6.33 1.42,4.2 -0.66,2.12 -3.21,2.09 -0.14,-1.03 -2.53,-0.4 -1.31,-3.58 -1.77,4.18 0.01,-2.6 -1.09,1.94 -1.53,-2.41 -1.59,-0.02 -2.52,5.01 -0.22,-1.11 -1.25,0.29 -0.01,-2.72 -0.64,0.69 0.22,-1.22 -0.8,0.38 -0.57,-1.38 -0.55,0.89 -1.17,-1.29 -0.6,-1.43 1.15,0.38 -0.28,-1.34 -0.65,0.38 -2.35,-3.05 -2.35,1.05 -4.01,-2.2 -1.58,-2.16 0.78,-2.91 -0.95,-1.04 1.25,0.11 1.72,-1.47 3.65,1.09 0.92,-1.36 -1.03,-4.57 0.53,-3.52 1.19,-1.35 1.06,0.69 z"
     class="land"
     title="Saaremaa"
     id="EE-74" />
  <path
     d="m 203.70881,60.46949 1.83,1.84 -1.94,-0.26 3.09,3.16 0.56,2.32 -1.33,1.52 -1.6,-0.65 -5.5,-7.91 3.84,-0.71 z m 8.05,-0.15 1.05,6.11 -3.5,-0.11 -0.87,-3.44 -1.67,-2.12 -1.43,-0.2 2.45,-2.9 z m 114.74,-42.76 2.03,-0.49 1.5,3.22 -1.43,-1.48 -1.39,0.24 z m -42.23,0.97 -1.44,-0.17 -0.78,-1.31 0.17,-1.05 2.15,-0.9 0.98,1.24 z m -23.75,-6.4 2.35,4.44 2.23,8.23 -3.7,-0.22 -2.54,-1.98 -1.6,-3.5 z m 43.8,-7.78 4.42,2.51 2.09,3.58 -0.93,1.44 -2.87,-1.91 -1.66,1.78 -0.65,-1.74 1.79,-0.99 0.35,-1.27 -2.83,-2.23 z m 68.93,-3.87 1.12,-0.17 -0.5,1.43 1.06,1.78 1.17,-1.41 2.52,2.27 1.11,1.35 -0.84,0.84 0.36,1.56 2.23,1.33 -1.42,1.97 1.01,2.51 -0.43,4.42 5.08,1.63 v 0 l 1.01,1.53 -0.9,1.57 -3.39,1.4 0.31,2.92 1.6,0.45 1.24,3.12 1.48,11.47 3.16,0.13 0.24,1.51 1.44,1.08 -1.16,4.49 4.11,7.18 0.69,2.88 0.28,7.51 1.6,6.03 -4,1.26 v 0 l -2.75,-3.21 -9.86,-1.56 -3.03,2.6 -4.22,-0.28 -1.96,1.82 -2.66,0.04 0.02,2.76 -1.39,0.87 -5.47,-3.52 -4.58,2.19 -2.82,-1.2 -3.21,0.07 3.32,4.04 2.29,6.08 -2.38,6.24 -5.29,6.88 0.95,1.98 -1.49,3.51 4.12,2.45 -2.7,5.79 -2.35,-3.63 -1.47,-0.57 -2.79,2.49 2.05,3.24 -0.9,6.89 -2.52,2.84 -1.6,-1.29 -1.04,0.37 -1.24,3.24 v 0 l -3.75,-0.53 -0.05,-1.78 -2.77,-1.58 0.55,-1.36 -4.3,-0.74 0.81,-1.1 -3.12,-0.55 -0.79,-2.39 1.14,-0.61 -2.01,-3.23 1.76,-2.64 -4.22,-1.77 -1.07,0.44 -0.74,-1.42 -3.29,0.61 -4.19,-1.53 -4.59,-7.26 -1.15,0.7 -1.25,-1.42 -2.25,0.43 -3.53,-1.96 -0.09,-5.31 -1.72,0.37 -0.16,-1.33 0.71,-7.02 -1.53,0.63 -2.7,-0.67 -3.2,1.11 -3.75,-0.07 -0.51,4.76 -1.05,-0.11 -1.32,-2.2 -1.77,-0.13 -1.83,-2.41 -1.01,2.04 -2.33,-1.74 -1.27,0.7 -2.84,-0.41 -4.72,5.7 -2.72,-0.54 -1.04,6.71 1.84,2.44 -3.48,1.16 1.6,2.35 1.37,-0.11 -0.01,5.46 -7.32,-1.22 -4.56,1.68 -6.15,0.17 -0.35,0.83 -2.18,-1.16 0.27,2.66 -1.19,1 1.61,-0.18 0.81,2.91 -1.74,0.96 -0.31,-0.76 -1.43,1.01 -0.71,-0.55 -1.9,2.86 0.75,2.06 -1.93,0.77 0.39,2.72 -1.59,-0.72 -1,-2.26 -4.35,1.34 -2.36,-3.13 -2.8,2.43 -1.61,-1.22 -2.69,4.38 -2.04,1.03 0.24,1.33 -1.26,0.31 v 0 l -0.58,-4.51 7.45,-7.37 -5.77,-6.32 0.83,-0.29 -0.79,-1.72 1.72,-1.51 -0.22,-1.46 -8.01,-3.86 -8.2,-0.76 -1.21,1.03 -2.08,-0.11 -0.44,1.13 -4.27,-5.8 -2.13,0.28 -1.03,-2.96 -4.72,0.15 -0.07,-5.94 h -4.72 l -0.15,-5.72 v 0 l 1.32,-2.85 -1.26,-1.41 0.04,-2.61 3.29,0.87 1.84,-2.82 3.5,-0.83 5.16,2.52 0.46,1.41 2.5,-2.13 4.11,1.8 2.01,-1.58 6.15,-2.13 0.89,1.08 0.66,-0.52 0.98,1.1 1.74,-0.11 -0.84,2 0.44,0.78 1.28,-0.44 3.1,-6.7 -2.03,-4.12 -5.32,-4.38 -1.02,-7.05 3.94,0.63 6.78,3.59 1.05,1.97 3.99,2.68 3.7,-0.56 0.69,-2.4 -1.55,-3.76 -4.95,-3.72 0.71,0.13 0.73,-1.88 1.05,0.17 -0.29,1.17 0.85,0.67 2.01,0.34 10.19,-5.62 1,-2.42 -0.23,-4.79 1.32,-1.03 -0.27,-1.02 9.84,0.84 2.94,3.9 4.62,2.13 3.12,-2.2 -0.44,-2.48 8.86,6.15 1.61,-1.62 0.27,-1.98 -2.98,-2.54 -0.6,-1.66 2.15,1.4 2.18,-0.07 0.49,-1.45 -1.1,-2.26 1.69,0.82 0.36,-1.72 0.66,2.02 1.41,0.82 -2.67,3.32 1.43,-0.71 0.91,1.31 0.48,-0.58 1.9,1.42 3.87,0.73 4.41,-7.68 -2.89,-3.71 0.61,-1.57 -0.95,-1.12 -0.65,0.41 -0.21,-10.26 0.43,1.5 2.27,0.54 0.79,1.42 1.78,-0.24 0.62,1.25 2.46,-0.35 1.22,1.85 -0.49,1.7 2.18,1.96 -0.04,3.46 5.47,2.24 2.91,-1.14 0.21,-2.07 4.57,1.33 3.31,-1.23 0.86,2.39 1.23,0.97 1.02,-0.39 0.31,1.44 2.42,1.16 2.71,-4.55 -0.43,-1.62 -1.25,0.13 -1.94,-2.95 0.57,-3.2 4.17,3.25 1.26,3.75 3.83,-0.9 2.7,-3.62 0.25,3.33 4.63,2.65 2.24,0.58 2.11,-0.65 3.52,1.4 3.63,-0.67 1.8,-2 -0.35,-2.39 6.8,-0.52 2.51,-4.32 -2.52,-3.42 -0.42,-3.03 -3.02,-5.07 -0.01,-4.66 0.92,-1.89 -0.71,-1.56 2.54,0.92 -0.58,3.88 1.02,1.5 2.17,1.03 1.77,-1.14 0.92,2.55 2.53,0.26 1.33,3.87 5.07,2.88 3.37,-2.99 -0.6,-1.14 1.06,-3.14 -2.86,-3.17 -0.15,-3.15 1,-1.97 -2.05,-1.84 2.65,-1.65 z"
     class="land"
     title="Harjumaa"
     id="EE-37" />
     <g id="stadiums" data-country="estonia" data-circle-radius="6"></g>
</svg>
