<?xml version="1.0" encoding="UTF-8" standalone="no"?>
<?xml-stylesheet type="text/css" href="/styles/home.css"?>
<!-- https://www.amcharts.com/svg-maps -->

<svg version="1.1" xmlns="http://www.w3.org/2000/svg" id="map-georgia"
   viewBox="0 0 792.42603 401.40649">
  <defs
     id="defs4">
    <style
       type="text/css"
       id="style2">
			.land
			{
				fill: #c46a76;
				fill-opacity: 1;
				stroke:white;
				stroke-opacity: 1;
				stroke-width:0.5;
			}
		</style>
    <!-- <amcharts:ammap
       projection="mercator"
       leftLongitude="40.011506"
       topLatitude="43.584733"
       rightLongitude="46.721888"
       bottomLatitude="41.064411" /> -->
    <!-- All areas are listed in the line below. You can use this list in your script. -->
    <!--{id:"GE-AB"},{id:"GE-AJ"},{id:"GE-GU"},{id:"GE-IM"},{id:"GE-KA"},{id:"GE-KK"},{id:"GE-MM"},{id:"GE-RL"},{id:"GE-SJ"},{id:"GE-SK"},{id:"GE-SZ"},{id:"GE-TB"}-->
  </defs>
  <path
     d="m 32.158436,1.8539967 1.25,1.14 1.6,-0.26 0.82,0.35 2.6,2.34 2.4,-0.45 2.26,1.06 4.7,0.56 1.11,-0.04 2.26,-1.57 2.28,1.46 2.38,0.31 2.14,2.13 1.21,0.52 7.19,1.9500003 1.8,-0.99 3.88,-4.1600003 1.82,-0.49 1.99,-1.39 1.96,0.19 2.93,3.76 5.47,1.4 4.02,2.8800003 6.81,3.77 5.580004,0.06 1.53,0.94 0.76,1.43 -0.35,2 3.53,2.53 1.21,2.75 1.57,0.55 1.85,-0.15 1.06,-0.36 1.16,-1.26 1.6,0.22 3.95,2.56 1.38,2.1 0.12,1.98 2.14,1.36 4.72,0.75 2.17,-2.8 2.3,0.06 9.45,3.45 3.97,2.49 3.68,0.71 2.03,1.42 1.25,1.74 2.31,0.2 4.38,-4.67 1.2,0.5 3.43,-0.47 1.47,1.35 0.62,7.65 6.28,1.44 2.96,3.03 4.9,2.79 1.06,1.94 2.24,0.85 1.09,1.32 1.96,0.34 3.72,1.67 3.17,-1.16 4.06,2.17 1.82,0.26 0.98,-0.52 1.4,-2.12 1,-0.22 3.18,2.76 6.75,1.91 5.1,-1.92 0.55,-1.15 -0.83,-2.3 0.63,-1.39 0.67,-0.2 0.74,0.14 1.46,1.5 3.12,1.37 3.03,0.49 1.96,2.51 2.44,-0.84 4.45,0.07 2.48,2.84 1.13,0.35 1.11,0.1 2.76,-1.67 3.76,-0.5 2.82,-2.13 2.16,0.3 v 0 l -3.01,7.71 -0.01,4.03 1.21,3.22 -0.75,2.84 -3.11,6.89 -4.5,4.02 -1.64,4.37 -2.8,0.97 -6.56,0.82 -3.29,1.58 -5.17,0.98 -2.45,1.14 -0.56,0.75 1.22,3.950003 2.96,0.58 -0.48,6.72 1.68,1.86 0.4,2.83 1.03,1.41 -1.41,3.05 -2.67,1.2 -1.93,2.78 1.61,1.92 0.56,2.25 0.65,4.58 0.14,8.08 1.05,2.59 2.36,2.42 1.48,2.42 v 3.83 l -1.28,4.5 -1.72,1.25 -2,0.68 -4.13,6.02 -5.02,5.59 -6.71,4.6 -7.51,3.66 -5.05,1.47 -5.4,6.44 -8.43,4.23 v 0 l -2.32,-17.62 -2.23,-11.98 -5.35,-17.36 -2.69,-5.38 -0.95,-1.06 -1.77,0.26 -1.83,-2.62 -1.41,-0.85 -7.41,-1.96 -1.97,-0.04 -2.89,-2.09 -7.93,-2.49 -2.88,0.26 -2.07,1.43 -3.64,-0.71 -1.05,-2.41 -4.03,-4.81 -2.95,-16.1 -3.02,-6.870003 -1.77,-1.92 -1.15,-0.45 -1.86,0.67 -2.43,-0.18 -2.13,2.24 -1.22,-0.05 -0.78,-1.56 -2.82,-2.59 -1.87,-3.4 -2.52,-2.1 -2.27,-3.75 -2.46,-1.84 -4.390004,-1.03 -2.2,-0.22 -1.34,0.45 -4.46,-0.99 -7.64,0.18 -5.31,-2.32 -4,1.29 -3.51,0.36 -2.23,-2.1 -2.62,-4.16 -2.36,-1.93 -4.72,-0.31 -1.18,0.67 -1.12,-1.39 -2.98,-0.98 -4.56,-3.14 -2.49,0.27 -1.08,0.63 -2.36,2.51 -0.07,0.98 -0.52,0.05 -3.64,-3.9 -1.54,-0.49 -2.33,-2.56 -1.28,-12.15 -1.18,-5.11 -1.44,-3.19 -4.59,-2.47 -5.25,-1.48 -3.44,-2.65 -1.9,-0.32 -4.2300004,-2.96 -8.07999999,-1.26 0.58,-6.97 2.59999999,-4.63 0.85,-4.08 2.05,-2.6 0.5,-1.79 3.2800004,-3.2700003 0.4,-0.95 -0.6300004,-3.59 0.9800004,-1.75 3.87,0.16 4.89,-1.76 4.25,0.41 1.72,-1.02000004 2.58,-0.53 1.72,0.27 z"
     class="land"
     title="Abkhazia"
     id="GE-AB" />
  <path
     d="m 207.81844,269.584 17.64,1.27 2.6,1.24 0.57,0.82 0.37,4.55 5.38,0.29 2.51,2.77 4.57,1.39 0.9,2.49 6.28,-2.34 4.6,-0.03 3.83,1.36 1.77,3.32 6.16,-1.56 6.04,0.1 2.84,-2.72 4.04,-2.63 3.52,-0.19 1.21,0.29 1.73,1.65 2.41,4.12 4.98,0.24 v 0 l 2.06,5.47 -0.09,4.23 -2.42,3 0.68,3.76 3.36,5.35 3.19,2.01 1.24,2.39 2.6,2.68 2.08,6.73 v 0 l -1.11,1 -0.28,3.42 -1.46,2.99 0.51,2.26 -1.54,1.01 -0.89,1.73 -1.54,-0.13 -0.5,0.43 -0.14,0.83 -1.69,1.12 -0.71,1.65 1.27,2.15 0.29,1.25 -0.35,1.08 -0.79,0.04 -1.08,-0.89 -3.91,0.95 -2.87,-0.16 -3.82,-2.63 -0.83,-1.47 -4.3,0.32 -2.24,-1.32 -2.15,0.3 -5.34,-3.62 -2.91,0.17 -1.69,-0.64 -5.42,0.55 -0.66,-1.93 -1.7,-1.35 -1.47,-0.06 -2.29,0.88 -3.73,0.54 -0.23,-1.11 -0.79,-0.14 -1.14,0.7 -1.77,-0.38 -4.6,2.7 -3.51,-1.72 -3.05,-0.18 -0.41,-1.5 -1.42,-1.43 -2.58,0.11 -0.92,1.26 -2.89,2.01 -1.82,0.53 -1.31,2.1 -0.06,1.22 -2.04,2.86 -3.15,1.01 -1.25,2.27 -1.61,0.89 -0.54,-0.02 -1.43,-2.21 -2.45,-0.9 -0.3,-1.11 -0.76,-0.42 -3.22,-1.5 -4.53,-0.22 -0.25,-0.5 0.94,-1.81 -0.33,-0.71 -1.16,-0.53 -5.32,2.06 -2.09,-0.29 -4.5,-3.38 -2.97,-1.1 -0.48,-0.79 -3.6,-0.98 0.1,-1.17 0.42,-1.05 1.09,-0.74 0.78,-7.56 2.13,-3.97 2.96,-3.72 2.72,-2.36 1.01,0.09 0.4,1.49 h 1.11 l 0.3,-0.88 0.72,0.4 0.69,-0.48 5.5,-8.01 2.89,-8.53 1.54,-2.06 1.93,-5.87 0.86,-8.46 z"
     class="land"
     title="Ajaria"
     id="GE-AJ" />
  <path
     d="m 206.00844,233.214 3.89,-1.13 v 0 h 8.62 v 0 l 6.3,-1.33 2.51,-1.05 5.67,0.01 3.85,-0.86 1.45,0.79 6.19,1.55 4.62,4.15 10.13,1.28 v 0 l 2.06,0.82 v 0 l 0.65,1.37 v 0 l -1.72,1.07 -1.19,1.69 0.1,1.95 1.84,3.08 1.57,0.69 4.02,0.19 3.6,1.8 1.34,-0.22 2.02,-2.89 3.93,0.03 3.09,0.91 3.94,9.48 3.43,0.29 2.81,1.34 4.12,3.29 3.47,1.14 2.66,2.22 8.09,0.34 1.81,2.82 0.04,8.48 0.68,4.01 v 0 l -3.19,-0.03 -1.18,0.48 -1.3,1.41 -0.9,3.14 -0.89,1.09 -3.02,0.6 -3.12,-1.83 -6.23,0.63 v 0 l -4.98,-0.24 -2.41,-4.12 -1.73,-1.65 -1.21,-0.29 -3.52,0.19 -4.04,2.63 -2.84,2.72 -6.04,-0.1 -6.16,1.56 -1.77,-3.32 -3.83,-1.36 -4.6,0.03 -6.28,2.34 -0.9,-2.49 -4.57,-1.39 -2.51,-2.77 -5.38,-0.29 -0.37,-4.55 -0.57,-0.82 -2.6,-1.24 -17.64,-1.27 v 0 l -1.28,-15.7 -0.66,-2.24 0.43,-2.02 -0.72,1.36 -2.03,-3.04 -3.61,-7.74 0.95,-1.23 0.82,2.86 -0.23,0.88 1.12,0.17 0.42,0.75 0.36,-0.53 -0.26,-1.05 0.49,-0.35 -0.39,-0.4 0.65,-0.66 -2.72,-2.24 4.76,-1.19 0.39,-2.38 1.21,-0.44 z"
     class="land"
     title="Guria"
     id="GE-GU" />
  <path
     d="m 307.43844,170.924 1.56,2.27 -0.65,4.75 1.26,2.77 -0.09,4.35 2.46,0.07 5.07,-1.8 2.43,-3.08 3.88,0.73 2.64,1.79 3.29,-0.61 0.48,-0.36 0.93,-3.18 0.91,-0.13 2.23,0.9 1.67,2.01 3.16,0.98 2.3,1.5 5.31,5.22 1.22,2.77 0.17,2.75 0.74,1.87 4.32,0.39 2.53,1.28 4.21,3.3 2.24,-1.49 3.6,-0.68 2,0.27 4.39,-1.68 3.6,-2.78 1.85,-2.99 4.23,-2.13 1.81,-1.86 12.88,-0.55 8.07,1.94 7.44,-1.84 6.29,3.01 4.41,0.87 v 0 l 2.55,2.3 7.53,1.4 3.11,-1.32 3.41,-2.29 2.46,-0.05 1.41,0.62 1.6,3.14 -2.47,6.57 0.79,3.27 -3.93,0.89 -2.8,1.63 -4.31,0.26 -3.1,3.57 -2.95,1.76 -1.41,3.65 1.23,4.24 -0.02,3.36 -0.68,3.31 -3,1.74 -2.18,6.86 -2.79,4.06 -5.89,3.29 -0.62,2.71 -0.08,9.51 -6.78,5.81 -0.76,2.19 0.65,3.36 v 0 l -3.87,0.77 -3.78,2.77 -4.44,0.91 -5.55,3.33 -9.5,2.74 -8.64,4.11 -2.78,-1.42 -16.1,2.04 -2.18,1.73 -1.42,0.06 -4.73,-1.84 -4.79,-0.11 -2.64,-1.14 -2.89,-0.1 -4.45,1.94 -2.63,2.23 -2.53,0.14 -3.31,-1.2 -2.04,-0.07 -3.38,-3.76 v 0 l -0.68,-4.01 -0.04,-8.48 -1.81,-2.82 -8.09,-0.34 -2.66,-2.22 -3.47,-1.14 -4.12,-3.29 -2.81,-1.34 -3.43,-0.29 -3.94,-9.48 -3.09,-0.91 -3.93,-0.03 -2.02,2.89 -1.34,0.22 -3.6,-1.8 -4.02,-0.19 -1.57,-0.69 -1.84,-3.08 -0.1,-1.95 1.19,-1.69 1.72,-1.07 v 0 l 3.82,0.36 2.6,-1.84 0.79,-4.46 -0.01,-11.22 -0.5,-2.63 3.54,-1.24 -0.13,-3.34 5.19,-8.21 2.93,-5.77 5.03,-4.36 3.36,-4.05 0.22,-8.5 3.01,-2.27 0.32,-4.41 2.49,-1.95 1.81,-2.82 5.57,-0.1 2.3,-1.18 z"
     class="land"
     title="Imereti"
     id="GE-IM" />
  <path
     d="m 782.35844,394.454 -2.41,-0.06 -0.95,0.81 -1.34,-0.14 -1.88,-2.15 -5.52,-1.75 -2.29,1.62 -4.98,7.94 -1.61,0.4 -2.69,-3.57 -0.54,-3.36 -2.69,-1.08 -2.56,1.35 h -2.15 l -9.15,-11.71 -3.5,-3.23 -6.87,-0.27 -4.71,0.54 -2.69,-1.34 h -1.88 l -0.61,0.72 -2.21,0.59 -0.83,3.05 -1.61,0.9 -3.36,-0.98 -5.68,-0.11 -3.42,0.7 -3.82,-0.25 -8.28,-5.42 -3.42,-1.3 -2.83,0.11 -3.93,-1.17 -8.29,-5.41 -4.82,-7.06 0.38,-1.21 0.64,-0.14 2.41,-3.42 2.95,-0.43 0.89,-0.62 -2.69,-3.1 -0.68,-0.05 -2.48,1.54 -2.04,-0.49 -4.48,-2.23 -4.23,0.8 -1.97,-0.77 -1.29,-1.25 -0.96,-3.64 -7.78,-2.48 -4.54,-4.09 -2.4,-0.25 -2.82,3.18 -2.5,0.5 -5.52,-3.72 -1.78,-1.88 v 0 l -2.54,-5.5 0.86,-2.3 -0.47,-0.91 -2.62,-2.25 -8.59,-1.48 -1.85,-3.02 0.46,-3.33 -1.73,-3.46 -0.04,-1.02 4.18,-5.02 0.7,-1.62 -2.36,-8.09 -0.14,-3.79 -2.49,-5.99 -1.27,-0.46 -5.2,0.37 -5.78,-9.28 -2.25,-2.04 v 0 l -0.08,-2.53 -0.82,-1.65 -4.4,-2.7 5.7,-5.51 2.08,0.47 3.25,2.93 3.93,1.25 2.55,-1.03 5.1,-0.83 -1.15,-2.55 -2.94,-2.77 -7.96,-1.52 -4.51,-1.47 -0.71,-4.34 3.01,-4.51 -1.9,-4.47 -2.13,-2.44 1.34,-3.33 -2.16,-4.56 2.35,-2.99 0.78,-7.55 1.34,-4.64 2.95,-3.36 0.27,-5.51 3.85,-3.92 2.01,-3.08 5.9,-1.71 1.79,-2.9 0.17,-1.33 -0.71,-2.72 -1.76,-3.89 0.01,-4.47 5.55,-4.74 0.06,-6.01 -1.17,-4.26 3.9,-7.13 2.47,-3.16 v 0 l 2.29,3.71 1.07,0.91 2.17,0.58 6.64,-2.11 9.61,0.26 3,-0.16 3.15,-1.33 3.54,0.22 3.8,3.3 12.59,6.82 5.05,-0.12 1.1,0.76 0.84,1.09 0.85,2.88 -0.26,3.17 -4.91,8.04 -0.59,2.17 0.51,4.46 -0.73,2.09 2.25,2.33 0.19,1.76 -1.21,1.27 -2.51,1.08 -4.81,1.15 -0.8,-0.03 -1.38,-1.06 -1.61,0.12 -4.08,11.19 0.76,1.19 1.48,0.48 2.03,2.18 2.7,0.85 7.39,4.79 1.48,1.29 0.53,1.61 1.46,0.71 1.36,1.68 4.75,2.31 4.87,-0.3 4,1.7 2.64,2.27 0.29,4.11 1.82,2.72 0.79,2.24 1.85,0.86 2.99,-2.39 2.99,0.58 2.06,-0.83 0.84,0.87 0.43,1.97 0.57,0.24 1.4,-0.45 2.08,-2.43 1.53,0.93 1.11,4.83 2.5,2.06 0.66,-0.2 0.55,-3.09 1.02,-1.05 1.28,0.63 3.79,4.1 3.11,0.16 4.07,-2.2 1.78,-0.07 2.11,3.31 3.6,3.34 0.7,1.33 1.49,0.75 0.12,1.52 1.88,0.15 0.48,-0.41 0.81,-2.72 1.22,0.23 1.45,1.55 1.72,-2.03 1.06,-0.32 1.07,6.35 3.18,1.94 -0.41,4.4 -1.86,4.51 -2.62,2.93 -4.41,2.67 -5.14,4.63 -5.92,1.23 -5.26,1.92 -3.11,4.06 1.68,8.62 1.67,5.02 0.24,7.42 2.15,2.63 3.35,-3.35 2.05,0.3 3.41,1.74 0.92,1.83 -0.51,1.34 0.28,1.7 4.06,6.2 -0.05,3.63 0.51,0.91 1.14,0.99 7.03,2.81 0.24,2.1 3.7,0.76 2.03,2.89 3.17,2.3 8.54,3.24 0.29,0.73 3.54,1.14 0.63,0.75 0.43,-1.05 0.4,0.02 0.4,0.49 -0.29,1.86 1.14,-0.38 1.11,1.16 0.43,-1.12 0.64,0.34 0.39,0.74 -0.6,1.28 -1.14,0.3 -0.43,0.88 1.45,0.2 0.63,0.66 0.8,-2.65 0.56,0.17 0.27,2.36 -0.42,0.64 1.29,0.27 -0.05,1.78 2.59,-0.01 -0.08,2.99 1.26,1.57 -0.11,1.13 3.09,0.36 0.64,0.85 0.04,0.69 -1.7,1.21 -1.87,2.38 -0.11,3.19 -2.07,2.09 -2.51,3.97 1.27,3.49 -0.43,0.4 v 1.83 l -0.77,0.41 -0.39,1.22 0.23,4.68 z"
     class="land"
     title="K'akheti"
     id="GE-KA" />
  <path
     d="m 576.27844,290.574 3.26,-2.88 0.37,-3.89 3.54,-5.28 4.71,1.61 3.88,0.16 2.11,0.92 2.67,-1.33 v 0 l 2.25,2.04 5.78,9.28 5.2,-0.37 1.27,0.46 2.49,5.99 0.14,3.79 2.36,8.09 -0.7,1.62 -4.18,5.02 0.04,1.02 1.73,3.46 -0.46,3.33 1.85,3.02 8.59,1.48 2.62,2.25 0.47,0.91 -0.86,2.3 2.54,5.5 v 0 l -2.73,-1.05 -2.12,1.2 -3.34,0.22 -0.78,0.88 -0.98,2.85 -2.63,1.61 -2,2.03 -4.05,1.11 -3.25,3.42 -4.89,7.04 -4.02,1.69 -2.67,1.98 -6.9,2.47 -3.66,3.24 -1.3,3.08 -2.36,0.06 -2.67,-0.71 -2.01,0.31 -2.35,-1.92 -1.97,-0.23 -2.09,-0.94 -1.5,-2.83 -0.39,-0.4 -0.83,0.27 -0.85,2.52 0.62,1.16 -0.91,0.8 -0.23,2.07 2.07,3.52 4.81,1.98 1.23,1.06 -0.16,0.68 -3.47,0.06 -3.97,-1.67 -7.6,1.12 -2.39,1.31 -0.64,-0.34 -0.11,-1.32 -0.88,-0.59 -2.98,0.4 -0.68,-0.2 -1.6,-2.03 -3.58,0.07 -2.06,-0.51 -1.26,2.26 -0.77,4.35 -0.84,0.81 -0.83,0.3 -0.37,-2.83 -5.05,2.01 -4.63,-0.7 -3.89,1.61 -1.65,0.11 -1.42,-0.53 -5.74,-4.46 -4.75,-2.73 -1.26,0.44 -0.51,2.68 -0.77,0.98 -3.09,-1.19 -6,-0.21 -0.85,-2.87 -1.73,-1.5 -1.84,1.55 -1.79,-0.24 -1.44,-1.32 -0.68,0.03 -0.67,1.03 1,2.88 -1.3,3.09 -1.38,1.08 -2.62,0.54 -9.28,-0.11 -5.74,2.03 -3.33,3.15 v 0 l -1.44,-5.35 -0.16,-4.98 -3.45,-4.91 -0.8,-2.26 0.09,-2.68 2.34,-4.71 -0.01,-4.79 -1.83,-4.93 -2.69,-0.45 -0.47,-0.54 -0.02,-8.39 -0.63,-2.71 0.3,-1.95 -3.96,-2.46 0.32,-4.32 -5.99,-3.01 -4.78,1.69 -3.49,0.65 -9.55,-0.02 0.1,-3.03 2.74,-1.73 0.85,-2.99 0.07,-5.55 -0.62,-2.68 1.21,-4.28 0.07,-5.79 0.78,-2.17 1.27,-0.71 2.64,0.01 8.53,2.32 5.67,-5.33 1.85,-2.56 v 0 l 5.42,0.12 3.01,1.19 9.92,0.09 8.06,1.28 2.11,-0.14 3.76,-1.77 2.41,0.08 2.86,1.27 4.62,0.65 11.7,-5.28 4.64,4.65 9.37,0.16 1.36,-0.29 1.31,-1.83 -0.56,-2.35 v 0 l 5.82,0.86 4.9,1.8 2.54,4.55 2.44,2.36 5.29,0.5 2.8,-3.38 v 0 l 2.88,1.15 -0.9,2.9 0.34,0.64 5.2,0.07 3.61,0.7 5.32,4.14 4.8,0.25 6.1,2.97 6.2,-0.69 3.71,-2.02 1.14,-2.15 1.25,-5.23 -0.87,-0.35 -2.21,0.24 -1.86,2.95 -1.91,1.18 -3.07,-0.15 -4.65,-2.63 -0.46,-0.87 -0.09,-3.01 -1.28,-2.64 -3.06,-2.56 0.45,-1.06 2.26,-1.54 z"
     class="land"
     title="Kvemo Kartli"
     id="GE-KK" />
  <path
     d="m 594.36844,143.064 4.42,0.63 5.61,-1.43 3.03,0.3 1.3,0.62 10.47,13.08 3.93,3.36 0.8,1.23 0.85,4.1 v 0 l -2.47,3.16 -3.9,7.13 1.17,4.26 -0.06,6.01 -5.55,4.74 -0.01,4.47 1.76,3.89 0.71,2.72 -0.17,1.33 -1.79,2.9 -5.9,1.71 -2.01,3.08 -3.85,3.92 -0.27,5.51 -2.95,3.36 -1.34,4.64 -0.78,7.55 -2.35,2.99 2.16,4.56 -1.34,3.33 2.13,2.44 1.9,4.47 -3.01,4.51 0.71,4.34 4.51,1.47 7.96,1.52 2.94,2.77 1.15,2.55 -5.1,0.83 -2.55,1.03 -3.93,-1.25 -3.25,-2.93 -2.08,-0.47 -5.7,5.51 4.4,2.7 0.82,1.65 0.08,2.53 v 0 l -2.67,1.33 -2.11,-0.92 -3.88,-0.16 -4.71,-1.61 -3.54,5.28 -0.37,3.89 -3.26,2.88 v 0 l -2.95,-0.7 -3.76,-2.84 -3.49,-1.22 -2.34,4.86 -2.27,1.62 -1.34,0.53 -2.69,-0.99 -1.48,0.65 -0.28,0.97 0.54,3.02 -3.53,1.64 -1.37,2.58 v 0 l -2.8,3.38 -5.29,-0.5 -2.44,-2.36 -2.54,-4.55 -4.9,-1.8 -5.82,-0.86 v 0 l -0.92,-3.66 3.13,-2.34 v -3.72 l -0.63,-3.09 0.76,-2.86 4.38,-0.28 2.95,0.45 1.37,-2.65 0.01,-2.99 -2.47,-3.45 -3.7,-3.83 -1.96,-4.05 -0.18,-7.04 -3.84,-3.88 -4.36,0.01 -7.22,-1.81 -1.8,-0.02 -2.42,0.84 -1.91,3.27 -2.99,1.75 -0.21,-5.12 -1.66,-0.25 -2.13,0.49 -0.4,-0.34 0.06,-3.66 1.79,-4.41 -0.63,-5.66 1.22,-3.52 -0.44,-2.75 1.61,-2.98 2.68,-1.77 2.07,-4.45 3.51,-1.67 0.7,-2.56 0.05,-3.33 -3.15,-5.74 0.04,-4.59 1.72,-1.67 0.06,-2.23 -1.56,-2.98 -3.23,-1.79 -0.95,-6.44 -2.1,-1.03 -0.33,-0.71 0.91,-2.97 2.08,-1.77 0.38,-2.64 2.63,-2.5 -1.71,-3.52 -2.53,-1.09 -1.55,-2.14 -0.74,-1.55 -0.28,-2.74 -2.05,-0.78 -3.39,-0.2 -2.76,-2.6 -1.58,-3 -0.72,-2.89 v 0 l 2.5,-0.56 1.45,-1.11 1.01,-3.58 2.26,-3.95 0.9,-1.27 2.63,-1.83 5.2,-2.11 2.5,-0.43 5.64,0.57 2.49,-0.21 7.2,-4.78 3.8,-1.28 11.38,1.25 7.03,-1.03 2.95,0.69 2.32,1.26 2.43,2.8 2.25,12.25 0.77,1.7 1.76,1.25 1.83,0.04 1.74,-1.03 4,-11.18 3.31,-5.21 2.14,-2.04 5.82,-0.92 5.14,1.3 7.55,6.94 z"
     class="land"
     title="Mtskheta-Mtianeti"
     id="GE-MM" />
  <path
     d="m 395.07844,112.444 5.42,-1.02 7.35,0.81 2.85,1.24 2.01,1.66 6.53,1.08 5.07,3.79 1.41,3.28 3.34,3.55 1.24,0.41 1.77,-0.49 2.19,0.64 3.96,3.71 8.07,3.71 1.51,2.36 0.01,2.71 -4.35,8.68 -2.91,1.98 -1.08,1.49 -0.2,2.38 4.58,6.37 5.05,-0.89 1.69,2.21 0.91,0.3 2.69,-1.43 2.14,1.74 2.01,0.13 1.84,0.77 v 0 l 1.23,4.14 -1.35,5.09 -7.93,4.56 -1.68,4.15 -5.83,1.86 -5.6,0.64 -7.43,0.01 -7.41,1.91 -1.25,0.93 -0.65,4.65 v 0 l -4.41,-0.87 -6.29,-3.01 -7.44,1.84 -8.07,-1.94 -12.88,0.55 -1.81,1.86 -4.23,2.13 -1.85,2.99 -3.6,2.78 -4.39,1.68 -2,-0.27 -3.6,0.68 -2.24,1.49 -4.21,-3.3 -2.53,-1.28 -4.32,-0.39 -0.74,-1.87 -0.17,-2.75 -1.22,-2.77 -5.31,-5.22 -2.3,-1.5 -3.16,-0.98 -1.67,-2.01 -2.23,-0.9 -0.91,0.13 -0.93,3.18 -0.48,0.36 -3.29,0.61 -2.64,-1.79 -3.88,-0.73 -2.43,3.08 -5.07,1.8 -2.46,-0.07 0.09,-4.35 -1.26,-2.77 0.65,-4.75 -1.56,-2.27 v 0 l -2.35,-5.74 -6.76,-10.32 0.05,-6.04 3.21,-2.47 -4.4,-5.5 -5.81,-3.25 -3.82,-0.97 -1.73,-1.02 -2.56,-2.38 -4.3,-2.51 -2.44,-2.92 3.74,-7.08 9.19,-1.15 1.69,-2.36 0.99,-4.14 3.36,-0.19 5.5,2.47 5.47,0.14 3.61,0.72 5.29,2.45 4.21,0.04 2.53,0.56 6.84,-4.19 3.53,1.67 4.95,1.53 3.55,3.01 5.9,-1.13 6.16,-0.02 2.84,-0.59 1.05,1.17 0.76,2.87 1.12,0.32 2.3,-0.84 1.55,-1.65 0.34,-7.95 2.76,-1 1.93,-4.04 5.85,-4.56 1.62,0.99 v 0 l 8.68,2.4 6.93,3.27 1.06,1.11 1.61,0.74 z"
     class="land"
     title="Rach'a-Lechkhumi-Kvemo Svaneti"
     id="GE-RL" />
  <path
     d="m 403.24844,267.394 3.59,-0.53 2.31,1.09 2.9,0.25 2.02,1.58 2.41,0.3 2.53,1.21 0.66,0.9 0.15,3.3 2.84,2.47 1.03,4.22 6.83,0.24 -0.01,2.13 0.89,2.71 2.65,0.23 1.41,0.64 3.57,2.98 3.72,0.01 2.52,-1.18 4.66,0.02 5.13,1.41 2.47,1.41 0.01,3.39 v 0 l -1.85,2.56 -5.67,5.33 -8.53,-2.32 -2.64,-0.01 -1.27,0.71 -0.78,2.17 -0.07,5.79 -1.21,4.28 0.62,2.68 -0.07,5.55 -0.85,2.99 -2.74,1.73 -0.1,3.03 9.55,0.02 3.49,-0.65 4.78,-1.69 5.99,3.01 -0.32,4.32 3.96,2.46 -0.3,1.95 0.63,2.71 0.02,8.39 0.47,0.54 2.69,0.45 1.83,4.93 0.01,4.79 -2.34,4.71 -0.09,2.68 0.8,2.26 3.45,4.91 0.16,4.98 1.44,5.35 v 0 l -1.71,-0.17 -2.27,-1.21 h -12.01 l -7.97,4.42 -3.79,3.99 -4.55,-1.61 -3.62,-2.54 -4.59,2 -2.75,-0.03 -4.58,-3.43 -1.06,-0.29 -2.86,0.08 -6.02,3.03 h -2.28 l -1.83,-4.92 -2.16,-2.87 -3.78,-1.38 -3.6,-2.13 -2.28,0.09 -9.56,3.07 -5.65,0.87 0.83,-1.75 -0.21,-0.86 -4.68,-9.28 -1.9,-0.4 -2.68,1.42 -3.47,-1.33 6.02,-3.28 3.09,-3.07 -0.25,-1.39 -1.68,-0.76 -2.93,-0.33 -0.57,-0.79 -3.01,-0.37 -3.31,-5.74 -4.16,-2.23 -2.25,-0.15 -2.65,-1.33 -1.79,-2.98 -1.9,-1.54 -1.11,-3.09 -1.25,-1.07 v -1.98 l -0.46,-0.82 -2.91,-1.05 -1.61,-2.26 -3.16,-1.29 -0.29,-2.88 -0.79,-0.71 -2.3,0.14 -1.15,0.58 -0.57,2.37 -1.11,1.76 -0.58,0.03 -4.42,-3.15 -0.28,-1.65 -1.62,-2.09 0.5,-1.36 2.73,-1.69 -0.29,-3.42 2.4,-2.05 -0.29,-1.91 -0.82,-0.79 -4.25,-0.1 -1.15,1.62 -5.14,-2.51 -3.74,-0.6 -3.59,0.11 -6.66,2.04 -1.68,-0.24 -2.12,2.1 v 0 l -2.08,-6.73 -2.6,-2.68 -1.24,-2.39 -3.19,-2.01 -3.36,-5.35 -0.68,-3.76 2.42,-3 0.09,-4.23 -2.06,-5.47 v 0 l 6.23,-0.63 3.12,1.83 3.02,-0.6 0.89,-1.09 0.9,-3.14 1.3,-1.41 1.18,-0.48 3.19,0.03 v 0 l 3.38,3.76 2.04,0.07 3.31,1.2 2.53,-0.14 2.63,-2.23 4.45,-1.94 2.89,0.1 2.64,1.14 4.79,0.11 4.73,1.84 1.42,-0.06 2.18,-1.73 16.1,-2.04 2.78,1.42 8.64,-4.11 9.5,-2.74 5.55,-3.33 4.44,-0.91 3.78,-2.77 z"
     class="land"
     title="Samtskhe-Javakheti"
     id="GE-SJ" />
  <path
     d="m 493.13844,155.104 0.72,2.89 1.58,3 2.76,2.6 3.39,0.2 2.05,0.78 0.28,2.74 0.74,1.55 1.55,2.14 2.53,1.09 1.71,3.52 -2.63,2.5 -0.38,2.64 -2.08,1.77 -0.91,2.97 0.33,0.71 2.1,1.03 0.95,6.44 3.23,1.79 1.56,2.98 -0.06,2.23 -1.72,1.67 -0.04,4.59 3.15,5.74 -0.05,3.33 -0.7,2.56 -3.51,1.67 -2.07,4.45 -2.68,1.77 -1.61,2.98 0.44,2.75 -1.22,3.52 0.63,5.66 -1.79,4.41 -0.06,3.66 0.4,0.34 2.13,-0.49 1.66,0.25 0.21,5.12 2.99,-1.75 1.91,-3.27 2.42,-0.84 1.8,0.02 7.22,1.81 4.36,-0.01 3.84,3.88 0.18,7.04 1.96,4.05 3.7,3.83 2.47,3.45 -0.01,2.99 -1.37,2.65 -2.95,-0.45 -4.38,0.28 -0.76,2.86 0.63,3.09 v 3.72 l -3.13,2.34 0.92,3.66 v 0 l 0.56,2.35 -1.31,1.83 -1.36,0.29 -9.37,-0.16 -4.64,-4.65 -11.7,5.28 -4.62,-0.65 -2.86,-1.27 -2.41,-0.08 -3.76,1.77 -2.11,0.14 -8.06,-1.28 -9.92,-0.09 -3.01,-1.19 -5.42,-0.12 v 0 l -0.01,-3.39 -2.47,-1.41 -5.13,-1.41 -4.66,-0.02 -2.52,1.18 -3.72,-0.01 -3.57,-2.98 -1.41,-0.64 -2.65,-0.23 -0.89,-2.71 0.01,-2.13 -6.83,-0.24 -1.03,-4.22 -2.84,-2.47 -0.15,-3.3 -0.66,-0.9 -2.53,-1.21 -2.41,-0.3 -2.02,-1.58 -2.9,-0.25 -2.31,-1.09 -3.59,0.53 v 0 l -0.65,-3.36 0.76,-2.19 6.78,-5.81 0.08,-9.51 0.62,-2.71 5.89,-3.29 2.79,-4.06 2.18,-6.86 3,-1.74 0.68,-3.31 0.02,-3.36 -1.23,-4.24 1.41,-3.65 2.95,-1.76 3.1,-3.57 4.31,-0.26 2.8,-1.63 3.93,-0.89 -0.79,-3.27 2.47,-6.57 -1.6,-3.14 -1.41,-0.62 -2.46,0.05 -3.41,2.29 -3.11,1.32 -7.53,-1.4 -2.55,-2.3 v 0 l 0.65,-4.65 1.25,-0.93 7.41,-1.91 7.43,-0.01 5.6,-0.64 5.83,-1.86 1.68,-4.15 7.93,-4.56 1.35,-5.09 -1.23,-4.14 v 0 l 5.58,1.85 1.8,-0.53 5.33,-5.41 2.18,-1.51 2.99,0.37 6.29,-1.96 2.51,0.73 1.69,-0.16 z"
     class="land"
     title="Shida Kartli"
     id="GE-SK" />
  <path
     d="m 191.61844,221.174 0.95,0.57 0.52,-0.22 0.56,1.19 -1.28,1.9 -0.39,-0.13 z m 96.81,-163.060003 -0.45,1.19 0.56,1.1 7.32,2.21 9.55,5.61 3.29,1.06 1.26,1.1 5.58,2.23 0.36,-1.77 -1.45,-3.21 0.74,-0.96 2.58,0.33 7.49,-2.16 1.74,-0.04 1.33,0.26 2.18,1.58 3.65,-0.48 2.62,0.92 3.51,0.22 0.77,2.92 3.73,2.21 -0.67,3.69 7.12,0.89 6.26,3.1 0.11,0.59 -1.81,3.21 0.29,2.76 1.1,1.84 2.83,3.02 6.28,4.32 6.46,5.870003 2.41,3.12 v 0 l -1.63,-0.99 -5.85,4.55 -1.92,4.04 -2.77,1.01 -0.34,7.94 -1.55,1.65 -2.3,0.84 -1.12,-0.32 -0.77,-2.86 -1.05,-1.17 -2.84,0.59 -6.15,0.01 -5.9,1.13 -3.55,-3.01 -4.96,-1.53 -3.53,-1.67 -6.83,4.19 -2.53,-0.55 -4.21,-0.05 -5.29,-2.45 -3.61,-0.72 -5.48,-0.14 -5.49,-2.47 -3.37,0.19 -0.99,4.14 -1.69,2.37 -9.19,1.15 -3.74,7.08 2.44,2.92 4.3,2.51 2.57,2.39 1.73,1.02 3.81,0.97 5.81,3.25 4.4,5.51 -3.22,2.46 -0.04,6.04 6.76,10.32 2.35,5.75 v 0 l -3.14,-0.1 -2.31,1.17 -5.56,0.1 -1.81,2.82 -2.49,1.95 -0.32,4.41 -3.01,2.27 -0.22,8.5 -3.36,4.05 -5.03,4.36 -2.92,5.76 -5.19,8.22 0.13,3.34 -3.54,1.24 0.5,2.63 0.01,11.22 -0.79,4.46 -2.6,1.84 -3.83,-0.36 v 0 l -0.65,-1.37 v 0 l -2.05,-0.82 v 0 l -10.13,-1.28 -4.62,-4.15 -6.19,-1.54 -1.45,-0.79 -3.85,0.86 -5.67,-0.01 -2.51,1.06 -6.3,1.33 v 0 h -8.62 v 0 l -3.89,1.13 v 0 l -1.84,-1.33 -3.38,0.18 -1.12,-0.44 -1.05,0.35 1.02,1.5 0.36,3.08 0.75,1.58 -0.16,0.84 -0.88,0.57 -4.89,-6.25 -0.39,-2.16 -1.05,-0.66 0.95,-1.63 -1.67,-3.22 1.38,-2.69 1.05,-0.22 -3.67,-2.25 1.15,-2.38 0.16,-2.52 -2.16,-9.62 -3.8,-11.09 -3.84,-2.48 0.49,-2.12 1.97,-0.22 0.29,-0.49 -2.43,0.62 -0.46,1.95 -0.82,-2.44 v 0 l 8.43,-4.23 5.4,-6.44 5.05,-1.47 7.51,-3.66 6.71,-4.6 5.03,-5.59 4.13,-6.03 2,-0.67 1.72,-1.25 1.28,-4.5 0.01,-3.83 -1.49,-2.42 -2.36,-2.43 -1.05,-2.58 -0.13,-8.08 -0.65,-4.58 -0.57,-2.25 -1.61,-1.92 1.93,-2.78 2.67,-1.2 1.41,-3.05 -1.04,-1.41 -0.4,-2.83 -1.68,-1.86 0.48,-6.72 -2.96,-0.58 -1.22,-3.950003 0.56,-0.75 2.46,-1.14 5.17,-0.98 3.29,-1.58 6.56,-0.82 2.8,-0.98 1.64,-4.36 4.5,-4.02 3.11,-6.89 0.74,-2.84 -1.21,-3.23 0.01,-4.02 3.02,-7.71 v 0 l 3.83,0.13 3.01,-1.91 0.96,-0.01 2.33,0.65 2.72,2.56 2.88,0.27 3.49,-2.91 3.33,0.09 1.5,-2.41 4.14,-0.55 3.8,-1.58 1.92,0.25 2.63,1.98 0.19,0.78 z"
     class="land"
     title="Samegrelo-Zemo Svaneti"
     id="GE-SZ" />
  <path
     d="m 551.31844,300.694 1.37,-2.58 3.53,-1.64 -0.54,-3.02 0.28,-0.97 1.48,-0.65 2.69,0.99 1.34,-0.53 2.27,-1.62 2.34,-4.86 3.49,1.22 3.76,2.84 2.95,0.7 v 0 l -2.06,2.41 -2.26,1.54 -0.45,1.06 3.06,2.56 1.28,2.64 0.09,3.01 0.46,0.87 4.65,2.63 3.07,0.15 1.91,-1.18 1.86,-2.95 2.21,-0.24 0.87,0.35 -1.25,5.23 -1.14,2.15 -3.71,2.02 -6.2,0.69 -6.1,-2.97 -4.8,-0.25 -5.32,-4.14 -3.61,-0.7 -5.2,-0.07 -0.34,-0.64 0.9,-2.9 z"
     class="land"
     title="Tbilisi"
     id="GE-TB" />
     <g id="stadiums" data-country="georgia" data-circle-radius="6"></g>
</svg>
