<?xml version="1.0" encoding="UTF-8" standalone="no"?>
<?xml-stylesheet type="text/css" href="/styles/home.css"?>
<!-- https://www.amcharts.com/svg-maps -->

<svg version="1.1" xmlns="http://www.w3.org/2000/svg" id="map-germany" viewBox="0 0 1000 1000" width="1000"
   height="1000" class="">
   <defs id="defs4">
      <style type="text/css" id="style2">
         .land {
            fill: #49bea1;
            fill-opacity: 1;
            stroke: white;
            stroke-opacity: 1;
            stroke-width: 0.5;
         }

         .rectangle:hover {
            fill: #bdbdbd;
            cursor: pointer;
         }
      </style>
      <!-- <amcharts:ammap
       projection="mercator"
       leftLongitude="5.864765"
       topLatitude="55.051693"
       rightLongitude="15.043380"
       bottomLatitude="47.269299" /> -->
      <!-- All areas are listed in the line below. You can use this list in your script. -->
      <!--{id:"DE-BW"},{id:"DE-BY"},{id:"DE-BE"},{id:"DE-BB"},{id:"DE-HB"},{id:"DE-HH"},{id:"DE-HE"},{id:"DE-MV"},{id:"DE-NI"},{id:"DE-NW"},{id:"DE-RP"},{id:"DE-SL"},{id:"DE-SN"},{id:"DE-ST"},{id:"DE-SH"},{id:"DE-TH"}-->
   </defs>
   <rect id="background" class="rectangle" width="1000" height="1000" y="0" x="0"
      style="fill:#d3d3d3;stroke:#000000;stroke-width:0" />
   <path id="DE-BW" title="Baden-Wurttemberg" class="land"
      d="m 353.98826,946.9939 0.73226,2.63904 -4.38088,0.16415 z m 32.08015,-226.65421 10.93325,-0.41668 5.2015,-9.15456 8.25676,1.19956 1.04788,-8.20753 -2.61338,-2.39912 -2.323,3.30826 1.22463,-3.05573 -6.26201,-1.19956 1.56551,-3.6997 15.06162,-2.56328 4.81014,5.50536 0.4545,-4.773 6.60287,-1.08592 -1.94425,10.82132 2.27251,2.13395 4.58287,-4.98765 2.10838,4.88665 5.02476,-5.34121 5.82012,14.93771 -4.8985,6.8817 3.83801,1.23745 4.51974,-4.54572 0.97212,12.04613 7.33514,-0.11359 3.72438,-7.58881 4.646,4.59622 -2.23463,7.63932 5.44137,6.40188 -4.39349,2.07082 4.01475,12.19765 -3.77488,2.65168 1.14887,7.22262 9.93589,6.2251 -3.10575,5.85892 3.30775,1.13642 -0.0126,6.31349 7.86537,1.51525 8.76176,13.59924 -2.73962,1.37635 2.44925,5.72001 -2.9795,13.6245 6.28724,7.22264 -6.75437,3.15675 2.19675,-3.85124 -2.41138,-0.55558 -3.81275,5.37909 -7.4235,-6.01043 -1.12363,4.58358 5.42875,6.84383 -0.94688,10.37937 -6.1105,1.38896 -5.16362,6.47764 -5.17625,-2.37386 -5.54239,2.23497 -5.35301,9.77328 7.60027,11.64207 5.71913,20.41782 -4.69651,29.42085 4.7975,6.78069 -5.97163,2.67692 4.38089,3.24513 1.03525,9.87429 -4.35564,4.54572 -3.9895,-5.59376 -5.03738,4.14165 -9.02688,-3.14411 -8.01688,7.87923 -9.20363,1.09855 -3.11837,6.51551 v 0 l -41.01865,-15.70795 -15.64238,3.75021 -6.89325,-10.69505 -3.09314,2.31073 1.7675,5.25282 -5.26463,-2.26022 -0.31562,-8.49796 -2.34826,1.03541 -3.19411,-5.24019 -2.03263,4.92452 -0.92162,-4.773 -4.07789,-1.09855 0.73225,3.18201 -7.42351,1.40159 -6.28725,11.47792 5.61814,4.14164 10.36512,-4.00274 1.86851,2.96734 -4.20413,6.28824 -4.53238,-4.54572 -5.05,3.76283 2.43662,2.86633 -8.37038,1.33845 -14.30412,-6.51551 -9.29201,7.51305 -11.81701,1.6415 -4.0905,-5.16443 -5.6055,-0.0758 -10.41564,6.6039 -4.69649,-3.43453 4.15362,-0.54296 0.51762,-4.12903 -8.20625,1.30058 -6.32514,-12.81638 2.929,-4.33105 0.69439,-17.37472 5.28987,-11.137 -4.25463,-7.47516 0.59338,-10.37937 9.35512,-21.84468 4.15364,-3.06835 -0.98475,-8.11914 8.585,-29.88805 10.68076,-14.12959 9.45614,-5.50536 11.50137,-19.96325 v 0 l 10.17577,-16.49083 2.55024,-16.4277 7.86538,-7.41203 -3.06788,-3.66182 4.59551,-13.574 -5.20151,-1.88142 -1.62863,-16.51608 v 0 l 4.25464,0.0379 6.89324,8.54846 4.41875,-3.29564 -1.66649,-8.52322 7.81488,-1.67938 0.77013,10.83394 9.7465,1.37634 0.74487,4.05327 5.37827,-1.36372 -1.76751,4.43207 -4.11576,-0.16416 -1.94425,7.14687 3.8885,1.85617 8.04213,-7.43728 0.12626,-5.97257 14.06426,-1.60363 -4.30513,-5.9473 z" />
   <path id="DE-BY" title="Bavaria" class="land"
      d="m 461.60382,602.99721 5.36563,-5.98518 2.76488,2.65166 4.91113,-1.43947 2.28512,5.44222 7.90325,2.15922 5.21413,12.60172 4.59551,-0.98491 3.15625,5.84629 4.25463,-1.09855 4.444,3.81335 0.63126,12.98053 8.79962,3.20726 1.18675,-5.85893 9.25413,0.87128 -0.0884,-3.87649 -10.41562,-5.7074 -0.20202,-3.15674 9.55714,-5.84628 8.3325,0.0126 3.93901,5.60638 10.49137,-2.37387 3.42138,4.54571 -0.94688,5.63163 8.47139,2.14658 2.66387,-11.54105 -2.95425,-14.95034 3.47188,0.40407 4.43138,-5.69477 6.84276,1.19956 -0.84589,8.44744 1.81801,3.09362 3.21938,-1.30057 3.15624,6.9827 20.70502,-5.619 3.66125,3.7881 7.9285,-4.26793 v 0 l 4.79751,4.40682 -0.46712,4.74775 9.93588,4.10376 v 0 l 3.15624,5.31596 -3.90112,3.29564 9.98639,10.15209 -1.30038,7.42466 6.07262,4.11639 -1.12362,2.26024 18.43252,9.63438 -0.97213,5.63162 5.59287,1.90668 -6.02213,16.69286 -5.555,5.46748 9.494,6.95746 0.505,8.46007 2.61338,-0.18939 2.36087,10.10157 4.36826,1.78041 1.06049,11.01072 8.05476,4.89927 1.84326,5.89679 13.16788,0.36619 6.83012,4.92451 12.06951,20.54409 8.90064,2.27287 8.383,7.95499 0.79538,8.1949 7.39825,5.55587 2.94162,-4.00274 7.84014,3.04309 3.39613,8.42219 5.34037,-0.71974 8.19363,13.97806 -3.64862,6.85646 3.44662,2.04556 -1.14887,10.22786 -7.36038,12.07138 -17.9149,-9.11666 -5.63074,3.82596 v 15.45543 l -8.42089,12.65222 -25.18689,8.22016 -21.1595,15.83423 0.34087,6.43976 9.02689,13.18256 5.12574,2.36124 5.26463,11.22538 -7.68863,15.0261 h 8.77438 l 5.11313,4.35631 -2.73963,23.20838 -3.50975,3.34615 -16.56401,-10.94758 -1.30038,-3.05574 3.535,-3.68707 -5.26463,-4.60884 1.90639,-2.65168 -14.32939,0.0884 -2.33562,4.77299 -6.31251,0.92177 -4.72175,-8.32117 -14.85963,1.90668 -0.26513,-7.60145 -7.14575,5.08867 3.19413,11.16225 -15.56664,-2.27286 -13.19313,5.13918 -16.72814,-1.50261 -5.16362,9.43235 -11.24889,0.20203 -3.96425,4.86139 3.01737,3.29564 -6.77963,-0.54295 -5.56761,6.1872 -3.58552,0.23992 2.33564,-3.90173 -3.82539,-0.68187 -7.24675,4.43207 -11.18576,-0.21465 -3.33299,-9.77328 -5.32776,-0.17678 3.88851,-3.66182 -2.39876,-2.84107 -8.787,2.7148 -14.37988,-6.47763 -2.10838,4.15427 -3.91375,-0.15153 -5.46663,-2.437 2.04526,-3.52293 -3.43401,0.10099 3.01737,17.93031 -3.19413,6.11145 -8.50925,9.01567 -12.423,4.20478 4.91113,-13.30884 -4.35564,-1.2627 -6.81749,4.46995 -0.41664,-11.64206 -7.48662,-3.5103 -2.43664,-7.51306 -7.81487,2.13397 -4.73438,-2.36124 -1.13624,-5.60639 -5.22676,7.33627 -10.94588,-1.70464 v 0 l 3.11837,-6.52814 9.20363,-1.08592 8.01689,-7.89186 9.02687,3.14411 5.03738,-4.14164 3.9895,5.59375 4.35563,-4.54571 -1.03524,-9.8743 -4.38089,-3.24513 5.97163,-2.67692 -4.7975,-6.78068 4.69651,-29.42086 -5.70651,-20.41782 -7.60026,-11.6547 5.35301,-9.77328 5.54237,-2.23497 5.17627,2.37387 5.16362,-6.47763 6.1105,-1.38898 0.94687,-10.37937 -5.42875,-6.85644 1.11101,-4.5836 7.4235,6.01044 3.81274,-5.39172 2.41139,0.56821 -2.19675,3.85123 6.75437,-3.15674 -6.28724,-7.23526 2.9795,-13.62451 -2.46188,-5.72001 2.75225,-1.37635 -8.77438,-13.59924 -7.86538,-1.51525 0.0126,-6.31348 -3.30775,-1.13643 3.10575,-5.85891 -9.94851,-6.2251 -1.14887,-7.22263 3.77488,-2.66429 -4.01475,-12.18503 4.39349,-2.07083 -5.44137,-6.41451 2.23463,-7.62669 -4.65863,-4.59622 -3.72438,7.58881 -7.32251,0.101 -0.98475,-12.03352 -4.50711,4.53309 -3.83801,-1.23744 4.8985,-6.8817 -5.82012,-14.92508 -5.02476,5.32857 -2.10838,-4.88663 -4.57024,4.98765 -2.27251,-2.13396 1.94425,-10.82132 -6.60288,1.08593 -0.46712,4.77299 -4.79751,-5.50536 -15.06163,2.56328 -1.5655,3.69969 6.26201,1.19957 -1.22463,3.05573 2.32299,-3.29563 2.60076,2.38649 -1.04788,8.22015 -8.25676,-1.21218 -5.21413,9.15455 -10.92062,0.42932 v 0 l -2.90375,-5.21494 6.50188,-15.06398 -3.25726,-2.22235 2.18413,-2.9042 -3.56025,-1.13643 -0.3535,-6.86907 -4.00213,0.31568 -1.45187,-16.68025 2.51238,-1.94454 -1.65389,-5.8463 -4.20412,-0.95965 1.70437,-5.45486 9.78438,-4.34366 2.60076,4.35629 5.59287,-7.18474 11.96851,2.20972 5.12575,5.87155 6.29989,-1.27533 -0.97213,-18.3975 13.20576,1.02278 -0.82062,-4.73512 7.43612,-4.86139 1.23726,-14.53364 11.2615,2.68955 9.40563,-7.94237 z" />
   <path id="DE-BE" title="Berlin" class="land"
      d="m 737.96524,324.82495 0.0884,0.0505 v 0 l 3.6865,3.10624 -1.17413,6.94483 11.85489,8.27066 -3.69913,7.66459 11.89276,3.76284 -8.90064,13.7634 -0.31562,-5.03816 -13.20577,-2.48753 -1.07312,-3.15674 -3.73701,1.30059 -0.0252,4.48256 -9.84751,-5.34121 -13.64763,3.39667 -2.94162,-2.84107 6.2115,-12.85427 -4.01476,-0.99752 0.93425,-9.16719 7.07001,-0.17678 0.32825,-5.31596 3.45926,0.0758 1.55287,-4.4447 6.16101,4.92452 8.92588,-3.6492 -0.92164,-2.42438 v 0 l 1.14889,-0.66923 v 0 l 0.47975,0.1389 v 0 z" />
   <path id="DE-BB" title="Brandenburg" class="land"
      d="m 560.16726,264.40486 10.12526,1.50261 2.27249,-3.99012 8.93851,2.09607 1.515,-11.31376 9.3425,-4.73511 5.12577,3.58606 6.99425,-0.94703 -1.74225,-3.81335 5.12574,0.6061 13.09214,-6.99535 1.93163,-9.65963 9.9485,4.38156 4.89851,-2.58853 2.24725,4.70986 10.79437,3.182 4.20413,6.86907 17.42251,-0.56821 1.80539,3.66182 5.78224,0.37882 1.07313,4.8235 15.74339,-1.75515 -1.70438,3.47241 4.9995,1.09855 11.64027,-11.137 6.51449,4.5836 5.58026,-8.6116 8.50925,4.3058 2.4745,-6.7428 3.82537,0.78287 3.01739,-3.67445 2.29775,-10.63191 6.08525,-1.56575 7.05739,-9.60912 7.94112,-0.54297 -3.06788,-3.93961 1.47713,-6.04832 6.77963,7.32364 3.14362,11.17488 26.05801,-0.84601 -1.12362,9.33133 -10.31463,13.09417 13.16788,0.35356 4.50713,-6.90695 7.58764,-2.62641 v 0 l 2.82799,9.11667 -5.68125,8.51059 -1.03525,16.2004 -17.63714,15.64483 1.313,10.20259 -3.04262,6.16196 18.39463,11.61682 23.05327,23.61245 -2.75225,5.08866 2.3735,5.65689 -7.97901,12.5891 4.68388,15.90999 9.75913,4.92452 -2.5755,15.73321 6.19888,6.62916 -5.13838,21.40272 -8.37037,9.68489 13.40776,21.6679 -2.18413,10.07633 v 0 l -2.67651,-2.03295 -1.414,5.7579 -5.16362,0.37881 -3.82539,-3.90174 -14.41776,4.96241 -4.43137,4.9624 -15.74338,-5.15181 -3.9895,8.54846 -4.38089,0.1389 2.29776,3.95225 -5.13838,9.23031 -3.18149,-3.00521 -14.94801,4.36893 -18.5209,-0.8839 -11.57713,-10.7708 -1.69174,3.62394 -4.40613,-1.47736 -4.53238,6.6923 -4.21676,-1.45211 -3.16887,-4.09113 2.58812,-12.37444 -5.12574,-5.79578 1.41398,-3.20726 -8.69863,-6.81856 v 0 l 10.70602,-9.11668 -3.77488,-21.13756 -7.8275,1.12381 0.31561,-3.75022 -5.83274,0.0631 -1.22462,-4.65936 h -8.52189 l -0.59337,-4.26791 -5.22675,0.66922 -8.73651,-6.41449 -4.73438,3.90173 -5.83276,-0.45457 -4.87325,-6.21247 -3.58551,2.22234 -17.43512,-19.92536 6.36299,-7.72771 -4.16624,-3.13149 4.97425,-12.37444 -2.727,-9.00304 4.62075,-8.30854 -7.1205,-5.83366 -4.60813,3.35877 0.36612,-4.86139 -3.71174,0.30306 2.0705,-12.5891 4.81012,-0.53033 -2.4745,-11.7936 4.73438,-11.49055 -1.94425,-7.50042 -3.16888,-2.20972 -5.555,3.3714 -0.1515,-5.39171 -11.61502,2.437 -11.817,-4.52046 0.79538,-5.72002 -8.20626,-4.89926 -3.82538,1.55311 -1.38874,-4.10376 -4.07789,-0.4672 1.11101,-3.56081 -3.1815,0.30305 v 0 l -11.74125,-5.73264 -9.20364,3.08097 z m 177.38136,62.69294 -8.92588,3.6492 -6.16101,-4.92453 -1.55287,4.4447 -3.45926,-0.0758 -0.31562,5.31596 -7.07001,0.18941 -0.94688,9.16717 4.01476,0.98491 -6.2115,12.86688 2.94162,2.84108 13.63501,-3.39666 9.84751,5.34121 0.0252,-4.48258 3.737,-1.30058 1.07313,3.15675 13.19314,2.48751 0.31562,5.03816 8.90064,-13.7634 -11.89276,-3.75021 3.69913,-7.6772 -11.85489,-8.27067 1.17413,-6.94484 -3.6865,-3.10623 v 0 l 0.21463,-0.73236 v 0 l -0.47975,-0.12627 v 0 l -1.14889,0.6566 z" />
   <path id="DE-HB" title="Bremen" class="land"
      d="m 336.7425,250.4268 0.909,-0.12627 v 0 l 7.80227,2.13397 -1.55289,2.75268 3.52239,2.58853 16.58925,1.04803 2.73963,4.39419 6.52713,-2.7653 3.10575,3.44716 -2.828,1.37634 3.34562,2.53802 -0.69438,6.83119 -3.69911,4.31842 -5.55502,-3.5103 -3.54761,2.65168 -4.02739,-4.41944 -4.33038,1.85615 -7.979,-17.09692 -8.7365,-4.09114 v 0 0 0 l -1.65389,-4.09114 v 0 z m 2.44926,-51.05086 11.23626,-0.55559 -3.42138,4.74775 1.212,10.69505 -4.72176,1.26269 -1.47712,-5.03816 v 0 l 1.79274,-2.32336 z" />
   <path id="DE-HH" title="Hamburg" class="land"
      d="m 436.48006,205.95459 3.29513,-10.13945 5.23938,6.12408 5.656,-8.90202 5.82014,0.82075 1.61599,-4.70986 5.35301,0.42932 1.26249,-5.74528 7.08263,-2.47488 1.93162,1.99506 -3.95162,6.21247 6.26201,5.95993 -1.84326,6.5029 -3.86325,1.70464 0.89637,6.85644 3.96425,0.23992 9.26677,9.71014 -1.42662,2.08345 v 0 l -5.59289,5.02554 h -5.17626 l -9.86012,-9.06617 -5.4035,6.37663 -5.59289,0.31566 -0.95949,-5.69476 -3.37088,3.53556 -4.39351,-4.48258 -2.63861,-12.22291 z" />
   <path id="DE-HE" title="Hesse" class="land"
      d="m 414.05806,458.58249 14.06425,1.36371 5.12574,7.61408 -4.83537,-0.92177 1.35087,4.20478 -3.30774,-1.23745 -1.59076,5.72002 4.59552,5.97256 0.10097,6.71756 -5.30251,2.18446 -0.77012,5.03816 -2.9795,-0.64397 2.41138,2.8537 13.88751,6.37662 3.10574,-5.32858 -2.68912,2.20971 -2.9795,-5.69476 7.77701,-2.77793 -0.23988,-2.89158 5.59287,4.69723 -1.1615,-5.53061 4.10313,-0.39143 2.10837,5.42959 v 0 l 3.56027,11.6547 6.69124,0.75761 1.0605,6.66705 13.54664,5.2402 -3.06789,9.33133 -2.65124,-5.13918 -3.72438,1.76778 4.43137,2.92946 -2.68911,7.24787 5.18887,3.10625 -0.0757,3.49767 -13.29412,-0.66923 -1.59075,4.028 3.52237,4.68461 -9.09,0.31567 3.01738,1.33846 -1.30037,3.01786 3.24462,-1.75515 3.90112,5.00028 -2.67649,6.11145 -5.99689,1.70464 -6.14837,22.91796 6.71651,1.37634 -0.505,-4.78562 8.07999,-0.47983 2.29776,6.13671 -3.64863,1.50262 0.37874,11.94511 v 0 l -1.89374,6.23773 -9.40563,7.94237 -11.2615,-2.68955 -1.23726,14.53365 -7.43612,4.86138 0.82062,4.73512 -13.20576,-1.02278 0.97213,18.3975 -6.29989,1.27533 -5.12575,-5.87155 -11.96851,-2.20972 -5.59287,7.18475 -2.60076,-4.3563 -9.78438,4.34367 -1.70437,5.45486 4.20412,0.95964 1.65389,5.8463 -2.51238,1.94455 1.45187,16.68024 4.00213,-0.31568 0.3535,6.86907 3.56025,1.13643 -2.18413,2.90421 3.25726,2.22234 -6.50188,15.06398 2.90375,5.21494 v 0 l -2.4745,1.55312 4.30513,5.94731 -14.05165,1.61625 -0.12624,5.95993 -8.04214,7.4373 -3.8885,-1.85617 1.94425,-7.14687 4.11577,0.16415 1.76749,-4.44469 -5.37826,1.36371 -0.74487,-4.05326 -9.7465,-1.37634 -0.77012,-10.82131 -7.81489,1.67938 1.6665,8.52321 -4.41875,3.29564 -6.89325,-8.54846 -4.25463,-0.0379 v 0 l -5.08788,-13.4351 9.65814,-8.69998 -4.46926,-0.7955 -3.52237,-6.75544 -4.62077,-19.11724 -11.12263,-7.32365 -24.01275,7.90449 -9.00164,-10.70767 5.18888,-3.28302 1.11101,-5.40435 6.27462,3.04311 0.202,-5.18969 -3.87588,-3.0431 2.08314,-4.38156 6.27463,-4.31843 3.59811,2.74006 0.30301,-6.90696 5.64338,1.32583 1.02262,-4.84875 -4.77225,-9.44498 -7.73913,-4.62147 3.76225,-5.35384 -1.24988,-9.04092 3.88851,-4.12901 4.7975,3.03046 2.60075,-2.19709 -0.89638,-17.00853 v 0 l 3.44664,-6.16197 -2.70176,-7.0206 10.69338,-11.59156 7.41089,2.50014 8.14312,-7.36152 -0.13888,-5.9852 6.35039,-6.83119 -2.80276,-7.74033 17.53614,-3.81335 -1.94425,-3.5103 5.73175,-9.16718 -3.66125,-8.30855 -10.16313,3.40928 -3.09313,-3.87647 5.06263,-7.53831 5.959,-5.21494 19.64452,-1.62888 0.73225,-4.92452 -4.50714,-6.99534 10.25152,-4.67199 5.858,2.92945 0.3535,6.51553 9.69601,-1.8688 12.524,-17.00852 -2.79013,-3.03048 z" />
   <path id="DE-MV" title="Mecklenburg-Vorpommern" class="land"
      d="m 764.74287,122.86908 5.25201,9.20508 11.55188,6.55341 16.86702,16.92013 -3.37089,2.03295 2.23463,6.27561 -14.10212,-0.94703 -7.84015,4.12902 -0.93424,-4.15427 -1.37612,4.24266 -6.86802,-0.99753 8.96376,-7.98025 -2.34824,-10.92233 4.444,0.0126 -0.46713,7.43729 2.00739,-3.72496 4.60811,2.6643 0.56813,-5.77054 -6.19888,-10.88444 -4.87326,0.10099 1.30038,6.43976 -0.35349,-2.5759 -4.98688,4.70987 -0.29038,-6.51553 -7.05738,3.91437 3.40876,-12.14716 -5.10051,-6.91959 z m -88.93055,-35.97425 2.03263,1.818291 -4.31775,-0.138899 z m -13.90013,-7.336278 2.58814,3.889118 28.41888,1.136427 0.78275,2.487511 -9.93588,2.5759 -13.29413,-2.335981 -8.181,8.384303 13.74863,-6.427126 -2.46188,5.581127 1.93164,-3.851238 2.82798,3.889117 4.11577,-3.5103 2.03261,7.159487 9.02689,-9.545991 8.57239,-3.118865 -0.31563,5.35384 5.37824,4.002755 0.9595,11.856724 6.00951,1.67939 -2.828,2.29812 3.44663,-1.79304 8.20626,4.31843 2.94162,6.99534 3.58549,0.29043 -4.31774,2.97996 8.04212,-1.95719 -2.82799,4.07852 2.27249,-1.57838 4.65864,9.48288 2.62599,0.10099 -0.808,-5.26545 17.73814,-6.13672 -1.01,2.7148 8.3325,6.95747 -4.6965,9.60914 13.71076,14.50839 -7.22151,6.18722 -0.58074,4.60884 22.96488,13.96544 13.23102,-1.14906 -4.17888,6.2251 5.23938,2.14659 10.61763,48.15928 v 0 l -7.58764,2.62641 -4.50713,6.90695 -13.16788,-0.39143 10.31463,-13.08154 1.12362,-9.33134 -26.05801,0.846 -3.14362,-11.17487 -6.77963,-7.32364 -1.47713,6.04832 3.06788,3.93962 -7.94112,0.54295 -7.05739,9.60913 -6.08525,1.56575 -2.29775,10.63192 -3.01739,3.67444 -3.82537,-0.78287 -2.4745,6.74281 -8.50925,-4.3058 -5.58026,8.6116 -6.51449,-4.5836 -11.64027,11.13699 -4.9995,-1.09854 1.70438,-3.47243 -15.74339,1.75515 -1.07313,-4.8235 -5.78224,-0.37881 -1.80539,-3.66181 -17.42251,0.56821 -4.20413,-6.86908 -10.79437,-3.182 -2.24725,-4.70986 -4.89851,2.58853 -9.9485,-4.38156 -1.93163,9.65964 -13.09214,6.99534 -5.12574,-0.6061 1.74225,3.81335 -6.99425,0.94702 -5.12577,-3.58606 -9.3425,4.73512 -1.515,11.31377 -8.93851,-2.09608 -2.27249,3.99013 -10.12526,-1.50262 v 0 l -6.70388,-1.93192 1.03526,-5.84629 -8.62288,-4.48258 -8.20626,-16.07413 -5.58026,-2.00769 -6.65337,5.89679 -10.92063,-8.87676 -8.39563,0.85863 v 0 l 3.05524,-12.07139 15.46564,-8.01813 -0.21463,-8.27067 7.09525,0.45458 3.34563,-10.46776 -2.34825,-6.90696 -5.84538,-0.36618 -7.38562,-6.76806 1.07312,-16.44033 8.74913,-7.09636 2.4745,3.62394 4.35563,-1.30057 -5.79488,-2.04557 0.83326,-4.59622 v 0 l 10.88276,-6.75543 11.34987,-1.22482 6.4135,4.28055 -0.16412,6.6039 6.28726,-3.24513 9.97375,8.52321 1.91901,-9.62176 -3.05527,1.13644 -0.0757,-5.41698 -1.08574,4.98765 -3.47187,-0.5177 -0.17677,-4.97503 8.40827,-2.77793 -0.0252,7.52567 2.3735,-8.801 4.36826,-0.31568 4.14099,-7.74033 -1.70437,-1.7299 -5.89588,7.50042 -0.34087,-3.4724 12.25887,-10.78345 13.44563,1.01015 22.3589,-5.30333 4.88588,-7.38678 12.08213,-8.01813 z m 49.54054,-16.642351 -6.51451,19.937994 2.79013,-18.283863 z m 22.95226,-11.263262 -4.51975,6.881702 3.49711,7.689834 17.22052,-0.9344 3.54764,2.904208 -8.34515,16.086768 3.11839,6.010442 4.74701,0.479824 7.56236,8.194907 -4.46925,9.962676 -0.68174,-3.78809 -4.51976,-0.17677 4.68388,-4.01539 -7.56238,1.38898 6.02214,-4.810891 -5.56764,2.979961 -2.49975,-3.207237 -6.565,1.527863 -12.05689,9.962674 0.42925,3.19464 0.58075,-2.38651 4.26726,1.37635 -2.07051,4.4952 -8.15575,-4.01538 2.49975,0.71973 0.98475,-4.55834 -5.26463,3.40929 -5.49188,-2.26023 -0.49237,-3.63657 -4.31775,2.02032 3.59813,-2.52539 -5.66863,-4.40682 1.04788,-5.315961 10.69338,-1.830909 -3.939,-6.288228 -4.93639,0.997528 2.2725,-4.583599 -4.59549,1.136439 3.87587,-6.149341 4.63339,1.048038 -2.27251,5.151801 5.75701,-4.495198 -3.40876,-0.77024 0.22724,-3.472422 -4.8985,0.391436 -2.08312,-5.315961 8.04212,-1.212185 4.81014,5.631625 -0.56813,-5.35384 4.62075,-3.775455 -1.28774,4.394178 2.95425,-1.54048 2.96687,9.116664 3.09313,3.106247 4.20412,-1.363715 0.68176,-11.629449 -5.3025,1.90668 -6.09789,-8.712623 -10.15051,7.664572 3.30776,-11.970362 -9.92325,12.046133 6.83012,-13.738155 z" />
   <path id="DE-NI" title="Lower Saxony" class="land"
      d="m 201.74331,200.27246 -7.62552,2.02032 2.19676,3.83859 -7.24676,-3.97749 7.65076,-4.773 z m 47.30589,-18.47327 2.96688,2.39913 -6.29987,-1.12381 z m 14.25364,-3.19463 4.22938,1.85617 -13.3194,2.95472 1.14889,-4.12902 z m 11.65288,-3.10623 7.575,1.38897 -11.90539,2.34862 z m 13.91276,-1.80566 6.02212,2.74006 -9.98637,-1.55313 z m 63.83204,-13.25832 6.60287,7.56355 9.89801,1.7299 10.1505,-2.34862 -1.27513,-4.48257 v 0 l 16.48826,-0.70711 8.42089,3.57343 15.41513,21.63001 3.58551,10.41726 14.4935,8.15702 v 0 l 3.57289,0.44195 2.62599,12.23554 4.39351,4.46995 3.3835,-3.53556 0.94687,5.68214 5.60551,-0.31567 5.4035,-6.37663 9.86012,9.06617 h 5.17626 l 5.59289,-5.02554 v 0 l 23.07851,9.33134 v 0 l 8.39563,-0.85863 10.92063,8.87676 6.65337,-5.8968 5.58026,2.00769 8.20626,16.07414 8.62288,4.48258 -1.03526,5.84629 6.70388,1.93192 v 0 l 5.74438,8.85151 9.20364,-3.08097 11.74125,5.73264 v 0 l -3.40876,4.91189 -3.76225,-0.88389 -0.56812,8.68737 -15.21314,8.3338 -24.75763,-4.40682 -5.25201,7.77822 -13.91276,1.41422 2.49975,17.0843 2.43662,-0.3283 7.3099,14.14221 4.55761,-1.84354 -3.11836,7.42466 5.70649,9.53336 -5.08788,0.22729 -0.89637,4.34368 11.32462,11.28853 -7.373,4.38156 8.20626,14.76093 -5.79488,3.97749 3.74963,3.3209 -1.21201,5.06342 -8.16837,4.05325 1.80538,6.04832 -21.36151,0.89652 -11.11002,5.92206 7.15839,6.11145 -3.05526,2.51277 2.95426,6.18722 -5.80751,5.45485 -0.2525,4.88664 10.13789,21.97093 v 0 l -4.9995,2.82845 1.43924,7.89186 -4.07788,-2.7148 -6.98162,3.30826 -6.93114,-4.93714 -5.06262,0.60609 -5.73175,12.08402 -5.25201,2.99259 -2.525,-1.99507 -3.87587,7.03324 -6.88063,1.72988 -1.7675,-2.46225 -9.53189,7.99287 v 0 l -2.10837,-5.4296 -4.10314,0.39144 1.16151,5.53062 -5.60551,-4.69724 0.23988,2.87895 -7.76438,2.77794 2.96688,5.70739 2.70174,-2.20972 -3.11837,5.31596 -13.8875,-6.37663 -2.41138,-2.85369 2.9795,0.64397 0.77013,-5.03816 5.3025,-2.17185 -0.10097,-6.71754 -4.58289,-5.97256 1.59075,-5.72001 3.29512,1.23743 -1.33824,-4.20478 4.82274,0.92177 -5.11311,-7.61407 -14.06426,-1.36371 v 0 l -6.13576,-0.44195 0.0126,-12.07138 5.73176,-6.61653 1.12363,-8.64949 -10.908,0.92177 1.31298,-6.98272 -5.42875,-3.13148 0.0757,-5.32859 -5.31514,1.60363 -2.66387,-2.61379 1.52763,-11.64207 -4.83538,-3.29564 1.60338,-4.55834 -11.47614,-0.71973 -2.09574,-7.82873 4.67125,1.42685 -0.63126,-5.30333 3.29513,-0.97228 -8.9385,-6.32612 12.66288,-16.3393 -2.31038,-5.18968 3.40876,-4.33106 -3.00475,-2.75268 -3.78751,-0.36618 -9.31726,12.96791 -6.55237,1.62888 -11.96852,-0.80813 -0.41661,-14.29374 -4.07789,-3.57343 -7.60025,4.30579 -4.38088,-1.71726 -6.83012,8.88939 -9.16576,-1.85617 1.07313,7.24789 10.26413,5.44223 -0.11363,19.31927 5.98426,3.93961 -8.88802,9.64701 -9.696,-3.20725 -7.53712,8.13177 -12.89013,0.50508 -4.12839,4.3563 -7.71388,-6.30086 9.89801,-4.10376 1.47713,-6.18722 -10.02426,-5.46748 4.50714,-8.1949 -2.00739,-4.55834 4.82275,-0.9344 -4.43138,-7.31102 -18.00325,-4.68461 -1.98212,-6.81857 -6.48926,-2.89158 -3.45925,5.63164 3.0805,1.36372 -1.616,5.98518 -23.09114,14.59678 -18.78601,2.92946 v 0 l -3.01738,-6.33874 3.81275,-10.97285 -6.66601,-12.36181 -3.939,4.28056 -14.847,-3.58607 -4.81014,-3.19463 -1.42662,-8.73786 6.98164,-1.36371 -4.3935,-8.43483 3.19412,-2.84107 24.41676,0.71975 2.626,-27.43842 10.45351,-20.91027 -3.05525,-17.63988 3.83801,-5.3791 -1.42664,-8.63686 2.89114,-10.27835 5.07524,-0.23992 -23.68451,-2.86631 1.52762,-25.8348 5.31513,4.64673 -4.67124,-5.00029 5.10049,3.39666 3.16889,-4.07851 -4.35564,-5.01291 12.48614,-12.3113 9.38037,-2.28549 13.19314,2.18448 14.36725,-6.57866 0.0252,2.66429 8.26938,-1.46473 2.27249,-3.20724 -1.99475,3.68706 17.43514,-0.15151 1.37613,8.92726 5.87062,0.77026 4.43138,13.66238 -8.96375,4.11639 0.22724,3.91437 11.08477,9.69751 5.31512,-0.17678 3.69913,-6.95746 -0.23988,-8.59897 -6.666,0.1389 4.31776,-12.29867 4.51975,-0.15153 10.18838,8.01813 4.38087,-0.79551 3.04263,4.74775 v 0 l 1.47713,5.03816 4.72175,-1.26269 -1.21199,-10.69505 3.42137,-4.74775 -11.23626,0.5556 v 0 l -3.131,-12.03352 5.27725,-16.40243 5.15101,-8.96516 z m -16.03377,89.84093 v 0 l 1.65389,4.09115 8.73649,4.09113 7.979,17.09692 4.33039,-1.85617 4.02738,4.41946 3.54762,-2.65168 5.55501,3.51031 3.69912,-4.31844 0.69438,-6.83119 -3.34562,-2.53802 2.82799,-1.37633 -3.10575,-3.44718 -6.52713,2.76531 -2.73963,-4.39418 -16.58925,-1.04805 -3.52239,-2.58853 1.55289,-2.75267 -7.80227,-2.13396 z" />
   <path id="DE-NW" title="North Rhine-Westphalia" class="land"
      d="m 221.91806,381.05287 18.78601,-2.92947 23.10377,-14.59677 1.616,-5.9852 -3.0805,-1.36371 3.45925,-5.63163 6.47663,2.89158 1.98213,6.81856 18.00325,4.68461 4.43138,7.2984 -4.82274,0.93439 2.00737,4.55833 -4.50713,8.19491 10.02425,5.46749 -1.47713,6.18721 -9.898,4.10377 7.70125,6.31349 4.12839,-4.35631 12.89013,-0.5177 7.53712,-8.13177 9.696,3.20724 8.87539,-9.64701 -5.98425,-3.93961 0.11362,-19.31927 -10.26414,-5.44223 -1.07311,-7.24788 9.16575,1.85616 6.83012,-8.87676 4.39351,1.70464 7.60025,-4.29317 4.07789,3.57344 0.41663,14.29373 11.9685,0.80813 6.55237,-1.64151 9.31726,-12.95528 3.78751,0.36619 3.00474,2.75268 -3.40875,4.34368 2.31038,5.17706 -12.66288,16.33931 8.9385,6.3261 -3.30776,0.95965 0.63127,5.31596 -4.67127,-1.42684 2.08313,7.81609 11.47614,0.71974 -1.60338,4.57097 4.83538,3.28301 -1.52763,11.64207 2.66387,2.62641 5.32776,-1.60362 -0.0757,5.32858 5.42875,3.13149 -1.31299,6.98271 10.908,-0.92177 -1.12363,8.64949 -5.74438,6.61653 v 12.0714 l 6.13577,0.44193 v 0 l -9.16577,4.15428 2.79013,3.03048 -12.524,17.00852 -9.69601,1.8688 -0.3535,-6.51552 -5.858,-2.92946 -10.25152,4.67199 4.50714,6.99534 -0.73225,4.92452 -19.64452,1.62889 -5.959,5.21494 -5.06263,7.5383 3.09313,3.87648 10.16313,-3.40929 3.66125,8.30855 -5.73175,9.16719 1.94425,3.5103 -17.53614,3.81334 2.80276,7.74033 -6.35039,6.8312 0.13888,5.98519 -8.14312,7.36153 -7.41089,-2.50014 -10.69337,11.59155 2.70175,7.0206 -3.44663,6.16198 v 0 l -6.76701,-1.51525 -5.83276,-9.89955 0.0252,-8.9399 -11.29937,-4.67197 1.78012,-5.79579 -4.62075,-1.84354 -4.58287,3.09361 2.1715,9.31871 -8.20626,3.05573 0.87112,5.00028 -6.37562,5.31596 -17.49827,2.67692 -3.15625,10.03844 -9.86013,2.02031 -0.93424,-3.18199 -4.38089,6.09883 -2.53762,-1.50261 -2.08312,3.32089 -2.72701,-2.55064 -4.67124,5.24019 -5.44139,0.53034 0.0506,3.34615 -3.91375,0.79549 1.45188,7.39942 -3.42138,2.00768 -4.59549,-4.92452 -4.48188,2.37387 4.36824,14.21797 -7.84012,3.06835 -2.60075,-4.31842 -2.4745,3.30826 -2.90375,-5.45484 -12.04426,6.43975 -3.19413,-6.6039 -0.65649,8.37169 v 0 l -5.06264,-7.24789 2.82801,-7.09636 -2.05788,-6.65442 -10.01164,-0.83338 -3.83799,-5.90942 7.28463,-10.64454 -7.37301,0.0126 -4.51975,-11.83147 -6.61551,0.0758 -1.0605,-6.90697 -4.22938,-2.89157 4.12838,-2.37388 -0.47975,-3.91435 4.43139,-0.0884 1.67911,-9.52075 -6.07261,-1.65413 0.44186,-6.30087 -10.25151,1.14906 -2.61337,-9.3187 3.87588,-2.34863 3.66124,3.90174 4.15364,-7.12161 13.19312,-8.39693 -2.79011,-2.0077 2.07049,-2.72742 -6.70388,2.84107 -0.85849,-8.99041 12.41038,-15.39229 -0.99737,-19.35715 -9.86014,-12.09664 2.03263,-6.51552 -6.767,-2.32336 0.93425,-5.55588 -7.13313,-2.82843 2.86587,-5.73265 -3.64862,-5.31596 9.56975,-5.27808 8.19363,3.09362 -3.78751,-7.91711 22.8134,9.72277 -0.82062,-6.14935 6.23675,2.72743 17.271,-8.30855 3.83801,2.39913 7.89063,-11.42742 -11.52664,-6.89432 0.54288,-4.05327 3.44662,-0.61872 1.94425,-5.6695 7.58764,-0.26517 10.39037,-13.75077 z" />
   <path id="DE-RP" title="Rhineland-Palatinate" class="land"
      d="m 168.91829,627.4683 0.65649,-8.37169 3.19413,6.6039 12.04426,-6.43975 2.90375,5.45484 2.4745,-3.30826 2.60075,4.31842 7.84012,-3.06835 -4.36824,-14.21797 4.48188,-2.37387 4.59549,4.92452 3.42138,-2.00768 -1.45188,-7.39942 3.91375,-0.79549 -0.0506,-3.34615 5.44139,-0.53034 4.67124,-5.24019 2.72701,2.55064 2.08312,-3.32089 2.53762,1.50261 4.38089,-6.09883 0.93424,3.18199 9.86013,-2.02031 3.15625,-10.03844 17.49827,-2.67692 6.37562,-5.31596 -0.87112,-5.00028 8.20626,-3.05573 -2.1715,-9.31871 4.58287,-3.09361 4.62075,1.84354 -1.78012,5.79579 11.29937,4.67197 -0.0252,8.9399 5.83276,9.89955 6.76701,1.51525 v 0 l 0.89637,17.00852 -2.60075,2.1971 -4.7975,-3.03047 -3.88851,4.12901 1.24988,9.04092 -3.76225,5.35384 7.73913,4.62147 4.77225,9.44498 -1.02262,4.84876 -5.64338,-1.32584 -0.30301,6.90696 -3.59811,-2.74006 -6.27463,4.31844 -2.08314,4.38156 3.87588,3.04309 -0.20199,5.18969 -6.27463,-3.0431 -1.11101,5.40435 -5.18888,3.28301 9.00164,10.70768 24.01275,-7.90449 11.12263,7.32364 4.62077,19.11725 3.52237,6.75543 4.46926,0.7955 -9.65814,8.69998 5.08788,13.4351 v 0 l 1.61599,16.51609 5.21413,1.88142 -4.59549,13.56137 3.06788,3.66183 -7.87801,7.41202 -2.55024,16.42771 -10.16314,16.49082 v 0 l -24.05064,-11.25063 -5.42876,2.99259 -5.8075,-3.93961 -9.70863,2.60115 -11.70338,-6.42713 -2.75226,-8.75049 -4.69649,0.53034 0.58075,-2.36126 -6.42614,3.1315 v 0 l -5.858,-9.83642 7.72651,-6.86908 1.23725,-9.33133 -8.88801,-2.39912 -3.16887,-5.46748 4.33037,-5.12655 -3.00475,-13.5235 -4.2925,2.31073 -14.98588,-9.20506 -7.03214,0.63135 -26.81551,14.38213 -18.35677,-4.04064 v 0 l -1.79274,-2.56327 5.87063,-11.99563 6.95638,-6.7428 0.93425,-10.77081 -7.878,-0.12627 -5.51713,-4.97503 -3.16888,1.55312 -7.13314,-7.61406 -0.87112,-6.26298 -3.68649,-0.45458 -5.31514,-13.25832 2.48713,-13.64976 3.9895,-1.7804 -1.16149,-6.59129 8.31987,-3.97749 2.46187,-6.6418 4.07789,2.03295 z" />
   <path id="DE-SL" title="Saarland" class="land"
      d="m 166.87302,723.59745 18.35677,4.04064 26.81551,-14.38213 7.03214,-0.63135 14.98588,9.20506 4.2925,-2.31073 3.00475,13.5235 -4.33037,5.12655 3.16887,5.46748 8.88801,2.39912 -1.23725,9.33133 -7.72651,6.86908 5.858,9.83642 v 0 l -5.56762,5.31596 -11.00901,-0.68187 -4.75963,-4.31842 -3.40875,5.20231 -1.717,-9.54599 -8.686,-4.01538 -7.04476,1.28795 -0.202,7.32365 -7.78963,-1.36372 -5.555,-14.21796 -8.29463,-8.24542 2.71437,-2.31075 -4.91113,-4.50782 0.99738,-2.80319 -9.93588,-6.32611 -4.94901,0.69448 z" />
   <path id="DE-SN" title="Saxony" class="land"
      d="m 641.92681,530.21533 -7.00689,-6.70493 0.32826,-12.26079 -4.242,-10.72031 3.96426,-1.08591 -3.85064,-17.12218 4.65863,-3.69971 2.09575,-9.33133 15.45302,-2.39912 1.40136,-3.51031 3.49713,1.85617 11.24889,-4.05326 -1.33826,2.02032 6.62814,-6.99534 6.43875,2.23497 5.89588,-4.84877 7.90325,6.02308 3.00475,-4.00276 5.92112,2.94209 v 0 l 8.69863,6.81856 -1.40136,3.19464 5.12574,5.79577 -2.60074,12.37444 3.16887,4.09114 4.21676,1.46473 4.545,-6.6923 4.40613,1.47736 1.69175,-3.62394 11.57712,10.7708 18.5209,0.89653 14.948,-4.38156 3.18151,3.01784 5.13837,-9.23033 -2.29775,-3.95223 4.39351,-0.15153 3.98949,-8.54846 15.74339,5.15181 4.43137,-4.97503 14.41776,-4.94978 3.83801,3.90174 5.151,-0.37881 1.414,-5.7579 2.6765,2.02032 v 0 l 0.47976,7.18474 17.30888,7.29839 2.14624,16.3772 5.18888,8.88938 -5.2015,25.19082 -14.61976,32.64073 -14.21575,-4.74774 2.44926,-9.34396 -6.79226,1.65413 2.65124,-8.62422 -8.06737,-4.5836 0.23988,-3.10624 -0.73226,2.95472 -6.64075,0.58085 -8.61026,-4.63411 -3.43399,8.64948 5.26463,0.32829 -1.16152,3.83861 6.94376,2.36125 -0.82062,4.84875 -9.68338,0.39143 -15.26364,10.54354 -14.22837,2.37387 -0.16414,6.17459 -3.35825,2.1592 -26.55039,2.79057 -0.13888,8.38431 -4.67125,4.54572 -7.62549,-5.89681 -3.96426,8.87677 -6.08526,-1.56575 -4.17888,11.1875 -13.14263,-0.80812 -0.89637,7.74034 -5.93376,5.73264 -10.302,-7.13424 -0.73225,3.58606 -1.212,-2.26022 -4.81014,2.12132 -2.32298,4.43207 -2.70177,-2.46226 -12.90276,2.51277 -14.61975,19.53393 0.47975,8.64948 -3.77487,-0.50508 0.30299,-5.53061 -4.35562,-3.14413 1.23725,-3.13148 -4.35564,-0.22729 -1.31298,-6.25034 -6.71651,0.5177 v 0 l -9.93588,-4.10376 0.46712,-4.74775 -4.79751,-4.40682 v 0 l -2.2725,-3.15675 4.35563,-0.6566 1.31301,-4.17952 -7.67602,-6.42714 10.55452,-12.1724 4.41874,10.50564 1.90638,-3.20724 6.67864,-0.0631 -1.08575,-6.66705 3.2825,2.0582 0.7575,-3.19462 5.12575,1.0733 4.29251,-4.23005 -4.44401,-3.92698 0.31562,-5.45486 -3.20676,-0.11359 5.08789,-5.66952 -3.10575,-4.78562 7.76438,-0.3283 2.17149,-3.8891 5.36564,1.37633 3.42137,-6.55339 13.74863,-3.15675 -3.73699,-9.78591 -8.09264,-2.62641 -0.31562,-5.84628 -13.38251,-5.11393 z" />
   <path id="DE-ST" title="Saxony-Anhalt" class="land"
      d="m 586.86916,275.89541 3.18149,-0.30305 -1.111,3.56081 4.07789,0.4672 1.38873,4.11639 3.82539,-1.55311 8.20625,4.89926 -0.79537,5.7074 11.817,4.53308 11.61501,-2.437 0.15151,5.37908 5.555,-3.35877 3.16888,2.20972 1.94424,7.48779 -4.73438,11.50318 2.4745,11.7936 -4.7975,0.53033 -2.08312,12.5891 3.71176,-0.30306 -0.35351,4.84877 4.5955,-3.35879 7.1205,5.83367 -4.62075,8.30856 2.72701,8.9904 -4.97425,12.38706 4.16624,3.13149 -6.363,7.72771 17.43513,19.92536 3.57288,-2.20971 4.87325,6.19984 5.83276,0.45457 4.73438,-3.8891 8.73651,6.41449 5.23938,-0.66922 0.59336,4.26791 h 8.52189 l 1.22462,4.65936 5.83275,-0.0631 -0.32824,3.75022 7.84012,-1.12381 3.76226,21.13756 -10.70602,9.11668 v 0 l -5.92112,-2.94209 -3.00475,4.00276 -7.90325,-6.02308 -5.89588,4.84877 -6.43875,-2.23497 -6.62814,6.99534 1.33826,-2.02032 -11.24889,4.05326 -3.49713,-1.85617 -1.40136,3.51031 -15.45302,2.39912 -2.09575,9.33133 -4.65863,3.69971 3.85064,17.12218 -3.96426,1.08591 4.242,10.72031 -0.32826,12.26079 7.00689,6.70493 v 0 l -2.6765,6.64178 3.30774,2.26024 -6.05999,10.35411 -2.49975,-4.67198 -13.40776,1.08592 -10.17575,-11.18749 -10.60502,1.6415 -7.24674,-8.82625 -14.77127,1.09853 -1.19937,-11.54104 -8.33252,-3.59869 8.81227,-9.68489 -6.38826,-10.96022 -6.22413,-3.77547 -26.39889,-0.97228 -3.72438,-15.43015 -4.82274,-5.25283 0.65649,-3.0431 2.84062,1.36372 -0.66912,-3.44717 -17.73813,-3.08098 v 0 l -10.13789,-21.97094 0.26513,-4.87401 5.79488,-5.46748 -2.95424,-6.18722 3.05525,-2.51276 -7.14577,-6.11146 11.11002,-5.92206 21.36151,-0.89651 -1.80537,-6.04832 8.16837,-4.05326 1.212,-5.06341 -3.74963,-3.33353 5.79488,-3.9775 -8.19363,-14.77355 7.36038,-4.36895 -11.32463,-11.30114 0.89637,-4.34368 5.08788,-0.22729 -5.70649,-9.53336 3.10574,-7.42466 -4.55762,1.84354 -7.30989,-14.14221 -2.43662,0.3283 -2.49975,-17.0843 13.91276,-1.4016 5.252,-7.79084 24.75763,4.40682 15.21315,-8.3338 0.55549,-8.68737 3.77488,0.87126 z" />
   <path id="DE-SH" title="Schleswig-Holstein" class="land"
      d="m 336.09863,83.510798 2.96688,3.093616 -2.44926,2.108707 -3.37088,-5.41698 z m 209.1585,-10.745559 11.88012,3.71234 6.77963,14.06645 -9.86012,-2.765309 -5.65601,2.702169 -2.70175,-6.250348 -5.18888,0.631341 1.99475,2.020318 -3.16888,-1.894037 1.65388,-9.217696 z m -208.46412,-0.366174 -1.14889,5.404349 -1.47712,-6.629165 z m 17.19525,-3.358784 -0.21462,7.891861 -6.80487,1.426855 -2.32301,-5.694765 z m -12.05688,-2.891577 1.60339,2.815819 -5.28988,-2.5759 z m -13.86225,-8.409564 1.18674,3.421911 -3.05525,0.568214 -5.61813,-7.828721 5.64338,-6.502897 -1.72963,3.447173 z m 11.4635,-16.225654 4.93639,1.464722 -1.57814,9.217696 -13.52138,-3.055725 2.28512,-6.351368 z m -7.03213,-41.16394451 2.23462,0.75762211 -5.59286,0.1767781 3.54761,4.1416418 -7.01949,6.5786555 1.40137,9.571253 4.51976,2.929456 13.97587,-1.325835 2.76488,-3.346153 25.07326,1.212198 23.19215,7.247876 1.12362,5.631637 3.61075,1.224816 3.98951,0.176778 5.28987,-5.808415 2.18413,7.424667 14.22838,-12.248173 -0.59337,6.401878 15.18789,4.760378 4.84799,6.07357 4.22938,-1.439474 -0.0126,-4.697237 4.12837,2.474893 6.47663,12.980521 -3.14363,-0.113588 2.96688,2.373874 -0.61862,16.440324 -5.05001,6.616535 -10.54188,4.040634 2.61338,3.623939 20.91964,-5.076042 5.99687,4.053252 -5.39087,19.887489 4.14099,-2.23498 3.38351,-11.907233 7.84013,-2.992597 22.15688,9.899547 8.33251,8.131783 6.93114,-1.0733 11.34988,-9.571243 7.58762,1.906668 7.01951,-4.129012 1.0605,3.560798 -5.51712,2.664289 2.87849,21.37748 -17.91489,15.45543 -4.91113,-2.92946 -4.65862,7.92974 2.6765,6.83119 6.86801,0.89652 2.6765,4.81088 v 0 l -0.83326,4.59622 5.79489,2.04556 -4.35564,1.30059 -2.4745,-3.62395 -8.74912,7.09636 -1.07312,16.44032 7.38562,6.76807 5.84538,0.36617 2.34825,6.90696 -3.34562,10.46776 -7.09527,-0.45457 0.21463,8.27068 -15.46562,8.01813 -3.05526,12.07138 v 0 l -23.07851,-9.33134 v 0 l 1.42662,-2.08344 -9.26676,-9.71015 -3.97688,-0.22729 -0.89637,-6.86907 3.87587,-1.70464 1.84326,-6.5029 -6.26201,-5.95993 3.939,-6.21247 -1.93162,-1.99506 -7.08262,2.47488 -1.2625,5.74528 -5.35301,-0.42932 -1.60337,4.70986 -5.83277,-0.82075 -5.65599,8.90202 -5.22676,-6.13671 -3.29513,10.15208 v 0 l -14.4935,-8.15703 -3.5855,-10.41725 -15.41514,-21.63 -8.42088,-3.57344 -16.48825,0.70711 v 0 l -7.91588,-8.20754 -1.89376,-9.3187 -6.19888,-2.89158 5.99688,-2.94209 6.32512,1.48999 2.14627,-3.00522 -4.59552,-10.08895 -5.64337,1.62888 -3.93899,-7.15951 2.44924,-15.31652 -10.44088,-0.82076 -2.56288,3.08098 -7.86538,-5.8084 2.15888,-6.389245 2.72699,2.045566 3.91377,-2.474893 -6.75438,-1.74252 1.01,-2.664289 20.38939,-2.550652 14.37988,-9.407092 -3.82538,-0.492455 -1.50238,-5.555867 -6.99426,8.359055 -7.32249,-1.477353 6.98162,-16.958027 -1.04788,-2.323364 -5.32775,1.69201 3.38351,-2.878947 -13.15526,-14.786193 -7.53714,-22.046701 -14.85962,5.063424 -5.94638,-4.520459 -4.77226,17.955556 1.31301,-22.362377 7.89062,-19.78646468 z" />
   <path id="DE-TH" title="Thuringia" class="land"
      d="m 514.60361,459.18859 17.73813,3.08098 0.66912,3.44717 -2.84062,-1.36372 -0.65649,3.0431 4.82274,5.25283 3.72438,15.43015 26.39889,0.97228 6.22413,3.77547 6.38826,10.96022 -8.81227,9.68489 8.33252,3.59869 1.19937,11.54104 14.77127,-1.09853 7.24674,8.82625 10.60502,-1.6415 10.17575,11.18749 13.40776,-1.08592 2.49975,4.67198 6.05999,-10.35411 -3.30774,-2.26024 2.6765,-6.64178 v 0 l 4.343,-1.67939 13.38251,5.11393 0.31562,5.84628 8.09264,2.62641 3.73699,9.78591 -13.74863,3.15675 -3.42137,6.55339 -5.36564,-1.37633 -2.17149,3.8891 -7.76438,0.3283 3.10575,4.78562 -5.08789,5.66952 3.20676,0.11359 -0.31562,5.45486 4.44401,3.92698 -4.29251,4.23005 -5.12575,-1.0733 -0.7575,3.19462 -3.2825,-2.0582 1.08575,6.66705 -6.67864,0.0631 -1.90638,3.20724 -4.41874,-10.50564 -10.55452,12.1724 7.67602,6.42714 -1.31301,4.17952 -4.35563,0.6566 2.2725,3.15675 v 0 l -7.9285,4.26792 -3.66125,-3.7881 -20.70502,5.61901 -3.15624,-6.98271 -3.21938,1.30057 -1.81801,-3.09361 0.84589,-8.44745 -6.84276,-1.19955 -4.43138,5.69477 -3.47188,-0.40407 2.95425,14.95034 -2.66387,11.54105 -8.47139,-2.14659 0.94688,-5.63162 -3.42138,-4.54571 -10.49137,2.37386 -3.93901,-5.60638 -8.3325,-0.0126 -9.55714,5.84628 0.20202,3.15675 10.41562,5.70739 0.0884,3.87649 -9.25413,-0.87127 -1.18675,5.85892 -8.79962,-3.20725 -0.63126,-12.98053 -4.444,-3.81335 -4.25463,1.09855 -3.15625,-5.8463 -4.59551,0.98491 -5.21413,-12.60171 -7.90325,-2.15922 -2.28512,-5.44223 -4.91113,1.43947 -2.76488,-2.65165 -5.36563,5.98518 v 0 l -0.37874,-11.94512 3.64863,-1.50261 -2.29776,-6.13671 -8.07999,0.47982 0.505,4.78563 -6.71651,-1.37635 6.14837,-22.91796 5.99689,-1.70464 2.67649,-6.11145 -3.90112,-5.00028 -3.24462,1.75515 1.30037,-3.01786 -3.01738,-1.33845 9.09,-0.31568 -3.52237,-4.6846 1.59075,-4.02801 13.29412,0.66924 0.0757,-3.49767 -5.18887,-3.10625 2.68911,-7.24788 -4.43137,-2.92945 3.72438,-1.76779 2.65124,5.13919 3.06789,-9.33134 -13.54664,-5.2402 -1.0605,-6.66704 -6.69124,-0.75761 -3.56027,-11.6547 v 0 l 9.53189,-7.98025 1.76751,2.44963 6.88062,-1.71727 3.8885,-7.03322 2.51237,1.99506 5.25201,-2.9926 5.73176,-12.08401 5.06261,-0.60609 6.91852,4.93714 6.99424,-3.30826 4.07789,2.7148 -1.43925,-7.90449 z" />
   <g id="stadiums" data-country="germany" data-circle-radius="12" data-circle-colors="#a149be,#bea149">
      <!-- <circle cx="100" cy="100" r="10" fill="#000000" id="Berlin" data-lat="52.514628"
            data-lng="13.239624" data-football-api-venue-id="694" data-stadium="Olympiastadion Berlin"
            data-city="Berlin" data-stadium-capacity="70 000" class="city" /> -->
   </g>
</svg>