<?xml version="1.0" encoding="UTF-8" standalone="no"?>
<?xml-stylesheet type="text/css" href="/styles/home.css"?>
<!-- https://www.amcharts.com/svg-maps -->

<svg version="1.1" xmlns="http://www.w3.org/2000/svg" id="map-gibraltar"
   viewBox="0 0 800.06274 1616.1414" width="800.06274" height="1616.1414">
  <defs
     id="defs4">
    <style
       type="text/css"
       id="style2">
			.land
			{
				fill: #CCCCCC;
				fill-opacity: 1;
				stroke:white;
				stroke-opacity: 1;
				stroke-width:0.5;
			}
		</style>
    <!-- <amcharts:ammap
       projection="mercator"
       leftLongitude="-5.3674154"
       topLatitude="36.1551188"
       rightLongitude="-5.3384194"
       bottomLatitude="36.1088348" /> -->
    <!-- All areas are listed in the line below. You can use this list in your script. -->
    <!--{id:"GI-GI"}-->
  </defs>
  <path
     d="m 582.7235,0.25235123 -185.15417,8.80218197 5.87983,77.0172588 -78.94138,5.069728 94.07537,21.98621 -172.19184,5.73444 -7.90742,-56.396755 -68.85018,67.057395 4.91565,42.7261 184.50922,-8.80617 7.26612,92.93392 L 23.085181,200.8469 0.25000653,229.19619 0.26130753,381.79381 12.030618,241.25583 l 72.635797,30.90981 -0.223182,76.97038 7.915892,-108.30002 45.828545,0.11545 -19.8095,172.96452 97.07562,76.23176 18.82637,157.40346 26.52474,-75.6607 30.2934,59.05883 32.20316,95.89486 -59.19968,21.12763 -32.56195,-66.00687 40.40439,94.63733 60.4512,-8.91966 -47.32868,45.97617 50.53232,144.09379 -70.76276,54.66113 -219.56854,-270.31844 286.91577,402.03834 48.874,-1.4164 -39.65291,34.3236 125.58356,227.8035 -24.27314,134.233 118.88529,76.6936 127.40575,-297.2608 20.55815,-727.20138 90.19089,-239.19903 -57.37751,-34.35141 27.77907,-240.667874 z"
     class="land"
     title="Gibraltar"
     id="GI-GI" />
</svg>
