<?xml version="1.0" encoding="UTF-8" standalone="no"?>
<?xml-stylesheet type="text/css" href="/styles/home.css"?>
<!-- https://www.amcharts.com/svg-maps -->

<svg version="1.1" xmlns="http://www.w3.org/2000/svg" id="map-greece"
   viewBox="0 0 918.76868 792.24194">
  <defs
     id="defs4">
    <style
       type="text/css"
       id="style2">
			.land
			{
				fill: #CCCCCC;
				fill-opacity: 1;
				stroke:white;
				stroke-opacity: 1;
				stroke-width:0.5;
			}
		</style>
    <!-- <amcharts:ammap projection="mercator" leftLongitude="19.375819" topLatitude="41.7448887" rightLongitude="29.609274" bottomLatitude="34.803673"></amcharts:ammap> -->
    <!-- All areas are listed in the line below. You can use this list in your script. -->
    <!--{id:"GR-A"},{id:"GR-B"},{id:"GR-C"},{id:"GR-D"},{id:"GR-E"},{id:"GR-F"},{id:"GR-G"},{id:"GR-H"},{id:"GR-I"},{id:"GR-J"},{id:"GR-K"},{id:"GR-L"},{id:"GR-M"},{id:"GR-69"}-->
  </defs>
  <path
     style="fill:#cccccc;fill-opacity:1;stroke:#ffffff;stroke-width:0.5;stroke-opacity:1"
     d="m 557.61274,147.73799 6.07,1.38 3.76,3.27 -0.29,5.19 -8.43,3.24 -3.79,-0.21 -10.42,-9.43 2.21,0.44 5.11,-3.87 h 5.78 z m -83.54,-34.03 3.2,2.04 2,-1 1.97,3.44 4.23,2.35 -2.45,1.73 0.23,1.55 1.95,0.42 0.09,2.22 -1.85,1.46 1.97,5.63 -0.74,2.24 -1.17,-1.35 -1.99,2.17 -4.32,0.91 -4.24,2.84 -0.36,-1.68 -3.29,-1.35 0.37,-1.66 -1.64,-1.64 -5.53,0.11 -1.49,-4.85 4.35,-11.72 2.15,-0.18 5.81,-4.41 z m 139.62,-111.6799961 1.43,-0.87 5.36,3.53 6.29,-0.11 1.75,1.68 9.88,3.12 -0.04,2.1300001 3.68,3.77 5.64,1.49 -0.07,9.96 1.8,12.03 1.53,0.82 0.61,3.97 -0.52,4.43 -3.14,2.67 -6.82,-1.46 -2.89,3.96 -2,0.64 -0.39,2.02 -2.1,0.38 -2.96,3.13 -4.23,0.43 -1.26,-1.21 -1.79,0.83 0.03,8.01 -1.49,1.22 2.74,3.73 -3.03,3.71 2.72,0.4 -1.99,4.26 1.33,3.75 3.59,2.49 -0.82,2.51 -2.89,1.66 3.04,4.64 -5.04,2.24 -1.37,-0.48 0.43,4.329996 -1.52,0.11 -2.31,1.42 -2.27,1.76 -1.23,4.36 -4.86,2.2 -2.49,4.64 -0.33,3.39 -4.48,1.75 -3.39,-0.29 -1.36,-7.75 3.73,-2.82 -1.28,-1.11 -2.83,0.14 -1.62,2.35 -3.96,-3.61 -3.97,-0.84 -16.17,0.27 -12.61,-2.76 -3.53,1.04 -8.8,-4.48 -6.69,-1.47 -2.81,-3.499996 -4,-0.58 -3.44,2.57 -1.31,-1.57 -6.78,-0.52 -4.01,-1.77 0.96,-3.85 2.55,-1.28 -2.81,-1.4 -1.27,1.04 -6.28,0.04 -4.75,4.79 -1,3.66 -3.32,-0.18 -6.52,2.519996 -6.73,7.4 -3.7,-1.35 -6.3,0.43 -2.85,-2.02 -2.92,1.49 -5.75,-10.889996 -4.84,-0.86 -3.38,0.82 -0.26,1.09 -3.78,-0.08 -1.26,1.63 -1.67,-0.58 -1.44,2.849996 -3.16,1.12 -2.49,2.68 1.88,2.23 -0.51,1.75 0.78,2.19 -5.23,1.89 -17.32,10.36 -3.73,0.43 -4,-1.32 -12.01,-5.9 v 0 l 0.47,-3.28 5.64,-1.52 8.33,-8.52 2.63,-0.08 0.13,-3.169996 3.33,0.51 -0.51,-2.03 1.79,-3.12 0.32,-4.99 -7.49,-6 0.38,-3.89 -4.8,-3.13 -3.97,3.56 -7.3,-5.42 -5.38,-1.95 -4.29,-5.25 -2.5,-0.42 0.39,-2.63 -2.37,-4.67 1.6,-5.94 -7.24,-2.04 -0.7,-6.78 v 0 l 1.56,-0.38 2.55,-3.63 8.3,1.63 3.02,-4.83 8.21,-1.62 1.96,-3.6 5.34,5.06 3.99,-3.51 0.75,1.59 2.09,0.18 2.17,-1.71 -1.08,-6.75 3.71,-3.16 2.86,1.94 2.23,-0.27 2.24,2.58 2.34,-4.27 1.79,0.25 2.9,-2.91 3.57,4.21 0.19,3.2 3.12,-1.8 2.43,1.1 1.65,-2.31 1.86,-0.37 4.15,2.13 2.08,-3.56 4.6,-1.97 2.48,2.1 0.56,5.67 1.18,3.2 2.12,1.38 1.49,4.75 4.06,0.89 2.22,-0.93 4.11,1.08 1.52,4.09 5.21,4.16 1.09,-1.02 0.23,-5.43 4.94,1.11 3.75,-1.93 2.39,2.53 10.08,2.56 3.89,3.62 1.88,-0.58 9.21,6.89 1.04,3.95 4.58,1.42 1.39,-1.24 3.23,0.51 2.93,-2.21 5.35,-0.57 4.31,-2.69 4.97,1.25 2.74,-4.75 4.68,1.57 4.02,-1.18 4.43,2.68 1.17,-3.12 5.24,-0.43 4.06,-3.04 4.3,2.21 0.96,2.73 1.97,-0.25 8.39,-2.13 0.81,-2.08 2.52,-0.85 8.53,-0.63 2.54,-4.31 -0.06,-3.48 1.02,-1.37 2.77,-0.35 -4.2,-5.4 2.84,-4.55 -0.72,-4.17 -2.68,-0.3 0.53,-5.95 -1.49,-3.28 -1.66,1.11 -2.19,-0.45 -2.14,-2.73 -0.83,-4.5800001 0.83,-2.54 3.74,-0.38 0.8,-1.9 3.97,-2.31000004 z"
     class="land"
     title="East Macedonia and Thrace"
     id="GR-A" />
  <path
     style="fill:#cccccc;fill-opacity:1;stroke:#ffffff;stroke-width:0.5;stroke-opacity:1"
     d="m 359.85274,190.63799 3.02,1.56 6.66,10.55 9.37,4.73 6.22,1.56 2.32,5.44 4.83,0.02 0.4,2.16 -3.06,0.96 -10.98,-1.48 -11.72,-5.77 -9.75,1.76 2.45,-5.62 -6.94,-11.31 1.63,-3.13 -0.04,-8.1 1.11,-0.08 2.3,5.38 z m 8.63,-148.659996 4.1,-0.65 2.01,2.07 2.68,-0.37 1.64,1.51 2.78,0.13 v 0 l 0.71,6.78 7.24,2.04 -1.6,5.94 2.37,4.67 -0.38,2.63 2.5,0.42 4.29,5.26 5.38,1.95 7.3,5.42 3.97,-3.56 4.8,3.13 -0.38,3.89 7.49,6 -0.32,4.99 -1.79,3.13 0.51,2.03 -3.33,-0.51 -0.13,3.169996 -2.62,0.08 -8.33,8.52 -5.64,1.52 -0.47,3.28 v 0 l -3.15,-0.56 -8.62,3.51 -3.11,5.32 -0.77,4.46 4.2,1.86 3.63,4.81 0.34,2.68 3.17,1.41 1.14,2.64 4.68,-0.15 3.13,2.95 -2.14,1.66 -5.57,0.17 -0.91,1.5 0.58,6.24 3.01,4.42 5.97,3.84 3.8,0.52 3.28,-1.22 v 0 l 0.85,5.67 -1.07,3.03 v 0 l -6,-5.14 -7.78,-1.54 -6.28,3.89 -4.19,-1.89 -0.89,2.45 -1.64,-0.1 -1.13,3.39 1.19,5.39 2.63,3.4 0.32,-1.05 1.77,1.01 1.23,4.49 3.02,-0.29 1.53,1.64 7.97,2.6 7.34,5.86 -1.43,0.77 -0.14,1.89 2.66,3.66 0.94,1.95 0.31,3.44 -3.11,2.57 1.28,1.72 -0.65,1.62 -0.35,0.98 -5.52,1.35 -0.48,-3.35 -2.04,0.56 0.22,-2.5 -1.35,-1.57 -1.44,0.02 -3.23,-3.27 -1.29,2.08 -4.49,-12.94 -10.64,-12.51 -10.16,-1.23 -3.92,-2.81 -8.65,-2.39 -4.38,4.25 -1.59,5.19 -1.04,0.02 -2.59,-4.49 -13.49,-4.46 -3.54,-2.85 -7.47,-3 -0.52,-2.43 -2.78,-2.64 -4.31,-1.59 -4.12,0.93 1.28,-2.87 -3.43,-4.13 -1.04,-3.97 -3.43,-1.22 0.18,-2.78 9.94,-1.03 4.72,-4.61 -4.1,-3.55 1.27,-1.98 -0.2,-3.67 -4.93,-1.98 -5.23,3.04 2.11,0.56 v 2.13 l -2.23,2.28 -7.99,1.95 -0.61,6.06 -1.86,0.61 -0.99,-1.99 -0.54,-1.14 -1.55,-0.08 -3.12,1.54 2.68,3.76 -3.11,0.15 -2.04,0.2 -2.97,2 1.85,2.54 1.98,7.48 3.05,2.17 -5.21,9.41 -1.24,8.31 -3.79,7.67 4.17,15.34 6.93,4.7 v 0 l 1.52,1.27 -2.06,1.84 -1.28,-2.21 -2.68,-0.76 -1.95,1.6 -6.66,1.12 -2.57,-2.46 -1.03,-4.87 -5.02,-3.59 -1.84,0.75 -1.09,-1.69 -1.78,1.13 -2.88,-3.43 2.29,-8.23 -2.23,1.13 0.56,-3.38 -2.73,-2.71 -3.2,0.91 -4.2,7.04 -2.14,0.91 -0.66,-5.14 -1.68,0.18 2.31,-3.53 -0.59,-1.25 -8.11,-0.14 v 0 l -0.64,0.02 v 0 l -0.86,-1.22 0.84,-1.15 5.18,-2.77 2.26,-7.63 -3.13,-0.37 -2.8,-2.43 0.06,-1.97 2.12,-2.23 -2.52,0.22 -2.92,-2.98 1.14,-5.75 -3.23,-1.15 -3.93,0.52 0.2,-1.35 -3.86,-3.69 -4.83,-1.02 -0.43,-3.31 -2.64,-3.74 1.74,-2.91 -2.64,-2.45 -0.4,-3.58 0.15,-2.21 2.06,-1.28 -0.03,-3.26 -4,-1.35 -1.25,-1.66 -2.36,1.27 -0.75,-3.5 -2.88,-2.04 1.67,-3.73 -5.72,-0.9 0.69,-3.97 -2.84,-4.38 5.79,-1.83 4.88,-3.64 -2.1,-0.96 -1.62,-2.799996 v 0 l 1.4,-1.51 -0.2,-3.75 4.12,-2.46 3.14,-5.16 2.86,-1.07 -0.36,-5.17 5.86,-4.28 4.77,-0.57 2.97,-3.28 5.91,4.5 1.81,-0.57 2.2,-3.45 3.97,-1.51 4.52,0.74 3.46,2.14 1.51,-0.62 0.55,3.58 2.12,-1.66 4.18,-0.37 1.86,2.3 12.65,-1.42 2.66,1.51 6.66,-8.07 4.21,5.45 2.12,-1.13 1.09,-1.72 1,-17.33 3.67,-3.76 20.51,0.94 5.08,2.42 4.85,0.12 6.08,-1.36 2.17,-2.89 0.16,-3.24 4.51,-2.95 3.48,0.06 1.75,4.1 5.67,-4.44 z"
     class="land"
     title="Central Macedonia"
     id="GR-B" />
  <path
     style="fill:#cccccc;fill-opacity:1;stroke:#ffffff;stroke-width:0.5;stroke-opacity:1"
     d="m 209.69274,96.437994 4.14,1.85 2.85,-0.83 v 0 l 1.62,2.799996 2.1,0.96 -4.88,3.64 -5.79,1.83 2.85,4.38 -0.69,3.97 5.72,0.9 -1.67,3.73 2.88,2.04 0.76,3.5 2.36,-1.27 1.24,1.66 4,1.35 0.03,3.27 -2.06,1.28 -0.15,2.21 0.4,3.58 2.64,2.45 -1.74,2.91 2.63,3.74 0.43,3.31 4.83,1.02 3.86,3.69 -0.2,1.35 3.93,-0.51 3.23,1.15 -1.14,5.75 2.93,2.98 2.52,-0.23 -2.12,2.23 -0.06,1.97 2.8,2.44 3.14,0.37 -2.26,7.63 -5.18,2.77 -0.84,1.15 0.86,1.22 v 0 l 0.16,-0.01 v 0 l 0.32,2.7 -1.64,-1.07 -0.67,0.85 0.7,3.15 -7.31,9.47 -2.25,0.21 0.31,1.97 -4.43,6.03 -3.24,0.85 -0.73,2.23 -3.1,0.97 3.76,4.43 0.94,6.92 -0.79,1.6 -7.18,-2.06 -3.93,1.9 -4.99,-2.72 -4.01,1.53 -2.48,-1.83 -3.45,2.2 -3.37,-4.83 -9.01,0.67 -2.05,-1.35 -2.97,0.61 -1.62,2.32 1.56,0.24 -0.48,2.48 -3.45,2.31 -3.03,-0.54 -2.92,-3.72 -1.84,1.31 v 0 l -1.88,-2.37 -3.9,-1.38 -4.5,1.17 -1.44,2.44 -6.2,-2.21 -1.67,-8.26 -4.55,-5.3 3.9,-0.66 1.35,-6.58 -2.87,-1.27 -3.85,1.36 -1.95,-5.42 -2.86,-3.58 4.23,-2.44 -0.37,-4.39 -1.84,-0.25 1.15,-1.54 -6.57,-10.78 -4.05,-4.19 -8.54,-1.69 v 0 l 1.25,-4.05 -0.63,-5.1 3.24,-1.56 1.87,-4.68 2.69,1.02 3.1,-0.57 1.86,1.57 2.5,-0.8 1.26,-5.98 2.6,-1.66 0.76,-2.31 3.2,-0.55 1.26,-12.7 -6.56,-8.43 -0.08,-2.92 -2.35,-0.97 2.49,-2.55 -0.12,-7.49 15.48,-0.11 4.89,-3.29 4.48,2.98 8.96,-2.24 5.14,-4.519996 4.24,1.139996 5.56,-0.449996 3.77,5.269996 2.3,-0.03 3.9,-3.71 3.02,-0.1 0.18,-3.379996 1.18,-1.59 z"
     class="land"
     title="West Macedonia"
     id="GR-C" />
  <path
     style="fill:#cccccc;fill-opacity:1;stroke:#ffffff;stroke-width:0.5;stroke-opacity:1"
     d="m 126.06274,166.15799 8.54,1.69 4.05,4.2 6.57,10.77 -1.15,1.54 1.85,0.25 0.37,4.4 -4.24,2.43 2.86,3.59 1.95,5.42 3.85,-1.37 2.87,1.27 -1.35,6.58 -3.9,0.65 4.55,5.31 1.67,8.26 6.21,2.21 1.44,-2.44 4.5,-1.16 3.89,1.37 1.88,2.38 v 0 l -3.05,0.54 -0.92,5.41 -2.26,0.2 -0.02,7.59 2.65,3.74 -0.55,1.21 -1.32,0.55 -3.11,-2.96 -3.07,0.09 -0.58,1.89 -3.41,2.59 3.01,3.4 -0.15,3.56 2.79,0.93 1.58,9.34 -2.05,3.29 3.19,0.22 0.08,2.21 -1.93,0.68 0.4,1.1 6.1,5.71 0.47,4.43 3.69,2.36 5.99,-0.21 2.78,3.52 -0.07,2.89 1.83,0.89 -1.21,3.64 -4.45,3.46 -1.58,2.9 0.21,2.11 1.68,1.43 v 0 l -9.22,6.94 -3.44,-1.62 -1.89,1.19 -1.52,-1.82 -1.49,1.39 -5.16,0.69 -1.83,2.25 1.09,1.64 -2.25,0.85 1.88,3.58 v 0 l -3.65,0.55 -2.68,2.54 1.1,2.15 -3.89,-1.33 -1.47,0.91 -1.88,-3.5 -1.71,0.22 -2.4,-2.96 0.14,-2.54 -1.21,-0.34 -1.67,1.16 0.32,2.05 -2.28,0.13 0.83,2.16 -1.45,0.43 0.17,-3.34 -1.64,0.52 -0.47,-2.1 -1.39,1.04 -1,-1.06 2.58,-1.91 -2.78,-3.58 -1.66,1.52 1.9,0.62 -1.43,1 -0.65,0.58 0.1,0.96 -0.45,3.45 -2.82,4.36 h -1.39 l 8.22,6.45 -6.58,-1.4 0.09,2.39 -2.75,0.04 -2.48,-5.31 1.38,-2.07 -0.77,-3.59 -3.75,-4.59 -7.76,-5.95 -3.88,-5.76 -5.360002,-3.56 0.1,-6.77 -1.34,0.76 -1.86,-1.4 -0.76,0.97 -3.41,-1.35 -0.73,0.88 -4.16,-0.69 -4.75,-4.9 -0.56,-6.07 -1.6,-2.03 -2.83,-0.54 0.7,-0.84 -2.32,-4.25 5.43,-0.18 -5.43,-5.13 1.24,-0.66 2.55,1.32 0.59,-2.6 -2.61,-1.42 -5.36,0.71 -1.52,-1.24 3.9,0.43 -2.97,-1.85 -2.75,0.82 2.64,-2.79 0.16,-4.73 1.78,-1.57 -0.07,-2.02 -4.05,-1.47 -2.44,-2.55 -1.12,1.05 -3.65,-3.6 -3.12,0.59 -1.36,-1.63 1.87,-1.06 5.38,2.16 3.38,3.1 5.49,1.16 3.28,-0.35 -0.72,-2.01 1.18,-2.22 2.95,1.61 0.14,-2.81 4.98,-4.19 -2.69,-3.8 1.32,-2.12 -1.56,-2.69 1.32,-1.31 6.94,3.64 2.91,-3.64 0.18,-2.85 -4.74,-8.02 -2.2,-1.63 0.64,-2.66 -2.95,-5.13 7.28,-0.56 1.63,-6.55 3.62,-2.67 3.360002,1.17 2.04,-2.27 3.31,2.15 2.11,-0.07 2.56,-0.54 2.28,-2.46 4.65,-0.54 -0.15,-3.66 1.6,-2.83 -1.67,-1.61 0.27,-2.82 2.52,-1.18 1.63,-2.98 -1.3,-5.98 2.42,-4.11 2.45,-1.16 -0.48,-1.71 z"
     class="land"
     title="Epirus"
     id="GR-D" />
  <path
     style="fill:#cccccc;fill-opacity:1;stroke:#ffffff;stroke-width:0.5;stroke-opacity:1"
     d="m 425.74274,311.32799 -0.4,2.78 1.08,1.14 -1.21,0.86 -1.17,-3.96 z m -58.85,-12.51 4.45,2.4 -0.95,2.09 -2.15,0.92 -1.52,3.83 -1.45,-1.62 -1.59,0.61 -1.97,-1.36 -1.23,0.85 -0.3,-2.08 4.93,-2.42 -0.03,-2.01 z m 12.75,-0.35 4.08,4.59 6.62,3.02 0.7,3.02 1.12,-1.23 4.38,0.9 -2.33,3.9 -4.11,2.21 -2.04,-2.39 -3.52,0.01 -0.42,-3.79 -5.73,-8.54 z m 33.34,-2.12 0.39,2.33 1.03,-0.4 -0.7,5.51 -2.65,0.13 -1.44,-2.01 3.54,-1.45 -1.42,-2.93 0.82,-2.39 z m -2.06,-6.76 0.39,1.5 2.32,1 -5.14,9.48 -5.61,5.6 -3.07,-0.36 0.1,-1.67 4.44,-2.66 -1.12,-3.01 3.9,-3.25 z m 10.81,-9.3 2.28,2.28 -0.53,4.7 -2.25,1.62 -1.78,-1.17 1.56,-1.37 -2.27,-0.8 1.01,-3.52 z m 23.18,-0.03 -0.46,3.88 -0.94,0.06 0.19,-2.98 z m -13.8,-4.41 0.73,1.28 -2.81,3.92 0.04,-1.02 -1.93,-0.12 1.98,-1.33 -0.12,-1.99 z m -184.81,-91.19 8.11,0.14 0.59,1.25 -2.31,3.53 1.68,-0.17 0.66,5.14 2.14,-0.91 4.2,-7.04 3.2,-0.91 2.73,2.71 -0.56,3.38 2.23,-1.13 -2.29,8.23 2.88,3.43 1.78,-1.13 1.1,1.69 1.84,-0.75 5.02,3.6 1.03,4.88 2.58,2.46 6.66,-1.12 1.95,-1.6 2.68,0.76 1.28,2.22 2.06,-1.84 -1.52,-1.27 v 0 l 3.35,2.41 0.11,4.5 2.28,5.18 10.35,7.83 3.96,18.36 3.45,8.07 4.37,2.79 1.77,-0.31 1.45,2.6 2.57,0.07 4.13,3.19 1.88,4.56 6.57,7.24 1.66,3.97 5.88,5.48 1.2,5.42 2.8,2.91 3.03,6.59 -1.33,3.17 -2.68,2.27 -8.51,1.74 -0.37,1.04 1.74,0.74 -1.98,1.8 -1.4,-0.99 -5.94,2.29 -4.39,-0.1 -1.99,-1.33 1.68,-4.98 2.21,-0.32 1.29,-2 0.16,2.62 1.06,0.2 -2.58,4.41 1.35,-0.34 6.16,-3.09 0.47,-3.71 2.72,1.48 0.56,-4.73 -2.59,-2.36 -2.33,-7.36 -3.79,-3.73 -9.03,-1.26 -2.57,-4.11 -5.6,-1.07 -0.46,1.24 1.44,0.69 -1.34,2.84 1.86,2.13 -11.24,2.63 -0.12,7.11 3.18,7.55 2.22,-2.27 -0.83,-1.86 1.87,-0.32 -0.3,2.32 1.22,-0.25 1,1.65 0.92,5.02 1.7,-0.02 -0.64,-2.17 4.3,3.8 v 2.64 l 1.59,1.02 -1.08,1.55 0.71,2.05 -3.09,0.46 -0.11,3.03 6.58,-3.62 2.94,-0.18 -0.92,2.7 -2.31,-0.17 -0.88,1.28 v 0 l -7.73,4.06 -4.17,-0.82 -2.04,-3.28 -9.81,0.75 -0.86,-2.1 -3.36,0.05 -2.24,-1.95 0.18,-1.58 -1.73,-0.7 -5.85,1.8 -1.22,-0.93 -8.48,0.05 0.87,-2.15 -1.09,-5.77 1.07,-1.85 -5.16,-1.19 -0.54,-5.36 -2.75,-1.18 -1.54,-3.47 -9.35,-1.07 -2.01,-4.2 -1.42,0.04 -0.3,3.12 -1.83,1.2 -3.88,7.15 -2.92,1.71 0.4,4.42 -4.13,2.8 -3.55,-0.37 -2.59,2.55 1.04,3.03 -0.77,0.59 -8.17,2.57 -2.01,-9.01 -5.2,-2.73 -1.47,-3.15 -1.89,-0.27 -2.59,3.98 -2.75,1.51 -4.27,-1.13 -0.4,-3.22 1.5,-3.94 -3.84,-0.99 -1.04,-3.05 1.42,-1.68 -1.97,-2.63 -4.54,-0.32 -1.63,1.55 -2.66,0.09 -2.77,2.86 -3.85,-2.38 -4.12,3.83 -1.45,-0.2 0.05,1.83 -4.29,2.82 v 0 l -0.11,-0.09 v 0 l -2.25,-1.44 v 0 l -1.68,-1.43 -0.21,-2.11 1.58,-2.89 4.45,-3.46 1.21,-3.64 -1.83,-0.89 0.07,-2.89 -2.78,-3.52 -5.99,0.21 -3.69,-2.36 -0.47,-4.43 -6.1,-5.7 -0.39,-1.1 1.93,-0.68 -0.08,-2.21 -3.19,-0.22 2.05,-3.29 -1.58,-9.34 -2.79,-0.93 0.15,-3.56 -3,-3.4 3.41,-2.59 0.58,-1.89 3.07,-0.09 3.11,2.96 1.32,-0.55 0.55,-1.21 -2.65,-3.74 0.02,-7.59 2.26,-0.2 0.92,-5.41 3.05,-0.53 v 0 l 1.84,-1.32 2.92,3.73 3.03,0.54 3.46,-2.31 0.48,-2.48 -1.56,-0.24 1.62,-2.32 2.97,-0.62 2.05,1.35 9.01,-0.66 3.37,4.83 3.45,-2.2 2.49,1.83 4.01,-1.54 4.99,2.72 3.93,-1.9 7.18,2.06 0.79,-1.61 -0.93,-6.92 -3.76,-4.43 3.1,-0.97 0.73,-2.23 3.24,-0.85 4.43,-6.03 -0.3,-1.97 2.25,-0.21 7.3,-9.46 -0.7,-3.16 0.67,-0.84 1.64,1.07 -0.32,-2.7 v 0 z"
     class="land"
     title="Thessaly"
     id="GR-E" />
  <path
     style="fill:#cccccc;fill-opacity:1;stroke:#ffffff;stroke-width:0.5;stroke-opacity:1"
     d="m 119.91274,447.31799 4.56,6.98 5.57,0.85 7.39,3.79 -0.29,3.43 8.24,5.24 -0.39,2.58 -7.81,-3.41 -3.09,1.32 -2.32,3.02 -0.51,1.72 1.88,1.61 -0.04,1.72 -2.37,1.07 -2.31,-1.24 -0.17,-1.72 -2.88,-1.64 -1.17,-2.68 -5.84,-3.99 0.41,-1.98 -2.4,-1.52 0.71,-1.75 -2.76,-0.77 -1.97,-2.79 -0.39,-5.27 1.73,-3.17 5.27,-4.27 z m -13.17,-64.09 1.74,0.82 1.19,6.83 1.44,0.45 1.53,8.76 -2.55,2.64 2.28,4.66 1.73,0.83 2.96,-3.13 -0.38,2.09 2.01,-0.18 1.34,4.21 9.38,12.6 -2.53,6.6 -1.95,-1.37 -2.04,0.93 -3.82,-1.01 -7.46,-5.4 -4.15,1.85 -0.39,1.34 -4.9,-1.35 -2.230002,-2.12 0.730002,-1.57 -1.920002,-2.72 0.61,-1.54 -1.14,-2.28 3.090002,3.02 0.62,-0.57 -5.830002,-12.57 -1.95,1.39 1.48,4.78 0.08,7.46 -5.22,1.43 -0.54,-2.02 -3.35,-1.47 1.77,-9.44 1.61,0.1 1.18,-1.98 0.93,-8.72 1,2.28 2.83,-2.39 0.58,3.43 1.98,0.16 0.63,1.72 5.090002,-3.73 1.18,-2.32 -0.79,-1.75 0.91,-0.89 -1.08,-9.49 z m 7.87,-3.37 2.52,1.45 -1.33,3.38 2.53,-0.27 -0.21,1.42 1.79,1.58 -3.16,7.94 2.48,-0.95 0.4,-1.52 0.77,-0.58 1.87,0.58 0.65,6.69 2.16,1.05 -4.05,2.14 -2.75,-2.29 -4.45,-13.56 -2.36,-2.81 0.29,-1.65 2.65,0.99 z m 11.7,-19.72 0.86,-0.31 -0.15,1.39 1.72,-0.5 -0.36,1.9 -2.09,1.26 -1.44,-0.54 -0.91,2.28 -1.74,-1.58 0.43,-3.25 2.12,1.06 z m -7.8,-20.42 2.31,0.48 -1.1,1.77 1.65,2.98 -0.71,5.12 1.23,3.72 -1.57,2.81 0.97,8.42 -1.01,1.1 -1.67,-1.99 0.46,2.46 -2.45,1.78 -1.58,-0.91 -1.36,3.58 -0.58,-2.58 -1.65,0.3 -1.73,-3.81 -4.84,8.08 1.15,-13.7 4.02,-11.44 4.26,-6.01 2.32,0.14 z m -41.950002,-35.09 2.84,3.08 -3.4,-1.1 -0.66,-1.13 z m -8.26,-9.93 3.26,1.93 3.36,5.87 -2.92,-0.17 -3.34,-2.56 -1.46,-2.78 0.05,-2.15 z m -25.06,-66.74 9.07,5.09 -2.35,4.74 -5.19,1.79 -3.05,2.78 0.25,2.23 1.88,1.38 -1.78,0.56 0.64,1.37 7.59,2.69 -2.06,6.55 1.71,9.66 0.77,1.49 5.53,1.61 1.6,2.82 3.27,-1.12 1.59,-2.21 4.5,9.56 -0.92,2.15 -9.98,-4.3 -3.64,-2.94 -4.32,-0.73 -3.48,-2.78 -1.98,-4.79 -0.1,-5.86 -1.75,-3.2 -7.9,-5.86 -1.87,-3.45 0.67,-2.37 -4.97,-0.7 0.83,-3.79 -1.49,-1.07 -1.12,1.33 -1,-5.16 2.75,-5.22 3.75,1.2 3.13,-1.09 4.08,0.94 z m -40.8200001,-4.64 2.91,-0.36 -2.04,2.72 -3.01000004,-0.28 0.42,-3.1 z"
     class="land"
     title="Ionian Islands"
     id="GR-F" />
  <path
     style="fill:#cccccc;fill-opacity:1;stroke:#ffffff;stroke-width:0.5;stroke-opacity:1"
     d="m 156.49274,401.19799 -1.86,3.73 -0.43,-1.93 1.18,-0.32 -0.09,-1.72 z m 65.81,-2.65 2.42,1.46 6.04,-0.48 3.68,1.99 2.27,-0.26 1.43,3.22 3.57,1.55 1.08,2 2.75,-1.4 3.43,5.43 4.38,1.98 1.51,2.23 5.03,1.15 5.84,-0.59 3.36,3.82 v 0 l 0.31,6.75 -1.39,6.55 -3.5,4.35 -1.81,0.2 -1.02,2.52 -4.64,1.25 0.48,4.21 -2.19,2.9 3.6,5.76 -4.83,1.48 -3.31,3.26 -3.5,-1.18 -0.74,-1.45 -2,0.27 -4.08,4.34 -6.24,-1.81 -3.6,-2.76 -1.81,0.27 -2.88,-2.46 -0.8,-2.89 -6.77,5.11 -1.47,2.46 -0.16,6.09 1.58,6.18 -1.71,10.54 1,0.87 3.74,-1.78 3.44,0.27 3.28,5.5 2.3,0.74 4.51,5.09 -9.69,5.81 0.8,5.09 -3.8,1.34 -13.85,-0.2 -1.51,1.26 v 0 l -5.4,-11.36 -7.48,-9.31 -15.18,-10.66 -3.57,0.01 -1.32,3.25 -0.84,-5.3 1.6,-2.62 -1.76,-6.66 -6.84,-5.47 -10.13,-3.64 -0.2,-4.4 1.66,-6.44 1.13,-0.61 2.33,1.82 2.74,-1.02 9.42,-9.74 5.76,-11.19 0.34,-10.91 1.65,0.28 1.88,2.69 3.84,-0.85 6.92,4.98 6.79,1.23 6,-2.81 3.93,-4.87 2.75,-8.04 3.09,-3.63 4.1,-0.31 z m -68.1,-9.72 1.32,0.71 -0.6,2.7 -1.69,-4.81 z m -13.65,-19.97 -3.61,4.83 0.68,1.63 -1.05,-0.05 0.14,-2.87 3.1,-4.16 z m 1.88,-5.67 -2.97,3.65 -3.77,1.58 0.34,1.22 -1.66,1.5 -0.19,-2.57 3,-5.23 z m 36.74,-60.98 2.25,1.44 v 0 l 0.06,0.05 v 0 l 0.03,3.51 3.03,3.67 -2.01,5.31 -3.03,3.29 0.34,1.7 9.56,4.65 3.29,8.53 8.2,2.51 0.85,1.6 -0.68,1.86 -3.76,0.38 -2.22,5.35 2.31,7.2 10.8,3.82 5.89,-1.2 1.08,4.36 3.2,-1.03 1.88,-5.72 5.64,1.04 3.89,-1.42 0.17,-4.85 4.91,0.71 2.43,3.49 -0.04,1.69 -2.35,1.2 -0.98,2.4 1.37,8.28 -2.99,2.18 4.06,2.23 -1.79,4.79 0.77,3.04 -10.16,5.34 -0.85,7.49 -2,2.57 v 0 l -1.67,-1.34 -4.05,2.18 -1.98,5.32 -5.7,-2.65 -2.06,0.58 -3.56,-1.25 -1.83,1.73 -2.8,-0.19 -0.94,1.83 -6.45,3.67 -2.32,-0.41 -5.6,-3.24 2.38,-0.49 3.68,3.01 -1.23,-4.02 1.22,-1.81 -1.61,0.3 0.01,-1.8 -3.76,1.22 -1.28,-0.77 1.39,-1.29 -1.2,-1.83 -0.68,1.93 -2.99,-2.22 -0.69,-4.33 -0.81,-0.96 0.54,-0.64 -3.88,-5.95 -1.51,2.16 4.35,4.93 -1.08,0.75 -0.03,5.22 -4.14,1.32 -0.85,4.03 -4.08,0.82 -2.3,1.93 4.09,1.07 -9.05,0.57 -1.49,-0.7 -0.62,-3.44 -2.9,0.26 0.74,-3 -1.52,-0.53 0.59,-2.14 0.55,1.7 1.92,-3 -0.13,-1.64 2.27,0.4 0.59,-0.89 -4.21,-0.72 1.14,-0.84 -2.11,-4.6 0.51,-1.29 -1.8,-1.62 1.28,-4.28 -1.7,-0.38 -3.08,3.46 h -1.61 l -0.25,-2.63 -1.35,-0.95 1.32,-8.01 -3.04,-4.67 -0.04,-2.8 -6.64,-0.46 -3.71,-13.68 -2.27,-0.21 -3.97,4.15 -0.2,-0.95 -2.75,1.46 -3.97,-6.82 1.23,-4.57 4.5,-1.78 -3.88,-6.08 1.6,-4.01 1.97,3.71 1.92,0.82 2.76,-0.3 2.12,-4.15 -0.13,4.34 3.98,-0.39 1.15,-3.11 2,1.88 3.2,-1.44 1.7,2.83 2.63,-1.12 -0.52,3.57 5.37,3.87 1.77,-5.54 4.58,2.18 1.45,3.39 0.9,-0.53 -0.78,-4.05 -2.39,-2.15 1.18,-7.93 -4.34,-6.3 v 0 l -1.88,-3.58 2.25,-0.85 -1.08,-1.63 1.83,-2.25 5.16,-0.69 1.49,-1.39 1.52,1.82 1.89,-1.19 3.45,1.62 z"
     class="land"
     title="West Greece"
     id="GR-G" />
  <path
     style="fill:#cccccc;fill-opacity:1;stroke:#ffffff;stroke-width:0.5;stroke-opacity:1"
     d="m 439.01274,434.96799 1.55,2 -0.52,2.15 -3.88,0.26 0.7,-4.56 z m 20.17,-109.2 8.03,5.7 -1.12,5.76 8.78,5.86 1.41,1.81 0.01,3.88 -3.95,0.99 -1.47,0.24 -3.31,-3.08 -1.79,0.7 0.18,2.66 -1.17,-2.3 -2.14,-0.87 3.43,-2.25 -0.36,-3.68 -2.76,-1.09 -2.75,1.16 -2,-1.54 -1.37,-1.59 -0.65,-1.49 -2.4,0.39 3.2,-4.43 -1.65,-3.31 0.61,-2.16 2.62,-2.49 z m -106.57,-7.5 3.17,2.75 3.35,0.97 -0.45,2.62 1.24,2.47 4.06,0.86 -0.22,5.92 1.88,2.2 -0.96,0.63 1.91,3.62 10.34,7.84 2.72,0.88 2,1.89 1.79,-0.63 1.89,1.08 3.28,-2.07 4.69,7.13 9.23,3.92 3.14,-0.82 5.39,2.07 2.4,-2.45 2.47,1.06 3.26,-1.64 9.83,3.98 -2.91,2.71 0.05,3.64 9.74,8.29 -3.97,4.57 -0.55,5.74 2.32,3.1 -1.44,-0.26 -0.82,1.81 2.67,1.55 0.61,2.06 -1.2,2.75 3.01,2.48 -0.39,1.41 1.88,1.81 -0.65,6.67 2.16,3.46 3.89,2 1.06,-0.67 0.04,2.17 1.92,1.41 4.17,-1.27 2.62,2.45 11.08,0.49 3.8,-1.76 -1.5,5.74 1.29,5.03 -0.45,4.28 -2.39,5.06 -5.71,3.35 -1.96,-1.16 -1.2,-4.52 -3.65,-1.47 -2.37,0.87 -0.54,2.25 1.51,0.86 -1.44,1.94 -1.11,-0.26 -6.22,-7.18 1.53,-2.02 -1.25,-2.86 -1.82,0.15 -0.31,-1.7 -2.25,-1.27 -5.22,0.91 1.16,-4.15 -3.06,-0.76 2.86,-4.09 -2.24,-5.63 -4.1,-1.26 -1.18,2.17 -0.96,-1.45 3.81,-5.36 -0.48,-1.3 -1.35,-0.28 -2.34,3.41 -1.5,-3.23 1.75,-0.96 -0.4,-3.26 -7.85,-1.37 3.26,-1.38 -0.85,-6.16 -2.75,0.54 -1.97,-1.64 -2.94,2.11 -6.32,0.25 -6.22,-2.43 -3.04,1.92 -8.35,-2.87 -4.39,1.57 -2.4,-5.54 -0.99,-0.9 -2.05,0.82 1.43,-3.27 1.87,0.15 1,-3.49 -3.22,-7.28 -7.89,-1.85 -1.85,-5.53 -3.79,-1.81 -1.76,-3.82 -3.73,-1.56 -5.88,-7.47 -3.56,-0.6 -7.61,-7.66 -5.41,-2.05 -5.01,1.54 -3.43,-1.72 -1,-3.26 -6.22,-0.78 -1.3,1.77 2.93,0.32 0.77,2.46 -2.91,1.64 -6.5,-0.25 -5.03,1.57 1.96,-5.21 14.08,-4.67 3.64,-3.94 2.95,0.35 0.97,-4.68 3.4,-2.76 6.8,0.25 2.06,-1.92 z m -171.08,-14.53 4.29,-2.82 -0.05,-1.83 1.45,0.2 4.12,-3.83 3.85,2.38 2.77,-2.86 2.67,-0.09 1.63,-1.55 4.54,0.32 1.98,2.63 -1.41,1.68 1.04,3.05 3.84,0.99 -1.49,3.94 0.4,3.22 4.27,1.13 2.75,-1.51 2.59,-3.97 1.9,0.27 1.47,3.15 5.2,2.73 2.01,9.01 8.17,-2.56 0.77,-0.59 -1.04,-3.03 2.59,-2.55 3.56,0.37 4.13,-2.79 -0.4,-4.42 2.93,-1.71 3.88,-7.15 1.83,-1.2 0.3,-3.12 1.42,-0.04 2.01,4.2 9.35,1.07 1.54,3.47 2.75,1.18 0.54,5.36 5.16,1.19 -1.07,1.85 1.09,5.77 -0.87,2.15 8.48,-0.05 1.22,0.93 5.85,-1.79 1.73,0.7 -0.18,1.58 2.24,1.96 3.37,-0.05 0.86,2.1 9.82,-0.75 2.05,3.28 4.17,0.82 7.73,-4.06 v 0 l -2.75,7.05 -1.91,-0.93 -1.92,1.79 -0.72,0.93 -1.97,1.14 -5.59,-0.84 -2.37,4.39 -6.38,2.32 -4.43,-2.25 -1.35,1.11 -2.25,-0.45 -1.83,-2.42 -2.75,-0.99 -6.24,3.4 0.56,1.19 -2.48,1.53 4.51,-0.78 -2.35,1.89 0.17,1.72 1.83,-0.75 0.24,1.81 1.09,-0.07 1.1,-2.06 0.43,2.58 1.97,-1.79 1.52,0.65 4.68,-2.39 6.33,8.16 5.2,-1.08 3.67,4.03 3.06,-2.52 6.03,3.46 6.07,-1.28 2.74,3.78 -0.12,4.39 1.99,4.96 2.01,1.9 2.51,-2.24 4.89,-0.74 -2.22,-2.72 2.92,-0.62 4.66,4.02 5.6,0.33 2.45,4.14 -3.03,1.96 -0.9,2.25 1.73,-0.06 1.71,4.26 0.92,-0.73 2.94,1.43 -4.08,0.9 -0.28,2.22 6.63,-1.27 0.73,1.33 4.61,-0.09 4.61,2.19 2.13,-3.42 1.26,0.46 3.66,3.92 -2.55,2.1 0.44,0.84 2.61,0.4 -0.28,3.03 3.37,0.66 0.74,5.08 4.44,2.95 v 0 l -0.11,1.69 -2.1,0.51 -2.57,5.23 0.48,8.13 -1.29,3.57 -4.38,1.67 -1.28,2.06 -4.13,0.51 -1.05,-1.96 -3.4,-0.68 -1.37,-5.59 -7.05,-0.73 -0.54,-1.81 1.81,-0.6 0.58,-2.22 -1.26,-1.81 -5.32,0.82 -2.86,2.6 0.75,4.64 -1.03,1.57 -6,-0.55 -8.6,2.51 v 0 l 1.52,-1.65 -2.75,-2.81 -4.05,4.15 -3.45,-0.94 2.09,-1.73 -2.43,-2.21 -5.65,-0.11 -0.89,-1 -2.33,0.72 -0.61,1.67 2.42,-0.59 2.09,2.19 -2.57,0.57 -2.41,-1.44 -1.67,-4.58 -1.1,1.56 -1.51,-1.18 -2.22,0.94 -5.55,-1.03 -1.4,-1.52 3.09,-3.23 -9.33,-4.67 -0.71,-5.38 -2.45,-2.47 -2.64,1.23 1.72,1.01 -1.01,1.93 -1.51,-1.65 -2.24,1.26 -0.82,3.01 1.94,1.04 -1.68,1.33 -0.44,2.98 -2.84,-0.41 -3.03,-5.09 1.79,-1.77 -2.99,-4.33 -4.46,-5.24 -3.35,-0.5 -1.52,-2.03 -0.25,1.88 1.62,2.34 -1.96,0.07 -1.94,2.35 2.57,3.03 -1.65,0.05 -0.39,2.01 1.43,-0.18 -1.58,1.77 -1.7,-0.42 -0.02,-1.41 -3.15,0.57 -2.21,-1.39 -1.09,2.03 -3.21,-2.8 -4.95,2.79 -0.91,1.96 -2.46,-3.22 -1.85,0.14 -1,-2.18 -1.96,0.03 -4.73,-3.2 -4.25,0.54 -4.15,-1.74 -2.06,-0.11 -3.45,4.1 -4.05,-1.19 v 0 l 2,-2.57 0.85,-7.49 10.16,-5.33 -0.77,-3.04 1.79,-4.79 -4.06,-2.23 2.99,-2.18 -1.37,-8.28 0.98,-2.4 2.35,-1.2 0.04,-1.69 -2.43,-3.49 -4.91,-0.71 -0.17,4.85 -3.88,1.42 -5.64,-1.04 -1.88,5.72 -3.2,1.03 -1.08,-4.36 -5.89,1.2 -10.8,-3.81 -2.31,-7.2 2.22,-5.35 3.76,-0.38 0.68,-1.86 -0.85,-1.59 -8.2,-2.51 -3.29,-8.53 -9.56,-4.65 -0.34,-1.7 3.03,-3.28 2.01,-5.31 -3.03,-3.67 -0.03,-3.51 v 0 z"
     class="land"
     title="Central Greece"
     id="GR-H" />
  <path
     style="fill:#cccccc;fill-opacity:1;stroke:#ffffff;stroke-width:0.5;stroke-opacity:1"
     d="m 351.45274,673.86799 0.55,-1.11 1.78,1.17 0.74,6.52 -3.26,-3.55 -1.77,-5.64 z m -30.15,-55.26 2.9,6.58 5.44,3.31 5.01,5.1 -1.06,2.64 -3.34,0.22 -0.65,9.72 -4.33,-1.67 -0.89,1.57 -1.17,-2.09 -3.15,-0.69 -2.93,-4.64 0.75,-1.41 -1.44,-2.11 2.31,-1.93 -1.11,-2.08 0.83,-2.08 -2.85,-3.79 2.72,-6.29 z m 47.47,-131.62 -0.07,2.98 0.72,-0.7 2.96,1.98 -2.31,1.95 -3.74,-0.53 -2.97,-1.2 0.14,-1.06 4.5,-0.78 -0.25,-2.11 z m -8.83,-9.33 2.67,3.14 -2.47,5.75 -1.01,1 3.81,2.96 -3.06,0.83 8.32,3.71 0.06,1.16 3.63,2.17 0.47,2.1 -2.39,1.68 -6.59,1.29 v 0 l 2.58,-5.73 -2.64,-0.83 -1.82,1.42 -4.98,-0.37 -0.38,-1.37 -2.8,0.24 -0.83,-2.96 -11.16,-3.33 -0.83,-3.22 2.8,-4.8 v 0 l 3.95,1.35 2.35,3.23 5.6,2.7 3.19,-2.26 -3.12,-5.43 -2.58,-1.23 1.87,-2.29 z m -3.05,-7.99 1.33,0.05 0.62,1.95 -2.87,2.28 -1.47,-0.33 1.06,-3.44 z m 12.43,-6.98 6.88,0.98 -0.99,2.18 -1.69,0.34 -0.93,5.6 -4.05,2.07 -2.8,-1.62 1.66,-1.16 -0.34,-1.21 -2.73,-2.09 -1.55,-3.82 z m 0.18,-25.94 3.63,1.67 -0.31,1.64 0.14,0.81 -0.27,0.92 2.04,0.5 -0.62,0.86 -0.39,0.63 0.7,1.7 -1.21,1.6 -1.75,-0.24 0.17,1.96 -2.39,-0.45 -0.45,1.53 -3.71,1.48 -3.73,-2.37 0.36,-3.92 5.58,0.66 2.92,-4.49 -6.89,1.28 -0.61,-0.66 3.05,-1.57 -3.08,-0.96 h 5.04 l -0.38,-1.69 z m 21.57,-37.95 3.24,-0.39 1.58,1.93 1.92,-0.76 2.23,1.91 10.88,3.12 10.7,9.66 -1.36,1.97 1.97,2.27 -8.85,6.24 1.94,4.43 -0.17,3.93 2.81,4.64 -1.88,1.22 0.68,4.34 -1.63,1.99 2.84,0.31 1.35,2.31 -3.41,1.44 1.53,2.21 1.63,-0.64 1.2,2.07 -1,4.01 3.41,2.91 0.2,1.8 -1.14,2.59 0.62,1.54 -2.43,1.21 1.64,5.74 -1.69,0.46 -2.01,3.28 -8.32,-2.4 0.58,-5.58 -3.14,0.2 -0.75,-6.08 -1.46,-0.12 -1.7,-2.89 -4.6,-2.45 -1.57,2.41 -0.91,0.34 -0.73,-1.84 -0.56,0.25 -1.53,-0.33 1.24,-2.37 -2.65,-1.6 1,-1.21 -2.1,-1.29 -0.82,-3.83 -3.35,-2.83 0.68,-1.17 -3.66,0.12 -1.44,1.44 -0.83,-0.86 -0.11,-0.57 -1.35,-1.01 0.38,-1.54 -5.04,0.27 -0.26,-2.07 1.72,-1.37 0.92,-0.57 1.71,-1.41 -0.4,-2.89 -1.84,-1.28 -3.04,1.33 -1.79,-1.4 -3.03,2.22 -3.27,0.09 -3.28,4.17 -2.45,0.88 2.95,1.21 -15.79,-0.77 -5.57,2.69 v 0 l -1.14,-2.22 -5.61,-2.44 2.02,-3.49 -1.26,-0.68 0.25,-3.6 v 0 l 8.67,-4.35 0.12,-2.02 -3.27,-0.95 -0.4,-2 4.45,-0.84 -3.7,-1.89 -5.19,-0.12 v 0 l 8.6,-2.51 6,0.55 1.03,-1.57 -0.74,-4.64 2.86,-2.59 5.32,-0.82 1.26,1.81 -0.58,2.22 -1.81,0.6 0.54,1.81 7.05,0.73 1.37,5.59 3.4,0.68 1.05,1.97 4.13,-0.51 1.28,-2.06 4.38,-1.67 1.29,-3.57 -0.48,-8.13 2.57,-5.23 2.1,-0.51 0.11,-1.69 v 0 z"
     class="land"
     title="Attica"
     id="GR-I" />
  <path
     style="fill:#cccccc;fill-opacity:1;stroke:#ffffff;stroke-width:0.5;stroke-opacity:1"
     d="m 323.05274,604.21799 1.25,5.93 -1.87,-2.31 -3.11,1.73 0.01,-2.91 z m -107.8,-26.46 1.4,0.29 -0.88,5.04 -2.66,-2.75 0.92,-3.68 z m -5.34,-4.55 1.27,0.42 -0.54,2.05 -1.73,0.8 -0.52,2.44 -0.13,-5.24 0.81,-1.3 z m -13.98,-29.28 -0.48,1.94 0.18,-1.78 -1.24,-0.94 1.65,-0.97 z m 139.84,-25.96 4.41,2.48 -0.18,2.14 -2.4,0.56 -1.97,-1.48 -1.99,-3.23 z m 21.03,-7.5 0.57,1.8 -2.52,1.21 -2.49,0.14 -1.64,-1.39 3.71,-1.62 0.91,1.34 z m 18.92,-2.54 1.76,0.67 -7.01,2.55 0.1,2.76 -5.1,0.12 -4.56,2.72 -0.21,-0.97 -2.83,0.24 8.99,-5.95 4.99,-2.12 1.65,0.97 z m -53.41,-80.07 5.2,2.93 1.26,-1.03 1.46,1.25 5.72,-1.02 v 0 l -0.25,3.6 1.26,0.68 -2.02,3.49 5.61,2.44 1.14,2.22 v 0 l -4.13,3.51 -10.95,1.4 -5.04,-5.1 1.27,-3.17 -5.38,-3.99 -3.16,-0.86 1.36,-0.91 -3.74,0.4 3.15,-2.88 z m -53.14,-7.15 3.6,1.3 6.88,-0.57 4.57,3.28 8.76,3.3 7.89,4.83 5.84,7.43 5.6,3.59 3.84,0.69 5.44,-2.35 5.04,5.1 -1.99,3.2 1.31,3.67 9.25,-0.12 2.89,1.74 3.27,3.28 0.18,2.96 -2.54,2.35 -2.04,-0.1 -0.93,2.98 5.09,1.86 -2.05,4.18 1.69,4.06 -1.33,2.1 3.92,3 v 0 l -2.8,4.8 0.83,3.22 11.16,3.33 0.83,2.96 2.8,-0.24 0.38,1.37 4.98,0.37 1.82,-1.42 2.64,0.83 -2.57,5.73 v 0 l -1.23,0.79 -5.74,-1.43 -4.02,1.32 -2.8,-0.17 -0.78,2.53 -3.31,0.94 0.78,1.43 3.9,1.87 -7.55,0.6 -1.25,2.05 1.8,3.45 -2.75,0.64 -3.67,-3.14 -1.49,-2.12 2.36,0.73 -1.24,-1.85 -5.08,-1.19 0.71,-2.64 -0.96,-1.69 3.36,0.12 0.9,-3.58 1.93,1.44 1,-0.58 -1.96,-4.01 h -5.88 l -1.16,-0.79 0.99,-0.84 -0.87,-1.72 -3.7,2.32 -2.78,-6.52 -6.84,-1.72 -3.89,2.29 -2.92,-1.72 0.14,-1.88 -3.96,-5.13 -5.3,2.81 1.8,5.51 -1.02,3.44 1.96,2.54 -0.05,2.51 2.12,1.95 -1.66,3.45 4.02,3.67 4.01,7.78 -0.47,1.26 2.21,1.24 -0.66,1.7 1.82,1.08 3.3,6.15 -1.75,5.09 0.48,2.9 1.94,1.14 0.89,-1.22 2.26,0.02 0.54,3.06 2.09,0.82 v 1.38 l -1.7,0.17 3.47,5.18 0.23,4.45 -1.3,1.22 1.62,0.55 0.09,3.27 3.6,8.65 -0.62,1.3 2.58,2.24 1.53,4.84 1.83,1.51 -2.31,1.57 0.23,3.3 -2.57,-1.78 -1.12,1.73 -1.57,0.07 0.4,11.43 4.06,5.4 6.78,4.6 -2.13,4.32 3.1,1.55 0.25,1.88 2.53,0.69 0.51,2.08 -5.09,-0.01 -1.3,1.42 -3.99,-1.23 -2.06,-3.75 0.53,-2.91 -2.72,-2.73 -6.27,0.62 -1.31,-3.61 -1.52,-0.82 0.06,-2.53 -6.17,-5.16 0.99,-0.01 0.23,-2.08 -3.23,-4.22 -1.56,-0.27 -1.02,3.65 -1.22,-3.07 1.54,-3.56 -3.22,-9.34 -14.39,-0.84 -5.16,3.24 0.83,4.84 -4.84,2.95 0.77,1.02 -0.94,1.5 2.47,1.39 0.23,2.44 -3.25,-1.91 -1.42,0.9 2.63,4.83 -1.69,1.57 -1.23,-1.93 -1.72,0.61 -0.37,9.48 2.79,4.72 -0.19,4.76 -1.75,1.14 1.74,3.4 -1.93,0.59 -1.95,-6.04 -5.29,-3.19 -0.74,1.07 -2.04,-0.69 -1.79,-3.81 -0.02,-1.74 3.84,-1.56 -0.39,-3.85 -1.28,-0.2 1.29,-1.71 -2.08,-1.01 1.16,-1.68 -1.2,-2.49 1.82,-0.42 -1.96,-2.38 2.52,-3.26 -3.01,-0.1 -1.44,-1.81 -3.87,-11.53 -3.44,-2.83 -2.79,-6.11 -2.23,-1.36 -2.67,1.8 -4.11,-2.76 1.79,-2.67 0.28,-8.81 -9.29,-1.06 -10.32,5.02 -0.77,13.21 1.5,6.1 2.56,1.73 -2.79,1.48 -0.27,2.53 -5.06,4.36 -1.26,-3.52 -2.93,-2.9 -0.58,-3.01 -1.33,-0.45 -4.29,2.32 -0.77,-1.51 -4.28,-1.44 -2.26,-8.33 2.85,-6.26 -2.49,-1.52 -2.24,0.74 0.46,-1.6 -1.97,-4.37 -5.98,-6.21 0.69,-3.71 -1.39,-6.24 1.24,-5.47 8.07,-6.69 2.16,-4.34 -1.48,-9.87 v 0 l 1.51,-1.26 13.85,0.2 3.8,-1.34 -0.8,-5.09 9.69,-5.81 -4.51,-5.09 -2.29,-0.74 -3.28,-5.5 -3.44,-0.27 -3.74,1.78 -1,-0.87 1.71,-10.54 -1.57,-6.18 0.16,-6.08 1.47,-2.45 6.77,-5.11 0.8,2.9 2.88,2.46 1.82,-0.27 3.6,2.76 6.25,1.82 4.08,-4.34 2,-0.27 0.74,1.45 3.5,1.18 3.31,-3.26 4.83,-1.48 -3.6,-5.76 2.19,-2.9 -0.48,-4.21 4.64,-1.25 1.02,-2.51 1.82,-0.2 3.5,-4.35 1.39,-6.55 -0.31,-6.75 v 0 z"
     class="land"
     title="Peloponnese"
     id="GR-J" />
  <path
     style="fill:#cccccc;fill-opacity:1;stroke:#ffffff;stroke-width:0.5;stroke-opacity:1"
     d="m 634.38274,482.21799 1.3,2.33 -0.77,1.57 -1.33,-0.16 -0.35,-1.58 -3.09,0.46 z m 6.23,-6.38 1.92,1.57 -0.47,2.42 1.55,-0.02 -2.1,3.76 -2.54,1.16 1.68,2.9 -1.02,2.76 -2.76,-5.15 0.14,-3.47 0.94,-0.29 1,2.6 2.12,-1.68 -0.28,-2.94 -1.7,-0.42 z m -13.38,-3.52 -3.77,6.22 -9.01,6.8 -9.39,1.58 -5.26,4.75 -7.13,0.48 -0.3,-2.03 2.96,-5.3 6.7,-6.9 5.9,-0.28 4.41,1.43 8.92,-6.01 z m 35.58,-14.2 8.07,0.66 2.81,3.04 4.17,0.84 3.34,2.75 1.08,-0.87 -2.23,-3.65 2.66,0.98 -0.39,-1.54 1.25,-0.37 0.73,2.08 6.01,-0.16 -3.7,3.06 1.53,1.48 -0.53,1.1 2.41,0.09 0.65,1.36 -2.92,1.42 -5.11,-0.33 -2.56,2.18 -3.53,0.5 -2.78,2.22 -0.22,2.51 -1.84,0.56 -5.41,-0.56 -4.19,-6.26 -2.93,-1.56 -6.85,0.81 -1.79,2.6 -2.89,0.7 -2.22,-6.41 2.69,-3.48 3.75,-1.04 3.2,-2.9 z m -42.8,-79.99 0.79,2.44 -1.33,-0.27 -0.27,-2.84 z m -8.61,-3.09 7.47,2.25 -0.27,1.35 -1.78,0.89 -1.64,-1.45 -2.27,0.14 z m -59.81,-0.84 0.39,2.27 -2.79,-0.23 1.39,-2.26 z m 43.78,-6.23 3.05,1.73 1.82,-0.48 1.94,4.2 3.71,0.16 0.84,-1.3 2.08,1.55 0.3,1.85 -0.87,4.56 -2.28,0.79 -0.34,1.4 1.66,0.06 1.05,2.05 -1.79,6 0.74,7.55 1.71,1.25 -0.05,2.07 -5.14,4.53 1.18,4.4 -1.52,2.74 -5.41,1.15 -2.37,5.92 -1.64,-1.86 -2.32,-0.37 -1.55,-3.18 -2.2,0.27 -0.03,-1.59 -3.46,-0.99 -0.17,-3.32 -1.94,0.08 1.09,-3.41 3.8,-2.93 4.15,0.48 0.73,-3.75 1.97,-1.47 -0.12,-3.57 -3.1,-3.49 -1.53,-6.47 -7.11,-3.67 -2.89,-6.07 2.35,-3.92 z m -38.62,-0.32 3.84,2.12 -1.06,6.39 -3.57,-1.19 -0.39,-2.19 -3.16,-3.45 z m 69.59,-88.43 1.05,0.39 -1.5,2.21 0.56,0.95 6.22,1.58 -4.11,6.68 8.57,5.79 2.4,5.12 3.54,1.45 -0.91,3.05 1.57,0.31 0.89,4.85 4.86,5.85 -0.47,4.15 -4.58,-0.49 -3.96,-4.15 1.88,-1.56 -2.72,-5.4 -1.94,-1.02 -3.09,1.27 0.36,2.97 7.18,7.01 1.18,3.85 -2.31,1.95 -10.73,0.94 -6.45,-1.61 -8.37,-4.53 -4.38,-0.07 -1.37,1.35 -4.3,-6.42 -3.22,-1.42 1.83,-2.42 2.75,0.71 2.84,-1.43 1.84,-2.94 8.34,-3.39 1.27,-3.23 -2.91,-2.29 -5.45,-0.47 -3.01,1.15 -5.08,10.61 -1.35,-0.87 -1.84,2.98 -5.82,-2.1 -5.07,0.12 -0.96,-2.41 -6.27,-2.9 -0.33,-1.87 -3.35,-2.01 1.71,0.23 0.23,-8.48 4.38,-3.24 -0.03,-1.33 1.68,-0.05 0.36,1.87 6.15,0.1 2.08,-1.72 3.91,-0.15 9.54,-3.48 1.17,-1.36 -1.22,-3.89 1.57,-0.97 11.68,0.71 2.33,-1.9 z m -119.99,-20.37 3.62,2.97 -6.37,7.54 -0.97,-7.61 2.05,-4.02 z m 37.6,-53.26 0.72,3.5 -4.88,4.16 -0.11,4.06 -2.57,0.02 -0.21,2.34 1.18,0.08 -2.69,1.49 1.44,2.22 -1.26,0.71 0.24,1.84 2.56,2.85 -1.87,1.18 0.28,2.23 -4.85,-1.29 -1.17,-1.67 0.52,-1.7 -2.6,-0.95 -1.54,-2.46 1.89,-1.72 -0.69,-0.97 1.48,-2.48 -2.02,-1.95 -2.07,0.23 -3.82,3.13 1.04,0.87 -1.85,3.19 2.54,1.01 -0.08,2.48 2.47,2.82 -8.89,-0.87 2.22,-5.05 -2.45,1.46 -1.44,-2.02 -6.55,2.06 1.73,-2.18 -1.59,-0.69 2.16,-7.06 -2.23,-1.75 -0.73,-6.46 5.65,-0.24 3.4,-2.03 1.02,2.09 1.76,0.01 5.52,-1.94 1.39,2.04 2.36,-0.13 -0.81,3.13 2.27,0.98 -1.34,0.91 1.44,0.83 2.34,-3.14 1.3,-0.35 0.43,-0.84 3.06,-2.99 -0.12,-1.97 2.9,1.52 3.98,-3.52 z"
     class="land"
     title="North Aegean"
     id="GR-K" />
  <path
     style="fill:#cccccc;fill-opacity:1;stroke:#ffffff;stroke-width:0.5;stroke-opacity:1"
     d="m 684.53274,723.13799 1.06,-0.12 -1.2,2.51 -3.86,1.74 -2.4,3.28 -2.33,0.19 -2.02,2.47 -3.55,-2.18 5.36,-6.77 2.61,0.56 z m 19.3,-43.7 1.19,-0.03 0.26,1.95 -2.1,4.42 0.7,4.92 -2.4,3.18 0.21,1.81 -2.83,2.86 0.04,3.55 -1.12,0.89 6.09,7.39 -1.7,2.01 0.44,1.99 3.35,1.83 -1.13,2.46 -2.22,-0.96 -1.05,2.07 -1.63,0.03 -2.05,4.1 1.65,0.3 -3.06,2.73 0.85,-1.18 -1.07,-1.96 -1.95,0.13 -2.84,-2.13 3.57,-4.67 -1.28,-2.72 0.56,-4.07 -2.96,-2.2 -1.35,-3.17 5.22,-5.09 0.15,-4.8 3.62,-4.1 0.06,-8.66 2.13,0.12 z m 1.23,-8.18 0.92,0.15 -0.62,8.01 -4.36,-3.38 1.53,-0.29 1.34,-4.19 z m 212.36,-28.87 -0.49,1.76 1.34,0.77 -3.88,2.3 1.1,-3.37 z m -179.05,-8.83 1.94,0.56 0.37,1.85 -3.99,2.24 0.02,-1.18 -2.4,-0.27 -3.35,1.33 0.19,-3.63 z m 10.87,-4.06 -1.84,4.43 -0.7,-1.52 1.38,-1.2 -2.31,0.86 0.1,-1.02 1.39,-1.62 z m -94.11,-8.73 1.96,1.86 -1.21,2.07 -0.88,-0.45 -1.14,-0.75 -0.56,-2.16 z m -81.1,-4.32 7.81,5.33 -6.99,1.02 -3.72,-1.02 -0.96,-1.7 z m 220.12,-5.59 1.12,1.24 -1,3.84 1.66,1.86 -3.44,4.08 0.39,3.19 -3.57,4.7 0.04,3.18 -2.47,2.56 -0.97,4.63 -2.84,0.32 -2.7,4.78 -0.48,3.57 2.85,0.43 -2.23,3.28 1.01,2.3 -5.47,-2.57 -6.51,3.4 -7.8,12.99 -5.78,4.14 -4.28,1.38 1.77,-1.65 -3.18,-2.45 -1.44,-2.9 3.17,-8 0.19,-9.06 -0.78,-1.23 -3.18,-0.34 0.27,-2.54 -2.66,-2.27 7.14,-4.03 3.48,-9.19 3.26,-1.12 5.02,-5.77 19.81,-9.5 6,-0.18 3.03,-3.96 z m -257.22,1.23 -1.09,0.73 0.57,2.65 -2.54,-1.14 1.17,-4.24 z m 6.39,-2.35 5.3,6.18 -0.21,4.97 -3.93,3.18 -7.98,-2.85 1.06,-0.99 4.33,0.47 1.83,-3.51 -1.78,-4.12 0.38,-2.56 -4.23,-0.46 -0.27,-1.61 1.77,-1.1 2.93,0.83 z m 173.26,-2.27 3.02,5.21 -0.38,2.34 1.71,-0.71 1.63,1.84 0.91,-1.62 1.14,1.05 -5.32,3.52 -1.65,-2.95 -0.96,1.08 -0.82,-4.37 -3.67,2.19 -0.07,-1.29 -1.72,-0.4 0.59,-4.83 2.7,1.44 1.01,-2.31 z m 45.46,-5.48 0.94,0.82 -1.8,0.52 z m -62.3,-9.92 1.51,-0.08 2.3,3.74 -1.89,3.17 -6.33,-1.63 0.78,-4.39 z m 59.7,-2.48 -1.88,2.27 1.97,0.72 3.08,-1.85 -1.46,1.94 1.97,-0.46 0.33,0.98 -0.27,2.38 -1.62,0.59 1.62,0.59 -1.38,1.1 1.33,2.05 -2.88,1.44 -1.47,-0.51 1.9,-2.13 -2.21,-1.38 -2.62,0.79 1.56,-2.57 -4.05,0.2 -0.22,-1.69 0.6,-0.92 1.12,0.94 1.07,-2.99 z m -129.43,-0.27 5.27,4.09 1.8,2.97 -2.38,0.02 -2.57,0.84 -4.79,-0.62 -1.08,1.44 0.44,2.35 -1.59,0.49 2.4,3.36 -3.79,0.36 -1.87,-1.62 -1.27,0.42 -1,-3.62 -1.44,-0.74 0.98,-0.68 0.32,-2.69 0.87,-1.33 1.8,0.33 3.02,2.78 3.65,-2.7 1.83,1.23 -2.73,-5.79 z m 131.34,-2.21 0.2,2.01 h -2.58 l 0.06,-1.24 z m -268.41,-0.1 3.47,3.2 3.36,0.89 1.4,2.76 -1.1,1.06 -2.7,-0.48 -2.08,-3.75 -2.96,-0.14 -2.12,-3.11 z m 204.1,-1.28 0.18,0.87 -1.81,0.23 -0.87,3.14 -0.86,-3.2 1.5,-0.08 0.96,-1.75 z m -177.17,-4.43 1.39,0.36 -2.74,4.18 -6.47,4.37 -1.86,-0.04 3.02,-6.23 4.01,-2.48 z m -66.11,-6.42 -0.3,1.51 3.83,1.85 3.71,-2.92 3.1,1.17 -1.26,1.78 1.48,4.47 -0.7,2.16 -1.12,1.45 -1,-0.57 -3.97,1.9 -2.45,-1.37 -0.89,1.18 -10.16,1.55 1.41,-6.64 -1.04,-1.18 2.49,-3.91 1.63,2.22 2.12,-0.67 0.56,3.96 2.1,-0.02 0.89,1.28 2.83,-1.06 -0.86,-2.65 -1.95,0.3 -2.61,-3.45 0.41,-2.14 z m 17.47,-1.67 3.16,0.88 -0.25,3.58 -3.71,-0.84 -0.98,-2.9 z m 61.36,-0.15 2.09,2.56 -0.56,1.35 3.25,0.85 3.57,3.75 -2.01,1.96 1.16,2.75 -0.72,2.06 -1.65,-0.78 -0.99,1.95 -5.62,-8.06 -3.04,-0.02 -0.02,-6.07 1.15,-1.84 z m -95.44,-1.52 0.98,1.19 -1.16,2.63 -1.83,-1.45 -0.24,-2.11 z m 28.33,-4.49 1.15,1.44 1.56,-0.94 1.24,1.34 -2.64,5.27 -3.21,0.76 -1.81,-5.38 z m 82.01,-2.25 0.05,4.19 -2.13,0.83 -3.19,-0.86 4.16,-4.67 z m 4.61,-3.06 0.99,4.33 -3.44,-2.42 z m 11.06,-1.7 1.93,0.7 0.87,2.96 -6.65,-0.52 0.62,-1.86 z m 147.02,1.12 4.57,0.6 1.43,3.51 -16.79,5.86 -5.04,5.41 -6.33,-1.05 -5.24,1.73 -1.11,1.18 1.26,2.6 -1.68,1.43 0.66,3.64 -1.87,-0.41 -2.57,-3.16 -0.15,-6.7 6.8,-0.9 6.87,-8.58 8.4,-4.37 6.17,-0.77 3.85,-2.39 z m -114.99,-4.65 7.21,4.69 -3.36,-0.5 -6.02,1.93 -10.54,10.73 -3.43,0.19 -2.35,2.13 -4.84,-1.67 -0.52,-1.62 1.41,0.83 2.47,-2.81 5.58,0.44 0.03,-1.95 -0.75,-0.95 0.56,-1.63 9.04,-3.71 2.82,-2.1 -2.01,-0.75 0.4,-0.98 z m -34.95,-1.31 0.6,1.55 -2.68,0.65 0.03,-2.03 z m 135.85,-1 0.83,1.04 1.21,-1.08 1.6,0.74 -1.95,1.89 2.23,1.86 -3.88,-0.37 -2.27,-3.78 z m -191.89,-1.56 3.7,1.05 -3.8,1.42 -1.4,-1.49 z m 172.11,-4.95 1.26,1.15 -0.68,1.8 -2.92,-2.47 z m -40.19,0.58 3.09,1.6 -3.14,-0.83 -1.6,0.59 0.6,0.76 -1.7,-0.28 -0.39,-1.96 z m -163.45,-3.35 6.01,2.28 5.02,7.29 -5.3,5.89 -4.27,-8.59 1.9,-1.5 -2.08,-0.5 0.75,-1.01 -0.73,-1.89 -1.73,-0.46 z m 39.24,-0.78 1.1,0.45 -2.79,8.34 1.03,3.49 -5.04,-5.09 0.91,-0.18 -0.45,-2.71 z m 163.06,-3.03 8.25,3.16 0.66,1.11 -1.87,-0.44 2.84,2.8 -0.04,1.51 2.72,-1.19 1.55,2.06 -2.06,4.05 2.11,1.46 -6.01,-0.63 -0.33,2.98 -3.64,-0.09 -1.07,-2.27 -1.5,-0.25 1.81,-2.38 -0.73,-1.88 1.35,-3.91 2.53,0.58 -2.44,-3.12 -2.44,0.69 0.42,-1.82 -3.4,-2.22 z m -95.54,-6.07 -1.13,0.62 2.01,1.57 -1.03,2.54 -2.87,-0.32 -1.87,-3.73 1.7,1.21 1.43,-2.38 z m -54.29,-2.35 0.87,0.75 -2.25,1.94 0.96,0.84 3.73,-0.57 0.01,-3.13 2.69,0.92 -3.47,7.17 1.88,3.44 -2.73,4.68 -5.45,3.6 -3.75,-0.94 -1,-1.58 -1.19,0.76 -1.79,-2.9 0.77,-5.15 4.38,-2.89 -2.27,-0.58 2.4,-2.98 z m 27.99,-5.53 4.46,6.1 0.97,3.26 -0.67,3.25 -0.56,1.49 -3.16,13.14 -3.74,0.29 -5.36,4.29 -2.24,-1.78 0.04,-3.97 -3.44,-0.96 0.48,-2.07 -2.52,-3.39 1.29,-1.8 -2.45,-3.69 -1.53,-0.29 0.96,-1.84 2.46,0.22 -0.1,-2.1 3.8,-2.95 4.5,-1.58 2.84,-4.42 z m 114.22,-0.19 4.21,1.49 -1.78,2.79 3.46,0.84 -1.43,1.28 2.71,2.94 -0.18,2.27 -4.07,-0.07 -1.08,-1.37 -0.72,-0.15 -1.45,-2.48 -0.82,-1.86 -0.21,-1.42 -2.83,-1.11 1.2,-2.4 2.13,0.37 -0.62,-1.05 z m -207.5,-0.5 3.1,1.27 -0.82,3.72 1.03,0.47 -0.05,2.93 -1.72,-1.68 0.05,2.94 -2,1.19 -0.82,-0.3 0.83,-1.39 -3.09,0.1 0.11,-1.64 -4.22,1.79 2.35,-7.29 1.84,-1.69 1.41,0.52 -0.06,-1.08 z m 232.64,-11.21 -0.4,1.6 1.39,1.28 -1.45,0.6 -0.7,-2.39 z m -32.79,-2.57 3.02,2.48 2.65,-0.28 -0.37,3.63 -1.79,-0.39 -0.09,-2.14 -1.37,0.83 -2.77,-1.26 -0.53,-1.94 1.19,0.16 z m -14.15,-5.78 4.13,4.44 -4.23,-1.27 -0.97,1.08 -0.28,2.06 1.93,2.23 -1.33,1.21 1.23,2.62 -1.4,0.08 -1.48,-0.9 1.25,-1.67 -2.56,0.37 1.21,-7.59 -0.7,-2.24 1.71,1.06 z m 14.37,-2.1 2.85,2.78 -1.39,1.28 -0.2,-1.51 -2.29,-1.47 -0.01,-2.53 z m -135.25,-4.62 1.7,2.18 -0.21,3.13 1.54,-0.94 0.19,0.97 -0.49,1.89 -1,-1.07 -1.96,2.02 0.92,-2.8 -1.23,-0.75 -1.51,-3.75 1.78,0.79 z m 157.87,-4.06 0.94,1.16 -1.21,2.16 -1.07,-1.44 -1.27,1.56 -0.99,-3.13 -1.35,-0.34 z m -228.07,-0.63 -1.15,4.37 1.55,0.2 -0.23,1.35 2.43,0.11 1.42,3.56 -1.06,0.93 -0.27,-1.23 -1.11,0.2 -1.22,5.67 -4.06,4.29 -2.88,0.84 0.2,-3.61 2.85,-3.77 -1.09,-1.31 0.85,-4.01 -2.75,0.35 -0.13,-1.3 3.19,-4.59 z m 81.46,-2.11 1.27,0.51 1.31,1.92 1.06,-2.01 1.55,0.1 0.63,1.7 1.71,-0.25 -0.02,1.27 2.88,-0.39 -0.21,3.31 -3.26,0.38 -2.13,3.23 -1.15,-1.03 -3.37,2.15 -2.42,-2.13 -0.93,0.26 -1.09,-1.32 0.59,-0.97 1.47,1.49 0.59,-2.42 -1.93,-3.98 z m -41.38,-1.66 4.01,1.39 1.35,1.86 0.48,3.22 -1.3,2.76 1.48,0.23 1.76,3.34 -8.55,4.28 0.62,-3.4 -2.66,-0.45 2.03,-2.76 -1.34,-0.8 3.38,-1.95 0.04,-5.3 -2.19,-2.02 z m -13.24,-13.35 0.58,4.66 -5.34,-1.75 1.9,-2.68 z m 22.92,-4.74 1.05,-0.18 2.62,0.89 1.27,-0.84 0.94,3.28 5.22,-0.57 2.86,1.15 3.1,0.2 6.28,3.33 -1.81,8.23 -4.15,1.53 -4.24,-3 -2.35,0.23 -1.05,-3.39 -3.57,-1.53 -8.08,-7.43 0.07,-1.47 z m -57.8,-1.07 1,-0.09 2.72,1.13 1.64,3.32 -4.75,8.12 -7.11,5.83 0.33,-6.28 -1.4,-0.51 1.02,-1.96 -0.85,-0.99 2.49,-5.75 1.88,0.11 0.87,-2.61 z m -17.88,-6.35 0.1,2.2 -4.05,8.64 -0.08,-4.19 3.02,-8.36 z m 57.52,-29.01 0.04,3.16 3.5,0.98 0.73,5.77 10.52,1.36 0.02,3.09 -1.97,3.19 4.14,3.18 -2.51,4.99 4.33,-0.06 -4.33,7.35 0.8,2.53 -4.58,-3.97 -1.96,-5.4 -3.43,-1.12 -3.05,-5.02 -1.88,0.41 0.32,-1.81 -2.89,-4.76 -5.13,0.24 -1.82,-10.16 5.27,-3.48 z"
     class="land"
     title="South Aegean"
     id="GR-L" />
  <path
     style="fill:#cccccc;fill-opacity:1;stroke:#ffffff;stroke-width:0.5;stroke-opacity:1"
     d="m 421.30274,784.30799 4.7,1.32 -0.9,3.19 1.66,2.79 -7.28,-3.83 -1.17,-1.72 2.11,-0.08 z m 190.21,-50.18 -0.98,1.37 -2.36,-0.76 z m -0.3,-2.52 0.03,1.57 -1.49,0.09 z m -86.69,-12.21 2.58,1.69 -0.72,2.99 -5.05,-2.08 z m -132.95,-24.83 3.27,2.6 -1.12,1.85 1.53,11.63 6.23,2.26 12.79,1.69 3.74,-0.78 1.38,-0.72 0.39,-3.16 3.13,-0.22 -1.55,-3.17 1.08,-1.19 3.69,-0.85 4.65,1.63 2.38,5.23 -1.75,3.98 -2.19,0.98 -6.73,-1.65 -1.8,1.87 5.04,2.37 2.93,-0.08 3.3,2.44 4.85,-2.86 1.86,5.49 -0.21,6.52 1.97,1.03 5.56,0.54 6.73,-2.07 11.01,-0.46 6.08,-2 3.43,-2.99 4.66,-0.87 11.97,2.21 3.62,-0.26 1.16,-1.35 2.82,2 3.37,0.12 1.63,-2.23 1.45,1.1 2.63,-0.7 0.74,2.29 1.53,-0.68 -0.64,3.36 1.37,3.53 9.03,-0.66 2.9,0.37 0.61,1.42 3.89,0.15 12.26,-0.98 6.13,5.15 19.72,-6.01 2.66,1.29 7.45,-0.6 -1.02,2.61 -2.98,1.53 -0.49,4.33 1.62,3.47 -2.32,1.33 0.68,3.29 -1.37,1.55 1.73,5.04 2.93,-0.05 4.22,2.23 3.76,-5.05 1.36,0.46 2.72,-2.11 0.17,-1.77 4.5,0.66 1.6,-2.13 3.23,0.2 2.35,-3.22 3.04,-0.14 2.18,1.32 2.45,-1.17 -0.05,2.67 5.1,0.32 1.68,-1.25 -0.46,-1.48 3.12,-1.36 1.75,-4.43 1.7,0.78 3.09,-3.02 -0.79,-1.07 2.41,-0.7 -0.27,2.35 -3.66,3.14 1.09,3.6 -0.63,2.62 1.91,2.01 2.33,-0.95 0.05,1.86 -3.2,1.37 -0.66,8.73 -3.58,5.96 -10.68,4.29 -1.62,-0.21 -0.73,-2.3 -5.36,0.53 -4.66,-2.73 -11.72,2.54 -2.77,1.79 -11.25,-1.68 -2.4,1.09 -6.02,-0.23 -8.31,2.67 -11.47,-1.86 -4.2,1.82 -4.15,-0.2 -3.2,2.91 -4.83,1.23 -4.96,-0.86 -3.83,2.28 -4.54,-1.14 -2.51,1.46 -8.66,0.46 -7.13,-1.69 -4.16,1.9 -5.43,0.25 1.97,-3.25 -1,-4.43 1.51,-2.13 -1.98,-7.73 -3.92,-1.84 -12.19,-0.14 -3.52,-4.69 -5.72,-0.69 -6.14,-4.76 -3.21,1.22 -2.49,-0.81 -3.57,1.61 -4.82,-0.64 -2.98,-2.22 -3.88,1.04 -1.87,-1.2 -9.11,0.71 -4.14,-3.69 -5.61,0.81 -8.63,-2.86 -5.58,2.2 -0.72,-1.14 -12.57,0.91 -3.48,-0.85 0.05,-2.47 -3.31,-1.04 -2.54,-3.73 3.12,-1.87 -1.69,-1.78 0.18,-4.69 3.34,-4.83 0.1,-2.39 -1.36,-1.25 2.33,-3.85 -1.33,-1.95 1.72,-5.71 -0.66,-3.14 1.26,0.69 0.4,-4.83 1.29,2.98 -0.77,1.09 1.09,8.08 3.66,2.18 5.66,-1.02 1,-4.14 -1.88,-5.59 0.76,-2.32 -0.87,-2.82 z"
     class="land"
     title="Crete"
     id="GR-M" />
  <path
     style="fill:#cccccc;fill-opacity:1;stroke:#ffffff;stroke-width:0.5;stroke-opacity:1"
     d="m 415.67274,170.16799 1.08,-3.03 -0.86,-5.66 v 0 l -0.59,-5.71 -0.98,-0.21 1.49,-1.61 2.39,6.24 3,3.67 6.51,1.68 1.41,-0.67 3.24,1.86 0.62,2.85 4.39,1.16 2.07,2.36 1.39,4.78 8.71,7.42 1.52,5.07 -8.5,3.21 -2.25,-5.56 -5.37,-4.22 0.06,-2.41 -5.33,-7.32 -10.93,-1.51 z"
     class="land"
     title="Mount Athos"
     id="GR-69" />
     <g id="stadiums" data-country="greece"></g>
</svg>
