<?xml version="1.0" encoding="UTF-8" standalone="no"?>
<?xml-stylesheet type="text/css" href="/styles/home.css"?>
<!-- https://www.amcharts.com/svg-maps -->

<svg version="1.1" xmlns="http://www.w3.org/2000/svg" id="map-hungary"
   viewBox="0 0 612.72321 377.65659">
  <defs
     id="defs4">
    <style
       type="text/css"
       id="style2">
			.land
			{
				fill: #CCCCCC;
				fill-opacity: 1;
				stroke:white;
				stroke-opacity: 1;
				stroke-width:0.5;
			}
		</style>
    <!-- <amcharts:ammap projection="mercator" leftLongitude="16.113634" topLatitude="48.586316" rightLongitude="22.897693" bottomLatitude="45.736783"></amcharts:ammap> -->
    <!-- All areas are listed in the line below. You can use this list in your script. -->
    <!--{id:"HU-BK"},{id:"HU-BA"},{id:"HU-BE"},{id:"HU-BC"},{id:"HU-BZ"},{id:"HU-BU"},{id:"HU-CS"},{id:"HU-DE"},{id:"HU-DU"},{id:"HU-EG"},{id:"HU-FE"},{id:"HU-GY"},{id:"HU-GS"},{id:"HU-HB"},{id:"HU-HE"},{id:"HU-HV"},{id:"HU-JN"},{id:"HU-KV"},{id:"HU-KM"},{id:"HU-KE"},{id:"HU-MI"},{id:"HU-NK"},{id:"HU-NO"},{id:"HU-NY"},{id:"HU-PS"},{id:"HU-PE"},{id:"HU-SO"},{id:"HU-SN"},{id:"HU-SZ"},{id:"HU-SD"},{id:"HU-SF"},{id:"HU-SK"},{id:"HU-SH"},{id:"HU-TB"},{id:"HU-TO"},{id:"HU-VA"},{id:"HU-VE"},{id:"HU-VM"},{id:"HU-ZA"},{id:"HU-ZE"}-->
  </defs>
  <path
     style="fill:#cccccc;fill-opacity:1;stroke:#ffffff;stroke-width:0.5;stroke-opacity:1"
     d="m 257.83052,208.96491 0.72,-1.85 -1.69,-2.87 6,1.35 4.05,2.63 8.57,-8.29 3.31,0.13 0.81,1.25 2.03,-4.66 3.42,-1.97 7.01,5.69 -4.65,7.58 3.71,5.28 2.59,-4.83 5.64,-4.09 4.39,1.28 2.67,-8.76 5.08,1.89 2.21,-2.05 5.05,11.9 4.04,4.57 v 0 l -3.22,1.34 -7.57,-2.3 -3.62,4.87 -1,-1.05 -2.54,2.45 5.06,6.18 0.54,3.86 2.04,0.02 3.45,2.61 3.18,3.79 -0.38,1.73 3.89,-0.24 1.71,-3.07 5.03,-1.17 1.02,-2.21 3.39,2.96 4.37,-5.99 -2.36,-6.76 v 0 l 4.06,-6.92 9.71,4.43 1.29,-4.82 6.4,-2.56 2.29,1.5 v 0 l 4.18,3.14 -0.52,2.86 -2.46,1.16 0.01,1.41 3.28,0.44 1.54,2.83 -6.55,5.3 -2.61,-0.29 -1.13,2.53 -0.94,-0.88 -3.53,1.91 1.5,2.02 2.15,-0.42 0.34,1.13 -3.13,0.57 -0.12,2.18 2.67,1.76 -0.22,-3.04 1.06,-0.51 1.57,2.59 v 0 l -8.46,10.02 3.91,4.22 -2.77,7.7 1.21,1.66 v 4.32 l -4.71,5.5 -4.7,-3.9 -10.01,6.3 2.64,3.28 3.62,-0.68 4.11,4 0.53,2.52 -1.52,2.22 1.58,3.15 -1.83,4.52 -2.11,1.79 -3.44,-2.32 -6.8,5.25 -2,-1.55 -5.95,1.9 3.19,5.45 -4.93,5.3 5.48,9.95 v 0 l -1.25,0.86 -1.76,-1.21 -2.64,2.59 -6.15,-0.99 -0.92,1.95 -4.5,2.43 1.81,3.23 -5.38,3.11 0.04,1.86 -4.53,4.51 -3.1,1.33 -1.48,-1.99 -7.35,4.67 1.25,3.4 -1.02,-1.07 -12.42,0.03 -1.08,-5.04 -2.66,-0.46 -3.67,5.07 1.26,4.61 -6.01,0.12 -1.65,2.05 1.18,3.04 -9.17,-1.41 -2.46,2.45 -1.46,-0.55 0.37,1.31 -4.92,0.22 v 0 l -1.4,-1.25 0.69,-1.66 4.33,-1.5 -2.31,-2.09 3.52,-7.59 -1.97,-2.91 2.18,-0.87 -2.51,-1.26 -0.88,-4.43 1.25,-1.39 -2.7,-1.12 v 0 l -0.09,-1.41 1.24,0.56 0.79,-2.16 -3.62,-1.08 0.08,-2.29 2.35,-1.45 0.28,3.33 2,-5.62 1.75,-0.6 0.21,-3.51 -3.32,2.31 -1.17,-0.8 4.72,-3.95 -0.84,-3.97 4.18,1.04 0.99,-5.91 -2.12,-3.58 -1.21,-8.24 3.25,-6.9 0.04,-3.79 -2.38,-5.66 -0.25,-5.59 -2.93,-6.08 2.08,-3.23 7.59,-2.6 3.25,-4.96 -2.8,-10.54 -4.21,-5.61 -0.16,-5.42 v 0 l 2.97,-8.05 v 0 l 0.33,-11.08 v 0 z"
     class="land"
     title="Bács-Kiskun"
     id="HU-BK" />
  <path
     style="fill:#cccccc;fill-opacity:1;stroke:#ffffff;stroke-width:0.5;stroke-opacity:1"
     d="m 175.32052,304.78491 2.1,0.76 2.27,-1.21 1.94,2.54 0.68,-0.94 -1.46,-0.66 -0.09,-2.97 1.75,-0.86 1.56,1 4.53,-2.97 -1.42,-7.47 3.76,-1.6 3.68,0.84 4.25,-2.01 2.83,2.49 0.47,4.86 3.28,1.69 -1.05,7.02 3.52,0.4 0.56,1.5 -1.75,4.83 -3.61,1.5 0.79,1.52 8.66,-4.84 1.28,-1.86 -0.13,-3.97 2.6,1.33 1.46,2.56 0.98,-0.99 0.53,0.81 -0.86,5.52 3.83,1.16 -0.69,1.31 2.17,3.72 1.94,-1.01 6.8,8.19 0.7,-0.64 5.07,3.04 5.93,-0.22 v 0 l 2.7,1.12 -1.25,1.39 0.88,4.43 2.51,1.26 -2.18,0.87 1.98,2.92 -3.53,7.59 2.32,2.1 -4.33,1.5 -0.69,1.66 1.4,1.25 v 0 l -0.39,3.84 -1.3,0.18 -8.02,-5.08 -3.99,0.12 0.14,2.56 -1.9,1.1 1.11,1.64 -1.36,1.03 -0.69,-1.12 -1.44,2.92 0.7,1.79 -4.43,3.18 0.01,1.83 -1.42,-0.35 -3.33,2.58 -2.75,-1.43 -0.84,3.65 -3.2,0.54 0.13,3.15 -3.66,-0.42 -3.84,-4.21 -2.4,3.42 -3.68,-1.8 -4.77,-0.17 -1.28,-2.19 -3.9,-1.11 -1.62,1.39 -4.2,-1.66 -1.69,2.63 -1.94,0.49 -7.61,-3.78 -6.26,1.34 -2.07,-0.82 -4.02,3.37 -3.37,-5.7 -5.99,-0.28 -1.72,-2.32 -6.27,-0.66 -1.57,-1.65 v 0 l 1.59,-0.52 1.47,-2.78 0.81,1.85 0.72,-1.07 2.17,0.39 0.64,-1.73 -0.13,-2.73 -3.14,-3.48 0.04,-1.84 -2.84,-0.1 -0.72,-1.6 0.14,2.21 -1.44,-0.15 -1.78,-6.37 2.72,-0.78 -2.29,-6.85 4.03,-2.35 0.53,-3.67 -1.36,-1.49 1.86,-0.99 0.16,-6.19 3.46,-6.48 -0.91,-1.88 1.75,-1.33 1.25,3.55 1.81,0.6 2.26,-3.34 4.54,2.26 2.98,-2.08 3.67,0.27 1.11,-0.96 -0.35,-3.6 2.18,-6.25 z m 13.4,20.41 v 0 l -3.12,2.18 v 0 l 0.66,2.23 -3.79,0.12 1.69,4.36 -0.52,2.63 3.66,2.11 2.98,3.69 v 0 l 5.16,-2.02 0.79,-4.37 v 0 l 3.1,-4.58 3.83,0.58 0.77,-1.23 -1.41,-3.94 v 0 l -3.12,-4.11 -6.89,3.35 z"
     class="land"
     title="Baranya"
     id="HU-BA" />
  <path
     style="fill:#cccccc;fill-opacity:1;stroke:#ffffff;stroke-width:0.5;stroke-opacity:1"
     d="m 439.07052,182.28491 3.93,0.69 2.87,4.46 1.19,-2.09 5.66,4.47 6.5,0.86 2.71,2.34 6.55,-0.34 -0.13,4.24 -1.37,1.04 0.62,3.21 -5.23,3.9 0.88,3.08 -1.2,1.86 11.27,5.59 7.53,1.03 -1.53,3.97 1.99,-1.84 3.33,1.92 1.58,-1.75 6.15,-0.94 0.1,-5.38 3.17,0.55 2.35,-3.22 0.94,-0.55 0.25,1.31 1.49,-1.07 v 0 l 1.76,0.77 0.91,2.26 -1.9,3.84 1.24,1.09 -3.9,3.98 -3.41,0.79 1.34,5.45 -1.2,2.87 -7.21,3.59 -0.12,4.75 -3.2,4.62 3.8,3.56 0.17,2.48 -3.2,4.51 -1.88,-1.25 -3.62,0.2 2.15,4.09 -3.19,2.17 -0.89,3.04 -3.9,-1.92 -4.79,2.57 -1.02,3.52 1.56,1.14 -2.59,4.74 -1.43,0.52 -1.33,5.32 1.2,3.17 1.99,0.16 1.45,4.45 -2.08,3.43 0.5,1.11 -6.48,-0.89 -1.52,1.49 -0.69,7.26 -2.2,2.28 0.58,3.14 -6.02,0.56 -1.06,4.93 -3.53,2.42 -2.45,-0.74 -1.16,-2.18 -6.47,0.31 -0.61,-1.79 -1.77,0.27 -0.73,1.77 -3.93,-3.25 -8.71,1.6 v 0 l -2.44,-1.87 0.86,-7.97 -1.75,-4.43 -4.2,0.65 -0.91,3.7 -5.29,0.05 -4.2,-2.08 -2.66,-3.44 v 0 l 3.09,-1.83 -0.07,-4.29 v 0 -1.74 l 2.22,-0.7 0.82,-9.03 -3.9,-3.71 -0.12,-11.4 0.63,-4.68 1.23,-0.03 -0.96,-5.95 1.47,-4.37 -2.99,-2.34 -5.13,0.05 -4.94,-4.81 -2.73,1.08 v 0 l -1.37,-7.23 4.53,-5.05 5.03,0.21 2.6,-1.13 0.75,-1.78 4.23,-0.1 3.97,2.32 5.57,-2.15 2.13,-5.12 -2.08,-0.32 1.98,-0.26 -0.27,-1.96 -1.25,-0.45 0.02,-7.2 1.48,0.13 2.8,-2.76 0.23,2.18 4.44,-0.03 0.21,-1.61 3.16,-2.55 1.52,0.58 -1.84,-5.88 0.24,-1.31 2.01,-0.46 -1.77,-3.58 8.89,-5.15 z m 7.64,65 v 0 l -7.46,2.66 -2.21,-1.51 -3.7,3.32 2.11,2.57 1.43,-0.03 2.74,4.19 -2.15,5.29 15.11,-4.14 3.22,-3.38 2.16,0.85 2.29,-1.39 -0.28,-2.62 -2.42,-2.89 -2.18,-0.1 -1.47,-1.64 -5.73,1.97 z"
     class="land"
     title="Békés"
     id="HU-BE" />
  <path
     style="fill:#cccccc;fill-opacity:1;stroke:#ffffff;stroke-width:0.5;stroke-opacity:1"
     d="m 447.21052,248.11491 0.95,2.33 v 0 l 5.73,-1.97 1.48,1.64 2.18,0.11 2.42,2.88 0.28,2.63 -2.3,1.38 -2.15,-0.85 -3.22,3.39 -15.11,4.13 2.15,-5.29 -2.74,-4.19 -1.43,0.02 -2.11,-2.57 3.7,-3.32 2.21,1.51 7.46,-2.66 v 0 z"
     class="land"
     title="Békéscsaba"
     id="HU-BC" />
  <path
     style="fill:#cccccc;fill-opacity:1;stroke:#ffffff;stroke-width:0.5;stroke-opacity:1"
     d="m 481.09052,0.29490924 6.8,4.87999996 2.43,5.7099998 6.34,-0.31 4.54,15.44 3.69,1.92 2.1,4.51 8.7,2.33 1.34,-4.44 1.69,0.01 0.66,1.45 2.09,-0.62 0.11,-1.59 0.28,0.98 0.49,-0.95 2.71,1.14 1.92,-2.29 3.37,0.31 3.83,-2.2 2.53,2.04 1.84,-1.22 0.93,1.93 0.84,-1.24 2.03,0.4 v 0 l 0.48,2.5 -1.77,0.06 1.67,1.1 -3.78,3.6 0.86,2.3 -2.22,-0.27 0.05,1.39 -1.56,-0.93 1.09,1.18 -0.69,0.97 -1.81,-2.03 0.09,1.19 -2.02,0.03 1.04,-1.92 -1.13,0.15 -2.67,2.43 -0.15,2.31 -0.96,-0.4 -2.25,2.63 -0.66,-0.67 -1.74,3.23 -2.1,-0.87 -4.04,0.8 -0.91,2.13 -1.02,-2.48 -0.4,1.37 -1.09,-1.09 -1.04,3.44 -1.54,1.54 -1.17,-0.63 -1.85,2.32 0.08,-1.75 -2.46,0.21 -0.33,1.58 -5.03,-0.09 -4.82,-0.56 -3.15,-1.85 -5.51,3.16 0.36,1.32 -3.71,-0.62 -0.83,1.85 -2.51,-1.59 -2.57,7.56 3.25,4.22 -1.57,0.34 0.38,1.44 2.27,0.73 -2.23,0.83 -0.09,2.5 -2.12,-0.68 -0.53,2.58 -4.83,0.01 -1.57,1.56 -3.52,-1.06 -0.11,-1.26 -2.71,0.08 -1.06,-2.22 -2.73,2.14 -0.44,2.19 -4.43,-0.46 -0.37,-2.43 -3.02,-0.38 -4.84,5.64 3.89,5.88 v 0 l -0.98,4.06 -1.73,1.46 3.02,0.98 -3.77,2.96 0.01,3.55 -2.5,1.54 2.1,4.450001 -3.23,9.01 -4,-0.17 0.03,4.28 -4.49,0.93 -1.29,2.85 -2.99,1.12 -1.49,-1.73 0.15,2.56 1.36,0.38 -4.58,0.42 2.29,3.2 -0.58,0.82 -3.8,-3.39 v 0 l -3.04,-1.76 -2.76,2.04 0.61,1.61 v 0 l -5.88,-4.64 -5.94,0.28 -5.26,-3.17 -0.82,-1.08 2.07,-2.78 -8.15,-8.3 -0.03,-8.170001 -3.5,-1.55 -1.58,-2.76 v 0 l 2.21,-2.13 v 0 l 2.55,0.6 -0.77,-1.26 2.4,-1.79 -6.19,-5.44 3.58,-7.23 -0.99,-4.75 2.35,-1.36 v 0 l 11.15,-0.87 3.68,2.97 3.3,0.81 1.48,3.12 3.52,-1.86 4.47,-0.09 3.19,-2.13 1.13,-3.66 -1.2,-0.52 0.34,-4.17 -1.55,-2.58 -4.18,-1.23 -2.27,0.62 -2.35,-2.41 -1.01,1.16 -6.06,-0.34 -5.02,3.06 -7.09,-0.26 -3.83,1.92 v 0 l -2.63,-4.64 -4.26,-0.4 -1.37,0.56 0.33,1.71 -2.36,2.83 -0.65,3.18 -3.63,-4.12 -2.76,0.05 -0.73,3.35 -3.13,1.07 -6.64,-3.23 -0.72,-2.92 -6.4,-1.07 v 0 l -3.74,-3.41 v 0 l 2.57,-2 -0.91,-0.86 0.78,-0.96 4.93,-3.58 0.36,-4.12 6.49,0.29 -0.4,-1.3 2.3,-0.18 -0.1,-2.02 1.23,-0.44 4.09,2.53 3.6,-1.46 1.06,-3.62 6.61,-9.05 0.64,-7.33 8.17,-9.36 -0.5,-5.5299998 1.46,-0.95 1.6,1.29 1.03,-2.26 3.44,1.33 6.46,-3.57 16.92,-3.14999996 -0.6,1.05999996 2.49,3.29 4.66,-0.85 3.57,4.79 2.19,0.7 2.92,-2.02 4.61,0.8 2.55,1.25 0.57,2.5699998 1.88,0.88 2.6,-3.3299998 2.66,-0.28 3.75,-2.61 7.67,2 1.38,-5.22 8.51,0.3 0.7,-2.76 z"
     class="land"
     title="Borsod-Abaúj-Zemplén"
     id="HU-BZ" />
  <path
     style="fill:#cccccc;fill-opacity:1;stroke:#ffffff;stroke-width:0.5;stroke-opacity:1"
     d="m 270.70052,131.72491 4.12,3.44 -0.78,0.98 2.6,1.74 -1.17,0.68 v 0 l 2.13,2.24 2.21,0.28 v 0 l 1,1.05 2.22,-0.61 1.69,3.8 4.96,-0.91 -0.39,2.99 1.79,3.9 -3,0.91 -1.84,2.79 -1.39,-0.28 -5.37,5.64 -2.4,4.58 -3.61,1.54 -3.83,-3.88 0.63,-1.03 -1.94,-2.39 -4.64,2.92 -1.01,-1.17 -5.68,2.11 -0.03,-5.9 1.72,-1.59 -0.54,-2.61 1.08,-1.34 -1.73,-2.84 -2.46,-1.2 0.88,-1 -1.08,-1.03 0.8,-1.59 -1.44,-0.47 0.83,-2.81 -0.87,0.02 1.29,-1.04 -1,-2.78 9.46,-2.01 -0.79,-2.35 1.54,-0.78 3.18,0.41 -0.32,2.65 1.98,-3.04 v 0 z"
     class="land"
     title="Budapest"
     id="HU-BU" />
  <path
     style="fill:#cccccc;fill-opacity:1;stroke:#ffffff;stroke-width:0.5;stroke-opacity:1"
     d="m 359.38052,320.98491 2.06,-3.99 1.95,0.59 3.55,-1.49 5.35,11.22 v 0 l -4.87,-4.5 -3.73,1.84 -2.83,-2.12 -0.46,-1.96 z m 41.1,-28.58 2.66,3.44 4.21,2.09 5.29,-0.05 0.91,-3.7 4.21,-0.65 1.75,4.43 -0.86,7.97 2.44,1.87 v 0 l -2.27,3.54 0.83,5.53 -2.75,-0.32 -1.4,5.5 -3.31,2.84 -1.9,-0.95 -1.51,3.17 -8.52,-6.87 -4.11,-1.68 -0.41,2.87 -2.81,3.17 -7.51,-1.8 -1.23,1.18 -1.17,-2.51 -5.95,3.09 -3,3.8 -0.53,-0.66 v 0 l 1.41,-0.71 1.3,-8.8 -5.34,0.13 -1,-5.2 8.11,0.47 -0.12,-8.49 v 0 l 8.19,-1.04 z m -11.39,-53.75 2.73,-1.08 4.95,4.81 5.13,-0.05 2.99,2.34 -1.47,4.37 0.96,5.95 -1.23,0.03 -0.63,4.68 0.12,11.4 3.9,3.71 -0.82,9.03 -2.22,0.71 v 1.74 0 l -6.36,-0.13 -4.8,-6.7 -1.56,0.21 -1.46,-2.42 -3.96,2.18 -1.29,-2.27 -6.06,0.24 0.57,2.88 -3.99,0.95 1.52,2.7 -4.01,3.97 -2.03,-0.81 -0.04,-4.12 -1.67,0.82 -1.55,7.65 v 0 0 0 l -2.18,0.84 0.11,3.86 2.4,1.79 -0.97,2.61 -8,-2.08 -0.49,5.78 -4.54,-1.67 -4.53,4.21 3.24,2.64 5.98,1.98 -2.15,3.56 1.53,4.47 -3.93,1.91 v 0 l -8.33,-0.65 -10.31,6.14 -5.18,-2.35 -5.77,-5.36 v 0 l -5.49,-9.96 4.94,-5.3 -3.19,-5.44 5.96,-1.9 1.99,1.55 6.8,-5.25 3.44,2.32 2.11,-1.79 1.83,-4.53 -1.58,-3.14 1.52,-2.22 -0.53,-2.52 -4.11,-4 -3.62,0.68 -2.64,-3.28 10.01,-6.3 4.71,3.9 4.7,-5.49 0.01,-4.32 -1.22,-1.66 2.77,-7.69 -3.91,-4.22 8.46,-10.02 v 0 l 2.61,5.5 1.53,-0.55 0.34,-2.4 5.67,4.18 5.32,-5.95 2.12,0.56 3.2,3.49 3.27,0.85 1.91,-3.11 4.68,-0.12 z"
     class="land"
     title="Csongrád"
     id="HU-CS" />
  <path
     style="fill:#cccccc;fill-opacity:1;stroke:#ffffff;stroke-width:0.5;stroke-opacity:1"
     d="m 480.72052,142.85491 -0.18,-2.73 2.88,-7 8.74,-1.49 6.42,-3.2 -1.21,4.26 3.08,-3.08 6.61,1.72 -2.04,6.57 4.36,0.54 5.74,-4 4.55,3.8 -1.11,7.03 -3.35,6.1 -2.16,-0.28 -3.47,3.26 -7.01,2.3 -1.2,-3.39 -1.56,-0.69 -3.61,0.3 -4.86,3.37 -2.54,-12.1 z"
     class="land"
     title="Debrecen"
     id="HU-DE" />
  <path
     style="fill:#cccccc;fill-opacity:1;stroke:#ffffff;stroke-width:0.5;stroke-opacity:1"
     d="m 256.86052,223.37491 -6.75,0.92 -6.47,-9.77 4.48,-1.87 9.07,-0.36 v 0 z"
     class="land"
     title="Dunaújváros"
     id="HU-DU" />
  <path
     style="fill:#cccccc;fill-opacity:1;stroke:#ffffff;stroke-width:0.5;stroke-opacity:1"
     d="m 391.45052,93.734909 -2.35,0.55 -0.49,3.97 -5.89,0.67 0.29,-1.77 -3.38,-3.7 0.87,-0.95 -2.19,-9.08 2.51,-4.96 4.87,2.43 -0.58,2.65 2.01,3.87 2.6,1.69 1.73,-1.4 1.35,0.77 0.86,3.13 v 0 z"
     class="land"
     title="Eger"
     id="HU-EG" />
  <path
     style="fill:#cccccc;fill-opacity:1;stroke:#ffffff;stroke-width:0.5;stroke-opacity:1"
     d="m 232.74052,136.04491 0.54,6.16 2.94,5.33 2.21,0.04 2.98,4.5 0.33,3.99 -2.82,3.3 9.44,10.97 -0.24,2.15 1.73,0.41 0.16,2.94 3.56,0.72 -4.15,16.17 2.36,10.18 6.05,6.07 v 0 l -0.64,3.34 v 0 l -9.07,0.36 -4.48,1.87 6.47,9.76 6.75,-0.92 v 0 l -2.97,8.06 v 0 l -5.71,1.3 1.42,1.32 -1.25,2.19 -5.99,4.26 -0.1,2.38 -4.26,0.47 -2.72,2.09 1.26,3.03 -7.15,5.13 -2.14,-0.26 -1.28,-7.27 -3.68,-1.64 -1.63,-3.19 -4.48,2.48 0.55,2.31 -4.13,0.72 -3.59,-0.91 -0.38,-5.49 -1.36,-1.97 -0.18,4.58 -2.17,-2.72 -1.41,1.72 -4.54,-1.72 -0.81,-3.61 -5.12,4.56 -3.53,0.72 v 0 l -1.29,-5.44 1.06,-2.12 -0.88,-3.73 0.96,-0.49 -1.83,-0.64 2.3,-1.96 -1.91,-5.69 -2.79,-3.65 v 0 l 6.66,-7.38 2.37,-0.71 -2.36,-0.29 -2.86,-7.45 2.75,-2.18 -2,-8.16 1.08,-7.81 -4.4,-3.14 -1.57,-3.43 -4.57,2.17 -2.86,-4.19 -1.6,0.41 -0.89,-3.62 1.66,-1.98 -1.93,-0.29 -0.72,-1.67 v 0 l 1.55,-2.19 2.97,-0.94 -0.67,-1.86 2.5,-3.65 0.78,-6.06 2.11,-1 1.27,1.65 2.66,-0.41 1.07,-1.21 -0.59,-3.22 4.92,2.4 0.5,3.05 5.81,4.65 1.61,-1.94 4.15,-0.36 -2.31,-2.53 0.42,-1.12 1.68,-1.94 1.66,1.3 3.04,-4.62 2.25,-1.04 v 0 l 3.29,-2.6 -1.16,-1.85 1.6,-0.31 -0.64,-2.93 3.68,-0.68 v 0 l 4.39,-2.53 3.66,1.32 z m -23.34,39.09 -1.8,0.92 v 0 l -0.42,2.63 -7.5,7.9 4.02,7.17 1.68,0.89 0.32,5.83 5.35,-2.06 1.07,1.39 3.41,-4.11 4.67,-1.36 -1.85,-4.39 -1.89,0.12 1.1,-2.83 -1.89,-3.51 1.55,-2.16 -2.74,-3.1 -2.99,0.2 z"
     class="land"
     title="Fejér"
     id="HU-FE" />
  <path
     style="fill:#cccccc;fill-opacity:1;stroke:#ffffff;stroke-width:0.5;stroke-opacity:1"
     d="m 135.93052,118.04491 4.71,-3.25 2.45,1.87 6.38,-0.71 3.75,2.38 1.92,5.29 -12.38,6.55 -2.89,-0.9 -3.02,5.31 -5.84,-0.49 -3.63,-1.81 -0.66,-2.49 4.36,-1.02 0.92,-6.24 z"
     class="land"
     title="Győr"
     id="HU-GY" />
  <path
     style="fill:#cccccc;fill-opacity:1;stroke:#ffffff;stroke-width:0.5;stroke-opacity:1"
     d="m 102.61052,77.234909 1.85,2.8 6.11,0.32 8.44,9.11 2.62,5.65 6.7,2.84 3.07,6.000001 3.98,-0.56 9.29,8.74 6.41,2.29 6.94,-0.88 3.13,0.9 v 0 l 0.84,5.14 -1.44,8.58 3.85,2.71 -2.38,7.62 2.9,1.57 -2.54,0.92 -2.34,-1 2.48,6.89 -2.04,0.87 0.14,1.76 -1.41,-0.03 1.17,1.93 -1.39,0.83 v 0 l -3.61,-4.67 -1.87,2.49 -1.33,-2.36 -3.75,4.64 -2.49,-2.29 0.29,2.71 -2.35,0.43 -0.19,-2.87 -2.53,-0.11 -3.01,2.69 -1.86,-1.76 -1.44,1.13 -3.27,-4.1 -2.86,2.72 -8.69,-2.87 -1.82,1.46 -3.09,-0.78 -1.86,5.43 -8.99,1.73 -3.27,-1.16 -0.82,0.97 -2.239999,-1.69 -1.89,1.58 v 0 l -2.63,-0.74 -1.75,2.73 -6.83,3.07 1.79,-6.15 -1.51,-2.67 -7.96,5.88 -1.94,2.78 -2.99,-3.14 -2.44,0.69 -3.14,-4.65 -3.46,1.88 -0.56,-1.17 -1.4,0.94 -0.54,-0.89 -6.19,4.19 -3.28,-1.12 -2.86,-3.48 v 0 l 2.14,-3.69 -1.58,-3.45 3.34,-1.38 2.37,-3.93 -4.64,-3.75 1.07,-1.44 -0.38,-3.49 -1.65,-2.35 -7.52,-0.21 v 0 l 4.19,-2.23 6.49,-1.19 2.03,1.06 3.29,-5.7 v 0 l 7.33,0.2 3.48,-5.09 0.54,4.14 1.04,0.2 18.71,-2.66 -1.82,-2.54 -1.66,-8.78 1.99,-2.09 -2.37,-2.61 0.42,-1.34 -3.73,-2.840001 0.65,-1.22 6.03,-0.8 1.44,-2.66 -0.38,-1.68 1.6,-2.6 -1.97,-1.24 2.18,-3.38 -1.93,-1.42 6.92,-5.54 z m 29.39,45.300001 -0.92,6.24 -4.55,1.95 0.85,1.56 7.3,2.64 2.17,-0.33 3.02,-5.31 2.89,0.9 12.39,-6.54 -1.92,-5.29 -3.75,-2.38 -6.38,0.71 -2.44,-1.87 -6.07,5.07 z"
     class="land"
     title="Győr-Moson-Sopron"
     id="HU-GS" />
  <path
     style="fill:#cccccc;fill-opacity:1;stroke:#ffffff;stroke-width:0.5;stroke-opacity:1"
     d="m 452.20052,84.734909 6.57,0.52 5.9,4.28 1.06,2.97 4.42,-2.13 15.86,-0.66 1.9,-2.35 2.27,0.89 v 0 l 1.98,0.83 -0.81,1.72 v 0 l 0.84,3.84 -2.02,12.930001 5.23,2.5 3.4,5.98 6.1,-0.41 1.21,3.28 4.76,0.31 -0.43,2.17 5.85,2.86 4.78,-4.25 0.3,-3.5 3.28,-0.94 5.52,3.86 -0.46,3.66 2.61,1.56 -0.69,2.62 1.6,3.06 4.9,-6.65 2.58,1.62 2.39,8.24 v 0 l -2.98,4.92 -3.67,1.49 1.35,1.63 -0.83,1.08 -1.43,-1.37 -2.23,3.05 -1.23,5.34 2.23,3.34 0.2,5.17 -2.22,4.7 -6.31,0.45 -5.48,11.35 0.79,1.9 -3.28,4.81 0.62,6.53 -3.71,2.16 -2.32,8.53 -5.9,1.19 -3.99,6.93 -2.92,0.59 0.86,2.3 v 0 l -1.49,1.07 -0.25,-1.31 -0.94,0.55 -2.35,3.22 -3.17,-0.55 -0.1,5.38 -6.15,0.94 -1.58,1.75 -3.33,-1.92 -1.99,1.85 1.53,-3.97 -7.52,-1.03 -11.27,-5.59 1.2,-1.86 -0.88,-3.08 5.23,-3.9 -0.62,-3.21 1.37,-1.04 0.13,-4.24 -6.55,0.34 -2.71,-2.34 -6.5,-0.86 -5.66,-4.47 -1.19,2.09 -2.87,-4.46 -3.92,-0.69 v 0 l 3.98,-2.85 1.05,-12.03 -3.45,-17.12 1.06,-2.46 -1.52,-2.3 0.1,-7.87 -4.14,-3.92 -4.78,1.92 -4.4,-2 -1.71,-5.63 0.49,-3.99 v 0 l 3.8,3.39 0.58,-0.83 -2.29,-3.19 4.58,-0.43 -1.36,-0.37 -0.14,-2.57 1.49,1.74 2.99,-1.12 1.29,-2.85 4.49,-0.94 -0.04,-4.28 4.01,0.17 3.23,-9.01 -2.1,-4.450001 2.5,-1.54 -0.01,-3.55 3.76,-2.95 -3.01,-0.98 1.73,-1.46 z m 36.6,59.410001 2.54,12.1 4.85,-3.36 3.62,-0.31 1.56,0.69 1.2,3.39 7,-2.3 3.48,-3.26 2.16,0.28 3.36,-6.1 1.11,-7.03 -4.56,-3.8 -5.74,4 -4.36,-0.53 2.04,-6.58 -6.6,-1.72 -3.09,3.08 1.21,-4.26 -6.42,3.2 -8.74,1.48 -3.18,8.68 0.48,1.05 4.94,0.79 z"
     class="land"
     title="Hajdú-Bihar"
     id="HU-HB" />
  <path
     style="fill:#cccccc;fill-opacity:1;stroke:#ffffff;stroke-width:0.5;stroke-opacity:1"
     d="m 359.34052,60.284909 6.4,1.07 0.72,2.92 6.64,3.23 3.13,-1.07 0.73,-3.35 2.76,-0.05 3.63,4.12 0.65,-3.18 2.36,-2.83 -0.33,-1.71 1.37,-0.56 4.26,0.4 2.63,4.64 v 0 l 0.17,3.27 2.13,3.19 v 0 l -2.35,1.36 0.99,4.75 -3.58,7.23 6.19,5.44 -2.4,1.79 0.77,1.26 -2.55,-0.6 v 0 l -0.86,-3.13 -1.35,-0.77 -1.73,1.4 -2.6,-1.69 -2.01,-3.87 0.58,-2.65 -4.87,-2.43 -2.51,4.96 2.19,9.08 -0.87,0.95 3.38,3.7 -0.29,1.77 5.89,-0.67 0.49,-3.97 2.35,-0.55 v 0 l 1.58,2.76 3.5,1.55 0.03,8.170001 8.15,8.3 -2.07,2.78 0.82,1.08 5.26,3.17 5.94,-0.28 5.88,4.64 v 0 l -1.08,1.69 -3.93,1.19 0.11,3.28 -1.72,1.19 0.53,3.28 -11.41,8.14 -5.02,1.75 -1.76,4.43 -3.74,-0.37 0.8,-2.88 -2.87,1.08 0.62,5.59 -3.88,2.55 -2.07,-0.66 0.21,-2.56 -2.7,0.97 -2.62,-1.92 -2.95,-4.28 1.25,-2.96 -1.28,-4.16 -5.35,-3.04 -2.06,-6.16 -9.52,2.47 2.9,3.25 -2.04,1.57 -8.03,-3.61 -1.3,-1.76 1.09,-2.95 -2.06,-7.65 -2.18,-0.48 -5.16,2.89 -3.52,-1.62 -0.53,4.93 -2.27,1.01 -2.41,3.7 -5.87,-3.46 -4.24,1.73 -0.36,3.27 -3.2,-0.65 v 0 l -2.49,-7.74 -1.72,-0.49 -2.59,-5.09 1.38,-3.34 -3.15,-3.12 v 0 l 3.89,-3.49 1.12,0.77 1.53,-1.17 -1.07,-5.47 1.87,-0.93 0.93,1.94 2.2,-2.76 2.89,0.15 0.87,-3.48 2.91,-2.840001 0.56,-5.03 5.48,3.96 1.48,-0.7 0.74,-2.06 -4.03,-2.1 -0.38,-1.75 6.18,-1.05 2.24,1.77 2.65,-0.08 1.34,-3.25 2.34,-1.28 -0.25,-2.71 1.9,-0.99 -0.36,-2.52 4.39,-1.58 -1.51,-1.54 0.26,-4.42 -4.09,-3.03 -0.22,-1.77 6.19,-2.16 0.68,-2.21 2.34,0.25 z"
     class="land"
     title="Heves"
     id="HU-HE" />
  <path
     style="fill:#cccccc;fill-opacity:1;stroke:#ffffff;stroke-width:0.5;stroke-opacity:1"
     d="m 366.79052,291.42491 1.56,-7.64 1.66,-0.83 0.04,4.13 2.03,0.81 4.02,-3.97 -1.53,-2.7 3.99,-0.96 -0.57,-2.87 6.06,-0.24 1.3,2.28 3.96,-2.19 1.46,2.42 1.56,-0.21 4.8,6.7 6.36,0.13 v 0 l 0.07,4.29 -3.08,1.83 v 0 l -14.39,11.64 -8.19,1.04 v 0 l 0.49,-2.15 -5.13,-1.33 z"
     class="land"
     title="Hódmezővásárhely"
     id="HU-HV" />
  <path
     style="fill:#cccccc;fill-opacity:1;stroke:#ffffff;stroke-width:0.5;stroke-opacity:1"
     d="m 425.73052,124.01491 -0.48,4 1.71,5.63 4.4,2 4.79,-1.92 4.14,3.92 -0.1,7.87 1.51,2.31 -1.05,2.46 3.45,17.12 -1.05,12.03 -3.98,2.85 v 0 l -2.8,5.7 -8.89,5.15 1.77,3.58 -2.01,0.47 -0.23,1.3 1.84,5.88 -1.53,-0.58 -3.16,2.55 -0.2,1.61 -4.44,0.03 -0.24,-2.18 -2.79,2.76 -1.48,-0.13 -0.02,7.2 1.25,0.45 0.27,1.96 -1.97,0.26 2.08,0.32 -2.13,5.12 -5.57,2.15 -3.97,-2.32 -4.23,0.11 -0.75,1.78 -2.6,1.13 -5.02,-0.21 -4.53,5.05 1.37,7.23 v 0 l -1.81,2.29 -4.69,0.12 -1.91,3.11 -3.27,-0.86 -3.2,-3.49 -2.12,-0.56 -5.32,5.95 -5.67,-4.18 -0.34,2.4 -1.54,0.55 -2.6,-5.5 v 0 l -1.57,-2.59 -1.06,0.51 0.22,3.04 -2.67,-1.76 0.12,-2.18 3.13,-0.57 -0.34,-1.13 -2.15,0.42 -1.5,-2.02 3.53,-1.91 0.94,0.88 1.13,-2.53 2.61,0.29 6.55,-5.3 -1.54,-2.83 -3.28,-0.44 -0.01,-1.41 2.46,-1.16 0.52,-2.86 -4.18,-3.14 v 0 l 1.58,-3.49 -2.02,-1.11 -3.14,-8.48 -0.57,-2.57 1.4,-3.34 v 0 l 4.98,3.2 -0.64,0.82 1.42,1.55 4.46,0.3 3.21,3.1 2.87,0.03 3.67,-3.55 -1.44,-4.15 -2.9,-1.46 2.52,-6.4 -2.77,0.34 1.44,-1.19 -1.74,-2.41 -1.98,0.08 -5.71,-3.65 -5.51,5.79 v 0 l -3.58,-4 -5.13,-1.81 2.72,-6.75 -2.62,-5.88 -14.36,-10.71 -2.76,-4.33 -4.59,-3.9 3.77,-5.64 -4.81,-0.39 -3.08,2.47 -4.6,-4.08 1.3,-5.49 v 0 l 3.2,0.65 0.36,-3.27 4.24,-1.73 5.87,3.46 2.41,-3.7 2.27,-1.01 0.53,-4.93 3.52,1.62 5.16,-2.89 2.18,0.48 2.06,7.65 -1.09,2.95 1.3,1.76 8.03,3.61 2.04,-1.57 -2.9,-3.25 9.52,-2.47 2.06,6.16 5.35,3.04 1.28,4.16 -1.25,2.96 2.95,4.28 2.62,1.92 2.7,-0.97 -0.21,2.56 2.07,0.66 3.88,-2.55 -0.62,-5.59 2.87,-1.08 -0.8,2.88 3.74,0.37 1.76,-4.43 5.02,-1.75 11.41,-8.14 -0.53,-3.28 1.72,-1.19 -0.11,-3.28 3.93,-1.19 1.08,-1.69 v 0 l -0.61,-1.61 2.76,-2.04 z"
     class="land"
     title="Jász-Nagykun-Szolnok"
     id="HU-JN" />
  <path
     style="fill:#cccccc;fill-opacity:1;stroke:#ffffff;stroke-width:0.5;stroke-opacity:1"
     d="m 151.12052,288.58491 0.13,0.68 v 0 l 2.51,-2.78 3.48,4.5 1.15,6.74 -2.58,0.56 -0.53,1.25 0.77,1.19 -1.2,6.31 -1.59,-0.43 -0.7,-2.71 -2.22,0.5 -0.47,2.28 v 0 l -1.92,-0.73 -0.22,-3.14 v 0 l -2.46,-6.38 1.01,-3.39 -0.73,-5.19 v 0 l 1.13,-1.94 z"
     class="land"
     title="Kaposvár"
     id="HU-KV" />
  <path
     style="fill:#cccccc;fill-opacity:1;stroke:#ffffff;stroke-width:0.5;stroke-opacity:1"
     d="m 335.78052,220.16491 2.36,6.76 -4.37,5.99 -3.39,-2.96 -1.02,2.21 -5.03,1.17 -1.71,3.07 -3.89,0.24 0.38,-1.73 -3.18,-3.79 -3.45,-2.61 -2.04,-0.02 -0.54,-3.86 -5.06,-6.18 2.54,-2.45 1,1.05 3.62,-4.87 7.57,2.3 3.22,-1.34 v 0 l 8.41,6.25 1.96,-0.78 z"
     class="land"
     title="Kecskemét"
     id="HU-KM" />
  <path
     style="fill:#cccccc;fill-opacity:1;stroke:#ffffff;stroke-width:0.5;stroke-opacity:1"
     d="m 243.41052,103.41491 3.31,0.63 v 0 l 5.17,2.25 1.61,8.24 1.99,1.86 -1.79,1.98 -2.02,-1.48 -4.31,1.1 1.01,8.16 -7.7,-2.58 0.09,1.39 -2.74,-0.01 3.01,2.92 -3.59,2.14 -1.86,1.88 -0.01,1.87 -2.84,2.28 v 0 l -6.67,1.81 -3.67,-1.32 -4.39,2.53 v 0 l -0.25,-2.24 -3.87,-3.42 -4.52,-1.54 -4.78,0.86 -2.41,4.33 1.6,3.17 1.35,-0.49 0.43,2.34 4.49,2.8 1.19,2.56 v 0 l -2.24,1.04 -3.05,4.62 -1.66,-1.31 -1.67,1.94 -0.43,1.12 2.31,2.53 -4.15,0.36 -1.61,1.94 -5.81,-4.66 -0.49,-3.04 -4.92,-2.4 0.59,3.22 -1.08,1.21 -2.66,0.42 -1.27,-1.65 -2.11,0.99 -0.78,6.07 -2.5,3.65 0.67,1.86 -2.97,0.94 -1.55,2.19 v 0 l -6.74,0.08 -0.22,-2.08 -2.54,-1.7 1.6,-0.59 0.04,-1.5 -6.46,-1.95 2.1,-4.33 -2.66,-4.19 v 0 l 1.39,-0.83 -1.17,-1.93 1.4,0.03 -0.13,-1.76 2.04,-0.86 -2.48,-6.89 2.33,1 2.54,-0.92 -2.9,-1.57 2.38,-7.62 -3.85,-2.71 1.45,-8.57 -0.84,-5.14 v 0 l 4.75,-0.68 2.32,-1.75 2.81,1.51 2.42,-1.37 4,0.02 19.55,3.38 14.5,-4.45 3.98,1.66 4.06,-1.66 9.44,0.76 6.81,-3.52 1.55,-3.68 z"
     class="land"
     title="Komárom-Esztergom"
     id="HU-KE" />
  <path
     style="fill:#cccccc;fill-opacity:1;stroke:#ffffff;stroke-width:0.5;stroke-opacity:1"
     d="m 394.29052,63.914909 3.83,-1.92 7.09,0.26 5.02,-3.06 6.06,0.34 1.01,-1.16 2.35,2.41 2.27,-0.62 4.18,1.23 1.55,2.58 -0.34,4.17 1.2,0.52 -1.13,3.66 -3.19,2.13 -4.47,0.09 -3.52,1.86 -1.48,-3.12 -3.3,-0.81 -3.68,-2.97 -11.15,0.87 v 0 l -2.13,-3.19 z"
     class="land"
     title="Miskolc"
     id="HU-MI" />
  <path
     style="fill:#cccccc;fill-opacity:1;stroke:#ffffff;stroke-width:0.5;stroke-opacity:1"
     d="m 83.180521,292.27491 -3.59,2.61 -0.33,3.53 -3.31,-0.73 -1.1,0.96 -2.46,-3.57 2.73,-14.65 2.69,0.21 -0.2,-5.08 1.16,-0.46 0.74,1.12 2.97,-2.81 1.99,0.56 -0.13,6.99 3.15,2.59 -0.4,2.43 1.43,0.63 0.25,2.17 v 0 l -2.26,2.34 -2.67,-1.89 z"
     class="land"
     title="Nagykanizsa"
     id="HU-NK" />
  <path
     style="fill:#cccccc;fill-opacity:1;stroke:#ffffff;stroke-width:0.5;stroke-opacity:1"
     d="m 319.65052,47.354909 1.87,-0.16 2.26,4.78 2.68,0.19 1.98,-1.8 4.77,2.91 0.61,1.45 -2.03,2.57 1.18,1.49 2.13,-2.18 2.1,0.98 1.07,-2.13 0.43,1.12 3.42,0.52 1.36,2.56 -1.16,2.99 3.4,-1.11 3.36,-4.34 4.89,-1.52 1.63,1.2 v 0 l 3.74,3.41 v 0 l -1.92,3.1 -2.34,-0.25 -0.68,2.21 -6.19,2.16 0.22,1.77 4.09,3.03 -0.26,4.42 1.51,1.54 -4.39,1.58 0.36,2.52 -1.9,0.99 0.25,2.71 -2.34,1.28 -1.34,3.25 -2.65,0.08 -2.24,-1.77 -6.18,1.05 0.38,1.75 4.03,2.1 -0.74,2.06 -1.48,0.7 -5.48,-3.96 -0.56,5.03 -2.91,2.840001 -0.87,3.48 -2.89,-0.15 -2.2,2.76 -0.93,-1.94 -1.87,0.93 1.07,5.47 -1.53,1.17 -1.12,-0.77 -3.89,3.49 v 0 l -2.75,-1.39 -4.54,4.36 1.95,2.16 -2.93,1.3 -2.65,-5.11 -0.39,-5.6 -2.88,-0.36 1.19,-3.39 1.66,-0.8 -1.93,-1.97 -5.93,-0.23 -3.12,-1.81 -8.45,0.95 -4.95,-3.420001 -0.94,1.100001 -5.07,-0.910001 -2.56,0.900001 -1.49,-2.250001 -0.85,0.49 -1.08,-3.25 -9.01,-7.84 0.56,-2.49 3.91,-2.82 1.45,-5.16 -1.68,-1.76 -2.8,-0.07 -2.5,-3.77 v 0 l 4.79,0.22 3.07,-2.87 3.85,2.5 2.03,-1.72 2.21,0.98 2.5,-1.19 9.7,2.59 1.16,-2.15 4.01,-2.33 7.8,-0.63 1.3,1.19 3.96,-2.45 2.33,2.39 0.13,-1.52 1.76,-0.7 3.3,-13.88 4.91,-1.98 4.58,-4.38 z"
     class="land"
     title="Nógrád"
     id="HU-NO" />
  <path
     style="fill:#cccccc;fill-opacity:1;stroke:#ffffff;stroke-width:0.5;stroke-opacity:1"
     d="m 490.19052,88.254909 4.56,-9.4 2.98,1.14 3.89,-0.54 1.48,-3.72 -1.8,-1.95 0.38,-1.5 3.35,-0.37 2.65,1.89 3.74,-0.49 1.31,3.45 -1.07,2.75 1.63,0.17 0.19,1.35 4.34,-0.18 2.08,8.81 -0.65,1.87 -2.21,0.19 -0.59,1.96 -3.1,-1.6 -0.13,5.79 2.16,0.42 -1.11,2.590001 -1.76,0.55 -2.11,-3.310001 -7.33,0.6 -2.07,-2.82 -3.46,-0.65 -0.76,-2.02 -5.42,-2.43 v 0 l 0.81,-1.71 z"
     class="land"
     title="Nyíregyháza"
     id="HU-NY" />
  <path
     style="fill:#cccccc;fill-opacity:1;stroke:#ffffff;stroke-width:0.5;stroke-opacity:1"
     d="m 201.51052,325.90491 1,1.05 v 0 l 1.41,3.95 -0.77,1.23 -3.83,-0.58 -3.1,4.57 v 0 l -1.08,4.72 -4.87,1.67 v 0 l -2.98,-3.69 -3.66,-2.12 0.52,-2.63 -1.68,-4.35 3.79,-0.12 -0.66,-2.23 v 0 l 3.12,-2.18 v 0 l 3.77,1 v 0 l 6.9,-3.35 z"
     class="land"
     title="Pécs"
     id="HU-PS" />
  <path
     style="fill:#cccccc;fill-opacity:1;stroke:#ffffff;stroke-width:0.5;stroke-opacity:1"
     d="m 252.57052,72.474909 2,-0.7 v 0 l 2.5,3.77 2.8,0.07 1.68,1.76 -1.44,5.16 -3.92,2.82 -0.56,2.48 9.01,7.84 1.07,3.26 0.86,-0.5 1.49,2.250001 2.56,-0.900001 5.07,0.910001 0.94,-1.100001 4.95,3.420001 8.46,-0.95 3.12,1.81 5.93,0.23 1.92,1.97 -1.65,0.8 -1.19,3.39 2.88,0.36 0.39,5.61 2.65,5.11 2.93,-1.3 -1.96,-2.17 4.55,-4.36 2.74,1.39 v 0 l 3.15,3.12 -1.38,3.34 2.59,5.09 1.72,0.49 2.49,7.74 v 0 l -1.3,5.49 4.6,4.08 3.08,-2.46 4.81,0.39 -3.77,5.63 4.59,3.9 2.76,4.34 14.36,10.71 2.62,5.88 -2.73,6.75 5.14,1.82 3.58,4 v 0 l 1.45,3.57 -3.34,4.02 v 0 l -1.4,3.35 0.57,2.56 3.14,8.48 2.02,1.11 -1.58,3.5 v 0 l -2.29,-1.5 -6.4,2.56 -1.29,4.83 -9.71,-4.43 -4.06,6.92 v 0 l -2.62,-1.55 -1.97,0.78 -8.41,-6.25 v 0 l -4.03,-4.56 -5.05,-11.9 -2.21,2.05 -5.08,-1.89 -2.67,8.76 -4.38,-1.28 -5.64,4.09 -2.59,4.83 -3.71,-5.28 4.65,-7.58 -7.01,-5.7 -3.42,1.97 -2.03,4.67 -0.81,-1.25 -3.31,-0.13 -8.56,8.29 -4.05,-2.63 -6,-1.35 1.69,2.87 -0.72,1.85 v 0 l -6.04,-6.07 -2.36,-10.18 4.15,-16.17 -3.56,-0.72 -0.16,-2.94 -1.73,-0.41 0.24,-2.15 -9.44,-10.97 2.82,-3.3 -0.33,-3.99 -2.98,-4.5 -2.21,-0.04 -2.94,-5.33 -0.54,-6.16 v 0 l 2.84,-2.28 0.01,-1.87 1.87,-1.88 3.58,-2.14 -3,-2.92 2.73,0.01 -0.09,-1.39 7.71,2.58 -1.01,-8.16 4.3,-1.1 2.02,1.48 1.8,-1.98 -1.99,-1.86 -1.61,-8.24 -5.17,-2.25 v 0 l 0.79,-1.18 -2.6,-3.240001 -5.39,-2.67 -0.32,-6.53 1.7,-4.5 -1.77,-2.83 1.37,-1.84 2.59,0.35 1.32,-1.17 1.32,-7.18 4.66,-0.38 0.42,-1.31 z m 14.95,62.310001 0.33,-2.65 -3.18,-0.41 -1.54,0.79 0.79,2.35 -9.46,2.01 0.99,2.77 -1.29,1.04 0.88,-0.01 -0.83,2.81 1.44,0.47 -0.79,1.59 1.07,1.04 -0.87,1 2.46,1.2 1.72,2.83 -1.07,1.34 0.53,2.61 -1.71,1.6 0.03,5.9 5.69,-2.11 1.01,1.17 4.64,-2.92 1.94,2.39 -0.63,1.04 3.83,3.88 3.6,-1.54 2.41,-4.58 5.37,-5.64 1.39,0.28 1.84,-2.79 3,-0.9 -1.79,-3.9 0.39,-3 -4.96,0.92 -1.69,-3.81 -2.22,0.61 -1,-1.05 v 0 l -1.61,0.11 -2.72,-2.62 v 0 l 1.17,-0.68 -2.6,-1.73 0.78,-0.99 -4.12,-3.44 v 0 l -1.19,0.03 z"
     class="land"
     title="Pest"
     id="HU-PE" />
  <path
     style="fill:#cccccc;fill-opacity:1;stroke:#ffffff;stroke-width:0.5;stroke-opacity:1"
     d="m 118.14052,245.59491 6.3,-0.31 32.6,-16.48 3.2,0.21 2.19,-2.01 -0.05,-3.37 13.64,-6.3 9.09,0.87 v 0 l 2.79,3.65 1.91,5.69 -2.3,1.96 1.83,0.65 -0.96,0.49 0.88,3.74 -1.06,2.12 1.29,5.44 v 0 l -3.87,1.43 0.4,3.26 -5.33,1.58 1.44,3.42 1.33,0.37 -6.42,10.51 1.3,3.56 -1.25,3.89 -1.94,1.27 -1.19,-0.65 -0.69,7.71 3.32,10 -5.65,3.08 0.83,2.2 3.41,-1.2 1.16,3.57 1.5,-0.33 0.51,4.96 -3.03,4.23 v 0 l -9.24,-1.03 -2.18,6.25 0.35,3.6 -1.11,0.96 -3.67,-0.27 -2.98,2.08 -4.54,-2.26 -2.26,3.34 -1.8,-0.6 -1.25,-3.55 -1.75,1.33 0.91,1.89 -3.46,6.48 -0.16,6.19 -1.86,0.99 1.36,1.49 -0.53,3.67 -4.03,2.35 2.29,6.85 -2.72,0.78 1.78,6.37 1.44,0.16 -0.13,-2.21 0.72,1.6 2.84,0.1 -0.04,1.84 3.14,3.48 0.13,2.73 -0.64,1.73 -2.17,-0.39 -0.72,1.07 -0.81,-1.85 -1.47,2.78 -1.59,0.52 v 0 l -2.72,-7.26 -5.03,-4.32 -3.48,0.34 -8.38,-2.07 -0.75,3 -1.56,-1.62 -2.08,0.87 -0.32,-1.91 -3.45,0.66 -0.04,-2.42 0.67,1.03 3.24,-0.85 -2.61,-0.23 0.02,-1.12 1.24,-0.03 -0.15,-2.42 -1.63,1.96 -2.14,-2.74 0.36,3.03 -2.01,0.56 1.06,-2.81 -2.26,0.74 0.81,-2.43 -2.19,0.13 -2.12,-1.63 3.26,-2.18 -3.59,0.13 1.44,-3.51 -3.53,-0.45 1.85,-0.45 -1.5,-1.98 -2.909999,0.18 2.609999,-2.81 -2.009999,0.03 0.26,-1.95 -3.15,0.83 0.43,-5.54 -2.08,-1.1 0.1,-1.4 -3.09,0.12 -2.09,-2.48 -1.73,0.25 -6.6,-4.52 -3.19,-0.49 -0.32,-2.38 -1.78,0.33 -6.09,-4.63 -0.98,-6.56 v 0 l 2.49,1.93 3.01,-0.61 0.47,3.32 4.07,-3.2 3.54,0.81 3.11,-5.29 -2.44,-5.74 v 0 l 0.66,-3.05 2.67,1.89 2.26,-2.33 v 0 l 2.98,1.88 1.19,-0.4 0.14,-2.56 4.08,-0.29 0.27,-7.14 3.199999,-3.41 -0.24,-20.22 3.15,-2.96 1.07,-5.94 8.55,0.39 z m 29.41,59.72 2.32,1.35 v 0 l 0.47,-2.28 2.22,-0.49 0.7,2.71 1.59,0.43 1.2,-6.31 -0.77,-1.19 0.53,-1.25 2.58,-0.56 -1.15,-6.74 -3.48,-4.5 -2.51,2.78 v 0 l -4.32,-3.51 -1.37,2.09 v 0 l 0.73,5.19 -1.01,3.39 2.45,6.38 z"
     class="land"
     title="Somogy"
     id="HU-SO" />
  <path
     style="fill:#cccccc;fill-opacity:1;stroke:#ffffff;stroke-width:0.5;stroke-opacity:1"
     d="m 46.050521,112.26491 9.05,3.16 2.42,6.48 v 0 l -3.29,5.7 -2.03,-1.05 -6.49,1.19 -4.19,2.23 v 0 l -4.9,-2.94 -2.5,0.77 -0.52,-1.33 -5.27,-2.04 1.8,-1.07 0.38,-3.12 2.45,2.12 2.07,-2.85 3.93,-1.2 0.64,-5.34 z"
     class="land"
     title="Sopron"
     id="HU-SN" />
  <path
     style="fill:#cccccc;fill-opacity:1;stroke:#ffffff;stroke-width:0.5;stroke-opacity:1"
     d="m 552.93052,24.084909 2.52,0.14 -2.18,3.14 2.41,3.59 4.73,1.23 -0.65,3.44 6.15,12.03 1.8,-1.95 2.88,-0.27 2.35,1.37 2.89,-1.59 3.69,6.05 3.51,1.67 -0.62,2.6 3.06,4.6 -0.87,0.33 0.28,4.44 7.23,2.25 5.96,-3.81 1.88,0.04 1.04,1.44 0.43,-1.72 2.57,-0.06 0.44,2.11 1.74,-1.35 1.07,4.82 2.15,1.23 0.61,2.9 1.18,-0.36 -1.42,5.65 -2.63,2.95 4.76,2.75 0.56,2.26 -4.85,5.95 -4.68,2.33 -3.15,-0.17 1.65,6.650001 -5.72,0.99 -2.86,6.31 -6.32,2.13 -5.48,-0.07 -6.09,-5.12 -3.02,0.93 -1.66,8.36 -6.74,-1.12 -3.46,-2.35 -0.04,3.21 -4.72,1.67 -0.55,4.24 -2.75,1.11 -4.81,13.01 -4.09,-0.53 v 0 l -2.39,-8.24 -2.59,-1.61 -4.89,6.65 -1.6,-3.06 0.68,-2.62 -2.6,-1.56 0.46,-3.66 -5.53,-3.87 -3.28,0.94 -0.3,3.5 -4.78,4.25 -5.85,-2.86 0.44,-2.16 -4.76,-0.31 -1.21,-3.28 -6.1,0.42 -3.4,-5.98 -5.23,-2.5 2.02,-12.940001 -0.84,-3.84 v 0 l 5.42,2.43 0.76,2.02 3.46,0.65 2.07,2.82 7.33,-0.6 2.11,3.310001 1.76,-0.55 1.11,-2.590001 -2.16,-0.42 0.13,-5.79 3.1,1.6 0.59,-1.96 2.21,-0.19 0.65,-1.87 -2.08,-8.81 -4.34,0.18 -0.19,-1.35 -1.63,-0.17 1.07,-2.75 -1.31,-3.45 -3.74,0.49 -2.65,-1.89 -3.35,0.37 -0.38,1.5 1.8,1.95 -1.48,3.72 -3.89,0.54 -2.98,-1.14 -4.56,9.4 v 0 l -2.27,-0.88 -1.9,2.35 -15.87,0.65 -4.42,2.14 -1.06,-2.97 -5.9,-4.28 -6.57,-0.53 v 0 l -3.89,-5.88 4.84,-5.64 3.02,0.38 0.37,2.43 4.43,0.46 0.44,-2.19 2.73,-2.14 1.06,2.22 2.71,-0.08 0.11,1.26 3.52,1.06 1.57,-1.56 4.83,-0.01 0.53,-2.58 2.12,0.68 0.09,-2.5 2.23,-0.83 -2.27,-0.73 -0.38,-1.44 1.57,-0.34 -3.25,-4.22 2.57,-7.56 2.51,1.59 0.83,-1.85 3.71,0.62 -0.36,-1.32 5.51,-3.16 3.15,1.85 4.82,0.56 5.03,0.09 0.33,-1.58 2.46,-0.21 -0.08,1.75 1.85,-2.32 1.17,0.63 1.54,-1.54 1.04,-3.44 1.09,1.09 0.4,-1.37 1.02,2.48 0.91,-2.13 4.04,-0.8 2.1,0.87 1.74,-3.23 0.66,0.67 2.25,-2.63 0.96,0.4 0.15,-2.31 2.67,-2.43 1.13,-0.15 -1.04,1.92 2.02,-0.03 -0.09,-1.19 1.81,2.03 0.69,-0.97 -1.09,-1.18 1.56,0.93 -0.05,-1.39 2.22,0.27 -0.86,-2.3 3.78,-3.6 -1.67,-1.1 1.77,-0.06 -0.48,-2.5 v 0 l 1.62,-0.35 -0.48,-1.37 1.87,-0.8 0.37,-1.87 4.26,-2.07 z"
     class="land"
     title="Szabolcs-Szatmár-Bereg"
     id="HU-SZ" />
  <path
     style="fill:#cccccc;fill-opacity:1;stroke:#ffffff;stroke-width:0.5;stroke-opacity:1"
     d="m 366.79052,291.42491 6.47,10.18 5.13,1.33 -0.49,2.15 v 0 l 0.12,8.49 -8.11,-0.46 1,5.19 5.34,-0.13 -1.3,8.81 -1.41,0.71 v 0 l -0.13,-1.1 -1.13,0.71 v 0 l -5.35,-11.22 -3.55,1.5 -1.95,-0.59 -2.05,3.99 v 0 l -2.49,3.58 -2.45,-0.16 -1.19,-3.1 v 0 l 3.93,-1.9 -1.52,-4.47 2.15,-3.57 -5.99,-1.97 -3.24,-2.65 4.53,-4.2 4.54,1.67 0.49,-5.79 8,2.09 0.98,-2.61 -2.4,-1.78 -0.11,-3.86 z"
     class="land"
     title="Szeged"
     id="HU-SD" />
  <path
     style="fill:#cccccc;fill-opacity:1;stroke:#ffffff;stroke-width:0.5;stroke-opacity:1"
     d="m 210.72052,177.25491 0.76,1.38 v 0 l 2.98,-0.2 2.75,3.1 -1.56,2.16 1.9,3.51 -1.1,2.83 1.89,-0.11 1.85,4.39 -4.66,1.36 -3.41,4.11 -1.08,-1.39 -5.35,2.06 -0.31,-5.83 -1.68,-0.88 -4.03,-7.17 7.5,-7.9 0.43,-2.62 v 0 l 1.8,-0.92 z"
     class="land"
     title="Székesfehérvár"
     id="HU-SF" />
  <path
     style="fill:#cccccc;fill-opacity:1;stroke:#ffffff;stroke-width:0.5;stroke-opacity:1"
     d="m 358.66052,185.20491 5.51,-5.79 5.71,3.65 1.98,-0.08 1.74,2.41 -1.44,1.19 2.77,-0.34 -2.52,6.4 2.9,1.46 1.44,4.15 -3.67,3.55 -2.87,-0.03 -3.21,-3.1 -4.46,-0.3 -1.42,-1.55 0.64,-0.82 -4.98,-3.2 v 0 l 3.34,-4.02 z"
     class="land"
     title="Szolnok"
     id="HU-SK" />
  <path
     style="fill:#cccccc;fill-opacity:1;stroke:#ffffff;stroke-width:0.5;stroke-opacity:1"
     d="m 43.760521,178.86491 -0.2,-1.17 2.91,-0.1 3.18,2.04 2.31,-1.5 1.1,3.21 -2.32,2.13 1.16,2.06 -0.06,6.69 -3.41,-1.84 -3.31,3.65 -3.4,-2.55 -2.07,-9.56 -3.09,-2.92 1.89,-0.71 1.61,1.26 v 0 z"
     class="land"
     title="Szombathely"
     id="HU-SH" />
  <path
     style="fill:#cccccc;fill-opacity:1;stroke:#ffffff;stroke-width:0.5;stroke-opacity:1"
     d="m 211.24052,147.43491 -1.19,-2.56 -4.49,-2.8 -0.43,-2.34 -1.35,0.49 -1.6,-3.17 2.41,-4.33 4.78,-0.86 4.52,1.54 3.87,3.42 0.25,2.24 v 0 l -3.68,0.68 0.64,2.94 -1.6,0.3 1.17,1.85 z"
     class="land"
     title="Tatabánya"
     id="HU-TB" />
  <path
     style="fill:#cccccc;fill-opacity:1;stroke:#ffffff;stroke-width:0.5;stroke-opacity:1"
     d="m 189.51052,241.91491 3.52,-0.72 5.13,-4.56 0.81,3.61 4.54,1.72 1.41,-1.72 2.17,2.72 0.18,-4.58 1.36,1.97 0.38,5.49 3.59,0.9 4.14,-0.72 -0.55,-2.31 4.48,-2.48 1.63,3.19 3.69,1.64 1.28,7.27 2.14,0.26 7.14,-5.13 -1.26,-3.03 2.71,-2.09 4.26,-0.47 0.1,-2.38 5.99,-4.26 1.25,-2.19 -1.42,-1.32 5.71,-1.3 v 0 l 0.16,5.42 4.21,5.61 2.8,10.54 -3.25,4.96 -7.59,2.6 -2.08,3.23 2.93,6.08 0.25,5.59 2.38,5.66 -0.04,3.79 -3.25,6.9 1.21,8.24 2.12,3.58 -0.99,5.91 -4.18,-1.04 0.84,3.97 -4.72,3.95 1.17,0.8 3.32,-2.31 -0.21,3.51 -1.75,0.6 -2,5.62 -0.28,-3.33 -2.35,1.45 -0.08,2.29 3.62,1.08 -0.79,2.16 -1.24,-0.56 0.09,1.41 v 0 l -5.92,0.22 -5.07,-3.03 -0.71,0.63 -6.8,-8.19 -1.94,1.01 -2.18,-3.71 0.69,-1.32 -3.84,-1.15 0.86,-5.52 -0.53,-0.81 -0.98,0.99 -1.46,-2.56 -2.6,-1.33 0.13,3.97 -1.28,1.86 -8.66,4.84 -0.79,-1.52 3.61,-1.5 1.75,-4.82 -0.56,-1.5 -3.52,-0.4 1.05,-7.02 -3.28,-1.7 -0.46,-4.86 -2.83,-2.49 -4.25,2.01 -3.68,-0.84 -3.76,1.61 1.41,7.47 -4.53,2.96 -1.56,-1 -1.75,0.86 0.09,2.97 1.46,0.66 -0.67,0.94 -1.94,-2.54 -2.27,1.21 -2.1,-0.75 v 0 l 3.03,-4.23 -0.51,-4.97 -1.5,0.33 -1.16,-3.57 -3.41,1.2 -0.83,-2.21 5.64,-3.08 -3.32,-10 0.7,-7.71 1.19,0.65 1.94,-1.27 1.25,-3.88 -1.3,-3.57 6.43,-10.51 -1.33,-0.36 -1.44,-3.43 5.33,-1.57 -0.4,-3.26 z"
     class="land"
     title="Tolna"
     id="HU-TO" />
  <path
     style="fill:#cccccc;fill-opacity:1;stroke:#ffffff;stroke-width:0.5;stroke-opacity:1"
     d="m 48.370521,153.66491 2.86,3.48 3.29,1.12 6.19,-4.19 0.54,0.89 1.4,-0.94 0.56,1.17 3.46,-1.87 3.14,4.65 2.44,-0.69 2.99,3.14 1.94,-2.78 7.96,-5.88 1.51,2.67 -1.79,6.16 6.83,-3.07 1.75,-2.73 2.63,0.75 v 0 l 0.91,3.39 2.12,1.91 -1.77,1.38 2.27,2.72 7.299999,4.49 -6.23,2.44 -0.66,3.44 -1.539999,1.26 1.12,8.79 -1.54,8.4 1.76,8.27 -2.46,2.05 -3.98,-1.8 -6.21,1.74 -0.2,2.44 v 0 l 0.05,3.01 -1.61,-0.88 -1.33,0.98 -0.3,-2.29 -3.12,0.74 1.25,4.51 -3.28,5.23 -5.06,-0.25 -2.32,-1.65 -4.36,0.66 -0.42,-1 -3.45,3.69 -1.84,0.36 -0.82,2.98 -8.33,-1.55 -3.14,2.21 -1.82,-0.67 -5.72,9.11 -5.9,3.04 -0.04,3.88 -1.28,1.18 -4.12,2.6 -3.46,-1.65 -3.46,1.12 -0.01,1.43 3.52,-1.06 0.23,1.01 -3.37,6.02 v 0 l -1.15,1.01 -3.46,-5.39 0.97,-2.86 -1.61,-0.42 0.39,-2.26 2.23,-0.95 0.64,-4.35 -4.79,-4.43 -5.12,-0.5 -7.2900002,2.8 -3.81,-1.84 5.84,-5.07 1.62,-4.25 2.2400002,0.45 2.82,-3.43 1.9,-0.01 1.61,-6.74 0.88,2.02 3.56,0.38 0.74,-1.87 2.08,1.52 3.57,-0.9 1.68,1.64 1.47,-0.24 0.19,-1.41 3.19,1.45 2.5,-0.92 -4.1,-3.88 -1.68,1.03 -0.81,-0.91 0.29,-1.07 7.06,-2.59 -4.29,-2.13 -0.96,-2.69 3.42,-2.09 0.13,-1.82 2.52,-0.41 -1.18,-2.84 -5.6,0.75 0.8,-3.43 -0.87,-2.62 -2.3,0.41 -1.12,-2.71 2.08,-1.6 -0.66,-4.57 3.25,-0.12 1.99,-3.66 -2.3,-7.27 -2.7,-2.31 1.69,-0.56 0.86,-3.35 -1.37,-3.41 3.53,0.15 1.05,2.27 1.24,-2.6 5.63,0.47 1.31,-2.3 z m -8.31,25.89 v 0 l -1.61,-1.26 -1.89,0.72 3.09,2.92 2.08,9.56 3.4,2.55 3.3,-3.65 3.41,1.84 0.06,-6.68 -1.16,-2.07 2.33,-2.13 -1.1,-3.21 -2.32,1.5 -3.18,-2.04 -2.91,0.11 0.2,1.17 z"
     class="land"
     title="Vas"
     id="HU-VA" />
  <path
     style="fill:#cccccc;fill-opacity:1;stroke:#ffffff;stroke-width:0.5;stroke-opacity:1"
     d="m 96.050521,155.53491 1.89,-1.58 2.239999,1.69 0.82,-0.97 3.27,1.16 8.99,-1.73 1.86,-5.43 3.1,0.79 1.82,-1.46 8.69,2.88 2.86,-2.71 3.27,4.1 1.44,-1.13 1.86,1.76 3.01,-2.69 2.53,0.11 0.19,2.87 2.35,-0.43 -0.29,-2.71 2.49,2.29 3.75,-4.64 1.33,2.36 1.87,-2.49 3.61,4.67 v 0 l 2.66,4.19 -2.1,4.33 6.46,1.95 -0.04,1.5 -1.61,0.58 2.54,1.7 0.22,2.08 6.74,-0.08 v 0 l 0.72,1.67 1.93,0.29 -1.66,1.98 0.89,3.62 1.6,-0.41 2.86,4.19 4.58,-2.17 1.57,3.43 4.4,3.14 -1.08,7.81 2,8.16 -2.75,2.18 2.86,7.45 2.36,0.29 -2.37,0.71 -6.66,7.38 v 0 l -9.09,-0.87 -13.64,6.3 0.05,3.37 -2.19,2.01 -3.2,-0.21 -32.6,16.48 -6.3,0.32 v 0 l -5.38,-5.58 -3.17,-5.39 1.33,-2.92 -1.91,-2.18 0.27,-2.67 -3.44,-3.48 -2.44,0.67 -2.57,-1.18 2.16,-4.64 -2.43,-4.31 -1.709999,-1.5 -1.99,1.06 -2.82,-0.71 -7.1,-6.28 v 0 l 0.2,-2.44 6.21,-1.74 3.98,1.8 2.46,-2.05 -1.76,-8.27 1.54,-8.4 -1.12,-8.78 1.539999,-1.26 0.66,-3.44 6.24,-2.44 -7.299999,-4.49 -2.26,-2.72 1.77,-1.38 -2.12,-1.91 z m 63.329999,53.86 3.29,-0.28 v 0 l 1.61,-3.71 v 0 l 3.78,-0.12 1.25,-4.95 v 0 l -0.52,-1.06 v 0 l 0.85,-1.03 -4.24,-7.26 -3.52,-3.32 v 0 l -2.08,-0.63 -3.17,3.64 -3,0.26 3.63,2.67 0.5,3.5 -3.7,3.91 5.14,5.45 z"
     class="land"
     title="Veszprém"
     id="HU-VE" />
  <path
     style="fill:#cccccc;fill-opacity:1;stroke:#ffffff;stroke-width:0.5;stroke-opacity:1"
     d="m 164.25052,189.66491 4.88,7.33 -0.36,2.29 v 0 l 0.52,1.05 v 0 l -1.45,5.18 -3.57,-0.1 v 0 l -1.61,3.71 v 0 l -2.68,0.69 -0.8,-3.33 v 0 l -5.15,-5.46 3.7,-3.91 -0.49,-3.5 -3.63,-2.68 3.01,-0.26 3.16,-3.64 2.08,0.64 v 0 z"
     class="land"
     title="Veszprém"
     id="HU-VM" />
  <path
     style="fill:#cccccc;fill-opacity:1;stroke:#ffffff;stroke-width:0.5;stroke-opacity:1"
     d="m 86.930521,206.46491 7.1,6.28 2.83,0.71 1.99,-1.05 1.709999,1.5 2.43,4.31 -2.16,4.64 2.57,1.19 2.44,-0.67 3.44,3.48 -0.27,2.67 1.91,2.18 -1.33,2.92 3.17,5.39 5.38,5.58 v 0 l -5,2.53 -8.54,-0.39 -1.06,5.94 -3.15,2.96 0.24,20.22 -3.199999,3.41 -0.27,7.14 -4.08,0.29 -0.14,2.56 -1.19,0.4 -2.98,-1.88 v 0 l -0.25,-2.18 -1.42,-0.63 0.4,-2.43 -3.15,-2.59 0.14,-6.99 -1.99,-0.56 -2.97,2.81 -0.74,-1.12 -1.16,0.46 0.2,5.08 -2.69,-0.21 -2.72,14.65 2.45,3.57 1.1,-0.96 3.31,0.73 0.33,-3.53 3.59,-2.61 v 0 l 2.44,5.74 -3.11,5.29 -3.54,-0.81 -4.07,3.2 -0.47,-3.32 -3,0.61 -2.49,-1.93 v 0 l -0.71,-3.58 -1.28,-0.1 -1.38,-2.63 -0.92,0.95 -2.83,-2.49 -3.08,0.86 -2.46,-2.74 -1.26,1.06 -4.21,-7.28 -1.31,0.39 0.6,-1.7 -3.62,-1.32 -2.51,0.52 -1.72,-2.46 -4.98,-2.66 0.84,-3.58 -1.22,-0.54 -0.59,-3.28 -2.56,-0.82 -3.45,-5.71 -2.15,-0.5 -3.24,-4.1 0.6,-2.5 2.42,0.71 0.91,-4.76 -4.96,-0.76 -0.44,-2.8 v 0 l 3.36,-6.04 -0.23,-1.01 -3.52,1.06 0.01,-1.43 3.47,-1.12 3.46,1.66 4.12,-2.6 1.28,-1.18 0.04,-3.88 5.9,-3.04 5.72,-9.11 1.82,0.67 3.14,-2.21 8.33,1.55 0.82,-2.98 1.84,-0.36 3.45,-3.69 0.42,1 4.36,-0.66 2.32,1.65 5.06,0.25 3.29,-5.23 -1.25,-4.51 3.11,-0.73 0.26,2.28 1.34,-0.98 1.62,0.88 z m -25.63,20.87 v 0 l -0.98,4.57 1.24,1.16 -0.63,3.8 1.63,2.46 -1.66,2.65 1.7,2.23 2.27,-1.61 7.09,-0.55 0.3,-6.6 -1.71,-2.76 0.46,-1.5 -3.02,-1.58 -0.87,-2.13 v 0 l -2.37,-0.26 v 0 l -1.3,0.67 z"
     class="land"
     title="Zala"
     id="HU-ZA" />
  <path
     style="fill:#cccccc;fill-opacity:1;stroke:#ffffff;stroke-width:0.5;stroke-opacity:1"
     d="m 65.710521,227.63491 1.39,-0.17 v 0 l 0.87,2.13 3.02,1.58 -0.46,1.5 1.72,2.76 -0.3,6.6 -7.09,0.55 -2.27,1.61 -1.69,-2.23 1.66,-2.65 -1.64,-2.46 0.64,-3.8 -1.24,-1.16 0.98,-4.56 v 0 l 2.13,0.54 v 0 l 1.3,-0.67 v 0 z"
     class="land"
     title="Zalaegerszeg"
     id="HU-ZE" />
     <g id="stadiums" data-country="hungary"></g>
</svg>
