<?xml version="1.0" encoding="UTF-8" standalone="no"?>
<?xml-stylesheet type="text/css" href="/styles/home.css"?>
<!-- https://www.amcharts.com/svg-maps -->

<svg version="1.1" xmlns="http://www.w3.org/2000/svg" id="map-iceland"
   viewBox="0 0 612.40503 612.40503" width="612.40503" height="612.40503" class="">

  <defs
     id="defs4">
    <style
       id="style2"
       type="text/css">
			.land
			{
				fill: #0488c9;
				fill-opacity: 1;
				stroke:white;
				stroke-opacity: 1;
				stroke-width:0.5;
			}
         .rectangle:hover {
         fill: #bdbdbd;
         cursor: pointer;
         }
		</style>
    <!-- <amcharts:ammap projection="mercator" leftLongitude="-24.531109" topLatitude="66.574598" rightLongitude="-13.496555" bottomLatitude="63.377251"></amcharts:ammap> -->
    <!-- All areas are listed in the line below. You can use this list in your script. -->
    <!--{id:"GL1"},{id:"GL2"},{id:"GL3"},{id:"GL4"},{id:"GL5"},{id:"GL6"},{id:"GL7"},{id:"GL8"},{id:" GL9"},{id:"GL10"},{id:"IS-1"},{id:"IS-2"},{id:"IS-3"},{id:"IS-4"},{id:"IS-5"},{id:"IS-6"},{id:"IS-7"},{id:"IS-8"}-->
  </defs>
  <rect id="background" class="rectangle" stroke-width="0" stroke="#000" width="612.40503" height="612.40503" y="0" x="0" fill="#d3d3d3" />
  <path
     id="GL1"
     title="Glacier 1"
     class="land"
     d="m 265.42077,336.76812 -0.91,4.92 -2.86,2.05 v 1.14 l 1.39,0.41 0.74,1.23 -0.33,3.85 -4.26,2.62 -1.23,1.64 1.97,0.57 -0.08,1.97 -2.46,2.78 1.06,2.7 -0.08,1.56 -2.29,1.64 -0.16,2.78 -2.46,1.64 v 1.14 l 1.72,0.33 0.33,1.31 -2.79,2.7 -9,5 -4.02,4.67 -3.35,-0.09 -0.82,-4.17 -1.15,-1.31 -3.28,1.06 -0.08,4.26 -1.06,2.05 -1.15,0.49 -1.31,-0.74 -2.95,-5.24 0.09,-2.78 -0.58,-1.31 -3.52,-0.41 -0.33,-1.39 1.48,-0.82 -1.15,-0.9 h -1.31 l -0.65,1.06 -0.88,-0.04 v 0 l -0.02,-0.12 v 0 l -3.26,-3.18 6.37,-5.2 -0.55,-3.88 3.84,-2.95 5.19,-1.78 4.04,0.38 4.19,-1.01 0.77,-1.62 -1.01,-2.02 4.27,-3.18 2.33,0.15 1.78,2.02 1.09,-3.57 -0.08,-7.6 5.28,-5.43 1.78,-1.4 1.79,-0.23 1,-2.56 3.94,-0.54 v 0 l 3.01,0.93 1.31,1.81 z"
      />
  <path
     id="GL2"
     title="Glacier 2"
     class="land"
     d="m 300.25077,347.28812 0.48,-0.09 0.29,-2.33 -2.48,-3.78 -0.14,-4.37 4.66,0.15 1.31,-3.93 2.33,-0.29 0.43,-1.02 -1.16,-1.31 0.58,-2.33 6.55,-5.54 5.24,-0.29 3.06,2.62 2.18,0.73 1.89,-0.14 v -1.61 l 2.19,-0.29 2.33,2.77 7.13,3.93 -0.6,4.99 v 0 l -0.71,1.27 0.58,12.52 -3.05,5.53 -2.48,1.89 -2.33,1.02 -3.2,-2.47 -1.17,2.62 0.15,2.04 2.62,3.2 -1.31,0.87 -0.87,1.6 -2.48,-1.74 -2.76,-0.29 -0.73,-3.93 -3.64,-0.3 -1.02,6.26 -2.62,-0.43 -2.62,-1.46 -5.53,-5.24 v -1.45 l -0.88,-0.59 -2.03,0.15 -1.75,-4.08 1.75,-3.78 z"
      />
  <path
     id="GL3"
     title="Glacier 3"
     class="land"
     d="m 133.21077,174.03812 h -1.95 l -6.83,-5.71 -3.62,-4.04 -1.95,-0.42 -1.67,-7.39 3.34,-3.48 2.23,-0.7 4.32,1.4 1.53,2.23 2.23,1.39 0.98,4.32 1.95,1.53 3.76,6.97 -2.51,3.06 z"
      />
  <path
     id="GL4"
     title="Glacier 4"
     class="land"
     d="m 43.48078,340.18812 v 1.12 l 1.4,-0.14 0.69,3.2 -1.11,1.26 v 1.25 l -1.81,0.84 -4.88,-3.21 v -1.25 l 1.12,-0.84 0.27,-1.53 1.12,-0.7 z"
      />
  <path
     id="GL5"
     title="Glacier 5"
     class="land"
     d="m 232.71077,351.96812 -0.98,0.83 -4.87,-0.42 -0.84,-1.39 0.84,-0.84 v -1.25 l 2.23,-1.67 0.41,-1.39 h 1.4 l 1.39,1.53 1.81,0.28 0.42,2.09 -1.25,0.83 z"
      />
  <path
     id="GL6"
     title="Glacier 6"
     class="land"
     d="m 369.02077,354.09812 -1.12,0.43 -2.66,-0.43 -2.15,-2.75 1.89,-1.8 2.06,-0.78 0.35,-0.94 4.12,-2.06 2.07,0.94 0.51,1.29 -0.86,1.81 -2.06,1.37 z"
      />
  <path
     id="GL7"
     title="Glacier 7"
     class="land"
     d="m 274.09077,490.50812 1.32,0.71 v 0 l 1.83,-0.4 3.85,0.4 1.42,1.02 0.81,1.62 -0.5,1.32 -2.64,2.94 -1.83,0.61 -6.59,0.2 -4.77,-4.16 -0.71,-1.62 2.94,-3.04 3.76,-0.31 v 0 z"
      />
  <path
     id="GL8"
     title="Glacier 8"
     class="land"
     d="m 307.67077,474.07812 2.13,1.22 v 0 l 4.57,1.21 3.75,3.25 0.2,1.42 -0.91,1.62 -3.65,1.02 -0.61,1.42 1.52,1.01 1.42,0.1 1.52,1.32 v 1.83 l -2.23,0.2 -1.32,3.75 3.05,3.45 3.44,0.81 0.61,0.92 -0.3,1.52 -5.07,3.75 -1.02,-1.01 -2.94,-0.2 -0.81,-1.32 -0.81,-0.21 0.1,1.53 -1.02,1.31 -8.11,-0.1 -1.02,0.81 -2.43,-0.3 -0.41,1.32 -0.91,-0.21 -1.01,-3.85 -1.12,-1.01 -0.71,0.3 -0.1,1.93 -3.96,2.84 -0.3,-1.73 1.62,-2.23 0.31,-3.65 -4.57,-1.42 -0.91,-1.52 0.3,-1.73 1.02,-1.11 2.23,-0.41 0.91,-1.62 0.81,-5.48 1.83,0.51 0.4,0.81 1.63,-0.2 -0.92,-2.03 -4.36,-1.32 1.52,-4.97 1.63,0.51 0.6,1.01 5.59,-3.35 0.3,-0.91 1.42,0.1 4.16,-1.93 1.42,0.21 v 0 z"
      />
  <path
     id=" GL9"
     title="Glacier 9"
     class="land"
     d="m 376.57077,365.64812 0.75,0.23 v 1.36 l 3.49,-0.38 1.36,-3.5 5.82,-4.85 0.59,-1.36 2.13,-0.39 0.58,-2.72 5.25,-5.24 4.27,-2.13 3.88,1.16 0.77,1.56 2.33,-0.39 1.36,-1.94 3.3,-2.72 3.3,-0.58 3.88,-2.14 7.38,1.75 2.91,0.19 0.78,-0.97 h 1.16 l 3.5,2.91 0.21,-0.46 v 0 l 0.17,4.73 -2.13,1.75 -1.36,3.88 0.39,7.38 2.13,-0.58 1.17,-1.56 0.19,-4.65 1.75,-0.59 1.55,0.59 -0.58,4.46 1.75,0.78 -0.59,3.68 -2.52,1.75 v 2.52 l 6.21,-2.32 1.94,-3.11 0.97,-4.46 4.47,-4.27 6.6,-2.53 7.76,-6.21 2.14,-0.97 2.13,0.97 h 5.44 l 5.43,0.97 3.3,3.5 -0.19,7.76 7.96,6.02 1.74,0.19 0.2,-5.05 0.77,-1.55 4.47,-2.33 2.71,0.97 -0.97,2.53 -2.13,1.16 v 2.52 l 3.49,-0.58 1.36,1.55 1.75,-1.74 h 4.85 v 2.52 l -0.77,1.75 0.38,1.74 4.27,0.2 2.33,3.1 -2.52,1.17 -1.94,2.91 -0.78,3.3 -1.55,1.55 h -2.14 l -1.74,1.75 -1.56,-1.94 h -1.35 l -0.98,1.75 -1.35,4.85 1.16,1.55 1.94,0.19 1.55,1.56 0.2,3.1 -3.88,-0.77 -0.78,-2.53 -2.33,-2.52 -1.36,0.19 v 2.72 l -2.33,-0.77 -1.94,0.38 0.78,2.72 -4.08,2.52 0.58,1.95 5.83,4.07 1.36,2.52 2.91,1.94 -2.52,0.78 -1.75,-0.58 -0.39,-1.94 -9.32,-6.6 -0.77,1.55 -5.63,1.75 3.69,4.46 6.79,4.08 -8.54,-1.36 2.33,3.11 5.24,1.16 -0.78,2.14 -3.69,0.97 -1.55,-0.97 -3.1,-0.39 -4.86,1.36 -4.27,-1.36 -6.6,0.58 1.56,3.49 2.52,2.14 -1.36,4.07 -1.94,0.59 -4.27,-4.08 0.58,-4.66 h -1.94 l -0.39,8.35 2.53,5.24 1.94,1.75 0.77,2.52 -0.38,2.72 -2.53,2.52 -4.27,-1.75 -1.16,0.98 -3.5,-0.2 -1.36,-1.16 -2.91,-0.39 -2.52,1.36 -0.78,2.13 6.41,3.3 0.39,1.75 -5.63,0.58 -1.94,2.91 0.19,1.75 -1.16,0.58 -0.59,1.94 -7.57,0.2 -4.07,-6.41 1.16,-1.55 0.39,-4.47 -1.36,-1.74 -2.52,-0.58 -2.14,0.77 -0.58,4.27 h -1.94 l -0.78,-3.69 3.3,-3.1 1.94,-0.78 -0.97,-1.94 -1.74,-0.97 -1.56,1.94 h -1.35 v -2.13 l -6.8,-0.97 -1.94,-1.36 -3.11,0.19 1.56,1.55 -0.78,1.75 -2.52,-0.19 -1.17,1.74 0.97,1.75 4.47,3.69 -0.97,5.05 -1.75,1.16 -6.21,0.97 -3.11,-0.39 -1.16,-1.55 h -1.78 v 0 l -1.35,-2.62 1.36,-0.78 1.56,-4.66 0.97,-6.98 -0.59,-3.3 0.78,-1.94 0.19,-3.3 -4.46,-3.11 -1.75,-1.94 -1.94,0.78 0.97,3.3 -0.58,1.94 -1.36,-0.2 -0.97,-1.74 -1.36,-0.98 -1.74,0.2 -0.2,1.94 -2.52,2.33 h -3.3 l -0.97,-3.11 v -2.71 l -2.53,0.19 0.39,4.66 0.97,1.75 -0.58,5.62 -2.52,4.27 -7.77,-0.19 -1.94,-0.97 -1.55,-2.52 -1.94,-0.39 -1.75,-2.33 0.2,-4.85 3.3,-0.78 -0.2,-2.13 -4.85,-0.59 -0.19,-4.66 -4.28,-1.55 -2.52,-5.82 v -2.72 l 9.12,-9.12 0.59,-3.11 1.74,-2.91 v -2.72 l 6.6,-2.52 0.2,-1.75 -5.63,-2.13 -0.39,-3.69 0.97,-3.49 5.82,-5.44 2.53,-3.49 z"
      />
  <path
     id="GL10"
     title="Glacier10"
     class="land"
     d="m 216.50077,376.83812 -0.46,4.32 -1.23,0.57 -3.28,1.15 -3.06,-3.02 v 0 l 0.68,-1.9 2.48,-2.56 2.79,0.08 z"
      />
  <path
     id="IS-1"
     title="Höfuðborgarsvæði utan Reykjavíkur"
     class="land"
     d="m 159.22077,449.70812 -2.29,-1.83 -8.72,0.17 -8.06,2.46 -6.94,-7.66 v 0 l 0.35,-1.14 2.06,-0.72 4.39,-0.49 0.81,-1.89 0.75,0.6 0.67,-0.61 0.25,-0.3 -2.39,-2.73 -1.77,-0.64 1.8,-2.76 1.24,-0.44 0.22,0.63 1.14,-0.1 0.38,0.68 v 0.99 l -0.97,-0.73 -0.31,0.66 -1.42,0.13 0.85,0.85 2.26,-0.64 -0.11,0.89 0.85,-0.01 0.64,-0.39 -0.87,-2.34 2.08,-0.5 -2.46,-0.38 -1.03,-2.33 -2.59,-2.16 -0.92,1.1 -0.39,-0.69 1.32,-1.21 2.37,1.82 1.42,-0.67 1.55,1.19 1.36,-0.29 0.82,-0.93 1.8,1.31 0.16,2.5 0.66,-0.86 2.03,0.43 -1.86,-1.6 0.17,-0.61 -0.18,-0.62 0.56,-0.87 1.09,-0.3 -1.3,-0.8 -0.14,-1.09 1.75,0.63 0.52,1.18 0.13,0.55 1.69,-0.97 -0.29,-0.7 2.44,-0.62 0.19,-1.1 -0.59,-0.17 -0.94,0.93 -2.44,0.02 1.04,-1.15 -0.53,-1.04 2.67,-0.69 0.54,-0.93 -2.86,0.63 -1.66,-1.04 -2.03,0.54 -0.18,-0.6 1.09,-1.36 -0.44,-1.51 -2,-0.48 -1.61,1.35 -1.22,-0.66 1.01,-0.75 0.21,-0.73 2.74,-5.76 1.25,-0.58 1.92,-2.87 2.48,-2.27 0.12,-1.22 0.88,1.02 1.76,-0.53 0.69,0.66 2,0.04 1.19,-1.11 -2.72,-0.23 -0.71,-1.23 4.99,-2.79 1.59,0.1 -0.56,0.55 0.18,1 1.71,0.29 1.99,-0.65 0.61,0.95 2.33,0.51 1.98,-0.46 -0.5,-1.29 1.88,-1.58 1.54,-0.26 v 0 l 4.61,1.12 4.5,2.72 1.16,1.39 v 0 l 0.19,-0.2 v 0 l 0.04,0.84 -1.32,1.32 -1.97,1.31 -2.14,0.33 -1.81,1.97 -0.33,1.65 -5.1,5.43 0.33,4.61 0.99,1.31 -0.5,5.27 -1.15,1.31 -0.49,2.31 -1.65,1.15 -0.49,2.47 -4.61,6.74 -0.82,2.47 -1.48,0.99 -0.99,4.61 -4.11,0.16 v 0 z"
      />
  <path
     id="IS-2"
     title="Suðurnes"
     class="land"
     d="m 101.80077,435.97812 3.08,1.28 3.4,4.67 1.59,1.2 0.42,2.35 -0.39,0.44 0.76,0.55 -0.1,2.72 0.6,0.84 1.13,-1 0.63,0.68 2.66,0.48 2.68,-0.11 0.89,-0.77 -0.7,-0.46 0.9,-1.99 1.69,-1.56 1.55,0.52 3.42,-2.75 1.56,0.12 1.54,1.57 1.27,0.32 1.65,-0.75 1.18,-1.48 v 0 l 6.94,7.66 8.06,-2.46 8.72,-0.17 2.29,1.83 v 0 l -1.63,1.63 v 0 l -1.81,1.48 -1.97,2.96 -4.12,3.29 -0.66,1.97 -4.77,3.95 -0.1,2.12 v 0 l -4.06,0.08 -3.54,0.85 -3.45,-0.91 -2.11,0.76 -2.87,-0.14 -1.82,-1.2 -2.3,-0.16 -1.43,-1.36 -1.2,-0.23 -1.83,2.11 -0.8,-0.02 0.1,1.37 -0.59,0.52 -0.87,-0.45 -0.34,-1.25 -1.99,1.57 -2.45,-0.58 -0.2,1.38 -0.65,-0.06 -0.65,0.89 -1.68,0.1 -3.21,-1.35 -4.72999,2.63 -0.46,-1.48 -1.439997,-0.83 1.629997,-2.39 0.64999,-2.5 -2.089987,-1.9 -0.310003,-1.72 0.480003,-0.92 1.339997,-0.32 0.96999,-4.77 2.55,-0.21 0.74,-0.6 -0.67,-0.19 0.43,-1.11 -2.26,0.95 -1.05,-0.63 -0.52999,0.32 -2.67,-3.3 0.61,-2.71 1.5,-0.61 0.44,-0.91 -0.3,-6.66 0.59,-1.17 -0.58,-0.5 0.97999,-0.7 -0.81999,-0.73 z"
      />
  <path
     id="IS-3"
     title="Vesturland"
     class="land"
     d="m 196.45077,324.47812 -0.04,-0.29 v 0 l 5.9,4.19 6.96,0.08 6.28,3.8 2.56,-3.18 2.02,-1.47 h 4.19 l 0.47,-2.33 1.47,-0.85 9.7,4.5 7.22,-1.94 3.41,1.47 12.41,-0.08 1.55,0.62 -0.1,2.4 v 0 l -3.93,0.54 -1.01,2.56 -1.78,0.23 -1.78,1.4 -5.27,5.43 0.08,7.6 -1.09,3.57 -1.78,-2.02 -2.33,-0.15 -4.27,3.18 1.01,2.02 -0.78,1.63 -4.19,1.01 -4.03,-0.39 -5.2,1.79 -3.83,2.95 0.54,3.88 -6.36,5.2 3.26,3.18 v 0 l 0.16,1.16 v 0 l -1.34,0.66 v 0 0 0 l -2.07,-1.35 -2.79,-0.08 -2.48,2.56 -0.68,1.89 v 0 l -2.27,0.2 -1.24,2.4 -3.49,3.88 -8.07,7.68 -2.33,5.04 -2.17,2.17 v 0 l -2.25,2.4 v 0 l -1.16,-1.4 -4.5,-2.71 -4.61,-1.13 v 0 l -2.35,-0.6 -1.2,0.59 -0.58,1.34 -1.35,0.24 -0.64,-0.14 0.13,-0.5 2.04,-1.19 -0.9,-1.49 -5.09,0.74 -3.3,-1.67 -2.5,0.19 -5.08,3.02 -0.45,1.42 -2.08,1.02 -1.36,2.56 -5.59,4.13 -4.87,1.15 -1.13,-0.73 -1.21,0.22 -0.62,-1.33 -1.1,-0.65 -0.99,0.26 0.42,-1.56 1.34,-0.7 3.63,-4.45 0.83,-0.34 0.06,1.62 2.23,0.14 3.07,-1.53 0.14,-1.11 -2.65,-2.37 -1.39,-0.14 -0.56,1.39 -1.05,0.11 -1.07,1.34 -0.13,-0.98 -2.58,-2.84 1.46,-2.26 0.38,-3.55 1.33,-1.28 0.18,-2.47 1.26,-2.9 3.15,-1.69 1.05,-1.71 0.65,0.39 4.98,-1.03 -0.5,-1.57 -0.46,-0.53 1.93,-4.02 -1.45,-0.17 -0.66,0.7 -0.21,-0.77 -2.44,1.86 -0.79,-0.21 -1.04,0.68 -0.43,1.8 -1,-0.55 -0.65,-0.12 -0.07,0.76 -0.95,0.46 -0.71,-0.54 -0.7,0.62 -0.56,2.56 -1.12,-0.44 -0.42,0.71 h -2.02 l 1.61,-4.31 -0.33,-1.16 -1.96,3.26 0.54,0.52 -0.59,1.49 0.47,0.85 -0.3,1.4 -1.57,0.72 0.41,0.93 -0.43,2.83 -1.03,0.66 -2.76,-0.83 -1.24,1.16 -0.93,-0.32 -0.88,-1.77 0.17,-1.64 -0.93,-0.12 -0.53,0.31 -0.49,0.13 -0.32,-0.99 0.53,-0.1 0.23,-2.78 -0.13,-1.33 0.65,-2 -0.63,-1.09 -0.3,-0.28 -1.23,-0.46 -1.03,-1.39 -1.64,1.61 -2.23,0.44 0.37,-3.75 h -0.78 l -0.35,-1.81 0.92,-2.4 -0.49,-0.45 -0.65,0.61 -1.49,-1.81 0.44,-0.59 -0.48,-0.66 -3.51,-2.24 0.22,-0.98 1.75,-0.92 0.32,-1.73 1.51,-0.85 0.28,-3.23 0.5,-0.25 1.24,0.96 0.96,-1.71 -0.66,-1.76 1.67,-1.17 -0.1,-1.15 -2.25,-1.39 -0.75,-0.08 -0.3,0.86 -2.28,-0.52 -0.48,1.21 -1.32,-0.48 1.43,-1.17 0.73,-1.99 -0.24,-1.18 -0.79,-0.58 -1.86,0.17 0.25,-1 -0.58,-0.58 -1.06,0.73 -0.32,0.3 -0.8,0.85 -1.08,-1.72 -3.92,3.67 0.93,0.61 -0.03,0.49 -2.31,-0.4 -1.14,1.01 -0.63,-1.1 1.42,-0.71 -0.5,-1.01 -0.84,0.73 -1.09,-0.43 0.84,-1.16 -1.14,-1.31 -1.31,-0.23 -3.35999,1.24 0.21,1.11 -3.7,-0.7 -1.15,-0.77 -3.6,1.24 -4.31,-1.7 -2.02,1.37 -1.24,-0.88 -3.27,-0.05 -8.65,-2.77 -5.78,-0.22 -0.65,0.36 -0.78,2.84 -1.51,1.31 -2.56,-0.52 -1.82,-1.17 -5.31,0.48 -0.59,1.31 -0.86,0.33 -0.37,1.6 0.75,1.3 -1.49,1.71 -0.05,1.6 -2.84,-0.83 -4.05,0.58 -1.45,1.1 -3.99,-2.83 -2.4,-0.29 -1.27,-2.34 0.21,-0.81 -1.8,-2.22 -0.61,-2.69 -2,-1.46 -1.69,-3.22 -0.49,-3.09 0.14,-1.2 0.93,0.77 2.33,-0.4 3.63,-5.18 1.26,0.51 0.49,-0.71 2.51,-0.69 1.38,0.2 2.73,3 3.68,1.04 0.23,0.77 3.58,0.34 1.89,-3.07 2.8,0.13 0.15,-0.63 1.02,-0.17 1.15,-2.89 1.25,-1.36 2.96,0.68 1.07,0.12 2.55,0.77 -1.76,-2.63 2.11,-0.99 1.19,0.6 0.46,1.48 0.1,0.82 1.14,-0.48 0.67,1.49 -1,1.8 1.33,0.33 1.36,-0.8 0.52,0.88 0.85,-0.08 1.44,-0.73 0.45,-2.35 -0.89,-2.24 -0.45,-4.29 1.75,-1.98 1.31,-0.29 1.64,0.96 3.41,0.18 -1.76,1.68 -0.84,2.45 -0.43,0.94 -1.36,2.59 1.98,1.18 0.14,2.14 1.52,0.95 0.55,-0.31 -0.03,-1.45 -1.23,-5.65 3.73,1.62 0.75,-0.33 1.01,1.58 1.01,-0.27 -0.85,-1.45 -2.74,-0.84 0.93,-3.22 1.18,-1.57 1.69,-0.63 1.79,0.39 1.4,1.3 -0.52,0.6 1.3,0.71 0.41,-1.77 1.2,0.21 0.59,-0.9 1.99,-0.14 0.96,-1.1 2.77,-0.85 -0.03,-0.96 -1.45,0.46 -0.49,-0.63 -2.43,0.3 -1.09,-0.79 0.74,-0.5 0.54,0.73 5.37,-4.57 1.17,-1.88 1.23,0.6 0.50999,0.76 -0.14,0.74 1.14,0.6 -1.61999,1.59 0.84999,0.24 -0.05,1.35 -2.399987,1.27 0.07,1.08 1.899987,-1.28 0.28,0.79 0.6,0.83 0.76,0.39 0.07,1.17 1.01,0.75 1.01,-0.3 1.23,0.93 0.43,1.41 1.87,1.37 -2.76,-5.2 0.62,-0.28 0.93,-2.82 1.34,-0.18 1.14,-1.74 1.09,-0.52 2.36,0.46 0.13,0.64 2.81,-0.07 0.5,-0.83 5.51,-1.78 2.22,2.42 1.11,-0.35 1.55,0.72 0.75,-0.45 0.45,0.46 -0.35,0.92 1.06,0.1 0.67,0.81 2.17,-0.76 1.38,1.08 0.68,-0.59 -0.12,-0.8 -0.3,-0.6 h 1.07 l 0.23,0.81 1.78,-0.51 4.39,1.73 1.47,-0.73 2.32,0.81 1.82,-0.69 3.45,0.24 0.87,0.2 1.53,-1.55 0.16,-2.1 -0.78,-1.08 -2.48,-0.62 0.05,-0.62 3.37,-2.96 0.06,-2.41 2.13,-3.17 -0.09,-1.05 1.42,-1.5 0.24,-2.15 -1.03,-1.36 0.3,-1.81 -1.4,-1.24 -3.96,0.17 -0.59,4.75 -1.07,-0.45 -0.47,1.66 -1.77,0.71 -1.01,1.78 -4.5,3.12 -3.17,1 -3.07,0.03 -2.15,-1.49 -6.05,-0.49 -1.01,-0.93 -1.05,-0.41 -3.59,-1.74 -0.38,-0.79 -1.2,-0.07 0.02,-1.7 -1.3,-0.69 -1.37,1.78 -0.88,0.49 -0.64,0.36 -1.13,-0.57 0.09,-0.71 -3.6,0.37 -0.81,-0.72 0.47,-0.75 -0.59,-1.12 5.64,-0.76 0.21,-0.42 -1.34,-0.84 -0.81,0.48 -1.58,-1.93 0.07,-0.7 1.19,-2.25 0.99,-1.48 0.9,-0.63 0.58,0.4 1.95,-2.23 -0.12,-1.02 2.38,-1.55 0.39,0.57 0.83,-0.93 0.47,-0.89 -1.37,-0.29 0.04,-0.52 11.79,-4.71 1.61,-2.19 4.45,-3 1.87,-2.05 2.13,-0.09 2.02,-3.34 0.81,-0.03 1,-2.21 1.54,1.17 5.96,-1.09 4.76,-4 -0.4,-0.66 v 0 l 1.91,-3.07 1.44,0.22 1.11,1.44 -1,2.77 -1.77,2 1.66,1.22 0.11,2.22 -2.33,1 -0.78,2.33 0.33,1.77 2.22,1.44 1.77,2.55 4.99,-2.77 1.77,1.44 4.88,6.98 0.67,5.1 3.55,2.66 0.89,1.66 0.33,5.1 1.77,2 0.44,4.54 -2.22,3.66 -0.44,2.33 1.66,3.66 2.11,0.22 0.22,1.22 -1,0.89 v 1.66 l 2.22,2.77 0.22,2.88 4.32,2.22 z m -152.96999,15.71 v 1.12 l 1.39,-0.14 0.7,3.21 -1.11,1.25 v 1.25 l -1.81,0.84 -4.88,-3.2 v -1.25 l 1.12,-0.84 0.28,-1.53 1.12,-0.7 h 3.19 z m 189.22999,11.78 -0.97,0.84 -4.88,-0.42 -0.84,-1.39 0.84,-0.84 v -1.25 l 2.23,-1.67 0.42,-1.39 h 1.39 l 1.39,1.53 1.81,0.28 0.42,2.09 -1.25,0.84 z"
      />
  <path
     id="IS-4"
     title="Vestfirðir"
     class="land"
     d="m 191.90077,298.17812 -1.88,6.9 0.44,2.88 5.1,9.42 0.55,4.99 v 0 l 0.33,2.11 v 0 l -7.31,-2.55 -4.32,-2.22 -0.22,-2.88 -2.22,-2.77 v -1.66 l 1,-0.89 -0.22,-1.22 -2.11,-0.22 -1.66,-3.66 0.44,-2.33 2.22,-3.66 -0.44,-4.54 -1.77,-1.99 -0.33,-5.1 -0.89,-1.66 -3.55,-2.66 -0.66,-5.1 -4.88,-6.98 -1.77,-1.44 -4.99,2.77 -1.77,-2.55 -2.22,-1.44 -0.33,-1.77 0.78,-2.33 2.33,-1 -0.11,-2.22 -1.66,-1.22 1.77,-1.99 1,-2.77 -1.11,-1.44 -1.44,-0.22 -1.91,3.07 v 0 l -0.76,-0.18 -3.54,2.36 -6.34,-1.98 -2.78,1.6 -0.1,-0.77 -0.91,-0.27 1.63,-1.37 -0.03,-1.19 -0.61,0.24 -0.79,-0.68 -2.03,-2.55 -0.06,-1.48 -2.25,-0.72 -0.43,0.64 0.59,3.54 -2.02,0.37 0.46,-2.11 -1.27,-1.98 -0.33,-2.58 -1.76,-1.02 -0.67,0.76 0.82,3.59 -0.98,1.04 0.04,1.43 -1.3,0.79 -0.84,2.79 -0.64,-0.01 -0.08,1.49 -1.56,1.6 -0.7,-0.44 -1.26,0.49 -1.33,-0.33 -0.83,-0.59 -0.88,-0.57 -0.33,-2.21 -1.1,-1.25 -3.96,-1.15 -0.43,-2.06 4.28,-2.78 3.93,-0.45 2.44,-1.04 2.43,-2.73 1.32,-5.05 2.71,-2.81 -0.61,-0.2 -2.56,2.04 -3.44,6.32 -2.27,2.18 -3.61,0.51 -1.6,-0.96 0.45,-1.07 2.77,-2.02 0.1,-3.12 -0.67,0.25 -0.54,1.89 -2.82,2.4 -0.81,1.86 -0.79,-0.53 -0.38,-2.17 -1.59,-1.11 0.93,4.51 -2.32,2.06 -1.41,0.33 -0.8,-0.85 -0.22,-2.54 0.8,-3.37 -2.17,-5.74 0.15,-2.05 -2.17,-4.8 0.42,7.02 1.03,2.92 -0.38,3.43 -2.08,2.54 -1.39,-2.01 0.58,-3.29 -2.06,-7.12 0.64,6.57 -0.95,4.23 0.66,1.22 -1.23,1.72 -2.43,-1.54 -1.81999,-7.43 2.41999,-4.38 -0.03,-2.32 -1.61,2.59 -1.28999,0.71 -1.169997,-1.96 -1.050003,-0.66 -0.76,0.39 2.33,7.48 -0.289997,2.68 1.579997,7.29 -2.99,-1.31 0.46,-0.79 -1.56,-2 -2.47,0.16 -0.86,-1.2 -1.47,0.47 -0.04,-1.14 1.1,-0.7 0.01,-0.95 0.92,-0.99 0.82,-1.11 2.55,-3.75 -1.71,-1.59 -1.45,0.07 -1.14,-2.64 0.59,4.92 -3.69,4.14 -0.39,-3.58 -0.93,-1.15 -0.47,-2.45 -1.21,3.65 0.59,0.66 -0.7,0.95 0.14,1.26 -2.18,3.63 -2.56,0.46 -1.51,-1.3 -3.49,-0.29 -0.42,-3.41 0.97,-1.89 -0.8,0.01 -2.08,2.81 0.2,0.94 -1.36,1.89 1.29,4.75 -1.92,3.45 -1.56,0.49 -6.61,-1.29 -1.93,-3.47 -0.93,-0.09 -0.03,0.92 -1.4,0.53 3.04,1.94 -2.36,-0.23 -2.43,1.83 -3.12,1.15 -1.69,-0.05 -1.44,1.17 -3.15,-0.56 -0.7,2.19 -1.55,1.16 -0.35,2.1 -1.34,1.88 -9.41,1.15 -3.79,-0.84 -0.82,-1.16 1.28,-4.44 -0.32,-1.95 -3.68,-1.03 0.93,2.93 -5.01,-3.51 -5.59,-2.62 -2.88,-0.51 -1.15,0.85 -8.5800004,0.49 -3.26,1 -3.35999999,-2.11 3.21999999,-2.24 1.31,-3.14 3.05,-0.25 1.5500005,-1.32 0.42,-1.7 -0.6800005,-4.06 2.7600004,-3.04 0.29,-2.86 9.04,4.24 1.41,1.64 0.54,1.8 1.03,0.54 0.76,-0.43 2.14,2.14 1.84,0.88 1.84,-0.25 1.75,0.7 0.35,1.49 3.56,3.58 2.16,0.72 1.02,-1.59 2.81,-0.95 -1.25,-0.8 -1.33,0.78 -3.09,-0.68 -6.01,-7.52 -1.34,-0.25 -3.83,-5.86 -0.39,-1.11 0.91,-0.35 7.34,0.99 1.98,2.16 4.31,1.66 0.29,0.97 2.13,1.56 -1.92,-3.73 -1.97,-0.4 -3.63,-3.96 -2.88,-1.75 -2.14,-0.52 -3.28,-3.25 -3.28,-11.25 1.24,-3.73 3.71,0.92 6.52,4.89 3.07,0.62 2.42,2.89 h 1.16 l 2.33,1.83 1.6,0.2 6.81,3.72 -0.41,2.69 1.76,-1.01 0.69,2.49 1.14,1.48 0.12,1.24 -1.55,2.28 0.52,0.87 -0.25,1.99 1.48,0.51 2.13,-4.91 1.53,1.91 -0.15,-2.63 4.36,3.5 1.5,-1.73 -1.4,-0.66 -1.23,-2.52 2.87,-0.51 1.21,-1.05 2.19,-0.19 2.46,-1.34 -0.86,-0.39 -3.93,0.47 -2.21,0.91 -3.73,-1.13 -1.8,-0.93 -2.85,-4.67 3.62,-1.25 5.25,-0.16 2.39,-1.33 3.53,-0.17 2.88,0.78 0.21,-1.66 -1.59,-1.2 3.59,-2.23 -0.81,-1.55 -2.07,0.23 -3.35,2.55 -2.12,-0.24 -4.71,1.23 -5.35,-0.57 -1.41,0.84 -9.67,-3.32 -6.33,-6.93 -2.52,-7.53 1.49,-4 1.92,-1.15 9.17,3.51 0.44,1.82 2.37,1.44 2.06,0.07 1.3,-1.29 1.96,-0.07 1.04,2.07 1.44,1.14 1.75,-0.11 1.43,0.76 2.67,-0.39 5.28,2.36 3.58,0.16 -7.37,-2.81 -0.96,-1.2 -3.95,-0.23 -1.58,-0.85 -0.65,0.41 -0.23,-2.33 -0.6,-0.6 -1.7,-1.06 -1.8,0.65 -2.78,-1.23 -1.98,-2.97 -4.97,-3.57 -0.56,-1.36 -2.1,-1.4 -2.49,-3.96 -0.98,-0.56 -0.71,-3.79 1.53,-3.79 1.65,-1.3 2.91,1.64 2.61,0.07 5.71,3.4 6.77,2 0.19,-1.74 -0.94,-1.26 -3.95,-2.22 -6.72,-5.67 -1.28,-2 0.52,-0.96 4.16,-0.41 1.41,-1.59 1.45,0.15 2.79,1.57 2.17,2.59 4.2,2.53 -4.26,-3.81 -2.05,-3.11 -7.16,-2 3.54,-4.36 3.36,-0.33 -0.34,-1.63 0.69,-0.62 6.44,0.66 2.92,0.97 3.02,2.07 0.66,2.45 1.94,-0.21 3.47,2.34 1.95,5.04 -1.07,3.58 -2.56,1.49 0.56,2.61 0.48,0.14 0.42,-1.43 1.64,-1.08 3.9,-5.1 0.85,-0.01 2.06,1.97 0.54,2.06 -0.04,6.97 -2.61,2.21 -2.9,5.47 0.56,0.25 1.63,-1.48 0.78,-1.36 3.35,-3.72 1.63,-5.52 1.41,4.55 -1.4,3.85 0.94,2.78 0.79,0.03 -0.78,-2.94 2.5,-4.29 -0.35,-2.4 h 1.26 l 0.13,4.5 -1.54,4.7 -4.86,6.81 -0.63,1.62 0.38,0.5 2.96,-4.48 2.62,-2.38 2.65,-6.72 1.03,2.45 -0.35,5.94 -2.02,5.89 0.1,2.02 0.88,-0.53 3.16,-8.23 -0.36,-1.83 0.76,-3.11 -0.83,-2.4 1,-6.61 0.69,-0.75 1.61,2.2 0.74,-0.97 1.78999,0.4 1.12,3.7 1.5,1.02 0.75,-0.45 0.63,2.94 1.14,0.45 -0.45,0.59 0.46,1.58 0.9,-0.12 -0.6,2.82 0.45,0.75 -0.44,5.21 -3.23,7.9 0.62,0.75 -1.36,3.08 0.47,0.33 0.74,-0.2 1.4,-2.8 -0.05,-2.91 1.31,-1.8 0.2,-2.16 1.21,-1.95 -0.04,-2.31 1.73,-2.06 0.04,-2.99 0.46,-2.52 0.48,-0.14 1.2,3.18 -0.02,2.3 0.69,0.27 0.33,-1.05 0.42,-0.73 1.24,2.07 -0.3,6.26 1.07,-1.21 -0.37,-2.69 0.86,-1.49 0.38,3.58 -0.87,2.58 0.27,1.22 -2.95,6.54 -1.96,3 -3.64,3.24 2.31,-0.61 3.39,-3.31 0.58,-1.73 2.65,-2.25 0.49,-2.64 1.53,-3.06 -0.12,-2.14 1.03,-1.11 1.06,0.24 0.64,-0.52 -1.23,-1.9 -0.71,-0.33 -0.74,-5.71 -1.25,-3.58 -3,-3.68 -1.16,-0.33 -0.29,-1.36 1.46,-2.09 -0.37,-1.83 4.15,-3.13 0.7,-1.48 -2.28,0.56 -2.22,1.79 -2.84,-0.41 -3.34,-1.93 -1.27,-1.98 -3.33,-0.98 -5.02999,-2.91 -1.48,0.01 -1.09,-1.23 -2.85,-0.67 -5.31,-4.58 -1.65,-2.29 -0.8,-3.17 0.54,-1.65 3.4,-1.25 1.2,-0.88 1.08,-0.96 5.97,-1.13 4.75999,2.82 3.7,-0.19 2.03,3.01 2.21,1.17 -0.41,-1.92 -1.42,-1.07 0.1,-1.77 2.38,1.32 0.25,-1.62 4.39,-0.72 4.08,-2.26 -1.64,0.08 -0.61,-0.54 -4.65,1.36 -4.65,-0.52 0.92,-2.23 2.01,-0.61 1.63,-2.1 1.62,-0.88 -1.5,-0.4 -0.11,-1.32 0.63,-0.9 -1.8,-0.87 0.19,2.15 -1.2,2.08 -3.14,2.65 -4.53,-0.34 -2.45999,-1.32 1.92999,-4.58 0.16,-2.72 3.2,-0.95 0.25,-1.52 -4.44,1.02 -1.97999,4.38 -2.31,1.78 -3.83,0.88 0.42,-4.26 2.04,-1.28 0.58,-2.53 -1.43,2.24 -3.59,1.91 -0.43,2.66 -1.02,1.12 -2.83,1.31 -0.95,1.17 -3.37,-0.15 -0.7,-0.41 -2.49,-2.11 -4.3,-2.19 -2.05,-3.13 0.92,-1.17 5.13,2.5 1.34,-0.57 0.35,-1.04 1.7,-0.57 0.56,-1.52 -0.34,-2.85 -2.12,-0.19 -4.31,-5.65 2.15,-1.18 2.77,2.52 1.57,-2.29 3.89,0.11 1.31,-2.47 -1.64,-1.19 0.03,-0.8 1.42,-0.67 4.76,1.57 2.15,2.41 3.86,0.65 1.05,3.12 1.57999,0.32 1.35,-0.3 1.81,-3.16 1.19,-0.87 -0.67,-2.68 0.79,-0.49 1.44,0.13 2.96,2.5 0.49,2.26 1.57,-0.11 0.29,0.98 1.9,-0.32 0.6,-2.51 -1.83,-2.82 1.01,-0.08 2.84,1.22 0.14,1.25 0.63,0.39 0.02,4.18 1.11,0.94 0.54,2.01 5.21,2.92 -0.34,1.26 2.06,1.04 -0.99,1.41 0.63,1.41 1.02,0.29 2.21,-0.97 -2.66,4.25 0.38,1.02 1.74,1.16 -2.16,3.71 0.72,1.13 0.91,0.28 2.87,-2.75 0.65,0.08 0.34,1.96 -1.14,2.22 0.56,0.47 2.62,-4.42 0.17,-1.43 0.96,-0.73 -0.49,4.09 1.13,1.43 1.58,-0.78 1.52,0.21 2.99,-2.3 -0.2,3.4 1.34,1 h 1.05 l -0.54,2.83 -3.63,2.49 -0.81,1.3 3.99,-2.5 1.43,0.01 0.16,1 1.24,0.52 1.01,1.74 1.92,0.01 2.06,1.02 3.27,0.04 -1.34,1.48 -0.1,1.08 2.55,1.73 -1.57,3.92 0.38,1.3 0.77,1.03 -1.12,2.64 1.04,1.69 -0.3,1.28 0.53,1.16 1.63,1.05 1.75,-2.54 1.78,2.48 -0.52,2.09 -1.98,2.54 0.29,0.4 2.73,-1.77 0.87,-1.66 0.1,-2.62 -1.22,-1.83 0.57,-1.91 1.27,0.27 2.7,-0.81 2.75,6.02 -0.71,0.25 -2.74,-1.31 -0.63,0.68 1.41,1.06 -0.18,1.5 1.6,1.17 0.06,0.9 2.52,-0.07 4.11,-1.84 4.42,3.57 0.2,1.57 -0.56,0.54 -2.31,-0.26 -3.73,0.87 -2.74,1.48 -2.1,-0.15 -3.48,1.63 -0.89,-0.14 -0.2,0.63 0.75,2.27 4.37,-2.02 2.15,0.38 2.22,-1.24 2.53,-0.29 1.01,0.49 -0.15,1.01 -3.96,1.85 -0.51,1.18 7.29,-1.47 2.01,1.98 0.15,2.4 0.49,0.12 -0.2,2.67 -2.39,2.21 2.63,2.01 -1,1.79 0.1,2.38 -0.83,0.6 -1.46,3.72 -2.54,2.27 -3.56,0.49 -0.74,0.84 -1.72,-0.32 1.98,1.96 1.94,-0.3 1.14,1.21 3.21,0.94 -0.23,1.48 -2.18,1.39 -2.9,4.82 -4.89,-0.07 -2.14,-0.51 -0.15,-0.81 -2.15,-1.44 -2.49,-2.21 -1.67,-4.81 -2.21,-1.11 -0.15,-0.89 -3.23,0.8 -0.42,0.81 2.54,0.77 3.14,2.67 1.11,4.5 -1.88,1.87 1.42,0.93 0.17,2.77 1.06,0.56 -0.16,1.4 0.9,0.93 0.99,-0.4 1.05,0.9 4.59,0.22 1.63,-1.09 4.93,2.17 0.11,3.21 -3.79,3.85 -1,1.77 0.3,0.99 0.79,0.25 5.76,-6.25 3.69,0.99 -0.02,7.31 -1.59,4.71 -3.07,2.88 -0.01,1.08 -5.33,4.49 1.15,0.19 9.35,-5.6 0.88,3.15 1.58,1.11 0.33,1.47 1.19,0.25 0.68,0.33 0.52,0.33 -1.03,2.58 1.6,2.29 -0.37,2.82 0.64,4.9 -1.06,4.59 3.76,7.9 -0.44,0.58 2.47,4.4 0.09,6.91 z m -58.69,-124.14 h -1.95 l -6.83,-5.71 -3.62,-4.04 -1.95,-0.42 -1.67,-7.38 3.34,-3.48 2.23,-0.7 4.32,1.39 1.53,2.23 2.23,1.39 0.98,4.32 1.95,1.53 3.76,6.97 -2.51,3.07 z m -25.5,85.97 -1.11,0.84 -1.95,-0.14 -0.56,-0.97 2.93,-2.65 1.11,0.56 z"
      />
  <path
     id="IS-5"
     title="Norðurland vestra"
     class="land"
     d="m 303.35077,162.91812 3.2,3.04 -1.16,2.77 1.75,1.6 0.58,2.33 5.39,4.22 -2.91,10.19 2.91,4.8 0.15,5.82 -3.93,2.48 -2.18,2.18 -0.15,3.49 5.97,5.97 3.93,2.62 v 12.96 l -2.04,5.68 -3.2,4.66 0.58,5.1 1.46,1.75 2.18,1.17 5.68,1.31 1.75,4.95 -2.18,3.49 -0.29,1.75 1.31,0.73 0.15,5.82 1.16,3.35 2.48,2.18 1.31,2.77 4.95,3.2 0.73,8.44 9.03,6.41 0.15,6.41 1.75,4.08 0.15,5.24 -2.04,7.72 v 5.24 l 1.75,1.46 2.04,3.93 v 5.39 l -1.31,1.75 -3.93,-0.58 -2.04,1.46 -0.29,1.6 -0.71,0.59 v 0 l -0.91,0.76 v 0 l 0.6,-4.99 -7.13,-3.93 -2.33,-2.77 -2.18,0.29 v 1.6 l -1.89,0.15 -2.18,-0.73 -3.06,-2.62 -5.24,0.29 -6.55,5.53 -0.58,2.33 1.17,1.31 -0.44,1.02 -2.33,0.29 -1.31,3.93 -4.66,-0.15 0.15,4.37 2.48,3.79 -0.29,2.33 -0.48,0.09 v 0 0 0 0 0 l -7.52,0.2 -0.87,-1.6 -2.33,-0.73 -4.51,0.73 -4.66,-2.18 -8.73,-2.04 h -2.91 l -1.46,-3.35 -1.83,-1.55 v 0 0 0 l -0.65,-2.62 -1.31,-1.8 -3.01,-0.94 v 0 l 0.1,-2.4 -1.55,-0.62 -12.41,0.08 -3.41,-1.47 -7.21,1.94 -9.7,-4.5 -1.47,0.85 -0.46,2.33 h -4.19 l -2.02,1.47 -2.56,3.18 -6.28,-3.8 -6.96,-0.08 -5.9,-4.19 v 0 l -0.29,-1.82 v 0 l -0.55,-4.99 -5.1,-9.42 -0.44,-2.88 1.88,-6.9 v 0 l 0.55,0.33 0.28,-1.5 -0.13,-4.02 -2.75,-9.91 1.46,-2.16 -0.65,-1.55 1.23,-1.56 0.59,-3.06 -1.17,-10.46 0.33,-1.73 -0.83,-3.81 2.13,-1.11 3.84,10.99 1.96,3.84 1.38,0.05 0.85,2.72 0.22,-1.17 -3.76,-13.97 -0.82,-5.53 2.88,-12.9 2.74,-3.82 2.42,-1.57 4.1,-5.25 1.48,-0.6 1.71,-2.51 0.43,0.74 0.82,-0.31 0.73,-1.28 0.92,0.46 0.13,1.39 1.73,-0.07 -0.86,3.24 0.71,2.93 -0.32,4.43 6.22,0.42 7.52,-2 3.49,-2.33 1.39,-5.11 -0.12,-3.39 1.94,-5.18 0.01,-2.13 -0.89,-3.36 0.3,-2.27 -1.27,-2.21 -0.53,-3.58 -0.93,-0.16 -0.17,-1.18 0.99,-1.15 -0.63,-1.23 0.37,-1.92 -2.07,-4.5 -1.1,-5.82 -1.09,-2.51 -0.13,-4.19 -1.37,-3.79 -1.05,-0.33 1.63,-5.69 -0.71,-3.71 2.56,-1.11 1.99,0.23 1.85,-2.71 3.09,0.77 1.74,-0.38 3.58,-3.19 1.27,0.12 1.18,1.15 1.38,-0.16 0.28,2.07 2.82,3.6 -0.63,1.23 0.25,1.72 1.36,1.53 -0.21,1.68 1.77,3.63 2.23,2.3 0.81,2.97 -0.35,1.44 0.95,2.6 2.07,1.24 0.41,0.9 0.7,4.49 1.16,0.18 0.59,-1.11 2.6,2.29 1.66,0.73 0.87,-0.39 1.82,3.17 1.79,6.83 0.87,0.65 -0.3,5.27 0.85,2.46 1.84,1.08 2.88,-0.44 0.63,-0.63 0.49,-2.85 4.16,4.92 4.15,-2.55 -0.34,-2.45 1.46,-1.38 0.28,-1.67 -0.95,-2.65 1.51,-2.27 -1.91,-5.52 -0.26,-2.67 -1.91,-1.91 -0.47,-2.88 -2.27,-3.59 -1.29,-0.43 -0.45,-1.88 0.84,-0.88 4.05,-0.53 0.84,-1.59 0.2,-2.29 -1.95,-4.54 0.16,-1.8 4.54,-3.7 1.19,0.46 1.11,-0.53 3.55,0.12 2.46,-0.87 1.22,0.25 0.87,1.63 1.45,-0.12 0.54,-0.9 -0.69,-0.52 0.21,-1.17 2.22,0.14 0.58,-0.78 0.13,-3.43 z"
      />
  <path
     id="IS-6"
     title="Norðurland eystra"
     class="land"
     d="m 362.86077,107.18812 0.98,1.57 -0.19,2.38 -2.35,-1.64 -0.28,-1.78 0.82,-1.06 -0.42,-1.45 z m 187.58,82.82 -3.86,0.6 -1.75,-0.97 -1.36,0.39 -2.72,2.33 -0.78,3.11 -3.49,4.08 -1.16,-1.16 -5.05,0.39 -2.13,1.36 -4.85,-0.78 -3.49,1.17 -6.4,0.58 -3.1,1.36 0.58,4.66 -3.49,2.72 -4.08,2.13 -0.78,1.75 -2.72,1.75 -7.18,1.55 -1.16,0.97 -1.75,6.02 v 2.33 l 1.94,11.65 -3.3,5.44 -3.49,0.78 -0.97,1.55 -3.3,-1.94 -4.46,0.39 -4.66,-1.16 -2.13,1.55 -0.78,1.36 v 3.11 l -2.91,6.41 -0.19,3.49 -1.55,3.49 0.58,3.11 7.96,7.18 -1.36,2.52 -0.39,3.11 -2.72,2.91 -1.75,3.11 -3.1,2.91 -0.97,3.69 0.19,13.39 -1.36,1.36 0.39,4.85 1.55,1.75 -3.1,5.05 -4.46,0.78 -3.88,4.27 -1.75,3.3 -6.6,3.11 -3.69,2.52 -2.33,10.29 -1.54,3.42 v 0 l -0.21,0.47 -3.49,-2.91 h -1.16 l -0.78,0.97 -2.91,-0.19 -7.38,-1.75 -3.88,2.13 -3.3,0.58 -3.3,2.72 -1.36,1.94 -2.33,0.39 -0.78,-1.55 -3.88,-1.16 -4.27,2.13 -5.24,5.24 -0.58,2.72 -2.14,0.39 -0.58,1.36 -5.82,4.85 -1.36,3.49 -3.49,0.39 v -1.36 l -0.75,-0.23 v 0 0 0 0 0 l 0.73,-0.06 -1.94,-2.52 -3.88,-3.1 -7.38,0.39 -2.52,-0.78 -3.1,-2.33 -0.39,-2.52 -2.33,-4.85 -1.16,-2.13 -1.75,-0.97 -2.52,-0.39 -2.33,0.39 -1.16,0.97 h -2.52 v -2.13 l 0.97,-1.55 -0.78,-1.55 -5.24,-4.66 -1.94,-0.97 0.12,-2.47 v 0 l 0.71,-0.59 0.29,-1.6 2.04,-1.46 3.93,0.58 1.31,-1.75 v -5.39 l -2.04,-3.93 -1.75,-1.46 v -5.24 l 2.04,-7.71 -0.15,-5.24 -1.75,-4.08 -0.15,-6.41 -9.02,-6.4 -0.73,-8.44 -4.95,-3.2 -1.31,-2.77 -2.47,-2.18 -1.16,-3.35 -0.15,-5.82 -1.31,-0.73 0.29,-1.75 2.18,-3.49 -1.75,-4.95 -5.68,-1.31 -2.18,-1.16 -1.46,-1.75 -0.58,-5.09 3.2,-4.66 2.04,-5.68 v -12.96 l -3.93,-2.62 -5.97,-5.97 0.15,-3.49 2.18,-2.18 3.93,-2.47 -0.15,-5.82 -2.91,-4.8 2.91,-10.19 -5.39,-4.22 -0.58,-2.33 -1.75,-1.6 1.17,-2.77 -3.2,-3.04 v 0 l 2.51,-1.78 2.83,-3.22 2.62,-0.26 1.37,1.95 -1.23,4.93 0.62,0.08 3.02,-4.32 0.89,-2.8 -0.98,-1.52 3.99,0.85 1.56,1.84 0.14,1.59 -1.69,5.15 0.91,-0.04 1.21,-2.75 2.76,-1.49 1.35,0.27 1.95,2.01 1.91,4.46 -3.24,4.18 0.08,0.83 0.78,0.57 4.26,-2.94 0.99,0.47 1.27,1.91 0.72,6.66 0.63,0.64 -1.17,7.56 1.6,0.98 2.69,-0.18 2.38,2.58 1.49,-0.65 3.49,0.99 1.19,4.03 1.45,1.43 0.77,5.33 0.82,1 1.2,-1.3 1.83,2.22 -0.01,8.02 1.65,1.85 0.64,2.15 -0.59,0.85 0.59,2.06 -0.56,1.71 1.76,1.66 1.3,3.3 1.59,0.74 -0.48,2.08 0.88,0.59 0.58,-0.58 v -1.48 l -1.94,-9.06 0.68,-3.63 1.35,-2.86 -0.38,-1.08 0.69,-1.46 -0.81,-1.64 0.39,-1.57 -1.41,-5.39 -2.26,-3.43 0.01,-1.36 -0.81,-0.31 0.31,1.47 -1.46,-0.45 -0.45,0.41 -1.94,-1.94 -0.13,-2.36 1.3,-2.25 -3.38,-3.48 -2.32,-5.71 0.05,-1.94 -1.1,-3.59 -0.24,-6 -0.95,-2.68 0.64,-4.94 1.8,-2 0.66,-0.64 6.21,0.75 0.65,2.17 0.8,0.41 0.77,-1.75 1.19,-0.16 1.07,1.04 -0.32,1.26 0.78,0.97 3.59,-1.56 3.85,1.12 2.18,1.93 -0.42,1.16 1.54,2.5 2.76,0.55 0.65,1.87 3.58,3.4 3.23,5.31 -0.04,2.98 1.39,2.45 1.76,0.83 4.47,0.49 5.16,-0.88 1.67,-0.84 2.14,-2.27 -0.34,-1.27 0.47,-1.24 2.18,-2.4 -0.25,-0.83 -1.24,-0.03 0.94,-2.91 -1.01,-0.64 1.68,-1.26 -1.29,-1.02 2.56,-0.15 3.56,-3.36 -0.08,-3.81 -1.06,-0.82 0.01,-0.79 0.34,-1.22 1.61,-0.78 1.5,-2.03 1.42,-0.52 0.99,0.96 1.7,-0.01 0.77,-1.82 5.33,-0.56 1.77,1.39 1.14,5.69 1.51,2.31 -0.54,4.31 1.62,0.98 0.89,-1.05 -1.16,-0.6 0.37,-1.91 5.66,-0.53 2.72,-0.98 2.79,-2.45 11.38,-5.85 4.33,-5.01 0.8,-1.62 -0.33,-2.19 0.68,-2.49 -1.31,-1.34 -1,-1.72 -0.52,-0.96 -0.25,-3.29 -0.97,-2.32 -1.2,-0.9 -0.4,-3.98 0.64,-1.38 -0.98,-2.86 1.5,-0.51 -2.08,-4.43 -0.42,-2.45 -1.47,-1.57 1.36,-4.07 1.87,0.39 0.85,-0.69 1.01,-0.5 2.34,-0.78 0.73,1.14 0.06,1.71 2.55,-1.85 1.45,0.75 1.2,2.57 1.37,0.07 3.03,-1.22 -0.25,-2.51 0.79,-0.26 0.28,1.58 1.38,-0.64 1.56,-3.09 2.15,-0.71 1.54,0.22 0.78,0.96 0.85,-0.26 1.38,-0.04 1.8,0.36 1.74,0.83 1.56,-0.08 1.2,0.64 0.8,1.75 1.06,0.47 -0.6,1.46 1.86,-0.15 0.24,0.57 -2.81,1.8 0.16,1.43 0.1,1.01 -0.52,1.86 0.57,1.98 0.08,0.91 1.75,-0.58 0.62,-0.42 0.64,0.21 0.09,1.19 2.36,-1.19 0.9,0.18 -1.07,2.38 0.28,0.53 1.65,-0.64 2.26,1.09 3.05,0.39 1.16,1.85 0.68,5.68 -0.32,2.14 -1.28,2.43 -3.2,3.39 0.22,1.49 1.44,2.11 2.35,-1.18 0.21,0.39 -1.09,3.1 -0.01,1.97 0.65,0.69 2.92,-0.58 0.88,0.99 2.28,-1.79 0.34,1.81 3.13,0.49 0.22,2.17 1.37,1.46 2.47,0.14 1.44,3.68 1.51,0.41 2.79,-0.7 0.72,-0.78 0.6,-2.08 -1.1,-2.94 0.02,-3.49 0.84,-3.22 1.16,-0.3 2.31,1.1 7.83,-2.7 1.34,-1.44 -0.3,-1.69 1.32,0.25 2.17,-1.53 0.16,-1.17 1.54,-1.9 0.37,-3.66 1.58,-0.29 2.3,-2.69 3.7,-1.88 2.04,-0.17 0.56,1.13 2.71,2.14 2.29,0.47 2.78,-0.4 3.59,-2.18 4.21,-0.55 -2.05,2.56 -5.98,2 -3.99,2.58 -1.16,0.14 -4.4,4.19 -1.29,-0.07 -4.22,1.85 -2.15,3.77 3.94,5.28 -0.73,4.71 -7.21,5.93 -4.78,1.16 -2.11,3.05 1.92,2.69 5.26,-0.9 -0.74,2.4 0.47,1.63 -2.11,3.56 0.69,0.57 2.66,-0.76 1.57,0.29 0.38,1.42 1.74,-0.26 0.76,0.79 2.81,-0.67 0.64,2.62 0.94,0.61 2.52,-0.52 1.44,-3.39 2.03,-0.6 1.43,-1.98 0.75,-0.3 1.69,1.31 1.13,-0.14 1.52,6.04 1.71,1.21 z m -181.42,164.09 -1.12,0.43 -2.66,-0.43 -2.15,-2.75 1.89,-1.8 2.06,-0.77 0.34,-0.94 4.13,-2.06 2.06,0.95 0.52,1.29 -0.86,1.81 -2.06,1.38 z"
      />
  <path
     id="IS-7"
     title="Austurland"
     class="land"
     d="m 550.44077,190.00812 0.25,1.78 -3.25,8.33 -3.56,2.68 -0.61,1.58 -0.04,0.73 -3.35,1.52 -0.45,2.23 -1.06,1.2 1.23,3.01 -1.47,-0.47 -1.21,2.3 -2.1,1.65 -1.18,1.27 0.48,1.02 7.37,-6.72 -0.93,2.93 -1.31,0.81 -2.58,4.11 1.04,1.35 2.71,0.16 1.35,-1.75 1.45,0.22 3.47,-2.64 0.22,0.69 0.99,0.09 1.2,-1.19 5.02,0.15 2.72,-1.11 2.5,-2 6.64,-1.43 0.09,2.05 -3.02,7.19 0.43,1.66 2.25,2.63 7.24,6.61 7.75,4.39 3.72,0.94 1.39,-0.48 1.68,-1.84 2.1,0.28 0.56,-0.44 1.75,0.93 0.92,3.08 -2,0.9 -0.36,0.86 3.94,1.49 0.1,5.51 1.13,0.86 1.08,-0.16 2.09,-4.44 2.86,-0.08 -0.37,3.25 0.89,0.5 1.19,-1 1.4,2.89 1.34,0.29 -0.88,3.03 0.17,2.9 -1.81,0.09 -0.51,0.93 0.73,1.25 -0.22,1.23 0.98,1.01 -0.43,2.3 -1.78,0.67 1.4,2.98 -1.57,1.95 -2.94,1.73 -1.47,-0.58 -4.83,-0.12 -1.46,0.82 7.66,2.79 0.4,0.98 -2.64,2.77 -5.76,0.24 -2.01,1.87 -5.06,2.07 -0.56,1.71 0.41,0.78 2.11,-2.22 2.94,-0.53 3.45,-1.79 2.42,0.12 1.94,0.94 2.9,-0.15 0.93,-1.62 0.68,-0.08 6.65,3.38 -1.63,4.1 -1.6,1.96 -0.36,1.43 -1.42,0.87 -6.55,1.16 -5.51,-0.54 -7.63,2.4 2.63,0.01 5.08,-1.29 5.04,1.73 6.8,-0.4 1.03,-0.66 1.44,0.79 -0.07,3.19 -1.13,1.81 -1.37,0.62 -3.08,0.05 -2.04,2.17 3.34,-0.71 3.18,0.5 -0.39,1.29 -2.52,1.67 4.2,-0.75 -0.92,3.28 0.52,0.22 1.94,-2.37 1.7,-4.92 2.69,-3.29 -0.57,7.19 -1,2.16 0.51,1.24 1.85,0.14 -0.02,2.4 -2.44,3.27 -3.45,1.25 -0.4,1.34 1.16,1.43 -0.37,1.97 -3.53,1.19 -6.39,-0.1 -1.72,-3.39 -2.57,-2.58 -3.25,-1.82 -2.64,-0.59 -3.71,-3.41 -0.55,0.67 2.79,3.99 -4.73,0.41 -2.1,1.35 -1.98,0.22 -4.55,-1.18 -0.19,1.34 3.23,1.46 6.62,-0.72 1.74,1.05 2,0.07 0.69,0.87 3.09,-0.45 2.62,2.9 0.01,1.3 3.72,2.13 1.5,2.22 4.39,1.15 1.27,-0.78 -0.27,3.69 -1.4,0.5 -3.96,-0.48 -0.42,0.44 -4.25,-1.96 -1.27,0.64 -4.48,-0.08 -4.35,-2.12 -0.28,1.16 2.02,1.49 4.56,1.38 4.46,0.46 1.97,2.02 1.87,1.08 0.93,-0.13 0.88,1.49 -1.23,2.25 -1.75,1.16 -1.41,1.98 -4.09,-1.85 -2.95,-0.04 0.04,0.69 5.1,3.05 1.8,0.22 -0.42,1.26 -1.57,-0.62 -4.15,1.73 -1.45,-0.9 -1.43,0.31 -1.58,1.21 -0.54,-0.22 -0.69,-0.83 -1.65,0.47 0.5,1.26 -0.42,0.58 0.53,0.7 0.72,0.46 0.75,-0.14 1.4,1.94 -0.04,0.94 1.57,1.52 -0.9,1.45 -4.82,3.12 -1.48,0.04 -2.52,-0.01 -0.98,1.44 -1.4,-0.05 -0.58,-0.66 -1.25,-0.01 -1.01,0.61 -1.69,-1.64 -2.8,-0.73 -0.8,-3.59 -1.24,0.14 -0.23,-2.27 -0.42,-0.34 -1.4,-1.51 -1.89,-0.69 0.06,-1.94 -1.9,-1 -1.76,0.57 2.41,1.16 0.52,1.35 -1.23,1.22 0.14,0.96 2.67,1.08 1.3,1.51 0.35,3.55 1.05,1.45 1.79,0.58 0.13,1.9 1.5,0.83 1.22,-0.13 0.38,0.8 1.08,0.43 0.68,1.28 0.69,0.58 -0.7,1 -2.74,-0.1 -0.92,-0.3 -0.6,-1.34 -1.33,0.32 -2.41,-1.18 -3.52,0.75 -1.26,-0.37 -1.9,1.14 2.33,1.77 2.3,-0.1 1.33,1.18 0.13,3.22 -1.27,1.39 -0.9,0.39 -0.32,-0.64 -1.56,0.04 -0.77,1.15 -1.25,-1.19 -1.55,0.46 -1.04,-0.41 -1.33,2.21 0.94,2.42 -0.93,1.79 0.56,0.81 0.94,0.4 1.74,-1.09 1.4,1.21 6.19,-6.91 2.47,-2.13 0.47,0.84 -3.32,2.63 -4.6,7.02 -0.27,1.8 1.04,1.44 -2.33,5.38 0.45,2.8 -1.75,1.55 0.2,1.51 -0.73,1.4 -0.84,-0.36 -5.97,1.06 -4.06,1.5 -1.37,1.23 0.51,-1.13 2.51,-1.23 5.48,-1.56 3.19,-0.26 -4.41,-2.85 -2.25,0.62 -1.8,-0.42 -0.79,3.73 -0.74,-0.15 -2.77,1.91 -0.36,1.41 -1.84,-1 -0.19,1.79 -0.9,0.05 -1.05,1.92 -0.89,0.41 -0.95,-0.86 -1.24,1.14 0.42,1.39 -3.2,2.62 -0.81,1.88 1.97,0.59 2.52,-0.52 -0.52,0.97 0.62,1.12 -1.76,0.23 -0.79,2.49 -1.32,-0.01 -0.53,1.25 0.68,0.8 -0.28,0.56 -2.59,-0.13 -0.64,0.47 -5.05,-0.66 -3.89,1.02 0.95,-0.9 3.67,-1.08 3.91,0.66 2.71,-0.31 0.64,-1.65 -2.63,1.52 -0.37,-0.31 0.81,-0.88 -1.5,-2.47 -2.02,-1.65 -1.59,-0.42 -1.76,2.67 -2.35,-1.42 -0.91,-0.14 -0.86,0.03 0.95,-1.75 -1.65,0.88 -0.41,-0.4 -1.31,-0.28 -1.31,-4.65 -0.29,0.78 -0.69,-0.33 -0.41,-1.73 -1.01,-1.02 -1.72,0.22 -1.02,0.64 -0.27,1.04 0.64,6.73 -0.33,0.63 -1.24,0.19 -0.33,0.65 1.05,-0.1 -0.16,1.03 -0.9,0.43 -0.4,1.48 -2.56,2.76 -3,-2.94 -0.13,0.99 1.11,1.69 -0.28,1.16 -1.4,-0.19 -0.52,-0.67 -0.78,1.27 -6.15,1.87 -1.44,0.02 -0.31,-1.45 -0.47,1.57 -3.81,3.69 -2.15,0.13 -0.32,0.73 -4.58,1.63 -5.26,3.33 -18.84,18.07 -0.15,-0.59 -1.76,-1.34 -0.08,2.56 -1.49,3.7 -1.91,2.62 -3.03,1.51 -0.41,2.09 -1.34,1.32 -2.07,1.46 -3.12,0.42 -2.04,1.95 -0.63,1.08 -3.53,-0.87 0.69,1.16 -2.63,-0.92 0.59,1.96 -0.48,2.69 -0.67,1.41 -0.21,-4.23 -0.79,-0.21 -0.56,0.74 0.41,2.1 -0.66,3.91 -11.67,1.32 -8.75,-0.58 -11.37,1 v 0 l 0.54,-29.22 v 0 h 1.78 l 1.17,1.55 3.11,0.39 6.21,-0.97 1.75,-1.16 0.97,-5.05 -4.46,-3.69 -0.97,-1.75 1.16,-1.75 2.52,0.19 0.78,-1.75 -1.55,-1.55 3.11,-0.19 1.94,1.36 6.79,0.97 v 2.13 h 1.36 l 1.55,-1.94 1.75,0.97 0.97,1.94 -1.94,0.78 -3.3,3.11 0.78,3.69 h 1.94 l 0.58,-4.27 2.13,-0.78 2.52,0.58 1.36,1.75 -0.39,4.46 -1.16,1.55 4.08,6.41 7.57,-0.19 0.58,-1.94 1.16,-0.58 -0.19,-1.75 1.94,-2.91 5.63,-0.58 -0.39,-1.75 -6.4,-3.3 0.78,-2.13 2.52,-1.36 2.91,0.39 1.36,1.17 3.49,0.19 1.16,-0.97 4.27,1.75 2.52,-2.52 0.39,-2.72 -0.78,-2.52 -1.94,-1.75 -2.52,-5.24 0.39,-8.35 h 1.94 l -0.58,4.66 4.27,4.08 1.94,-0.58 1.36,-4.08 -2.52,-2.13 -1.55,-3.49 6.6,-0.58 4.27,1.36 4.85,-1.36 3.11,0.39 1.55,0.97 3.69,-0.97 0.78,-2.13 -5.24,-1.16 -2.33,-3.1 8.54,1.36 -6.79,-4.08 -3.69,-4.46 5.63,-1.75 0.78,-1.55 9.32,6.6 0.39,1.94 1.75,0.58 2.52,-0.78 -2.91,-1.94 -1.36,-2.52 -5.82,-4.08 -0.58,-1.94 4.08,-2.52 -0.78,-2.72 1.94,-0.39 2.33,0.78 v -2.72 l 1.36,-0.19 2.33,2.52 0.78,2.52 3.88,0.78 -0.19,-3.1 -1.55,-1.55 -1.94,-0.19 -1.16,-1.55 1.36,-4.85 0.97,-1.75 h 1.36 l 1.55,1.94 1.75,-1.75 h 2.14 l 1.55,-1.55 0.78,-3.3 1.94,-2.91 2.52,-1.16 -2.33,-3.11 -4.27,-0.19 -0.39,-1.75 0.78,-1.75 v -2.52 h -4.85 l -1.75,1.75 -1.36,-1.55 -3.49,0.58 v -2.52 l 2.13,-1.16 0.97,-2.52 -2.72,-0.97 -4.46,2.33 -0.78,1.55 -0.19,5.05 -1.75,-0.19 -7.96,-6.02 0.19,-7.76 -3.3,-3.49 -5.43,-0.97 h -5.44 l -2.13,-0.97 -2.13,0.97 -7.76,6.21 -6.6,2.52 -4.46,4.27 -0.97,4.46 -1.94,3.11 -6.21,2.33 v -2.52 l 2.52,-1.75 0.58,-3.69 -1.75,-0.78 0.58,-4.46 -1.55,-0.58 -1.75,0.58 -0.19,4.66 -1.16,1.55 -2.14,0.58 -0.39,-7.38 1.36,-3.88 2.13,-1.75 -0.18,-4.74 v 0 l 1.54,-3.41 2.33,-10.29 3.69,-2.52 6.6,-3.11 1.75,-3.3 3.88,-4.27 4.47,-0.78 3.11,-5.05 -1.55,-1.75 -0.39,-4.85 1.36,-1.36 -0.19,-13.39 0.97,-3.69 3.11,-2.91 1.75,-3.1 2.72,-2.91 0.39,-3.1 1.36,-2.52 -7.96,-7.18 -0.58,-3.11 1.55,-3.49 0.19,-3.49 2.91,-6.41 v -3.1 l 0.78,-1.36 2.13,-1.55 4.66,1.17 4.46,-0.39 3.3,1.94 0.97,-1.55 3.49,-0.78 3.3,-5.43 -1.94,-11.65 v -2.33 l 1.75,-6.02 1.16,-0.97 7.18,-1.55 2.72,-1.75 0.78,-1.75 4.08,-2.13 3.49,-2.72 -0.58,-4.66 3.11,-1.36 6.41,-0.58 3.49,-1.16 4.85,0.78 2.13,-1.36 5.05,-0.39 1.16,1.17 3.49,-4.08 0.78,-3.1 2.72,-2.33 1.36,-0.39 1.75,0.97 z m -40.21,213.23 0.48,0.95 -0.65,-0.13 0.65,1.25 -0.19,2.06 -0.37,1.34 -0.68,0.23 -0.95,-5.53 z m 1.72,1.85 1.21,2.5 0.48,2.82 -0.51,0.33 -2.79,-0.57 z m 6.54,6.84 0.83,1.44 -1.45,0.65 0.14,1.07 -0.94,0.12 -0.31,-1.71 0.8,-0.47 -0.49,-0.28 0.38,-0.79 z m -1.13,5.13 0.62,0.76 -5.08,-0.37 -8.83,1.1 -1.49,1.24 -10.56,2.24 -2.56,1.67 1.56,-1.63 11.04,-2.67 1.86,-1.07 5.36,-1.03 5.94,-0.25 1.15,-0.79 z m -72.02,44.14 -5.26,6.65 -1.99,4.33 -4.62,0.82 2.01,-0.93 3.9,-3.66 0.51,-1.79 z"
      />
  <path
     id="IS-8"
     title="Suðurland"
     class="land"
     d="m 398.25077,446.04812 -0.54,29.22 v 0 l -10.13,3.36 -5.79,2.78 -3.09,2.19 -3.02,3.06 -8.03,16.65 -6.23,7.4 -9.19,5.29 -7.19,1.23 -23.42,7.05 -7.16,-1.14 -5.32,-1.82 -3.05,0.25 -0.85,1.56 -2.89,-0.65 -2.32,0.96 -8.48,-4.85 -7.31,-2.59 -17.21,-7.57 -9.1,-1.84 -6.75,-0.22 -4.47,1.04 -5.38,-0.96 -5.26,-3.64 -8.91,-9.09 -11.53,-10.23 -10.17,-6.99 -6.6,-7.22 -6.01,-1.63 -8.1,-5.85 -0.35,0.44 -4.74,-0.7 -2.99,0.62 -1.6,1.6 1.05,1.62 -0.34,0.59 -1.16,0.45 -3.99,-0.38 -2.15,0.98 -4.78,0.65 -2.47,1.34 -3.25,-0.55 -1.28,-1.17 -1.4,-2.9 -2.07,-0.82 -2.2,-0.09 -0.39,1.25 -2.61,1.6 -3.88,0.8 v 0 l 0.1,-2.11 4.77,-3.95 0.66,-1.97 4.11,-3.29 1.98,-2.96 1.81,-1.48 v 0 l 1.65,-1.64 v 0 l 4.11,-0.16 0.99,-4.61 1.48,-0.99 0.82,-2.47 4.61,-6.75 0.49,-2.47 1.65,-1.15 0.49,-2.3 1.15,-1.32 0.49,-5.26 -0.99,-1.32 -0.33,-4.61 5.1,-5.43 0.33,-1.65 1.81,-1.97 2.14,-0.33 1.97,-1.32 1.32,-1.32 -0.04,-0.84 v 0 l 2.06,-2.2 v 0 l 2.17,-2.17 2.33,-5.04 8.07,-7.68 3.49,-3.88 1.24,-2.4 2.27,-0.2 v 0 l 3.07,3.02 3.28,-1.15 1.23,-0.57 0.46,-4.32 v 0 l 1.34,-0.66 v 0 l -0.14,-1.04 v 0 l 0.88,0.04 0.66,-1.06 h 1.31 l 1.15,0.9 -1.47,0.82 0.33,1.39 3.52,0.41 0.57,1.31 -0.08,2.78 2.95,5.24 1.31,0.74 1.15,-0.49 1.06,-2.05 0.08,-4.26 3.28,-1.06 1.15,1.31 0.82,4.18 3.36,0.08 4.01,-4.67 9.01,-4.99 2.78,-2.7 -0.33,-1.31 -1.72,-0.33 v -1.15 l 2.46,-1.64 0.16,-2.78 2.29,-1.64 0.08,-1.56 -1.06,-2.7 2.46,-2.78 0.08,-1.96 -1.96,-0.57 1.23,-1.64 4.26,-2.62 0.33,-3.85 -0.74,-1.23 -1.39,-0.41 v -1.15 l 2.87,-2.05 0.9,-4.92 v 0 l 1.83,1.55 1.46,3.35 h 2.91 l 8.74,2.04 4.66,2.18 4.51,-0.73 2.33,0.73 0.87,1.6 7.53,-0.2 v 0 l 0.19,1.08 -1.75,3.79 1.75,4.08 2.04,-0.15 0.87,0.58 v 1.46 l 5.53,5.24 2.62,1.46 2.62,0.44 1.02,-6.26 3.64,0.29 0.73,3.93 2.77,0.29 2.48,1.75 0.87,-1.6 1.31,-0.87 -2.62,-3.2 -0.15,-2.04 1.16,-2.62 3.2,2.48 2.33,-1.02 2.48,-1.89 3.06,-5.53 -0.58,-12.52 0.71,-1.27 v 0 l 0.91,-0.76 v 0 l -0.12,2.47 1.94,0.97 5.24,4.66 0.78,1.55 -0.97,1.55 v 2.13 h 2.52 l 1.17,-0.97 2.33,-0.39 2.52,0.39 1.75,0.97 1.17,2.13 2.33,4.85 0.39,2.52 3.11,2.33 2.52,0.78 7.38,-0.39 3.88,3.11 1.94,2.52 -0.73,0.06 v 0 l -1.79,0.14 -2.52,3.49 -5.88,5.39 -0.97,3.49 0.39,3.69 5.63,2.13 -0.19,1.75 -6.6,2.52 v 2.72 l -1.75,2.91 -0.58,3.11 -9.12,9.12 v 2.72 l 2.52,5.82 4.27,1.55 0.19,4.66 4.85,0.58 0.19,2.13 -3.3,0.78 -0.19,4.85 1.75,2.33 1.94,0.39 1.55,2.52 1.94,0.97 7.76,0.19 2.52,-4.27 0.58,-5.63 -0.97,-1.75 -0.39,-4.66 2.52,-0.19 v 2.72 l 0.97,3.11 h 3.3 l 2.52,-2.33 0.19,-1.94 1.75,-0.19 1.36,0.97 0.97,1.75 1.36,0.19 0.58,-1.94 -0.97,-3.3 1.94,-0.78 1.75,1.94 4.46,3.11 -0.19,3.3 -0.78,1.94 0.58,3.3 -0.97,6.99 -1.55,4.66 -1.36,0.78 z m -122.84,45.17 1.83,-0.41 3.85,0.41 1.42,1.01 0.81,1.62 -0.51,1.32 -2.64,2.94 -1.83,0.61 -6.59,0.2 -4.77,-4.16 -0.71,-1.62 2.94,-3.04 3.75,-0.3 v 0 z m 34.39,-15.92 4.56,1.22 3.75,3.25 0.2,1.42 -0.91,1.62 -3.65,1.01 -0.61,1.42 1.52,1.01 1.42,0.1 1.52,1.32 v 1.83 l -2.23,0.2 -1.32,3.75 3.04,3.45 3.45,0.81 0.61,0.91 -0.3,1.52 -5.07,3.75 -1.01,-1.01 -2.94,-0.2 -0.81,-1.32 -0.81,-0.2 0.1,1.52 -1.01,1.32 -8.11,-0.1 -1.01,0.81 -2.43,-0.3 -0.41,1.32 -0.91,-0.2 -1.01,-3.85 -1.12,-1.01 -0.71,0.31 -0.1,1.93 -3.96,2.84 -0.3,-1.72 1.62,-2.23 0.3,-3.65 -4.57,-1.42 -0.91,-1.52 0.31,-1.72 1.01,-1.12 2.23,-0.41 0.91,-1.62 0.81,-5.48 1.83,0.51 0.41,0.81 1.62,-0.2 -0.91,-2.03 -4.36,-1.32 1.52,-4.97 1.62,0.51 0.61,1.01 5.58,-3.35 0.3,-0.91 1.42,0.1 4.16,-1.93 1.42,0.2 v 0 z m -71.2,42.97 -0.49,1.58 -1.9,1.11 0.46,0.79 -1.02,1.52 -0.72,0.09 -0.01,-0.77 0.74,-0.33 -1.99,-4.45 3.89,-1.53 v 1.04 z"
      />
  <g
     id="stadiums"
     data-country="iceland"
     data-circle-radius="6"
     data-circle-colors="#a149be,#bea149" />
</svg>
