<?xml version="1.0" encoding="UTF-8" standalone="no"?>
<?xml-stylesheet type="text/css" href="/styles/home.css"?>
<!-- https://www.amcharts.com/svg-maps -->

<svg version="1.1" xmlns="http://www.w3.org/2000/svg" id="map-ireland"
   viewBox="0 0 605.43189 775.34131" width="605.43189" height="775.34131">
    <defs
       id="defs4">
      <style
         id="style2"
         type="text/css">
			.land
			{
				fill: #68c662;
				fill-opacity: 1;
				stroke:white;
				stroke-opacity: 1;
				stroke-width:0.5;
			}
		</style>
      <!-- <amcharts:ammap projection="mercator" leftLongitude="-10.617130" topLatitude="55.384293" rightLongitude="-5.429497" bottomLatitude="51.419835"></amcharts:ammap> -->
      <!-- All areas are listed in the line below. You can use this list in your script. -->
      <!--{id:"GB-NIR"},{id:"IE-CW"},{id:"IE-CN"},{id:"IE-CE"},{id:"IE-CO"},{id:"IE-DL"},{id:"IE-D"},{id:"IE-G"},{id:"IE-KE"},{id:"IE-KK"},{id:"IE-KY"},{id:"IE-LD"},{id:"IE-LH"},{id:"IE-LK"},{id:"IE-LM"},{id:"IE-LS"},{id:"IE-MH"},{id:"IE-MN"},{id:"IE-MO"},{id:"IE-OY"},{id:"IE-RN"},{id:"IE-SO"},{id:"IE-TA"},{id:"IE-WD"},{id:"IE-WH"},{id:"IE-WX"},{id:"IE-WW"}-->
  </defs>
  <path
     id="GB-NIR"
     title="Northern Ireland"
     class="land"
     d="m 593.25859,142.5926 -1.17,0.77 2.63,1.33 z m 6.03,29.45 0.66,-5.3 -5.12,-7.05 -1.21,-3.86 0.08,-5.43 -6.04,-6.9 -3.44,0.38 -2.34,-0.91 -0.09,1.65 -1.69,1.53 -1.05,-1.43 -1.59,1.25 -1.06,-0.66 -4.12,0.5 -3.13,-2.25 -6.78,3.4 -6.28,5.41 -3.16,1.07 -1.29,3.9 -2.23,0.84 -0.93,-0.64 1.57,-4.94 -1.49,-0.89 0.43,-2.31 2.18,-5.09 5.4,-4.53 0.83,-1.91 11,-4.17 4.36,-3.95 2.45,-4.4 -0.21,-7.85 -4.22,-8.53 -4.13,-2.28 -0.28,1.4 -1.77,-1.05 -1.9,1.96 -1.89,-3.98 -3,-2.97 -0.59,-3.520002 -1.94,0.1 -2.16,-1.74 -2.29,-6.64 -2.6,-4.07 -1.92,-1.72 -2.3,0.1 -1.12,-2.23 -2.67,-0.35 -0.42,-1.24 1.69,-3.63 1.66,-8.81 -3.49,-2.13 -5.63,1.32 -1.66,-1.26 0.38,-5.27 1.96,-3.84 -0.61,-5.31 1.87,-2.85 -0.89,-4.93 -2.05,-1.24 -1.59,-4.73 -6.16,-2.49 -2.65,-3.24 -2.05,-0.04 -2.61,2.61 -6.68,2.06 -6.28,-5.31 -2.27,0.22 -4.91,-2.69 -1.87,-0.53 -4.95,2.73 -0.65,-0.98 -4.62,-0.65 -1.47,-2.31 -1.9,-0.16 -5.56,3.7 0.4,1.69 -1.88,1.8 -11.84,2.41 -1.94,-1.57 0.85,1.8 -0.57,0.98 -6.99,1.96 -1.22,3.83 -18.58,0.2 -6.75,-4.57 -2.32,-0.49 0.58,2.98 -0.93,6.68 -2.26,7.51 -3.09,1.81 0.34,4.92 -3.5,3.52 0.6,0.94 -10.43,2.52 -2.12,-0.85 -0.15,-2.21 -1,-0.59 -3.27,-0.26 -3.36,1.08 -1.03,-0.81 -1.34,0.65 -0.11,1.65 -2.06,0.96 -0.79,-4.63 v 0 l -1.61,0.61 -1.74,2.78 -1.4,-1.26 -2.29,2.11 -3.36,-1.02 -5.65,6.68 -0.77,2.5 1.26,1.79 -1.86,2.98 0.9,1.99 -0.63,3.37 1.18,2.13 -4.61,0.75 -1.4,1.26 -0.64,8.08 1,5.160002 -4.3,9.26 -5.25,3.33 -2.29,3.13 -0.36,6.6 1.39,1.65 -1.11,1.79 -3.58,-0.28 -0.08,-1.47 -1.48,1.35 -3.13,0.16 -2.64,-1.41 -4.38,3.75 -6.89,3.1 -1.24,1.89 -6.42,-2.7 -1.88,-3.04 -1.73,-0.4 -5.45,6.81 -4.58,0.26 -0.02,1.33 2.37,1.25 -1.68,2.64 1.12,3.16 5.2,2.17 0.58,3.94 2.88,-0.42 1.96,-2.31 4.72,4.52 1.39,-0.52 2.34,1.09 3.84,-2.85 -0.01,2.73 1,1.31 -1.18,1.33 -4.98,1.61 -1.63,2.47 -3.64,1.15 -0.61,2.33 -3.49,2.69 0.85,2.19 -2.59,2.05 -1.53,-0.64 -10.75,0.66 -1.96,-2.89 -2.07,0.96 -2.26,-0.38 -4.18,7.7 -0.3,4.07 -4.5,-0.14 -3.62,2.38 -0.04,1.2 -4.28,-0.06 -2.9,1.06 v 0 l 3.9,2.62 -2.04,2.56 7.9,6.96 3.45,6.88 3.41,2.52 3.95,-0.24 -0.1,1.82 5.98,8.44 v 0 l 3.1,0.54 1.46,1.77 1.08,-1.28 1.37,0.38 0.72,1.52 2.55,-0.22 -1.37,1.46 -0.29,2.57 1.52,2.45 0.5,8.84 4.99,2.91 1.08,-1.01 6.4,-0.84 1.61,1.61 5.81,-0.8 1.24,4.85 1.96,-0.97 3.65,3.26 0.7,3.76 2.36,1.97 2.85,0.12 1.29,2.7 2.06,1.31 2.32,-2.5 5.75,1.79 1.4,-3.52 2.73,-1.91 3.69,-0.87 0.51,0.97 -2.04,2.25 0.55,0.64 5.58,-0.58 -2.3,3.65 3.48,-2.13 1.36,1.19 0.51,2.26 2.46,-1.93 0.46,1.33 v 0 l 1.47,-0.24 0.09,-0.97 -1.35,-2.68 -1.07,0.12 -1.14,-1.57 3.48,-4.57 2.03,-0.76 1.33,0.95 -0.64,2.7 -1.74,1.55 1.74,1.65 -2.63,1.13 1.1,2.03 2.08,-0.08 0.19,-1.37 1.9,-1.49 -0.36,-1.93 1.17,-2.82 1.98,-1.87 -1.8,-2.72 0.08,-2.17 2.39,-0.32 -0.56,-1.07 -1.35,0.04 0.42,-1.07 1.96,-0.02 0.31,-1.45 2.82,-0.7 1.52,-1.67 2.69,1.33 2.31,-1.04 -0.07,-3.03 -1.03,-1.18 1.39,-2.27 -2.02,-3.51 -1.95,0.1 0.63,-2.15 -4.3,-2.25 1.47,-3.15 1.94,-0.16 0.38,-2.37 -1.08,-3.07 4.06,0.72 3.77,-3.45 1.95,-0.26 -0.76,-2.62 2.85,-2.28 3.73,-6.34 3.03,-1.8 2.68,1.52 0.36,1.26 2.04,-0.44 2.16,1.5 0.75,1.66 3.42,1.92 -0.15,1.24 1.23,-0.52 1.01,0.82 1.05,4.57 2.33,0.76 2.87,6.73 0.33,4.27 -0.95,0.72 0.16,1.56 -0.82,-1 -0.79,0.4 0.27,1.16 2.73,3.03 1.21,-0.38 1.25,1.1 1.38,7.01 1.76,0.7 -0.06,1.47 3.07,2.89 2.34,0.26 1.73,2.96 2.29,0.14 2.26,-3.74 4.93,2.17 3.52,7.79 -2.49,5.96 -1.18,-0.24 2.05,5.16 -1.88,0.42 0.42,2.98 -1,2.96 1.99,0.61 2.86,4.38 2.68,-1.21 v 0 l 1.25,-2.12 3.8,0.87 3.03,-1.35 2.3,0.97 1.48,-1.94 2.55,-0.6 -0.86,-1.05 0.56,-1.27 2.44,1.03 1.79,2.86 3.41,-0.97 2.96,0.58 0.73,-1.53 2.08,-0.81 -0.02,-8.22 2.74,-0.08 0.56,3.71 1.46,0.58 2.79,-3.51 1.28,-0.14 2.28,1.99 v 0 l 7.35,0.08 1.45,1.15 0.93,3.91 2.22,1.53 8.18,0.73 2.37,2.99 -2.8,-0.2 -0.93,1.74 5.48,3.35 4.6,-3.01 2.59,-3.65 4.21,-1.21 1.27,-2.98 6.6,-5.74 2.74,-11.68 -0.33,-4.22 -1.8,-3.54 1.15,-2.21 5.92,-4.72 -0.82,-2.43 -1.76,1.04 -0.79,1.85 0.06,-2.27 2.17,-1.59 2.46,-4.86 0.27,4.72 -1.99,0.3 1.47,2.73 7.44,-0.74 3.11,-1.37 0.92,0.84 3.25,-0.28 1.69,0.5 2.31,4.5 2.75,-3.19 -0.9,-2.85 0.91,-1.16 2.17,3.13 0.86,-0.42 0.97,-2.19 -0.58,-1.06 1.66,0.5 3.6,-4.42 1.68,-4.49 2.6,-1.36 -1.89,-0.94 -1.04,-10.08 -1.41,-1.2 -0.62,2.04 -1.01,-1.38 0.49,-2.14 -4.98,0.78 -4.01,2.9 -3.64,-0.64 -0.25,-1.3 3.5,-1.68 -0.51,-0.64 1.91,-3.12 -0.12,-5.72 1.4,0.22 0.23,-1.1 -2.25,-3.7 1.03,-0.4 0.08,-1.76 -1.88,-0.92 1.17,-0.92 -0.96,-0.16 1.08,-1.42 -1.1,-0.82 0.75,-0.92 -1.13,-1.7 -1.19,1.32 -1.18,-1.46 0.28,-2.22 1.2,-0.1 1.38,-2 -1.63,0.22 -6.04,-4.05 2.53,-1.52 -0.27,-4.4 1.91,-2.97 5.11,4.24 2.8,0.7 4.11,5.44 2.16,-0.28 2.86,9.28 -0.63,0.58 1.01,3.15 -1.08,1.38 0.92,0.64 -0.21,5.44 -0.51,1.18 -1.17,-0.7 0.22,-1.26 -1.91,1.04 -1.84,5.9 3.39,3.84 1.21,3.48 1.21,0.38 0.47,3.77 1.4,-0.28 1.26,2.58 0.69,-3.97 1.97,-1.78 -1.33,-0.96 0.41,-2.34 1.1,-1.4 1.08,0.4 1.17,-1 -0.47,-5.44 -1.71,-2.66 1.17,-1.92 1.57,-0.22 1.76,-3.86 0.48,-2.32 -0.75,-1.66 1.18,-1.92 -2.64,-1.38 -1.8,-6.42 z" />
  <path
     id="IE-CW"
     title="Carlow"
     class="land"
     d="m 452.79859,490.9326 3.01,-0.48 3.04,2.66 2.89,-0.87 1.74,2.16 1.08,-1.31 5.28,1.23 0.69,3.42 2.19,-0.41 2.09,1.12 1.76,-2.72 3.06,1.99 -0.08,2.25 -2.24,0.49 0.51,8.9 -2.79,-0.23 -2.01,1.02 0.45,0.73 -1.21,1.63 -2.08,-0.23 -1.7,-1.11 -1.38,0.36 -1.17,-2.62 -4.23,-2.6 -1.03,0.91 0.42,2.08 -3.79,2.79 -1.11,5.16 1.47,0.77 2.07,-1.29 2.76,2.52 1.19,2.73 -1,1.46 4.58,6.55 v 0 l -3.67,4.65 -1.92,0.29 -1.23,1.36 -0.2,2.92 1.98,-0.65 0.47,1.07 -2.67,4.6 -7.18,-0.78 -4.48,3.74 -0.5,8.22 -1.08,2.75 -1.82,0.25 -1.19,4.02 -2.57,2.33 0.44,2.36 -3.63,7.6 -3.56,2.81 -2.57,-0.02 v 0 l -2.1,-0.67 1.9,-1.54 -2.54,-4.61 0.59,-5.2 -2.77,-1.91 5.01,-4.59 -0.28,-3.3 -3.64,-4.33 -2.42,-0.76 -1.61,-2.86 0.61,-1.03 -1.26,-1.48 0.84,-2.01 -0.48,-2.78 1.06,-2.1 -2.05,-1.22 -1.17,-3.77 -3.86,-3.68 -1.52,1.76 -1.95,-0.98 -1.5,-3.09 -3.02,-0.02 1.95,-1.59 -1.39,-2.39 1.94,-2 -0.39,-3.55 3.21,-3.06 v 0 l 1.96,-0.64 0.86,-2.52 8.5,0.15 1.5,-1.27 1.57,-2.31 -0.87,-2.54 1.82,-1.25 -0.95,-6.13 v 0 l 0.79,-1.64 1.03,-0.08 2.03,3.42 2.79,1.88 1.33,-0.63 -0.91,-2.6 0.97,-0.29 2.68,3.14 2.43,-2.33 4.11,1.25 2.94,-4.61 1.56,0.14 0.36,-4.38 z" />
  <path
     id="IE-CN"
     title="Cavan"
     class="land"
     d="m 311.54859,217.8926 3.11,0.54 1.45,1.77 1.09,-1.27 1.36,0.37 0.73,1.52 2.55,-0.22 -1.36,1.46 -0.3,2.57 1.52,2.45 0.5,8.84 5,2.91 1.08,-1.02 6.41,-0.83 1.61,1.61 5.8,-0.8 1.24,4.86 1.96,-0.98 3.65,3.26 0.7,3.76 2.36,1.97 2.84,0.12 1.3,2.7 2.06,1.31 2.33,-2.5 5.75,1.78 1.4,-3.51 v 0 0 0 l 2.73,-1.91 3.68,-0.87 0.52,0.97 -2.05,2.25 0.55,0.63 5.58,-0.57 -2.3,3.65 3.48,-2.12 1.36,1.19 0.52,2.26 2.46,-1.93 0.45,1.34 v 0 l 0.48,2.38 3.38,-0.04 2.98,2.4 2.17,-0.04 -0.45,-1.65 1.67,1.03 1.13,-0.81 8.15,3.71 3.78,-2.62 2.91,0.82 1.25,2.04 4.26,-3.87 3.6,0.62 -0.99,3.41 1.77,0.63 1.17,2.62 2.35,0.79 1.8,3.81 3.16,1.51 1.8,3.8 3.8,0.89 3.14,4.66 4.17,10.8 6.06,0.75 1.68,1.97 v 0 l -0.79,1.68 -1.26,-1.02 -0.44,0.75 -1.26,4.97 -2.5,-1.04 0.71,-1.33 -1.53,-0.29 -2.89,2.45 0.99,0.94 -0.64,0.79 -4.21,0.83 -4.76,-3.51 h -1.58 l 1.1,3.3 -3.64,2.25 -1.81,-1.17 0.89,4.64 1.19,0.2 0.36,1.85 4.49,5.36 -1.07,1.64 -1.7,-0.1 -0.54,2.4 1.15,0.85 -1.65,0.75 -1.74,-1.91 -2.83,3.33 -1.26,-1.46 -0.32,3.03 -5.04,-2.12 -7.29,0.08 -0.9,-3.08 -1.92,0.12 -2.39,-2.32 -3.17,2.18 -2.18,-0.65 -2.16,1.8 -0.19,2.67 -6.98,-1.87 -1.26,-3.33 -2.69,-2.74 -3.98,2.57 v 0 l -7.69,4.55 v 0 l -0.63,-2.7 -5.63,-2.44 -1.61,-2.07 1.13,-1.25 -1.34,-6.86 -5.66,-1.93 -2.11,1.85 -4.61,0.59 1.36,-5.74 1.66,0.43 0.65,-2.92 -0.81,-2.23 -1.82,-0.38 -0.29,0.97 -0.59,-2.33 -3.45,-4.76 v 0 l 2.54,-3.78 -0.6,-2.29 1.5,-1.71 -1.97,-2.11 0.83,-2.02 -0.59,-4.46 -1.64,-1.27 -0.57,1.53 -2.94,-1.45 -0.41,-1.31 1.32,-1.86 -1.1,-0.93 -1.26,0.67 -0.41,-2.73 -2.88,-1.11 -2.91,-4.5 -3.16,0.39 -0.53,-2.28 -2.12,-2.26 -3.6,-0.54 -1.24,-1.63 -1.91,1.77 -0.46,1.91 -1.29,0.02 -3.27,-3 0.85,-1.17 -4.83,-3.3 0.42,-1.35 -1.79,-2.27 -5.48,-4.75 -4.49,-0.54 -2.15,-2.26 -1.4,1.11 -2.87,-0.02 -0.38,-2.62 1.45,-2.71 -2.7,-4.64 0.37,-1.23 1.54,-2.32 4.68,0.62 z" />
  <path
     id="IE-CE"
     title="Clare"
     class="land"
     d="m 178.55859,444.0026 3.93,-0.25 1.52,1.61 1.84,-0.21 -0.69,1.05 2.86,0.87 v 0 l -2.1,0.6 -0.58,1.59 2.23,5.24 8.06,3.91 2.4,3.04 3.22,0.72 -0.65,5.01 1.82,3.97 -1.66,1.37 0.27,1.7 1.59,4.77 2.45,-0.44 0.75,1.72 1.07,-1.72 -0.44,-1.02 1.83,-0.71 0.82,1.66 4.95,1.18 0.85,-3 4.14,-2.65 2.68,-4.51 2.43,-0.17 3.63,-2.59 3.7,-0.37 1.33,1.2 7.72,-1.3 0.83,3.75 2.53,-0.17 0.41,1.95 2,1.12 0.84,4.85 2.3,-0.99 3.83,3.09 2.18,-1.39 1.87,-2.96 1.68,1.86 3.6,1.24 0.92,1.47 2.5,-2.96 2.86,0.37 v 0 l 0.68,1.47 2.69,0.73 0.32,1.06 -6.56,10.19 -6.05,-0.35 -1.62,0.71 -1.62,7.46 -4.16,5.05 1.61,10.53 -4.47,6.68 v 0 l -3.49,2.04 0.69,5.59 -1.23,2.34 -3.32,1.54 -0.64,3.44 -3.58,2.16 -1.13,4.13 -2.63,2.25 -1.38,-1.25 -7.76,-0.5 0.5,-3.13 4.25,-2.38 v -2.47 l -3.9,0.13 -3.25,2.76 -5.8,-0.86 v 0 l -1.01,0.47 -10.82,-4.41 -2.75,-0.25 -4.88,1.75 -0.63,1.25 -3.88,-0.38 -0.63,-1.5 5,-3.13 -2.38,-4 0.25,-2.5 -1.5,-1 1.25,-2.5 -1.75,-1.25 h -2 l -6.38,3.5 -0.63,0.88 0.75,4.75 -4.38,7.26 -1.75,0.5 -0.88,3.13 -3.13,2.25 -1.13,2.75 -2.63,2.63 -12.39,1.75 -1.88,4 -1.38,0.63 -4.75,0.38 -0.75,-1.13 0.25,-1.38 5.51,-4.25 1.25,-2.88 h -1.75 l -0.38,1.63 -2.5,1.25 -13.76,2.63 -1.88,-1.38 -4.38,-0.13 -3.13,-2.13 h -1.88 l -1.63,-2 -0.25,-4.63 -0.5,-1 h -1.38 l -1.88,1.38 -0.25,1.5 v 1.63 l 1.75,-0.13 -0.25,2.38 -2.88,1.13 -1.38,1.25 0.25,1.25 -4.5,-0.5 -3.63,1.75 -3.38,0.25 -2.19,5.02 -3.15,-1.04 -0.07,1.3 -7.619998,2.85 -4.08,-1.15 -2.06,0.19 -0.83,1.7 -2.63,1.22 -5.6,-0.82 2.12,-1.11 1.77,-2.55 2.81,-0.21 1.26,-1.36 -0.69,-0.86 7.06,-1.8 2.83,-4.73 6.659998,-3.43 1.38,-3.03 3.03,-1.21 2.52,-3.11 h 3.39 l -1.26,-2.44 1.14,-0.9 0.02,-1.52 3.69,-2.05 -2.09,-2.27 1.33,0.4 -0.47,-1.17 2.23,-0.27 0.26,-2.06 5.79,-1.58 2.82,3.15 0.44,-2.02 3.41,-0.67 0.79,-2.21 -1.13,-1.83 2.33,-1.27 -1.13,-6.25 3.72,-1.39 0.91,-1.83 -0.49,-1.14 2.85,-0.98 -0.3,-1.29 -1.94,-1 2.29,-1.97 0.45,-1.7 -1.66,0.13 0.96,-3.01 4.33,-2.31 3.17,-3.94 1.61,-0.5 0.64,-2.57 -1.63,-2.49 -4.44,2.03 -4.35,-0.79 -3.32,1.25 -1.18,-0.37 0.18,-1.8 4.85,-4.71 0.46,-3.73 4.4,-4.43 -1.89,-1.88 4.98,-6.15 0.85,-4.22 5.74,-4.17 2.54,-4.96 -0.44,-2.41 1.13,-2.44 2.45,-1.96 4.85,2.87 5.81,0.74 -1.57,0.17 0.31,1.03 3.21,2 6.78,-4.75 -0.72,1.11 1.41,-0.08 1.91,3.22 -0.28,-3.38 -1.73,-1.42 -1.87,0.64 -0.5,-1.13 -1.49,0.85 -1.71,-0.89 4.14,-1.82 z" />
  <path
     id="IE-CO"
     title="Cork"
     class="land"
     d="m 134.64859,768.4826 0.26,1.01 -1.94,2.43 -2.37,1.57 -0.46,-1.68 -1.22,2.89 -0.75,-1.75 -0.86,0.24 2.27,-2.58 z m 6.58,-7.02 0.91,0.24 0.57,3.27 -0.75,-0.37 0.26,1.01 -4.23,2.86 -0.35,-1.85 1.83,-0.86 -1.26,-1.66 1.42,-0.5 1.28,1.48 0.51,-0.69 -1.1,-0.52 -0.1,-1.49 z m -2.15,-1.91 -0.69,2.56 -1.11,-1.1 -1.61,0.77 0.78,-1.38 0.51,0.5 z m -14.94,1.31 -3.5,0.5 5.76,-2.39 z m 6.84,-3.05 -1.1,1.4 -0.65,-0.36 z m 3.28,-0.63 -1.61,0.09 2.71,-1.35 z m -81.139998,-17.82 0.26,1.11 -8.64,4.44 3.67,-4.57 z m 43.25,-5.79 -1.12,0.47 0.38,0.94 -2.55,0.6 -1.35,1.57 -1.22,-0.64 -4.09,1.41 -0.58,1.09 -0.22,-1.33 -3.17,0.56 -0.79,-0.67 2.23,-3.84 7.45,-1.05 1.43,1.14 -0.63,1.2 1.97,-1.74 3.45,-1.05 z m 36.289998,-11.09 -1.8,3.47 -3.49,-0.49 5.32,-4.47 z m 139.1,-25.87 1.08,0.57 -1.03,0.49 z m -0.78,-1.11 0.25,0.73 -1.47,-0.39 z m -107.55,-86.13 0.88,-1.67 4.15,-1.16 0.1,-1.33 3.93,-2.78 0.46,-2 3.24,2.13 8.82,1.92 6.17,5.94 0.59,-0.49 -1.14,-3.43 12.09,-3.85 -0.84,-1.16 1.39,-2.95 0.76,0.78 2.11,-1.39 0.17,-2.48 2.57,-0.21 0.93,-2.52 1.98,-0.46 1.19,2.73 1.7,-2.55 5.11,2.76 7.13,-2.63 -0.04,3.77 1.58,2.69 3.27,1.26 0.77,-0.65 0.08,1.94 1.12,-0.27 3.53,6.02 3.17,0.08 1.88,3.2 4.22,2.15 7.98,-2.63 5.86,-0.34 0.56,-2.36 2.19,-0.8 0.21,-1.68 2.64,-1.62 1.25,1.98 1.94,-0.78 2.13,5.06 1.53,1.39 3.87,-1.9 7.29,1.73 v 0 l 0.82,2.45 1.61,-0.21 -0.71,1.96 1.26,4.62 6.57,2.22 -0.16,4.6 v 0 0 0 l -2.46,1.23 0.91,0.55 -1.28,5.56 -2.89,0.61 -1.07,4.3 5.91,-0.82 1.52,0.38 0.68,1.65 3.07,-1.31 0.14,3.45 -1.43,-2.26 -0.58,1.08 1.75,2.35 2.61,0.59 0.52,1.52 1.27,0.47 1.64,5.68 -0.83,4.01 4.3,3.35 3.11,-0.19 -0.48,1.99 3.94,3.23 1.4,6.44 5.27,0.4 2.29,-0.95 1.6,4.74 v 0 l -0.12,2.49 -2.74,1.94 -2.19,3.62 -2.51,0.72 0.14,2.3 3.85,1.36 0.58,1.56 -12.77,2.51 -5.52,3.24 0.02,2.22 0.01,-1.21 -1.03,0.43 2.8,3.13 -4.91,1.37 -1.57,1.39 -7.94,0.7 -3.62,3.56 -1.52,0.34 -0.49,-1.9 -1.84,-0.28 -6.94,0.9 0.6,-2.5 -1.73,-1.77 1.63,-1.98 1.85,-0.06 -0.78,-1.83 2.16,-1.28 5.07,-0.58 -1.89,-0.45 0.82,-1.79 2.02,-0.94 -10.94,0.73 -5.69,2.88 -1.94,-1.22 -1.25,1.62 -2.04,0.34 4.46,1.68 0.2,-0.92 1.19,0.7 0.91,-0.66 -0.5,2.86 -2.4,-0.47 0.24,0.81 3.37,1 -0.19,1.92 1.27,-1.35 1.05,0.21 0.21,1.92 -1.1,1.9 -3.57,2.95 1.78,0.94 -0.25,4.29 -1.1,0.19 -0.12,2.2 -2.21,-0.39 -1.1,3.17 -5.19,0.47 -1,2.44 -3.1,-0.45 -0.93,2.78 -1.45,0.66 -1.53,-1.22 -2.83,3.15 -1.96,-0.09 0.18,-2.72 -1.56,-2.67 -0.8,1.54 1.06,1.99 -0.69,1.05 -1.98,-1.46 0.8,1.24 -1.19,4.45 -2.32,2.53 2.59,2.92 -1.35,1.37 0.97,2.79 -1.4,-0.88 -0.61,-2.47 -1.46,-0.15 -0.13,-2.66 -2.05,-1.09 -9.09,1.76 -1.89,-6.34 0.26,3.11 -0.94,1.29 -2.26,-1.05 -1.28,2.1 -4.06,-1.35 -2.8,1.63 0.08,1.01 2.18,-1.97 2.68,1.44 4.93,-0.17 -1.91,3.66 2.69,1.69 -2.85,2.14 0.38,3.18 -1.53,1.67 -3.73,-1.22 -0.51,1.18 -1.03,-0.39 0.77,-1.74 -1.06,-1.89 -1.98,1.76 -3.38,-2.34 -4.97,0.43 -0.06,-3.6 -2.27,-0.06 -2.06,-1.93 1.26,3.28 2.13,-0.36 0.52,1.24 -1,1.11 -3.76,-1.63 -0.21,1.31 3.16,0.9 -0.21,2.87 -2.66,1.1 0.39,3.39 -1.13,-0.07 -0.08,0.99 -2.1,1.27 -1.06,-1.31 -1.45,0.24 -1.84,3.18 0.01,-4.73 -5.18,-2.45 -2.36,0.54 -0.99,-3.15 -0.3,1.67 1.76,2.6 -1.89,-0.08 -0.59,1.12 -2.05,0.45 -2.06,-1.57 0.83,1.42 -0.73,0.33 -2.72,-0.22 -2.69,-2.33 -1.94,0.22 -1.67,-3.28 0.58,4.1 2.3,0.11 0.49,-0.95 3.62,3.09 3.8,-0.88 -3.32,1.27 -3.88,-1.78 -0.44,0.97 1.15,2 -1.69,-0.26 0.37,0.8 -1.82,0.84 0.67,0.75 -1.89,0.94 -0.28,-1.59 -1.29,0.45 0.56,1.31 -2.24,0.9 1.28,-3.2 -0.79,-3.55 -0.92,1.03 1.14,0.21 -0.1,2.97 -2.24,1.96 -0.12,2.11 -1.74,-0.13 -1.41,1.93 0.69,2.06 -3.64,0.9 1.21,-1.76 -0.63,-0.95 -3.99,2.19 0.66,-3.1 -1.54,0.56 -0.02,0.92 -3.37,-2.3 1.81,2.8 -6.23,4.22 -2.06,-1.25 -1.95,1.2 -1.07,-1.08 1.87,-2.26 1.81,0.26 0.52,-3.74 -1.92,0.45 0.76,1.55 -2.03,1.4 -0.76,-0.62 0.56,-2.11 -1.22,0.04 2.08,-1.01 0.28,-1.36 -4.36,3.4 -0.94,-0.8 0.57,-2.73 -1.4,2.08 -0.67,-1.14 2.86,-2.28 1.35,-5.76 -2.19,2.49 -0.19,-2.21 -1.35,0.07 -0.26,1.46 -3.34,-3.61 0.23,2.23 1.41,0.37 -0.41,1.2 1.34,0.13 -2.45,3.16 -2.27,-0.97 -0.31,1.44 -1.37,-0.26 -4.35,1.94 0.28,-2.97 -1.6,0.09 -0.69,3.48 -4.79,1.08 0.06,-2.19 -0.6,2.11 -2.37,1.07 2.11,-0.52 0.9,0.79 -5.35,1.18 1.56,-1.23 -1.96,-1.03 0.28,-1.61 -1.34,-0.17 0.06,-1.44 -1.05,1.23 -1,-0.77 -0.69,0.41 1.13,1.12 -0.75,1.76 -0.71,-1.12 -4.53,2 0.56,3.63 -5.37,2.33 5.6,-1.06 -4.63,1.47 -3.449998,2.52 1.279998,-2.41 -1.949998,-2.02 1.969998,-1.16 -0.469998,-0.52 -1.77,1.4 -2.09,4.26 -2.64,0.21 1.49,-4.56 -3.53,-1.53 4.89,-2.47 5.089998,-4.97 1.31,0.17 0.71,-1.03 3.5,0.26 4.18,-3.55 1.75,0.67 0.26,-0.75 -1.26,-0.02 2.01,-1.44 0.06,-2.32 3.46,-1.57 -0.67,-0.9 4.37,-1.97 0.91,-2.27 3.95,-0.75 1.05,-1.16 -1.27,-0.56 0.53,-0.88 -2.66,1.82 -2.67,-0.45 -4.06,2.9 -1.85,-0.6 -2.55,3.15 -1.45,-0.28 -1.56,1.24 -1.1,-0.41 -1.49,1.61 -2.4,0.22 -0.64,1.85 -1.02,-0.8 -8.949998,4.15 -4.13,-0.08 7.8,-5.17 -0.78,-0.82 0.88,-1.09 7.639998,-3.78 2.5,-2.49 12.31,-5.42 2.38,-2.01 7.13,-1.93 2.53,-2.96 2.73,-0.21 0.54,-1.76 2.03,-0.7 -2.18,-0.77 2.48,-4.96 -2.09,1.3 0.91,-1.93 -0.75,-0.54 -2.99,2.91 -2.27,-0.38 -1.12,-2.22 -2.2,-0.28 0.5,-2.12 -1.38,-1.99 -1.81,0.92 1.01,1.18 -1.74,1.35 1.03,0.06 -0.4,0.7 1.2,1.11 -0.67,1.86 -2.72,1.73 -0.9,-0.96 -0.71,1.88 -4.28,3.45 -6.02,2.03 1.03,-2.53 -1.28,1.09 -4.48,0.47 -1.17,-3.15 -1.17,1.33 1.21,1.99 -0.75,1.2 -1.66,-0.56 -2.169998,1.67 -3.51,0.21 -2.1,1.16 -0.89,-0.92 -3.43,1.09 -2,-0.53 -1.56,1.37 -2.75,-0.94 -1.4,3.13 -2.6,0.15 1.66,0.71 -0.04,1.86 -1.32,1.48 -3.3,-0.08 -0.15,-1.03 -8.73,6.13 -0.9,-0.8 1.18,-0.62 -2.04,0.47 1.21,-1.18 -0.51,-0.54 -7.16,1.09 -0.97,-0.64 -5.21,3.73 2.13,-3 0.12,-1.59 -1.71,-0.73 0.15,-0.99 1.68,-1.07 2.48,1.5 3.55,-2.25 1.25,0.92 3.06,-2.51 -1.91,-0.13 1.13,-1.07 0.06,-2.63 -1.6,0.47 -0.37,-1.22 -2.99,-0.19 -0.61,-0.92 1.61,-1.93 1.94,0.47 0.55,-1.01 2.02,1.5 2.69,-1.76 2.55,0.79 1.38,-2.2 3.11,-0.19 0.89,-3.42 2.06,-1.8 -1.4,-0.54 -2.88,1.15 0.07,-0.81 -2.73,-0.06 3.01,-3.36 4.23,-1.54 1.69,0.3 -0.06,-0.85 5.25,-3.48 v 2.99 l -1.18,1.43 4.49,-2.18 v 0 l 2.53,3.38 -1.17,1.69 2.3,1.09 -1.07,4.28 1.38,1.07 3.64,-0.88 3.55,-3.51 -0.05,-1.41 4.289998,-3.66 6.6,-1.63 1.27,-2.9 4.2,-4.31 4.88,0.34 1.52,-1.09 1.2,0.58 1.6,-0.71 2.15,0.79 7.19,-1.39 1.82,-1.19 1.2,-4.57 3.62,-0.11 2.19,-2 2.99,0.24 1.33,-1.49 2.25,-0.55 0.55,-2 2.76,-2.75 -0.02,-1.36 3.18,-3.17 -2.04,-1.62 0.7,-1.92 -1.88,-1.98 -0.27,-4.04 4.9,-2.57 0.87,-1.96 5.04,-1.13 2.17,-1.46 4.33,-0.62 2.25,0.72 1.92,-2.42 -0.96,-1.98 -3.94,0.3 -2.06,-4.25 -3.23,0.68 -1.37,-5.07 1.49,-3.9 1.94,-0.66 0.99,-1.8 -3.29,-2.03 -0.13,-2.24 -2.03,-2.79 0.38,-1.25 -1.41,-3.73 0.7,-5.41 -1.6,-1.42 -0.79,-5.05 -2.66,-3.7 0.3,-4.88 3.02,-1.94 -0.17,-2.42 3.77,-0.46 0.56,-1.64 z" />
  <path
     id="IE-DL"
     title="Donegal"
     class="land"
     d="m 253.88859,86.212598 0.43,2.09 -2.23,-0.18 z m -1.92,-3.94 1.42,2.01 -2.43,-0.59 0.3,-1.87 z m -8.47,-6.35 4.19,2.05 -0.52,1.64 1.38,4.18 -3.63,-0.02 -0.47,0.97 -0.67,-1.01 -4.56,-0.39 0.03,-1.26 0.99,-0.3 -0.48,-2.31 1.89,-1.32 -1.63,-2.68 1.81,0.45 0.58,-1.85 z m 13.67,-3.45 0.21,3.23 -1.23,-2.58 -1.82,-0.32 1.91,-1.36 -1.1,-3.62 1.06,0.81 z m 104.94,-11.08 2.58,-0.1 2.76,2.28 1.92,4.47 -5.11,0.67 -1.22,-1.63 -2.15,-0.55 -1.02,-2.78 z m -99.17,-2.29 1.69,2.01 -1.24,0.89 -2.29,-1.28 1.15,-0.37 -0.81,-1.06 z m 13.54,-36.42 1.54,-0.1 -0.34,0.82 1.67,0.04 2.03,2.31 1.25,0.27 0.27,-0.96 0.04,1.16 -2.31,0.63 -1.6,-2.19 -2.58,0.12 z m 103.09,-21.52 2.92,0.94 0.65,1.41 6.47,0.29 0.82,1.19 3.17,0.2 1.46,1.58 4.37,1.02 2.67,2.09 -1.58,0.94 1.76,0.68 -0.74,1.76 2.22,2 0.14,2.86 2.54,0.98 1.24,-0.65 6.23,4.48 3.44,-0.33 0.51,1.12 3.02,0.69 0.57,2 6.18,0.51 3.55,3.35 -0.26,2.16 -3.41,3.27 -7.94,4.24 -3.09,0.69 -12.95,7.74 -5.3,6.43 -0.76,2.54 -5.41,7.52 v 0 l -1.61,0.61 -1.74,2.78 -1.4,-1.26 -2.29,2.11 -3.36,-1.02 -5.65,6.68 -0.77,2.5 1.26,1.79 -1.86,2.98 0.9,1.99 -0.63,3.37 1.18,2.13 -4.61,0.75 -1.4,1.26 -0.64,8.08 1,5.160002 -4.3,9.26 -5.25,3.33 -2.29,3.13 -0.36,6.6 1.39,1.65 -1.11,1.79 -3.58,-0.28 -0.08,-1.47 -1.48,1.35 -3.13,0.16 -2.64,-1.41 -4.38,3.75 -6.89,3.1 -1.24,1.89 -6.42,-2.7 -1.88,-3.04 -1.73,-0.4 -5.45,6.81 -4.58,0.26 -0.02,1.33 2.37,1.25 -1.68,2.64 1.12,3.16 5.2,2.17 0.58,3.94 2.88,-0.42 1.96,-2.31 4.72,4.52 1.39,-0.52 2.34,1.09 3.84,-2.85 -0.01,2.73 1,1.31 -1.18,1.33 -4.98,1.61 -1.63,2.47 -3.64,1.15 -0.61,2.33 -3.49,2.69 0.85,2.19 -2.59,2.05 -1.53,-0.64 -10.75,0.66 -1.96,-2.89 -2.07,0.96 -2.26,-0.38 -4.18,7.7 -0.3,4.07 -4.5,-0.14 -3.62,2.38 -0.04,1.2 -4.28,-0.06 -2.9,1.06 v 0 l -5.14,-1.72 -1.71,2.34 -2.06,-0.02 -4.08,-3.14 v 0 l 0.92,-1.1 -0.57,-0.98 2.06,-0.74 1.1,-4.19 -1.35,-2.97 6.46,-4.33 -0.86,-5.16 1.57,0.22 4.62,-4.64 -0.12,-5.71 1.76,0.32 -0.79,0.36 0.22,0.78 0.84,-0.38 -0.72,1.11 1.2,1 -0.49,1.43 1.52,-0.4 0.33,-2.95 2.13,0.58 -0.41,0.9 1.31,-0.4 0.15,-1.21 -2.11,0.26 0.91,-1.25 -1.95,0.26 2.74,-1.93 -4.18,0.3 2.55,-1.05 1.4,-3.7 -2.83,0.82 0.06,1.39 -3.28,2.96 -0.38,-2.84 1.47,-0.99 -2.23,0.5 -0.78,1.01 0.89,0.84 -1.63,-1.01 -5.63,4.54 -7.33,3.38 0.82,-4.24 2.18,-2.71 -1.82,-2.17 -6.35,3.3 -1.12,3 -4.56,4.26 -4.41,1.43 -1.27,1.17 0.1,1.35 -2.66,1.39 2.03,-2.77 -0.34,-1.35 5.81,-2.01 2.43,-2.95 -1.31,-3.2 0.41,-1.43 -1.06,1.03 -0.28,-1.05 -2.99,3.6 -1.91,0.4 2.22,-6.88 -0.97,-0.02 -2.09,3.12 0.24,2.45 -3.51,3.78 -1.19,-0.2 0.48,-1.87 -0.81,-0.7 1.26,-1.69 -0.33,-2.11 -6.58,3.44 -4.95,1.15 -0.93,1.51 -0.63,-0.46 0.83,-1.51 -4.26,-0.46 1.99,-1.65 -2.16,0.72 -1.28,-1.17 0.25,-1.59 -1.45,-2.62 1.45,5.47 -5.79,0.66 -0.59,-1.65 0.92,-1.01 -1.71,-1.97 -9.44,-2.94 -0.04,-1.63 -0.79,1.05 -0.66,-1.03 -0.72,0.91 1.17,-5.9 -2.57,-1.03 0.1,-1.77 1.25,-0.65 1.49,0.95 2.13,-1.53 1.96,0.38 1.52,-0.97 -2.02,-0.1 -0.04,-3.14 1.04,-0.87 -0.67,-1.05 4.69,-1.23 0.25,-1.81 1.7,-1.77 1.9,0.3 0.68,-2.02 8.49,-1.66 6.92,2.7 2.46,-1.05 0.02,1.78 9.33,1.21 -3.69,-0.77 -2.27,-2.52 -2.37,-0.71 -1.34,0.59 -3.49,-2.16 0.08,-1.33 3.57,1.03 1.58,-1.01 1.57,0.4 0.54,-0.95 1.2,0.32 1.97,3.81 3.18,1.86 1.81,-2.16 -3.27,-0.87 0.3,-0.99 -2.4,-1.88 0.87,-0.34 -1.03,-1.43 -4.57,0.04 0.23,-1.66 -1.8,-1.19 -1.8,0.18 0.44,-2.1 -4.64,-0.87 3.42,-1.37 2.93,1.5 0.78,-0.83 -0.56,-1.74 2.46,-1.66 4.63,1.74 2.73,-2.47 1.76,1.11 1.19,-1.21 -0.03,1.7 1.75,0.63 0.12,-6.81 -0.76,-0.79 2.43,0.49 1.92,-1.46 3.58,1.86 -0.47,-1.23 2.08,-1.64 -4.02,-0.69 -0.29,-3.220002 -2.22,1.74 -1.87,-1.23 0.61,3.420002 -1.13,0.91 -3.02,-3.000002 -3.78,-1.23 -1.62,-1.56 -0.19,-2.37 1.26,-0.12 0.41,-1.22 -1.65,-1.22 0.48,-1.62 2.15,-0.2 0.14,1.09 -1.64,0.77 2.16,1.3 -0.16,-1.11 2.78,-0.08 2.5,-1.64 0.82,0.97 1.82,-1.88 -5.23,-2.57 -0.6,0.47 -0.64,-2.01 -3.06,-3.04 0.97,-0.75 -1.97,-1.96 0.37,-1.62 3.27,-1.04 0.7,0.32 -0.82,0.67 2.6,0.95 -0.93,-2.72 1.8,-1.89 -1.54,-1.83 0.79,-1.5 0.9,-0.37 1.36,1.95 1.31,-1.63 2.24,0.26 0.84,-1.75 -0.96,-2.62 2.92,-1.77 0.64,-1.95 -0.68,-2.01 1.35,-0.85 -0.26,-3.78 2.38,-2.71 -0.49,-2.77 1.35,-1.32 -0.85,-1.02 1.25,-1.63 6.08,1.92 1.64,-0.69 0.79,1.26 5.28,0.31 1.65,-1.12 0.51,-2.53 1.66,-0.02 0.54,1.49 -3.64,2.75 0.59,0.81 -0.9,2.4 1.16,0.47 0.93,-1.42 1,0.71 -0.23,1.67 0.78,-0.81 -0.48,-3.67 1.64,0.92 0.63,-2.93 -0.77,-1.3 6.32,-1.06 2.38,-2.36 1.65,0.67 1.29,-0.65 1,-2.12 -1.12,-0.94 1.29,-1.47 -1.26,-0.43 0.86,-3.22 2.89,-0.51 1.25,-1.8 1.9,2.73 2.93,-0.43 0.32,1.06 -0.53,2.45 -1.85,1.35 -1.74,-0.08 -0.96,1.59 3.06,-1.06 2.97,1.98 2.15,-2.61 2.01,0.84 -0.55,2.39 2.5,0.59 -4.22,3.67 4.68,-2.57 2.23,0.84 -1.26,2.75 -3.04,0.69 -1.78,2.79 2.15,-1.43 1.34,0.33 0.23,-1.14 1.26,1.67 -0.34,1.63 1.49,-0.26 -0.51,-2.24 2.4,-2.08 -1.16,-0.96 2.03,-2 0.75,-2.87 -1.53,-3.2 -1.41,1 -2.68,-2.45 0.73,-5.82 1,0.88 1.68,-1.16 1.83,1.39 1.17,-0.24 -0.44,-2.43 h 1.59 l 0.36,-2.59 1.74,0.69 0.4,-1.59 -0.28,6.08 -2.27,1.82 0.05,2.33 -1.08,1.26 1.88,2.2 -0.5,1.96 1.2,0.06 -0.04,-1.35 0.68,0.88 0.42,-0.96 2.05,0.33 0.49,-1.18 1.06,0.75 -0.05,1.64 1.6,0.82 0.09,-1.67 2.65,4.22 -1.11,-3.1 1.98,1.9 2.59,4.75 -2.93,8.83 1.61,-1.57 0.53,1.67 3.46,-12.15 -1.66,-1.45 -0.35,-3.51 -0.8,1.16 -1.23,-1.1 0.7,-1.94 -0.84,0.71 -1.43,-1.41 0.33,-1.37 1.63,-0.06 -1.19,-2.88 0.77,-1.73 -0.91,-0.9 -1.68,1.76 0.36,3.18 0.93,-0.06 -1.1,1.47 0.42,2.24 1.6,1.04 -0.75,2.75 -3.96,-3.53 -0.38,-1.16 1.25,0.51 0.32,-1.35 -1.69,-0.37 -0.21,0.9 -2.11,0.55 -1.34,-2.59 -1.8,-0.55 -0.41,-1.77 4.58,-4.59 0.96,0.29 -0.92,-1.06 1.13,-1.39 -0.7,-1.74 1.66,1.55 1.26,-1.2 0.41,1.61 3.03,-0.16 1.2,-1.41 -0.25,-1.88 1.47,0.37 2.76,-2.9 2.72,-0.02 -0.4,1.1 0.94,0.47 2.82,7.35 -0.57,3.16 -1.97,2.79 2.61,3.41 1.24,-0.33 2.39,1.75 -0.11,2.71 3.76,4.91 2.15,0.92 0.48,3.09 -1.43,1.61 0.57,2.14 -1.04,2.16 -5.72,2.52 -1.43,1.59 -0.06,2.42 -3.22,0.83 -1.8,2.28 0.17,1.46 1.7,-1.65 1.75,0.71 3.62,-2.21 1.17,0.3 0.92,2.15 -0.05,1.75 -2.61,3.01 -6.6,4.63 -2.1,5.5 -2.9,1.85 v 1.6 l 0.77,-1.18 3.96,-1.07 0.76,-1.6 1.43,1.48 3.21,-6.17 6.63,-6.09 1.43,0.85 1.24,-0.93 0.46,-3.31 2.05,0.1 1.63,-1.26 0.43,0.73 2.61,-0.37 1.06,-1.34 -1.42,-5.31 -2.55,-2.77 0.16,-2.34 2.46,-3.89 -0.48,-3.5 -1.39,-0.2 -1.52,-3.61 -1.94,-1.04 -1.99,-4.63 -4.09,-2.24 1.74,-1.37 -1.14,-0.88 1.42,-4.33 2.09,-2 -1.74,-1.9 2.34,-1.63 0.52,-1.74 0.05,-1.23 -1.94,-2.1 0.62,-1.12 2,-0.8 4.11,1.76 0.45,-2.96 1.73,1.19 v 1.49 l 2.55,0.61 -0.57,-1.53 1.75,-0.9 4.08,-0.04 0.98,-4.7 1.34,-0.53 3.17,1.06 1.31,2.04 1.29,-0.33 1.01,2.04 -1.03,1.04 -3.99,-0.49 -0.05,1.35 3.72,-0.1 3.37,2.15 1.87,-1.45 0.71,1.08 2.19,-0.33 -2.44,-2.29 1.81,-1.04 -2.91,0.36 -6.3,-3.91 -0.5,-2.8 -2.13,-1.51 0.49,-5.42 -2.78,-0.27 -2.18,-3.05 -1,-0.04 3.33,-1.5 z" />
  <path
     id="IE-D"
     title="Dublin"
     class="land"
     d="m 522.46859,393.1726 0.59,-0.31 1.7,3.63 -0.42,-8.42 -9.37,-4.22 5.4,-0.53 0.86,-1.35 2.09,1.37 -1.69,2.91 2.25,-1.25 0.93,-3.21 2.6,-3.19 -1.29,-0.49 -0.94,-2.8 -1.61,-0.08 1.06,2.15 -4.51,0.02 -0.59,-1.13 4.58,-1.74 1.92,0.59 3.94,-1.84 -1.41,-2.08 1.04,-1.84 -0.85,-0.67 0.71,-0.61 -0.5,-2.8 -1.55,-1.29 -0.16,-3.57 -5.67,-0.33 -2.07,-3.84 -2.68,-2.35 -0.09,-2.24 -2.92,-0.61 v 0 l -1.91,0.94 -1.14,-1.24 -2.15,0.61 -1.62,3.38 0.04,3.31 -4.25,2.41 -1.18,1.84 -3.29,0.22 0.15,-1 -1.6,-1.14 -3.49,-1.1 0.22,2 -4.14,2.76 -1.22,4.51 1.33,0.53 1.6,3.02 4.91,2.15 -0.13,1.6 2.6,1.47 0.86,4.09 -1.81,2.64 -0.01,3.58 -4.09,1.68 -2.75,-0.37 -0.97,4.53 -4.15,5.48 v 0 l -2.43,5.01 -1.52,0.68 -1.1,7.52 -2.18,-0.49 -1.61,1.46 0.36,0.72 -1.16,0.93 1.34,1.17 -0.15,2.39 -2.1,1.93 3.52,3.15 1.16,-0.35 -3.25,2.2 0.26,1.13 1.78,-0.12 5.28,2.18 -0.37,0.58 v 0 l 1.32,1.48 1.27,-0.88 3.76,0.12 2.1,3.93 3.46,-0.93 -0.13,4.43 4.54,2.74 2.64,-3.17 0.23,-5.13 0.96,-0.7 7,4.33 3.65,-1.57 0.27,-1.24 2.97,-0.58 2.31,3.17 3.07,0.83 3.99,-2.45 v 0 l -0.97,-9.27 2.32,-2.2 -1.53,-2.92 -2.73,-1.01 0.32,-2.12 -0.56,1.69 -1.42,-1.01 0.82,-0.99 -2.2,1.5 -5.84,-3.93 -0.94,-3.6 4,-0.64 0.14,-0.86 -7.2,-0.84 4.96,-0.12 -0.41,-1.21 -3.92,-0.96 0.73,-0.72 4.25,0.92 3.9,-4.2 3.16,-1.71 3.06,0.7 0.59,2.54 1.53,1.56 3.69,0.12 1.08,-3.84 -2.51,-2.54 -1.11,0.82 -4.86,-0.59 z m 16.13,-14.78 -0.92,2.13 -2.8,-1.31 0.57,-1.74 z m -15.05,21.98 1.59,0.08 -4.54,2.96 -1.6,2.22 -0.76,-0.62 2.24,-3.04 z" />
  <path
     id="IE-G"
     title="Galway"
     class="land"
     d="m 128.04859,461.6026 1.5,0.16 0.58,1.74 -2.73,1.88 -3.24,-0.68 1.23,-2.92 z m -5.8,-6.9 0.9,2.91 -1.69,2.62 -4.08,1.16 -0.14,-3.08 1.97,-2.98 z m -24.139998,-9.02 2.019998,0.16 1.08,3.16 5.66,-2 2.06,1.67 3.45,0.29 -2.39,3.35 1.98,1.75 0.9,-0.54 -0.37,1.07 1.11,0.41 0.55,-0.68 -0.75,-0.35 1.76,-0.95 -0.75,4.05 -2.83,-0.52 -3.43,-3.02 -2.16,-0.06 -5.67,-3.28 -8.099998,-2.66 2.36,-2.39 z m 93.369998,-9.04 -0.59,-0.6 1.98,0.62 -4.9,0.78 2.08,-1.67 z m -4.45,-5.87 -2.18,1.61 1.71,0.68 -3.27,-1.07 z m -85.17,-3 -1.5,0.14 -0.06,-0.74 1.07,-0.35 z m 2.2,-1.47 0.84,0.49 -0.19,3.48 -1.42,-0.97 -2.86,0.86 0.09,-1.03 2.15,-0.45 -0.47,-2.24 z m -2.29,-2.55 0.91,2.41 -0.98,-0.41 z m -0.66,0.47 -0.78,-0.14 0.4,-1.44 z m 4.68,-4.07 1.25,0.86 -1.7,0.72 -0.76,-1.65 0.68,-0.7 z m 6.67,-0.61 0.67,1.79 -1.53,-0.37 2.34,3.95 -0.64,5.06 -2.25,0.93 -1.77,-0.47 0.29,-0.62 -2.43,0.8 -1.95,-3.44 1.66,-1.65 -1.76,-0.27 -0.56,-1.91 4.72,-1.4 0.06,-1.93 z m 4.57,-0.25 -0.68,1.73 -0.41,-1.6 z m 1.32,0.02 -0.86,-0.02 0.65,-0.97 z m -23.689998,-3.19 0.43,0.66 -2.09,1.77 z m 15.679998,-0.94 2.18,1.07 1.95,-0.9 0.82,1.44 -2.82,1.81 -3.57,-0.18 -0.48,1.69 -2.08,-1.13 -0.19,-0.68 1.73,0.6 0.49,-0.64 -2.5,-1.42 0.72,-1.32 2.33,-1.17 z m 4.7,-1.24 0.82,0.39 -0.98,0.68 -0.23,-0.99 -1.82,-0.04 1.77,-1.73 z m 5.13,-6.78 -0.2,1.52 -0.62,-1.52 z m -9.79,-1.37 0.77,0.57 -1.31,0.27 z m 2.23,-0.45 0.25,0.88 -1.48,0.29 z m -32.019998,-4 0.64,0.7 -1.04,1.05 z m 3.48,-7.14 0.17,1.25 -0.97,0.7 2.02,1.52 -1.75,0.49 1.46,2.3 -0.79,0.92 -1.38,-0.9 0.58,-2.67 -0.91,-2.99 0.71,-1.46 z m -29.41,-17.86 1.52,0.78 -2.59,0.14 z m -0.19,-2.08 0.62,0.53 -1.66,0.76 0.1,-1.15 z m -0.04,-3.03 0.22,0.74 -2.24,0.61 -0.52,-0.63 0.75,-0.55 -1.67,-1.25 2.33,-0.53 z m -15.45,-17.39 2.45,2.51 -2.77,-0.37 -1.56,1.1 z m 10.37,-3.24 1.85,0.69 -1.15,1.83 1.5,0.78 -2.09,2.26 -1.87,-0.43 0.44,-0.82 -3.2,0.24 -2.92,-2.04 1.35,-1.77 0.52,1.73 1.19,0.43 1.14,-2.12 1.8,0.9 0.03,-1.65 z m 161.009998,-6.44 2.29,2.02 2.34,-1.41 4.19,0.37 1.59,-1.53 0.71,1.1 6.93,-2.1 2.39,-2 -0.27,-1.71 1.07,-1.85 5.96,-0.94 1.2,-1.69 4.78,0.02 1.55,1.08 5.84,-0.51 3.1,2.62 -2.02,0.55 3.67,5.23 7.35,3.81 -0.49,2.42 -1.68,0.25 v 0 l -1.6,0.79 v 0 l -1.52,1.84 2.54,-0.2 0.99,1.9 -0.21,2.84 3.18,0.63 1.66,2.29 -0.03,1.82 3.71,-0.06 2.67,2.29 -0.26,0.84 -1.25,-0.78 -1.14,1.04 2.57,4.41 -0.84,1.49 1.78,1.37 -1.47,1.06 -0.35,1.78 2.09,2.76 -0.78,1.39 1.17,1.54 -1.76,1.58 5.62,5.16 -0.62,1.54 -2.29,1.21 0.72,3.67 1.99,0.16 1.67,3.24 -2.01,5.64 1.65,1.97 -0.14,1.4 2.06,0.97 1.57,-0.6 1.31,2.48 -0.68,5.28 1.92,3.78 2.68,0.41 1.2,1.58 1.34,-0.51 9.13,1.52 v 0 l 2.96,1.85 0.25,2.02 2.31,0.35 3.83,3.15 0.57,4.02 -2.47,4 -5.44,-0.23 -2.64,1.3 -2.63,4.41 v 0 l -5.4,1.57 -3.69,4.7 -1.03,3.76 -5.56,8.78 -5.39,2.34 -1.56,7.3 -2.58,2.05 -1.88,4.72 v 0 l -2.86,-0.37 -2.5,2.96 -0.92,-1.47 -3.6,-1.24 -1.68,-1.86 -1.87,2.96 -2.18,1.39 -3.83,-3.09 -2.3,0.99 -0.84,-4.85 -2,-1.12 -0.41,-1.95 -2.53,0.17 -0.83,-3.75 -7.72,1.3 -1.33,-1.2 -3.7,0.37 -3.63,2.59 -2.43,0.17 -2.68,4.51 -4.14,2.65 -0.85,3 -4.95,-1.18 -0.82,-1.66 -1.83,0.71 0.44,1.02 -1.07,1.72 -0.75,-1.72 -2.45,0.44 -1.59,-4.77 -0.27,-1.7 1.66,-1.37 -1.82,-3.97 0.65,-5.01 -3.22,-0.72 -2.4,-3.04 -8.06,-3.91 -2.23,-5.24 0.58,-1.59 2.1,-0.6 v 0 l 0.22,-1.65 1.75,0.97 -1.03,-2.21 -1.11,0.99 0.16,-1.26 -0.78,0.56 -3.3,-1.05 -0.64,-1.11 -3.37,1.49 -1.11,-1.18 0.85,-0.89 2.12,0.85 4.4,-1.22 3.78,0.31 2.63,-1.51 0.21,1.86 -2.76,1.07 4.46,0.93 -0.54,0.58 2.57,2.58 1.63,-0.89 -1.49,-0.19 -0.42,-3.59 -1.63,-1.47 0.71,-0.93 -0.91,-0.08 0.58,-1.81 0.99,0.37 -0.48,-1.57 1.74,-0.83 -2.88,0.99 2.78,-1.59 0.62,-1.57 1.73,-0.21 1.41,-2.02 -1.32,-0.37 -1.98,1.77 -2.47,0.58 -5.12,-0.17 2.52,1.42 -5.39,-2.14 h 4.86 l -2.12,-0.82 1.74,-1.15 -2.93,0.58 0.72,-0.41 -0.57,-0.39 6.74,-2.59 -7.28,1.01 4.81,-1.26 0.35,-0.99 -3.23,-0.31 1.61,-1.79 4.49,-0.49 -1.12,-0.7 1.39,-1.97 -4.15,0.45 -0.69,0.95 0.76,0.53 -2.73,0.1 -0.07,-1.63 -2.75,0.72 -0.16,-0.72 -2.88,0.43 -0.02,-0.74 -1.33,1.71 -5.84,1.5 -0.88,1.3 0.19,-2.08 -2.24,0.58 0.68,0.93 0.91,-0.37 -0.33,0.58 -5.19,0.86 -6.36,0.12 -0.84,-0.76 -12.63,2.08 -3.45,-0.66 -4.55,1.67 -5.86,-0.1 -1.73,1.56 -2.51,-0.64 -0.45,0.89 -3.6,0.62 -3.65,-3.25 0.29,-1.15 1.08,0.23 -0.83,-0.74 0.22,-2.92 -1.13,2.08 -1.14,-2.39 3.37,-2.9 -1.64,-2.47 -1.52,0.99 1.66,0.93 -2.68,0.41 -1.08,1.52 1.1,1.97 -1.81,5.15 -0.51,-1.32 -2.34,1.73 -1.4,-1.19 -0.61,-2.37 1.14,-2.78 2.75,-2.86 -0.73,-1.67 0.9,-0.31 -0.4,-1.03 -1.19,0.27 -0.08,-3.47 -1.69,-1.27 0.42,-1.5 3.67,-0.58 1.68,2.32 -0.84,-2.24 1.7,-1.05 -0.71,-1.25 0.58,-1.03 0.25,4.37 1.59,1.99 0.36,-1.58 -0.69,0.54 -0.89,-1.75 1.87,-3.57 -2.85,-1.27 -0.69,0.94 -0.01,-1.87 -0.68,0.9 -1.56,-2.22 0.49,-1.79 2.33,-0.92 2.17,-0.45 0.97,0.98 -1.01,-1.64 -2.31,0.1 0.81,-2.01 2.22,0.29 -1.49,-0.9 2.23,-1.37 -3.78,1.52 -0.02,1.5 -1.12,0.18 1,0.27 -0.04,1.29 -1.4,-0.45 -1.48,0.88 -0.44,-1.27 -0.77,0.78 1.48,2.38 -0.82,3.59 -1.01,-0.16 1.83,0.8 0.33,1.74 -5.4,1.03 -2.66,-1.75 1.54,-0.7 1.19,0.66 2.2,-1.36 -2.46,-0.16 -0.25,-1.03 2.27,-1.75 -1.21,-2.13 1.68,-0.12 -0.55,-1.37 -2.27,1.78 1.7,-3.08 -2.66,0.25 1.03,-1.29 -1.84,-0.29 -0.51,0.68 1.22,-0.12 0.01,1.72 -1.05,2.42 -1.42,0.7 -2.01,-1.15 -0.16,0.68 1.87,0.6 -1.84,1.52 -2.02,-0.1 1.7,1.17 -2.65,4.81 -1.76,1.11 0.3,2.69 -4.809998,1.29 -0.05,1.89 -0.49,-2.04 -0.84,0.54 -0.65,-1.29 -2.43,-0.54 -0.43,-2.65 -0.16,2.49 -1.03,-0.8 -0.88,1.42 -0.8,-0.92 -1.23,0.9 0.88,0.37 0.28,3.23 -1.12,-0.6 -0.04,-1.71 -2.74,-0.88 2.3,-1.85 2.33,0.49 -0.41,-2.42 -1.77,0.82 -0.16,-1.23 -1.57,-0.93 0.46,3.04 -0.77,0.49 -0.47,-0.78 -0.48,0.92 -0.62,-2.03 -1.27,0.74 -1.08,-1.03 0.82,-3 h 1.54 l -0.22,-1.93 1.21,-0.82 -0.35,-0.9 -1.82,0.84 0.98,-1.31 -0.69,-1 6.11,-1.81 0.63,-1.05 1.74,1.46 1.44,-2.67 2.59,-1.19 -1,-0.68 -0.7,0.6 -0.02,-0.96 1.84,-1.76 -3.27,1.01 -1.02,-1.05 0.42,-0.98 2.33,-0.2 -0.17,-0.82 -2.95,0.02 -2.36,2.07 -0.63,2.42 -0.07,-1.56 -0.94,-0.25 -0.88,2.91 -1.73,-1.13 -0.5,-3.73 1.82,-1.03 1.4,0.68 -0.48,-0.9 1.45,0.12 -0.61,-0.88 0.66,-0.63 1.21,1.17 1.29,-0.92 -3.74,-1.45 -0.41,2.07 -2.94,1.27 -0.93,-1.17 0.73,-0.76 -1.11,0.2 -1.87,1.87 -0.31,5.27 -2.76,1.85 -1.35,-0.68 -1.06,1.23 1.29,0.92 -0.79,0.43 -2.03,-0.94 1.35,-1.17 -0.63,-0.9 -4.88,0.76 -2.4,-0.92 -0.78,-4.59 -2.89,-1.21 -1.81,-2.19 -0.9,3.5 v -1.29 l -1.53,-0.04 -0.71,1.04 -0.75,-0.9 -1,2.56 -3.46,-3.9 -3.49,2.6 -0.46,-1.19 3.57,-5.68 0.69,-0.02 -0.27,2.27 0.93,0.78 -0.44,-2.34 1.18,-3.34 4.28,1.31 1.2,2.5 0.7,-0.31 -1,-1.52 1.95,1.56 1.9,-3.91 2.53,-0.45 -3.52,-0.63 -1.03,-0.63 1.08,-0.06 -0.52,-0.55 -2.57,0.41 1.23,-1.19 -2.23,-1.31 1.35,-1.23 0.94,-0.33 7.21,4.38 -0.57,-1.78 -1.21,0.43 -1.4,-1.19 2.47,-1.62 -3.16,0.33 -4.41,-2.09 -1.98,0.16 -2.19,-1.33 0.1,-0.63 1.68,0.68 -0.58,-0.86 -2.39,-0.47 -0.31,-1.04 3.86,0.59 -3.59,-1.76 3.24,0.25 4.06,1.92 -1.15,0.53 2.55,0.67 2.23,-0.49 -0.16,-1 -1.06,0.45 -9.45,-2.68 -1.38,-3.86 -3.74,0.61 -2.48,-0.9 1.15,-1.08 -0.23,-1.1 3.1,-1.31 1.29,1.72 0.33,-2.51 1.95,1.55 1.18,-0.63 3.97,1.69 -4.48,-3.94 0.09,-0.69 1.2,0.59 1.84,-0.73 0.94,0.86 2.26,-0.35 1.31,1.43 2.01,-0.92 3.69,0.98 0.37,0.94 -1.06,0.71 1.85,2.51 2.75,-0.24 -1.06,-0.71 1.13,-1.21 1.2,1.29 1.78,-0.39 -2.66,-1.59 -2.42,0.73 -0.03,-1.06 0.96,0.55 0.67,-1.12 1.5,0.55 -0.62,-1.18 1.75,-0.71 -7.1,-1.35 -2.51,-3.08 -0.49,-3.2 3.31,0.75 2.75,-0.86 3.59,2 5.53,0.43 1.61,-1.71 1.69,0.16 -1.19,-0.67 0.21,-0.92 2.95,-0.41 2.99,1.28 -3.66,-2.94 0.9,0.39 0.08,-0.86 v 0 l 10.93,5.83 9.089998,-0.43 3.84,-2.47 2.18,2.33 4.56,-0.94 3.67,1.31 2.4,-2.53 1.62,5.77 3.52,0.69 4.01,3.27 7.06,-0.29 6.86,-1.69 1.64,1.78 -0.48,3.72 2.82,0.86 2.58,-3.29 0.07,1.98 1.68,0.49 1.43,5.7 4.9,3.23 -0.05,3.42 6,1.43 2.92,-2.11 2.71,1.04 2.2,-3.01 1.89,0.2 0.84,-4.21 6.72,-4.27 0.97,-2.45 -2.02,-5.72 4.55,-1.08 -1.21,-2.55 2.01,-1.22 0.75,1.14 1.54,-1.77 -0.75,-2.69 1.32,-1.35 0.29,-3.1 -0.73,-0.57 0.88,-1.77 1.61,-0.12 1.45,-1.45 4.98,3.79 0.14,-1.88 6.6,-0.16 z" />
  <path
     id="IE-KE"
     title="Kildare"
     class="land"
     d="m 412.50859,400.3926 1.01,-3.16 4.72,-2.52 3.27,-5.18 4.84,-2.85 1.9,1.88 3.72,-1.23 0.37,2.09 2.54,2.01 1.18,2.48 7.91,3.06 2.55,-4.02 4.99,-2.21 7.04,3.42 4.5,3.63 9.06,1.43 2.41,-3.42 6.55,4.28 1.38,-1.21 3.19,0.09 v 0 l -2.43,5.02 -1.52,0.68 -1.09,7.52 -2.19,-0.48 -1.61,1.46 0.37,0.72 -1.16,0.93 1.34,1.17 -0.15,2.4 -2.1,1.92 3.52,3.16 1.16,-0.35 -3.26,2.19 0.26,1.13 1.79,-0.11 5.28,2.17 -0.37,0.59 v 0 l -3.95,3.87 1.08,1.8 -2.55,3.56 -2.06,-0.51 -2.12,1.38 -0.2,1.67 2.16,1.4 -3.87,3.18 -0.15,3.24 -4.18,6.07 -1.78,-0.5 -0.52,2.28 -3.62,0.76 -0.43,1.09 -7.9,3.44 -0.64,4.94 -2.26,2.98 -2.39,0.93 1.17,2.07 -2.5,1.8 -0.39,3.01 6.36,8.02 0.06,5.37 v 0 l -1.26,0.58 -0.36,4.38 -1.56,-0.14 -2.94,4.61 -4.11,-1.25 -2.43,2.33 -2.68,-3.14 -0.97,0.29 0.91,2.6 -1.33,0.63 -2.79,-1.88 -2.03,-3.42 -1.03,0.08 -0.79,1.64 v 0 l 0.26,-7.58 -5.12,-12.05 -4.93,2.51 0.19,-1.86 -4.53,-1.14 -3.53,-3.77 2.43,-6.57 2.15,-1.13 -1.33,-1.68 1.32,-1.51 -0.48,-1.92 0.87,-1.22 -1.3,-5.85 -1.8,-1.2 -1.46,-4.04 -1.91,-1.16 1.02,-2.27 -0.75,-2 v 0 l 1.6,0.22 1.47,1.66 0.91,-3.45 -1.95,-1.07 -2.59,0.76 -2.41,-2.47 -4.82,-0.87 2.08,-1.24 5.78,0.93 7.34,-0.74 -0.19,-3.19 3,-2.09 -2.37,-1.71 -1.65,0.48 -2.92,-1.24 -0.02,-0.72 2.56,-0.2 -0.11,-1.63 3.72,-1.93 -1.56,-4.86 4.78,-1.36 -2.33,-2.09 4,-2.27 -1.43,-2.44 -4.09,-1.83 0.14,-2.11 -2.33,-3.04 -1.95,0.63 -3.16,-2.62 z" />
  <path
     id="IE-KK"
     title="Kilkenny"
     class="land"
     d="m 343.46859,516.5726 2.72,-1.59 4.19,-0.1 0.11,-3.41 4.14,-3.75 2.35,3.58 2.7,1 0.05,-1.23 0.92,-0.1 1.34,2.24 1.91,-0.45 2.54,3.03 3.25,-0.6 2.39,-2.89 3.33,1.45 1.19,-4.34 1.91,-2.19 1.48,0.44 0.19,2.79 1.23,-0.17 0.31,-3.16 2.48,-5.87 1.86,-1.08 5.82,3.54 1.9,-3.04 -0.24,-2.64 3.11,0.21 3.14,-3.15 2.96,2.11 0.81,2.1 1.28,-0.79 0.95,1.17 -0.11,4.01 2.46,4.36 2.85,0.27 0.69,1.46 1.82,0.65 1.54,4.32 v 0 l -3.21,3.06 0.39,3.55 -1.94,2 1.39,2.39 -1.95,1.59 3.02,0.02 1.5,3.09 1.95,0.98 1.52,-1.76 3.86,3.68 1.17,3.77 2.05,1.22 -1.06,2.1 0.48,2.78 -0.84,2.01 1.26,1.48 -0.61,1.03 1.61,2.86 2.42,0.76 3.64,4.33 0.28,3.3 -5.01,4.59 2.77,1.91 -0.59,5.2 2.54,4.61 -1.9,1.54 2.1,0.67 v 0 l -1.22,3.88 1.22,2.84 -1.29,1.47 -2.41,-1.03 -1.44,0.69 2.23,1.79 0.1,1.82 -2.73,4.55 -0.12,2.14 -2.41,0.07 -0.79,1.4 0.66,7.42 -3.31,4.99 2.12,3.88 v 0 l -2.65,0.8 -2.27,2.72 -5.82,0.91 -1.28,-2.49 -3.39,-0.61 -3.37,-2 -5.24,6.01 -1.79,0.74 -2.49,-3.55 -2.93,-1.12 -2.41,-5.65 -1.58,-1.13 -0.48,-2.45 -2.19,-2.63 -5.69,-2.4 v 0 l -3,-4.19 1.51,-11.12 -3.15,-2.08 -1.6,-3.22 -4.91,-4.15 5.21,-7.14 -1.29,-1.4 -2.07,1.28 0.18,-1.45 -1.01,-0.73 0.4,-11.1 -2.94,-2.99 0.39,-4.29 -5.22,-7.02 -1.94,-4.74 0.6,-1.34 -2.11,-3.07 -6.73,-3.42 -2.29,-2.56 v 0 l -2.41,0.16 v 0 l -0.3,-2.17 -2.11,-2.18 z" />
  <path
     id="IE-KY"
     title="Kerry"
     class="land"
     d="m 43.628592,715.6326 0.77,0.38 -1.16,1.54 -1.97,-0.09 0.51,-1.32 z m 53.19,-17.99 -2.54,2.32 0.18,-1.39 z m -71.54,-1.67 -1.75,1.54 1.28,-2.09 z m 6.49,-17.23 1.68,0.85 1.21,-1.23 0.47,1.75 3.36,-0.47 -0.2,2.11 -7.5,4.71 -3.04,0.75 -1.32,-1.02 -4.21,2.32 2.23,-6.01 3.79,-0.53 3.03,-2.13 -0.19,-1.77 z m 5.47,-1.25 1.33,0.32 -1.75,0.87 -1.52,-0.85 0.42,-0.92 z m -36.1599999,-20.88 1.49,1.14 -2.47,-1.06 z m 10.9599999,-11.81 1.17,1.21 -0.97,1.65 -7.2199999,4.39 1.36,-2.56 4.4399999,-2.77 z m -6.4299999,-4.27 -0.64,1.69 -1.61,-0.19 2.1,-2.31 z m 140.6099979,-84.17 0.91,1.15 v 0 l 0.4,1.22 1.84,-0.1 -1.21,1.46 0.69,1.09 -0.72,1.49 2.2,2.77 2.86,0.98 0.98,5.05 -2.17,0.44 -0.62,4.03 -2.31,0.11 1.68,5.6 2.59,1.89 -2.53,1.89 -1.47,3 4.02,4.02 -1.12,2.02 -3.11,1.33 -0.49,1.77 3.16,1.96 2.43,3.22 6.7,2.36 2.51,4.24 v 0 l 0.83,1.5 -0.56,1.64 -3.77,0.46 0.17,2.42 -3.02,1.94 -0.3,4.88 2.66,3.7 0.79,5.05 1.6,1.42 -0.7,5.41 1.41,3.73 -0.38,1.25 2.03,2.79 0.13,2.24 3.29,2.03 -0.99,1.8 -1.94,0.66 -1.49,3.9 1.37,5.07 3.23,-0.68 2.06,4.25 3.94,-0.3 0.96,1.98 -1.92,2.42 -2.25,-0.72 -4.33,0.62 -2.17,1.46 -5.04,1.13 -0.87,1.96 -4.9,2.57 0.27,4.04 1.88,1.98 -0.7,1.92 2.04,1.62 -3.18,3.17 0.02,1.36 -2.76,2.75 -0.55,2 -2.25,0.55 -1.33,1.49 -2.99,-0.24 -2.19,2 -3.62,0.11 -1.2,4.57 -1.82,1.19 -7.19,1.39 -2.15,-0.79 -1.6,0.71 -1.2,-0.58 -1.52,1.09 -4.88,-0.34 -4.2,4.31 -1.27,2.9 -6.6,1.63 -4.289998,3.66 0.05,1.41 -3.549998,3.51 -3.64,0.88 -1.38,-1.07 1.07,-4.28 -2.3,-1.09 1.17,-1.69 -2.53,-3.38 v 0 l 1.26,-1.22 -1.17,-1.41 1.21,-2.24 1.24,1.18 -1.31,1.11 3.97,-0.85 -1.14,1.43 2.46,-0.98 0.96,0.13 -1.35,1.26 2.78,-0.71 -0.93,-1.32 0.77,-0.26 -4.46,-1.35 -0.6,-1.09 5.68,-2.54 -0.22,-2.11 3.809998,-2.05 1.48,-2.64 10.35,-2.01 2.32,-2.54 7.19,-2.98 1.77,-2.39 -4.58,2.54 -5.1,1.21 -2.65,-0.89 -10.34,4.43 -0.44,-0.79 -0.85,1.47 -9.159998,3.95 -1.66,2.18 2.02,-1.92 -0.48,1.53 -2.57,1.49 -0.78,-0.3 0.22,-1.39 -2.19,0.45 -0.51,-0.73 -1.65,0.94 0.15,-2.03 -1.26,-2.09 0.37,4.78 -0.75,0.81 -4.79,0.55 -7.49,5.61 -2.74,-0.83 -0.89,1.05 -0.73,-0.49 -1.92,1.28 1.39,-0.23 -0.13,1.17 -5.05,0.77 -0.22,1.43 -2.39,0.64 -0.94,1.33 -1.21,-0.7 3.16,-4.13 -1.08,1.37 -2.52,-0.36 -0.75,-1.33 -1.49,0.83 -4.2,-2.8 -1.74,0.45 -1.01,-0.81 -0.04,-0.77 2.59,0.19 2.33,-1.18 1.08,-3.31 -0.73,-0.7 0.5,-3.54 -3.63,-3.65 -4.86,0.73 -2.95,3.94 -0.16,2.18 1.34,0.64 -2.94,0.83 -0.13,-1.05 -2.19,2.58 -4.07,2.18 -1.36,-2.76 2.31,-1.26 -0.64,-1.62 0.96,-1.68 -0.71,-0.51 0.36,-3.9 -7.24,0.45 1.61,-3.05 -0.85,-0.64 0.36,-1.77 -1.18,-0.92 0.85,-1.58 4.75,0.08 4.61,-2.34 1.82,0.4 2.52,-3.38 2.75,2.66 0.07,-2.21 -1.02,-0.57 0.63,-1.04 -3.09,-1.89 7.68,-5 1.15,0.79 2.39,-2.38 -3.52,0.81 -1.92,1.91 -3.15,0.77 -0.68,-0.96 -1.22,2.28 -1.18,-1.32 0.41,-0.98 -4.69,-0.25 0.34,-1.04 4.2,-2.17 1.88,0.94 0.78,-5.04 3.7,-0.93 1.46,1.49 1.02,-2.74 5.69,-2.55 2.31,-2.27 2.24,0.51 1.34,-0.78 0.77,0.81 3.94,-2.7 4.58,0.3 5.88,-3.16 0.2,-5.04 0.93,-1.61 1.14,-0.06 -1.34,1.25 0.67,2.33 -0.76,0.13 -0.61,2.92 4.63,-4.58 0.35,2.18 1.97,0.28 -2.36,-3.67 3.65,-5.02 0.47,-5.1 0.2,1.61 0.82,-0.38 -0.44,4.4 4.7,-1.42 0.8,0.87 -0.15,-1.57 1.41,-1.18 1.73,0.29 0.72,1.21 0.31,-2.48 3.28,0.66 -1.54,-1.61 0.64,-3.3 -0.9,-1.92 -1.49,2.09 -1.04,-1.5 -17.44,3.53 2.45,1.78 0.8,3.17 1.35,1 -0.7,1.14 -2.11,-1.23 -3.56,-5.95 -7.27,1.2 -5.16,2.75 -1.41,-0.59 -1.92,2.1 -1.89,0.53 -0.99,-0.13 0.82,-1.06 -2.04,-0.68 -4.18,2.82 -1.83,-2.84 -1.49,0.99 -3.14,-0.08 -2.68,-4.11 -1.68,-0.47 -0.1,0.89 -1.47,-0.11 -1.46,1.65 5.35,0.91 0.06,1.71 -3.07,0.64 -3.72,-0.72 -0.36,-1.36 -3.98,-1.82 -2.03,2.45 3.55,2.01 -4.5,0.15 -7.58,1.99 -0.77,-2.03 -2.26,-0.23 2.21,-2.42 -1.26,-1.88 0.57,-2.43 -1.46,-1 1.8,-0.8 0.02,-1.69 2.55,-2.03 -2.08,0.11 0.35,-1.14 -2.06,-0.3 7.49,-5.26 0.56,0.83 -1.33,3.89 3.32,0.42 1.8,1.9 0.68,-2.81 -1.44,-0.87 -0.07,-1.29 2.62,-2.91 -2.11,-1.2 1.05,-2.68 4.44,-0.57 3.09,-1.81 0.83,-2.32 2.82,-0.25 1.97,-2.7 2.82,-0.82 2.02,1.01 0.49,-2.02 3.56,-1.48 2.33,0.46 -0.76,4.6 1.56,0.48 -3.73,5.89 2.5,-1.44 2.41,0.61 0.65,-1.71 5.72,-0.97 5.81,-6.37 0.01,-2.49 -2.59,-2.61 2.6,-0.36 1.08,1.37 1.11,-2.19 1.08,1.24 -1.1,1.33 -0.77,6.58 2.47,3.14 5.23,3.55 3.67,-0.4 3.22,0.93 3.85,-1.24 2.99,-4.07 2.18,-0.59 0.88,0.25 -3.31,1.73 1.54,1.29 2.55,-0.1 2.64,-1.67 2.509998,1.22 -0.18,-0.93 0.85,-0.19 0.61,0.87 -0.3,-1.37 1.52,-0.72 -4.249998,-2.98 -4.32,0.59 -4.29,-1.65 -3.09,1.01 0.09,-1.84 -1.71,-2.36 0.51,-0.97 0.92,-0.27 1.54,1.5 -1.31,1.67 0.3,1.27 1.53,-1.92 2.5,-0.46 1.04,-1.69 -4.16,0.61 -0.54,-0.84 1.75,-1.22 1.42,0.23 0.37,-1.14 1.41,0.5 0.35,-1.85 -1.19,-0.82 -1.52,3.06 -0.35,-0.55 1.76,-4.99 0.18,-8.48 -1,-1.3 -8.43,-1.11 -2.82,-1.47 -1.08,-1.47 0.51,-2.02 4.02,-2.17 5.44,1.22 4.18,-1.39 3.52,-2.33 3.04,-0.53 4.629998,-5.06 4.71,-1.59 1.55,-5.75 -0.79,-2.01 1.07,-0.59 -0.89,-0.61 1.13,-0.27 0.37,-1.4 -1.19,-1.7 5.48,-5.04 1.75,-0.75 7.63,1.25 1.13,1.75 1.25,-1.75 2,-0.13 2.88,2.38 2.75,-0.25 1.63,-2.88 h 6.51 l 1,-1.63 2.76,0.85 z" />
  <path
     id="IE-LD"
     title="Longford"
     class="land"
     d="m 315.11859,311.1726 0.48,2.94 3.31,-0.73 -0.18,1.5 1.84,0.89 -0.78,0.86 1.02,0.75 0.86,-4.85 0.87,0.04 1.85,3.59 1.93,-1.73 3.73,0.67 2.1,-6.08 -0.58,-3.63 2.14,-0.08 1.09,-2.58 1.2,0.75 0.88,-0.65 2.26,-4.13 2.35,-1.17 -0.02,-2.45 2.5,-0.45 2.46,-4.15 3.26,1.28 1.07,-0.43 v 0 l 3.45,4.76 0.59,2.33 0.29,-0.97 1.82,0.38 0.81,2.23 -0.65,2.92 -1.66,-0.43 -1.36,5.74 4.61,-0.59 2.11,-1.85 5.66,1.93 1.34,6.86 -1.13,1.25 1.61,2.07 5.63,2.44 0.63,2.7 v 0 l 2.86,0.76 0.83,1.62 -0.99,5.71 -2.08,0.15 -1.38,1.97 -1.95,-1.95 -3.17,1.01 -0.41,2.69 -1.32,0.12 -2.47,3.01 -2.45,-1.54 0.53,1.75 -1.97,-0.05 -0.72,2.57 0.58,1.97 -1.73,0.13 -0.86,1.12 -2.08,-0.33 -0.72,2.47 0.94,2.36 -3.48,-2.06 -1.75,0.08 -0.43,1.49 4.8,2.12 1.46,4.83 -2.91,-0.4 -2.06,0.91 0.23,2.82 -3.1,1.16 -0.74,2.64 -3.1,3.51 -0.15,4.92 -1.51,0.82 -3.57,-1.55 -1.71,2.08 -2.34,-0.14 -1.6,-1.37 -5.08,-0.62 -2.46,-1.34 -1.86,0.77 -2.7,-1.82 -6.77,1.09 -3.08,3.45 -2.99,0.78 v 0 l -1.38,-5.44 -6.42,-11.33 0.04,-6.73 1.65,-3.2 4.25,-4.23 -0.1,-3.97 2.62,-2.24 1.51,-0.04 0.61,-5.27 3.18,0.73 0.19,-2.36 3.48,-2.35 1.02,-4.09 -3.48,-2.62 z" />
  <path
     id="IE-LH"
     title="Louth"
     class="land"
     d="m 468.90859,269.8326 1.25,-2.12 3.8,0.87 3.03,-1.35 2.3,0.97 1.48,-1.94 2.56,-0.6 -0.87,-1.05 0.56,-1.27 2.44,1.04 1.79,2.85 3.4,-0.97 2.96,0.58 0.74,-1.53 2.08,-0.82 -0.03,-8.21 2.74,-0.08 0.56,3.71 1.46,0.58 2.79,-3.52 1.28,-0.14 2.28,1.99 v 0 l 2.74,4.6 5.49,3.67 1.83,3.55 3.76,2.58 2.21,-1.31 0.43,3.25 2.84,3.39 -4.31,4.13 -2.97,0.5 -9.75,-2.06 -8.39,-5.13 -3.63,0.44 -1.35,-3.81 -0.89,0.36 1.36,3.11 -3.29,0.04 -0.02,0.91 4.71,0.26 0.94,2.02 -2.67,2.69 -0.09,4.06 -1.9,2.43 0.86,1.29 -0.38,4.5 0.99,4.05 4.33,4.68 2.91,-0.15 7.76,3.39 -1.62,2.45 -0.84,7.85 1.67,1.73 3.24,0.83 -2.25,1.91 -1.11,4.29 -1.1,6.32 1.05,1.99 v 0 l -2.94,-1.68 -5.74,2.35 -0.32,2.18 -2.38,0.41 -8.44,-3.85 -2.35,1.16 0.23,0.76 -3.38,0.34 -2.43,-3.33 3.83,-4.94 -0.5,-1.75 -1.66,-1.02 -5.48,0.55 -2.69,-2.26 -1.12,0.09 -0.18,-3.66 -3.22,-1.26 -0.19,-3.85 -2.16,-3.01 0.72,-1.6 -1.23,-2.86 -2.8,-3.53 -3.67,-0.83 -4.25,-3.93 v 0 l 1.32,-2 1.37,0.61 2.85,-1.34 1.6,-2.43 -2.88,-2.27 1.29,-1.39 -1.78,-1.7 1.63,0.67 -1.17,-2.37 2.3,0.16 -0.36,-2 1.65,-0.26 1.12,-1.54 3.69,2.35 2.35,-0.37 0.6,-0.97 -0.7,-0.85 1.31,-1.51 -0.66,-1.76 1.27,-1.29 -1.23,-3.01 -2.1,-1.88 0.59,-0.89 z" />
  <path
     id="IE-LK"
     title="Limerick"
     class="land"
     d="m 217.03859,536.8326 5.8,0.86 3.25,-2.76 3.9,-0.13 v 2.47 l -4.25,2.38 -0.5,3.13 7.75,0.5 1.38,1.25 2.63,-2.25 1.13,-4.13 3.57,-2.17 0.64,-3.43 3.33,-1.54 1.22,-2.34 -0.69,-5.59 3.49,-2.04 v 0 l 1.26,3.63 0.69,8.01 4.11,3.71 2.74,-2.5 2.31,1.75 2.71,0.31 7.44,-3.04 5.15,2.71 -0.02,2.34 1.98,0.4 0.6,1.25 1.61,-1.78 3.29,0.48 -0.84,4.79 -2.02,1.8 -0.74,4.84 0.94,0.44 -0.18,1.83 -2.71,2.94 1.37,1.95 -1.14,1.8 0.99,1.28 -0.76,7.56 -2.8,1.13 -0.54,-1.82 -1.02,0.59 -1.85,-0.92 -1.45,2.3 -2.75,0.76 0.69,2.49 -1.64,2.31 -0.75,-0.67 0.91,-2.41 -1.14,-0.57 0.14,-2.39 -2.69,0.21 -0.65,2.62 -3.26,2.08 0.19,2.6 -1.58,1.38 1.82,6.15 2.81,-2.43 1.65,2.1 3.81,-0.9 0.88,3.74 2.76,0.77 0.39,3.03 5.82,-1.6 0.51,4.29 1.68,3.64 1.28,-0.69 1.22,1.13 3.27,-0.44 -0.24,4.1 -1.52,2.6 2.1,2.29 0.71,3.41 -3.28,2.39 v 0 l -7.29,-1.73 -3.87,1.91 -1.53,-1.39 -2.13,-5.07 -1.94,0.78 -1.25,-1.98 -2.64,1.62 -0.21,1.68 -2.19,0.8 -0.56,2.36 -5.85,0.34 -7.98,2.62 -4.23,-2.15 -1.87,-3.19 -3.18,-0.08 -3.53,-6.01 -1.12,0.26 -0.08,-1.94 -0.77,0.65 -3.27,-1.26 -1.57,-2.69 0.03,-3.77 -7.13,2.63 -5.11,-2.76 -1.7,2.55 -1.19,-2.73 -1.98,0.46 -0.94,2.52 -2.56,0.21 -0.18,2.48 -2.11,1.39 -0.76,-0.79 -1.38,2.96 0.84,1.16 -12.09,3.84 1.14,3.43 -0.59,0.49 -6.17,-5.93 -8.82,-1.93 -3.24,-2.13 -0.46,2 -3.93,2.78 -0.11,1.33 -4.15,1.16 -0.87,1.68 v 0 l -2.51,-4.25 -6.7,-2.36 -2.42,-3.22 -3.17,-1.96 0.49,-1.77 3.12,-1.33 1.12,-2.02 -4.03,-4.03 1.47,-2.99 2.54,-1.89 -2.59,-1.89 -1.68,-5.6 2.31,-0.11 0.61,-4.03 2.17,-0.44 -0.98,-5.05 -2.85,-0.98 -2.21,-2.77 0.72,-1.49 -0.68,-1.09 1.21,-1.46 -1.84,0.1 -0.4,-1.23 v 0 l -0.49,-0.39 4.27,-0.83 3.63,1.38 11.26,-5.38 5.38,-1.38 0.88,-1.13 4.5,-0.12 6.01,-3.75 0.75,2.5 1.13,0.12 0.87,-1.5 2.25,0.13 0.75,1.62 2.51,-1.87 0.12,-2.13 1,-0.38 1.25,-3.62 17.02,-2.51 2.25,3.01 1.26,-2.13 3.12,-0.88 -0.52,-1.11 z" />
  <path
     id="IE-LM"
     title="Leitrim"
     class="land"
     d="m 270.39859,183.4426 1.71,0.34 v 0 l 4.08,3.14 2.06,0.02 1.71,-2.34 5.14,1.72 v 0 l 3.9,2.62 -2.04,2.56 7.9,6.96 3.45,6.88 3.41,2.52 3.95,-0.24 -0.1,1.82 5.98,8.44 v 0 l -6.24,11.04 -4.68,-0.62 -1.54,2.31 -0.37,1.23 2.69,4.64 -1.45,2.71 0.39,2.63 2.87,0.02 1.4,-1.11 2.15,2.27 4.49,0.54 5.48,4.75 1.78,2.27 -0.42,1.35 4.83,3.3 -0.85,1.17 3.28,3 1.28,-0.02 0.47,-1.91 1.9,-1.77 1.25,1.63 3.59,0.54 2.12,2.26 0.53,2.28 3.16,-0.4 2.92,4.5 2.88,1.11 0.41,2.74 1.26,-0.67 1.1,0.93 -1.32,1.86 0.41,1.31 2.94,1.45 0.57,-1.53 1.64,1.27 0.58,4.46 -0.83,2.02 1.97,2.12 -1.5,1.7 0.61,2.29 -2.54,3.78 v 0 l -1.07,0.44 -3.25,-1.29 -2.46,4.15 -2.5,0.45 0.01,2.45 -2.34,1.17 -2.26,4.13 -0.88,0.65 -1.2,-0.75 -1.1,2.59 -2.13,0.08 0.58,3.63 -2.1,6.07 -3.73,-0.67 -1.94,1.73 -1.84,-3.59 -0.88,-0.04 -0.85,4.85 -1.03,-0.75 0.78,-0.87 -1.84,-0.89 0.19,-1.5 -3.31,0.73 -0.48,-2.94 v 0 l -1.13,-2.41 -1.68,0.14 -2.51,-3.63 -1.75,0.35 0.02,-4.94 -1.66,-2.61 -0.13,-3.97 -1.44,0.55 -0.88,-2.61 -1.73,-0.34 -0.37,2.29 -3.83,2.65 -1.21,-2.59 -1.38,0.55 -0.86,-1.9 0.91,-2.37 -1,0.26 -2.5,-2.83 5.4,-6.91 -1.25,-0.65 -1.15,-8.16 1.17,-4.06 0.68,0.5 1.35,-1.13 1.57,-2.82 -0.96,-1.33 0.23,-5.02 -5.8,-1.07 -4.69,-3.12 -2.03,3.1 v 0 l -2.08,-3.65 -0.7,0.38 -1.35,-1.95 -0.81,0.46 -1.32,-0.97 -0.94,-3.04 -3.07,-1.15 -0.93,1.33 -2.5,-0.04 -5.55,-4.23 1.27,-2.98 -3.53,-1.54 1.94,-2.85 -1.67,-17.85 -1.1,-2.23 -3.93,-1.62 -1.1,-7.95 3.79,-2.5 2.68,-9.68 -5.9,-1.58 0.29,1.88 -0.82,0.58 -2.31,0.26 -0.99,-1.36 2.16,-1.88 0.43,-2.54 4.02,-1.3 -1.45,-3.08 v 0 z" />
  <path
     id="IE-LS"
     title="Laois"
     class="land"
     d="m 336.76859,482.6626 3.12,-5.39 -0.99,-0.71 0.42,-3.72 1.59,-3.69 4.75,-2.38 -0.09,-2.28 5.07,-3.74 2.97,-5.39 0.21,-0.93 -3.21,-1.34 0.14,-1.64 -3.9,-4.45 1.61,-5.22 9.65,-1.74 6.33,-2.47 1.07,-1.3 3.04,1.69 3.23,0.11 0.81,-1.3 -0.42,-2.27 2.77,-1.32 1.55,1.03 1.37,-1.36 2.19,1.11 3.17,4.11 2.08,3.5 -1.73,0.15 0.54,2.35 3.1,4.45 4.48,-0.68 0.46,-1.01 2.12,0.7 1.51,-1.9 3.09,-1.34 2.34,-3.63 0.98,3.16 8.34,-0.02 v 0 l 0.75,2 -1.02,2.27 1.91,1.16 1.46,4.04 1.8,1.2 1.3,5.85 -0.87,1.22 0.48,1.92 -1.32,1.51 1.33,1.68 -2.15,1.13 -2.43,6.57 3.53,3.77 4.53,1.14 -0.19,1.86 4.93,-2.51 5.12,12.05 -0.26,7.58 v 0 l 0.95,6.13 -1.82,1.25 0.87,2.54 -1.57,2.31 -1.5,1.27 -8.5,-0.15 -0.86,2.52 -1.96,0.64 v 0 l -1.54,-4.32 -1.82,-0.65 -0.69,-1.46 -2.85,-0.27 -2.46,-4.36 0.11,-4.01 -0.95,-1.17 -1.28,0.79 -0.81,-2.1 -2.96,-2.11 -3.14,3.15 -3.11,-0.21 0.24,2.64 -1.9,3.04 -5.82,-3.54 -1.86,1.08 -2.48,5.87 -0.31,3.16 -1.23,0.17 -0.19,-2.79 -1.48,-0.44 -1.91,2.19 -1.19,4.34 -3.33,-1.45 -2.39,2.89 -3.25,0.6 -2.54,-3.03 -1.91,0.45 -1.34,-2.24 -0.92,0.1 -0.05,1.23 -2.7,-1 -2.35,-3.58 -4.14,3.75 -0.11,3.41 -4.19,0.1 -2.72,1.59 v 0 0 0 l -2.33,-9.04 -2.71,-1.76 -1.82,-3.71 1.69,-1.28 -0.52,-4.62 1.42,-0.56 0.47,-2.36 3.58,-2.23 1.63,-3.83 -4.74,0.1 -3.11,-2.28 z" />
  <path
     id="IE-MH"
     title="Meath"
     class="land"
     d="m 449.88859,295.0626 2.17,0.91 0.99,-0.65 1.95,2.57 2.72,0.22 v 0 l 4.25,3.93 3.67,0.83 2.8,3.53 1.23,2.86 -0.72,1.6 2.16,3.01 0.19,3.85 3.22,1.26 0.18,3.66 1.12,-0.09 2.69,2.26 5.48,-0.55 1.66,1.02 0.5,1.75 -3.83,4.94 2.43,3.33 3.38,-0.34 -0.23,-0.76 2.35,-1.16 8.44,3.85 2.38,-0.41 0.32,-2.18 5.74,-2.35 2.94,1.68 v 0 l 0.91,8.98 2.85,8.44 v 0 l -1.91,0.95 -1.15,-1.24 -2.14,0.61 -1.62,3.37 0.03,3.32 -4.24,2.41 -1.18,1.84 -3.29,0.22 0.15,-1 -1.6,-1.14 -3.49,-1.1 0.22,2 -4.14,2.77 -1.22,4.5 1.33,0.53 1.6,3.02 4.91,2.15 -0.13,1.61 2.6,1.46 0.86,4.09 -1.8,2.64 -0.02,3.58 -4.09,1.68 -2.75,-0.37 -0.97,4.53 -4.15,5.48 v 0 l -3.19,-0.09 -1.38,1.21 -6.55,-4.28 -2.41,3.42 -9.06,-1.43 -4.5,-3.63 -7.04,-3.42 -4.99,2.21 -2.55,4.02 -7.91,-3.06 -1.18,-2.48 -2.54,-2.01 -0.37,-2.09 -3.72,1.23 -1.9,-1.88 -4.84,2.85 -3.27,5.18 -4.72,2.52 -1.01,3.16 v 0 l -7.02,-2.68 0.1,-1.6 -5.66,-3.8 v 0 l -0.22,-1.94 3.86,-1.01 1.12,-2.23 3.61,0.74 6.61,-4.49 -0.46,-5.05 2.8,-1.06 2.31,-4.3 0.52,-4.29 -1.79,-1.92 0.26,-2.6 1.68,-2.02 3.19,0.08 -0.92,-1.69 1.81,-3.57 -0.78,-2.9 3.02,-3.08 0.75,-4.03 -2.04,-0.61 -1.68,-3.67 -1.51,-0.31 -0.89,2.23 -1.77,-0.74 -0.63,1.79 -2.64,0.84 -1.8,2.47 -4.51,-4.55 -1.44,-2.95 -1.81,2.01 -1.59,-2.13 -5.36,-1.35 -1.16,-1.61 -1.06,0.39 -2.9,-3.42 0.67,-3.96 -3.77,-2.79 -2.89,-5.65 -3.2,-2.36 -2.71,-0.3 -0.41,-1.73 v 0 l 3.98,-2.57 2.69,2.74 1.26,3.33 6.98,1.87 0.19,-2.67 2.16,-1.8 2.18,0.65 3.17,-2.18 2.39,2.32 1.92,-0.12 0.9,3.08 7.29,-0.08 5.04,2.12 0.32,-3.03 1.26,1.46 2.83,-3.33 1.74,1.91 1.65,-0.75 -1.15,-0.85 0.54,-2.4 1.7,0.1 1.07,-1.64 -4.49,-5.36 -0.36,-1.85 -1.19,-0.2 -0.89,-4.64 1.81,1.17 3.64,-2.25 -1.1,-3.3 h 1.58 l 4.76,3.51 4.21,-0.83 0.64,-0.79 -0.99,-0.94 2.89,-2.45 1.53,0.29 -0.71,1.33 2.5,1.04 1.26,-4.97 0.44,-0.75 1.26,1.02 z" />
  <path
     id="IE-MN"
     title="Monaghan"
     class="land"
     d="m 384.66859,255.4526 1.47,-0.24 0.09,-0.98 -1.35,-2.68 -1.07,0.12 -1.14,-1.57 3.47,-4.57 2.03,-0.76 1.33,0.96 -0.64,2.7 -1.74,1.55 1.74,1.65 -2.63,1.13 1.1,2.03 2.08,-0.08 0.18,-1.37 1.91,-1.49 -0.37,-1.93 1.17,-2.82 1.98,-1.87 -1.79,-2.72 0.08,-2.17 2.39,-0.32 -0.56,-1.07 -1.35,0.04 0.42,-1.08 1.96,-0.02 0.31,-1.45 2.82,-0.7 1.52,-1.67 2.7,1.33 2.31,-1.03 -0.07,-3.03 -1.03,-1.17 1.39,-2.27 -2.02,-3.51 -1.95,0.1 0.63,-2.15 -4.3,-2.26 1.47,-3.15 1.93,-0.16 0.39,-2.37 -1.09,-3.08 4.06,0.72 3.77,-3.45 1.95,-0.26 -0.76,-2.62 2.85,-2.28 3.73,-6.33 3.03,-1.8 2.69,1.52 0.36,1.25 2.04,-0.44 2.16,1.5 0.74,1.66 3.42,1.92 -0.15,1.24 1.22,-0.52 1.02,0.82 1.05,4.58 2.33,0.76 2.87,6.72 0.33,4.27 -0.95,0.72 0.17,1.55 -0.82,-0.99 -0.79,0.4 0.27,1.15 2.73,3.03 1.21,-0.38 1.25,1.1 1.37,7.01 1.76,0.7 -0.05,1.47 3.06,2.89 2.35,0.25 1.73,2.97 2.28,0.14 2.26,-3.74 4.94,2.17 3.52,7.79 -2.48,5.96 -1.18,-0.24 2.05,5.16 -1.88,0.42 0.42,2.98 -1,2.95 2,0.62 2.85,4.38 2.69,-1.21 v 0 l 2.87,2.24 -0.59,0.89 2.1,1.88 1.23,3.01 -1.27,1.29 0.66,1.76 -1.31,1.51 0.7,0.85 -0.6,0.97 -2.35,0.37 -3.69,-2.35 -1.12,1.54 -1.65,0.26 0.36,2 -2.3,-0.16 1.17,2.37 -1.63,-0.67 1.78,1.7 -1.29,1.39 2.88,2.27 -1.6,2.43 -2.85,1.34 -1.37,-0.61 -1.32,2 v 0 l -2.72,-0.22 -1.95,-2.57 -0.99,0.65 -2.17,-0.91 v 0 l -1.68,-1.97 -6.06,-0.75 -4.17,-10.8 -3.14,-4.66 -3.8,-0.89 -1.8,-3.8 -3.16,-1.51 -1.8,-3.81 -2.35,-0.79 -1.17,-2.62 -1.77,-0.63 0.99,-3.41 -3.6,-0.62 -4.26,3.87 -1.25,-2.04 -2.91,-0.82 -3.78,2.62 -8.15,-3.71 -1.13,0.81 -1.67,-1.03 0.45,1.65 -2.17,0.04 -2.98,-2.4 -3.38,0.04 z" />
  <path
     id="IE-MO"
     title="Mayo"
     class="land"
     d="m 61.858592,335.2226 0.73,0.53 -1.21,0.87 -0.07,1.73 -5.11,1.1 1.32,-3.97 z m 14.61,-19.49 2.3,1.01 -0.75,1.66 -2.69,1.22 -9.32,0.48 0.83,-2.94 5.84,-1.73 1.85,-2.8 z m 0.11,-11.88 2.01,0.69 0.09,1.93 -2.5,-1.5 z m 11.01,-24.14 1.63,2.49 -0.55,1.84 -1.56,0.55 0.57,-1.44 -0.99,-2.43 0.93,0.1 -0.42,-1.62 z m -2.75,-1.07 -0.09,3.07 -0.36,-1.41 -2.46,1.09 -0.77,-2.04 4.18,-1.5 z m -8.32,-4.17 3.97,4.99 -3.48,1.05 0.97,1.66 -0.94,1.74 0.79,1.68 -0.84,2.55 -0.89,0.04 2.48,0.73 -1.17,-1.21 1.71,-1.4 -0.48,-0.93 2.82,0.85 -0.69,4.23 -1.5,0.87 -0.08,0.81 1.92,-0.08 -2.09,1.92 0.96,1.01 -2.81,1.13 1.67,0.38 0.63,2 -1.07,4.8 -2.05,0.04 -3.02,-2.61 -1.54,-1.72 1,-1.28 -2.42,-1.68 -0.41,-1.58 -2.11,1.15 -2.06,-0.47 0.37,-7.28 0.9,-1.01 -3.02,-2.79 -5.47,2.24 -1.31,-2.51 -3.18,1.5 -4.2,-0.77 0.12,1.76 -5.59,-3.58 -2.58,0.83 2.53,-1.43 3.24,0.28 2.59,-3.31 -0.09,-3.47 2.03,1.56 2.85,-0.26 1.7,2 3.65,-0.38 0.48,-1.8 4.23,-3.07 2.26,0.5 1.69,2.22 1.5,-0.99 3,0.65 1.55,-3.37 z m -28.58,-18.67 -3.58,2.16 3.14,-3.67 z m 0.24,-6.08 0.96,0.12 1.88,3.42 -1.73,-0.44 -1.13,1.31 z m 123.409998,-12.21 0.75,1.41 -0.98,-0.08 -1.54,-2.59 -4.29,-1.87 4.71,1.51 z m -99.529998,-19.54 1.97,0.86 -0.43,2.29 2.03,0.36 1.14,3.07 2.23,0.7 2.23,-1.14 0.46,2.11 1.05,0.44 2.45,-1.28 -0.45,2.75 -1.19,2.95 -2.47,1.1 1.18,1.1 -3.88,0.26 0.25,1.27 -1.57,-0.44 -2.13,-5.54 -0.98,0.06 2.45,5.36 -5.96,-0.26 1.24,1.99 -2.58,0.18 2.34,2.37 -0.68,4.08 -2.61,-2.07 -1.82,0.22 1.54,2.9 -0.65,1.73 -2.34,-0.48 -1.19,1.53 -2.24,0.56 0.2,1.11 3.98,1.83 -2.25,1.19 1.05,3.1 -2.13,-0.62 -0.99,2.4 3,0.99 0.66,2.02 -1.33,1.89 -2.26,0.44 -3.85,-1.81 -0.77,-2.34 1.26,-0.5 -0.42,-3.79 0.85,-2.96 1.79,-1.57 1.73,-5.01 -1.05,-4.18 1.7,-2.11 2.16,-0.14 0.93,-3.15 -6.28,-3.21 2.81,-0.04 0.9,1.65 h 1.46 l -1.12,-2.23 -2.61,-0.68 1.63,-0.34 0.68,-2.79 -0.63,-1 3.88,-1.77 0.24,-1.28 2.36,0.48 0.7,-2.07 1.59,0.42 -0.56,-2.23 z m 25.1,-7.13 0.77,-0.28 0.52,1.58 1.889998,-0.66 2.18,2.3 2.06,-0.22 4.26,2.08 1.53,-0.74 1.34,1.48 2.37,-2.21 0.69,0.64 2.09,-0.9 2.13,1.08 4.2,-0.1 0.14,1.6 1.14,0.28 2.3,-1.24 -0.42,1.18 2.02,0.46 1.9,-0.82 0.28,-1.26 1.25,0.82 1.12,-0.5 3.2,2.13 0.56,-0.8 6.4,0.5 0.19,2.31 1.11,0.4 4.22,-4.93 0.09,-1.66 2.51,2.2 6.89,1.58 1.76,2.51 -0.61,5.04 h 1.05 l 0.01,-1.51 h 1.76 l 1.53,-1.75 1.04,2.43 -1.65,5.92 -4.29,2.45 -0.14,1.19 2.04,-1.53 0.83,0.72 1.97,-2.53 2.55,-0.38 -0.35,3.43 -1.05,0.78 0.61,-1.67 -1.95,1.57 v 2.57 l 6.84,2.47 -0.68,1.99 2.5,1.45 0.88,9.72 0.24,-5.41 v 0 l 4.75,3.82 4.47,-0.26 0.61,-2.27 2.21,0.38 0.69,-1.69 3.65,2.54 7.08,1.25 -1.19,0.99 0.35,1.05 3.13,2.9 -2.36,2.5 -2.66,0.66 0.52,2.22 -1.62,1.17 0.4,2.44 -5.11,3.21 -0.93,1.55 -0.14,4.97 4.99,-0.08 1.04,-1.33 2.9,4.3 2.16,-0.02 4.64,-2.56 -0.62,2.81 1.02,3.88 1.7,-0.12 1.46,3.05 6.49,1.94 1.92,-1.84 3.02,-0.59 1.73,-3.6 1.94,1.41 1.4,-0.57 1.12,-2.85 2.72,-1.39 -0.38,-3.53 3.93,-1.8 2.23,2.62 5.26,2.65 -1.19,8.31 1.24,3.09 v 0 l -1.92,-0.67 v 1.23 l -7.92,-4.45 -2.32,2.3 0.83,2.49 1.43,0.38 -1.32,0.61 -0.77,5.14 5.79,3.89 -0.55,1.96 1.62,1.26 -1.52,1.22 0.38,1.58 -1.35,0.47 -3.18,-1.91 -3.23,0.41 1.14,2.45 -0.37,2.09 -2.94,0.57 1.25,3.08 -1.27,1.24 0.72,1.64 -2.81,1.44 6.05,3.07 2.21,3.98 -1.53,1.3 0.12,2.97 -2.01,3.56 0.47,1.83 -2.25,0.29 0.21,2.1 -5.05,2.56 -0.38,1.79 -1.97,0.2 -1.84,-1.12 -2.88,5.4 v 0 l -3.2,2.89 -6.6,0.16 -0.14,1.88 -4.98,-3.79 -1.45,1.45 -1.61,0.12 -0.88,1.77 0.73,0.57 -0.29,3.1 -1.32,1.35 0.75,2.69 -1.54,1.77 -0.75,-1.14 -2.01,1.22 1.21,2.55 -4.55,1.08 2.02,5.72 -0.97,2.45 -6.72,4.27 -0.84,4.21 -1.89,-0.2 -2.2,3.01 -2.71,-1.04 -2.92,2.11 -6,-1.43 0.05,-3.42 -4.9,-3.23 -1.43,-5.7 -1.68,-0.49 -0.07,-1.98 -2.58,3.29 -2.82,-0.86 0.48,-3.72 -1.64,-1.78 -6.86,1.69 -7.06,0.29 -4.01,-3.27 -3.52,-0.69 -1.62,-5.77 -2.4,2.53 -3.67,-1.31 -4.56,0.94 -2.18,-2.33 -3.84,2.47 -9.089998,0.43 -10.93,-5.83 v 0 l -0.73,-1.43 0.7,-0.73 -1.78,-1.37 1.29,-0.67 -4.11,-0.82 -0.34,-0.94 0.84,-3.97 -1.5,-3.85 2.9,-8.1 -0.49,-2.2 -1.1,-0.67 0.43,-1.99 9.66,-1.32 4.63,-2.3 1.28,0.06 0.63,1.36 3.109998,0.28 9.1,-2.72 0.38,1.02 1.98,0.1 -0.05,-1.14 2.59,0.28 0.78,0.61 -1.21,0.79 4.71,-0.45 2.37,-3.07 2.25,-1.08 -2.8,-1.3 -0.79,0.37 1.04,0.75 -6.14,-1.62 -0.92,-0.93 1.88,-0.26 -2.17,-1.08 1.65,-0.28 -0.46,-4.06 4.09,-0.63 -2.3,-0.67 0.88,-0.51 4.42,-0.53 -2.55,-1.16 0.4,-0.69 -3.23,-0.06 2.31,-0.99 -0.65,-1.03 1.13,-0.59 -1.06,-0.24 3.36,-1.03 -2.72,-1.6 -1.66,1.03 0.89,-1.62 -2.48,1.9 -1.04,-1.26 -2.1,0.93 0.89,-1.42 -2.89,0.91 0.23,0.75 -1,-0.85 0.98,-0.91 -0.63,-0.61 -1.44,1.78 -1.29,-1.94 -4.81,0.97 -2.62,-1.21 -0.23,1.5 -3.859998,-2.21 -0.72,0.55 0.83,1.03 -1.78,0.16 -2.08,3.26 -6.26,2.59 -4.34,0.71 -2.36,-1.6 -2.38,-0.14 0.2,-1.26 1.49,-0.12 -0.35,-1.13 0.96,-1.11 -0.68,-4.56 1.73,-0.93 1.71,-3.22 -2.26,-0.08 0.48,-1.98 0.58,0.57 0.56,-0.73 -0.16,-2.53 1.47,1.4 1.15,-1.4 5.25,-0.55 1.08,2.49 1.71,0.49 1.56,-0.91 -0.27,4.75 -1.39,-0.65 1.35,3.32 1.25,0.32 0.42,-7.35 -0.72,0.12 0.22,-2 -1.56,-3.66 -0.35,2.41 -2.35,-0.93 -1.26,1.19 -1.18,-0.89 0.43,-5.42 2.58,1.13 -3.22,-4.87 0.17,2.2 -3.06,-0.99 -0.33,-2.95 -1.53,-0.63 -1.31,-2.28 -0.19,-1.82 1.91,-1.31 -0.48,-3.83 -3.84,1.98 -2.38,-1.01 -2.67,0.85 0.56,-3.97 -2.61,-4.15 5.69,-1.45 1.19,-2.08 1.24,1.41 v -1.11 l 2.77,0.52 -2.06,-1.29 -0.23,-1.77 -1.33,-0.52 -0.57,1.81 -3.14,-3.32 0.22,-2.11 3.24,1.31 0.8,-1.35 -2.48,-1.25 -2.65,-3.3 -2.13,-0.76 1.49,-0.44 2.02,2.11 2.2,-1.59 0.51,-2.45 1.28,1.55 0.06,-2.09 -3.43,-0.76 -0.39,0.84 -4,-3.76 -0.58,-1.91 7.47,2.23 6.1,-1.15 -0.28,-1.65 -1.83,-0.44 1.03,-0.9 4.33,2.11 -3.76,-4.4 1.32,-5.62 5.84,-2.23 1.54,0.96 0.37,-2.97 2.3,1.91 1.73,-0.14 -2.62,-2.49 -2.79,1.22 -3.04,-1.93 -0.65,1.02 0.1,-1.48 -2.02,0.02 0.95,-0.92 -0.62,-1.9 0.68,-1.2 2.13,-0.02 3.32,-3.35 1.77,0.42 0.5,-1.34 z" />
  <path
     id="IE-OY"
     title="Offaly"
     class="land"
     d="m 399.92859,392.3126 5.66,3.8 -0.1,1.6 7.02,2.68 v 0 l -0.48,2.92 3.16,2.62 1.95,-0.63 2.33,3.04 -0.14,2.11 4.09,1.83 1.43,2.44 -4,2.27 2.33,2.09 -4.78,1.36 1.56,4.86 -3.72,1.93 0.11,1.63 -2.56,0.2 0.02,0.72 2.92,1.24 1.65,-0.48 2.37,1.71 -3,2.09 0.19,3.19 -7.34,0.74 -5.78,-0.93 -2.08,1.24 4.82,0.87 2.41,2.47 2.59,-0.76 1.95,1.07 -0.91,3.45 -1.47,-1.66 -1.6,-0.22 v 0 l -8.34,0.02 -0.98,-3.16 -2.34,3.63 -3.09,1.34 -1.51,1.9 -2.12,-0.7 -0.46,1.01 -4.48,0.68 -3.1,-4.45 -0.54,-2.35 1.73,-0.15 -2.08,-3.5 -3.17,-4.11 -2.19,-1.11 -1.37,1.36 -1.55,-1.03 -2.77,1.32 0.42,2.27 -0.81,1.3 -3.23,-0.11 -3.04,-1.69 -1.07,1.3 -6.33,2.47 -9.65,1.74 -1.61,5.22 3.9,4.45 -0.14,1.64 3.21,1.34 -0.21,0.93 -2.97,5.39 -5.07,3.74 0.09,2.28 -4.75,2.38 -1.59,3.69 -0.42,3.72 0.99,0.71 -3.12,5.39 v 0 0 0 0 0 l -5.07,-2.51 -1.67,0.16 -1.6,-1.9 -2.81,1.2 0.1,1.43 -2.3,2.16 -2.16,-0.36 -0.42,2.2 2.45,2.07 -2.56,2.27 0.99,1.24 -4.03,1.99 1.19,1.58 -1.59,1 -2.33,-0.64 0.63,2.49 -1.84,1.35 -1.11,-2.16 -2.46,-1.08 1.52,2.34 0.24,2.73 -2.25,1.89 -0.46,1.74 -2.18,-1.43 -1.11,-2.02 1.19,-2.53 -6.2,-1.83 -0.88,-2.33 0.79,-2.38 -1.5,-2.83 1.08,-2.3 3.61,1.99 2.04,-0.16 2.31,-3.67 -3.69,-7.92 1.71,-1.47 4.95,0.54 -1.49,-3.21 1,-4.23 -0.81,-1.84 2.95,-0.66 1.82,-11.22 -6.8,-5.85 -12.09,-6.21 v 0 l 2.63,-4.41 2.63,-1.3 5.44,0.23 2.47,-4 -0.57,-4.02 -3.82,-3.16 -2.31,-0.34 -0.25,-2.03 -2.96,-1.85 v 0 l 1.06,-2.92 1.63,-1.36 0.67,-5.04 3.25,-0.24 1.66,-2.69 4.16,-0.8 1.13,-3.1 1.8,-1.4 v 0 l 8.76,4.15 3.23,-2.86 0.64,1.07 2.36,-0.43 2.61,1.19 5.85,-2.34 1.72,-1.37 -1.01,-0.4 0.65,-2.35 1.4,-0.31 0.5,-2.03 3.31,-1.87 0.39,-1.29 0.82,0.76 3.51,-2.32 2.04,1.09 0.28,2.19 3.35,0.92 -0.54,1.65 1.65,2.52 0.16,4.35 3.63,5.11 1.1,0.27 -1.01,-1.23 0.62,-2.92 3.9,0.74 -0.15,2.42 2.78,-0.43 1.91,2.51 3.48,-3.27 3.07,0.95 3.58,-1.93 3.11,-4.52 1.78,-0.59 5.83,-6.4 6.66,-1.3 1.05,-2.7 z" />
  <path
     id="IE-RN"
     title="Roscommon"
     class="land"
     d="m 286.53859,257.1126 2.03,-3.1 4.69,3.12 5.8,1.07 -0.23,5.03 0.95,1.32 -1.57,2.82 -1.36,1.13 -0.67,-0.49 -1.17,4.06 1.16,8.16 1.24,0.65 -5.4,6.91 2.5,2.83 1,-0.26 -0.91,2.37 0.87,1.9 1.37,-0.55 1.22,2.58 3.82,-2.64 0.38,-2.3 1.72,0.34 0.88,2.61 1.43,-0.56 0.13,3.98 1.66,2.6 -0.03,4.94 1.75,-0.36 2.51,3.63 1.68,-0.13 1.13,2.4 v 0 l 1.1,8.5 3.48,2.62 -1.02,4.09 -3.48,2.35 -0.19,2.36 -3.18,-0.73 -0.61,5.27 -1.51,0.04 -2.62,2.24 0.1,3.97 -4.25,4.23 -1.65,3.2 -0.04,6.73 6.42,11.33 1.38,5.44 v 0 l 1.59,7.57 -1.25,6.67 1.17,3.4 -1.47,2.09 3.09,1.82 2.17,3.69 1.68,4.46 -1.48,1.35 v 0 l -1.8,1.4 -1.13,3.1 -4.16,0.8 -1.66,2.69 -3.25,0.24 -0.67,5.04 -1.63,1.36 -1.06,2.92 v 0 l -9.14,-1.52 -1.34,0.51 -1.2,-1.58 -2.68,-0.4 -1.93,-3.78 0.68,-5.28 -1.31,-2.48 -1.57,0.61 -2.07,-0.98 0.14,-1.4 -1.64,-1.97 2.01,-5.64 -1.67,-3.24 -2,-0.16 -0.72,-3.67 2.28,-1.21 0.62,-1.54 -5.62,-5.16 1.76,-1.59 -1.16,-1.54 0.78,-1.39 -2.09,-2.76 0.35,-1.78 1.47,-1.06 -1.79,-1.37 0.84,-1.49 -2.56,-4.41 1.14,-1.03 1.25,0.78 0.26,-0.84 -2.68,-2.3 -3.71,0.06 0.04,-1.82 -1.66,-2.29 -3.18,-0.63 0.21,-2.85 -0.99,-1.9 -2.55,0.2 1.52,-1.85 v 0 l 1.6,-0.78 v 0 l 1.68,-0.26 0.49,-2.41 -7.35,-3.81 -3.68,-5.23 2.02,-0.55 -3.1,-2.62 -5.84,0.51 -1.56,-1.08 -4.78,-0.02 -1.2,1.69 -5.96,0.95 -1.07,1.85 0.26,1.71 -2.39,2 -6.93,2.1 -0.71,-1.1 -1.58,1.53 -4.19,-0.37 -2.35,1.42 -2.28,-2.03 v 0 l 2.88,-5.4 1.84,1.12 1.97,-0.2 0.39,-1.79 5.05,-2.55 -0.21,-2.11 2.25,-0.29 -0.47,-1.83 2.01,-3.56 -0.12,-2.98 1.53,-1.3 -2.2,-3.97 -6.06,-3.08 2.81,-1.44 -0.72,-1.63 1.27,-1.25 -1.25,-3.07 2.94,-0.58 0.38,-2.09 -1.15,-2.45 3.23,-0.41 3.19,1.91 1.35,-0.47 -0.38,-1.58 1.51,-1.22 -1.62,-1.27 0.55,-1.95 -5.79,-3.89 0.77,-5.14 1.32,-0.62 -1.43,-0.37 -0.83,-2.49 2.32,-2.3 7.92,4.45 v -1.22 l 1.93,0.67 v 0 l 5.37,-0.6 2.06,2.83 0.13,3.21 4.65,1.34 1.19,1.3 2.02,-0.06 0.15,-1.95 1.52,-0.87 11.61,0.31 -1.45,-4.46 -2.82,-0.04 -5.68,-2.83 4.79,-1.17 -0.63,-3.74 -1.66,-1.56 3.94,-1.77 2.74,1.15 3.34,-1.07 2.14,-7.7 1.72,1.07 2.23,-2.98 2.72,2.82 0.1,-3.49 2.53,-1.85 -0.29,-3.31 4.9,-1.11 2.43,-2.78 z" />
  <path
     id="IE-SO"
     title="Sligo"
     class="land"
     d="m 238.24859,219.1826 -1.02,2.23 -0.94,-0.02 0.1,-3.15 z m 14.75,-32.87 1.2,2 6.86,-2.3 v 0 l 1.45,3.08 -4.02,1.3 -0.43,2.54 -2.16,1.88 0.99,1.36 2.31,-0.26 0.82,-0.58 -0.29,-1.88 5.9,1.58 -2.68,9.68 -3.79,2.5 1.1,7.95 3.93,1.62 1.1,2.23 1.67,17.85 -1.95,2.84 3.56,1.55 -1.27,2.98 5.55,4.23 2.5,0.04 0.93,-1.33 3.07,1.15 0.94,3.04 1.32,0.97 0.81,-0.46 1.35,1.95 0.7,-0.38 2.08,3.65 v 0 l 0.75,1.39 -2.43,2.78 -4.9,1.11 0.29,3.31 -2.53,1.84 -0.1,3.49 -2.72,-2.81 -2.23,2.97 -1.73,-1.07 -2.13,7.71 -3.34,1.07 -2.74,-1.15 -3.94,1.76 1.66,1.56 0.63,3.74 -4.78,1.17 5.68,2.83 2.81,0.04 1.46,4.47 -11.62,-0.32 -1.52,0.87 -0.15,1.96 -2.02,0.06 -1.19,-1.3 -4.65,-1.34 -0.13,-3.2 -2.05,-2.83 -5.38,0.59 v 0 l -1.24,-3.09 1.19,-8.31 -5.26,-2.65 -2.23,-2.62 -3.93,1.8 0.38,3.53 -2.72,1.39 -1.12,2.85 -1.4,0.57 -1.94,-1.41 -1.73,3.6 -3.02,0.59 -1.92,1.84 -6.49,-1.94 -1.46,-3.05 -1.7,0.12 -1.02,-3.88 0.62,-2.81 -4.64,2.56 -2.16,0.02 -2.9,-4.3 -1.04,1.33 -4.99,0.08 0.14,-4.97 0.93,-1.55 5.11,-3.21 -0.4,-2.44 1.62,-1.17 -0.52,-2.22 2.66,-0.66 2.36,-2.5 -3.13,-2.9 -0.35,-1.05 1.19,-0.99 -7.08,-1.25 -3.65,-2.54 -0.69,1.69 -2.21,-0.38 -0.61,2.27 -4.47,0.26 -4.75,-3.82 v 0 l -0.19,-3.12 1.52,-0.58 -0.43,-3.08 2.11,-1.43 -3.03,-0.52 4.64,-1.71 -0.22,-2.11 4.9,-9.58 -0.64,-1.42 0.93,-2.79 14,0.3 2.83,1.54 2.09,2.61 3.24,1.99 1,-0.66 3.42,2.51 3.65,-1.61 3.73,-3.73 0.93,0.38 -0.11,1.79 3.14,1.06 4.96,-1.91 2.36,0.08 4.41,4.86 0.25,2.17 2.3,1.27 0.36,1.53 1.47,-0.02 0.89,3.05 1.05,-0.16 0.2,-1.73 7.75,-0.1 -0.88,-0.26 0.38,-0.8 -2.29,0.16 -0.21,-1.19 -1.12,1.39 -0.4,-1.59 -3.2,-0.8 0.02,-1.47 -3.62,-3.94 -2.52,1 2.08,-4.03 -0.55,-1.71 2.58,0.1 0.26,1.24 2.25,0.38 2.65,-1 3.06,0.66 1.59,-1.18 1.95,1.02 1.19,-0.9 -5.26,-3.95 -5.91,-0.68 v -6.05 l 2.25,3.13 4.16,1.36 1.82,-1.02 -0.63,-1.62 0.79,-0.42 -3.74,-0.62 -1.24,0.8 -0.57,-0.9 1.13,-0.82 -6.22,-1.24 -3.02,1.72 -2.82,0.26 0.08,2.34 -1.82,-0.82 0.91,-2.3 -3.37,-2.34 1.15,-0.92 -1.34,-0.56 1.07,-1.62 3.36,-1.3 2.18,0.36 0.88,-2.18 5.47,-2.46 0.16,-3.64 1.4,0.9 2.27,-0.68 1.19,-1.24 -0.41,-0.98 2.52,-0.96 -2.88,3.3 -3.46,1 1.65,1.84 4.05,-3.74 1.85,-0.3 3.38,-4.7 -0.09,-2.04 -1.81,-1 2.27,-1.62 -0.35,-1.66 1.79,-0.7 z" />
  <path
     id="IE-TA"
     title="Tipperary"
     class="land"
     d="m 331.69859,480.1526 -1.67,0.16 -1.6,-1.9 -2.81,1.2 0.1,1.43 -2.3,2.16 -2.16,-0.36 -0.42,2.2 2.45,2.07 -2.56,2.27 0.99,1.24 -4.03,1.99 1.19,1.58 -1.59,1 -2.33,-0.64 0.63,2.49 -1.84,1.35 -1.11,-2.16 -2.46,-1.08 1.52,2.34 0.24,2.73 -2.25,1.89 -0.46,1.74 -2.18,-1.43 -1.11,-2.02 1.19,-2.53 -6.2,-1.83 -0.88,-2.33 0.79,-2.38 -1.5,-2.83 1.08,-2.3 3.61,1.99 2.04,-0.16 2.31,-3.67 -3.69,-7.92 1.71,-1.47 4.95,0.54 -1.49,-3.21 1,-4.23 -0.81,-1.84 2.95,-0.66 1.82,-11.22 -6.8,-5.85 -12.09,-6.21 v 0 l -5.4,1.57 -3.68,4.7 -1.03,3.76 -5.57,8.78 -5.38,2.34 -1.57,7.3 -2.58,2.05 -1.87,4.71 v 0 l 0.67,1.47 2.7,0.74 0.31,1.06 -6.52,10.18 -6.05,-0.35 -1.62,0.71 -1.63,7.47 -4.16,5.05 1.61,10.53 -4.47,6.68 v 0 l 1.26,3.63 0.69,8.01 4.11,3.71 2.74,-2.5 2.31,1.75 2.71,0.31 7.44,-3.04 5.15,2.71 -0.02,2.34 1.98,0.4 0.6,1.25 1.61,-1.78 3.29,0.48 -0.84,4.79 -2.02,1.8 -0.74,4.84 0.94,0.44 -0.18,1.83 -2.71,2.94 1.37,1.95 -1.14,1.8 0.99,1.28 -0.76,7.56 -2.8,1.13 -0.54,-1.82 -1.02,0.59 -1.85,-0.92 -1.45,2.3 -2.75,0.76 0.69,2.49 -1.64,2.31 -0.75,-0.67 0.91,-2.41 -1.14,-0.57 0.14,-2.39 -2.69,0.21 -0.65,2.62 -3.26,2.08 0.19,2.6 -1.58,1.38 1.82,6.15 2.81,-2.43 1.65,2.1 3.81,-0.9 0.88,3.74 2.76,0.77 0.39,3.03 5.82,-1.6 0.51,4.29 1.68,3.64 1.28,-0.69 1.22,1.13 3.27,-0.44 -0.24,4.1 -1.52,2.6 2.1,2.29 0.71,3.41 -3.28,2.39 v 0 l 0.82,2.46 1.61,-0.21 -0.71,1.96 1.26,4.62 6.56,2.22 -0.16,4.6 v 0 l 9.54,-0.61 2.57,1.14 1.4,-1.2 -0.11,-6.04 1.73,0.93 0.29,-0.97 3.22,-0.59 3.55,3.44 9.39,0.44 2.46,2.79 1.55,-1.77 6.06,0.63 -0.87,-7.29 -1.28,-3.08 -2.22,-1.35 -1.41,-4.11 1.26,-8.32 4.19,0.19 3.27,-1.51 1.57,1.41 5.54,-3.22 7.68,-0.8 20.04,3.26 3.17,2.44 2.99,-1.7 v 0 l -3,-4.19 1.51,-11.12 -3.15,-2.08 -1.6,-3.22 -4.91,-4.15 5.21,-7.14 -1.29,-1.4 -2.07,1.28 0.18,-1.45 -1.01,-0.73 0.4,-11.1 -2.94,-2.99 0.39,-4.29 -5.22,-7.02 -1.94,-4.74 0.6,-1.34 -2.11,-3.07 -6.73,-3.42 -2.29,-2.56 v 0 l -2.41,0.16 v 0 l -0.3,-2.17 -2.11,-2.18 -0.65,-5.08 v 0 l -2.33,-9.04 -2.71,-1.76 -1.82,-3.71 1.69,-1.28 -0.52,-4.62 1.42,-0.56 0.47,-2.36 3.58,-2.23 1.63,-3.83 -4.74,0.1 -3.11,-2.28 -0.26,-2.34 z" />
  <path
     id="IE-WD"
     title="Waterford"
     class="land"
     d="m 293.32859,626.4626 9.54,-0.61 2.57,1.14 1.4,-1.2 -0.11,-6.04 1.73,0.93 0.29,-0.97 3.22,-0.59 3.55,3.44 9.39,0.44 2.46,2.79 1.55,-1.77 6.06,0.63 -0.87,-7.29 -1.28,-3.08 -2.22,-1.35 -1.41,-4.11 1.26,-8.32 4.19,0.19 3.27,-1.51 1.57,1.41 5.54,-3.22 7.68,-0.8 20.04,3.26 3.17,2.44 2.99,-1.7 v 0 l 5.69,2.4 2.19,2.63 0.48,2.45 1.58,1.13 2.41,5.65 2.93,1.12 2.49,3.55 1.79,-0.74 5.24,-6.01 3.37,2 3.39,0.61 1.28,2.49 5.82,-0.91 2.27,-2.72 2.65,-0.8 v 0 l 1.6,1.03 -0.64,3.02 2.27,2.22 v 0 l -0.06,6.46 -1.49,3.57 1.38,1.98 2.43,0.05 -2.35,1.22 -3.35,5.82 -4,1.67 -2.68,-1.48 -5.86,2.35 2.48,-4.8 2.48,-1.4 -1.46,0.02 0.35,-1.16 -1.06,0.97 -2.46,-1.65 -1.94,0.05 0.77,2.79 2.8,0.76 -6.78,-1.59 -2.54,4.28 -1.68,0.46 -3.93,0.44 -8.51,-1.77 -1.71,1.65 -1.6,-1.1 -4.9,-0.19 -3.73,2.01 -5.59,0.17 -1.82,1.42 -0.3,-0.68 -3.75,3.81 -2.74,-0.38 -2.79,1.44 -1.5,3.9 -4.52,-3.73 -3.7,2.96 -1.29,-0.21 0.69,3.1 -2.12,0.51 0.69,0.74 4.06,-0.62 -0.61,-3.88 0.86,4.29 1.75,1.8 6.13,-0.62 -4.47,3.72 -1.58,8.42 -6.21,2.89 -6.44,0.62 -3,3.78 1.5,1.36 -0.31,1.17 -4.77,0.13 -2.59,-2.15 -5.03,2.51 -1.31,-0.45 -0.35,-2.36 -0.94,-0.25 v 0 l -1.6,-4.74 -2.29,0.95 -5.27,-0.4 -1.4,-6.45 -3.94,-3.23 0.48,-1.98 -3.12,0.18 -4.3,-3.34 0.83,-4.02 -1.65,-5.68 -1.29,-0.45 -0.53,-1.52 -2.61,-0.59 -1.75,-2.35 0.58,-1.08 1.44,2.26 -0.14,-3.45 -3.07,1.31 -0.68,-1.65 -1.51,-0.38 -5.92,0.81 1.07,-4.3 2.9,-0.61 1.28,-5.56 -0.91,-0.55 z" />
  <path
     id="IE-WH"
     title="Westmeath"
     class="land"
     d="m 382.19859,318.5526 0.41,1.73 2.71,0.3 3.2,2.36 2.89,5.65 3.77,2.79 -0.67,3.96 2.9,3.42 1.06,-0.39 1.16,1.61 5.36,1.35 1.59,2.13 1.81,-2.01 1.44,2.95 4.51,4.55 1.8,-2.47 2.64,-0.84 0.63,-1.79 1.77,0.74 0.89,-2.23 1.51,0.31 1.68,3.67 2.04,0.61 -0.75,4.03 -3.02,3.08 0.78,2.9 -1.81,3.57 0.92,1.69 -3.19,-0.08 -1.68,2.02 -0.26,2.6 1.79,1.92 -0.52,4.29 -2.31,4.3 -2.8,1.06 0.46,5.05 -6.61,4.49 -3.61,-0.74 -1.12,2.23 -3.86,1.01 0.22,1.94 v 0 l -2.36,0.58 -1.05,2.7 -6.66,1.3 -5.83,6.4 -1.78,0.59 -3.11,4.52 -3.58,1.93 -3.07,-0.95 -3.48,3.27 -1.91,-2.51 -2.78,0.43 0.15,-2.42 -3.9,-0.74 -0.62,2.92 1.01,1.23 -1.1,-0.27 -3.63,-5.11 -0.16,-4.35 -1.65,-2.52 0.54,-1.65 -3.35,-0.92 -0.28,-2.19 -2.04,-1.09 -3.51,2.32 -0.82,-0.76 -0.39,1.29 -3.31,1.87 -0.5,2.03 -1.4,0.31 -0.65,2.35 1.01,0.4 -1.72,1.37 -5.85,2.34 -2.61,-1.19 -2.36,0.43 -0.64,-1.07 -3.23,2.86 -8.76,-4.15 v 0 l 1.48,-1.35 -1.68,-4.46 -2.17,-3.69 -3.09,-1.82 1.47,-2.09 -1.17,-3.4 1.25,-6.67 -1.59,-7.57 v 0 l 2.99,-0.78 3.08,-3.45 6.77,-1.09 2.7,1.82 1.86,-0.77 2.46,1.34 5.08,0.62 1.6,1.37 2.34,0.14 1.71,-2.08 3.57,1.55 1.51,-0.82 0.15,-4.92 3.1,-3.51 0.74,-2.64 3.1,-1.16 -0.23,-2.82 2.06,-0.91 2.91,0.4 -1.46,-4.83 -4.8,-2.12 0.43,-1.49 1.75,-0.08 3.48,2.06 -0.94,-2.36 0.72,-2.47 2.08,0.33 0.86,-1.12 1.73,-0.13 -0.58,-1.97 0.72,-2.57 1.97,0.05 -0.53,-1.75 2.45,1.54 2.47,-3.01 1.32,-0.12 0.41,-2.69 3.17,-1.01 1.95,1.95 1.38,-1.97 2.08,-0.15 0.99,-5.71 -0.83,-1.62 -2.86,-0.76 v 0 z" />
  <path
     id="IE-WX"
     title="Wexford"
     class="land"
     d="m 467.25859,529.9926 1.74,0.52 0.76,1.61 1.96,-0.65 1.26,4.45 0.96,-0.79 4.18,0.02 2.57,-1.96 0.44,0.67 2.58,-4.32 4.67,-3.92 0.16,-3.88 1.8,-0.19 0.36,-4.1 1.81,-1.91 1.01,0.35 2.95,-1.81 2.72,1.02 0.89,-1.23 1.71,-0.13 2.79,2.77 4.74,-2.21 1.49,3.08 1.61,-0.23 0.73,1.15 0.91,-0.88 1.9,1.62 3.2,0.46 -0.82,2.27 0.93,1.02 -1.74,0.37 5.11,2.19 v 0 l -2.13,3.9 -3.27,3.01 -3.83,8.5 -1.27,0.88 0.25,5.33 2.04,3.95 -0.12,2.82 1.8,5.23 -2.3,5.49 -2.08,1.76 -10.28,17.06 -3.5,4.01 -1.62,5.63 1.18,6.8 -2.51,0.48 0.44,-0.97 -1.35,-1.22 -5.95,-0.15 -3.16,2.88 1.83,2.65 0.06,3.79 3.8,1.62 0.72,2.26 0.9,-0.21 0.21,-2.82 1.22,-1.37 -0.35,4.79 2.18,5.4 1.42,0.76 2.89,-0.55 2.25,2.68 -3.33,5.19 -0.93,2.71 0.59,1.99 -1.82,2.92 -6.53,-2.47 -8.98,-0.99 -11.64,4.1 -1.66,-2.96 -4.32,-3.09 -7.24,-2.58 2.62,-0.06 6.38,2.54 -1.98,-1.18 -0.36,-2.58 -0.14,1.77 -6.47,-0.95 -9.31,2.56 -2.37,-2.53 1.17,-0.99 0.2,2.15 0.76,-0.36 0.44,-2.79 3.75,-3.69 -0.69,-2.83 -1.95,3.46 -3.1,-0.17 0.87,1.04 -2.73,2.24 -1.12,0.36 -0.89,-1.52 0.72,2.53 -3,2.85 3.58,-1.6 0.68,0.84 0.3,-0.82 0.99,0.38 -3.46,4.1 1.9,-0.13 -1.37,1.82 0.83,1.52 -2.23,0.02 -4.01,2.3 -2.59,2.84 -0.78,3.03 -2.31,1.55 -0.5,-1.63 3.96,-5.57 v -2.58 l -1.54,-3.25 0.96,-1.56 -2.17,-3.42 -1.74,-0.57 -1.84,-4.14 -2.01,0.13 v 0 l -2.27,-2.22 0.64,-3.02 -1.6,-1.03 v 0 l -2.12,-3.88 3.31,-4.99 -0.66,-7.43 0.79,-1.39 2.42,-0.08 0.12,-2.13 2.73,-4.56 -0.1,-1.81 -2.23,-1.79 1.45,-0.69 2.4,1.03 1.29,-1.47 -1.22,-2.84 1.22,-3.88 v 0 l 2.57,0.02 3.56,-2.81 3.64,-7.61 -0.44,-2.35 2.57,-2.33 1.19,-4.02 1.82,-0.25 1.08,-2.76 0.5,-8.22 4.48,-3.74 7.17,0.79 2.67,-4.6 -0.47,-1.07 -1.98,0.65 0.2,-2.92 1.24,-1.36 1.91,-0.29 z" />
  <path
     id="IE-WW"
     title="Wicklow"
     class="land"
     d="m 483.47859,429.0826 1.32,1.47 1.27,-0.87 3.75,0.12 2.1,3.92 3.47,-0.93 -0.13,4.43 4.54,2.74 2.63,-3.17 0.24,-5.13 0.95,-0.7 7,4.34 3.65,-1.58 0.27,-1.24 2.98,-0.58 2.31,3.16 3.06,0.84 3.99,-2.45 v 0 l 2.99,4.1 0.61,6.37 3.82,8.13 0.74,8.95 -1.62,7.26 0.13,7.41 0.95,1.95 2.25,1.99 1.26,-0.02 0.92,1.76 -1.69,2.38 -0.78,4.92 -1.9,1.89 -0.2,3.3 -2.06,2.88 -0.73,3.54 0.7,1.58 -4.91,3.13 -4.48,7.89 -0.88,3.75 0.1,3.47 0.92,0.9 -1.08,2.88 0.7,1.48 v 0 l -5.11,-2.19 1.74,-0.36 -0.94,-1.02 0.82,-2.27 -3.2,-0.46 -1.9,-1.62 -0.91,0.89 -0.73,-1.16 -1.61,0.23 -1.5,-3.08 -4.73,2.22 -2.79,-2.77 -1.72,0.13 -0.88,1.23 -2.72,-1.02 -2.95,1.81 -1.02,-0.35 -1.8,1.91 -0.37,4.1 -1.79,0.19 -0.17,3.88 -4.66,3.92 -2.58,4.32 -0.44,-0.67 -2.57,1.96 -4.18,-0.02 -0.95,0.79 -1.26,-4.46 -1.96,0.66 -0.76,-1.62 -1.74,-0.52 v 0 l -4.58,-6.55 1,-1.46 -1.19,-2.73 -2.76,-2.52 -2.07,1.29 -1.47,-0.77 1.11,-5.16 3.79,-2.79 -0.42,-2.08 1.03,-0.91 4.23,2.6 1.17,2.62 1.38,-0.36 1.7,1.11 2.08,0.23 1.21,-1.63 -0.45,-0.73 2.01,-1.02 2.79,0.23 -0.51,-8.9 2.24,-0.49 0.08,-2.25 -3.06,-1.99 -1.76,2.72 -2.09,-1.12 -2.19,0.41 -0.69,-3.42 -5.28,-1.23 -1.08,1.31 -1.74,-2.16 -2.89,0.87 -3.04,-2.66 -3.01,0.48 v 0 l -0.06,-5.37 -6.36,-8.02 0.39,-3.01 2.5,-1.8 -1.17,-2.07 2.39,-0.93 2.26,-2.98 0.64,-4.94 7.9,-3.44 0.43,-1.09 3.62,-0.76 0.52,-2.28 1.78,0.5 4.18,-6.07 0.15,-3.24 3.87,-3.18 -2.16,-1.4 0.2,-1.67 2.12,-1.38 2.06,0.51 2.55,-3.56 -1.08,-1.8 z" />
     <g id="stadiums" data-country="ireland" data-circle-radius="6"></g>
</svg>
