<?xml version="1.0"?>
    
<!--********* Copyright (c) 2024 Pareto Softare, LLC DBA Simplemaps.com ***************************************
************* Free for Commercial Use, full terms at  https://simplemaps.com/resources/svg-license ************
************* Attribution is appreciated! https://simplemaps.com *******************************************-->

<svg baseprofile="tiny" fill="#6f9c76" height="1000" stroke="#ffffff" stroke-linecap="round" stroke-linejoin="round" stroke-width=".5" version="1.2" viewbox="0 0 1000 1000" width="1000" xmlns="http://www.w3.org/2000/svg">
 <g id="features">
  <path d="M635.8 121.8l-2.6 1-1.2 1.5-1.1 1.7-1.1 1.3-8.8 1.3-1.6 1.3-1.4 1.6-3.9 6.1 0.6 2.1-0.4 0.4-0.7 0.2-0.6 1.7 0.8 6.1-0.2 2-0.9 1.7-0.2 0.3-2.8 1.1-1.1 1.5-0.5 2.8 0.6 6.1 0 2.5-1.4 5.1-2.2 4.2-10 12.5-0.9 3.2-0.2 5.9 0.4 1.8 0.8 0.8 0 0.5-1.8 0.8-1.5-0.1-2.5-1.4-4.2 1.3-4.7-1.4-2.4 1.5-4.8 4.7-4.7 2.7-4.7 0.4-4.5-2.4-3.9-3.5-1.9-0.1-4.7 4.8-6.8 3.4 2.2 1.9 0.9 0.5-1.1 3.6 1.1 2.4 2.3 1.5 2.4 0.7 1.1 0.7 1.4 3 1.1 1.2 1.1 0.1 2.2-1.7 1-0.3 1.9 1.1 4.4 4 2.2 0.8 2.3-1.1 2.1-1.6 1.5 0.4 0.3 4.6 0 0.2-5.7 1.9-13.6 13.1-5.3 2-5.4-0.2-10.4-2.4-2.9 3.2-2.8 4.2-1.7 3.4-0.7 1-1.6 1.5-3.3 2-7.3 2.2-2.5 1.4-0.8 0.4 1.8 1.6 0.4 1.8 0.3 2 1.3 1.9 3.3 3.7 5.8 8.2 3.2 3.4 3.5 1.9 4 0 2.9 7.4 1.8 3.4 2.4 2.6 1.2 0.5 1 0.4 5.4 0.9 2 1.5 1 3.8 0.5 10.3 1.8 3.7 2.7 1.6 7.5 1.1 8.2-0.6 2.5 0.5 9.9 7.4 0.9 1.5 0.2 2.1 0.5 2 1.6 1.2 14.7 3.4 2.9-0.6 5.7-4.5 3.4 0.3-1.5 2 0.5 0.4 1.3-0.2 1.2 0.3 1 2.1 0.3 1 0.6 0.1 2-0.5 6.7 2.3 1.4-0.1 0.8-0.1-3.1-6.6 0-1.6 1-1.2 4.2-2.5 0.4 0.6-0.4 1.7-0.2 2.1 0.1 2.7-0.2 2.1 0.5 1 1.9-1 1.3-1.4 1-2.1 0.3-2.4-0.6-2.3 2.7-1.4-0.2-1.2-1.2-1.1-0.7-1 0.8-2.3 0.8-1.5 1.2-1.2 1.5-1.2 7.6-2 2.9-1.9-0.9-3.9 1.9-2.7-4.9-4.1 0.9-3.3-4.6-2.3-0.4-2.5 0.7-0.2 1 0.3 0.8-0.9 0.1 0 1.1-2.2 0-0.1-0.4-0.4-0.5-1.2-0.4-1.4 0.2-1.1 0.4-0.3 0.6-0.3 2.4 0.5 1.1 0 4.5-3.5 6.7-10.6 4-3.9 4.3-0.4 4.7 2.3 8.5 7.2 0.9 1.6 1.3 4 1.1 0.7 1.6 0.1 0.9 0.9 1.3 3.7 1.6 4.4 0.3 3.4-1.1 2.4-2.4 1.3 4.8 2.5 1.3 1.4 0.6 2 0.5 2.3 0.8 2.4 2.2 3.7 2.7 3.2 2.9 2.5 3 1.9 1.7 0.1 1.1-1.2 1-1.5 1.5-0.9 1.6 0.2 1.5 0.9 2.9 2.5 2 2.3 1.1 1.4 0.8 4.2-1.3 4.2-3.1 4 1.4 2.7-0.1 2.7-2.2 5.5 2.1 1.7 3.7 4.5 2 1.1 0.7-0.5 0.8-1.2 0.7-1 0.7-0.8 1.1-0.3 2.1 0.9 1.1 0.2 11.7-4.4 3.8-0.2 0.1 0.4 0.5 1 0.9 1 0.8 0.7 1 0 3.5-1.3 3.3-0.6 0.8-0.8 0.6-2-0.1-1.9-0.2-1.8 0.2-1.5 1.8-3.1 1.1 0.2 1.1 1.6 1.6 1.2 1.8-0.4 2-1 2-0.3 2.1 1.7 8.6 8.5 2.1 1.1 1 0.7 2 3.3 0.8 0.8 3 0.3 1.1 0.4 1.1 0.7 2.6 3.9-0.5 2.9-4.5 5.4-2.3 0.9-3.5-1.3-3.2-2-1.9-1.6-1.9 0.3-9.6-4.2-7.3-0.9 0 1.7 1.7 1.2-0.9 2.2-1.7 3-0.9 3.9-0.7 6.9-0.1 4.2 0.8 4.1 3 4.2 4.6 2.4 10.2 1.4 0 1.7-1.5 4.2-0.1 4.1 1.4 3.5 3 2.5-2.8 3.2-0.7 6.2 0.4 6.1 0.6 10.2 0.7 3.4 0.9 3.3 0.9 2.5 1.4 1.2 2 1.5 1.5 1 2.4 5.6 3.8 2.6 4.1 2 2.7 2 1.1 2.1 1 3.1 0.3 3.5-0.9 3.2-2.3 3.7-0.6 1.5-0.4 1.9-1 1.9-1.6 4.2-1.2 1.7-1-2.3-2.4-0.4-2.8 1-2.2 1.7 8.8 4.3 0.7 2.6 0.4 2.7 1.3 1.6-0.5 0.7-0.9 1.7-0.4 0.8 2.2 1.1 5.6 0.4 2.5 1.6-1.5 4.1-1.7 0.2-1.9-1.7-1.9-1-0.6-0.5-1.7-2.3-0.5-0.5-1.3 0.3-2.4 1.1-1 0.3-8 6.3-0.4 2.5 0.9 1.9 3.2 3.4 2.7 4.1 1.8 1.6 3.9 0.9 1.4 1.2 1 0.2 1.7 0.9 0 1.8-0.7 1.9-0.5 0.9-0.1 5.1 0.2 3.2 0.8 3.3 1.4 2.5 0.1 0 1.6 2 0.8 2.5-1 4.2 1.8 2.7 4.8 9.9-0.3 0.9-0.1 0.1-0.1 0-0.5 0.4 0.7 3.8-0.2 5.5-0.8 5.4-1.1 3.5-0.6 3.6 1.8 3.6 5.8 6.6 0.4 1.7-1.8 0.8-0.7 0.9-1.4 4.3-0.7 1-1.5 1.6-4.6 10.8 1 1.7-5.9 5.7-1.6 2.1-1.5 3.3-3.3 10.8 0.8 5-0.4 1.1-2.4 5.6-6.4 11.5-0.8 4.2 0.2 3.4 1.4 6.5 0.4 3.4-0.4 9.7-1.8 3.9-8.3 13.9-2.5 3-2.3 1.3-2.1 3-3.2 5.7-1.3 3.5-0.1 4.2 0.3 3.9-0.3 3-0.9-1.7-1.1-1.1-1.2-0.5-8 0.7-2.9-0.9 0.8-4.1-1.2 0.5-1.2 0.7-1.1 0.8-1.1 1.1 0 1.4 2.1 0.8 1.9 1.7 1.6 2.5 1 3-0.9 2.3 4.3 1 1.3 1.8 0.7 2.4 1.7-2 3.3-5.5 0 1.4-2.3 4.7 2.7 5.1 7.1 7.2-3.9 9.7-1.8 2.5-1.4 1.4-1 0.4-1.3-0.3-1.7-1.3 0.3-1.2 1-1 1.2-2.8-0.2-1-1.6-0.2-0.8 0.5-1.2 1.7-1.7 1.4-0.2 0.5-0.4 0.2-6 0 0-1.3 2.8 0-1.9-1.7-1.4 0-2.3 1.7-6.6 1.3-5.8 3.5-2.4-0.3-3.6-3.9-2.5-1.3-10.2-3.1-9.7 1.5-2.6-0.7 0-1.7 2.1-0.9 1.9-1.9 1.4-2.9 0.3-3.4-1.7 2.3-2.3 2.3-2.7 1.2-2.7-1.2-0.9 1.4 0.1 1.8 0.2 0.7 0 0.7-0.3 1.6 1.5-1 0.4-0.7 0.9 0-0.5 3.3-0.4 1.3-1 1.4 0.9 0.1 1-0.1 0 1.7-0.5 0.1-0.9-0.1-0.5 0 1 1.5-9.9 6.1-1.4 1.5-1.5 2.8-1.9 1.9-2.3-1.4 1.2-2.8 1.7-1.5 1.7-1.1 1.6-1.7 0-2.2-2.4-9.1-0.8-1.5-1.3-2.1-1.6-1.8-1.5-0.8-1.5-1.5-2-7-1.8-2.4 0.4 2.6 0.4 2.4 0.2 1.2 0.1 2.2 0.4 1.1 1.9 3.7 0.5 2.2-1.8 5.6 0.3 2.2 3.4-0.1 0 1.5-2.2 1.8-3.9 5.5-2.4 1.9-3.1 0.7-6.2 0.2-2.9 0.8 0.8-2.5 3.9-5.3-3-1.4-1.7-0.2-1.9 0.2 0 1.4 0.7 0.6 0.4 0.7 0.3 0.8 0.5 0.9-1.4-0.2-1.8-1-1.1-0.3-1.7 0.6-0.9 1.3-0.6 1.5-0.9 1.2-2.8 1.3-2.5 0-5.2-1.3-26.4 2.8-9.4 5.2-5.1 1.2-0.7 0.5-0.5 1.2-0.7 1.1-1.4 0.2-0.9-0.8-0.6-1.6-0.4-1.5-0.5-0.7-2.3 0.8-2.7 1.9-1.6 3 0.5 3.6 1.3-1.7 2.1-0.3 2.6 0.7 4 1.9 1.1 0.2 0.2 0.9-0.8 2.8-4.4 3.2-0.5 6.7-0.5 1.6-1.1 0.5-1.4 0.2-1.1 0.9-2.6 1.6-7.3-0.8-2.9 1.5-1.1 3.1 0 2.3-0.8 1.1-14.6-2-0.4-0.9-0.2-2.1-0.6-2-1.6-0.9-0.2 0.6-0.2 0.5-0.2 5.3-0.3 1.9-1.8 2.9-2 2.4-2.3 1.4-2.9 0.2 4 3.8 1.7 0.6-1.5 2.2-3.1 1.4-5.7 1.3-7.2 3.2-2.1 2.7 2.6 3-2.2 1.3-10.4 2.2-5.2 2.1-8.7 0.8-3.8-0.3-1.5 0.1-1.4-0.2-0.6-0.7 0.3-1.6 1-1.2 1.2-0.7 1.2-0.4-0.3-0.8-0.6-2.1 2-0.4 1.9-0.8 1.8-1.3 1.8-2.1-0.9-0.4-0.7-0.6-0.8-0.4-1.4-0.1 1.1-2.9 0.6-0.9 1.2-0.7-0.7-2-0.9-0.5-1.1 0.8-1.2 1.7-1.8-1.3-2.8-0.6-5.6 0.2 0-1.4-1.2-1.1-2.3 0.5-2.6 1.2-2.5 0.8-5.7-0.3-2.8 0.3-2.8 1.7 4.6 1.7 5.7 0.8 3.5 2.6-2.5 7 5.1-0.5 1.6 0.5 0 1.4-0.9 0 0 1.6 1.2 1.1 0.6 0.3-2 0.5-0.9 0.5-0.9 0.7 4.8 0-2.4 3.7-0.4 0.8 0.2 1.2 0.5 1.1 0.4 1.3-0.7 1.7-4.5 5.1-1.5 2.4-3.7 2-5.1 1.3-1.7 1.2-1.8 2.6-0.9-2.5-1.9-1.9-2.2-0.9-1.7 0.6 2 1.6 0.7 2.5-0.6 2.5-2.1 1.2-1-4.5-2.9-1.6-6.3-0.1 0 1.4 1.4 0.8 2.8 0.3 1.4 0.6 1.3-1.5 0.8-0.2 0.7 1.7-0.3 1.2-1 1-1.1 0.7-0.9 0.2-2.1 5.3-0.4 1.4 0.2 2.4 0.6 3.3 0.3 2.6-1.8-1.6-2-4.4-1.9-1.6-2.2-0.2-6.8 1.9-16.4-1.7 2 2.2 2.3 0.8 5 0.1 0 1.6-0.9 0.6-0.9 0.9 2.8 1.4-1.5 1.3-0.8 1.7-0.2 2 0.7 2.5-5.2-0.6-1.2 0.9-1-0.9-1-1.4-1.1-1-5.1 0-1.4-0.3-1.1-0.6-0.9-0.1-0.9 1-2.8-1.2-1.9 2.5-1.5 3.8-1.3 2.6-4.8 1.6-0.8 0.5-0.6 2.4-1.2-0.6-1.2-1.6-0.3-0.9-1-0.5-2.7-2-1.6-0.5-1.6 0.1-2 1.2-7.6 1.7-1.7-0.7-3.1-1.9-1.8-0.4 0 1.6 0.7 0.3 1.1 1.1-1.1 2.5-1.7 1.9-2.1 1.2-2.1 0.4-3.5-0.9-1.1 0.3 0.4 2.3 0 1.3-2 0.1-0.9 1.4-0.7 1.8-1.1 1.4-1.5 0.2-1.3-0.7-1.2-0.4-1.6 0.9-0.1-1.5-0.3-1.1-0.4-0.9-0.3-1.2-3.7 2.4-0.3 2-0.8 0.3-1.1-0.1-1.1 0.8-1.6 1.5-1.9 0.7-4.5 0.1 1.6-1.1 1.3-1.2 1-1.5 0.9-2.2-2 1.4-1.6 0.7-0.5-0.7 1.2-3.1 1.5-1.9 3.4-2.3 1.7-1.7-0.4-0.5-0.2-0.1-0.1-0.3-0.4-0.7-1.1 1.1-4.4 2.7-0.5 1.3-1.3 1.5-2.9 2.6-1.6-2.3 0.2-2.1 0.9-2.4 0.5-3.2-0.9-1.4-2.3-1.1-2.5-0.5-1.8 0.9 1.2 2.6-3.9 1.9-9.8 2.2-0.5 0.9-0.2 2.1-0.5 0.8-2.4-0.2-0.9 0.1-2.7 2.6-1.5 0.6-2.4 0-0.2-2.2-1.6-2.5-2-1.1-0.9 1.9-7.5 6.9 0.9 1 0.4 0.3 0.6 0.2-9.4 4.5 0.4-2.5-1.2 0.5-4 3.6-0.9-1.6-0.9 1.6 0.1-2.8 0.3-1 0.5-0.9 0-1.4-1.2-0.4-0.6-0.5-1-2.1 3-1 2.5-1.8 4.9-4.9 2.5-1.7 4.8-1.3 3-1.5 2.4-2 6-6.9 2.6-2 5-2.3 2.8-1.9-6.3-0.7-26.5 13.6-8.6 0.7 5.8-3.9 1.3-0.5 1.3-1 1-2 1.2-2.1 5.4-1.9 16.9-9.2 1.9-2.9 4.4-0.6 5.1-2.7 5.1-1.2 4-1.8 0.3-3.6 0.7-1.1 0.6-1.3 0.6-0.6 0-1.4-2-1-2.1 1.3-2.4 0.9-3.1-2.5-1.2 0.1-0.6-0.3-0.1-0.9 0.3-2.8-0.2-0.8-0.8-1-1.2-1-1.3-0.8-1.4-0.4 0.6 2.8-0.2 2.1 0.1 1.9 1.4 2.4-2.7 0.7-1.9 1.4-3.8 4-2.7 1.7-2.9 0.9-9 1-4.7 2-17.3 2.4-5.7 2.6-2 1.6-0.3 0.6 0 0.8-0.1 0.8-0.5 0.8-0.8 0.6-8.6 2.8-3.3 2.7-1.6-0.3-2.7-1.1-1.4-0.3-6.3 0.8-3.1 1.4-2.4 2.5-0.9-1.7 1-0.8 0.3-1.2 0.1-1.3 0.5-1.2 0.8-0.6 9.4-2.6 2-1.3 0-1-0.1-0.2-0.4 0-0.4-0.2 0.6-2.7-1.1-1.6-2.1-0.7-2.1 0.2 1.8-2.8 2.9-0.6 5.6 0.5 3-1.3 6.5-6.3 0-1.6-5.6 0 2.3-4 4.3-3.4 4.8-2.3 3.6-0.9-0.5 1-0.7 2.3-0.7 1.2 2.4-0.5 2.3-1.1 1.6-2.3 0.3-3.7 1.8 1.3 2.4 0.4 5.2-0.2 0-1.5-1.1-0.2-2.7-1.3 0-1.3 1.9-1.3 3.5-4.1 2.7-1.5 1.6-3 0.7-0.9 1.1-0.3 3.6 0.3 4.4-1.4 8.1-4.6 4.4-1.4 0-1.7-10 1.3-14.4 5.5-2.6 1.6-1.2 1.4-0.8 1.5-4.6 0-2.1 0.7 0.9 1.6-4.1 2.7-1.5 0.4 0.2-1.1 0.4-2.5 0.3-1.1-2 0-1.1 0.9-0.8 1.2-0.8 0.9-1.7 0.6-3.3 0.5-1.6 0.6-6 4.8-3.1 1.4-3.1-1.7-2.8 3-3.5 2.8-3.6 2.2-3.4 1.1 0.8-2.9-13-6.2 5.3-1.6 1.2-5.4-2.3-5.6-5.6-2.7-1.5 1.2-3.5 5.3-1.6 1.2-1.6 0.9-4.3 4-2.1 1.4-0.7-2.9 1.6-6.5-0.9-2.9-2-0.5-2.8 0.3-1.8-0.4 1-2.5-0.1-1-0.3-0.3-0.3 0-0.2-0.2 0.2-0.8 0.3-0.5 0.3-0.6 0.1-1.1-0.5-0.1-0.9 0.1-0.5 0 0-1.5 4.5-0.6 11.5-4.1 2.3 0 1.2-0.7 0.4-1.5-0.1-1.6-0.5-0.7-1.9-1.1-1.2-2.5-1.4-2.2-2.6-0.4 0-1.4 1.6-1 3.4-1.2 1.7-0.9-1.1-3.3 2.8-1.5 3.9-0.8 3.5-2.5 8.8-4.1 13-2.8 5.6-3.4 2.9-7.6 1.1 0-0.1 4.1 1.3 1.7 2 0.4 1.9-0.1-0.5-2 2.9-13.2 4.3 2.5 4.3 0.2 10.2-1.3-1-0.9-1.1-1.5-0.8-0.7 4.8-3.1-27.3 1.6 1.8 4.6-0.9 2.5-0.6 1-0.8-3.6-1.4-1.5-1.8-0.9-1.9-0.6-4.2-0.3-18.5 4.7-3.2 2.1-1.5-1.4-1.4-2.1-1.4-1.3-1.4 0.5-1 1.4-1 0.6-3.5-3.6-1.6-0.1-3.8 1.2 0 1.4 1.4 0 1.1 0.3 2.3 1.2 0 1.4-3.5-0.6-6.5-2.3-3.2 0 0.1 1.5 0.4 0.7 1.4 0.7-3 0.1-5.4 2.6-2.9 0.5-3.3-1.3-1-2.7-0.2-3.8-1.2-4.5 1.2-0.6 2.5-2.4 0-1.4-1.4-1.8 1.6-2 2.9-1.7 2.6-0.7-1 3 3.1 2.6 1.7 0.6 1.4-0.8 0.3-1.8-0.4-1.6-0.1-1.6 1.6-2-1.4-1.1-0.6-0.3 1.3-3.4 1.6-0.9 2.1 0.1 2.6-0.6 1.6-1.7 3-4.9 1.6-1 14.3-4.2 2.1 1.9-1.6 8.5 0.2 1.4 9-1.4 4-2.4 3.7-4 1.2-4.8-3.3-4.3 4.9-0.1 1.5 0.8-0.7 2.4 0.7 3.2 0.1 3.5 0.6 2.8 1.9 1.2 2.3 0.4 4.2 2 4.6 1 5.7 0.1 2-1.2 2.8-3.7 1.6-0.9 1.7 0.8-0.9 0.7-0.9 0.8 2.3 1.4 9.9-1.4-2.2-2.3-1.9-0.6-4.4 0-4.4-2.6-2.1-0.5-2.1 1.5-1-1.1-0.8-1.4-0.5-1.7-0.3-2 1.7 1.6 1.2 0.9 1.5 0 2.1-1-1.8-1.1-0.9-0.3-1.2-0.1 0-1.7 1.4-0.1 3.5-1.3-1.5-3.8 0.4-10.9-2.3-2.3-7.2-1.4-3.9-1.9-2.5-2.7 2.1-2.2 2.6-0.9 9.3-0.6 13.7-6.4 1.8-1.6 2-3 2.4-1.5 3.6 0.1 3.6 1 2.3 1.2-0.6-3.1-1.6-1.5-2.2-0.4-2.3 0.3 0.8-1.2 0.3-1.2-0.3-1.1-0.8-1.2 0-1.5 1.1-1.4 0.3-1.3-0.4-2.7 0.5-1.6 3.3-4 0.7 0.7 0.9-0.6 1.1-1.1 1.4-0.5 5.7 1.5 10.9 0 1.1 0.5 1.2 1 1.4 0.5 1.4-1.1 1-1.5 0.9-0.7 1.1-0.2 10.4 0.4 0.6 0 1.1 0.4 2-1 8.7 0.2 4.9-1 2.3-0.9 1.8-2 2-1.4 16.7-5.3 2.5-1.8 1.2 2.5 2.5 0.6 2.8-0.6 1.9-0.9 0.9-1.3 0.8-2.1 1.1-1.9 1.5-0.9 24.1-3.1 4.6-1.6-2.5 0-8.9-3.6-4.6-1-8.9 1.4-2.4-0.4-1.5-1.1-0.2-1.4 1.8-1.6 0-1.5-0.6-2 0.2-2.7-0.3-2.3-2.1-0.9 1.1-1.8 1.6-3 1-1.3-3.6 1-4.3 2.4-3.2 3-0.3 2.9-4.5 8.5-12.1 16.6-2.6 1.4-12.3 1.4-0.7 0.6-2.2 3-1.3 1-1.7 0.3-1.8-0.2-1.6-0.7-1.4-0.9 2.2-2 3-2 2.2-2.4 0-3-4.3 2.7-10.1 3.2-7 0.2-2.9-0.5-2.7-1.2-1.1-2-1-1.3-4.7-0.6-1.8-1.9 0.7-3.6-1.5-1.2-5 0.1 0 1.6 1.2 0.4 1.1 0.9 0.9 1.4 0.6 1.8-10.4 4.9-6.1 1.3-3 1.4-1.2 2.5-0.5 3.2-1 0.4-1.3-0.8-1-0.4-3.6 2.7-24.6 3.4 0-1.4 2.5-1.1 5.8-4.3 7.1-1.9 27.8-26.8-0.3-0.9-0.6-2.2 1.5-0.7 2-1.7 1.3-0.7 1.8-0.5 4.3 0.5 1.5-0.3 2.6-1.1 1.5-0.3 1.3-0.9 0.6-2.2 0.4-2.5 1.1-2.2-0.8-0.9 0-0.1 0.4-0.3 0.4-1.6-1.1-1.7 1.5-0.8 1.5-1.5 1.4-1.8 1.3-2.1 0.8-2 0.4-1.8 0.5-1.4 1.2-1 0-1.6 0.2-3 8.5-8.3 1.6-4.4-2.6-0.8-10.8 0.6-3.6-1.3 3.9-3.9 1.6-2.1 4.1-7 1.3-1.6 1.5-1-1-1.6 7.3-14 3-3.3 2.3-3.8 1.8-4.9 2.4-4 2.9-1.2 3.3 1.9 6.4 6.2 3 1.3 2.7-1 2.8-1.8 3.1-0.9 3.2 2 0.4-3.7-2-2-6-2 0-1.7 8.1-1.5 2.1 0.8 4.2 3.5 2.7 0.3 0-1.4-5.7-3.2 0-1.8 3.1 1.5 1.8 0.3 1.6-1.8 1.6-0.7 1 0.3-0.7 2.2 1.4 1.8 1.4 1.5 1.8 0.9 2 0.4-1.2-4.6-0.7-1.8-0.9-1.4 1.7-3.5 2.2-2.4 4.6-3.5-1.5 0.1-2.5 1.1-1.2 0.2-13.6-0.4-1.9-1 2.4-1.5 6.2-1.6 2.7-0.2 0-1.5-3.9 0 0-1.5 1.3-1.1 3.6-1.1 1.8-0.9 0-1.5-10.9-1.6-2.8 0.5-4.8 2.1-44.5 3.7-4.3 2.2-2.1 1.5-3 0.8-5.8 0-2.9-1.4-1.6-2.1-1.2-2.2-1.8-2 2.7-4-1-2.6-2.4 0-1.2 4.3-0.7 4.9-1.6 3-2.1 0.3-2.2-2.8 0-1.7 2.7-4.7-1.2-10.4 2.8-2 0.4 0.2 1.4 1 1 0.2 0.5-0.4 0.9-2.2 0.4-0.5 0.4-0.8-5.5-5.5 1.5-1.7 5.1-3-5-0.2-2.4 0.4-2.1 1.4 1.8 2.7 0.3 4-1.2 3.4-2.6 1-2.5-2.5 0.6-4.3 1.4-4.1-0.1-1.8-0.8-0.5-0.5-0.8-0.6-0.4-0.9 0.9-1.9 2.4-1.6 0.7-1.1 1.8-1.5 3.6-3.3 6-2.1 2.6-6.5 3-2.3 0-2.3-2.7-2.7-2.3-6 1.4-2.1-1.6 0.6-0.9 0.7-2.9 0.3-2.6 0.5-1.7 0.9-0.9 1.2-0.3 1.9-0.1 2.3-0.7 5.6-3.8 2-1.9 0-1.4-4.7 0 0-1.8 2.8-1.4 0-1.6-2 0-1.5 0.7-3.1 2.3 0.1 1.7-1.8 1.2-2.1-0.3-0.8-2.6 0.7-2 2.7-1.9 1.2-2.3-1.8 0.2-1 1.2-1 1.2-1.3 0.6-1.3-0.4-1.1-0.9-1.3-0.2-1.5 1.5-0.4 2.3 0.4 2.6 0 2.1-1.5 0.9-1.5 0.3-2.3 1-5.5 0.1-1.8-0.4-1.6-1-1.4-1.9-0.8-2.1-1-1.6-1.9-0.7-5.6 1-3.3-0.3-1.9-2.3-1.1 1.1-1.1 0.5-2.6 0 1.2-3.7 1.5-2.5 2-1.4 2.9-0.4 5.2 1.1 2.1-0.3 2.1-2.2 0-1.8-1.6-0.2-1.3-0.8-1.1-1.6-0.7-2.1 3 0.6 3.4 1.5 2.7 0.5 1.2-2.6-2.7 0.3-5.2-1-5.2-2.3-2.8-3.3-0.2-1.4-0.7-2.8-1.2-2.6-1.3-1.2-4 1.1-1.6 0.2-1.4-1.3 3.2-2.8 3.2 0.1 3.3 1.1 3.5 0.2-0.3-1.1-0.5-2.6-0.2-1.1 6.1 0.1 6.1 1.6 0.8 0.9 2 3.6 1.4-0.6 1.9-2.9 1.4-1-8.3-5.6-2.1-2.8 5.3-1.2 10.7 1.1 3.9-1.1 4.7-3 1.9-0.1 1.4 0.6 2.9 2.1 6.6 1.1 10.7 0.8 0-1.5-2.4-1.2-9.5 0.8-6-2.3-11.2-6.9-1.9-10.4 0.8-4.9 1.5-3.8 0.9-3.6-1.3-4.3 1.3-0.9 5.3-0.9 3.7-1.5 3.2-0.4 1.5-0.5 1.4-1.4 0.8-0.2 2.8 1.9 1.5 0.6 25.5-4.6 0-1.7-2.1-0.4-5.5-2.8 0.8-0.5 0.5-0.5 0.7-0.4 0.9-0.2 0-1.6-0.6-1.9 1.4-2.1 4.8-3.9-1.1-0.1-2.6-1.5 1.1-1 0.8-1.4 0.6-1.8 0.3-2.2-0.9 0.2-0.6 0.2-0.5 0.4-0.8 0.8-3.9-1.5-19.6-0.1-13.5 7.7-7.5 1.8-4.5-4.8 1.7-1.4 0.8-6.5 2.3-1.7-0.4-2.2 0-1 0.4-1.6 0-1.4-1 0 0-1.6 6.6-1.8 1.2 0.7 3 2.2 1.9 0.5 1.6 1.2 0.6 5.5 1.6 1.2 1.2-0.7-0.1-1.9-0.2-2.6 0.5-2.7-1.3-1.4-1.1-1.8-1.3-1.3-1.9-0.3 0 1.4 0.9 1.8-1.6-0.6-1-1.7-1.6-5.8 0.1-1.1 0-1-0.6-1.1-0.9-0.2-2.3 0.3-0.5-0.8-0.5-1.5-1-1.3-1-1.9-0.4-3.5 0.6-3.5 1.5-1.1 1.8-0.5 1.6-2.2-1.9-0.8 0-1.4 1.2-1.4 1.8-1-1.1-1.6 3.9-3.3-1.3-1.2-1.6-0.1-3.6 1.3 0.3 1.9-0.1 0.9-0.7 0.3-1.5 0.2 0 1.6 1 0-4 5-3.9 0.8-3.4-2.9-2.8-6.1 2.7 0.1 6.2-1.8 2.4-1.5-4.1-3.1-1.7-2.3-0.8-2.7 0.9 0.5 1.9 0.7 0.9 0.5-1.8-2.8-4.7-5.4 1.8 1.3 1.7 0.1 1.3-1 0.8-2-7.1-6-3.1-1.2-2.1 2.4 2 2.5-0.8 2-2.3 0.9-2.6-0.6 1.2 2.5 0.7 0.7 0 1.6-2-0.2-1.7 0.3-2.9 1.7 0 1.5 1.8 0.6 0.7 1.4 0.3 4.5-1.2 0.1-2.6 1.5 1.8 1.3 1.7 2.2 0.3 2-2.4 0.9-2.5-0.2-2.1-0.9-1.2-2.4-0.2-4.5 0.8-2.8 3.1-6.6 0.7-2.7 0.4-4.3 1.2-1.9 1.5-1.5 1.6-2.9-4.3-0.1-1.7-0.9-1.5-2.1 2.6 0 1.2-2.2 0.8-3.1 1.1-2.7 1.5-1.4 6-3.6 0.6-1 0.3-1.2 0.6-0.9 1.4-0.1 0.8 0.8 0.3 1.4 0.2 1.5 0.5 1.1 1.7 1.5 2.4 1.2 2.4 0.3 2-1.3 1 1.8 1.1 1 1.2 0 1.4-1.1 0.2 0.7 0 0.4 0.1 0.2 0.7 0.1-3.1 5.9-3.2 2.7-3.4-0.4-3.5-3.3-0.9 4.6 2.1 1.4 3.3 0.2 2.5 1.1 2.2 1.6 1.9-1.7 1.8-2.6 2.1-1.3-1.9-2.8 0.9-3.8 2.2-3.3 2.1-1.4 3 0.8 4.8 3.6 3 0.5-0.8-2-1-1.3-2.9-1.6 0-1.7 1.4-0.5 1.3-0.1 3 0.6-2.6-1.5-7.2-1.6-1.5-2.4-0.8-3.4 0.3-1.7 8-2.2 2.9 0.7 5.3 3.3 2.6 0.8 23.6 1.7 1.5-0.2 2.6-1.2 1.5-0.3 1.2 0.4 1.9 2.1 1.1 0.7 10.9 1.6 1.3-0.4 1.7-0.9 1.6-1.3 1-1.3 1.3-1.1 1.7 0.3 6.1 3 1.3 0.1 1 1 1.1 4.4 0.7 1.1 2.5-0.5 1.4-0.5 0.2-0.7 0.9 1.9 0.3 1.9-0.4 1.7-0.8 1.1 0 1.6 3 1.5 0 1.7-2.6 1.9 0.6 2.2 6.7 6 1.7 2.7 1.1 3.6 0 4.6 0.9 0 0.1-4.2 0.5-3.6 0.2-3.3-0.8-3.5 3.1-1.3 3-3.1 2.4-4.7 1-6.2 2-3.9 4.6-0.5 8.4 1.9 0.9-0.3 0.8-0.8 0.7-0.4 1.6 1.4 2.4 1.4 2.2 0.8 3 2.3 2.1 0.4 6.8 0 3-0.9 2.8-2.2 3.8 2.9 8.4-1.7 3.8 1.9 0.8 2.3 0.4 2.7 0.9 2.3 3.9 1.5 1.6 1.6 2.8 4.4 1.9-1.5 2.1-0.5 4.5 0.2 0-1.6-2-1-2.5-0.7-2.1-1.4-0.9-2.6-0.9-1.8-2.1-1.3-2.5-0.8-2.1 0 0-1.8 0.9-1.1 1.6-2.8 1.2-0.9 3.1 1.5 1.8 0.5 0.8-1.2 1.6-1 9.7 1.9-2.2-2.9-2.5-2-2.6-1.2-2.6-0.4-2.8 0.2-1-0.6-0.4-1.9 0.8-2.4 1.7 0.6 3.2 2.6 2.7-1.6-1-2.3-3-1.8-2.9-0.8-13.7 0-0.7-0.8-0.2-2.4 0.6-1.8 1.4-1.6 1.6-1 4-1.2 16-11.4 2.2-0.8 0.9-0.7 0.4-1.9 0.1-4.7 0.5-4 1 0.7 1 2.6 0.4 1.4 0.6 0.2 0.1 0.2 0.1 1.4 4-2.9 4.1-2 0.4-0.1 11.2-2.2 1.7-0.4 6.2-4.3 4.4-1 0-1.8-4.5-0.2-2-0.9-1.8-2.3 7.5-6.3-0.4-4.6 6.4-5.8-0.4-5.9 1.5 0.9 0.9 1.1 1.1 0.9 1.7 0.3 1.6-7.6 0.7-2.1-0.4-0.5-0.2 0-0.1-0.2-0.2-0.8-2.7 2.6-2.7 1.4-9.4 1.6-5 4.1-2.8 1.5 0-1.4 1.4-2.1 0.2-2.2-1-1.7-2-0.7-2 1.1-3.5 4.5-3.5 1.8-6.4 7.2-1.9 1.6-1.9 1.2-2 0.4 0-1.4 3.3-4 2.1-1.8 2.6-0.7 1.8-1.8-0.4-3.3-1.7-2.1-2 2.2-1 0 0.5-5.2-1.8 0-2.3 3.2-1.1 4.5-0.7 1.4-1.5-1.2-1.3-1.9-0.6-1.7 0.1-1-0.1-1-1.1-0.4-0.9 0.3-1.4 1-0.9 0.4-3.3 0.2-1.6 0.6-1.5 3.3-1.7-0.5-2.8-2-10.4-0.1-2.4-1.5 1.1-2.3-1.3-1.3-11.3-4.4-2.5 0 0.5-0.9 0.3-0.8 0.4-0.8 0.7-0.9 0-1.4-1.8-1.2-0.9-1.7 0.3-1.5 1.9-0.7 2-0.2 1.7-0.8 1-1.8 0.4-2.8 1.6-1.8 9.7-7.2 3.6-1.4 13.7 0.4 7.3 2.4 3.7 0.1 0-1.5-9.6-2.4-2.6-2.6 2.1-1 6.2-0.3 1.6 0.6 1.7 2.8 2.2 2.8 2.5 1.4 2.5-1.3-7.3-7.3-5.1-1.9-5-3.6-3.2-0.3 0.5-2.3 1.1-0.6 1.3 0 1.7-0.4 1.3-1.1 1.9-2.5 1.5-1.3 2.7 2.8 3 0.2 6.5-1.2 7.6 3.1 2.9 0 0-1.6-2.5-0.4-3-1.3-2.2-2.5 0.1-4 1.9-2 5.4 0.9 2-0.5-1.8-1.6-1.5-4.2-1.8-0.9-2.6-0.2-0.7 0.2-0.5 1.1-0.3 1.7 0 1.5-0.1 0.8-3.9-0.2-3.2-3.5-2.5-4.9-1.8-4.5 1.8-1.3 1.3 0.7 1.3 1.4 1.8 0.7 1.9-0.3 1.8-0.7 3.4-2.3-4-1.7-3.1-3-5.2-6.6 0-1.7 1.1-1.2 1.5-0.5 1.5 0.3 1.6 1.4 1.4-2.4 0.4-0.9-0.9 0 0.7-3.4 1.1-0.6 1.4 0.2 1.5-1 2.7-5.8 1-0.9 1.3 1.4 0.4 5.6 1.3 1.2 0.7-1 0.9-4.4 1.2-1.3-1.6-7-0.5-4.2 0.6-1.9 1.6-1.6 2.2-7.4 1.3-2.5 2.2-0.1 7.7 3.4 2.5-0.5 4.2-2.3 2.3-0.5-0.9 2.1-0.9 1.6-0.7 1.6-0.3 2.2 0.7 1.2 1.6-1.4 4.1-5.9 8.3-5.3 2.7-1 1.9-1.9 1.3-3.9 1.7-3.5 3.1-0.6 3.6 2.8-1.1 2.7-6.3 4.4 0 1.6 5.8-3.1 0.9 0.6 0.9 1.2 2.1-0.2 2.2-1 1.3-0.9 1.8 3.4 0 1.5-0.5 2.8 1.1-0.4 2.1-1.6 2.1-0.8-0.7 2.4-1 1.6-1.4 0.8-1.7 0.3 0 1.6 2.6-0.1 1.5 0.5 1.2-0.1 1.4-1.9 1.6-4.4-0.4-2.6-3.1-4.5-0.8-4.9 2.2-2.9 3.6-2.8 3.5-4.2 0.3 1.2 0.2 0.1 0.5 0.5-3.2 11.3-0.2 1.7 0.3 0.4 0.4 1 0.7 1.1 1 0.8 1.2 0 1.3-1.6 1.3-0.2 1.8 0.9 2.9 1.9 2.6 2.5 1.1 2.2 0.3 0.9 1.2 3.2 0.4 1.7 0 1.7-0.7 4.3-0.2 2.2 1-2.2 2.2-6.3 1-1.4 0.5-1.7-0.9-3.8-1.3-3.7-0.7-1.5-0.2-2.4-0.6-3.1-1.2-2.6-1.7-0.9-1.1 1.8 0.3 3.5 0.9 3.7 0.8 2.5-1.9-0.3-1.3-1.4-1.1-1.7-1.3-1.5-4-1.2-1.7-1.5 0.5-3.1 3.7-7.6 0-1.4 5 0.8 2.1-0.8 5-4.3 1.7-0.6 2.3 0.9 1.5 2.3 1.1 2.4 1.2 1.1 0.7 1.8-0.3 3.7-0.6 3.7-0.3 1.3 0.8 2.2 1.7 1.6 4 2 0.1 2.8 1.1 3.3 1.6 2.6 1.5 1.1 1.9 1.8 0.2 4-0.8 3.9-1.3 1.8-2.1 0.6-1.6 1.5-2.5 3-7.5 4.9 0 1.6 8.2-1.5 2.7 1.4-1.5 5-1.6 1.8-6.9 4.9-4.5 6.6-1.9 1.6 0 1.7 2.7-0.9 2.5-1.7 13-12.8 1.5-0.3 1.1-2.6 2.8-1.3 3.2-0.8 2.3-1.1 1.8-2.9 0.8-3.9-0.6-3.3-2.5-1.5-0.6-1 0.5-2.1 1.5-3.4 0-5.8-1-0.4-5.5-8.6-3.2-2.7-1.1-1.4-0.6-1.6-0.5-2.6 0-2.3 3.1-2.8 1.5-4.2 0.3-4.9-1.5-3.8 2.4 0.2 2 1 1.9 0.3 2.2-1.5-0.4-0.8-0.1-0.6-0.1-0.7-0.3-1.2 2.8 2.4 2.9 1.8 3-0.1 5.2-5.7 2.8-0.9 2.8 1.4 2.1 4.4-2.9 0.1-0.9-0.1 2.6 1.9 3 1.4 3.1 0.2 2.7-2-8.8-7.1-4.1-5.3-0.3-5.6-3.7-2.2-1.6-1.5-1.2-1.6 2.2-1.4 2.4 0.5 4.7 2.7 9.5 3.5 2.2 0.3 5.3 2.9 1.8 1.6 7.1 10.9 2 1.8 6.9 3.2 5.1 0.9 6.2 2.7 2.9 2.2 3.1-1.4 1.9 3.7-0.5 4.9-4.1 2.5-3.8 0.8-4.6 2-4.4 2.8-4.6 4.7-4.5 2.4-3.7 1.2-1.9 1.7-6 8.5-2.1 3.9-1.8 4.4-0.3 1z m-331.8 421.1l3.3 5.6-2.7 4.2-4.7 1.5-2.5-2.8-0.4-3.4-0.7-1.7-0.2-1.3 1.3-2.1 1.6-1.2 2-0.4 1.8 0.4 1.2 1.2z m-41.3-157.1l1.6-0.9 1.5-0.5 1.4 0.2 1.1 1.2 0 1.6-1.1 1.8-0.9 3.7-0.4 4.1 0.5 3.1-3 2.8-2.6-1.5-2.6-3.3-3.1-2.8-1.7-0.1-1.9 0.3-1.5-0.3-0.6-2.3 0.3-3.5 0.5-2.6-0.2-2.2-1.5-2-2.8-0.9-10.4 2.3-3.8-0.5-6.7-2.6-3.7-0.1 0-1.5 3.6-0.2 2.9-0.8 2.4-2.4 1.6-4.6 1.1 1.3 1.1 0.5 1.2-0.5 1.2-1.3 3 3.6 3.5-1 3.5-2.7 2.8-1.5 12 0.4 2.6 1.2 2.8 6.2-2.8 0 0.3 1.9 0 1.8-0.4 1.6-0.8 1.2 0 1.8z m197.6-249.7l2.2 1 1.7 1.2 1.1 2.1 0.6 3.9-6 1.9-3-0.2-2.2-1.7 0-1.5 0.3-1 0.1-0.1-0.1-0.3-0.3-1.9 2-1.4 0.8-0.3-0.3-0.6-0.4-0.7-0.3-0.4 1.2-1.3 1-0.3 0.8 0.5 0.8 1.1z m-177.5 775.8l1.3-0.3 1.1 0.7-1.1 1.6-0.8 0.5-10.8 3.6-1.5-0.7-2.1-1.1 0.4-2.1 2-1.7 2.6-1 3.2-0.3 4.7 0.8 1 0z m-68.1-63.7l1.5 0.2 0.6 1.4-1 1.7-2.5 1.7-5.3 2.5-4.8 0.5-1.3 1.3-2.8 0.4-0.4-1.7 2.4-3.2 7-4.8 1.3-1.2 2.5 0.1 1 0.2 1 1.1 0.8-0.2z m91.3-265.5l0.4-0.2 0.6 0.3-0.2 1.7-2.5 0.8-16.2-7.6-4.5-3.2 1.4-2 3.2-0.1 3.5 2.6 1.7 0.1 3.3-0.7 2.6 0.3 3.5 1.4 1.1 1.7-1.2 1.7 0.1 1.5 3.2 1.7z" id="IE" name="Ireland">
  </path>
 </g>
 <g id="points">
  <circle class="51.642739106804726|-10.253946493470966" cx="222.8" cy="911" id="0">
  </circle>
  <circle class="53.21900865726121|-8.011616577898401" cx="530.8" cy="555.8" id="1">
  </circle>
  <circle class="55.18934559533182|-6.217752645440353" cx="777.2" cy="93" id="2">
  </circle>
 </g>
 <g id="label_points">
  <circle class="Ireland" cx="560.1" cy="588" id="IE">
  </circle>
 </g>
</svg>