<?xml version="1.0" encoding="UTF-8" standalone="no"?>
<?xml-stylesheet type="text/css" href="/styles/home.css"?>
<!-- https://www.amcharts.com/svg-maps -->

<svg version="1.1" xmlns="http://www.w3.org/2000/svg" id="map-israel"
   viewBox="0 0 792.64857 792.64857" width="792.64857" height="792.64857" class="">


  <defs
     id="defs4">
    <style
       id="style2"
       type="text/css">
			.land
			{
				fill: #d5b6b9;
				fill-opacity: 1;
				stroke:white;
				stroke-opacity: 1;
				stroke-width:0.5;
			}
         .rectangle:hover {
         fill: #bdbdbd;
         cursor: pointer;
         }
		</style>
    <!-- <amcharts:ammap projection="mercator" leftLongitude="34.228663" topLatitude="33.434207" rightLongitude="35.935383" bottomLatitude="29.496687"></amcharts:ammap> -->
    <!-- All areas are listed in the line below. You can use this list in your script. -->
    <!--{id:"IL-GH"},{id:"IL-Z"},{id:"IL-HA"},{id:"IL-M"},{id:"IL-TA"},{id:"IL-D"},{id:"IL-JM"},{id:"PS"}-->
  </defs>
  <rect id="background" class="rectangle" stroke-width="0" stroke="#000" width="792.64857" height="792.64857" y="0" x="0" fill="#d3d3d3" />
  <path
     id="IL-GH"
     title="Golan Heights"
     class="land"
     d="m 536.963,111.95374 -5.65,11.01 -2.8,3 -4.23,7.59 -5.38,6.25 -0.16,-0.68 -1.09,-0.62 -3.76,1.55 -1.79,0.22 -0.86,0.73 -1.37,4.29 -3.93,0.54 -5.22,4.45 -2.94,1.32 -4.27,0.3 -2.06,1.33 v 0 l -0.58,-1.82 -4.55,-2.38 3.32,-3.72 1.93,-4.04 0.84,-11 1.54,-7.69 -0.47,-3.25 -2.99,-6.33 -2.24,-2.87 -1.29,0.56 -1.15,-1.31 1.4,-5.02 0.76,-10.480004 -0.29,-4.73 -1.99,-3.74 -0.06,-0.96 2.83,-2.83 2.59,-4.34 1.85,-0.56 0.5,0.58 0.53,-9.8 3.21,-9.35 -1.13,-7.68 0.12,-4.47 2.32,-6.63 -1.15,-1.11 -2.17,-0.29 -4.58,1.67 -1.28,-0.31 -1.44,-1.35 v 0 l 1.46,-2.69 10.27,-5.51 5.77,-7.1 1.07,-0.42 4.33,0.37 2.62,-0.45 3.46,-1.44 4.21,-3.99 1.34,-6.8499986 1.48,-2.36 12.11,-7.16999991 0.89,0.69000001 0.24,1.4699999 -0.62,2.62 -1.8,2.98 -3.43,3.9099986 -1.47,3.82 -0.53,3.71 0.83,8.33 -0.26,1.4 -1.98,3.38 4.94,5.27 1.73,5.16 -0.12,4.04 -0.65,1.67 -2.09,2.78 0.33,2.22 5.1,1.37 3.64,5.26 -0.41,5.37 -2.76,2.44 -0.32,0.85 0.39,1.12 1.95,2.21 -0.05,1.38 -2.86,0.78 -3.43,-0.91 -1.14,1.66 0.87,3.58 -0.51,6.44 0.9,2.93 1.48,13.610004 3.59,5.59 0.01,1.13 z"
      />
  <path
     id="IL-Z"
     title="HaẔafon"
     class="land"
     d="m 456.073,209.69374 -1.14,-1.01 0.05,-1.03 -1.22,-1.58 -1,-2.94 0.21,-4.06 -0.54,-4.36 -2.8,-4.74 -2.79,-2.08 -4.77,-0.42 -10.44,1.54 -4.08,-1.7 -2.64,-1.94 -3.08,-3.19 -2.38,-1.3 -2.59,0.71 v 0 l -0.96,1.09 v 0 l -1.34,-1.99 -2.58,-1.19 -1.3,-2.43 -1.1,-0.73 -1,0.39 -1.25,2.04 -2.39,1.35 -0.67,2.1 -1.11,0.34 -1.86,2.71 -1.53,0.39 -2.83,-0.9 -3.4,-0.23 -1.05,-1.75 h -1.73 l -0.52,-1.35 -1.58,-0.74 -0.34,-1.08 0.62,-3.1 -1.38,-0.91 -0.43,-0.96 -1.63,-0.57 -0.29,-2.77 -1.49,-1.3 -0.14,-0.79 1.06,-0.79 3.44,0.68 1.06,-0.23 -0.24,-1.3 -2.59,-0.68 -0.57,-0.79 0.09,-2.04 1.15,-1.7 1.82,-0.39 3.74,1.24 2.87,-5.04 3.49,-2.15 0.24,-1.86 -1.67,-2.1 0.33,-2.72 0.86,-0.51 1.68,2.1 1.72,-1.47 0.44,-1.42 -0.39,-1.47 2.11,-2.1 -0.77,-3.28 2.54,-4.03 0.43,-2.27 -0.38,-1.86 -2.16,-4.48 0.48,-4.65 -1.1,-0.8 -3.21,-0.96 -3.3,-2.33 0.62,-3.85 -1.96,-1.76 -0.85,-2.35 0.51,-3.73 -0.69,-2.03 -1.2,0.17 v 0 l -0.72,-0.78 -0.57,-0.05 -0.19,0.62 -0.77,-0.06 v -0.45 l 0.77,-2.04 1.87,-11.760003 1,-2.27 0.15,-2.96 2.25,-7.5 0.76,-5.29 -0.14,-2.74 13.12,-0.57 6.11,1.06 1.59,-1.33 1.99,-0.65 6.38,-0.21 6.64,-0.93 3.41,0.81 2.9,5.51 1.62,1.86 2.6,1.54 1,0.29 4.38,-1.95 4.73,-0.38 1.25,-0.66 5.2,-5.03 3.79,0.65 2.91,-1.1 1.03,-3.94 3.28,-1.39 0.86,-2.05 0.35,-4.48 1.08,-4.97 1.96,-4.21 -0.68,-6.89 1.47,-3.35 2.62,-2.97 1.65,-3.64 0.41,-0.43 1.21,0.99 4.08,5.82 0.67,0.21 0.63,-0.61 v 0 l 1.44,1.35 1.28,0.31 4.58,-1.67 2.17,0.29 1.15,1.11 -2.32,6.63 -0.12,4.47 1.13,7.68 -3.21,9.35 -0.53,9.8 -0.5,-0.58 -1.85,0.56 -2.59,4.34 -2.83,2.83 0.06,0.96 1.99,3.74 0.29,4.73 -0.76,10.480003 -1.4,5.02 1.15,1.31 1.29,-0.56 2.24,2.87 2.99,6.33 0.47,3.25 -1.54,7.69 -0.84,11 -1.93,4.04 -3.32,3.72 4.55,2.38 0.58,1.82 v 0 l -4.86,2.12 -1.12,1.28 0.32,2.87 -1.95,0.77 0.08,1.24 -0.42,0.49 -1.52,0.43 -2.49,1.89 0.06,5.75 0.39,0.94 1.28,0.7 0.34,1.27 -0.82,1.9 -0.12,1.91 1.77,3.67 -0.17,0.42 -1.72,-0.02 -0.31,1.92 -2.16,-0.48 0.11,1.21 1.16,1.88 -0.38,0.64 -1.74,0.37 -0.92,1.29 0.82,0.62 1.11,-0.03 1.1,2.51 1.62,1.07 -2.49,5.9 0.27,0.92 1.43,0.7 0.35,0.68 -0.43,1 -1.42,0.56 0.42,2.69 -2.02,0.63 0.5,4.6 -0.3,0.75 -1.47,0.71 1.65,2.78 -1.41,-0.14 v 0 l -4,-1.15 -7.24,-3.03 -3.92,-0.17 -2.58,0.75 z"
      />
  <path
     id="IL-HA"
     title="H̱efa"
     class="land"
     d="m 356.413,209.70374 0.57,-1.25 -0.47,-0.11 0.91,-1.3 1.67,-8.47 -0.38,-1.01 -2.11,-0.29 1.87,-0.05 0.24,-0.57 0.24,0.57 h 0.57 l -0.43,-0.28 0.1,-1.13 0.62,-0.06 0.48,-1.7 -0.43,-0.96 0.62,-1.52 -0.1,-1.24 0.91,-1.7 -0.52,-0.34 1.39,-3.79 -0.48,-1.52 1.24,-1.64 -0.62,-0.79 1.72,-4.81 -0.43,-1.13 0.86,-2.77 0.39,-4.98 1.19,-4.07 -0.09,-2.32 0.48,-0.63 0.62,-7.13 -0.29,-0.96 0.82,-2.21 1.05,-0.34 0.81,-1.36 0.96,-4.76 1.29,-12.97 -0.28,-1.14 0.52,-0.06 -0.28,-3.79 1.77,-1.25 1.15,-0.06 1.91,-1.08 1.06,1.08 2.29,1.08 2.54,-0.29 -1.24,0.57 -3.16,-0.85 2.2,2.16 0.19,-0.68 0.53,0.51 -0.15,-0.8 0.34,-0.05 1.05,2.21 1.39,-0.23 0.05,-0.45 0.76,0.51 0.15,0.9 0.96,-0.28 -0.67,-1.02 -0.67,-0.11 3.44,-2.16 4.22,-7.37 1.86,-7.72 0.05,-2.5 -0.48,-0.98 v 0 l 1.2,-0.17 0.69,2.03 -0.51,3.73 0.85,2.35 1.96,1.76 -0.62,3.85 3.3,2.33 3.21,0.96 1.1,0.8 -0.48,4.65 2.16,4.48 0.38,1.86 -0.43,2.27 -2.54,4.03 0.77,3.28 -2.11,2.1 0.39,1.47 -0.44,1.42 -1.72,1.47 -1.68,-2.1 -0.86,0.51 -0.33,2.72 1.67,2.1 -0.24,1.86 -3.49,2.15 -2.87,5.04 -3.74,-1.24 -1.82,0.39 -1.15,1.7 -0.09,2.04 0.57,0.79 2.59,0.68 0.24,1.3 -1.06,0.23 -3.44,-0.68 -1.06,0.79 0.14,0.79 1.49,1.3 0.29,2.77 1.63,0.57 0.43,0.96 1.38,0.91 -0.62,3.1 0.34,1.08 1.58,0.74 0.52,1.35 h 1.73 l 1.05,1.75 3.4,0.23 2.83,0.9 1.53,-0.39 1.86,-2.71 1.11,-0.34 0.67,-2.1 2.39,-1.35 1.25,-2.04 1,-0.39 1.1,0.73 1.3,2.43 2.58,1.19 1.34,1.99 v 0 l -2.2,2.49 v 0 l -0.6,1.24 -2.07,2 -3.39,2.47 -4.3,2.19 -6.93,2.62 -1.31,0.99 v 0 l -1.6,3 v 0 l -1.57,8.04 -1.5,4.16 v 0 l -0.35,2.53 v 0 l -6.83,1.47 -0.77,-0.17 -1.2,-1.58 -1.19,-0.68 -1.49,-2.2 -1.29,-0.62 h -4.12 l -5.26,-0.79 -4.98,1.07 -2.73,-1.02 z"
      />
  <path
     id="IL-M"
     title="HaMerkaz"
     class="land"
     d="m 322.753,318.11374 3.06,-8.84 2.83,-4.43 1.24,-3.04 3.31,-10.42 v 0 l 3.37,1.07 3.07,-0.05 1.48,0.84 h 3.88 l 1.44,-0.4 3.49,-3.93 1.15,-0.67 1.82,0.39 0.86,1.46 0.67,0.28 1.68,-1.06 2.82,-0.12 0.67,-0.67 -0.19,-1.57 -2.63,-1.58 -1.15,-6.18 -2.35,-1.86 -0.71,-1.57 0.67,-5.12 1.48,-1.8 1.68,-3.38 -0.44,-3.09 0.44,-3.72 -0.29,-0.67 -4.21,-3.27 -6.3,-1 v 0 l 3.64,-12.1 1.2,-6.19 1,-3.22 0.34,0.06 0.95,-5.75 -0.28,-0.68 0.67,-0.51 1.62,-7.39 -0.04,-2.03 0.67,-0.84 0.28,-2.6 -0.33,-0.22 1.1,-2.54 v 0 l 3.81,0.19 2.73,1.02 4.98,-1.07 5.26,0.79 h 4.12 l 1.29,0.62 1.49,2.2 1.19,0.68 1.2,1.58 0.77,0.17 6.83,-1.47 v 0 l -0.36,2.62 v 0 l -1.2,1.17 -4.48,2.01 -2.98,4.89 -0.19,5.47 0.81,5.81 -0.57,1.5 v 0 l -1.46,1.04 v 0 l -2.37,3.43 -3.11,7.05 -0.3,2.37 0.08,2.35 3.28,5.47 1.31,5.78 0.21,2.6 -1.95,4.77 v 0 l -0.2,1.61 v 0 l 0.54,1.35 1.8,1.92 v 0 l 1.98,3.77 v 0 l 0.57,2.33 -0.4,2.99 -1.38,3.01 0.37,2.45 -0.76,0.62 0.75,2 -2.36,5.04 0.42,4.58 2.64,3.56 3.94,3.14 0.83,3.24 -1.52,4.72 -8.61,1.54 v 0 l -0.15,0.23 v 0 l -8.65,-0.35 -1.27,0.99 -1.55,4.46 -1.83,1.15 -8.32,2.15 -3.52,3.46 -0.76,1.96 v 0 l -0.92,0.39 -3.74,4.6 -1.63,0.67 -1.53,-1.74 -1.24,-3.87 -1.2,-2.07 -4.31,-2.58 -1.63,1.63 -3.16,0.05 0.15,0.56 1.34,0.56 1.34,2.41 -0.43,0.51 -1.87,-0.11 -0.05,1.29 -0.48,0.5 -2.01,0.22 -1.05,-0.84 -2.97,-0.39 -0.81,-0.62 -0.24,-1.17 3.3,-2.75 -0.76,-1.57 -1.78,-0.95 -0.43,-1.8 1.1,-1.23 2.92,0.67 1.39,-0.45 0.39,-3.59 -0.34,-1.51 1.58,-2.53 -0.96,-0.89 -1.67,0.61 -1.2,-0.11 -1.05,-1.29 z"
      />
  <path
     id="IL-TA"
     title="Tel-Aviv"
     class="land"
     d="m 333.193,291.38374 2.25,-8.23 0.57,-0.45 -0.19,-0.67 1.29,-0.85 1.11,-2.25 1.29,-4.27 -0.24,-1.24 0.57,-0.22 0.72,-1.75 -0.19,-0.78 0.43,0.28 1.44,-4.28 1.05,-5.12 0.53,-0.28 -0.29,-1.97 0.57,-0.23 1.49,-5.36 v 0 l 6.3,1 4.21,3.27 0.29,0.67 -0.44,3.72 0.44,3.09 -1.68,3.38 -1.48,1.8 -0.67,5.12 0.71,1.57 2.35,1.86 1.15,6.18 2.63,1.58 0.19,1.57 -0.67,0.67 -2.82,0.12 -1.68,1.06 -0.67,-0.28 -0.86,-1.46 -1.82,-0.39 -1.15,0.67 -3.49,3.93 -1.44,0.4 h -3.88 l -1.48,-0.84 -3.07,0.05 z"
      />
  <path
     id="IL-D"
     title="HaDarom"
     class="land"
     d="m 461.473,399.50374 -0.07,10.29 -0.61,4.04 -2.84,8.1 -10.36,19.02 -0.89,4.04 1.97,4.28 7.69,10.35 1.37,2.94 0.86,4.18 0.18,3.13 -2.23,8.8 -6.6,10.17 -0.7,4.08 0.41,3.26 1.41,3.9 -0.01,4.12 -2.99,2.75 -6.48,4.25 -4.6,10.16 -0.06,3.62 0.87,3.29 -0.88,4.03 -3.3,1.19 -2.57,3.11 -1.52,4.16 -0.02,8.14 -2.43,5.67 -4.23,7.72 -0.91,4.43 -2.56,2.38 -5.09,9.82 -4.31,21.36 -1.19,3.56 -2.38,3.42 -0.68,2.69 5.96,11.21 0.91,3.1 -0.55,2.37 -3.83,4.24 -1.1,3.42 0.59,3.96 -3.28,7.28 5.4,23.89 -13.34,19.14 -3.59,14.26 0.54,15.48 -5.08,10.16 -0.77,3.72 0.5,2.95 -0.5,3.99 -2.94,12.23 0.5,14.67 -2.26,2.77 -3.08,2.26 -2.62,3.04 -3.53,8.43 -1.87,-0.5 -0.72,1.7 -0.96,0.44 -0.76,1.92 -2.35,2.35 v 0.82 l -1.39,1.92 -1.48,1.2 -4.35,-5.04 -2.27,-4.29 -0.82,-3.3 -0.69,-5.75 1.62,-5.38 0.81,-5.39 -0.78,-3.71 -3.09,-5.39 0.12,-9.51 -17.63,-49.49 0.35,-2.99 -20.43,-57.42 -3.51,-13.2 -12.03,-7.87 -0.44,-6.11 3.57,-10.06 -7.48,-8.77 0.5,-10.87 -4.99,-20.76 -15.18,-31.89 -9.84,-28.81 -14.22,-47.2 v 0 l 7.76,-5.82 v 0 l 7.67,-6.62 v 0 l 1.9,-3.49 -0.47,-11.2 v 0 l 1.51,-5.04 v 0 l 5.74,-7.38 v 0 l 17.3,-16.76 5.02,-1.2 v 0 l 1.53,-2.71 -0.02,-3.87 -2.35,-3.47 v 0 l -7.49,-7 4.16,-6.77 1.06,-0.95 -0.44,-0.89 0.58,-0.68 -0.43,0.73 0.72,0.23 2.97,-5.55 1.58,-1.68 1.14,-2.46 0.53,0.06 5.55,-9.58 8.43,-17.43 -0.81,-1.52 0.52,-1.96 -0.33,2.13 1.01,1.07 -0.39,-0.56 0.15,-1.97 1.72,0.23 0.48,-0.67 -0.15,-2.08 0.72,-0.22 2.54,-5.98 v 0 l 2.66,-0.84 1.05,1.29 1.2,0.11 1.67,-0.61 0.96,0.89 -1.58,2.53 0.34,1.51 -0.39,3.59 -1.39,0.45 -2.92,-0.67 -1.1,1.23 0.43,1.8 1.78,0.95 0.76,1.57 -3.3,2.75 0.24,1.17 0.81,0.62 2.97,0.39 1.05,0.84 2.01,-0.22 0.48,-0.5 0.05,-1.29 1.87,0.11 0.43,-0.51 -1.34,-2.41 -1.34,-0.56 -0.15,-0.56 3.16,-0.05 1.63,-1.63 4.31,2.58 1.2,2.07 1.24,3.87 1.53,1.74 1.63,-0.67 3.74,-4.6 0.92,-0.39 v 0 l 2.33,2.58 1.87,4.65 0.58,0.33 2.39,-0.22 1.48,1.29 -0.91,2.63 0.96,3.64 -0.72,3.03 0.53,6.05 -0.29,2.96 0.43,1.01 7.47,4.48 1.73,2.01 3.25,0.95 3.75,2.91 v 0 l -2.67,3.98 -1.52,7.57 0.75,8.2 -0.64,3.5 -3.45,6.55 -3.82,4.93 -3.35,6.73 0.47,4 1.93,3.13 2.77,2.29 4.28,1.15 7.83,-1.03 7.22,-1.8 16.99,1.23 3.64,-1.89 2.39,0.55 11.1,-1.7 2.53,-1.52 9.32,-9.98 5.58,-2.48 5.73,-4.18 v 0 l 6.09,-5.38 v 0 l 2.72,-0.96 11.39,0.17 v 0 z"
      />
  <path
     id="IL-JM"
     title="Jerusalem"
     class="land"
     d="m 417.263,345.76374 -0.24,0.38 -8.69,0.22 -7.34,3.01 v 0 l -9.01,8.91 v 0 l -8.08,3.88 -8.12,8.18 -1.57,2.62 v 0 l -3.75,-2.91 -3.25,-0.95 -1.73,-2.01 -7.47,-4.48 -0.43,-1.01 0.29,-2.96 -0.53,-6.05 0.72,-3.03 -0.96,-3.64 0.91,-2.63 -1.48,-1.29 -2.39,0.22 -0.58,-0.33 -1.87,-4.65 -2.33,-2.58 v 0 l 0.76,-1.96 3.52,-3.46 8.32,-2.15 1.83,-1.15 1.55,-4.46 1.27,-0.99 8.65,0.35 v 0 l -1.97,2.91 v 0 l 1.44,5.41 3.33,1.43 4.76,0.68 4.39,-1.57 3.24,-3.52 v 0 l 3.28,-1.94 v 0 l 3.8,3.51 10.91,4.66 7.99,-0.04 3.14,3.28 -0.51,7.3 z"
      />
  <path
     id="PS"
     title="Palestine"
     class="land"
     d="m 301.283,385.08374 0.02,3.87 -1.53,2.72 -4.99,1.19 -15.95,15.44 -1.38,1.33 -5.75,7.39 -0.68,2.26 -0.83,2.78 0.47,11.2 -1.9,3.49 -6.37,5.5 -1.31,1.13 -7.76,5.82 -6.7,-22.25 0.38,-0.29 12.88,-12.99 11.4,-12.51 13.98,-17.28 6.18,-9.24 7.5,6.96 z m 177.24,-136.33 -1.31,-7.76 0.62,-4.49 -1.18,-2.93 0.88,-3.8 -1.35,-3.62 1.17,-6.09 -1.69,-2.78 0.33,-3.64 -4,-1.15 -7.24,-3.03 -3.92,-0.17 -2.58,0.75 -2.18,-0.35 -1.14,-1.01 0.05,-1.03 -1.23,-1.58 -1,-2.94 0.21,-4.06 -0.54,-4.36 -2.8,-4.74 -2.79,-2.08 -4.78,-0.42 -10.44,1.54 -4.08,-1.7 -2.65,-1.94 -3.07,-3.19 -2.39,-1.3 -2.58,0.71 -3.17,3.58 -0.6,1.24 -2.06,2 -3.4,2.47 -4.29,2.19 -6.93,2.62 -1.31,0.99 -1.03,1.93 -0.57,1.08 -1.57,8.03 -1.5,4.16 -0.71,5.15 -1.21,1.17 -4.48,2.01 -2.97,4.89 -0.19,5.47 0.81,5.81 -0.57,1.51 -0.36,0.26 -1.09,0.78 -2.37,3.43 -3.12,7.05 -0.29,2.37 0.08,2.35 3.28,5.47 1.31,5.78 0.21,2.6 -1.95,4.77 -0.1,0.81 -0.1,0.8 0.54,1.34 1.8,1.92 0.24,0.45 1.74,3.32 0.57,2.33 -0.4,2.98 -1.39,3.01 0.37,2.45 -0.76,0.62 0.76,2 -2.36,5.05 0.42,4.58 2.64,3.56 3.94,3.14 0.83,3.24 -1.53,4.72 -8.6,1.54 -2.13,3.15 1.44,5.41 3.33,1.43 4.76,0.69 4.39,-1.58 3.24,-3.52 2.35,-1.39 0.94,-0.55 3.79,3.51 10.91,4.67 8,-0.04 3.14,3.28 -0.52,7.3 -1.8,2.81 -0.24,0.37 -8.69,0.23 -7.35,3 -7.45,7.37 -1.56,1.54 -8.08,3.88 -8.12,8.18 -1.57,2.62 -2.67,3.98 -1.52,7.56 0.75,8.2 -0.64,3.5 -3.45,6.55 -3.82,4.93 -3.35,6.73 0.47,4 1.94,3.13 2.76,2.29 4.28,1.14 7.82,-1.03 7.23,-1.8 16.99,1.23 3.64,-1.89 2.39,0.55 11.1,-1.7 2.53,-1.52 9.32,-9.98 5.58,-2.48 5.72,-4.18 1.67,-1.47 4.43,-3.91 2.72,-0.96 11.39,0.16 0.47,-17.33 7.38,-24.26 1.79,-5.37 4.17,-7.48 -2.13,-11.79 1.36,-3.83 -1.79,-2.87 1.68,-3.32 -3,-1.91 -1.68,-8.51 3.11,-3 1.09,-7.22 -2.88,-6.34 1.61,-2.34 -0.28,-1.38 -1.89,-2.18 -0.38,-8.72 0.49,-0.98 0.93,-1.86 0.56,-3.59 2.43,-3.29 2.26,-12.71 1.49,-2.94 0.42,-1.73 z"
      />
  <g
     id="stadiums"
     data-country="israel"
     data-circle-radius="6" data-circle-colors="#a149be,#bea149" />
</svg>
