<?xml version="1.0" encoding="UTF-8" standalone="no"?>
<?xml-stylesheet type="text/css" href="/styles/home.css"?>
<!-- https://www.amcharts.com/svg-maps -->

<svg version="1.1" xmlns="http://www.w3.org/2000/svg" id="map-italy"
   viewBox="0 0 610.15046 792.21057">
    <defs
       id="defs4">
      <style
         id="style2"
         type="text/css">
			.land
			{
				fill: #CCCCCC;
				fill-opacity: 1;
				stroke:white;
				stroke-opacity: 1;
				stroke-width:0.5;
			}
		</style>
      <!-- <amcharts:ammap projection="mercator" leftLongitude="6.624181" topLatitude="47.087088" rightLongitude="18.517034" bottomLatitude="35.490552"></amcharts:ammap> -->
      <!-- All areas are listed in the line below. You can use this list in your script. -->
      <!--{id:"VA"},{id:"SM"},{id:"FR-H"},{id:"MT"},{id:"IT_65"},{id:"IT-77"},{id:"IT-78"},{id:"IT-72"},{id:"IT-45"},{id:"IT-36"},{id:"IT-62"},{id:"IT-42"},{id:"IT-25"},{id:"IT-57"},{id:"IT-67"},{id:"IT-21"},{id:"IT-75"},{id:"IT-88"},{id:"IT-82"},{id:"IT-52"},{id:"IT-32"},{id:"IT-55"},{id:"IT-23"},{id:"IT-34"}-->
  </defs>
  <path
     id="VA"
     title="Vatican City"
     class="land"
     d="m 299.30308,371.7009 -0.11,-0.11 -0.1,0.03 -0.17,0.04 -0.16,0.26 -0.03,0.06 0.06,0.08 0.06,-0.02 0.26,0.06 0.2,-0.08 0.02,-0.06 -0.04,-0.08 z"
     style="fill:#cccccc;fill-opacity:1;stroke:#ffffff;stroke-width:0.5;stroke-opacity:1" />
  <path
     id="SM"
     title="San Marino"
     class="land"
     d="m 301.08308,231.4809 v 0 l 0.82,-5.31 -5.36,2.51 0.28,3.61 v 0 l 0.04,0.1 z"
     style="fill:#cccccc;fill-opacity:1;stroke:#ffffff;stroke-width:0.5;stroke-opacity:1" />
  <path
     id="FR-H"
     title="Corsica,  France"
     class="land"
     d="m 143.73308,295.2109 2.08,1.75 1.51,12.62 -2.38,9.33 4.52,9.28 1.01,28.6 -7.31,11.7 -1.17,20.28 -5.52,3.51 0.34,2.1 1.57,-2.06 2.55,0.92 -4.82,4.16 0.24,4.51 -3.18,3.74 2.21,-0.29 -4.09,3.38 -4.43,-2.03 1.3,-3.3 -17.01,-7.72 0.17,-4.98 6.29,-4.26 -6.75,-0.58 -0.35,-2.83 -5.95,0.06 5.79,-4.88 1.6,-5.75 -1.06,-1.88 -8.95,1.99 -0.77,-4.91 2.86,-0.24 0.6,-3.01 4.47,-2.56 -2.43,-4.32 -2.09,0.81 -5.220005,-3.1 1.190005,-4.13 -2.100005,-2.19 7.940005,-2.02 -4.64,-2.69 0.61,-3 -2.960005,1.18 -0.79,-2.48 5.750005,-3.28 1.27,-3.71 -1.6,-0.67 3.96,-7.35 3.23,2.16 0.68,-3.38 10.92,-2.69 5.62,-6.27 4.98,-0.26 3.94,4.07 2.36,-4.12 -1.81,-6.76 2.66,-6.34 -1.08,-4.88 z"
     style="fill:#cccccc;fill-opacity:1;stroke:#ffffff;stroke-width:0.5;stroke-opacity:1" />
  <path
     id="MT"
     title="Malta"
     class="land"
     d="m 397.34308,760.0909 0.74,3.2 2.3,-0.96 4.71,3.57 -1.02,1.49 3.57,0.4 -0.43,3.34 -7.19,-0.37 -4.42,-3.34 -0.9,-5.78 z m -6.95,-5.45 5.23,3.1 -7.56,-0.12 -0.18,-2.54 z"
     style="fill:#cccccc;fill-opacity:1;stroke:#ffffff;stroke-width:0.5;stroke-opacity:1" />
  <path
     id="IT_65"
     title="Abruzzo"
     class="land"
     d="m 374.27308,303.5909 9.87,23.03 15.25,13.86 4.87,7.21 10.72,5.53 0.21,4.85 3.43,2.43 v 0 l -15.06,21.11 -2.04,-0.37 -1.38,-6 -4.06,-0.52 -3.16,-3.32 -6.98,5.65 2.35,5.47 -3.76,0.15 -0.63,2.64 -1.95,-1.98 -2.48,3.91 -3.97,-0.46 v 0 l -2.49,-3.27 -6.72,-0.97 -1.75,-3.31 -4.17,-0.94 -5.11,3.44 -5.53,-4.6 -3.13,0.66 -0.72,-7.33 -11.54,-6.22 -4.43,-0.12 -1.41,-2.25 0.15,-4.92 2.86,-1.42 0.05,-2.39 8.29,3.4 6.8,-3.71 -11.63,-11.99 2.08,-2.33 -3.99,-3.74 3.18,-2.42 -1.1,-4.24 1.79,-3.34 5.29,1.29 5.11,-1.63 0.76,-3.43 -3.14,-2 0.54,-1.68 v 0 0 0 0 0 l 7.08,-3.15 1.88,-5.42 6.47,0.79 3.15,-3.53 9.88,-2.66 v 0 z"
     style="fill:#cccccc;fill-opacity:1;stroke:#ffffff;stroke-width:0.5;stroke-opacity:1" />
  <path
     id="IT-77"
     title="Basilicata"
     class="land"
     d="m 457.43308,429.7009 1.01,-2.46 10.56,0.55 5.26,-3.61 8.61,6.71 -3.03,5.5 7.18,3.89 4.14,-1.31 2.94,6.46 7.34,7.79 5.01,-3.62 2.04,2.47 1.87,-2.56 4.58,1.04 2.92,2.22 -0.13,15.72 4.33,1.58 2.89,4.95 v 0 l -11.04,17.67 v 0 l -11.49,-1.74 -3.56,16.43 -4.14,-2.57 -2.95,2.41 -8.62,0.07 -2.03,-3.96 1.24,-2.23 -5.19,-0.73 -5.56,0.09 -3.3,5.13 v 0 l -5.71,-7.93 v 0 l 8.19,-15.37 -13.78,-14.76 0.07,-5.11 -4.35,-2.63 2.44,-3.84 -5.93,-3.85 0.17,-4.85 -2.66,-2.52 2.1,-0.15 -0.47,-3.32 4.79,1.08 3.37,-2.8 2.26,-5.87 z"
     style="fill:#cccccc;fill-opacity:1;stroke:#ffffff;stroke-width:0.5;stroke-opacity:1" />
  <path
     id="IT-78"
     title="Calabria"
     class="land"
     d="m 468.31308,505.5909 3.31,-5.13 5.55,-0.09 5.19,0.73 -1.24,2.23 2.03,3.96 8.62,-0.07 2.95,-2.4 4.14,2.56 3.56,-16.42 11.49,1.74 v 0 l -2.25,5.07 1.36,5.79 -7.1,10.46 1.49,8.71 5.08,3.01 8.04,0.12 4.72,5.33 15,9.22 -2.36,5.88 1.93,6.86 -1.96,6.55 4.91,5.42 -5.74,8.77 -5.93,-3.02 -4.69,0.74 -14.47,7.55 -3.65,6.55 2,18.52 -5.65,5.88 -7.24,3.06 -8,10.12 -3.55,11.61 -5.03,2.64 -12.22,-0.17 -6.42,-6.48 -0.02,-13.9 8.56,-3.2 5.86,-12.41 0.75,-4.87 -5.32,-4.76 0.48,-1.82 7.77,-4.94 7.61,0.22 4.39,-8.38 -0.29,-5.12 -6.11,-7.07 -5.16,-26.8 -6.3,-7.6 -3.03,-8.1 z"
     style="fill:#cccccc;fill-opacity:1;stroke:#ffffff;stroke-width:0.5;stroke-opacity:1" />
  <path
     id="IT-72"
     title="Campania"
     class="land"
     d="m 389.94308,463.1309 2.01,0.24 -3.62,1.33 z m -18.31,-13.47 4.41,1.2 -0.16,2.84 -5.11,-0.42 z m 5.6,-47.67 3.3,4.74 3.45,0.38 -1.65,-4.09 2.2,-4.03 2.29,1.91 3.84,-1.31 18.41,9.03 3.2,-2.95 4.79,-0.07 1.72,-2.89 4.01,1.7 7.2,-3.91 v 0 l 4.67,3.63 -1.38,6.75 10.53,5.68 -3.6,6.59 2.3,2.66 5.94,1.73 1.7,-1.29 7.27,3.46 v 0 l 1.37,3.97 -2.26,5.87 -3.37,2.8 -4.79,-1.09 0.47,3.33 -2.1,0.15 2.67,2.52 -0.17,4.85 5.93,3.85 -2.44,3.84 4.35,2.63 -0.06,5.11 13.77,14.76 -8.19,15.37 v 0 l -3.64,-2.34 -7.82,5.81 -7.63,-2.01 -0.02,-3.51 -7.3,-6.43 -4.68,0.06 -6.33,-4.44 4.08,-11 -6.05,-12.56 -5.33,-5.6 -10.14,3.98 -4.78,-0.92 -8.06,3.87 0.78,-4.1 7.17,-4.56 -1.08,-3.17 -9.4,-6.72 -4.49,3.49 -4.75,-2.58 -0.25,3.47 -2.25,-0.76 -1.12,-8.45 -13.29,-20.86 v 0 l 6.62,-5.05 -1.54,-8.19 z"
     style="fill:#cccccc;fill-opacity:1;stroke:#ffffff;stroke-width:0.5;stroke-opacity:1" />
  <path
     id="IT-45"
     title="Emilia-Romagna"
     class="land"
     d="m 314.31308,227.7409 -0.94,7.21 -3.06,3.09 -2.92,-0.36 -1.31,-3.87 -2.72,1.13 -2.28,-3.46 v 0 l 0.82,-5.31 -5.36,2.51 0.28,3.6 v 0 0 0 l 1.21,2.22 -3.95,-0.04 -3.81,7.73 v 0 l -0.04,-0.03 v 0 l -4.51,2.49 -1.55,-2.31 -4.58,1.54 -8.27,-4.98 -4.66,-0.21 -5.58,-4.41 0.27,-3.06 -3.66,-4.93 5.2,-9.66 -8.12,0.74 1.26,-3.14 -4.83,0.21 -4.79,-5.7 -7.43,5.79 -3.99,0.14 3.07,3.72 -11.72,0.4 -1.33,-3.1 -4.86,5.46 -8.26,-6.69 -5.57,-0.13 -2.6,3 -5.35,-7.58 -9.63,-4.68 -2.38,1.19 -5.63,-5.95 -6.72,-2.43 -0.59,-3.89 -3.99,-2.32 -5.35,0.59 -7.01,7.45 v 0 l -4.12,-5.31 -8.45,1.35 2.86,-4.72 -0.37,-5.51 -4.02,-2.84 -2.44,1.79 -8.2,-2.89 v 0 l 0.47,-4.89 v 0 l 1.75,-0.11 -0.32,-2.02 1.31,2.51 3.23,-0.85 -2.01,-5.68 3.85,-3.88 -4.52,-5.28 0.65,-2.65 6.49,-10.91 4.39,-1.35 1.57,1.86 0.5,-3.76 2.33,2.03 1.93,-2.45 0.76,3.75 4.18,1.79 2.24,-3.78 3.05,4.35 0.93,-3.21 2.9,1.12 -0.94,-2.75 1.8,-1.46 0.35,2.8 3.77,-2.12 5.31,7.77 3.33,-1.56 10.19,5.54 2.45,-1.34 6.04,5.15 3.94,-0.17 6.55,-5.42 0.97,3.12 7.26,2.5 9.41,-3.55 3.87,2.19 7.94,-2.16 6.23,0.92 v 0 l 0.16,1.49 5.7,-0.37 3.25,3.28 10.09,-6.49 15.17,0.37 2.29,3.08 6.98,-1.05 0.53,5.22 3.23,3.64 v 0 l -3.03,-2.03 -1.73,2.28 -0.98,8.85 6.36,31.27 8.46,11.35 z m -26.65,11.33 v 0 l -3.04,1.1 1.37,1.59 1.88,-2.23 z"
     style="fill:#cccccc;fill-opacity:1;stroke:#ffffff;stroke-width:0.5;stroke-opacity:1" />
  <path
     id="IT-36"
     title="Friuli-Venezia Giulia"
     class="land"
     d="m 316.64308,33.840901 2.64,2.44 16.36,1.37 3.66,2.76 6.87,-2.04 17.56,4.34 -1.5,6.1 -4.82,0.09 -11.16,10.42 1.89,6.28 3.58,-1.04 9.26,3.31 -9.64,12.95 3.05,2.85 5.55,-1.38 -3.41,9.54 1.04,3.26 10.22,4.55 6.39,8.319999 -4.12,3.68 -6.12,-0.79 4.6,-1.45 -3.49,-1.95 0.51,-3 -6.15,-6.589999 -4.19,-1.16 -1.56,3.14 1.76,1.419999 -6.28,3.41 -9.79,-2.9 -4.23,1.12 -2.88,4.42 v 0 l -4.73,-6.17 -2.33,-8.729999 -1.69,2.16 -3.49,-2.47 -2.73,2.13 -1.33,-2.56 -6.53,5.01 -1.29,-3.03 -3.92,-0.1 -2.43,-6.99 -3.96,-1.56 -1.66,-6.87 4.67,-4.77 0.45,-3.58 -9.01,-8.4 10.73,-14.67 6.69,-0.03 -1.5,-3.48 6.01,-2.24 -0.96,-6.89 v 0 z"
     style="fill:#cccccc;fill-opacity:1;stroke:#ffffff;stroke-width:0.5;stroke-opacity:1" />
  <path
     id="IT-62"
     title="Lazio"
     class="land"
     d="m 324.50308,439.0209 2.24,-1.01 -2.05,3.84 z m 52.73,-37.03 -5.95,3.1 1.54,8.19 -6.62,5.06 -6.84,-2.57 -3.98,3.78 -13.28,-6.25 -12.61,4.76 -6.59,-10.63 -15.32,-4.3 -10.4,-14.3 -9.89,-5.95 -4.06,-11.66 -11.61,-8.44 -4.27,0.63 -9.25,-17.22 -10.57,-6.87 1.86,-4.15 6.8,-0.08 -0.09,-3.43 -2.79,-1.91 0.92,-3.7 3.24,0.07 8.42,-5.68 -1.54,-4.18 2.27,-2.35 -3.78,-2.96 1.16,-2.44 1.9,1.79 2.13,-3.08 2.48,0.14 4.4,5.68 -2.85,3.03 1.29,2.11 4.14,2.56 8.49,-1.28 4.8,12.05 6.56,-0.42 1.12,7.05 3.64,-0.52 0.82,2.68 4.33,-3.36 0.22,-3.88 3.29,1.73 2.99,-1.97 -1.37,-2.04 9.22,-4.4 -0.04,-3.72 13.29,-2.25 2.08,-5.73 4.92,-0.49 3.68,3.16 -0.54,1.69 3.14,1.99 -0.76,3.44 -5.11,1.62 -5.29,-1.28 -1.79,3.34 1.1,4.24 -3.18,2.42 3.99,3.74 -2.09,2.34 11.64,11.99 -6.8,3.71 -8.29,-3.4 -0.05,2.4 -2.85,1.42 -0.15,4.92 1.4,2.25 4.43,0.12 11.55,6.22 0.72,7.34 3.13,-0.66 5.53,4.6 5.11,-3.44 4.17,0.95 1.75,3.31 6.72,0.97 2.5,3.27 4.18,8.82 z m -77.9,-30.03 -0.04,-0.08 0.01,-0.18 -0.11,-0.11 -0.09,0.03 -0.17,0.04 -0.16,0.26 -0.03,0.06 0.07,0.08 0.06,-0.02 0.26,0.06 0.2,-0.08 z"
     style="fill:#cccccc;fill-opacity:1;stroke:#ffffff;stroke-width:0.5;stroke-opacity:1" />
  <path
     id="IT-42"
     title="Liguria"
     class="land"
     d="m 55.983075,220.9909 2.35,-1.4 -2.22,-1.42 2.41,-2.62 9,2.88 3.6,-0.18 -1.44,-2.22 1.84,-1.52 2.95,0.53 -0.47,-11.11 1.88,0.11 2.34,-5.62 3.19,-1.76 -0.62,-5.21 2.89,-3.59 5.91,4.32 5.28,-3.95 4.55,1.48 3.180005,-5.87 3.56,0.2 4.35,6.24 2.63,-4.88 4.59,0.11 -1.74,-5.28 3.81,-3.16 9.07,7.44 3.46,-2.92 v 0 l 8.2,2.89 2.44,-1.79 4.02,2.84 0.37,5.51 -2.85,4.72 8.45,-1.35 4.12,5.31 v 0 l 8.95,6.57 0.47,6 2.08,-1.75 1.47,1.02 -1.99,2.04 3.93,-0.13 0.65,4.98 1.78,-1.5 2.37,1.47 -2.5,3.93 v 0 l -2.77,0.6 -6.24,-5.13 -0.52,4.27 -30.67,-21.22 -0.97,3.44 -3.64,-1.69 -0.17,-2.74 -18.16,-4.58 -14.620005,7.21 -3.08,3.62 -0.77,5.6 -8,4 -5.4,10.33 0.52,2.77 -5.2,4.55 -20.61,8.15 -6.95,-0.28 -2.07,-6.71 7.95,-7.16 z"
     style="fill:#cccccc;fill-opacity:1;stroke:#ffffff;stroke-width:0.5;stroke-opacity:1" />
  <path
     id="IT-25"
     title="Lombardia"
     class="land"
     d="m 186.10308,35.210901 -0.13,3.14 2.55,1.93 8.14,1.45 v 0 l 1.15,2.7 6.4,2.07 1.64,4.94 -6.04,4.22 2.64,1.27 1.04,5.89 -2.15,10.17 -4.73,8.75 2.93,5.34 -0.39,6.41 3.29,3.34 4.12,-1.4 0.47,-2.15 9.64,0.08 v 0 l -11.09,16.499999 0.73,13.73 4,0.5 -0.98,7.69 2,1.37 2.41,-2 10.43,8.62 4.25,6.98 3.73,-1.99 3,1.12 -1.45,3.65 4.55,0.31 0.01,2.46 8.2,5.32 v 0 l -6.23,-0.92 -7.94,2.16 -3.87,-2.19 -9.41,3.55 -7.26,-2.5 -0.97,-3.12 -6.55,5.42 -3.94,0.17 -6.04,-5.15 -2.45,1.34 -10.19,-5.54 -3.33,1.56 -5.31,-7.77 -3.77,2.12 -0.35,-2.8 -1.8,1.46 0.94,2.75 -2.9,-1.12 -0.93,3.21 -3.04,-4.35 -2.24,3.78 -4.18,-1.79 -0.76,-3.75 -1.93,2.45 -2.33,-2.03 -0.5,3.76 -1.57,-1.86 -4.39,1.35 -6.48,10.91 -0.65,2.66 4.52,5.28 -3.85,3.88 2.02,5.68 -3.23,0.86 -1.31,-2.51 0.32,2.02 -1.75,0.11 v 0 l 0.26,-4.85 -2.74,-4.61 -4.62,-0.16 -0.82,-5.11 -7.81,-8.52 -0.29,-3.2 -6.42,3.05 -2.97,-2.17 -0.46,1.76 -3.32,-1.92 -1.36,-6.11 -3.690005,-3.22 1.790005,-2.57 -2.670005,0.57 1.58,-3.02 -2.98,-3.69 2.98,-5.12 3.960005,0.89 3.09,4.09 3.54,-3.89 -2.17,-2.32 6.39,-1.16 -2.97,-6.63 -3.51,-1.81 -3.49,-15.11 -3.05,-0.91 -2.020005,-3.819999 2.140005,-3.85 -1.280005,-4.95 8.050005,-8.76 -0.38,-6.16 v 0 l 1.21,-1.33 5.68,3.46 -3.51,6.18 5.77,2.5 2.51,6.55 -1.75,2.63 6.41,0.99 2.78,-5.83 -5.1,-5.19 1.89,-1.73 -1.13,-3.27 3.57,-2.13 -0.19,-4.04 9.09,-8.55 2.51,-6.76 -2.59,-8.57 1.52,-4.03 4.4,-0.99 2.5,3.1 2.7,-3.12 -0.07,9.95 4.41,5.46 8.27,0.73 1.41,-4.28 2.11,1.1 8.98,-3.27 2.26,2.05 0.15,5 2.92,1.49 -0.53,2.56 3.94,0.37 2.76,-2.36 -3.65,-5.61 3.14,-5.72 -6.48,-2.62 0.23,-7.05 2.97,-5.29 z"
     style="fill:#cccccc;fill-opacity:1;stroke:#ffffff;stroke-width:0.5;stroke-opacity:1" />
  <path
     id="IT-57"
     title="Marche"
     class="land"
     d="m 353.18308,251.8009 -2.9,1.26 -7.56,-4.21 -20.49,-17.97 -7.92,-3.14 v 0 l -0.94,7.21 -3.06,3.09 -2.92,-0.36 -1.31,-3.87 -2.72,1.13 -2.28,-3.46 v 0 l -4.22,0.92 v 0 l -0.04,-0.1 v 0 l 1.21,2.22 -3.95,-0.04 -3.81,7.73 v 0 l 0.13,0.1 v 0 l 4.44,3.93 -2.72,2.14 -0.61,-3.72 -0.44,3.12 -5.74,3.06 1.45,2.23 v 0 l 4.16,1.69 3.95,-1.8 -2.95,4.92 4.06,2.42 1.42,-2.09 3.95,1.16 6.36,7.29 7.76,-2.61 -1.23,5.37 5.96,12.03 -1.76,4.45 3.31,3.67 0.02,8.98 4,2.6 0.12,4.04 1.22,-3.07 2.69,-0.61 5.51,6.24 3.92,-2.43 1.16,5.43 -3.47,3.91 v 0 l 4.92,-0.49 3.68,3.16 v 0 l 7.08,-3.15 1.88,-5.42 6.46,0.79 3.15,-3.52 9.88,-2.67 v 0 l -14.78,-45.89 z m -55.14,2.42 -0.74,-0.26 v 0 l -0.19,-0.06 v 0 l 0.89,-0.37 v 0 l 0.1,0.53 v 0 z"
     style="fill:#cccccc;fill-opacity:1;stroke:#ffffff;stroke-width:0.5;stroke-opacity:1" />
  <path
     id="IT-67"
     title="Molise"
     class="land"
     d="m 419.07308,360.8909 10.43,3.82 7.13,5.57 v 0 l -2.06,10.86 3.11,4.08 -6.94,5.9 -3.24,-1.5 -1.25,1.52 0.2,6.38 3.55,2.97 v 0 l -7.21,3.91 -4.01,-1.71 -1.72,2.9 -4.79,0.07 -3.2,2.96 -18.41,-9.03 -3.84,1.31 -2.29,-1.91 -2.2,4.03 1.65,4.09 -3.45,-0.38 -3.3,-4.74 v 0 l 2.45,-6.39 -4.18,-8.82 v 0 l 3.97,0.46 2.48,-3.91 1.95,1.98 0.63,-2.64 3.76,-0.15 -2.35,-5.47 6.98,-5.65 3.16,3.32 4.06,0.52 1.38,6 2.04,0.37 15.06,-21.11 v 0 z"
     style="fill:#cccccc;fill-opacity:1;stroke:#ffffff;stroke-width:0.5;stroke-opacity:1" />
  <path
     id="IT-21"
     title="Piemonte"
     class="land"
     d="m 93.253075,46.700901 1.67,5.06 -1.47,10.96 4.47,2.27 4.130005,7.06 5.47,1.36 v 0 l 0.38,6.16 -8.050005,8.76 1.280005,4.96 -2.140005,3.85 2.020005,3.819999 3.05,0.91 3.49,15.11 3.51,1.81 2.97,6.63 -6.39,1.16 2.17,2.32 -3.54,3.89 -3.08,-4.09 -3.970005,-0.89 -2.97,5.12 2.98,3.69 -1.58,3.03 2.670005,-0.57 -1.790005,2.57 3.690005,3.22 1.36,6.12 3.31,1.91 0.46,-1.75 2.98,2.16 6.42,-3.05 0.29,3.21 7.81,8.51 0.82,5.11 4.62,0.16 2.74,4.61 -0.25,4.85 v 0 l -0.47,4.89 v 0 l -3.46,2.92 -9.07,-7.45 -3.81,3.16 1.74,5.28 -4.59,-0.11 -2.62,4.88 -4.36,-6.24 -3.55,-0.21 -3.180005,5.88 -4.55,-1.49 -5.28,3.96 -5.91,-4.32 -2.89,3.59 0.62,5.2 -3.18,1.76 -2.34,5.63 -1.88,-0.11 0.47,11.11 -2.95,-0.53 -1.84,1.51 1.44,2.22 -3.6,0.19 -9,-2.88 -2.41,2.62 2.22,1.42 -2.35,1.4 v 0 l -2.38,-4.78 0.9,-3.11 -16.78,4.23 -8.68,-6.11 -9.25,-2.45 -6.12,-9.04 0.28,-4.23 2.86,-0.56 -4.73,-7.26 5.72,-6.29 -0.27,-4.13 5.87,-0.69 -3.94,-7.35 0.3,-3.61 -7.28,-0.81 -5.7699996,-3.97 -0.35,-7.86 -3.63,-0.41 -2.41999998,-6.2 7.25999998,-3.94 6.4299996,1.66 0.01,-2.3 2.69,-0.1 2.83,-3.63 3.49,0.6 2.87,-2.52 -0.74,-5.91 3.96,-5.68 -4.36,-4.46 v 0 l 1.77,-3.56 0.36,2.85 3.97,0.39 13.73,-8.1 12.45,2.33 4.89,-3.47 3.65,0.45 1.77,-9.84 -3.69,-4.899999 v -9.11 0 l 2.29,-5.89 5.26,-1.05 1.15,-6.45 6.19,-3.3 -0.7,-5.91 -3.18,-2.61 11.9,-8.72 -0.2,-3.44 z"
     style="fill:#cccccc;fill-opacity:1;stroke:#ffffff;stroke-width:0.5;stroke-opacity:1" />
  <path
     id="IT-75"
     title="Puglia"
     class="land"
     d="m 481.74308,368.7409 8.76,4.49 0.5,5.53 -1.75,3.33 -13.41,9.49 2.65,10.42 32.34,17.33 26.06,9.75 19.83,15.95 27.84,12.53 2.94,7.83 17.63,15.51 4.74,10.71 -5.56,10.63 -0.85,10.56 -2.32,1.88 -15.36,-9.26 -2.72,-4.74 1.02,-2.45 -2.08,-1.12 1.92,-3.62 -7.82,-11.93 -17.84,-0.64 -15.65,-7.56 2.44,-3.24 -7.07,-4.23 -7.32,2.47 -5.69,6.67 v 0 l -2.89,-4.94 -4.33,-1.58 0.13,-15.72 -2.92,-2.22 -4.58,-1.04 -1.87,2.56 -2.04,-2.47 -5.01,3.62 -7.34,-7.79 -2.94,-6.46 -4.13,1.31 -7.19,-3.89 3.03,-5.5 -8.61,-6.71 -5.25,3.61 -10.56,-0.56 -1.02,2.47 v 0 l -7.27,-3.46 -1.7,1.29 -5.94,-1.73 -2.3,-2.66 3.6,-6.59 -10.53,-5.68 1.38,-6.75 -4.67,-3.63 v 0 l -3.55,-2.97 -0.2,-6.38 1.25,-1.52 3.24,1.5 6.95,-5.9 -3.11,-4.08 2.06,-10.86 v 0 l 14.87,1.78 z"
     style="fill:#cccccc;fill-opacity:1;stroke:#ffffff;stroke-width:0.5;stroke-opacity:1" />
  <path
     id="IT-88"
     title="Sardegna"
     class="land"
     d="m 89.773075,559.3009 2.81,0.31 2.12,3.57 -2.7,6.51 -2.8,-5.35 z m -3.19,-4.53 -0.13,5.46 -1.62,0.38 -2.84,-3.56 z m 0.69,-129.37 0.61,4.65 -2.73,-1.27 -2.18,3.03 1.01,2.8 -2.3,-0.29 0.52,-3.67 z m 59.040005,-8.33 0.48,3.84 -2.3,0.35 z m -12.4,-1.11 2.83,5.07 3.97,-1.59 3.1,1.99 0.99,5.79 1.21,-3.42 2.79,-1 2.4,2.81 -2.99,7.27 2.71,-1.92 -0.53,2.25 2.24,-1.26 3.55,1.83 -4.25,0.82 -0.37,3.71 h -3.63 l 4.47,2.41 2.74,-1.81 -1.48,1.88 1.71,2.47 3.77,1.08 -2.6,3.65 4.2,7.56 0.03,5.11 3.78,4.57 -3.14,9.17 -7.18,8.9 1.37,7.48 4.08,3.91 -2.4,7.48 1.6,3.18 -1.83,1.85 -1.81,29.15 -2.47,7.5 1.78,3.31 -2.63,2.16 -0.16,5.91 -2.9,5.41 -11.62,-7.8 -4.44,-0.93 -2.6,3 -2.56,-2.06 -4.67,4.09 0.17,10.93 -8.37,6.96 -6.97,-4.13 -4.1,4.93 -3.990005,-11.77 -4.57,-1.02 -0.25,-3.41 -5.26,-6.65 3.42,-5.16 -3.18,-5.59 4.97,-15 -1.27,-10.25 3.24,2.18 2.36,-9.11 -1.52,-2.77 -4.32,1.82 -2.19,-2.07 0.78,-7.45 -1.82,-1.06 3.93,-1.04 1.92,-3.47 -1.77,-4.92 1.33,-7.34 -5.12,-3.51 -0.47,-10.18 -3.76,-6.69 -4.9,1.51 -0.36,-3.42 -2.38,2.66 2.84,-7.1 -3.72,-3.13 4.67,-10.53 -2.4,-3.34 1.4,-2.4 1.72,1.24 -0.25,2.86 4.13,4.43 12.71,0.86 6.830005,-5.52 5.01,-0.74 11.22,-13.46 7.99,-3.05 -1.23,-5.25 z m 9.68,-0.66 1.03,3.51 -2.96,0.46 z"
     style="fill:#cccccc;fill-opacity:1;stroke:#ffffff;stroke-width:0.5;stroke-opacity:1" />
  <path
     id="IT-82"
     title="Sicilia"
     class="land"
     d="m 302.99308,789.6209 4.91,0.51 0.32,1.67 z m -29.42,-82.98 4.95,2.53 -1.3,4.02 -5.19,-4.21 z m 18.1,-71.64 2.99,3 -4.13,-0.56 z m -12.51,-2.44 1.33,2.86 -2.49,-0.75 -0.7,-2.16 z m 179.1,-20 5.16,2.28 -4.27,2.01 -4.05,10.31 -14.54,20.68 -1.84,11.51 -4.66,5.82 0.59,10.6 8.16,5 -1.69,1.76 -1.61,-1.47 -0.33,3.21 2.44,4.56 3.17,0.73 -1.07,4.24 3.11,2.37 -3.09,-0.28 -6.3,5.99 -2.96,7.3 2.31,7.29 -3.04,2.34 -3.2,-3.39 -7.2,-1.85 -4.95,1.71 -14.74,-5.24 -5.81,-11.15 -6.02,-6.1 -9.89,-3.44 -8.46,0.97 -7.9,-3.51 -10.05,-8.65 -5.38,-0.55 -9.08,-6.2 -5.49,-6.69 -7.47,-0.07 -5.26,-5.24 -12.44,1.08 -3.42,-5.2 -6.71,-3.8 -2.63,-6.56 3.09,-4.74 -1.42,-2.15 3.1,-5.46 -1.48,-1.6 11.32,-6.02 1.05,-5.19 8.7,10.68 9.07,-4.08 -1.28,-3.3 2.86,-3.53 4.26,1.51 6.48,-3.56 3.35,7.56 7.92,-0.32 1.58,4.78 10.22,4.46 13.11,-4.65 13.51,2.2 9.85,-1.71 8.22,-2.63 5.6,-5.98 8.5,-1.71 9.48,4.55 6.14,-4.69 0.27,-5.01 1,3.57 2.25,0.63 z m -30.68,-7.75 2.19,3.16 -2.74,-0.91 z m 0.11,-6.72 -0.46,5.36 -2.89,-3.04 z m -7.23,-4.01 2.57,0.12 -0.03,2.87 -3.86,-1.59 z m 20.74,-14.85 -0.64,2.56 -1.31,-1.3 z"
     style="fill:#cccccc;fill-opacity:1;stroke:#ffffff;stroke-width:0.5;stroke-opacity:1" />
  <path
     id="IT-52"
     title="Toscana"
     class="land"
     d="m 189.44308,341.0609 0.86,1.8 -1.77,0.56 z m 29.33,-2.75 1.75,5.05 -2.8,-2.57 z m -41.31,-15.88 0.43,3.59 -2.22,-0.98 z m 17.33,-17.27 0.88,6.2 -2.52,1.36 1.9,3.57 -4.16,-3.89 -1.14,1.91 -0.9,-1.6 -7.46,2.37 -2.84,-2.86 1.93,-2.99 5.39,1.48 0.92,-2.94 4.77,2.18 z m 93.01,-65.78 0.08,0.16 v 0 l -1.88,2.23 -1.37,-1.59 3.04,-1.1 v 0 z m -130.75,-39.65 7.01,-7.45 5.35,-0.59 3.99,2.32 0.59,3.89 6.72,2.43 5.63,5.96 2.38,-1.19 9.63,4.68 5.35,7.58 2.6,-3 5.57,0.13 8.26,6.69 4.86,-5.46 1.33,3.1 11.72,-0.4 -3.07,-3.72 3.99,-0.14 7.43,-5.79 4.79,5.7 4.83,-0.21 -1.26,3.14 8.13,-0.74 -5.2,9.66 3.67,4.93 -0.27,3.06 5.58,4.41 4.67,0.21 8.27,4.98 4.58,-1.54 1.55,2.31 4.51,-2.49 v 0 l 0.17,0.13 v 0 l 4.44,3.93 -2.72,2.14 -0.61,-3.72 -0.44,3.12 -5.74,3.06 1.45,2.23 v 0 l -3.25,5.72 -2.75,0.38 2.34,3.8 -5.94,4 4.66,3.51 0.81,4.9 4.67,-0.13 -6.67,4.18 -3.02,-0.86 -0.49,4.06 -5.18,3.05 0.06,4.98 2.89,1.88 -2.42,9.85 1.25,2.56 -3.22,2.42 v 0 l -2.48,-0.14 -2.13,3.08 -1.9,-1.79 -1.16,2.44 3.78,2.96 -2.27,2.35 1.54,4.18 -8.42,5.68 -3.24,-0.07 -0.92,3.7 2.79,1.91 0.09,3.43 -6.8,0.08 -1.85,4.15 v 0 l -9.54,-2.9 -2.73,0.72 -1.1,3.18 -4.8,-2.07 -0.44,-2.58 4.07,-0.56 1.32,-5.18 -5.37,-8.14 -4.14,-1.77 -3.14,-6.01 -10.9,-4.2 2.87,-6.07 -2.46,-2.81 -6.06,-1.8 -6.43,1.56 2.22,-10.95 -0.66,-11.12 -11.64,-20.19 -3.03,-23.7 -5.04,-7.69 -6.28,-4.69 v 0 l 2.5,-3.92 -2.37,-1.47 -1.78,1.5 -0.65,-4.98 -3.93,0.14 1.99,-2.04 -1.47,-1.02 -2.08,1.75 -0.47,-6 z"
     style="fill:#cccccc;fill-opacity:1;stroke:#ffffff;stroke-width:0.5;stroke-opacity:1" />
  <path
     id="IT-32"
     title="Trentino-Alto Adige"
     class="land"
     d="m 286.23308,0.27090113 1.73,1.35999997 -1.7,2.99 -4.29,1.58 2.45,5.3199999 -1.3,1.92 3.71,2.75 3.13,-0.66 1.58,3.22 -1.19,4.17 3.62,0.65 1.37,4.26 5.04,2.91 v 0 l -5.14,4.38 -6.2,-0.65 -3.34,2.65 -0.11,-2.26 -6.31,-3.76 -3.5,10.42 -9.36,2.61 3.55,3.45 -2.57,6.38 -3.17,0.69 9.7,12.25 -3.42,5.11 -10.57,2.1 -0.9,9.54 -4.21,-0.3 -2.43,-3.41 -8.51,2.33 -1.24,5.54 -2.55,-2.12 -2.4,1.18 -6.53,16.919999 -5.61,-2.34 -3.83,3.3 -5.08,-3.09 2.69,-6.639999 -2.68,-1.66 v 0 l -9.63,-0.08 -0.48,2.15 -4.12,1.4 -3.29,-3.35 0.39,-6.41 -2.93,-5.34 4.74,-8.75 2.14,-10.17 -1.04,-5.89 -2.64,-1.27 6.05,-4.22 -1.64,-4.94 -6.41,-2.07 -1.14,-2.69 v 0 l 1.89,-5.96 -4.57,-1.77 -0.84,-3.65 4.66,-12.91 3.55,1.58 6.09,-2.84 4.97,3.88 -1.75,2.64 14.94,1.58 3.23,-4.06 0.67,-6.86 3.53,-3.9499999 7.94,-1.99 4.31,2.06 3.87,-3.51 2.93,2.12 4.2,-2.24 6.58,3.29 11.63,-6.11 z"
     style="fill:#cccccc;fill-opacity:1;stroke:#ffffff;stroke-width:0.5;stroke-opacity:1" />
  <path
     id="IT-55"
     title="Umbria"
     class="land"
     d="m 298.04308,254.2209 -0.74,-0.26 v 0 l -0.19,-0.06 v 0 l 0.89,-0.37 v 0 l 0.1,0.53 v 0 z m -11.25,-1.16 4.16,1.69 3.95,-1.8 -2.95,4.92 4.06,2.42 1.42,-2.09 3.95,1.16 6.36,7.29 7.76,-2.61 -1.23,5.37 5.96,12.03 -1.76,4.45 3.31,3.67 0.02,8.98 4,2.6 0.12,4.04 1.22,-3.07 2.69,-0.61 5.51,6.24 3.92,-2.43 1.16,5.43 -3.47,3.91 v 0 l -2.08,5.73 -13.29,2.25 0.04,3.72 -9.22,4.4 1.37,2.04 -2.99,1.97 -3.29,-1.73 -0.22,3.88 -4.33,3.36 -0.82,-2.68 -3.64,0.53 -1.12,-7.05 -6.56,0.42 -4.8,-12.05 -8.49,1.29 -4.14,-2.56 -1.29,-2.11 2.86,-3.02 -4.4,-5.68 v 0 l 3.23,-2.42 -1.25,-2.56 2.42,-9.85 -2.89,-1.88 -0.06,-4.98 5.18,-3.05 0.49,-4.06 3.02,0.86 6.67,-4.18 -4.67,0.13 -0.81,-4.9 -4.66,-3.51 5.94,-4 -2.34,-3.8 2.75,-0.38 z"
     style="fill:#cccccc;fill-opacity:1;stroke:#ffffff;stroke-width:0.5;stroke-opacity:1" />
  <path
     id="IT-23"
     title="Valle d'Aosta"
     class="land"
     d="m 49.073075,82.010901 4.4,0.63 2.87,3.95 7.31,0.53 v 0 9.11 l 3.69,4.899999 -1.77,9.84 -3.65,-0.45 -4.89,3.47 -12.45,-2.33 -13.73,8.1 -3.97,-0.39 -0.36,-2.85 -1.77,3.56 v 0 l -5.24,-2.78 -0.01,-9.85 -4.34,-0.87 -5.4899996,-5.28 0.6199996,-8.289999 6.19,-0.74 5.22,-5.64 3.16,4.8 2.57,-1.55 1.86,1.5 5.2,-4.59 4.72,1.84 z"
     style="fill:#cccccc;fill-opacity:1;stroke:#ffffff;stroke-width:0.5;stroke-opacity:1" />
  <path
     id="IT-34"
     title="Veneto"
     class="land"
     d="m 302.26308,154.9109 1.19,0.9 -2.37,0.53 z m -0.37,-124.079999 11.33,3.22 v 0 l 0.96,6.89 -6.01,2.24 1.5,3.48 -6.69,0.03 -10.73,14.67 9.01,8.4 -0.45,3.58 -4.67,4.77 1.66,6.87 3.96,1.56 2.44,6.99 3.92,0.1 1.29,3.04 6.53,-5.01 1.33,2.56 2.73,-2.13 3.49,2.47 1.69,-2.16 2.33,8.729999 4.73,6.17 v 0 h -6.29 l -31.73,18.06 -3.36,11.17 1.85,10.77 3.02,4.33 -1.31,0.61 2.04,1.18 0.61,-2.05 4.3,5.37 -1.69,8.3 -2.28,-3.85 -1.67,2.11 1.98,4.09 -1.43,1.31 -2.41,-1.92 v 0 l -3.23,-3.64 -0.53,-5.22 -6.98,1.05 -2.29,-3.08 -15.17,-0.37 -10.09,6.5 -3.24,-3.27 -5.7,0.38 -0.16,-1.49 v 0 l -8.2,-5.32 v -2.46 l -4.55,-0.31 1.45,-3.65 -3,-1.12 -3.73,1.99 -4.25,-6.98 -10.43,-8.62 -2.41,2.01 -2,-1.37 0.98,-7.69 -4,-0.5 -0.73,-13.73 11.09,-16.499999 v 0 l 2.68,1.66 -2.69,6.639999 5.08,3.09 3.83,-3.3 5.61,2.34 6.53,-16.919999 2.4,-1.18 2.55,2.12 1.25,-5.53 8.51,-2.33 2.42,3.41 4.21,0.3 0.9,-9.54 10.57,-2.1 3.42,-5.11 -9.7,-12.25 3.17,-0.7 2.57,-6.37 -3.55,-3.46 9.36,-2.61 3.5,-10.42 6.32,3.76 0.11,2.26 3.34,-2.65 6.2,0.65 5.14,-4.38 v 0 z"
     style="fill:#cccccc;fill-opacity:1;stroke:#ffffff;stroke-width:0.5;stroke-opacity:1" />
     <g id="stadiums" data-country="italy"></g>
</svg>
