<?xml version="1.0" encoding="UTF-8" standalone="no"?>
<?xml-stylesheet type="text/css" href="/styles/home.css"?>
<!-- https://www.amcharts.com/svg-maps -->

<svg version="1.1" xmlns="http://www.w3.org/2000/svg" id="map-kosovo"
   viewBox="0 0 612.49115 696.71777">
    <defs
       id="defs4">
      <style
         id="style2"
         type="text/css">
			.land
			{
				fill: #f8997b;
				fill-opacity: 1;
				stroke:white;
				stroke-opacity: 1;
				stroke-width:0.5;
			}
		</style>
      <!-- <amcharts:ammap projection="mercator" leftLongitude="20.047335" topLatitude="43.270140" rightLongitude="21.814235" bottomLatitude="41.783403"></amcharts:ammap> -->
      <!-- All areas are listed in the line below. You can use this list in your script. -->
      <!--{id:"XK-PR"},{id:"XK-KM"},{id:"XK-DA"},{id:"XK-GN"},{id:"XK-PE"},{id:"XK-UR"},{id:"XK-PZ"}-->
  </defs>
  <path
     id="XK-PR"
     title="Pristina"
     class="land"
     d="m 252.0455,318.26057 1.24,-6.17 -2.2,-3.31 0.55,-3.87 2.48,-2.48 3.04,-7.45 7.73,-3.32 4.97,0.28 1.65,-3.31 -2.48,-6.9 1.38,-4.14 h 4.97 l 0.55,-3.04 2.76,-1.93 h 4.97 l 3.59,2.48 0.27,3.32 3.31,1.1 5.8,-4.14 1.11,-7.18 5.24,-0.27 6.9,-3.32 h 3.04 l 1.65,4.14 9.39,11.6 3.59,-0.28 9.66,-9.66 14.63,-10.21 -1.11,-4.97 0.83,-2.21 3.04,-0.55 1.1,-9.11 -4.41,-2.76 0.27,-3.04 11.04,-10.21 2.49,-0.55 v -2.21 l 5.79,-0.28 1.11,-5.24 -1.38,-5.52 -5.8,-5.52 -3.59,-0.83 -1.38,-14.91 -3.03,-4.41 -0.83,-5.8 -2.21,-3.31 v -6.07 l 3.86,-4.14 0.56,-8.56 2.76,-7.73 -0.28,-6.9 -8.28,-21.53 -6.63,-2.49 -1.93,-3.58 0.83,-4.97 -5.8,-3.04 -1.38,-6.24 -3.58,-4.410001 2.2,-11.04 -4.14,-6.63 -5.79,3.04 -5.9,-10.85 v 0 l 7.71,-2.55 4.78,-3.69 14.9,5.25 12.71,-7.47 3.15,-0.24 8.18,8.32 5.09,14.84 6.16,-5.57 3.54,-1.37 1.62,1.04 2.39,4.2 1.77,11.48 0.69,43.570001 h 1.56 l 7.41,-12.59 4.13,-2.22 3.01,0.42 4.78,3.59 5.06,15.05 -7.59,23 1.39,3.82 15.51,-1.46 16.39,4.1 9.07,9 6.1,12.05 2.28,0.99 8.18,-3.58 2.53,3.58 -0.87,12.33 -3.36,9.93 -6.44,9.31 -0.31,8.32 1.59,4.23 25.22,1.88 4.22,3.86 10.75,4.01 v 0 l 0.36,4.33 -3.59,7.73 -4.14,1.38 -1.1,8.01 -9.66,-0.83 -3.59,-3.59 -2.76,-0.55 -6.35,4.69 5.79,5.8 v 3.31 l 6.63,2.21 1.93,3.31 4.14,1.11 1.38,3.58 -1.93,1.38 3.04,5.53 -3.32,1.38 -0.82,5.79 3.31,3.59 3.86,1.66 1.11,6.35 5.24,3.86 2.76,6.9 -5.24,1.93 -1.66,2.49 -6.62,-3.59 -3.04,1.93 -2.48,-3.31 h -4.97 l -5.25,6.35 1.11,8.28 -4.42,2.48 -6.62,-2.21 -1.94,-4.41 -5.79,-1.38 -1.38,-2.49 -9.11,3.87 -3.87,-1.38 -2.2,-2.76 -4.7,-0.28 -5.24,3.31 -4.14,8.01 6.35,7.73 -2.49,3.59 0.55,4.69 5.52,3.86 -0.27,2.76 -2.49,6.63 -9.38,-1.38 -1.38,2.21 1.93,3.58 -1.08,8.5 v 0 l -0.02,-0.05 v 0 l -2.49,0.83 -1.38,2.76 -2.21,-0.28 -4.96,-7.17 -4.14,0.55 -3.59,-2.76 -6.9,0.27 -6.9,2.49 -3.59,-1.11 -6.07,3.87 -3.04,-0.28 -2.49,-7.17 -10.76,-0.83 -3.87,-3.32 -10.21,4.7 -6.35,-3.04 -8.28,0.55 -5.52,-4.41 -1.1,3.03 -6.9,1.38 -1.38,-4.41 -6.08,-1.66 -6.9,4.69 -1.1,3.04 -10.19,1.32 v 0 l -0.02,-0.22 v 0 l -1.94,-7.73 -6.07,-1.93 -5.8,4.14 -2.76,-2.21 3.59,-4.69 -1.93,-5.79 5.52,-0.56 0.28,-6.62 -1.94,-0.83 -1.38,-4.14 -2.2,0.55 -2.49,6.07 h -6.62 l -2.49,2.21 -4.69,0.56 -5.24,5.52 -1.38,-5.8 3.31,-3.87 0.55,-7.17 3.04,-2.76 0.55,-6.9 -8.28,-5.52 v -2.76 l 4.14,-4.14 0.83,-4.97 -5.52,-3.04 -6.65,0.97 v 0 z" />
  <path
     id="XK-KM"
     title="Kosovska Mitrovica"
     class="land"
     d="m 320.2655,73.630569 5.9,10.85 5.79,-3.04 4.14,6.63 -2.2,11.04 3.58,4.410001 1.38,6.24 5.8,3.04 -0.83,4.97 1.93,3.58 6.63,2.49 8.28,21.53 0.28,6.9 -2.76,7.73 -0.56,8.56 -3.86,4.14 v 6.07 l 2.21,3.31 0.83,5.8 3.03,4.41 1.38,14.91 3.59,0.83 5.8,5.52 1.38,5.52 -1.11,5.24 -5.79,0.28 v 2.21 l -2.49,0.55 -11.04,10.21 -0.27,3.04 4.41,2.76 -1.1,9.11 -3.04,0.55 -0.83,2.21 1.11,4.97 -14.63,10.21 -9.66,9.66 -3.59,0.28 -9.39,-11.6 -1.65,-4.14 h -3.04 l -6.9,3.32 -5.24,0.27 -1.11,7.18 -5.8,4.14 -3.31,-1.1 -0.27,-3.32 -3.59,-2.48 h -4.97 l -2.76,1.93 -0.55,3.04 h -4.97 l -1.38,4.14 2.48,6.9 -1.65,3.31 -4.97,-0.28 -7.73,3.32 -3.04,7.45 -2.48,2.48 -0.55,3.87 2.2,3.31 -1.24,6.17 v 0 l -1.24,0.12 v 0 l -3.31,1.66 -2.21,-0.83 -1.38,-7.45 -5.24,-3.86 -8.29,-1.66 -1.65,-8.28 6.07,-4.42 -1.66,-4.97 -2.76,-1.65 2.21,-2.49 -4.69,-4.41 -2.48,1.1 -0.83,3.87 -3.04,3.03 -5.52,0.28 -7.45,-11.32 -0.83,-4.42 -5.52,-2.48 -0.55,-3.31 1.93,-4.14 3.59,-0.28 3.59,-4.14 1.65,-4.69 0.28,-4.14 -4.14,-3.59 -1.38,-5.52 4.41,-8.83 v -8.01 l 3.59,-6.9 0.55,-8.28 h -7.45 l 0.28,-6.35 -3.04,-4.42 -3.03,-1.65 -1.11,-3.59 -3.03,-3.04 -5.8,-0.55 -1.38,-4.14 -11.04,4.42 -12.77,1.65 v 0 l 3.25,-9.21 -10.29,-12.82 -3.05,-7.16 -0.62,-5.52 3.95,-8.3 11.01,-6.79 8,-7.83 7.1,-3.68 10.74,-2.83 2.63,-1.98 9.98,5 -0.14,-6.28 20.06,-2.92 1.31,-3.68 -0.38,-10.2 -4.12,-8.840001 -1.35,-8.88 0.17,-11.72 -6.27,1.13 -2.63,-3.16 -1.59,-6.81 2.63,-7.57 -0.35,-5.06 -14.82,-15.14 -2.5,-4.31 1.04,-3.13 16.59,-4.11 10.22,-4.88 15.59,-10.42 8.49,-2.47 13.4,-10.65999956 12.75,-0.1 9.14,5.78999996 18.81,33.3399996 -1.18,3.88 -2.08,0.1 -10.18,-4.31 -5.96,0.71 -3.57,3.22 2.39,11.12 8.66,8.65 9.25,2.09 z" />
  <path
     id="XK-DA"
     title="Đakovica"
     class="land"
     d="m 153.8055,482.52057 -11.1,-12.54 -11.26,-3.17 -0.93,-2.01 -6.27,-1.16 -3.74,-6.16 -14.13,-5.09 0.34,-3.26 -5.85,-5.42 -4.09,0.14 -6.58,5.65 -5.64,-4.06 -11.4,2.48 -5.06,-3.27 0.97,-4.48 -3.46,-5.98 2.63,-2.15 0.45,-7.7 -1.87,-4.91 -10.81,-9.72 2.19,-4.48 4.08,-3.32 -2.42,-8.28 -9.42,-8.23 1.7,-5 -5.13,-5.43 -1.11,-5.62 -4.26,-4.54 -0.35,-4.77 -4.43,-3.37 -10.46,-4.31 -0.62,-2.11 -7,-2.43 -4.54,-8.48 -4.8499999,-2.06 5.2699999,-15.23 -2.11,-7.22 0.34,-7.88 3.57,-4.41 4.05,-2.15 9.04,-11.24 v 0 l 5.96,4.34 22.63,3.58 -5.24,6.91 0.83,3.58 2.76,0.83 4.14,6.9 8,0.28 4.69,3.31 14.63,4.97 6.9,-3.04 1.38,-3.58 3.04,0.55 9.11,9.93 -3.31,1.38 1.38,2.76 2.21,2.49 3.86,0.55 0.83,2.49 -3.87,4.41 3.04,2.21 11.04,-0.55 6.35,-3.87 8,2.49 h 5.8 l 6.63,-3.04 7.17,1.11 5.8,4.41 7.18,-1.65 2.2,2.76 -1.65,3.86 2.21,2.76 v 3.04 l 3.86,6.07 2.76,-1.1 v 0 l 3.04,-0.28 v 0 l 3.59,1.93 2.2,6.07 2.49,1.66 5.52,0.28 1.66,10.21 18.77,1.38 6.9,4.97 0.82,3.31 7.73,1.93 -1.1,5.8 2.76,2.48 3.31,0.28 1.38,2.48 -4.14,4.14 5.8,6.91 -1.38,10.76 1.93,6.07 -2.76,2.76 1.1,7.18 -3.03,1.93 -1.66,7.46 -3.86,3.31 -2.49,-0.83 -4.14,-9.66 h -4.97 l -5.52,9.66 -4.41,4.42 -0.83,3.58 -6.35,-1.65 v -4.42 l -3.59,-0.55 -8.56,1.1 -2.76,4.97 -3.31,-6.07 -1.38,9.38 -5.52,1.11 -4.42,5.8 -6.07,1.38 -0.27,4.14 -10.49,3.58 z" />
  <path
     id="XK-GN"
     title="Gnjilane"
     class="land"
     d="m 425.5555,387.00057 1.08,-8.5 -1.93,-3.58 1.38,-2.21 9.38,1.38 2.49,-6.63 0.27,-2.76 -5.52,-3.86 -0.55,-4.69 2.49,-3.59 -6.35,-7.73 4.14,-8.01 5.24,-3.31 4.7,0.28 2.2,2.76 3.87,1.38 9.11,-3.87 1.38,2.49 5.79,1.38 1.94,4.41 6.62,2.21 4.42,-2.48 -1.11,-8.28 5.25,-6.35 h 4.97 l 2.48,3.31 3.04,-1.93 6.62,3.59 1.66,-2.49 5.24,-1.93 -2.76,-6.9 -5.24,-3.86 -1.11,-6.35 -3.86,-1.66 -3.31,-3.59 0.82,-5.79 3.32,-1.38 -3.04,-5.53 1.93,-1.38 -1.38,-3.58 -4.14,-1.11 -1.93,-3.31 -6.63,-2.21 v -3.31 l -5.79,-5.8 6.35,-4.69 2.76,0.55 3.59,3.59 9.66,0.83 1.1,-8.01 4.14,-1.38 3.59,-7.73 -0.36,-4.33 v 0 l 17.83,-0.11 13.5,3.24 11.33,7.33 13.3,23.38 8.49,7.28 7.1,-2.91 2.42,-4.51 10.77,-10.94 7,-0.37 10.46,8.45 1.49,15.86 4.92,8.11 -2.87,2.86 -10.88,5.02 -9.11,15.8 -2.25,16.49 -4.68,14.23 -6.72,7.96 -17.84,9.03 -9.9,9.12 -2.5,7.35 2.81,6.31 -3.71,17.62 -10.32,7.47 -5.4,9.99 -0.62,8.87 3.74,8.12 6.75,3.27 -1.38,8.82 1.03,11.61 -32.97,4.06 -12.33,-6.34 h -8.52 l -2.43,1.49 -1.73,7.55 -3.05,2.33 -12.12,0.75 -4.8,2.39 v 0 l -3.1,-5.03 -3.86,-1.93 -7.18,1.1 -2.21,-3.86 -3.31,-0.83 -3.87,1.93 -1.93,-3.04 h -2.21 l -6.9,-12.42 -2.76,-0.55 -0.55,-7.45 2.48,-6.35 3.59,-0.28 1.66,-9.38 -8.01,1.93 -2.48,-3.86 -4.42,-0.56 1.66,-8 1.93,-1.66 h 3.59 l 4.69,-4.41 3.04,-0.28 4.69,3.86 v -3.31 l 2.49,-2.48 -6.08,-6.63 3.87,-13.8 -6.63,-4.97 -1.38,-4.41 v 0 z" />
  <path
     id="XK-PE"
     title="Peć"
     class="land"
     d="m 180.7055,360.21057 -0.84,0.08 v 0 l -2.76,1.1 -3.86,-6.07 v -3.04 l -2.21,-2.76 1.65,-3.86 -2.2,-2.76 -7.18,1.65 -5.8,-4.41 -7.17,-1.11 -6.63,3.04 h -5.8 l -8,-2.49 -6.35,3.87 -11.04,0.55 -3.04,-2.21 3.87,-4.41 -0.83,-2.49 -3.86,-0.55 -2.21,-2.49 -1.38,-2.76 3.31,-1.38 -9.11,-9.93 -3.04,-0.55 -1.38,3.58 -6.9,3.04 -14.63,-4.97 -4.69,-3.31 -8,-0.28 -4.14,-6.9 -2.76,-0.83 -0.83,-3.58 5.24,-6.91 -22.63,-3.58 -5.96,-4.34 v 0 l 2.43,-4.76 -5.79,-4.42 -5.75,-9.2 -6.68,-2.16 -3.9499999,-4.27 -3.29,-1.04 -2.46,-4.41 -3.78000004,-12.69 4.47000004,-5.97 2.6,-7.8 2.11,-0.33 31.4899999,11.05 14.96,-0.14 14.31,2.35 3.63,-1.7 11.88,-15.65 -2.8,-8.7 0.86,-2.4 14.86,-11.53 13.3,2.07 46.83,-8.66 5.54,-3.25 3.06,-4.96 v 0 l 12.77,-1.65 11.04,-4.42 1.38,4.14 5.8,0.55 3.03,3.04 1.11,3.59 3.03,1.65 3.04,4.42 -0.28,6.35 h 7.45 l -0.55,8.28 -3.59,6.9 v 8.01 l -4.41,8.83 1.38,5.52 4.14,3.59 -0.28,4.14 -1.65,4.69 -3.59,4.14 -3.59,0.28 -1.93,4.14 0.55,3.31 5.52,2.48 0.83,4.42 7.45,11.32 5.52,-0.28 3.04,-3.03 0.83,-3.87 2.48,-1.1 4.69,4.41 -2.21,2.49 2.76,1.65 1.66,4.97 -6.07,4.42 1.65,8.28 8.29,1.66 5.24,3.86 1.38,7.45 2.21,0.83 3.31,-1.66 v 0 l 2.76,-0.27 -0.28,4.14 v 0 l -2.76,6.9 -11.04,-0.55 -2.21,-2.76 -8.55,3.86 -6.35,10.77 -0.55,5.24 -3.32,4.97 -3.31,1.66 0.28,3.58 -10.49,0.56 -4.97,2.2 -11.87,-1.65 -5.52,0.83 z" />
  <path
     id="XK-UR"
     title="Uroševac"
     class="land"
     d="m 460.3755,488.04057 -10.06,11.59 -7.76,13.92 -8.45,26.44 -6.27,7.4 -6.89,1.49 -3.08,-1.86 -8.8,1.11 -2.56,-1.49 -2.57,-9.02 -4.22,-7.54 -9.25,-9.36 -3.67,-15.27 -6.31,-5.45 -10.84,-0.74 -4.09,4.19 -9.14,5.12 -5.26,7.82 -20.02,12.32 v 0 l -6.08,-14.51 -3.03,-3.31 -6.08,-1.11 -4.69,-3.31 -11.04,0.28 -12.15,-2.76 -0.55,-4.42 2.49,-0.83 2.21,-3.03 -1.39,-7.46 3.59,-1.65 6.35,3.58 4.14,-6.07 7.73,-3.86 2.49,-9.11 3.31,-0.83 2.76,2.76 2.76,-3.31 6.35,-1.66 -2.49,-2.76 -1.65,-5.52 3.03,-1.93 0.83,-2.76 -2.21,-3.04 v -3.31 l -2.76,-0.55 v -4.42 l 2.76,-5.52 -3.31,-2.48 v -4.97 l -2.76,-3.59 -4.14,-3.86 h -4.97 l -2.48,-1.94 -0.28,-3.03 3.59,-1.66 5.52,2.76 1.66,-3.31 -6.63,-5.52 v -2.76 l 3.59,-0.28 1.1,-4.14 4.14,-0.27 1.11,-1.66 -7.45,-7.18 0.55,-3.86 -16.84,-4.42 -0.55,-1.93 v 0 l -0.53,-4.2 v 0 l 10.19,-1.32 1.1,-3.04 6.9,-4.69 6.08,1.66 1.38,4.41 6.9,-1.38 1.1,-3.03 5.52,4.41 8.28,-0.55 6.35,3.04 10.21,-4.7 3.87,3.32 10.76,0.83 2.49,7.17 3.04,0.28 6.07,-3.87 3.59,1.11 6.9,-2.49 6.9,-0.27 3.59,2.76 4.14,-0.55 4.96,7.17 2.21,0.28 1.38,-2.76 2.49,-0.83 v 0 l 1.65,4.42 v 0 l 1.38,4.41 6.63,4.97 -3.87,13.8 6.08,6.63 -2.49,2.48 v 3.31 l -4.69,-3.86 -3.04,0.28 -4.69,4.41 h -3.59 l -1.93,1.66 -1.66,8 4.42,0.56 2.48,3.86 8.01,-1.93 -1.66,9.38 -3.59,0.28 -2.48,6.35 0.55,7.45 2.76,0.55 6.9,12.42 h 2.21 l 1.93,3.04 3.87,-1.93 3.31,0.83 2.21,3.86 7.18,-1.1 3.86,1.93 z" />
  <path
     id="XK-PZ"
     title="Prizren"
     class="land"
     d="m 331.1355,528.71057 -4.71,3.56 -9.36,1.35 -6.13,2.7 -14.23,15.35 -12.26,0.09 -7.56,4.46 -13.19,2.05 -2.6,2.05 -14.27,23.51 1.11,21.74 4.57,10.67 -1.18,9.61 5.16,9.69 -12.26,11.96 -3.7,5.47 -22.86,13.99 -2.91,7.37 -7.97,10.23 -4.54,8.89 -4.12,2.82 -5.3,-2.04 -4.81,2.23 -3.95,-0.51 -1.94,-1.39 v -4.91 l -4.02,-12.31 1.04,-9.17 -1.11,-10.57 4.4,-3.52 7.2,-0.88 -0.13,-3.38 -5.96,-14.47 14.89,-11.36 2.29,-9.84 -0.66,-6.54 -4.4,-6.04 -5.02,-15.09 -0.97,-9.89 -8.28,-8.04 -5.44,-10.51 3.74,-7.16 -1.62,-4.84 2.21,-5.77 -3.98,-9.03 0.66,-2.93 -5.16,-6.56 0.69,-1.82 -4.54,-9.82 -2.77,-12.67 -8.1,-8.3 -0.73,-4.47 -2.55,-2.15 v 0 l 2.05,-3.27 10.49,-3.58 0.27,-4.14 6.07,-1.38 4.42,-5.8 5.52,-1.11 1.38,-9.38 3.31,6.07 2.76,-4.97 8.56,-1.1 3.59,0.55 v 4.42 l 6.35,1.65 0.83,-3.58 4.41,-4.42 5.52,-9.66 h 4.97 l 4.14,9.66 2.49,0.83 3.86,-3.31 1.66,-7.46 3.03,-1.93 -1.1,-7.18 2.76,-2.76 -1.93,-6.07 1.38,-10.76 -5.8,-6.91 4.14,-4.14 -1.38,-2.48 -3.31,-0.28 -2.76,-2.48 1.1,-5.8 -7.73,-1.93 -0.82,-3.31 -6.9,-4.97 -18.77,-1.38 -1.66,-10.21 -5.52,-0.28 -2.49,-1.66 -2.2,-6.07 -3.59,-1.93 v 0 l -2.2,0.2 v 0 l 1.92,-2.35 5.52,-0.83 11.87,1.65 4.97,-2.2 10.49,-0.56 -0.28,-3.58 3.31,-1.66 3.32,-4.97 0.55,-5.24 6.35,-10.77 8.55,-3.86 2.21,2.76 11.04,0.55 2.76,-6.9 v 0 l 0.26,-3.89 v 0 l 6.65,-0.97 5.52,3.04 -0.83,4.97 -4.14,4.14 v 2.76 l 8.28,5.52 -0.55,6.9 -3.04,2.76 -0.55,7.17 -3.31,3.87 1.38,5.8 5.24,-5.52 4.69,-0.56 2.49,-2.21 h 6.62 l 2.49,-6.07 2.2,-0.55 1.38,4.14 1.94,0.83 -0.28,6.62 -5.52,0.56 1.93,5.79 -3.59,4.69 2.76,2.21 5.8,-4.14 6.07,1.93 1.94,7.73 v 0 l 0.55,4.42 v 0 l 0.55,1.93 16.84,4.42 -0.55,3.86 7.45,7.18 -1.11,1.66 -4.14,0.27 -1.1,4.14 -3.59,0.28 v 2.76 l 6.63,5.52 -1.66,3.31 -5.52,-2.76 -3.59,1.66 0.28,3.03 2.48,1.94 h 4.97 l 4.14,3.86 2.76,3.59 v 4.97 l 3.31,2.48 -2.76,5.52 v 4.42 l 2.76,0.55 v 3.31 l 2.21,3.04 -0.83,2.76 -3.03,1.93 1.65,5.52 2.49,2.76 -6.35,1.66 -2.76,3.31 -2.76,-2.76 -3.31,0.83 -2.49,9.11 -7.73,3.86 -4.14,6.07 -6.35,-3.58 -3.59,1.65 1.39,7.46 -2.21,3.03 -2.49,0.83 0.55,4.42 12.15,2.76 11.04,-0.28 4.69,3.31 6.08,1.11 3.03,3.31 z" />
     <g id="stadiums" data-country="kosovo" data-circle-radius="6"></g>
</svg>
