<?xml version="1.0" encoding="UTF-8" standalone="no"?>
<?xml-stylesheet type="text/css" href="/styles/home.css"?>
<!-- https://www.amcharts.com/svg-maps -->

<svg version="1.1" xmlns="http://www.w3.org/2000/svg" id="map-latvia"
   viewBox="0 0 1224.4478 1224.4478" width="1224.4478" height="1224.4478" class="">

  <defs
     id="defs4">
    <style
       id="style2"
       type="text/css">
			.land
			{
				fill: #99a7d6;
				fill-opacity: 1;
				stroke:white;
				stroke-opacity: 1;
				stroke-width:0.5;
			}
         .rectangle:hover {
         fill: #bdbdbd;
         cursor: pointer;
         }
		</style>
    <!-- <amcharts:ammap projection="mercator" leftLongitude="20.908629" topLatitude="58.085902" rightLongitude="28.243214" bottomLatitude="55.672529"></amcharts:ammap> -->
    <!-- All areas are listed in the line below. You can use this list in your script. -->
    <!--{id:"LV-DGV"},{id:"LV-JEL"},{id:"LV-JKB"},{id:"LV-JUR"},{id:"LV-LPX"},{id:"LV-REZ"},{id:"LV-RIX"},{id:"LV-VEN"},{id:"LV-VMR"},{id:"LV-001"},{id:"LV-002"},{id:"LV-003"},{id:"LV-004"},{id:"LV-005"},{id:"LV-006"},{id:"LV-007"},{id:"LV-008"},{id:"LV-009"},{id:"LV-010"},{id:"LV-011"},{id:"LV-012"},{id:"LV-013"},{id:"LV-014"},{id:"LV-015"},{id:"LV-016"},{id:"LV-017"},{id:"LV-018"},{id:"LV-019"},{id:"LV-020"},{id:"LV-021"},{id:"LV-022"},{id:"LV-023"},{id:"LV-024"},{id:"LV-025"},{id:"LV-026"},{id:"LV-027"},{id:"LV-028"},{id:"LV-029"},{id:"LV-030"},{id:"LV-031"},{id:"LV-032"},{id:"LV-033"},{id:"LV-034"},{id:"LV-035"},{id:"LV-036"},{id:"LV-037"},{id:"LV-038"},{id:"LV-039"},{id:"LV-040"},{id:"LV-041"},{id:"LV-042"},{id:"LV-043"},{id:"LV-044"},{id:"LV-045"},{id:"LV-046"},{id:"LV-047"},{id:"LV-048"},{id:"LV-049"},{id:"LV-050"},{id:"LV-051"},{id:"LV-052"},{id:"LV-053"},{id:"LV-054"},{id:"LV-055"},{id:"LV-056"},{id:"LV-057"},{id:"LV-058"},{id:"LV-059"},{id:"LV-060"},{id:"LV-061"},{id:"LV-062"},{id:"LV-063"},{id:"LV-064"},{id:"LV-065"},{id:"LV-066"},{id:"LV-067"},{id:"LV-068"},{id:"LV-069"},{id:"LV-070"},{id:"LV-071"},{id:"LV-072"},{id:"LV-073"},{id:"LV-074"},{id:"LV-075"},{id:"LV-076"},{id:"LV-077"},{id:"LV-078"},{id:"LV-079"},{id:"LV-080"},{id:"LV-081"},{id:"LV-082"},{id:"LV-083"},{id:"LV-084"},{id:"LV-085"},{id:"LV-086"},{id:"LV-087"},{id:"LV-088"},{id:"LV-089"},{id:"LV-090"},{id:"LV-091"},{id:"LV-092"},{id:"LV-093"},{id:"LV-094"},{id:"LV-095"},{id:"LV-096"},{id:"LV-097"},{id:"LV-098"},{id:"LV-099"},{id:"LV-100"},{id:"LV-101"},{id:"LV-102"},{id:"LV-103"},{id:"LV-104"},{id:"LV-105"},{id:"LV-106"},{id:"LV-107"},{id:"LV-108"},{id:"LV-109"},{id:"LV-110"}-->
  </defs>
  <rect id="background" class="rectangle" stroke-width="0" stroke="#000" width="1224.4478" height="1224.4478" y="0" x="0" fill="#d3d3d3" />
  <path
     id="LV-DGV"
     title="Daugavpils"
     class="land"
     d="m 946.70134,887.60643 3.96,10.19 2.04,15.36 -8.52,3.48 -3.84,4.92 -5.4,-2.88 -4.07,2.76 -3.84,-6.12 3,-4.32 -8.28,-14.4 4.32,-1.55 12.83,5.51 z"
      />
  <path
     id="LV-JEL"
     title="Jelgava"
     class="land"
     d="m 473.71134,678.4064 -2.4,-0.96 -2.56,2.88 4.96,2.4 -0.48,1.92 -11.36,3.68 -3.68,5.12 -2.4,-1.76 0.64,-10.88 -6.56,-5.92 -2.56,-5.92 3.36,-2.72 5.6,2.88 5.76,-4.47 v 0 l 2.38,-1.34 v 0 l 10.58,1.66 -0.8,7.67 2.56,3.36 z"
      />
  <path
     id="LV-JKB"
     title="Jēkabpils"
     class="land"
     d="m 817.48134,727.6764 -0.16,-1.08 v 0 l 1.6,-11.6 v 0 l 8.5,-1.48 8.4,3 -0.3,2.5 -3.9,1.6 v 3.1 0 l -4.4,7 z"
      />
  <path
     id="LV-JUR"
     title="Jūrmala"
     class="land"
     d="m 505.56134,571.8064 -8.9,9.7 -7,-1.3 -9,4.4 -6.5,-4 -1.3,5.6 -13.29,1.3 -1.5,2.9 h -8.2 l -3.4,-2.6 -2.2,6.8 h -8.02 l -2.9,-2.7 -9.12,-1.17 v 0 l -2.59,-2.2 v 0 0 0 l 0.87,-8.02 12.44,-4.32 v 0 l 11.69,4.38 10.57,0.43 14.34,-2.53 25.43,-10.34 v 0 z"
      />
  <path
     id="LV-LPX"
     title="Liepāja"
     class="land"
     d="m 5.6613458,731.6164 -2.4000004,-14.3 2.3200004,0.8 -3.0100004,-2.07 2.24,-0.22 0.9000004,-6.45 8.4199982,1.12 -2.26,-3.13 -1.24,2.49 -5.4199982,-1.58 4.7999992,-19.67 v 0 l 8.959999,1.45 -0.1,11.22 5.35,-0.1 v 9.55 l -5.55,3.6 -2.8,5.3 0.2,6.19 v 0 l -1.3,1.4 v 0 l -3,0.3 -2.6999982,4.2 z"
      />
  <path
     id="LV-REZ"
     title="Rēzekne"
     class="land"
     d="m 1078.1613,712.3964 2.86,2.53 -0.3,7.07 -4.48,11.36 h -1.92 l -1.44,-4 -4.32,-0.64 -0.32,-6.88 1.92,-6.72 z"
      />
  <path
     id="LV-RIX"
     title="Rīga"
     class="land"
     d="m 564.64134,578.6064 -1.2,0.47 v 0 l -13.8,9.96 v 11.16 l 6.24,7.8 v 0 l 6.67,4.75 -3.6,1.21 -14.59,-6.92 v 0 l -4.08,-8.52 -2.28,-0.24 -2.16,3.96 -3,-2.4 -4.43,2.04 -2.29,4.91 v 0 h -5.17 v 0 l 0.4,-8.58 -20.29,-10 v 0 l 4.4,-5.8 6.5,-3.6 -1.9,-3.7 3.9,-0.8 -2.6,-3 -5.8,0.5 v 0 l -8.58,-3.67 v 0 l 10.62,-7.57 7.76,-10.93 13.75,-5.87 v 0 l 5.35,4.5 v 3.6 l 5.6,0.8 v 0 l 3.39,2.9 1.8,7.79 10.3,3.9 z"
      />
  <path
     id="LV-VEN"
     title="Ventspils"
     class="land"
     d="m 93.141344,451.3464 2.04,-5.37 0.81,1.72 2.22,-3.15 -3.32,-1.62 3.55,1.06 3.699996,-3.62 9.05,-17.84 4.45,4.19 2.9,17.69 -9.6,4.1 1.4,8.3 -3.2,2 -2.5,-4 -1.8,6.6 z"
      />
  <path
     id="LV-VMR"
     title="Valmiera"
     class="land"
     d="m 755.96134,401.9364 0.85,5.15 -2.96,4.4 h -11.44 v 0 l -1.73,-10.99 v 0 l 12,-2.55 z"
      />
  <path
     id="LV-001"
     title="Aglonas novads"
     class="land"
     d="m 1035.4913,819.95643 4.57,-2.66 2.24,-4.72 6.88,2.4 20.14,0.12 v 0 l -1.52,7.68 6.71,7.2 -5.75,7.44 -14.29,3.59 3.04,1.68 -1.36,4.88 3.12,2.24 v 0 l -4.08,5.76 -8.32,1.92 -0.8,13.12 -6.24,5.25 -13.51,-2 -6,4.07 -8.94,-5.15 v 0 l -4.46,-9.55 3.48,-7.7 -6.61,0.69 -3.6701,-10.59 -3.49991,-3.4 0.81,-5.36 v 0 l 4.93001,-0.33 2.72,2.24 1.44,-2.96 -2,-4.88 6.96,-5.52 22.61,-0.75 z"
      />
  <path
     id="LV-002"
     title="Aizkraukles novads"
     class="land"
     d="m 732.93134,693.9064 -6.87,-0.12 -3.12,6.84 -22.02,-15.83 v 0 l 0.96,-4.77 8.56,-3.68 0.56,-6.88 -3.84,-1.68 -1.28,-3.76 4.96,-2.8 v 0 -0.14 0 l 4.68,-2.92 11,4.2 v 0 l 3.4,8 -0.7,10.7 z"
      />
  <path
     id="LV-003"
     title="Aizputes novads"
     class="land"
     d="m 85.601344,606.2364 6.11,4.67 0.76,7.65 13.799996,-1.02 7.97,15.99 8.38,0.49 8.99,7.45 3.04,6.4 -1.01,3.89 3.18,0.7 -0.23,6.06 -2.71,2.14 11.14,4.83 v 0 l 1.54,15.48 -4.56,4.87 -5.98,2.04 4.03,7.51 -0.3,5.36 v 0 l -13.69,4.52 v 0 l -10.39,-3.5 -2.5,4.8 -4.2,-1.9 -2.6,2.1 -3.2,-3.8 v 0 l -0.1,-0.9 v 0 l 6.7,-3.5 -3.6,-24 -5.4,-2.4 -18.999996,5.4 -4.1,-4.5 0.4,-4.89 -5,2.3 -0.89,-6.7 -8.2,-3.5 -7.5,-7.1 -0.34,-4.74 v 0 l 2.7,-2.75 -2.35,-15.25 4.9,-1.07 0.7,-5.8 20.9,-5.05 -0.95,-11.3 z"
      />
  <path
     id="LV-004"
     title="Aknīstes novads"
     class="land"
     d="m 848.75134,847.70643 -12.23,7.82 -5.94,-10.11 -12.43,-8.01 1.93,6.11 5.86,4.58 -5.59,3.7 -0.42,6.16 -2.35,0.55 v 0 l -22.28,-10.17 1.76,-10.09 -3.41,-3.19 -0.25,-5.3 -4.48,3.88 -4.71,-0.09 v 0 l 1.44,-9.83 8.1,-17.3 v 0 -3.98 0 l 18.68,-1.02 13.11,4.8 3.08,14.82 12.06,6.11 0.72,2.4 -3.24,4.2 4.38,6 5.16,1.32 z"
      />
  <path
     id="LV-005"
     title="Alojas novads"
     class="land"
     d="m 650.44134,265.3664 0.42,-0.09 v 0 l 0.37,22.56 5.3,3.4 4.6,24 8.3,6 4.3,-1.7 5.3,3.1 v 0 l 4.1,6.5 7.84,1.8 3.14,11.77 -5.28,11.04 4.47,3.57 -1.51,6.03 2.76,2.7 v 0 l -6.62,1.18 1.98,7.37 -2.04,2.88 -5.46,-0.12 -1.2,-4.8 -2.94,-1.2 -11.64,10.98 -5.16,-1.26 v 0 l -0.01,-0.94 v 0 l 1.33,-9.4 -10.1,-5.4 -1.5,-15.82 -7.2,-4.7 -8.5,0.2 -9.3,-11.3 h -3.4 v 0 0 0 l -7.46,-27.75 -5.92,-7.04 5.44,-6.4 -3.68,-4.32 -3.81,-17.21 v 0 l 1.82,-1.47 6.63,6.2 3.75,-5.66 4.31,-0.32 2.91,3.7 3.67,-4.49 4.75,-1.08 0.17,-5.6 10.69,-2.47 z"
      />
  <path
     id="LV-006"
     title="Alsungas novads"
     class="land"
     d="m 97.751344,546.1464 9.129996,7.63 4.3,0.6 -0.6,6.78 9.9,10.4 3.69,12.1 -2.49,4.1 -7.9,2.7 -1.8,4.1 -9.5,-1.6 -4.499996,8.7 -9.21,-3.26 v 0 l -8.84,-2.31 0.78,-3.04 -3.5,1.47 -4.01,-2.27 -0.1,-6.33 v 0 l 9.56,-0.01 -0.71,-4.5 3.57,-3.29 -1.6,-17.32 4.49,0.01 -1.36,-8.85 3.72,-1.71 0.07,-5.09 z"
      />
  <path
     id="LV-007"
     title="Alūksnes novads"
     class="land"
     d="m 946.24134,447.9564 7.97,-9.72 11.68,1.44 5.11,-9.6 0.96,-12.47 5.76,-3.52 10.24,-0.64 -2.72,-6.24 2.4,-1.44 0.8,-6.08 -3.84,-6.72 2.28,-4.18 v 0 l 4.78,-3.44 0.94,-7.14 10.14996,-5.37 4.14,4.11 -0.43,5.52 5.25,-3.38 8.8,2.47 2.6,7.24 6.61,1.47 6.48,4.95 23.54,3.63 14.97,9.92 3.8,-5.44 6.65,3.94 14.84,-5.38 7.62,0.69 -0.37,5.72 2.04,-0.88 1.45,3.82 -3.05,15.68 -2.07,-0.4 -3.15,11.32 7.41,4.28 5.92,-1.5 11.32,6.48 4.58,7.89 v 0 l 0.24,12.04 -9.22,6.75 -8.06,1.34 -0.56,7.95 -3.78,0.72 -0.24,3.69 -2.09,0.66 v 0 l -1.65,-0.19 v 0 l -6.1,1.8 -1.08,-7.7 -6.24,-0.31 -0.31,7.45 -4.02,-0.8 -5.31,2.82 -8.87,-9.91 -9.58,7.83 0.22,2.64 -8.91,-0.03 -2.53,6.3 -4.29,-2.76 -1.16,3.26 -5.82,1.08 v 0 l -19.01,-7.23 0.62,-3.57 4.54,-3.2 -8.11,-3.32 -8.11,-8.18 -18.89996,2.37 -2.12,-4.64 -10.08,1.03 -5.45,-4.14 -3.6,1.03 0.12,5.32 -4.78,-0.03 -6.11,-4.2 0.49,-4.95 -8.21,-0.74 1.72,-4.52 -6.8,-4.45 -1.45,-7.38 v 0 z"
      />
  <path
     id="LV-008"
     title="Amatas novads"
     class="land"
     d="m 773.20134,522.0564 -6.13,8.02 9.24,1.8 5.61,8.94 -0.08,8.4 -14.8,13.19 -4.08,-3.91 -3.75,0.48 2.95,5.75 -3.27,3.68 0.3,3.42 v 0 l -3.99,0.58 1.97,5.43 -12,12.81 -4.44,-3.33 -3.95,-12.22 -10.77,4.15 0.23,2.9 -4.25,1.97 0.95,2.71 -3.41,1.57 1.58,3.26 -19.05,-6.89 v 0 l 1.4,-5.76 -2.69,-4.25 2.12,-2.13 -1.98,-5.08 v 0 l 1.56,-6.72 -6.24,-10.08 0.36,-3.12 6,-4.2 -8.76,-10.2 v 0 -1.32 0 l 11.68,-2.72 6.56,-11.03 -5.2,-1.52 -2.08,-19.92 -11.92,-3.9 v -5.44 0 l 6.26,-4.24 10.8,2.7 4.9,-7.9 v 0 l 0.01,-0.09 v 0 l 7.47,-0.68 7.1,5.1 3.7,5.6 -1.2,6.2 8.2,2.2 -2.8,6.49 4.4,6.2 6.9,2.5 4.5,7.8 7.49,2 1.5,-4.4 z"
      />
  <path
     id="LV-009"
     title="Apes novads"
     class="land"
     d="m 986.88134,388.7864 -2.28,4.18 3.84,6.72 -0.8,6.08 -2.4,1.44 2.72,6.24 -10.24,0.64 -5.76,3.52 -0.96,12.47 -5.11,9.6 -11.68,-1.44 -7.97,9.72 v 0 l -2.3,-2.29 v 0 l -4.44,3.43 -4.75,-2.87 0.64,-3.15 -4.76,2.59 -3.77,-1.43 -2.29,2.55 4.71,7.39 -9.37,0.99 -1.68,5.14 -5.77,-0.16 0.69,4.55 5.72,-3.24 1.68,6.35 -14.52,3.58 -12.64,-4.14 v 0 l -0.11,-10.71 5.77,-2.96 -2.9,-1.4 -0.49,-3.99 3.29,-2.21 0.15,-5.83 2.72,-1.93 -7.23,-4.37 1.19,-4.74 3.99,0.25 1.09,-2.53 -1.67,-13.99 v 0 l 10.49,-2.32 -4.19,-1.19 0.42,-4.31 -2.81,-1.54 0.19,-5.29 5.2,-9.17 v 0 l 6.31,2.6 11.3,-1.03 5.12,15.93 9.96,3.81 0.84,-5.16 3.67,-3.16 0.64,6.85 3.77,2.35 0.35,-6.04 6.23,-8.1 4.05,-0.22 -0.74,-2.44 4.56,-2.45 5.52,0.88 0.88,-5.54 6.22,3.88 -2.64,3.26 2.57,1.12 2.29,-4.1 -1.23,-2.44 2.68,2.38 1.31,-2.66 z"
      />
  <path
     id="LV-010"
     title="Auces novads"
     class="land"
     d="m 372.74134,762.61643 -1.9,0.85 1.95,8.63 -15.02,9.99 -3.54,-5.57 -4.66,0.97 -3.18,-2.84 -3.67,-11.88 2.28,-1.12 -2.7,-9.86 -9.49,-2.91 -3.97,4.7 v 0 l -3.87,-0.73 -2.96,2.4 -15.63,-8.59003 -11.63,-1.11 -0.48,-7.08 6.41,-1.56 -8.93,-10.79 4.32,-2.76 -0.6,-7.08 3.6,-6.48 -1.07,-7.31 v 0 l 3.7,2.59 4.26,-1.83 -1.13,-1.76 4.7,0.61 0.35,-1.71 v 0 l 4.14,0.43 0.12,7.67 3,1.32 7.8,-8.75 8.28,-3 -3.36,-1.92 1.08,-3.72 5.16,-1.08 4.68,5.64 6.72,-2.19 6.36,8.88 4.44,1.68 -2.4,3 2.64,11.64 -1.44,7.8 7.07,3.24 -1.44,5.28 4.32,2.4 v 0 l 1.44,2.39 v 0 l -6,8.40003 6,4.92 z"
      />
  <path
     id="LV-011"
     title="Ādažu novads"
     class="land"
     d="m 550.75134,548.5664 4.79,-6.48 -0.8,-5.28 12.16,-6.4 2.48,-19.6 v 0 l 4,0.24 v 0 l 2.63,0.24 v 0 l 13.12,2.32 6.56,21.04 v 0 l -0.85,3.82 v 0 l -6.29,8.1 -12.3,4.9 -3.2,-1.4 -7.4,9.2 -13.4,-4.4 z"
      />
  <path
     id="LV-012"
     title="Babītes novads"
     class="land"
     d="m 471.34134,628.7064 -5.01,-2.39 -5.1,-13.07 -13.76,-9.9 -2.68,2.06 -1.94,-4.1 -16.41,-0.3 v 0 l -0.08,-3.47 v 0 l -2.13,-6.8 v 0 l 9.12,1.17 2.9,2.7 h 8.02 l 2.2,-6.8 3.4,2.6 h 8.2 l 1.5,-2.9 13.29,-1.3 1.3,-5.6 6.5,4 9,-4.4 7,1.3 8.9,-9.7 v 0 l 5.8,-0.5 2.6,3 -3.9,0.8 1.9,3.7 -6.5,3.6 -4.4,5.8 v 0 l -8.4,9.3 -3.8,0.4 -7,5.8 4.26,16.67 v 0 l -3.68,8.56 -6.47,-4.8 -2.16,0.96 v 3.84 l -2.45,-0.22 v 0 z"
      />
  <path
     id="LV-013"
     title="Baldones novads"
     class="land"
     d="m 599.15134,645.1364 0.26,11.24 v 0 l -5.66,0.21 -9.92,10.22 -9.9,2.32 -2.3,2.2 2.94,0.83 -2.12,1.01 v 0 l -16.25,-7.06 -3.69,-7.93 v 0 l -2.34,-2.99 v 0 h -1.74 v 0 l -2.37,-6.8 7.09,-4.4 2.1,3.9 2.5,-1.6 -0.2,-4.9 -3.5,-2.8 2.7,-5.5 6.1,4.3 9.6,-4 7.7,1.3 z"
      />
  <path
     id="LV-014"
     title="Baltinavas novads"
     class="land"
     d="m 1087.4813,615.3264 0.48,-7.61 -2.96,-2.8 1.44,-1.68 5.04,-2.48 11.27,1.76 2.24,-13.68 12.08,-4.24 4.8,-5.3 5.28,0.4 -3.74,-11.68 v 0 l 5.88,1.56 6.58,-3.15 v 0 l -0.37,1.82 8.74,0.59 -4.8,24.92 -2.45,2.21 -5.86,-0.77 -2.74,6.37 -2.24,18.28 v 0 l -6.61,-1.26 -2.04,-4.85 -3.95,0.55 -3.08,-6.64 -5.69,0.03 1.75,5.84 z"
      />
  <path
     id="LV-015"
     title="Balvu novads"
     class="land"
     d="m 1042.3413,499.6164 5.82,-1.08 1.16,-3.26 4.29,2.76 2.53,-6.3 8.91,0.03 -0.22,-2.64 9.58,-7.83 8.87,9.91 5.31,-2.82 4.02,0.8 0.31,-7.45 6.24,0.31 1.08,7.7 6.1,-1.8 v 0 l 1.19,0.13 v 0 l -0.19,3.25 -10.08,4.68 -7.92,10.44 -4.2,22.46 19.56,21.23 4.68,-2.88 1.08,3.96 -2.52,4.32 1.8,7.8 6.12,-2.16 5.88,1.92 1.67,4.92 v 0 l 3.74,11.68 -5.28,-0.4 -4.8,5.3 -12.08,4.24 -2.24,13.68 -11.27,-1.76 -5.04,2.48 -1.44,1.68 2.96,2.8 -0.48,7.61 v 0 l -8.58,5.59 6.08,0.86 -3.42,3.93 -4.61,-2.89 -3.63,2.83 1.94,10.61 v 0 l -0.75,0.15 v 0 l -6.68,0.68 -6.97,-3.38 -15.02,0.62 -3.32,-6.5 -4.29,2.33 -2.69,-2.52 -8.63,0.31 -0.12,4.2 -6.65,-0.34 0.71,-5.06 -7.91,-1.56 -3.73,4.69 -5.64,-8.74 v 0 l 2.58,-3.23 v 0 l 3.73,-1.96 4.11,-7.8 v 0 l 11.78,0.13 10.24,2.72 3.2,4.08 5.59,-0.08 11.04,-15.04 3.52,-0.16 3.36,-3.84 4.91,1.84 3.44,-5.2 -2.24,-12.55 -1.44,-1.21 -2.4,4.72 -6.24,-3.36 -1.84,-4.49 9.28,-3.36 2.16,-8.72 4.32,-4.56 -2.08,-3.76 -7.04,1.44 -9.2,-2.96 -12.39,-6.16 -0.08,-2.33 -2.4,-0.48 -2.88,3.2 -2.32,-1.04 -1.76,-2 1.2,-7.52 h -19.17 v 0 l 0.34,-0.46 v 0 l 12.2,-18.44 5.88,-3.16 z"
      />
  <path
     id="LV-016"
     title="Bauskas novads"
     class="land"
     d="m 577.37134,710.7264 0.43,4.75 5.12,0.48 4.16,10.71 5.91,-2.96 3.92,5.6 4.48,2 -4,5.04 0.88,2.64 4.48,1.44 -2.08,8.10003 -13.11,7.83 0.55,2.64 9.6,3.92 -8,8.48 7.52,6 3.04,-2.88 7.33,2.58 v 0 l 0.32,10.11 -9.59,1.51 -11.54,7.47 -5.34,-1.03 -5.03,-5.02 -5.97,1.58 -3.23,-7.27 -8.6,-0.69 0.34,3.96 -14.14,5.45 -4.71,4.8 -9.25,1.12 -4.14,-8.67 -8.26,-0.82 -0.02,-5.33 -4.36,-3.78 -1.23,-5.93 v 0 l 0.69,-2.63 4.8,-1.6 2.08,-6.72 6.08,-0.32 -2.08,-8.32 4.96,2.88 9.76,-0.8 -2.4,-5.28 -7.84,-1.28 -10.72,-10.23003 2.72,-5.28 -3.16,-14.42 v 0 l 6.03,-7.56 0.1,-4.38 v 0 l 17.03,4.51 11.99,6.07 4.32,-7.67 8.8,-2.56 3.36,1.92 2.4,-3.36 z"
      />
  <path
     id="LV-017"
     title="Beverīnas novads"
     class="land"
     d="m 776.93134,381.1264 18.23,-1.66 6.8,8.08 -1.84,6.4 8.24,0.8 2.96,3.84 -8.56,3.12 3.36,6.96 4.96,2.32 5.04,-5.2 0.72,5.76 -6.72,5.12 v 0 l -7.6,-0.88 -2.8,4.15 -4.16,-1.51 -6.29,7.59 v 0 l -10.65,-1.35 -6.53,4.34 -0.64,5.81 -3.12,1.31 -2.14,0.22 -3.06,-7.43 -7.8,5.12 -7.18,-4.06 -2.36,2.9 v 0 l -3.06,-4.28 1.84,-3.11 -3.36,-9.28 1.2,-4.72 v 0 h 11.44 l 2.96,-4.4 -0.85,-5.15 v 0 l 4.48,-1.6 5.44,-8.95 8.95,-3.6 2.32,-5.36 v 0 z"
      />
  <path
     id="LV-018"
     title="Brocēnu novads"
     class="land"
     d="m 256.86134,613.7964 6.24,5.22 9.43,-1.29 4.08,6.87 4.36,-0.86 0.42,4.55 6.33,-1.29 5.25,4.6 13.01,-3.77 1.09,3.8 v 0 l 5.43,8.43 1.38,16.56 -3.88,0.65 2.69,1.89 -1.01,4.13 v 0 l -3.42,0.34 -1.78,4.04 7.22,-0.13 5.23,11.95 -3.11,1.56 -1.4,9.12 -10.21,-1.22 -0.15,6.32 5.82,5.12 v 0 l -0.35,1.71 -4.7,-0.61 1.13,1.76 -4.26,1.83 -3.7,-2.59 v 0 l -10.63,-18.19 -7.56,-2.03 -1.56,6.35 -4.68,2.64 -1.5,4.14 -3.48,-1.5 -0.3,-13.37 -5.34,0.24 -4.44,-5.64 1.32,-18.08 -2.64,-2.4 v -6.24 l -4.36,1.5 -3.66,-9.42 4.98,-26.12 z"
      />
  <path
     id="LV-019"
     title="Burtnieku novads"
     class="land"
     d="m 777.15134,382.4264 -2.32,5.36 -8.95,3.6 -5.44,8.95 -4.48,1.6 v 0 l -3.28,-3.99 -12,2.55 v 0 l -4.96,-9.35 -10.64,-6.32 -1.2,-5.2 -10.75,-12.24 -2.16,-6.64 -10.55,6.24 -5.88,-0.95 v 0 l -2.76,-2.7 1.52,-6.04 -4.47,-3.57 5.27,-11.04 -3.13,-11.77 -7.84,-1.8 -4.1,-6.5 v 0 l 5.9,-5.36 5.59,0.2 8.4,5.5 0.7,-9.9 -3.5,-4.3 5.4,-2.6 2.5,0.1 6.2,9.6 8.5,6.1 2.9,-2.7 v 0 l 3.28,1.18 3.8,6.8 25.99,-1.7 v 0 h 3.7 v 0 l 9.5,1.1 v 0 l 9.6,3.1 18.19,13.6 v 0 l -2.4,5.69 h -8.99 l 1.2,4.2 -5.1,3.1 1.2,8.2 -14.33,1.27 -0.37,2.78 -3.57,1.53 1.76,6 11.75,4.48 v 0 z"
      />
  <path
     id="LV-020"
     title="Carnikavas novads"
     class="land"
     d="m 569.38134,510.8064 -2.48,19.6 -12.16,6.4 0.8,5.28 -4.79,6.48 v 0 l -3,-1.6 -7.69,5.7 v 0 l -5.6,-0.8 v -3.6 l -5.35,-4.5 v 0 l 14.1,-9.8 24.39,-24.65 v 0 z"
      />
  <path
     id="LV-021"
     title="Cesvaines novads"
     class="land"
     d="m 909.45134,556.2764 2.52,7.51 -1.44,6 6.24,5.76 -4.56,9.84 -6.8,1.28 1.52,6.8 -11.12,-3.84 -3.36,2.88 -7.75,0.4 -4.56,-12.24 -7.43,2.48 5.68,-6.24 -1.76,-16.48 2.08,-2.96 -0.12,-12.34 v 0 l 0.94,-3.49 17.4,2.94 4.05,-5.26 0.72,7.85 z"
      />
  <path
     id="LV-022"
     title="Cēsu novads"
     class="land"
     d="m 772.20134,499.7764 2.3,1.48 1.7,10.4 -2.7,2.3 -0.3,8.1 v 0 l -11.1,-5.2 -1.5,4.4 -7.49,-2 -4.5,-7.8 -6.9,-2.5 -4.4,-6.2 2.8,-6.49 -8.2,-2.2 1.2,-6.2 -3.7,-5.6 -7.1,-5.1 -7.47,0.68 v 0 l 0.49,-2.31 v 0 l 1.4,-2.8 -2.5,-2.9 2.3,-4 v 0 l 0.62,-1.63 v 0 l 13.86,4.26 2.1,3.3 -4.1,3.1 1.5,2.6 15.2,-2.4 11.19,5.92 5.2,7.1 -1.7,11.39 6.7,3.4 z"
      />
  <path
     id="LV-023"
     title="Ciblas novads"
     class="land"
     d="m 1114.6013,703.4364 -3.9,-1.95 -1.21,-8.3 4.73,-3.19 v 0 l 5,-1.8 1.2,-8.6 8,-3.5 3.2,-5.1 7,-1.6 10.19,2.5 4.8,-1.9 2,6.2 -8.4,0.1 11.7,4.3 2.3,-3.3 -2.4,-5 3.2,-15.39 4.6,0.1 3.2,8.2 9.95,-1.67 v 0 l 6.42,6.39 -0.85,10.99 5.36,13.31 2.59,2.99 11.19,0.33 2.75,2.84 0.05,6.52 -6.23,3.14 -1.65,4.2 1.23,5.48 3.96,-1.74 1.83,1.59 -0.76,5.05 2.06,2.9 v 0 l -8.22,0.14 -2.64,4.08 -2.99,-6.12 -3.96,-1.8 -3.72,5.16 -4.2,0.48 -3.12,6.48 -3.36,0.12 -2.76,-1.2 0.24,-6 -5.52,-3.96 -1.44,-4.08 -5.4,-2.27 -2.28,-4.68 -6.48,1.56 -1.32,4.79 -14.03,-14.15 -2.76,-0.36 -2.28,3.72 -11.64,-6.84 z"
      />
  <path
     id="LV-024"
     title="Dagdas novads"
     class="land"
     d="m 1140.0013,882.55643 -15.36,-10.88 -2,2.3 1,6.7 -8.6,-0.5 -28.59,-16.79 -9.7,5.69 -1.8,-2.99 4.1,-13.6 -19.78,-2.68 v 0 l -3.12,-2.24 1.36,-4.88 -3.04,-1.68 14.29,-3.59 5.75,-7.44 -6.71,-7.2 1.52,-7.68 v 0 l 3.75,-2.48 7.33,0.18 2.42,0.4 -0.07,2.46 6.08,0.56 3.6,-7.49 -1.84,-3.07 9.68,1.12 4.08,-2.48 1.23,-5.35 10.37,5.59 9.67,-2.24 4.3,1.48 v 0 l 6.6,11.23 5.9,2.8 9.3,0.1 8.4,4.3 5.4,-2.2 2.39,3.1 5.9,-5.2 7.1,0.7 10.98,-8.36 2.5,0.2 0.02,6.08 3.88,-2.28 v 0 l 0.41,-0.83 v 0 l 2.36,3.18 -9.2,13.36 2.62,3.74 v 0 l -3.53,5.04 -7.89,-2.42 -3.35,1.69 -12.13,22.12 -4.99,-1.83 -10.5,4.87 3.59,4.08 -5.25,4.33 1.63,5.67 -4.95,4.23 z"
      />
  <path
     id="LV-025"
     title="Daugavpils novads"
     class="land"
     d="m 1005.5013,915.84643 -1.85,-7.93 5.57,-6.82 -3.24,-5.78 4.92,-5.49 -5.58,-4.34 -0.96,-10.56 5.58,0.39 1.44,-2.52 -4.46,-9.56 3.48,-7.7 -6.61,0.69 -3.6701,-10.59 -3.49991,-3.4 0.81,-5.36 -0.66,-3.01 -6.16995,6.21 -5.44,-4.08 -11.84,7.68 h -7.44 l -2.2,-7.8 -6.71,-1.15 -2.88,2.4 -8.5,-3.85 -2.57,-7.72 -2.85,2.29 -0.56,8.72 -5.76,0.56 -2.55,-13.07 -6.91,-7.27 -6.12,4.86 -6.16,-6.97 -8.29,4.44 -6.11,1.59 0.77,0.56 6.47,8.91 -0.4,18.65 0.99,1.15 2.16,18.96 3.84,9.48 -2.28,3.12 -6.36,-1.32 -6.6,5.21 -1.32,4.27 h -2.88 v 5.57 l 6.84,1.56 -7.56,3.48 -1.8,5.4 2.88,5.52 9.84,7.68 -2.04,4.92 2.04,3.12 -2.88,2.04 -4.44,-2.16 -7.94,1.61 5.52,15.29 7.4,7.13 6.93,1.28 4.98,10.4 13.58,-0.15 9.83,7.75 12.86,1.58 6.26,-1.9 3.69,-7.6 10.53,1.82 4.04,5.51 6.61,1.37 2.91,-5.9 11.93,-4.98 8.66996,-22.34 4.16,0.24 5.33,-7.83 0.61,-14.62 z m -61.31996,0.79 -3.84,4.92 -5.4,-2.88 -4.08,2.76 -3.84,-6.12 3,-4.32 -8.28,-14.4 4.32,-1.56 12.84,5.52 7.8,-12.96 3.96,10.2 2.04,15.36 z"
      />
  <path
     id="LV-026"
     title="Dobeles novads"
     class="land"
     d="m 411.48134,725.0464 -3.2,-13.32 -5.64,-5.16 -1.44,5.16 -11.4,8.51 0.96,9 4.68,1.56 -2.04,4.2 -2.28,1.32 -10.08,-3.72 -9.71,2.76 -3.68,4.33 v 0 l -0.6,-0.98 v 0 l -4.32,-2.4 1.44,-5.28 -7.07,-3.24 1.44,-7.8 -2.64,-11.64 2.4,-3 -4.44,-1.68 -6.36,-8.88 -6.72,2.19 -4.68,-5.64 -5.16,1.08 -1.08,3.72 3.36,1.92 -8.28,3 -7.8,8.75 -3,-1.32 -0.12,-7.67 -4.14,-0.43 v 0 l -5.82,-5.12 0.15,-6.32 10.21,1.22 1.4,-9.12 3.11,-1.56 -5.23,-11.95 -7.22,0.13 1.78,-4.04 3.42,-0.34 v 0 h 3.74 l 1.58,-2.84 2.93,1.1 -0.02,-2.72 4.79,-1.44 20.4,-1.13 2.3,7.16 13.83,1 1.07,-3.24 v 0 -1.3 0 l 10.87,3.39 1.73,-1.96 -2.21,-3.25 2.98,-4.13 13.41,4.25 11.44,-12.42 -6.17,-7.08 4.09,-1.38 5.75,-7.76 1.67,-0.79 1.54,4.41 10.87,-1.62 6.25,-5.19 v 0 l 3.4,-0.61 3.75,18.3 -12.07,5.45 -5.38,6.58 -0.94,4.23 8.56,2.66 3.74,3.85 -5.88,1.16 3.71,6.69 -7.27,3.82 -0.19,5.65 -5.6,1.95 -0.49,4.89 13.56,1.95 1.03,2.99 -10.52,2.59 0.31,4.72 7.47,4.24 -4.4,10.69 0.98,3.1 z"
      />
  <path
     id="LV-027"
     title="Dundagas novads"
     class="land"
     d="m 270.41134,358.4064 -4.88,1.38 -1.6,9.92 2.56,6.24 8.96,9.73 -4.16,8.95 2.88,2.4 1.76,11.2 v 0 l 0.8,3.68 v 0 l -8.48,3.68 -4.48,-3.84 -1.92,0.96 -2.4,10.24 -4.79,3.2 -4.48,14.87 -8,-2.08 -10.56,5.92 -1.44,-7.36 -7.04,-3.67 -2.56,4.32 -1.76,-2.4 -4.32,2.23 -1.28,2.56 2.06,3.07 v 0 l -10.31,3.24 -8.06,-1.58 -9.93,-6.74 16.32,-8.08 2.16,-3.43 -2.81,-1.07 -1.21,-4.62 4.61,1.22 10.13,-9.69 5.09,-0.31 -1.91,-15.36 -4.38,-9.46 0.39,-6.23 2.07,-0.16 -5.13,-7.84 -4.4,2.83 3.45,-4.49 -4.37,-6.46 52.92,-27.44 15.14,-4.72 z"
      />
  <path
     id="LV-028"
     title="Durbes novads"
     class="land"
     d="m 103.11134,702.4464 -4.219996,-2.88 -8.04,5.51 -1.32,3.36 4.2,6.36 -1.2,2.76 h -3.48 l -15.12,-12.48 -2.04,2.28 0.84,8.04 -8.03,-0.36 v 0 l -1.44,-4.92 -10.56,2.04 -3.84,-1.56 2.4,-2.76 -2.4,-1.92 -0.24,-7.55 4.2,-7.56 -5.78,-14.77 v 0 l 0.95,-4 3.55,0.15 2.1,-3.2 v -6.3 l -6.85,-9.94 3.95,-5.56 5.4,1.25 v 0 l 0.34,4.74 7.5,7.1 8.2,3.5 0.89,6.7 5,-2.3 -0.4,4.89 4.1,4.5 18.999996,-5.4 5.4,2.4 3.6,24 -6.7,3.5 v 0 z"
      />
  <path
     id="LV-029"
     title="Engures novads"
     class="land"
     d="m 421.64134,588.5364 -17.44,5.74 -14.32,-2.8 -6.64,1.12 -6.56,-3.84 -8.4,2.72 -4.87,-0.88 4.47,-7.76 7.2,-2.96 -0.56,-3.52 -4.08,-0.16 -3.36,-3.2 5.44,-7.36 -2.48,-4.23 7.76,-3.44 0.24,-4.96 3.44,-2.79 -6.48,-16.15 -7.6,-5.36 -3.51,1.52 -10.4,-8.08 7.04,-4.8 1.2,-8.56 3.59,-2.72 -2.39,-2.48 -0.92,-11.67 v 0 l -2.63,-14.84 1.87,-3.92 5.13,-1.77 v 0 l 5.59,17.03 -0.14,9.03 9.85,22.16 0.27,16.34 3.5,6.12 15.95,12.82 23,4.32 5.69,12.09 4.86,4.9 v 0 l -12.44,4.32 z"
      />
  <path
     id="LV-030"
     title="Ērgļu novads"
     class="land"
     d="m 796.31134,641.7664 -5.88,-10.26 -12.24,-4.8 -7.32,1.92 -6.78,-4.2 v 0 l 0.13,-6.58 -2.05,0.49 -3,-3.93 2.12,0.31 -0.5,-4.39 10.95,-1.85 -7.3,-7.28 5.05,-10.34 -3.29,-3.75 -2.01,-11.46 -4.13,-1.05 0.76,-3.17 v 0 l 1.78,-2.31 12.37,8.16 11.17,-7.49 -0.03,6.51 -2.44,2.06 2.15,4.13 11.46,-8.04 1.9,-4.16 4.83,-0.06 3.45,5.97 2.63,0.71 4.49,-3.91 5.86,6.1 0.4,3.36 7.32,-0.74 v 0 l 0.1,-0.14 v 0 l 9.4,9.83 -1.44,5.75 -8.28,-0.24 -1.08,2.64 -5.28,-2.4 -3.48,2.88 -3.72,-1.32 -7.56,3.12 -4.68,4.8 -0.36,5.04 4.56,6.96 -0.8,4.74 v 0 l -3.18,1.99 3.54,3.53 -3.35,4.32 0.65,4.14 z"
      />
  <path
     id="LV-031"
     title="Garkalnes novads"
     class="land"
     d="m 571.60134,580.7564 -5.4,-2.76 v 0 l -1.56,0.61 v 0 l -9.09,-11.35 -10.3,-3.9 -1.8,-7.79 -3.39,-2.9 v 0 l 7.69,-5.7 3,1.6 v 0 l 1.5,6.3 13.4,4.4 7.4,-9.2 3.2,1.4 12.3,-4.9 6.29,-8.1 v 0 l 3.4,1.2 -2.4,4.6 1.7,1.4 6.9,-2.6 3.9,6.6 v 0 l -2.8,2 -4,-3.1 -4.3,5.4 2.1,12.69 -21.69,2.9 -1.8,3.5 2,3 z"
      />
  <path
     id="LV-032"
     title="Grobiņas novads"
     class="land"
     d="m 64.701344,715.0364 -0.24,8.4 7.19,2.28 -0.36,7.32 6.24,8.64 2.4,8.76003 -2.64,14.51 -5.76,9.48 v 0 l -18.71,1.32 -7.08,-8.04 v 0 l -2.88,-23.27003 -3.24,-0.96 -4.2,3.12 -5.76,-4.44 -1.44,-18.48 -12.35,2.36 v 0 l 0.2,-0.22 v 0 l -0.2,-6.19 2.8,-5.3 5.55,-3.6 v -9.55 l -5.35,0.1 0.1,-11.22 -8.959999,-1.45 v 0 l 1.979999,-6.96 v 0 l 5.67,2.82 8.4,-0.72 -0.36,-10.56 3.6,-5.52 9.34,10.52 8.4,-2.15 v 0 l 5.78,14.77 -4.2,7.56 0.24,7.55 2.4,1.92 -2.4,2.76 3.84,1.56 10.56,-2.04 z"
      />
  <path
     id="LV-033"
     title="Gulbenes novads"
     class="land"
     d="m 893.39134,467.2464 12.64,4.14 14.52,-3.58 -1.68,-6.35 -5.72,3.24 -0.69,-4.55 5.77,0.16 1.68,-5.14 9.37,-0.99 -4.71,-7.39 2.29,-2.55 3.77,1.43 4.76,-2.59 -0.64,3.15 4.75,2.87 4.44,-3.43 v 0 l 3.16,3.15 v 0 l 1.45,7.38 6.8,4.45 -1.72,4.52 8.21,0.74 -0.49,4.95 6.11,4.2 4.78,0.03 -0.12,-5.32 3.6,-1.03 5.45,4.14 10.08,-1.03 2.12,4.64 18.89996,-2.37 8.11,8.18 8.11,3.32 -4.54,3.2 -0.62,3.57 19.01,7.23 v 0 l -9.37,15.78 -5.88,3.16 -12.2,18.44 v 0 l -1.56,2.11 v 0 l -8.56,16.34 -13.20996,6.94 0.18,5.43 2.78,-0.49 -2.91,7.61 v 0 l -11.76,-1.42 -1.97,-2.68 -7.81,2.28 -4,5.15 -2.78,-2.03 -8.14,2.71 -10.44,7.48 -2.32,-1.29 v 0 l -4.19,-22.13 -7.55,-10.31 -2.81,1.3 -5.84,-4.3 -3.03,3.56 -9.52,3.02 v 0 l -7.75,-9.11 -0.72,-7.85 -4.05,5.26 -17.4,-2.94 -0.94,3.49 v 0 l -3.15,-1.67 -8.26,3 -2.71,-1.24 v 0 l 4.42,-4.63 0.74,-5.81 5.36,-4.83 -0.07,-3.9 -8.01,-8.88 -2.73,-11.01 -6.36,-3.5 -9.57,0.43 v 0 l -2.27,-9.12 6.64,-2.6 1.52,2.54 2.98,-1.21 -1.82,-5.62 v 0 l 5.8,-5.03 6.38,3.63 5.87,-2.79 17.99,-0.19 -1.88,-7.58 3.77,0.28 1.98,-2.36 z"
      />
  <path
     id="LV-034"
     title="Iecavas novads"
     class="land"
     d="m 572.45134,673.1664 3,8.92 -0.64,2.56 h -9.76 l 0.8,15.68 1.76,2.4 9.76,0.8 v 7.2 0 l -5.6,-3.2 -2.4,3.36 -3.36,-1.92 -8.8,2.56 -4.32,7.67 -11.99,-6.07 -17.03,-4.51 v 0 l 2.71,-1.41 3.84,-9.14 -12.62,-0.27 -0.49,-3.72 -4.09,0.06 -1.78,-5.25 3.84,-1.22 -1.17,3.14 3.12,1.32 -0.42,-3.18 5.28,-0.64 -1.51,-5.61 -3.05,-0.19 3.87,-2.62 -9.4,-2.23 -2.07,-4.28 0.67,-2.32 2.54,0.24 2.04,3.82 3.7,-0.37 -1.37,-10.85 v 0 l 3.49,-1.43 5.52,3.64 1.68,-2.6 1.8,6.57 4.73,1.68 1.34,-2.05 1.67,3.06 0.12,-2.45 4.44,-1.71 -3.45,-1.77 2.31,-0.61 v -3.64 l 1,2.72 9.93,-2.32 0.42,-4.81 v 0 l 3.69,7.93 z"
      />
  <path
     id="LV-035"
     title="Ikšķiles novads"
     class="land"
     d="m 594.95134,600.3964 11.19,-1.78 2.16,2.94 h 13.32 l 10.38,-2.22 v 0 l -0.28,1.66 v 0 l -0.05,3.04 8.16,6.64 -0.64,1.76 -4.96,0.48 -3.52,3.28 -2.48,-2.24 -3.76,0.56 -5.75,8.64 -8.24,-2.64 -5.44,4.08 v 0 l -6.88,3.04 v 0 l -3.1,0.26 v 0 l -10.09,-10.17 v 0 l 2.19,-7.74 -3.84,-7.32 12.6,7.21 z"
      />
  <path
     id="LV-036"
     title="Ilūkstes novads"
     class="land"
     d="m 905.55134,849.92643 2.16,18.96 3.84,9.48 -2.28,3.12 -6.36,-1.32 -6.6,5.21 -1.32,4.27 h -2.88 v 5.56 l 6.84,1.56 -7.56,3.48 -1.8,5.4 2.88,5.52 9.84,7.68 -2.04,4.92 2.04,3.12 -2.88,2.04 -4.44,-2.16 -7.94,1.61 v 0 l -1.13,-5.8 -4.88,-6.58 -13.26,-5.75 -4.72,-5.86 -7.88,-16.64 -25.14,-14.07 -6.66,-0.09 -0.03,-6.34 -3.91,-2.94 -1.86,-5.8 v 0 l 2.35,-0.55 0.42,-6.16 5.59,-3.7 -5.86,-4.58 -1.93,-6.11 12.43,8.01 5.94,10.11 12.23,-7.82 v 0 l 6.45,6.59 7.42,-5.87 2.86,-7.62 4.85,4.19 2.75,-6.96 -2.87,-3.04 12.13,-13.05 2.91,-0.06 3.84,1.63 0.8,5.93 5.94,-3.37 4.46,1.75 1.8,3.61 -2.05,3.08 0.76,9.91 3.19,3.7 v 0 z"
      />
  <path
     id="LV-037"
     title="Inčukalna novads"
     class="land"
     d="m 643.15134,527.3564 -2.19,8.56 -4.88,-0.16 3.92,4.07 -0.08,4.64 -8.24,2.56 -0.24,2.56 -4.48,1.76 -6.8,-3.12 -2.51,1.67 v 0 l -9.31,-0.23 v 0 l -3.9,-6.6 -6.9,2.6 -1.7,-1.4 2.4,-4.6 -3.4,-1.2 v 0 l 0.85,-3.82 v 0 l 8.37,-3.09 3.1,-6.29 15.89,3.59 v 0 l 1.5,1 10.2,-6.29 6.9,0.2 z"
      />
  <path
     id="LV-038"
     title="Jaunjelgavas novads"
     class="land"
     d="m 771.48134,699.8064 0.45,2.65 8.91,-1.89 -0.87,8.17 -6.08,2.56 -2.91,7.7 8.15,9.09 0.06,4.14 v 0 l -7.26,7.84 -6.01,-1.91 -8.36,11.69003 -13.47,1.06 -14.01,-3.83003 -0.88,3.37003 v 0 l -23.61,-3.75003 -11.49,0.6 -3,-14.3 -3.7,-1.9 -4.36,-10.56 v 0 l -0.7,-11.7 -7.4,-4.9 -1.4,-5.9 v 0 l 10.05,-2.57 3.72,-2.94 0.12,-3.47 v 0 l 6.36,-5.82 7.13,1.56 v 0 l 22.02,15.83 3.12,-6.84 6.87,0.12 v 0 l 8.52,-8.03 v -2.58 l 8.4,-3.84 13.38,9.84 v 0 l 0.42,9.23 z"
      />
  <path
     id="LV-039"
     title="Jaunpiebalgas novads"
     class="land"
     d="m 833.21134,539.9364 -5.77,0.01 -7.67,-10.44 -10.56,-2.76 -1.44,-2.39 1.92,-5.4 -3.48,-4.2 1.75,-9.26 v 0 l 1.85,-0.22 v 0 l 7.68,-1.68 4.43,7.8 4.08,1.32 9.72,-1.56 12.53,-8.07 v 0 l 9.57,-0.43 6.36,3.5 2.73,11.01 8.01,8.88 0.07,3.9 -5.36,4.83 -0.74,5.81 -4.42,4.63 v 0 l -6.8,-4.82 -6.78,5.5 -11.96,-7.44 z"
      />
  <path
     id="LV-040"
     title="Jaunpils novads"
     class="land"
     d="m 331.03134,613.8864 1.37,1.3 -9.29,7.6 4.2,2.09 1.5,4.6 7.19,2.4 13.7,-4.3 5.8,21.2 2.5,4.7 3.3,1 1,4.2 v 0 2.5 0 l -1.07,3.24 -13.83,-1 -2.3,-7.16 -20.4,1.13 -4.79,1.44 0.02,2.72 -2.93,-1.1 -1.58,2.84 h -3.74 v 0 l 1.01,-4.13 -2.69,-1.89 3.88,-0.65 -1.38,-16.56 -5.43,-8.43 v 0 l 4.06,-6.65 4.4,-2.39 -1.3,-8.6 4.7,-1.8 z"
      />
  <path
     id="LV-041"
     title="Jelgavas novads"
     class="land"
     d="m 426.44134,601.0064 16.41,0.3 1.94,4.1 2.68,-2.06 13.76,9.9 5.1,13.07 5.01,2.39 v 0 l 0.05,0.04 v 0 l -2.59,18.6 v 0 l -5.49,1.31 -1.76,4.64 -5.6,1.92 2.08,2.88 h 6.88 l 1.76,4.64 -2.08,0.48 v 0 l -2.56,1.44 v 0 l -5.76,4.47 -5.6,-2.88 -3.36,2.72 2.56,5.92 6.56,5.92 -0.64,10.88 2.4,1.76 3.68,-5.12 11.36,-3.68 0.48,-1.92 -4.96,-2.4 2.56,-2.88 2.4,0.96 v 0 0 0 l 7.68,1.92 7.36,5.44 9.11,0.96 6.4,11.68 2.88,13.44 10.6,8.71 v 0 0 0 l -5.26,2.27 -9.45,-0.76 -5.15,7.09 -8.33,1.18 -6.08,11.25 -0.13,3.03 3.18,1.77 -2.94,1.64003 1.16,4.67 -2.58,0.36 -0.7,3.28 8.96,0.67 -2.91,5.39 0.68,9.49 v 0 l -11.06,-0.61 -3.75,6.27 -2.59,-0.78 2.42,-11.94 -2.47,-3.4 -22.06,3.76 -14.77,8.76 -17.94,-5.85 -3.55,-5.54 -4.78,-2.28 v 0 l 8.11,-2.09 5.77,-6.37 -5.52,-7.07003 -1.11,-5.38 1.85,-2.7 -4.49,-1.07 4.32,-7.02 -5.09,-3.53 v 0 0 0 l 6.81,-3.8 -0.98,-3.1 4.4,-10.69 -7.47,-4.24 -0.31,-4.72 10.52,-2.59 -1.03,-2.99 -13.56,-1.95 0.49,-4.89 5.6,-1.95 0.19,-5.65 7.27,-3.82 -3.71,-6.69 5.88,-1.16 -3.74,-3.85 -8.56,-2.66 0.94,-4.23 5.38,-6.58 12.07,-5.45 -3.75,-18.3 -3.4,0.61 v 0 l -3.54,-21.19 5.51,-2.42 v 0 z"
      />
  <path
     id="LV-042"
     title="Jēkabpils novads"
     class="land"
     d="m 831.62134,723.7164 3.58,5.14 21.19,7.79 5.69,14.71003 v 0 l 7.54,2.67 3.31,6.22 4.66,25.11 3.25,6.63 -3.38,12.36 15.29,8.88 4.87,7.36 v 0 l 0.87,0.63 v 0 l 6.47,8.92 -0.4,18.65 v 0 l -0.57,-0.66 v 0 l -3.19,-3.7 -0.76,-9.91 2.05,-3.08 -1.8,-3.61 -4.46,-1.75 -5.94,3.37 -0.8,-5.93 -3.84,-1.63 -2.91,0.06 -12.13,13.05 2.87,3.04 -2.75,6.96 -4.85,-4.19 -2.86,7.62 -7.42,5.87 -6.45,-6.59 v 0 l -1.05,-6.64 -5.16,-1.32 -4.38,-6 3.24,-4.2 -0.72,-2.4 -12.06,-6.11 -3.08,-14.82 -13.11,-4.8 -18.68,1.02 v 0 -5.01 0 l -2.8,-10.9 2.7,-3.5 h 7.19 l 1.4,-17.62 v 0 l 9.78,-0.32 1.4,-4.6 4.1,-1.9 -0.3,-6.7 4.4,-1.3 0.3,-2.7 -7.2,-8.50003 2.9,-10.79 v 0 l -0.14,-0.92 v 0 l 9.74,3.04 z"
      />
  <path
     id="LV-043"
     title="Kandavas novads"
     class="land"
     d="m 256.86134,613.7964 3.77,-5.75 0.77,-7.84 -0.94,1.45 -0.77,-2.37 4.09,-1.41 0.24,-4.75 -9.6,-1.68 -4.88,2.86 v 0 l -0.57,-6.4 3.52,-1.39 0.55,-11.27 1.55,0.68 4.04,-11.59 v 0 l 8.36,3.7 3.42,-2.69 -2.43,-0.64 0.51,-2.41 5.01,-0.8 7.94,3.51 1.94,-5.73 -2.96,-10.97 0.47,-8.56 22.33,-4.6 6.15,-8.88 2.14,1.67 8.21,-2.35 10.74,3.37 v 0 l 1.47,4.44 -9.5,9.2 -8.4,3.3 1.7,3.6 -1.6,6.9 5.5,3.2 0.3,2.5 -1.4,4.6 -6.9,1.7 -1.5,9.19 2.2,8.3 6.1,7.1 h 8.3 l 1,9.6 -2.4,2 5.7,9.3 v 0 l -12.1,-1.7 -4.7,1.8 1.3,8.6 -4.4,2.39 -4.06,6.65 v 0 l -1.09,-3.8 -13.01,3.77 -5.25,-4.6 -6.33,1.29 -0.42,-4.55 -4.36,0.86 -4.08,-6.87 -9.43,1.29 z"
      />
  <path
     id="LV-044"
     title="Kārsavas novads"
     class="land"
     d="m 1114.2213,689.9964 1.02,-7.1 -6.98,-1.18 -4.14,-6.81 -3.51,-0.67 -3.5,3.57 -3.92,-7.85 4.25,-3.79 1.57,-12.46 3.89,-2.9 -0.89,-6.9 -5.9,-2.4 1.6,-4.3 -17.1,1.5 -4.6,-2.6 v 0 l -0.75,0.15 v 0 l -1.94,-10.61 3.63,-2.83 4.61,2.89 3.42,-3.93 -6.08,-0.86 8.58,-5.59 v 0 l 19.05,-1.81 -1.75,-5.84 5.69,-0.03 3.08,6.64 3.95,-0.55 2.04,4.85 6.61,1.26 v 0 l 5.2,-0.25 7.47,-6.17 12.94,-2.24 7.28,-4.49 3.67,0.89 -0.84,2.86 5.87,13.69 10.59,-4.29 1.36,7.27 -5.4,3.1 v 7.42 l -4.66,1.16 -2.83,6.56 7.89,11.23 5.76,2.82 -0.69,4.13 v 0 l -9.95,1.67 -3.2,-8.2 -4.6,-0.1 -3.2,15.39 2.4,5 -2.3,3.3 -11.7,-4.3 8.4,-0.1 -2,-6.2 -4.8,1.9 -10.19,-2.5 -7,1.6 -3.2,5.1 -8,3.5 -1.2,8.6 z"
      />
  <path
     id="LV-045"
     title="Kocēnu novads"
     class="land"
     d="m 694.54134,366.0364 5.88,0.95 10.55,-6.24 2.16,6.64 10.75,12.24 1.2,5.2 10.64,6.32 4.96,9.35 v 0 l 1.73,10.99 v 0 l -1.2,4.72 3.36,9.28 -1.84,3.11 3.06,4.28 v 0 l 1.79,0.75 -4.11,3.84 2.95,4.68 -3.25,3.33 -0.45,5.77 v 0 l -5.4,1.7 -0.73,-5.67 -3.12,-2 -5.52,4.8 -5.35,-2.24 -2.96,-5.52 -4.15,-1.42 -0.81,3.74 -3.52,-1.2 -3.76,-10.15 -6.24,-4.48 0.48,-8.32 -3.6,-2.32 -3.84,1.6 -1.68,-3.52 -3.08,-0.42 v 0 l 2.41,-2.56 -6.45,-1.34 1.41,-4.43 -8.22,-12.66 -13.68,3.96 -1.98,-1.38 -3.12,-6.12 1.67,-9.33 v 0 l -0.01,-0.91 v 0 l 5.16,1.26 11.64,-10.97 2.94,1.2 1.2,4.8 5.46,0.12 2.04,-2.88 -1.98,-7.37 z"
      />
  <path
     id="LV-046"
     title="Kokneses novads"
     class="land"
     d="m 764.09134,624.4264 6.78,4.2 7.32,-1.92 12.24,4.8 5.88,10.26 v 0 l -3.36,3.99 -10.92,-2.88 3.6,4.92 v 9.24 l -8.4,1.92 2.88,7.56 -9.24,10.32 -3.36,12.6 -4.28,-0.14 v 0 l -13.38,-9.84 -8.4,3.84 v 2.58 l -8.52,8.03 v 0 l -3.71,-12.84 0.7,-10.7 -3.4,-8 v 0 l 2.25,-8.58 -6.16,-2.72 -0.08,-2.24 11.11,-7.2 12.16,1.68 3.28,-4.48 4.48,1.2 5.92,-5.6 2.16,-8.47 z"
      />
  <path
     id="LV-047"
     title="Krāslavas novads"
     class="land"
     d="m 1140.0013,882.55643 -14.34,13.08 0.02,4.67 -4.83,6.29 2.54,13.86 -4.73,17.6 -30.3,-2.24 -11.11,-6.01 -2.99,4.46 -11.14,4.15 -5.52,-2.75 -7.47,-10.97 -5.49,-1.52 -3.04,-4.55 -8.15,2.51 -1.44,5.15 -13.85,-0.63 -5.89,4.39 v 0 l 0.61,-14.62 -7.38,0.42 -1.84,-7.93 5.56,-6.82 -3.24,-5.79 4.92,-5.49 -5.58,-4.35 -0.96,-10.56 5.58,0.39 1.44,-2.52 v 0 l 8.94,5.15 6,-4.07 13.51,2 6.24,-5.25 0.8,-13.12 8.32,-1.92 4.08,-5.76 v 0 l 19.78,2.68 -4.1,13.6 1.8,2.99 9.7,-5.69 28.59,16.79 8.6,0.5 -1,-6.7 2,-2.3 z"
      />
  <path
     id="LV-048"
     title="Krimuldas novads"
     class="land"
     d="m 624.75134,501.1364 5.62,-1.77 1.48,-3.38 -4.49,-0.07 -2.24,-16.17 -5.68,-1.76 -1.28,-4 7.36,-4.24 4.64,-6.96 -3.12,-10.96 9.52,-7.44 2.32,1.44 -0.72,4.4 14,1.36 v 0 l 6,14.08 5.76,0.93 -4.9,6.4 2.93,4.79 2.79,-0.25 5.54,5.72 -2.42,8.57 v 0 l -0.37,0.09 v 0 l -4.75,5.65 v 0 l -0.39,2.36 v 0 l -3.5,11.44 -10.3,2.5 -3.1,7.3 0.3,6.4 -2.6,-0.21 v 0 l -1.5,-3.59 -6.9,-0.2 -10.2,6.29 -1.5,-1 v 0 l 2.1,-4 -0.8,-9.49 -1.9,-1.9 -7.3,0.3 v -7.9 l 6.9,-0.3 z"
      />
  <path
     id="LV-049"
     title="Krustpils novads"
     class="land"
     d="m 862.08134,751.35643 -5.69,-14.71003 -21.19,-7.79 -3.58,-5.14 v 0 -3.1 l 3.9,-1.6 0.3,-2.5 -8.4,-3 -8.5,1.48 v 0 l -12.7,-3.06 -3.6,-10 3.6,-6.8 0.21,-6.95 v 0 h 0.12 v 0 l 4.16,2.14 9.41,-1.56 15.34,-7.72 v 0 l 7.99,-8.25 2.43,7.06 3.7,1.13 2.47,5.61 17.79,-11.42 3.88,4.71 5.19,-1.71 4.74,13.52 9.56,-5.37 1.43,10.43 5.2,0.34 7.94,-7.51 3.06,-10.92 v 0 l 17.97,14.77 18.41,0.06 -2.32,15.88 4.74,-3.38 2.53,4.93 v 0 l -4.95,12.36 2.89,-0.67 -0.32,4.23 -5.77,0.06 v 0 l -2.25,0.06 v 0 l -3.2,-0.21 0.3,-2.41 -10.44,-1.55 -7.29,7.97 -12.62,7.26 0.03,-7.14 -8.8,-7.81 1.94,-3.08 -9.53,-3.59 -0.35,3.84 -6.07,3.22 -12.27,21 z"
      />
  <path
     id="LV-050"
     title="Kuldīgas novads"
     class="land"
     d="m 202.34134,631.9364 -4.65,-4.2 -4.96,1.2 -3.2,-6.24 -7.92,-0.72 -2,2.8 -4.72,-2.88 -2.56,0.96 -5.6,4.8 -3.04,6.88 4.64,20.03 -2.64,2.24 -5.6,-2.32 -4.95,1.52 -2.96,3.76 -5.44,1.12 -1.72,4.6 v 0 l -11.14,-4.83 2.71,-2.14 0.23,-6.06 -3.18,-0.7 1.01,-3.89 -3.04,-6.4 -8.99,-7.45 -8.38,-0.49 -7.97,-15.99 -13.799996,1.02 -0.76,-7.65 -6.11,-4.67 v 0 0 0 l 3.17,-7.84 v 0 l 9.21,3.26 4.499996,-8.7 9.5,1.6 1.8,-4.1 7.9,-2.7 2.49,-4.1 -3.69,-12.1 -9.9,-10.4 0.6,-6.78 -4.3,-0.6 -9.129996,-7.63 v 0 l 4.329996,-4.39 3.85,1.21 8.56,-10.45 7.71,3.21 2.05,-4.51 7.86,5.5 6.24,-0.46 1.33,3.62 -2.64,2.25 2.05,2.82 1.49,-2.41 4.05,2.19 3.23,-7.23 5.91,1.45 2.18,3.03 3.49,-3.15 5.3,1.67 2.5,-2.63 6.68,-0.37 2.18,-3.68 9.01,4.64 9.29,-0.22 -0.35,-2.97 10.08,-1.45 2.25,-2.32 2.68,-19.91 v 0 l 2.84,3.81 4.21,0.46 -1.63,8.46 4.99,5.26 14.52,5.04 2.28,17.09 -2.53,1.05 0.09,3.71 0.37,2.37 2.97,-0.15 1.35,7.16 9.74,-2.01 5.56,2.16 3.33,-3.42 1.48,1.76 v 0 l -4.04,11.59 -1.55,-0.68 -0.55,11.27 -3.52,1.39 0.57,6.4 v 0 l -3.7,9.41 -5.2,1.63 -7.12,-4.92 -1.41,-7.66 -7.8,-2.64 -2.92,4.3 1.4,4.92 -3.01,0.22 -0.86,4.52 10.5,1.07 0.3,4.09 3.63,3.14 -2.49,4.08 -3.63,-0.52 -2.04,4.91 -8.88,0.77 -3.97,2.82 -2.96,8.53 z"
      />
  <path
     id="LV-051"
     title="Ķeguma novads"
     class="land"
     d="m 687.43134,689.0564 -0.12,3.47 -3.72,2.94 -10.05,2.57 v 0 l -9.09,1.86 -2.78,-1.65 -5.44,2.56 -4.4,-1.28 -17.92,9.28 -5.36,-1.92 -4.51,1.2 -2.12,-6.54 5.84,-0.52 -0.14,-4.51 -2.35,-2.11 -3.18,1.34 0.86,-4.39 -8.63,-0.03 -5.64,-15.57 0.3,-6.08 8.84,-0.43 -0.93,-11.4 -16.84,1.01 -0.64,-2.48 v 0 l -0.26,-11.24 v 0 l 2.51,-4.74 -1.42,-5.51 -3.44,-2.24 0.25,-4.92 v 0 l 1.11,-0.09 v 0 l 6.88,-3.04 v 0 l 5.25,2.43 7.6,12.79 10.89,6 7.8,-1.4 1,-5.29 5.3,-2.2 0.6,-2.1 -3.8,-0.6 1.7,-8.3 5.9,0.4 0.8,-9.4 2,-1.3 5.7,5.2 2.2,-2.5 2,4.1 6.5,3.5 v 0 l 0.3,1.52 v 0 l -8.4,11.1 -4.5,1.79 -1.2,10.6 -2,1.5 -8.4,-1.7 -2.2,3.1 5,3.9 11,3.1 3.5,13.64 13.1,12.5 8.09,3 4.9,-0.7 v 0 z"
      />
  <path
     id="LV-052"
     title="Ķekavas novads"
     class="land"
     d="m 584.97134,617.7264 10.09,10.17 v 0 l 1.99,-0.17 v 0 l -0.25,4.92 3.44,2.24 1.42,5.51 -2.51,4.74 v 0 l -19,-10.45 -7.7,-1.3 -9.6,4 -6.1,-4.3 -2.7,5.5 3.5,2.8 0.2,4.9 -2.5,1.6 -2.1,-3.9 -7.09,4.4 2.37,6.8 v 0 h -6.35 v 0 l -3.6,-2.6 -28.9,1.24 v 0 l 0.01,-0.05 v 0 l 0.29,-1.2 v 0 l 1.2,-9.08 6.32,-4.8 8.64,0.56 2.96,-8.64 3.68,-3.44 -0.33,-7.2 -6.23,-6.79 v -6.4 0 l 2.29,-4.91 4.43,-2.04 3,2.4 2.16,-3.96 2.28,0.24 4.08,8.52 v 0 l -1.32,4.08 7.2,7.79 3.84,1.08 10.08,-3.36 14.28,2.88 z"
      />
  <path
     id="LV-053"
     title="Lielvārdes novads"
     class="land"
     d="m 685.67134,689.2764 -4.9,0.7 -8.09,-3 -13.1,-12.5 -3.5,-13.64 -11,-3.1 -5,-3.9 2.2,-3.1 8.4,1.7 2,-1.5 1.2,-10.6 4.5,-1.79 8.4,-11.1 v 0 l -0.21,-1.05 v 0 l 4.22,-2.6 1.8,4.6 8.9,2.5 4.3,-1.3 9.69,16.1 v 3.9 0 l -9.39,0.7 -1.2,2.1 5.19,8.3 -7.49,3.3 -1.6,15.29 4.7,2.3 z"
      />
  <path
     id="LV-054"
     title="Limbažu novads"
     class="land"
     d="m 622.79134,333.7064 h 3.4 l 9.3,11.29 8.5,-0.2 7.2,4.7 1.5,15.82 10.1,5.4 -1.33,9.4 v 0 l 0.02,1.85 v 0 l -1.67,9.33 3.12,6.12 1.98,1.38 13.68,-3.96 8.22,12.66 -1.41,4.43 6.45,1.34 -2.41,2.56 v 0 l -2.67,6.35 -6.65,-1.78 1.21,2.46 -2.67,0.31 -0.51,3.41 -14.58,12.31 -9.97,4.57 -11.37,-4.67 -0.8,2.99 9.29,4.5 1.44,5.31 v 0 l -14,-1.36 0.72,-4.4 -2.32,-1.44 -9.52,7.44 3.12,10.96 -4.64,6.96 -7.36,4.24 1.28,4 5.68,1.76 2.24,16.17 4.49,0.07 -1.48,3.38 -5.62,1.77 v 0 l -2.39,-3.41 -5.07,-0.39 -1.7,-8.94 -8.45,-7.82 -0.65,-8.85 -5.01,-0.72 -15.92,7.22 v 0 l -2.86,-0.18 -0.54,-11.05 -3.99,-5.82 v 0 l -0.7,-15.36 v 0 l 16.51,-3.69 5.5,-10.7 6,-0.2 3.1,-5.4 -5.9,-5.3 -0.6,-17.3 -5.9,-0.3 -0.4,-6.3 -2.2,-1.5 -9.6,0.2 -1.6,-31.13 12.92,-3 4.3,2.7 9.2,-1.4 -5.3,-2.5 1.4,-7.2 3.5,-3 7.5,-0.2 -2.4,-3.4 1.9,-2.5 -1.4,-5.3 z"
      />
  <path
     id="LV-055"
     title="Līgatnes novads"
     class="land"
     d="m 693.83134,531.9064 v -1.44 0 l -17.49,-1.29 -2.86,-4.06 2.82,-1.33 -1.41,-11.64 -5.22,-8.55 -7.31,-3.73 v 0 l 0.38,-2.3 v 0 l 4.75,-5.65 v 0 l 0.26,-0.06 v 0 l 19.92,-1.52 5.2,-2.96 v 0 5.44 l 11.92,3.9 2.08,19.92 5.2,1.52 -6.56,11.03 z"
      />
  <path
     id="LV-056"
     title="Līvānu novads"
     class="land"
     d="m 897.62134,820.58643 -4.87,-7.36 -15.29,-8.88 3.38,-12.36 -3.25,-6.63 -4.66,-25.11 -3.31,-6.22 -7.54,-2.67 v 0 l 11.39,-6.89003 12.27,-21 6.07,-3.22 0.35,-3.84 9.53,3.59 -1.94,3.08 8.8,7.81 -0.03,7.14 12.62,-7.26 7.29,-7.97 10.44,1.55 -0.3,2.41 3.2,0.21 v 0 l 0.49,-0.01 v 0 14.08 l 3.68,1.92 v 0 h 0.8 v 0 l -1.52,10.48003 -4.56,7.44 -7.27,-5.92 h -3.68 l -2.96,11.36 h 3.84 l 4.08,5.59 10.31,5.2 2.24,-1.04 -0.88,4.88 3.84,7.38 v 0 l -4.2,1.92 -1.6,4.24 -13.03,-4.47 -10.88,1.11 -7.52,-14.15 -3.68,2 -0.48,11.04 h -4.8 l -6.56,-5.04 -1.12,5.19 4.16,14.91 -3.28,0.56 6.64,13.44 v 0 l -6.11,1.59 v 0 z"
      />
  <path
     id="LV-057"
     title="Lubānas novads"
     class="land"
     d="m 1006.1513,617.9064 -2.11,-3.2 -6.50001,-1.6 -3.69995,-7.5 -3.7,-1.1 -14.4,4 -7.89,-3.9 -23.3,28.4 -3,-2.3 -6.3,1.3 -3.4,-3.2 4,-3.6 -0.5,-2.1 -6.4,-2.3 -1.8,-6 14.7,-21.89 0.54,-7.78 v 0 l 2.32,1.29 10.44,-7.48 8.14,-2.71 2.78,2.03 4,-5.15 7.81,-2.28 1.97,2.68 11.76,1.42 v 0 l 0.94,2.96 8.71996,-0.4 -2.51001,11.24 10.01001,5.54 1.68,9.72 3.54,4.15 v 0 l -4.11,7.8 z"
      />
  <path
     id="LV-058"
     title="Ludzas novads"
     class="land"
     d="m 1213.9113,753.98643 -8.22,-1.39 -7.1,3.9 -5.9,-6.5 h -7.6 l -1.3,1.9 4.3,11.4 -1.3,2.5 -9.1,1.6 -17.29,14.96 3.5,13.2 10.79,-1.3 -1.1,-6.6 6.9,-1.1 5.6,-5.7 7.5,4.4 12.3,13.69 -6.9,13.9 v 0 l -0.7,1.4 v 0 l -3.88,2.28 -0.02,-6.08 -2.5,-0.2 -10.98,8.36 -7.1,-0.7 -5.9,5.2 -2.39,-3.1 -5.4,2.2 -8.4,-4.3 -9.3,-0.1 -5.9,-2.8 -6.6,-11.23 v 0 l 5.03,-3.96 -3.17,-6.48 6.11,-10.61 -7.45,-8.66 3.11,-11.63 -10.24,-2.28 -2.16,-4.52 3.04,-2.48 -3.66,-2.25 2.3,-2.79 -5.31,-2.61003 -3.33,1.91 1.54,-3.19 -2.72,-1 -4.98,-9.15 0.47,-4.04 -7.57,4.23 -2.28,-4.5 1.07,-3.74 -2.87,-2.1 1.79,-3.68 -1.63,-2.13 3.53,-6.06 12.38,0.26 1.68,-8.88 v 0 l 5.23,-0.84 11.64,6.84 2.28,-3.72 2.76,0.36 14.03,14.15 1.32,-4.79 6.48,-1.56 2.28,4.68 5.4,2.27 1.44,4.08 5.52,3.96 -0.24,6 2.76,1.2 3.36,-0.12 3.12,-6.48 4.2,-0.48 3.72,-5.16 3.96,1.8 2.99,6.12 2.64,-4.08 8.22,-0.14 v 0 l 8.34,10.81 -1.98,8.17 2.3,4.70003 z"
      />
  <path
     id="LV-059"
     title="Madonas novads"
     class="land"
     d="m 976.43134,668.3964 -10.91,-3.72 v -5.16 l -11.27,0.12 -4.08,3.12 -2.52,6.6 -3.48,-3.12 -10.8,5.88 -22.2,-1.92 -0.33,8.47 v 0 l -3.06,10.92 -7.94,7.51 -5.2,-0.34 -1.43,-10.43 -9.56,5.37 -4.74,-13.52 -5.19,1.71 -3.88,-4.71 -17.79,11.42 -2.47,-5.61 -3.7,-1.13 -2.43,-7.06 -7.99,8.25 v 0 l -1.58,-6.05 4.37,-7.95 -4.59,-3.67 -6.41,0.74 -7.61,-4.83 -2.89,-11.14 4.74,-6.07 -1.75,-8.52 -4.39,-1.81 -7.45,-9.45 -2.36,1.08 v 0 l 0.8,-4.74 -4.56,-6.96 0.36,-5.04 4.68,-4.8 7.56,-3.12 3.72,1.32 3.48,-2.88 5.28,2.4 1.08,-2.64 8.28,0.24 1.44,-5.75 -9.4,-9.83 v 0 l 0.03,-0.05 v 0 l 5.91,-3.6 0.12,-8.97 -7.22,-2.81 6.11,-26.21 v 0 l 5.72,-1.48 11.96,7.44 6.78,-5.5 6.8,4.82 v 0 l 2.71,1.24 8.26,-3 3.15,1.67 v 0 l 0.12,12.34 -2.08,2.96 1.76,16.48 -5.68,6.24 7.43,-2.48 4.56,12.24 7.75,-0.4 3.36,-2.88 11.12,3.84 -1.52,-6.8 6.8,-1.28 4.56,-9.84 -6.24,-5.76 1.44,-6 -2.52,-7.51 v 0 l 9.52,-3.02 3.03,-3.56 5.84,4.3 2.81,-1.3 7.55,10.31 4.19,22.13 v 0 l -0.54,7.78 -14.7,21.89 1.8,6 6.4,2.3 0.5,2.1 -4,3.6 3.4,3.2 6.3,-1.3 3,2.3 23.3,-28.4 7.89,3.9 14.4,-4 3.7,1.1 3.69995,7.5 6.50001,1.6 2.11,3.2 v 0 l -2.58,3.23 v 0 l -24.20996,36.74 z"
      />
  <path
     id="LV-060"
     title="Mazsalacas novads"
     class="land"
     d="m 695.30134,236.1564 3.32,6.4 -4.1,14.19 7.9,13.5 -3.1,5.92 3.5,6 7.4,3.2 4.6,8.1 0.1,5.59 6.9,4.7 -0.2,15.5 v 0 l -2.9,2.7 -8.5,-6.1 -6.2,-9.6 -2.5,-0.1 -5.4,2.6 3.5,4.3 -0.7,9.9 -8.4,-5.5 -5.59,-0.2 -5.9,5.36 v 0 l -5.3,-3.1 -4.3,1.7 -8.3,-6 -4.6,-23.99 -5.3,-3.4 -0.37,-22.56 v 0 l 19.74,-12.29 9.47,-0.67 12.05,-16.28 z"
      />
  <path
     id="LV-061"
     title="Mālpils novads"
     class="land"
     d="m 648.33134,574.7164 3.76,0.01 1.44,-4.89 7.56,-4.44 -3,-7.8 2.4,-2.76 0.6,-7.68 -4.44,-5.52 0.36,-5.63 4.92,7.07 6.84,2.28 7.08,-1.37 1.85,4.51 -1.45,2.84 8.13,2.96 1.6,6.95 2.76,-1.02 12.17,7.32 v 0 l 1.98,5.08 -2.12,2.13 2.69,4.25 -1.4,5.76 v 0 l -10.19,0.41 -4.76,4.88 -4.24,-5.48 -4.29,2.6 -0.48,3.07 -3.52,-0.97 -2.9,-5 -3.69,4.83 -2.64,-0.68 -3.45,2.83 -6.52,0.36 -4.7,-2.94 -5.47,1.35 v 0 l -1.1,0.87 v 0 l 4.14,-8.61 v 0 z"
      />
  <path
     id="LV-062"
     title="Mārupes novads"
     class="land"
     d="m 520.95134,606.7864 h -2.99 v 0 l -1.84,5.84 -5.04,2.32 -6,-2.56 -18.96,7.99 v 0 l -4.26,-16.67 7,-5.8 3.8,-0.4 8.4,-9.3 v 0 l 20.29,10 z"
      />
  <path
     id="LV-063"
     title="Mērsraga novads"
     class="land"
     d="m 340.94134,447.8964 1.82,-2.55 v 0 l 5.92,7.3 14.1,3.58 3.6,15.16 v 0 l -5.13,1.77 -1.87,3.92 2.63,14.84 v 0 l -4.88,1.15 -0.57,3.48 v 0 l -8.26,-6.25 3.36,-6.4 -3.52,-8.48 -12.32,2.72 -1.92,-5.76 -5.59,-1.6 -3.36,-8.96 5.75,-4.64 3.84,1.44 7.2,-3.04 -2.88,-3.84 z"
      />
  <path
     id="LV-064"
     title="Naukšēnu novads"
     class="land"
     d="m 760.30134,264.3164 5.95,-1.39 -1.26,3.61 6.68,-0.98 1.15,3.42 3.45,-3.52 2.57,4.75 -1.68,4.56 18.29,12.72 v 0 l -0.11,7.47 -3.12,2.46 -1.26,6.59 -6.42,0.36 -10.14,-8.04 -6.87,0.79 -3.87,4.91 -3.53,-1.98 -1.34,4.89 12.9,12.7 -3.8,9 v 0 l -9.5,-1.1 v 0 h -1.9 v 0 l 0.08,-9.5 -4.88,2.4 -0.16,-5.92 -6.64,-14.4 -3.36,-0.8 -8.08,-9.12 -3.76,-1.44 -1.36,3.76 -4.4,-11.21 9.84,-19.04 5.68,10.32 2.24,-2.88 6.64,2.08 1.36,-7.84 4.56,-2.58 v 0 z"
      />
  <path
     id="LV-065"
     title="Neretas novads"
     class="land"
     d="m 729.20134,750.44643 0.95,20.62 -2.23,2.97 8.05,0.55 2.89,-2.31 2.63,4.03 -8.74,3.36 -2.64,6.96 5.13,2.42 3.66,6.96 3.65,0.09 3.72,5.71 -2.29,8.1 1.93,8.81 3.5,3.26 -0.99,3.5 -8.3,0.27 -0.35,2.32 v 0 l -7.52,2.77 -13.97,-14.32 -5.57,5.22 h -8.06 l -12.82,-6.04 -3.55,-21.38 -5.79,-3.21 -1.16,-4.69 -6.34,-6.05 -0.89,-15.78 -4.66,-3.46 -5.37,-11.5 1.25,-8.10003 -5.37,-2.89 v 0 l 0.59,-4.61 7,-10.2 15.5,-3.29 v 0 l 4.36,10.56 3.7,1.9 3,14.3 11.49,-0.6 z"
      />
  <path
     id="LV-066"
     title="Nīcas novads"
     class="land"
     d="m 45.741344,767.70643 -5.38,-3.28 -3.52,2.55 0.64,18.88 -8.16,20.64 -2.56,1.28 -0.8,-2.24 -2.88,0.32 -0.16,18.71 -5.44,-0.8 -1.6,-17.43 -6.3999986,-4 4.3199986,-1.76 0.32,-5.12 -2.24,-1.6 -9.3599986,1.54 v 0 l -2.08999996,-32.96 5.06000036,-20.73003 0.17,-10.09 v 0 l 3.41,0.1 2.6999982,-4.2 3,-0.3 v 0 l 1.1,-1.18 v 0 l 12.35,-2.36 1.44,18.48 5.76,4.44 4.2,-3.12 3.24,0.96 z"
      />
  <path
     id="LV-067"
     title="Ogres novads"
     class="land"
     d="m 702.06134,584.7664 19.05,6.89 -1.58,-3.26 3.41,-1.57 -0.95,-2.71 4.25,-1.97 -0.23,-2.9 10.77,-4.15 3.95,12.22 4.44,3.33 12,-12.81 -1.97,-5.43 3.99,-0.58 v 0 l 1.63,-0.4 v 0 l -0.76,3.17 4.13,1.05 2.01,11.46 3.29,3.75 -5.05,10.34 7.3,7.28 -10.95,1.85 0.5,4.39 -2.12,-0.31 3,3.93 2.05,-0.49 -0.13,6.58 v 0 l -2.45,1.53 -2.16,8.47 -5.92,5.6 -4.48,-1.2 -3.28,4.48 -12.16,-1.68 -11.11,7.2 0.08,2.24 6.16,2.72 -2.25,8.58 v 0 l -11,-4.2 -4.68,2.92 v 0 -0.98 0 l -5.12,-1.28 -10.24,-9.23 v 0 -3.9 l -9.69,-16.1 -4.3,1.3 -8.9,-2.5 -1.8,-4.6 -4.22,2.6 v 0 l -0.09,-0.47 v 0 l -6.5,-3.5 -2,-4.1 -2.2,2.5 -5.7,-5.2 -2,1.3 -0.8,9.4 -5.9,-0.4 -1.7,8.3 3.8,0.6 -0.6,2.1 -5.3,2.2 -1,5.29 -7.8,1.4 -10.89,-6 -7.6,-12.79 -5.25,-2.43 v 0 l 5.44,-4.08 8.24,2.64 5.75,-8.64 3.76,-0.56 2.48,2.24 3.52,-3.28 4.96,-0.48 0.64,-1.76 -8.16,-6.64 0.05,-3.04 v 0 l 0.4,-2.32 v 0 l 9.92,-6.16 v 0 l 3.17,-2.49 v 0 l 5.47,-1.35 4.7,2.94 6.52,-0.36 3.45,-2.83 2.64,0.68 3.69,-4.83 2.9,5 3.52,0.97 0.48,-3.07 4.29,-2.6 4.24,5.48 4.76,-4.88 z"
      />
  <path
     id="LV-068"
     title="Olaines novads"
     class="land"
     d="m 509.58134,653.8264 28.89,-1.24 3.6,2.6 v 0 h 8.1 v 0 l 2.34,3 v 0 l -0.42,4.8 -9.93,2.32 -1.01,-2.72 v 3.64 l -2.31,0.61 3.45,1.77 -4.44,1.71 -0.12,2.44 -1.67,-3.06 -1.35,2.05 -4.73,-1.68 -1.8,-6.57 -1.68,2.6 -5.52,-3.64 -3.48,1.44 v 0 l -6.16,-1.96 1.18,-4.89 -2.98,-3 v 0 z m 16.54,-47.04 v 6.4 l 6.24,6.8 0.32,7.2 -3.68,3.44 -2.96,8.64 -8.64,-0.56 -6.32,4.8 -1.2,9.08 v 0 l -10.97,0.37 -1.48,-7.26 -2.99,2.79 -11.66,0.92 -0.03,4.22 -2.59,-2.48 -3.72,2.76 -7.62,-6.55 v 0 l 2.59,-18.6 v 0 l -0.04,-0.02 v 0 l 2.45,0.22 v -3.84 l 2.16,-0.96 6.48,4.8 3.68,-8.56 v 0 l 18.96,-8 6,2.56 5.04,-2.32 1.84,-5.84 v 0 h 8.14 z"
      />
  <path
     id="LV-069"
     title="Ozolnieku novads"
     class="land"
     d="m 473.71134,678.4064 3.04,-2.4 -2.56,-3.36 0.8,-7.67 -10.58,-1.66 v 0 l 0.18,-0.1 v 0 l 2.08,-0.48 -1.76,-4.64 h -6.88 l -2.08,-2.88 5.6,-1.92 1.76,-4.64 5.49,-1.31 v 0 l 7.62,6.55 3.72,-2.75 2.59,2.48 0.04,-4.23 11.66,-0.92 2.99,-2.78 1.48,7.25 10.98,-0.37 v 0 l -0.29,1.2 v 0 l -0.03,0.27 v 0 l 2.97,3 -1.17,4.9 6.15,1.95 v 0 l 1.37,10.85 -3.7,0.37 -2.04,-3.82 -2.54,-0.24 -0.67,2.32 2.07,4.28 9.4,2.23 -3.87,2.62 3.05,0.19 1.51,5.61 -5.28,0.64 0.42,3.18 -3.12,-1.32 1.17,-3.14 -3.84,1.22 1.78,5.25 4.09,-0.06 0.49,3.72 12.62,0.27 -3.84,9.14 -2.71,1.41 v 0 l -0.1,4.38 -6.03,7.56 v 0 l -10.6,-8.71 -2.88,-13.44 -6.4,-11.68 -9.11,-0.96 -7.36,-5.44 z"
      />
  <path
     id="LV-070"
     title="Pārgaujas novads"
     class="land"
     d="m 689.44134,415.8264 3.08,0.42 1.68,3.52 3.84,-1.6 3.6,2.32 -0.48,8.32 6.24,4.48 3.76,10.15 3.52,1.2 0.81,-3.74 4.15,1.42 2.96,5.52 5.35,2.24 5.52,-4.8 3.12,2 0.73,5.67 5.4,-1.7 v 0 l -3.7,7.4 -19.9,-1.7 -1.79,6.8 v 0 l -0.8,2.09 v 0 l -2.3,4 2.5,2.9 -1.4,2.8 v 0 l -0.5,2.4 v 0 l -4.9,7.9 -10.8,-2.7 -6.26,4.24 v 0 l -5.2,2.96 -19.92,1.52 v 0 l 0.11,-0.03 v 0 l 2.42,-8.57 -5.54,-5.72 -2.79,0.25 -2.93,-4.79 4.9,-6.4 -5.76,-0.93 -6,-14.08 v 0 l -1.44,-5.31 -9.29,-4.5 0.8,-2.99 11.37,4.67 9.97,-4.57 14.58,-12.31 0.51,-3.41 2.67,-0.31 -1.21,-2.46 6.65,1.78 z"
      />
  <path
     id="LV-071"
     title="Pāvilostas novads"
     class="land"
     d="m 85.601344,606.2364 -3.56,0.98 0.95,11.3 -20.9,5.05 -0.7,5.8 -4.9,1.07 2.35,15.25 -2.7,2.75 v 0 l -5.4,-1.25 -3.95,5.56 6.85,9.94 v 6.3 l -2.1,3.2 -3.55,-0.15 -0.95,4 v 0 l -8.4,2.15 -9.34,-10.52 -3.6,5.52 0.36,10.56 -8.4,0.72 -5.67,-2.82 v 0 l 3.4,-19.55 0.2,-42.41 31.68,-25.87 13.57,-16.14 4.03,2.93 2.51,-1.88 4.76,2.29 0.96,4.9 v 0 l 0.1,6.33 4.01,2.27 3.5,-1.47 -0.78,3.04 8.84,2.31 v 0 z"
      />
  <path
     id="LV-072"
     title="Pļaviņu novads"
     class="land"
     d="m 763.23134,689.2964 4.28,0.14 3.36,-12.6 9.24,-10.32 -2.88,-7.56 8.4,-1.92 v -9.24 l -3.6,-4.92 10.92,2.88 3.36,-3.99 v 0 l 6.89,-4.41 -0.65,-4.14 3.35,-4.32 -3.54,-3.53 3.18,-1.99 v 0 l 2.36,-1.08 7.45,9.45 4.39,1.81 1.75,8.52 -4.74,6.07 2.89,11.14 7.61,4.83 6.41,-0.74 4.59,3.67 -4.37,7.95 1.58,6.05 v 0 l -15.34,7.72 -9.41,1.56 -4.16,-2.14 v 0 h -0.28 v 0 l -5.24,-0.12 -15.17,8.75 -14.38,2.99 v 0 0 0 l -7.83,-1.28 z"
      />
  <path
     id="LV-073"
     title="Preiļu novads"
     class="land"
     d="m 956.98134,834.69643 -7.12,-5.5 -1.76,-4.64 12.96,-1.6 0.16,-14.72 h 4.72 v -4.08 l -1.68,-4.55 h -4.08 l -0.4,-9.76 -9.6,-1.52 v 0 l -3.84,-7.38 0.88,-4.88 -2.24,1.04 -10.31,-5.2 -4.08,-5.59 h -3.84 l 2.96,-11.36 h 3.68 l 7.27,5.92 4.56,-7.44 1.52,-10.48003 v 0 h 1.36 v 0 l 0.56,-4.96 4.88,-2.08 22.24,17.84003 0.88,2.32 -13.6,5.04 -4.56,5.71 -0.96,6.8 4.56,4.16 6.96,1.52 2.88,5.03 10.16,5.76 4.32,15.73 4.71,1.92 -1.68,8.32 -5.51,3.36 8.47,4.23 4.31995,5.28 0.04,4.92 v 0 l -6.15995,6.2 -5.44,-4.08 -11.84,7.68 h -7.44 l -2.2,-7.8 z"
      />
  <path
     id="LV-074"
     title="Priekules novads"
     class="land"
     d="m 88.401344,786.47643 -3.41,-4.9 -12.2,-4.3 -1.26,-2.85 v 0 l 5.76,-9.48 2.64,-14.51 -2.4,-8.76003 -6.24,-8.64 0.36,-7.32 -7.19,-2.28 0.24,-8.4 v 0 l 8.03,0.36 -0.84,-8.04 2.04,-2.28 15.12,12.48 h 3.48 l 1.2,-2.76 -4.2,-6.36 1.32,-3.36 8.04,-5.51 4.219996,2.88 v 0 l 0.06,0.52 v 0 l 3.2,3.8 2.6,-2.1 4.2,1.9 2.5,-4.8 10.39,3.5 v 0 l -0.15,15.62 4.2,2.4 0.72,4.08 -9.72,4.68 3.24,8.75 -6.48,3.84 7.08,4.08003 4.08,6.24 h 5.88 l -6.48,8.28 3.92,10.1 v 0 l -5.05,6.52 -8.23,0.63 -6.51,-3.66 -6.66,0.06 -5.4,2.18 -4.699996,6.84 z"
      />
  <path
     id="LV-075"
     title="Priekuļu novads"
     class="land"
     d="m 780.37134,485.8264 -0.37,5.76 -7.3,3.7 -0.5,4.49 v 0 l -5.1,3.1 -6.7,-3.4 1.7,-11.39 -5.2,-7.1 -11.19,-5.92 -15.2,2.4 -1.5,-2.6 4.1,-3.1 -2.1,-3.3 -13.86,-4.26 v 0 l 0.18,-0.46 v 0 l 1.79,-6.8 19.9,1.7 3.7,-7.4 v 0 l 0.45,-5.77 3.25,-3.33 -2.95,-4.68 4.11,-3.84 -1.79,-0.75 v 0 l 2.36,-2.9 7.18,4.06 7.8,-5.12 3.06,7.43 2.14,-0.22 3.12,-1.31 0.64,-5.81 6.53,-4.34 10.65,1.35 v 0 l 1.23,6.43 v 0 l -4.77,4.72 -4.72,15.55 -5.12,-2.24 -11.43,6.4 9.59,19.59 5.28,3.92 -1.12,3.04 z"
      />
  <path
     id="LV-076"
     title="Raunas novads"
     class="land"
     d="m 805.34134,485.7764 1.36,-2.95 7.2,-1.18 5.38,1.24 -0.47,2.45 9.99,-4.88 9.24,1.62 10.65,-2.55 3.06,3.48 3,-0.22 0.54,4.29 v 0 l 1.82,5.62 -2.98,1.21 -1.51,-2.54 -6.65,2.61 2.27,9.12 v 0 l -12.53,8.06 -9.72,1.56 -4.08,-1.32 -4.44,-7.8 -7.68,1.68 v 0 l -3,0.36 v 0 l -3.24,-2.64 z m -14.84,-53.33 7.71,12.91 -3.45,2.81 3.77,6.92 -0.23,5.89 8.75,6.72 -6.04,1.99 2.2,2.89 -3.88,10.71 1.52,1.76 v 0 l 1.71,0.28 v 0 l -3.63,3.64 -2.8,-5.2 -15.76,2.08 v 0 l -2.16,-2.4 1.12,-3.04 -5.28,-3.92 -9.6,-19.6 11.44,-6.4 5.12,2.24 4.72,-15.55 z"
      />
  <path
     id="LV-077"
     title="Rēzeknes novads"
     class="land"
     d="m 1137.8913,782.72643 -7.45,-8.65 3.11,-11.63 -10.24,-2.27 -2.15,-4.52 3.04,-2.48 -3.66,-2.25 2.3,-2.79 -5.31,-2.61003 -3.33,1.91 1.55,-3.19 -2.73,-1 -4.98,-9.14 0.47,-4.04 -7.57,4.23 -2.27,-4.5 1.06,-3.74 -2.86,-2.1 1.78,-3.68 -1.63,-2.13 3.53,-6.06 12.38,0.26 1.68,-8.88 -3.9,-1.95 -1.21,-8.29 4.73,-3.19 1.02,-7.1 -6.98,-1.18 -4.14,-6.81 -3.52,-0.67 -3.5,3.57 -3.92,-7.85 4.26,-3.79 1.56,-12.46 3.9,-2.9 -0.9,-6.9 -5.9,-2.4 1.6,-4.3 -17.1,1.5 -4.6,-2.6 -1.5,0.3 -6.68,0.67 -6.97,-3.37 -15.03,0.61 -3.31,-6.5 -4.29,2.33 -2.69,-2.51 -8.63,0.31 -0.12,4.2 -6.65,-0.34 0.71,-5.06 -7.91,-1.56 -3.73,4.69 -5.64,-8.74 -24.20996,36.74 -2.93,10.48 0.86,0.73 9.49,-0.43 2.7,4.5 6.99995,-0.7 7.20001,17.02 5.1,4.2 8.1,1 3.7,4.6 -1.2,3.6 2.2,3.6 -2.7,5 9.1,21.7 -4.2,5.4 -6.7,-1.8 -6.6,3.1 -3.37,-4.03 -1.92,-1 -3.95,5.44 -0.32,5.59 -3.35001,4.37003 10.27001,10.01 6.7,13.91 -1.97,3.88 -3.48,-2.33 -3.26,1.12 1.25,8.29 11.91,9.68 -4.98,8.91 3.79,-0.18 2.24,3.32 3.27,12.92 12.22,0.15 4.57,-2.66 2.24,-4.72 6.88,2.4 20.14,0.12 3.76,-2.48 7.33,0.19 2.42,0.39 -0.07,2.46 6.08,0.56 3.6,-7.49 -1.84,-3.07 9.68,1.12 4.08,-2.48 1.23,-5.35 10.37,5.59 9.68,-2.24 4.29,1.47 5.04,-3.95 -3.18,-6.48 z m -57.17,-60.73003 -4.48,11.36 h -1.92 l -1.44,-4 -4.32,-0.64 -0.32,-6.88 1.92,-6.72 8,-2.72 2.86,2.52 z"
      />
  <path
     id="LV-078"
     title="Riebiņu novads"
     class="land"
     d="m 1007.1013,735.8764 -1.91,-1.01 -3.96,5.44 -0.32,5.59 -3.35001,4.37003 10.27001,10.01 6.69,13.91 -1.96,3.88 -3.49,-2.33 -3.26,1.12 1.24,8.29 11.92,9.68 -4.98,8.92 3.78,-0.19 2.24,3.33 3.26,12.92 12.22,0.15 v 0 l -1.4,4.71 -22.61,0.75 -6.96,5.52 2,4.88 -1.44,2.96 -2.72,-2.24 -4.93001,0.33 v 0 l -0.66,-3.01 v 0 l -0.04,-4.92 -4.31995,-5.28 -8.47,-4.23 5.51,-3.36 1.68,-8.32 -4.71,-1.92 -4.32,-15.73 -10.16,-5.76 -2.88,-5.03 -6.96,-1.52 -4.56,-4.16 0.96,-6.8 4.56,-5.71 13.6,-5.04 -0.88,-2.32 -22.24,-17.84003 -4.88,2.08 -0.56,4.96 v 0 h -2.16 v 0 l -3.68,-1.92 v -14.08 0 l 1.76,-0.05 v 0 l 5.77,-0.06 0.32,-4.23 -2.89,0.67 4.95,-12.36 v 0 l 15.78,-2.13 2.89,2.95 2.16,-7.19 v 0 l 11.91,6.31 1.31,2.74 -8.49,5.85 4.61,-0.04 1.76,4.72 7.39,-0.18 -0.35,4.07 16.66996,1.92 z"
      />
  <path
     id="LV-079"
     title="Rojas novads"
     class="land"
     d="m 342.76134,445.3464 -1.82,2.55 v 0 l -11.83,-5.76 0.64,8.32 -5.28,3.36 -3.52,-0.64 -10.08,-9.6 -3.36,-8.15 -9.6,-8.64 -7.2,4 -2.88,-1.12 -1.28,-4 4.16,-3.52 -0.16,-4 -8.48,-2.56 1.76,-4.16 -7.31,-0.48 v 0 l -0.59,-2.72 v 0 l -1.76,-11.2 -2.88,-2.4 4.16,-8.95 -8.96,-9.73 -2.56,-6.24 1.6,-9.92 4.88,-1.38 v 0 l 4.34,18.7 7.85,13.07 14.12,13.4 13.56,7.47 -0.64,1.72 1.15,-1.41 17.51,23.24 z"
      />
  <path
     id="LV-080"
     title="Ropažu novads"
     class="land"
     d="m 608.34134,549.6664 9.31,0.23 v 0 l 4.1,14.1 8.2,5.5 11.9,-0.4 6.5,3.4 v 0 l -0.1,9.79 v 0 l -4.14,8.61 v 0 l -2.07,1.62 v 0 l -9.92,6.16 v 0 l -0.12,0.66 v 0 l -10.38,2.22 h -13.32 l -2.16,-2.94 -11.19,1.78 v 0 l -8.78,-2.19 -0.6,-4.83 -2.03,-0.26 v 0 l -1.75,-5.52 -5.15,-0.24 -1.8,2.88 -3.24,-9.48 v 0 0 0 l 6.25,-4.7 -2,-3 1.8,-3.5 21.69,-2.9 -2.1,-12.69 4.3,-5.4 4,3.1 z"
      />
  <path
     id="LV-081"
     title="Rucavas novads"
     class="land"
     d="m 71.531344,774.42643 1.26,2.85 12.2,4.3 3.41,4.9 v 0 l -6.48,12.88 -20.93,8.98 -9.16,13.91 -7.33,2.89 0.64,14.08 -7.24,12.13 -5.62,-3.25 -15.91,4.96 -13.5999986,-43.06 -0.25,-14.6 v 0 l 9.3599986,-1.54 2.24,1.6 -0.32,5.12 -4.3199986,1.76 6.3999986,4 1.6,17.43 5.44,0.8 0.16,-18.71 2.88,-0.32 0.8,2.24 2.56,-1.28 8.16,-20.64 -0.64,-18.88 3.52,-2.55 5.38,3.28 v 0 l 7.08,8.04 z"
      />
  <path
     id="LV-082"
     title="Rugāju novads"
     class="land"
     d="m 1013.9913,608.1464 -3.54,-4.15 -1.68,-9.72 -10.01001,-5.54 2.51001,-11.24 -8.71996,0.4 -0.94,-2.96 v 0 l 2.91,-7.61 -2.78,0.49 -0.18,-5.43 13.20996,-6.94 8.56,-16.34 v 0 l 1.22,-1.65 v 0 h 19.17 l -1.2,7.52 1.76,2 2.32,1.04 2.88,-3.2 2.4,0.48 0.08,2.33 12.39,6.16 9.2,2.96 7.04,-1.44 2.08,3.76 -4.32,4.56 -2.16,8.72 -9.28,3.36 1.84,4.49 6.24,3.36 2.4,-4.72 1.44,1.21 2.24,12.55 -3.44,5.2 -4.91,-1.84 -3.36,3.84 -3.52,0.16 -11.04,15.04 -5.59,0.08 -3.2,-4.08 -10.24,-2.72 z"
      />
  <path
     id="LV-083"
     title="Rundāles novads"
     class="land"
     d="m 512.85134,774.55643 -14.57,0.06 -2.59,-2.88 -7.5,0.15 v 0 l -0.68,-9.49 2.91,-5.39 -8.96,-0.67 0.7,-3.28 2.58,-0.36 -1.16,-4.67 2.94,-1.64003 -3.18,-1.77 0.13,-3.03 6.08,-11.25 8.33,-1.18 5.15,-7.09 9.45,0.76 5.26,-2.27 v 0 l 3.16,14.42 -2.72,5.28 10.72,10.23003 7.84,1.28 2.4,5.28 -9.76,0.8 -4.96,-2.88 2.08,8.32 -6.08,0.32 -2.08,6.72 -4.8,1.6 z"
      />
  <path
     id="LV-084"
     title="Rūjienas novads"
     class="land"
     d="m 754.25134,259.3664 -4.56,2.58 -1.36,7.84 -6.64,-2.08 -2.24,2.88 -5.68,-10.32 -9.84,19.04 4.4,11.21 1.36,-3.76 3.76,1.44 8.08,9.12 3.36,0.8 6.64,14.4 0.16,5.92 4.88,-2.4 -0.08,9.5 v 0 h -1.8 v 0 l -25.99,1.7 -3.8,-6.8 -3.28,-1.18 v 0 l 0.2,-15.5 -6.9,-4.7 -0.1,-5.59 -4.6,-8.1 -7.4,-3.2 -3.5,-6 3.1,-5.92 -7.9,-13.5 4.1,-14.19 -3.32,-6.4 v 0 l 1.24,-3.78 13.95,0.51 -0.59,-2.22 2.51,-0.92 2.04,1.87 -1.18,4.54 1.97,5.05 1.68,-0.86 -0.52,9.36 3.55,0.73 -2.76,0.76 5.06,7.32 4.38,1.08 2.74,-1.3 0.62,-11.86 -6.94,-9.8 5.08,-5.97 11.98,16.47 7.57,0.38 7.1,4.82 2.27,3.08 -2.88,1.04 z"
      />
  <path
     id="LV-085"
     title="Salas novads"
     class="land"
     d="m 771.48134,699.8064 14.38,-2.99 15.17,-8.75 5.24,0.12 v 0 h 0.16 v 0 l -0.21,6.95 -3.6,6.8 3.6,10 12.7,3.06 v 0 l -1.6,11.6 v 0 l 0.3,2 v 0 l -2.9,10.79 7.2,8.50003 -0.3,2.7 -4.4,1.3 0.3,6.7 -4.1,1.9 -1.4,4.6 -9.78,0.32 v 0 l -1.5,-4.7 h -7.89 l -3.5,-7.79 -5.3,0.19 v -4.99 h -2.6 l -1.2,-5.78003 1.6,-7.6 -2.66,-2.51 v 0 l -0.06,-4.14 -8.15,-9.09 2.91,-7.7 6.08,-2.56 0.87,-8.17 -8.91,1.89 z"
      />
  <path
     id="LV-086"
     title="Salacgrīvas novads"
     class="land"
     d="m 622.79134,333.7064 -8.79,4.69 1.4,5.3 -1.9,2.5 2.4,3.4 -7.5,0.2 -3.5,3 -1.4,7.2 5.3,2.5 -9.2,1.4 -4.3,-2.7 -12.92,3 1.6,31.13 9.6,-0.2 2.2,1.5 0.4,6.3 5.9,0.3 0.6,17.3 5.9,5.3 -3.1,5.4 -6,0.2 -5.5,10.7 -16.51,3.69 v 0 l -3.12,-34.83 -3.01,-9.23 0.35,-12.24 3.76,-11.44 -7.32,-25.83 1.49,-27.38 -2.47,-16.39 2.56,-11.81 10.2,3.1 7.89,-4.36 0.05,-8.31 -2.39,-1.39 2.69,-4.58 8.09,-1.93 2.07,-4.91 9.05,-3.31 v 0 l 3.82,17.21 3.67,4.32 -5.43,6.4 5.91,7.04 z"
      />
  <path
     id="LV-087"
     title="Salaspils novads"
     class="land"
     d="m 583.54134,593.1164 2.03,0.26 0.6,4.83 8.78,2.19 v 0 l 0.97,9.48 -12.6,-7.21 3.84,7.32 -2.19,7.74 v 0 l -6.53,1.78 -14.28,-2.88 -10.08,3.36 -3.84,-1.08 -7.2,-7.79 1.32,-4.08 v 0 l 14.59,6.92 3.6,-1.21 -6.67,-4.75 v 0 l -2.76,-13.32 10.8,-1.56 2.52,1.32 1.56,5.76 2.76,-0.72 2.16,-4.68 z"
      />
  <path
     id="LV-088"
     title="Saldus novads"
     class="land"
     d="m 256.86134,613.7964 -2.71,0.57 -4.98,26.12 3.66,9.42 4.36,-1.5 v 6.24 l 2.64,2.4 -1.32,18.08 4.44,5.64 5.34,-0.24 0.3,13.37 3.48,1.5 1.5,-4.14 4.68,-2.64 1.56,-6.35 7.56,2.03 10.63,18.19 v 0 l 1.07,7.31 -3.6,6.48 0.6,7.08 -4.32,2.76 8.93,10.79 -6.41,1.56 0.48,7.08 11.63,1.11 15.63,8.59003 2.96,-2.4 3.87,0.73 v 0 l 2.26,3.15 -5.84,4.31 -10.08,2.67 -18.79,-1.61 -7.96,6.03 -16.71,-11.76 -7.37,0.3 -18.68,-6.34 -12.85,4.77 -6.21,-4.28 -11.8,1.88 -6.11,-6.65003 -7,1.31 -6.59,-3.77 -13.29,4.62003 -5.14,-2.13003 -5.62,8.38003 v 0 l -3.29,-1.64 -2.51,-6.25003 9.67,-1.95 0.68,-6.71 -9.43,-7.02 -0.99,-5.47 3.18,-4.78 v 0 l 8.53,-1.12 4.23,4.1 3.61,-7.76 -8.61,-5.05 -0.2,-5.33 19.92,-3.9 -2.46,-7.9 1.06,-4.24 -2.81,-3.75 2.73,-2.05 -0.41,-5.04 -4.79,-13.72 5.87,1.75 6.7,-4.87 2.93,-9.88 2.5,-0.8 -3.68,-6.95 -1.15,-12.19 v 0 l 7.04,1.04 2.96,-8.53 3.97,-2.82 8.88,-0.77 2.04,-4.91 3.63,0.52 2.49,-4.08 -3.63,-3.14 -0.3,-4.09 -10.5,-1.07 0.86,-4.52 3.01,-0.22 -1.4,-4.92 2.92,-4.3 7.8,2.64 1.41,7.66 7.12,4.92 5.2,-1.63 3.7,-9.41 v 0 l 4.88,-2.86 9.6,1.68 -0.24,4.75 -4.09,1.41 0.77,2.37 0.94,-1.45 -0.77,7.84 z"
      />
  <path
     id="LV-089"
     title="Saulkrastu novads"
     class="land"
     d="m 578.17134,461.1764 3.99,5.82 0.54,11.05 2.86,0.18 v 0 l 6,6 -0.1,10 -7.5,3.3 -9.39,13.63 v 0 l -1.19,-0.11 v 0 l -4,-0.24 v 0 l -1.78,-1.49 v 0 l 8.86,-12.74 2.72,-8.41 z"
      />
  <path
     id="LV-090"
     title="Sējas novads"
     class="land"
     d="m 585.56134,478.2264 15.92,-7.22 5.01,0.72 0.65,8.85 8.45,7.82 1.7,8.94 5.07,0.39 2.39,3.41 v 0 l -2.7,4.43 -6.9,0.3 v 7.9 l 7.3,-0.3 1.9,1.9 0.8,9.49 -2.1,4 v 0 l -15.89,-3.59 -3.1,6.29 -8.37,3.09 v 0 l -6.56,-21.04 -13.12,-2.32 v 0 l -1.44,-0.13 v 0 l 9.39,-13.63 7.5,-3.3 0.1,-10 z"
      />
  <path
     id="LV-091"
     title="Siguldas novads"
     class="land"
     d="m 662.36134,499.8664 7.31,3.73 5.22,8.55 1.41,11.64 -2.82,1.33 2.86,4.06 17.49,1.29 v 0 2.76 0 l 8.76,10.2 -6,4.2 -0.36,3.12 6.24,10.08 -1.56,6.72 v 0 l -12.17,-7.32 -2.76,1.02 -1.6,-6.95 -8.13,-2.96 1.45,-2.84 -1.85,-4.51 -7.08,1.37 -6.84,-2.28 -4.92,-7.07 -0.36,5.63 4.44,5.52 -0.6,7.68 -2.4,2.76 3,7.8 -7.56,4.44 -1.44,4.89 -3.76,-0.01 v 0 l 0.02,-2.22 v 0 l -6.5,-3.4 -11.9,0.4 -8.2,-5.5 -4.1,-14.1 v 0 l 2.51,-1.67 6.8,3.12 4.48,-1.76 0.24,-2.56 8.24,-2.56 0.08,-4.64 -3.92,-4.07 4.88,0.16 2.19,-8.56 v 0 l 2.6,0.21 -0.3,-6.4 3.1,-7.3 10.3,-2.5 3.5,-11.44 v 0 z"
      />
  <path
     id="LV-092"
     title="Skrīveru novads"
     class="land"
     d="m 700.92134,684.7964 -7.13,-1.56 -6.36,5.82 v 0 l -1.76,0.22 v 0 l 0.02,-7.69 -4.7,-2.3 1.6,-15.29 7.49,-3.3 -5.19,-8.3 1.2,-2.1 9.39,-0.7 v 0 l 10.24,9.23 5.12,1.28 v 0 1.12 0 l -4.96,2.8 1.28,3.76 3.84,1.68 -0.56,6.88 -8.56,3.68 z"
      />
  <path
     id="LV-093"
     title="Skrundas novads"
     class="land"
     d="m 139.75134,700.7464 0.3,-5.36 -4.03,-7.51 5.98,-2.04 4.56,-4.87 -1.54,-15.48 v 0 l 1.72,-4.6 5.44,-1.12 2.96,-3.76 4.95,-1.52 5.6,2.32 2.64,-2.24 -4.64,-20.03 3.04,-6.88 5.6,-4.8 2.56,-0.96 4.72,2.88 2,-2.8 7.92,0.72 3.2,6.24 4.96,-1.2 4.65,4.2 v 0 l 1.15,12.19 3.68,6.95 -2.5,0.8 -2.93,9.88 -6.7,4.87 -5.87,-1.75 4.79,13.72 0.41,5.04 -2.73,2.05 2.81,3.75 -1.06,4.24 2.46,7.9 -19.92,3.9 0.2,5.33 8.61,5.05 -3.61,7.76 -4.23,-4.1 -8.53,1.12 v 0 l -0.12,-3.68 -8.8,2.98 -1.46,-5.87 -9.96,1.22 -7.19,-3.96 1.96,-2.77 -4.4,-2.02 z"
      />
  <path
     id="LV-094"
     title="Smiltenes novads"
     class="land"
     d="m 835.47134,404.3964 10.69,-7.04 18.72,-1.2 7.56,5.16 6.84,-2.52 1.79,2.16 5.04,-0.36 1.08,1.92 -3.84,2.64 -0.48,3.24 1.92,1.8 5.04,0.6 2.16,-3.12 5.4,-0.72 1.8,5.88 v 0 l 1.67,13.99 -1.09,2.53 -3.99,-0.25 -1.19,4.74 7.23,4.37 -2.72,1.93 -0.15,5.83 -3.29,2.21 0.49,3.99 2.9,1.4 -5.77,2.96 0.11,10.71 v 0 l 1.82,5.79 -1.98,2.36 -3.77,-0.28 1.88,7.58 -17.99,0.19 -5.87,2.79 -6.38,-3.63 -5.8,5.03 v 0 l -0.54,-4.29 -2.99,0.22 -3.07,-3.48 -10.65,2.55 -9.24,-1.62 -9.99,4.88 0.47,-2.45 -5.38,-1.24 -7.21,1.18 -1.36,2.95 v 0 0 0 l -4.49,-0.75 v 0 l -1.52,-1.76 3.87,-10.7 -2.2,-2.89 6.04,-1.99 -8.75,-6.73 0.24,-5.88 -3.77,-6.92 3.45,-2.8 -7.71,-12.91 v 0 l -1.23,-6.43 v 0 l 6.29,-7.59 4.16,1.51 2.8,-4.15 7.6,0.88 v 0 l 15.67,1.49 1.6,-2 3.04,1.84 -1.92,5.6 3.44,0.72 3.76,-3.04 1.44,-5.04 z"
      />
  <path
     id="LV-095"
     title="Stopiņu novads"
     class="land"
     d="m 571.60134,580.7564 3.24,9.48 1.8,-2.88 5.15,0.24 1.75,5.52 v 0 l -10.62,1.68 -2.16,4.68 -2.76,0.72 -1.56,-5.76 -2.52,-1.32 -10.8,1.56 2.76,13.32 v 0 l -6.24,-7.8 v -11.16 l 13.8,-9.96 v 0 l 2.76,-1.08 v 0 z"
      />
  <path
     id="LV-096"
     title="Strenču novads"
     class="land"
     d="m 810.12134,416.6664 6.72,-5.12 -0.72,-5.76 -5.04,5.2 -4.96,-2.32 -3.36,-6.96 8.56,-3.12 -2.96,-3.84 -8.24,-0.8 1.84,-6.4 -6.8,-8.08 -18.23,1.66 v 0 l -0.1,-0.54 v 0 l -11.75,-4.48 -1.76,-6 3.57,-1.53 0.37,-2.78 14.33,-1.27 -1.2,-8.2 5.1,-3.1 -1.2,-4.2 h 8.99 l 2.4,-5.69 v 0 l 6.68,1.12 16.32,-6.08 -2,12.48 5.76,5.04 20.87,5.69 -5.52,16.16 -7.28,5.44 -8.55,-0.8 2.87,4.08 8,1.44 -0.48,5.53 -6.23,7.12 2.55,6.32 6.8,-2.48 v 0 l 1.68,11.84 -1.44,5.04 -3.76,3.04 -3.44,-0.72 1.92,-5.6 -3.04,-1.84 -1.6,2 z"
      />
  <path
     id="LV-097"
     title="Talsu novads"
     class="land"
     d="m 356.56134,496.5464 0.75,2.57 -2.12,-1.14 -3.18,3 -2.62,6.21 -8.95,2.32 -2.97,5.12 -4.67,-0.04 -2.34,14.37 v 0 l -10.74,-3.37 -8.21,2.35 -2.14,-1.67 -6.15,8.88 -22.33,4.6 -0.47,8.56 2.96,10.97 -1.94,5.73 -7.94,-3.51 -5.01,0.8 -0.51,2.41 2.43,0.64 -3.42,2.69 -8.36,-3.7 v 0 l -1.48,-1.76 -3.33,3.42 -5.56,-2.16 -9.74,2.01 -1.35,-7.16 -2.97,0.15 -0.37,-2.37 -0.09,-3.71 2.53,-1.05 -2.28,-17.09 -14.52,-5.04 -4.99,-5.26 1.63,-8.46 -4.21,-0.46 -2.84,-3.81 v 0 l -4.92,-3.19 3.25,0.15 1.42,-9.52 3.51,2.36 1.28,-8.32 2.95,0.62 2.33,-6.77 6.97,-0.58 -2.12,-15.64 -3.63,-4.66 2.23,-4.64 -1.88,-9.9 2.03,-0.91 -5.4,-0.53 -1.8,-6.45 v 0 l -2.06,-3.07 1.28,-2.56 4.32,-2.23 1.76,2.4 2.56,-4.32 7.04,3.67 1.44,7.36 10.56,-5.92 8,2.08 4.48,-14.87 4.79,-3.2 2.4,-10.24 1.92,-0.96 4.48,3.84 8.48,-3.68 v 0 l -0.21,-0.96 v 0 l 7.31,0.48 -1.76,4.16 8.48,2.56 0.16,4 -4.16,3.52 1.28,4 2.88,1.12 7.2,-4 9.6,8.64 3.36,8.15 10.08,9.6 3.52,0.64 5.28,-3.36 -0.64,-8.32 11.83,5.76 v 0 l -2.08,3.84 2.88,3.84 -7.2,3.04 -3.84,-1.44 -5.75,4.64 3.36,8.96 5.59,1.6 1.92,5.76 12.32,-2.72 3.52,8.48 -3.36,6.4 z"
      />
  <path
     id="LV-098"
     title="Tērvetes novads"
     class="land"
     d="m 411.48134,725.0464 5.09,3.53 -4.32,7.02 4.49,1.07 -1.85,2.7 1.11,5.38 5.52,7.07003 -5.77,6.37 -8.11,2.09 v 0 l -13.01,-1.73 -5.25,3.61 -16.64,0.46 v 0 l -4.25,-8.2 -6,-4.92 6,-8.40003 v 0 l -0.84,-1.41 v 0 l 3.68,-4.33 9.71,-2.76 10.08,3.72 2.28,-1.32 2.04,-4.2 -4.68,-1.56 -0.96,-9 11.4,-8.51 1.44,-5.16 5.64,5.16 z"
      />
  <path
     id="LV-099"
     title="Tukuma novads"
     class="land"
     d="m 421.64134,588.5364 2.59,2.2 v 0 l 2.13,6.8 v 0 l 0.13,5.2 v 0 l -5.51,2.42 3.54,21.19 v 0 l -6.25,5.19 -10.87,1.62 -1.54,-4.41 -1.67,0.79 -5.75,7.76 -4.09,1.38 6.17,7.08 -11.44,12.42 -13.41,-4.25 -2.98,4.13 2.21,3.25 -1.73,1.96 -10.87,-3.39 v 0 -1.2 0 l -1,-4.2 -3.3,-1 -2.5,-4.7 -5.8,-21.2 -13.7,4.3 -7.19,-2.4 -1.5,-4.6 -4.2,-2.09 9.29,-7.6 -1.37,-1.3 v 0 l -5.7,-9.3 2.4,-2 -1,-9.6 h -8.3 l -6.1,-7.1 -2.2,-8.3 1.5,-9.19 6.9,-1.7 1.4,-4.6 -0.3,-2.5 -5.5,-3.2 1.6,-6.9 -1.7,-3.6 8.4,-3.3 9.5,-9.2 -1.47,-4.44 v 0 l 2.34,-14.37 4.67,0.04 2.97,-5.12 8.95,-2.32 2.62,-6.21 3.18,-3 2.12,1.14 -0.75,-2.57 v 0 l 0.57,-3.48 4.88,-1.15 v 0 l 0.92,11.67 2.39,2.48 -3.59,2.72 -1.2,8.56 -7.04,4.8 10.4,8.08 3.51,-1.52 7.6,5.36 6.48,16.15 -3.44,2.79 -0.24,4.96 -7.76,3.44 2.48,4.23 -5.44,7.36 3.36,3.2 4.08,0.16 0.56,3.52 -7.2,2.96 -4.47,7.76 4.87,0.88 8.4,-2.72 6.56,3.84 6.64,-1.12 14.32,2.8 z"
      />
  <path
     id="LV-100"
     title="Vaiņodes novads"
     class="land"
     d="m 132.35134,773.33643 -3.92,-10.1 6.48,-8.28 h -5.88 l -4.08,-6.24 -7.08,-4.08003 6.48,-3.84 -3.24,-8.75 9.72,-4.68 -0.72,-4.08 -4.2,-2.4 0.15,-15.62 v 0 l 13.69,-4.52 v 0 l -1.35,5.79 4.4,2.02 -1.96,2.77 7.19,3.96 9.96,-1.22 1.46,5.87 8.8,-2.98 0.12,3.68 v 0 l -3.18,4.78 0.99,5.47 9.43,7.02 -0.68,6.71 -9.67,1.95 2.51,6.25003 3.29,1.64 v 0 l -1.86,6.07 -2.64,-1.28 -14.48,6.46 -5.67,-3.49 z"
      />
  <path
     id="LV-101"
     title="Valkas novads"
     class="land"
     d="m 811.60134,287.0964 4.83,12.92 7.14,1.99 2.69,-2.71 1.91,5.68 7.51,-1.45 5.08,2.3 6.5,-4.61 3.71,4.14 5.54,-0.32 -5.97,25.72 9.82,0.38 9.56,4.97 1.53,5.64 8.35,3.74 1.18,1.95 -3.29,8.14 5.27,2.51 0.52,4.43 4.19,2.2 0.94,12.33 3.99,4.17 15.89,7.8 v 0 l -5.2,9.17 -0.19,5.29 2.81,1.54 -0.42,4.31 4.19,1.19 -10.49,2.32 v 0 l -1.8,-5.88 -5.4,0.72 -2.16,3.12 -5.04,-0.6 -1.92,-1.8 0.48,-3.24 3.84,-2.64 -1.08,-1.92 -5.04,0.36 -1.79,-2.16 -6.84,2.52 -7.56,-5.16 -18.72,1.2 -10.69,7.04 v 0 l -6.8,2.48 -2.55,-6.32 6.23,-7.12 0.48,-5.53 -8,-1.44 -2.87,-4.08 8.55,0.8 7.28,-5.44 5.52,-16.16 -20.87,-5.69 -5.76,-5.04 2,-12.48 -16.32,6.08 -6.68,-1.12 v 0 l -18.19,-13.6 -9.6,-3.1 v 0 l 3.8,-9 -12.9,-12.7 1.34,-4.89 3.53,1.98 3.87,-4.91 6.87,-0.79 10.14,8.04 6.42,-0.36 1.26,-6.59 3.12,-2.46 0.11,-7.47 v 0 l 7.42,-6.02 z"
      />
  <path
     id="LV-102"
     title="Varakļānu novads"
     class="land"
     d="m 910.84134,678.6664 0.33,-8.47 22.2,1.92 10.8,-5.88 3.48,3.12 2.52,-6.6 4.08,-3.12 11.27,-0.12 v 5.16 l 10.91,3.72 v 0 l 0.86,0.73 v 0 l 2.08,9.17 -2.92,5.89 4.75,7.06 -2.39,3 -8.82,0.71 -1.22,4.51 4.23,5.09 v 0 l -2.16,7.19 -2.89,-2.95 -15.78,2.13 v 0 l -2.53,-4.93 -4.74,3.38 2.32,-15.88 -18.41,-0.06 z"
      />
  <path
     id="LV-103"
     title="Vārkavas novads"
     class="land"
     d="m 903.83134,819.07643 -6.64,-13.44 3.28,-0.56 -4.16,-14.91 1.12,-5.19 6.56,5.04 h 4.8 l 0.48,-11.04 3.68,-2 7.52,14.15 10.88,-1.11 13.03,4.47 1.6,-4.24 4.2,-1.92 v 0 l 9.6,1.52 0.4,9.76 h 4.08 l 1.68,4.55 v 4.08 h -4.72 l -0.16,14.72 -12.96,1.6 1.76,4.64 7.12,5.5 v 0 l -2.88,2.4 -8.5,-3.85 -2.57,-7.71 -2.85,2.28 -0.56,8.72 -5.75,0.56 -2.55,-13.07 -6.92,-7.27 -6.12,4.86 -6.16,-6.97 z"
      />
  <path
     id="LV-104"
     title="Vecpiebalgas novads"
     class="land"
     d="m 759.19134,571.8264 -0.3,-3.42 3.27,-3.68 -2.95,-5.75 3.75,-0.48 4.08,3.91 14.8,-13.19 0.08,-8.4 -5.61,-8.94 -9.24,-1.8 6.13,-8.02 v 0 l 0.3,-8.1 2.7,-2.3 -1.7,-10.4 -2.3,-1.48 v 0 l 0.5,-4.49 7.3,-3.7 0.37,-5.76 v 0 l 15.76,-2.08 2.8,5.2 3.63,-3.63 v 0 l 2.78,0.46 v 0 0 0 l -1.77,17.22 3.24,2.64 v 0 l 1.15,-0.14 v 0 l -1.75,9.26 3.48,4.2 -1.92,5.4 1.44,2.39 10.56,2.76 7.67,10.44 5.77,-0.01 v 0 l -6.11,26.21 7.22,2.81 -0.12,8.97 -5.91,3.6 v 0 l -0.13,0.19 v 0 l -7.32,0.74 -0.4,-3.36 -5.86,-6.1 -4.49,3.91 -2.63,-0.71 -3.45,-5.97 -4.83,0.06 -1.9,4.16 -11.46,8.04 -2.15,-4.13 2.44,-2.06 0.03,-6.51 -11.17,7.49 -12.37,-8.16 -1.78,2.31 v 0 z"
      />
  <path
     id="LV-105"
     title="Vecumnieku novads"
     class="land"
     d="m 599.41134,656.3764 0.64,2.48 16.84,-1.01 0.93,11.4 -8.84,0.43 -0.3,6.08 5.64,15.57 8.63,0.03 -0.86,4.39 3.18,-1.34 2.35,2.11 0.14,4.51 -5.84,0.52 2.12,6.54 4.51,-1.2 5.36,1.92 17.92,-9.28 4.4,1.28 5.44,-2.56 2.78,1.65 9.09,-1.86 v 0 l 1.4,5.9 7.4,4.9 0.7,11.7 v 0 l -15.5,3.29 -7,10.2 -0.59,4.61 v 0 l -4.83,4.28 0.44,6.20003 -5.88,1.39 -3.68,-3.34003 -4.54,6.68003 -11.99,-0.54 0.53,3.97 -3.02,3.76 -10.28,-0.27 -0.48,8.27 -8.62,8.06 v 0 l -7.33,-2.58 -3.04,2.88 -7.52,-6 8,-8.48 -9.6,-3.92 -0.55,-2.64 13.11,-7.83 2.08,-8.10003 -4.48,-1.44 -0.88,-2.64 4,-5.04 -4.48,-2 -3.92,-5.6 -5.91,2.96 -4.16,-10.71 -5.12,-0.48 -0.43,-4.75 v 0 -7.2 l -9.76,-0.8 -1.76,-2.4 -0.8,-15.68 h 9.76 l 0.64,-2.56 -3,-8.92 v 0 l 2.12,-1.01 -2.94,-0.83 2.3,-2.2 9.9,-2.32 9.92,-10.22 z"
      />
  <path
     id="LV-106"
     title="Ventspils novads"
     class="land"
     d="m 93.131344,451.3464 9.709996,10.06 1.8,-6.6 2.5,4 3.19,-2 -1.4,-8.3 9.6,-4.09 -2.9,-17.7 -4.45,-4.18 5.8,-10.58 4.22,-15.67 4.97,-5.29 20.49,-7.21 32.04,-3.76 28.28,-14.65 4.38,6.46 -3.45,4.49 4.39,-2.82 5.13,7.84 -2.07,0.15 -0.38,6.24 4.37,9.46 1.92,15.35 -5.1,0.32 -10.13,9.68 -4.61,-1.21 1.21,4.62 2.81,1.06 -2.15,3.43 -16.32,8.08 9.92,6.74 8.06,1.59 10.32,-3.24 1.8,6.45 5.4,0.53 -2.04,0.9 1.89,9.9 -2.24,4.64 3.64,4.67 2.12,15.63 -6.97,0.59 -2.34,6.77 -2.94,-0.62 -1.28,8.31 -3.52,-2.36 -1.41,9.52 -3.25,-0.15 4.9,2.91 -2.66,20.19 -2.26,2.32 -10.08,1.45 0.36,2.97 -9.29,0.22 -9.02,-4.64 -2.17,3.68 -6.68,0.37 -2.51,2.63 -5.3,-1.67 -3.48,3.15 -2.19,-3.03 -5.63,-1.51 -4.13,7.48 -3.4,-2.38 -1.12,2.29 -1.95,-1.05 -0.39,-2.75 2.54,-1.15 -1.33,-3.62 -6.24,0.47 -7.86,-5.51 -2.05,4.52 -7.71,-3.22 -8.56,10.45 -3.86,-1.2 -4.319996,4.39 -6.92,-0.99 -0.07,5.08 -3.71,1.71 1.36,8.85 -4.5,-0.01 1.6,17.33 -3.56,3.28 0.71,4.5 -9.56,0.01 -0.96,-4.89 -4.76,-2.3 -2.51,1.88 -4.04,-2.92 7.27,-8.45 7.12,-19.9 -1.32,-34.12 1.74,-34.16 z"
      />
  <path
     id="LV-107"
     title="Viesītes novads"
     class="land"
     d="m 784.21134,833.54643 -9.71,-1.44 -1.95,-6.24 -3.06,-1.48 -4.09,1.75 -1.85,4.88 -11.31,-3.19 -2.41,2.74 -2.72,-0.84 0.05,-2.87 -7.39,1.21 v 0 l 0.35,-2.32 8.3,-0.27 0.99,-3.5 -3.5,-3.26 -1.93,-8.81 2.29,-8.1 -3.72,-5.71 -3.65,-0.09 -3.66,-6.96 -5.13,-2.42 2.64,-6.96 8.74,-3.36 -2.63,-4.03 -2.89,2.31 -8.05,-0.55 2.23,-2.97 -0.95,-20.62 v 0 l 0.88,-3.37003 14.01,3.83003 13.47,-1.06 8.36,-11.69003 6.01,1.91 7.26,-7.84 v 0 l 2.66,2.51 -1.6,7.6 1.2,5.78003 h 2.6 v 4.99 l 5.3,-0.19 3.5,7.79 h 7.89 l 1.5,4.7 v 0 l -1.4,17.62 h -7.19 l -2.7,3.5 2.8,10.9 v 0 8.99 0 l -8.1,17.3 z"
      />
  <path
     id="LV-108"
     title="Viļakas novads"
     class="land"
     d="m 1135.8713,566.4264 -6.58,3.15 -5.88,-1.56 v 0 l -1.67,-4.92 -5.88,-1.92 -6.12,2.16 -1.8,-7.8 2.52,-4.32 -1.08,-3.96 -4.68,2.88 -19.56,-21.23 4.2,-22.46 7.92,-10.44 10.08,-4.68 0.19,-3.25 v 0 l 0.46,0.06 v 0 l 2.09,-0.66 0.24,-3.69 3.78,-0.72 0.56,-7.95 8.06,-1.34 9.22,-6.75 -0.24,-12.04 v 0 l 14.71,8 1.04,7.12 7.47,-0.56 6.46,9.58 -1.65,9.22 1.87,4.07 -6.71,14.61 0.62,10.69 -2.64,7.03 -14.05,8.29 3.09,3.5 -0.42,2.94 -1.66,-1.98 -4.49,0.55 0.72,2.82 8.43,2.56 -3.85,4.45 0.65,5.16 z"
      />
  <path
     id="LV-109"
     title="Viļānu novads"
     class="land"
     d="m 1007.1013,735.8764 0.71,-5.93 -16.66996,-1.92 0.35,-4.07 -7.39,0.18 -1.76,-4.72 -4.61,0.04 8.49,-5.85 -1.31,-2.74 -11.91,-6.31 v 0 l -4.23,-5.09 1.22,-4.51 8.82,-0.71 2.39,-3 -4.75,-7.06 2.92,-5.89 -2.08,-9.17 v 0 l 9.49,-0.43 2.7,4.5 6.99995,-0.7 7.20001,17.02 5.09,4.2 8.1,0.99 3.7,4.6 -1.2,3.6 2.2,3.6 -2.7,5 9.1,21.7 -4.2,5.4 -6.7,-1.8 -6.6,3.1 z"
      />
  <path
     id="LV-110"
     title="Zilupes novads"
     class="land"
     d="m 1198.9913,812.84643 6.9,-13.9 -12.3,-13.69 -7.5,-4.4 -5.6,5.7 -6.9,1.1 1.1,6.6 -10.79,1.3 -3.5,-13.2 17.29,-14.96 9.1,-1.6 1.3,-2.5 -4.3,-11.4 1.3,-1.9 h 7.6 l 5.9,6.5 7.1,-3.9 8.22,1.39 v 0 l -2.44,6.23 4.4,4.97 8.48,26.01 -9.38,13.75 3.2,4.05 -4.78,2.84 0.04,7.57 -10.25,5.82 -3.85,8.26 -4.85,0.21 v 0 l -2.62,-3.74 9.2,-13.36 -2.36,-3.18 v 0 z"
      />
  <g
     id="stadiums"
     data-country="latvia"
     data-circle-radius="6"
     data-circle-colors="#a149be,#bea149" />
</svg>
