<?xml version="1.0" encoding="UTF-8" standalone="no"?>
<?xml-stylesheet type="text/css" href="/styles/home.css"?>
<!-- https://www.amcharts.com/svg-maps -->

<svg version="1.1" xmlns="http://www.w3.org/2000/svg" id="map-lithuania"
   viewBox="0 0 786.15241 786.15241" width="786.15241" height="786.15241" class="">

  <defs
     id="defs4">
    <style
       id="style2"
       type="text/css">
			.land
			{
				fill: #b6bce0;
				fill-opacity: 1;
				stroke:white;
				stroke-opacity: 1;
				stroke-width:0.5;
			}
         .rectangle:hover {
         fill: #bdbdbd;
         cursor: pointer;
         }
		</style>
    <!-- <amcharts:ammap projection="mercator" leftLongitude="20.958510" topLatitude="56.446758" rightLongitude="26.838150" bottomLatitude="53.898758"></amcharts:ammap> -->
    <!-- All areas are listed in the line below. You can use this list in your script. -->
    <!--{id:"LT-AL"},{id:"LT-KU"},{id:"LT-KL"},{id:"LT-MR"},{id:"LT-PN"},{id:"LT-SA"},{id:"LT-TA"},{id:"LT-TE"},{id:"LT-UT"},{id:"LT-VL"}-->
  </defs>
  <rect id="background" class="rectangle" stroke-width="0" stroke="#000" width="786.15241" height="786.15241" y="0" x="0" fill="#d3d3d3" />
  <path
     id="LT-AL"
     title="Alytus"
     class="land"
     d="m 373.93765,564.79134 2.67,1.63 2.46,-0.34 1.31,-2.94 9.32,1.38 -1.63,2.73 6.05,-2.2 0.01,-5.72 8.79,0.83 4.91,-2.73 0.52,-2.94 -2.43,-1.26 2.51,-6.16 5.41,-2.44 4.73,0.9 2.63,4.53 2.66,-2.32 9.14,0.04 1.06,-4.09 4.57,0.05 2.44,-2.21 1.94,0.53 -1.33,4.41 2.56,5.13 11.16,1.17 5.45,-0.81 1.32,-2.27 v 0 l -0.3,6.89 1.87,4.06 -3.59,1.7 5.66,3.99 -2.61,7.06 2.19,-0.71 2.15,2.89 11.79,-1.19 -0.04,2.15 4.22,1.26 1.11,-5.45 3.6,-0.21 1.21,-2.56 3.01,1.05 2.88,-1.56 6.61,4.54 -1.25,4.67 1.54,4.65 2.46,-3.82 1,1.33 13.67,0.06 0.56,-3.29 7.42,-0.99 0.57,1.9 1.58,-3.55 13.16,-3.48 -0.2,9.21 -3.02,0.73 0.35,2.77 -9.46,1.83 0.33,2.59 -2.36,0.69 2.82,14.22 -6.63,0.45 -1.46,2.08 1.97,2.22 -3.13,0.32 -1.92,4.22 -3.6,-0.18 -0.35,1.69 -1.79,-0.62 0.31,3.58 -7.2,1.83 -0.3,4.83 8.39,3.69 2.78,9.91 v 0 l -2.03,0.73 1.75,3.02 -7.85,4.55 6.41,9.3 0.31,5.88 2.74,2.59 2.88,-1.04 1.1,1.49 -4.7,0.84 0.46,4.79 -1.84,-0.36 -1.62,3.15 -6.1,0.39 -4.6,4.31 0.36,1.74 -6.63,0.73 1.29,-12.48 -2.7,-0.29 -2.73,2.9 -4.77,-0.77 -2.75,4.04 -10.91,7.39 -8.47,11.55 -2.95,1.47 -1.24,-1.45 0.1,1.99 -0.69,-1.81 -8.41,1.29 -1.43,-2.53 -2.07,2.46 -2.27,-0.59 -8.16,-10.7 -2.72,1.78 -2.87,-1.13 -1.23,-4.57 -7.96,3.62 -3.76,-0.7 -1.76,4.05 -14.74,2.9 -2.65,-0.32 -0.86,-5.48 -6.43,-3.76 -3.42,5.87 -4.88,-2.63 -2.66,0.59 -4.68,4.19 2.42,5.55 -5.29,2.13 0.64,-2.65 -2.04,-2.83 -5.97,-2.97 -15.3,2.36 -3.72,-3.74 -5.98,-0.23 -5.26,-5.46 -1.95,-6.84 5.73,-7.22 0.46,-7.81 -4.72,-11.61 -0.85,-8.17 -3.62,-5.15 -4.56,-0.5 -5.88,-11.65 -7.74,-5.58 v 0 l 1.59,-5.19 -2.87,-5.09 4.42,-2.33 0.67,-8.32 7.07,-5.1 7.47,-0.37 -2.51,-2.1 -0.75,-5.09 2.99,0.44 4.21,-3.78 3.32,0.39 -0.03,-12.13 13.45,-5.71 1.45,-4.29 2.58,-1.45 3.36,3.08 1.87,5.53 4,-2.07 z"
      />
  <path
     id="LT-KU"
     title="Kaunas"
     class="land"
     d="m 230.41765,330.41134 3.06,-2.61 1.64,1.2 5.76,-7.06 2.08,2.43 9.68,-0.8 0.4,5.81 -3.41,1.34 2.53,3.53 1.55,-2.05 4.55,1.72 5.38,-5.15 7.41,-1.77 1.55,1.18 6,-5.46 1.98,2.19 0.36,-2.8 3.41,2.3 -1.47,-7.56 3.12,-1.08 -0.06,-6.06 3.63,-0.75 0.54,3.35 2.27,0.35 9.63,-3.02 1.69,-2.26 1.63,9.69 2.21,1.67 2.29,-3.61 1.58,1.58 7.17,-3.3 5.41,3.54 2.85,6.31 7.32,2.26 -0.95,1.6 2.35,0.71 2.34,-2.22 -1.12,-4.54 8.03,-2 4.44,3.6 -0.23,7.93 12.36,0.45 -0.4,-3.01 5.4,-5.58 26.36,-13.2 v 0 l 3.2,4.34 -2.28,0.9 0.86,2.68 3.51,4.08 3.16,2.09 0.13,-1.48 3.17,-0.4 7.79,8.05 2.83,-0.52 -0.92,7.55 6.01,1.34 1.55,-2.47 2.5,0.19 1.74,3.15 3.73,-3.36 5.13,0.26 0.73,-5.41 5.37,2.23 0.24,3.39 6.44,2.37 1.81,-3.73 4.48,4.37 3.34,-0.45 3.31,2.07 -0.29,4.09 6.54,3.59 v 0 l -0.26,5.42 -2.89,1.18 -0.31,3.23 -1.96,1.2 -1.95,13.69 4.34,0.4 1.08,2.52 -2.08,10.91 12.22,3.15 -3.16,4.16 2.52,9.02 5.67,2.07 -2.62,2.83 2.54,5.15 2.32,2.77 2.86,-0.6 1.26,8.55 3.05,0.16 2.13,5.26 1.82,0.47 -2.5,1.42 0.2,2.84 -5.49,0.93 0.67,3.63 -3.57,1.3 -1.74,3.81 3.67,3.95 5.3,-0.07 2.49,4.11 5.31,2.32 1.54,4.39 5.35,-1 v 0 h 2.57 v 0 l 8.24,6.71 -1.43,4.26 -2.66,-1.02 -3.95,2.3 1.74,12.66 -2.18,-0.55 -1.04,1.76 -1.51,-1.37 -0.21,1.58 -5.56,0.71 -5.64,3.7 -1.67,6.96 1.86,4.14 -1.86,0.34 -0.86,10.37 -4.33,0.46 -4.43,-3.83 -1.63,6.28 -5.37,-2.56 -3.92,0.81 -2.79,4.29 2.22,10.18 -2.93,1.87 2.57,-0.02 1.53,5.2 -2.04,-0.44 -4.05,4.05 -1.71,-1.31 -1.42,14.81 v 0 l -1.32,2.27 -5.45,0.81 -11.16,-1.17 -2.56,-5.13 1.33,-4.41 -1.94,-0.53 -2.44,2.21 -4.57,-0.05 -1.06,4.09 -9.14,-0.04 -2.66,2.32 -2.63,-4.53 -4.73,-0.9 -5.41,2.44 -2.51,6.16 2.43,1.26 -0.52,2.94 -4.91,2.73 -8.79,-0.83 -0.01,5.72 -6.05,2.2 1.63,-2.73 -9.32,-1.38 -1.31,2.94 -2.46,0.34 -2.67,-1.63 v 0 l 4.66,-8.44 -4.32,-4.53 -1.43,-6.22 -5.83,1.97 -5.01,-9.79 4.49,-2.25 -3.4,-5.67 -3.86,0.35 0.52,-1.8 -2.6,-1.22 5.94,-2.23 -2.32,-3.11 2.66,-1.85 -0.62,-3.8 -4.27,-6.67 3.79,-3.16 -3.63,-6.4 1.37,-3.46 -2.24,-1.18 -6.59,1.8 8.71,-9.13 -5.63,-5.81 1.49,-1.82 -1.64,-1.83 2.91,-4.36 -11.69,-8.8 -5.47,3.43 -2.9,-2.64 -0.56,-8.05 -10.87,-5.48 7.07,-6.08 8.93,-1.63 8.46,-4.42 1.38,-6.79 -4.22,-2.39 -9.4,-1.03 -9.55,-5.89 v 0 l 3.82,-2.61 5.23,-9.44 0.05,-8.58 3.73,-10.14 -7.03,-3.45 -4.44,1.98 -1.17,-1.56 -2.25,0.93 -2.62,-1.52 -0.99,-5.75 -7.19,0.21 -1.13,1.9 -15.59,-0.5 -0.18,-8.32 -8.34,3.08 -6.04,-1.4 -1.56,3.09 -8.32,-0.49 2.55,-5.45 -6.51,-3.38 1.32,-6.23 -5.21,1.53 -2.31,-1.78 0.79,2.13 -4.81,0.65 -0.15,2.53 -2.27,-0.21 -1.88,2.72 v -4.52 l -2.68,-1.69 -0.06,-2.67 -7.26,-0.14 0.19,-3.7 2.47,-1.76 -1.87,-7.67 -5.48,0.54 -0.92,-2.54 -2.43,0.12 0.82,-8.36 -5.71,1.92 -3.48,-8.71 2.86,-1.86 z"
      />
  <path
     id="LT-KL"
     title="Klaipėda"
     class="land"
     d="m 19.567644,273.07134 4.45,9.61 -2.06,44.33 -3.81,11.29 2.78,4.82 -3.18,2.4 0.85,1.53 -4.9,8.64 0.31,9.05 -5.5699995,3.54 -0.55,2.9 -2.45,1.1 1.02,1.99 -2.78,2.5 -3.24999993,-0.47 11.71999943,-29.03 6,-24.55 2.26,-29.22 -2.02,-21.66 z m 114.850006,-157.6 1.52,0.43 v 0 5.06 l -5.18,0.79 -0.57,8.03 6.12,0.6 -1.04,11.44 3.06,4.66 -0.39,5.49 3.42,3.5 -0.17,3.55 -6.39,-1.15 -6.16,21.02 -11.37,-4.81 1.55,8.61 -12.31,-3.04 -2.82,7.39 -3.07,-0.67 -7.870006,18 -10.1,-1.55 -1.59,3.82 4.72,2.05 -3.37,7.55 1.18,7.81 -2.38,0.07 0.67,2.38 6.45,4.14 -3.63,1.02 -1.44,5.49 -6.51,2.97 0.23,4.58 -1.67,-1.04 -2.41,6.27 6.29,3.96 3.96,-5.01 1.04,3.56 4.37,3.46 -0.63,2.49 2.06,0.52 -1.52,5.07 2.75,0.73 2.19,-2.84 6.510009,3.29 1.109997,-1.56 0.76,1.71 1.64,-0.64 1.04,-2.51 2.49,1.54 0.12,6.35 -2.02,4.12 5.22,3.86 3.21,0.07 -2.45,2.25 -2.81,10.26 3.29,2.43 0.35,5.69 5.13,-1.68 6.43,5.33 v 0 l -1.72,2.43 1.12,1.32 -5.87,3.02 -2.94,4.13 3.61,0.14 -2.26,2.31 0.19,5.09 1.86,5.04 1.75,-0.78 2.73,17.61 6.65,-2.91 6.05,3.59 4.45,-0.82 3.07,6.18 -4.54,10.82 -13.28,18.37 10.94,2.53 8.69,5.71 -1.22,3.16 4.61,13.85 13.2,-1.59 3.77,4.27 13.24,0.84 2.9,2.61 -5.24,0.07 -0.76,7.41 2.23,9.69 v 0 l -15.93,1.89 -5.06,6.84 -5.53,0.33 -5.28,-3.72 -0.51,-9.96 -5.56,-0.4 -3.69,2.66 -5.99,-1.28 -9.43,-4.01 -4.33,-5.06 -4.65,0.02 -7.7,-3.29 -1.26,-3.69 -8.480006,-7.4 -11.09,-4.11 -9.01,2.41 -6.53,-7.87 -9.13,-17.08 -14.67,11.19 3.39,-13.15 -7.51,-9.28 1.32,-4.5 2.04,-0.07 -2.54,-1.24 -2,3.4 -6.55,2.67 8.31,-18.17 0.95,-10.55 -4.18,-14.55 2.83,-1.84 -3.85,1.86 -0.94,-11.13 -4.5,-5.64 -3.63,-10.27 -0.41,-5.27 2.42,3.59 -3.49,-9.93 -2.62,-5.8 -4.98,-3.95 -4.22,-45.05 3.35,-19.22 -1.6,-16.4 12.64,-3.94 2.91,2.58 2.82,-0.43 4.48,-9.2 -0.51,-11.18 5.83,-2.3 7.27,-11.05 16.62,-7.13 5.4,-10.52 5.49,-0.1 3.86,-5.5 4.29,-1.73 5.29,-0.05 5.17,2.91 6.530006,-0.5 15.01,-13.93 4.68,2.7 z"
      />
  <path
     id="LT-MR"
     title="Marijampolė"
     class="land"
     d="m 218.59765,425.30134 9.72,4.84 10.88,-2.47 4.71,-3.84 9.41,-2.75 11.06,1.19 16.23,-5.22 36.05,8.76 11.61,-1.4 v 0 l 9.55,5.89 9.4,1.03 4.22,2.39 -1.38,6.79 -8.46,4.42 -8.93,1.63 -7.07,6.08 10.87,5.48 0.56,8.05 2.9,2.64 5.47,-3.43 11.69,8.8 -2.91,4.36 1.64,1.83 -1.49,1.82 5.63,5.81 -8.71,9.13 6.59,-1.8 2.24,1.18 -1.37,3.46 3.63,6.4 -3.79,3.16 4.27,6.67 0.62,3.8 -2.66,1.85 2.32,3.11 -5.94,2.23 2.6,1.22 -0.52,1.8 3.86,-0.35 3.4,5.67 -4.49,2.25 5.01,9.79 5.83,-1.97 1.43,6.22 4.32,4.53 -4.66,8.44 v 0 l -5.25,-4.61 -4,2.07 -1.87,-5.53 -3.36,-3.08 -2.58,1.45 -1.45,4.29 -13.45,5.71 0.03,12.13 -3.32,-0.39 -4.21,3.78 -2.99,-0.44 0.75,5.09 2.51,2.1 -7.47,0.37 -7.07,5.1 -0.67,8.32 -4.42,2.33 2.87,5.09 -1.59,5.19 v 0 l -11.92,-1.88 -4.22,-6.39 -6.48,-1.94 0.71,-2.92 -2.03,-1.28 -6.58,3.81 -5.96,-3.29 -0.64,-3.11 2.34,-3.4 -9.19,-4.62 2.11,-4.86 -3.57,-1.64 -17.06,-4.63 -2.69,0.98 -3.28,8.06 -2.13,1.24 -9.31,-14.24 -2.8,-6.4 -0.36,-11.82 -2.56,-6.11 3.66,-6.85 -3.17,-5.52 7.97,-9.18 -0.18,-4.01 1.79,-1.36 -4.22,-8.65 3.29,-4.68 -1.33,-4.2 4.67,-6.01 4.17,-0.8 1.11,-2.61 4.08,-0.24 2,-2.4 -0.9,-2.47 3.49,-0.58 -0.6,-3.36 1.63,-1.96 -2.01,-1.55 0.67,-3.22 -2.23,-0.9 1.46,-3.17 -3.92,-2.6 1.82,-5.19 -0.95,-2.46 -3.66,-3.59 -3.44,2.13 -2.04,-5.24 -3.25,1.65 1.46,-4.02 -3.1,-0.83 -2.15,-5.48 -2.5,-2.44 -2.35,0.33 -1.47,-3.58 -2.68,1.51 0.42,3.99 -2.51,-1.85 -2.4,-7.63 -3.58,-4.09 z"
      />
  <path
     id="LT-PN"
     title="Panevėžys"
     class="land"
     d="m 526.34765,99.391336 3.44,1.500004 -0.99,6.43 4.26,9.13 3.7,2.75 0.71,12.53 5.04,4.81 0.92,3.72 4.6,2.55 2.82,16.98 10.18,4.79 h 6.4 l 4.42,-4.14 11.09,11.37 2.82,-2.2 9.02,-0.96 -0.04,2.28 2.16,0.67 1.92,-2.18 9.32,2.49 1.13,-3.83 2.92,-1.39 2.75,1.17 1.55,4.96 4.09,1.36 7.18,-0.07 3.22,-3.54 1.43,1.2 -0.71,3.39 2.71,2.54 -1.4,8.01 9.71,5.49 7.78,1.94 1.69,5.25 2.97,2.03 0.5,5.68 4.94,-0.27 19.61,10.92 v 0 l -6.73,1.21 -4.18,4.5 -0.28,2.93 2.69,3.74 -1.66,5.96 -9.41,1.88 0.55,8.98 -5.34,1.04 -2.94,-1.47 -2.18,15.28 -7.26,-2.61 -5.06,0.95 -0.26,8.34 -5.43,4.29 -1.75,-4.71 -4.05,2.27 -4.48,-0.31 -1.99,-2.39 -2.19,5.21 -5.25,-1.82 -1.11,2.81 -1.81,0.07 -3.55,-1.77 0.84,-2.37 -3.58,-1.25 -1.36,2.7 -10.45,-7.99 -3.13,0.76 -4.34,6.07 -4.87,0.52 0.34,4.19 1.82,0.73 -1.13,2.93 -4.37,-4.33 -3.15,0.38 -19.24,8.07 -1.89,-4.85 1.98,-2.91 -4.77,0.5 -11.5,-5.28 -6.32,4.38 -8.02,-0.59 -0.44,3.64 -2.74,-0.47 -2.37,-3.95 -5.53,3.05 -5.14,-0.17 -2.94,-2.81 -2.29,9.15 5.59,3.24 -3.76,3.64 -3.6,-1.89 0.94,-1.68 -6.96,1.59 0.06,4.39 5.26,-1.51 2.63,1.92 1.75,7.84 -6.58,2.21 -1.47,4.16 1.57,4.08 -2.1,1.55 1.09,2.17 -2.35,7 v 0 l -3.76,2.26 3.47,8.76 -1.32,3.36 -6.13,2.7 -7.68,-2.44 -0.41,4.77 -2.61,1.27 1.04,3.17 -4.39,2.49 0.45,2.37 -5.86,-0.47 v 0 l -6.54,-3.59 0.29,-4.09 -3.31,-2.07 -3.34,0.45 -4.48,-4.37 -1.81,3.73 -6.44,-2.37 -0.24,-3.39 -5.37,-2.23 -0.73,5.41 -5.13,-0.26 -3.73,3.36 -1.74,-3.15 -2.5,-0.19 -1.55,2.47 -6.01,-1.34 0.92,-7.55 -2.83,0.52 -7.79,-8.05 -3.17,0.4 -0.13,1.48 -3.16,-2.09 -3.51,-4.08 -0.86,-2.68 2.28,-0.9 -3.2,-4.34 v 0 l 4.53,-10.75 -0.36,-5.41 6.86,2.38 1.4,-2.57 7.7,-0.71 -2.24,-3.85 -0.29,-8.16 2.53,0.59 3.95,-3.88 -4.8,-3.62 1.86,-7.41 -4.19,-2.56 1.8,-2.68 -2.04,-4.41 -4.24,0.86 -4.13,-13.46 8,1.07 -1.83,-4.13 3.79,0.93 0.5,-2.93 6.87,-2.78 -1.11,-4.68 2.55,-4.85 -0.24,-6.52 -3.78,0.35 -1.71,-2.9 -2.78,1.07 -2.75,-3.22 1.98,-5.31 -0.75,-3.55 2.73,-3.25 -0.22,-5.27 2.81,2.7 1.01,-1.41 0.55,-9.46 4.18,-1.14 3.5,-11.48 1.62,0.86 5.12,-2.6 -0.01,-9.7 -3.37,0.67 1.9,-5.65 -4.52,-2.06 -2.19,-7.46 4.45,-5.52 v 0 l 2.98,0.31 3.74,-3.81 11.3,-4.38 -0.34,-3.1 6.82,0.56 2.57,5.76 4.74,-1.25 4,3.99 4.23,0.82 9.17,-5.94 7.62,-1.2 -0.26,-8.02 6.85,-6.4 0.38,-6.57 8.17,0.21 2.39,-2.98 -0.42,-3.16 9.52,0.43 3.61,-5.3 2.92,2.65 4.43,-0.99 -0.11,-5.03 2.43,-3.190004 z"
      />
  <path
     id="LT-SA"
     title="Šiauliai"
     class="land"
     d="m 266.38765,106.72134 6.88,2.31 2.14,7.83 -1.81,0.89 2.92,9.44 2.52,2.26 3.7,-0.77 2.81,4.42 11.93,-7.93 -1.47,-7.03 14.65,-0.87 4.17,-2.86 9.94,1.08 4.18,2.1 2.82,4.4 14.24,4.64 11.74,-6.95 17.61,-2.98 1.87,2.98 -1.93,9.19 2.06,0.63 2.25,-4.6 2.6,-0.55 12.87,0.53 2.06,2.28 11.57,-0.04 0.98,4.71 3.46,3 0.01,4.23 6.56,0.65 2.34,6.65 5.32,-0.96 v 0 l -4.45,5.52 2.19,7.46 4.52,2.06 -1.9,5.65 3.37,-0.67 0.01,9.7 -5.12,2.6 -1.62,-0.86 -3.5,11.48 -4.18,1.14 -0.55,9.46 -1.01,1.41 -2.81,-2.7 0.22,5.27 -2.73,3.25 0.75,3.55 -1.98,5.31 2.75,3.22 2.78,-1.07 1.71,2.9 3.78,-0.35 0.24,6.52 -2.55,4.85 1.11,4.68 -6.87,2.78 -0.5,2.93 -3.79,-0.93 1.83,4.13 -8,-1.07 4.13,13.46 4.24,-0.86 2.04,4.41 -1.8,2.68 4.19,2.56 -1.86,7.41 4.8,3.62 -3.95,3.88 -2.53,-0.59 0.29,8.16 2.24,3.85 -7.7,0.71 -1.4,2.57 -6.86,-2.38 0.36,5.41 -4.53,10.75 v 0 l -26.36,13.2 -5.4,5.58 0.4,3.01 -12.36,-0.45 0.23,-7.93 -4.44,-3.6 -8.03,2 1.12,4.54 -2.34,2.22 -2.35,-0.71 0.95,-1.6 -7.32,-2.26 -2.85,-6.31 -5.41,-3.54 -7.17,3.3 -1.58,-1.58 -2.29,3.61 -2.21,-1.67 -1.63,-9.69 -1.69,2.26 -9.63,3.02 -2.27,-0.35 -0.54,-3.35 -3.63,0.75 0.06,6.06 -3.12,1.08 1.47,7.56 -3.41,-2.3 -0.36,2.8 -1.98,-2.19 -6,5.46 -1.55,-1.18 -7.41,1.77 -5.38,5.15 -4.55,-1.72 -1.55,2.05 -2.53,-3.53 3.41,-1.34 -0.4,-5.81 -9.68,0.8 -2.08,-2.43 -5.76,7.06 -1.64,-1.2 -3.06,2.61 v 0 l -7.3,-1.24 3.38,-2.94 -0.71,-2.45 -8.44,-9.85 0.65,-3.6 -3.95,0.33 -2.83,-6.35 -3.97,-1.01 0.2,-2.67 v 0 l 0.18,-0.83 v 0 l 1.33,-4.13 -5.08,-3.28 0.8,-5.51 -1.64,-3.59 v 0 l 1.56,-2.91 5.95,-1.84 0.37,-3.13 -1.28,-9.21 -5.69,-11.16 12.86,-3.13 -0.38,-13.23 7.76,0.67 3.82,-3.54 3.06,2.06 -0.84,-4.01 3.66,-0.05 0.3,-5.26 -1.89,-2.97 3.05,-0.81 -0.6,-2.33 -3.02,-0.1 -2.78,-9.52 -2.9,-1 1.4,6.05 -5.01,-0.15 -2.21,-0.73 0.41,-3.24 -2.69,-3.51 3.5,-2.43 3.11,-8.87 -1.79,-4.49 2.5,2.22 3.72,-3.98 3.73,1.17 7.72,-2.32 -0.98,-3.75 -4.19,-3.04 0.68,-7.43 -1.97,-0.94 -9.34,2.64 -0.22,3.44 -1.61,-0.43 -0.81,2.01 -10.08,-4.69 -3.44,-0.07 -2,2.37 -9.56,-1.85 2.7,-4.88 -3.61,1.15 2.1,-5.4 -5.21,-2.02 0.1,-1.55 4.29,-20.31 7.73,-1.63 1.53,-7.85 -2.66,0.36 -1.98,-3.85 8.92,0.65 0.68,-2.71 8.38,1.61 3.16,-7.34 -4.59,-6.35 7.15,-0.7 v 0 l 4.87,3.04 6.32,-4.79 17.25,1.13 9.22,-3.88 1.03,-2.63 -1.83,-1.27 z"
      />
  <path
     id="LT-TA"
     title="Tauragė"
     class="land"
     d="m 123.41765,302.40134 14.85,-4.44 1.04,1.99 h 3.85 l 7.66,-12.31 4.34,1.96 4.22,-4.91 13.63,-5.18 7.3,5.48 1.07,-2.2 3.07,0.12 5.68,3.97 5.29,-3.09 4.18,1.82 3.44,-2.32 v 0 l 1.64,3.59 -0.8,5.51 5.08,3.28 -1.33,4.13 v 0 l -0.18,0.83 v 0 l -0.2,2.67 3.97,1.01 2.83,6.35 3.95,-0.33 -0.65,3.6 8.44,9.85 0.71,2.45 -3.38,2.94 7.3,1.24 v 0 l 1.8,2.9 -2.86,1.86 3.48,8.71 5.71,-1.92 -0.82,8.36 2.43,-0.12 0.92,2.54 5.48,-0.54 1.87,7.67 -2.47,1.76 -0.19,3.7 7.26,0.14 0.06,2.67 2.68,1.69 v 4.52 l 1.88,-2.72 2.27,0.21 0.15,-2.53 4.81,-0.65 -0.79,-2.13 2.31,1.78 5.21,-1.53 -1.32,6.23 6.51,3.38 -2.55,5.45 8.32,0.49 1.56,-3.09 6.04,1.4 8.34,-3.08 0.18,8.32 15.59,0.5 1.13,-1.9 7.19,-0.21 0.99,5.75 2.62,1.52 2.25,-0.93 1.17,1.56 4.44,-1.98 7.03,3.45 -3.73,10.14 -0.05,8.58 -5.23,9.44 -3.82,2.61 v 0 l -11.61,1.4 -36.05,-8.76 -16.23,5.22 -11.06,-1.19 -9.41,2.75 -4.71,3.84 -10.88,2.47 -9.72,-4.84 v 0 l -16.38,5.77 -25.56,-4.59 v 0 l -2.23,-9.69 0.76,-7.41 5.24,-0.07 -2.9,-2.61 -13.24,-0.84 -3.77,-4.27 -13.2,1.58 -4.61,-13.85 1.21,-3.15 -8.68,-5.71 -10.95,-2.53 13.29,-18.37 4.54,-10.81 -3.07,-6.18 -4.45,0.82 -6.06,-3.59 -6.65,2.91 -2.73,-17.61 -1.75,0.77 -1.86,-5.04 -0.18,-5.08 2.26,-2.31 -3.61,-0.14 2.94,-4.13 5.86,-3.02 -1.12,-1.32 z"
      />
  <path
     id="LT-TE"
     title="Telšiai"
     class="land"
     d="m 156.73765,102.86134 4.87,2.66 5.56,-1.04 4.85,5.28 9.37,-1.5 4.93,3.4 8.38,-3.64 8.71,1.14 4.41,2.91 13.88,2.43 3.91,4.48 v 0 l -7.15,0.7 4.59,6.35 -3.16,7.34 -8.38,-1.61 -0.68,2.71 -8.92,-0.65 1.98,3.85 2.66,-0.36 -1.53,7.85 -7.73,1.63 -4.29,20.31 -0.1,1.55 5.21,2.02 -2.1,5.4 3.61,-1.15 -2.7,4.88 9.56,1.85 2,-2.37 3.44,0.07 10.08,4.69 0.81,-2.01 1.61,0.43 0.22,-3.44 9.34,-2.64 1.97,0.94 -0.68,7.43 4.19,3.04 0.98,3.75 -7.72,2.32 -3.73,-1.17 -3.72,3.98 -2.5,-2.22 1.79,4.49 -3.11,8.87 -3.5,2.43 2.69,3.51 -0.41,3.24 2.21,0.73 5.01,0.15 -1.4,-6.05 2.9,1 2.78,9.52 3.02,0.1 0.6,2.33 -3.05,0.81 1.89,2.97 -0.3,5.26 -3.66,0.05 0.84,4.01 -3.06,-2.06 -3.82,3.54 -7.76,-0.67 0.38,13.23 -12.86,3.13 5.69,11.16 1.28,9.21 -0.37,3.13 -5.95,1.84 -1.56,2.91 v 0 l -3.44,2.32 -4.18,-1.82 -5.29,3.09 -5.68,-3.97 -3.07,-0.12 -1.07,2.2 -7.3,-5.48 -13.63,5.18 -4.22,4.91 -4.34,-1.96 -7.66,12.31 h -3.85 l -1.04,-1.99 -14.85,4.44 v 0 l -6.42,-5.33 -5.13,1.67 -0.35,-5.69 -3.29,-2.43 2.81,-10.26 2.44,-2.25 -3.2,-0.07 -5.23,-3.86 2.02,-4.12 -0.12,-6.34 -2.49,-1.55 -1.04,2.52 -1.64,0.64 -0.76,-1.71 -1.109997,1.56 -6.510009,-3.29 -2.19,2.84 -2.75,-0.73 1.52,-5.07 -2.06,-0.52 0.63,-2.49 -4.37,-3.47 -1.04,-3.56 -3.96,5.01 -6.29,-3.96 2.4,-6.27 1.67,1.05 -0.22,-4.59 6.5,-2.97 1.45,-5.49 3.63,-1.02 -6.45,-4.14 -0.67,-2.38 2.38,-0.07 -1.18,-7.81 3.37,-7.56 -4.72,-2.05 1.59,-3.81 10.11,1.55 7.870006,-18 3.07,0.67 2.82,-7.39 12.3,3.04 -1.55,-8.61 11.38,4.81 6.16,-21.03 6.38,1.15 0.18,-3.54 -3.42,-3.5 0.38,-5.5 -3.06,-4.66 1.05,-11.43 -6.12,-0.61 0.57,-8.03 5.19,-0.79 v -5.06 0 l 2.87,-8.91 2.5,-0.29 0.3,-2.12 4.2,1.61 z"
      />
  <path
     id="LT-UT"
     title="Utena"
     class="land"
     d="m 694.61765,235.69134 5.07,2.35 5.29,6.63 0.36,6.19 5.08,10.77 5.72,5.45 4.97,0.5 4.49,8.78 10.78,-0.12 3.81,4.33 5.45,2.34 12.98,-0.66 0.02,5.82 1.89,0.26 0.91,6.37 -2.33,3.95 1.31,8.59 -4.3,2 -3.98,6.55 -5.12,2.36 -2.29,4.38 2.1,5.79 3.18,2.87 -3.11,4.56 1.91,2.71 -2.21,-0.26 2.35,6.91 -1.41,1.19 0.75,4.3 -3.06,0.07 -3.89,4.32 -3.48,0.07 -0.73,3.19 -3.64,1.83 13.54,4.31 2.49,2.44 2.78,-1.59 3.08,1.64 2.9,-3.66 0.54,3.05 4.5,-4.15 7.12,4.05 12.56,1.53 2.97,4.19 -0.62,4.45 -11.79,6.2 v 0 l 2.21,-2.43 -12.24,0.46 0.08,3.05 -1.87,0.32 0.2,-2.66 -3.67,-0.21 0.35,1.47 -2.2,0.21 1.74,1.92 -3.67,4.42 -6.32,1.8 -2.78,-1.38 -2.07,2.52 -7.99,-1.54 -1.37,2.52 -9.66,-3.95 -13.27,-1.19 -2.08,2.29 -3.96,-5.91 -1.31,2.08 -3.04,-1.12 -2.62,4.3 -3.45,-0.73 4.16,-6.19 -4.41,-2.27 -0.31,-5.43 -4.36,-1.97 -1.93,1.9 -5.26,-2.37 -0.26,-3.02 0.45,3.98 -1.87,-3.32 -3.46,4.77 3.02,-0.3 -1.76,2.46 -4.43,-0.14 -0.72,1.61 -3.62,-1.96 -2.11,1.35 -1.82,-3.72 -3.81,3.42 -5.38,-6.44 -4.75,1.05 1.91,1.95 -3.67,3.21 -6.19,-9.93 -6.21,4.73 1.3,0.44 -2.41,1.81 -0.84,5.99 -3.78,-2.32 3.42,7.49 -5.03,-0.24 -1.49,5.87 1.83,0.07 -3.09,4.56 1.02,2.89 7.03,3.06 0.08,5.63 11.98,8.02 -2.6,0.16 -0.66,2.24 -1.55,-1.63 -2.2,2.54 2.31,1.12 -0.5,2.3 -1.01,-1.23 -3.14,1.58 0.89,2.54 2.46,-1.72 -2.76,6.21 3.56,2.94 -6.53,0.9 -1.23,-2.77 -4.96,1.21 -0.08,-3.25 -5.11,-2.52 -3.25,1.75 -3.54,-1.63 -0.36,3.7 -2.52,-1.91 -2.84,0.82 -1.19,4.02 -17.48,0.49 -1.79,1.56 -5.85,-0.77 -2.96,-2.88 -12.86,0.83 2.23,-3.95 -1.99,-6.87 -7.32,-2.05 -1.29,1.37 -1.2,-4.84 3.31,-5.88 -0.97,-3.43 8.4,-2.89 0.76,-5.89 4.41,-0.18 -5.34,-1.29 -2.11,-4.7 -4.83,1.76 -2.66,-2.92 3.4,-4.66 1.17,-6.29 -4.5,0.96 -1.58,2.55 -5.74,-3.42 0.52,-3.2 -3.35,-2.95 -0.77,-4.15 -12.26,-0.3 -1.85,-10.9 -8.72,3.82 -1.66,-0.54 1.06,-3.26 -7.43,0.87 -7.55,-4.18 0.49,-7.37 -1.55,-1.03 1.73,-3.83 2.76,1.9 1.51,-5.59 -5.73,-2.54 -2.19,-7.69 -3.1,1.22 -2.9,-6.26 -9.3,1.04 0.11,-4.52 v 0 l 2.35,-7 -1.09,-2.17 2.1,-1.55 -1.57,-4.08 1.47,-4.16 6.58,-2.21 -1.75,-7.84 -2.63,-1.92 -5.26,1.51 -0.06,-4.39 6.96,-1.59 -0.94,1.68 3.6,1.89 3.76,-3.64 -5.59,-3.24 2.29,-9.15 2.94,2.81 5.14,0.17 5.53,-3.05 2.37,3.95 2.74,0.47 0.44,-3.64 8.02,0.59 6.32,-4.38 11.5,5.28 4.77,-0.5 -1.98,2.91 1.89,4.85 19.24,-8.07 3.15,-0.38 4.37,4.33 1.13,-2.93 -1.82,-0.73 -0.34,-4.19 4.87,-0.52 4.34,-6.07 3.13,-0.76 10.45,7.99 1.36,-2.7 3.58,1.25 -0.84,2.37 3.55,1.77 1.81,-0.07 1.11,-2.81 5.25,1.82 2.19,-5.21 1.99,2.39 4.48,0.31 4.05,-2.27 1.75,4.71 5.43,-4.29 0.26,-8.34 5.06,-0.95 7.26,2.61 2.18,-15.28 2.94,1.47 5.34,-1.04 -0.55,-8.98 9.41,-1.88 1.66,-5.96 -2.69,-3.74 0.28,-2.93 4.18,-4.5 6.73,-1.21 v 0 l 6.61,13.47 3.75,4.66 z"
      />
  <path
     id="LT-VL"
     title="Vilnius"
     class="land"
     d="m 605.38765,608.03134 -1.63,-1.71 3.66,-0.53 z m -111.37,-288.09 -0.11,4.52 9.3,-1.04 2.9,6.26 3.1,-1.22 2.19,7.69 5.73,2.54 -1.51,5.59 -2.77,-1.9 -1.72,3.83 1.55,1.03 -0.49,7.37 7.55,4.18 7.43,-0.87 -1.06,3.26 1.66,0.54 8.72,-3.82 1.84,10.9 12.27,0.3 0.76,4.15 3.35,2.95 -0.52,3.21 5.75,3.42 1.58,-2.55 4.5,-0.96 -1.18,6.29 -3.39,4.65 2.66,2.92 4.82,-1.75 2.11,4.7 5.34,1.28 -4.41,0.19 -0.76,5.88 -8.41,2.89 0.98,3.43 -3.31,5.88 1.2,4.85 1.28,-1.38 7.32,2.05 1.99,6.87 -2.23,3.96 12.87,-0.84 2.95,2.88 5.85,0.77 1.79,-1.56 17.48,-0.49 1.19,-4.03 2.85,-0.81 2.51,1.91 0.36,-3.7 3.54,1.63 3.25,-1.75 5.12,2.51 0.08,3.26 4.96,-1.21 1.23,2.77 6.53,-0.91 -3.57,-2.93 2.77,-6.22 -2.46,1.72 -0.9,-2.54 3.14,-1.58 1.02,1.24 0.5,-2.31 -2.31,-1.12 2.21,-2.54 1.55,1.63 0.66,-2.24 2.61,-0.16 -11.99,-8.02 -0.08,-5.62 -7.03,-3.06 -1.02,-2.9 3.09,-4.56 -1.83,-0.07 1.5,-5.87 5.02,0.23 -3.42,-7.49 3.78,2.32 0.84,-5.99 2.41,-1.8 -1.3,-0.44 6.21,-4.73 6.19,9.93 3.67,-3.21 -1.91,-1.94 4.74,-1.05 5.39,6.44 3.81,-3.42 1.82,3.72 2.11,-1.36 3.62,1.97 0.72,-1.61 4.42,0.14 1.76,-2.46 -3.02,0.3 3.46,-4.78 1.87,3.33 -0.45,-3.98 0.27,3.02 5.25,2.37 1.94,-1.9 4.36,1.97 0.31,5.43 4.41,2.27 -4.16,6.2 3.45,0.72 2.62,-4.3 3.05,1.12 1.31,-2.08 3.96,5.92 2.08,-2.29 13.27,1.19 9.66,3.95 1.36,-2.52 7.99,1.54 2.07,-2.52 2.78,1.38 6.32,-1.8 3.67,-4.42 -1.74,-1.92 2.19,-0.21 -0.35,-1.47 3.67,0.21 -0.2,2.67 1.87,-0.33 -0.08,-3.04 12.24,-0.47 -2.22,2.43 v 0 l -2.07,3.02 0.32,5.45 -3.34,3.58 -1.4,-1.19 -2.35,1.64 1.47,4.88 2.18,1.17 -1.2,1.66 -2.14,-0.82 -0.75,2.78 -2.65,-0.98 -4.32,3.24 -4.98,-1.49 -5.67,2.38 -3.5,-3.85 -4.78,2.78 -2.39,4.36 -6.39,-2.64 -2.06,1.7 -0.84,-2.12 -4.72,-1.73 -4.36,1.14 0.36,2.17 -3.39,0.47 1.24,1.05 -1.28,1.03 -9.54,3.89 5.25,7.39 -3.63,2.31 -4.78,16.03 -3.03,2.07 -8.4,0.51 -1.52,3.81 -4.12,0.53 0.37,3.37 -3.59,1.28 1.24,1.49 -8.74,-1.53 -2.1,-2.18 -7.12,4.92 -9.35,1.86 -1.07,7.4 -9.51,9.59 -0.77,7.22 -2.99,-0.02 -1.01,1.8 -1.18,3.72 1.52,17.84 -1.92,9.62 3.86,24.04 -1.36,2.92 -9.27,6.6 -5.87,14.99 -4.4,2.43 2.99,0.64 0.31,7.84 -3.31,5.7 -1.74,-1.17 -0.16,6.11 -3.71,2.54 -1.06,4.9 -2.55,0.3 -0.21,2.08 1.99,0.34 0.35,3.91 4.85,-1.78 1.43,2.01 2.65,0.8 1.76,-1.69 1.39,1.44 5.55,-2.47 3.41,5.44 -1.02,4.5 6.45,1.71 2.04,6.5 3.85,0.84 -6.47,4.49 3.75,3.72 0.59,7.88 2.23,0.43 0.05,1.75 -3.96,-0.77 -1.36,-2.19 -0.09,2.46 -2.34,1.16 -4.3,-2.96 -0.23,2.64 -2.33,0.02 -0.2,3.73 -5.83,2.69 -1.88,-3.46 -9.83,-0.89 -2.57,-1.91 -3.19,-4.35 0.59,-2.37 6.25,-2.6 0.05,-3.92 -2.49,-3.63 6.16,0.55 -4.46,-8.88 0.91,-1.62 -5.92,-2.35 -0.35,-5.23 -2.19,-0.94 -4.28,4.64 -6.03,-1.74 -1.76,3.61 -7.47,4.18 -6.07,-0.82 -0.63,1.37 -4.69,-2.65 -2.21,4.86 -2.46,-2.6 -1.54,0.94 -2.66,5.04 0.17,3.83 -17.25,19.54 -10.7,-1.89 -1.9,-5.01 -2.85,-1.59 -11.81,5.67 -5.06,-0.32 v 0 l -2.78,-9.91 -8.39,-3.69 0.29,-4.83 7.2,-1.82 -0.31,-3.58 1.79,0.62 0.35,-1.69 3.59,0.18 1.92,-4.22 3.13,-0.32 -1.96,-2.21 1.46,-2.08 6.63,-0.46 -2.82,-14.22 2.36,-0.69 -0.33,-2.59 9.46,-1.83 -0.35,-2.77 3.02,-0.73 0.2,-9.21 -13.16,3.48 -1.58,3.55 -0.57,-1.9 -7.42,0.98 -0.56,3.3 -13.67,-0.07 -1,-1.33 -2.46,3.82 -1.54,-4.65 1.24,-4.67 -6.6,-4.54 -2.89,1.56 -3.01,-1.05 -1.22,2.57 -3.59,0.21 -1.11,5.45 -4.22,-1.26 0.04,-2.15 -11.75,1.19 -2.15,-2.89 -2.19,0.71 2.61,-7.06 -5.65,-3.99 3.58,-1.7 -1.87,-4.06 0.31,-6.89 v 0 l 1.42,-14.81 1.71,1.31 4.05,-4.05 2.04,0.44 -1.54,-5.2 -2.57,0.02 2.93,-1.87 -2.22,-10.19 2.79,-4.29 3.92,-0.81 5.37,2.56 1.63,-6.28 4.44,3.83 4.33,-0.46 0.86,-10.37 1.86,-0.35 -1.86,-4.14 1.67,-6.96 5.64,-3.7 5.56,-0.72 0.21,-1.57 1.51,1.37 1.04,-1.76 2.18,0.56 -1.74,-12.67 3.94,-2.29 2.66,1.02 1.43,-4.27 -8.23,-6.7 v 0 h -2.58 v 0 l -5.35,1 -1.54,-4.39 -5.32,-2.32 -2.49,-4.11 -5.3,0.07 -3.66,-3.95 1.74,-3.81 3.57,-1.3 -0.67,-3.63 5.49,-0.93 -0.2,-2.84 2.5,-1.42 -1.82,-0.47 -2.14,-5.26 -3.05,-0.16 -1.26,-8.55 -2.86,0.61 -2.33,-2.77 -2.54,-5.15 2.62,-2.82 -5.67,-2.08 -2.53,-9.01 3.17,-4.16 -12.23,-3.16 2.08,-10.9 -1.08,-2.53 -4.34,-0.4 1.95,-13.69 1.96,-1.2 0.31,-3.24 2.89,-1.17 0.27,-5.42 v 0 l 5.85,0.47 -0.44,-2.37 4.38,-2.49 -1.04,-3.17 2.62,-1.27 0.4,-4.77 7.68,2.45 6.13,-2.7 1.32,-3.36 -3.47,-8.75 z"
      />
  <g
     id="stadiums"
     data-country="lithuania"
     data-circle-radius="6"
     data-circle-colors="#a149be,#bea149" />
</svg>
