<?xml version="1.0" encoding="UTF-8" standalone="no"?>
<?xml-stylesheet type="text/css" href="/styles/home.css"?>
<!-- https://www.amcharts.com/svg-maps -->

<svg version="1.1" xmlns="http://www.w3.org/2000/svg" id="map-luxembourg"
   viewBox="0 0 553.11145 792.5556">
    <defs
       id="defs4">
      <style
         id="style2"
         type="text/css">
			.land
			{
				fill: #CCCCCC;
				fill-opacity: 1;
				stroke:white;
				stroke-opacity: 1;
				stroke-width:0.5;
			}
		</style>
      <!-- <amcharts:ammap projection="mercator" leftLongitude="5.736110" topLatitude="50.183529" rightLongitude="6.529993" bottomLatitude="49.447341"></amcharts:ammap> -->
      <!-- All areas are listed in the line below. You can use this list in your script. -->
      <!--{id:"LU-D"},{id:"LU-G"},{id:"LU-L"}-->
  </defs>
  <path
     id="LU-D"
     title="Diekirch"
     class="land"
     d="m 204.39601,8.5740042 2.02,13.0099998 17.13,10.29 5.36,1.73 2.09,-0.65 3.96,-3.57 5.36,0.54 1.19,-5.64 -0.91,-9.97 1.33,-0.86 2.43,-0.22 6.82,2.93 5.64,-1.96 11.14,8.68 -3.97,7.91 7.94,7.04 -3.2,1.52 -3.83,3.9 -2.02,7.58 0.42,1.19 h 5.22 l 3.27,1.84 4.94,5.09 3.55,-0.43 -1.74,6.06 -4.38,2.28 -1.67,5.84 0.69,2.93 2.37,-0.65 3.76,0.86 0.21,1.84 -2.79,5.2 2.93,2.82 0.14,1.4 -1.46,1.95 -4.95,0.65 0.56,4.33 4.18,2.38 -0.14,2.38 -2.3,1.729996 -3.69,-1.299996 -2.64,0.33 -0.84,5.949996 1.46,2.49 0.21,4.22 -2.85,1.08 -3,4.87 1.4,3.46 2.99,0.32 1.74,-2.38 -1.81,-1.08 0.28,-1.51 1.32,-1.73 h 1.25 l 3.41,2.59 0.56,2.49 -5.64,5.09 -0.48,4 -4.6,-2.38 -1.74,0.75 -1.53,6.71 1.6,3.78 1.53,0.44 2.23,-1.19 1.04,-4.22 2.44,-0.22 1.6,1.3 -0.14,2.92 -2.09,4.98 9.12,12.43 0.07,2.92 -2.57,8.86 8.07,4.86 2.58,2.7 -0.21,2.92 -6.2,7.56 3.28,2.38 h 3.48 l 1.67,0.97 0.97,0.87 0.14,3.35 -4.66,8.75 -3.9,-1.73 -0.56,3.24 2.3,2.27 5.08,0.43 2.58,5.4 2.29,2.48 5.36,0.11 3.14,1.4 -2.93,10.26 -0.07,6.69 3.07,7.34 4.24,1.62 0.84,7.44 1.53,2.49 1.74,0.32 4.04,-1.51 1.46,-1.94 -2.99,-3.35 -1.61,-5.83 3.21,-4.42 2.78,-0.22 0.98,1.08 -0.07,3.46 1.46,3.67 -0.28,4.96 3.48,8.63 2.16,-5.5 2.65,-2.05 2.22,1.08 2.09,4.42 h 7.59 v 1.4 l -3.76,5.07 3.2,2.49 3.55,4.96 -2.08,2.69 1.25,6.37 -5.57,3.88 v 1.51 l 1.25,1.83 7.03,1.73 0.91,1.62 1.67,7.11 -1.6,1.73 -2.58,0.21 1.95,2.91 2.3,8.63 4.94,3.34 4.32,0.64 2.65,6.04 4.8,5.06 2.02,5.17 9.47,4.64 3.62,-2.16 1.6,0.11 2.64,3.45 3.83,0.75 0.77,5.06 3.34,3.77 1.53,0.11 5.43,-3.66 3.48,0.86 1.39,3.56 0.14,6.13 v 0 l -5.5,2.8 1.81,3.13 0.84,7.53 -4.94,0.86 -4.53,-2.58 -7.73,1.94 -11.28,-2.37 -4.94,4.63 2.09,3.23 3.55,0.86 -11.35,12.06 0.56,5.05 0.63,1.83 9.67,3.02 -0.41,3.33 -0.21,1.29 -3.27,1.51 -0.07,4.95 -7.66,-0.11 4.17,8.28 -3.34,3.77 -6.26,3.44 -0.42,3.23 3.69,3.97 1.18,3.45 -2.36,0.96 v 0 l -1.88,-3.33 -2.09,2.69 -4.04,-1.29 -0.91,-5.7 -1.18,-1.83 -0.56,0.54 -1.11,-3.12 -6.61,2.8 -0.49,2.79 -1.25,-0.11 -1.12,2.05 -6.05,-4.2 -1.74,-3.98 -5.71,-2.47 0.14,-2.04 -3.7,-2.48 -1.73,0.54 0.76,-1.29 -1.53,-0.32 -0.56,-1.72 1.53,-3.45 0.28,-3.65 -2.22,-5.71 -0.28,-4.52 -2.09,-0.64 -8.15,2.58 -7.72,-1.94 -7.94,5.06 -0.56,-6.24 -1.74,-3.12 -1.18,-0.43 -9.4,6.78 -0.98,2.15 -0.55,-0.54 -13.86,9.79 -2.36,-3.87 -7.31,-1.72 v 0 l -0.98,-1.61 0.98,-2.69 v 0 l -1.81,-3.13 -2.51,-0.86 -3.62,0.54 -7.66,-3.23 0.07,-4.52 -6.47,-0.96 -0.28,-2.27 0.9,-1.18 -0.9,-0.86 -1.74,4.74 -7.45,3.98 0.49,1.18 -1.4,0.97 -3.2,-2.26 -1.74,-0.11 -1.39,0.76 0.28,3.12 -1.88,0.32 -3.9,3.12 -2.79,7.32 -0.14,2.9 1.81,1.18 -0.34,1.51 5.71,4.3 -3,0.22 -10.16,5.38 0.83,1.93 -4.03,1.4 -0.21,4.62 -1.6,1.08 0.62,3.44 -5.64,-0.21 -4.45,3.65 -0.7,2.26 2.37,5.05 -1.32,1.83 2.85,1.07 -0.42,1.72 -4.66,1.72 0.55,1.51 1.4,0.43 -1.26,2.04 1.88,5.81 -3.13,1.5 -1.32,3.76 -3.2,2.47 -0.56,2.26 0.97,2.9 -2.57,2.15 1.67,0.86 1.95,3.01 -2.09,1.61 0.9,1.61 3.35,-1.18 0.9,1.61 1.81,-1.93 2.72,4.83 3.41,1.72 -3.9,2.79 2.5,3.01 -0.97,2.79 1.74,1.93 -1.18,0.54 0.35,1.29 -2.09,0.97 1.25,2.47 -8.84,2.9 -1.05,-0.76 v -3.76 l -4.87,1.19 -3.9,2.47 -3.55,0.1 -1.46,-1.71 -0.56,2.14 -10.44,7.09 -2.23,3.01 -0.21,1.93 -3.13,0.21 -3.97,3.76 -6.54,3.22 -5.43,0.54 -6.55,-1.61 -3.13,-4.3 0.77,-4.72 -0.91,-1.07 -6.06,1.07 0.35,-1.4 -2.22,-0.53 -8.57,3.86 v 0 l -3.13,-4.72 -3.829997,-3.54 1.04,-1.4 -0.2,-3.01 h -3.83 l -1.6,-3.33 -3.97,-2.04 -3.69,-0.1 -8.91,5.04 -4.04,-0.32 -2.58,-1.83 -5.92,1.19 -0.97,-9.02 1.53,-2.47 -0.14,-5.81 2.51,-2.47 -0.14,-6.76 -1.53,-2.26 -3.97,-0.32 -3.2,-4.73 -1.74,-7.09 -3.9,-5.27 -1.81,-8.38 -1.53,-2.8 -3.21,-2.26 -1.53,-5.26 -3.48,-3.23 -0.14,-4.41 -2.99,-5.7 -1.88,-0.86 -1.18,0.54 -2.3,3.01 -4.6,-1.83 -1.81,1.29 -11.83,2.48 -3.6900001,-17.43 0.5600001,-6.56 -2.5800001,-2.47 -1.53,-3.98 3.06,-3.66 0.14,-1.51 -2.71,-7.43 -2.37,-2.69 -0.49,-2.9 1.32,-2.05 3.83,0.33 1.4600001,-0.87 -1.1100001,-5.38 0.63,-3.12 3.3400001,1.61 2.85,-2.47 -0.07,-2.69 -2.02,-2.48 -5.3600001,-0.54 -0.41,-0.97 5.3600001,-2.37 2.85,0.11 1.25,-1.51 -3.55,-4.95 1.05,-5.06 -2.44,-3.23 1.25,-3.45 1.4,-0.21 2.85,3.33 2.09,0.76 4.11,-3.56 1.81,4.85 1.25,0.32 2.09,-4.95 4.39,-0.86 -0.28,-1.29 -3.21,-2.37 2.65,0.86 0.97,-3.88 -4.66,-6.03 -3.2,-0.76 -1.6,-2.05 -3.76,-1.83 -5.71,-1.08 -6.3400001,-3.12 -2.99,-2.91 -4.93999999,-1.62 -0.7,-2.58 3.33999999,-3.88 -0.21,-1.08 2.65,-1.19 2.71,-4.74 10.5900001,-7.65 -0.42,-6.91 1.18,-0.86 -0.56,-1.4 1.05,-6.79 3.48,-0.87 0.77,-4.96 2.71,-2.26 -2.99,-10.68 2.5,-4.64 -0.48,-4.32 1.67,-1.29 0.14,-3.03 2.99,-1.72 2.78,1.72 3.9,-0.97 0.63,-2.26 3.9,-2.49 2.57,2.59 4.74,0.44 2.3,-2.16 -0.49,-2.48 1.53,-4.43 5.78,-0.65 2.99,-3.34 5.15,-1.52 3.76,-4.42 1.19,-2.7 0.34,-6.37 -1.67,-2.16 -3.83,0.43 -1.74,-3.35 -4.03,-3.56 -1.74,-6.91 0.48,-2.92 -1.11,-6.81 2.09,-1.62 3.9,-0.21 3.82,-4 5.5,-0.32 7.39,-4.65 -0.35,-3.24 1.53,-2.06 4.45,-1.51 -1.88,-8 3.9,-3.24 -0.07,-2.27 3.07,-2.16 1.81,-3.68 -2.79,-5.83 -1.88,-1.95 -3.55,-0.65 -2.37,-4.87 3.83,-10.16 4.39,-2.49 2.02,-3.03 7.379997,-2.81 1.39,0.97 4.04,-2.81 0.56,-5.95 -0.98,-6.49 5.78,-12.449996 1.32,-12.01 3.55,-4.12 7.52,-5.2 3.27,-0.64 8.15,-4.88 21.86,-6.39 -1.19,-8.34 1.81,-3.79 -1.32,-8.88 5.01,-3.79 -2.22,-6.51 -1.05,-0.65 1.4,-3.68 0.48,-7.81 4.18,-3.6799998 19.77,-0.65 16.85,-8.35"
     style="fill:#cccccc;fill-opacity:1;stroke:#ffffff;stroke-width:0.5;stroke-opacity:1" />
  <path
     id="LU-G"
     title="Grevenmacher"
     class="land"
     d="m 408.09601,363.784 -1.18,6.78 1.6,2.58 4.11,2.16 2.99,-0.86 3.41,-2.8 1.26,-7.75 1.74,-2.16 8.77,-1.93 5.15,-0.11 2.58,0.97 5.01,7.64 14.9,18.08 2.44,4.74 10.3,4.52 8.98,1.5 1.18,3.88 2.3,1.72 1.53,0.11 6.2,-3.66 1.25,2.26 1.39,0.53 h 6.2 l 5.85,-6.88 6.12,-5.17 5.36,3.55 3.69,5.71 3.28,2.26 5.36,0.21 6.4,3.23 2.99,6.78 1.47,0.86 1.81,-1.08 1.53,-2.69 1.46,-7.64 2.85,-0.21 2.65,1.83 1.81,6.34 -7.52,9.58 -8.91,5.59 1.25,3.87 6.27,4.3 0.14,1.29 -3.69,5.91 -0.42,3.01 4.11,5.59 0.69,6.13 -1.11,2.9 -10.09,7.09 -1.05,4.52 1.39,4.62 0.07,13.85 9.68,7.74 0.14,1.93 -1.88,1.72 -2.37,0.11 -5.78,-5.91 -3.96,0.11 -0.77,3.75 7.73,7.09 v 2.69 l -6.82,4.93 -12.33,14.6 -13.29,4.73 -7.66,13.41 -3.2,3.54 -9.89,7.51 -2.71,5.36 0.27,2.15 0.84,1.5 h 6.26 l 2.65,2.36 0.21,3.11 -8.29,20.8 -5.63,17.68 -7.8,7.61 -6.48,9.96 -6.05,2.78 -3.21,0.22 -7.31,7.18 -1.32,2.67 0.21,5.14 1.25,2.57 2.65,2.14 0.9,3.64 -0.55,1.08 -2.51,0.74 -4.04,-2.67 -2.92,0.43 -3.97,2.24 -2.99,4.07 -0.07,2.25 2.5,3.21 13.02,9.63 1.53,2.36 -2.57,7.49 -8.08,10.48 -3.48,2.68 -3.83,7.38 7.31,25.88 0.14,13.89 1.32,4.71 -1.25,19.34 0.56,10.78 -3.34,0.64 -7.52,-7.36 -4.18,0.96 -3.13,-2.67 -5.22,1.38 -9.4,-10.25 -4.6,-0.86 -0.48,-1.49 -5.78,2.14 -5.43,-3.1 -1.26,-2.35 2.86,-5.45 -1.18,-0.86 -3.97,0.96 -0.91,2.89 -1.46,-0.11 -3.06,-6.73 0.21,-0.96 2.57,0.64 0.63,-2.78 -1.39,-0.53 -2.65,1.17 -2.51,-1.39 -0.76,-8.87 -4.39,-1.18 -6.82,0.32 -0.7,-2.56 -2.71,-1.6 -0.49,-3.21 -1.88,-0.11 -4.25,2.25 -5.77,-5.78 v 0 l -0.35,-2.24 -2.51,-1.39 -0.69,-2.36 2.71,-5.45 -2.85,-3.64 3.13,-2.56 -2.58,-3.43 -2.15,-0.96 -1.33,-3.42 h -1.53 l 0.49,-2.68 -1.05,-0.64 0.7,-1.92 -0.84,-0.86 1.33,-1.39 -0.63,-0.86 -1.11,0.75 -1.39,-2.35 0.62,-0.32 -4.32,-5.57 -0.48,-2.46 5.08,-2.78 2.58,4.5 2.08,-0.97 0.84,0.86 0.84,-0.97 -3.49,-4.49 1.26,-2.68 -0.84,-1.71 1.46,-2.89 -1.81,-5.99 5.09,0.53 2.5,3.11 7.73,-0.64 3.69,-2.15 v 0 l -1.95,-2.14 0.21,-3.1 v 0 l 1.74,-3.64 4.8,-0.22 v -1.17 l 1.47,-0.11 0.48,-4.28 1.46,-1.18 10.1,-2.14 h 6.4 l 5.5,4.17 0.98,-1.71 -0.98,-6.64 -3.41,-5.14 -1.11,-3.86 -3.27,-0.32 -1.26,-2.46 -2.29,-1.07 -6.97,1.82 -0.69,-0.75 2.23,-3.86 21.37,-24.53 -0.14,-3.76 -0.77,-1.6 -2.15,-1.18 -0.91,-3.11 -4.87,0.64 -0.07,-1.93 -1.81,0.11 -1.88,-2.68 -0.91,-9.65 -4.66,-3 -0.35,-6.11 -0.91,-0.33 3.49,-0.75 0.55,-6.22 -4.52,0.33 -0.77,-4.62 0.49,-7.72 -0.77,-1.61 -3.89,3 -0.84,-2.68 -1.04,-0.1 -1.19,1.5 -2.09,-8.37 -5.36,-2.47 -3.83,1.82 -2.15,-1.18 -7.45,2.37 -1.54,-0.11 -1.25,-1.83 -3.34,0.22 -0.84,-0.75 -2.5,1.93 -0.7,-1.61 -5.29,0.32 -2.02,-4.4 -10.58,1.07 -0.77,1.72 1.26,1.72 -3.48,2.68 -1.54,-1.61 -6.33,-1.07 -2.02,1.29 0.56,-3.01 -6.27,0.97 -2.02,-1.18 3.76,-2.69 2.09,-0.75 0.77,0.86 2.29,-1.39 1.61,-2.79 -2.44,-2.69 3.13,-2.79 0.91,-6.01 1.6,-2.36 -1.12,-1.93 0.91,-5.26 -1.53,-2.36 7.86,-5.37 4.6,-1.61 -0.35,-1.72 3.83,-0.97 -1.6,-2.9 6.06,-2.47 -0.28,-0.97 3.9,-3.65 2.43,-4.4 3.2,-12.46 9.19,2.9 6.69,0.97 7.31,-0.33 1.88,0.86 0.9,-2.68 4.88,-5.91 0.41,-4.95 2.51,-1.61 1.74,-3.76 -2.23,-0.54 -0.55,-1.5 3.48,-3.44 -0.07,-1.18 -2.09,0.1 -0.98,-1.72 -4.17,1.62 -1.88,-0.33 0.07,-0.75 -2.16,0.54 -1.6,-8.06 1.39,-0.32 -0.56,-2.26 -3.2,1.5 -2.58,-0.97 -2.15,1.94 -2.79,-4.3 -2.16,0.75 -1.04,-2.15 -3.55,0.86 -0.28,-1.18 8.01,-3.23 v 0 l 2.36,-0.96 -1.18,-3.45 -3.69,-3.97 0.42,-3.23 6.26,-3.44 3.34,-3.77 -4.17,-8.28 7.66,0.11 0.07,-4.95 3.27,-1.51 0.21,-1.29 0.41,-3.33 -9.67,-3.02 -0.63,-1.83 -0.56,-5.05 11.35,-12.06 -3.55,-0.86 -2.09,-3.23 4.94,-4.63 11.28,2.37 7.73,-1.94 4.53,2.58 4.94,-0.86 -0.84,-7.53 -1.81,-3.13 5.5,-2.8 v 0"
     style="fill:#cccccc;fill-opacity:1;stroke:#ffffff;stroke-width:0.5;stroke-opacity:1" />
  <path
     id="LU-L"
     title="Luxembourg"
     class="land"
     d="m 103.93601,512.034 8.57,-3.86 2.22,0.53 -0.35,1.4 6.06,-1.07 0.91,1.07 -0.77,4.72 3.13,4.3 6.55,1.61 5.43,-0.54 6.54,-3.22 3.97,-3.76 3.13,-0.21 0.21,-1.93 2.23,-3.01 10.44,-7.09 0.56,-2.14 1.46,1.71 3.55,-0.1 3.9,-2.47 4.87,-1.19 v 3.76 l 1.05,0.76 8.84,-2.9 -1.25,-2.47 2.09,-0.97 -0.35,-1.29 1.18,-0.54 -1.74,-1.93 0.97,-2.79 -2.5,-3.01 3.9,-2.79 -3.41,-1.72 -2.72,-4.83 -1.81,1.93 -0.9,-1.61 -3.35,1.18 -0.9,-1.61 2.09,-1.61 -1.95,-3.01 -1.67,-0.86 2.57,-2.15 -0.97,-2.9 0.56,-2.26 3.2,-2.47 1.32,-3.76 3.13,-1.5 -1.88,-5.81 1.26,-2.04 -1.4,-0.43 -0.55,-1.51 4.66,-1.72 0.42,-1.72 -2.85,-1.07 1.32,-1.83 -2.37,-5.05 0.7,-2.26 4.45,-3.65 5.64,0.21 -0.62,-3.44 1.6,-1.08 0.21,-4.62 4.03,-1.4 -0.83,-1.93 10.16,-5.38 3,-0.22 -5.71,-4.3 0.34,-1.51 -1.81,-1.18 0.14,-2.9 2.79,-7.32 3.9,-3.12 1.88,-0.32 -0.28,-3.12 1.39,-0.76 1.74,0.11 3.2,2.26 1.4,-0.97 -0.49,-1.18 7.45,-3.98 1.74,-4.74 0.9,0.86 -0.9,1.18 0.28,2.27 6.47,0.96 -0.07,4.52 7.66,3.23 3.62,-0.54 2.51,0.86 1.81,3.13 v 0 l -0.98,2.25 0.98,2.05 v 0 l 7.31,1.72 2.36,3.87 13.86,-9.79 0.55,0.54 0.98,-2.15 9.4,-6.78 1.18,0.43 1.74,3.12 0.56,6.24 7.94,-5.06 7.72,1.94 8.15,-2.58 2.09,0.64 0.28,4.52 2.22,5.71 -0.28,3.65 -1.53,3.45 0.56,1.72 1.53,0.32 -0.76,1.29 1.73,-0.54 3.7,2.48 -0.14,2.04 5.71,2.47 1.74,3.98 6.05,4.2 1.12,-2.05 1.25,0.11 0.49,-2.79 6.61,-2.8 1.11,3.12 0.56,-0.54 1.18,1.83 0.91,5.7 4.04,1.29 2.09,-2.69 1.88,3.33 v 0 l -8.01,3.23 0.28,1.18 3.55,-0.86 1.04,2.15 2.16,-0.75 2.79,4.3 2.15,-1.94 2.58,0.97 3.2,-1.5 0.56,2.26 -1.39,0.32 1.6,8.06 2.16,-0.54 -0.07,0.75 1.88,0.33 4.17,-1.62 0.98,1.72 2.09,-0.1 0.07,1.18 -3.48,3.44 0.55,1.5 2.23,0.54 -1.74,3.76 -2.51,1.61 -0.41,4.95 -4.88,5.91 -0.9,2.68 -1.88,-0.86 -7.31,0.33 -6.69,-0.97 -9.19,-2.9 -3.2,12.46 -2.43,4.4 -3.9,3.65 0.28,0.97 -6.06,2.47 1.6,2.9 -3.83,0.97 0.35,1.72 -4.6,1.61 -7.86,5.37 1.53,2.36 -0.91,5.26 1.12,1.93 -1.6,2.36 -0.91,6.01 -3.13,2.79 2.44,2.69 -1.61,2.79 -2.29,1.39 -0.77,-0.86 -2.09,0.75 -3.76,2.69 2.02,1.18 6.27,-0.97 -0.56,3.01 2.02,-1.29 6.33,1.07 1.54,1.61 3.48,-2.68 -1.26,-1.72 0.77,-1.72 10.58,-1.07 2.02,4.4 5.29,-0.32 0.7,1.61 2.5,-1.93 0.84,0.75 3.34,-0.22 1.25,1.83 1.54,0.11 7.45,-2.37 2.15,1.18 3.83,-1.82 5.36,2.47 2.09,8.37 1.19,-1.5 1.04,0.1 0.84,2.68 3.89,-3 0.77,1.61 -0.49,7.72 0.77,4.62 4.52,-0.33 -0.55,6.22 -3.49,0.75 0.91,0.33 0.35,6.11 4.66,3 0.91,9.65 1.88,2.68 1.81,-0.11 0.07,1.93 4.87,-0.64 0.91,3.11 2.15,1.18 0.77,1.6 0.14,3.76 -21.37,24.53 -2.23,3.86 0.69,0.75 6.97,-1.82 2.29,1.07 1.26,2.46 3.27,0.32 1.11,3.86 3.41,5.14 0.98,6.64 -0.98,1.71 -5.5,-4.17 h -6.4 l -10.1,2.14 -1.46,1.18 -0.48,4.28 -1.47,0.11 v 1.17 l -4.8,0.22 -1.74,3.64 v 0 l 0.14,3.85 1.6,1.39 v 0 l -3.69,2.15 -7.73,0.64 -2.5,-3.11 -5.09,-0.53 1.81,5.99 -1.46,2.89 0.84,1.71 -1.26,2.68 3.49,4.49 -0.84,0.97 -0.84,-0.86 -2.08,0.97 -2.58,-4.5 -5.08,2.78 0.48,2.46 4.32,5.57 -0.62,0.32 1.39,2.35 1.11,-0.75 0.63,0.86 -1.33,1.39 0.84,0.86 -0.7,1.92 1.05,0.64 -0.49,2.68 h 1.53 l 1.33,3.42 2.15,0.96 2.58,3.43 -3.13,2.56 2.85,3.64 -2.71,5.45 0.69,2.36 2.51,1.39 0.35,2.24 v 0 h -0.98 l -0.9,5.03 -0.98,0.53 -4.04,-1.49 -1.11,1.17 -1.18,-0.96 -4.39,1.5 -2.71,-1.39 -0.42,4.17 -9.19,-0.54 -4.46,1.39 -2.22,-1.71 -3.9,0.43 -2.65,-1.28 -4.52,0.64 -0.84,-3.1 -1.46,0.1 -7.94,5.35 -4.87,0.75 -1.32,3.84 4.31,8.66 -2.57,0.96 -1.47,-2.35 -2.29,2.89 -6.06,4.27 -1.18,-0.1 0.83,-4.6 -6.05,2.03 -4.18,-3.85 -0.77,11.97 -2.43,5.35 -0.35,3.95 -5.99,2.78 -2.44,-2.25 -1.88,0.22 -4.31,3.52 -2.37,6.3 1.74,10.47 -7.52,-1.39 -6.05,-3.95 -0.21,-6.51 -0.91,-1.07 -4.59,0.1 0.41,-1.7 -5.77,1.92 -5.22,-1.5 -1.4,0.32 -3.06,4.7 -6.34,15.38 -5.36,-2.35 -4.52,0.64 -0.63,-0.85 1.05,-2.78 -2.65,-3.31 -10.86,2.99 -3.97,-3.84 -2.57,-0.64 -12.19,6.51 -1.25,-0.64 -0.98,-2.03 0.56,-2.56 1.46,-1.07 3.07,0.75 1.04,-7.05 -3.27,-0.64 -1.11,2.13 -1.54,0.64 -3.34,-5.55 -1.6,-8.33 2.23,-5.34 -0.7,-3.64 -2.99,-2.03 -1.18,-4.06 0.07,-4.17 -1.26,-1.81 -9.26,-0.22 -5.85,-5.23 -5.5,-2.36 -6.61,2.68 -8.7,-3.96 -3.55,0.64 -4.94,3.42 -5.99,1.71 -8.36,-3.1 -4.589997,1.18 -1.39,-1.28 -3.14,0.74 -1.53,-1.06 -4.24,-5.67 -7.18,-4.06 -0.83,-6.2 -4.04,-1.82 -5.43,-5.35 -0.07,-6.2 5.36,-2.67 1.19,-1.5 -3.35,-5.99 -1.74,-6.42 -13.78,5.88 -4.87,-6.09 -0.07,-1.5 4.8,-1.18 5.08,-5.03 1.74,-0.43 1.33,0.86 9.53,-4.28 1.81,-2.78 -0.97,-3.43 0.83,-2.46 3.07,-1.18 2.3,-2.46 3.96,-0.96 1.4,-3.86 5.08,-3.95 1.74,-0.33 0.14,-5.67 -2.16,-0.64 1.46,-3.22 1.39,-0.85 -0.9,-4.29 -2.16,-1.07 -2.44,2.79 h -5.57 l -2.43,-1.07 -1.74,-3.11 -0.98,-6.21 2.09,-3.11 5.15,-2.67 5.43,-4.82 5.57,-2.79 0.7,-4.71 -1.05,-2.79 0.91,-4.93 7.169997,-8.04 -1.74,-4.39 2.58,-3.96 6.96,-1.08 3.06,2.15 3.76,-4.83 -1.67,-2.68 -0.07,-3.11 -1.18,-0.75 -0.49,-7.5 2.3,-3.65 -1.81,-2.89 1.88,-3.43 3.27,-1.83 0.42,-1.18 -2.16,-1.39 -1.95,1.39 -1.6,-0.32 0.62,-3.22 -0.69,-0.53 -2.3,1.39 -1.95,-1.82 -2.37,0.86 -1.6,-2.15 -2.78,1.72 -4.879997,-5.69 h -3.27 l -1.81,-1.61 -3.76,-0.53 -3.06,-5.91 2.64,-13.94 3.49,-5.16 4.52,-3.54"
     style="fill:#cccccc;fill-opacity:1;stroke:#ffffff;stroke-width:0.5;stroke-opacity:1" />
     <g id="stadiums" data-country="luxembourg"></g>
</svg>
