<?xml version="1.0" encoding="UTF-8" standalone="no"?>
<?xml-stylesheet type="text/css" href="/styles/home.css"?>
<!-- https://www.amcharts.com/svg-maps -->

<svg version="1.1" xmlns="http://www.w3.org/2000/svg" id="map-macedonia"
   viewBox="0 0 774.91443 600.50305">
  <defs
     id="defs4">
    <style
       type="text/css"
       id="style2">
			.land
			{
				fill: #f59088;
				fill-opacity: 1;
				stroke:white;
				stroke-opacity: 1;
				stroke-width:0.5;
			}
		</style>
    <!-- <amcharts:ammap projection="mercator" leftLongitude="20.455613" topLatitude="42.338708" rightLongitude="23.006302" bottomLatitude="40.855134"></amcharts:ammap> -->
    <!-- All areas are listed in the line below. You can use this list in your script. -->
    <!--{id:"MK-01"},{id:"MK-02"},{id:"MK-03"},{id:"MK-04"},{id:"MK-05"},{id:"MK-06"},{id:"MK-07"},{id:"MK-08"},{id:"MK-09"},{id:"MK-10"},{id:"MK-11"},{id:"MK-12"},{id:"MK-13"},{id:"MK-14"},{id:"MK-15"},{id:"MK-16"},{id:"MK-17"},{id:"MK-18"},{id:"MK-19"},{id:"MK-20"},{id:"MK-21"},{id:"MK-22"},{id:"MK-23"},{id:"MK-24"},{id:"MK-25"},{id:"MK-26"},{id:"MK-27"},{id:"MK-28"},{id:"MK-29"},{id:"MK-30"},{id:"MK-31"},{id:"MK-32"},{id:"MK-33"},{id:"MK-34"},{id:"MK-35"},{id:"MK-36"},{id:"MK-37"},{id:"MK-38"},{id:"MK-39"},{id:"MK-40"},{id:"MK-41"},{id:"MK-42"},{id:"MK-43"},{id:"MK-44"},{id:"MK-45"},{id:"MK-46"},{id:"MK-47"},{id:"MK-48"},{id:"MK-49"},{id:"MK-50"},{id:"MK-51"},{id:"MK-52"},{id:"MK-53"},{id:"MK-54"},{id:"MK-55"},{id:"MK-56"},{id:"MK-57"},{id:"MK-58"},{id:"MK-59"},{id:"MK-60"},{id:"MK-61"},{id:"MK-62"},{id:"MK-63"},{id:"MK-64"},{id:"MK-65"},{id:"MK-66"},{id:"MK-67"},{id:"MK-68"},{id:"MK-69"},{id:"MK-70"},{id:"MK-71"},{id:"MK-72"},{id:"MK-73"},{id:"MK-74"},{id:"MK-75"},{id:"MK-76"},{id:"MK-77"},{id:"MK-78"},{id:"MK-79"},{id:"MK-80"},{id:"MK-81"},{id:"MK-82"},{id:"MK-83"},{id:"MK-84"},{id:"MK-LKD"},{id:"MK-LKO"}-->
  </defs>
  <path
     d="m 333.81957,167.77147 -5.51,3.73 v 0 l -7.14,-7.34 -10.51,-3.52 -6.76,-7.04 -3.75,-0.5 -2.69,-3.21 v 0 l -0.69,-0.82 1.86,-3.64 v 0 h 1.82 v 0 l 6.46,2.63 10.88,7.55 8.27,4.03 5.25,4.02 z"
     class="land"
     title="Aerodrom"
     id="MK-01" />
  <path
     d="m 329.76957,109.81147 10.26,12.82 6.65,0.46 2.16,-8.87 v 0 h 2.65 l 6.06,3.28 0.34,4.62 v 0 l -13.83,16.18 -5.7,1.06 -6.7,4.75 -2.17,-0.55 v 0 l 0.01,-7.37 3.74,-6.2 -1.09,-9.64 -2.85,-4.23 z"
     class="land"
     title="Aračinovo"
     id="MK-02" />
  <path
     d="m 673.91957,216.79147 0.79,2.11 14.43,1.16 10.03,4.31 v 0 l 4.69,14.38 2.16,1.16 1.88,8.86 2.45,0.58 2.89,-4.04 17.46,2.31 3.46,1.54 1.59,5.78 8.95,0.19 10.39,7.7 8.22,2.7 3.9,2.9 v 0 l -7.96,12.29 0.62,3.73 -7.21,0.47 -2.36,2.59 -1.01,3.81 1.82,5.39 -1.13,12.05 4.59,4.49 0.14,3.8 2,3.31 -1.26,2.4 0.22,4.52 -3.11,0.69 -0.1,4.55 v 0 l -22.79,1.74 v 0 h -1.44 l -5.49,-5.76 -19.26,-2.11 -7.07,-6.15 -3.03,-6.72 -3.19,-0.43 v 0 l -9.08,-2.07 -6.64,0.19 -0.14,-3.46 3.75,-1.54 0.72,-1.92 -0.86,-8.65 -11.48,-7.45 -3.06,5.05 -2.35,0.72 -0.85,-7.02 v 0 l -1.49,-8.85 5.95,-9.38 0.18,-2.17 -5.95,-4.81 -1.22,-12.47 v 0 l 2.46,-2.22 7.51,-0.58 2.88,-3.46 3.18,-9.64 0.43,-6.75 -1.44,-6.36 z"
     class="land"
     title="Berovo"
     id="MK-03" />
  <path
     d="m 260.85957,457.91147 2.69,3.83 v 3.36 l -2.68,5.14 1.04,7.5 4.33,6.71 8.81,5.14 1.04,18.15 6.27,3.55 8.5,-3.94 5.24,1.25 v 0 l -2.63,12.87 0.55,4.11 4.58,5.56 0.91,12.31 6.59,1.7 12.44,16.65 2.1,15.93 v 0 l -13.49,-0.13 -9.15,-3.99 -27.53,18.11 -15.35,5.12 -10.41,0.03 -3.6,-2.63 v 0 l 3.7,-14.64 -0.74,-1.95 -3.14,-1.94 0.37,-5.11 -1.29,-5.11 -1.66,-1.21 -10.51,-1.22 -1.29,-5.84 -3.32,-4.62 -4.06,-2.19 -12.73,0.24 -2.21,-1.94 -0.74,-5.6 -6.09,-8.04 -0.73,-7.06 -6.64,-2.01 -2.08,-2.44 1.15,-8.52 5.54,-4.57 3,-5.18 v -8.23 l -2.77,-3.05 0.12,-2.19 v 0 l 10.25,-4.83 7.15,-0.91 7.15,-3.36 3.46,-4.57 4.61,-2.75 3.92,-0.3 3.92,-6.71 6.22,-2.14 5.53,-4.27 3,-5.19 3.36,-2.32 v 0 l 1.48,-0.43 3.92,3.66 z"
     class="land"
     title="Bitola"
     id="MK-04" />
  <path
     d="m 641.10957,445.35147 0.57,2.2 6.79,7.08 12.22,-0.6 8.88,4.55 1.06,9.54 v 0 l -5.49,3.31 -3.67,9.18 -5.86,8.53 -6.5,5.16 -1.62,-0.57 v 0 l 1.45,-1.04 -7.26,-5.47 -7.79,-4.07 -7.6,-1.32 2.44,-14.26 -6.37,-10.76 v 0 l 5.58,-3.95 0.88,-9.67 1.33,-2.34 5.3,-0.15 1.33,2.64 z"
     class="land"
     title="Bogdanci"
     id="MK-05" />
  <path
     d="m 152.74957,157.75147 0.28,7.74 1.21,1.91 7.51,0.27 -0.2,2.99 -4.26,8.97 -5.48,2.17 -1.42,2.17 1.62,5.98 h -2.16 v 0 l -7.38,-2.72 -16.44,-9.24 -9.95,-3.26 -18.879998,-3.26 -3.48,1.03 v 0 l -4.64,-3.58 1.95,-7.49 v 0 l 4.65,-2.19 3.45,-3.53 9.949998,-4.36 10.15,-7.89 4.67,-0.27 17.45,4.08 z"
     class="land"
     title="Bogovinje"
     id="MK-06" />
  <path
     d="m 690.18957,313.09147 3.19,0.43 3.03,6.72 7.07,6.15 19.26,2.11 5.49,5.76 h 1.44 v 0 l -0.43,9.98 -7.8,9.79 -8.94,7.87 v 14.38 l -4.62,6.32 v 0 l -8.37,2.3 -2.6,-0.38 -4.33,-3.07 -3.03,-8.05 -7.93,2.11 -4.19,-2.3 2.45,-9.4 -2.31,-7.86 -3.68,-3.85 v 0 l 0.08,-1.33 2.45,-1.54 5.34,-1.53 4.76,-4.61 3.18,-6.14 1.73,-11.52 z"
     class="land"
     title="Bosilovo"
     id="MK-07" />
  <path
     d="m 171.62957,157.67147 6.46,8.91 4.27,1.09 0.61,9.51 2.84,1.63 h 4.06 l 1.42,3.53 -0.81,3.26 -2.64,0.55 -0.81,10.59 11.36,0.81 5.89,5.16 9.74,-0.27 1.22,-4.07 4.47,-0.82 1.62,2.44 v 3.86 0 l -5.28,-0.33 -5.88,4.35 -7.11,7.87 -5.07,8.13 -4.26,4.07 -4.2,0.97 v 0 l -7.27,-10.46 -7.92,-7.33 -0.41,-6.24 -12.99,-0.54 -8.8,-4.73 v 0 l -1.75,-0.7 -0.54,-8.96 v 0 h 2.16 l -1.62,-5.98 1.42,-2.17 5.48,-2.17 4.26,-8.97 0.2,-2.99 -7.51,-0.27 -1.21,-1.91 -0.28,-7.74 v 0 l 1.19,0.13 2.23,-4.9 1.83,-1.08 8.12,4.89 z"
     class="land"
     title="Brvenica"
     id="MK-08" />
  <path
     d="m 320.66957,97.01147 -3.63,2.19 -9.01,13.61 -0.75,22.17 -1.88,4.02 -4.5,0.61 v 0 l -5.38,-3.51 v 0 l -0.67,-1.78 v 0 l -0.86,-8.76 v 0 l 1.16,1.23 3.12,-1.88 -0.75,-14.11 2.25,-14.62 7.14,-14.63 4.5,-1.51 1.76,0.59 v 0 l -1.06,2.86 z"
     class="land"
     title="Butel"
     id="MK-09" />
  <path
     d="m 604.49957,362.94147 4.53,7.01 6.06,6.14 3.75,1.72 8.8,0.19 3.04,3.64 -4.62,12.27 5.48,9.96 0.43,5.93 14.58,-1.15 5.48,5.17 v 2.68 l 8.52,0.77 4.76,-3.64 4.62,1.72 2.88,-3.25 3.32,-7.85 4.19,-1.92 20.68,10.72 v 0 l -1.29,6.18 0.49,10.34 v 0 l -9.88,-3.95 -13.37,-0.15 -6.74,-1.32 -3.76,3.96 -0.77,4.69 -12.76,0.73 -6.19,9.22 -5.62,2.6 v 0 0 0 l -4.33,-2.01 -1.33,-2.64 -5.3,0.15 -1.33,2.34 -0.88,9.67 -5.58,3.95 v 0 l -4.64,-8.49 -2.43,-0.88 v -7.32 l -3.43,-9.38 -0.55,-14.35 -6.52,-1.91 -14.15,-17.45 -7.07,-2.34 -2.98,-3.23 -9.25,-1.09 v 0 l -3.68,-9.77 1.69,-9.04 v 0 l 1.73,0.69 1.58,-4.03 7.36,-2.87 13.42,-3.26 z"
     class="land"
     title="Valandovo"
     id="MK-10" />
  <path
     d="m 660.19957,286.94147 0.85,7.02 2.35,-0.72 3.06,-5.05 11.48,7.45 0.86,8.65 -0.72,1.92 -3.75,1.54 0.14,3.46 6.64,-0.19 9.08,2.07 v 0 l 1.24,12.34 -1.73,11.52 -3.18,6.14 -4.76,4.61 -5.34,1.53 -2.45,1.54 -0.08,1.33 v 0 l -5.62,4.04 -7.8,2.5 -8.8,-0.2 -6.2,-8.05 -11.55,-5.57 -3.03,0.38 -3.61,6.15 -3.59,3.27 v 0 l -1.89,-7.31 0.26,-9.12 v 0 l 0.97,-2.97 -2.17,-5.95 7.94,-3.65 2.89,-4.61 6.49,2.88 8.95,8.84 1.73,0.19 2.45,-2.69 1.73,-2.69 -0.14,-9.6 -1.88,-7.88 -4.62,-5.19 -1.87,-5.19 5.77,-10.77 9.09,-0.96 z"
     class="land"
     title="Vasilevo"
     id="MK-11" />
  <path
     d="m 19.919572,440.91147 4.31,-1.56 9.44,-0.29 11.2,2.04 4.61,-4.07 2.86,-0.59 h 2.41 l 2.64,4.08 v 2.91 l -2.2,2.33 -3.51,2.03 h -7.25 l -5.49,3.78 -7.02,0.58 -10.95,-2.32 v 0 z"
     class="land"
     title="Vevčani"
     id="MK-12" />
  <path
     d="m 409.42957,174.39147 -0.03,5.19 3.27,12.67 10.61,13.28 v 0 l -0.96,3.72 -9.04,10.12 6.65,9.59 v 2.84 l -4.66,12.24 0.93,1.42 5.85,0.88 5.05,9.06 v 0 l -1.2,11.16 -7.7,8.5 -7.97,16.47 -7.97,0.71 -1.91,7.72 v 0 l -9.88,-2.09 -2.66,-3.01 -1.87,-11.88 -5.18,3.9 -3.2,0.53 -8.24,-25.55 -16.77,-5.15 -5.72,1.96 -7.95,-14.77 v 0 l 5.56,-0.86 6.65,-3.02 6.12,-10.13 v -7.28 l -2.66,-2.67 v -7.82 l 1.44,-0.51 v 0 l 3.13,2.41 3.32,0.53 2.26,0.18 2.66,-1.96 0.53,6.04 h 1.73 l 4.25,-6.75 h 2.12 l 3.32,4.8 5.19,0.71 4.91,-17.94 -0.13,-15.11 9.7,-2.31 z"
     class="land"
     title="Veles"
     id="MK-13" />
  <path
     d="m 653.09957,145.56147 0.83,22.37 10.67,3.87 11.69,6.18 9.38,1.74 v 2.12 l -5.05,8.5 -2.16,12.35 -4.04,6.56 -0.5,7.54 v 0 l -1.23,3.46 1.44,6.36 -0.43,6.75 -3.18,9.64 -2.88,3.46 -7.51,0.58 -2.46,2.22 v 0 l -8.81,-1.93 -7.36,-6.74 -6.79,-3.47 -2.74,-5.01 -2.16,0.19 -3.18,5.59 -10.96,1.15 -8.09,-6.55 -2.96,-0.69 v 0 l 0.15,-7.76 v 0 l 0.43,-20.86 -1.29,-7.53 -2.55,-4.15 v 0 l 2.26,-3.38 -0.29,-13.33 3.75,-16.62 4.91,-0.19 6.2,5.6 3.61,0.2 4.54,-3.05 v 0 l 6.43,2.08 3.46,-2.32 4.04,-8.5 1.3,-6.19 1.88,-1.74 6.92,0.19 z"
     class="land"
     title="Vinica"
     id="MK-14" />
  <path
     d="m 196.34957,308.92147 3.67,11.06 10.35,7.3 0.2,2.43 -16.24,16.2 -5.07,2.16 -0.61,6.5 v 0 l -5.48,-1.64 -4.67,0.54 -0.81,1.62 1.83,12.68 2.03,3.24 5.59,-1.08 v 0 l -0.11,3.77 -4.27,2.16 -4.26,1.08 -11.57,-0.27 -2.64,-7.28 -7.92,-5.4 -1.21,-2.43 v -6.47 l 2.92,-1.54 v 0 l 5.81,-11.96 3.24,-2.16 v 0 l 5.28,-0.54 3.86,-2.7 2.64,-3.78 2.84,-9.45 10.15,-7.03 z"
     class="land"
     title="Vraneštica"
     id="MK-15" />
  <path
     d="m 93.719572,172.50147 3.48,-1.03 18.879998,3.26 9.95,3.26 16.44,9.24 7.38,2.72 v 0 l 0.54,8.96 1.75,0.7 v 0 l -4.8,4.46 1.42,6.51 -3.04,3.53 -5.69,1.9 -9.74,-2.44 -7.71,1.08 -3.66,3.26 -5.48,-0.82 -5.27,-2.98 -5.69,-10.31 -13.449998,-1.46 v 0 l 11.829998,-8.7 -13.339998,-12.42 z"
     class="land"
     title="Vrapčište"
     id="MK-16" />
  <path
     d="m 329.48957,143.56147 -2.85,6.22 12.6,8.84 2.86,5.41 0.4,7.08 v 0 l -3.28,3.86 v 0 l -3.62,-6.73 -1.78,-0.47 v 0 l -2.51,-4.11 -5.25,-4.02 -8.27,-4.03 -10.88,-7.55 -6.46,-2.63 v 0 l 0.45,-5.82 v 0 l 4.5,-0.61 1.88,-4.02 0.75,-22.17 9.01,-13.61 3.63,-2.19 v 0 l 9.1,12.8 v 0 l -0.47,6.31 2.85,4.23 1.09,9.64 -3.74,6.2 z"
     class="land"
     title="Gazi Baba"
     id="MK-17" />
  <path
     d="m 571.33957,390.37147 9.25,1.09 2.98,3.23 7.07,2.34 14.15,17.45 6.52,1.91 0.55,14.35 3.43,9.38 v 7.32 l 2.43,0.88 4.64,8.49 v 0 l 6.37,10.76 -2.44,14.26 7.6,1.32 7.79,4.07 7.26,5.47 -1.45,1.04 v 0 l -9.47,-4.88 -3.78,-0.01 -22.28,5.36 -11.31,-0.49 -4.18,-1.3 -4.39,-5.91 -12.19,-0.11 -8.03,1.65 -2.64,-0.76 -4.06,-5.19 -3.51,1.05 -12.11,-8.06 -10.87,-0.21 v 0 l -6.3,-1.66 2,-6.56 14.23,-2.21 -3.46,-16.98 7.31,-2.04 8.46,-5.94 -0.64,-3.4 -3.21,-0.85 -0.64,-12.07 -1.64,-3.73 v 0 l 5.62,-7.83 14.23,-0.51 0.26,-8.17 -3.72,-7.32 z"
     class="land"
     title="Gevgelija"
     id="MK-18" />
  <path
     d="m 152.13957,199.61147 8.8,4.73 12.99,0.54 0.41,6.24 7.92,7.33 7.27,10.46 v 0 l -7.98,0.93 -1.63,3.8 v 10.03 l -0.81,1.62 -4.06,1.36 -0.41,2.17 1.42,4.06 2.85,2.17 0.4,6.77 3.25,6.77 0.61,7.04 -1.58,5.85 v 0 l -15.88,4.43 -4.46,3.25 -0.27,1.66 v 0 l -7.85,-8.97 -4.47,-3.25 -10.96,-4.33 -3.32,0.34 v 0 l -0.64,-3.59 -4.46,-5.14 -6.09,-10.56 4.26,-4.34 v -2.16 l -11.57,-0.28 -3.65,2.17 -2.85,-3.25 -0.61,-7.86 -5.68,-8.95 -22.529998,-2.17 -9.14,10.04 -12.58,-1.63 -4.67,-4.07 -6.9,-3.25 -3.12,-3.57 v 0 l 3.19,-5.1 3.68,-1.27 3.33,-7.56 2.69,0.03 7.09,-7.54 9.95,2.5 6.94,-0.41 8.01,-4.31 v 0 l 13.449998,1.46 5.69,10.31 5.27,2.98 5.48,0.82 3.66,-3.26 7.71,-1.08 9.74,2.44 5.69,-1.9 3.04,-3.53 -1.42,-6.51 z"
     class="land"
     title="Gostivar"
     id="MK-19" />
  <path
     d="m 427.09957,255.40147 1.2,-3.38 5.31,0.53 0.8,1.42 4.38,25.7 5.71,2.12 5.45,0.36 6.24,-4.96 1.18,-2.35 v 0 l 9.28,0.59 5.79,3.66 v 0 l -0.69,4.97 -8.71,12.45 -0.37,4.47 2.98,2.99 9.34,-3.32 3.49,1.5 0.37,3.98 -4.85,9.61 2.86,6.63 -3.11,7.46 -3.86,0.16 -1.64,-9.16 -1.4,-1.66 -2.74,0.77 v 0 l -4.89,-1.39 -2.64,1.66 -0.78,5.79 h -4.36 l -5.45,-2.48 -6.53,8.91 h -4.67 l -6.07,-3.73 -4.67,-0.62 -0.93,4.55 1.09,6.84 -2.34,2.68 -4.98,0.42 -3.58,3.48 v 0 l -8.26,-4.99 -0.93,-3.53 0.66,-7.96 4.12,-4.59 1.33,-6.9 -1.2,-2.48 -7.31,-5.13 -1.86,-2.65 0.49,-7.86 v 0 l 1.91,-7.72 7.97,-0.71 7.97,-16.47 7.7,-8.5 z"
     class="land"
     title="Gradsko"
     id="MK-20" />
  <path
     d="m 30.079572,308.54147 5.84,6.56 7.61,5.49 13.64,2.11 6.35,5.49 7.61,10.13 10.78,4.64 1.32,6.75 v 0 l -2.87,-1.37 -2.44,0.54 -2.03,2.7 -3.65,15.38 -2.4,4.5 v 0 l -1.05,-1.26 -0.91,1.03 v 0 l -1.83,-3.81 -4.76,-0.85 v -11.8 l -2.22,-7.17 h -3.48 l -3.18,-2.95 -1.9,-7.6 -3.49,-5.06 -12.69,-0.85 -3.48,5.91 -14.98,8.84 v 0 l -1.59,-3.47 -6.2299996,-0.48 -2.51,-2.73 -0.25,-2.91 -3.4,-1.69 -1.59999998,-3.46 2.33999998,-3.12 3.72,-10.07 4.2599996,0.31 13.28,-4.96 z"
     class="land"
     title="Debar"
     id="MK-21" />
  <path
     d="m 70.609572,372.38147 2.64,-2.45 h 31.059998 l 15.83,2.42 11.57,0.27 5.28,12.41 0.4,9.7 2.24,4.58 5.68,1.88 6.73,10.85 v 0 l 0.36,8.08 5.17,4.89 5.9,3.18 2.95,8.07 5.53,4.65 v 4.64 l 3.16,6.44 v 0 l -4.42,1.14 -14.42,-2.15 -7.91,-5.38 -10.97,-3.76 h -8.32 l -5.07,2.15 -10.76,0.27 -2.03,1.88 -0.61,3.23 -3.86,2.42 -3.65,7.26 0.41,8.06 -5.279998,2.15 -1.83,4.03 -9.43,0.42 v 0 l 0.09,-7.94 -2.63,-2.96 -0.61,-5.64 5.68,-8.88 2.23,-7.26 0.61,-12.37 -7.91,-12.11 -1.22,-19.4 z"
     class="land"
     title="Debarca"
     id="MK-22" />
  <path
     d="m 665.72957,115.38147 2.43,2.16 3.51,0.76 3.78,0.07 6.41,-2.27 -0.34,2.41 6.46,7.63 3.07,-0.55 8.32,4.05 3.46,-0.53 1.82,-3.48 7.49,10.21 4.65,0.56 3.08,-1.78 1.44,1.29 2.1,-0.36 0.3,4.16 -1.95,3.09 4.62,2.75 -0.24,7.48 1.17,1.02 -1.13,8.33 1.32,4.87 -1.18,2.65 2.77,5.83 2.38,0.92 0.83,1.78 1.57,4.64 -0.7,2.06 1.4,2.72 0.04,5.29 v 0 l -13,10.9 -5.92,11.77 -6.06,1.74 -5.2,6.75 -5.26,0.07 v 0 l -10.03,-4.31 -14.43,-1.16 -0.79,-2.11 v 0 l 0.5,-7.54 4.04,-6.56 2.16,-12.35 5.05,-8.5 v -2.12 l -9.38,-1.74 -11.69,-6.18 -10.67,-3.87 -0.83,-22.37 v 0 l 0.1,-8.76 5.34,-2.32 0.83,-24.16 v 0 l 1.65,2.39 z"
     class="land"
     title="Delčevo"
     id="MK-23" />
  <path
     d="m 560.25957,345.47147 0.86,2.04 8.8,3.64 1.44,3.07 -3.75,7.87 1.74,9.47 v 0 l -1.69,9.04 3.68,9.77 v 0 l -0.17,5.23 3.72,7.32 -0.26,8.17 -14.23,0.51 -5.62,7.83 v 0 l -18.08,11.01 h -10.5 l -9.29,-6.17 -2.93,-6.62 -3.61,-1.14 -15.49,-14.58 v 0 l 15.03,-0.7 2.54,-10.23 -4.74,-7.32 -0.44,-3.07 5.95,-4.24 5.07,-15.67 7.71,-8.64 2.09,-1.46 4.52,0.58 6.28,4.84 9.04,3.37 3.85,-6.74 z"
     class="land"
     title="Demir Kapija"
     id="MK-24" />
  <path
     d="m 207.75957,387.59147 9.37,5.41 v 5.74 h 12.68 l 2.02,3.06 0.29,17.59 5.48,-0.38 2.88,-1.53 2.88,1.14 3.75,4.59 2.3,9.93 5.19,6.12 -1.04,15.21 v 0 l -3.36,2.32 -3,5.19 -5.53,4.27 -6.22,2.14 -3.92,6.71 -3.92,0.3 -4.61,2.75 -3.46,4.57 -7.15,3.36 -7.15,0.91 -10.25,4.83 v 0 l -4.04,-6.23 -4.43,-22.94 -5.72,-0.25 -3.32,-5.16 v 0 l -2.37,-5.25 v 0 l -3.16,-6.44 v -4.64 l -5.53,-4.65 -2.95,-8.07 -5.9,-3.18 -5.17,-4.89 -0.36,-8.08 v 0 l 1.84,-3.66 6.82,-5.14 7.19,-3.18 23.6,-0.17 9.51,-7.65 0.86,-3.06 4.61,-2.3 z"
     class="land"
     title="Demir Hisar"
     id="MK-25" />
  <path
     d="m 641.10957,445.35147 5.62,-2.6 6.19,-9.22 12.76,-0.73 0.77,-4.69 3.76,-3.96 6.74,1.32 13.37,0.15 9.88,3.95 v 0 l -1.66,16.14 v 0 l -3.52,-2.08 -6.52,0.44 -3.76,2.64 -3.42,6 1.1,9.07 4.86,9.22 5.81,5.55 v 0 l -6.19,6.97 -1.79,-0.28 -5.16,-4.18 -4.76,-7.38 -4.56,-3.56 v 0 l -1.06,-9.54 -8.88,-4.55 -12.22,0.6 -6.79,-7.08 z"
     class="land"
     title="Dojran"
     id="MK-26" />
  <path
     d="m 279.19957,303.59147 14.8,4.37 2.54,2.79 2.38,6.15 4.93,2.59 2.24,8.54 0.44,9.53 4.03,5.96 3.14,1.58 13.58,-1.19 3.28,9.33 12.83,3.77 2.84,2.38 2.29,4.56 v 0 l -5.87,4.17 -2.39,9.71 -6.72,2.38 -3.58,4.56 -3.13,1.58 -23.36,2.58 -7.01,8.32 -6.38,4.09 v 0 l -3.99,-3.1 -14.33,0.79 -2.68,-11.68 -1.94,-0.8 -7.37,4.9 v 0 l -2.41,-1.33 -8.65,-10.7 -3.44,-1.79 1.35,-4.36 10.15,0.2 0.29,-4.36 -12.66,-16.7 v 0 l 0.13,-3.93 5.97,-2.38 2.53,-4.37 3.51,-0.59 8.66,3.96 0.59,-13.3 8.36,-11.12 1.94,-4.77 0.75,-12.32 z"
     class="land"
     title="Dolneni"
     id="MK-27" />
  <path
     d="m 134.24957,332.55147 0.81,4.72 3.86,4.59 13.4,6.21 5.76,5.48 v 0 l -2.92,1.54 v 6.47 l 1.21,2.43 7.92,5.4 2.64,7.28 11.57,0.27 4.26,-1.08 4.27,-2.16 0.11,-3.77 v 0 l 5.37,-1.62 3.24,6.2 10.34,4.96 v 0 l -0.78,1.68 2.45,6.44 v 0 l -1.29,-0.71 -4.61,2.3 -0.86,3.06 -9.51,7.65 -23.6,0.17 -7.19,3.18 -6.82,5.14 -1.84,3.66 v 0 l -6.73,-10.85 -5.68,-1.88 -2.24,-4.58 -0.4,-9.7 -5.28,-12.41 -11.57,-0.27 -15.83,-2.42 H 73.249572 l -2.64,2.45 v 0 0 0 l -0.77,-0.92 v 0 l 2.4,-4.5 3.65,-15.38 2.03,-2.7 2.44,-0.54 2.87,1.37 v 0 l 8.29,2.14 3.86,-1.35 3.24,-3.24 3.589998,-6.83 3.81,-2.11 0.31,-8.86 3.81,-4.23 v -16.89 l -2.43,-13.55 v 0 l 3.4,0.59 5.68,14.33 5.08,0.81 4.26,10 4.67,5.14 2.23,6.48 z"
     class="land"
     title="Drugovo"
     id="MK-28" />
  <path
     d="m 253.71957,98.27147 4.01,0.98 -0.47,-0.83 2.85,1.8 v 0 l 9.24,9.07 5.26,11.59 v 5.7 0 l -0.19,18.02 v 0 l -7.67,-0.71 -4.66,-5.93 -6.75,-14.04 -0.93,-5.31 -2.56,-2.82 -7.45,3.13 -2.8,-1.56 -2.09,-5.32 -0.74,-7.56 v 0 l 4.65,-0.13 z"
     class="land"
     title="Gjorče Petrov"
     id="MK-29" />
  <path
     d="m 175.06957,135.40147 6.4,2.77 5.64,-1.21 1.58,1.21 v 2.72 l -1.8,1.82 0.67,1.51 3.62,1.21 8.35,0.6 3.16,-3.32 4.87,-0.15 v 0 l 6.83,2.78 9.02,6.83 -3.14,26.8 11.21,9.2 v 0 l -0.18,2.28 2.21,2.95 5.15,3.61 -2.15,15.72 v 0 l -15.18,-8.88 v 0 -3.86 l -1.62,-2.44 -4.47,0.82 -1.22,4.07 -9.74,0.27 -5.89,-5.16 -11.36,-0.81 0.81,-10.59 2.64,-0.55 0.81,-3.26 -1.42,-3.53 h -4.06 l -2.84,-1.63 -0.61,-9.51 -4.27,-1.09 -6.46,-8.91 v 0 l 2.2,-3.05 6.09,-1.91 0.2,-2.99 -4.26,-1.9 -2.03,-4.08 -3.85,-2.18 3.24,-5.72 z"
     class="land"
     title="Želino"
     id="MK-30" />
  <path
     d="m 160.97957,290.82147 0.27,18.62 -5.62,11.54 v 0 l -6.36,0.35 -8.52,4.87 -5.08,1.08 -1.42,5.27 v 0 l -1.22,-0.41 -2.23,-6.48 -4.67,-5.14 -4.26,-10 -5.08,-0.81 -5.68,-14.33 -3.4,-0.59 v 0 l -5.33,0.86 -2.439998,-1.89 -0.2,-2.71 3.249998,-4.06 6.9,-0.27 11.16,-10.28 h 6.91 l 1.62,-1.35 4.8,-0.48 v 0 l 3.32,-0.34 10.96,4.33 4.47,3.25 z"
     class="land"
     title="Zajas"
     id="MK-31" />
  <path
     d="m 343.57957,181.18147 13.95,2.81 1.46,2.13 -0.53,20.62 -2.47,4.87 v 0 l -1.44,0.51 v 7.82 l 2.66,2.67 v 7.28 l -6.12,10.13 -6.65,3.02 -5.56,0.86 v 0 l -24.91,0.03 -1.78,-1.74 v 0 l 1.38,-8.92 -5.98,-10.48 -0.4,-8.54 1.99,-4.45 2.53,-2.84 2.26,0.18 1.47,5.51 4.52,0.18 1.33,-1.6 0.67,-6.23 5.72,-8 0.79,-5.7 13.84,-7.83 z"
     class="land"
     title="Zelenikovo"
     id="MK-32" />
  <path
     d="m 601.35957,191.50147 2.55,4.15 1.29,7.53 -0.43,20.86 v 0 l -16.89,-1.16 v 0 l -3.26,-6.21 -6.4,-7.22 -0.84,-8.72 v 0 l 5.1,-0.17 5.4,-5.2 h 1.63 l 3.26,3.02 4.9,-6.05 z"
     class="land"
     title="Zrnovci"
     id="MK-33" />
  <path
     d="m 357.88957,122.12147 0.94,2.51 10.73,8.27 h 4.15 l 0.32,12.13 v 0 l -5.37,11.23 2.52,6.87 -1,2 -7.8,0.67 -5.15,-3.56 h -2.66 l -1.99,2.89 -10.08,5.98 v 0 l -0.4,-7.08 -2.86,-5.41 -12.6,-8.84 2.85,-6.22 v 0 l 2.17,0.55 6.7,-4.75 5.7,-1.06 z"
     class="land"
     title="Ilinden"
     id="MK-34" />
  <path
     d="m 234.61957,97.50147 -3.56,4.23 -15.45,1.64 -4.65,3.29 4.9,5.27 5.88,-1.64 1.23,7.23 -6.13,5.27 3.04,13.35 -11.38,3.94 -0.94,2.48 v 0 l -4.87,0.15 -3.16,3.32 -8.35,-0.6 -3.62,-1.21 -0.67,-1.51 1.8,-1.82 v -2.72 l -1.58,-1.21 -5.64,1.21 -6.4,-2.77 v 0 l -0.6,-2.6 v 0 l 0.9,-2.2 13.55,-2.72 4.74,-2.43 5.42,-10.9 5.87,-6.06 0.45,-4.54 -1.13,-3.64 -7.68,-3.64 -6.77,-11.21 -12.75,-13.04 v 0 l 17.02,-14.3 7.66,0.39 4.24,3.48 4.13,0.91 2.86,4.38 3.41,1.8 -0.54,6.59 8.52,4.92 z"
     class="land"
     title="Jegunovce"
     id="MK-35" />
  <path
     d="m 464.23957,339.91147 2.14,1.83 h 3.27 l 8.25,-2.48 3.11,1.24 1.56,2.28 -0.16,8.28 3.11,15.3 v 14.27 l 1.4,6.2 2.65,4.54 0.62,7.65 4.69,2.91 v 0 l 15.49,14.58 3.61,1.14 2.93,6.62 9.29,6.17 h 10.5 l 18.08,-11.01 v 0 l 1.64,3.73 0.64,12.07 3.21,0.85 0.64,3.4 -8.46,5.94 -7.31,2.04 3.46,16.98 -14.23,2.21 -2,6.56 6.3,1.66 v 0 l -14.94,3.02 -12.54,12.9 -7.54,-1.27 -10.9,-7.32 -0.85,-3.4 -5.62,-0.78 -3.98,8.13 -3.66,2.45 -21.06,3.68 -10.41,8.9 v 0 l -2.11,-12.06 -5.91,-0.21 -4.05,-1.85 -0.7,-21.73 -5.76,-8.24 0.63,-8.45 5.13,-10.93 -0.62,-1.65 -15.56,-0.82 -2.96,-8.25 -0.47,-16.1 2.34,-6.19 0.15,-5.79 -4.59,-12.08 1.4,-10.13 -0.62,-7.03 -1.56,0.83 -2.33,4.96 h -2.96 l -6.69,-7.44 v -3.2 0 l 6.23,-8.8 3.58,0.62 1.65,2.05 v 0 l 7.53,9.95 19.14,-0.21 2.18,-1.65 0.62,-5.17 1.4,-1.45 4.67,0.82 6.69,3.93 1.56,-0.62 1.4,-4.75 5.29,-3.31 0.46,-12 z"
     class="land"
     title="Kavadarci"
     id="MK-36" />
  <path
     d="m 513.85957,195.48147 4.23,-2.45 1.92,0.51 1.92,6.84 3.2,1.37 10.87,-0.51 1.32,-1.51 v 0 l 9.67,9.89 7.93,5.81 11.89,2.05 7.04,-0.34 6.65,6.66 6.39,0.52 0.99,-1.44 v 0 l 16.89,1.16 v 0 l -0.15,7.76 v 0 l -8.43,5.7 -0.58,9.44 -4.69,8.16 v 0 l -1.53,-1.92 -4.35,-0.17 -18.99,3.75 h -6.4 l -14.06,-14.51 -6.01,-1.02 -9.34,-9.4 -4.35,-2.73 -13.94,-1.54 -4.6,-9.91 -0.89,-12.65 2.55,-5.3 z"
     class="land"
     title="Karbinci"
     id="MK-37" />
  <path
     d="m 274.60957,126.58147 3.54,0.46 3.26,2.5 5.36,7.8 7.22,1.25 1.5,-1.34 v 0 l -0.15,3.51 v 0 l -4.95,2.56 -1.86,7.64 3.99,5.53 h 1.57 l 0.71,-4.39 1.2,-0.38 v 0 l -0.36,8.92 v 0 h -20.28 l -0.55,-1.23 v 0 l -0.39,-14.81 v 0 z"
     class="land"
     title="Karpoš"
     id="MK-38" />
  <path
     d="m 297.45957,149.89147 2.69,3.21 3.75,0.5 6.76,7.04 10.51,3.52 7.14,7.34 v 0 l -4.03,1.89 -4.14,8.56 -2.26,1.05 -3.74,-1.45 -0.69,-10.67 -2.79,-3.2 -5.63,1.51 -3.66,-0.45 v 0 l -1.22,-2.06 v -5.03 l -4.51,-1.01 v 0 l 0.36,-8.92 v 0 z"
     class="land"
     title="Kisela Voda"
     id="MK-39" />
  <path
     d="m 155.62957,320.98147 2.17,8.46 5.27,-1.89 2.44,1.89 1.62,2.97 v 7.02 0 l -3.24,2.16 -5.81,11.96 v 0 l -5.76,-5.48 -13.4,-6.21 -3.86,-4.59 -0.81,-4.72 v 0 l 1.42,-5.27 5.08,-1.08 8.52,-4.87 z"
     class="land"
     title="Kičevo"
     id="MK-40" />
  <path
     d="m 567.33957,301.24147 7.85,2.09 5.05,4.42 16.16,1.35 6.78,6.72 6.86,9.61 -0.72,4.22 -3.03,1.92 -0.15,2.12 1.59,1.34 14.33,3.16 v 0 l -0.26,9.12 1.89,7.31 v 0 l -1.82,4.02 -7.36,-1.73 -7.93,3.26 -2.08,2.77 v 0 l -11.06,-0.85 -13.42,3.26 -7.36,2.87 -1.58,4.03 -1.73,-0.69 v 0 l -1.74,-9.47 3.75,-7.87 -1.44,-3.07 -8.8,-3.64 -0.86,-2.04 v 0 l -2.03,-8.33 -10.05,-13.6 v 0 l -0.05,-2.34 7.21,-6.15 z"
     class="land"
     title="Konče"
     id="MK-41" />
  <path
     d="m 595.74957,97.86147 1.3,5.16 2.02,1.16 4.47,-4.65 3.76,4.07 0.28,12.78 1.3,3.49 8.66,5.42 0.72,9.29 6.06,9.48 v 7.93 l 2.02,8.74 v 0 l -4.54,3.05 -3.61,-0.2 -6.2,-5.6 -4.91,0.19 -3.75,16.62 0.29,13.33 -2.26,3.38 v 0 l -3.69,0.83 -4.9,6.05 -3.26,-3.02 h -1.63 l -5.4,5.2 -5.1,0.17 v 0 l -2.99,-2.86 -3.14,-0.84 -3.38,-9.9 -0.26,-9.57 1.76,-2.52 v -3.03 l -0.75,-1.01 -11.8,0.34 -4.64,-3.19 -3.89,-4.88 -1.3,-3.78 v 0 l 12.59,-11.85 3.27,-6.39 5.96,-3.2 2.6,-10.26 v 0 l 5.3,-18.02 -2.32,-9.83 v 0 l 0.8,-2.33 15.76,-0.67 z"
     class="land"
     title="Kočani"
     id="MK-42" />
  <path
     d="m 476.33957,71.78147 4.74,4.93 3.85,0.92 1.52,8.33 6.88,0.37 4.96,2.59 3.44,4.44 10.47,8.69 5.1,-0.18 9.64,-3.7 0.82,-7.58 3.17,-1.16 v 0 l 1.3,3.36 7.74,0.23 10.51,-1.39 4.47,-2.77 19.44,11.08 v 0 l 2.32,9.83 -5.3,18.02 v 0 l -2.51,-4.04 -8.1,-6 -16.01,-0.23 -1.2,0.92 v 12.24 l -2.07,3 -3.78,-0.92 -3.27,-4.62 -6.37,2.54 h -3.62 l -5.85,-6.23 -13.52,5.77 -12.05,1.38 -4.64,10.62 -2.76,-0.23 -6.88,-4.15 -2.09,0.52 v 0 l -11.84,0.23 v 0 l -0.85,-3.09 -7.16,-6.28 -2.21,-9.61 -7.71,-0.55 -1.24,-1.85 -0.27,-2.77 5.37,-8.32 1.96,-7.37 v 0 l 7.75,-1.88 3.03,-4.62 2.89,-5.73 v -14.07 l 1.51,-1.11 z"
     class="land"
     title="Kratovo"
     id="MK-43" />
  <path
     d="m 558.03957,4.8614704 8.14,8.4199996 5.8,3.03 2.14,-1.95 2.45,1.52 3.17,-0.13 2.82,5.79 3.83,2.04 -0.7,2.48 4.46,7.07 2.69,1.31 0.17,3.29 2.86,-0.68 1.31,4.24 3.19,2.48 -0.49,2.22 5.71,10.75 0.55,3.61 4.54,0.25 4.73,2.68 1.64,10.35 3.29,4.58 -1.5,1.59 v 0 l -14.57,9.65 -3.18,4.65 -5.34,3.76 v 0 l -4.8,-0.92 -15.76,0.67 -0.8,2.33 v 0 l -19.44,-11.08 -4.47,2.77 -10.51,1.39 -7.74,-0.23 -1.3,-3.36 v 0 l 3.02,-3.35 0.17,-5.08 -2.41,-5.56 -0.69,-9.02 -3.44,-7.64 0.35,-8.1 2.75,-4.87 v -2.77 l -2.75,-1.39 h -8.96 l -5.51,-2.79 -11.01,-15.76 -2.7,-7.09 v 0 l 17.04,-4.2 6.41,-7.0299996 5.15,0.08 17.67,-4.61000001 6.56,0.3 z"
     class="land"
     title="Kriva Palanka"
     id="MK-44" />
  <path
     d="m 259.76957,391.45147 7.37,-4.9 1.94,0.8 2.68,11.68 14.33,-0.79 3.99,3.1 v 0 l -4.96,5.41 2.83,7.33 7.47,1.58 -4.18,18.01 -8.81,9.1 -6.2,0.69 v 0 l -2.83,-1.68 -2.38,-3.56 -3.89,-1.51 v 0 l -0.14,-2.05 -3.73,-0.99 3.58,-12.66 -0.45,-4.16 -7.16,-10.49 z"
     class="land"
     title="Krivogaštani"
     id="MK-45" />
  <path
     d="m 244.39957,352.41147 12.66,16.7 -0.29,4.36 -10.15,-0.2 -1.35,4.36 3.44,1.79 8.65,10.7 2.41,1.33 v 0 l -0.54,14.91 7.16,10.49 0.45,4.16 -3.58,12.66 3.73,0.99 0.14,2.05 v 0 l -3.72,0.92 -5.53,12.85 -0.3,3.75 3.28,3.68 v 0 l -1.9,-0.21 -3.92,-3.66 -1.48,0.43 v 0 l 1.04,-15.21 -5.19,-6.12 -2.3,-9.93 -3.75,-4.59 -2.88,-1.14 -2.88,1.53 -5.48,0.38 -0.29,-17.59 -2.02,-3.06 h -12.68 v -5.74 l -9.37,-5.41 v 0 l -2.45,-6.44 0.78,-1.68 v 0 l 2.8,-2.64 15.91,-7.06 v 0 l 13.8,-5.45 1.79,-11.88 z"
     class="land"
     title=" Kruševo"
     id="MK-46" />
  <path
     d="m 388.80957,37.08147 4.29,0.49 v 0 l 7.9,3.82 2,2.4 -0.53,5.37 -6.3,2.26 -0.63,2.12 -0.11,3.25 1.79,2.97 0.1,8.04 -2.52,8.05 1.37,9.88 7.77,10.16 4.83,0.98 4.52,-3.8 10.92,-3.81 2,0.14 2.73,2.82 10.82,2.82 2.31,-1.97 0.83,-4.1 4.31,-1.41 2.1,0.99 3.43,10.2 v 0 l -1.96,7.37 -5.37,8.32 0.27,2.77 1.24,1.85 7.71,0.55 2.21,9.61 7.16,6.28 0.85,3.09 v 0 l -0.58,3.55 -2.89,2.22 -9.91,4.43 -3.31,0.18 -6.89,-9.23 -4.13,-1.11 -8.26,0.93 -8.12,7.94 -0.69,5.72 -7.73,8.82 v 0 l -9.35,-8.2 -7.87,0.14 -6.06,2.43 -5.95,-6.41 -7.44,-2.99 -1.64,-1.98 v 0 l -0.32,-12.13 h -4.15 l -10.73,-8.27 -0.94,-2.51 v 0 l -0.34,-4.62 -6.06,-3.28 h -2.65 v 0 l -1.49,-0.85 0.74,-5.56 8.93,-6.71 2.6,-17.27 1.49,-0.57 5.21,2.28 0.95,-0.71 v -10.43 l 6.06,-2.57 0.53,-1.57 -2.01,-11.58 -0.21,-14.08 v 0 l 1.66,1.03 4.98,-0.78 z"
     class="land"
     title="Kumanovo"
     id="MK-47" />
  <path
     d="m 324.70957,39.21147 3.23,1.77 17.02,-4.05 8.46,3.7 9.18,-0.5 9.04,4.47 v 0 l 0.21,14.08 2.01,11.58 -0.53,1.57 -6.06,2.57 v 10.43 l -0.95,0.71 -5.21,-2.28 -1.49,0.57 -2.6,17.27 -8.93,6.71 -0.74,5.56 1.49,0.85 v 0 l -2.16,8.87 -6.65,-0.46 -10.26,-12.82 v 0 l -9.1,-12.8 v 0 l -8.56,-13.52 1.06,-2.86 v 0 l 8.1,-5.16 0.85,-10.89 -1.06,-2.29 -2.56,-0.86 -3.41,-4.01 -3.79,-8.38 v 0 l -0.95,-16.73 4.73,-0.14 5.88,3.18 z"
     class="land"
     title="Lipkovo"
     id="MK-48" />
  <path
     d="m 423.27957,205.53147 7.38,1.45 6.89,8.98 7.74,2.53 2.59,2.07 9.81,12.65 15.7,13.7 v 0 l -2.01,0.61 0.62,5.15 -4.35,0.5 -1.12,3.49 -1.13,0.34 -4.97,-5.15 -3.24,-1 -6.1,7.31 -1.12,5.15 6.97,6.81 0.43,4.72 v 0 l -1.18,2.35 -6.24,4.96 -5.45,-0.36 -5.71,-2.12 -4.38,-25.7 -0.8,-1.42 -5.31,-0.53 -1.2,3.38 v 0 l -5.05,-9.06 -5.85,-0.88 -0.93,-1.42 4.66,-12.24 v -2.84 l -6.65,-9.59 9.04,-10.12 z"
     class="land"
     title="Lozovo"
     id="MK-49" />
  <path
     d="m 40.199572,224.84147 3.29,2.21 0.66,-1.05 v 0 l 3.12,3.57 6.9,3.25 4.67,4.07 12.58,1.63 9.14,-10.04 22.529998,2.17 5.68,8.95 0.61,7.86 2.85,3.25 3.65,-2.17 11.57,0.28 v 2.16 l -4.26,4.34 6.09,10.56 4.46,5.14 0.64,3.59 v 0 l -4.8,0.48 -1.62,1.35 h -6.91 l -11.16,10.28 -6.9,0.27 -3.249998,4.06 0.2,2.71 2.439998,1.89 5.33,-0.86 v 0 l 2.43,13.55 v 16.89 l -3.81,4.23 -0.31,8.86 -3.81,2.11 -3.589998,6.83 -3.24,3.24 -3.86,1.35 -8.29,-2.14 v 0 l -1.32,-6.75 -10.78,-4.64 -7.61,-10.13 -6.35,-5.49 -13.64,-2.11 -7.61,-5.49 -5.84,-6.56 v 0 l 1.77,-1.41 -2.22,-10.91 -6.77,-10.83 -0.39,-6.51 -1.55,-3.61 1.83,-13.39 -2.64,-9.15 -0.5,-9.63 4.98,-13.18 2,-2.19 3,-1.48 z"
     class="land"
     title="Mavrovo i Rostuša"
     id="MK-50" />
  <path
     d="m 640.27957,98.73147 2.15,-0.26 3.01,4.9 9.21,2.16 4.72,4.79 v 0 l -0.83,24.16 -5.34,2.32 -0.1,8.76 v 0 l -2.73,-1.31 -6.92,-0.19 -1.88,1.74 -1.3,6.19 -4.04,8.5 -3.46,2.32 -6.43,-2.08 v 0 l -2.02,-8.74 v -7.93 l -6.06,-9.48 -0.72,-9.29 -8.66,-5.42 -1.3,-3.49 -0.28,-12.78 -3.76,-4.07 -4.47,4.65 -2.02,-1.16 -1.3,-5.16 v 0 l 5.34,-3.76 3.18,-4.65 14.57,-9.65 v 0 l 3.8,2.97 1.28,2.78 5.88,2.55 4.99,6.51 z"
     class="land"
     title="Makedonska Kamenica"
     id="MK-51" />
  <path
     d="m 236.50957,212.73147 6.81,7.55 14.71,24.24 5.88,5.24 4.91,0.65 1.91,-1.5 v 0 l 5.67,0.74 2.68,3.07 v 13.8 l 3.45,7.16 2.68,2.55 0.34,-1.2 v 0 l 0.43,2.86 -1.96,3.59 -5.4,6.21 0.58,15.9 v 0 h -2.36 l -0.75,12.32 -1.94,4.77 -8.36,11.12 -0.59,13.3 -8.66,-3.96 -3.51,0.59 -2.53,4.37 -5.97,2.38 -0.13,3.93 v 0 l -4.01,0.03 -1.79,11.88 -13.8,5.45 v 0 l -0.97,-4.37 -9.58,-3.67 -1.79,-1.95 -1.46,-3.45 -0.16,-6.26 -1.46,-1.08 h -3.74 l -9.42,4.53 -7.57,1.05 v 0 l 0.61,-6.5 5.07,-2.16 16.24,-16.2 -0.2,-2.43 -10.35,-7.3 -3.67,-11.06 v 0 l 0.42,-16.79 -1.62,-3.24 -4.27,-1.9 -6.49,-0.27 -1.83,-1.62 -0.97,-3.62 v 0 l 1.58,-5.85 -0.61,-7.04 -3.25,-6.77 -0.4,-6.77 -2.85,-2.17 -1.42,-4.06 0.41,-2.17 4.06,-1.36 0.81,-1.62 v -10.03 l 1.63,-3.8 7.98,-0.93 v 0 l 4.2,-0.97 4.26,-4.07 5.07,-8.13 7.11,-7.87 5.88,-4.35 5.28,0.33 v 0 z"
     class="land"
     title="Makedonski Brod"
     id="MK-52" />
  <path
     d="m 276.22957,443.46147 1.43,4.84 7.46,1.19 3.88,2.37 10.22,13.64 8.51,1.18 2.09,3.76 5.82,3.15 6.71,0.2 3.88,-2.76 h 2.24 l 5.52,4.34 12.39,3.56 1.13,1.29 v 0 l -1.43,6.18 -12.81,16.45 -3.48,2.18 -13.72,-1.94 -8.69,-3.39 h -3.11 l -4.76,3.39 -3.41,5.51 v 0 l -5.24,-1.25 -8.5,3.94 -6.27,-3.55 -1.04,-18.15 -8.81,-5.14 -4.33,-6.71 -1.04,-7.5 2.68,-5.14 v -3.36 l -2.69,-3.83 v 0 l -3.28,-3.68 0.3,-3.75 5.53,-12.85 3.72,-0.92 v 0 l 3.89,1.51 2.38,3.56 z"
     class="land"
     title="Mogila"
     id="MK-53" />
  <path
     d="m 472.43957,279.09147 3.55,2.98 5.85,1.33 5.85,8.29 2.99,-0.66 3.48,-6.8 2.12,-0.33 3.74,6.14 2.86,12.93 1.87,1.5 10.7,-0.17 4.86,1.66 0.99,8.46 2.37,1.49 11.08,6.79 5.35,1.49 8.08,-0.65 v 0 l 10.05,13.6 2.03,8.33 v 0 l -8.48,7.18 -3.85,6.74 -9.04,-3.37 -6.28,-4.84 -4.52,-0.58 -2.09,1.46 -7.71,8.64 -5.07,15.67 -5.95,4.24 0.44,3.07 4.74,7.32 -2.54,10.23 -15.03,0.7 v 0 l -4.69,-2.91 -0.62,-7.65 -2.65,-4.54 -1.4,-6.2 v -14.27 l -3.11,-15.3 0.16,-8.28 -1.56,-2.28 -3.11,-1.24 -8.25,2.48 h -3.27 l -2.14,-1.83 v 0 l -0.13,-19.97 v 0 l 2.74,-0.77 1.4,1.66 1.64,9.16 3.86,-0.16 3.11,-7.46 -2.86,-6.63 4.85,-9.61 -0.37,-3.98 -3.49,-1.5 -9.34,3.32 -2.98,-2.99 0.37,-4.47 8.71,-12.45 z"
     class="land"
     title="Negotino"
     id="MK-54" />
  <path
     d="m 347.50957,480.22147 4.79,-2.54 4.21,7.02 4.75,3.39 19.4,3.63 10.06,4.84 7.32,1.45 8.42,7.74 4.21,1.21 6.95,-0.24 2.2,-2.66 7.87,8.46 12.02,5.5 v 0 l -3.6,7.25 -3.9,0.42 -2.3,6.45 -5.54,2.3 -6.11,11.7 -8.51,6.8 -2.28,12.1 -3.5,4.02 -9.01,1.22 -6.64,-0.94 -6.22,-3.47 -3,0.56 -9.71,6.55 -0.64,7.7 -2.52,0.47 0.17,2.22 -8.47,0.9 -11.8,9.45 -4.45,0.7 -2.95,-1.92 -10.91,-14.7 -7.18,-0.07 v 0 l -2.1,-15.93 -12.44,-16.65 -6.59,-1.7 -0.91,-12.31 -4.58,-5.56 -0.55,-4.11 2.63,-12.87 v 0 l 3.41,-5.51 4.76,-3.39 h 3.11 l 8.69,3.39 13.72,1.94 3.48,-2.18 12.81,-16.45 z"
     class="land"
     title="Novaci"
     id="MK-55" />
  <path
     d="m 754.84957,372.73147 -2.08,0.64 -2.77,4.65 0.31,2.72 2.19,1.31 2.42,4.82 -0.56,5.12 2.27,8.26 -0.49,1.02 -3.65,0.2 0.15,2.96 -20.4,-0.1 -8.21,1.96 -9.02,-2.08 -4.27,1.98 v 0 l -0.84,-20.91 -2.02,-2.68 v 0 l 4.62,-6.32 v -14.38 l 8.94,-7.87 7.8,-9.79 0.43,-9.98 v 0 l 22.79,-1.74 v 0 l 3.68,6.11 -0.75,4.76 -3.93,4.23 1.06,6.73 1.99,1.17 -0.49,5.44 4.34,5.23 z"
     class="land"
     title="Novo Selo"
     id="MK-56" />
  <path
     d="m 181.58957,281.48147 0.97,3.62 1.83,1.62 6.49,0.27 4.27,1.9 1.62,3.24 -0.42,16.79 v 0 l -4.45,7.01 -10.15,7.03 -2.84,9.45 -2.64,3.78 -3.86,2.7 -5.28,0.54 v 0 -7.02 l -1.62,-2.97 -2.44,-1.89 -5.27,1.89 -2.17,-8.46 v 0 l 5.62,-11.54 -0.27,-18.62 v 0 l 0.27,-1.66 4.46,-3.25 z"
     class="land"
     title="Oslomej"
     id="MK-57" />
  <path
     d="m 86.959572,473.71147 9.43,-0.42 1.83,-4.03 5.279998,-2.15 -0.41,-8.06 3.65,-7.26 3.86,-2.42 0.61,-3.23 2.03,-1.88 10.76,-0.27 5.07,-2.15 h 8.32 l 10.97,3.76 7.91,5.38 14.42,2.15 4.42,-1.14 v 0 l 2.37,5.25 v 0 l -6.45,9.31 -24.9,15.63 -9.59,11.22 -3.69,14.87 -0.55,12.67 -4.06,2.68 0.18,5.85 3.32,5.85 -0.55,8.03 -2.4,2.68 -7.74,0.73 -3.51,2.68 -2.58,9.97 0.47,10.74 -6.25,10.82 v 0 l -13.289998,1.43 -5.75,-1.34 -3.67,-2.85 v 0 l 8.91,-5.98 3.45,-11.51 4.869998,-8.84 3.45,-10.71 0.2,-8.04 -1.21,-22.26 0.81,-11 -9.749998,-5.9 -3.04,-4.57 -3.05,-9.66 -3.65,-1.88 -1.55,-2.32 v 0 z"
     class="land"
     title="Ohrid"
     id="MK-58" />
  <path
     d="m 374.02957,145.03147 1.64,1.98 7.44,2.99 5.95,6.41 6.06,-2.43 7.87,-0.14 9.35,8.2 v 0 l -2.77,7.86 -0.14,4.49 v 0 l -10.45,7.82 -9.7,2.31 0.13,15.11 -4.91,17.94 -5.19,-0.71 -3.32,-4.8 h -2.12 l -4.25,6.75 h -1.73 l -0.53,-6.04 -2.66,1.96 -2.26,-0.18 -3.32,-0.53 -3.13,-2.41 v 0 l 2.47,-4.87 0.53,-20.62 -1.46,-2.13 -13.95,-2.81 v 0 l -5.28,-0.48 -0.67,-2.22 1.59,-3.51 v 0 l 3.28,-3.86 v 0 l 10.08,-5.98 1.99,-2.89 h 2.66 l 5.15,3.56 7.8,-0.67 1,-2 -2.52,-6.87 z"
     class="land"
     title="Petrovec"
     id="MK-59" />
  <path
     d="m 736.23957,194.36147 1.48,-0.87 2.31,1.59 2.93,4.32 1.51,5.25 1.64,1.07 2.32,7.7 0.25,5.72 5.27,9.31 2.36,1.67 1.35,7.6 1.71,1.01 2.98,-3.33 0.98,1.61 1.37,-1.77 2.46,-0.08 2.23,4.49 -0.12,2.78 1.95,1.26 3.29,9.2 -0.78,2.22 0.9,3.09 -3.43,2.97 -3.99,7.26 v 0 l -3.9,-2.9 -8.22,-2.7 -10.39,-7.7 -8.95,-0.19 -1.59,-5.78 -3.46,-1.54 -17.46,-2.31 -2.89,4.04 -2.45,-0.58 -1.88,-8.86 -2.16,-1.16 -4.69,-14.38 v 0 l 5.26,-0.07 5.2,-6.75 6.06,-1.74 5.92,-11.77 13,-10.9 v 0 z"
     class="land"
     title="Pehčevo"
     id="MK-60" />
  <path
     d="m 188.64957,354.57147 7.57,-1.05 9.42,-4.53 h 3.74 l 1.46,1.08 0.16,6.26 1.46,3.45 1.79,1.95 9.58,3.67 0.97,4.37 v 0 l -15.91,7.06 -2.8,2.64 v 0 l -10.34,-4.96 -3.24,-6.2 -5.37,1.62 v 0 l -5.59,1.08 -2.03,-3.24 -1.83,-12.68 0.81,-1.62 4.67,-0.54 z"
     class="land"
     title="Plasnica"
     id="MK-61" />
  <path
     d="m 399.92957,364.82147 v 3.2 l 6.69,7.44 h 2.96 l 2.33,-4.96 1.56,-0.83 0.62,7.03 -1.4,10.13 4.59,12.08 -0.15,5.79 -2.34,6.19 0.47,16.1 2.96,8.25 15.56,0.82 0.62,1.65 -5.13,10.93 -0.63,8.45 5.76,8.24 0.7,21.73 4.05,1.85 5.91,0.21 2.11,12.06 v 0 l -6.02,3.79 -1.85,8.53 0.41,4.52 v 0 l -12.02,-5.5 -7.87,-8.46 -2.2,2.66 -6.95,0.24 -4.21,-1.21 -8.42,-7.74 -7.32,-1.45 -10.06,-4.84 -19.4,-3.63 -4.75,-3.39 -4.21,-7.02 -4.79,2.54 v 0 l -1.13,-1.29 -12.39,-3.56 -5.52,-4.34 h -2.24 l -3.88,2.76 -6.71,-0.2 -5.82,-3.15 -2.09,-3.76 -8.51,-1.18 -10.22,-13.64 -3.88,-2.37 -7.46,-1.19 -1.43,-4.84 v 0 l 6.2,-0.69 8.81,-9.1 4.18,-18.01 -7.47,-1.58 -2.83,-7.33 4.96,-5.41 v 0 l 6.38,-4.09 7.01,-8.32 23.36,-2.58 3.13,-1.58 3.58,-4.56 6.72,-2.38 2.39,-9.71 5.87,-4.17 v 0 l 6.21,0.6 2.24,1.58 2.24,4.76 5.67,-0.59 1.64,-0.8 2.24,-4.75 1.35,-9.52 8.8,-1.2 5.97,-2.38 10.89,6.55 z"
     class="land"
     title="Prilep"
     id="MK-62" />
  <path
     d="m 571.40957,127.79147 -2.6,10.26 -5.96,3.2 -3.27,6.39 -12.59,11.85 v 0 l -2.55,-0.7 -2.05,1.54 -5.24,14.04 -7.04,5.65 -2.94,0.69 -0.89,2.05 0.38,2.91 10.66,14.06 v 0 l -1.32,1.51 -10.87,0.51 -3.2,-1.37 -1.92,-6.84 -1.92,-0.51 -4.23,2.45 v 0 l -2.16,-2.64 -2.76,0.79 -3.73,-1.58 -6.12,0.23 v 0 l -3.96,-5.56 2.58,-4.61 v -4.38 l -5.85,-3.45 -6.03,-11.76 -12.39,-9.69 -0.17,-7.38 3.42,-7.09 v 0 l 2.09,-0.52 6.88,4.15 2.76,0.23 4.64,-10.62 12.05,-1.38 13.52,-5.77 5.85,6.23 h 3.62 l 6.37,-2.54 3.27,4.62 3.78,0.92 2.07,-3 v -12.24 l 1.2,-0.92 16.01,0.23 8.1,6 z"
     class="land"
     title="Probištip"
     id="MK-63" />
  <path
     d="m 604.61957,231.80147 2.96,0.69 8.09,6.55 10.96,-1.15 3.18,-5.59 2.16,-0.19 2.74,5.01 6.79,3.47 7.36,6.74 8.81,1.93 v 0 l 1.22,12.47 5.95,4.81 -0.18,2.17 -5.95,9.38 1.49,8.85 v 0 l -0.81,1.01 -9.09,0.96 -5.77,10.77 1.87,5.19 4.62,5.19 1.88,7.88 0.14,9.6 -1.73,2.69 -2.45,2.69 -1.73,-0.19 -8.95,-8.84 -6.49,-2.88 -2.89,4.61 -7.94,3.65 2.17,5.95 -0.97,2.97 v 0 l -14.33,-3.16 -1.59,-1.34 0.15,-2.12 3.03,-1.92 0.72,-4.22 -6.86,-9.61 -6.78,-6.72 -16.16,-1.35 -5.05,-4.42 -7.85,-2.09 v 0 l -3.55,-2.14 -1.45,-2.88 -0.57,-10.39 -4.19,-9.62 1.01,-2.31 5.05,-5.19 1.88,-0.39 10.1,5 5.63,-0.19 9.67,-18.03 v 0 l 4.69,-8.16 0.58,-9.44 z"
     class="land"
     title="Radoviš"
     id="MK-64" />
  <path
     d="m 499.74957,16.01147 2.7,7.09 11.01,15.76 5.51,2.79 h 8.96 l 2.75,1.39 v 2.77 l -2.75,4.87 -0.35,8.1 3.44,7.64 0.69,9.02 2.41,5.56 -0.17,5.08 -3.02,3.35 v 0 l -3.17,1.16 -0.82,7.58 -9.64,3.7 -5.1,0.18 -10.47,-8.69 -3.44,-4.44 -4.96,-2.59 -6.88,-0.37 -1.52,-8.33 -3.85,-0.92 -4.74,-4.93 v 0 l 5.77,-0.25 1.38,-1.85 -1.11,-5.56 -3.71,-6.11 -0.14,-10.93 -2.83,-7.04 1.11,-2.41 5.92,-0.93 2.06,-2.41 -1.76,-13.27 v 0 z"
     class="land"
     title="Rankovce"
     id="MK-65" />
  <path
     d="m 177.47957,457.24147 3.32,5.16 5.72,0.25 4.43,22.94 4.04,6.23 v 0 l -0.12,2.19 2.77,3.05 v 8.23 l -3,5.18 -5.54,4.57 -1.15,8.52 2.08,2.44 6.64,2.01 0.73,7.06 6.09,8.04 0.74,5.6 2.21,1.94 12.73,-0.24 4.06,2.19 3.32,4.62 1.29,5.84 10.51,1.22 1.66,1.21 1.29,5.11 -0.37,5.11 3.14,1.94 0.74,1.95 -3.7,14.64 v 0 l -8.14,-5.96 -17.68,8.33 -13.02,2.53 -36.84,1.11 -2.53,-1.11 -1.61,-15.09 -9.33,-8.63 -6.63,-1.36 -6.7,2.75 -13.51,-4.3 -5.83,2.03 -5.69,5.35 -4.42,1.08 v 0 l 6.25,-10.82 -0.47,-10.74 2.58,-9.97 3.51,-2.68 7.74,-0.73 2.4,-2.68 0.55,-8.03 -3.32,-5.85 -0.18,-5.85 4.06,-2.68 0.55,-12.67 3.69,-14.87 9.59,-11.22 24.9,-15.63 z"
     class="land"
     title="Resen"
     id="MK-66" />
  <path
     d="m 464.10957,319.94147 0.13,19.97 v 0 l -1.91,4.32 -0.46,12 -5.29,3.31 -1.4,4.75 -1.56,0.62 -6.69,-3.93 -4.67,-0.82 -1.4,1.45 -0.62,5.17 -2.18,1.65 -19.14,0.21 -7.53,-9.95 v 0 l 1.92,-12.64 v 0 l 3.58,-3.48 4.98,-0.42 2.34,-2.68 -1.09,-6.84 0.93,-4.55 4.67,0.62 6.07,3.73 h 4.67 l 6.53,-8.91 5.45,2.48 h 4.36 l 0.78,-5.79 2.64,-1.66 z"
     class="land"
     title="Rosoman"
     id="MK-67" />
  <path
     d="m 234.61957,97.50147 4.15,6.98 v 0 l 0.74,7.56 2.09,5.32 2.8,1.56 7.45,-3.13 2.56,2.82 0.93,5.31 6.75,14.04 4.66,5.93 7.67,0.71 v 0 l 0.39,14.81 v 0 l -1.09,1.83 -6.86,0.33 -5.15,2.95 -16.92,15.1 -11.77,4.6 -1.54,3.95 v 0 l -11.21,-9.2 3.14,-26.8 -9.02,-6.83 -6.83,-2.78 v 0 l 0.94,-2.48 11.38,-3.94 -3.04,-13.35 6.13,-5.27 -1.23,-7.23 -5.88,1.64 -4.9,-5.27 4.65,-3.29 15.45,-1.64 z"
     class="land"
     title="Saraj"
     id="MK-68" />
  <path
     d="m 476.68957,138.36147 -3.42,7.09 0.17,7.38 12.39,9.69 6.03,11.76 5.85,3.45 v 4.38 l -2.58,4.61 3.96,5.56 v 0 l -0.86,3.19 -3.44,1.84 -0.52,1.61 0.34,3 3.45,5.98 0.17,4.83 -3.7,2.3 -8.95,13.58 -6.55,2.76 3.62,9.42 -0.17,2.76 -1.55,0.46 -1.04,2.76 2.59,1.84 0.69,2.99 -1.04,1.15 -3.78,-0.92 -4.96,-4.92 v 0 l -15.7,-13.7 -9.81,-12.65 -2.59,-2.07 -7.74,-2.53 -6.89,-8.98 -7.38,-1.45 v 0 l -10.61,-13.28 -3.27,-12.67 0.03,-5.19 v 0 l 0.14,-4.49 2.77,-7.86 v 0 l 7.73,-8.82 0.69,-5.72 8.12,-7.94 8.26,-0.93 4.13,1.11 6.89,9.23 3.31,-0.18 9.91,-4.43 2.89,-2.22 0.58,-3.55 v 0 z"
     class="land"
     title="Sveti Nikole"
     id="MK-69" />
  <path
     d="m 274.80957,159.41147 0.55,1.23 h 20.28 v 0 l 4.51,1.01 v 5.03 l 1.22,2.06 v 0 l -2.26,15.1 -12.56,0.79 -4.7,-2.36 -7.26,-0.79 -4.71,1.31 -2.16,2.36 1.38,8.93 10.2,1.57 1.57,1.58 -0.4,2.1 h -2.74 l -3.14,2.36 -3.53,15.73 -4.32,2.1 -0.39,3.14 4.12,2.62 1.34,3.91 -2.3,4.09 -1.15,6.14 v 4.61 l 2.37,4.88 v 0 l -1.91,1.5 -4.91,-0.65 -5.88,-5.24 -14.71,-24.24 -6.81,-7.55 v 0 l 2.15,-15.72 -5.15,-3.61 -2.21,-2.95 0.18,-2.28 v 0 l 1.54,-3.95 11.77,-4.6 16.92,-15.1 5.15,-2.95 6.86,-0.33 z"
     class="land"
     title="Sopište"
     id="MK-70" />
  <path
     d="m 467.51957,14.31147 7.73,7.48 7.78,-0.77 v 0 l 1.76,13.27 -2.06,2.41 -5.92,0.93 -1.11,2.41 2.83,7.04 0.14,10.93 3.71,6.11 1.11,5.56 -1.38,1.85 -5.77,0.25 v 0 l -8.42,-0.44 -1.51,1.11 v 14.07 l -2.89,5.73 -3.03,4.62 -7.75,1.88 v 0 l -3.43,-10.2 -2.1,-0.99 -4.31,1.41 -0.83,4.1 -2.31,1.97 -10.82,-2.82 -2.73,-2.82 -2,-0.14 -10.92,3.81 -4.52,3.8 -4.83,-0.98 -7.77,-10.16 -1.37,-9.88 2.52,-8.05 -0.1,-8.04 -1.79,-2.97 0.11,-3.25 0.63,-2.12 6.3,-2.26 0.53,-5.37 -2,-2.4 -7.9,-3.82 v 0 l 13.03,-1.56 1.44,-15.19 8.16,-7.93 5.46,-0.35 9.16,11.98 21.3,-16.8199996 9.58,6.4199996 z"
     class="land"
     title="Staro Nagoričane"
     id="MK-71" />
  <path
     d="m 70.609572,372.38147 12.59,24.77 1.22,19.4 7.91,12.11 -0.61,12.37 -2.23,7.26 -5.68,8.88 0.61,5.64 2.63,2.96 -0.09,7.94 v 0 l -1.05,1.83 v 0 l -20.57,-0.91 -2.85,2.69 -6.09,16.65 -2.05,14.13 v 0 l -10.18,-2.63 -1.09,-1.54 -2.3,-4.18 -0.32,-3.86 3.19,-4.46 -3,-8.83 -9.23,-17.42 -2.58,0.2 -3.17,-2.99 -4.7,-12.56 v 0 l 10.95,2.32 7.02,-0.58 5.49,-3.78 h 7.25 l 3.51,-2.03 2.2,-2.33 v -2.91 l -2.64,-4.08 h -2.41 l -2.86,0.59 -4.61,4.07 -11.2,-2.04 -9.44,0.29 -4.31,1.56 v 0 l -2.32,-5.31 0.86,-5.07 -6.24,-19.97 -0.05,-4.54 1.39,-2.71 4.12,2.6 3.82,-0.95 6.5,-11.56 3.47,-13.66 v 0 l 26.76,0.7 4.26,-2.42 5.39,-6.79 v 0 l 0.91,-1.03 1.05,1.26 v 0 z"
     class="land"
     title="Struga"
     id="MK-72" />
  <path
     d="m 623.68957,354.62147 3.59,-3.27 3.61,-6.15 3.03,-0.38 11.55,5.57 6.2,8.05 8.8,0.2 7.8,-2.5 5.62,-4.04 v 0 l 3.68,3.85 2.31,7.86 -2.45,9.4 4.19,2.3 7.93,-2.11 3.03,8.05 4.33,3.07 2.6,0.38 8.37,-2.3 v 0 l 2.02,2.68 0.84,20.91 v 0 l -2.03,2.04 -6.27,1.32 -1.44,3.5 v 0 l -20.68,-10.72 -4.19,1.92 -3.32,7.85 -2.88,3.25 -4.62,-1.72 -4.76,3.64 -8.52,-0.77 v -2.68 l -5.48,-5.17 -14.58,1.15 -0.43,-5.93 -5.48,-9.96 4.62,-12.27 -3.04,-3.64 -8.8,-0.19 -3.75,-1.72 -6.06,-6.14 -4.53,-7.01 v 0 l 2.08,-2.77 7.93,-3.26 7.36,1.73 z"
     class="land"
     title="Strumica"
     id="MK-73" />
  <path
     d="m 339.21957,174.97147 -1.59,3.51 0.67,2.22 5.28,0.48 v 0 l -1.27,2.29 -13.84,7.83 -0.79,5.7 -5.72,8 -0.67,6.23 -1.33,1.6 -4.52,-0.18 -1.47,-5.51 -2.26,-0.18 -2.53,2.84 -1.99,4.45 0.4,8.54 5.98,10.48 -1.38,8.92 v 0 l -8.56,2.66 -3.19,2.62 -5.39,11.12 -5.64,3.6 -1.47,2.29 -2.39,10.55 v 0 l -0.34,1.2 -2.68,-2.55 -3.45,-7.16 v -13.8 l -2.68,-3.07 -5.67,-0.74 v 0 l -2.37,-4.88 v -4.61 l 1.15,-6.14 2.3,-4.09 -1.34,-3.91 -4.12,-2.62 0.39,-3.14 4.32,-2.1 3.53,-15.73 3.14,-2.36 h 2.74 l 0.4,-2.1 -1.57,-1.58 -10.2,-1.57 -1.38,-8.93 2.16,-2.36 4.71,-1.31 7.26,0.79 4.7,2.36 12.56,-0.79 2.26,-15.1 v 0 l 3.66,0.45 5.63,-1.51 2.79,3.2 0.69,10.67 3.74,1.45 2.26,-1.05 4.14,-8.56 4.03,-1.89 v 0 l 5.51,-3.73 v 0 l 1.78,0.47 z"
     class="land"
     title="Studeničani"
     id="MK-74" />
  <path
     d="m 177.06957,72.42147 12.75,13.04 6.77,11.21 7.68,3.64 1.13,3.64 -0.45,4.54 -5.87,6.06 -5.42,10.9 -4.74,2.43 -13.55,2.72 -0.9,2.2 v 0 l -5.71,-2.4 -0.81,-1.63 v 0 l 0.81,-8.44 v 0 l -3.45,-5.45 -7.11,-1.91 -5.07,-12.26 -2.64,-3 -6.7,-4.08 -8.38,-3.06 v 0 l 4.2,-3.25 19.35,-2.96 2.96,-4.77 8.35,-1.97 z"
     class="land"
     title="Tearce"
     id="MK-75" />
  <path
     d="m 135.40957,90.57147 8.38,3.06 6.7,4.08 2.64,3 5.07,12.26 7.11,1.91 3.45,5.45 v 0 l -0.81,8.44 v 0 l 0.81,1.63 5.71,2.4 v 0 l 0.6,2.6 v 0 l -1.85,0.44 -3.24,5.72 3.85,2.18 2.03,4.08 4.26,1.9 -0.2,2.99 -6.09,1.91 -2.2,3.05 v 0 l -5.51,-0.88 -8.12,-4.89 -1.83,1.08 -2.23,4.9 -1.19,-0.13 v 0 l -11.4,-10.48 -17.45,-4.08 -4.67,0.27 -10.15,7.89 -9.949998,4.36 -3.45,3.53 -4.65,2.19 v 0 l 0.15,-3.51 -5.81,-9.49 -0.84,-5.86 1.94,-5.41 -0.2,-8.41 15.629998,-19.83 9.96,-7.99 16.2,0.19 z"
     class="land"
     title="Tetovo"
     id="MK-76" />
  <path
     d="m 295.33957,140.76147 -0.08,3.06 2.45,-0.24 0.92,1.85 v 0 l -1.86,3.64 0.69,0.82 v 0 l -1.46,1.83 v 0 l -1.2,0.38 -0.71,4.39 h -1.57 l -3.99,-5.53 1.86,-7.64 z"
     class="land"
     title="Centar"
     id="MK-77" />
  <path
     d="m 15.869572,345.89147 14.98,-8.84 3.48,-5.91 12.69,0.85 3.49,5.06 1.9,7.6 3.18,2.95 h 3.48 l 2.22,7.17 v 11.8 l 4.76,0.85 1.83,3.81 v 0 l -5.39,6.79 -4.26,2.42 -26.76,-0.7 v 0 l 1.43,-1.68 -6.25,-8.62 -8.23,-4.88 -4.7,-17.21 z"
     class="land"
     title=" Centar Župa"
     id="MK-78" />
  <path
     d="m 300.89957,139.61147 -0.45,5.82 v 0 h -1.82 v 0 l -0.92,-1.85 -2.45,0.24 0.08,-3.06 v 0 l 0.15,-3.51 v 0 l 0.03,-1.15 v 0 z"
     class="land"
     title=" Čair"
     id="MK-79" />
  <path
     d="m 312.18957,242.19147 1.78,1.74 24.91,-0.03 v 0 l 7.95,14.77 5.72,-1.96 16.77,5.15 8.24,25.55 3.2,-0.53 5.18,-3.9 1.87,11.88 2.66,3.01 9.88,2.09 v 0 l -0.49,7.86 1.86,2.65 7.31,5.13 1.2,2.48 -1.33,6.9 -4.12,4.59 -0.66,7.96 0.93,3.53 8.26,4.99 v 0 l -1.92,12.64 v 0 l -1.65,-2.05 -3.58,-0.62 -6.23,8.8 v 0 l -4.16,-6.62 -10.89,-6.55 -5.97,2.38 -8.8,1.2 -1.35,9.52 -2.24,4.75 -1.64,0.8 -5.67,0.59 -2.24,-4.76 -2.24,-1.58 -6.21,-0.6 v 0 l -2.29,-4.56 -2.84,-2.38 -12.83,-3.77 -3.28,-9.33 -13.58,1.19 -3.14,-1.58 -4.03,-5.96 -0.44,-9.53 -2.24,-8.54 -4.93,-2.59 -2.38,-6.15 -2.54,-2.79 -14.8,-4.37 v 0 l -0.58,-15.9 5.4,-6.21 1.96,-3.59 -0.43,-2.86 v 0 l 2.39,-10.55 1.47,-2.29 5.64,-3.6 5.39,-11.12 3.19,-2.62 z"
     class="land"
     title="Čaška"
     id="MK-80" />
  <path
     d="m 546.98957,159.49147 1.3,3.78 3.89,4.88 4.64,3.19 11.8,-0.34 0.75,1.01 v 3.03 l -1.76,2.52 0.26,9.57 3.38,9.9 3.14,0.84 2.99,2.86 v 0 l 0.84,8.72 6.4,7.22 3.26,6.21 v 0 l -0.99,1.44 -6.39,-0.52 -6.65,-6.66 -7.04,0.34 -11.89,-2.05 -7.93,-5.81 -9.67,-9.89 v 0 l -10.66,-14.06 -0.38,-2.91 0.89,-2.05 2.94,-0.69 7.04,-5.65 5.24,-14.04 2.05,-1.54 z"
     class="land"
     title="Češinovo-Obleševo"
     id="MK-81" />
  <path
     d="m 311.29957,49.04147 3.79,8.38 3.41,4.01 2.56,0.86 1.06,2.29 -0.85,10.89 -8.1,5.16 v 0 l -1.76,-0.59 -4.5,1.51 -7.14,14.63 -2.25,14.62 0.75,14.11 -3.12,1.88 -1.16,-1.23 v 0 l -5.59,-8.52 -4.66,2.82 -0.23,6.87 3.49,1.25 4.42,7.18 3.43,-0.84 v 0 l 0.67,1.78 v 0 l -0.03,1.15 v 0 l -1.5,1.34 -7.22,-1.25 -5.36,-7.8 -3.26,-2.5 -3.54,-0.46 v 0 -5.7 l -5.26,-11.59 -9.24,-9.07 v 0 l 0.58,-1.3 -4.19,-10 6.29,-13.46 0.31,-3.63 16.26,-12.41 2.7,-4.35 1.44,-7.15 h 5.6 l 5.12,2.19 10.24,-3.13 z"
     class="land"
     title="Čučer Sandevo"
     id="MK-82" />
  <path
     d="m 499.08957,192.28147 6.12,-0.23 3.73,1.58 2.76,-0.79 2.16,2.64 v 0 l -4.85,4.22 -2.55,5.3 0.89,12.65 4.6,9.91 13.94,1.54 4.35,2.73 9.34,9.4 6.01,1.02 14.06,14.51 h 6.4 l 18.99,-3.75 4.35,0.17 1.53,1.92 v 0 l -9.67,18.03 -5.63,0.19 -10.1,-5 -1.88,0.39 -5.05,5.19 -1.01,2.31 4.19,9.62 0.57,10.39 1.45,2.88 3.55,2.14 v 0 l -12,13.81 -7.21,6.15 0.05,2.34 v 0 l -8.08,0.65 -5.35,-1.49 -11.08,-6.79 -2.37,-1.49 -0.99,-8.46 -4.86,-1.66 -10.7,0.17 -1.87,-1.5 -2.86,-12.93 -3.74,-6.14 -2.12,0.33 -3.48,6.8 -2.99,0.66 -5.85,-8.29 -5.85,-1.33 -3.55,-2.98 v 0 l -5.79,-3.66 -9.28,-0.59 v 0 l -0.43,-4.72 -6.97,-6.81 1.12,-5.15 6.1,-7.31 3.24,1 4.97,5.15 1.13,-0.34 1.12,-3.49 4.35,-0.5 -0.62,-5.15 2.01,-0.61 v 0 l 4.96,4.92 3.78,0.92 1.04,-1.15 -0.69,-2.99 -2.59,-1.84 1.04,-2.76 1.55,-0.46 0.17,-2.76 -3.62,-9.42 6.55,-2.76 8.95,-13.58 3.7,-2.3 -0.17,-4.83 -3.45,-5.98 -0.34,-3 0.52,-1.61 3.44,-1.84 z"
     class="land"
     title=" Štip"
     id="MK-83" />
  <path
     d="m 294.84957,134.32147 -3.43,0.84 -4.42,-7.18 -3.49,-1.25 0.23,-6.87 4.66,-2.82 5.59,8.52 v 0 z"
     class="land"
     title="Šuto Orizari"
     id="MK-84" />
  <path
     d="m 693.45957,474.76147 -0.37,1.79 v 0 l -5.81,-5.55 -4.86,-9.22 -1.1,-9.07 3.42,-6 3.76,-2.64 6.52,-0.44 3.52,2.08 v 0 l -1.84,23.33 z"
     class="land"
     title="Lake Dojran"
     id="MK-LKD" />
  <path
     d="m 85.909572,475.54147 1.55,2.32 3.65,1.88 3.05,9.66 3.04,4.57 9.749998,5.9 -0.81,11 1.21,22.26 -0.2,8.04 -3.45,10.71 -4.869998,8.84 -3.45,11.51 -8.91,5.98 v 0 l -20.02,-65.58 -1.15,-2.18 -10.95,-2.35 v 0 l 2.05,-14.13 6.09,-16.65 2.85,-2.69 z"
     class="land"
     title="Lake Ohrid"
     id="MK-LKO" />
     <g id="stadiums" data-country="macedonia" data-circle-radius="6"></g>
</svg>
