<?xml version="1.0"?>
    
<!--********* Copyright (c) 2024 Pareto Softare, LLC DBA Simplemaps.com ***************************************
************* Free for Commercial Use, full terms at  https://simplemaps.com/resources/svg-license ************
************* Attribution is appreciated! https://simplemaps.com *******************************************-->

<svg baseprofile="tiny" fill="#6f9c76" height="884" stroke="#ffffff" stroke-linecap="round" stroke-linejoin="round" stroke-width=".5" version="1.2" viewbox="0 0 1000 884" width="1000" xmlns="http://www.w3.org/2000/svg">
 <g id="features">
  <path d="M909.2 583.7l35.9 58.5 9.4 71.4-12.7 46.2-32.6-18.1-36.8 41-11.8 24.7 0 36-38-15.4-10.4-6.4-81.6-8.1-114.2-35.8-101.8-56.4-43.8-69.3-7.5-8.8-33.6-18.2-7.3-14 0-90.7-10.5-103.3-13.5-46.4-24.8-30.2 30.1-27 30.2-18.6 33.2-10.9 37.4-3.5 0 21.7-21.6 4-13.9 7.2-30.6 27.1 187.5 21.7 39.3 15.7 79.7 68.6 69 24.6 12 22.6 2.7 29.2-0.2 29.3 12.7 2.5 68.1 29.1z m-690.7-543.5l61.5 22.6 76.4 49.2 46.1 49-28.9 21.1-41.7 1.7-63.7 29.1-41.6 9.3-44-3.4-48.8-13.3-46.7-20.2-38.6-25 7.4-31.6-8.7-32-1.7-24.8 28.1-9.8 144.9-21.9z" id="MT" name="Malta">
  </path>
 </g>
 <g id="points">
  <circle class="35.8149335661843|14.20278160702557" cx="90.9" cy="803.3" id="0">
  </circle>
  <circle class="35.92468291380539|14.39455406910404" cx="545.5" cy="482.3" id="1">
  </circle>
  <circle class="36.061869598331754|14.547972038766815" cx="909.1" cy="80.4" id="2">
  </circle>
 </g>
 <g id="label_points">
  <circle class="Malta" cx="636.6" cy="575.3" id="MT">
  </circle>
 </g>
</svg>