<?xml version="1.0" encoding="UTF-8" standalone="no"?>
<?xml-stylesheet type="text/css" href="/styles/home.css"?>
<!-- https://www.amcharts.com/svg-maps -->

<svg version="1.1" xmlns="http://www.w3.org/2000/svg" id="map-moldova"
   viewBox="0 0 611.53839 768.87463">
  <defs
     id="defs4">
    <style
       type="text/css"
       id="style2">
			.land
			{
				fill: #CCCCCC;
				fill-opacity: 1;
				stroke:white;
				stroke-opacity: 1;
				stroke-width:0.5;
			}
		</style>
    <!-- <amcharts:ammap projection="mercator" leftLongitude="26.648880" topLatitude="48.495637" rightLongitude="30.175684" bottomLatitude="45.461826"></amcharts:ammap> -->
    <!-- All areas are listed in the line below. You can use this list in your script. -->
    <!--{id:"MD-AN"},{id:"MD-BA"},{id:"MD-BD"},{id:"MD-BR"},{id:"MD-BS"},{id:"MD-CA"},{id:"MD-CL"},{id:"MD-CM"},{id:"MD-CR"},{id:"MD-CS"},{id:"MD-CT"},{id:"MD-CU"},{id:"MD-DO"},{id:"MD-DR"},{id:"MD-DU"},{id:"MD-ED"},{id:"MD-FA"},{id:"MD-FL"},{id:"MD-GA"},{id:"MD-GL"},{id:"MD-HI"},{id:"MD-IA"},{id:"MD-LE"},{id:"MD-NI"},{id:"MD-OC"},{id:"MD-OR"},{id:"MD-RE"},{id:"MD-RI"},{id:"MD-SD"},{id:"MD-SI"},{id:"MD-SN"},{id:"MD-SO"},{id:"MD-ST"},{id:"MD-SV"},{id:"MD-TA"},{id:"MD-TE"},{id:"MD-UN"}-->
  </defs>
  <path
     style="fill:#cccccc;fill-opacity:1;stroke:#ffffff;stroke-width:0.5;stroke-opacity:1"
     d="m 422.98557,446.86142 0.31,-0.97 v 0 l -0.51,-21.99 -3.58,-5.12 -7.08,3.33 v 0 0 0 0 0 l 2.05,-9.64 -1.54,-3.06 -11.59,-8.36 0.85,-7.5 3.58,-4.6 v 0 l -0.85,-3.4 4.94,-4.02 12.79,-0.17 v 0 l 5.46,10.74 5.11,-4.09 v 0 l 6.48,-8.53 10.57,-2.04 -0.34,-12.62 5.96,-5.45 1.88,-6.31 v 0 h 2.05 v 0 l 12.1,10.65 2.39,6.14 -3.41,11.08 2.04,3.92 v 0 l -1.19,2.05 v 0 l -10.23,-2.05 -0.68,6.14 v 0 l 5.8,6.48 6.64,2.73 10.92,-5.97 v 0 l 8.18,4.95 v 0 l -0.51,3.58 v 0 l -2.22,3.41 1.02,3.75 v 0 l 2.39,5.62 v 0 l -1.7,3.41 -1.03,-2.9 v 0 l -2.55,-4.6 v 0 l -9.21,-0.85 -0.85,1.7 v 0 l -1.03,2.39 v 0 l -1.53,6.65 v 0 l 3.75,6.31 v 0 l 2.22,5.79 v 0 l -17.56,-0.51 -7.5,6.48 -6.65,1.7 -4.95,4.95 1.2,12.1 v 0 l -8.02,-2.38 v 0 l -1.53,-2.73 v 0 l -4.43,-5.29 z"
     class="land"
     title="Anenii Noi"
     id="MD-AN" />
  <path
     style="fill:#cccccc;fill-opacity:1;stroke:#ffffff;stroke-width:0.5;stroke-opacity:1"
     d="m 196.84557,185.49142 0.04,-0.06 v 0 l 1.25,-1.44 v 0 l -0.06,-0.51 v 0 l 12.91,3.01 -2.11,-5.66 3.55,-4.03 5.75,-0.29 v 0 l 0.54,-0.86 v 0 l 1.77,3.83 7.76,4.42 7.67,-7 4.7,6.23 0.2,4.6 -3.84,3.55 3.64,3.26 -0.76,3.84 -7.48,-2.4 -11.61,3.07 v 0 l -1.72,0.76 v 0 l -10.36,-0.09 2.4,-6.14 -13.52,-4.7 z"
     class="land"
     title="Bălţi"
     id="MD-BA" />
  <path
     style="fill:#cccccc;fill-opacity:1;stroke:#ffffff;stroke-width:0.5;stroke-opacity:1"
     d="m 493.66557,431.64142 -1.57,2.56 -11.6,-1.85 v 0 l -1.88,-4.7 v 0 l -3.75,-6.31 v 0 l 1.53,-6.65 v 0 l 1.03,-2.39 v 0 l 0.85,-1.7 9.21,0.85 v 0 l 2.55,4.6 v 0 l 1.03,2.9 v 0 l 1.89,12.51 v 0 z"
     class="land"
     title="Tighina"
     id="MD-BD" />
  <path
     style="fill:#cccccc;fill-opacity:1;stroke:#ffffff;stroke-width:0.5;stroke-opacity:1"
     d="m 89.565571,30.341415 10.15,3.75 v 0 l -3.15,8.62 10.059999,6.99 v 0 l 1.09,3.28 v 0 l -2.4,7.87 2.18,5.03 -3.5,3.28 -4.149999,-0.66 -1.97,3.94 -10.49,-4.59 0.66,-8.09 -6.34,0.87 -4.81,5.03 -0.87,16.83 -9.66,11.37 v 0 l -3.79,2.54 -3.08,-1.46 -3.64,-3.97 6.48,-2.73 -6.93,-2.16 -1.25,-6.71 -4.22,-1.57 0.24,3.5 -3.35,1.4 -1.88,-7.08 -13.3,-10.57 -7.5,-2.96 -4.7,3.55 -0.87,-4.57 -5.11,3.87 -1.14,-4.1 -3.1800002,5.46 -2.39,-3.75 -4.63,-1.01 -1.85000003,-5.7 4.32000003,-6.36 4.55,-0.68 v -7.73 l 2.7200002,-1.48 8.3,11.48 7.28,-0.11 0.57,-8.98 -4.44,-11.48 9.89,-0.91 2.39,-6.82 18.3,13.75 8.3,-4.66 4.66,3.64 1.93,-0.91 -2.05,-11.14 2.62,-1.71 z"
     class="land"
     title="Briceni"
     id="MD-BR" />
  <path
     style="fill:#cccccc;fill-opacity:1;stroke:#ffffff;stroke-width:0.5;stroke-opacity:1"
     d="m 371.46557,527.55142 -1.19,-5.45 10.74,-5.46 11.59,-11.76 9.89,1.7 5.2,9.04 3.92,1.19 v 0 l -1.97,3.68 -12.78,4.84 2.39,12.79 6.48,13.64 -1.7,7.79 -5.8,5.17 1.4,4.01 v 0 l -11.12,-2.82 -6.14,-5.29 -5.28,2.05 -1.37,3.24 -17.73,0.68 -3.07,-10.91 h 9.21 l 16.2,-4.43 4.09,-6.82 -1.03,-3.58 -8.01,-5.29 -4.06,-6.12 v 0 z"
     class="land"
     title="Basarabeasca"
     id="MD-BS" />
  <path
     style="fill:#cccccc;fill-opacity:1;stroke:#ffffff;stroke-width:0.5;stroke-opacity:1"
     d="m 327.59557,734.20142 v 2.56 0 l -15.72,4.07 -1.87,-17.56 8.87,-3.75 v 0 l 4.17,2.59 z m -9.41,-128.14 -0.17,12.45 v 0 h 0.07 v 0 l -9.79,3.92 -2.9,14.15 1.88,18.07 6.14,7.5 v 0 l -2.05,2.73 v 0 l -1.19,1.02 v 0 l -1.53,-0.17 v 0 l -10.4,1.02 2.05,10.91 1.88,2.39 8.87,1.71 5.29,7.16 2.73,-3.24 2.73,2.05 v 5.28 l 4.94,5.8 -2.9,6.54 v 0 l -3.75,0.36 v 0 l -11.08,1.19 v 0 l -20.97,-7.67 -1.19,16.71 2.39,5.12 v 0 9.72 0 l -4.6,5.46 2.56,6.65 v 0 l 1.53,2.22 v 0 l -2.22,3.41 v 0 l -2.05,1.53 v 0 l -10.31,11.68 -0.68,6.82 -3.82,-1.1 -3.56,-6.63 0.14,-9.25 -3.56,-2.42 0.14,-5.4 -6.12,-0.85 -7.68,-6.83 6.69,-8.39 5.97,-0.43 2.42,-2.56 -1.28,-6.12 2.42,-4.98 -4.41,-15.65 0.71,-6.26 -3.41,-1.85 -4.12,-11.02 -1,-32.58 -5.69,-13.23 0.85,-14.79 3.09,-6.24 v 0 l 9.51,-2.48 v 0 l 13.13,2.9 7.67,-1.87 v 0 l 2.56,2.9 v 0 l 5.97,4.43 9.72,-2.05 v 0 l 5.63,1.36 v 0 l 1.71,-8.35 6.99,-2.73 v 0 l 1.85,-1.2 v 0 z"
     class="land"
     title="Cahul"
     id="MD-CA" />
  <path
     style="fill:#cccccc;fill-opacity:1;stroke:#ffffff;stroke-width:0.5;stroke-opacity:1"
     d="m 321.17557,277.34142 0.42,15.54 8.53,3.07 1.87,2.04 -1.36,1.54 v 0 l -2.56,1.36 v 0 l -1.87,5.63 -6.65,1.36 -3.92,5.46 -8.53,3.58 -0.68,1.87 5.63,1.88 2.21,7.5 -1.7,6.82 -5.29,0.51 -3.24,4.77 -12.1,5.8 -11.94,-0.5 v 0 l 0.52,-0.69 v 0 l -11.26,-5.12 -5.96,-0.17 -4.6,-5.11 -9.38,-2.56 -1.88,-5.46 -6.3,-4.03 v 0 l 7.33,-7.73 6.3,-11.93 12.79,-10.57 1.02,-13.13 0.83,-2.23 3.35,0.69 v 0 l 24.72,5.46 20.97,-4.77 v 0 z"
     class="land"
     title="Călăraşi"
     id="MD-CL" />
  <path
     style="fill:#cccccc;fill-opacity:1;stroke:#ffffff;stroke-width:0.5;stroke-opacity:1"
     d="m 352.79557,448.04142 11.34,2.11 7.16,10.23 4.09,-0.17 3.58,-10.57 4.95,-3.41 8.35,5.45 2.05,5.29 -1.37,6.82 v 0 l 0.59,-0.02 v 0 l 5.38,15.02 v 0 l 1.7,5.12 h 4.78 v 0 l 9.37,-5.46 v 0 l 3.24,3.24 -2.21,24.89 v 0 l 1.36,2.72 v 0 l -2.54,0.3 -3,7.21 v 0 l -3.92,-1.19 -5.2,-9.04 -9.89,-1.7 -11.59,11.76 -10.74,5.46 1.19,5.45 v 0 l -0.17,2.22 v 0 h -7.5 l -21.82,-7.67 -6.31,-4.78 -5.97,2.56 -7.25,-3.92 v 0 l 1.28,-0.85 v 0 l 5.97,-7.51 -0.51,-7.5 4.09,-7.84 -2.22,-23.02 v 0 h 1.03 v 0 h 2.9 l 2.89,-3.75 -0.51,-7.67 2.9,-7.16 3.41,-0.34 1.37,3.41 2.38,-0.17 3.58,-4.09 v 0 z"
     class="land"
     title="Cimişlia"
     id="MD-CM" />
  <path
     style="fill:#cccccc;fill-opacity:1;stroke:#ffffff;stroke-width:0.5;stroke-opacity:1"
     d="m 451.16557,361.92142 -1.19,15.52 -10.57,2.05 -6.48,8.52 v 0 l -5.11,4.09 -5.45,-10.74 v 0 l -9.21,-0.68 -11.08,5.03 -2.04,-3.41 1.36,-6.65 9.72,-2.9 11.93,1.02 3.24,-4.77 -1.1,-3.83 v 0 l 17.12,-19.02 7.68,-3.48 v 0 l 5.11,1.36 5.29,7.33 v 0 l -0.85,1.71 v 0 h -2.06 v 0 l -1.87,6.31 z m -44.32,-53.46 4.26,7.35 6.14,2.22 -1.53,5.11 11.59,2.05 11.08,-4.4 v 0 0.05 0 l 9.38,5.8 v 0 l -9.42,5.07 -3.2,8.48 -4.43,5.46 -6.82,1.53 -6.65,11.59 v 0 l -1.7,0.51 v 0 l -1.7,1.02 v 0 l -13.47,3.24 v 0 l -9.38,-2.05 v 0 l -3.24,-12.1 -8.35,1.53 -1.19,6.14 -2.05,0.51 -1.87,-3.58 -10.3,-3.24 5.36,-4.09 0.68,-4.26 v 0 l -1.98,-3.8 v 0 l 2.66,-19.39 v 0 l 14.15,-1.7 v 0 l 9.55,-4.94 v 0 l 4.6,-2.05 v 0 z"
     class="land"
     title="Criuleni"
     id="MD-CR" />
  <path
     style="fill:#cccccc;fill-opacity:1;stroke:#ffffff;stroke-width:0.5;stroke-opacity:1"
     d="m 480.49557,432.35142 11.6,1.85 1.57,-2.56 v 0 l 0.66,0.16 v 0 l 5.82,5.82 7.53,0.69 2.22,-0.69 2.57,-10.61 4.28,1.88 0.34,3.25 7.36,-0.34 0.51,8.39 5.82,12.66 -6.79,13.08 v 0 l -0.57,0.1 v 0 l -1.71,5.31 -5.3,1.2 -3.26,4.11 -8.9,0.17 -8.04,7.01 -5.82,-2.22 -9.59,7.53 4.8,5.13 -8.56,5.14 0.51,4.62 8.06,9.2 v 0 l -7.09,6.66 -1.71,9.42 -3.13,0.8 -5.63,-13.47 -4.6,-1.2 -3.92,5.97 1.51,12.41 -7.42,0.83 -5.52,9.61 h -4.77 l -2.39,-2.73 5.46,-12.27 1.19,-28.65 -2.9,-3.75 -5.62,0.69 -4.71,9.69 -17.2,2.06 v 0 l -1.36,-2.72 v 0 l 2.21,-24.89 -3.24,-3.24 v 0 l -9.37,5.46 v 0 h -4.78 l -1.7,-5.12 v 0 l -5.38,-15.02 v 0 l 9.64,0.7 2.9,-2.9 v 0 l 11.59,-7.16 4.78,-5.79 v 0 l 4.17,-2.73 9.21,7.16 v 0 l 1.53,2.73 v 0 l 8.02,2.38 v 0 l -1.2,-12.1 4.95,-4.95 6.65,-1.7 7.5,-6.48 17.56,0.51 v 0 z"
     class="land"
     title="Căuşeni"
     id="MD-CS" />
  <path
     style="fill:#cccccc;fill-opacity:1;stroke:#ffffff;stroke-width:0.5;stroke-opacity:1"
     d="m 251.22557,611.95142 4.99,-19.65 -4.81,-13.34 3.42,-2.88 -0.43,-4.8 8.75,-5.54 3.84,-6.41 -3.84,-8.32 7.69,-14.98 v 0 l 16.07,-0.47 5.29,5.12 8.52,1.87 3.41,-3.58 -1.02,-4.94 7.67,-3.07 1.87,4.6 -2.72,5.63 9.2,6.82 v 0 h 0.49 v 0 l -3.13,10.82 10.57,6.31 v 10.06 l -2.73,11.93 -7.84,-1.53 -4.43,4.09 3.58,15 v 0 l 0.31,0.17 v 0 l -1.85,1.2 v 0 l -6.99,2.73 -1.7,8.35 v 0 l -5.63,-1.36 v 0 l -9.72,2.04 -5.96,-4.43 v 0 l -2.56,-2.9 v 0 l -7.67,1.88 -13.13,-2.9 v 0 z"
     class="land"
     title="Cantemir"
     id="MD-CT" />
  <path
     style="fill:#cccccc;fill-opacity:1;stroke:#ffffff;stroke-width:0.5;stroke-opacity:1"
     d="m 416.97557,358.85142 v 0 l -1.44,0.43 v 0 l -1.7,1.02 v 0 l -13.47,3.24 v 0 l -9.38,-2.04 v 0 l -3.24,-12.11 -8.35,1.54 -1.19,6.14 -2.05,0.51 -1.88,-3.58 -8.01,-3.24 h -2.29 l -0.61,4.43 v 0 l -2.04,4.26 -9.55,1.71 -5.46,3.58 -2.04,5.96 2.21,4.95 v 0 l -0.11,0.19 v 0 l 14.95,12.68 1.02,5.11 15.68,6.99 1.88,11.94 4.26,5.8 8.36,0.51 14.83,7.84 4.09,-1.02 0.68,-3.58 v 0 l 2.05,-9.64 -1.54,-3.06 -11.59,-8.36 0.85,-7.5 3.58,-4.6 v 0 l -0.85,-3.41 -4.26,-0.34 1.02,-9.55 9.72,-2.9 11.93,1.02 3.24,-4.77 0.17,-2.56 -8.52,-6.82 z"
     class="land"
     title="Chişinău"
     id="MD-CU" />
  <path
     style="fill:#cccccc;fill-opacity:1;stroke:#ffffff;stroke-width:0.5;stroke-opacity:1"
     d="m 141.98557,77.521415 3.33,-9.45 -1.1,-8.97 6.78,-8.52 -0.22,-7.21 18.14,-1.1 10.71,-6.77 14.65,6.55 9.18,-10.92 12.45,-0.86 v 0 l 2.67,9.09 v 0 l -8.68,6.85 -1.09,3.93 13.12,8.31 -5.69,6.34 -6.56,1.74 v 0 l -4.37,1.97 v 0 l -14.86,8.31 -7.21,16.61 -12.9,9.180005 10.49,11.58 -2.62,4.16 h -3.72 v 0 h -1.74 v 0 l -1.75,-3.5 -7.43,0.87 -11.94,-6.55 v 0 l 0.02,-0.44 v 0 l -2.84,-2.62 0.22,-19.890005 -6.56,-5.47 v 0 z"
     class="land"
     title="Donduşeni"
     id="MD-DO" />
  <path
     style="fill:#cccccc;fill-opacity:1;stroke:#ffffff;stroke-width:0.5;stroke-opacity:1"
     d="m 237.32557,131.23142 4.49,11.92 -3.94,10.27 v 0 2.18 0 l -7.21,13.56 -4.16,-4.59 -6.99,6.12 v 0 l -2.4,2.62 v 0 l -2.63,-3.28 -13.33,0.66 -16.39,-19.24 -11.59,-2.62 -3.93,-3.5 -3.06,-15.3 6.34,-4.37 1.31,-7.32 v 0 h 0.65 v 0 h 3.72 l 2.62,-4.16 -10.49,-11.58 12.9,-9.180005 7.21,-16.61 14.86,-8.31 v 0 l 2.81,-1.26 v 0 l 6.37,10.44 12.02,1.1 14.87,14.64 6.77,10.710005 -4.15,12.68 h -5.03 l -5.68,6.99 3.28,7.43 v 0 z"
     class="land"
     title="Drochia"
     id="MD-DR" />
  <path
     style="fill:#cccccc;fill-opacity:1;stroke:#ffffff;stroke-width:0.5;stroke-opacity:1"
     d="m 449.97557,342.66142 -7.68,3.48 -17.12,19.02 v 0 l -7.25,-5.54 v 0 l -0.94,-0.77 v 0 l 0.26,-0.08 v 0 l 6.65,-11.59 6.82,-1.53 4.43,-5.46 3.2,-8.48 9.42,-5.07 v 0 l 7.16,-0.85 11.59,-8.69 3.24,0.51 -3.07,5.97 -5.28,2.22 -3.41,7.5 -8.18,5.63 z m -11.42,-45.52 20.97,-4.94 6.31,-5.1 1.32,3.26 v 0 l -25.02,13.78 -3.75,6.14 0.17,6.65 v 0 l -0.17,3.87 v 0 l -11.08,4.4 -11.59,-2.04 1.53,-5.11 -6.14,-2.22 -4.26,-7.35 v 0 l 5.46,-2.71 1.02,-3.92 -5.28,-8.86 0.51,-3.41 h 6.82 l 0.17,-3.58 v 0 l 5.11,-3.92 v 0 l 3.18,-1.02 4.83,3.5 z"
     class="land"
     title="Dubăsari"
     id="MD-DU" />
  <path
     style="fill:#cccccc;fill-opacity:1;stroke:#ffffff;stroke-width:0.5;stroke-opacity:1"
     d="m 106.75557,50.111415 3.8,-8.93 13.33,-4.81 -1.74,15.96 2.4,9.4 10.71,11.58 6.56,3.06 v 0 l 0.65,4.37 v 0 l 6.56,5.47 -0.22,19.890005 2.84,2.62 v 0 l -0.22,3.72 v 0 l -14.86,12.67 -9.62,-1.53 -2.4,5.25 -3.06,0.87 -5.9,-4.59 -5.47,0.22 -4.59,3.06 -3.06,11.8 -3.489999,4.16 -5.69,1.53 v 0 l -4.71,-6 2.29,-6.4 -5.96,-2.4 1.87,-3.63 -8.05,-0.4 2.37,-6.42 -5.44,-0.96 -0.74,-4.14 -6.16,-4.65 0.63,-13.320005 -3.02,-3.7 v 0 l 9.66,-11.37 0.87,-16.83 4.81,-5.03 6.34,-0.87 -0.66,8.09 10.49,4.59 1.97,-3.94 4.149999,0.66 3.5,-3.28 -2.18,-5.03 2.4,-7.87 v 0 z"
     class="land"
     title="Edineţ"
     id="MD-ED" />
  <path
     style="fill:#cccccc;fill-opacity:1;stroke:#ffffff;stroke-width:0.5;stroke-opacity:1"
     d="m 165.06557,294.14142 -5.12,-2.11 3.45,-8.39 -4.11,-3.45 2.63,-9.71 -5.92,-5.75 -2.96,1.64 -9.54,-5.59 -7.5,-20.98 v 0 l 18.41,-14.28 11.61,2.2 12.65,-24.17 7,4.22 4.03,-1.91 4.51,-7.77 1.44,-10.93 v 0 l 1.2,-1.67 v 0 l 0.72,3.39 13.52,4.7 -2.4,6.14 10.36,0.09 v 0 l 0.9,-0.4 v 0 l 3.03,4.65 -4.26,5.45 1.02,2.9 12.79,15.85 -7.85,4.27 -1.19,9.71 -8.52,6.14 1.19,3.75 h 12.79 l -2.22,11.25 -5.29,1.54 v 0 l -7.5,-1.37 -4.26,12.62 -18.07,0.34 -13.47,6.48 -6.48,10.06 z"
     class="land"
     title="Făleşti"
     id="MD-FA" />
  <path
     style="fill:#cccccc;fill-opacity:1;stroke:#ffffff;stroke-width:0.5;stroke-opacity:1"
     d="m 240.06557,131.23142 19.89,0.22 12.46,3.72 11.14,-5.9 7.65,3.49 16.83,0.88 5.9,-7.22 12.46,-8.52 1.31,-3.5 -7.62,-6.36 v 0 l 3.36,-11.870005 3.78,-0.88 5.11,1.7 2.9,5.460005 9.72,1.02 2.39,4.43 -5.46,3.58 -3.58,-2.38 -1.02,4.94 -9.55,7.84 0.68,2.22 6.99,4.43 5.97,-8.52 5.11,0.68 5.46,2.56 9.72,12.1 v 0 l -2.9,2.56 -0.51,5.62 -6.48,5.12 v 7.84 l -8.69,2.73 -1.2,6.31 -6.48,0.17 1.2,-6.14 -6.99,-4.95 -16.54,7.34 -2.22,8.69 -3.75,2.22 v 6.13 l 7.33,-1.36 4.1,2.05 5.79,19.77 v 0 l -2.39,2.22 v 0 l -4.77,2.56 -1.87,5.11 -8.7,-3.07 -4.66,3.95 v 0 l -1.73,-1.73 v 0 l -31.88,-23.7 -30.45,-29.36 v 0 -2.01 0 l 3.94,-10.27 -4.49,-11.92 v 0 z"
     class="land"
     title="Floreşti"
     id="MD-FL" />
  <path
     style="fill:#cccccc;fill-opacity:1;stroke:#ffffff;stroke-width:0.5;stroke-opacity:1"
     d="m 297.04557,704.17142 11.94,2.73 v 0 l 11.08,-1.19 v 0 l 2.27,0.1 -3.46,13.72 v 0 l -8.87,3.75 1.88,17.56 15.72,-4.07 v 0 l -6.69,4.69 3.16,11.23 -9.21,4.43 -30.43,-5.09 v -1.98 0 l 2.05,-1.53 v 0 l 2.22,-3.41 v 0 l -1.53,-2.22 v 0 l -2.56,-6.65 4.6,-5.45 v 0 -9.72 0 l -2.39,-5.11 -0.17,-15.34 3.75,-1.53 z m 65.61,-38.61 1.82,8.27 -13.6,8.12 v 0 l -2,-1.39 -11.08,4.77 v 0 l -3.92,0.68 -9.38,-9.55 v 0 l 0.51,-3.92 v 0 l 23.02,-5.28 v 0 z m -43.95,0 -1.02,4.09 v 0 l -2.22,1.71 v 0 l -4.94,0.85 -2.05,-4.6 1.71,-1.7 v 0 l 1.19,-1.02 v 0 l 3.41,-1.87 z m 3.74,-149.6 7.26,3.92 5.97,-2.56 6.31,4.77 21.82,7.67 h 7.5 v 0 l 0.03,-0.32 v 0 l 4.07,6.12 8.01,5.29 1.02,3.58 -4.09,6.82 -16.2,4.43 h -9.21 l 3.07,10.91 17.73,-0.68 1.36,-3.24 5.29,-2.05 6.14,5.29 11.12,2.82 v 0 l 0.56,3.08 6.91,4.71 v 0 l -12.2,11.98 v 0 l -3.92,6.65 0.34,4.94 v 0 l 2.39,10.57 -4.26,1.53 v 0 l -8.35,6.14 -1.02,7.5 v 0 l 4.77,0.68 1.19,6.14 v 0 l 0.84,6.21 -16.02,3.44 -7.15,-13.22 v 0 l -2.05,-2.73 v 0 l -4.43,-1.87 -4.94,2.05 v 0 l -1.02,3.41 v 0 l 4.6,13.47 -1.53,2.73 -10.4,0.51 -10.57,7.5 -3.75,0.17 -9.38,-5.97 -0.68,-4.94 2.56,-0.85 v 0 l 6.14,0.17 1.02,-2.39 v 0 l -1.87,-4.09 v 0 l -8.86,-2.73 4.43,-4.09 2.39,-7.16 -2.05,-5.28 -3.92,1.53 v 0 h -1.36 v 0 l 0.34,-3.75 v 0 0 0 l -0.17,-8.69 v 0 l -2.56,-1.36 v 0 l -3.58,-15 4.43,-4.09 7.84,1.53 2.73,-11.93 v -10.06 l -10.57,-6.31 3.13,-10.83 v 0 h 2.41 v 0 l 8.18,-2.9 1.02,-3.58 -1.53,-6.99 -8.69,-10.06 0.68,-8.01 v 0 z"
     class="land"
     title="Unitatea Teritorială Autonomă Găgăuzia (UTAG)"
     id="MD-GA" />
  <path
     style="fill:#cccccc;fill-opacity:1;stroke:#ffffff;stroke-width:0.5;stroke-opacity:1"
     d="m 135.99557,239.80142 -5.66,-2.71 -4.44,-9.37 -11.35,-10.03 0.16,-3.62 -6.74,-8.56 5.92,-4.44 -0.04,-8.83 v 0 l 8.72,-12.18 1.63,-6.62 8.63,2.02 12.38,-8.73 25.22,8.06 17.45,-5.85 10.07,13.42 v 0 l 0.19,1.63 v 0 l -1.25,1.44 v 0 l -1.24,1.73 v 0 l -1.44,10.93 -4.51,7.77 -4.03,1.91 -7,-4.22 -12.65,24.17 -11.61,-2.2 z"
     class="land"
     title="Glodeni"
     id="MD-GL" />
  <path
     style="fill:#cccccc;fill-opacity:1;stroke:#ffffff;stroke-width:0.5;stroke-opacity:1"
     d="m 286.47557,367.29142 4.44,0.18 7.33,5.45 5.11,-3.07 4.09,1.88 5.12,-3.24 2.56,1.87 v 0 l 4.06,0.85 v 0 l 10.85,29.67 3.41,0.34 11.43,13.81 7.5,-1.53 6.65,11.08 0.68,4.43 -4.44,5.46 2.56,8.69 -4.26,4.26 v 0 l -2.56,2.05 v 0 l -3.58,4.09 -2.38,0.17 -1.37,-3.41 -3.41,0.34 -2.9,7.16 0.51,7.67 -2.89,3.75 h -2.9 v 0 h -6.48 v 0 l -10.23,0.69 -10.4,-9.04 -10.06,5.29 2.73,6.13 -2.39,12.79 -7.67,0.17 -6.99,-8.69 -7.62,2.05 v 0 l -9.71,-24.92 -1.64,-12.5 -8.56,-12.99 -3.29,-18.26 v 0 l 3.13,-2.47 v 0 l 1.18,-3.63 v 0 l 7.16,4.95 2.56,-2.39 11.25,0.68 -1.02,-19.09 11.76,-4.26 0.51,-16.2 v 0 z"
     class="land"
     title="Hînceşti"
     id="MD-HI" />
  <path
     style="fill:#cccccc;fill-opacity:1;stroke:#ffffff;stroke-width:0.5;stroke-opacity:1"
     d="m 412.12557,422.11142 7.08,-3.33 3.58,5.12 0.51,21.99 v 0 l -0.85,2.73 v 0 l -4.78,5.79 -11.59,7.16 v 0 l -2.9,2.9 -10.23,-0.68 v 0 l 1.37,-6.82 -2.05,-5.29 -8.35,-5.45 -4.95,3.41 -3.58,10.57 -4.09,0.17 -7.16,-10.23 -11.34,-2.11 v 0 l 0.77,-0.62 v 0 l 4.26,-4.26 -2.56,-8.69 4.44,-5.46 -0.68,-4.43 -6.65,-11.08 -7.5,1.53 -11.43,-13.81 -3.41,-0.34 -10.85,-29.67 v 0 l 0.03,0.01 v 0 l 3.41,-2.05 1.7,5.29 12.45,11.76 3.58,-1.02 v -7.34 l 5.11,-0.51 v 0 l 0.91,-1.51 v 0 l 14.95,12.68 1.02,5.11 15.68,6.99 1.88,11.94 4.26,5.8 8.36,0.51 14.83,7.84 4.09,-1.02 z"
     class="land"
     title="Ialoveni"
     id="MD-IA" />
  <path
     style="fill:#cccccc;fill-opacity:1;stroke:#ffffff;stroke-width:0.5;stroke-opacity:1"
     d="m 270.83557,536.03142 3.78,-7.56 -0.99,-9.87 -6.58,-11.19 3.62,-7.23 2.31,-21.55 v 0 l 7.62,-2.05 6.99,8.69 7.67,-0.17 2.39,-12.79 -2.73,-6.13 10.06,-5.29 10.4,9.04 10.23,-0.69 v 0 h 5.45 v 0 l 2.22,23.02 -4.09,7.84 0.51,7.5 -5.97,7.51 v 0 l -2.04,1.36 v 0 l -0.68,8.01 8.69,10.06 1.54,6.99 -1.03,3.58 -8.18,2.9 v 0 h -2.9 v 0 l -9.2,-6.82 2.72,-5.63 -1.87,-4.6 -7.67,3.07 1.02,4.94 -3.41,3.58 -8.52,-1.87 -5.29,-5.12 z"
     class="land"
     title="Leova"
     id="MD-LE" />
  <path
     style="fill:#cccccc;fill-opacity:1;stroke:#ffffff;stroke-width:0.5;stroke-opacity:1"
     d="m 241.13557,322.43142 6.3,4.03 1.88,5.46 9.38,2.56 4.6,5.11 5.96,0.17 11.26,5.12 v 0 l -1.03,1.36 v 0 l -1.36,5.8 -4.26,-0.17 0.34,2.38 11.25,7.16 2.22,4.09 v 0 l -1.37,2.05 v 0 l -0.51,16.2 -11.76,4.26 1.02,19.09 -11.25,-0.68 -2.56,2.39 -7.16,-4.95 v 0 l -1.18,3.63 v 0 l -3.13,2.47 v 0 l -2.63,-20.56 -4.97,-5.2 0.32,-8.13 -3.75,-6.3 -12.28,-9.38 -1.87,-5.63 -0.68,-7.33 5.79,-8.35 -1.36,-10.23 z"
     class="land"
     title="Nisporeni"
     id="MD-NI" />
  <path
     style="fill:#cccccc;fill-opacity:1;stroke:#ffffff;stroke-width:0.5;stroke-opacity:1"
     d="m 160.09557,8.6714152 0.45,2.1599998 15.91,6.25 8.7,-5.69 12.03,1.49 14.37,10.3 4.35,7.09 v 0 l -12.45,0.86 -9.18,10.92 -14.65,-6.55 -10.71,6.77 -18.14,1.1 0.22,7.21 -6.78,8.52 1.1,8.97 -3.33,9.45 v 0 l -0.17,-1.15 v 0 l -6.56,-3.06 -10.71,-11.58 -2.4,-9.4 1.74,-15.96 -13.33,4.81 -3.8,8.93 v 0 l -0.13,-0.41 v 0 l -10.059999,-6.99 3.15,-8.62 v 0 l 5.819999,-2 6.02,-13.64 7.84,-7.16 9.21,1.25 4.32,5.23 10.46,-8.6399998 8.52,-1.94 3.64,-6.58999997 2.39,-0.34 4.54,3.17999997 z"
     class="land"
     title="Ocniţa"
     id="MD-OC" />
  <path
     style="fill:#cccccc;fill-opacity:1;stroke:#ffffff;stroke-width:0.5;stroke-opacity:1"
     d="m 423.83557,281.03142 -3.18,1.02 v 0 l -5.12,3.92 v 0 l -0.17,3.58 -7.5,1.71 5.45,10.57 -1.02,3.92 -13.3,4.77 v 0 l -4.6,2.05 v 0 l -9.55,4.94 v 0 l -14.15,1.71 v 0 l -2.72,19.43 v 0 l -9.21,-2.89 -2.9,-9.21 h -3.07 l -5.79,-10.06 -4.95,-3.75 -1.87,-9.38 -7.68,0.51 -3.92,-3.25 v 0 l 2.05,-1.09 v 0 l 1.36,-1.54 -1.87,-2.04 -8.53,-3.07 -0.42,-15.54 v 0 l 1.53,-0.49 v 0 l 5.8,-3.92 -1.37,-7.5 3.93,-5.8 13.12,-8.86 11.08,-3.24 -2.21,-10.4 3.24,-6.65 v 0 l 0.59,-0.51 v 0 l 10.74,12.27 5.63,3.07 7.84,-1.02 10.74,-8.18 10.74,8.69 -0.51,6.99 7.85,1.02 v 0 l 5.79,6.82 6.14,-0.85 7.67,8.69 -6.31,10.75 z"
     class="land"
     title="Orhei"
     id="MD-OR" />
  <path
     style="fill:#cccccc;fill-opacity:1;stroke:#ffffff;stroke-width:0.5;stroke-opacity:1"
     d="m 341.50557,207.69142 1.58,-1.42 v 0 l 6.98,-8.69 17.73,1.87 -1.87,-10.74 1.7,-2.73 11.94,-1.19 10.4,-9.72 6.65,-13.12 v 0 l 6.14,-0.86 5.11,6.48 -2.56,20.46 0.68,45.69 6.14,5.46 v 13.8 l -2.21,-0.17 v 0 l -7.85,-1.02 0.51,-6.99 -10.74,-8.69 -10.74,8.18 -7.84,1.02 -5.63,-3.07 -10.74,-12.27 v 0 l -0.85,-1.88 v 0 l -18.24,-13.98 z"
     class="land"
     title="Rezina"
     id="MD-RE" />
  <path
     style="fill:#cccccc;fill-opacity:1;stroke:#ffffff;stroke-width:0.5;stroke-opacity:1"
     d="m 112.73557,194.51142 -8.39,-8.98 -3.45,-7.57 4.11,-1.48 -0.99,-3.94 -5.099999,-1.81 1.809999,-2.96 -2.459999,-4.77 1.31,-6.25 -11.02,-4.61 4.73,-6.26 v 0 l 5.69,-1.53 3.489999,-4.16 3.06,-11.8 4.59,-3.06 5.47,-0.22 5.9,4.59 3.06,-0.87 2.4,-5.25 9.62,1.53 14.86,-12.67 v 0 l 0.2,-3.28 v 0 l 11.94,6.55 7.43,-0.87 1.75,3.5 v 0 h 1.09 v 0 l -1.31,7.32 -6.34,4.37 3.06,15.3 3.93,3.5 11.59,2.62 16.39,19.24 13.33,-0.66 2.63,3.28 v 0 l 0.18,-0.2 v 0 l 1.65,2.15 v 0 l -0.77,1.25 v 0 l -5.75,0.29 -3.55,4.03 2.11,5.66 -12.91,-3.01 v 0 l -0.13,-1.12 v 0 l -10.07,-13.42 -17.45,5.85 -25.22,-8.06 -12.38,8.73 -8.63,-2.02 -1.63,6.62 -8.72,12.18 v 0 z"
     class="land"
     title="Rîşcani"
     id="MD-RI" />
  <path
     style="fill:#cccccc;fill-opacity:1;stroke:#ffffff;stroke-width:0.5;stroke-opacity:1"
     d="m 323.79557,199.94142 0.53,-0.49 v 0 l -5.79,-19.77 -4.1,-2.05 -7.33,1.36 v -6.13 l 3.75,-2.22 2.22,-8.69 16.54,-7.34 6.99,4.95 -1.2,6.14 6.48,-0.17 1.2,-6.31 8.69,-2.73 v -7.84 l 6.48,-5.12 0.51,-5.62 2.9,-2.56 v 0 l 9.89,0.34 7.16,12.11 -0.51,6.99 12.78,2.21 5.63,4.95 v 0 l -6.65,13.12 -10.4,9.72 -11.94,1.19 -1.7,2.73 1.87,10.74 -17.73,-1.87 -6.98,8.69 v 0 l -1.71,1.54 v 0 l -8.01,-6.99 z"
     class="land"
     title="Şoldăneşti"
     id="MD-SD" />
  <path
     style="fill:#cccccc;fill-opacity:1;stroke:#ffffff;stroke-width:0.5;stroke-opacity:1"
     d="m 220.87557,264.67142 0.56,0.25 v 0 l 5.29,-1.54 2.22,-11.25 h -12.79 l -1.19,-3.75 8.52,-6.14 1.19,-9.71 7.85,-4.27 -12.79,-15.85 -1.02,-2.9 4.26,-5.45 -3.03,-4.65 v 0 l 0.82,-0.36 v 0 l 11.61,-3.07 7.48,2.4 0.76,-3.84 -3.64,-3.26 3.84,-3.55 -0.2,-4.6 -4.7,-6.23 -7.67,7 -7.76,-4.42 -1.77,-3.83 v 0 l 0.23,-0.39 v 0 l -1.65,-2.15 v 0 l 2.22,-2.42 v 0 l 6.99,-6.12 4.16,4.59 7.21,-13.56 v 0 -0.17 0 l 30.45,29.36 31.88,23.7 v 0 l 2.56,2.56 v 0 l 1.19,17.21 -5.12,4.61 1.71,11.93 -4.6,1.88 -8.19,-3.75 -15.85,0.17 -4.09,-3.24 -4.95,2.38 -3.75,5.63 3.92,18.75 -1.84,5.28 v 0 l -14.35,-2.55 -4.27,4.09 -9.37,-6.48 -10.57,2.39 z"
     class="land"
     title="Sîngerei"
     id="MD-SI" />
  <path
     style="fill:#cccccc;fill-opacity:1;stroke:#ffffff;stroke-width:0.5;stroke-opacity:1"
     d="m 474.15557,286.93142 2.39,6.24 -2.39,2.63 2.28,10.31 6.7,1.85 8.63,-1.73 -0.21,-13.84 10.91,-3.3 2.5,0.46 1.82,4.43 3.07,22.85 -7.16,3.52 3.89,28.54 -13.47,1.02 8.89,14.09 3.64,-5 8.47,0.8 1.93,10.39 -4.49,4.09 0.12,16.57 -6.63,2.19 0.82,1.92 2.05,2.51 9.55,-2.73 2.63,8.57 10.33,-2.43 3.98,4.23 3.3,11.23 4.09,1.93 12.16,-2.27 1.25,-3.52 4.74,1.11 2.19,6.6 -2.04,2.17 4.32,7.19 6.14,-5.37 5.23,3.34 0.63,1.83 -3.17,0.17 -3.21,4.31 6.53,13.49 -0.59,23.45 -3.85,3.5 6.39,17.99 -2.05,2.9 -12.96,1.92 v 0 l -11.35,-9.14 -15.23,-1.54 -1.54,-4.45 5.65,-4.96 0.34,-8.22 -8.22,0.86 -7.87,-3.94 v 0 l -1.32,0.24 v 0 l 6.79,-13.08 -5.82,-12.66 -0.51,-8.39 -7.36,0.34 -0.34,-3.25 -4.28,-1.88 -2.57,10.61 -2.23,0.69 -7.53,-0.68 -5.82,-5.82 v 0 l -1.37,-0.34 v 0 l -1.89,-12.51 v 0 l 1.71,-3.41 v 0 l -2.39,-5.63 v 0 l -1.02,-3.75 2.22,-3.41 v 0 l 0.51,-3.58 v 0 l -8.18,-4.94 v 0 l -10.91,5.97 -6.65,-2.73 -5.8,-6.48 v 0 l 0.68,-6.14 10.23,2.05 v 0 l 1.19,-2.05 v 0 l -2.05,-3.92 3.41,-11.08 -2.39,-6.14 -11.25,-12.36 v 0 l -5.28,-7.33 -5.11,-1.36 v 0 l -0.17,-3.75 8.18,-5.63 3.41,-7.5 5.29,-2.22 3.07,-5.97 -3.24,-0.51 -11.59,8.69 -7.16,0.85 v 0 l -9.38,-5.8 v 0 l 0.17,-3.92 v 0 l -0.17,-6.65 3.75,-6.14 25.02,-13.77 v 0 l -0.37,-1.85 z m -139.7,-203.980005 19.89,7.5 0.91,4.43 12.09,-1.48 3.74,3.04 4.86,-2.47 5.8,2.73 2.84,4.660005 -2.61,17.62 13.19,18.41 8.18,-3.41 9.44,9.21 8.21,-0.24 1.74,-0.75 -1.23,-5.55 3.45,2.4 -1.07,-5.55 6.69,-0.08 -0.68,-2.97 6.54,1.31 5.84,27.1 2.58,-1.98 9.09,1.82 -11.28,16 3.52,6.48 3.27,-2.13 3.8,1.71 -2.35,11.61 -5.77,3.6 -1.66,5.34 4.33,8.78 -4.19,10.98 4.51,-0.2 -3.86,3.59 1.16,4.02 -4.55,9.98 -11.67,3.85 6.03,12.23 5.41,-0.97 -0.22,9.84 -3.98,4.26 4.79,-2.14 -1.47,8.53 2.79,0.64 7.26,-7.41 1.02,11.49 4.26,-4.85 7.78,-3.42 2.87,16.6 -3.41,3.9 -23.87,6.14 -6.48,-9.72 -8.24,-6.39 -0.62,-2.81 6.31,-10.74 -7.67,-8.69 -6.14,0.85 -2.56,-3.58 -1.02,-16.88 -6.14,-5.46 -0.68,-45.69 2.56,-20.46 -5.11,-6.48 -24.55,-6.31 0.51,-6.99 -7.16,-12.1 -9.89,-0.34 -11.08,-13.13 -9.21,-2.22 -5.97,8.52 -5.97,-2.56 -1.7,-4.09 9.55,-7.84 1.02,-4.94 3.58,2.39 5.46,-3.58 -2.39,-4.43 -9.72,-1.02 -4.6,-6.480005 -7.07,0.2 1.8,-3.21 -1.36,-4.43 7.84,-6.02 z"
     class="land"
     title="Unitatea Teritorială din Stînga Nistrului"
     id="MD-SN" />
  <path
     style="fill:#cccccc;fill-opacity:1;stroke:#ffffff;stroke-width:0.5;stroke-opacity:1"
     d="m 221.12557,42.891415 21.7,1.96 5.4,2.46 2.64,6.03 -1.02,5.76 -4.96,6.29 2.5,4.66 6.27,-1.22 8.17,-8.78 5.11,1.82 1.71,8.86 4.43,2.96 4.35,-0.68 10.71,-8.81 4.47,2.22 4.74,-1.88 2.73,3.86 v 10.12 l -2.96,5.8 -6.02,2.61 1.02,6.48 7.73,-0.91 3.3,-6.14 7.61,-1.36 -0.15,18.900005 5.95,4.4 3.53,-0.26 v 0 l 7.62,6.36 -1.31,3.5 -12.46,8.52 -5.9,7.22 -16.83,-0.88 -7.65,-3.49 -11.14,5.9 -12.46,-3.72 -19.89,-0.22 v 0 h -3.5 v 0 l -3.28,-7.43 5.68,-6.99 h 5.03 l 4.15,-12.68 -6.77,-10.710005 -14.87,-14.64 -12.02,-1.1 -6.37,-10.44 v 0 l 1.56,-0.71 v 0 l 6.56,-1.74 5.69,-6.34 -13.12,-8.31 1.09,-3.93 8.68,-6.85 v 0 z"
     class="land"
     title="Soroca"
     id="MD-SO" />
  <path
     style="fill:#cccccc;fill-opacity:1;stroke:#ffffff;stroke-width:0.5;stroke-opacity:1"
     d="m 368.03557,338.61142 1.98,3.79 v 0 l -0.68,4.27 -5.29,3.58 -0.68,4.94 v 0 l -2.04,4.26 -9.55,1.71 -5.46,3.58 -2.04,5.96 2.21,4.95 v 0 l -1.02,1.7 v 0 l -5.11,0.51 v 7.34 l -3.58,1.02 -12.45,-11.76 -1.7,-5.29 -3.41,2.05 v 0 l -4.09,-0.86 v 0 l -2.56,-1.87 -5.12,3.24 -4.09,-1.88 -5.11,3.07 -7.33,-5.45 -4.44,-0.18 v 0 l 1.2,-1.79 v 0 l -2.22,-4.09 -11.25,-7.16 -0.34,-2.38 4.26,0.17 1.36,-5.8 v 0 l 0.51,-0.67 v 0 l 11.94,0.5 12.1,-5.8 3.24,-4.77 5.29,-0.51 1.7,-6.82 -2.21,-7.5 -5.63,-1.88 0.68,-1.87 8.53,-3.58 3.92,-5.46 6.65,-1.36 1.87,-5.63 v 0 l 0.51,-0.27 v 0 l 3.92,3.25 7.68,-0.51 1.87,9.38 4.95,3.75 5.79,10.06 h 3.07 l 2.9,9.21 9.21,2.89 v 0 z"
     class="land"
     title=" Străşeni"
     id="MD-ST" />
  <path
     style="fill:#cccccc;fill-opacity:1;stroke:#ffffff;stroke-width:0.5;stroke-opacity:1"
     d="m 563.51557,497.08142 9.72,8.65 8.35,0.68 2.39,8.18 9.21,11.94 2.46,0.43 2.65,-3.33 7.33,5.11 5.63,-1.02 -0.51,4.94 -15.35,9.38 -17.9,-0.85 -5.8,-2.56 -5.62,3.75 -2.22,6.48 -3.41,1.02 -5.96,-4.26 -6.05,-10.45 -3.16,-12.39 -7.5,-5.8 1.19,5.8 -1.87,4.6 -12.04,-1.43 1.47,14.56 -5.63,4.09 h -7.33 l -6.49,-4.08 -1.69,-10.58 -10.16,-2.32 -3.82,-11.66 -5.8,-2.73 v 0 l -8.06,-9.2 -0.51,-4.62 8.56,-5.14 -4.8,-5.13 9.59,-7.53 5.82,2.22 8.04,-7.01 8.9,-0.17 3.26,-4.11 5.3,-1.2 1.71,-5.31 v 0 l 1.89,-0.34 v 0 l 7.87,3.94 8.21,-0.86 -0.34,8.22 -5.65,4.96 1.54,4.45 15.24,1.54 z"
     class="land"
     title="Ştefan Vodă"
     id="MD-SV" />
  <path
     style="fill:#cccccc;fill-opacity:1;stroke:#ffffff;stroke-width:0.5;stroke-opacity:1"
     d="m 329.27557,640.33142 -1.02,2.39 -6.14,-0.17 v 0 l -2.56,0.85 0.68,4.94 9.38,5.97 3.75,-0.17 10.57,-7.5 10.4,-0.51 1.53,-2.73 -4.6,-13.47 v 0 l 1.02,-3.41 v 0 l 4.94,-2.05 4.43,1.88 v 0 l 2.05,2.73 v 0 l 7.15,13.22 -9.97,5.19 1.76,18.07 v 0 l -14.63,1.7 v 0 l -23.02,5.29 v 0 l -0.51,3.92 v 0 l 9.38,9.55 3.92,-0.68 v 0 l 11.08,-4.77 2,1.39 v 0 l -1.4,7.73 -4.09,2.56 -11.93,1.19 -1.19,11.59 -8.44,0.32 v 0 l 2.9,-6.54 -4.94,-5.8 v -5.28 l -2.73,-2.05 -2.73,3.24 -5.28,-7.16 -8.87,-1.7 -1.87,-2.39 -2.05,-10.91 10.4,-1.02 v 0 l 1.88,6.48 4.94,-0.85 v 0 l 2.22,-1.7 v 0 l 1.02,-4.09 -5.28,-3.41 v 0 l -6.14,-7.5 -1.87,-18.07 2.9,-14.15 9.79,-3.92 v 0 h 1.29 v 0 l 3.92,-1.53 2.05,5.29 -2.39,7.16 -4.43,4.09 8.87,2.73 v 0 z m 76.12,-15.35 -1.36,5.88 -5.28,4.09 -11.86,3.9 -0.84,-6.21 v 0 l -1.19,-6.14 -4.77,-0.68 v 0 l 1.02,-7.5 8.35,-6.14 v 0 l 4.26,-1.53 -2.39,-10.57 v 0 l -0.34,-4.94 3.92,-6.65 v 0 l 12.2,-11.98 v 0 l 8,4.56 2.3,4.67 -0.59,4.2 -6.99,6.22 -2.23,5.89 -8.35,5.79 -1.19,4.01 z"
     class="land"
     title="Taraclia"
     id="MD-TA" />
  <path
     style="fill:#cccccc;fill-opacity:1;stroke:#ffffff;stroke-width:0.5;stroke-opacity:1"
     d="m 356.82557,229.82142 -0.53,0.66 v 0 l -3.24,6.65 2.21,10.4 -11.08,3.24 -13.12,8.86 -3.93,5.8 1.37,7.5 -5.8,3.92 v 0 l -4.26,1.37 v 0 l -20.97,4.77 -24.72,-5.46 v 0 l -11.56,-5.63 v 0 l 1.84,-5.28 -3.92,-18.75 3.75,-5.63 4.95,-2.38 4.09,3.24 15.85,-0.17 8.19,3.75 4.6,-1.88 -1.71,-11.93 5.12,-4.61 -1.19,-17.21 v 0 l -0.83,-0.83 v 0 l 4.66,-3.95 8.7,3.07 1.87,-5.11 4.77,-2.56 v 0 l 1.86,-1.73 v 0 l 9.57,0.88 8.01,6.99 v 0 l 0.13,-0.12 v 0 l -3.71,6.42 18.24,13.98 v 0 z"
     class="land"
     title="Teleneşti"
     id="MD-TE" />
  <path
     style="fill:#cccccc;fill-opacity:1;stroke:#ffffff;stroke-width:0.5;stroke-opacity:1"
     d="m 242.08557,385.01142 -3.85,-4.82 -14.97,-5.43 -1.32,-4.77 -15.62,-12.5 0.16,-4.44 -6.74,-2.79 -0.99,-9.87 -13.16,-28.62 -5.09,1.64 -7.9,-4.93 -7.24,-9.71 -0.35,-4.59 6.64,-1.08 6.48,-10.06 13.47,-6.48 19.61,-1.36 2.72,-11.6 6.94,1.12 1.76,4.68 10.57,-2.39 9.37,6.48 7.34,-4.09 11.28,2.55 8.21,4.93 -1.85,15.36 -12.79,10.57 -11.42,18.08 -16.19,10.4 2.55,7.84 -5.79,8.35 0.68,7.33 1.87,5.63 14.66,13.3 z"
     class="land"
     title="Ungheni"
     id="MD-UN" />
     <g id="stadiums" data-country="moldova"></g>
</svg>
