<?xml version="1.0" encoding="UTF-8" standalone="no"?>
<?xml-stylesheet type="text/css" href="/styles/home.css"?>
<!-- https://www.amcharts.com/svg-maps -->

<svg version="1.1" xmlns="http://www.w3.org/2000/svg" id="map-monaco"
   viewBox="0 0 799.81207 977.16534">
  <defs
     id="defs4">
    <style
       type="text/css"
       id="style2">
			.land
			{
				fill: #CCCCCC;
				fill-opacity: 1;
				stroke:white;
				stroke-opacity: 1;
				stroke-width:0.5;
			}
		</style>
    <!-- <amcharts:ammap
       projection="mercator"
       leftLongitude="7.3991049"
       topLatitude="43.7519029"
       rightLongitude="7.4398113"
       bottomLatitude="43.7247427" /> -->
    <!-- All areas are listed in the line below. You can use this list in your script. -->
    <!--{id:"MC"}-->
  </defs>
  <path
     style="fill:#cccccc;fill-opacity:1;stroke:#ffffff;stroke-width:0.5;stroke-opacity:1"
     inkscape:connector-curvature="0"
     d="m 724.08036,0.6421199 17.79,26.0500001 -41.96,43.62 -105.64,40.43 -32.91,-5.64 -48.07,88.17 -18.96,94.32 -56.61,74.36 -35.71,36.45 -39.73,-30.4 -19.45,10.53 -41.27,61.72 -206.940005,180.49 6.390005,107.11 -61.280005,21.01 -39.37999997,54.88 246.49000497,173.11 141.62,-115.12 -41.24,15.25 -22.08,-46.98 -57.86,6.78 -1.24,-15.87 -15.86,0.92 -2.38,-33.68 14.09,-4.75 -40.97,-5.77 30.08,-22.94 43.12,38.04 34.17,-10.12 30.29,61.12 -0.63,-34 37.21,-0.3 89,-65.35 15.41,-56.57 99.28,-129.29 -79.27,82.56 -45.04,-30.53 10.25,48.15 -80.27,23.31 -1.3,-27.59 -13.59,2.35 12.59,25.87 -19.58,5.59 -30.32,-45.6 -1.78,-17.23 9.96,17.34 8.92,-20.94 7.4,19.13 -8.99,-47.03 -0.43,20.52 -15.51,-16.12 -3.49,19.87 -10.29,-58.76 75.11,-22 18.29,1.36 4.25,21.4 -3.47,-25.43 27.73,-3.66 16.71,50.31 -7,-48.38 51.74,-14.66 25.18,39.43 -17.48,-42.74 29.97,-64.81 -1.12,-55.01 77.42,-140.37 -17.51,1.3 5.12,-32.69 24.08,-11.93 9.05,11.52 -8.92,-13.87 24.27,-25.6 22.12,0.77 -6.1,16.38 11.31,-0.62 15.9,-45.63 34.84,48.79 49.93,-10.04 -13.07,-89.16 -25.34,-17.38 6.03,-64.62 z"
     class="land"
     title="Monaco"
     id="MC" />
</svg>
