<?xml version="1.0" encoding="UTF-8" standalone="no"?>
<?xml-stylesheet type="text/css" href="/styles/home.css"?>
<!-- https://www.amcharts.com/svg-maps -->

<svg version="1.1" xmlns="http://www.w3.org/2000/svg" id="map-montenegro"
   viewBox="0 0 735.30414 735.30414" width="735.30414" height="735.30414" class="">

  <defs
     id="defs4">
    <style
       type="text/css"
       id="style2">
			.land
			{
				fill: #CCCCCC;
				fill-opacity: 1;
				stroke:white;
				stroke-opacity: 1;
				stroke-width:0.5;
			}
         .rectangle:hover {
         fill: #bdbdbd;
         cursor: pointer;
         }
		</style>
    <amcharts:ammap
       projection="mercator"
       leftLongitude="18.438452"
       topLatitude="43.565072"
       rightLongitude="20.376768"
       bottomLatitude="41.849068" />
    <!-- All areas are listed in the line below. You can use this list in your script. -->
    <!--{id:"ME-01"},{id:"ME-02"},{id:"ME-03"},{id:"ME-04"},{id:"ME-05"},{id:"ME-06"},{id:"ME-07"},{id:"ME-08"},{id:"ME-09"},{id:"ME-10"},{id:"ME-11"},{id:"ME-12"},{id:"ME-13"},{id:"ME-14"},{id:"ME-15"},{id:"ME-16"},{id:"ME-17"},{id:"ME-18"},{id:"ME-19"},{id:"ME-20"},{id:"ME-21"},{id:"ME-SLK"}-->
  </defs>
  <rect id="background" class="rectangle" stroke-width="0" stroke="#000" width="735.30414" height="735.30414" y="0" x="0" fill="#d3d3d3" />
  <path
     
     d="m 523.80792,377.5897 -0.47,0.23 v 0 l -11.27,4.34 -13.88,14.74 -2.6,6.94 -1.3,8.24 -9.97,2.6 -3.5,2.41 v 0 l -1.74,-1.79 -1.55,-3.85 -2.28,-1.58 -0.94,-5.52 2.14,-2.73 -0.12,-1.63 -4.61,-1.84 -3,-6.5 -1.55,-1.28 -7.14,2.39 -1.7,2.14 0.06,2.44 -5.49,6.37 -1.58,0.47 -3.63,-0.94 -2.59,3.01 v 0 l -3.88,-6.7 -4.34,-12.58 v 0 l -2.1,-2.91 v 0 l 5.14,-2.12 3.03,-4.33 v -6.51 l 4.34,-2.17 1.3,-6.93 -3.47,-2.6 -0.87,-9.54 2.6,-5.21 0.44,-5.2 -6.51,-4.77 -4.77,-5.64 -1.3,-6.5 5.64,-6.07 v 0 l 6.59,-1.94 v 0 l 41.72,23.83 7.8,2.61 9.11,0.86 3.9,-3.47 4.33,0.44 -0.43,6.07 -2.6,3.9 -5.2,4.34 v 5.2 l 3.9,5.2 3.03,6.07 z"
     class="land"
     title="Andrijevica"
     id="ME-01" />
  <path
     
     d="m 266.22792,540.4897 -0.19,0.2 v 0 l 7.37,8.67 1.3,4.77 0.43,8.67 1.74,6.07 3.03,3.47 11.71,2.17 h 6.5 l 3.04,1.3 3.03,6.94 4.77,16.91 5.64,4.34 3.04,6.5 13,4.34 8.24,10.84 8.34,6.08 v 0 l -0.1,-0.01 v 0 l -3.47,5.2 -4.33,3.04 -6.94,-1.3 -3.04,1.3 h -4.33 l -5.64,-3.9 -2.17,-4.34 -3.47,-2.17 -5.63,4.34 v 4.33 l 5.63,1.74 0.87,1.73 -3.47,7.81 -0.43,3.9 2.6,2.17 1.73,3.47 3.04,0.86 1.73,8.68 -1.73,3.9 -4.34,1.73 -4.77,-0.86 -14.31,-7.37 -9.88,0.56 v 0 l 0.09,-1.45 -2.4,-1.31 0.1,-0.98 1.39,-0.42 0.31,-2.79 -2.62,-1.66 0.79,-1.06 -0.38,-4.02 -16.16,-12.16 -1.77,-1.66 0.57,-0.46 -4.9,-4.2 -0.16,-0.97 1.77,-0.13 3.03,1.23 -0.47,-1.7 1.39,0.51 -0.63,-1.78 0.82,0.3 0.63,-0.89 0.09,-1.7 -2.05,-5.13 -5.37,-4.49 -2.08,-0.47 0.69,-1.74 -1.13,-3.01 -2.72,-1.62 -7.96,0.64 -1.48,-2.03 -3.13,3.09 -3,-6.45 0.63,-3.56 -1.79,-2.52 v 0 l 5.32,-10.56 3.9,-3.9 -2.6,-6.94 -3.9,-5.2 -11.28,-9.97 -2.17,-8.24 -4.33,-10.41 v 0 l 4.77,-0.87 v 0 l 10.84,3.91 2.6,3.9 8.24,0.87 5.63,-2.61 0.87,-3.46 -3.9,-7.81 1.73,-3.47 6.07,-0.87 5.21,2.17 z"
     class="land"
     title="Bar"
     id="ME-02" />
  <path
     
     d="m 523.80792,377.5897 -11.31,-8.01 -3.03,-6.07 -3.9,-5.2 v -5.2 l 5.2,-4.34 2.6,-3.9 0.43,-6.07 -4.33,-0.44 -3.9,3.47 -9.11,-0.86 -7.8,-2.61 -41.72,-23.83 v 0 l 0.78,-0.23 v 0 l -3.9,-12.58 1.3,-10.4 v 0 l -0.9,0.1 v 0 l 8.7,-8.34 v 0 l 1.59,-2.11 v 0 l 7.69,0.81 8.68,-2.61 7.8,-3.46 9.11,-9.98 6.94,-2.6 3.9,1.74 2.6,3.03 4.77,1.3 6.5,1.3 7.37,-1.3 5.21,-4.33 20.38,-6.94 4.33,-4.77 4.34,-1.74 8.67,-0.86 6.07,-3.04 4.77,-2.6 4.96,-6.82 v 0 l 6.86,3.25 8.18,8.69 3.13,2.15 4.14,-0.64 4.51,-3.02 1.61,-0.17 v 0 l -0.87,12.17 -5.63,8.24 -1.74,9.1 -9.97,9.54 -0.87,9.98 -3.03,9.97 -7.81,6.51 -6.94,8.67 2.61,13.87 1.79,3.39 v 0 l -1.39,2.47 -0.85,4.55 -4.17,6.47 5.12,13.88 3.66,1.62 2.17,2.48 v 0 l -27.58,3.95 -21.25,-0.87 v 0 z"
     class="land"
     title="Berane"
     id="ME-03" />
  <path
     
     d="m 578.59792,238.0997 -4.96,6.82 -4.77,2.6 -6.07,3.04 -8.67,0.86 -4.34,1.74 -4.33,4.77 -20.38,6.94 -5.21,4.33 -7.37,1.3 -6.5,-1.3 -4.77,-1.3 -2.6,-3.03 -3.9,-1.74 -6.94,2.6 -9.11,9.98 -7.8,3.46 -8.68,2.61 -7.69,-0.81 v 0 l 1.02,-1.36 v 0 l -12.14,-9.11 -2.61,-3.9 4.77,-9.1 v -6.94 l -5.2,-6.94 -7.37,-4.77 -17.78,-1.73 -7.37,-2.17 -13.44,-8.68 -9.11,-0.86 -7.8,-3.47 v 0 l -0.53,0.16 v 0 l 2.26,-7.1 -0.43,-9.97 3.46,-5.21 4.77,-3.9 h 7.38 l 2.6,-5.2 0.43,-6.51 4.34,-2.6 2.6,-3.03 v -5.64 l -2.6,-4.34 v -3.9 l 5.2,-3.03 3.04,-5.64 3.9,-2.17 2.17,-14.74 -3.47,-5.64 0.83,-4.16 v 0 l 19.29,11.71 8.62,16.62 12,7.86 15.12,4.14 5.44,3.41 0.82,-0.34 1.23,-6.61 2.53,-2.24 1.95,0.73 3.48,4.92 0.34,5.35 3.79,6.82 1.9,8.88 10.89,0.99 4.04,5.04 3.92,-3.1 5.46,3.97 7.05,0.99 12.28,-1.29 5.27,-5.82 2.97,-0.48 6.03,13.45 2.56,1.81 2.72,4.78 12.95,14.99 7.35,6.2 z"
     class="land"
     title="Bijelo Polje"
     id="ME-04" />
  <path
     
     d="m 222.92792,546.5597 -1.12,0.2 v 0 l 4.33,10.41 2.17,8.24 11.28,9.97 3.9,5.2 2.6,6.94 -3.9,3.9 -5.32,10.56 v 0 l -1.93,1.03 -0.44,-1.74 -1.24,0.34 -0.18,-1.44 -5.31,-3.4 -0.54,-1.61 1.46,-3.57 -2.85,-3.73 -3.12,-0.22 -0.41,-1.99 -1.42,0.04 -1.9,-2.25 -4.29,-0.38 -0.64,-2.43 -1.54,-0.17 -3.82,-3.01 -0.92,-4.97 -2.97,-3.06 0.92,-1.41 -0.79,-2.33 0.5,-1.49 -1.51,-2.59 -0.38,-4.68 -1.71,-2.68 -1.61,-0.21 v -2.09 l -4.29,-0.12 -1.61,0.59 -0.41,1.28 -2.69,-3.74 -2.14,0.04 -2.28,1.27 0.25,1.96 -2.96,1.53 -3.7,-1.7 -0.65,-1.93 v 0 -4.36 l -1.3,-1.3 3.9,-9.97 -3.47,-3.04 -1.3,-2.6 -1.3,-3.9 1.73,-3.04 v 0 l 4.34,-2.17 v 0 l 3.9,0.87 3.9,3.47 16.91,5.64 9.11,1.3 z"
     class="land"
     title="Budva"
     id="ME-05" />
  <path
     
     d="m 287.71792,527.8597 v -1.05 0 l -8.68,-3.9 -3.46,2.17 -5.21,-1.73 -3.47,-3.47 h -3.47 l -2.16,4.77 5.63,8.23 0.87,6.08 v 0 l -1.54,1.53 v 0 l -2.36,-1.97 -5.21,-2.17 -6.07,0.87 -1.73,3.47 3.9,7.81 -0.87,3.46 -5.63,2.61 -8.24,-0.87 -2.6,-3.9 -10.84,-3.91 v 0 l -3.65,0.67 v 0 l -6.76,-14.54 -9.11,-1.3 -16.91,-5.64 -3.9,-3.47 -3.9,-0.87 v 0 l -3.13,1.57 v 0 l -1.21,-14.79 -7.8,-8.24 -2.61,-4.77 0.87,-4.77 3.47,-4.34 0.43,-6.93 -1.73,-12.58 -2.17,-7.37 -6.07,-6.5 -6.07,-2.17 -5.2,-6.94 -5.21,-13.44 -9.97,-11.71 v 0 l -4.04,-12.11 v 0 l 6.21,-1.33 5.2,-3.04 v -17.78 l 8.67,-7.37 0.44,-9.1 h 5.64 l 13,8.67 16.05,-0.43 6.07,3.9 8.24,9.97 13.44,7.81 3.9,4.33 v 0 l 2.17,8.68 v 0 l -0.87,7.37 6.94,1.73 4.77,3.47 3.47,8.24 4.77,2.17 4.77,4.77 -1.3,3.46 -7.37,3.91 v 9.1 0 l -8.24,3.04 v 0 l 0.43,3.9 12.58,3.9 5.63,6.07 2.6,5.21 7.38,5.2 3.9,1.3 5.64,12.58 4.33,5.2 13.44,8.67 4.34,3.91 2.6,9.53 z"
     class="land"
     title="Cetinje"
     id="ME-06" />
  <path
     
     d="m 235.67792,454.3397 0.44,-0.16 v 0 -9.1 l 7.37,-3.91 1.3,-3.46 -4.77,-4.77 -4.77,-2.17 -3.47,-8.24 -4.77,-3.47 -6.94,-1.73 0.87,-7.37 v 0 l -0.52,-2.07 v 0 l 13.96,0.33 5.64,-3.47 -0.43,-9.1 0.86,-10.84 4.77,-6.08 12.58,-8.23 7.8,0.43 9.11,3.47 h 19.51 l 9.54,1.3 4.77,-3.47 -6.5,-6.5 -3.47,-6.07 -0.44,-4.34 3.91,-2.17 3.03,-3.03 v 0 h 3.47 v 0 l 6.07,3.46 3.9,18.65 9.98,11.71 v 0 l 1.73,4.33 v 0 l -10.84,6.94 -0.43,9.54 2.17,5.64 -1.74,8.24 -10.41,5.2 -2.6,8.67 2.17,19.95 -1.3,5.2 -6.07,7.37 -5.64,3.91 -12.57,-6.51 -4.34,3.47 -10.41,-0.43 -8.67,1.73 -3.47,-5.63 -7.37,-1.74 z"
     class="land"
     title="Danilovgrad"
     id="ME-07" />
  <path
     
     d="m 124.82792,495.1297 0.72,6.32 3.9,2.6 1.68,2.99 v 0 l -2.17,1.24 v 2.47 l 1.58,1.66 -1.99,1.62 v 2.38 l -2.46,-0.6 -0.41,-1.96 -1.2,-0.72 -2.72,0.21 0.51,2.13 -0.79,1.23 -3.47,-1.02 -0.6,-1.4 -2.65,1.66 0.06,-1.75 -1.14,-0.94 -1.8,0.51 -0.19,-1.28 -3.28,-2 0.6,-1.87 -1.89,0.34 -0.85,-1.75 -2.31,-0.38 -1.99,-2.6 2.56,-1.24 -0.6,-0.98 1.14,-0.94 -6.819997,-2.47 -0.41,-2.94 -3.06,-0.64 -0.32,-3.49 4.39,-4.01 2.529997,-0.64 14.65,4.09 z m -40.709997,-73.98 6.19,0.3 1.05,-0.63 v 0 l 6.87,9.52 3.469997,9.54 2.6,3.04 5.2,3.9 15.61,2.6 6.94,3.47 1.62,4.06 v 0 l -5.69,4.18 -0.38,1.19 1.33,0.9 4.55,0.3 5.81,2.9 -3.92,6.02 -0.32,1.45 0.82,1.07 -0.76,1.11 -4.64,2.22 -1.17,1.45 -2.12,0.04 -5.97,3.97 -9.63,2.86 -7.07,-3.79 -3.35,-4.39 -2.209997,-0.43 -2.37,1.58 -5.59,0.17 -6.32,-4.01 -3.16,2.6 -0.54,1.58 2.34,4.26 5.84,5.88 -2.24,2.43 -3.41,-0.85 -20.7,-24.37 -0.6,-6.4 2.84,-3.71 0.47,-2.13 -5.33,-19.05 0.35,-3.33 6.28,-0.26 6.88,-1.54 6.95,-9.66 z"
     class="land"
     title="Herceg-Novi"
     id="ME-08" />
  <path
     
     d="m 434.77792,384.0597 -3.54,-4.89 v 0 l -9.1,-0.44 -5.21,-6.07 -4.77,-14.31 -9.54,-0.86 -5.63,0.86 -3.9,17.35 -13.45,2.6 -0.86,5.64 -13.88,5.63 -5.2,3.91 -6.94,-0.87 -7.81,-3.9 -4.77,1.3 -5.63,-3.47 -4.7,0.83 v 0 l -1.37,-3.43 v 0 l -9.98,-11.71 -3.9,-18.65 -6.07,-3.46 v 0 h -2.01 v 0 l -5.36,-4.6 -2.17,-4.77 0.87,-10.41 3.9,-3.47 2.6,-5.2 -1.3,-4.77 -3.47,-5.64 -5.63,-5.2 v 0 l -1.12,0.08 v 0 l -1.05,-7.02 6.94,-7.8 0.86,-3.91 9.54,-1.3 4.77,1.3 26.45,-2.16 6.07,-4.77 v 0 l 1.97,-6.31 v 0 l 6.71,0.24 4.77,6.5 7.37,4.34 8.67,1.73 6.94,3.04 15.17,1.3 4.34,-2.6 6.94,-1.74 6.94,3.04 7.37,-0.87 5.63,3.47 6.51,-0.44 v 0 l 7.37,-0.86 v 0 l -1.3,10.4 3.9,12.58 v 0 l -7.37,2.17 v 0 l -5.64,6.07 1.3,6.5 4.77,5.64 6.51,4.77 -0.44,5.2 -2.6,5.21 0.87,9.54 3.47,2.6 -1.3,6.93 -4.34,2.17 v 6.51 l -3.03,4.33 z"
     class="land"
     title="Kolašin"
     id="ME-09" />
  <path
     
     d="m 133.66792,456.9397 -1.62,-4.06 -6.94,-3.47 -15.61,-2.6 -5.2,-3.9 -2.6,-3.04 -3.469997,-9.54 -6.87,-9.51 v 0 l 1.57,-1.38 0.09,-1.53 -4.24,-3.82 v 0 l 10.75,-1.53 26.009997,-9.54 6.07,1.73 v 0 l 4.34,13.01 v 0 l 9.97,11.71 5.21,13.44 5.2,6.94 6.07,2.17 6.07,6.5 2.17,7.37 1.73,12.58 -0.43,6.93 -3.47,4.34 -0.87,4.77 2.61,4.77 7.8,8.24 1.21,14.79 v 0 l -1.21,0.6 v 0 l -1.73,3.04 1.3,3.9 1.3,2.6 3.47,3.04 -3.9,9.97 1.3,1.3 v 4.36 0 l -2.06,-1.05 -2.5,1.79 0.95,3.1 -6.13,-4.04 0.63,5.28 -2.11,1.23 -1.58,-0.51 -7.74,-8.63 -0.09,-1.49 -4.46,-4.64 -1.16,0.04 0.34,-1.48 -2.14,-0.77 -0.13,-1.11 -5.91,-4.93 2.47,-2.47 -2.02,-2.34 0.19,-2.6 -3.98,-3.15 -2.66,-3.7 0.32,-1.15 h 1.33 l 4.04,1.74 -1.66,-2.59 v 0 l 2.41,-0.54 8.52,-7.14 3.02,-3.99 0.97,-7.55 5.19,-7.24 v 0 l 0.56,-3.62 -1.93,-4.01 1.05,-2.47 -0.67,-17.75 -1.92,-0.25 -7.99,2.86 -6.79,-0.09 -3.16,-0.98 -2.94,-2.35 0.1,-4.78 1.45,-2.98 -1.8,-3.25 -1.74,0.69 -2.05,4.18 z"
     class="land"
     title="Kotor"
     id="ME-10" />
  <path
     
     d="m 444.21792,291.4197 -6.47,0.76 v 0 l -6.51,0.44 -5.63,-3.47 -7.37,0.87 -6.94,-3.04 -6.94,1.74 -4.34,2.6 -15.17,-1.3 -6.94,-3.04 -8.67,-1.73 -7.37,-4.34 -4.77,-6.5 -6.71,-0.24 v 0 l 0.2,-0.63 v 0 l -3.47,-6.94 -6.94,-0.87 -2.6,-6.07 -1.73,-8.24 v 0 l -0.2,-0.1 v 0 l 1.93,-2.06 v -9.11 l 19.08,-2.6 2.17,-9.97 4.34,-3.47 v 0 l -0.19,-0.13 v 0 l 7.56,0.13 v 0 l 6.94,-2.17 v 0 l 7.8,3.47 9.11,0.86 13.44,8.68 7.37,2.17 17.78,1.73 7.37,4.77 5.2,6.94 v 6.94 l -4.77,9.1 2.61,3.9 12.14,9.11 v 0 l -2.61,3.47 v 0 z"
     class="land"
     title="Mojkovac"
     id="ME-11" />
  <path
     
     d="m 306.51792,350.1197 h -1.46 v 0 l -3.03,3.03 -3.91,2.17 0.44,4.34 3.47,6.07 6.5,6.5 -4.77,3.47 -9.54,-1.3 h -19.51 l -9.11,-3.47 -7.8,-0.43 -12.58,8.23 -4.77,6.08 -0.86,10.84 0.43,9.1 -5.64,3.47 -13.96,-0.33 v 0 l -1.65,-6.61 v 0 l -3.9,-4.33 -13.44,-7.81 -8.24,-9.97 -6.07,-3.9 -16.05,0.43 -13,-8.67 h -5.64 l -0.44,9.1 -8.67,7.37 v 17.78 l -5.2,3.04 -6.21,1.33 v 0 l -0.3,-0.9 v 0 l -6.07,-1.73 -26.009997,9.54 -10.75,1.53 v 0 l -2.68,-6.46 3.73,-10.15 5.12,-0.27 7.549997,-2.22 -3.349997,-19.26 3.379997,-8.35 -0.92,-3 -3.189997,-2.27 -5.71,1.97 -7.36,-0.85 -2.27,-2.79 -0.07,-2.1 -4.73,-7.45 -4.93,-1.07 -1.45,-1.5 1.35,-6.56 -1.95,-2.66 -0.29,-4.11 -1.29,-1.33 0.69,-1.12 2.97,0.13 2.91,-1.11 1.13,-1.68 0.1,-2.1 -3.73,-10.81 0.38,-6.43 3.28,-6.19 2.88,-2.66 -0.82,-5.96 3.69,-2.32 0.38,-1.08 -0.19,-1.8 -2.65,-1.2 -2.97,-5.07 0.13,-6.66 -2.56,-4.13 0.06,-1.72 4.48,-3.39 6.13,-12.69 4.39,-13.33 5.88,-6.41 3.66,-0.48 27.439997,5.47 15.6,-4.95 -0.22,-3.18 -11.51,-28.28 v 0 l 12.51,-2.08 9.1,3.03 7.37,6.07 10.41,31.22 9.97,19.52 6.07,5.63 4.77,2.6 37.73,0.44 v 0 l 3.47,6.93 v 0 l 4.33,1.74 18.65,11.71 10.84,4.77 11.71,11.27 v 0 l 17.78,-1.3 v 0 l 5.63,5.2 3.47,5.64 1.3,4.77 -2.6,5.2 -3.9,3.47 -0.87,10.41 2.17,4.77 z"
     class="land"
     title="Nikšić"
     id="ME-12" />
  <path
     
     d="m 480.81792,417.0897 3.5,-2.41 9.97,-2.6 1.3,-8.24 2.6,-6.94 13.88,-14.74 11.27,-4.34 v 0 l 6.94,-3.47 v 0 l 21.25,0.87 27.58,-3.95 v 0 l 1.43,1.42 3.57,0.56 2.52,1.41 5.24,8.39 5.28,4.02 0.25,1.16 -10.7,13.43 -3.7,1.97 -3.25,4.02 -0.32,7.18 1.93,6.58 -4.8,13.89 -5.72,-1.5 -2.55,3.67 -10.01,3.25 -0.73,1.49 0.22,4.02 -3.38,8.24 -7.64,-1.2 -4.9,1.03 -3.63,-0.64 -2.9,-2.39 -3.45,0.64 -5.81,3.84 -2.36,0.3 -0.6,5.97 -2.21,2.9 -6.16,-4.56 -3.1,5.97 -4.29,-0.6 -1.71,1.92 -3.47,0.09 -0.22,3.03 -1.77,2.39 -3.85,-1.33 -8.5,-5.5 -3.98,-6.14 -4.73,-2.48 -1.55,-8.24 -5.15,-9.82 0.16,-1.24 1.77,-0.85 -0.1,-2.56 1.65,-3.42 -1.8,-4.32 1.23,-3.16 6.25,0.05 1.07,-0.73 -0.41,-4.62 z"
     class="land"
     title="Plav"
     id="ME-13" />
  <path
     
     d="m 413.42792,129.3197 -0.83,4.16 3.47,5.64 -2.17,14.74 -3.9,2.17 -3.04,5.64 -5.2,3.03 v 3.9 l 2.6,4.34 v 5.64 l -2.6,3.03 -4.34,2.6 -0.43,6.51 -2.6,5.2 h -7.38 l -4.77,3.9 -3.46,5.21 0.43,9.97 -2.26,7.1 v 0 l -6.41,2.01 v 0 l -7.56,-0.13 v 0 l -7.19,-5.08 v 0 l -6.93,-14.74 -8.68,-1.3 -4.77,-7.37 -7.8,-5.21 -3.04,-5.63 -8.24,-3.47 -3.46,-3.04 -12.58,-4.77 -12.57,-13.44 h -12.14 l -4.77,5.64 h -13.88 l -3.04,-4.77 -5.2,0.43 -0.87,-10.84 -1.73,-8.24 0.87,-5.63 -1.17,-1.64 v 0 l 3.23,-5.73 3.51,-3.85 4.32,-1.9 9.95,-1.04 1.49,-11.76 -1.65,-5.58 -6.41,-11.940004 -9.75,-11.9 -5.34,-12.51 -0.98,-3.86 v -6.539999 l -2.05,-3.51 -0.1,-3.43 -2.27,-0.73 -1.83,2.47 -3.32,-5.33 -3.5,-1.82 -1.68,-6.64 0.16,-3.38 -1.48,-3.730001 0.19,-4.809999 1.7,-3.870001 -0.57,-2.69 -1.61,-1.99 -1.42,0.34 -1.42,1.31 -2.62,5.72 -1.23,-0.39 -1.01,-1.91 -0.79,-6.16 0.79,-1.6 3.98,-2.95 5.36,0.04 1.8,-0.87 4.52,-10.5099995 3.35,-1.56 1.73,0.61 1.33,3.12 1.45,-2.73 1.71,-0.65 3.69,1.21 5.91,-0.52 4.67,5.21 5.02,2.22 13.74,10.4099995 2.72,-0.73 8.9,-8.6399995 2.15,-0.13 4.04,2.2099995 4.01,-1.9899995 2.46,2.4699995 2.72,-1.87 2.49,1.09 2.03,2.13 1.2,15.4 2.21,3.38 7.57,7.12 12.16,14.04 11.18,7.46 14.37,5.71 7.71,8.58 6.22,3.72 9.09,2.73 2.94,12.25 4.45,6.140004 4.23,2.99 10.87,2.9 2.65,4.62 3.57,15.65 z"
     class="land"
     title="Pljevlja"
     id="ME-14" />
  <path
     
     d="m 236.41792,133.5197 -2.91,17.31 0.87,12.57 -1.3,9.97 v 7.81 l 10.41,13.44 v 0 8.24 0 l -2.6,-0.87 -14.31,4.34 -6.51,7.37 -3.47,13.44 -4.77,4.77 0.87,13.44 3.47,6.51 16.91,7.37 3.47,5.64 -2.17,4.33 -4.91,2.32 v 0 l -0.29,-0.58 v 0 l -37.73,-0.44 -4.77,-2.6 -6.07,-5.63 -9.97,-19.52 -10.41,-31.22 -7.37,-6.07 -9.1,-3.03 -12.51,2.08 v 0 l -4.79,-14.5 1.65,-11.39 3.72,-7.93 8.15,-11.61 6.54,-7.17 2.49,-4.53 -0.79,-3.07 -6.5,-4.06 -1.14,-1.77 -0.06,-4.1 1.64,-2.08 8.68,-6.31 21.86,-14.22 12.72,-4.93 6.98,-0.65 -1.55,-5.49 -3.37,-4.410004 v -2.43 l 11.62,-3.33 5.74,0.78 4.33,-2.55 1.67,0.73 4.2,3.98 5.34,7.960004 4.52,0.52 0.69,2.69 -0.54,2.76 -2.02,2.12 -1.01,3.98 1.42,4.97 0.82,1.26 5.82,1.77 2.84,1.94 1.39,3.33 -1.33,3.76 z"
     class="land"
     title="Plužine"
     id="ME-15" />
  <path
     
     d="m 445.09792,406.2497 -14.28,19.6 -0.53,6.41 1.16,1.84 0.86,6.71 -3.89,2.34 -0.41,2.35 -12.5,7.17 -1.36,7.86 -3.1,3.58 -3.03,5.55 -0.63,3.11 -2.71,4.48 -2.56,2.05 -0.86,3.88 -4.23,1.83 -2.11,2.69 -0.76,3.7 -1.86,0.56 -0.98,4.35 -4.71,8.05 -4.86,3.24 -3.85,0.21 -1.96,1.02 -3.82,4.43 -1.27,2.56 0.16,4.42 -2.84,2.13 0.85,6.43 1.71,3.49 -11.84,13.7 -0.86,6.34 -6.82,8.2 -2.67,5.8 v 0 l -4.45,-0.49 -3.91,-2.17 -7.8,-6.5 -11.71,-3.04 -6.94,1.3 -4.77,2.17 -11.27,3.04 -1.73,-4.34 -5.64,-3.03 -1.3,-3.04 -5.21,-3.47 -1.3,-2.6 -0.43,-6.5 1.73,-4.78 3.91,-2.16 v 0 -2.86 0 l 3.03,-5.17 -2.6,-9.53 -4.34,-3.91 -13.44,-8.67 -4.33,-5.2 -5.64,-12.58 -3.9,-1.3 -7.38,-5.2 -2.6,-5.21 -5.63,-6.07 -12.58,-3.9 -0.43,-3.9 v 0 l 7.8,-2.88 v 0 l 13.01,5.48 7.37,1.74 3.47,5.63 8.67,-1.73 10.41,0.43 4.34,-3.47 12.57,6.51 5.64,-3.91 6.07,-7.37 1.3,-5.2 -2.17,-19.95 2.6,-8.67 10.41,-5.2 1.74,-8.24 -2.17,-5.64 0.43,-9.54 10.84,-6.94 v 0 l -0.36,-0.9 v 0 l 4.7,-0.83 5.63,3.47 4.77,-1.3 7.81,3.9 6.94,0.87 5.2,-3.91 13.88,-5.63 0.86,-5.64 13.45,-2.6 3.9,-17.35 5.63,-0.86 9.54,0.86 4.77,14.31 5.21,6.07 9.1,0.44 v 0 l 5.64,7.8 v 0 l 4.34,12.58 z"
     class="land"
     title="Podgorica"
     id="ME-16" />
  <path
     
     d="m 574.56792,339.7997 -1.79,-3.39 -2.61,-13.87 6.94,-8.67 7.81,-6.51 3.03,-9.97 0.87,-9.98 9.97,-9.54 1.74,-9.1 5.63,-8.24 0.87,-12.17 v 0 l 4.87,3.01 6.88,1.85 1.67,1.51 10.87,4.47 7.67,6.06 14.4,2.71 1.52,4.43 -0.35,1.5 3.41,2.75 3.95,0.22 8.65,6.1 1.29,1.8 0.32,3.05 -1.07,23.96 -2.18,3.39 -1.71,0.99 -9.28,-1.12 -4.23,4.29 -6.1,3 -2.11,2.02 -1.9,3.39 2.56,7.93 -10.83,14.28 -3.32,1.54 -13.04,-2.14 -13.64,0.12 -28.71,-10.07 z"
     class="land"
     title="Rožaje"
     id="ME-17" />
  <path
     
     d="m 243.48792,202.4297 7.37,13.87 10.41,1.3 2.6,-4.33 7.8,0.43 6.07,8.24 6.07,5.64 4.77,0.43 9.98,-2.6 6.5,5.63 4.77,9.11 6.07,3.04 5.21,0.86 7.37,3.47 v 0 l 7.37,3.9 v 0 l 1.73,8.24 2.6,6.07 6.94,0.87 3.47,6.94 v 0 l -2.17,6.94 v 0 l -6.07,4.77 -26.45,2.16 -4.77,-1.3 -9.54,1.3 -0.86,3.91 -6.94,7.8 1.05,7.02 v 0 l -16.66,1.22 v 0 l -11.71,-11.27 -10.84,-4.77 -18.65,-11.71 -4.33,-1.74 v 0 l -3.18,-6.35 v 0 l 4.91,-2.32 2.17,-4.33 -3.47,-5.64 -16.91,-7.37 -3.47,-6.51 -0.87,-13.44 4.77,-4.77 3.47,-13.44 6.51,-7.37 14.31,-4.34 2.6,0.87 v 0 z"
     class="land"
     title="Šavnik"
     id="ME-18" />
  <path
     
     d="m 163.79792,491.1897 -5.19,7.24 -0.97,7.55 -3.02,3.99 -8.52,7.14 -2.41,0.54 v 0 l -1.09,-3.07 -2.97,-2.21 0.98,-1.71 -2.15,-2.34 0.1,-1.45 -0.76,-0.13 -0.31,1.2 -4.58,-1.45 -1.78,0.55 v 0 l -1.68,-2.99 -3.91,-2.6 -0.71,-6.32 v 0 l 8.99,3.48 6.13,0.38 4.33,4.09 2.36,0.9 0.64,-0.52 0.37,-1.83 -2.02,-2.04 1.05,-0.56 -2.97,-1.19 3.66,-0.21 0.06,-3.54 -5.74,-5.97 -0.79,-3.24 -2.37,-0.94 0.44,-1.79 -2.27,-4.86 1.61,-7.16 1.95,-2.78 14.18,5.17 5.91,7.5 1.7,9.42 z"
     class="land"
     title="Tivat"
     id="ME-19" />
  <path
     
     d="m 361.29792,633.2797 -3.8,6.42 -0.82,9.62 -2.44,5.38 0.79,13.89 2.21,3.43 0.86,4.32 -1.65,5.54 3.6,4.07 -1.61,1.69 -7.7,0.72 -2.4,1.61 -0.03,6.55 5.74,4.82 0.83,2.63 -2.25,2.66 -5.78,1.48 -1.23,1.94 1.11,2.46 6.03,1.98 1.42,4.06 3.63,1.35 -1.7,3.64 -0.26,5.91 -1.32,5.07 -2.75,0.51 -2.75,-3.76 -4.07,-2.33 -2.84,-4.64 -4.17,-3.76 -15.98,-8.2 -8.46,-2.58 -1.68,1.44 -4.29,-4.15 -3.82,-1.9 -1.42,0.13 -0.04,-1.31 -1.1,0.29 -1.3,-1.44 -3.56,-0.88 -11.15,-8.89 -0.6,-1.9 4.48,1.23 0.89,-0.93 -4.49,-5.38 -2.43,-1.48 -1.48,-2.79 0.88,-2.07 2.5,0.08 0.79,-0.97 -0.54,-1.78 -2.65,-1.48 1.76,-1.31 -0.69,-1.32 0.47,-1.48 -1.42,-2.16 2.15,-2.74 v 0 l 9.88,-0.56 14.31,7.37 4.77,0.86 4.34,-1.73 1.73,-3.9 -1.73,-8.68 -3.04,-0.86 -1.73,-3.47 -2.6,-2.17 0.43,-3.9 3.47,-7.81 -0.87,-1.73 -5.63,-1.74 v -4.33 l 5.63,-4.34 3.47,2.17 2.17,4.34 5.64,3.9 h 4.33 l 3.04,-1.3 6.94,1.3 4.33,-3.04 3.47,-5.2 v 0 l 9.54,0.87 v 0 z"
     class="land"
     title="Ulcinj"
     id="ME-20" />
  <path
     
     d="m 245.78792,134.8797 1.17,1.64 -0.87,5.63 1.73,8.24 0.87,10.84 5.2,-0.43 3.04,4.77 h 13.88 l 4.77,-5.64 h 12.14 l 12.57,13.44 12.58,4.77 3.46,3.04 8.24,3.47 3.04,5.63 7.8,5.21 4.77,7.37 8.68,1.3 6.93,14.74 v 0 l 7.38,5.21 v 0 l -4.34,3.47 -2.17,9.97 -19.08,2.6 v 9.11 l -1.93,2.06 v 0 l -7.17,-3.8 v 0 l -7.37,-3.47 -5.21,-0.86 -6.07,-3.04 -4.77,-9.11 -6.5,-5.63 -9.98,2.6 -4.77,-0.43 -6.07,-5.64 -6.07,-8.24 -7.8,-0.43 -2.6,4.33 -10.41,-1.3 -7.37,-13.87 v 0 -7.81 0 l -10.41,-13.44 v -7.81 l 1.3,-9.97 -0.87,-12.57 2.91,-17.31 v 0 l 1.01,1.46 3.29,1.6 0.85,2.38 z"
     class="land"
     title="Žabljak"
     id="ME-21" />
  <path
     
     d="m 348.53792,566.3297 -0.96,2.71 -21.44,25.95 38.11,32.04 -2.95,6.25 v 0 l -4.64,-0.66 v 0 l -9.44,-0.86 v 0 l -8.34,-6.08 -8.24,-10.84 -13,-4.34 -3.04,-6.5 -5.64,-4.34 -4.77,-16.91 -3.03,-6.94 -3.04,-1.3 h -6.5 l -11.71,-2.17 -3.03,-3.47 -1.74,-6.07 -0.43,-8.67 -1.3,-4.77 -7.37,-8.67 v 0 l 1.73,-1.73 v 0 l -0.87,-6.08 -5.63,-8.23 2.16,-4.77 h 3.47 l 3.47,3.47 5.21,1.73 3.46,-2.17 8.68,3.9 v 0 3.91 0 l -3.91,2.16 -1.73,4.78 0.43,6.5 1.3,2.6 5.21,3.47 1.3,3.04 5.64,3.03 1.73,4.34 11.27,-3.04 4.77,-2.17 6.94,-1.3 11.71,3.04 7.8,6.5 3.91,2.17 z"
     class="land"
     title="Skadar Lake"
     id="ME-SLK" />
     <g id="stadiums" data-country="germany"
      data-circle-radius="12"
      data-circle-colors="#a149be,#bea149"></g>
</svg>
