<?xml version="1.0" encoding="UTF-8" standalone="no"?>
<?xml-stylesheet type="text/css" href="/styles/home.css"?>

<!-- https://www.amcharts.com/svg-maps -->
<svg version="1.1" xmlns="http://www.w3.org/2000/svg" id="map-montenegro" viewBox="0 0 1000 1000">
   <defs>
		<style type="text/css">
			.land
			{
				fill: #CCCCCC;
				fill-opacity: 1;
				stroke:white;
				stroke-opacity: 1;
				stroke-width:0.5;
			}
		</style>

		<!-- <amcharts:ammap
       projection="mercator"
       leftLongitude="18.438452"
       topLatitude="43.565072"
       rightLongitude="20.376768"
       bottomLatitude="41.849068" /> -->

		<!-- All areas are listed in the line below. You can use this list in your script. -->
		<!--{id:"MT_NO"},{id:"MT_CE"},{id:"MT_SO"},{id:"MT_SE"},{id:"MT_GO"}-->

	</defs>
  <g
     id="g28">
    <path
       style="fill:#cccccc;fill-opacity:1;stroke:none;stroke-width:0.5;stroke-opacity:1"
       d="m 178.92969,0 -3.34961,1.5605469 -4.51953,10.5097651 -1.80078,0.869141 -5.35938,-0.03906 -3.98047,2.949218 -0.78906,1.59961 0.78906,6.160156 1.00977,1.910156 1.23047,0.390625 2.61914,-5.720703 1.41992,-1.308594 1.41992,-0.341797 1.61133,1.990235 0.57031,2.691406 -1.70117,3.869141 -0.18945,4.810547 1.48046,3.730468 -0.16015,3.378907 1.67969,6.640625 3.5,1.820312 3.32031,5.330078 1.83008,-2.470703 2.26953,0.730469 0.0996,3.429687 L 183.98047,58 v 6.539062 l 0.98047,3.861329 5.33984,12.509765 9.75,11.900391 6.41016,11.939453 1.64844,5.58008 -1.49024,11.75976 -9.94922,1.04102 -4.32031,1.89844 -3.50977,3.85156 -3.23046,5.72852 -4.21876,4.08007 -0.85156,-2.3789 -3.28906,-1.59961 -1.00977,-1.46094 -3.43945,-2.99023 1.33008,-3.75977 -1.39063,-3.33008 -2.83984,-1.93945 -5.82031,-1.76953 -0.82031,-1.26172 -1.41993,-4.96875 1.00977,-3.98047 2.01953,-2.11914 0.54102,-2.76172 -0.68946,-2.68945 -4.52148,-0.51953 -5.33984,-7.960941 -4.19922,-3.978516 -1.66993,-0.730469 -4.33007,2.548828 -5.74024,-0.779296 -11.61914,3.330078 v 2.429687 l 3.36914,4.410159 1.55078,5.49023 -6.98047,0.65039 -12.7207,4.92969 -21.859374,14.2207 -8.679687,6.3086 -1.640625,2.08008 0.06055,4.10156 1.138671,1.76953 6.5,4.05859 0.791016,3.07032 -2.490234,4.53124 -6.539063,7.16993 -8.15039,11.60937 -3.720703,7.92969 -1.650391,11.39062 4.791015,14.5 11.509766,28.2793 0.220703,3.17969 -15.601562,4.95117 -27.439453,-5.4707 -3.660157,0.48047 -5.878906,6.41015 -4.390625,13.33008 -6.130859,12.68945 -4.478516,3.39063 -0.06055,1.71875 2.560547,4.13086 -0.130859,6.66015 2.970703,5.07032 2.650391,1.19922 0.189453,1.80078 -0.38086,1.08007 -3.689453,2.32032 0.820313,5.95898 -2.88086,2.66016 -3.279297,6.18945 -0.380859,6.42969 3.730469,10.81055 -0.09961,2.09961 -1.130859,1.67968 -2.910156,1.11133 -2.96875,-0.13086 -0.6914065,1.12109 1.2910155,1.33008 0.289063,4.10938 1.951171,2.66015 -1.349609,6.56055 1.449219,1.5 4.929687,1.06836 4.730469,7.45117 0.07031,2.09961 2.269531,2.79102 7.359375,0.84961 5.710937,-1.97071 3.189454,2.26954 0.919921,3 -3.378906,8.35156 3.349609,19.25976 -7.550781,2.21875 -5.11914,0.27149 -3.730469,10.14844 2.679687,6.46093 4.240235,3.82031 -0.08984,1.5293 v 0 l -0.476695,1.27119 41.216929,36.22881 0,0 0,0 v 0 0 l 0,0 2.298828,-0.55078 2.050782,-4.17969 1.740234,-0.68945 1.800781,3.25 -1.451171,2.98047 -0.09961,4.7793 2.939453,2.34961 3.160157,0.98046 6.791015,0.0899 7.990236,-2.85938 1.91992,0.25 0.66992,17.75 -1.05078,2.46875 1.92969,4.01172 -0.56055,3.61914 -1.75,-1.75 -1.69922,-9.41992 -5.910153,-7.5 -14.179688,-5.16992 -1.949219,2.7793 -1.611328,7.16015 2.269531,4.86133 -0.439453,1.78906 2.371094,0.93946 0.789063,3.24023 5.740234,5.9707 -0.06055,3.53907 -3.660156,0.21093 2.970703,1.18946 -1.050781,0.56054 2.021484,2.03907 -0.371094,1.83007 -0.638671,0.52149 -2.361329,-0.90039 -4.330078,-4.08985 -6.128906,-0.38086 -8.990234,-3.48046 -8.800782,-4.16993 -14.65039,-4.08984 -2.529297,0.64062 -4.390625,4.00977 0.320312,3.49023 3.060547,0.64063 0.410156,2.93945 6.820313,2.46875 -1.140625,0.94141 0.599609,0.98047 -2.560547,1.23828 1.990235,2.60156 2.310547,0.37891 0.849609,1.75 1.890625,-0.33985 -0.599609,1.8711 3.279297,2 0.189453,1.27929 1.800781,-0.50976 1.140625,0.93945 -0.06055,1.75 2.650391,-1.66015 0.599609,1.40039 3.470703,1.01953 0.789063,-1.23047 -0.509766,-2.12891 2.720703,-0.21093 1.199219,0.7207 0.410156,1.95898 2.458985,0.60156 v -2.38085 l 1.990234,-1.61915 -1.580078,-1.66015 v -2.4707 l 2.169922,-1.24024 1.78125,-0.54883 4.580078,1.44922 0.308594,-1.19922 0.761718,0.12891 -0.101562,1.45117 2.150391,2.33984 -0.980469,1.70899 2.970703,2.21094 1.089844,3.07031 1.660156,2.58984 -4.039063,-1.74023 h -1.330078 l -0.320312,1.15039 2.660156,3.69922 3.978516,3.15039 -0.189453,2.59961 2.019531,2.33984 -2.46875,2.4707 5.910156,4.92969 0.128906,1.10938 2.140625,0.76953 -0.339844,1.48047 1.160157,-0.0391 4.458984,4.63868 0.08984,1.49023 7.740232,8.63086 1.58008,0.50977 2.11133,-1.23047 -0.63086,-5.2793 6.13086,4.03906 -0.95117,-3.09961 2.5,-1.78906 2.06054,1.04883 0.65039,1.92969 3.69922,1.70117 2.96094,-1.53125 -0.25,-1.95899 2.2793,-1.26953 2.14062,-0.041 2.68945,3.74023 0.41016,-1.2793 1.60938,-0.58984 4.29101,0.11914 v 2.08985 l 1.60938,0.21093 1.70898,2.67969 0.38086,4.67969 1.50977,2.58984 -0.5,1.49024 0.79101,2.33007 -0.91992,1.41016 2.96875,3.06055 0.91992,4.96875 3.82031,3.00976 1.54102,0.16993 0.63867,2.42968 4.29102,0.38086 1.90039,2.25 1.41992,-0.0391 0.4082,1.98828 3.1211,0.2207 2.84961,3.73047 -1.45899,3.57031 0.53906,1.60938 5.31055,3.40039 0.17969,1.43945 1.24023,-0.33984 0.43946,1.74023 1.92968,-1.02929 1.79102,2.51953 -0.63086,3.55859 3,6.45117 3.13086,-3.08984 1.48047,2.0293 7.95898,-0.64063 2.7207,1.6211 1.12891,3.00976 -0.68945,1.74024 2.08008,0.4707 5.36914,4.48828 2.05078,5.13086 -0.0899,1.69922 -0.63085,0.89062 -0.82032,-0.30078 0.63086,1.78125 -1.39062,-0.50976 0.4707,1.69922 -3.0293,-1.23047 -1.77148,0.13086 0.16016,0.9707 4.90039,4.19922 -0.57032,0.45898 1.77149,1.66016 16.1582,12.16016 0.38086,4.02148 -0.78906,1.05859 2.61914,1.66016 -0.31055,2.79101 -1.38867,0.41993 -0.10156,0.97851 2.40039,1.31055 -0.0898,1.45117 -2.15039,2.73828 1.41993,2.16016 -0.46876,1.48047 0.68946,1.32031 -1.75977,1.31055 2.65039,1.47851 0.53907,1.78125 -0.78907,0.96875 -2.5,-0.0781 -0.88086,2.06836 1.48047,2.79101 2.42969,1.48047 4.49023,5.37891 -0.89062,0.92969 -4.48047,-1.22852 0.60156,1.89844 11.14844,8.89062 3.56055,0.88086 1.30078,1.43945 1.09961,-0.29101 0.0391,1.31055 1.41992,-0.12891 3.82032,1.89844 4.29101,4.15039 1.67969,-1.43946 8.45898,2.58008 15.98047,8.19922 4.16992,3.75977 2.83985,4.64062 4.07031,2.33008 2.75,3.75977 2.75,-0.50977 1.32031,-5.07031 0.25977,-5.91016 1.70117,-3.63867 L 294,718.2793 l -1.41992,-4.0586 -6.0293,-1.98047 -1.11133,-2.46093 1.23047,-1.93946 5.7793,-1.48046 2.25,-2.66016 -0.83008,-2.62891 -5.73828,-4.82031 0.0293,-6.55078 2.40039,-1.60938 7.69922,-0.7207 1.60937,-1.68945 -3.59961,-4.07031 1.65039,-5.53907 -0.85937,-4.32031 -2.21094,-3.42969 -0.78906,-13.89062 2.43945,-5.37891 0.82031,-9.62109 3.79883,-6.41992 2.95117,-6.25 -38.10937,-32.03907 21.43945,-25.95117 0.95899,-2.70898 2.66992,-5.80078 6.82031,-8.19922 0.86133,-6.33985 11.83984,-13.70117 -1.71094,-3.49023 -0.84961,-6.42969 2.83985,-2.12891 -0.16016,-4.41992 1.26953,-2.56055 3.82032,-4.42968 1.96093,-1.02149 3.84961,-0.20898 4.85938,-3.24024 4.71093,-8.05078 0.97852,-4.34961 1.86133,-0.55859 0.75976,-3.70117 2.10938,-2.68946 4.23047,-1.83007 0.85937,-3.88086 2.56055,-2.04883 2.71094,-4.48047 0.6289,-3.10938 3.0293,-5.55078 3.10156,-3.58007 1.35938,-7.85938 12.5,-7.16992 0.41015,-2.34961 3.89063,-2.3418 -0.86133,-6.70898 -1.16015,-1.83985 0.53124,-6.41015 14.2793,-19.59961 2.58985,-3.00977 3.63085,0.93946 1.58008,-0.47071 5.49024,-6.36914 -0.0605,-2.43945 1.69922,-2.14063 7.14062,-2.39062 1.54883,1.28125 3,6.5 4.61133,1.83984 0.11914,1.62891 -2.13867,2.73047 0.93945,5.51953 2.2793,1.58008 1.55078,3.84961 1.74023,1.79101 1.41016,1.70899 0.41016,4.62109 -1.07032,0.73047 -6.25,-0.0508 -1.23046,3.16015 1.80078,4.32032 -1.65039,3.41992 0.0996,2.55859 -1.76954,0.85156 -0.16015,1.24024 5.15039,9.81836 1.54883,8.24023 4.73047,2.48047 3.98046,6.14063 8.5,5.5 3.84961,1.33007 1.76954,-2.39062 0.2207,-3.0293 3.46875,-0.0898 1.71094,-1.91992 4.28906,0.59961 3.10156,-5.97071 6.16016,4.56055 2.20898,-2.90039 0.59961,-5.9707 2.36133,-0.29883 5.80859,-3.83985 3.45117,-0.64062 2.89844,2.39062 3.63086,0.63868 4.90039,-1.0293 7.64063,1.19922 3.3789,-8.23828 -0.2207,-4.02149 0.73047,-1.49023 10.00977,-3.25 2.55078,-3.66992 5.7207,1.5 4.79883,-13.88868 -1.92969,-6.58007 0.32031,-7.17969 3.25,-4.02148 3.69922,-1.96876 10.70117,-13.42968 -0.25,-1.16016 -5.28125,-4.02148 -5.24023,-8.38868 -2.51953,-1.41015 -3.57031,-0.56055 -1.42969,-1.41992 -2.16992,-2.48047 -3.66016,-1.61914 -5.11914,-13.88086 4.16992,-6.46875 L 513,342 l 1.39062,-2.4707 2.04883,-0.39844 28.71094,10.06836 13.63867,-0.11914 13.04102,2.14062 3.32031,-1.54101 10.83008,-14.2793 -2.56055,-7.92969 1.90039,-3.39062 2.10938,-2.01953 6.09961,-3 4.23047,-4.29102 9.27929,1.12109 1.71094,-0.99023 2.17969,-3.39062 L 612,287.55078 611.67969,284.5 l -1.28907,-1.80078 -8.65039,-6.09961 -3.95117,-0.21875 -3.4082,-2.75 0.34961,-1.5 -1.51953,-4.43164 -14.40039,-2.70899 -7.66993,-6.06054 -10.87109,-4.46875 -1.66992,-1.51172 -6.87891,-1.84961 -4.87109,-3.00977 -1.60938,0.16993 -4.50976,3.01953 -4.14063,0.64062 -3.1289,-2.15039 -8.18164,-8.68945 -6.85938,-3.25 -5.16992,-6 -7.34961,-6.19922 -12.95117,-14.99024 -2.71875,-4.78124 -2.56055,-1.8086 -6.0293,-13.45117 -2.9707,0.48047 -5.26953,5.82031 -12.28125,1.28906 -7.04883,-0.99023 -5.46093,-3.96875 -3.91993,3.09961 -4.03906,-5.04102 -10.89062,-0.98828 -1.90039,-8.88086 -3.78907,-6.82031 -0.33984,-5.34961 -3.48047,-4.91992 -1.94922,-0.73047 -2.53125,2.24023 -1.23047,6.60938 -0.81836,0.33984 -5.4414,-3.4082 -15.11914,-4.14063 -12,-7.85937 -8.6211,-16.62109 -19.28906,-11.70899 -3.13086,-2.9414 -3.56836,-15.64844 -2.65039,-4.6211 -10.87109,-2.90039 -4.22852,-2.990231 -4.45117,-6.138672 -2.93945,-12.25 -9.08985,-2.730469 -6.2207,-3.720703 -7.70899,-8.580078 -14.37109,-5.708985 -11.17969,-7.460937 -12.16015,-14.039063 -7.57031,-7.121093 -2.20899,-3.378907 -1.20117,-15.40039 -2.0293,-2.13086 -2.49023,-1.089843 -2.71875,1.871093 L 240,9.5996094 l -4.00977,1.9902346 -4.04101,-2.2089846 -2.14844,0.1289062 -8.90039,8.6406254 -2.7207,0.730468 L 204.43945,8.4707031 199.41992,6.25 194.75,1.0390625 188.83984,1.5605469 185.15039,0.34960938 183.43945,1 181.99023,3.7304688 180.66016,0.609375 Z m -146.656384,420.44111 -2.142447,0.73858 -6.191406,-0.29883 -3.478515,0.0391 -6.951172,9.66016 -6.8789066,1.53906 L 0.34960938,432.3809 0,435.71094 5.3300781,454.75977 4.859375,456.89062 2.0195312,460.59961 2.6191406,467 l 20.7011714,24.36914 3.410157,0.85156 2.240234,-2.43164 -5.839844,-5.8789 -2.341797,-4.25977 0.541016,-1.58008 3.160156,-2.59961 6.320313,4.00977 5.589844,-0.16992 2.36914,-1.58008 2.210938,0.42969 3.349609,4.39062 7.070313,3.78906 9.628906,-2.85937 5.970703,-3.9707 2.119141,-0.0391 1.169921,-1.45117 4.640626,-2.21875 0.759765,-1.11133 -0.820312,-1.07031 0.320312,-1.44922 3.919922,-6.01953 L 73.300781,463.25 68.75,462.94922 l -1.330078,-0.89844 6.070313,-5.38086 z" />
  </g>
</svg>
