<?xml version="1.0" encoding="UTF-8" standalone="no"?>
<?xml-stylesheet type="text/css" href="/styles/home.css"?>
<!-- https://www.amcharts.com/svg-maps -->

<svg version="1.1" xmlns="http://www.w3.org/2000/svg" id="map-northernIreland" viewBox="0 0 128.99998 128.99998"
   width="128.99998" height="128.99998" class="">

   <defs id="defs4">
      <style type="text/css" id="style2">
         .land {
            fill: #93c4a3;
            fill-opacity: 1;
            stroke: white;
            stroke-opacity: 1;
            stroke-width: 0.5;
         }

         .rectangle:hover {
            fill: #bdbdbd;
            cursor: pointer;
         }
      </style>
   </defs>
   <rect id="background" class="rectangle" stroke-width="0" stroke="#000" width="128.99998" height="128.99998" y="0"
      x="0" fill="#d3d3d3" />
   <path id="GBDRY" class="land"
      d="m 90.99765,13.351717 -0.69922,0.0996 -0.5,0.30078 -0.5,0.30078 -0.59961,0.5 1.09961,0.19922 1.19922,-0.0996 1.09961,0.0996 1.10156,0.90039 -0.20117,0.40039 v 0.29883 0.40039 l -0.0996,0.59961 0.30078,-0.5 0.5,-0.90039 0.29883,-1.09961 -0.09962,-0.79882 -0.5,-0.30078 z m -11.29883,5.20117 -1,0.0996 -1,0.59961 -0.90039,0.80078 -0.40039,0.39844 -0.30078,0.60156 -0.79883,0.59961 -3.30078,0.19922 -5.29883,2.5 -3.90039,0.20117 -2.20117,0.0996 -0.89844,-0.30078 -2,-1.40039 h -0.80078 l -0.19922,1.20117 -0.30078,3.69922 -0.59961,0.80078 -0.5,0.59961 -0.59961,1.30078 -0.30078,1.5 v 1.09961 l -0.69922,0.5 -1,1.29883 -0.60156,0.40039 -1.59961,0.20117 -1.59961,-0.20115 -0.69922,-0.40039 -1.30078,-0.69922 -0.90039,-0.09961 -2.09961,0.69922 -0.69922,-0.09961 0.39844,-1.5 -0.89844,0.30078 -0.40039,0.59961 -0.40039,0.5 -0.40039,0.5 -2.90039,0.40039 -0.59961,0.5 -0.5,0.5 -1.29883,2.09961 0.19922,0.69922 -0.0996,0.0996 -0.30078,0.10156 -0.19922,0.59961 0.29883,2.09961 -0.0996,0.69922 -0.29883,0.5 -0.10156,0.10156 -0.89844,0.39844 -0.40039,0.5 -0.0996,1 0.19922,2 v 0.90039 l -0.5,1.70117 -0.80078,1.5 -3.39844,4.19922 -0.30078,1.09961 -0.0996,2 0.19922,0.70117 0.20117,0.19922 v 0.19922 l -0.6016,0.30079 -0.5,-0.0996 -0.79883,-0.40039 -1.40039,0.40039 -1.59961,-0.5 -0.90039,0.5 -1.59961,1.69922 -1.59961,0.90039 -1.60156,0.0996 -1.59961,-0.79883 -1.29883,-1.20117 h -0.60156 l -1.59961,1.59961 -2.40039,1.20117 0.80078,0.59961 0.30078,0.19922 -0.40039,1.20117 0.40039,0.79883 0.79883,0.5 0.80078,0.30078 0.40039,0.19922 0.5,1 0.29883,0.40039 0.40039,0.0996 0.80078,-0.59961 0.29883,-0.0996 0.70117,0.40039 1.5,1.29883 0.69922,0.30078 0.80078,-0.40039 0.69922,-0.5 0.5,0.0996 0.0996,1.60156 -1.90039,0.69922 -4.69922,4.5 -1.80078,0.69922 -1.79883,-0.0996 -3.59961,-0.79883 -0.90039,1.09961 -1,1.40039 -0.59961,1.19922 -0.20117,0.30078 -0.59961,0.5 -1.09961,0.69922 -2.5,0.69922 -0.90038997,0.5 -0.19922,0.10156 0.59961,0.59961 0.09962,0.59961 0.0996,0.69922 0.49999997,0.60156 1.09961,1.29883 2,2.800782 1.10156,1.19922 1.19922,0.59961 h 1.30078 l 1,2.5 0.59961,1.20117 0.79883,0.90039 0.5,0.0996 0.30078,0.19922 1.90039,0.30078 0.69922,0.5 0.30078,1.29883 0.0996,3.500001 0.69922,1.30078 0.90039,0.5 2.5,0.40039 2.80078,-0.20117 0.90039,0.10156 3.29883,2.59961 0.40039,0.5 0.0996,0.69922 0.0996,0.70117 0.60156,0.39844 5,1.20117 1,-0.20117 1.89844,-1.59961 1.20117,0.0996 -0.59961,0.70117 0.19926,0.0996 h 0.5 l 0.40039,0.0996 0.29883,0.70117 0.10156,0.29883 0.19922,0.0996 0.69922,-0.19922 2.30078,0.80078 0.5,-0.10156 h 0.19922 l -1,-2.19922 v -0.59961 l 0.30078,-0.40037 1.40039,-0.80078 0.19922,0.20117 -0.0996,0.5 -0.0996,0.79883 v 0.90039 0.70117 l 0.0996,0.29883 0.69922,-0.29883 0.40039,-0.5 0.30078,-0.70117 0.19922,-0.79883 -0.19922,-0.80078 0.90039,-0.5 -0.10156,-0.40039 -0.39844,-0.40039 -0.20117,-0.29883 0.20117,-0.80078 0.29883,-0.5 0.40039,-0.40039 0.5,-0.39844 2.59961,-0.70117 1,-0.69922 -0.29883,-1.30078 0.69922,-0.900391 -1.69922,-1.39844 0.29883,-1.10156 -1.59962,-0.79883 -0.09961,-0.90039 h 0.19922 l 0.40039,0.0996 0.19922,-0.40039 0.10156,0.10156 0.29883,-0.80078 -0.0996,-0.19922 -0.19922,-0.40039 -0.10156,-0.5 0.10156,-0.30078 0.0996,-0.0996 0.19922,-0.0996 0.80078,0.0996 h 0.40039 l 1.5,-1.09961 2.29883,-3.701172 1.40039,-1.29883 1.40039,-0.0996 1.59961,0.79883 2.90039,2.400392 0.40039,0.59961 0.39844,1.30078 0.40039,0.19922 0.5,0.0996 0.30078,0.30078 0.5,1.30078 0.5,1.5 0.0996,1.09961 -0.40039,0.79883 -0.79883,0.5 1.69923,0.80078 0.40039,0.5 0.19922,0.69922 0.20117,0.800781 0.19922,0.80078 0.80078,1.29883 0.89844,1 1,0.90039 1,0.59961 0.60156,0.0996 0.39844,-0.39844 0.30078,-0.5 0.5,-0.30077 h 0.59961 l 0.5,0.30078 1,0.89844 0.70117,0.80078 0.29883,0.40039 0.30078,1.5 -0.40039,1.40039 -1.09961,1.39844 0.5,0.90039 -0.0996,0.90039 -0.70117,1.90039 0.70117,0.59961 1.29883,1.5 0.70117,0.40039 0.19922,-0.20117 0.30078,-0.39844 0.19922,-0.40039 0.30078,-0.20117 0.29883,-0.0996 0.70117,0.30078 h 0.39844 l 4,-1.5 h 1.30077 v 0.0996 l 0.19922,0.40039 0.30078,0.29883 0.30078,0.20117 h 0.29883 l 1.20117,-0.40039 1.09961,-0.19922 0.29883,-0.30078 0.20117,-0.59961 v -0.70117 l -0.0996,-0.59961 0.0996,-0.5 0.59961,-1.09961 0.40039,0.0996 0.40039,0.5 0.5,0.40039 0.59961,-0.0996 0.69922,-0.40039 h 0.70117 l 0.69922,0.5 0.30078,-0.5 1,0.40039 1.39844,0.0996 1.20117,0.5 0.59961,1.40039 0.59961,0.0996 3.59961,1.30078 -0.39844,0.0996 -1,0.5 v 0.40039 l 0.89844,0.69922 0.70117,0.0996 1.79883,-0.19922 0.70117,-0.30078 1.90039,-1.5 1.5,-1.5 2,-1 0.79883,-1.09961 0.5,-1.30078 0.40039,-1.59961 0.30078,-1.59961 0.0996,-1.59961 v -0.30078 l -0.0996,-2.69922 0.29883,-1 0.90039,-0.30078 0.90039,-0.19922 2.09961,-0.800781 2,-0.19922 2.69922,0.29883 0.5,0.601561 0.20117,0.59961 0.40039,0.0996 0.39844,-0.19922 0.30078,-0.20117 0.30078,-1.699221 0.19922,-0.0996 0.59961,0.19922 0.20117,-0.0996 1.5,-1.59961 1.29883,-1.80078 0.5,-2.30078 -0.40039,-3.09961 -1.39844,-1.5 -2,0.59961 -2.10156,1.30078 -1.89844,0.69922 0.5,-0.89844 1.69922,-1.30075 0.40039,-0.80078 1.29883,-4.199222 -0.39844,-0.5 0.29883,-0.5 v -0.19922 l 0.0996,-0.40039 -0.59961,-0.20117 -0.29883,-0.69922 v -0.90039 l 0.19922,-1 -1.40039,-0.79883 0.30078,-0.40039 1,-0.20117 0.79883,-0.29883 -0.59961,-0.40039 -1.69922,-0.19922 -0.40039,-0.20117 -0.40039,-0.40039 -0.5,-0.39844 h -0.69922 l 0.5,-0.5 0.40039,-0.70117 0.0996,-0.79883 -0.30076,-0.80078 v -0.5 l 1.40039,0.0996 1.30078,0.70117 3.19922,3.09961 0.80078,1.40039 0.5,1.79883 0.19922,2.59961 -0.19922,1.20117 -1.10156,1.40039 -0.29883,0.89844 0.0996,0.90039 0.30078,0.900392 0.5,0.69922 0.5,0.30078 0.5,1.59961 0.5,1.09961 0.5,0.60156 0.69923,-0.10155 0.5,-1.19922 0.69922,-0.40039 -0.59961,-0.79883 0.20117,-0.70117 0.59961,-0.5 0.5,-0.59961 0.0996,-1.400392 -0.30078,-1.29883 0.30078,-1 0.90039,-1.40039 0.29883,-0.5 v -0.40039 l -0.19921,-0.30078 v -0.5 l 0.30078,-0.69922 -0.30078,-0.30078 -1.5,-2.29883 -0.19922,-1.09961 -0.30078,-3.20117 -0.30078,-0.59961 -0.79883,-0.5 -0.5,-1.09961 -0.80078,-2.90039 -0.0996,-0.80078 v -0.69922 l -0.19922,-0.5 -0.5,-0.0996 -0.40039,-0.30078 -0.40039,-0.79884 -0.19922,-0.30078 -0.20117,-0.30078 -5.69922,0.90039 -1,-0.0996 -0.70117,-0.5 -0.79883,-0.30078 -1,0.40039 -1.59961,1.30078 -1.60156,0.79883 -0.5,0.5 -1,1.60156 v 0.0996 l -0.5,0.5 -0.29883,0.5 -0.30078,0.40039 -0.59961,-0.10156 -0.19922,-0.39844 v -0.70117 l -0.20117,-0.69922 -0.59961,-0.40039 0.59961,-1.09961 1.09961,-2.09961 0.60156,-0.80078 0.29883,-0.40039 1.30078,-1.09961 1.19922,-0.69922 2.80078,-0.80078 1.40039,-0.69922 1.09961,-1.20117 0.59961,-1.79883 0.0996,-0.40039 0.0996,-1.90039 -0.59961,-2.5 -0.90039,-1.40039 -1.39844,-1.29883 -1.40039,-0.40039 -0.80078,1.40039 3,3.19922 0.80078,1.80078 h -0.20117 l -1.1992,-1.70117 -1.30078,-0.59961 -1.19922,-0.69922 -0.5,-2.30078 -0.19922,-1.09961 -0.30078,-1 -0.40039,-0.90039 -0.40039,-0.59961 -0.39844,-0.40039 -0.70117,-0.69922 -0.29883,-0.30078 -0.30078,-0.59961 -0.30078,-1.30078 -0.19922,-0.59961 -1,-1.40039 -1.09961,-1 -1.30078,-0.69922 -1.29883,-0.20117 -0.10156,-0.59961 0.80078,-3 0.0996,-1.5 -0.29883,-0.79883 -0.30077,-0.20117 -0.30078,-0.29883 -0.69922,-0.30078 -0.69922,-0.09961 -0.80078,0.09961 -0.90039,-0.0996 -0.40039,-0.80078 0.70117,-1.69922 0.29883,-1.40039 0.20117,-4.59961 -0.5,-0.80078 -1.70117,-2 -0.39844,-0.19922 -0.40039,-0.59961 -0.90039,-0.5 -1.90039,-0.30078 -0.90039,0.19922 -1.79883,0.70117 -1,0.19922 -0.80078,-0.19922 -4.5,-2.59961 -1.19923,-0.30078 -1.80078,1.19922 -1.09961,-0.39844 z" />
   <g id="stadiums" data-country="northern_ireland" data-circle-radius="2" data-circle-colors="#a149be,#bea149" />
</svg>