<?xml version="1.0" encoding="UTF-8" standalone="no"?>
<svg
   xmlns:dc="http://purl.org/dc/elements/1.1/"
   xmlns:cc="http://creativecommons.org/ns#"
   xmlns:rdf="http://www.w3.org/1999/02/22-rdf-syntax-ns#"
   xmlns:svg="http://www.w3.org/2000/svg"
   xmlns="http://www.w3.org/2000/svg"
   xmlns:sodipodi="http://sodipodi.sourceforge.net/DTD/sodipodi-0.dtd"
   xmlns:inkscape="http://www.inkscape.org/namespaces/inkscape"
   baseprofile="tiny"
   height="103.99996"
   version="1.2"
   viewbox="0 0 1000 1000"
   width="128.99998"
   id="svg704"
   sodipodi:docname="northern_ireland.svg"
   inkscape:version="0.92.4 (5da689c313, 2019-01-14)"
   style="fill:#6f9c76;stroke:#ffffff;stroke-width:0.5;stroke-linecap:round;stroke-linejoin:round">
  <metadata
     id="metadata710">
    <rdf:RDF>
      <cc:Work
         rdf:about="">
        <dc:format>image/svg+xml</dc:format>
        <dc:type
           rdf:resource="http://purl.org/dc/dcmitype/StillImage" />
        <dc:title></dc:title>
      </cc:Work>
    </rdf:RDF>
  </metadata>
  <defs
     id="defs708" />
  <sodipodi:namedview
     pagecolor="#ffffff"
     bordercolor="#666666"
     borderopacity="1"
     objecttolerance="10"
     gridtolerance="10"
     guidetolerance="10"
     inkscape:pageopacity="0"
     inkscape:pageshadow="2"
     inkscape:window-width="1920"
     inkscape:window-height="1017"
     id="namedview706"
     showgrid="false"
     inkscape:zoom="2.0788939"
     inkscape:cx="-52.577076"
     inkscape:cy="-119.16893"
     inkscape:window-x="-8"
     inkscape:window-y="-8"
     inkscape:window-maximized="1"
     inkscape:current-layer="features"
     fit-margin-top="0"
     fit-margin-left="0"
     fit-margin-right="0"
     fit-margin-bottom="0" />
  <g
     id="features"
     transform="translate(-396.05079,-536.84961)">
    <path
       id="GBDRY"
       d="m 487.09961,537.09961 -0.69922,0.0996 -0.5,0.30078 -0.5,0.30078 -0.59961,0.5 1.09961,0.19922 1.19922,-0.0996 1.09961,0.0996 1.10156,0.90039 -0.20117,0.40039 v 0.29883 0.40039 l -0.0996,0.59961 0.30078,-0.5 0.5,-0.90039 0.29883,-1.09961 L 490,537.80078 489.5,537.5 Z m -11.29883,5.20117 -1,0.0996 -1,0.59961 -0.90039,0.80078 -0.40039,0.39844 -0.30078,0.60156 -0.79883,0.59961 -3.30078,0.19922 -5.29883,2.5 -3.90039,0.20117 -2.20117,0.0996 -0.89844,-0.30078 -2,-1.40039 H 453 l -0.19922,1.20117 -0.30078,3.69922 -0.59961,0.80078 -0.5,0.59961 -0.59961,1.30078 -0.30078,1.5 v 1.09961 l -0.69922,0.5 -1,1.29883 -0.60156,0.40039 -1.59961,0.20117 L 445,559.09961 444.30078,558.69922 443,558 442.09961,557.90039 440,558.59961 439.30078,558.5 l 0.39844,-1.5 -0.89844,0.30078 -0.40039,0.59961 -0.40039,0.5 -0.40039,0.5 -2.90039,0.40039 -0.59961,0.5 -0.5,0.5 -1.29883,2.09961 0.19922,0.69922 -0.0996,0.0996 -0.30078,0.10156 -0.19922,0.59961 0.29883,2.09961 -0.0996,0.69922 -0.29883,0.5 -0.10156,0.10156 -0.89844,0.39844 -0.40039,0.5 -0.0996,1 0.19922,2 v 0.90039 l -0.5,1.70117 -0.80078,1.5 -3.39844,4.19922 -0.30078,1.09961 -0.0996,2 0.19922,0.70117 0.20117,0.19922 v 0.19922 l -0.6016,0.30079 -0.5,-0.0996 -0.79883,-0.40039 -1.40039,0.40039 -1.59961,-0.5 -0.90039,0.5 -1.59961,1.69922 -1.59961,0.90039 -1.60156,0.0996 -1.59961,-0.79883 -1.29883,-1.20117 h -0.60156 l -1.59961,1.59961 -2.40039,1.20117 L 408.5,588 l 0.30078,0.19922 -0.40039,1.20117 0.40039,0.79883 0.79883,0.5 0.80078,0.30078 0.40039,0.19922 0.5,1 0.29883,0.40039 0.40039,0.0996 0.80078,-0.59961 0.29883,-0.0996 0.70117,0.40039 1.5,1.29883 L 416,594 l 0.80078,-0.40039 0.69922,-0.5 0.5,0.0996 0.0996,1.60156 -1.90039,0.69922 -4.69922,4.5 -1.80078,0.69922 -1.79883,-0.0996 -3.59961,-0.79883 -0.90039,1.09961 -1,1.40039 -0.59961,1.19922 -0.20117,0.30078 -0.59961,0.5 -1.09961,0.69922 -2.5,0.69922 -0.90039,0.5 -0.19922,0.10156 0.59961,0.59961 L 397,607.5 l 0.0996,0.69922 0.5,0.60156 1.09961,1.29883 2,2.80078 1.10156,1.19922 1.19922,0.59961 h 1.30078 l 1,2.5 0.59961,1.20117 0.79883,0.90039 0.5,0.0996 0.30078,0.19922 1.90039,0.30078 0.69922,0.5 0.30078,1.29883 0.0996,3.5 0.69922,1.30078 0.90039,0.5 2.5,0.40039 2.80078,-0.20117 0.90039,0.10156 3.29883,2.59961 0.40039,0.5 0.0996,0.69922 0.0996,0.70117 0.60156,0.39844 5,1.20117 1,-0.20117 1.89844,-1.59961 1.20117,0.0996 -0.59961,0.70117 L 431.5,632.5 h 0.5 l 0.40039,0.0996 0.29883,0.70117 0.10156,0.29883 0.19922,0.0996 0.69922,-0.19922 2.30078,0.80078 0.5,-0.10156 h 0.19922 l -1,-2.19922 v -0.59961 L 436,631 l 1.40039,-0.80078 0.19922,0.20117 -0.0996,0.5 -0.0996,0.79883 v 0.90039 0.70117 l 0.0996,0.29883 0.69922,-0.29883 0.40039,-0.5 0.30078,-0.70117 0.19922,-0.79883 -0.19922,-0.80078 0.90039,-0.5 -0.10156,-0.40039 -0.39844,-0.40039 -0.20117,-0.29883 0.20117,-0.80078 0.29883,-0.5 0.40039,-0.40039 0.5,-0.39844 2.59961,-0.70117 1,-0.69922 -0.29883,-1.30078 0.69922,-0.90039 -1.69922,-1.39844 0.29883,-1.10156 L 441.5,619.90039 441.40039,619 h 0.19922 l 0.40039,0.0996 0.19922,-0.40039 0.10156,0.10156 0.29883,-0.80078 -0.0996,-0.19922 -0.19922,-0.40039 -0.10156,-0.5 0.10156,-0.30078 0.0996,-0.0996 0.19922,-0.0996 0.80078,0.0996 h 0.40039 l 1.5,-1.09961 2.29883,-3.70117 1.40039,-1.29883 1.40039,-0.0996 1.59961,0.79883 2.90039,2.40039 0.40039,0.59961 0.39844,1.30078 0.40039,0.19922 0.5,0.0996 0.30078,0.30078 0.5,1.30078 0.5,1.5 0.0996,1.09961 -0.40039,0.79883 -0.79883,0.5 L 458.5,622 l 0.40039,0.5 0.19922,0.69922 0.20117,0.80078 0.19922,0.80078 0.80078,1.29883 0.89844,1 1,0.90039 1,0.59961 0.60156,0.0996 0.39844,-0.39844 0.30078,-0.5 L 465,627.5 h 0.59961 l 0.5,0.30078 1,0.89844 0.70117,0.80078 0.29883,0.40039 0.30078,1.5 -0.40039,1.40039 -1.09961,1.39844 0.5,0.90039 -0.0996,0.90039 -0.70117,1.90039 0.70117,0.59961 1.29883,1.5 0.70117,0.40039 0.19922,-0.20117 0.30078,-0.39844 0.19922,-0.40039 0.30078,-0.20117 0.29883,-0.0996 0.70117,0.30078 h 0.39844 l 4,-1.5 H 477 V 638 l 0.19922,0.40039 0.30078,0.29883 0.30078,0.20117 h 0.29883 l 1.20117,-0.40039 1.09961,-0.19922 0.29883,-0.30078 0.20117,-0.59961 v -0.70117 l -0.0996,-0.59961 0.0996,-0.5 L 481.5,634.5 l 0.40039,0.0996 0.40039,0.5 0.5,0.40039 0.59961,-0.0996 L 484.09961,635 h 0.70117 l 0.69922,0.5 0.30078,-0.5 1,0.40039 1.39844,0.0996 1.20117,0.5 0.59961,1.40039 0.59961,0.0996 3.59961,1.30078 -0.39844,0.0996 -1,0.5 v 0.40039 l 0.89844,0.69922 0.70117,0.0996 1.79883,-0.19922 0.70117,-0.30078 1.90039,-1.5 1.5,-1.5 2,-1 0.79883,-1.09961 0.5,-1.30078 0.40039,-1.59961 0.30078,-1.59961 0.0996,-1.59961 v -0.30078 l -0.0996,-2.69922 0.29883,-1 0.90039,-0.30078 0.90039,-0.19922 2.09961,-0.80078 2,-0.19922 2.69922,0.29883 0.5,0.60156 0.20117,0.59961 0.40039,0.0996 0.39844,-0.19922 0.30078,-0.20117 0.30078,-1.69922 0.19922,-0.0996 0.59961,0.19922 0.20117,-0.0996 1.5,-1.59961 1.29883,-1.80078 0.5,-2.30078 -0.40039,-3.09961 -1.39844,-1.5 -2,0.59961 -2.10156,1.30078 -1.89844,0.69922 0.5,-0.89844 L 514,613 l 0.40039,-0.80078 1.29883,-4.19922 -0.39844,-0.5 0.29883,-0.5 v -0.19922 l 0.0996,-0.40039 -0.59961,-0.20117 -0.29883,-0.69922 v -0.90039 l 0.19922,-1 -1.40039,-0.79883 0.30078,-0.40039 1,-0.20117 0.79883,-0.29883 -0.59961,-0.40039 -1.69922,-0.19922 -0.40039,-0.20117 -0.40039,-0.40039 -0.5,-0.39844 h -0.69922 l 0.5,-0.5 0.40039,-0.70117 0.0996,-0.79883 L 512.09961,597.5 V 597 l 1.40039,0.0996 1.30078,0.70117 3.19922,3.09961 0.80078,1.40039 0.5,1.79883 0.19922,2.59961 -0.19922,1.20117 -1.10156,1.40039 -0.29883,0.89844 0.0996,0.90039 0.30078,0.90039 0.5,0.69922 0.5,0.30078 0.5,1.59961 0.5,1.09961 0.5,0.60156 L 521.5,616.19922 522,615 l 0.69922,-0.40039 -0.59961,-0.79883 0.20117,-0.70117 0.59961,-0.5 0.5,-0.59961 0.0996,-1.40039 -0.30078,-1.29883 0.30078,-1 0.90039,-1.40039 0.29883,-0.5 V 606 L 524.5,605.69922 v -0.5 L 524.80078,604.5 524.5,604.19922 523,601.90039 522.80078,600.80078 522.5,597.59961 522.19922,597 l -0.79883,-0.5 -0.5,-1.09961 L 520.09961,592.5 520,591.69922 V 591 l -0.19922,-0.5 -0.5,-0.0996 -0.40039,-0.30078 L 518.5,589.30078 518.30078,589 l -0.20117,-0.30078 -5.69922,0.90039 -1,-0.0996 -0.70117,-0.5 -0.79883,-0.30078 -1,0.40039 -1.59961,1.30078 -1.60156,0.79883 -0.5,0.5 -1,1.60156 v 0.0996 l -0.5,0.5 -0.29883,0.5 -0.30078,0.40039 -0.59961,-0.10156 -0.19922,-0.39844 v -0.70117 L 502.09961,592.90039 501.5,592.5 l 0.59961,-1.09961 1.09961,-2.09961 0.60156,-0.80078 0.29883,-0.40039 1.30078,-1.09961 1.19922,-0.69922 2.80078,-0.80078 1.40039,-0.69922 1.09961,-1.20117 0.59961,-1.79883 0.0996,-0.40039 0.0996,-1.90039 -0.59961,-2.5 -0.90039,-1.40039 -1.39844,-1.29883 -1.40039,-0.40039 -0.80078,1.40039 3,3.19922 0.80078,1.80078 H 511.1992 L 510,578.59961 508.69922,578 507.5,577.30078 507,575 l -0.19922,-1.09961 -0.30078,-1 L 506.09961,572 505.69922,571.40039 505.30078,571 504.59961,570.30078 504.30078,570 504,569.40039 503.69922,568.09961 503.5,567.5 l -1,-1.40039 -1.09961,-1 -1.30078,-0.69922 -1.29883,-0.20117 -0.10156,-0.59961 0.80078,-3 0.0996,-1.5 -0.29883,-0.79883 L 499,558.09961 498.69922,557.80078 498,557.5 497.30078,557.40039 496.5,557.5 l -0.90039,-0.0996 -0.40039,-0.80078 0.70117,-1.69922 0.29883,-1.40039 0.20117,-4.59961 -0.5,-0.80078 -1.70117,-2 -0.39844,-0.19922 -0.40039,-0.59961 -0.90039,-0.5 -1.90039,-0.30078 -0.90039,0.19922 -1.79883,0.70117 -1,0.19922 -0.80078,-0.19922 -4.5,-2.59961 -1.19922,-0.30078 -1.80078,1.19922 -1.09961,-0.39844 z"
       inkscape:connector-curvature="0" />
  </g>
  <g
     id="points"
     transform="translate(-396.05079,-536.84961)">
    <circle
       class="50.45652698633212|-12.9181900793958"
       cx="174.10001"
       cy="914.5"
       id="0"
       r="0" />
    <circle
       class="54.83183622502271|-5.186948213106515"
       cx="536.20001"
       cy="576.40002"
       id="1"
       r="0" />
    <circle
       class="60.30097277338595|0.9980452799249111"
       cx="825.90002"
       cy="97.599998"
       id="2"
       r="0" />
  </g>
  <g
     id="label_points"
     transform="translate(-396.05079,-536.84961)">
    <circle
       class="Derry"
       cx="441.20001"
       cy="565.20001"
       id="circle239"
       r="0" />
    <circle
       class="Strabane"
       cx="432.70001"
       cy="579.90002"
       id="circle241"
       r="0" />
    <circle
       class="Fermanagh"
       cx="417.39999"
       cy="613.09998"
       id="circle243"
       r="0" />
    <circle
       class="Dungannon"
       cx="455.79999"
       cy="605.20001"
       id="circle245"
       r="0" />
    <circle
       class="Armagh"
       cx="468.89999"
       cy="617"
       id="circle247"
       r="0" />
    <circle
       class="Newry and Mourne"
       cx="484.89999"
       cy="628.59998"
       id="circle249"
       r="0" />
    <circle
       class="Flintshire"
       cx="630"
       cy="705.29999"
       id="circle251"
       r="0" />
    <circle
       class="Cheshire West and Chester"
       cx="650.29999"
       cy="709.09998"
       id="circle253"
       r="0" />
    <circle
       class="Wrexham"
       cx="637.09998"
       cy="720"
       id="circle255"
       r="0" />
    <circle
       class="Shropshire"
       cx="649.70001"
       cy="755.20001"
       id="circle257"
       r="0" />
    <circle
       class="Powys"
       cx="619.70001"
       cy="781.20001"
       id="circle259"
       r="0" />
    <circle
       class="Herefordshire"
       cx="650.5"
       cy="791.29999"
       id="circle261"
       r="0" />
    <circle
       class="Monmouthshire"
       cx="644.70001"
       cy="815.59998"
       id="circle263"
       r="0" />
    <circle
       class="Gloucestershire"
       cx="682.70001"
       cy="811.70001"
       id="circle265"
       r="0" />
    <circle
       class="Scottish Borders"
       cx="651.09998"
       cy="519.20001"
       id="circle267"
       r="0" />
    <circle
       class="Northumberland"
       cx="684.59998"
       cy="547.20001"
       id="circle269"
       r="0" />
    <circle
       class="Cumbria"
       cx="641.29999"
       cy="594.90002"
       id="circle271"
       r="0" />
    <circle
       class="Dumfries and Galloway"
       cx="594.90002"
       cy="552.90002"
       id="circle273"
       r="0" />
    <circle
       class="Limavady"
       cx="454.29999"
       cy="565"
       id="circle275"
       r="0" />
    <circle
       class="Coleraine"
       cx="465.10001"
       cy="558"
       id="circle277"
       r="0" />
    <circle
       class="Moyle"
       cx="491.39999"
       cy="552"
       id="circle279"
       r="0" />
    <circle
       class="Larne"
       cx="503.79999"
       cy="575.79999"
       id="circle281"
       r="0" />
    <circle
       class="Carrickfergus"
       cx="506.70001"
       cy="583.70001"
       id="circle283"
       r="0" />
    <circle
       class="Newtownabbey"
       cx="499.20001"
       cy="585.79999"
       id="circle285"
       r="0" />
    <circle
       class="Belfast"
       cx="500.20001"
       cy="594.90002"
       id="circle287"
       r="0" />
    <circle
       class="North Down"
       cx="509.39999"
       cy="591.40002"
       id="circle289"
       r="0" />
    <circle
       class="Ards"
       cx="518.09998"
       cy="596.09998"
       id="circle291"
       r="0" />
    <circle
       class="Down"
       cx="506.29999"
       cy="615.20001"
       id="circle293"
       r="0" />
    <circle
       class="Clackmannanshire"
       cx="603.79999"
       cy="468.10001"
       id="circle295"
       r="0" />
    <circle
       class="Stirling"
       cx="571.90002"
       cy="456.29999"
       id="circle297"
       r="0" />
    <circle
       class="Falkirk"
       cx="601.79999"
       cy="482.10001"
       id="circle299"
       r="0" />
    <circle
       class="West Lothian"
       cx="613.09998"
       cy="489.5"
       id="circle301"
       r="0" />
    <circle
       class="Edinburgh"
       cx="623.70001"
       cy="487.70001"
       id="circle303"
       r="0" />
    <circle
       class="Midlothian"
       cx="634.59998"
       cy="495.10001"
       id="circle305"
       r="0" />
    <circle
       class="East Lothian"
       cx="651.29999"
       cy="484.5"
       id="circle307"
       r="0" />
    <circle
       class="North Tyneside"
       cx="709.40002"
       cy="561.29999"
       id="circle309"
       r="0" />
    <circle
       class="South Tyneside"
       cx="711.70001"
       cy="566.5"
       id="circle311"
       r="0" />
    <circle
       class="Sunderland"
       cx="710.70001"
       cy="574.59998"
       id="circle313"
       r="0" />
    <circle
       class="Durham"
       cx="687.90002"
       cy="590.79999"
       id="circle315"
       r="0" />
    <circle
       class="Hartlepool"
       cx="720.5"
       cy="589.90002"
       id="circle317"
       r="0" />
    <circle
       class="Redcar and Cleveland"
       cx="731"
       cy="599"
       id="circle319"
       r="0" />
    <circle
       class="North Yorkshire"
       cx="704.70001"
       cy="627.20001"
       id="circle321"
       r="0" />
    <circle
       class="East Riding of Yorkshire"
       cx="753.90002"
       cy="651.40002"
       id="circle323"
       r="0" />
    <circle
       class="Kingston upon Hull"
       cx="761.40002"
       cy="662.70001"
       id="circle325"
       r="0" />
    <circle
       class="North Lincolnshire"
       cx="749.79999"
       cy="674.40002"
       id="circle327"
       r="0" />
    <circle
       class="North East Lincolnshire"
       cx="773.5"
       cy="681"
       id="circle329"
       r="0" />
    <circle
       class="Lincolnshire"
       cx="765.59998"
       cy="712.79999"
       id="circle331"
       r="0" />
    <circle
       class="Norfolk"
       cx="823.59998"
       cy="748.29999"
       id="circle333"
       r="0" />
    <circle
       class="Suffolk"
       cx="826.29999"
       cy="786.79999"
       id="circle335"
       r="0" />
    <circle
       class="Essex"
       cx="800.90002"
       cy="813.79999"
       id="circle337"
       r="0" />
    <circle
       class="Southend-on-Sea"
       cx="813"
       cy="833"
       id="circle339"
       r="0" />
    <circle
       class="Thurrock"
       cx="796.59998"
       cy="836.70001"
       id="circle341"
       r="0" />
    <circle
       class="Kent"
       cx="815.70001"
       cy="861.09998"
       id="circle343"
       r="0" />
    <circle
       class="Medway"
       cx="804.90002"
       cy="840.59998"
       id="circle345"
       r="0" />
    <circle
       class="East Sussex"
       cx="788.79999"
       cy="879.09998"
       id="circle347"
       r="0" />
    <circle
       class="Brighton and Hove"
       cx="773"
       cy="885.5"
       id="circle349"
       r="0" />
    <circle
       class="West Sussex"
       cx="756.5"
       cy="878.29999"
       id="circle351"
       r="0" />
    <circle
       class="Hampshire"
       cx="726.09998"
       cy="866.70001"
       id="circle353"
       r="0" />
    <circle
       class="Portsmouth"
       cx="729.59998"
       cy="887.70001"
       id="circle355"
       r="0" />
    <circle
       class="Southampton"
       cx="715.09998"
       cy="880.70001"
       id="circle357"
       r="0" />
    <circle
       class="Dorset"
       cx="671.20001"
       cy="889.29999"
       id="circle359"
       r="0" />
    <circle
       class="Bournemouth"
       cx="690.29999"
       cy="894"
       id="circle361"
       r="0" />
    <circle
       class="Poole"
       cx="687.20001"
       cy="893.40002"
       id="circle363"
       r="0" />
    <circle
       class="Devon"
       cx="597.40002"
       cy="892.5"
       id="circle365"
       r="0" />
    <circle
       class="Torbay"
       cx="610.79999"
       cy="914.79999"
       id="circle367"
       r="0" />
    <circle
       class="Plymouth"
       cx="585.79999"
       cy="918.5"
       id="circle369"
       r="0" />
    <circle
       class="Cornwall"
       cx="567.5"
       cy="907.29999"
       id="circle371"
       r="0" />
    <circle
       class="Somerset"
       cx="647.5"
       cy="868.5"
       id="circle373"
       r="0" />
    <circle
       class="North Somerset"
       cx="649.09998"
       cy="843.79999"
       id="circle375"
       r="0" />
    <circle
       class="Bristol"
       cx="658.5"
       cy="841.79999"
       id="circle377"
       r="0" />
    <circle
       class="South Gloucestershire"
       cx="664.29999"
       cy="834.09998"
       id="circle379"
       r="0" />
    <circle
       class="Newport"
       cx="641.59998"
       cy="830.40002"
       id="circle381"
       r="0" />
    <circle
       class="Cardiff"
       cx="630.09998"
       cy="836.40002"
       id="circle383"
       r="0" />
    <circle
       class="Vale of Glamorgan"
       cx="622.20001"
       cy="841"
       id="circle385"
       r="0" />
    <circle
       class="Bridgend"
       cx="612.20001"
       cy="832.59998"
       id="circle387"
       r="0" />
    <circle
       class="Neath Port Talbot"
       cx="603.79999"
       cy="824.59998"
       id="circle389"
       r="0" />
    <circle
       class="Swansea"
       cx="593.5"
       cy="822.59998"
       id="circle391"
       r="0" />
    <circle
       class="Carmarthenshire"
       cx="585.09998"
       cy="808.70001"
       id="circle393"
       r="0" />
    <circle
       class="Pembrokeshire"
       cx="550.70001"
       cy="806.5"
       id="circle395"
       r="0" />
    <circle
       class="Ceredigion"
       cx="594.90002"
       cy="775.09998"
       id="circle397"
       r="0" />
    <circle
       class="Gwynedd"
       cx="595.90002"
       cy="734"
       id="circle399"
       r="0" />
    <circle
       class="Conwy"
       cx="603.29999"
       cy="711.79999"
       id="circle401"
       r="0" />
    <circle
       class="Denbighshire"
       cx="622.09998"
       cy="716.40002"
       id="circle403"
       r="0" />
    <circle
       class="Halton"
       cx="635.90002"
       cy="693.29999"
       id="circle405"
       r="0" />
    <circle
       class="Halton"
       cx="653.5"
       cy="696.59998"
       id="circle407"
       r="0" />
    <circle
       class="Knowsley"
       cx="646.09998"
       cy="688.5"
       id="circle409"
       r="0" />
    <circle
       class="Liverpool"
       cx="640.90002"
       cy="688"
       id="circle411"
       r="0" />
    <circle
       class="Sefton"
       cx="636.5"
       cy="676.40002"
       id="circle413"
       r="0" />
    <circle
       class="Lancashire"
       cx="655.79999"
       cy="649.5"
       id="circle415"
       r="0" />
    <circle
       class="Blackpool"
       cx="638.59998"
       cy="656.09998"
       id="circle417"
       r="0" />
    <circle
       class="South Ayrshire"
       cx="560.40002"
       cy="540.29999"
       id="circle419"
       r="0" />
    <circle
       class="North Ayshire"
       cx="557.90002"
       cy="504.10001"
       id="circle421"
       r="0" />
    <circle
       class="Inverclyde"
       cx="557.29999"
       cy="488.5"
       id="circle423"
       r="0" />
    <circle
       class="Renfrewshire"
       cx="567.70001"
       cy="493.10001"
       id="circle425"
       r="0" />
    <circle
       class="West Dunbartonshire"
       cx="566.90002"
       cy="480.10001"
       id="circle427"
       r="0" />
    <circle
       class="Argyll and Bute"
       cx="530.5"
       cy="456"
       id="circle429"
       r="0" />
    <circle
       class="Highland"
       cx="549.59998"
       cy="365.29999"
       id="circle431"
       r="0" />
    <circle
       class="Moray"
       cx="628.40002"
       cy="352.60001"
       id="circle433"
       r="0" />
    <circle
       class="Aberdeenshire"
       cx="656.09998"
       cy="374.29999"
       id="circle435"
       r="0" />
    <circle
       class="Aberdeen"
       cx="676"
       cy="381.29999"
       id="circle437"
       r="0" />
    <circle
       class="Angus"
       cx="643"
       cy="416.70001"
       id="circle439"
       r="0" />
    <circle
       class="Dundee"
       cx="641"
       cy="438.89999"
       id="circle441"
       r="0" />
    <circle
       class="Perthshire and Kinross"
       cx="603.70001"
       cy="431.70001"
       id="circle443"
       r="0" />
    <circle
       class="Fife"
       cx="633"
       cy="458.60001"
       id="circle445"
       r="0" />
    <circle
       class="Isle of Wight"
       cx="718.70001"
       cy="898.20001"
       id="circle447"
       r="0" />
    <circle
       class="Anglesey"
       cx="574.79999"
       cy="698.59998"
       id="circle449"
       r="0" />
    <circle
       class="Eilean Siar"
       cx="470.79999"
       cy="288"
       id="circle451"
       r="0" />
    <circle
       class="Orkney"
       cx="631.09998"
       cy="212.60001"
       id="circle453"
       r="0" />
    <circle
       class="Shetland Islands"
       cx="719.09998"
       cy="97.699997"
       id="circle455"
       r="0" />
    <circle
       class="Isles of Scilly"
       cx="484.20001"
       cy="953.70001"
       id="circle457"
       r="0" />
    <circle
       class="Caerphilly"
       cx="629.59998"
       cy="826.20001"
       id="circle459"
       r="0" />
    <circle
       class="Rhondda, Cynon, Taff"
       cx="619.90002"
       cy="827.29999"
       id="circle461"
       r="0" />
    <circle
       class="Blaenau Gwent"
       cx="630"
       cy="816.5"
       id="circle463"
       r="0" />
    <circle
       class="Torfaen"
       cx="637.5"
       cy="823.20001"
       id="circle465"
       r="0" />
    <circle
       class="Merthyr Tydfil"
       cx="621.90002"
       cy="818.79999"
       id="circle467"
       r="0" />
    <circle
       class="North Lanarkshire"
       cx="594"
       cy="491.5"
       id="circle469"
       r="0" />
    <circle
       class="East Dunbartonshire"
       cx="582.20001"
       cy="483.79999"
       id="circle471"
       r="0" />
    <circle
       class="Glasgow"
       cx="580.40002"
       cy="492.60001"
       id="circle473"
       r="0" />
    <circle
       class="East Renfrewshire"
       cx="575.70001"
       cy="500.70001"
       id="circle475"
       r="0" />
    <circle
       class="East Ayrshire"
       cx="577.59998"
       cy="525.5"
       id="circle477"
       r="0" />
    <circle
       class="South Lanarkshire"
       cx="600.70001"
       cy="513.70001"
       id="circle479"
       r="0" />
    <circle
       class="Magherafelt"
       cx="466.29999"
       cy="578.40002"
       id="circle481"
       r="0" />
    <circle
       class="Omagh"
       cx="438.79999"
       cy="596.09998"
       id="circle483"
       r="0" />
    <circle
       class="Mid Ulster"
       cx="461.10001"
       cy="591.20001"
       id="circle485"
       r="0" />
    <circle
       class="Craigavon"
       cx="480.70001"
       cy="603.90002"
       id="circle487"
       r="0" />
    <circle
       class="Banbridge"
       cx="491.29999"
       cy="616.09998"
       id="circle489"
       r="0" />
    <circle
       class="Antrim"
       cx="485.70001"
       cy="587.40002"
       id="circle491"
       r="0" />
    <circle
       class="Lisburn"
       cx="493.29999"
       cy="601.5"
       id="circle493"
       r="0" />
    <circle
       class="Ballymoney"
       cx="476.60001"
       cy="558.79999"
       id="circle495"
       r="0" />
    <circle
       class="Ballymena"
       cx="486.70001"
       cy="570.90002"
       id="circle497"
       r="0" />
    <circle
       class="Castlereagh"
       cx="504.5"
       cy="599.90002"
       id="circle499"
       r="0" />
    <circle
       class="Wandsworth"
       cx="771.5"
       cy="840.79999"
       id="circle501"
       r="0" />
    <circle
       class="Merton"
       cx="770.09998"
       cy="843.70001"
       id="circle503"
       r="0" />
    <circle
       class="Westminster"
       cx="771.90002"
       cy="836"
       id="circle505"
       r="0" />
    <circle
       class="Kensington and Chelsea"
       cx="770.5"
       cy="837.20001"
       id="circle507"
       r="0" />
    <circle
       class="Hounslow"
       cx="762.5"
       cy="839.09998"
       id="circle509"
       r="0" />
    <circle
       class="Ealing"
       cx="763.79999"
       cy="835.40002"
       id="circle511"
       r="0" />
    <circle
       class="Hammersmith and Fulham"
       cx="769"
       cy="837.20001"
       id="circle513"
       r="0" />
    <circle
       class="Stockton-on-Tees"
       cx="716.09998"
       cy="599.09998"
       id="circle515"
       r="0" />
    <circle
       class="Darlington"
       cx="707.79999"
       cy="601.20001"
       id="circle517"
       r="0" />
    <circle
       class="Middlesbrough"
       cx="720.5"
       cy="600.59998"
       id="circle519"
       r="0" />
    <circle
       class="Richmond upon Thames"
       cx="763.70001"
       cy="842.5"
       id="circle521"
       r="0" />
    <circle
       class="City"
       cx="775"
       cy="835.5"
       id="circle523"
       r="0" />
    <circle
       class="Tower Hamlets"
       cx="778.20001"
       cy="835.70001"
       id="circle525"
       r="0" />
    <circle
       class="Gateshead"
       cx="699.5"
       cy="567.29999"
       id="circle527"
       r="0" />
    <circle
       class="Newcastle upon Tyne"
       cx="703"
       cy="562.09998"
       id="circle529"
       r="0" />
    <circle
       class="York"
       cx="728.20001"
       cy="647.40002"
       id="circle531"
       r="0" />
    <circle
       class="Merseyside"
       cx="651.20001"
       cy="687.90002"
       id="circle533"
       r="0" />
    <circle
       class="Enfield"
       cx="775.29999"
       cy="826"
       id="circle535"
       r="0" />
    <circle
       class="Hertfordshire"
       cx="772.79999"
       cy="810"
       id="circle537"
       r="0" />
    <circle
       class="Barnet"
       cx="769.90002"
       cy="828.79999"
       id="circle539"
       r="0" />
    <circle
       class="Waltham Forest"
       cx="778.90002"
       cy="830"
       id="circle541"
       r="0" />
    <circle
       class="Redbridge"
       cx="783.40002"
       cy="831.29999"
       id="circle543"
       r="0" />
    <circle
       class="Havering"
       cx="790.29999"
       cy="832.20001"
       id="circle545"
       r="0" />
    <circle
       class="Cambridgeshire"
       cx="781.40002"
       cy="774.09998"
       id="circle547"
       r="0" />
    <circle
       class="Bexley"
       cx="786.29999"
       cy="840"
       id="circle549"
       r="0" />
    <circle
       class="Sutton"
       cx="771.59998"
       cy="847.29999"
       id="circle551"
       r="0" />
    <circle
       class="Milton Keynes"
       cx="744.70001"
       cy="793.90002"
       id="circle553"
       r="0" />
    <circle
       class="Buckinghamshire"
       cx="737.90002"
       cy="809.09998"
       id="circle555"
       r="0" />
    <circle
       class="Hillingdon"
       cx="759"
       cy="831.79999"
       id="circle557"
       r="0" />
    <circle
       class="Brent"
       cx="766.79999"
       cy="832.70001"
       id="circle559"
       r="0" />
    <circle
       class="Luton"
       cx="760.40002"
       cy="808.5"
       id="circle561"
       r="0" />
    <circle
       class="Harrow"
       cx="762.90002"
       cy="830.40002"
       id="circle563"
       r="0" />
    <circle
       class="Central Bedfordshire"
       cx="754"
       cy="800.40002"
       id="circle565"
       r="0" />
    <circle
       class="Bedford"
       cx="757"
       cy="785.90002"
       id="circle567"
       r="0" />
    <circle
       class="Rutland"
       cx="748.5"
       cy="749.29999"
       id="circle569"
       r="0" />
    <circle
       class="Nottinghamshire"
       cx="733.70001"
       cy="711.59998"
       id="circle571"
       r="0" />
    <circle
       class="Northamptonshire"
       cx="737"
       cy="777.79999"
       id="circle573"
       r="0" />
    <circle
       class="Camden"
       cx="772.29999"
       cy="833.29999"
       id="circle575"
       r="0" />
    <circle
       class="Islington"
       cx="774.70001"
       cy="833.59998"
       id="circle577"
       r="0" />
    <circle
       class="Peterborough"
       cx="764.79999"
       cy="754.40002"
       id="circle579"
       r="0" />
    <circle
       class="Lambeth"
       cx="773.90002"
       cy="840.40002"
       id="circle581"
       r="0" />
    <circle
       class="Southwark"
       cx="775.90002"
       cy="838.09998"
       id="circle583"
       r="0" />
    <circle
       class="Doncaster"
       cx="729.09998"
       cy="680.59998"
       id="circle585"
       r="0" />
    <circle
       class="Croydon"
       cx="775.79999"
       cy="847.90002"
       id="circle587"
       r="0" />
    <circle
       class="Lewisham"
       cx="778.70001"
       cy="841.29999"
       id="circle589"
       r="0" />
    <circle
       class="Haringey"
       cx="774.59998"
       cy="830.29999"
       id="circle591"
       r="0" />
    <circle
       class="Kingston upon Thames"
       cx="766.5"
       cy="844.79999"
       id="circle593"
       r="0" />
    <circle
       class="Newham"
       cx="781.29999"
       cy="835.09998"
       id="circle595"
       r="0" />
    <circle
       class="Greenwich"
       cx="782"
       cy="839.70001"
       id="circle597"
       r="0" />
    <circle
       class="Hackney"
       cx="776.70001"
       cy="833.20001"
       id="circle599"
       r="0" />
    <circle
       class="Barking and Dagenham"
       cx="785.90002"
       cy="834.5"
       id="circle601"
       r="0" />
    <circle
       class="Leicestershire"
       cx="735.09998"
       cy="747.70001"
       id="circle603"
       r="0" />
    <circle
       class="Cheshire East"
       cx="672.09998"
       cy="705.70001"
       id="circle605"
       r="0" />
    <circle
       class="Derbyshire"
       cx="705.59998"
       cy="713.20001"
       id="circle607"
       r="0" />
    <circle
       class="Rotherham"
       cx="717.79999"
       cy="691.20001"
       id="circle609"
       r="0" />
    <circle
       class="Sheffield"
       cx="707.59998"
       cy="691.70001"
       id="circle611"
       r="0" />
    <circle
       class="Stoke-on-Trent"
       cx="677.5"
       cy="721.5"
       id="circle613"
       r="0" />
    <circle
       class="Telford and Wrekin"
       cx="663.90002"
       cy="744"
       id="circle615"
       r="0" />
    <circle
       class="Staffordshire"
       cx="686.20001"
       cy="734.90002"
       id="circle617"
       r="0" />
    <circle
       class="Bromley"
       cx="782.29999"
       cy="847.09998"
       id="circle619"
       r="0" />
    <circle
       class="Worcestershire"
       cx="677.79999"
       cy="781.40002"
       id="circle621"
       r="0" />
    <circle
       class="Warwickshire"
       cx="705.09998"
       cy="783.40002"
       id="circle623"
       r="0" />
    <circle
       class="Oxfordshire"
       cx="714.40002"
       cy="815.90002"
       id="circle625"
       r="0" />
    <circle
       class="Wigan"
       cx="656.59998"
       cy="680.29999"
       id="circle627"
       r="0" />
    <circle
       class="Stockport"
       cx="677.5"
       cy="692.09998"
       id="circle629"
       r="0" />
    <circle
       class="Warrington"
       cx="659.70001"
       cy="692.59998"
       id="circle631"
       r="0" />
    <circle
       class="West Berkshire"
       cx="716.90002"
       cy="840.09998"
       id="circle633"
       r="0" />
    <circle
       class="Wokingham"
       cx="736.79999"
       cy="843.09998"
       id="circle635"
       r="0" />
    <circle
       class="Bracknell Forest"
       cx="743.5"
       cy="844.20001"
       id="circle637"
       r="0" />
    <circle
       class="Royal Borough of Windsor and Maidenhead"
       cx="744.09998"
       cy="836.20001"
       id="circle639"
       r="0" />
    <circle
       class="Slough"
       cx="753.59998"
       cy="839.09998"
       id="circle641"
       r="0" />
    <circle
       class="Reading"
       cx="730.09998"
       cy="840.79999"
       id="circle643"
       r="0" />
    <circle
       class="Surrey"
       cx="758.09998"
       cy="855.70001"
       id="circle645"
       r="0" />
    <circle
       class="Blackburn with Darwen"
       cx="664.20001"
       cy="666.70001"
       id="circle647"
       r="0" />
    <circle
       class="Swindon"
       cx="697.29999"
       cy="833.70001"
       id="circle649"
       r="0" />
    <circle
       class="Bath and North East Somerset"
       cx="664.20001"
       cy="849"
       id="circle651"
       r="0" />
    <circle
       class="Wiltshire"
       cx="687.79999"
       cy="854.59998"
       id="circle653"
       r="0" />
    <circle
       class="Calderdale"
       cx="686.70001"
       cy="663.59998"
       id="circle655"
       r="0" />
    <circle
       class="Kirklees"
       cx="696.59998"
       cy="673.79999"
       id="circle657"
       r="0" />
    <circle
       class="Nottingham"
       cx="724.29999"
       cy="727"
       id="circle659"
       r="0" />
    <circle
       class="Leicester"
       cx="726.29999"
       cy="752.20001"
       id="circle661"
       r="0" />
    <circle
       class="Derby"
       cx="710.40002"
       cy="730.70001"
       id="circle663"
       r="0" />
    <circle
       class="Leeds"
       cx="709.90002"
       cy="658.59998"
       id="circle665"
       r="0" />
    <circle
       class="Bradford"
       cx="694.40002"
       cy="654.29999"
       id="circle667"
       r="0" />
    <circle
       class="Wakefield"
       cx="713"
       cy="671.5"
       id="circle669"
       r="0" />
    <circle
       class="Barnsley"
       cx="708.70001"
       cy="680.5"
       id="circle671"
       r="0" />
    <circle
       class="Salford"
       cx="666.20001"
       cy="683.09998"
       id="circle673"
       r="0" />
    <circle
       class="Bolton"
       cx="665.70001"
       cy="675.5"
       id="circle675"
       r="0" />
    <circle
       class="Trafford"
       cx="668"
       cy="689.90002"
       id="circle677"
       r="0" />
    <circle
       class="Manchester"
       cx="673.20001"
       cy="686.59998"
       id="circle679"
       r="0" />
    <circle
       class="Oldham"
       cx="684.09998"
       cy="679.20001"
       id="circle681"
       r="0" />
    <circle
       class="Rochdale"
       cx="677.29999"
       cy="673.20001"
       id="circle683"
       r="0" />
    <circle
       class="Tameside"
       cx="680.90002"
       cy="686.20001"
       id="circle685"
       r="0" />
    <circle
       class="Bury"
       cx="671"
       cy="675.70001"
       id="circle687"
       r="0" />
    <circle
       class="Solihull"
       cx="698.5"
       cy="768"
       id="circle689"
       r="0" />
    <circle
       class="Coventry"
       cx="707.29999"
       cy="768.59998"
       id="circle691"
       r="0" />
    <circle
       class="Birmingham"
       cx="691.70001"
       cy="763.20001"
       id="circle693"
       r="0" />
    <circle
       class="Sandwell"
       cx="685.29999"
       cy="759.5"
       id="circle695"
       r="0" />
    <circle
       class="Dudley"
       cx="680"
       cy="763.59998"
       id="circle697"
       r="0" />
    <circle
       class="Walsall"
       cx="687.70001"
       cy="753.09998"
       id="circle699"
       r="0" />
    <circle
       class="Wolverhampton"
       cx="680.20001"
       cy="753.40002"
       id="circle701"
       r="0" />
  </g>
</svg>
