<?xml version="1.0" encoding="UTF-8" standalone="no"?>
<svg
   xmlns:dc="http://purl.org/dc/elements/1.1/"
   xmlns:cc="http://creativecommons.org/ns#"
   xmlns:rdf="http://www.w3.org/1999/02/22-rdf-syntax-ns#"
   xmlns:svg="http://www.w3.org/2000/svg"
   xmlns="http://www.w3.org/2000/svg"
   xmlns:sodipodi="http://sodipodi.sourceforge.net/DTD/sodipodi-0.dtd"
   xmlns:inkscape="http://www.inkscape.org/namespaces/inkscape"
   baseprofile="tiny"
   fill="#6f9c76"
   height="1000"
   stroke="#ffffff"
   stroke-linecap="round"
   stroke-linejoin="round"
   stroke-width=".5"
   version="1.2"
   viewbox="0 0 1000 1000"
   width="1000"
   id="svg704"
   sodipodi:docname="northern_ireland.svg"
   inkscape:version="1.0.1 (3bc2e813f5, 2020-09-07)">
  <metadata
     id="metadata710">
    <rdf:RDF>
      <cc:Work
         rdf:about="">
        <dc:format>image/svg+xml</dc:format>
        <dc:type
           rdf:resource="http://purl.org/dc/dcmitype/StillImage" />
        <dc:title></dc:title>
      </cc:Work>
    </rdf:RDF>
  </metadata>
  <defs
     id="defs708" />
  <sodipodi:namedview
     pagecolor="#ffffff"
     bordercolor="#666666"
     borderopacity="1"
     objecttolerance="10"
     gridtolerance="10"
     guidetolerance="10"
     inkscape:pageopacity="0"
     inkscape:pageshadow="2"
     inkscape:window-width="1920"
     inkscape:window-height="1106"
     id="namedview706"
     showgrid="false"
     inkscape:zoom="0.51972348"
     inkscape:cx="242.91865"
     inkscape:cy="612.1513"
     inkscape:window-x="-11"
     inkscape:window-y="-11"
     inkscape:window-maximized="1"
     inkscape:current-layer="features" />
  <g
     id="features">
    <path
       id="GBDRY"
       d="M 487.09961 537.09961 L 486.40039 537.19922 L 485.90039 537.5 L 485.40039 537.80078 L 484.80078 538.30078 L 485.90039 538.5 L 487.09961 538.40039 L 488.19922 538.5 L 489.30078 539.40039 L 489.09961 539.80078 L 489.09961 540.09961 L 489.09961 540.5 L 489 541.09961 L 489.30078 540.59961 L 489.80078 539.69922 L 490.09961 538.59961 L 490 537.80078 L 489.5 537.5 L 487.09961 537.09961 z M 475.80078 542.30078 L 474.80078 542.40039 L 473.80078 543 L 472.90039 543.80078 L 472.5 544.19922 L 472.19922 544.80078 L 471.40039 545.40039 L 468.09961 545.59961 L 462.80078 548.09961 L 458.90039 548.30078 L 456.69922 548.40039 L 455.80078 548.09961 L 453.80078 546.69922 L 453 546.69922 L 452.80078 547.90039 L 452.5 551.59961 L 451.90039 552.40039 L 451.40039 553 L 450.80078 554.30078 L 450.5 555.80078 L 450.5 556.90039 L 449.80078 557.40039 L 448.80078 558.69922 L 448.19922 559.09961 L 446.59961 559.30078 L 445 559.09961 L 444.30078 558.69922 L 443 558 L 442.09961 557.90039 L 440 558.59961 L 439.30078 558.5 L 439.69922 557 L 438.80078 557.30078 L 438.40039 557.90039 L 438 558.40039 L 437.59961 558.90039 L 434.69922 559.30078 L 434.09961 559.80078 L 433.59961 560.30078 L 432.30078 562.40039 L 432.5 563.09961 L 432.40039 563.19922 L 432.09961 563.30078 L 431.90039 563.90039 L 432.19922 566 L 432.09961 566.69922 L 431.80078 567.19922 L 431.69922 567.30078 L 430.80078 567.69922 L 430.40039 568.19922 L 430.30078 569.19922 L 430.5 571.19922 L 430.5 572.09961 L 430 573.80078 L 429.19922 575.30078 L 425.80078 579.5 L 425.5 580.59961 L 425.40039 582.59961 L 425.59961 583.30078 L 425.80078 583.5 L 425.80078 583.69922 L 425.19922 584 L 424.69922 583.90039 L 423.90039 583.5 L 422.5 583.90039 L 420.90039 583.40039 L 420 583.90039 L 418.40039 585.59961 L 416.80078 586.5 L 415.19922 586.59961 L 413.59961 585.80078 L 412.30078 584.59961 L 411.69922 584.59961 L 410.09961 586.19922 L 407.69922 587.40039 L 408.5 588 L 408.80078 588.19922 L 408.40039 589.40039 L 408.80078 590.19922 L 409.59961 590.69922 L 410.40039 591 L 410.80078 591.19922 L 411.30078 592.19922 L 411.59961 592.59961 L 412 592.69922 L 412.80078 592.09961 L 413.09961 592 L 413.80078 592.40039 L 415.30078 593.69922 L 416 594 L 416.80078 593.59961 L 417.5 593.09961 L 418 593.19922 L 418.09961 594.80078 L 416.19922 595.5 L 411.5 600 L 409.69922 600.69922 L 407.90039 600.59961 L 404.30078 599.80078 L 403.40039 600.90039 L 402.40039 602.30078 L 401.80078 603.5 L 401.59961 603.80078 L 401 604.30078 L 399.90039 605 L 397.40039 605.69922 L 396.5 606.19922 L 396.30078 606.30078 L 396.90039 606.90039 L 397 607.5 L 397.09961 608.19922 L 397.59961 608.80078 L 398.69922 610.09961 L 400.69922 612.90039 L 401.80078 614.09961 L 403 614.69922 L 404.30078 614.69922 L 405.30078 617.19922 L 405.90039 618.40039 L 406.69922 619.30078 L 407.19922 619.40039 L 407.5 619.59961 L 409.40039 619.90039 L 410.09961 620.40039 L 410.40039 621.69922 L 410.5 625.19922 L 411.19922 626.5 L 412.09961 627 L 414.59961 627.40039 L 417.40039 627.19922 L 418.30078 627.30078 L 421.59961 629.90039 L 422 630.40039 L 422.09961 631.09961 L 422.19922 631.80078 L 422.80078 632.19922 L 427.80078 633.40039 L 428.80078 633.19922 L 430.69922 631.59961 L 431.90039 631.69922 L 431.30078 632.40039 L 431.5 632.5 L 432 632.5 L 432.40039 632.59961 L 432.69922 633.30078 L 432.80078 633.59961 L 433 633.69922 L 433.69922 633.5 L 436 634.30078 L 436.5 634.19922 L 436.69922 634.19922 L 435.69922 632 L 435.69922 631.40039 L 436 631 L 437.40039 630.19922 L 437.59961 630.40039 L 437.5 630.90039 L 437.40039 631.69922 L 437.40039 632.59961 L 437.40039 633.30078 L 437.5 633.59961 L 438.19922 633.30078 L 438.59961 632.80078 L 438.90039 632.09961 L 439.09961 631.30078 L 438.90039 630.5 L 439.80078 630 L 439.69922 629.59961 L 439.30078 629.19922 L 439.09961 628.90039 L 439.30078 628.09961 L 439.59961 627.59961 L 440 627.19922 L 440.5 626.80078 L 443.09961 626.09961 L 444.09961 625.40039 L 443.80078 624.09961 L 444.5 623.19922 L 442.80078 621.80078 L 443.09961 620.69922 L 441.5 619.90039 L 441.40039 619 L 441.59961 619 L 442 619.09961 L 442.19922 618.69922 L 442.30078 618.80078 L 442.59961 618 L 442.5 617.80078 L 442.30078 617.40039 L 442.19922 616.90039 L 442.30078 616.59961 L 442.40039 616.5 L 442.59961 616.40039 L 443.40039 616.5 L 443.80078 616.5 L 445.30078 615.40039 L 447.59961 611.69922 L 449 610.40039 L 450.40039 610.30078 L 452 611.09961 L 454.90039 613.5 L 455.30078 614.09961 L 455.69922 615.40039 L 456.09961 615.59961 L 456.59961 615.69922 L 456.90039 616 L 457.40039 617.30078 L 457.90039 618.80078 L 458 619.90039 L 457.59961 620.69922 L 456.80078 621.19922 L 458.5 622 L 458.90039 622.5 L 459.09961 623.19922 L 459.30078 624 L 459.5 624.80078 L 460.30078 626.09961 L 461.19922 627.09961 L 462.19922 628 L 463.19922 628.59961 L 463.80078 628.69922 L 464.19922 628.30078 L 464.5 627.80078 L 465 627.5 L 465.59961 627.5 L 466.09961 627.80078 L 467.09961 628.69922 L 467.80078 629.5 L 468.09961 629.90039 L 468.40039 631.40039 L 468 632.80078 L 466.90039 634.19922 L 467.40039 635.09961 L 467.30078 636 L 466.59961 637.90039 L 467.30078 638.5 L 468.59961 640 L 469.30078 640.40039 L 469.5 640.19922 L 469.80078 639.80078 L 470 639.40039 L 470.30078 639.19922 L 470.59961 639.09961 L 471.30078 639.40039 L 471.69922 639.40039 L 475.69922 637.90039 L 477 637.90039 L 477 638 L 477.19922 638.40039 L 477.5 638.69922 L 477.80078 638.90039 L 478.09961 638.90039 L 479.30078 638.5 L 480.40039 638.30078 L 480.69922 638 L 480.90039 637.40039 L 480.90039 636.69922 L 480.80078 636.09961 L 480.90039 635.59961 L 481.5 634.5 L 481.90039 634.59961 L 482.30078 635.09961 L 482.80078 635.5 L 483.40039 635.40039 L 484.09961 635 L 484.80078 635 L 485.5 635.5 L 485.80078 635 L 486.80078 635.40039 L 488.19922 635.5 L 489.40039 636 L 490 637.40039 L 490.59961 637.5 L 494.19922 638.80078 L 493.80078 638.90039 L 492.80078 639.40039 L 492.80078 639.80078 L 493.69922 640.5 L 494.40039 640.59961 L 496.19922 640.40039 L 496.90039 640.09961 L 498.80078 638.59961 L 500.30078 637.09961 L 502.30078 636.09961 L 503.09961 635 L 503.59961 633.69922 L 504 632.09961 L 504.30078 630.5 L 504.40039 628.90039 L 504.40039 628.59961 L 504.30078 625.90039 L 504.59961 624.90039 L 505.5 624.59961 L 506.40039 624.40039 L 508.5 623.59961 L 510.5 623.40039 L 513.19922 623.69922 L 513.69922 624.30078 L 513.90039 624.90039 L 514.30078 625 L 514.69922 624.80078 L 515 624.59961 L 515.30078 622.90039 L 515.5 622.80078 L 516.09961 623 L 516.30078 622.90039 L 517.80078 621.30078 L 519.09961 619.5 L 519.59961 617.19922 L 519.19922 614.09961 L 517.80078 612.59961 L 515.80078 613.19922 L 513.69922 614.5 L 511.80078 615.19922 L 512.30078 614.30078 L 514 613 L 514.40039 612.19922 L 515.69922 608 L 515.30078 607.5 L 515.59961 607 L 515.59961 606.80078 L 515.69922 606.40039 L 515.09961 606.19922 L 514.80078 605.5 L 514.80078 604.59961 L 515 603.59961 L 513.59961 602.80078 L 513.90039 602.40039 L 514.90039 602.19922 L 515.69922 601.90039 L 515.09961 601.5 L 513.40039 601.30078 L 513 601.09961 L 512.59961 600.69922 L 512.09961 600.30078 L 511.40039 600.30078 L 511.90039 599.80078 L 512.30078 599.09961 L 512.40039 598.30078 L 512.09961 597.5 L 512.09961 597 L 513.5 597.09961 L 514.80078 597.80078 L 518 600.90039 L 518.80078 602.30078 L 519.30078 604.09961 L 519.5 606.69922 L 519.30078 607.90039 L 518.19922 609.30078 L 517.90039 610.19922 L 518 611.09961 L 518.30078 612 L 518.80078 612.69922 L 519.30078 613 L 519.80078 614.59961 L 520.30078 615.69922 L 520.80078 616.30078 L 521.5 616.19922 L 522 615 L 522.69922 614.59961 L 522.09961 613.80078 L 522.30078 613.09961 L 522.90039 612.59961 L 523.40039 612 L 523.5 610.59961 L 523.19922 609.30078 L 523.5 608.30078 L 524.40039 606.90039 L 524.69922 606.40039 L 524.69922 606 L 524.5 605.69922 L 524.5 605.19922 L 524.80078 604.5 L 524.5 604.19922 L 523 601.90039 L 522.80078 600.80078 L 522.5 597.59961 L 522.19922 597 L 521.40039 596.5 L 520.90039 595.40039 L 520.09961 592.5 L 520 591.69922 L 520 591 L 519.80078 590.5 L 519.30078 590.40039 L 518.90039 590.09961 L 518.5 589.30078 L 518.30078 589 L 518.09961 588.69922 L 512.40039 589.59961 L 511.40039 589.5 L 510.69922 589 L 509.90039 588.69922 L 508.90039 589.09961 L 507.30078 590.40039 L 505.69922 591.19922 L 505.19922 591.69922 L 504.19922 593.30078 L 504.19922 593.40039 L 503.69922 593.90039 L 503.40039 594.40039 L 503.09961 594.80078 L 502.5 594.69922 L 502.30078 594.30078 L 502.30078 593.59961 L 502.09961 592.90039 L 501.5 592.5 L 502.09961 591.40039 L 503.19922 589.30078 L 503.80078 588.5 L 504.09961 588.09961 L 505.40039 587 L 506.59961 586.30078 L 509.40039 585.5 L 510.80078 584.80078 L 511.90039 583.59961 L 512.5 581.80078 L 512.59961 581.40039 L 512.69922 579.5 L 512.09961 577 L 511.19922 575.59961 L 509.80078 574.30078 L 508.40039 573.90039 L 507.59961 575.30078 L 510.59961 578.5 L 511.40039 580.30078 L 511.19922 580.30078 L 510 578.59961 L 508.69922 578 L 507.5 577.30078 L 507 575 L 506.80078 573.90039 L 506.5 572.90039 L 506.09961 572 L 505.69922 571.40039 L 505.30078 571 L 504.59961 570.30078 L 504.30078 570 L 504 569.40039 L 503.69922 568.09961 L 503.5 567.5 L 502.5 566.09961 L 501.40039 565.09961 L 500.09961 564.40039 L 498.80078 564.19922 L 498.69922 563.59961 L 499.5 560.59961 L 499.59961 559.09961 L 499.30078 558.30078 L 499 558.09961 L 498.69922 557.80078 L 498 557.5 L 497.30078 557.40039 L 496.5 557.5 L 495.59961 557.40039 L 495.19922 556.59961 L 495.90039 554.90039 L 496.19922 553.5 L 496.40039 548.90039 L 495.90039 548.09961 L 494.19922 546.09961 L 493.80078 545.90039 L 493.40039 545.30078 L 492.5 544.80078 L 490.59961 544.5 L 489.69922 544.69922 L 487.90039 545.40039 L 486.90039 545.59961 L 486.09961 545.40039 L 481.59961 542.80078 L 480.40039 542.5 L 478.59961 543.69922 L 477.5 543.30078 L 475.80078 542.30078 z " />
    <path
       d="M484.1 952.7l0.3 0.2 0.4 0.7-0.1 0.6-0.5 0.3-0.6-0.2 0.1-1.1 0.4-0.5z m-1.6-1.8l0.3 0.2 0 0.6-0.2 0.5-0.5-0.2-0.3-0.8 0-0.6 0.3 0 0.3 0.2 0.1 0.1z"
       id="GBIOS"
       name="Isles of Scilly" />
  </g>
  <g
     id="points">
    <circle
       class="50.45652698633212|-12.9181900793958"
       cx="174.1"
       cy="914.5"
       id="0" />
    <circle
       class="54.83183622502271|-5.186948213106515"
       cx="536.2"
       cy="576.4"
       id="1" />
    <circle
       class="60.30097277338595|0.9980452799249111"
       cx="825.9"
       cy="97.6"
       id="2" />
  </g>
  <g
     id="label_points">
    <circle
       class="Derry"
       cx="441.2"
       cy="565.2"
       id="circle239" />
    <circle
       class="Strabane"
       cx="432.7"
       cy="579.9"
       id="circle241" />
    <circle
       class="Fermanagh"
       cx="417.4"
       cy="613.1"
       id="circle243" />
    <circle
       class="Dungannon"
       cx="455.8"
       cy="605.2"
       id="circle245" />
    <circle
       class="Armagh"
       cx="468.9"
       cy="617"
       id="circle247" />
    <circle
       class="Newry and Mourne"
       cx="484.9"
       cy="628.6"
       id="circle249" />
    <circle
       class="Flintshire"
       cx="630"
       cy="705.3"
       id="circle251" />
    <circle
       class="Cheshire West and Chester"
       cx="650.3"
       cy="709.1"
       id="circle253" />
    <circle
       class="Wrexham"
       cx="637.1"
       cy="720"
       id="circle255" />
    <circle
       class="Shropshire"
       cx="649.7"
       cy="755.2"
       id="circle257" />
    <circle
       class="Powys"
       cx="619.7"
       cy="781.2"
       id="circle259" />
    <circle
       class="Herefordshire"
       cx="650.5"
       cy="791.3"
       id="circle261" />
    <circle
       class="Monmouthshire"
       cx="644.7"
       cy="815.6"
       id="circle263" />
    <circle
       class="Gloucestershire"
       cx="682.7"
       cy="811.7"
       id="circle265" />
    <circle
       class="Scottish Borders"
       cx="651.1"
       cy="519.2"
       id="circle267" />
    <circle
       class="Northumberland"
       cx="684.6"
       cy="547.2"
       id="circle269" />
    <circle
       class="Cumbria"
       cx="641.3"
       cy="594.9"
       id="circle271" />
    <circle
       class="Dumfries and Galloway"
       cx="594.9"
       cy="552.9"
       id="circle273" />
    <circle
       class="Limavady"
       cx="454.3"
       cy="565"
       id="circle275" />
    <circle
       class="Coleraine"
       cx="465.1"
       cy="558"
       id="circle277" />
    <circle
       class="Moyle"
       cx="491.4"
       cy="552"
       id="circle279" />
    <circle
       class="Larne"
       cx="503.8"
       cy="575.8"
       id="circle281" />
    <circle
       class="Carrickfergus"
       cx="506.7"
       cy="583.7"
       id="circle283" />
    <circle
       class="Newtownabbey"
       cx="499.2"
       cy="585.8"
       id="circle285" />
    <circle
       class="Belfast"
       cx="500.2"
       cy="594.9"
       id="circle287" />
    <circle
       class="North Down"
       cx="509.4"
       cy="591.4"
       id="circle289" />
    <circle
       class="Ards"
       cx="518.1"
       cy="596.1"
       id="circle291" />
    <circle
       class="Down"
       cx="506.3"
       cy="615.2"
       id="circle293" />
    <circle
       class="Clackmannanshire"
       cx="603.8"
       cy="468.1"
       id="circle295" />
    <circle
       class="Stirling"
       cx="571.9"
       cy="456.3"
       id="circle297" />
    <circle
       class="Falkirk"
       cx="601.8"
       cy="482.1"
       id="circle299" />
    <circle
       class="West Lothian"
       cx="613.1"
       cy="489.5"
       id="circle301" />
    <circle
       class="Edinburgh"
       cx="623.7"
       cy="487.7"
       id="circle303" />
    <circle
       class="Midlothian"
       cx="634.6"
       cy="495.1"
       id="circle305" />
    <circle
       class="East Lothian"
       cx="651.3"
       cy="484.5"
       id="circle307" />
    <circle
       class="North Tyneside"
       cx="709.4"
       cy="561.3"
       id="circle309" />
    <circle
       class="South Tyneside"
       cx="711.7"
       cy="566.5"
       id="circle311" />
    <circle
       class="Sunderland"
       cx="710.7"
       cy="574.6"
       id="circle313" />
    <circle
       class="Durham"
       cx="687.9"
       cy="590.8"
       id="circle315" />
    <circle
       class="Hartlepool"
       cx="720.5"
       cy="589.9"
       id="circle317" />
    <circle
       class="Redcar and Cleveland"
       cx="731"
       cy="599"
       id="circle319" />
    <circle
       class="North Yorkshire"
       cx="704.7"
       cy="627.2"
       id="circle321" />
    <circle
       class="East Riding of Yorkshire"
       cx="753.9"
       cy="651.4"
       id="circle323" />
    <circle
       class="Kingston upon Hull"
       cx="761.4"
       cy="662.7"
       id="circle325" />
    <circle
       class="North Lincolnshire"
       cx="749.8"
       cy="674.4"
       id="circle327" />
    <circle
       class="North East Lincolnshire"
       cx="773.5"
       cy="681"
       id="circle329" />
    <circle
       class="Lincolnshire"
       cx="765.6"
       cy="712.8"
       id="circle331" />
    <circle
       class="Norfolk"
       cx="823.6"
       cy="748.3"
       id="circle333" />
    <circle
       class="Suffolk"
       cx="826.3"
       cy="786.8"
       id="circle335" />
    <circle
       class="Essex"
       cx="800.9"
       cy="813.8"
       id="circle337" />
    <circle
       class="Southend-on-Sea"
       cx="813"
       cy="833"
       id="circle339" />
    <circle
       class="Thurrock"
       cx="796.6"
       cy="836.7"
       id="circle341" />
    <circle
       class="Kent"
       cx="815.7"
       cy="861.1"
       id="circle343" />
    <circle
       class="Medway"
       cx="804.9"
       cy="840.6"
       id="circle345" />
    <circle
       class="East Sussex"
       cx="788.8"
       cy="879.1"
       id="circle347" />
    <circle
       class="Brighton and Hove"
       cx="773"
       cy="885.5"
       id="circle349" />
    <circle
       class="West Sussex"
       cx="756.5"
       cy="878.3"
       id="circle351" />
    <circle
       class="Hampshire"
       cx="726.1"
       cy="866.7"
       id="circle353" />
    <circle
       class="Portsmouth"
       cx="729.6"
       cy="887.7"
       id="circle355" />
    <circle
       class="Southampton"
       cx="715.1"
       cy="880.7"
       id="circle357" />
    <circle
       class="Dorset"
       cx="671.2"
       cy="889.3"
       id="circle359" />
    <circle
       class="Bournemouth"
       cx="690.3"
       cy="894"
       id="circle361" />
    <circle
       class="Poole"
       cx="687.2"
       cy="893.4"
       id="circle363" />
    <circle
       class="Devon"
       cx="597.4"
       cy="892.5"
       id="circle365" />
    <circle
       class="Torbay"
       cx="610.8"
       cy="914.8"
       id="circle367" />
    <circle
       class="Plymouth"
       cx="585.8"
       cy="918.5"
       id="circle369" />
    <circle
       class="Cornwall"
       cx="567.5"
       cy="907.3"
       id="circle371" />
    <circle
       class="Somerset"
       cx="647.5"
       cy="868.5"
       id="circle373" />
    <circle
       class="North Somerset"
       cx="649.1"
       cy="843.8"
       id="circle375" />
    <circle
       class="Bristol"
       cx="658.5"
       cy="841.8"
       id="circle377" />
    <circle
       class="South Gloucestershire"
       cx="664.3"
       cy="834.1"
       id="circle379" />
    <circle
       class="Newport"
       cx="641.6"
       cy="830.4"
       id="circle381" />
    <circle
       class="Cardiff"
       cx="630.1"
       cy="836.4"
       id="circle383" />
    <circle
       class="Vale of Glamorgan"
       cx="622.2"
       cy="841"
       id="circle385" />
    <circle
       class="Bridgend"
       cx="612.2"
       cy="832.6"
       id="circle387" />
    <circle
       class="Neath Port Talbot"
       cx="603.8"
       cy="824.6"
       id="circle389" />
    <circle
       class="Swansea"
       cx="593.5"
       cy="822.6"
       id="circle391" />
    <circle
       class="Carmarthenshire"
       cx="585.1"
       cy="808.7"
       id="circle393" />
    <circle
       class="Pembrokeshire"
       cx="550.7"
       cy="806.5"
       id="circle395" />
    <circle
       class="Ceredigion"
       cx="594.9"
       cy="775.1"
       id="circle397" />
    <circle
       class="Gwynedd"
       cx="595.9"
       cy="734"
       id="circle399" />
    <circle
       class="Conwy"
       cx="603.3"
       cy="711.8"
       id="circle401" />
    <circle
       class="Denbighshire"
       cx="622.1"
       cy="716.4"
       id="circle403" />
    <circle
       class="Halton"
       cx="635.9"
       cy="693.3"
       id="circle405" />
    <circle
       class="Halton"
       cx="653.5"
       cy="696.6"
       id="circle407" />
    <circle
       class="Knowsley"
       cx="646.1"
       cy="688.5"
       id="circle409" />
    <circle
       class="Liverpool"
       cx="640.9"
       cy="688"
       id="circle411" />
    <circle
       class="Sefton"
       cx="636.5"
       cy="676.4"
       id="circle413" />
    <circle
       class="Lancashire"
       cx="655.8"
       cy="649.5"
       id="circle415" />
    <circle
       class="Blackpool"
       cx="638.6"
       cy="656.1"
       id="circle417" />
    <circle
       class="South Ayrshire"
       cx="560.4"
       cy="540.3"
       id="circle419" />
    <circle
       class="North Ayshire"
       cx="557.9"
       cy="504.1"
       id="circle421" />
    <circle
       class="Inverclyde"
       cx="557.3"
       cy="488.5"
       id="circle423" />
    <circle
       class="Renfrewshire"
       cx="567.7"
       cy="493.1"
       id="circle425" />
    <circle
       class="West Dunbartonshire"
       cx="566.9"
       cy="480.1"
       id="circle427" />
    <circle
       class="Argyll and Bute"
       cx="530.5"
       cy="456"
       id="circle429" />
    <circle
       class="Highland"
       cx="549.6"
       cy="365.3"
       id="circle431" />
    <circle
       class="Moray"
       cx="628.4"
       cy="352.6"
       id="circle433" />
    <circle
       class="Aberdeenshire"
       cx="656.1"
       cy="374.3"
       id="circle435" />
    <circle
       class="Aberdeen"
       cx="676"
       cy="381.3"
       id="circle437" />
    <circle
       class="Angus"
       cx="643"
       cy="416.7"
       id="circle439" />
    <circle
       class="Dundee"
       cx="641"
       cy="438.9"
       id="circle441" />
    <circle
       class="Perthshire and Kinross"
       cx="603.7"
       cy="431.7"
       id="circle443" />
    <circle
       class="Fife"
       cx="633"
       cy="458.6"
       id="circle445" />
    <circle
       class="Isle of Wight"
       cx="718.7"
       cy="898.2"
       id="circle447" />
    <circle
       class="Anglesey"
       cx="574.8"
       cy="698.6"
       id="circle449" />
    <circle
       class="Eilean Siar"
       cx="470.8"
       cy="288"
       id="circle451" />
    <circle
       class="Orkney"
       cx="631.1"
       cy="212.6"
       id="circle453" />
    <circle
       class="Shetland Islands"
       cx="719.1"
       cy="97.7"
       id="circle455" />
    <circle
       class="Isles of Scilly"
       cx="484.2"
       cy="953.7"
       id="circle457" />
    <circle
       class="Caerphilly"
       cx="629.6"
       cy="826.2"
       id="circle459" />
    <circle
       class="Rhondda, Cynon, Taff"
       cx="619.9"
       cy="827.3"
       id="circle461" />
    <circle
       class="Blaenau Gwent"
       cx="630"
       cy="816.5"
       id="circle463" />
    <circle
       class="Torfaen"
       cx="637.5"
       cy="823.2"
       id="circle465" />
    <circle
       class="Merthyr Tydfil"
       cx="621.9"
       cy="818.8"
       id="circle467" />
    <circle
       class="North Lanarkshire"
       cx="594"
       cy="491.5"
       id="circle469" />
    <circle
       class="East Dunbartonshire"
       cx="582.2"
       cy="483.8"
       id="circle471" />
    <circle
       class="Glasgow"
       cx="580.4"
       cy="492.6"
       id="circle473" />
    <circle
       class="East Renfrewshire"
       cx="575.7"
       cy="500.7"
       id="circle475" />
    <circle
       class="East Ayrshire"
       cx="577.6"
       cy="525.5"
       id="circle477" />
    <circle
       class="South Lanarkshire"
       cx="600.7"
       cy="513.7"
       id="circle479" />
    <circle
       class="Magherafelt"
       cx="466.3"
       cy="578.4"
       id="circle481" />
    <circle
       class="Omagh"
       cx="438.8"
       cy="596.1"
       id="circle483" />
    <circle
       class="Mid Ulster"
       cx="461.1"
       cy="591.2"
       id="circle485" />
    <circle
       class="Craigavon"
       cx="480.7"
       cy="603.9"
       id="circle487" />
    <circle
       class="Banbridge"
       cx="491.3"
       cy="616.1"
       id="circle489" />
    <circle
       class="Antrim"
       cx="485.7"
       cy="587.4"
       id="circle491" />
    <circle
       class="Lisburn"
       cx="493.3"
       cy="601.5"
       id="circle493" />
    <circle
       class="Ballymoney"
       cx="476.6"
       cy="558.8"
       id="circle495" />
    <circle
       class="Ballymena"
       cx="486.7"
       cy="570.9"
       id="circle497" />
    <circle
       class="Castlereagh"
       cx="504.5"
       cy="599.9"
       id="circle499" />
    <circle
       class="Wandsworth"
       cx="771.5"
       cy="840.8"
       id="circle501" />
    <circle
       class="Merton"
       cx="770.1"
       cy="843.7"
       id="circle503" />
    <circle
       class="Westminster"
       cx="771.9"
       cy="836"
       id="circle505" />
    <circle
       class="Kensington and Chelsea"
       cx="770.5"
       cy="837.2"
       id="circle507" />
    <circle
       class="Hounslow"
       cx="762.5"
       cy="839.1"
       id="circle509" />
    <circle
       class="Ealing"
       cx="763.8"
       cy="835.4"
       id="circle511" />
    <circle
       class="Hammersmith and Fulham"
       cx="769"
       cy="837.2"
       id="circle513" />
    <circle
       class="Stockton-on-Tees"
       cx="716.1"
       cy="599.1"
       id="circle515" />
    <circle
       class="Darlington"
       cx="707.8"
       cy="601.2"
       id="circle517" />
    <circle
       class="Middlesbrough"
       cx="720.5"
       cy="600.6"
       id="circle519" />
    <circle
       class="Richmond upon Thames"
       cx="763.7"
       cy="842.5"
       id="circle521" />
    <circle
       class="City"
       cx="775"
       cy="835.5"
       id="circle523" />
    <circle
       class="Tower Hamlets"
       cx="778.2"
       cy="835.7"
       id="circle525" />
    <circle
       class="Gateshead"
       cx="699.5"
       cy="567.3"
       id="circle527" />
    <circle
       class="Newcastle upon Tyne"
       cx="703"
       cy="562.1"
       id="circle529" />
    <circle
       class="York"
       cx="728.2"
       cy="647.4"
       id="circle531" />
    <circle
       class="Merseyside"
       cx="651.2"
       cy="687.9"
       id="circle533" />
    <circle
       class="Enfield"
       cx="775.3"
       cy="826"
       id="circle535" />
    <circle
       class="Hertfordshire"
       cx="772.8"
       cy="810"
       id="circle537" />
    <circle
       class="Barnet"
       cx="769.9"
       cy="828.8"
       id="circle539" />
    <circle
       class="Waltham Forest"
       cx="778.9"
       cy="830"
       id="circle541" />
    <circle
       class="Redbridge"
       cx="783.4"
       cy="831.3"
       id="circle543" />
    <circle
       class="Havering"
       cx="790.3"
       cy="832.2"
       id="circle545" />
    <circle
       class="Cambridgeshire"
       cx="781.4"
       cy="774.1"
       id="circle547" />
    <circle
       class="Bexley"
       cx="786.3"
       cy="840"
       id="circle549" />
    <circle
       class="Sutton"
       cx="771.6"
       cy="847.3"
       id="circle551" />
    <circle
       class="Milton Keynes"
       cx="744.7"
       cy="793.9"
       id="circle553" />
    <circle
       class="Buckinghamshire"
       cx="737.9"
       cy="809.1"
       id="circle555" />
    <circle
       class="Hillingdon"
       cx="759"
       cy="831.8"
       id="circle557" />
    <circle
       class="Brent"
       cx="766.8"
       cy="832.7"
       id="circle559" />
    <circle
       class="Luton"
       cx="760.4"
       cy="808.5"
       id="circle561" />
    <circle
       class="Harrow"
       cx="762.9"
       cy="830.4"
       id="circle563" />
    <circle
       class="Central Bedfordshire"
       cx="754"
       cy="800.4"
       id="circle565" />
    <circle
       class="Bedford"
       cx="757"
       cy="785.9"
       id="circle567" />
    <circle
       class="Rutland"
       cx="748.5"
       cy="749.3"
       id="circle569" />
    <circle
       class="Nottinghamshire"
       cx="733.7"
       cy="711.6"
       id="circle571" />
    <circle
       class="Northamptonshire"
       cx="737"
       cy="777.8"
       id="circle573" />
    <circle
       class="Camden"
       cx="772.3"
       cy="833.3"
       id="circle575" />
    <circle
       class="Islington"
       cx="774.7"
       cy="833.6"
       id="circle577" />
    <circle
       class="Peterborough"
       cx="764.8"
       cy="754.4"
       id="circle579" />
    <circle
       class="Lambeth"
       cx="773.9"
       cy="840.4"
       id="circle581" />
    <circle
       class="Southwark"
       cx="775.9"
       cy="838.1"
       id="circle583" />
    <circle
       class="Doncaster"
       cx="729.1"
       cy="680.6"
       id="circle585" />
    <circle
       class="Croydon"
       cx="775.8"
       cy="847.9"
       id="circle587" />
    <circle
       class="Lewisham"
       cx="778.7"
       cy="841.3"
       id="circle589" />
    <circle
       class="Haringey"
       cx="774.6"
       cy="830.3"
       id="circle591" />
    <circle
       class="Kingston upon Thames"
       cx="766.5"
       cy="844.8"
       id="circle593" />
    <circle
       class="Newham"
       cx="781.3"
       cy="835.1"
       id="circle595" />
    <circle
       class="Greenwich"
       cx="782"
       cy="839.7"
       id="circle597" />
    <circle
       class="Hackney"
       cx="776.7"
       cy="833.2"
       id="circle599" />
    <circle
       class="Barking and Dagenham"
       cx="785.9"
       cy="834.5"
       id="circle601" />
    <circle
       class="Leicestershire"
       cx="735.1"
       cy="747.7"
       id="circle603" />
    <circle
       class="Cheshire East"
       cx="672.1"
       cy="705.7"
       id="circle605" />
    <circle
       class="Derbyshire"
       cx="705.6"
       cy="713.2"
       id="circle607" />
    <circle
       class="Rotherham"
       cx="717.8"
       cy="691.2"
       id="circle609" />
    <circle
       class="Sheffield"
       cx="707.6"
       cy="691.7"
       id="circle611" />
    <circle
       class="Stoke-on-Trent"
       cx="677.5"
       cy="721.5"
       id="circle613" />
    <circle
       class="Telford and Wrekin"
       cx="663.9"
       cy="744"
       id="circle615" />
    <circle
       class="Staffordshire"
       cx="686.2"
       cy="734.9"
       id="circle617" />
    <circle
       class="Bromley"
       cx="782.3"
       cy="847.1"
       id="circle619" />
    <circle
       class="Worcestershire"
       cx="677.8"
       cy="781.4"
       id="circle621" />
    <circle
       class="Warwickshire"
       cx="705.1"
       cy="783.4"
       id="circle623" />
    <circle
       class="Oxfordshire"
       cx="714.4"
       cy="815.9"
       id="circle625" />
    <circle
       class="Wigan"
       cx="656.6"
       cy="680.3"
       id="circle627" />
    <circle
       class="Stockport"
       cx="677.5"
       cy="692.1"
       id="circle629" />
    <circle
       class="Warrington"
       cx="659.7"
       cy="692.6"
       id="circle631" />
    <circle
       class="West Berkshire"
       cx="716.9"
       cy="840.1"
       id="circle633" />
    <circle
       class="Wokingham"
       cx="736.8"
       cy="843.1"
       id="circle635" />
    <circle
       class="Bracknell Forest"
       cx="743.5"
       cy="844.2"
       id="circle637" />
    <circle
       class="Royal Borough of Windsor and Maidenhead"
       cx="744.1"
       cy="836.2"
       id="circle639" />
    <circle
       class="Slough"
       cx="753.6"
       cy="839.1"
       id="circle641" />
    <circle
       class="Reading"
       cx="730.1"
       cy="840.8"
       id="circle643" />
    <circle
       class="Surrey"
       cx="758.1"
       cy="855.7"
       id="circle645" />
    <circle
       class="Blackburn with Darwen"
       cx="664.2"
       cy="666.7"
       id="circle647" />
    <circle
       class="Swindon"
       cx="697.3"
       cy="833.7"
       id="circle649" />
    <circle
       class="Bath and North East Somerset"
       cx="664.2"
       cy="849"
       id="circle651" />
    <circle
       class="Wiltshire"
       cx="687.8"
       cy="854.6"
       id="circle653" />
    <circle
       class="Calderdale"
       cx="686.7"
       cy="663.6"
       id="circle655" />
    <circle
       class="Kirklees"
       cx="696.6"
       cy="673.8"
       id="circle657" />
    <circle
       class="Nottingham"
       cx="724.3"
       cy="727"
       id="circle659" />
    <circle
       class="Leicester"
       cx="726.3"
       cy="752.2"
       id="circle661" />
    <circle
       class="Derby"
       cx="710.4"
       cy="730.7"
       id="circle663" />
    <circle
       class="Leeds"
       cx="709.9"
       cy="658.6"
       id="circle665" />
    <circle
       class="Bradford"
       cx="694.4"
       cy="654.3"
       id="circle667" />
    <circle
       class="Wakefield"
       cx="713"
       cy="671.5"
       id="circle669" />
    <circle
       class="Barnsley"
       cx="708.7"
       cy="680.5"
       id="circle671" />
    <circle
       class="Salford"
       cx="666.2"
       cy="683.1"
       id="circle673" />
    <circle
       class="Bolton"
       cx="665.7"
       cy="675.5"
       id="circle675" />
    <circle
       class="Trafford"
       cx="668"
       cy="689.9"
       id="circle677" />
    <circle
       class="Manchester"
       cx="673.2"
       cy="686.6"
       id="circle679" />
    <circle
       class="Oldham"
       cx="684.1"
       cy="679.2"
       id="circle681" />
    <circle
       class="Rochdale"
       cx="677.3"
       cy="673.2"
       id="circle683" />
    <circle
       class="Tameside"
       cx="680.9"
       cy="686.2"
       id="circle685" />
    <circle
       class="Bury"
       cx="671"
       cy="675.7"
       id="circle687" />
    <circle
       class="Solihull"
       cx="698.5"
       cy="768"
       id="circle689" />
    <circle
       class="Coventry"
       cx="707.3"
       cy="768.6"
       id="circle691" />
    <circle
       class="Birmingham"
       cx="691.7"
       cy="763.2"
       id="circle693" />
    <circle
       class="Sandwell"
       cx="685.3"
       cy="759.5"
       id="circle695" />
    <circle
       class="Dudley"
       cx="680"
       cy="763.6"
       id="circle697" />
    <circle
       class="Walsall"
       cx="687.7"
       cy="753.1"
       id="circle699" />
    <circle
       class="Wolverhampton"
       cx="680.2"
       cy="753.4"
       id="circle701" />
  </g>
</svg>
