<?xml version="1.0"?>
    
<!--********* Copyright (c) 2024 Pareto Softare, LLC DBA Simplemaps.com ***************************************
************* Free for Commercial Use, full terms at  https://simplemaps.com/resources/svg-license ************
************* Attribution is appreciated! https://simplemaps.com *******************************************-->

<svg baseprofile="tiny" fill="#6f9c76" height="947" stroke="#ffffff" stroke-linecap="round" stroke-linejoin="round" stroke-width=".5" version="1.2" viewbox="0 0 1000 947" width="1000" xmlns="http://www.w3.org/2000/svg">
 <g id="features">
  <path d="M472.7 832.6l0.4-2.3-0.2-2.9-1.3-6-0.4-1.2-1.1-2.5-0.4-1.3-0.6-4.9-0.4-1.1-1.4-1-1.4 0.3-1.4 0.6-1.3 0.1-1.2-0.7-1.8-2.1-1.1-1-1.3-0.4-2.8-0.2-1.2-0.9-0.6-1-0.9-4.1-2.2-4.4-1.5-4.3-0.1-3.7 2.5-2.9-2.4-1.3-0.4-1.8 0.3-2.1-0.6-2.6-1.4-0.8-3.5 2.3-2.1 0-6.8-3.7-3.5-1.3-3.6 0.5 0.2 0 0.1 0 0.1 0.2 0.1 0.2-2.5 2.3-1.3 0.2-1.8-1.5-0.5-0.9-0.7-2.2-0.3-0.8-1.1-0.8-2.1-0.4-1.1-0.5-2.9-2.5-1.4-0.7-5.7-1.1-1.2-1.4 0.6-2.6-5.3-3.5-1.3-0.3-1.5-0.4 0.4 3.2 0.5 0.2 0.7-0.2 0.8 0 0.6 1 0.1 1.4-0.4 0.6-3 0.9-3.6 0.1-1.7 0.4-2.6 2.4-3.3 1-3.3-0.7-5.9-5.8-1-1.4-0.7-1.7-0.5-1.8-0.7-1.5-1-1.2-0.8-0.9-0.3-0.8 0.3-0.8 0.8-0.7 0.1-0.1 0-0.1 0-0.1-0.1-0.2-1.2-0.3-2.5-1.2-1.2-0.3-1 0.2-0.7 0.5-1 0.1-1.4-0.6-4.4-5.6-0.2-1 0.7-1.5 1-0.5 4.4-0.1 2.4-1 3.9-2.3 1.8-1.6 0.8-2.1-1.4-2.7-0.9-0.9-0.2-1.5 0.1-1.3 1-2.6 0.2-0.5 0.1-0.4 0-0.4-0.3-0.3-1.6-2.2-0.5-0.5-1.6-0.6-0.6 0.4-0.2 1-0.5 1.1-2.7 3.7-1.6 1.3-2.1 0.6-8.1-1.5-4.3 0.4-2.7 3.3-0.4 0.3-0.5 0.1-0.5-0.1-0.5-0.3-0.8-2.7-2-1.6-2 0.2-1 2.6-1.2-0.9-0.6-1.5-0.2-1.8 0.1-1.8-0.4-0.4-0.4-0.4-0.3-0.5-0.2-0.5 1.6-0.7-1.8-0.8-4.3 0.1-2.2-0.6-3.2-2-0.8-1-0.6-1.2-0.6-1.9-0.3-1.5 0.2-0.4-1-0.3-2.8 0.5-1.2 0-1.2-0.6-2.1-1.8-1-0.6-9.3-2.6-2.1 0.2-1.4-0.8-2.5-1.5-2.1-0.3-2.5 1.5 0 2 3 4.3 1 2.6 0.7 3.1 0.8 2.7 1.7 1.8 2.3 1.3 1.6 1.8 1 2.5 0.1 3.5 1.2 1.5 0.2 1.9-0.6 1.2-1.1-0.4-1-1.4-0.4-0.9-0.6-0.4-1.3 0-0.2 0.4 0 1.7-0.2 0.5-0.9 0.1-1.6-0.6-0.8 0-1.1 0.8-1.5 2.1-0.9 0.7-1 0.3-1.1 0.3-1.8-0.2-1.8 0.3-2.1 1.8-1.6 2.4-1 2-1.1 1.5-2 1.5-2.8 3.8-3.7 0.3-3.8-2-3.1-2.9-1.6-2.1-0.9-1.8-1-4.8-1-2.7-2.7-2.8-1.2-2.1-1.3-1.8-2.3-4.2-1.3-1.9-2-1.4-4.1-1.5-1.6-2.1-0.2-1.3 0.1-1.3-0.1-1.3-0.6-1.3-0.9-0.3-4.1 0-1.1 0.4-0.6 0.5-0.7 0.2-1.2-1-0.4-0.8-1.2-3.6-2.9-0.6-0.9-2.5 0.7-2.3 1.9 0.4-0.2-0.4-0.5-1.6 0.6 0 0.8-0.6 0.5-0.2 1.4-1.1 1.6-1 1.4-1.2 0.7-1.8 1.4-0.5 2.9 0.8 1.6-0.3 0.8-1.2 1.9-1.8 0.8-1.1-0.3 0 0-0.8 0.1-1.1 0.2-0.7 0.4-0.8 0.2-0.4 0-0.5-0.3-1.1 2.8-1.2-0.8-2.7-7.7-8.2-2.8-1.6-3-0.7-3.3-0.1-1.1 0.2-0.7 1.5-0.7 1.8-1.1 1.4-1.5 0.3-1.4-0.6-2.8-2.2-3.9-0.4-5.6 5.5-3.9 0.7-0.1-0.5-0.1-0.4 0.1-0.5 0.1-0.4 1.3-1.1 0.3-1.7-0.5-2-0.8-1.9-1.2-2.3-1.2-1.1-1.5-0.3-5.4 2.1-2.5 0-0.6-0.2-4.6-7.8-0.3-0.9-0.2-0.9-2.2-0.3-7.6 1.9-0.9-0.3-0.7-0.7-1.2-1.8-1-0.7-18.2-6.4-3.7 0.3-0.9 1.1-0.9 1.5-1 1.1-0.1-0.1-1.1-0.3-0.6-1.2 0-1.4 0.3-1.4 0-1.4-1.1-2.7-1.4-1.2-1.6-0.7-1.8-1.4-1-1.6-1.1-2.4-0.8-2.5-0.3-2.1 0.6-2.6 0.8-1.5 0.1-1.4-1.4-2.4-2.4-1.2-5.2-0.1-0.9-2.1-0.4-2.2-1.1-0.5-1.1 0.8-0.8 1.9-0.3 1.5-1.1 0.2-1.2-0.6-1.1-1.1-0.8-1.4-4.6-1-1.7-1.6-0.2 1.2-0.5 0.6-1.3 1-0.5 0.1-0.5 0.3-0.5 0.3-0.4 0.5 0.4 1.7 1.5 1.1 1.3 2 0.1 4.2-0.2 0.8-0.9 1-0.3 0.5-0.1 0.8 0.1 0.5 0.1 0.4 0.1 5-0.2 1.3-10.3-0.8-3.3 0.9-2-0.1 0.1-2.6 1.2-2.2 3.3-3.6 4.5-10.9 4.1-10.3 0.3-1.6 0-2.8 0.1-1.4 0.5-1 0.7-0.7 0.6-1 0.2-1.8 0.1-3.7 0.8-4 1.2-3.9 1.5-3.1-0.3-0.4-0.4-0.4 0.5-4.2-1.3-2.9-2.1-2.4-1.6-2.9-0.3-1-0.4-2.7 0-0.1-0.5-6.2-0.4-3.8 0.8-1.8-0.9-2-1.7-1.8-1.4-1.1-2.1-1-4.2-1.2-2.1-1.2-1.9-1.4-6-2-2-2.1-0.3-1.6-0.2-1 0.8-2.8 1.7-2.9 1.1-2.9-0.1-3.8-0.9-3.7-1.2-2.6-4.4-3.6-2.1-2.4-0.9-3.8-0.3-3.8-1.3-1.7-1.6-1.2-1.5-2.3-0.3-3.1 1.2-2.5 5.2-5.3 1.7-2.3 1.4-2.6 0.7-2.9 0.3-9 0.5-1.4 2-3.6 0.4-1.4 0.1-1.3 0.3-1.4 0.7-1.2 1.7-2.1-5.9-4.4-0.9-2.2 0.5-3.8 1-2.7 0.4-2.1-1.3-2.1 0-0.9 1.7-2.3 0.1-3.1-1.5-2.6-2.5-1.1-2.6-0.6-3.1-1.6-2-2.3 0.6-2.7-1.9-4.3-2.2-6.5-0.5-5.9 4.7-4.1 2.2-3.5 1.5-3.5-0.4-1.6-1.7-1.6 0.7-3.4 2.5-5.4-2.8-2.3-0.5-0.6-5.3-5.9-5.4-2.2-2.6-3.6-1.8-0.8-0.9-0.9-3.1-6.1-1.4-1.7-9.7-7.1-2.4-1.4-3-3.5-1.8-0.8-2-0.1-1.9-0.6-1.6-1.3-1-2.1 2.4-2.1 0.9-1.8 0.4-2.8-0.2-1.9-1.1-5.4-0.6-1.5 0-0.9 4.4-3.3 5.5-2.9 5.4-4.3 2.8-2.9 1.2-2.7 0.2-1.3 2.8-8.5-0.2-2.2-0.6-2.2-0.3-2.4 0.2-2 0.7-1.9 0.9-1.3 1-0.6 0.6-1 2.4-4.6-1.2-1.1-0.4-0.9-1.3-1.2-0.6-0.9-0.3-1.5 0-2.8-0.2-1.3-0.6-2.8-1.9-8.9-0.9-7.9-1.9-3.2-1-3.2-2.2-3.4-0.6-3.1-0.1-3.4 0.2-5.6-0.1-1.5-1.9-5.9-1.4-3 0.4-2.4-0.1-4.3 0-0.1 0.8-0.1 1.7-0.7 1.2-1.1 0.1-1.2-1.6-1.1 0.9-0.6 0.3-0.5-0.3-0.5-0.9-0.5 0.5-1.2 0.9 0.8 1.3 0.7 1.1 0.8 1 3 1.3 1 2.5 1.1 1.8 2 1 0.8 4 0.7 4.9 1.8 1.7 1.3 1.4 2 3 5.7 1 1.4 0.5-0.4 0.1-2.5 0.4-1.4 0.8-1 1.2-0.9-0.1-0.6 0-0.6 0.1-0.9-1-0.3-2.3-0.2-1-0.6-2.8-6.8 0.5-3.4 2.3-6.6 1 0.9 0.9-0.3 1-0.5 1.4-0.1-0.6-3.9 0.3-3.1 0.6-2.7 0.3-2.9-0.6 0-0.2 1.8-0.7 1.2-2.2 2.2 0.6 1.1-0.8-0.3-0.7-0.5-0.5-0.5-0.5-0.8 0.5-0.5 0.8-1.1 0.6-0.5-1.2-2.6-2.2-1.3-10.1-1-1.4-1.6 1.2-3-0.3-0.3-0.1 0 0-0.2-0.2-0.5-0.9 1.5-0.7 0.2-0.8-0.4-1.1-0.3-0.7 0.3-0.7 0.8-0.6 1-0.7 1 2.7 0.5 1.4 0.7 0.8 1-0.2 1.9-0.9 1.3-1.2 0.5-0.8-0.6-2.5 1.6-1.2 0.4-1.3 0.1 0 1.1 1.2 0.5 0 0.3-1.2 0.2-0.9-0.1-1.4-0.7-1.1-0.2-1.5-1-4.3-6.4-2.2-0.9-0.2 0-0.7-2.4-1.6-2 0.9-0.2 0.7-0.6 1.6-4.1 1.5 0.7 1 0.8 2.7 1.1 9 0.7 3.6-0.7 3.5-1.9 6.6-4.8 24-10.7 20.7-5.5 25.2-10.7 16.4-4.4 17.9-4.8 17.6-8 14.6-1.8 10-3.4-1.1 1.1-4.5 2.1 1.9 1.4 8-1.4 0-1-0.6 0 0-1.1 4.3 0 0-0.8-0.1-0.1-0.2 0-0.3-0.2 0.2-2.5-2.1-0.1-4.9 1.5 3.1-1.5 3.8-2.5 5.6-6.6-1.2 2.3-2 2.2-0.8 1.1 0.8-0.3 1.7-0.3 1.4-0.6 1.3-1.5 3.2-1.5 1.1-1.4-1-2.3-1.8 0-0.8 1-1.4 1.3 3.9-6.7 10.5-13.5 0 0.9-0.5 1.6 0.9 0.4 1.5-0.6 1.1-1.4 0.6-2.1-0.5-0.6-1.2 0.5-1.3 1.3 1.8-3.8 3.2-3.1 6.2-3.9 18.9-2.8 7.4-2.9 3.8-0.7 3.5-1.2 8.7-9.6 27.3-12.9 34.4-6.5 15.4-5.3 24.2-2.2 14.9 0 2.1 0.7 3.2 2.9 1.3 0.7 1.9 0.4 31 18.6 5.6 7.3 0.9 1.8 1 2.4 0 2.1-1.6 0.8-0.4-0.5-0.4-1.2-0.6-1.1-1.6-1.2-1.1-2.9-1.5-1.9-4.3-7.4-0.9-0.4-3.2-0.6-0.8-0.4-0.8-1.4-2.6-0.9-5.4-3.8-5.3-2.6-0.9-1.2-2.9-2.3-0.8-0.3-1.1 0.5-0.6 0.8-1.3 4.5-0.2 1 0 2.3 0.5 0.6 2.2 1 0.5 0.6 1.1 1.9 1.3 2.9-0.1 1.2-0.3 1 0 1 1.1 1.2-0.6 3 1.1 1.3 1.7-0.3 1.5-2-0.5 2.6 0.7 2.1 1.1 1.7 2.3 7.2 0.7 1.5-0.3 3.6 0 6.1 0.6 5.9 1.3 2.6 1.4 0.5 2.8 2.1 1.4 0.5 1.2 0.1 1.6 0.5 1.2 0.8 0.6 1.4 1.5 2.2 15.3 4.9 3.4 0.3 2.8-1.6 0.8 0.8 1.1 0.6 2.5 0.7 34-5.1 7.5-3.6 3.6-0.8 2.9-1.4 5.5-5.8 1.6-0.7 1.9 1.6 4.5 1.5 7.1 0.4 18.7 1 35.2 1.9 26.2 1.4 26.2 1.4 32.4 1.7 39.4 2.1 25.2 1.4 25.2 1.3 21.2 1.1 17.1 0.9 6.2-2 1.7-1.4 2.3-4.3 0.1-0.2 2.3-1.1 1.9 0.3 5.5 2.8 0.9 0.1 2.1-0.4 0.9 0.2 1 1 0.5 1.2 0.4 1.2 0.6 1 1 0.7 3.1 0.4 0.6 0.8-0.3 1.5-0.6 1.8 0 1.6 1.7 2.3 2 0 2.2-0.9 1.8-0.4 1.7 0.8 5.6 4.7 3.5 2.1 7.3 2.8 1.8 1.6 1.7 1.4 0.9 1.4 1.6 3.1 0.8 1.2 1 0.7 1.9 0.5 0.9 0.5 1.5 2.2 1.2 3.1 1 3.5 0.7 3.3 1.3 7.2 0.1 3.5-1.4 2.4-1.1 0.9-0.5 0.6-0.4 0.7-0.1 1.6 0.4 1.4 0.8 1.2 0.9 0.8 0.6 0.6 0.2 0.8 0 0.9-0.4 0.9 0.1 4.5 0.9 3.7 1.2 3.6 1 3.9 0.8 8.1 1 3.2 2.2 3.2 0.2 9.5 2.1 10.6 7.7 23.8 4.3 8.9 1.8 4.8 3.7 14.4 1.6 4.3 1.6 2.2 0.9 2.1 0.7 2.2 1.1 2.4 1.6 1.8 1.6 1.2 0.9 1.8-0.2 3.7-0.8 2.1-1.1 1.9-0.9 2-0.1 3 0.8 2.6 2.7 3.5 1.1 2.2 0.1 1.2-0.2 1.8 0 1 0.8 4.2 0 1.2-0.3 0.9-1 2-0.2 1.2 0.1 1.6 0.3 0.9 0.3 0.8 0.3 1.1 0.7 18.2 0.2 4.5-1.2 6.4-3.6 4.5-12.1 8.3-15.1 4.3-8.1 4.7-8 6.7-11 17-3.7 4.5-1.6 2.6-4.2 8.6 0.2 0.1 0.7 0.5 0.7 0.6 1 1.5 0.3 1.9-0.8 2.7 2.1 1.3 6.5 1.7 1.4-0.5 1.2 1.2 5.6 2.1 1.9 0.2 0 0.9-0.6 1.4 0.2 0.3 1.3-0.6 1.2 0.6 0.8 0.8 0.8 0.2 1.3-1.6 0.4 0.7 0.9 0.8 0.6 0.7 1.5-1.5 0.3 1.1-0.2 1.8-0.4 0.5 2.5 5 1.8 0.6 4.3-0.1 1.7 1 0.6 1.2 0.5 1.2 0.5 0.9 0.9 0.4 1.1 0.7 0.3 1.8 0.1 1.7 0.8 1.8 1.3 5.6 1 2.5-1.4 1-1.2 1.9-1.7 4.1-0.6 2.7-0.1 4.8-0.6 1.6 0.4 0.2 0.1 0 0.1 0.2 0 0.6-1 0.7-0.4 3.1-1 1.3 1.4 2.6 1.7 2.3-1 3.4-1.8 1.7-1.9 1.2-1.5 1.8-0.4 1-0.4 1.6-0.5 3.4 0.3 0.7 0.7 1.1 0.2 0.9-0.9 0.4-0.3 0.4 0.3 0.9 0.5 1 0.5 0.7-1.2 1.4-0.6 0.4-0.8 0.1 0 1.1 1.1 1.1 0.1 1.4-0.5 4 0.3 2.1 0.8 2 2 3.4-0.6 0.1-0.6-0.1 1.1 2.3 1.4 0.6 1.3 0.7 0.3 2 0.2 0.9 0.6 2 1.4 1 1.7 0.6 1.3 0.9-1.5 2.9 0.2 0.9 3.7 5.5 0.7 1.7-1 0.5-0.7 1-0.1 1.5 0.6 2-1.7 0.6-1.6 1.7-1.2 2.2-0.5 1.9 0.6 3.1 1.4 0.7 1.7 0.1 1.6 1 5 11 2.1 2.5 4.6 2.9 4.3 4.5 1 1.7-1.5 0.8-0.3 1.3 1.3 2.9 2.4 3.7 0.8 1.9 1 6.1 0 0.9-0.4 1.1 0.7 0.6 1.2 0.4 1.1 0.8 1 1.5 0.2 1.2 0.1 1.3 0.5 1.9 1.4 2.3 6.1 5.7 7.6 4.1 1.1 1.8-1.1 2.5-2.7 0.6-3 0-1.9 0.9-2.4-1.4-2.5 0.3-2.1 1.6-1.1 2.5 0.2 2.7 1.3 1.9 2.2 1 2.5 0.3 0 0.9-1.2 2.5 1.3 2.2 2.5 1.5 2.4 0.6-0.5 3.3 0.7 3 2.3 5.6-2.1 3.7 0.9 6.8 0.7 1.8 0.4 0.4-0.1 0.4-1.1 1.6-1.7 1.8-5.9 3.1-0.2 1.7 0.1 2.8-0.1 1.8-0.5 1.6-1.9 4.6-4.8 2-16.5 0.2-3.1 1-1.6 0.8-1.2 1.2-1 2.1-1.1 3.8-0.1 0.2-1.2 1.8-7.2 7.8-2.6 2.2-5 3.8-4.1 3.2-20.7 22.5-2.7 4.3-3.4 2.6-3.6 4-9.8 14.4-3.8 4-0.5 1.1-0.7 2.8-0.4 1.1-0.8 0.7-1.6 0.6-0.8 0.6-0.9 1-5.6 10.2-1.5 1.6-1 0.4-2 0.4-1 0.9-0.6 1.2-1.6 4.4-6.9 9.3-2.3 5.4 1.8 5 0.6 2.1 0.6 5.9 0.3 1.6 0.2 0.8 1.2 1.8 2 2.1 0.5 1.1 0.4 2.2 1.2 12.7-0.3 2.1-1.5 4.2-1.3 4.9-1.5 3-0.5 1.7 0.6 0.7 0.4-0.2 1.2-1.6 1.4 1.1-0.1 0-0.3 0.1 2.9 2.1 2.7 3.5 1.7 1.2 4 2.3 1.1 1.4 0 1.2-0.8 2.7-0.1 1.9 0.4 1.3 1.5 2.5 0.1 0.3 0.1 0.5-1 2.2-1.8-0.8-2.1-1.8-1.6-0.9-1-0.3-1.7-2.4-0.9-0.8-1-0.2-2 0.7-3.3-0.3-1.9 0.2-2-0.2-2.2-1.6-3.4-3.7-1.8-0.6-1.9 1.8-3.2-1.5-7.1-0.3-3.3-1-4.6-4.7-1.9-0.7-5.1 0.2-4.2-1.4-0.7-0.5-0.2-0.9 0.3-0.9-0.1-1-1-1.1-0.7-0.1-2.2 0.2-0.9 0-1-0.5-3-1.9-6.4-1.2-2.6-1.9-0.6-4.4-1.1-4.9-2.6-4.3-3.3-3.1-4.9-2.4-3.3-3.1-1.7-0.9-1.8 0.3-1.6 1.4-1.3 1.6-0.9 0.6-1.4-1.1-3.1-4.7-1.5-1.6-0.9-0.3-1.4 0.3-0.7 0-0.9-0.7-1.7-1.6-0.9-0.7-1.7-0.4-6.5 0.7-1.4 0.6-1.6 0.7-1.4-0.4-3.3 0.7-1.5 0-8.9-2.5-5.1-2.7-1.2-0.3-1.6 1.1-2.9 4.2-1.5 1.5-2 0.3-1.4-0.9-1.3-1.5-1.6-1.1-1.4-0.1-3.7 0.7-1.4 0.7-1.8 2 1.1 1.3 2.1 1.3 1.1 2.1-0.8 1.3-1.6 0.3-2 0-1.4 0.3-1.8 1.8-3 4.4-2 1.7-2.1 0.8-1.7-0.3-1.4-1.1-1.5-1.6-1.7-1.2-1.4-0.2-1.6 0-2-0.3-1.5-1-8-9.7-1.4-0.2-3.5 0.5-1.9-0.3-0.9 0.1-0.9 0.5-1.4 1.8-1.1 1-2.1 0.8-2-0.5-7.7-4-1.4 0.4 0 2.4-4.7 0.1-3.7-1.4-1.1 0.1-0.9 0.7-0.3 0.8-0.2 1.3-0.5 2-0.6 1.9-0.5 0.6-7 0.7-1.4 0.7-1.9 2.4-0.9 0.8-2-0.2-0.3-0.2-0.5 0.7-1.7 3.9-0.5 1.6-0.6 1.6-1.2 1.3-0.5 4.9-0.9 3.5-1.8 1.3-3-1.4-4.7-4.5-2.5-1.3-2.9 0.4-1.7 1.2-1.7 1.8-1.3 1.3-2 0.8-4.2-0.3-2.3-0.9-1.2-1.6 0.4-1.8 3.4-5.6 0.4-0.4 0.6-0.1 0.5-0.3 0.3-0.8-0.2-0.6 0-0.1-0.7-0.7-0.1 0-0.1-0.4-1.3-0.9-0.3-0.5 0.1-0.5 0.7-1.1 0.1-0.6-0.5-6.7-0.5-2.3-0.8-2.6 0-0.1-0.9-0.6-3 1.2-1.8 0.2-2-0.2-5.2-1.8 0.2-1.6-0.1-2.2 0.2-0.8 0.4-0.9-3.6 0-1.9-0.5-1.6-1.2-0.5-1-1.4-4.5-1.7-7-1.1-2.8-2.1-1.4-0.7-0.8-1.5-2.7-0.8-0.3-0.5-0.2-0.5 0.2-0.4 0.7-7.8 8.7-0.7 0.6-1.3 0.5-0.9 0.2-2.8 0-1.8 0.3-1.5 0.8-1.3 1.2-1.2 2-1.5 4.5 0.2 0.2 0.3 0.4 0.2 0.7-0.3 0.9-0.4 0.3-1.1 0.1-0.2 0-0.7 2.7-0.2 1.8-0.7 1.1-2.8 1.1-2.2 0.5-1-0.1-0.8-0.5-1.8-1.3-0.9-0.3-2 0.5-3.5 2.1-2.3 0.1-1.7-0.3-0.5-1.6 0.3-4.6-0.2-2-0.4-1.9-0.1-2 0.8-2.4-2.7-1.6-9-0.8z" id="PL" name="Poland">
  </path>
 </g>
 <g id="points">
  <circle class="49.28622871749185|14.62488464379541" cx="90.9" cy="863.8" id="0">
  </circle>
  <circle class="51.62395317585258|19.634501340465032" cx="545.5" cy="530.6" id="1">
  </circle>
  <circle class="54.54610874880348|23.64219469780073" cx="909.1" cy="88.9" id="2">
  </circle>
 </g>
 <g id="label_points">
  <circle class="Poland" cx="532.4" cy="476.8" id="PL">
  </circle>
 </g>
</svg>