<?xml version="1.0" encoding="UTF-8" standalone="no"?>
<?xml-stylesheet type="text/css" href="/styles/home.css"?>
<!-- https://www.amcharts.com/svg-maps -->

<svg version="1.1" xmlns="http://www.w3.org/2000/svg" id="map-poland" viewBox="0 0 612.82178 612.82178"
   width="612.82178" height="612.82178" class="">

   <defs id="defs4">
      <style type="text/css" id="style2">
         .land {
            fill: #90c2c9;
            fill-opacity: 1;
            stroke: white;
            stroke-opacity: 1;
            stroke-width: 0.5;
         }

         .rectangle:hover {
            fill: #bdbdbd;
            cursor: pointer;
         }
      </style>
      <!-- <amcharts:ammap projection="mercator" leftLongitude="14.122232" topLatitude="54.834793" rightLongitude="24.149724" bottomLatitude="49.002699"></amcharts:ammap> -->
      <!-- All areas are listed in the line below. You can use this list in your script. -->
      <!--{id:"PL-DS"},{id:"PL-KP"},{id:"PL-LD"},{id:"PL-LU"},{id:"PL-LB"},{id:"PL-MA"},{id:"PL-MZ"},{id:"PL-OP"},{id:"PL-PK"},{id:"PL-PD"},{id:"PL-PM"},{id:"PL-SL"},{id:"PL-SK"},{id:"PL-WN"},{id:"PL-WP"},{id:"PL-ZP"}-->
   </defs>
   <rect id="background" class="rectangle" stroke-width="0" stroke="#000" width="612.82178" height="612.82178" y="0"
      x="0" fill="#d3d3d3" />
   <path
      d="m 52.276724,370.75691 13.01,-9.76 8.96,5.37 3.91,-11.77 5.65,0.27 6.79,7.89 6.84,-6.97 0.26,-3.5 6.409996,-1.97 2.07,-8.32 -2.23,-1.11 3.09,-5.12 6.71,-2.31 0.41,-5.79 11.59,3.89 -0.96,5.24 3.32,-0.21 3.49,5.01 9.03,-12 v 0 l 7.73,0.08 4.86,3.32 2.2,4.22 -1.49,4.67 7.83,1.25 1.9,4.56 10.1,5.38 14.74,-2.16 0.68,-6.08 5.02,-1.64 10.41,1.97 6.79,8.61 -4.13,3.22 2.18,9.91 11.94,-1.04 -1.79,6.74 2.22,1.2 -0.2,8.44 3.25,5.27 v 0 l -8,3.01 -3.76,-2.77 -3.79,3.47 2.15,6.94 -3.75,2.19 1.33,6.65 -6.77,2.31 -0.22,5.53 -3.59,-1.48 -0.97,2.42 2.74,1.09 -4.2,3.78 1.16,6.23 -3.82,-0.98 -1.87,2.24 2.32,2.52 -4.26,3.04 2.21,2.27 -0.81,6.79 -7.62,1.15 -4.27,13.45 -6.06,-1.5 -2.46,3.39 v 0 l -3.14,3.82 3.09,1.75 2.31,7.05 3.41,1.25 1.51,6.94 -1.77,1.23 -1.37,-2.71 -8.01,3.61 -9.46,10.25 -6.63,-4.2 -1.45,-7.41 -7.49,-9.49 -3.22,-0.75 -1.35,-4.81 -4.98,1.18 -5.1,-6.22 7.11,-7.13 2.92,0.49 5.1,-7.41 -6.22,-8 -6.61,-0.88 -2.89,4.2 -5.15,-3.4 -4.76,6.18 -2.31,-1.41 2.15,-1.6 -1.93,-5.2 -7.87,0.94 -2.8,-7.76 -6.689996,1.75 -16.3,-6.82 -3.95,2.95 -0.42,-5.63 -5.48,-5.21 -0.17,-8.62 -2.19,-1.9 -4.1,1.22 -0.14,-3.26 -2.42,2.89 -4.16,-3.17 -4.64,1.15 -1.03,1.98 3.27,2.25 -1.23,9.68 -10.88,-0.4 8.56,-17.45 4.6,-18.8 z"
      class="land" title="Dolnośląskie" id="PL-DS" />
   <path
      d="m 199.87672,158.37691 1.83,-9.57 5.46,-4.05 0.85,3.64 5.08,-1.19 3.9,2.64 -0.92,-2.94 3.92,-0.19 1.32,-8.95 8.97,-2.12 -1.95,-5.15 5.3,0.52 3.58,3.4 4.24,-6.08 5.86,4.06 6.1,-0.04 -0.25,4.37 11.97,1.53 3.46,-1.85 2.15,5.07 6.14,-4.13 7.05,-0.47 -1.82,5.83 1.84,3.84 8.36,1.09 -0.17,1.82 5.48,-1.92 9.22,1.2 v 0 l 3.42,1.53 4.47,16.68 1.9,1.37 5.13,-2.49 3.68,5.08 3.93,-0.77 1.43,3.71 9.13,-0.77 2.7,7.66 -2.48,3.79 3.16,0.74 1.25,7.61 v 0 l -7.67,4.12 3.34,9.16 -0.6,6.61 -7.65,-3.48 1.35,3.04 -2.97,2.43 -5.12,-0.99 4.13,8.54 -2.49,-0.21 -2.91,4.85 6.04,6.61 0.13,4.43 -5.15,-1.79 0.58,5.09 -5.03,4.77 3.21,2.54 -6.03,7.11 4.41,1.75 -4.7,6.35 -3.15,0.02 1.5,4.98 v 0 l -4.88,3.23 0.63,2.24 -1.23,-1.7 -9.39,2.67 v 0 l -7.6,-6.71 -0.58,3.36 -9.64,3.32 -4.34,-9.48 -9.8,-6.99 -8.25,2.87 -1.24,-7.26 -6.52,6.11 -3.45,-0.19 -0.49,-2.18 -6.33,-1.47 0.19,-3.36 -6.57,0.94 0.48,-3.47 -4.48,-0.85 -2.85,-5.62 -5.08,-1.61 -1.38,2.32 -0.41,-2.3 -5.16,5.62 -2.88,-10.82 -6.63,3.68 -3.18,-0.86 0.96,-4.72 -5.05,-2.8 0.33,-2.92 5.78,-0.32 0.9,-14.06 -13.19,-6.84 3.04,-13.54 2.39,-1.2 -3.22,-1.31 -1,-6.17 5.51,-1.26 1.48,-4.09 -6.04,-8.07 -4.39,0.27 -1.19,-3.46 z"
      class="land" title="Kujawsko-Pomorskie" id="PL-KP" />
   <path
      d="m 315.78672,268.80691 3.94,4.72 9.52,0.7 9.63,8.2 11.87,-2.25 2.56,-3.17 4.7,5.13 3.18,-1.22 3.26,3.31 1.77,8.66 9.84,4.31 -0.76,4.71 -3.43,2.73 4.6,4.56 -2.62,4.55 4.27,-0.08 0.47,2.42 6.81,-2.88 4.61,5.25 3.7,0.19 3.22,7.31 -3.81,0.33 1.57,6.85 4.6,2.23 0.01,2.82 -2.31,3.88 -9.41,-4.18 -4.62,3.78 4.75,10.07 -1.07,5.22 5,-0.89 0.53,2.18 -6.89,13.76 v 0 l -3.48,3.98 -0.08,7.18 -6.78,-2.13 -1.16,5.33 -14.28,0.17 -1.11,11.47 4.67,1.46 -1.79,9.23 -9.45,-8.31 -2.9,7.07 0.88,5.31 -5.84,6.54 v 0 l -4.57,1.09 -0.37,-3 -4.86,-2.51 -5.58,1.98 -5.16,-11.14 -3.69,1.07 -1.91,-5.19 -3.89,1.28 -2.28,4.37 -16.61,-11 -4.16,4.05 -13.22,0.51 v 0 l -5,-2.85 -2.15,-5.46 -3.58,4.76 -1.49,-2.78 -18.63,-5.36 v 0 l 1.47,-9.43 -4.28,0.57 -1.86,-8.75 7.27,-3.67 -0.67,-4.89 8.21,2.37 3.35,-5.51 -1.65,-18.07 3.53,-4.5 1.64,-11.65 3.94,-3.21 0.76,2.23 10.53,0.97 6.24,-10.69 -4.06,-3.75 -0.82,-9.57 7.11,0.59 0.87,-2.7 5.27,-0.13 0.05,-11.61 9.8,0.05 0.68,-5.93 -4.26,-0.55 0.99,-6.05 v 0 l 9.39,-2.67 1.23,1.7 -0.63,-2.24 z"
      class="land" title="Łódzkie" id="PL-LD" />
   <path
      d="m 550.36672,279.96691 2.86,0.17 v 0 l 1.56,5.69 11.53,2.55 1.83,2.78 4.67,-0.67 -0.83,2.65 3.72,4.2 3.05,-0.69 3.27,3.66 2.21,8.81 -3.78,4.21 -1.5,10.68 2.34,3.97 -6.83,7 2.29,19.08 6,4.45 -0.8,4.2 3.23,2.6 -3.42,12.44 h 3.12 l 2.6,7.58 7.99,6.12 -0.77,4.96 3.17,2.5 3.73,11.87 10.73,7.97 -11.23,5.26 0.37,3.75 3.37,0.92 -0.35,4.04 3.31,0.34 1.51,8.08 -3.87,18.3 -2.23,3.25 -16.49,2.25 -11.33,13.28 v 0 l -1.51,-4.46 -6.87,-0.81 1.7,-4.27 -4.59,-6.06 -6.57,5.05 -4.19,-3.61 -9.98,10.38 -25.03,-1.99 4.73,-4.47 -11,1.12 -4.15,-5.32 -2.23,0.38 3.53,-3.71 -0.83,-2.59 6.08,0.83 2.6,-2.46 -3.85,-0.46 3.04,-1.03 -3.2,-1.27 0.53,-6.62 -6.31,-0.48 -4.24,-3.72 -5.5,-0.48 -2.96,-4.18 -4.26,-0.19 4.14,-8.58 -2.28,-4.17 -6.41,-1.89 -3.31,3.39 -6.7,1.1 -2.6,-3.2 v 0 l -3.75,-24.86 v 0 l -1.1,-12.52 3.15,-9.16 -2.81,-0.34 3.51,-5.91 -5.63,-4.49 2.6,-2.61 2.24,1.01 2.03,-5.63 -3.28,-8.78 -6.52,0.12 -5.83,-5.35 1.89,-4.09 6.24,4.7 0.69,-2.84 5.16,-0.55 3.67,-4.81 -3.4,-5.72 6.85,-4.6 -1.96,-4.03 -3.96,1.16 -0.82,-1.91 3.63,-4.06 -1.13,-9.19 9.16,-5.33 5.32,2.11 1.53,-2.48 6.89,1.67 2.83,-2.8 2.04,3.39 4.59,-0.7 4.63,-4.85 7.61,5.78 2.84,-4.66 -1.28,-2.71 3.45,-3.3 5.93,4.43 6.44,0.33 5.3,-10.47 5.4,0.38 -2.64,-4.26 z"
      class="land" title="Lubelskie" id="PL-LU" />
   <path
      d="m 29.506724,247.89691 2.02,-5.36 4.71,2.56 2.27,-1.43 3.25,-11.53 3.98,-3.2 -0.79,-3.01 3.89,-1.21 -2.05,-1.91 2.03,-2.75 10.05,5.1 14.95,-6.38 -2.16,-6.48 4.55,1.01 11.51,-6.61 5.7,3.18 2.63,-2.22 2.41,1.22 7.529996,-13.02 8.12,1.94 -1.5,6.34 v 0 l 0.83,18.44 -5.09,4.53 2.6,1.13 0.64,7.19 -8.67,2.02 -1.09,10.15 7.08,16.17 -5.27,1.03 5.55,4.78 -3.28,27.79 4.27,4.48 3.53,-0.67 -1.3,4.83 3.65,4.84 6.41,-1.85 0.88,6.68 -2.21,3.12 6.07,2.36 2.75,-3.51 3,0.8 5.46,4.6 2.21,6.55 v 0 l -9.03,12 -3.49,-5.01 -3.32,0.21 0.96,-5.24 -11.59,-3.89 -0.41,5.79 -6.71,2.31 -3.09,5.12 2.23,1.11 -2.07,8.32 -6.409996,1.97 -0.26,3.5 -6.84,6.97 -6.79,-7.89 -5.65,-0.27 -3.91,11.77 -8.96,-5.37 -13.01,9.76 v 0 l -1.36,-10.33 -13.52,-5.97 1.68,-12.65 -10.14,-15.83 6.32,-7.94 3.91,-16.11 -4.72,-5.15 1.96,-11.94 -7.41,-3.73 -3.55,-12.06 6.17,-9.97 z"
      class="land" title="Lubuskie" id="PL-LB" />
   <path
      d="m 356.06672,453.77691 2.32,-1.39 17.38,4.79 4.11,9.87 -2.5,3.74 4.23,3.07 -1.57,2.02 4.56,7.75 15.9,-1.88 6.83,-7.39 2.82,1.54 3.53,-3.16 10.05,-1.02 4.65,-3.64 2.57,2.35 1.98,-2.37 v 0 l 0.6,3.86 -4.45,5.21 1.88,4.38 -1.48,6.53 1.96,0.55 -1.77,0.41 3.14,3.41 -3.08,3.72 2.51,2.64 -2.59,4.18 1.95,5.39 6.75,2.45 -3.86,1.39 -0.17,3.14 -5.62,1.18 1.1,5.95 9.57,2.51 2.49,5.29 -1.87,10.2 5.8,8.95 -1.38,5.77 v 0 l -7.4,-2.54 -4.02,5.46 -5.12,-3.07 -4.42,1.34 3.15,4.25 -10.64,7.25 -4,-4.64 -4.07,0.35 -3.5,-6.79 -7.55,-0.19 -2.54,3.9 -6.37,-3.66 -8.27,1.1 -1.22,5.56 -5.7,-0.73 -4.51,3.4 -3.9,12.69 -8.49,-5.17 -4.39,3.53 -5.13,-0.21 -1.31,-3.36 3.43,-3.97 -1.96,-12.27 -4.45,2.16 -5.35,-2.04 0.66,-4.6 -3.52,0.23 -3.34,-10.96 -3.7,-3.78 v 0 l 0.83,-5.29 -5.96,-2.43 4.61,-4.34 -0.67,-3.22 -7.27,-1.17 -1.98,-7.72 -7.39,0.61 1.08,-8.76 -6.86,0.38 5.13,-10.35 3.88,-0.63 1.14,-6.15 0.61,1.89 1.06,-2.8 4.11,-0.58 0.21,-3.78 4.43,-1.7 0.68,-2.13 -7.27,-6.14 3.41,-2.68 7.6,-0.39 -2.03,-4.87 2.83,0.48 1.58,-4.6 19.54,-2 2.92,-3.28 4.39,-0.14 z"
      class="land" title="Małopolskie" id="PL-MA" />
   <path
      d="m 344.56672,192.87691 5.17,0.78 -0.66,-3.99 5.11,-3.02 -0.27,4 4.17,2.77 7.24,-1.96 2.42,2.23 10.71,0.71 4.34,-2.57 -0.66,-4.69 4.84,-3.75 5.94,2.12 6.32,-2.68 3.76,-6.22 8.07,2.02 1.32,-3.05 3.18,0.23 0.63,-4.09 7.24,2.57 13.48,-9.88 5.34,1.04 5.43,-4.5 8.99,-1.55 v 0 l 5.18,11.56 -1.89,3.64 5.09,2.02 -4.12,-0.48 -0.61,5.55 -2.06,-0.37 3.87,5.18 0.49,7.92 2.31,2.78 4.51,-0.55 3.63,5.47 4.44,-1.07 -0.01,3.3 -2.57,-0.71 -1.08,3.62 9.01,7.01 -2.12,2.14 2.77,6.37 10.71,-0.79 0.26,-2.86 3.03,0.13 0.5,3.61 1.9,-0.41 -3.71,1.9 2.22,5.9 3.03,1.97 3.15,-3.78 4.3,0.81 0.56,13.51 -4.29,4.49 8.15,9.12 -0.94,3.97 4.14,8.9 7.72,0.08 1.39,2.7 1.4,-1.88 5.95,2.54 6.2,-1.18 5.85,4.45 0.52,3.99 3.54,-1.63 1.27,1.65 v 0 l -5.68,6.55 2.64,4.26 -5.4,-0.38 -5.3,10.47 -6.44,-0.33 -5.93,-4.43 -3.45,3.3 1.28,2.71 -2.84,4.66 -7.61,-5.78 -4.63,4.85 -4.59,0.7 -2.04,-3.39 -2.83,2.8 -6.89,-1.67 -1.53,2.48 -5.32,-2.11 -9.16,5.33 1.13,9.19 -3.63,4.06 0.82,1.91 3.96,-1.16 1.96,4.03 -6.85,4.6 3.4,5.72 -3.67,4.81 -5.16,0.55 -0.69,2.84 -6.24,-4.7 -1.89,4.09 5.83,5.35 6.52,-0.12 3.28,8.78 -2.03,5.63 -2.24,-1.01 -2.6,2.61 5.63,4.49 -3.51,5.91 2.81,0.34 -3.15,9.16 1.1,12.52 v 0 l -3.19,2.84 -8.7,-3.6 -6.23,1.71 -2.84,4.34 -6.83,-7.04 -12.16,0.44 0.67,-4.69 -4.45,-2.44 1.75,-3.16 -2.23,-2.67 -1.48,5.52 -3.68,1.22 -6.25,-2.45 -2.31,4.27 -8.5,-4.46 -1.94,2.18 0.71,-4.43 -5.65,-4.89 -3.19,0.98 -3.53,-7.51 1.31,-2.9 -5.43,-0.84 v 0 l 6.89,-13.76 -0.53,-2.18 -5,0.89 1.07,-5.22 -4.75,-10.07 4.62,-3.78 9.41,4.18 2.31,-3.88 -0.01,-2.82 -4.6,-2.23 -1.57,-6.85 3.81,-0.33 -3.22,-7.31 -3.7,-0.19 -4.61,-5.25 -6.81,2.88 -0.47,-2.42 -4.27,0.08 2.62,-4.55 -4.6,-4.56 3.43,-2.73 0.76,-4.71 -9.84,-4.31 -1.77,-8.66 -3.26,-3.31 -3.18,1.22 -4.7,-5.13 -2.56,3.17 -11.87,2.25 -9.63,-8.2 -9.52,-0.7 -3.94,-4.72 v 0 l -1.5,-4.98 3.15,-0.02 4.7,-6.35 -4.41,-1.75 6.03,-7.11 -3.21,-2.54 5.03,-4.77 -0.58,-5.09 5.15,1.79 -0.13,-4.43 -6.04,-6.61 2.91,-4.85 2.49,0.21 -4.13,-8.54 5.12,0.99 2.97,-2.43 -1.35,-3.04 7.65,3.48 0.6,-6.61 -3.34,-9.16 z"
      class="land" title="Mazowieckie" id="PL-MZ" />
   <path
      d="m 224.86672,387.51691 3.1,1.56 -1.85,5.38 3.97,1.51 16.72,-6.84 v 0 l 18.63,5.36 1.49,2.78 3.58,-4.76 2.15,5.46 5,2.85 v 0 l 1.83,3.3 -4.69,5.82 0.43,9.22 -6.99,6.4 4.31,5.19 -5.64,4.2 2.72,7.49 4.11,1.78 0.3,5.28 -10.44,0.47 2.85,8.15 -6.23,-2.36 0.88,9.13 -2.21,3.08 4.21,10.35 -4.52,-0.98 -7.12,4.12 0.8,1.75 -11.44,1.97 0.66,6.23 -2.38,4.24 v 0 l -1.82,2.57 2.44,0.21 0.05,2.96 -2.48,-1.27 -8.25,4.33 -5.69,-4.52 -3.54,-8.13 -4.17,-0.5 -3.49,-4.56 10.1,-4.5 -2.46,-10.89 -1.87,-0.66 -4.48,5.87 -7.23,-0.85 -3.38,2.21 -3.29,-2.97 -2.06,1.76 -0.13,-6.07 -4.05,0.83 -4.9,-6.34 -17.84,-5.87 v 0 l 2.46,-3.39 6.06,1.5 4.27,-13.45 7.62,-1.15 0.81,-6.79 -2.21,-2.27 4.26,-3.04 -2.32,-2.52 1.87,-2.24 3.82,0.98 -1.16,-6.23 4.2,-3.78 -2.74,-1.09 0.97,-2.42 3.59,1.48 0.22,-5.53 6.77,-2.31 -1.33,-6.65 3.75,-2.19 -2.15,-6.94 3.79,-3.47 3.76,2.77 z"
      class="land" title="Opolskie" id="PL-OP" />
   <path
      d="m 473.17672,424.44691 2.6,3.2 6.7,-1.1 3.31,-3.39 6.41,1.89 2.28,4.17 -4.14,8.58 4.26,0.19 2.96,4.18 5.5,0.48 4.24,3.72 6.31,0.48 -0.53,6.62 3.2,1.27 -3.04,1.03 3.85,0.46 -2.6,2.46 -6.08,-0.83 0.83,2.59 -3.53,3.71 2.23,-0.38 4.15,5.32 11,-1.12 -4.73,4.47 25.03,1.99 9.98,-10.38 4.19,3.61 6.57,-5.05 4.59,6.06 -1.7,4.27 6.87,0.81 1.51,4.46 v 0 l -16.02,13.82 -38.94,54.02 3.49,3.42 2.98,12.33 -1.91,12.23 1.95,1.42 -2.4,3.75 2.93,-0.69 -1,2.22 9.17,5.78 -0.01,8.26 -2.6,0.48 -4.7,-4.72 -5.39,1.29 -5.75,-5.31 -10.11,-0.24 -3.34,-4.2 -8.64,-0.8 -0.13,-2.83 -10.7,-3.14 -5.31,-12.13 -7.42,-4.03 -3.14,3.42 -9.58,-8.76 -9.7,3.21 -4.72,-1.85 v 0 l 1.38,-5.77 -5.8,-8.95 1.87,-10.2 -2.49,-5.29 -9.57,-2.51 -1.1,-5.95 5.62,-1.18 0.17,-3.14 3.86,-1.39 -6.75,-2.45 -1.95,-5.39 2.59,-4.18 -2.51,-2.64 3.08,-3.72 -3.14,-3.41 1.77,-0.41 -1.96,-0.55 1.48,-6.53 -1.88,-4.38 4.45,-5.21 -0.6,-3.86 v 0 l 6.39,-6.46 8.13,-3.3 0.16,-3.32 9.16,-2.47 4.51,-8.66 5.09,-4.19 1.91,1.04 z"
      class="land" title="Podkarpackie" id="PL-PK" />
   <path
      d="m 534.05672,63.426921 8.8,2.7 -1.01,2.15 4.06,1.89 -1.12,2.89 2.98,1.81 3.27,-1.68 5.5,5.73 6.29,0.99 9.11,10.320003 2.54,9.03 -2.82,6.869996 4.08,23.70999 15.32,50.91 7.17,11.69 -2.78,7.74 4.52,12.33 -1.82,2.12 1.34,22.66 -12.42,10.6 -5.88,0.03 -10.11,5.33 -17.85,26.89 v 0 l -2.86,-0.17 v 0 l -1.27,-1.65 -3.54,1.63 -0.52,-3.99 -5.85,-4.45 -6.2,1.18 -5.95,-2.54 -1.4,1.88 -1.39,-2.7 -7.72,-0.08 -4.14,-8.9 0.94,-3.97 -8.15,-9.12 4.29,-4.49 -0.56,-13.51 -4.3,-0.81 -3.15,3.78 -3.03,-1.97 -2.22,-5.9 3.71,-1.9 -1.9,0.41 -0.5,-3.61 -3.03,-0.13 -0.26,2.86 -10.71,0.79 -2.77,-6.37 2.12,-2.14 -9.01,-7.01 1.08,-3.62 2.57,0.71 0.01,-3.3 -4.44,1.07 -3.63,-5.47 -4.51,0.55 -2.31,-2.78 -0.49,-7.92 -3.87,-5.18 2.06,0.37 0.61,-5.55 4.12,0.48 -5.09,-2.02 1.89,-3.64 -5.18,-11.56 v 0 l 5.49,-1.25 10.62,3.56 3.84,-5.19 4.03,-1.33 2.32,2.41 20.1,-16.22 3.92,-2.63 2.94,1.81 -0.56,-3.3 7.54,-3.92 1.36,1.73 1.3,-3.89 5.52,-2.58 4.78,-10.03 -0.73,-5.07999 -10.34,-13.719996 1.47,-4.4 -2.6,-4.98 -2.75,0.49 -4.66,-5.92 2.64,-4.370003 7.44,-4 8.27,-0.97 0.75,-7.51 v 0 z"
      class="land" title="Podlaskie" id="PL-PD" />
   <path
      d="m 255.10672,18.546921 22.84,13.61 9.27,8.47 -0.74,3.58 -6.45,-9.89 -17.22,-10.73 -1.71,6.17 4.71,3.71 -0.1,6.56 2.89,-0.88 3.06,9.5 -3.76,0.51 3.28,1.51 0.32,8.05 3.81,4.16 5.99,0.86 -2.08,0.64 2.63,2.59 9.97,2.94 2.77,-2.08 3.63,2.26 12.67,-0.89 13.08,-3.12 13.69,-6.93 -14.48,8.71 -11.38,3.15 2.31,6.46 v 0 l 3.71,6.590003 -4.4,3.62 -1.75,10.98 4.45,2.019996 0.01,3.59 7.25,1.8 -0.14,6.25 11.07,-2.41 -6.83,18.97999 -2.14,-3.21 -7.87,-0.26 -0.98,6.62 -4.71,5.03 -0.16,5.17 -5.21,3.54 0.45,2.92 v 0 l -9.22,-1.2 -5.48,1.93 0.17,-1.83 -8.36,-1.09 -1.84,-3.84 1.82,-5.83 -7.05,0.47 -6.15,4.12 -2.14,-5.07 -3.46,1.85 -11.98,-1.53 0.25,-4.36 -6.09,0.04 -5.86,-4.06 -4.25,6.08 -3.58,-3.4 -5.3,-0.53 1.95,5.15 -8.97,2.12 -1.32,8.96 -3.92,0.18 0.92,2.94 -3.89,-2.65 -5.08,1.19 -0.85,-3.63 -5.46,4.04 -1.83,9.57 v 0 l -9.17,-4.51 -8.86,-0.87 -5.84,2.57 0.02,-3.3 -3.11,0.58 -3.44,-11.61 v 0 l -2.17,-9.18 5.27,-5.36 -4.44,-3.3 0.03,-3.76 5.98,-0.56 0.81,-3.41999 -6.46,-3.65 -2.17,-5.98 -3.01,1.82 0.73,-14.089996 -5.46,-10.1 9.16,-7.300003 -3.55,-8.57 2.7,-0.69 -0.42,-7.69 -7.18,-12.72 v 0 l 10.51,-2.71 22.06,-14.65 42.29,-10.21 z"
      class="land" title="Pomorskie" id="PL-PM" />
   <path
      d="m 277.65672,400.81691 13.22,-0.51 4.16,-4.05 16.61,11 2.28,-4.37 3.89,-1.28 1.91,5.19 3.69,-1.07 5.16,11.14 5.58,-1.98 4.86,2.51 0.37,3 4.57,-1.09 v 0 l 5.28,4.07 -5.13,6.48 -2.89,-0.78 1.43,3.98 7.14,0.81 2.08,1.73 -1.57,3.35 4.13,0.63 -8.26,9.44 6.9,1.43 3,3.33 v 0 l 1.32,2.84 -4.39,0.14 -2.92,3.28 -19.54,2 -1.58,4.6 -2.83,-0.48 2.03,4.87 -7.6,0.39 -3.41,2.68 7.27,6.14 -0.68,2.13 -4.43,1.7 -0.21,3.78 -4.11,0.58 -1.06,2.8 -0.61,-1.89 -1.14,6.15 -3.88,0.63 -5.13,10.35 6.86,-0.38 -1.08,8.76 7.39,-0.61 1.98,7.72 7.27,1.17 0.67,3.22 -4.61,4.34 5.96,2.43 -0.83,5.29 v 0 l -6.6,7.13 -6.03,0.41 -4.19,11.22 -13.08,1.57 -0.48,-10.14 -8.29,-1.85 -1.81,-14.39 -11.11,-4.31 -3.22,-18.75 -5.1,1.64 -9.49,-4.22 -0.89,3.18 -6.86,-7.86 -5.54,0.34 -4.99,-6.73 v 0 l 2.38,-4.24 -0.66,-6.23 11.44,-1.97 -0.8,-1.75 7.12,-4.12 4.52,0.98 -4.21,-10.35 2.21,-3.08 -0.88,-9.13 6.23,2.36 -2.85,-8.15 10.44,-0.47 -0.3,-5.28 -4.11,-1.78 -2.72,-7.49 5.64,-4.2 -4.31,-5.19 6.99,-6.4 -0.43,-9.22 4.69,-5.82 z"
      class="land" title="Śląskie" id="PL-SL" />
   <path
      d="m 385.27672,372.00691 5.43,0.84 -1.31,2.9 3.53,7.51 3.19,-0.98 5.65,4.89 -0.71,4.43 1.94,-2.18 8.5,4.46 2.31,-4.27 6.25,2.45 3.68,-1.22 1.48,-5.52 2.23,2.67 -1.75,3.16 4.45,2.44 -0.67,4.69 12.16,-0.44 6.83,7.04 2.84,-4.34 6.23,-1.71 8.7,3.6 3.19,-2.84 v 0 l 3.75,24.86 v 0 l -4.9,16.25 -1.91,-1.04 -5.09,4.19 -4.51,8.66 -9.16,2.47 -0.16,3.32 -8.13,3.3 -6.39,6.46 v 0 l -1.98,2.37 -2.57,-2.35 -4.65,3.64 -10.05,1.02 -3.53,3.16 -2.82,-1.54 -6.83,7.39 -15.9,1.88 -4.56,-7.75 1.57,-2.02 -4.23,-3.07 2.5,-3.74 -4.11,-9.87 -17.38,-4.79 -2.32,1.39 v 0 l -3,-3.33 -6.9,-1.43 8.26,-9.44 -4.13,-0.63 1.57,-3.35 -2.08,-1.73 -7.14,-0.81 -1.43,-3.98 2.89,0.78 5.13,-6.48 -5.28,-4.07 v 0 l 5.84,-6.54 -0.88,-5.31 2.9,-7.07 9.45,8.31 1.79,-9.23 -4.67,-1.46 1.11,-11.47 14.28,-0.17 1.16,-5.33 6.78,2.13 0.08,-7.18 z"
      class="land" title="Świętokrzyskie" id="PL-SK" />
   <path
      d="m 349.88672,60.636921 97.62,12.65 81.86,-5.18 v 0 l -0.75,7.51 -8.27,0.97 -7.44,4 -2.64,4.370003 4.66,5.92 2.75,-0.49 2.6,4.98 -1.47,4.4 10.34,13.719996 0.73,5.07999 -4.78,10.03 -5.52,2.58 -1.3,3.89 -1.36,-1.73 -7.54,3.92 0.56,3.3 -2.94,-1.81 -3.92,2.63 -20.1,16.22 -2.32,-2.41 -4.03,1.33 -3.84,5.19 -10.62,-3.56 -5.49,1.25 v 0 l -8.99,1.55 -5.43,4.5 -5.34,-1.04 -13.48,9.88 -7.24,-2.57 -0.63,4.09 -3.18,-0.23 -1.32,3.05 -8.07,-2.02 -3.76,6.22 -6.32,2.68 -5.94,-2.12 -4.84,3.75 0.66,4.69 -4.34,2.57 -10.71,-0.71 -2.42,-2.23 -7.24,1.96 -4.17,-2.77 0.27,-4 -5.11,3.02 0.66,3.99 -5.17,-0.78 v 0 l -1.25,-7.61 -3.16,-0.74 2.48,-3.79 -2.7,-7.66 -9.13,0.77 -1.43,-3.71 -3.93,0.77 -3.68,-5.08 -5.13,2.49 -1.9,-1.37 -4.47,-16.68 -3.42,-1.53 v 0 l -0.44,-2.93 5.21,-3.54 0.16,-5.17 4.71,-5.04 0.99,-6.61 7.86,0.26 2.14,3.2 6.83,-18.97999 -11.07,2.41 0.14,-6.25 -7.25,-1.81 -0.01,-3.58 -4.45,-2.029996 1.75,-10.98 4.4,-3.63 -3.7,-6.580003 v 0 l 6.94,1.03 1.72,-1.96 -1.64,6.660003 7.26,-10.520003 10.69,-3.72 4.69,-7.99 z"
      class="land" title="Warmińsko-Mazurskie" id="PL-WN" />
   <path
      d="m 169.47672,141.24691 3.43,11.61 3.12,-0.59 -0.02,3.3 5.83,-2.57 8.87,0.87 9.17,4.51 v 0 l -8.84,11.43 1.19,3.46 4.39,-0.27 6.04,8.07 -1.48,4.09 -5.51,1.26 1,6.17 3.22,1.31 -2.39,1.2 -3.04,13.54 13.19,6.84 -0.9,14.06 -5.78,0.32 -0.33,2.92 5.05,2.8 -0.96,4.72 3.18,0.86 6.63,-3.68 2.88,10.82 5.16,-5.62 0.41,2.3 1.38,-2.32 5.08,1.61 2.85,5.62 4.48,0.85 -0.48,3.47 6.57,-0.94 -0.19,3.36 6.33,1.47 0.49,2.18 3.45,0.19 6.52,-6.11 1.24,7.26 8.25,-2.87 9.8,6.99 4.34,9.48 9.64,-3.32 0.58,-3.36 7.6,6.71 v 0 l -0.99,6.05 4.26,0.55 -0.68,5.93 -9.8,-0.05 -0.05,11.61 -5.27,0.13 -0.87,2.7 -7.11,-0.59 0.82,9.57 4.06,3.75 -6.24,10.69 -10.53,-0.97 -0.76,-2.23 -3.94,3.21 -1.64,11.65 -3.53,4.5 1.65,18.07 -3.35,5.51 -8.21,-2.37 0.67,4.89 -7.27,3.67 1.86,8.75 4.28,-0.57 -1.47,9.43 v 0 l -16.72,6.84 -3.97,-1.51 1.85,-5.38 -3.1,-1.56 v 0 l -3.25,-5.27 0.2,-8.44 -2.22,-1.2 1.79,-6.74 -11.94,1.04 -2.18,-9.91 4.13,-3.22 -6.79,-8.61 -10.41,-1.97 -5.02,1.64 -0.68,6.08 -14.74,2.16 -10.1,-5.38 -1.9,-4.56 -7.83,-1.25 1.49,-4.67 -2.2,-4.22 -4.86,-3.32 -7.73,-0.08 v 0 l -2.21,-6.55 -5.46,-4.6 -3,-0.8 -2.75,3.51 -6.07,-2.36 2.21,-3.12 -0.88,-6.68 -6.41,1.85 -3.65,-4.84 1.3,-4.83 -3.53,0.67 -4.27,-4.48 3.28,-27.79 -5.55,-4.78 5.27,-1.03 -7.08,-16.17 1.09,-10.15 8.67,-2.02 -0.64,-7.19 -2.6,-1.13 5.09,-4.53 -0.83,-18.44 v 0 l 9.45,3.39 12.08,-3.54 5.66,-13.85 6.35,-0.52 2.93,-5.88 4.77,2.08 -0.58,-5.45 4.91,-4.04 -14.2,-7.97 -1.67,-8.49 12.3,-1.07 4.42,-3.61 1.89,-10.32 4.31,-2.2 1.17,1.85 z"
      class="land" title="Wielkopolskie" id="PL-WP" />
   <path
      d="m 11.786724,120.52691 4.79,0.56 -2.96,4.56 -3.55,-5.1 z m 1.27,-1.19 1.72,1.45 -2.8,-0.02 z m -5.0000003,-5.49999 1.81,-0.17 -2,2.57 5.6000003,9.48999 -7.6200003,-6.1 -1.69,-4.75999 z m 30.9700003,-4.48 -3.27,1.79 0.43,-3.07 z m 0.62,-5.52 -4.4,2.66 0.06,5.87 -6.51,14.03999 -1.28,-5.2 -8.61,-1.35 0.56,-3.99999 -8.95,4.51999 -2.0300003,-3.80999 1.7300003,-2.6 6.88,0.43 6.12,-4.69 z m 119.649996,-57.139999 7.18,12.72 0.42,7.69 -2.7,0.69 3.55,8.57 -9.16,7.300003 5.46,10.1 -0.73,14.089996 3.01,-1.82 2.17,5.98 6.46,3.65 -0.81,3.41999 -5.98,0.56 -0.03,3.76 4.44,3.3 -5.27,5.36 2.17,9.18 v 0 l -3.08,3.27 -1.17,-1.85 -4.3,2.2 -1.9,10.33 -4.41,3.6 -12.31,1.07 1.68,8.48 14.19,7.97 -4.91,4.04 0.59,5.45 -4.77,-2.09 -2.94,5.88 -6.34,0.52 -5.66,13.86 -12.09,3.53 -9.45,-3.38 v 0 l 1.5,-6.34 -8.12,-1.94 -7.519996,13.02 -2.41,-1.22 -2.64,2.23 -5.7,-3.19 -11.51,6.61 -4.55,-1.01 2.15,6.48 -14.94,6.38 -10.05,-5.1 -2.04,2.75 2.05,1.91 -3.88,1.21 0.78,3.01 -3.97,3.2 -3.25,11.53 -2.26,1.44 -4.71,-2.56 -2.02,5.36 v 0 l -23.3500003,-21.09 -5.82000004,-2.18 2.31000004,-4.67 -1,-7.74 12.2000003,-9.21 1.97,-14.94 4.31,-6.45 -8.53,-28.75 -1.32,-20.47 7.48,6.54 5.85,1.22 5.74,7.4 1.33,-6.18 -2.96,-0.14 -1.95,-4.79 1.67,-6.2 3.01,-0.49 2.18,-13.11999 4.41,-4.58 2.15,1.58 2.8,-10.88 -4.76,0.78 34.65,-12.909996 49.019996,-13.040003 10.18,-8.13 15.9,-19.6 z"
      class="land" title="Zachodniopomorskie" id="PL-ZP" />
   <g id="stadiums" data-country="poland" data-circle-radius="6" data-circle-colors="#a149be,#bea149" />
</svg>