<?xml version="1.0" encoding="UTF-8" standalone="no"?>
<?xml-stylesheet type="text/css" href="/styles/home.css"?>
<!-- https://www.amcharts.com/svg-maps -->

<svg version="1.1" xmlns="http://www.w3.org/2000/svg" id="map-romania"
   viewBox="0 0 611.97998 431.51001">
  <defs
     id="defs4">
    <style
       type="text/css"
       id="style2">
			.land
			{
				fill: #CCCCCC;
				fill-opacity: 1;
				stroke:white;
				stroke-opacity: 1;
				stroke-width:0.5;
			}
		</style>
    <!-- <amcharts:ammap projection="mercator" leftLongitude="20.262217" topLatitude="48.2623309" rightLongitude="29.713041" bottomLatitude="43.617249"></amcharts:ammap> -->
    <!-- All areas are listed in the line below. You can use this list in your script. -->
    <!--{id:"RO-AB"},{id:"RO-AG"},{id:"RO-AR"},{id:"RO-BC"},{id:"RO-BH"},{id:"RO-BN"},{id:"RO-BR"},{id:"RO-BT"},{id:"RO-B"},{id:"RO-BV"},{id:"RO-BZ"},{id:"RO-CJ"},{id:"RO-CL"},{id:"RO-CS"},{id:"RO-CT"},{id:"RO-CV"},{id:"RO-DB"},{id:"RO-DJ"},{id:"RO-GJ"},{id:"RO-GL"},{id:"RO-GR"},{id:"RO-HD"},{id:"RO-HR"},{id:"RO-IF"},{id:"RO-IL"},{id:"RO-IS"},{id:"RO-MH"},{id:"RO-MM"},{id:"RO-MS"},{id:"RO-NT"},{id:"RO-OT"},{id:"RO-PH"},{id:"RO-SB"},{id:"RO-SJ"},{id:"RO-SM"},{id:"RO-SV"},{id:"RO-TL"},{id:"RO-TM"},{id:"RO-TR"},{id:"RO-VL"},{id:"RO-VN"},{id:"RO-VS"}-->
  </defs>
  <path
     d="m 164.83,162.4 1.31,1.67 3.32,0.88 3.85,-1.76 4.72,0.46 1.3,1.66 0.43,3.08 1.11,0.53 -0.42,2.44 2.87,0.06 0.96,-2.2 3.5,-1.56 1.38,-0.17 0.34,1.32 3.17,0.61 6.42,-3.48 1.32,-1.82 1.8,-0.25 4.67,2.82 1.84,2.51 1.11,-0.38 1.98,1.3 3.8,-1.16 1.49,2.06 -1.93,2.39 -0.35,2.5 0.55,0.92 3.09,0.87 2.62,-0.58 -1.62,-1.94 1.54,0.16 -0.51,-1.37 1.93,-1.44 1.82,0.38 5.48,-1.38 1.19,0.33 0.45,1.49 1.63,0.27 6.64,-1.32 v 0 l 0.73,2.16 1.58,0.07 1.38,-2.16 1.23,-0.14 -1.02,5.16 -1.56,1.65 0.65,1.46 4.67,3.37 3.4,0.02 0.86,3.46 3.41,1.79 v 1.47 l 1.4,-0.2 2.17,1.87 v 0 l -3.79,2.26 0.56,0.84 -1.08,2.63 1.76,1.42 -0.22,0.87 -3.98,2.01 -2.28,0.17 -1.68,2.96 -2.02,1.32 0.38,0.88 -1.76,2.35 0.45,1.9 -2.59,1.57 -0.06,1.45 -2.52,-4.04 -4.64,-0.01 -2.73,2.98 1.31,0.86 -0.73,1.93 0.49,1.81 -1.88,1.12 -1.39,2.33 -5.36,0.71 0.61,0.55 -0.73,1.44 1.19,0.97 -1.34,5.93 -1.88,-0.39 -3.69,2.08 -0.78,1.72 2.83,2.33 -1.37,0.43 -0.94,1.87 -2.59,1.03 -0.69,2.11 0.17,2.6 3.72,3.3 -0.71,2.22 0.88,1.19 -1.8,1.26 -0.68,2.12 1.65,1.48 0.96,2.58 0.4,4.41 -1.78,0.54 v 0 l -2.33,-0.39 v 0 l -1.53,-5.05 -2.49,-2.4 -1.42,0.11 -0.72,-2.56 -4.89,-0.99 0.09,-3.46 -2.66,-1.38 2.15,-3.09 -3.66,-3.48 1.31,-3.94 -2.04,-2.12 -1.36,-4.63 0.18,-5.4 -1.68,-2.95 -2.66,-1.57 -3.38,-7.51 0.5,-1.83 -3,0.67 -2.07,-1.81 -1.57,0.3 -2,-1.14 -0.68,-2.66 0.77,-1.35 -2.01,-4.07 1.29,-0.68 1.36,0.62 -0.34,-3.83 -1.4,-0.49 -1.3,-2 -1.22,0.76 -3.27,-1.88 -2.33,-4 0.91,-1.8 -1.87,-3.95 -7.85,0.25 -2.08,-2.3 -1.63,-0.17 v 0 l -3.38,-1.02 -1.07,-1.99 v 0 l -0.9,-4.3 1.4,-2.06 -1.27,-2.99 0.22,-3.54 3.04,-2.18 -1.84,-1.14 0.04,-1.21 3.1,-2.25 z"
     title="Alba"
     id="RO-AB" />
  <path
     d="m 286.6,251.76 8.55,-0.5 1.28,1.5 3.62,-0.41 2.64,1.05 1.54,-0.86 3.04,0.77 1.81,-0.86 4.35,1.23 5,4.81 3.44,1.17 0.35,3.66 1.27,1.89 -0.14,2.98 2.09,0.61 1.04,-0.63 0.24,3.08 0.89,0.82 v 0 l 0.27,2.42 -1.36,5.77 -1.64,2.05 0.76,4.17 -3,1.16 0.32,2.91 -1.8,0.78 -1.5,-1 -2.9,-4.63 -1.28,1.35 0.03,1.88 1.38,0.27 -0.76,4.66 1.02,0.47 -0.32,1.04 1.32,2.04 -0.87,2.59 -1.55,-0.61 -0.71,2 1.17,1.9 1.25,-0.3 0.64,1.34 0.94,-0.02 0.7,2.2 -1.55,1.7 -0.63,3.53 1.99,7.98 0.26,5.62 -1.36,7.35 2.99,1.69 -2.16,3.27 -1.8,0.25 2.45,2.43 -0.52,1.78 4.81,5.09 0.37,2.37 -1.07,1.64 1.29,3.05 -0.76,0.9 0.33,2.08 -0.78,0.65 -2.99,-0.57 v 0 l -9.18,4.12 -4.9,-0.34 -2.23,2.22 -6.85,0.51 -1.13,-1.11 -1.78,0.64 v 0 l -0.44,-0.83 -3.22,0.06 -1.39,-1.96 0.2,-4.73 -0.9,-3.01 0.79,-3.14 -0.29,-3.8 -0.9,-1.32 0.88,-1.95 -2.79,-7.85 1.22,-1.44 0.08,-2.19 -5.37,0.24 -2,-2.11 -0.33,-3.93 -0.93,-0.27 -1.93,-5.2 0.02,-3.22 -1.26,-0.08 -2.15,4 0.08,2.33 -4.13,0.31 0.8,-1.82 -0.77,-0.72 v 0 l 3.01,-4.38 -0.66,-1.37 1.39,-3.36 -1.3,0.13 2.4,-4.41 -0.71,-1.16 1.28,-3.64 -1.83,-1.77 1.6,-1.48 -0.44,-1.09 -0.97,0.03 0.06,-1.37 1.51,0.09 0.56,-2.29 -1.23,-1.9 1.02,-0.67 0.2,-1.7 -3.41,-4.48 2.07,-6.12 -0.57,-2.75 -1.17,-0.22 1.02,-0.83 0.33,-2.86 -1.65,-0.93 -2.03,-8.22 3.63,-5.76 -0.22,-3.81 v 0 l 1.02,-1.04 3.94,0.53 3.33,-1.95 3.62,0.46 z"
     title="Argeș"
     id="RO-AG" />
  <path
     d="m 76.42,153.84 4.33,-0.23 0.35,1.93 0.81,-0.46 0.86,1.17 0.82,-0.71 0.56,0.64 0.67,-1.94 3.13,0.36 1.62,-1.77 9.64,0.79 4.14,-1.05 1.24,-1.3 2.15,1.78 -1.82,2.78 4.59,1.43 2.91,-0.82 1.61,-2.77 0.87,1.43 1.17,0.07 0.02,1.15 3.57,0.93 0.27,1.26 3.54,0.1 -0.28,2.94 0.99,3.75 2.66,4.35 1.2,-0.75 1.34,0.89 6.93,0.75 0.39,3.47 3.7,4.38 2.67,-0.06 0.85,1.4 1.15,-0.73 0.5,-1.87 11.3,2.06 v 0 l 1.07,1.99 3.38,1.02 v 0 l -2.15,1.96 -2.79,0.95 -1.38,8.38 -6.02,-0.03 -0.56,0.93 -2.39,0.48 -1.65,-2.39 -3.51,2.92 1.02,3.07 2.64,2.15 -2.21,1.03 -0.13,1.26 -3.09,2.76 1.22,1.02 0.25,7.29 -2.55,-0.01 -0.6,1.37 -2.43,-0.27 -0.43,1.05 1.6,2.74 3.91,0.35 0.39,0.79 -1.49,2.42 v 0 l -3.93,-2.4 -0.66,-2.62 -1.22,0.07 -1.14,3.62 -3.96,-1.65 -1.6,3.28 -2.8,-1.16 -2.66,0.98 -0.24,-1.78 -7.97,-3.36 -0.32,-2.35 -4.53,1.05 -0.79,2.05 -1.66,1.23 -1.45,-1.04 -1.54,1.37 -1.17,-1.1 -2.07,2.69 -1.44,-0.2 0.01,-1.1 -2.39,-0.26 -0.75,-1.85 -2.07,2.95 -0.11,1.99 -1.43,0.78 -0.53,-2.79 -1.79,-0.98 0.07,-2.46 -7.22,-3.53 0.26,-2.94 -1.64,-2.35 -4.37,4.2 -3.93,1.84 -0.92,2.33 -0.88,0.05 -0.9,-2.32 -2.73,-1.57 0.43,1.21 -2.13,0.55 -1.09,2.84 -3.67,-1.54 -1.79,-2.55 -1.01,0.07 -0.38,1.71 -2.05,1.48 -1.64,-1.89 -1,-3.76 -2.79,0.9 -2.77,-1.31 -2.62,0.55 -1.65,-3.31 -5.46,-1.4 -3.45,-3.28 -0.52,-1.72 -2.87,-0.02 -0.76,-1.41 -1.18,-0.13 v 0 l 1.13,-0.65 1,-3.94 1.98,0.23 -0.6,-3.97 1.67,-2.6 6.21,-1.09 2.82,2.34 0.53,-1.27 1.27,-0.2 0.44,1.29 4.64,-0.22 0.83,1.57 1.77,0.53 2.53,-1.74 0.76,-3.54 3.82,0.12 0.26,-3.32 1.48,-1.33 0.42,-4.97 1.09,-1.07 4.65,0.64 -0.35,-0.8 1.49,-2.46 -1.04,-3.19 -1.43,-0.12 -0.86,-2.28 0.95,-3.81 1.03,-0.38 1.86,-3.4 -1.12,-0.82 0.73,-2.52 3.44,-1.85 2.8,1.39 0.64,-2.18 z"
     title="Arad"
     id="RO-AR" />
  <path
     d="m 370.13,150.3 1.35,-1.15 4.62,-0.22 0.5,4.41 1.45,0.9 2.56,-1.07 1.01,1.61 3.61,-1.1 1.57,-3.5 1.89,-1.14 1.97,4.53 3.35,1.21 5.61,-3.48 3.51,-0.1 1.15,-1.35 1.48,0.2 2.02,2.27 2.71,-3.2 4.49,-2.76 0.76,-3.37 3.2,0.3 0.49,-1.48 2.47,4.86 1.98,-0.59 0.63,-2.7 1.9,-1.35 0.32,-2.26 1.12,-0.71 0.04,-1.97 2.96,0.99 -0.48,2.02 -0.96,0.11 1.34,0.35 0.48,1.73 0.94,-0.9 0.69,2.7 6.31,-1.49 1.1,1.2 2.06,-1.32 1.52,2.3 1.82,-0.36 0.32,1.66 1.6,-2.17 1.32,-0.19 v 0 l 7.68,6.04 -1.13,2.18 1.17,1.96 -2.51,2.64 3.4,3.66 3.49,6.88 2.53,8.15 1.81,2.3 1.78,6.72 -1.14,2.01 0.71,5.84 1.07,4.25 1.31,0.93 -1.7,3.95 v 0 l -1.43,-1.25 -0.72,-2.41 -1.33,-0.54 -2.34,0.01 -1.36,3.11 -3.02,-1.31 -0.53,-2.83 -1.16,0.6 -2.31,-0.68 0.48,1.8 -1.16,0.74 -2.39,-1.16 -1.14,1.76 -1.56,-1.03 -0.11,1.11 -3.11,2.11 0.13,1.1 1.43,0.27 -0.56,1.35 0.6,0.63 -0.7,0.63 -3.16,-1.12 -0.49,2.66 -5.79,-2.58 -3.72,4.64 -3.88,-1.8 -3.54,1.32 -5.55,-2.24 -5.08,1.49 -5.74,5.13 -8.27,-1.9 v 0 l -0.8,-2.23 0.86,-1.14 -0.95,-1.6 -2.68,0.07 -2.89,-2.32 0.16,-7.48 -1.23,-3.09 -3.93,-1.17 v 0 l -0.51,-2.38 1.8,-2.4 0.31,-3.33 -1.68,-0.68 -3.27,2.67 -3.46,0.03 1.56,-6.41 -0.63,-0.69 1.02,-1.37 -8.04,-0.4 -4.85,-2.9 2.33,-2.09 -0.55,-0.76 0.82,-1.18 2.56,-1.31 0.34,-1.23 -0.61,-2.52 -4.25,-6.46 -0.32,-1.49 1.19,-2.57 z"
     title="Bacău"
     id="RO-BC" />
  <path
     d="m 124.6,62.95 2.45,1.17 1.01,2.78 1.34,0.44 -0.31,2.33 2.21,0.05 -0.01,3.12 3.87,1.8 -0.93,0.77 1.54,5.04 3.13,-0.62 1.58,1.31 3.35,-1.44 2.24,1.11 0.83,2.35 1.96,0.25 0.6,2.28 2.38,2.36 v 0 l -0.01,1.76 -3.57,1.49 -0.46,7.16 -1.6,0.99 -0.56,3.34 -1.2,1.09 0.73,0.97 1.62,0.06 0.45,2.74 1.69,1.68 -0.76,1.11 1.55,3.28 2.1,-0.5 1.66,2.74 3.38,0.44 0.69,1.17 1.57,-0.44 0.23,3.42 v 0 l -2.76,3.46 -0.01,2.85 6.41,4.28 -3.58,7.5 -3.57,1.38 -0.81,2.22 3.63,1.74 -0.32,1.72 2.55,4.7 -1.94,1.82 -2.17,-0.69 -2.21,1.35 2.04,1.61 2.04,-1.57 2.16,0.36 2.45,1.76 0.19,1.38 1.24,-0.39 0.84,2.74 -0.7,3.63 v 0 l -4.17,-2.88 -3.1,2.25 -0.04,1.21 1.84,1.14 -3.04,2.18 -0.22,3.54 1.27,2.99 -1.4,2.06 0.9,4.3 v 0 l -11.3,-2.06 -0.5,1.87 -1.15,0.73 -0.85,-1.4 -2.67,0.06 -3.7,-4.38 -0.39,-3.47 -6.93,-0.75 -1.34,-0.89 -1.2,0.75 -2.66,-4.35 -0.99,-3.75 0.28,-2.94 -3.54,-0.1 -0.27,-1.26 -3.57,-0.93 -0.02,-1.15 -1.17,-0.07 -0.87,-1.43 -1.61,2.77 -2.91,0.82 -4.59,-1.43 1.82,-2.78 -2.15,-1.78 -1.24,1.3 -4.14,1.05 -9.64,-0.79 -1.62,1.77 -3.13,-0.36 -0.67,1.94 -0.56,-0.64 -0.82,0.71 -0.86,-1.17 -0.81,0.46 -0.35,-1.93 -4.33,0.23 v 0 l 0.81,-1.3 -1,-0.49 -0.54,-2.08 2.6,-0.14 1.34,0.89 2.3,-3.24 -0.12,-1.78 -2.73,-2.55 2.3,-3.32 0.09,-3.4 5.17,-2.58 0.86,-2.06 -0.96,-3.91 2.45,-0.57 2.8,-2.86 -0.89,-0.78 1.37,-2.76 -2.58,-3.73 2.14,-0.51 2.87,-4.97 4.32,-0.96 1.58,-6.02 2.66,-1.55 -0.45,-4.68 2.36,-3.46 -0.56,-1.36 3.93,-8.14 4.52,-0.33 1.54,-3.23 -0.09,-3.85 -1.6,-2.4 0.88,-3.83 1.6,-2.19 1.03,0.98 0.6,-0.77 -0.97,-1.17 2.63,-1.07 2.14,-3.53 2.7,0.52 z"
     title="Bihor"
     id="RO-BH" />
  <path
     d="m 243.44,86.78 0.73,-1.26 1.65,-0.47 0.97,-2.9 2.18,-1.59 1.32,-7.01 4.57,-0.67 2.84,0.69 0.52,-1.57 1.77,-1 1.62,-4.61 3.49,0.31 1.91,-3.21 4.57,0.96 6.42,3.02 4.65,-0.75 2.97,1.47 3.22,-1.76 5.49,0.24 0.37,-2.07 2.17,-1.01 1.03,1.13 2.16,-0.92 3.38,0.61 v 0 l 1.28,0.11 3.74,3.07 -0.65,1.52 1.78,2.87 3.11,2.05 -2.85,2.48 1.34,1.24 -0.49,2.17 -1.6,0.58 -1.09,-0.91 -0.73,1.23 -0.03,1.34 2.12,2.86 1.83,0.76 -0.42,1.56 1.01,3.85 -2.69,2.26 1.54,2.69 -1.29,5.2 1.26,0.84 0.6,5.87 v 0 l -3,2.34 -4.53,-0.48 -1.19,1.48 -3.37,-0.12 -3.99,3.12 -2.1,2.75 -1.28,4.28 -1.93,1.87 -1.12,4.22 1.42,1.18 -0.94,0.18 -0.15,1.31 -1.58,0.35 -3.15,-1.19 -2.02,-3.76 -0.2,1.08 -1.62,0.06 -0.73,2.45 -1.87,0.1 0.44,0.99 -1.75,-0.15 -0.56,4.9 -1.39,0.12 0.11,1.23 -2.28,1 -1.1,5.81 -1.9,-0.89 -3.56,2.35 -0.92,-0.96 -3.79,0.78 -7.42,-4.67 v 0 l 0.44,-2.52 1.41,-0.79 0.25,-4.44 1.67,-0.4 -2.9,-2.68 -0.05,-1.31 -2.13,0.16 -0.71,-2.67 -2.36,-0.42 -0.63,-3.63 0.82,-1.7 -1.15,-0.81 2.42,-5.3 -2.46,-4.48 -2.98,0.55 -1.27,-1.34 0.24,-1.76 -1.21,-1.98 -0.95,0.2 -0.06,1.04 -0.92,-1.39 -2.46,-0.22 -0.89,-1.49 -0.53,-9.66 1.37,-1.25 2.1,1.36 2.99,-2.41 z"
     title="Bistrița-Năsăud"
     id="RO-BN" />
  <path
     d="m 472.17,262.61 0.67,-0.72 2.33,0.69 0.75,2.03 2.97,-2.66 0.2,1.79 1.87,-0.86 -0.38,1.73 2.04,0.2 -0.39,1.08 1.33,-0.34 0.08,0.88 1.18,-0.47 -0.5,3.06 2.55,-0.72 0.21,1.3 1.96,1.2 3.25,-0.2 -0.44,-0.5 1.74,-1.65 6.41,2.71 0.61,-0.92 2.29,-0.24 v 0 l -0.12,4.1 -1.95,6.51 3.99,3.11 2.42,0.45 1.32,-0.77 0.96,2.2 -2.48,4.05 6.82,4.93 -1.8,1.21 0.39,1.99 -2.59,0.02 1.07,5.97 -1.57,1.93 1.47,3.77 -1.76,5.47 1.17,2.06 -2.66,2.43 -1.73,5.61 v 0 l -2.59,3.59 -2.33,0.19 -3.07,-1.8 -4.66,1.72 v 0 l -0.25,-1.16 -2.79,-0.4 -7.75,1.27 -8.59,-1.75 -3.7,0.05 -0.11,1.04 -1.27,-0.09 -4.52,-0.7 -0.18,-0.78 -2.3,1.27 -2.58,-1.5 0.34,-1.01 -2.73,-0.2 -3.09,5.45 -3.52,-2.59 -0.49,-1.86 v 0 l -1.39,-1.44 1.74,-0.06 0.94,-4.16 -1.34,-1.04 0.22,-0.65 1.64,0.55 1.51,-5.44 -1.45,-0.48 0.57,-1.97 2.12,-0.1 -0.17,-3.38 -2.04,-0.21 -0.24,-2.71 -2.72,-0.28 0.57,-5.93 -2.4,-0.65 -1.28,-6.5 -3.79,2.28 -1.36,-1.49 6.15,-7.3 7.65,3.96 2.41,-2.28 0.88,0.75 1,-1.31 -0.89,-0.66 0.72,-1.17 -1.02,-0.52 2.75,-1.14 -0.2,-1.23 1.23,-0.54 -0.64,-3.81 1.9,-1.19 -0.54,-1.87 2.61,-1.19 -0.42,-1.7 v 0 l -0.28,-1.01 3.86,-1.8 0.24,-1.71 z"
     title="Brăila"
     id="RO-BR" />
  <path
     d="m 418.09,1.61 4.29,0.58 1.59,-1.14 1.5,2.72 1.32,-0.71 2.19,3.04 1.46,0.02 -0.99,0.93 0.7,1.05 1.11,-0.13 -0.37,-1.61 1.89,0.36 -0.66,2.88 3.69,1.36 -0.75,0.71 -1.62,-0.72 0.29,1.74 2.68,1.09 1.16,-1.55 0.34,1.33 0.92,-0.56 0.07,2.59 -0.9,1.37 3.48,3.47 0.28,1.55 1.29,0.27 -0.77,2.46 2.02,-0.7 0.11,2.08 2.44,-0.05 -1.31,2.63 2.29,2.05 -1.75,2.49 3.16,1.83 0.7,5.08 2.52,1.56 -0.94,0.89 -0.8,-0.72 -0.39,1.34 1.65,0.22 -0.58,1.72 1.09,0.35 0.25,1.59 0.81,-0.18 -0.08,1.9 0.98,-0.43 0.01,1.43 1.18,0.02 -1.12,1.19 0.67,1.43 -1.66,-0.96 -1,1.21 2.12,1.86 -0.64,1.02 1.48,0.86 -0.11,1.69 1.35,2 2.88,2.11 2,2.9 v 0 l -4.49,1 -2.2,1.68 -1.88,-0.67 -0.59,0.66 1,2.47 -2.54,0.91 -3.66,0.09 -0.19,-1.58 -1.51,1.45 -2.9,-2.37 -1.35,4.57 0.17,3.67 -1.03,-0.37 -1.46,2.7 -2.8,-4.91 -9.87,-0.35 -6.56,-2.49 -1.18,0.83 0.47,1.95 -2.25,-0.05 -1.21,2.11 v 0 l -5.66,1.22 -0.1,-3.06 -2.52,-1.63 3.3,-1.25 0.05,-1.1 -1.71,-0.3 -1.17,-4.14 -1.14,-0.38 -0.26,-1.49 0.94,-1.02 -1.11,-2.82 0.75,-0.41 -4.09,-2.11 0.18,-1.81 -1.35,-0.58 0.16,-0.82 -0.67,0.48 -0.67,-2.45 -1.93,0.04 0.09,-0.78 -1.51,-0.68 -0.37,-1.08 1.02,-1.46 -2.07,-0.95 -3.54,-4.3 0.38,-1.6 -1.5,-0.41 0.53,-1.31 -1.04,-1.42 -0.78,0.66 -0.71,-2.02 -2.73,-2.25 -1.93,1.6 -0.89,-0.85 -0.1,-2.68 -3.73,-1.25 -2.76,-5.07 v 0 l 1.7,0.49 5.52,-2.03 1.25,-4.93 4,-3.02 1.55,-5 2.36,-2.47 -0.47,-1.9 1.28,-1.12 0.83,0.5 1.1,-1.17 0.54,1.06 0.89,-0.15 3.66,-1.71 0.89,-1.38 3.8,1.04 1.5,-1.57 1.32,0.55 0.34,-2.3 2.8,0.35 -0.28,-1.06 0.9,0.3 0.26,-1.03 1.2,0.93 0.76,-1.11 0.18,1.61 2.32,-1.82 z"
     title="Botoșani"
     id="RO-BT" />
  <path
     d="m 387.41,359.01 v 0 l -4.33,-1.42 1.37,-2.13 -4.49,-0.7 -0.72,-4.87 -3.69,0.22 -3.05,1.34 -0.25,1.64 -1.52,0.7 -0.16,2.21 2.34,1.37 0.21,1.28 -3.37,0.16 0.77,3.15 2.68,0.45 2.25,2.37 3.18,1.47 1.06,-0.72 1.86,2.75 1.81,-0.67 -1.56,-2.96 1.23,-2.31 2.98,-0.56 z"
     title="București"
     id="RO-B" />
  <path
     d="m 317.94,199.39 1.11,-0.32 4.11,2.88 0.74,-2.59 2.36,-1.36 1.44,1.01 1.12,-0.3 1.89,1.75 0.16,1.95 4.01,0.43 1.28,1.32 v 0 l -0.56,3.04 3.15,4 3.76,-1.14 1.92,2.36 -1.37,3.1 -0.82,-0.22 -0.58,4.94 1.18,2.03 -0.35,1.98 3.3,0.77 -0.57,1.13 -2.18,0.19 0.92,0.86 -0.53,1.37 0.81,2.25 1.7,0.02 1.37,1.9 1.17,-0.01 -0.39,0.63 2.09,1.41 0.62,2.45 1.04,-0.13 0.43,-1.33 2.07,-0.19 1.07,1.41 2.33,-0.07 2.29,1.23 -0.1,1.06 2.8,2.87 2.89,-0.22 0.32,0.84 3.39,1.15 0.82,1.89 -1.18,1.58 3.73,1.1 -0.45,1.88 2.78,-0.01 2.41,2.48 -0.02,6.88 v 0 l -3.05,3.41 v 0 l -3.23,-3.21 -4.7,-0.05 -1.45,1.58 -0.85,4.81 -1.3,1.93 -2.46,-0.68 -1.11,-3.09 -1.47,-1.2 -3.92,1.63 -0.29,-0.89 -5.06,-1.43 -2.57,0.89 -1.03,1.38 -5.72,-0.41 -2.47,0.97 -0.85,1.31 v 0 0 0 l -2.39,1.22 -0.49,3.71 -5.4,0.55 v 0 l -0.89,-0.82 -0.24,-3.08 -1.04,0.63 -2.09,-0.61 0.14,-2.98 -1.27,-1.89 -0.35,-3.66 -3.44,-1.17 -5,-4.81 -4.35,-1.23 -1.81,0.86 -3.04,-0.77 -1.54,0.86 -2.64,-1.05 -3.62,0.41 -1.28,-1.5 -8.55,0.5 v 0 l -0.59,-10.06 -3.08,-8.46 3.76,-2.96 5.3,-0.42 0.29,-2.08 -3.73,-3.2 -1.07,-3.98 1.18,-0.59 2.3,1.12 1.03,-3.83 4.27,-0.4 -0.15,-2.54 2,-0.43 1.6,-3.22 3.58,-2.02 -0.2,-1.18 v 0 l 0.75,-2.75 3.93,-3.49 2.84,0.68 2.53,-1.08 2.77,1.22 0.63,-1.86 z"
     title="Brașov"
     id="RO-BV" />
  <path
     d="m 396.8,233.41 3.27,2.24 -0.37,3.61 2.49,1.75 -0.3,1.49 4.88,6.61 1.95,-0.29 1.36,1.23 2.82,-1.07 1.94,4.3 2.07,-0.31 3.01,3.54 2.94,0.08 2.71,2.78 3.97,-0.38 0.8,-0.97 2.48,0.72 1.66,-0.58 3.84,7.04 2.62,0.8 2.43,-2.02 0.95,0.48 -1.12,2.26 1.08,-0.15 2.43,2.17 2.73,-2.12 1.33,1.27 1.2,-0.23 2.36,-2.19 -0.87,3.14 0.44,3.49 1.95,1.45 0.44,-0.78 5.97,-0.31 2.13,-1.54 v 0 l 0.42,1.7 -2.61,1.19 0.54,1.87 -1.9,1.19 0.64,3.81 -1.23,0.54 0.2,1.23 -2.75,1.14 1.02,0.52 -0.72,1.17 0.89,0.66 -1,1.31 -0.88,-0.75 -2.41,2.28 -7.65,-3.96 -6.15,7.3 1.36,1.49 3.79,-2.28 1.28,6.5 2.4,0.65 -0.57,5.93 2.72,0.28 0.24,2.71 2.04,0.21 0.17,3.38 -2.12,0.1 -0.57,1.97 1.45,0.48 -1.51,5.44 -1.64,-0.55 -0.22,0.65 1.34,1.04 -0.94,4.16 -1.74,0.06 1.39,1.44 v 0 l -3.45,0.57 -0.32,2.01 2.98,1.18 -0.86,1.93 -2.71,-1.05 -0.29,0.63 -2.32,-0.85 0.81,-3.2 -5.93,-3.23 -1.58,2.13 0.24,1.25 -7.24,-3.53 -0.84,1.57 -2.11,0.15 -1.06,1.43 -2.23,-0.84 -1.36,-2.04 -9.04,0.16 -1.4,-4.16 v 0 l -5.99,-5.55 3.73,-2.26 0.1,-2.55 -1,0.59 -1.65,-3.24 -2.24,1.09 -2.56,-7.69 -0.86,0.12 1.21,-2.55 -0.92,-0.91 1.32,-4.06 -2.33,-2.91 -4.55,2.28 -1.38,-3.14 0.86,-1.74 -1.58,-0.34 -1.67,1.53 -2.77,-0.24 -2.54,-6.63 -1.02,-0.19 -0.11,-1.68 1.35,-0.84 0.09,-1.42 -2.37,-2.86 -3.24,-1.03 -2.31,-4.05 -3.86,-2.54 0.35,-3.48 -0.65,-0.55 v 0 l 3.05,-3.41 v 0 l 2.9,-0.41 2.76,-4.68 0.44,-3.18 1.78,-1.23 2.09,0.13 2.23,3.09 2.03,-2.12 1.16,-1.96 1.39,-8.63 2.33,-1.16 z"
     title="Buzău"
     id="RO-BZ" />
  <path
     d="m 231.9,89.23 -0.68,-1.21 1.5,-2.04 1.84,-0.04 1.29,1.49 6.15,-1.28 1.44,0.63 v 0 l 0.35,3.66 -2.99,2.41 -2.1,-1.36 -1.37,1.25 0.53,9.66 0.89,1.49 2.46,0.22 0.92,1.39 0.06,-1.04 0.95,-0.2 1.21,1.98 -0.24,1.76 1.27,1.34 2.98,-0.55 2.46,4.48 -2.42,5.3 1.15,0.81 -0.82,1.7 0.63,3.63 2.36,0.42 0.71,2.67 2.13,-0.16 0.05,1.31 2.9,2.68 -1.67,0.4 -0.25,4.44 -1.41,0.79 -0.44,2.52 v 0 l 0.45,0.96 -8,5.22 0.89,1.95 2.8,1.4 -0.13,1.15 -1.12,2.63 -2.55,0.32 -2.7,2.62 v 1.22 l 3.13,0.92 -2.5,4.75 -0.09,2.09 -2.51,-0.76 -2.06,2.3 0.28,5.75 v 0 l -6.64,1.32 -1.63,-0.27 -0.45,-1.49 -1.19,-0.33 -5.48,1.38 -1.82,-0.38 -1.93,1.44 0.51,1.37 -1.54,-0.16 1.62,1.94 -2.62,0.58 -3.09,-0.87 -0.55,-0.92 0.35,-2.5 1.93,-2.39 -1.49,-2.06 -3.8,1.16 -1.98,-1.3 -1.11,0.38 -1.84,-2.51 -4.67,-2.82 -1.8,0.25 -1.32,1.82 -6.42,3.48 -3.17,-0.61 -0.34,-1.32 -1.38,0.17 -3.5,1.56 -0.96,2.2 -2.87,-0.06 0.42,-2.44 -1.11,-0.53 -0.43,-3.08 -1.3,-1.66 -4.72,-0.46 -3.85,1.76 -3.32,-0.88 -1.31,-1.67 v 0 l 0.7,-3.63 -0.84,-2.74 -1.24,0.39 -0.19,-1.38 -2.45,-1.76 -2.16,-0.36 -2.04,1.57 -2.04,-1.61 2.21,-1.35 2.17,0.69 1.94,-1.82 -2.55,-4.7 0.32,-1.72 -3.63,-1.74 0.81,-2.22 3.57,-1.38 3.58,-7.5 -6.41,-4.28 0.01,-2.85 2.76,-3.46 v 0 l 4.08,0.56 4.67,-0.92 1.31,1.86 2.05,0.53 -0.8,1.08 0.1,2.9 1.55,0.69 0.97,2.15 1.8,1.14 2.36,-0.51 0.69,1.59 1.2,-1.2 0.54,2 1.61,-2.2 1.71,1.35 -1.05,2.81 1.77,0.7 3.5,-1.78 2.67,0.28 1.36,-2.12 -0.49,-5.63 1.34,-0.83 2.07,4.7 1.31,-0.23 1.12,1.04 1.43,-1.03 0.8,0.36 3.01,-3.48 -0.77,-1.58 0.88,-0.21 -0.13,-0.9 1.9,-0.73 -0.82,-0.16 0.4,-0.74 2.56,0.14 1.91,-2.23 -0.28,-0.91 1.03,-0.29 -0.78,-2.86 -2.77,-3.19 3.54,-0.09 -0.3,-1.77 1.49,-0.25 0.11,-0.97 -1.01,-2.95 3.79,-0.36 0.92,-2.37 2.71,1.56 1.94,-1.52 -0.37,-1.29 1.65,-2.53 4.25,-3.22 0.48,0.85 1.13,-0.55 0.72,-2.03 4.19,2.88 -1.42,-3.66 z"
     title="Cluj"
     id="RO-CJ" />
  <path
     d="m 398.42,350.69 3.27,-2.47 -1.97,-0.25 2.92,-3.11 2.19,1.46 1.95,3.13 3,1.08 4.52,-6.84 0.93,0.58 -0.47,1.29 2.32,0.82 -0.26,2.26 0.88,0.92 2.4,0.61 0.51,-2.33 1.16,0.09 -0.27,2.85 2.18,0.86 1.55,-1.74 0.9,0.15 -0.14,0.9 3.32,-0.78 0.07,0.91 4.01,-1.29 4.71,-0.11 -0.12,2.14 3.91,-0.33 0.06,2.27 2.91,0.15 0.37,-1.64 4.47,1.5 0.45,-2.55 1.1,0.62 -0.26,1.32 2.26,0.47 0.88,-2.23 1.03,0.16 -0.03,1.82 4.13,0.45 0.45,-2.75 2.09,1.01 -0.09,0.85 8.15,-0.19 0.47,-4.2 1.26,0.15 0.2,-1.88 0.79,-0.02 0.78,0.41 0.43,7.6 4.65,0.73 0.34,3.23 4.78,1.38 2.51,1.97 -1.34,1.06 0.83,1.35 -0.67,0.49 1.61,1.82 1,-0.94 0.69,1.11 1.53,0.22 1.98,-3.72 10.43,3.56 v 0 l -1.45,3.29 -3.84,4.79 -8.39,0.81 -4.88,3.97 -5.69,-0.64 -2.65,0.66 -9.48,6.63 -6.32,-0.31 -2.72,-1.07 -2.59,1.34 v 0 l -4.56,0.55 -9.48,-2.87 -4.37,1.38 -5.78,0.27 -10.36,5.11 -3.18,-0.1 -6.03,2.11 -4.13,-0.25 -6.02,1.66 -4.96,-0.37 v 0 l -1.14,-5.42 4.39,-2.58 0.66,-1.28 -0.97,-3.52 -0.86,-0.39 0.96,-1.26 -0.92,-1.9 -2.39,-0.14 -0.42,-1.62 -3.23,-1.01 -1.39,-2.58 -2.11,-1.38 v 0 l 1.61,-1.86 -1.39,-1.21 4.33,-2.71 -0.58,-0.1 0.99,-0.95 -0.85,-0.06 -0.48,-1.81 1.62,0.38 -0.64,-0.93 1.44,-0.07 1.13,-1.55 2.6,-0.16 3.94,-2.6 -0.81,-1.42 -3.69,0.41 -2.02,-2.49 z"
     title="Călărași"
     id="RO-CL" />
  <path
     d="m 140.11,245.75 1.77,0.89 4.62,7.83 3.67,-0.93 0.91,1.95 2.52,-0.63 -0.35,3.14 1.14,-0.32 2.72,4.56 1.34,7.14 -2.53,5.94 -5.02,4.41 0.74,2.44 -0.89,2.63 2.13,-0.07 1.62,1.11 v 0 l -1.25,2.09 -2.61,1.15 -1.74,3.93 1.06,1.41 4.71,1.06 0.66,1.91 v 0 l -6.71,8.44 -4.37,3.69 1.63,1.17 -1.64,1.52 0.01,6.09 -5.7,8.94 -8.66,-0.42 -3.76,-3.04 -1.03,2.49 0.51,2.76 -1,1.49 -1.88,0.23 -1.22,6.98 2.36,2.01 -0.99,4.44 -0.86,0.63 -0.77,-1.47 -1.67,0.41 -1.79,-2.44 -2.07,2.2 -2.35,-1.39 -0.33,0.7 v 0 l -1.02,-2.62 -4.6,-1.33 -7.47,-0.62 -0.91,-0.83 -4.52,0.84 -1.94,-1.01 -3.97,0.26 -3.06,-8.83 -3.25,-1.19 -8.69,-0.4 -1.19,-2.88 -1.64,-1.29 -0.42,-1.77 h 0.65 l 0.44,-2.36 5.29,-0.65 1,0.79 6.04,-1.94 -0.97,-3.84 -6.94,-2.68 -5.06,-5.46 6.19,-1.74 0.11,-2.84 1.68,-1.84 -0.78,-1.31 0.47,-1.43 3.24,-1.76 -0.82,-2.74 -1.45,-0.16 -0.61,-1.61 v 0 l 2.22,-0.99 -0.38,-1.46 1.52,-4.23 1.19,-0.72 0.07,-2.04 -2.01,-2.15 -0.64,-2.28 -2.1,-1.03 -1.79,-2.54 -0.52,-2.83 4.22,-0.89 -1.1,-1.29 -1.3,0.34 -0.72,-3.99 6.8,-2.72 1.98,-5.74 6.14,-1.16 0.85,1.72 2.52,0.73 1.23,2.18 4.51,-0.88 2.53,0.44 0.11,-2.23 2.38,-0.45 -1.06,2.56 0.65,0.77 2.55,-0.7 0.85,1.34 -0.93,2.14 2.2,0.95 3.47,-0.09 1.77,-2.34 -0.64,-5.42 1.15,-0.74 0.67,0.8 2.03,-1.87 2.04,-0.42 1.66,-3.06 6.88,4.27 3.32,-7.31 1.55,1.09 3.07,-1.12 0.81,1.06 z"
     title="Caraș-Severin"
     id="RO-CS" />
  <path
     d="m 562.32,335.53 1.22,0.7 -0.43,1.3 -0.43,-1.65 -0.91,1.1 z m -8.15,0.71 -0.34,1.33 0.27,-1.06 -0.91,-0.08 1.99,-1.31 z m 9.46,-1.18 1.26,1.06 1.33,-0.86 -4.88,6.87 3.52,-5.35 -2.16,-2.02 z m -6.49,-1.4 5.34,1.18 -3.98,2.34 -3.13,3.39 -0.34,-0.87 1.21,-1.45 4.05,-2.93 -2.42,-1.52 -2.9,0.88 z m -51.29,-8.62 2.66,0.81 2.51,-0.64 2.54,1.76 -0.78,1.55 1.32,0.87 1.26,-1.06 2.53,0.07 -0.11,4.07 4.58,2.33 0.65,1.39 4.2,0.54 -0.68,2 1.92,0.45 0.25,-0.84 1.78,0.3 0.19,-0.93 1.35,-0.19 0.83,2.63 3.28,-0.71 0.23,-1.82 10.47,-0.29 -0.13,-1.91 1.86,-0.45 1.32,1.81 1.47,-0.33 v 0 l 0.85,3.36 2.69,-0.09 0.45,0.89 -3.59,3.12 1.04,-2.44 -2.35,0.35 0.03,3.49 1.9,-0.02 -1.78,1.69 -1.74,-0.62 -1,1.97 0.51,0.91 0.98,-1.39 2.08,0.26 -1.7,4.87 0.39,3.03 5.88,-8.63 3.71,-1.61 0.75,-1.23 -4.24,7.9 -6.65,7.97 -3.74,6.11 -1.83,0.05 -1.95,1.9 -0.58,6.65 2.73,7.17 -1.63,1.3 1.73,1.02 -1.26,0.41 1.24,2.63 -1.12,-0.04 0.41,-0.85 -0.77,-0.68 -0.19,2.34 -1.06,0.26 2.62,0.29 -1.69,2.03 1.86,7.6 -3.54,8.23 -0.34,4.21 -1.95,4.33 0.64,1.14 -0.54,4.39 -8.61,0.46 -6.43,-1.67 -7.37,-0.6 -15.5,-7.53 -3.17,-12.51 -1.79,-2.27 -4.74,3.73 -6.92,1.15 -1.76,-0.52 -2.3,-5.97 -1.9,-1.59 -2.07,3.2 -9.03,-0.87 -4.67,0.91 -2.81,-4.04 -4.25,-1.54 -1.15,-4.51 v 0 l 2.58,-1.34 2.73,1.07 6.32,0.32 9.47,-6.63 2.66,-0.67 5.69,0.64 4.88,-3.97 8.39,-0.8 3.83,-4.79 1.45,-3.29 v 0 l 1.39,-3.57 4.53,-5.85 -1.13,-4.11 -2.66,-2.46 -2.4,-5.31 1.38,-4.11 -0.8,-2.12 -3.33,-3.37 h -2.03 l -3.56,-2.53 -0.75,-1.76 0.45,-3.14 v 0 l 4.65,-1.72 3.08,1.8 2.33,-0.19 z"
     title="Constanța"
     id="RO-CT" />
  <path
     d="m 336.16,204.16 2.04,-0.84 1.64,-5.63 3.93,-2.32 1.66,-2.71 4.66,-1.92 1.27,-2.26 1.73,0.19 1.66,1.64 -0.91,1.32 8.05,12.09 4.45,-0.97 6.32,0.16 1.11,-3.16 3.17,0.49 3.06,-1.27 2.47,1.12 0.65,-1.98 1.97,0.3 0.79,-2.4 2.42,-1.17 0.11,-2.96 v 0 l 3.93,1.17 1.23,3.09 -0.16,7.48 2.89,2.32 2.68,-0.07 0.95,1.6 -0.86,1.14 0.8,2.23 v 0 4.99 l -3.08,2.96 0.19,3.37 -1.17,1.73 0.71,2.38 -0.9,5.4 1.18,1.74 v 0 l -0.27,6.08 -2.33,1.16 -1.39,8.63 -1.16,1.96 -2.03,2.12 -2.23,-3.09 -2.09,-0.13 -1.78,1.23 -0.44,3.18 -2.76,4.68 -2.9,0.41 v 0 l 0.02,-6.88 -2.41,-2.48 -2.78,0.01 0.45,-1.88 -3.73,-1.1 1.18,-1.58 -0.82,-1.89 -3.39,-1.15 -0.32,-0.84 -2.89,0.22 -2.8,-2.87 0.1,-1.06 -2.29,-1.23 -2.33,0.07 -1.07,-1.41 -2.07,0.19 -0.43,1.33 -1.04,0.13 -0.62,-2.45 -2.09,-1.41 0.39,-0.63 -1.17,0.01 -1.37,-1.9 -1.7,-0.02 -0.81,-2.25 0.53,-1.37 -0.92,-0.86 2.18,-0.19 0.57,-1.13 -3.3,-0.77 0.35,-1.98 -1.18,-2.03 0.58,-4.94 0.82,0.22 1.37,-3.1 -1.92,-2.36 -3.76,1.14 -3.15,-4 z"
     title="Covasna"
     id="RO-CV" />
  <path
     d="m 335.89,266.59 1.19,1.31 0.76,3.26 -1.01,5.27 4.13,2.36 1.49,2.06 0.18,1.56 -1.36,1.13 -0.79,3.13 0.57,3.16 2.06,0.16 0.24,2.09 2.05,1.31 1.21,3.54 4,3.2 0.35,10.88 1.12,-0.84 2.23,0.35 0.93,1.59 1.9,-0.45 2.75,3.48 -1.08,1.07 0.69,2.13 -1.63,1.95 3.05,3.18 2.45,-0.98 5.13,7.38 -2.61,2.36 1.17,2.06 1.53,-2.03 1.08,0.04 v 0 l 0.09,1.75 v 0 0 0 l 1.04,0.6 -1.13,0.8 0.59,1.6 -2.42,0.86 -0.28,1.15 3.39,2.88 -5.49,4.65 v 0 0 0 l -1.98,-1.9 -1.31,4.39 v 0 l -0.46,0.99 -1.54,-1.53 -3.12,1.11 -3.94,-1.33 -2.21,2.01 -3.08,-3.01 -2.76,2.89 -1.61,-1.16 -4.72,2.46 -2.24,3.54 v 0 l -1.51,-0.87 1.17,-1.77 -1.09,-0.71 -1.19,0.22 -1.6,-1.14 -2.81,0.28 1.1,3.77 -4.43,4.05 0.29,0.58 -3.39,1.04 -2.44,-3.18 v 0 l 2.99,0.57 0.78,-0.65 -0.33,-2.08 0.76,-0.9 -1.29,-3.05 1.07,-1.64 -0.37,-2.37 -4.81,-5.09 0.52,-1.78 -2.45,-2.43 1.8,-0.25 2.16,-3.27 -2.99,-1.69 1.36,-7.35 -0.26,-5.62 -1.99,-7.98 0.63,-3.53 1.55,-1.7 -0.7,-2.2 -0.94,0.02 -0.64,-1.34 -1.25,0.3 -1.17,-1.9 0.71,-2 1.55,0.61 0.87,-2.59 -1.32,-2.04 0.32,-1.04 -1.02,-0.47 0.76,-4.66 -1.38,-0.27 -0.03,-1.88 1.28,-1.35 2.9,4.63 1.5,1 1.8,-0.78 -0.32,-2.91 3,-1.16 -0.76,-4.17 1.64,-2.05 1.36,-5.77 -0.27,-2.42 v 0 l 5.4,-0.55 0.49,-3.71 z"
     title="Dâmbovița"
     id="RO-DB" />
  <path
     d="m 206.69,346.08 2.48,-0.58 2.99,-2.9 3.18,-0.43 1.25,1.94 5.5,-0.91 1.16,1.55 0.69,-11.49 1.07,-0.64 1.73,0.82 v 0 l 0.72,1.84 -0.59,2.11 0.93,0.48 0.52,2.55 0.74,-1.65 1,1.04 5.49,1.4 -0.43,3.45 1.29,0.71 0.99,4.41 v 0 l -2.39,1.81 0.71,1.23 -2.47,2.5 1.99,0.91 -0.5,2.04 3.15,3.06 1.07,-1.19 1.42,0.62 -0.88,2.35 5.35,1.5 -0.55,1.32 4.44,5.26 0.13,1.76 2.91,1.04 2.12,2.59 1.64,-0.31 0.65,2.17 0.67,-0.03 -0.96,3.42 1.42,0.27 -2.72,13.58 2.41,2.32 -0.58,1.66 0.64,1 -1.13,-0.31 -0.35,0.9 1.53,1.38 -0.65,0.9 0.62,0.44 -1.4,6.2 -5.22,6.65 -1.1,6.53 2.1,1.86 v 0 l -11.2,-4.82 -7.17,-0.99 -6.23,-2.62 -1.22,-1.49 -3.1,-0.27 -5.55,1.16 -3.48,-1.18 -2.91,-2.67 -5.66,-1.48 -10.04,0.41 -8.33,3.48 -5.06,1.07 -12.19,-3.47 -1.38,-1.27 -0.99,-3.09 2.62,-8.64 3.21,-2.12 5.13,-0.86 2.24,-3.78 -0.75,-3.13 -4.11,-0.9 v 0 l 0.7,-2.17 3.73,-3.84 4.07,1.61 1.18,-7.56 -2.43,-1.27 0.11,-1.05 1.63,-0.47 1.68,-5.34 2.99,-0.67 0.75,-3.35 3.26,-0.48 -0.17,-1.23 -5.62,-3.09 0.45,-0.87 1.68,0.11 0.75,-3.46 2.62,-1.54 0.03,-0.96 2.5,-0.54 -1.5,-2.3 5.49,0.15 1.06,-1.2 1.25,0.74 1.35,-0.9 1.32,1.18 1.69,-1.46 z"
     title="Dolj"
     id="RO-DJ" />
  <path
     d="m 215.46,274.7 2.13,1.73 v 0 l 1.2,-1.54 v 0 l 2.81,1.87 2.7,0.41 4.22,-2.24 3.5,2.08 -3.15,6.34 3.83,10.27 -2.64,1.77 0.12,5.02 -2.13,5.33 -1.74,0.98 -0.12,1.08 0.95,3.76 -0.89,7.32 1.28,0.14 1.37,3.31 -1.41,1.84 0.46,5.98 -1.21,3.29 v 0 l -1.73,-0.82 -1.07,0.64 -0.69,11.49 -1.16,-1.55 -5.5,0.91 -1.25,-1.94 -3.18,0.43 -2.99,2.9 -2.48,0.58 v 0 l -3.47,-1.97 0.68,-1.64 -6.22,-3.74 -5.72,-2.49 -8.95,-1.57 -1.59,-1.43 -0.05,-1.66 -3.89,-1.64 -2.01,-3.7 -0.73,-0.35 -0.94,1.11 -1.05,-0.73 0.67,-1.59 -2.16,-1.52 -2.32,-10.98 1.66,-1.98 -0.33,-1.13 -1.13,-1.35 -1.41,0.05 -1.43,-2.88 -3.83,-3.16 -3.9,-1.01 -1.51,-2.89 -1.73,-0.44 v 0 l -0.66,-1.91 -4.71,-1.06 -1.06,-1.41 1.74,-3.93 2.61,-1.15 1.25,-2.09 v 0 l 2.08,-1.64 9.39,-3.07 2.41,1.88 6.2,-0.94 1.55,-1.61 2.63,5.79 1.08,0.2 2.84,-2.49 0.38,-3.52 5.24,1.7 5.21,-3.28 4.25,0.59 1.17,-2.58 2.49,-0.11 0.26,-0.86 1.16,1.95 3.52,2.18 z"
     title="Gorj"
     id="RO-GJ" />
  <path
     d="m 467.44,202.61 1.73,0.1 1.06,1.49 -0.31,2.98 0.9,1.49 -1.12,1.15 1.62,3.01 2.25,1.61 1.87,-1.23 0.05,-3.33 1.43,-0.63 -2.64,-5.48 0.9,-0.22 -1.03,-1.06 0.35,-1.45 5.03,2.16 1.43,-1.15 1.55,0.85 2.75,-0.27 1.24,2 3.54,-0.7 1.28,-1.86 -0.06,-1.84 1.67,-0.81 0.08,2.24 2.34,-0.97 1.82,1.64 1.7,-0.51 0.9,2.96 1.65,-0.88 0.93,1.27 3.72,-1.17 2.51,0.57 v 0 l 0.37,0.67 -1.27,0.46 0.35,1.84 -1.04,-0.09 0.53,1.41 -0.75,0.51 0.99,1.38 -1.23,3.24 1.45,1.86 -0.47,0.94 1.74,5.17 -0.81,3.72 1.29,0.67 -0.32,1.25 -1.45,0.37 0.17,3.96 0.94,1.62 -0.65,0.57 1.38,1.31 1.3,-0.31 -0.66,1.97 1.49,2.32 0.24,2.47 -0.71,0.56 0.75,2.28 -0.84,2.59 0.99,0.53 -1.09,0.75 0.07,1.14 -1.8,0.47 -1.01,-0.69 -1.66,2.07 2.12,2.96 1.1,-0.48 0.5,1.04 0.64,-0.83 -0.49,1.23 1.11,1.53 0.01,2.39 -0.72,0.84 2.09,3.33 1.94,0.66 v 0 l -1.36,1.51 -0.5,3.36 -3.35,-2.12 -2.7,-0.37 -4.36,3.37 v 0 l -2.29,0.24 -0.61,0.92 -6.41,-2.71 -1.74,1.65 0.44,0.5 -3.25,0.2 -1.96,-1.2 -0.21,-1.3 -2.55,0.72 0.5,-3.06 -1.18,0.47 -0.08,-0.88 -1.33,0.34 0.39,-1.08 -2.04,-0.2 0.38,-1.73 -1.87,0.86 -0.2,-1.79 -2.97,2.66 -0.75,-2.03 -2.33,-0.69 -0.67,0.72 v 0 l -0.55,-1.21 -1.29,0.05 1.02,-0.91 -1.32,-1.66 0.51,-1.91 -1.56,-1.33 0.31,-1.4 1.68,-0.49 -1.34,-2.11 -1.12,-0.2 1.01,-1.25 -1.48,-0.31 -0.33,-1.57 -1.3,0.35 -1.06,-3.82 -1.66,0.79 -3.96,-5.5 -0.3,-3.63 -1.84,-2.39 -1.88,-7.3 -3.4,-6.9 -1.28,-4.76 v -2.12 l 3.51,-1.9 -0.18,-1.52 1.31,-1.91 8.1,-1.06 -0.36,-4.14 0.52,-0.42 2.98,2.2 z"
     title="Galați"
     id="RO-GL" />
  <path
     d="m 336.49,355.05 2.24,-3.54 4.72,-2.46 1.61,1.16 2.76,-2.89 3.08,3.01 2.21,-2.01 3.94,1.33 3.12,-1.11 1.54,1.53 0.46,-0.99 v 0 l 2.29,-0.28 1.13,1.18 0.92,1.26 -1.49,2.83 1.08,0.36 -1.24,2.44 -1.6,-0.65 -0.31,-1.78 -0.97,0.76 1,4.75 -2.64,2.35 4.33,3.07 0.49,1.44 4.63,1.1 1.15,1.11 0.38,1.23 -1.45,3.03 2.21,-2.84 3.31,3.13 1.76,-0.06 0.11,1.45 v 0 0 0 l 3.42,1.57 1.3,-0.31 v 0 0 0 l 0.66,-1.06 v 0 0 0 l 0.62,0.3 1.38,-2.03 v 0 0 0 l 0.56,0.61 1.36,-1.34 v 0 0 0 l 1.27,-1.75 v 0 l 2.11,1.38 1.39,2.58 3.23,1.01 0.42,1.62 2.39,0.14 0.92,1.9 -0.96,1.26 0.86,0.39 0.97,3.52 -0.66,1.28 -4.39,2.58 1.14,5.42 v 0 l -3.84,0.94 -6.79,3.65 -3.41,0.01 -2.66,1.65 -3.31,5.35 -6.72,4.13 -4.85,7.42 -4.33,2.9 -1.85,3.26 -3.38,1.8 -3.88,0.05 v 0 l -1.24,-11.71 -2.14,-0.79 0.19,-1.5 -1.51,-2.3 1.19,-0.92 0.46,-5 -1.24,-1.96 0.81,-0.47 -0.84,-1.03 -0.58,-5.97 2.27,-0.6 -0.91,-2.17 1.56,-2.53 0.94,0.46 0.26,-1.69 1,1.87 0.77,-2.33 1.73,-0.57 -3.77,-3.29 0.56,-3.91 1.97,-4.11 -1.62,-1.27 -0.08,-2.09 -0.79,-0.25 -0.52,1.66 -1.82,-1.18 0.57,-1.28 -2.44,-1.18 -1.2,0.59 -6.68,-1.32 0.24,-2.38 1.4,-1.82 -0.61,-0.77 1.76,-1.92 -3.11,-2.25 1.08,-2.3 z"
     title="Giurgiu"
     id="RO-GR" />
  <path
     d="m 161.32,182.2 1.63,0.17 2.08,2.3 7.85,-0.25 1.87,3.95 -0.91,1.8 2.33,4 3.27,1.88 1.22,-0.76 1.3,2 1.4,0.49 0.34,3.83 -1.36,-0.62 -1.29,0.68 2.01,4.07 -0.77,1.35 0.68,2.66 2,1.14 1.57,-0.3 2.07,1.81 3,-0.67 -0.5,1.83 3.38,7.51 2.66,1.57 1.68,2.95 -0.18,5.4 1.36,4.63 2.04,2.12 -1.31,3.94 3.66,3.48 -2.15,3.09 2.66,1.38 -0.09,3.46 4.89,0.99 0.72,2.56 1.42,-0.11 2.49,2.4 1.53,5.05 v 0 l -1.35,4.02 1.12,0.42 0.58,3.1 -0.76,3.18 v 0 l -9.1,5.33 -3.52,-2.18 -1.16,-1.95 -0.26,0.86 -2.49,0.11 -1.17,2.58 -4.25,-0.59 -5.21,3.28 -5.24,-1.7 -0.38,3.52 -2.84,2.49 -1.08,-0.2 -2.63,-5.79 -1.55,1.61 -6.2,0.94 -2.41,-1.88 -9.39,3.07 -2.08,1.64 v 0 l -1.62,-1.11 -2.13,0.07 0.89,-2.63 -0.74,-2.44 5.02,-4.41 2.53,-5.94 -1.34,-7.14 -2.72,-4.56 -1.14,0.32 0.35,-3.14 -2.52,0.63 -0.91,-1.95 -3.67,0.93 -4.62,-7.83 -1.77,-0.89 v 0 l 2.56,-3.41 0.31,-2.41 3.05,-0.81 1.87,-3.61 -1.47,-1.62 -1.57,1.09 -1.23,-0.37 -0.3,-4.45 -2.61,-1.81 -1.42,0.44 -2.43,-3.37 1.95,-1.64 0.15,-1.36 v 0 l 1.49,-2.42 -0.39,-0.79 -3.91,-0.35 -1.6,-2.74 0.43,-1.05 2.43,0.27 0.6,-1.37 2.55,0.01 -0.25,-7.29 -1.22,-1.02 3.09,-2.76 0.13,-1.26 2.21,-1.03 -2.64,-2.15 -1.02,-3.07 3.51,-2.92 1.65,2.39 2.39,-0.48 0.56,-0.93 6.02,0.03 1.38,-8.38 2.79,-0.95 z"
     title="Hunedoara"
     id="RO-HD" />
  <path
     d="m 322.2,112.67 4.65,-2.95 5.57,2.77 1.34,-3.19 3.17,-0.9 4.11,2.21 0.35,2.64 4.35,0.76 1.4,-1.79 2.31,0.6 v 0 l 4.91,1.6 2.58,3.95 -0.35,1.31 2.19,4.79 1.05,-1.13 1.64,0.08 1.49,2.02 -1.38,0.22 -1.22,2.77 -1.62,-0.34 -2.63,4.1 1.25,1.67 -1.01,2.34 2.81,1.75 0.55,4.12 v 2.57 l -1.91,2.49 0.35,0.97 4.9,5.88 2.59,-0.37 -1.57,-3.15 0.51,-1.03 5.55,0.87 v 0 l 2.04,4.11 -1.19,2.57 0.32,1.49 4.25,6.46 0.61,2.52 -0.34,1.23 -2.56,1.31 -0.82,1.18 0.55,0.76 -2.33,2.09 4.85,2.9 8.04,0.4 -1.02,1.37 0.63,0.69 -1.56,6.41 3.46,-0.03 3.27,-2.67 1.68,0.68 -0.31,3.33 -1.8,2.4 0.51,2.38 v 0 l -0.11,2.96 -2.42,1.17 -0.79,2.4 -1.97,-0.3 -0.65,1.98 -2.47,-1.12 -3.06,1.27 -3.17,-0.49 -1.11,3.16 -6.32,-0.16 -4.45,0.97 -8.05,-12.09 0.91,-1.32 -1.66,-1.64 -1.73,-0.19 -1.27,2.26 -4.66,1.92 -1.66,2.71 -3.93,2.32 -1.64,5.63 -2.04,0.84 v 0 l -1.28,-1.32 -4.01,-0.43 -0.16,-1.95 -1.89,-1.75 -1.12,0.3 -1.44,-1.01 -2.36,1.36 -0.74,2.59 -4.11,-2.88 -1.11,0.32 v 0 l -2.82,-2.04 -1.59,-4.15 -1.68,0.02 -0.64,-1.18 -7.7,-0.11 -1.04,-0.43 -0.34,-2.16 -2.23,-1.43 -1.3,0.48 -1.18,-2.15 1.75,-2.34 -1.53,-0.25 -1.19,-3.4 0.85,-0.94 2.54,0.64 0.88,-0.61 2.06,1.42 2.33,-1.23 -2.28,-4.1 4.23,-2.91 1.76,-3.02 -1.76,-0.74 -0.81,2.1 -0.75,-1.56 0.36,-1.37 1.75,-1.08 0.64,-2.29 2.79,-1.3 1.34,-1.98 4.22,0.08 5.51,-7.68 3.71,-2.69 -0.6,-2.25 1.68,-7.41 -1.55,-1.16 -0.1,-3.1 -1.99,-0.94 1.9,-8.88 -0.75,-9.03 -2.53,-2.75 z"
     title="Harghita"
     id="RO-HR" />
  <path
     d="m 397.65,349.79 -0.62,1.18 -0.41,-1.38 -1.61,0.4 -1.01,-2.25 2.02,-2.77 -0.52,-0.72 2.32,-2.1 1.34,1.3 1.66,-1.19 0.02,-2.23 -5.03,1.34 -2.45,-4.89 1.95,-1.36 0.01,-1.56 -1.31,-2.56 -2.95,-2.71 v 0 l -2.34,0.92 -0.82,1.75 -4.42,-1.93 -0.8,0.73 -2.2,-0.87 -0.81,0.84 -2.16,-1.35 0.34,2.25 -1.68,-1.05 -1.46,1.54 -0.11,-0.68 -3.03,0.46 -1.19,-0.65 -1.24,0.45 0.52,1.63 v 0 l 0.09,1.74 1.04,0.61 -1.13,0.8 0.59,1.6 -2.42,0.86 -0.28,1.14 3.39,2.88 -5.5,4.65 -1.97,-1.9 -1.32,4.39 v 0 l 2.29,-0.28 1.13,1.18 0.93,1.27 -1.5,2.83 1.08,0.35 -1.24,2.44 -1.6,-0.65 -0.31,-1.78 -0.97,0.76 1,4.75 -2.64,2.35 4.33,3.07 0.49,1.44 4.63,1.1 1.15,1.11 0.39,1.23 -1.45,3.03 2.2,-2.84 3.32,3.13 1.75,-0.05 0.11,1.45 3.43,1.57 2.58,-1.07 1.38,-2.03 0.96,0.42 2.23,-2.9 v 0 l 1.61,-1.86 -1.39,-1.21 4.34,-2.71 -0.58,-0.1 0.98,-0.95 -0.84,-0.06 -0.48,-1.81 1.62,0.39 -0.64,-0.93 1.44,-0.07 1.13,-1.55 2.6,-0.15 3.94,-2.6 -0.81,-1.42 -3.69,0.41 -2.02,-2.49 3.39,-3.13 z m -11.32,11.37 -0.33,0.62 v 0 l -2.97,0.56 -1.23,2.31 1.56,2.95 -1.81,0.67 -1.86,-2.74 -1.06,0.72 -3.18,-1.48 -2.25,-2.36 -2.68,-0.46 -0.77,-3.14 3.37,-0.16 -0.21,-1.28 -2.35,-1.37 0.17,-2.21 1.52,-0.7 0.25,-1.64 3.04,-1.35 3.7,-0.21 0.71,4.87 4.49,0.7 -1.37,2.13 4.33,1.42 v 0 z"
     title="Ilfov"
     id="RO-IF" />
  <path
     d="m 410.96,319.89 1.4,4.16 9.04,-0.16 1.36,2.04 2.23,0.84 1.06,-1.43 2.11,-0.15 0.84,-1.57 7.24,3.53 -0.24,-1.25 1.58,-2.13 5.93,3.23 -0.81,3.2 2.32,0.85 0.29,-0.63 2.71,1.05 0.86,-1.93 -2.98,-1.18 0.32,-2.01 3.45,-0.57 v 0 l 0.49,1.86 3.52,2.59 3.09,-5.45 2.73,0.2 -0.34,1.01 2.58,1.5 2.3,-1.27 0.18,0.78 4.52,0.7 1.27,0.09 0.11,-1.04 3.7,-0.05 8.59,1.75 7.75,-1.27 2.79,0.4 0.25,1.16 v 0 l -0.44,3.14 0.75,1.77 3.56,2.53 h 2.03 l 3.33,3.37 0.8,2.12 -1.38,4.1 2.4,5.31 2.66,2.46 1.13,4.11 -4.52,5.85 -1.39,3.57 v 0 l -10.43,-3.56 -1.98,3.72 -1.53,-0.22 -0.69,-1.11 -1,0.94 -1.61,-1.82 0.67,-0.49 -0.83,-1.35 1.34,-1.06 -2.51,-1.97 -4.78,-1.38 -0.34,-3.23 -4.65,-0.73 -0.43,-7.6 -0.78,-0.41 -0.79,0.02 -0.2,1.88 -1.26,-0.15 -0.47,4.2 -8.15,0.19 0.09,-0.85 -2.09,-1.01 -0.45,2.75 -4.13,-0.45 0.03,-1.82 -1.03,-0.16 -0.88,2.23 -2.26,-0.47 0.26,-1.32 -1.1,-0.62 -0.45,2.55 -4.47,-1.5 -0.37,1.64 -2.91,-0.15 -0.06,-2.27 -3.91,0.33 0.12,-2.14 -4.71,0.11 -4.01,1.29 -0.07,-0.91 -3.32,0.78 0.14,-0.9 -0.9,-0.15 -1.55,1.74 -2.18,-0.86 0.27,-2.85 -1.16,-0.09 -0.51,2.33 -2.4,-0.61 -0.88,-0.92 0.26,-2.26 -2.32,-0.82 0.47,-1.29 -0.93,-0.58 -4.52,6.84 -3,-1.08 -1.95,-3.13 -2.19,-1.46 -2.92,3.11 1.97,0.25 -3.27,2.47 v 0 0 0 l -0.77,-0.9 -0.62,1.18 -0.42,-1.38 -1.61,0.39 -1.01,-2.24 2.02,-2.77 -0.52,-0.73 2.32,-2.1 1.34,1.3 1.66,-1.19 0.02,-2.23 -5.03,1.34 -2.45,-4.89 1.95,-1.36 0.01,-1.56 -1.31,-2.56 -2.95,-2.71 v 0 l 2.2,-2.48 0.2,1.36 1.68,-0.34 2.19,1.31 3.87,-3.91 2.37,1.62 2,-1.8 0.97,0.64 1.78,-3.03 z"
     title="Ialomița"
     id="RO-IL" />
  <path
     d="m 462.4,65.77 1.61,0.18 -0.69,1.47 0.94,0.29 -0.08,1.8 1.64,0.62 -0.8,0.53 0.47,0.91 1.01,-0.48 -0.8,1.8 1.18,2.06 1.33,-0.23 0.8,0.99 0.62,-1.19 v 1.56 l 1.39,-0.41 0.13,-0.98 1.38,2.42 0.84,-0.11 -1.3,2.97 2.08,2.31 -1.02,3.25 0.89,-0.42 -0.63,0.86 1.03,0.42 0.46,-0.69 -0.09,2.32 1.36,0.76 -2.16,1.17 1.15,1.03 0.37,-1.1 0.05,1.11 1.01,-0.86 1.58,2.46 0.43,-0.79 1.44,0.78 0.24,-0.93 0.44,2.36 1.31,-0.44 -0.08,-1 1.57,0.48 0.51,1.78 0.7,-0.05 -0.18,1.18 0.88,0.69 -0.95,0.03 0.87,0.65 -0.73,0.81 2.61,2.19 -0.56,1.41 0.82,-0.31 -0.24,1.62 1.03,0.07 -0.38,1.8 1,0.66 -1.74,1.29 0.99,0.77 -1.2,0.07 4.11,0.55 0.44,1.01 -0.71,-0.56 -0.63,1.36 1.91,1.24 0.86,-0.44 1.61,3.25 3.83,1.51 -0.81,0.73 3.21,1.28 0.11,0.9 3.29,0.33 0.34,1.06 -0.83,-0.53 -0.55,0.81 4.24,2.95 -1.2,1.52 1.29,1.48 -1.12,0.96 1.97,1.5 -1.85,1.83 1.91,0.83 0.29,1.41 -1.2,0.72 1.5,1.26 -0.46,1.08 v 0 l -6.51,0.66 -1.4,-0.25 -0.91,-1.53 -2.6,-0.29 -1.12,0.67 1.62,2.93 -1.1,0.15 -5.22,-4.24 -1.81,-0.16 -0.05,-1.73 -4.41,-0.16 -4.78,-7.46 -3.04,-1.98 -1.29,2.52 0.22,3.7 0.9,-0.27 1.03,2.04 -2.91,1.08 -4.84,-0.83 0.59,1.82 -3.03,0.29 -0.18,1.71 -1.19,-1.44 -3.73,0.09 -1.49,-1.33 -3.59,0.88 -0.06,1.05 -1.35,0.66 -0.85,-1.3 -4.79,0.26 -1.54,-1.1 v 0 l -0.81,-2.74 -4.19,-3.37 0.81,-1.38 1.19,0.13 -0.09,-1.06 2.16,-2.63 1.31,1.17 2.44,-1.59 -3.71,-2.55 -0.75,-4.53 -2.36,0.27 -1.19,-1.08 -3.82,0.38 -1.67,4.23 -1.98,-0.23 -1.74,-3.43 -0.79,2.95 -4.64,1.69 -4.48,-0.88 -0.89,-2.54 -3.76,-4.01 -2.6,1.41 -1.62,-1.97 -2.87,2.45 -1.42,-4.76 0.81,-0.71 -1.11,-4.85 -5.52,-5.77 v 0 l 3.13,-3.69 -0.73,-1.78 -2.68,-2.07 -0.8,0.33 -1.25,-5.63 2,-0.88 1.01,2.12 1.99,-0.09 2.72,2.21 4.19,-0.25 -0.64,-0.94 0.72,-1.05 -2.2,-2.04 2.3,-1.31 -0.66,-1.32 0.72,-3.98 v 0 l 1.21,-2.11 2.25,0.05 -0.47,-1.95 1.18,-0.83 6.56,2.49 9.87,0.35 2.8,4.91 1.46,-2.7 1.03,0.37 -0.17,-3.67 1.35,-4.57 2.9,2.37 1.51,-1.45 0.19,1.58 3.66,-0.09 2.54,-0.91 -1,-2.47 0.59,-0.66 1.88,0.67 2.2,-1.68 4.49,-1 v 0 z"
     title="Iași"
     id="RO-IS" />
  <path
     d="m 113.04,342.82 0.33,-0.7 2.35,1.39 2.07,-2.2 1.79,2.44 1.67,-0.41 0.77,1.47 0.86,-0.63 0.99,-4.44 -2.36,-2.01 1.22,-6.98 1.88,-0.23 1,-1.49 -0.51,-2.76 1.03,-2.49 3.76,3.04 8.66,0.42 5.7,-8.94 -0.01,-6.09 1.64,-1.52 -1.63,-1.17 4.37,-3.69 6.71,-8.44 v 0 l 1.73,0.44 1.51,2.89 3.9,1.01 3.83,3.16 1.43,2.88 1.41,-0.05 1.13,1.35 0.33,1.13 -1.66,1.98 2.32,10.98 2.16,1.52 -0.67,1.59 1.05,0.73 0.94,-1.11 0.73,0.35 2.01,3.7 3.89,1.64 0.05,1.66 1.59,1.43 8.95,1.57 5.72,2.49 6.22,3.74 -0.68,1.64 3.47,1.97 v 0 l -0.82,2.51 -1.69,1.46 -1.32,-1.18 -1.35,0.9 -1.25,-0.74 -1.06,1.2 -5.49,-0.15 1.5,2.3 -2.5,0.54 -0.03,0.96 -2.62,1.54 -0.75,3.46 -1.68,-0.11 -0.45,0.87 5.62,3.09 0.17,1.23 -3.26,0.48 -0.75,3.35 -2.99,0.67 -1.68,5.34 -1.63,0.47 -0.11,1.05 2.43,1.27 -1.18,7.56 -4.07,-1.61 -3.73,3.84 -0.7,2.17 v 0 l -3.2,-0.58 -7.32,-4.64 -4.01,-3.8 -4.31,-1.28 0.06,-5.76 -7.82,-2.61 -2.32,-3.37 -1.49,-6.77 -2.53,-2.91 0.34,-2.32 3.43,0.6 1.91,-0.9 1.07,-4.79 1.32,-1.4 2.75,0.05 4.37,2.98 4.04,-1.89 -0.19,-2.44 -2.97,-3.56 -2.35,-1.41 -4.46,-0.18 -8.37,-8.57 -1.18,-0.23 -2.57,1.08 -1.69,2.16 -3.28,0.32 -1.74,1.17 -2.44,3.57 -5.86,13.12 -2.43,0.89 -4.42,-2.41 -0.7,-2.78 -2.1,-1.41 -0.69,-4.48 z"
     title="Mehedinți"
     id="RO-MH" />
  <path
     d="m 214.01,25.08 3.16,-0.46 3.36,2.33 7.25,-1.03 2.87,1.6 1.57,3.63 1.21,0.76 1.06,-0.94 3.84,-0.5 0.72,-1.47 3.61,-0.42 1.53,1.72 1.91,-0.32 2.13,1.45 1.12,2.17 5.18,-0.31 2.36,2 6.22,-2.81 1.62,1.09 2.08,-1.12 0.75,-2.6 2.7,-1.58 4.89,1.82 4.03,-1.63 1.73,2.16 1.82,-0.38 0.58,2.44 2.39,2.74 -0.12,3 1.98,1.06 0.21,1.21 1.96,-0.22 1.07,1.27 0.92,-0.86 1.11,1.37 2.87,0.47 -0.43,1.36 0.93,2.43 2.66,2.62 0.45,2.81 3.92,-0.5 v 0 l 0.4,2.67 1.93,0.65 5.02,4.66 -0.42,0.82 -2.83,0.61 -3.89,3.56 v 0 l -3.38,-0.61 -2.16,0.92 -1.03,-1.13 -2.17,1.01 -0.37,2.07 -5.49,-0.24 -3.22,1.76 -2.97,-1.47 -4.65,0.75 -6.42,-3.02 -4.57,-0.96 -1.91,3.21 -3.49,-0.31 -1.62,4.61 -1.77,1 -0.52,1.57 -2.84,-0.69 -4.57,0.67 -1.32,7.01 -2.18,1.59 -0.97,2.9 -1.65,0.47 -0.73,1.26 v 0 l -1.44,-0.63 -6.15,1.28 -1.29,-1.49 -1.84,0.04 -1.5,2.04 0.68,1.21 v 0 l -2.4,-0.95 -2.98,1.24 -3.16,-0.07 0.16,-1.79 -1.75,-0.14 -0.86,-2.15 -1.61,-0.89 -5.54,1.88 -8.19,-1.4 -2.28,-1.41 -3.23,-0.33 -0.15,-1.28 -1.44,0.1 -0.77,-1.43 -5.98,-1 -0.08,-0.96 -2.61,-0.94 -5.33,2.89 v 0 l -1.35,-1.67 -3.88,1.72 -3.26,-1.34 -0.16,-4.54 2,0.49 0.96,-1.04 2.26,0.27 0.49,-6.22 5.81,-6.71 2.82,4.02 2.29,0.62 2.11,2.03 1.95,-0.06 0.79,-8.53 2.39,-0.38 3.8,-3.48 -0.64,-0.67 -0.81,0.56 -1.79,-2.62 -2.25,-0.04 -0.88,-1.42 -3.35,0.37 -0.46,-2.53 1.88,-4.26 1.28,-0.31 4.38,1.92 1.87,-0.47 4.72,1.97 1.82,-1.9 5.17,-2.19 2.25,-4.25 1.22,0.39 1.99,-2.07 -1.1,-2.46 -2.25,-0.94 -1.78,-4.08 -1.43,0.09 -2.82,-2.44 v 0 l 1.86,-4.9 z"
     title="Maramureș"
     id="RO-MM" />
  <path
     d="m 311.21,108.05 1.8,1.62 2.96,0.23 2.06,-1.16 4.17,3.93 v 0 l -0.32,2.8 2.53,2.75 0.75,9.03 -1.9,8.88 1.99,0.94 0.1,3.1 1.55,1.16 -1.68,7.41 0.6,2.25 -3.71,2.69 -5.51,7.68 -4.22,-0.08 -1.34,1.98 -2.79,1.3 -0.64,2.29 -1.75,1.08 -0.36,1.37 0.75,1.56 0.81,-2.1 1.76,0.74 -1.76,3.02 -4.23,2.91 2.28,4.1 -2.33,1.23 -2.06,-1.42 -0.88,0.61 -2.54,-0.64 -0.85,0.94 1.19,3.4 1.53,0.25 -1.75,2.34 1.18,2.15 1.3,-0.48 2.23,1.43 0.34,2.16 1.04,0.43 7.7,0.11 0.64,1.18 1.68,-0.02 1.59,4.15 2.82,2.04 v 0 l -1.4,0.84 -0.63,1.86 -2.77,-1.22 -2.53,1.08 -2.84,-0.68 -3.93,3.49 -0.75,2.75 v 0 l -1.71,-0.23 -1.92,-2.56 -5.33,1.56 -1.81,-0.84 -0.58,1.38 -2.45,-0.16 -0.9,1 -1.95,-0.93 -0.85,-1.38 0.8,-8.52 -0.08,-2.19 -1.24,-1.73 0.82,-1.13 -0.54,-3.2 -1.72,0.51 -1.21,2.28 -1.66,0.41 -2.21,-1.27 -4.31,1.72 -0.68,-1.33 -3.99,-0.45 -3,1.81 -4.83,-1.11 -2.3,0.08 -0.91,1.05 v 0 l -2.17,-1.87 -1.4,0.2 v -1.47 l -3.41,-1.79 -0.86,-3.46 -3.4,-0.02 -4.67,-3.37 -0.65,-1.46 1.56,-1.65 1.02,-5.16 -1.23,0.14 -1.38,2.16 -1.58,-0.07 -0.73,-2.16 v 0 l -0.28,-5.75 2.06,-2.3 2.51,0.76 0.09,-2.09 2.5,-4.75 -3.13,-0.92 v -1.22 l 2.7,-2.62 2.55,-0.32 1.12,-2.63 0.13,-1.15 -2.8,-1.4 -0.89,-1.95 8,-5.22 -0.45,-0.96 v 0 l 7.42,4.67 3.79,-0.78 0.92,0.96 3.56,-2.35 1.9,0.89 1.1,-5.81 2.28,-1 -0.11,-1.23 1.39,-0.12 0.56,-4.9 1.75,0.15 -0.44,-0.99 1.87,-0.1 0.73,-2.45 1.62,-0.06 0.2,-1.08 2.02,3.76 3.15,1.19 1.58,-0.35 0.15,-1.31 0.94,-0.18 -1.42,-1.18 1.12,-4.22 1.93,-1.87 1.28,-4.28 2.1,-2.75 3.99,-3.12 3.37,0.12 1.19,-1.48 4.53,0.48 z"
     title="Mureș"
     id="RO-MS" />
  <path
     d="m 349.45,112.82 0.48,-2.87 1.84,-2.21 0.21,-2.47 1.51,-0.73 -0.48,-2.18 1.42,-1.69 4.36,-0.37 1.68,-2.96 -4.2,-6.3 0.62,-0.61 4.03,0.88 3.88,4.78 1.07,0.18 1.33,-1.56 2.92,-1.06 5.87,1.09 3,-1.74 4.26,0.46 0.64,-1.03 3.89,2.08 1.17,-1.84 2.07,0.32 6.69,-4.21 2.27,1.02 0.81,2.49 4.97,4.5 v 0 l 5.52,5.77 1.11,4.85 -0.81,0.71 1.42,4.76 2.87,-2.45 1.62,1.97 2.6,-1.41 3.76,4.01 0.89,2.54 4.48,0.88 4.64,-1.69 0.79,-2.95 1.74,3.43 1.98,0.23 1.67,-4.23 3.82,-0.38 1.19,1.08 2.36,-0.27 0.75,4.53 3.71,2.55 -2.44,1.59 -1.31,-1.17 -2.16,2.63 0.09,1.06 -1.19,-0.13 -0.81,1.38 4.19,3.37 0.81,2.74 v 0 l -0.69,0.88 1.9,2.22 0.24,2.99 -0.29,4.5 -1.3,0.94 v 0 l -1.32,0.19 -1.6,2.17 -0.32,-1.66 -1.82,0.36 -1.52,-2.3 -2.06,1.32 -1.1,-1.2 -6.31,1.49 -0.69,-2.7 -0.94,0.9 -0.48,-1.73 -1.34,-0.35 0.96,-0.11 0.48,-2.02 -2.96,-0.99 -0.04,1.97 -1.12,0.71 -0.32,2.26 -1.9,1.35 -0.63,2.7 -1.98,0.59 -2.47,-4.86 -0.49,1.48 -3.2,-0.3 -0.76,3.37 -4.49,2.76 -2.71,3.2 -2.02,-2.27 -1.48,-0.2 -1.15,1.35 -3.51,0.1 -5.61,3.48 -3.35,-1.21 -1.97,-4.53 -1.89,1.14 -1.57,3.5 -3.61,1.1 -1.01,-1.61 -2.56,1.07 -1.45,-0.9 -0.5,-4.41 -4.62,0.22 -1.35,1.15 v 0 l -5.55,-0.87 -0.51,1.03 1.57,3.15 -2.59,0.37 -4.9,-5.88 -0.35,-0.97 1.91,-2.49 v -2.57 l -0.55,-4.12 -2.81,-1.75 1.01,-2.34 -1.25,-1.67 2.63,-4.1 1.62,0.34 1.22,-2.77 1.38,-0.22 -1.49,-2.02 -1.64,-0.08 -1.05,1.13 -2.19,-4.79 0.35,-1.31 -2.58,-3.95 z"
     title="Neamț"
     id="RO-NT" />
  <path
     d="m 237.4,349.78 4.76,-0.63 1.76,0.63 -0.16,1.06 1.01,-0.67 -0.29,1.48 1.23,1.27 2,0.04 3.33,-6.14 2.35,-0.49 1.43,1.23 2.52,-0.3 0.32,-1.87 2.94,-0.25 -0.21,-1.85 2.94,2.05 -1.17,-8.25 -2.44,-2.93 0.43,-4.87 0.74,-2.16 1.43,-0.18 0.05,-4.92 1.82,-1.47 -0.54,-1.72 3.72,-1.38 0.95,-1.2 1.13,0.72 0.34,3.75 v 0 l 0.77,0.72 -0.8,1.82 4.13,-0.31 -0.08,-2.33 2.15,-4 1.26,0.08 -0.02,3.22 1.93,5.2 0.93,0.27 0.33,3.93 2,2.11 5.37,-0.24 -0.08,2.19 -1.22,1.44 2.79,7.85 -0.88,1.95 0.9,1.32 0.29,3.8 -0.79,3.14 0.9,3.01 -0.2,4.73 1.39,1.96 3.22,-0.06 0.44,0.83 v 0 l 1.3,4.35 1.18,1.14 -1.25,0.8 -0.2,6.52 -0.66,0.45 1.45,0.6 -2.83,3.18 0.6,2.88 2.53,2.32 0.67,3.29 -8.87,3.16 0.77,1.8 -4.19,0.79 -5.01,2.48 1.56,3.28 1.32,0.33 0.2,1.62 0.92,0.33 -0.97,0.76 1.6,1.95 0.21,1.82 4.1,5.03 -2.5,1.26 4.6,0.23 -2.06,1.13 v 1.6 l -1.97,0.45 -0.6,2.11 -1.89,0.61 -0.26,2.47 v 0 l -3.81,-2.38 -5.86,-1.01 -6.32,2.4 -4.17,3.47 -10,1.28 -2.64,-0.65 v 0 l -2.1,-1.86 1.1,-6.53 5.22,-6.65 1.4,-6.2 -0.62,-0.44 0.65,-0.9 -1.53,-1.38 0.35,-0.9 1.13,0.31 -0.64,-1 0.58,-1.66 -2.41,-2.32 2.72,-13.58 -1.42,-0.27 0.96,-3.42 -0.67,0.03 -0.65,-2.17 -1.64,0.31 -2.12,-2.59 -2.91,-1.04 -0.13,-1.76 -4.44,-5.26 0.55,-1.32 -5.35,-1.5 0.88,-2.35 -1.42,-0.62 -1.07,1.19 -3.15,-3.06 0.5,-2.04 -1.99,-0.91 2.47,-2.5 -0.71,-1.23 z"
     title="Olt"
     id="RO-OT" />
  <path
     d="m 335.89,266.59 0.85,-1.31 2.47,-0.97 5.72,0.41 1.03,-1.38 2.57,-0.89 5.06,1.43 0.29,0.89 3.92,-1.63 1.47,1.2 1.11,3.09 2.46,0.68 1.3,-1.93 0.85,-4.81 1.45,-1.58 4.7,0.05 3.23,3.21 v 0 l 0.65,0.55 -0.35,3.48 3.86,2.54 2.31,4.05 3.24,1.03 2.37,2.86 -0.09,1.42 -1.35,0.84 0.11,1.68 1.02,0.19 2.54,6.63 2.77,0.24 1.67,-1.53 1.58,0.34 -0.86,1.74 1.38,3.14 4.55,-2.28 2.33,2.91 -1.32,4.06 0.92,0.91 -1.21,2.55 0.86,-0.12 2.56,7.69 2.24,-1.09 1.65,3.24 1,-0.59 -0.1,2.55 -3.73,2.26 5.99,5.55 v 0 l -2.65,1.76 -1.78,3.03 -0.97,-0.64 -2,1.8 -2.37,-1.62 -3.87,3.91 -2.19,-1.31 -1.68,0.34 -0.2,-1.36 -2.2,2.48 v 0 l -2.34,0.91 -0.82,1.76 -4.42,-1.93 -0.79,0.73 -2.2,-0.87 -0.81,0.83 -2.16,-1.34 0.34,2.24 v 0 0 0 l -1.68,-1.05 -1.47,1.53 -0.11,-0.68 v 0 0 0 l -3.03,0.46 -1.18,-0.65 -1.24,0.45 0.53,1.63 v 0 l -1.08,-0.04 -1.53,2.03 -1.17,-2.06 2.61,-2.36 -5.13,-7.38 -2.45,0.98 -3.05,-3.18 1.63,-1.95 -0.69,-2.13 1.08,-1.07 -2.75,-3.48 -1.9,0.45 -0.93,-1.59 -2.23,-0.35 -1.12,0.84 -0.35,-10.88 -4,-3.2 -1.21,-3.54 -2.05,-1.31 -0.24,-2.09 -2.06,-0.16 -0.57,-3.16 0.79,-3.13 1.36,-1.13 -0.18,-1.56 -1.49,-2.06 -4.13,-2.36 1.01,-5.27 -0.76,-3.26 z"
     title="Prahova"
     id="RO-PH" />
  <path
     d="m 258.53,192.28 0.91,-1.05 2.3,-0.08 4.83,1.11 3,-1.81 3.99,0.45 0.68,1.33 4.31,-1.72 2.21,1.27 1.66,-0.41 1.21,-2.28 1.72,-0.51 0.54,3.2 -0.82,1.13 1.24,1.73 0.08,2.19 -0.8,8.52 0.85,1.38 1.95,0.93 0.9,-1 2.45,0.16 0.58,-1.38 1.81,0.84 5.33,-1.56 1.92,2.56 1.71,0.23 v 0 l 0.2,1.18 -3.58,2.02 -1.6,3.22 -2,0.43 0.15,2.54 -4.27,0.4 -1.03,3.83 -2.3,-1.12 -1.18,0.59 1.07,3.98 3.73,3.2 -0.29,2.08 -5.3,0.42 -3.76,2.96 3.08,8.46 0.59,10.06 v 0 l -1.01,0.65 -3.62,-0.46 -3.33,1.95 -3.94,-0.53 -1.02,1.04 v 0 l -2.72,-1.37 -0.92,0.76 -5.41,-0.47 -2.76,1.63 -1.21,-0.32 -1.78,2.65 -1.82,0.04 -1.78,1.71 -5.56,0.13 -2.19,1.21 -4.13,-2.1 -6.33,-0.2 -3.24,0.99 -1.31,-1.07 -3.63,0.32 -3.34,2.64 -2.46,0.34 -2.61,3.16 -2.27,0.54 -0.01,-0.63 v 0 l 1.78,-0.54 -0.4,-4.41 -0.96,-2.58 -1.65,-1.48 0.68,-2.12 1.8,-1.26 -0.88,-1.19 0.71,-2.22 -3.72,-3.3 -0.17,-2.6 0.69,-2.11 2.59,-1.03 0.94,-1.87 1.37,-0.43 -2.83,-2.33 0.78,-1.72 3.69,-2.08 1.88,0.39 1.34,-5.93 -1.19,-0.97 0.73,-1.44 -0.61,-0.55 5.36,-0.71 1.39,-2.33 1.88,-1.12 -0.49,-1.81 0.73,-1.93 -1.31,-0.86 2.73,-2.98 4.64,0.01 2.52,4.04 0.06,-1.45 2.59,-1.57 -0.45,-1.9 1.76,-2.35 -0.38,-0.88 2.02,-1.32 1.68,-2.96 2.28,-0.17 3.98,-2.01 0.22,-0.87 -1.76,-1.42 1.08,-2.63 -0.56,-0.84 z"
     title="Sibiu"
     id="RO-SB" />
  <path
     d="m 183.7,80.6 5.33,-2.89 2.61,0.94 0.08,0.96 5.98,1 0.77,1.43 1.44,-0.1 0.15,1.28 3.23,0.33 2.28,1.41 8.19,1.4 5.54,-1.88 1.61,0.89 0.86,2.15 1.75,0.14 -0.16,1.79 3.16,0.07 2.98,-1.24 2.4,0.95 v 0 l -2.92,5.2 1.42,3.66 -4.19,-2.88 -0.72,2.03 -1.13,0.55 -0.48,-0.85 -4.25,3.22 -1.65,2.53 0.37,1.29 -1.94,1.52 -2.71,-1.56 -0.92,2.37 -3.79,0.36 1.01,2.95 -0.11,0.97 -1.49,0.25 0.3,1.77 -3.54,0.09 2.77,3.19 0.78,2.86 -1.03,0.29 0.28,0.91 -1.91,2.23 -2.56,-0.14 -0.4,0.74 0.82,0.16 -1.9,0.73 0.13,0.9 -0.88,0.21 0.77,1.58 -3.01,3.48 -0.8,-0.36 -1.43,1.03 -1.12,-1.04 -1.31,0.23 -2.07,-4.7 -1.34,0.83 0.49,5.63 -1.36,2.12 -2.67,-0.28 -3.5,1.78 -1.77,-0.7 1.05,-2.81 -1.71,-1.35 -1.61,2.2 -0.54,-2 -1.2,1.2 -0.69,-1.59 -2.36,0.51 -1.8,-1.14 -0.97,-2.15 -1.55,-0.69 -0.1,-2.9 0.8,-1.08 -2.05,-0.53 -1.31,-1.86 -4.67,0.92 -4.08,-0.56 v 0 l -0.23,-3.42 -1.57,0.44 -0.69,-1.17 -3.38,-0.44 -1.66,-2.74 -2.1,0.5 -1.55,-3.28 0.76,-1.11 -1.69,-1.68 -0.45,-2.74 -1.62,-0.06 -0.73,-0.97 1.2,-1.09 0.56,-3.34 1.6,-0.99 0.46,-7.16 3.57,-1.49 0.01,-1.76 v 0 l 1.03,0.16 1.43,-2.65 2.26,-0.28 2.1,-2.6 5.32,-0.87 1.28,1.31 2.16,-2.21 3.15,1.78 1.8,-0.41 -0.56,1.93 1.39,0.05 1.28,2.56 1.31,0.71 2.37,-1.12 2.77,0.9 3.54,-4.17 z"
     title="Sălaj"
     id="RO-SJ" />
  <path
     d="m 188.2,13.78 1.58,2.19 3.51,0.48 1.32,-0.69 1.59,2.61 -0.7,1.73 3.6,1.66 -0.23,1.7 4.35,1.77 0.99,1.32 1.26,-0.15 1.1,1.31 3.17,0.72 v 0 l 2.82,2.44 1.43,-0.09 1.78,4.08 2.25,0.94 1.1,2.46 -1.99,2.07 -1.22,-0.39 -2.25,4.25 -5.17,2.19 -1.82,1.9 -4.72,-1.97 -1.87,0.47 -4.38,-1.92 -1.28,0.31 -1.88,4.26 0.46,2.53 3.35,-0.37 0.88,1.42 2.25,0.04 1.79,2.62 0.81,-0.56 0.64,0.67 -3.8,3.48 -2.39,0.38 -0.79,8.53 -1.95,0.06 -2.11,-2.03 -2.29,-0.62 -2.82,-4.02 -5.81,6.71 -0.49,6.22 -2.26,-0.27 -0.96,1.04 -2,-0.49 0.16,4.54 3.26,1.34 3.88,-1.72 1.35,1.67 v 0 l 0.77,2.54 -3.54,4.17 -2.77,-0.9 -2.37,1.12 -1.31,-0.71 -1.28,-2.56 -1.39,-0.05 0.56,-1.93 -1.8,0.41 -3.15,-1.78 -2.16,2.21 -1.28,-1.31 -5.32,0.87 -2.1,2.6 -2.26,0.28 -1.43,2.65 -1.03,-0.16 v 0 l -2.38,-2.36 -0.6,-2.28 -1.96,-0.25 -0.83,-2.35 -2.24,-1.11 -3.35,1.44 -1.58,-1.31 -3.13,0.62 -1.54,-5.04 0.93,-0.77 -3.87,-1.8 0.01,-3.12 -2.21,-0.05 0.31,-2.33 -1.34,-0.44 -1.01,-2.78 -2.45,-1.17 v 0 l 2.61,-7.77 1.98,-0.8 0.39,-3.04 3.38,-1.2 0.04,-2.3 2.48,1.69 4.83,0.8 1.2,-6 2.17,-0.67 4.37,3.68 3.93,0.04 4.54,-1.52 2.05,-4.53 4.11,-0.71 -1.19,-4.78 2.26,0.13 3.36,-1.68 2.73,-4.11 4.21,-1.55 -0.66,-3.02 -1.2,-0.8 0.56,-1.21 2.83,0.72 2.79,2.05 1.16,-1.35 3.8,-0.19 1.03,-2.87 -0.19,-2.99 1.17,-1.1 -0.59,-0.93 z"
     title="Satu Mare"
     id="RO-SM" />
  <path
     d="m 376.94,26.94 2.76,5.07 3.73,1.25 0.1,2.68 0.89,0.85 1.93,-1.6 2.73,2.25 0.71,2.02 0.78,-0.66 1.04,1.42 -0.53,1.31 1.5,0.41 -0.38,1.6 3.54,4.3 2.07,0.95 -1.02,1.46 0.37,1.08 1.51,0.68 -0.09,0.78 1.93,-0.04 0.67,2.45 0.67,-0.48 -0.16,0.82 1.35,0.58 -0.18,1.81 4.09,2.11 -0.75,0.41 1.11,2.82 -0.94,1.02 0.26,1.49 1.14,0.38 1.17,4.14 1.71,0.3 -0.05,1.1 -3.3,1.25 2.52,1.63 0.1,3.06 5.66,-1.22 v 0 l -0.72,3.98 0.66,1.32 -2.3,1.31 2.2,2.04 -0.72,1.05 0.64,0.94 -4.19,0.25 -2.72,-2.21 -1.99,0.09 -1.01,-2.12 -2,0.88 1.25,5.63 0.8,-0.33 2.68,2.07 0.73,1.78 -3.13,3.69 v 0 l -4.97,-4.5 -0.81,-2.49 -2.27,-1.02 -6.69,4.21 -2.07,-0.32 -1.17,1.84 -3.89,-2.08 -0.64,1.03 -4.26,-0.46 -3,1.74 -5.87,-1.09 -2.92,1.06 -1.33,1.56 -1.07,-0.18 -3.88,-4.78 -4.03,-0.88 -0.62,0.61 4.2,6.3 -1.68,2.96 -4.36,0.37 -1.42,1.69 0.48,2.18 -1.51,0.73 -0.21,2.47 -1.84,2.21 -0.48,2.87 v 0 l -2.31,-0.6 -1.4,1.79 -4.35,-0.76 -0.35,-2.64 -4.11,-2.21 -3.17,0.9 -1.34,3.19 -5.57,-2.77 -4.65,2.95 v 0 l -4.17,-3.93 -2.06,1.16 -2.96,-0.23 -1.8,-1.62 v 0 l -0.6,-5.87 -1.26,-0.84 1.29,-5.2 -1.54,-2.69 2.69,-2.26 -1.01,-3.85 0.42,-1.56 -1.83,-0.76 -2.12,-2.86 0.03,-1.34 0.73,-1.23 1.09,0.91 1.6,-0.58 0.49,-2.17 -1.34,-1.24 2.85,-2.48 -3.11,-2.05 -1.78,-2.87 0.65,-1.52 -3.74,-3.07 -1.28,-0.11 v 0 l 3.89,-3.56 2.83,-0.61 0.42,-0.82 -5.02,-4.66 -1.93,-0.65 -0.4,-2.67 v 0 l 3.48,0.34 0.68,-0.86 2.05,0.86 0.98,-2.08 0.86,0.5 3.15,-1.25 1.05,-2.39 2.16,-1.16 0.09,-1.7 3.48,-4.78 0.66,-3.17 2.5,-0.09 2.8,-2.06 21.62,-3.39 8.25,1.03 5.54,-2.94 1.95,0.89 1.63,-1.6 2.38,0.62 7.22,-1.69 z"
     title="Suceava"
     id="RO-SV" />
  <path
     d="m 601.69,326.32 -1.9,0.53 3.1,-1.81 z m 1.56,-1.62 2.04,-3.39 0.1,-3.3 0.11,3.24 z m -83.54,-56.91 -0.26,2.67 4.25,7.03 13.85,6.62 4.97,0.49 4.62,1.75 5.24,-1.64 -2.62,-3.7 3.3,-1.82 -1.11,-2.59 2.21,-0.46 7.88,5.11 1.61,-4.71 12.05,-5.28 5.69,-4.13 3.21,0.54 2.23,-1.95 1.85,1.04 4.97,-0.55 7.75,3.11 3.21,2.2 3.74,4.74 1.35,5.78 -1.09,2.48 1.42,3.12 -3.38,-0.5 0.03,-0.79 0.08,3.14 1.17,2.71 1.98,0.44 2.07,-0.78 -2.1,1.76 -1.57,4.33 -2.34,19.49 -1.37,-0.03 0.54,3.7 -3.71,2.09 -13.24,1.43 -0.72,-0.86 -1.72,0.55 1.54,0.43 -12.17,2.8 -4.2,2.55 -4.64,5.07 -1.51,-1.79 -0.89,-3.29 3.38,-0.2 6.56,-3.34 1.48,-3.27 -3.5,-4.75 -0.56,1.23 0.96,1.96 -1.96,1.21 -1.65,-2.54 -0.33,-7.17 0.43,-1.02 3.49,-1.27 0.13,-1.98 -3.77,-1.97 -2.02,-0.02 -0.34,-1.57 -3,0.36 0.37,1.9 -1.03,0.82 -1.18,0.06 0.87,-1.94 -1.21,1.19 -0.32,-0.94 -0.2,1.67 -1.72,-3.72 1.08,3.78 -3.02,2.2 -0.6,4.27 0.52,2.81 5.93,5.09 -2.78,1.9 1.08,0.31 -0.79,1.84 1.79,2.15 -4.13,0.81 0.89,-1.01 -4.1,2.72 -2.85,0.82 1.48,-1.09 -1.42,0.25 -0.67,1.77 -2.23,-0.51 -1.67,-1.66 0.6,1.89 3.65,0.53 -0.74,1.07 2.47,0.58 -1.96,1.17 v 0 l -1.47,0.33 -1.32,-1.81 -1.86,0.45 0.13,1.91 -10.47,0.29 -0.23,1.82 -3.28,0.71 -0.83,-2.63 -1.35,0.19 -0.19,0.93 -1.78,-0.3 -0.25,0.84 -1.92,-0.45 0.68,-2 -4.2,-0.54 -0.65,-1.39 -4.58,-2.33 0.11,-4.07 -2.53,-0.07 -1.26,1.06 -1.32,-0.87 0.78,-1.55 -2.54,-1.76 -2.51,0.64 -2.66,-0.81 v 0 l 1.73,-5.61 2.66,-2.43 -1.18,-2.06 1.77,-5.47 -1.48,-3.77 1.57,-1.94 -1.08,-5.97 2.59,-0.02 -0.38,-1.99 1.79,-1.21 -6.81,-4.92 2.47,-4.06 -0.96,-2.2 -1.32,0.77 -2.42,-0.45 -3.99,-3.11 1.94,-6.51 0.12,-4.1 v 0 l 4.36,-3.37 2.69,0.37 3.35,2.12 0.5,-3.36 1.37,-1.51 v 0 l 3.67,1.23 z"
     title="Tulcea"
     id="RO-TL" />
  <path
     d="m 21.7,200.97 2.71,2.09 1.08,-2.27 1.36,0.68 1.25,-1.39 v 0 l 1.18,0.13 0.76,1.41 2.87,0.02 0.52,1.72 3.45,3.28 5.46,1.4 1.65,3.31 2.62,-0.55 2.77,1.31 2.79,-0.9 1,3.76 1.64,1.89 2.05,-1.48 0.38,-1.71 1.01,-0.07 1.79,2.55 3.67,1.54 1.09,-2.84 2.13,-0.55 -0.43,-1.21 2.73,1.57 0.9,2.32 0.88,-0.05 0.92,-2.33 3.93,-1.84 4.37,-4.2 1.64,2.35 -0.26,2.94 7.22,3.53 -0.07,2.46 1.79,0.98 0.53,2.79 1.43,-0.78 0.11,-1.99 2.07,-2.95 0.75,1.85 2.39,0.26 -0.01,1.1 1.44,0.2 2.07,-2.69 1.17,1.1 1.54,-1.37 1.45,1.04 1.66,-1.23 0.79,-2.05 4.53,-1.05 0.32,2.35 7.97,3.36 0.24,1.78 2.66,-0.98 2.8,1.16 1.6,-3.28 3.96,1.65 1.14,-3.62 1.22,-0.07 0.66,2.62 3.93,2.4 v 0 l -0.15,1.36 -1.95,1.64 2.43,3.37 1.42,-0.44 2.61,1.81 0.3,4.45 1.23,0.37 1.57,-1.09 1.47,1.62 -1.87,3.61 -3.05,0.81 -0.31,2.41 -2.56,3.41 v 0 l -1.52,1.53 -0.81,-1.06 -3.07,1.12 -1.55,-1.09 -3.32,7.31 -6.88,-4.27 -1.66,3.06 -2.04,0.42 -2.03,1.87 -0.67,-0.8 -1.15,0.74 0.64,5.42 -1.77,2.34 -3.47,0.09 -2.2,-0.95 0.93,-2.14 -0.85,-1.34 -2.55,0.7 -0.65,-0.77 1.06,-2.56 -2.38,0.45 -0.11,2.23 -2.53,-0.44 -4.51,0.88 -1.23,-2.18 -2.52,-0.73 -0.85,-1.72 -6.14,1.16 -1.98,5.74 -6.8,2.72 0.72,3.99 1.3,-0.34 1.1,1.29 -4.22,0.89 0.52,2.83 1.79,2.54 2.1,1.03 0.64,2.28 2.01,2.15 -0.07,2.04 -1.19,0.72 -1.52,4.23 0.38,1.46 -2.22,0.99 v 0 l -3.09,-1.29 -1.85,-2.25 -0.84,0.94 -6.61,-2.23 -1.09,1.16 -3.65,-1.92 -2.79,-6.82 -0.89,-0.04 -1.02,1.77 -3.09,0.84 -1.02,-1.94 -1.27,0.08 0.09,-1.39 -2.92,0.67 -0.39,-1.56 -3.26,-2.27 -0.77,-1.73 -1.11,-0.09 -0.71,-2.74 -3.67,-1.35 1.14,-1.26 -0.89,-1.71 -2.22,-1.4 -4.04,-0.01 -0.14,-1.83 4.14,-3.28 -2.44,-4.8 -1.47,0.49 -0.42,-2.74 2.55,-4.08 -0.14,-7.41 1.33,-3.54 -2.57,-1.01 -0.6,2.94 -4.8,0.35 -1.04,-4.34 -1.35,0.31 -0.79,-1.61 0.62,-1.62 -3.16,-3.24 -1.96,-0.5 -0.79,-3.82 -3.47,1.69 -2.1,-5.73 -2.33,-1.59 -2.7,0.47 -3.84,-3.22 0.63,-0.66 -0.9,-3.93 -5.01,-5.51 1.14,-0.75 -1.27,-0.49 1.66,-2.35 4.27,-2.22 0.84,1.8 0.88,-0.85 5.39,1.3 2.01,-2.28 0.29,-2.06 z"
     title="Timiș"
     id="RO-TM" />
  <path
     d="m 320.59,357.32 2.44,3.18 3.39,-1.04 -0.29,-0.58 4.43,-4.05 -1.1,-3.77 2.81,-0.28 1.6,1.14 1.19,-0.22 1.09,0.71 -1.17,1.77 1.51,0.87 v 0 l 1.4,1.86 -1.08,2.3 3.11,2.25 -1.76,1.92 0.61,0.77 -1.4,1.82 -0.24,2.38 6.68,1.32 1.2,-0.59 2.44,1.18 -0.57,1.28 1.82,1.18 0.52,-1.66 0.79,0.25 0.08,2.09 1.62,1.27 -1.97,4.11 -0.56,3.91 3.77,3.29 -1.73,0.57 -0.77,2.33 -1,-1.87 -0.26,1.69 -0.94,-0.46 -1.56,2.53 0.91,2.17 -2.27,0.6 0.58,5.97 0.84,1.03 -0.81,0.47 1.24,1.96 -0.46,5 -1.19,0.92 1.51,2.3 -0.19,1.5 2.14,0.79 1.24,11.71 v 0 l -7.28,4.09 -4.83,0.08 -6.53,2.15 -2.46,-0.73 -5.63,-4.81 -4.8,-1.55 -4.91,1.29 -2.86,-0.58 -4.43,-3.32 -3.67,0.08 -4.17,2 -4.4,-0.49 -4.53,2.35 -5.46,-3.65 v 0 l 0.26,-2.47 1.89,-0.61 0.6,-2.11 1.97,-0.45 v -1.6 l 2.06,-1.13 -4.6,-0.23 2.5,-1.26 -4.1,-5.03 -0.21,-1.82 -1.6,-1.95 0.97,-0.76 -0.92,-0.33 -0.2,-1.62 -1.32,-0.33 -1.56,-3.28 5.01,-2.48 4.19,-0.79 -0.77,-1.8 8.87,-3.16 -0.67,-3.29 -2.53,-2.32 -0.6,-2.88 2.83,-3.18 -1.45,-0.6 0.66,-0.45 0.2,-6.52 1.25,-0.8 -1.18,-1.14 -1.3,-4.35 v 0 l 1.78,-0.64 1.13,1.11 6.85,-0.51 2.23,-2.22 4.9,0.34 z"
     title="Teleorman"
     id="RO-TR" />
  <path
     d="m 218.2,264.37 0.01,0.63 2.27,-0.54 2.61,-3.16 2.46,-0.34 3.34,-2.64 3.63,-0.32 1.31,1.07 3.24,-0.99 6.33,0.2 4.13,2.1 2.19,-1.21 5.56,-0.13 1.78,-1.71 1.82,-0.04 1.78,-2.65 1.21,0.32 2.76,-1.63 5.41,0.47 0.92,-0.76 2.72,1.37 v 0 l 0.22,3.81 -3.63,5.76 2.03,8.22 1.65,0.93 -0.33,2.86 -1.02,0.83 1.17,0.22 0.57,2.75 -2.07,6.12 3.41,4.48 -0.2,1.7 -1.02,0.67 1.23,1.9 -0.56,2.29 -1.51,-0.09 -0.06,1.37 0.97,-0.03 0.44,1.09 -1.6,1.48 1.83,1.77 -1.28,3.64 0.71,1.16 -2.4,4.41 1.3,-0.13 -1.39,3.36 0.66,1.37 -3.01,4.38 v 0 l -0.34,-3.75 -1.13,-0.72 -0.95,1.2 -3.72,1.38 0.54,1.72 -1.82,1.47 -0.05,4.92 -1.43,0.18 -0.74,2.16 -0.43,4.87 2.44,2.93 1.17,8.25 -2.94,-2.05 0.21,1.85 -2.94,0.25 -0.32,1.87 -2.52,0.3 -1.43,-1.23 -2.35,0.49 -3.33,6.14 -2,-0.04 -1.23,-1.27 0.29,-1.48 -1.01,0.67 0.16,-1.06 -1.76,-0.63 -4.76,0.63 v 0 l -0.99,-4.41 -1.29,-0.71 0.43,-3.45 -5.49,-1.4 -1,-1.04 -0.74,1.65 -0.52,-2.55 -0.93,-0.48 0.59,-2.11 -0.72,-1.84 v 0 l 1.21,-3.29 -0.46,-5.98 1.41,-1.84 -1.37,-3.31 -1.28,-0.14 0.89,-7.32 -0.95,-3.76 0.12,-1.08 1.74,-0.98 2.13,-5.33 -0.12,-5.02 2.64,-1.77 -3.83,-10.27 3.15,-6.34 -3.5,-2.08 -4.22,2.24 -2.7,-0.41 -2.81,-1.87 v 0 l -1.2,1.54 v 0 l -2.13,-1.73 v 0 l 0.76,-3.18 -0.58,-3.1 -1.12,-0.42 1.35,-4.02 v 0 z"
     title="Vâlcea"
     id="RO-VL" />
  <path
     d="m 399.87,210.84 8.27,1.9 5.74,-5.13 5.08,-1.49 5.55,2.24 3.54,-1.32 3.88,1.8 3.72,-4.64 5.79,2.58 0.49,-2.66 3.16,1.12 0.7,-0.63 -0.6,-0.63 0.56,-1.35 -1.43,-0.27 -0.13,-1.1 3.11,-2.11 0.11,-1.11 1.56,1.03 1.14,-1.76 2.39,1.16 1.16,-0.74 -0.48,-1.8 2.31,0.68 1.16,-0.6 0.53,2.83 3.02,1.31 1.36,-3.11 2.34,-0.01 1.33,0.54 0.72,2.41 1.43,1.25 v 0 l 0.06,1.38 v 0 l -0.53,1.67 -2.98,-2.2 -0.52,0.42 0.36,4.14 -8.1,1.06 -1.31,1.91 0.18,1.52 -3.51,1.9 v 2.12 l 1.28,4.76 3.4,6.9 1.88,7.3 1.84,2.39 0.3,3.63 3.96,5.5 1.66,-0.79 1.06,3.82 1.3,-0.35 0.33,1.57 1.48,0.31 -1.01,1.25 1.12,0.2 1.34,2.11 -1.68,0.49 -0.31,1.4 1.56,1.33 -0.51,1.91 1.32,1.66 -1.02,0.91 1.29,-0.05 0.55,1.21 v 0 l -3.96,3.79 -0.24,1.71 -3.86,1.8 0.28,1.01 v 0 l -2.13,1.54 -5.97,0.31 -0.44,0.78 -1.95,-1.45 -0.44,-3.49 0.87,-3.14 -2.36,2.19 -1.2,0.23 -1.33,-1.27 -2.73,2.12 -2.43,-2.17 -1.08,0.15 1.12,-2.26 -0.95,-0.48 -2.43,2.02 -2.62,-0.8 -3.84,-7.04 -1.66,0.58 -2.48,-0.72 -0.8,0.97 -3.97,0.38 -2.71,-2.78 -2.94,-0.08 -3.01,-3.54 -2.07,0.31 -1.94,-4.3 -2.82,1.07 -1.36,-1.23 -1.95,0.29 -4.88,-6.61 0.3,-1.49 -2.49,-1.75 0.37,-3.61 -3.27,-2.24 v 0 l -1.18,-1.74 0.9,-5.4 -0.71,-2.38 1.17,-1.73 -0.19,-3.37 3.08,-2.96 z"
     title="Vrancea"
     id="RO-VN" />
  <path
     d="m 449.05,132.19 1.54,1.1 4.79,-0.26 0.85,1.3 1.35,-0.66 0.06,-1.05 3.59,-0.88 1.49,1.33 3.73,-0.09 1.19,1.44 0.18,-1.71 3.03,-0.29 -0.59,-1.82 4.84,0.83 2.91,-1.08 -1.03,-2.04 -0.9,0.27 -0.22,-3.7 1.29,-2.52 3.04,1.98 4.78,7.46 4.41,0.16 0.05,1.73 1.81,0.16 5.22,4.24 1.1,-0.15 -1.62,-2.93 1.12,-0.67 2.6,0.29 0.91,1.53 1.4,0.25 6.51,-0.66 v 0 l 0.02,2.42 0.57,-0.25 0.49,1.82 2.83,2.29 -0.94,0.36 1.53,1.51 -0.7,0.84 0.48,1.48 0.87,0.06 -0.53,0.93 1.47,1.17 -0.08,2.37 0.77,-0.42 0.59,1.61 0.4,-0.67 1.15,6.49 -1.27,2.42 0.57,0.45 -1.17,0.18 0.83,2.52 -1.28,1.37 0.96,0.75 -1.33,2.24 1.33,1.07 -0.39,1.52 1.13,-0.04 0.22,1.49 0.79,0.09 -1.12,1 1.31,1.3 -0.74,2.1 -1.28,0.26 0.53,0.65 -0.86,0.58 1.14,0.46 -1.63,-0.03 0.39,0.72 -1.58,1.29 0.55,1.48 -1.52,0.42 0.97,0.76 -0.85,1.12 1.52,1.13 -0.37,0.94 -1.6,0.99 0.07,1.36 -0.37,-1.18 -0.34,1.42 -1.26,-0.92 0.2,1.24 -0.92,-0.48 -0.74,2.12 1.24,1.03 -2.35,0.69 0.05,3.7 0.83,-0.72 -0.4,1.75 1.18,-0.25 0.35,1.12 -0.63,0.06 0.81,0.35 -0.99,0.05 0.88,1.25 -1.06,0.84 0.56,2.35 -1.18,1.8 v 0 l -2.51,-0.57 -3.72,1.17 -0.93,-1.27 -1.65,0.88 -0.9,-2.96 -1.7,0.51 -1.82,-1.64 -2.34,0.97 -0.08,-2.24 -1.67,0.81 0.06,1.84 -1.28,1.86 -3.54,0.7 -1.24,-2 -2.75,0.27 -1.55,-0.85 -1.43,1.15 -5.03,-2.16 -0.35,1.45 1.03,1.06 -0.9,0.22 2.64,5.48 -1.43,0.63 -0.05,3.33 -1.87,1.23 -2.25,-1.61 -1.62,-3.01 1.12,-1.15 -0.9,-1.49 0.31,-2.98 -1.06,-1.49 -1.73,-0.1 v 0 l -0.06,-1.38 v 0 l 1.7,-3.95 -1.31,-0.93 -1.07,-4.25 -0.71,-5.84 1.14,-2.01 -1.78,-6.72 -1.81,-2.3 -2.53,-8.15 -3.49,-6.88 -3.4,-3.66 2.51,-2.64 -1.17,-1.96 1.13,-2.18 -7.68,-6.04 v 0 l 1.3,-0.94 0.29,-4.5 -0.24,-2.99 -1.9,-2.22 z"
     title="Vaslui"
     id="RO-VS" />
     <g id="stadiums" data-country="romania"></g>
</svg>
