<?xml version="1.0" encoding="UTF-8" standalone="no"?>
<?xml-stylesheet type="text/css" href="/styles/home.css"?>
<!-- https://www.amcharts.com/svg-maps -->

<svg version="1.1" xmlns="http://www.w3.org/2000/svg" id="map-scotland" viewBox="0 0 547.24915 547.24915"
   width="547.24915" height="547.24915" class="">

   <defs id="defs4">
      <style type="text/css" id="style2">
         .land {
            fill: #84c6bf;
            fill-opacity: 1;
            stroke: white;
            stroke-opacity: 1;
            stroke-width: 0.5;
         }

         .rectangle:hover {
            fill: #bdbdbd;
            cursor: pointer;
         }
      </style>
   </defs>
   <rect id="background" class="rectangle" stroke-width="0" stroke="#000" width="547.24915" height="547.24915" y="0"
      x="0" fill="#d3d3d3" />
   <path
      d="m 358.75364,140.09474 -0.69922,0.59961 -1.30078,1.90039 -0.79883,0.29883 -1.5,-0.29883 h -0.90039 l 0.0996,0.90039 0.30078,0.0996 h 0.39844 l 0.5,0.29883 0.40039,0.70117 0.0996,0.5 0.10156,0.5 0.69922,1.90039 0.30078,0.5 0.29883,0.39844 0.5,0.30078 h 0.30078 l 0.40039,-0.19922 0.29883,-0.80078 0.70117,0.69922 -0.40039,-1 -0.30078,-0.29883 v -0.70117 l 1.30078,0.10156 1.29883,0.79883 2.30078,2.30078 -0.30078,0.5 -0.19922,0.59961 -0.0996,0.59961 -0.0996,0.80078 1.09961,-1.5 0.59961,-0.5 h 0.90039 v -0.5 l -0.40039,-0.70117 -0.5,-0.0996 -0.5,-0.0996 -0.5,-0.30078 -0.30078,-0.59961 -0.79883,-2.29883 -0.70117,-0.40039 -3.69922,-1.20117 v -0.59961 l 0.40039,0.0996 0.90039,-0.0996 -0.20117,-0.79883 0.0996,-0.5 0.5,-0.70117 h 0.10156 0.0996 l 0.0996,-0.0996 v -0.40039 z m 26,3.90039 -0.69922,0.79883 -1,1.59961 -0.70117,0.20117 h -0.69922 l -0.80078,0.0996 -1.19922,1.40039 -1.5,0.29883 -0.59961,0.5 -0.0996,-0.29883 -0.20117,-0.0996 -0.29883,-0.10156 1.19922,-1.5 0.69922,-0.69922 0.60156,-0.40039 v -0.69922 l -1.10156,0.0996 -1.89844,1.19922 h -1.10156 l 0.70117,1 0.19922,0.30078 -0.19922,1.30078 -0.30078,0.29883 h -0.5 l -0.59961,0.30078 -0.40039,0.5 -0.69922,1.40039 -0.5,0.59961 -0.59961,0.5 -0.40039,0.19922 -0.30078,0.40039 -0.29883,1.40039 0.0996,1 0.19922,0.19922 0.30078,-0.59961 0.0996,-1.19922 0.80078,0.19922 1,-1 1.69922,-2.40039 0.40039,0.5 0.29883,0.0996 0.90039,-0.59961 v 0.59961 l -0.0996,0.30078 -0.19922,1 2,-2.5 0.79883,-0.0996 0.0996,2 0.5,-0.30078 0.30078,-0.5 0.90039,-2.19922 0.5,-0.5 0.40039,-1 0.89844,-0.40039 2.20117,-0.0996 -0.0996,-0.90039 -0.5,-2 z m -17.19922,6 -0.5,0.59961 -0.20117,0.90039 0.10156,1.19922 v 0.59961 l 0.19922,1.59961 v 0.30078 l -0.5,0.0996 -0.5,0.30078 -0.5,0.0996 -0.59961,-0.5 v 1.90039 l 0.69922,0.19922 0.70117,0.5 0.39844,0.90039 0.10156,1.19922 0.39844,0.30078 0.80078,-0.0996 1.40039,-0.5 v -0.59961 l -0.80078,-0.10156 -0.29883,-0.69922 -0.10156,-1.19922 v -1.5 l 0.20117,-0.40039 1,-1.59961 0.29883,-0.80078 -0.29883,-0.90039 -0.40039,-0.40039 -0.59961,-0.0996 -0.59961,0.0996 v -0.59961 h 0.39844 v -0.69922 z m -13.90039,5.09961 -1.30078,0.69922 -0.89844,1.20117 0.29883,1.69922 1.09961,1.40039 1.20117,0.90039 1.40039,0.39844 1.39844,0.10156 1.40039,-0.60156 0.0996,-1.19922 -0.19922,-1.5 0.80078,-1.09961 0.19922,-0.0996 h 0.0996 l 0.0996,-0.10156 v -0.5 l -0.69922,-0.39844 h -0.59961 l -2,0.5 h -0.30078 l -0.29883,-0.10156 -0.30078,-0.29883 -0.19922,-0.40039 -0.10156,-0.30078 v -0.19922 z m 21,3.19922 -1.90039,0.70117 0.5,0.29883 1.5,1.59961 0.30078,0.60156 -0.30078,1 -0.5,0.39844 -0.79883,0.10156 -0.70117,0.29883 -0.90039,1.70117 0.70117,0.69922 1,-0.40039 -0.0996,-1.40039 0.79883,-0.69922 0.90039,0.19922 0.69922,1 0.10156,2.10156 1,-0.70117 2.09961,-0.29883 0.79883,-0.90039 -1.29883,-0.80078 -0.30078,-0.59961 0.30078,-1 0.0996,-0.19922 0.19922,0.0996 0.10156,-0.20117 -0.10156,-0.39844 -1.09961,0.59961 -0.59961,0.19922 -0.5,-0.0996 -0.59961,-0.90039 0.0996,-0.79883 0.5,-0.5 0.59961,0.19922 -0.40039,-0.5 -0.5,-0.0996 h -1.29883 l 0.0996,-0.30078 0.19922,-0.29883 v -0.60156 z m -28.40039,1.30078 -2.19922,0.5 -2.09961,1.40039 -1.20117,2.69922 0.20117,4.09961 -0.30078,0.59961 -0.69922,2.80078 0.59961,3 1.40039,2.30078 1.59961,0.59961 v -0.5 l 1.09961,-1.20117 0.40039,-0.79883 -0.20117,-1.20117 -0.0996,-0.0996 v -0.69922 l -0.0996,-0.59961 -0.5,-0.40039 0.40039,-0.30078 0.40039,-0.0996 0.39844,0.0996 0.5,0.30078 v -0.59961 l -0.29883,-0.60156 v -0.5 l 0.40039,-0.5 0.5,-0.29883 0.0996,0.69922 0.19922,0.59961 0.30078,0.60156 0.29883,0.59961 v 0.59961 l -0.69922,1.19922 -0.59961,1.70117 -0.0996,2 0.5,2 1.19922,1.19922 2.80078,-0.5 1.09961,0.5 0.29883,-1 0.5,-0.29883 1.5,0.0996 -0.69922,-1.30078 0.59961,0.0996 0.5,0.20117 0.40039,0.0996 0.5,-0.40039 0.80078,0.20117 0.79883,-0.70117 0.70117,-0.90039 0.5,-0.0996 0.39844,0.5 1.70117,3.70117 0.5,0.79883 0.5,0.5 3.59961,1.5 0.69922,0.0996 0.80078,-0.59961 1,-2.09961 0.59961,-0.40039 1.80078,-0.40039 0.90039,-0.5 0.39844,-0.59961 v -1.40039 -1 l -0.29883,-0.79883 -0.70117,-0.30078 -0.69922,0.0996 -1.59961,1.10156 -0.90039,0.0996 0.30078,0.59961 0.69922,1.90039 -0.90039,0.29883 -0.79883,-0.29883 -0.70117,-0.80078 -0.5,-1.19922 0.70117,-0.70117 1.89844,-1.39844 0.30078,-0.90039 -0.30078,-0.59961 -0.39844,-0.20117 -1.10156,0.0996 -0.79883,0.40039 -0.80078,0.59961 -0.79883,0.5 -1,-0.19922 0.0996,-0.40039 0.19922,-1.09961 0.0996,-0.40039 -0.79883,0.70117 -0.59961,-0.60156 -0.5,-0.79883 -0.70117,-0.5 -0.69922,0.29883 -0.59961,0.60156 -0.60156,0.19922 -1.79883,-1.59961 -0.80078,0.59961 -0.69922,1.09961 -0.70117,0.59961 -1.79883,-0.19922 -0.90039,-0.40039 -0.69922,-0.59961 0.79883,-0.30078 1.09961,-1 0.90039,-1.29883 0.40039,-1.5 0.40039,0.19922 2.79883,-1.09961 -0.19922,-0.19922 -0.19922,-0.20117 -0.20117,-0.19922 0.0996,-0.40039 0.20117,-0.0996 0.29883,-0.0996 -2.59961,-1.60156 -0.90039,-1 0.30078,-0.0996 0.69922,-0.5 -0.5,-0.29883 -0.69922,-1.10156 -0.5,-0.39844 h -0.5 l -0.59961,0.29883 h -0.59961 l -1.70117,-1.59961 -1.19922,-0.5 z m -5.5,20 -2.09961,0.79883 -1,1.10156 -0.0996,0.29883 -0.70117,1.80078 0.10156,0.90039 0.39844,0.0996 0.5,-0.0996 0.40039,0.39844 0.20117,0.10156 0.59961,-0.60156 0.29883,0.20117 0.30078,0.5 -0.0996,0.40039 -0.20117,0.39844 v 0.5 l 1,1.90039 0.40039,0.40039 0.5,0.40039 0.5,0.5 0.20117,0.79883 0.89844,2.30078 0.20117,0.5 h 4.40039 l 2.29883,-0.69922 1.20117,-1.80078 -1.30078,-0.19922 -2.80078,1.39844 -1.39844,0.10156 0.59961,-1.20117 1,-0.79883 1.09961,-0.40039 0.90039,-0.0996 v -0.60156 l -0.70117,-0.89844 -0.39844,-0.30078 h -0.60156 v -0.69922 l 0.70117,-0.60156 -2.5,-3.79883 -0.90039,-0.59961 -1,-0.30078 -1.59961,-1.59961 -0.70117,-0.5 z m 18.59961,8.09961 -2.09961,0.40039 -1.79883,0.79883 v 0.60156 h 3.19922 v 0.59961 l -0.5,0.40039 -0.59961,0.19922 -0.59961,-0.19922 -0.60156,-0.40039 1.5,2.29883 0.5,1.40039 -0.69922,0.70117 v 0.59961 l 2.30078,2.40039 1,-0.70117 0.29883,-0.90039 -0.19922,-1.19922 -0.5,-1.5 0.59961,-0.59961 -0.0996,-0.5 -0.20117,-0.59961 v -0.80078 l 0.30078,-0.40039 1.30078,-0.79883 0.0996,-1.10156 -1.09961,-0.59961 z m -19.79883,14.69922 -0.70117,0.40039 -1.09961,1.5 0.5,1.20117 0.80078,1 0.79883,0.59961 0.80078,0.29883 -0.59961,1.80078 h -1.30078 l -2.59961,-1.19922 -2.59961,1 -1.40039,0.0996 -1.09961,-1.09961 0.19922,-0.10156 0.40039,-0.5 -1,-0.5 h -1.5 l -3,0.5 -1.80078,0.90039 -3.19922,2.5 -2,0.90039 -4,0.69922 -4,-0.69922 -1.09961,0.19922 -0.20117,-0.19922 -0.89844,-1.69922 v -0.30078 l -0.10156,0.0996 -0.39844,0.0996 -0.5,0.30078 -0.60156,1.5 -0.39844,0.69922 -0.5,0.30078 h -0.40039 l -1,-0.30078 h -1.80078 l -0.5,0.30078 -0.40039,1.19922 -0.39844,0.20117 -0.60156,-0.0996 -0.89844,-0.5 -0.5,0.0996 -0.30078,0.40039 -0.30078,0.5 -0.19922,0.5 -0.5,0.39844 0.59961,0.70117 -1,-0.30078 -1.40039,-1.40039 -1,-0.29883 -0.39844,0.0996 -1.30078,0.59961 -1.80078,1.30078 -0.0996,0.19922 -1.90039,2.09961 -0.19922,0.10156 -0.19922,0.0996 v 0.40039 0.39844 0.40039 l -1.30078,1.80078 -0.80078,0.79883 -0.79883,0.40039 0.79883,-1.90039 0.60156,-1.89844 0.69922,-1.60156 1.09961,-1.29883 -0.0996,-0.90039 0.0996,-0.0996 v -0.30078 -0.69922 l -2.29883,-1.70117 -1.90039,-0.89844 -2,-0.40039 -1.20117,0.5 -0.5,1.29883 -0.19922,1.60156 -0.59961,1.59961 -0.80078,0.79883 -1,0.5 -0.69922,0.60156 -0.30078,1.39844 -0.5,0.30078 -2.79883,3.09961 -0.80078,0.0996 0.40039,-1.19922 0.90039,-1.69922 0.79883,-2.20117 1.70117,-1.69922 0.59961,-0.70117 0.0996,-0.59961 0.19922,-0.79883 v -0.70117 l -0.5,-0.29883 -0.59961,-0.20117 -1.29883,-1.09961 -0.80078,-0.40039 -1.40039,-1.90039 -0.90039,-0.69922 0.30078,1.5 -0.30078,0.59961 -0.39844,0.59961 -0.20117,1.30078 v 0.90039 l -0.0996,0.90039 -0.30078,0.89844 -0.89844,0.70117 0.29883,-0.70117 0.20117,-0.69922 0.0996,-0.80078 0.0996,-0.89844 h -0.19922 l -0.30078,-1.20117 -0.19922,-1.40039 v -0.5 l -0.80078,-1 -1.09961,-0.79883 -6.09961,-1.30078 -0.80078,0.90039 -0.30078,1.59961 -0.0996,1.80078 -0.40039,1.90039 h 0.30078 l -0.5,1.29883 -0.69922,0.80078 -2.5,1.5 -0.40039,0.40039 -0.0996,0.79883 v 1.59961 l 5.19922,4.60156 -1.40039,-1 -1.19922,-0.60156 -2.59961,1.60156 0.5,0.39844 0.19922,0.20117 h 0.30078 v 0.69922 h -0.20117 -0.40039 v 0.59961 l 0.5,0.10156 0.5,-0.10156 0.5,-0.19922 0.40039,-0.40039 0.30078,0.59961 -0.0996,0.70117 0.39844,0.59961 1.30078,1.09961 -1.90039,0.0996 -2.79883,-1.89844 -0.30078,-0.10156 -0.59961,-0.39844 -0.30078,-0.10156 -0.19922,0.20117 v 0.5 l 0.0996,0.59961 -0.0996,0.5 -0.40039,0.90039 -0.40039,0.90039 v 0.89844 l 0.5,1 h -0.90039 l 0.10156,0.60156 0.0996,0.69922 0.40039,1.09961 0.0996,0.20117 0.90039,1.29883 0.0996,0.40039 0.5,0.40039 1.40039,2.09961 0.59961,0.5 0.59961,0.19922 0.90039,0.80078 0.5,0.19922 0.5,-0.0996 0.5,-0.79883 0.40039,-0.30078 h 0.89844 l 3,0.59961 -0.59961,0.5 -1.40039,0.20117 -0.59961,0.5 1.30078,1 0.5,0.59961 0.5,0.90039 -3.20117,-2.5 -0.79883,-0.20117 -2.30078,0.20117 -0.59961,-0.20117 -1.5,-1.29883 -0.80078,-0.30078 -0.39844,0.19922 -0.70117,0.40039 -0.59961,0.59961 -0.30078,0.60156 -1,-0.80078 -1,-0.0996 -1,0.29883 -1.89844,1.30078 -0.80078,0.19922 -0.80078,-0.19922 -2,-1.40039 -1,-0.40039 -0.79883,0.20117 v 1.5 l 2.09961,3.40039 0.5,0.29883 h 0.59961 l -0.0996,0.40039 -0.19922,1 -0.10156,0.5 0.5,0.0996 0.40039,0.30078 0.40039,0.29883 0.30078,0.5 -0.30078,0.5 0.59961,0.5 0.80078,0.20117 1.5,-0.0996 v 0.69922 l -0.59961,0.40039 -1.30078,0.29883 -0.69922,0.5 1,0.60156 v 0.59961 h -0.60156 l 0.30078,0.69922 0.19922,0.70117 v 0.79883 l -0.19922,0.80078 h 0.30078 l -1.10156,1.5 -1.09961,-0.0996 -1,-0.40039 -1,0.90039 -1.09961,-2.40039 -1.80078,-0.5 -0.89844,1.19922 1.59961,2.90039 v 0.59961 l -0.30078,0.30078 -0.0996,0.29883 -0.0996,0.30078 -0.20117,0.30078 2,-0.10156 0.90039,0.30078 0.70117,1 -0.20117,0.30078 -0.0996,0.0996 -0.0996,0.19922 1.19922,0.20117 2,2.5 1.30078,0.39844 0.69922,0.60156 1.5,0.29883 0.59961,0.5 0.40039,1.09961 0.0996,1.10156 -0.39844,0.59961 h -0.90039 v 0.59961 l 1.09961,0.30078 4.69922,4.19922 0.30078,0.59961 0.0996,0.59961 0.30078,0.80078 0.29883,0.80078 0.30078,0.5 -1,-0.60156 -1.30078,-2.5 -2,-0.89844 -1.69922,-1.70117 -0.59961,-0.40039 -0.5,-0.0996 -1,-0.79883 -0.59961,-0.20117 -0.5,0.0996 -0.90039,0.5 h -0.59961 l -1,-0.59961 -1.30078,-1.90039 -0.90039,-0.59961 -0.19922,1.09961 -0.40039,-0.0996 -0.30078,-0.40039 -0.29883,0.10156 -0.20117,0.59961 v 0.19922 l 0.10156,0.20117 0.0996,0.5 0.29883,0.39844 3.10156,1.40039 2,2.09961 1.39844,0.60156 0.5,0.59961 0.70117,1.19922 -3.40039,-1.29883 -1.59961,-1 -1.30078,-1.60156 -0.59961,-0.59961 -2.19922,-0.90039 h -0.60156 l -0.39844,0.90039 -0.60156,2.5 -0.5,0.80078 0.30078,0.59961 -1.5,-0.19922 -2,-1 -1.30078,-1.80078 0.30078,-2.40039 h -1.69922 l -0.5,-0.40039 -0.70117,-0.79883 -0.40039,0.69922 -1.09961,1.5 -0.40039,0.80078 0.10156,0.29883 0.0996,0.20117 0.40039,0.0996 -0.5,0.90039 0.59961,1 1.79883,1.69922 0.70117,1.40039 -0.0996,1.09961 -0.20117,1.20117 0.30078,1.79883 -0.90039,-0.59961 -0.40039,-0.0996 h -0.59961 l 0.30078,1.09961 0.19922,0.40039 0.40039,0.40039 h -0.80078 l -0.69922,-0.30078 -0.59961,-0.69922 -0.5,-0.90039 -0.30078,-1.30078 -0.30078,-1.79883 -0.19922,-1.70117 0.19922,-1.19922 -1.19922,-0.80078 -1.19922,-0.29883 h -1.20117 l -1.19922,0.5 -0.59961,0.5 -0.5,0.69922 -0.30078,0.90039 -0.19922,0.90039 v 1.09961 l 0.39844,1.79883 -0.0996,0.70117 0.0996,1 -0.19922,2.29883 0.0996,1 3.90039,0.90039 0.59961,0.30078 0.40039,0.59961 0.30078,0.59961 0.39844,0.40039 0.5,0.19922 -0.39844,0.90039 -0.5,0.70117 -0.60156,0.0996 -1.29883,-1.59961 -0.90039,0.0996 -1.80078,1 v 0.59961 l 0.30078,0.80078 -1,1.09961 -0.19922,1 0.19922,1.09961 0.59961,0.40039 0.70117,0.0996 0.69922,0.30078 0.90039,1.39844 0.59961,1.70117 0.80078,1.40039 1.59961,0.29883 -0.40039,0.80078 -0.30078,0.29883 1.60156,1.90039 1.29883,-1.09961 2.09961,-0.30078 2.10156,0.5 1.5,1.20117 -0.20117,0.59961 h -1.09961 l -2,-0.40039 -3.30078,0.59961 0.10156,0.5 0.0996,0.40039 0.0996,0.40039 0.30078,0.5 -0.5,-0.0996 -1.40039,-1 -0.40039,-0.30078 -0.80078,-1.29883 -0.5,0.29883 -0.69922,-0.59961 -2.59961,-2.59961 -0.80078,-0.5 -0.79883,-0.20117 -0.80078,0.40039 0.0996,0.40039 0.0996,1 0.10156,0.40039 h -0.70117 l -0.19922,0.59961 v 1.09961 1.30078 l -0.20117,0.5 -0.69922,1.5 -0.0996,0.59961 0.0996,1.19922 0.40039,1.5 0.0996,0.90039 0.30078,0.20117 1.5,0.39844 0.5,0.30078 -0.5,0.59961 -0.20117,0.59961 v 1.20117 l 0.0996,0.19922 0.40039,0.70117 0.20117,0.29883 -0.10156,0.30078 -0.19922,0.19922 -0.19922,0.20117 -0.20117,-0.10156 0.80078,3.40039 1.09961,0.59961 2.5,-0.39844 1.09961,-0.60156 3.20117,-4.19922 0.69922,-0.69922 0.19922,-0.10156 0.10156,0.60156 0.39844,1.09961 0.10156,0.69922 -0.40039,0.59961 -1.09961,0.80078 1.39844,0.19922 1.10156,0.5 1.09961,0.20117 1.19922,-0.90039 2.09961,-3.09961 1.30078,-1.30078 0.80078,0.20117 -0.40039,2.5 -2.09961,1.89844 -5.30078,2.5 -1,0.20117 -0.30078,-0.30078 -0.19922,-0.59961 -0.40039,-0.30078 -0.40039,0.40039 -0.39844,0.40039 -1,0.69922 -0.40039,0.40039 -1.09961,2.59961 -0.20117,0.30078 0.40039,1.19922 1,0.10156 2,-0.70117 0.90039,0.20117 1.79883,0.89844 1,0.10156 0.90039,-0.30078 1.70117,-1.19922 0.79883,-0.30078 0.5,-0.5 0.59961,-1.09961 0.80078,-0.70117 1.09961,0.5 v 0.70117 l -1.09961,0.40039 -1.09961,1.19922 -0.59961,1.30078 0.39844,0.59961 0.5,0.29883 0.40039,0.5 0.70117,1.30078 0.39844,0.40039 2,0.5 v 0.59961 l -1.79883,0.5 -1.59961,-1.19922 -1.5,-1.70117 -1.5,-1.19922 -1.60156,0.40039 -2,1.19922 -1.09961,1.69922 0.90039,1.40039 -0.69922,1.20117 -1.60156,2.39844 -0.29883,1.5 0.59961,0.90039 3.90039,1.20117 0.5,0.5 1.19922,1.5 0.30078,0.29883 0.69922,-0.0996 1.09961,-0.40039 3.90039,-0.69922 0.90039,0.59961 v 0.59961 h -0.30078 l -0.29883,-0.0996 -0.80078,-0.30078 -0.79883,0.10156 -0.30078,0.59961 -0.30078,0.29883 -4.59961,-0.0996 -0.90039,-0.5 -2,-1.5 -1.19922,-0.5 -0.80078,0.5 -0.5,0.40039 -1.39844,-0.0996 h -0.60156 l -0.29883,0.40039 -0.5,0.89844 -2,2.60156 -0.70117,1.39844 0.5,0.60156 0.5,0.19922 0.80078,0.80078 0.5,0.19922 0.5,-0.0996 1,-0.40039 0.40039,-0.0996 1,0.79883 -0.0996,1.20117 -0.10156,1.09961 0.70117,0.40039 0.90039,0.40039 1,0.69922 1,0.30078 1.09961,-0.80078 0.59961,0.40039 0.69922,-0.30078 0.80078,-0.40039 0.80078,-0.29883 v 0.59961 l -2.30078,1.19922 -2.5,0.60156 -1.59961,-0.20117 -0.70117,-0.40039 -0.69922,-0.5 -0.5,-0.69922 -0.90039,-1.69922 -0.5,-0.60156 -1.19922,-0.19922 -1.40039,0.5 -1.40039,1 -0.79883,1 -0.5,1.69922 -0.40039,2 -0.5,1.80078 -0.90039,1 1,1 0.40039,0.19922 v 0.60156 l -1.70117,0.19922 -1.59961,0.40039 2.20117,0.59961 4.39844,-1 2.10156,0.40039 -1.80078,2.09961 -0.40039,0.80078 1.80078,0.5 h 0.90039 l 0.79883,-1.40039 0.80078,-0.40039 0.79883,-0.0996 0.60156,0.29883 -1.5,1.5 -1.90039,0.90039 -4.90039,0.70117 -0.59961,0.69922 v 0.90039 l 0.90039,1.09961 3.5,1.69922 -0.90039,-0.19922 -1.20117,-0.40039 -1.09961,0.40039 -0.59961,0.90039 -0.5,-0.5 -0.59961,-0.20117 h -0.59961 -0.5 v 0.70117 l 0.79883,0.0996 0.5,0.59961 0.20117,0.90039 0.0996,1 -0.5,-0.30078 -2.40039,-1.19922 -0.69922,-0.5 -0.5,-0.59961 -0.40039,-0.5 -0.80078,-0.20117 -0.69922,0.30078 -1.70117,1.30078 -0.5,0.19922 -7.19922,0.80078 -0.59961,0.5 -1.09961,1.69922 -0.30078,0.19922 -0.30078,-0.19922 h -0.29883 v 0.90039 0.5 l 0.0996,0.5 0.19922,0.5 0.30078,0.5 0.59961,0.59961 1.09961,0.59961 1.20117,0.20117 0.79883,-0.5 0.90039,-0.90039 1.20117,-0.20117 3.5,1 3.19922,-0.19922 0.59961,0.0996 1.09961,0.80078 0.60156,0.19922 h 0.5 l 1.69922,-0.5 5.09961,-2.90039 2,0.60156 2.30078,1.5 1.09961,0.19922 4.30078,-0.59961 -1,0.59961 -1.40039,0.40039 -2.5,0.19922 -1.09961,-0.29883 -3,-1.5 -1.10156,0.0996 -5,3.40039 v 0.79883 l 0.5,0.59961 1.10156,0.90039 -0.30078,0.59961 -1.30078,-1.19922 -1.5,-0.80078 -1.69922,-0.39844 -2.30078,0.19922 -0.69922,0.30078 -0.5,0.59961 v 1.29883 l 0.30078,0.70117 7,5.79883 2.79883,0.60156 1.70117,-2.40039 h 0.39844 l -0.0996,0.79883 -0.19922,0.70117 -0.70117,1.40039 0.60156,0.69922 0.79883,0.5 0.90039,0.40039 0.69922,0.19922 0.5,0.20117 0.60156,1.19922 0.39844,0.30078 0.30078,-0.20117 3.19922,-2.59961 3.10156,-3.69922 1.89844,-2.80078 0.5,-0.59961 0.5,-0.5 0.60156,-0.0996 0.5,-0.40039 0.59961,-1.5 0.5,-0.40039 1,-0.19922 0.69922,-0.5 1.30078,-1.70117 0.59961,-1 0.30078,-0.5 1,-0.40039 0.5,-0.79883 0.39844,-0.0996 0.80078,-0.10156 0.69922,-0.29883 0.60156,-0.80078 0.59961,-1.19922 0.19922,-0.70117 0.0996,-0.79883 0.10156,-0.59961 0.39844,-0.30078 0.5,-0.0996 0.60156,-0.30078 0.5,-0.5 0.19922,-0.5 0.40039,-0.69922 2.79883,-2.5 -0.79883,1.59961 -0.90039,1.5 -3.09961,3.40039 -0.30078,0.5 -0.5,1.19922 v 0.5 l 3.70117,1.70117 7.69922,-1.70117 -0.80078,0.59961 -3.79883,0.90039 -1.80078,1.20117 -1,0.29883 -2,-0.59961 h -1.09961 l -1.40039,1.19922 -0.59961,0.10156 -1.19922,-0.20117 -1,0.90039 -0.40039,0.30078 v 0.59961 l 0.90039,0.69922 -0.30078,0.5 -0.30078,0.5 -1.89844,1.80078 -0.40039,0.59961 -1.20117,2.30078 -0.19922,0.29883 -0.0996,0.80078 -0.20117,0.40039 -0.29883,0.29883 -0.20117,0.20117 -0.19922,0.29883 -0.0996,0.59961 0.59961,0.10156 0.80078,0.89844 0.5,0.20117 0.59961,-0.0996 1,-0.90039 0.5,-0.20117 0.79883,-0.59961 0.20117,-0.0996 0.90039,0.0996 0.59961,-0.0996 1.5,-1 -0.5,0.69922 -0.5,0.5 -1.20117,0.5 -2.29883,1.80078 -0.80078,0.30078 -1.09961,0.0996 -1.09961,-0.5 -1.20117,-1.09961 -0.19922,1.19922 -1.69922,4.09961 0.69922,0.5 0.90039,-1.79883 0.5,-0.80078 0.59961,-0.30078 0.80078,3.20117 0.79883,0.59961 1.30078,-1.19922 5,1.19922 2,-0.30078 0.5,-0.5 1.09961,-1.79883 1.90039,-1.80078 0.69922,-1.29883 0.5,-1.5 0.59961,-1.30078 1,-0.5 -0.89844,1.40039 -1.60156,3.40039 -2.89844,4.09961 -1.30078,1.09961 -1.59961,0.40039 -3.80078,-1.09961 -4.69922,0.39844 -1.5,0.80078 -1.20117,1.69922 0.20117,0.70117 -0.40039,0.40039 -0.59961,0.29883 -0.5,0.30078 -0.40039,0.69922 -0.90039,2.80078 1,0.19922 2.09961,-0.69922 h 1.10156 v 0.5 l -2.40039,1 -1.20117,0.0996 -0.89844,-0.5 -0.90039,1 -0.40039,1.09961 -0.59961,3.09961 -0.5,1.80078 -0.0996,0.90039 0.19922,0.79883 0.5,0.10156 0.40039,-0.5 0.5,-0.5 0.40039,-0.30078 2,-0.59961 0.59961,0.29883 0.29883,0.60156 -0.0996,0.59961 -0.5,0.29883 -0.90039,0.20117 -1.09961,0.59961 -0.5,0.90039 0.40039,1.09961 -0.90039,1.30078 -0.79883,1.69922 -0.60156,1.69922 -0.29883,1.70117 1.09961,-0.90039 0.90039,-1.40039 1.09961,-1.29883 1.40039,-0.5 -0.30078,1.19922 -0.29883,0.80078 -1.5,2.29883 -0.20117,0.59961 0.0996,0.70117 0.30078,1.29883 0.0996,0.20117 0.30078,0.19922 0.29883,0.30078 0.20117,0.5 v 0.5 h -0.40039 l -0.40039,-0.30078 -0.0996,-0.19922 v -0.0996 l -0.30078,-0.20117 -0.39844,-0.19922 h -0.30078 l -0.30078,0.0996 -0.0996,0.40039 -0.0996,0.40039 -0.0996,0.29883 -3.5,5.09961 -1.80078,3.5 -0.19922,2.20117 -0.20117,0.5 -0.0996,0.59961 0.20117,0.5 0.39844,0.0996 0.20117,-0.19922 0.79883,-1.5 v -1.90039 l 2,-2.30078 0.30078,-1.59961 0.69922,-0.40039 0.60156,-0.59961 0.59961,-0.29883 0.59961,0.19922 -0.19922,0.40039 -0.30078,0.29883 0.19922,0.40039 -0.39844,1.09961 -5.10156,8 0.10156,0.90039 0.19922,1 0.40039,0.5 h 0.40039 l 0.79883,-0.90039 1.30078,-0.59961 1.59961,-1.90039 1,-0.59961 -0.69922,1 -0.80078,0.80078 -0.69922,0.90039 -0.30078,1.09961 -0.30078,0.69922 -2,3 0.20117,0.59961 0.0996,2.30078 0.30078,1.09961 0.69922,0.80078 0.59961,0.40039 1.30078,0.5 -0.30078,1.09961 h 0.59961 l 0.60156,-0.30078 1.59961,-1.40039 4.59961,-5.09961 -0.90039,2.5 -1.5,2.20117 -1.59961,1.5 -1.30078,0.59961 -0.69922,0.5 -0.80078,1.19922 -0.69922,1.5 -0.19922,1.09961 -0.40039,0.90039 -2.5,2.20117 0.5,1.19922 -0.20117,1.59961 -1,2.90039 -1.09961,2.5 -0.0996,0.90039 0.0996,0.59961 0.30078,0.59961 0.19922,0.59961 -0.59961,2.40039 v 1.90039 l 0.30078,1.90039 -0.10156,1.69922 -0.39844,0.80078 -1.80078,2.09961 -1.30078,1.19922 -0.19922,1.60156 v 1.79883 l 0.59961,3.59961 0.5,1 0.80078,0.30078 h 1.40039 l 0.5,-0.0996 1.09961,-0.80078 0.5,-0.29883 0.5,0.0996 0.90039,0.5 0.5,0.0996 1.09961,-0.30078 1,-0.5 1,-0.69922 0.69922,-0.80078 1.59961,-2.19922 0.5,-1.30078 -0.59961,-0.5 v -0.39844 l -0.79883,-1.80078 -0.40039,-0.69922 -0.5,-0.40039 -0.40039,-0.20117 -0.59961,0.10156 v -0.5 l 1.09961,-0.70117 0.69922,-1.09961 1.10156,-2.80078 0.19922,-0.19922 0.19922,0.0996 h 0.10156 l 0.0996,-0.69922 v -1.59961 -0.40039 l 0.29883,-0.80078 1,-2 -0.29883,-1.5 0.5,-0.5 0.79883,-0.29883 0.30078,-1.10156 -0.40039,-0.89844 -0.59961,-0.10156 -0.40039,-0.5 0.0996,-1.89844 -0.0996,-0.30078 -0.19922,-0.30078 -0.0996,-0.39844 1,-0.80078 0.0996,-0.69922 0.19922,-1.40039 0.0996,-0.70117 0.30078,-1 0.40039,-1 0.59961,-0.69922 2.09961,-2.5 0.70117,-0.5 1.59961,-0.5 0.69922,-0.59961 0.30078,-1.09961 -0.40039,-2.10156 -1.19922,-2 -2.60156,-2.89844 0.20117,-0.10156 0.19922,-0.29883 0.30078,-0.20117 -0.5,-0.39844 -0.20117,-0.10156 v -0.59961 h 0.30078 v -0.5 l -0.5,-0.5 -0.19922,-0.69922 v -0.80078 l -0.20117,-0.90039 -0.5,-1.69922 -0.29883,-0.0996 -0.70117,-0.30078 -0.0996,-0.19922 0.30078,-4.5 v -0.59961 -0.5 l 0.19922,-0.40039 0.30078,-0.20117 0.0996,0.5 v 0.70117 l 0.0996,0.40039 0.80078,0.29883 1.19922,0.0996 1,-0.29883 0.40039,-1 0.19922,0.0996 0.30078,-1 0.19922,-1.19922 v -0.40039 l 0.30078,-0.30078 h 0.90039 l 0.39844,-0.29883 3.90039,-6 5.59961,-3.80078 0.40039,-0.59961 1.09961,-3 0.5,-1 0.80078,-0.70117 0.69922,-0.29883 2,-0.20117 0.70117,-0.39844 1.79883,-1.90039 0.80078,-0.59961 -0.90039,2.19922 -1.69922,1.30078 -1.70117,0.69922 -1.5,1 -0.69922,1.09961 -1.69922,3.90039 -0.40039,0.40039 -2,1.59961 -2.70117,1.09961 -5.09961,9 -1.19922,1.40039 0.59961,2.40039 0.0996,0.69922 -0.0996,0.70117 -0.5,1 -0.0996,0.59961 v 1.5 0.79883 l 0.19922,0.60156 0.30078,0.39844 0.40039,0.20117 0.29883,0.29883 0.30078,2.10156 0.5,0.69922 1.5,0.59961 2.09961,1.20117 h 0.90039 l -0.40039,-1.5 -0.40039,-1.30078 -1.19922,-2.40039 1.40039,-2 0.19922,-0.59961 0.0996,-0.90039 0.30078,-1.09961 0.40039,-1.09961 0.5,-0.70117 v 1.80078 l 0.39844,1.09961 3.10156,2.5 0.89844,0.30078 0.40039,-0.80078 -0.29883,-1.69922 -1.80078,-4.59961 -0.80078,-1.40039 0.80078,-0.59961 0.30078,0.69922 0.29883,1.09961 1.90039,2.5 0.0996,1.70117 0.5,2.39844 0.70117,2.10156 0.69922,0.89844 1.5,0.40039 0.59961,-0.0996 0.59961,-0.80078 0.5,-0.79883 0.20117,-0.80078 0.0996,-0.79883 0.19922,-1 0.40039,-0.70117 0.59961,-0.69922 0.40039,-0.80078 0.20117,-1.19922 -0.20117,-1 -0.5,-0.70117 -0.59961,-0.39844 -0.59961,-0.30078 v -0.5 l 0.79883,0.19922 0.80078,0.40039 0.69922,0.30078 0.60156,-0.40039 -0.20117,-0.90039 -0.0996,-1.19922 v -1.59961 l -0.19922,-1.70117 0.0996,-0.59961 0.59961,-0.30078 0.0996,-1.29883 -0.40039,-2.90039 -0.69922,-2.90039 -0.5,-1.5 0.59961,-0.79883 0.70117,0.19922 0.39844,0.90039 0.20117,1.09961 v 2.59961 l 0.29883,0.70117 1,-0.10156 0.70117,-1 2.69922,-5.59961 0.59961,-0.90039 0.5,-0.39844 0.20117,0.29883 -0.20117,1.20117 -3.29883,5.39844 -1.80078,4.90039 -0.0996,0.70117 0.0996,3.19922 0.0996,1.5 0.5,1.19922 1.10156,0.40039 1.19922,0.0996 0.80078,-0.19922 0.29883,-0.69922 -0.5,-1.5 -2.19922,-3.40039 -0.30078,-1 v -0.90039 l 0.20117,-0.59961 0.69922,0.19922 v 0.40039 l 0.59961,2.5 0.59961,1.09961 0.70117,1.09961 0.90039,0.90039 1.89844,0.70117 2.40039,3.09961 2,1.29883 1.90039,0.40039 5.09961,1.09961 -0.40039,0.20117 -0.79883,0.5 -5.59961,-0.90039 -2.20117,-0.30078 -1,-0.59961 -0.5,0.20117 -0.79883,-0.10156 -3,-1.39844 -0.60156,-0.10156 -0.89844,0.20117 -1.5,0.59961 -1,0.90039 -0.70117,1.5 -0.29883,2.19922 0.19922,2.30078 v 0.0996 l 0.30078,3.59961 0.19922,0.90039 0.30078,0.69922 0.29883,1 0.20117,2.80078 -0.70117,1.80078 -2.09961,2.19922 0.90039,1.30078 1.5,1.39844 2.69922,1.80078 v 0.59961 l -0.29883,0.80078 0.39844,0.29883 1.5,0.10156 2.60156,1.09961 1.39844,1.19922 1,1.70117 0.20117,1.69922 v 0.0996 l -1,1.5 1.69922,0.59961 1.20117,1.5 0.39844,1.90039 -0.39844,2.30078 -1.20117,1.59961 -3.09961,1.5 -1.5,1.40039 -0.40039,1 -0.40039,1.90039 -0.29883,0.79883 -0.40039,0.5 -0.80078,0.70117 -1.59961,1.89844 -0.19922,0.5 -0.0996,0.80078 0.0996,1.80078 v 0.79883 l -0.20117,0.70117 -1.09961,2.79883 v 0.40039 0.90039 l -0.0996,0.29883 -0.5,0.10156 -0.19922,0.19922 -3.10156,4.09961 -1.89844,1.30078 -0.90039,0.90039 -0.40039,1.5 -0.0996,1.69922 -0.30078,1.09961 -0.90039,2 -0.19922,0.70117 -0.0996,0.59961 v 1.79883 l 0.19922,0.90039 0.59961,1.70117 0.10156,0.0996 0.0996,0.69922 0.19922,0.70117 1.70117,3.39844 v 0.60156 l -0.20117,0.29883 -0.0996,0.30078 -0.80078,0.79883 -0.89844,-0.0996 -0.80078,-0.69922 -0.59961,-0.90039 -0.20117,-0.80078 0.10156,-1.89844 -0.10156,-0.90039 -0.19922,-0.90039 -0.30078,-0.80078 -0.69922,-1.09961 -0.19922,-0.5 -0.5,-0.90039 -0.40039,-0.39844 -0.20117,0.89844 -0.29883,0.30078 -0.5,0.0996 -1,-0.0996 -0.59961,0.69922 -0.30078,1.40039 -0.19922,3 0.29883,3.20117 0.80078,2.89844 1.40039,2.5 4.39844,5.40039 1,0.40039 0.40039,0.5 0.30078,1.09961 0.19922,1.09961 0.20117,0.70117 0.29883,0.29883 0.40039,0.20117 0.90039,0.0996 -0.20117,0.59961 v 0.5 l 0.20117,0.59961 0.29883,0.5 -0.5,0.70117 v 1.40039 l 0.20117,1.19922 0.5,0.59961 1,0.30078 2,1.09961 1,0.19922 -0.59961,-1.29883 -0.10156,-0.40039 0.10156,-0.69922 0.19922,-1.5 v -0.70117 l -1.40039,-1.19922 -0.69922,-1.90039 -0.5,-1.90039 -0.40039,-0.90039 -0.40039,-0.39844 -0.40039,-0.80078 -0.19922,-0.90039 -0.0996,-0.69922 v -0.59961 -0.40039 l 0.19922,-0.5 0.40039,-0.70117 0.80078,-1.09961 0.89844,-1 1.10156,-0.79883 1.09961,-0.5 1.79883,-0.10156 1,0.5 0.80078,2.30078 1,0.59961 2.09961,0.59961 5.59961,3.5 1.5,1.5 2.70117,4.20117 0.40039,0.29883 h 1.69922 l 0.5,0.20117 1.09961,0.90039 1,0.39844 1.09961,0.20117 0.5,-0.20117 0.30078,-0.39844 0.19922,-0.30078 0.30078,-0.19922 0.30078,-0.70117 -0.20117,-1.5 -0.19922,-1.69922 0.59961,-1.20117 -0.69922,-1.19922 0.29883,-1 0.40039,-0.90039 -0.19922,-1 -0.5,-0.79883 -0.60156,-0.40039 -0.69922,-0.20117 h -0.80078 l -0.29883,-0.59961 -0.30078,-1.19922 -0.5,-1.90039 0.20117,-0.90039 0.29883,-1 0.40039,-0.79883 0.19922,-0.40039 0.80078,0.19922 0.30078,0.59961 0.19922,0.90039 0.5,1.20117 0.40039,0.5 0.5,0.5 3.5,1.69922 0.69922,0.0996 0.80078,-0.40039 1.09961,-1.5 0.69922,-0.39844 -0.39844,3.19922 1.69922,2.80078 2.40039,1.59961 1.79883,-0.40039 -0.5,-1.19922 0.20117,-1.40039 0.5,-1.20117 0.69922,-0.59961 v 0.40039 l 0.70117,0.30078 0.0996,0.79883 -0.20117,1.09961 0.10156,0.80078 v 0.0996 l -0.20117,0.30078 -0.0996,0.19922 0.0996,0.20117 0.20117,0.0996 0.0996,0.0996 h 0.19922 v 0.59961 l 1.5,0.20117 2.20117,-0.30078 3.69922,-2.90039 2.40039,-1.09961 0.5,-0.30078 -1.59961,-1.69922 0.59961,-0.5 0.29883,-0.0996 -0.0996,-0.30078 -0.19922,-0.79883 0.69922,-0.70117 0.59961,-0.90039 0.20117,0.20117 v 0.29883 l 0.0996,0.60156 -0.19922,-0.40039 -0.20117,-0.0996 -0.59961,1 0.30078,0.5 0.29883,0.29883 0.30078,0.0996 0.40039,-0.29883 -0.10156,-0.20117 h -0.0996 l -0.0996,-0.39844 3.30078,0.5 1,-1.70117 1.29883,-0.19922 4.30078,0.40039 0.79883,-0.40039 0.5,-1.40039 0.10156,-1.30078 -0.10156,-1.69922 -0.19922,-1.59961 -0.40039,-0.90039 0.59961,-2.30078 1.40039,1.30078 0.70117,0.19922 0.79883,-0.29883 -0.0996,-0.40039 v -0.0996 l -0.19922,-0.0996 0.69922,-0.30078 0.69922,0.19922 0.70117,0.40039 0.79883,0.30078 14.90039,1.09961 4,-1.09961 0.20117,-1.5 0.59961,-1.30078 0.0996,-0.29883 v -2.20117 l 0.19922,-0.40039 0.30078,-0.0996 0.30078,0.0996 1.69922,0.90039 0.40039,0.0996 0.69922,-0.19922 0.30078,-0.19922 0.19922,-0.20117 0.70117,-1.79883 0.29883,-0.30078 1.5,-0.69922 0.30078,-0.30078 0.40039,-0.40039 0.19922,-0.29883 1,-1.5 1.30078,-2 0.59961,-0.5 0.90039,-0.20117 2,-1 1.29883,-0.90039 1,-1 0.59961,-0.89844 1.10156,-1.80078 0.79883,-0.69922 0.59961,-0.20117 0.30078,-0.29883 0.19922,-0.40039 0.10156,-0.59961 v -0.30078 -0.19922 l -0.10156,-0.20117 -0.0996,-0.29883 -0.0996,-0.30078 v -0.59961 l 0.0996,-0.40039 0.20117,-0.19922 0.59961,-0.5 2.59961,-3.20117 4.09961,-3.79883 0.5,-0.20117 1.20117,-0.29883 0.69922,0.19922 0.19922,0.0996 0.5,0.30078 0.10156,0.29883 0.29883,0.10156 0.40039,-0.10156 1,-0.59961 0.30078,-0.40039 0.29883,-0.39844 0.20117,-0.80078 0.19922,-0.40039 0.30078,-0.59961 0.29883,-0.30078 1.40039,-0.59961 0.40039,-0.59961 0.69922,-0.5 1.30078,-0.30078 0.5,-0.19922 1,-0.69922 0.59961,-0.70117 0.5,-0.59961 0.19922,-0.40039 v -0.40039 -0.29883 -0.30078 l -0.0996,-0.19922 -0.19922,-0.20117 -1.09961,-1.59961 -0.10156,-0.29883 v -0.20117 -0.29883 -0.10156 -0.0996 -0.29883 l -0.0996,-0.20117 -0.40039,-1 -0.59961,-1 -0.79883,-1.40039 -0.80078,-2.09961 -0.0996,-0.59961 -0.0996,-0.30078 -0.10156,-0.29883 -0.0996,-0.20117 -0.5,-0.59961 -0.19922,-0.19922 -0.0996,-0.30078 v -0.29883 l -0.10156,-0.30078 -0.19922,-0.19922 -0.69922,-0.40039 -0.20117,-0.20117 -0.0996,-0.29883 -0.0996,-0.30078 v -0.29883 -0.5 l 0.19922,-0.20117 0.30078,-0.19922 0.5,-0.0996 1.90039,-0.10156 0.69922,-0.0996 0.40039,-0.19922 0.40039,-0.40039 2.5,-3.90039 0.29883,-0.59961 0.20117,-0.59961 0.19922,-0.40039 0.19922,-0.19922 0.40039,-0.30078 0.5,-0.59961 0.30078,-0.20117 0.69922,-0.29883 0.20117,-0.20117 1.19922,-1.29883 0.19922,-0.40039 0.10156,-0.40039 0.19922,-1.29883 0.0996,-0.60156 0.30078,-0.29883 0.19922,-0.20117 2.09961,-0.79883 -2.59961,-5.30078 -1,-1 -1,-0.5 -0.29883,-0.19922 -0.10156,-0.59961 -0.0996,-0.80078 -0.29883,-0.69922 -0.40039,-0.20117 -7.5,-1.5 -2,-1.09961 -0.5,-0.40039 -2.5,-2.09961 -1.80078,-0.59961 -1.90039,-1.40039 -0.69922,-0.69922 -0.30078,0.39844 -0.5,0.40039 -0.19922,0.40039 -0.69922,-0.59961 -1.20117,0.29883 -0.59961,-0.29883 0.19922,-0.40039 0.40039,-1.40039 -0.79883,-0.5 -1.30078,-1.90039 -0.90039,-0.39844 -7.90039,-0.60156 -1,0.5 -1.29883,1.60156 -0.90039,0.79883 0.19922,0.30078 0.20117,0.40039 0.19922,1 -1.19922,0.19922 -0.80078,1 -0.69922,1.30078 -1.09961,0.89844 -3.60156,1.60156 -2.09961,0.19922 -0.79883,0.0996 -0.60156,-0.0996 -0.29883,-0.30078 -0.80078,-1.19922 -0.29883,-0.30078 -8.60156,-0.69922 -0.69922,-0.69922 -0.5,-0.60156 -0.5,-0.0996 -0.80078,0.40039 h -2.19922 l -2.09961,-0.59961 -2.59961,-0.70117 -3.40039,-1 h -1 l -2.70117,0.60156 -0.5,-0.20117 -0.29883,-0.5 -0.30078,-0.59961 -0.29883,-0.40039 h -0.30078 l -0.90039,0.0996 -0.40039,-0.0996 -0.29883,-0.59961 -0.59961,-1.09961 -1,-1.80078 -0.40039,-0.19922 -0.40039,-0.70117 -2.80078,-2 v -0.5 h 1 l 0.60156,0.5 1,1.20117 1.69922,1.69922 1.69922,1.20117 1.80078,0.59961 4.19922,-0.0996 7.5,2.29883 1.90039,0.0996 1.80078,-0.29883 1.90039,-0.90039 1.59961,-1.09961 0.90039,-0.40039 3.29883,-0.19922 0.70117,-0.5 0.5,-1.20117 0.69922,-2.79883 0.5,-0.90039 0.90039,-0.40039 0.79883,-0.40039 2.60156,-3 2.5,-1.79883 0.29883,-0.80078 0.5,-0.59961 1.20117,-0.30078 h 2.19922 l 2.90039,1.5 1.09961,0.20117 1.09961,-0.30078 3,-2 2.20117,-0.5 1.09961,-0.5 0.90039,-1.69922 2.5,-2.5 v -0.5 l -1.70117,-1.5 -0.40039,-0.20117 -1.59961,-1.5 -1,-0.59961 -4.29883,-0.30078 -0.30078,-0.59961 -0.40039,-0.19922 -0.40039,-0.0996 -0.5,-0.20117 -0.0996,-0.29883 -0.19922,-1.20117 -0.20117,-0.19922 h -1.09961 l 0.70117,-0.90039 0.59961,-1.30078 0.40039,-1.5 -0.10156,-1.59961 -0.59961,-1 -1.59961,-0.19922 -0.90039,-0.80078 -0.79883,-0.5 -1.10156,0.20117 -1,0.59961 -0.39844,0.79883 -0.5,0.60156 -9.30078,4.79883 -1.90039,0.40039 -1.90039,1.19922 -1,0.30078 h -0.5 -1.5 l -0.79883,-0.30078 -0.59961,-0.79883 2,0.59961 2,-0.80078 4.89844,-5 1.60156,-1.29883 1.79883,-0.80078 h 0.30078 l 11,-1.69922 2.59961,-0.30078 0.59961,0.0996 0.30078,0.40039 0.40039,0.20117 0.39844,-0.20117 0.90039,-2.29883 0.40039,-0.60156 1.80078,-0.89844 1,-0.70117 0.79883,-1.79883 4.40039,-3.20117 0.69922,-0.90039 0.5,-1.39844 0.80078,-1 0.30078,-0.60156 v -0.39844 l -0.30078,-1.20117 v -0.69922 l 0.40039,-1.20117 0.69922,-0.89844 0.5,-1 0.59961,-3.80078 0.20117,-0.5 0.40039,-0.90039 0.89844,-1 0.80078,-0.69922 2.59961,-1.70117 0.70117,-0.89844 1.09961,-2 1.29883,-1.80078 1.60156,-1.30078 0.69922,-1 0.30078,-1.5 0.19922,-0.5 0.80078,-1.09961 0.29883,-0.5 v -1 l -0.29883,-0.69922 -0.20117,-0.5 -0.19922,-0.70117 0.69922,-3.09961 1.40039,-3.09961 4.19922,-6.80078 v -0.0996 l 0.80078,-1.59961 -0.0996,-0.69922 -0.90039,-0.70117 -0.19922,-1.59961 0.29883,-1.80078 1.09961,-4.5 3,-8 1.20117,-1.89844 4.90039,-4.60156 0.19922,-1.19922 0.80078,-1.59961 1.89844,-2.59961 1.10156,-1 0.29883,-0.5 -0.59961,-0.20117 -0.40039,-0.40039 -0.0996,-0.79883 0.30078,-0.59961 0.69922,-0.10156 -1.30078,-1.5 -0.5,-1 0.20117,-1.09961 v -0.5 l -0.80078,-1.40039 -0.19922,-1.5 -0.20117,-1.59961 -0.39844,-1.5 -4,-4.5 -0.5,-1.19922 -0.30078,-0.30078 -0.59961,-0.0996 -0.80078,0.69922 h -0.59961 l -0.40039,-0.5 -0.40039,-0.89844 -0.29883,-0.70117 v -0.29883 l -5.20117,-0.20117 -0.69922,0.20117 -2.80078,2.09961 -1.19922,0.29883 -1,-0.39844 -2,-1.30078 -1,-0.0996 -0.40039,0.0996 -0.5,0.40039 -0.29883,0.5 -0.20117,0.5 -0.19922,0.40039 -0.59961,-0.20117 -0.90039,-0.5 -0.40039,0.0996 -0.80078,0.80078 -0.5,0.30078 -0.5,-0.10156 -0.5,-0.39844 -0.29883,-0.20117 -0.40039,0.70117 -2.19922,-1.10156 -0.80078,-0.0996 -0.59961,0.40039 -0.40039,0.59961 -0.30078,0.20117 -0.79883,-1.20117 h -1.5 l -4,-1.40039 -1.59961,0.80078 -0.40039,-0.5 h -0.40039 l -0.40039,0.30078 -0.5,0.19922 -0.5,-0.19922 -0.5,-0.80078 -0.29883,-0.19922 h -3 -4.40039 l -0.80078,0.19922 -2.90039,2.19922 -1.89844,0.60156 -2,-0.10156 -6.20117,-2.19922 -3.5,-2.30078 -5.79883,-0.19922 -0.60156,0.0996 -1.19922,0.80078 -0.59961,0.29883 -0.59961,-0.19922 -0.5,-0.19922 -0.40039,0.0996 -0.40039,0.90039 0.19922,1 -0.39844,1.09961 -0.80078,0.90039 -0.59961,0.5 -0.90039,0.19922 -1,-0.0996 -1.69922,-0.59961 1,2.29883 -0.70117,0.20117 -0.69922,0.29883 h -0.59961 l -0.60156,-0.5 0.40039,-0.40039 0.20117,-0.39844 0.39844,-1 -2.79883,0.69922 -3.30078,2.5 -3.90039,2.90039 -1.39844,0.40039 -4.5,-0.40039 -4.30078,0.69922 -1.30078,-0.0996 1.70117,1.59961 0.59961,0.90039 -0.90039,0.40039 -0.59961,0.19922 -0.80078,0.5 -0.69922,0.70117 -0.80078,1.29883 -0.5,0.20117 -1.09961,0.0996 v 0.29883 l -0.40039,0.60156 -0.69922,0.89844 -1,0.5 h -0.90039 l -1.59961,-0.5 0.5,-0.69922 0.5,-0.90039 0.90039,-2 -0.59961,-0.40039 -0.60156,-0.0996 h -1.39844 v -0.69922 h 2.59961 l 1.09961,0.40039 0.30078,-0.10156 -0.5,-0.79883 0.79883,-1.09961 0.90039,-0.5 2.19922,-0.20117 -0.19922,-0.19922 -0.0996,-0.30078 -0.20117,-0.29883 -0.0996,-0.40039 1.59961,-2.70117 1.40039,-1.09961 1.30078,-1.69922 1,-1.80078 -0.20117,-1.09961 -0.69922,0.0996 -2.09961,1.30078 -0.59961,0.69922 -0.70117,0.59961 h -1 l -2.40039,-0.5 -0.59961,-0.79883 -0.59961,-0.20117 h -0.30078 l -2,1 -1.79883,1.90039 -2.20117,1.40039 -0.5,0.80078 -0.5,0.79883 -0.69922,0.90039 -0.69922,0.69922 -1.40039,0.60156 -0.59961,0.5 -0.30078,-0.10156 0.40039,-1.29883 0.40039,-0.90039 0.39844,-0.59961 3.10156,-3.09961 0.59961,-0.30078 0.79883,-0.5 0.30078,-1.19922 0.30078,-1.10156 h 0.79883 l 0.90039,0.20117 3,-0.90039 1.19922,-0.0996 0.60156,-0.20117 3.69922,-3.39844 1.59961,-0.60156 1.30078,1.30078 -0.59961,1.30078 0.19922,0.89844 0.69922,0.40039 1,-0.19922 0.60156,-0.70117 1.19922,-1.89844 1.09961,-0.80078 6.40039,-8.5 0.30078,-0.69922 0.0996,-1.5 -0.30078,-0.80078 -0.5,-0.0996 -0.69922,0.79883 -1.40039,2 -1.69922,1.60156 -1.70117,0.79883 -1.5,-0.5 0.59961,-1.09961 -0.79883,-1.09961 -1.5,-0.40039 -2.70117,2.09961 -1.59961,-0.40039 -3,-2.09961 0.30078,1.5 h -0.80078 l -1.09961,-0.79883 -0.80078,-1 -0.79883,-0.80078 -1,0.19922 -1.90039,0.90039 -1.80078,-0.40039 -1.5,-1.29883 -2.5,-3.70117 1,0.30078 0.90039,0.80078 1.5,2.19922 1,0.69922 3.80078,-1 1.29883,0.40039 2.70117,1.40039 h 1.29883 l 0.40039,-0.30078 0.80078,-1.19922 0.40039,-0.30078 h 0.69922 l 1.40039,0.5 0.79883,0.10156 -0.19922,-1.10156 0.19922,-0.89844 1,-1.60156 -1,-1.69922 -0.29883,-0.40039 -0.80078,-0.40039 h -1.40039 l -0.69922,-0.59961 -0.40039,-0.79883 -0.19922,-0.70117 0.29883,-0.29883 1.30078,0.79883 1.19922,0.0996 0.70117,0.40039 -0.40039,0.5 0.30078,0.20117 0.69922,0.5 0.0996,-0.90039 0.0996,-0.80078 0.30078,-0.5 0.5,-0.29883 3,-2.10156 1.5,-0.29883 1.09961,-0.70117 0.5,-0.39844 0.20117,-0.70117 0.5,-1.79883 0.39844,-0.90039 0.90039,-0.90039 3.40039,-1.80078 10.30078,-8.5 2,-2.19922 0.89844,-1.5 0.30078,-1.5 0.40039,-0.80078 2.5,-2.59961 1.69922,-1 4.09961,-1.5 1.90039,-1.09961 1.80078,-2.09961 2.5,-3.59961 2,-4 0.5,-3.20117 0.40039,-0.0996 0.5,-0.5 0.19922,-0.80078 -0.19922,-1.09961 -0.40039,-0.5 -0.40039,0.0996 -0.5,0.30078 -0.59961,0.0996 -1,-0.59961 -0.5,-1.09961 v -1.40039 l 0.5,-1.80078 0.40039,-0.59961 1.19922,-1.19922 0.40039,-0.70117 0.69922,-1.69922 0.59961,-0.69922 0.20117,-1.30078 0.90039,-1.90039 0.29883,-1.59961 -1.59961,-0.69922 -3.09961,0.59961 h -1.59961 l -2.40039,-1.80078 -1.90039,0.20117 -3.09961,1 h -1.40039 l -0.30078,-0.40039 -0.19922,-0.80078 -0.0996,-0.79883 -0.20117,-0.5 z m -137.5,86.60156 -0.20117,0.29883 -0.0996,0.0996 -0.40039,0.20117 -0.59961,-0.30078 -0.29883,0.59961 -0.30078,1 -0.40039,1.10156 -0.29883,0.29883 -1.90039,1.30078 -0.30078,0.0996 -0.0996,0.30078 v 1 l 0.19922,0.59961 0.40039,0.5 0.30078,0.69922 -0.20117,1.20117 0.30078,0.29883 0.5,0.30078 0.5,0.0996 0.59961,-0.0996 -0.59961,1.79883 -0.59961,0.80078 -0.20117,0.90039 0.80078,1.79883 1.59961,2 0.59961,1.10156 v 1.19922 l 0.20117,0.30078 0.19922,0.59961 0.30078,0.29883 v 0.5 l -3.59961,-4.69922 -0.60156,-0.30078 -0.59961,1.70117 -1,1.29883 -0.40039,-0.19922 1,-2.59961 -0.79883,0.0996 -0.59961,0.30078 -0.60156,0.0996 -0.69922,-0.70117 -0.5,-0.79883 -0.5,-0.5 -2.19922,-1.20117 -0.30078,-0.29883 -0.5,-0.5 -0.0996,-0.59961 -0.0996,-0.80078 -0.20117,-0.69922 -1,-0.70117 -0.5,-0.79883 -0.69922,-0.70117 h -1 v 0.70117 l 0.59961,0.69922 -0.0996,1.30078 -0.5,1.29883 -0.59961,0.80078 1.09961,0.40039 1.5,0.89844 1.09961,1.40039 0.5,1.59961 -1.40039,-0.69922 -0.79883,-0.0996 -0.40039,0.5 -0.0996,0.29883 -0.40039,0.10156 -0.0996,0.39844 0.0996,0.30078 0.40039,0.69922 0.0996,0.30078 0.0996,0.19922 0.80078,1 -0.20117,0.10156 -0.19922,0.29883 -0.20117,0.0996 v 0.60156 l 0.30078,1.09961 -0.59961,-0.20117 -0.90039,-0.59961 -0.40039,-0.59961 -0.29883,-0.80078 -2.5,-3.69922 -0.40039,-0.19922 -0.5,0.19922 -0.59961,0.90039 -0.40039,1.09961 0.0996,1.09961 0.40039,0.90039 0.69922,0.80078 h -2.90039 l 0.5,1.89844 2,1.5 0.40039,2.30078 0.30078,1.19922 0.90039,1.10156 1.09961,0.69922 4.29883,1.5 0.80078,-0.69922 0.0996,-0.90039 -0.5,-1.59961 0.0996,-1 0.40039,-0.70117 0.5,-0.19922 0.59961,-0.40039 0.40039,-1.09961 0.40039,0.59961 0.19922,0.80078 -0.0996,0.79883 -0.19922,0.80078 0.59961,-0.40039 0.90039,-1.19922 0.69922,-0.20117 -0.19922,1 0.0996,0.70117 0.30078,0.39844 0.39844,0.30078 -0.0996,0.30078 -0.0996,0.0996 -0.40039,0.19922 0.90039,0.5 0.40039,0.0996 v 0.60156 l -0.70117,0.5 h 0.60156 l 1,-0.40039 0.59961,-0.0996 0.5,0.0996 0.29883,0.29883 0.60156,0.70117 3,2.5 0.59961,1.09961 -1.30078,-0.19922 -1,-0.90039 -0.79883,-1.09961 -0.80078,-0.70117 -1.09961,-0.19922 -0.90039,0.40039 -2.19922,1.59961 0.19922,0.59961 0.19922,0.30078 0.20117,0.19922 0.19922,0.30078 0.0996,0.39844 0.30078,0.80078 0.0996,0.30078 2.20117,3 0.79883,0.19922 2.09961,-0.19922 -0.19922,0.69922 -0.40039,0.5 -0.5,0.30078 -0.5,0.19922 0.70117,1.59961 0.89844,1.5 0.80078,-0.59961 0.80078,-0.5 0.79883,-0.19922 0.90039,0.0996 v 0.5 l -1.5,1.90039 -0.5,0.5 v 0.59961 l 6.59961,-1.70117 0.80078,-0.59961 -0.59961,-0.69922 v -0.5 h 0.39844 l 0.40039,0.19922 0.40039,0.40039 0.40039,0.59961 0.29883,-0.5 0.30078,-0.0996 0.30078,0.0996 0.29883,0.5 0.0996,1.20117 0.20117,1.79883 0.29883,1.5 0.60156,0.70117 0.69922,-0.40039 0.40039,-0.80078 0.40039,-1 0.59961,-0.69922 -0.40039,-0.59961 0.5,-0.5 0.30078,-0.60156 0.5,-1.29883 -0.5,-1.40039 -0.20117,-0.59961 -0.19922,-0.90039 0.5,0.19922 0.59961,0.80078 1.09961,1.90039 0.0996,0.5 0.10156,0.59961 v 0.5 l 0.29883,0.19922 h 4 l 1.30078,-0.39844 1.29883,-0.70117 v 0.5 l -4.5,2.30078 -0.59961,0.59961 -0.40039,0.5 -0.79883,1.69922 -0.40039,0.40039 -0.0996,0.40039 -0.20117,0.80078 -0.0996,0.19922 -0.29883,0.19922 v 0.60156 l 0.0996,0.79883 -1.20117,1.80078 -0.19922,1.5 0.5,1.09961 0.59961,0.30078 2.5,-0.40039 0.90039,-0.70117 0.69922,-0.69922 2.80078,-3.90039 0.40039,-0.69922 0.40039,-0.40039 1,-0.59961 1,-0.80078 0.39844,-1.19922 0.10156,-1.90039 0.29883,-0.5 1.90039,-0.19922 0.69922,-0.40039 1.70117,-1.5 1,-1.30078 0.29883,-0.69922 0.20117,-0.80078 -0.20117,-0.90039 v -0.59961 l 0.70117,-2.19922 h -3.40039 l -0.80078,-1.09961 h -1.39844 l -1.30078,0.5 -1.30078,1.39844 -2,-0.0996 -0.19922,0.30078 -0.30078,0.59961 -0.39844,0.40039 -0.70117,-0.0996 -0.29883,-0.5 -0.30078,-0.80078 -0.5,-0.80078 -0.69922,-0.29883 -1.20117,0.0996 h -0.59961 l -0.40039,-0.40039 -1.09961,-1.09961 -0.90039,0.19922 -1.09961,0.5 -1.19922,0.10156 v -0.60156 l 1.19922,-0.5 0.5,-0.79883 -0.19922,-0.70117 -1.10156,-0.29883 -4,0.5 0.70117,-0.59961 1.5,-1 0.40039,-0.70117 -0.30078,-0.69922 -0.69922,-0.59961 -0.70117,-0.90039 -0.19922,-1.40039 0.19922,-0.59961 0.5,-0.70117 0.30078,-0.79883 -0.40039,-0.90039 -0.69922,-0.19922 -0.80078,0.29883 -0.80078,0.5 -0.59961,0.59961 0.5,-0.79883 1.20117,-1.20117 0.19922,-0.69922 0.0996,-1.19922 0.5,-1.90039 0.0996,-1.30078 -0.0996,-1.19922 -0.40039,-2.70117 -0.5,-6 -0.19922,-0.79883 -0.5,-0.80078 -0.90039,-1.19922 -2.09961,-1.80078 -0.0996,-0.40039 -1.20117,-1.89844 -0.39844,-0.60156 -1.10156,-1 -0.39844,-0.5 z m 16.29883,10.89844 -0.29883,0.10156 -0.30078,0.39844 -0.40039,0.5 0.10156,0.30078 0.0996,0.0996 0.19922,0.30078 -0.59961,1.09961 -0.0996,1.09961 0.29883,0.90039 0.70117,0.40039 v -1.40039 l 0.59961,-3.30078 z m -2.19922,5.80078 0.59961,1.19922 v 0.70117 l -0.90039,-0.59961 h -0.5 l -0.5,0.59961 0.40039,0.90039 0.20117,0.39844 0.29883,0.5 v 0.5 l -1.29883,0.20117 -0.80078,0.69922 -0.30078,1.5 -0.39844,5.59961 0.0996,1.40039 0.5,0.70117 -0.0996,0.39844 -0.10156,0.20117 -0.0996,0.69922 0.80078,0.5 0.69922,-0.29883 0.80078,-0.60156 0.69922,-0.29883 0.80078,-0.59961 -0.20117,-1.40039 -0.69922,-1.5 -0.40039,-0.59961 v -2.70117 l 0.70117,-3 0.79883,-2.59961 0.0996,-1.30078 -0.19922,-0.5 -0.30078,-0.29883 -0.29883,-0.30078 z m 0.90039,16.19922 -1.09961,0.70117 0.29883,1.19922 1,1.09961 1.30078,0.5 1.5,-0.59961 -0.20117,-1.29883 -1.19922,-1.30078 z m -25.59961,21.80078 -0.90039,0.19922 -1.59961,1 -0.80078,0.60156 1.19922,0.29883 1.5,0.0996 1.60156,-0.29883 1.19922,-0.70117 -0.59961,-0.39844 -1.09961,-0.30078 z m 9.89844,1.19922 -1.79883,0.30078 -1.5,1.19922 -2.80078,3.20117 0.90039,0.5 1.40039,1.59961 0.69922,0.30078 0.70117,0.5 0.79883,2 0.80078,0.5 1.79883,-0.20117 1.30078,-0.79883 0.90039,-1.80078 0.59961,-3.09961 h -1.19922 v -0.59961 l 0.89844,-0.80078 -1.09961,-1.19922 z m -6.39844,31.5 -1.30078,0.30078 -0.80078,0.19922 -1.39844,1.30078 -1.10156,0.40039 -1.5,1.19922 -0.5,0.70117 -2.09961,3.5 -1.29883,1.19922 -1.30078,0.19922 0.30078,0.90039 0.5,1 0.39844,0.5 0.20117,-0.90039 0.19922,-0.79883 h 0.5 l 1.20117,0.5 0.79883,-0.30078 2.40039,-2 1.69922,-2.40039 h 0.60156 l 0.5,-0.29883 0.29883,-0.30078 0.40039,-0.5 0.30078,-0.69922 0.69922,-1.70117 0.40039,-0.79883 0.29883,-0.90039 z m 16.09961,3.20117 -1.59961,0.19922 -1.80078,0.59961 -1.40039,1.10156 -0.0996,1.59961 -0.40039,0.40039 h -0.29883 l -0.5,-0.40039 -0.40039,-0.59961 -0.70117,0.69922 -0.79883,0.30078 -1.70117,0.19922 0.30078,1 0.90039,1.09961 0.40039,0.80078 -2.20117,1.69922 0.59961,0.59961 0.80078,0.60156 0.90039,0.5 4.40039,0.69922 1,0.59961 0.5,0.59961 0.5,0.80078 0.69922,1.80078 0.5,0.39844 0.40039,-0.19922 0.40039,-0.40039 0.29883,-0.19922 1,-0.0996 3,-1.60156 0.5,0.5 0.20117,0.70117 -0.10156,0.79883 -0.19922,0.90039 -0.59961,0.5 -2.80078,1.30078 -1.59961,-0.20117 -0.5,0.20117 -0.40039,0.5 -0.19922,0.59961 -0.20117,0.59961 -0.59961,1.80078 -0.40039,0.40039 -0.59961,0.0996 -0.5,0.29883 -0.5,0.60156 -0.19922,0.79883 0.19922,1 0.90039,0.80078 1.19922,0.0996 2.30078,-0.59961 2.69922,-1.59961 1,-0.20117 0.30078,0.40039 -0.90039,0.90039 -2.09961,1.59961 -3.30078,0.69922 -0.79883,0.70117 -0.70117,0.40039 -2.09961,-0.5 -0.90039,0.39844 0.30078,0.20117 0.0996,0.0996 0.20117,0.19922 0.39844,0.10156 v 0.59961 l -0.89844,0.59961 -0.60156,-0.80078 -0.59961,-1.19922 -0.79883,-0.90039 -0.90039,-0.19922 -1.20117,0.29883 -1,0.70117 -0.39844,1.19922 0.29883,1.5 0.59961,1.30078 0.90039,1 1.30078,0.69922 0.90039,0.40039 h 0.59961 l 0.5,-0.30078 0.29883,-0.5 0.20117,-0.59961 0.29883,-0.29883 h 4.30078 l 0.5,-0.30078 1.19922,-0.69922 0.40039,-0.20117 0.59961,0.20117 0.60156,0.39844 0.5,0.10156 0.59961,-0.40039 0.79883,-0.90039 3.70117,-1.90039 1.59961,-0.40039 0.40039,-0.29883 0.29883,-0.59961 0.30078,-0.60156 0.19922,-0.19922 1.20117,-0.40039 0.59961,-0.0996 0.40039,0.5 -0.0996,0.69922 -0.40039,0.80078 -0.59961,0.5 -0.30078,0.30078 1.5,1 1.90039,-0.5 4.09961,-2.80078 0.90039,-1 0.29883,-0.90039 -0.79883,-0.40039 -1.80078,0.20117 -0.79883,0.40039 -0.70117,0.59961 v -0.70117 l 1.5,-1.29883 0.59961,-1 -0.19922,-1.09961 0.40039,-0.10156 0.29883,0.10156 0.30078,0.0996 0.19922,0.40039 v 0.89844 l 0.60156,0.30078 h 1.59961 l 0.59961,-0.5 -0.40039,-1.19922 -0.69922,-1.20117 -0.40039,-0.59961 0.90039,0.19922 0.40039,0.10156 0.39844,0.29883 0.20117,-1.69922 -0.5,-0.30078 -0.70117,0.20117 -0.29883,-0.20117 -0.20117,-1 -0.59961,-1 -0.59961,-0.79883 -0.5,-0.40039 -0.30078,-0.0996 -0.89844,0.19922 -0.5,-0.0996 -0.40039,-0.40039 -1,-1.59961 -0.30078,-0.30078 -0.5,-0.0996 -0.5,0.0996 -0.69922,0.5 -0.30078,-0.29883 -0.40039,-0.5 -0.29883,-0.30078 h -4.70117 l -0.5,-0.19922 -0.0996,-0.40039 v -0.59961 l -0.19922,-0.60156 -1.90039,-4.59961 -1.09961,-1.69922 -1.5,-0.0996 0.0996,-0.40039 0.0996,-0.90039 0.0996,-0.40039 -2.19922,-0.69922 z m -30.40039,9 -2.40039,0.90039 -1.09961,0.29883 -1.69922,1.09961 -1.10156,0.40039 -3.09961,0.5 -1,0.59961 0.40039,1.40039 0.30078,1.30078 0.39844,1 3,1.40039 0.90039,-0.10156 -0.19922,-1.5 0.79883,-1.5 1,-0.39844 1.10156,-0.20117 0.89844,-0.79883 0.10156,-1.40039 2.79883,-0.40039 0.70117,-1.09961 -0.60156,-1.5 z m 25.19922,3.79883 -0.59961,0.30078 -0.5,0.59961 -0.5,0.80078 1.20117,1.09961 1.19922,0.19922 2.40039,-0.0996 -0.5,-1 -1.40039,-1.19922 -0.69922,-0.70117 z m 34,7 -0.39844,0.5 -0.70117,0.10156 h -1.5 l -0.69922,0.89844 -0.30078,0.60156 -0.19922,0.79883 h 1.19922 l 1.09961,-0.5 0.80078,-0.90039 z m -3.79883,8.10156 -0.59961,0.29883 -1.10156,-0.19922 -0.59961,0.5 -0.59961,1.59961 0.30078,1.40039 0.89844,0.59961 1,-0.69922 -0.29883,-1.10156 0.29883,-0.69922 0.40039,-0.69922 z m -2.30078,5.19922 -0.59961,0.69922 -0.5,2 -0.5,0.80078 0.90039,2.30078 0.5,0.5 0.40039,-2.70117 0.5,-1.19922 0.39844,-1.20117 -0.0996,-1.19922 -0.29883,0.5 h -0.20117 l -0.19922,-0.19922 z m -2.59961,5.19922 -1.59961,1.30078 -0.70117,0.80078 -0.5,1.29883 1.10156,-0.0996 1.5,-0.5 0.89844,-0.90039 -0.29883,-1.29883 z m -1.30078,4.10156 -1.39844,1 -2.40039,2.39844 -3.59961,3.60156 -1.40039,0.39844 -0.90039,0.80078 -1.5,1.80078 -1.30078,2.09961 -0.59961,1.90039 0.70117,1.39844 1.59961,-0.0996 1.69922,-0.5 1.20117,0.0996 -1.60156,1.30078 -3.59961,0.69922 -1.40039,1.20117 -0.79883,0.79883 -0.80078,0.40039 -0.69922,0.59961 -0.40039,1.30078 -0.0996,1.5 0.40039,4 0.69922,2.09961 1.69922,1.09961 1.80078,0.10156 1.19922,-0.80078 0.30078,-1.30078 0.5,-3.19922 0.30078,-0.69922 0.79883,-0.40039 1.20117,-1.40039 0.5,0.0996 1,-3.29883 3.89844,-7.90039 1.90039,-4.59961 0.90039,-1 0.69922,-1.30078 0.80078,-0.69922 v -1 l -0.0996,-1.20117 -0.20117,-0.79883 z m -20.29883,2.39844 -0.70117,0.30078 -0.79883,0.0996 0.0996,0.59961 0.0996,0.20117 0.20117,0.29883 -0.40039,0.40039 -0.80078,-0.29883 -0.29883,0.19922 -0.30078,0.5 -1,1.30078 -0.40039,1 -0.19922,1.19922 -0.40039,0.90039 -0.69922,0.59961 1,0.5 1.19922,0.0996 1.30078,-0.40039 1,-0.69922 -0.20117,-1.5 0.59961,-1.69922 1.5,-2.60156 -0.19922,-1 z m 0.5,15.40039 -0.5,0.5 -0.59961,0.59961 -0.70117,0.40039 -0.59961,0.20117 -0.59961,0.29883 -1.20117,1.70117 -1.69922,1 -1.5,1.5 -1,1.79883 0.40039,1.70117 v 0.5 l -0.59961,-0.10156 -0.40039,-0.59961 -0.30078,-1.5 v -0.59961 l 0.59961,-2.30078 0.30078,-0.59961 -0.59961,-0.19922 -0.5,0.40039 -0.59961,0.59961 -2.5,1.19922 -1.70117,1.20117 -0.40039,0.69922 -0.0996,1 -0.0996,1.30078 -0.19922,0.79883 -0.30078,0.5 -0.69922,0.59961 1.59961,1.10156 -2.09961,3.09961 -0.5,1.40039 0.29883,0.0996 0.20117,0.40039 0.19922,0.0996 -0.59961,1.5 -0.0996,1.40039 0.59961,0.69922 1.29883,-0.19922 0.60156,-0.70117 1.5,-2.19922 1.5,-1.09961 0.69922,-1.30078 1.09961,-2.90039 0.90039,-0.79883 1.40039,-0.20117 1.29883,0.20117 1,0.5 -2.09961,2.09961 -1.19922,1.5 -0.20117,1.5 h 0.40039 l 1.80078,1 0.59961,0.69922 1,2.90039 -2.5,1.5 -1,1.19922 -0.30078,1.80078 0.70117,1.90039 1.09961,0.40039 1.19922,-0.5 1.10156,-0.90039 0.5,-0.5 0.19922,-0.40039 0.30078,-1.69922 0.59961,-0.30078 2,0.30078 1.40039,-0.40039 1.19922,-0.70117 1.09961,-1 0.80078,-1.29883 0.29883,0.59961 0.20117,-0.69922 0.40039,-0.5 0.5,-0.30078 0.5,-0.30078 v -0.5 l -0.20117,-0.69922 -0.19922,-0.80078 v -1 l 0.0996,-0.89844 -0.80078,-0.40039 -0.29883,-0.30078 -0.20117,-0.5 0.10156,-0.5 0.19922,-0.69922 0.0996,-0.70117 -0.19922,-0.29883 -0.5,-0.30078 -0.70117,-0.69922 -0.59961,-0.80078 -0.29883,-0.79883 -0.20117,-2.5 -0.59961,-4.70117 -0.19922,-3.5 -0.20117,-0.5 -0.29883,-0.40039 z m 45.59961,1.70117 -1.59961,0.79883 v 1.30078 l 0.5,1.5 0.40039,1.19922 0.29883,0.70117 1.59961,1.09961 0.10156,1.09961 0.59961,2.30078 0.5,1.39844 3,2.90039 0.59961,1.40039 0.40039,0.80078 h 0.59961 l 0.30078,-0.5 -0.10156,-0.70117 -0.29883,-0.69922 -0.5,-0.30078 0.5,-1.19922 0.29883,-0.40039 v -0.5 l -0.39844,-2.59961 -0.40039,-1.09961 -0.40039,-1.10156 -0.59961,-1.09961 -0.40039,-0.40039 -0.40039,-0.19922 -0.29883,-0.40039 -0.30078,-1.90039 -0.30078,-0.19922 -0.39844,-0.0996 -0.5,-0.30078 -1.40039,-1.59961 z m -4.90039,16.39844 -1.29883,0.10156 0.0996,0.29883 0.19922,0.59961 0.0996,0.30078 -1.59961,0.30078 -1.5,1.29883 -1.09961,1.70117 -0.59961,1.79883 -0.30078,2.70117 0.40039,2 0.90039,1.69922 1.19922,1.59961 -0.19922,0.40039 -0.0996,0.30078 -0.10156,0.19922 -0.29883,0.19922 v 0.60156 l 0.19922,0.59961 0.5,2.19922 v 0.59961 0.5 l 1.90039,1.70117 1.90039,1.19922 2.19922,0.80078 2.5,0.29883 2.20117,-0.39844 1.19922,-0.60156 0.59961,-0.69922 -0.0996,-1.40039 -0.5,-1.29883 -0.0996,-1.10156 1.09961,-0.69922 -2,-0.90039 -0.30078,-0.29883 -0.29883,-1.10156 0.40039,-0.29883 h 0.69922 l 0.5,-0.30078 -0.0996,-1.79883 -2.09961,-2.10156 0.59961,-1.19922 -1,-4.09961 -0.59961,-1.70117 -1,-1.59961 -0.80078,-0.79883 -3.09961,-1.5 z"
      id="GBSCB" class="land" />
   <path name="Eilean Siar" id="GBELS" class="land"
      d="m 151.25405,349.09436 0.3,0.6 0.1,0.7 0.2,0.7 0.4,0.4 -1.4,-0.1 -0.4,0.3 -0.4,0.6 -0.3,0.4 -0.4,0.3 -0.3,0.2 0.2,0.8 -0.4,0.5 -0.7,0.4 -0.7,0.1 -3.1,-0.6 -0.7,-0.4 v -0.8 l 0.6,-0.8 0.7,-0.4 0.6,-0.4 0.2,-0.9 -0.1,-1 -0.5,-0.6 1.2,-0.8 1.1,-0.3 0.9,-0.7 0.3,-2.4 h 0.3 l 0.1,0.2 0.3,0.4 0.3,0.1 0.3,0.1 0.2,0.2 0.2,0.2 -0.7,1.5 -0.3,0.3 1.5,0.8 z m 7.1,-27.2 0.5,0.6 0.5,0.7 0.5,0.5 0.7,-0.1 -0.2,1.3 -0.4,0.4 -0.6,0.3 -0.5,0.7 -0.3,0.8 -0.5,1.8 -0.3,0.7 -0.9,0.4 -3.7,-1 v 0.6 l 3.1,0.9 0.8,0.8 0.4,1.4 0.2,1.8 -0.1,1.7 -0.5,1 -0.8,-0.5 -0.9,-0.1 h -1.8 v 0.6 l 0.8,0.2 1.7,-0.2 h 0.7 l 0.8,0.7 0.5,0.9 0.6,0.7 1,0.1 v 0.6 l -1.1,1.1 -3.9,-0.8 -1.5,0.9 -1.3,-1.6 -0.4,-0.9 -1.2,-4.6 -0.2,-1.4 0.3,-1 v -0.6 l -0.8,-1.1 -0.5,-0.5 -0.6,-0.1 0.5,-0.7 0.4,-0.7 0.6,-1.6 0.2,-0.9 0.1,-0.8 0.3,-0.5 0.6,-0.2 0.3,-1.2 -0.5,-2.6 -1.3,-3.9 1,-0.7 2.1,-1.1 h 0.4 l 4.2,3 -0.4,0.3 h -0.3 l -0.9,-0.3 v 0.6 l 1,0.2 1.5,1.4 1.1,0.1 v 0.6 l -1.3,0.7 -1,-0.5 -0.9,-0.8 -1.9,-1.2 -1,-1.4 -0.9,-0.9 -1.1,0.6 0.3,0.3 0.3,0.3 0.3,0.5 0.1,0.4 0.1,0.7 0.4,0.2 0.4,-0.1 0.4,0.1 1.1,0.5 0.2,0.2 0.6,1.1 0.7,0.3 h 1.4 z m -1,-13.7 v 0.3 l -0.1,0.1 -0.2,0.2 0.4,0.3 h 0.4 l 0.4,-0.2 0.4,-0.1 0.3,0.1 1.3,1 -0.3,0.6 -0.6,-0.4 -1.1,1 h -0.9 l 0.3,0.9 0.4,0.3 h 1.1 l 0.7,0.3 0.3,0.6 v 0.6 l -4.1,1.2 -1.2,-0.3 -3.7,-2.3 -0.5,-1 0.2,-1.6 0.7,-1.4 0.9,-0.8 h 1.1 l 0.5,0.4 0.6,0.2 0.6,-0.1 0.5,-0.5 0.3,0.4 0.4,0.2 h 0.4 z m 6.3,-14.9 0.7,0.1 h 1 l 0.9,0.5 0.4,1.1 -0.4,0.5 -0.8,1.5 -0.4,0.3 -0.6,-0.1 -0.5,-0.6 -0.3,-0.7 -0.3,-0.3 -0.6,-0.2 -1,-1.1 h -2.1 v 0.7 h 0.5 l 0.3,0.2 0.1,0.4 -0.3,0.5 v 0.7 l 1.4,-0.1 0.4,0.4 0.1,1.2 0.4,0.8 h 0.7 l 1.5,-0.5 -0.9,1.9 -1.1,0.8 -2.8,0.3 -0.3,0.1 -0.7,0.4 h -0.3 l -0.3,-0.3 -0.4,-1.2 -0.2,-0.2 -0.7,0.1 -1.9,1.6 v 0.7 h 3.3 l 2.8,-0.8 0.9,0.1 0.8,0.4 0.3,0.3 0.2,0.5 -0.1,0.6 -1,1.8 -1.9,-0.1 -1,0.1 -0.8,0.7 -0.7,-0.6 -1.7,0.1 -0.8,-0.2 -0.5,-0.3 -0.1,-0.2 -0.6,-1 -0.1,-0.5 -0.3,-0.5 -0.3,-0.4 h 0.4 l 0.9,-0.7 -1.6,-0.1 -2.8,-1.9 -1.4,-0.3 -0.4,0.5 -0.3,0.4 -0.3,0.2 -0.4,-0.1 -0.6,-0.3 -0.7,-0.4 -2.1,-1.5 v -0.6 l 1,-0.8 0.8,-1.5 0.6,-1.7 0.8,-1.5 1,0.6 3.2,-0.6 v 0.6 l -0.4,0.1 -0.9,0.5 0.8,1.2 1.4,-1.4 1.5,-2.2 1.1,-1.1 v 0.6 l -0.3,0.3 -0.2,0.3 -0.5,1.1 2.6,1.1 1,0.1 v -0.6 h -0.4 l -0.6,-0.6 1,-0.4 2.2,-1.7 1.3,-0.2 0.6,0.8 0.1,0.8 -0.3,0.8 -0.8,0.5 0.8,0.5 1.4,-0.7 z m -4.3,-4.9 1.9,-2.2 0.9,-0.2 0.5,0.9 -0.9,1 -1.3,0.6 z m -65.499999,-10.9 0.7,0.6 1.7,0.2 0.8,0.5 -0.8,1 -1,0.2 -1,-0.7 z m 73.799999,-6.1 -0.2,1 -0.3,0.6 -0.5,0.3 -0.6,0.1 0.1,-0.8 v -0.2 h -0.1 v -0.3 l 1.9,-1.9 1.1,-0.5 0.8,0.6 v 1.9 l -0.5,0.3 z m 8,-27.8 h 0.5 0.2 v -0.6 l -0.6,-0.3 -0.5,-0.9 -0.2,-1 0.3,-0.9 0.9,0.4 1.5,1.8 0.5,-0.3 0.4,0.4 0.4,0.5 0.3,0.7 0.2,0.8 h -3.9 z m -3.8,41.8 -0.9,0.9 -0.3,-0.2 -2.4,-2.8 -0.5,-0.3 -2.8,-3.6 -0.5,-0.4 -0.2,-0.6 -0.4,-0.7 v -0.5 l 0.8,-0.2 0.5,0.1 0.4,0.4 0.3,0.7 0.2,1.1 3.8,-3.6 0.6,-1 1.1,-0.3 2.2,0.1 -2.3,-1.8 v -0.6 l 2.4,-1.4 1.4,-0.3 1.4,0.3 0.9,0.7 -0.4,-0.4 -0.5,-0.4 -0.3,-0.3 -0.2,-0.3 -0.1,-0.3 0.9,-0.5 0.3,-0.1 v -0.6 h -2.7 l -0.6,-0.3 -1.3,-1.3 -0.7,-0.3 -2.7,0.1 -1.2,-0.4 -0.4,-1.4 -0.6,0.5 h -0.4 l -2.2,-1.7 0.8,-0.7 0.5,-0.7 0.6,-0.6 1,0.1 v -0.6 l -0.2,-0.2 v -0.1 l -0.1,-0.3 1.4,-0.2 1.5,-0.6 2.8,-1.6 -4.4,1.2 h -1.3 l 0.2,-0.8 0.3,-0.5 0.5,-0.1 0.6,0.2 v -0.6 h -1.3 l 0.4,-0.3 0.3,-0.4 0.3,-0.5 0.3,-0.6 -2.1,1.4 -0.4,0.1 -1.3,-2.9 -0.4,-0.5 0.2,-1 -0.2,-0.4 -0.4,-0.2 -0.2,-0.5 0.1,-1.1 0.5,-0.8 v -0.9 l 0.4,-0.1 0.2,-0.2 0.1,-0.3 0.2,-0.5 -0.3,-0.2 -0.3,-0.3 -0.3,-0.2 v -0.5 l 3.5,-0.3 1,-0.4 -1.2,-0.6 -0.5,-0.5 -0.2,-1 0.1,-1.1 0.2,-0.6 0.9,-1.1 0.7,0.5 1.8,1 0.4,0.1 0.4,-0.3 2.5,1.2 v 0.6 l -1.4,-0.1 0.3,1.2 1,1.6 0.6,0.6 -0.1,1.4 0.5,1.9 0.7,1.6 0.7,0.9 -0.1,-0.8 v -0.5 l 0.1,-1.1 -0.4,-0.6 -0.7,-1.6 -0.2,-0.8 0.4,-0.4 0.2,-0.6 0.1,-0.6 0.1,-0.3 2.1,-0.5 0.4,-0.4 0.8,-0.2 1.2,0.6 1.2,1.1 0.5,1.3 1.3,-1.9 -1.2,-0.7 -0.4,-0.5 -0.2,-0.6 -0.2,-1.3 -0.2,-0.5 -0.3,-0.1 -0.7,0.1 h -0.3 l -0.1,-0.3 -0.2,-0.8 v -0.2 l -0.6,-0.8 -0.2,-0.5 -0.2,-0.5 0.2,-0.2 0.2,-0.2 0.2,-0.1 0.4,-0.1 -0.3,-0.6 -0.2,-0.5 -0.3,-0.1 h -0.5 l 3.8,-3.4 1,-1.5 0.6,0.4 0.3,-0.3 0.3,-0.4 0.4,-0.3 h 1.6 l 1.3,-0.4 2.9,-1.6 0.4,-0.3 1.2,-1.6 8.3,-6.5 2.3,-3.1 1.4,-1.3 1.1,0.1 1,1.1 0.8,1.6 0.6,1.7 0.2,1.4 0.9,1.5 0.1,0.9 -0.8,0.4 -0.4,0.5 -1.1,3.7 0.4,0.6 0.6,0.4 0.6,0.3 h 0.7 v 0.6 l -1,0.5 -2.1,1.6 -0.8,0.9 0.3,0.8 -0.1,0.6 -0.4,0.4 -0.6,0.1 -0.5,0.3 -0.5,1.2 -1.4,0.6 -0.1,0.6 0.2,0.8 -0.1,0.7 -0.4,0.4 -0.5,0.2 -1.3,0.1 0.8,1.4 1.8,0.5 1.8,-0.1 1.3,-0.6 2.3,-2.5 0.7,-0.4 0.9,-0.3 0.5,0.1 -0.5,0.6 v 0.6 h 0.3 l -0.2,0.4 -0.2,0.6 -0.2,0.3 0.1,0.3 0.2,0.9 -1.2,0.6 -0.4,0.3 -0.3,0.4 -0.5,0.9 -0.2,0.2 -0.8,0.5 -0.7,-0.1 -1.3,-1 -0.8,-0.3 -2.1,0.3 -0.8,-0.3 -1.4,-0.9 h -0.7 l 1.1,3.2 0.5,1 -0.4,0.4 -0.2,0.4 0.1,0.4 0.2,0.7 -0.9,0.7 -2.3,0.5 -1.6,2 -0.7,0.4 h -0.5 l -0.7,-0.5 -0.4,-0.1 -1.3,1.2 -2.4,0.7 -0.8,-0.1 v 0.7 h 1.8 l 6.1,-1.5 1.4,-0.9 0.7,-0.1 0.6,0.5 0.4,0.9 0.3,1.1 -0.1,1.2 0.2,0.1 0.5,0.5 -0.4,0.5 -0.4,0.4 -0.4,0.2 -0.4,0.1 0.5,0.4 0.5,0.2 h 0.6 0.6 l -0.8,1 -0.7,1 -0.7,0.8 -1.2,0.3 -4.3,-0.8 -1,-0.4 -0.3,-0.1 -0.3,0.7 0.4,0.4 1,0.4 0.8,0.8 1.6,0.5 0.7,0.9 v 0.6 l -0.5,0.3 -0.7,1.4 -0.4,0.6 -0.8,0.7 -0.6,-0.1 -0.6,-0.3 -0.9,-0.3 v 0.7 l 0.2,0.1 0.2,0.3 0.3,0.2 v 0.6 l -1.1,0.6 -0.9,-0.2 -0.7,-0.7 -0.6,-0.9 -0.4,-1.2 -0.2,-0.5 -0.5,-0.2 -0.2,0.5 0.2,1 0.5,1 0.3,0.6 -0.3,0.6 -1.5,-0.8 -0.4,-0.4 -0.3,-0.5 -0.3,-1.1 -1.3,-2.6 -0.3,-1.2 -0.1,-1.2 0.7,-2.4 1.3,-1.3 1.7,-0.5 1.8,-0.1 v -0.6 h -4.5 v 0.6 l -0.2,1 -1.1,1.4 -1.3,1.3 -1,0.6 0.7,0.9 0.9,2.7 0.5,0.5 0.7,0.3 0.6,0.8 0.4,0.8 0.5,0.6 -0.3,0.2 -0.2,0.2 -0.2,0.2 h -0.4 l 0.4,0.6 0.4,0.3 0.3,0.1 0.2,0.2 0.2,0.6 0.2,1.9 -3.9,-1 -1.6,-1 -0.4,0.3 -0.3,0.5 -0.2,0.5 -0.4,0.7 0.5,0.3 1,0.5 0.4,0.3 1.1,2 0.2,0.5 -0.2,0.7 -0.7,0.4 -0.8,0.2 -0.8,-0.1 v 0.6 h 0.3 v 0.5 l -1,-0.2 -2.2,-1.6 -0.3,0.7 0.2,0.2 0.4,0.6 0.3,0.3 -0.5,0.9 -0.5,0.5 -1.2,1.1 0.2,0.1 0.2,0.3 0.2,0.2 -0.9,1 z m -315.50001,12.9 h -0.1 v -0.1 h 0.1 0.1 v 0.1 z" />
   <path name="Shetland Islands" id="GBZET" class="land"
      d="m 420.25405,124.69435 0.4,-1.6 0.9,-0.9 1,-0.4 h 0.9 l 0.1,0.4 -0.1,0.2 h -0.1 l -0.2,0.1 -0.6,0.1 -0.2,0.4 -0.1,0.7 h 0.6 v 0.7 l -0.8,0.5 -0.8,0.9 -0.7,0.2 z m 40.6,-102.000005 0.8,0.1 0.5,0.6 0.1,0.8 -0.2,1.1 -1.2,1.1 -1.3,-0.4 -1.4,-0.8 -1.3,0.1 v 0.7 l 0.3,0.3 0.1,0.3 0.1,0.3 0.2,0.3 -1.3,-0.3 -1,-1.5 -1.6,-3.3 v -0.7 h 5.5 l 0.5,0.2 v 0.7 0.6 l 0.1,0.4 h 0.4 l 0.3,-0.2 0.3,-0.3 z m -14.6,18.9 0.4,-1.6 0.7,-1.1 0.9,-0.6 h 0.9 l -0.6,1.7 -3.3,4 -0.3,0.7 0.1,0.7 0.2,0.2 0.4,-0.5 0.5,-0.9 0.2,-0.3 0.6,-0.4 h 0.7 l 0.2,1 v 0.5 l -0.1,1 -0.2,1 -0.5,0.4 -3.6,0.4 -0.7,0.3 0.9,1 2.4,0.6 1.2,0.9 -2.2,2.3 -0.5,0.4 -0.2,0.2 v 0.5 0.5 l 0.2,0.4 0.2,0.2 0.3,-0.5 h 0.3 l 0.3,0.2 0.7,0.1 0.2,0.3 -1.8,1.9 -0.9,0.3 -0.8,-0.2 -0.4,-1.3 -0.4,-0.7 h -0.5 l -0.3,0.5 0.1,0.6 0.2,0.6 0.4,0.3 v 0.6 h -0.5 l -0.4,0.1 -0.7,0.5 v 0.6 h 1.9 l -0.3,0.6 -0.3,0.7 -0.4,1.3 0.9,-1.2 0.4,-0.5 0.7,-0.2 -1.4,3.2 -0.3,1.4 0.8,-1.1 1,-0.5 0.5,0.5 -0.6,1.7 1.6,1.3 v 0.6 h -1.4 v 0.7 h 0.4 v 0.6 l -0.8,-0.5 -0.5,0.4 -0.5,0.7 h -0.8 l 0.7,0.7 -0.2,0.8 -0.3,0.4 -0.3,0.2 h -0.5 v 0.5 l 0.3,0.1 1,0.6 -0.8,1 0.4,1.3 0.9,0.9 h 0.4 l -0.2,1.3 -0.7,0.7 -0.9,0.2 -0.7,-0.3 0.2,1.3 1,2.7 -0.4,1 h -0.7 l -1.4,-1 0.2,1.9 -0.1,2 -0.4,1.7 -0.7,1.3 -0.2,-0.4 -0.1,-0.2 0.4,1.1 0.1,1 -0.1,1.1 -0.4,1.3 0.5,0.6 0.1,0.8 -0.2,0.7 -0.4,0.5 -0.2,-0.5 -0.8,-1.4 -0.3,0.9 -0.4,-0.1 -0.1,-0.7 0.5,-0.8 v -0.7 l -0.7,-0.6 -1.4,0.3 -0.8,-0.4 -0.6,-1.1 0.9,-1.2 -0.3,-1.5 0.4,-0.8 0.4,-0.4 0.6,-0.2 0.5,0.1 v -0.5 l -0.8,-1.1 -0.4,-0.2 v -0.7 h 1.2 l -0.2,-1.6 0.5,-1.5 0.7,-1.6 0.7,-4.5 0.7,-1.8 0.4,-1.9 -0.2,-2.5 -0.2,-0.4 -0.3,0.1 -0.3,-0.1 -0.2,-0.9 0.1,-0.4 0.1,-0.4 0.7,-2 h -0.4 l -0.7,0.6 -0.2,0.3 -0.5,-0.1 -0.2,-0.3 0.2,-0.8 0.6,-2.5 0.4,-0.9 0.4,-0.8 0.5,-0.5 v -0.6 l -0.9,-0.1 -0.7,1 -1.3,2.9 -0.6,-2.2 -0.7,-1.5 -1,-1 -1.5,-0.4 v 0.7 l 0.9,0.4 0.7,0.9 0.7,1.1 0.6,1.4 -0.4,1.3 -0.9,-0.9 -0.4,-0.4 h -0.6 v 1.7 l -0.3,1.3 -0.4,0.2 -0.3,-1.3 -0.5,0.6 -0.2,0.9 -0.2,1.1 -0.3,0.7 h -0.5 l -1.8,-1.3 -0.1,-0.2 -1,-1.2 -0.2,0.1 -0.2,-0.9 v -0.4 l 0.2,-0.7 0.6,-0.5 1.4,-0.4 0.6,-0.3 -0.6,-0.5 -1.1,-2 -0.2,0.8 -0.3,1.3 -0.5,0.9 -0.6,0.1 -0.2,-0.9 -0.3,-0.9 -0.7,0.2 -1.4,1 -1.1,0.2 -0.4,-0.2 -0.3,-0.3 v -0.5 l -0.1,-0.4 -0.4,-0.2 -0.9,-0.2 -0.4,-0.5 -0.5,-2.5 -0.5,-1.8 0.2,-0.5 0.7,-0.9 0.7,-0.6 0.8,-0.5 0.9,-0.3 0.8,0.1 0.7,0.6 0.5,0.8 0.6,0.6 h 0.8 l -0.4,-1.3 1.6,0.6 v -0.6 h -0.3 v -0.7 l 2.2,-0.3 0.6,0.8 0.1,2.8 0.2,-0.1 0.6,-0.4 0.2,-0.2 -0.3,-0.5 -0.2,-1 -0.2,-0.4 h 1 l -0.1,-0.4 -0.2,-1 1,-0.5 1.3,0.4 1,1.3 0.5,2.1 0.7,-1.1 0.6,-0.8 -1.3,-1.4 1,-2.5 0.3,0.4 0.3,0.1 0.7,0.1 -0.6,-1.1 0.8,-0.3 2.4,0.1 -1.2,-0.8 -1.4,-0.3 -1.1,-0.8 -0.2,-2 -0.9,1.1 -0.5,0.3 -0.6,-0.1 -0.5,-0.7 -0.1,-0.9 0.1,-0.9 0.5,-0.7 v -0.7 h -1.4 l -0.7,-0.2 -0.4,-0.5 0.1,-1.2 -0.1,-1.6 -0.3,-3 -0.7,1.8 -0.5,1 -0.4,0.5 -0.8,-0.4 -0.1,-0.7 0.3,-0.9 0.6,-0.7 h -1 l -0.8,0.3 -0.7,-0.1 -0.7,-0.8 -0.5,1.1 -0.6,0.3 -1.7,-0.1 -0.1,-0.5 0.2,-1.1 0.5,-1.1 0.4,-0.5 1.1,0.1 0.3,-0.1 0.3,-0.7 v -0.7 -0.7 l 0.1,-0.5 0.4,-0.9 0.6,-0.8 0.6,-0.1 0.6,1.1 0.6,2 1.5,1.6 1.8,0.6 1.5,-0.9 -0.5,-0.5 -0.7,-0.1 -1.2,-0.1 -0.3,-0.3 -0.4,-0.7 -0.6,-0.7 -0.7,-0.2 0.4,-0.7 0.6,-1.7 0.2,-0.3 0.6,-0.1 1.4,-1.1 -0.5,-0.6 -0.2,-0.1 0.4,-0.7 0.2,-0.5 -0.1,-0.4 -0.2,-0.4 1.2,-0.6 1.3,0.2 1.2,0.8 1.2,1 0.1,-0.4 0.2,-0.3 -0.8,-1 0.1,-0.9 1,-2.1 0.5,1.9 v 0.8 l -0.2,0.6 0.2,0.8 -0.1,0.6 -0.3,0.4 -0.4,0.2 0.3,2.2 -0.3,1 -0.7,0.7 -0.6,1.3 h 1 l -0.3,0.4 -0.2,0.2 -0.5,0.1 0.3,0.2 0.1,0.2 0.2,0.1 0.4,0.1 -1,3.2 0.5,-0.1 0.4,-0.2 0.4,-0.4 0.3,-0.5 0.3,0.6 -0.6,1.4 -0.2,0.6 0.2,0.6 v 0.7 l -0.9,0.4 -1.1,3.3 -0.9,0.8 v 0.7 l 0.6,0.1 0.6,-0.1 0.5,-0.2 0.5,-0.5 v -1.7 l 1.2,-1 3,-0.5 -2.2,-1.7 -0.7,-0.9 0.5,-0.7 0.6,-0.6 0.5,0.3 0.1,1.6 0.4,-0.6 0.9,-1.7 0.2,-0.6 0.5,-0.3 0.8,0.6 0.6,0.9 -0.3,1.1 0.6,0.3 0.5,0.4 0.3,0.8 0.3,1.1 -0.3,0.4 -0.1,0.2 0.6,0.6 -0.5,0.5 -1.1,-0.6 -0.4,0.5 -0.4,0.6 -0.5,0.5 -0.5,0.3 0.2,0.3 0.6,-0.2 1.1,-0.5 -0.2,0.2 -0.5,0.4 v 0.7 l 1.6,-0.9 0.6,0.4 v 1.8 h 0.4 l 0.2,-1 h 0.1 l 0.3,0.1 0.4,-0.4 0.1,-0.5 0.2,-0.8 0.2,-0.7 0.4,-0.7 0.2,0.3 v 0.3 z m 5.2,-26.8 -0.6,1.1 0.1,0.9 0.8,1.9 -0.3,1 -0.3,1 -1.6,-1.8 -0.7,-0.7 -1,-0.1 0.6,0.7 0.6,1.2 1.1,2.7 -0.6,0.4 -0.7,0.2 -0.6,-0.1 -0.7,-0.5 0.2,1 0.6,0.6 0.7,0.3 0.8,0.1 -0.1,0.3 v 0.1 l -0.3,0.2 0.8,0.9 v 1.2 l -0.5,0.9 -0.9,0.3 0.7,1.6 0.2,0.8 0.1,1.2 -0.2,1.1 -0.3,0.3 -1.1,-0.5 h -1.2 l -0.6,-0.2 -0.2,-0.7 h -0.2 l -0.2,0.4 -0.1,0.5 0.5,0.7 v 0.6 l -1.6,-0.4 -1.1,-1.2 -0.6,-2.1 -0.6,-9 0.4,-2 1.6,-0.3 v 0.6 l -0.2,1.1 0.6,1.2 0.7,0.6 0.5,-0.2 -0.1,-0.5 -0.7,-2.5 -0.1,-1.3 0.1,-0.6 0.4,-1.5 -0.1,-0.2 -0.2,-0.4 -0.1,-0.9 0.1,-0.9 0.2,-0.8 0.5,-1 0.5,-0.9 0.6,-0.1 0.5,1.7 0.6,-1.1 0.9,-0.3 2.1,0.2 v 1.2 l -0.1,0.4 -0.3,0.3 v 0.7 l 0.2,0.1 0.2,0.3 z m 3.8,1.3 -1.4,0.2 -0.7,-0.3 -0.8,-0.5 0.3,-1 v -0.9 l -0.1,-0.8 -0.2,-0.7 0.9,0.7 0.2,-0.7 -0.1,-1.4 -0.3,-1.2000004 0.8,-0.3 0.4,-1.299999 V 6.3943459 l -0.6,-0.7 v -0.8 l 0.8,-0.3 0.8,-1 0.7,-1.1000001 v -0.9 l 0.4,-0.99999999 h 0.5 l 0.5,0.69999999 0.2,1.4 -0.2,1.0000001 -0.5,0.6 -0.5,0.6 -0.4,0.8 0.1,0.2 0.6,-0.2 0.6,-0.6 0.4,-0.5 1,-3.5000001 0.5,-0.69999999 0.3,0.4 0.3,0.1 0.6,0.1 0.6,0.29999999 0.5,0.4 0.4,0.8 0.2,1.2000001 h -0.4 l -0.9,0.6 0.9,0.6 h 0.4 l -0.7,0.9 -1,0.5 -0.6,0.6999997 0.3,1.2 v 0.7 h -0.9 l 0.3,0.199999 0.3,0.2 0.3,0.2 v 0.8000004 l -1.9,1.9 -0.3,0.6 0.3,1.2 0.7,1 0.3,1 -0.7,0.8 h -0.4 l -0.4,-0.2 -0.4,-0.3 -0.4,-0.2 -0.9,-0.1 z m -19.2,55.9 h 0.3 l 0.2,0.7 -0.3,1 -0.3,0.9 -0.5,1.5 -0.3,0.6 h -0.2 v -0.7 l 0.2,-0.9 v -1.2 -0.2 l -0.1,0.6 -0.1,0.5 -0.7,1.2 -0.7,0.6 -0.1,-0.4 0.6,-0.8 0.3,-1.1 0.2,-1.3 0.4,-0.9 -0.1,-0.6 -0.3,-0.5 0.1,-0.4 0.8,-0.2 0.3,-0.4 h 0.3 v 0.8 l -0.3,1.3 -0.1,0.5 z m -34.6,-5.8 0.2,0.8 0.1,1.7 -0.7,1.1 -1.2,-0.5 -0.8,-0.9 -0.4,-0.5 0.1,-0.7 0.4,-0.5 0.7,-0.5 1.1,-0.1 z m 46.4,-0.8 0.6,-0.5 v 0.6 l -0.1,1.4 -0.3,1 -0.4,0.8 -0.3,2 -0.5,0.3 -1.3,-1.1 -0.5,-0.6 0.2,-3.1 -0.8,-1.1 v -1.1 l 0.9,-0.1 0.9,0.4 0.4,-0.2 0.1,-0.8 0.3,-0.2 0.2,0.6 0.1,0.9 0.2,0.8 z m 6.8,-21 h 0.2 l 0.1,0.4 -0.3,0.5 -0.6,0.8 -0.8,1.2 -1.3,1.5 -1.9,0.6 -0.8,-0.6 0.2,-0.5 0.2,-0.4 0.1,-0.5 0.3,-0.7 0.5,-0.6 0.5,-0.3 h 0.5 l 0.4,-0.4 0.4,-0.5 1.6,-0.1 0.5,-0.2 z" />
   <g id="stadiums" data-country="scotland" data-circle-radius="6" data-circle-colors="#a149be,#bea149" />
</svg>