<?xml version="1.0" encoding="UTF-8" standalone="no"?>
<?xml-stylesheet type="text/css" href="/styles/home.css"?>
<!-- https://www.amcharts.com/svg-maps -->

<svg version="1.1" xmlns="http://www.w3.org/2000/svg" id="map-serbia"
   viewBox="0 0 544.24713 712.25055">
  <defs
     id="defs4">
    <style
       type="text/css"
       id="style2">
			.land
			{
				fill: #f8a48c;
				fill-opacity: 1;
				stroke:white;
				stroke-opacity: 1;
				stroke-width:0.5;
			}
		</style>
    <!-- <amcharts:ammap projection="mercator" leftLongitude="18.814598" topLatitude="46.190167" rightLongitude="23.006466" bottomLatitude="42.244813"></amcharts:ammap> -->
    <!-- All areas are listed in the line below. You can use this list in your script. -->
    <!--{id:"RS-00"},{id:"RS-01"},{id:"RS-02"},{id:"RS-03"},{id:"RS-04"},{id:"RS-05"},{id:"RS-06"},{id:"RS-07"},{id:"RS-08"},{id:"RS-09"},{id:"RS-10"},{id:"RS-11"},{id:"RS-12"},{id:"RS-13"},{id:"RS-14"},{id:"RS-15"},{id:"RS-16"},{id:"RS-17"},{id:"RS-18"},{id:"RS-19"},{id:"RS-20"},{id:"RS-21"},{id:"RS-22"},{id:"RS-23"},{id:"RS-24"}-->
  </defs>
  <path
     d="m 206.73986,344.48199 -5.9,3.77 -0.72,3.39 -9.21,2.91 -11.86,-14.05 3.87,-2.18 -2.18,-5.08 5.81,-11.87 -2.18,-1.69 1.94,-6.78 -4.84,-3.88 -1.94,-9.2 -5.57,10.17 -7.02,-7.02 -6.54,5.33 -8.72,-6.3 1.45,-3.15 v 0 l -3.41,-11.5 v 0 l 7.22,-7.52 12.29,-5.86 -5.82,-4.5 6.11,-7.9 -1.34,-6.01 8.82,-3.3 -3,-6.11 1.94,-7.22 16.67,-9.75 -0.41,-6.68 7.97,-5.26 0.39,-6.35 -3.98,-3.24 v 0 l 1.69,-2.18 v 0 l 5.33,-1.21 v 0 l 3.82,-0.2 v 0 l 0.29,6.71 7.77,10.83 6.57,3 3.11,9.55 8.67,0.86 4.11,16.34 -2.74,7.92 1.63,5.88 12.19,13.53 8.95,3.78 v 0 l 0.51,0.02 v 0 l -0.29,9.2 5.57,4.6 -13.32,4.61 5.08,6.29 h 3.64 l 6.05,12.84 -2.66,2.18 -7.75,-1.21 -3.88,8.47 6.78,6.54 -3.15,1.69 v 0 l 0.23,4.79 v 0 l -6.47,-5.37 -9.69,0.97 -5.09,-7.75 -8.47,3.64 -1.94,-8.48 -12.83,-4.12 -2.43,5.33 4.85,7.02 -5.57,7.03 v 0 z"
     class="land"
     title="Beograd"
     id="RS-00" />
  <path
     d="m 136.86986,79.291993 -14.35,9.5 2.18,5.57 -7.5,14.049997 -14.29,-6.05 v 0 l -4.360005,-0.25 v 0 l 5.810005,-4.109997 -8.230005,-7.75 2.42,-4.36 -7.99,-4.12 -2.91,4.36 -16.95,-20.1 -3.63,-14.05 5.57,-6.29 -4.6,1.45 0.24,-4.36 -5,-5.16 v 0 l -2.04,-4.74 10.55,-6.72 2.14,2.87 4.45,-1.92 6.46,-9.15 7.73,-4.47 -2.61,-4.6399998 7.91,-6.35 8.710005,1.48 3.8,-3.71999997 4.34,0.5 15.72,11.08999977 8.51,-4.8799998 v 0 l 1.49,5.0599998 -10.89,27.6 -1.21,9.69 2.18,6.54 -3.39,3.87 7.74,18.89 v 0 z"
     class="land"
     title="Severnobački okrug"
     id="RS-01" />
  <path
     d="m 197.80986,206.06199 -10.05,-10.57 v 0 l 2.67,-1.69 v 0 l -1.45,-3.88 7.02,-7.26 -14.29,-17.2 6.78,-6.29 -9.2,-6.78 2.66,-8.96 -1.45,-3.88 -3.63,3.15 -3.39,-1.21 -0.25,-9.2 -7.02,-5.81 -5.57,8.47 -1.69,-2.66 2.18,-7.51 -1.94,-3.39 10.65,-7.75 -8.71,0.48 3.63,-9.68 -7.75,1.69 -0.73,-3.14 9.93,-2.43 -2.18,-6.779997 2.42,-2.9 v 0 h 5.57 v 0 l 2.67,-5.82 -3.15,-2.9 3.63,-4.84 23.25,-1.94 5.57,12.35 4.12,2.42 -0.97,3.87 -6.54,3.15 v 4.119997 l -4.36,5.09 3.39,2.9 6.54,0.24 7.51,-3.87 7.99,1.69 -1.7,-9.199997 1.94,-4.6 5.33,-4.6 6.78,2.42 0.48,-8.96 5.51,-8.21 v 0 l 2.78,-0.38 3.9,9.08 7.79,-1.1 1.21,-5.89 5.13,2.04 -2.65,7.08 0.27,14.84 -5.11,8.169997 0.84,5.48 2.96,-0.98 4.87,9.62 -8.28,6.57 0.28,3.65 8.1,0.04 4.43,2.8 1.78,3.42 -2.29,2.51 7.37,2.71 1.41,5.48 10.79,10.6 v 0 l -26.05,11.39 5.33,3.4 -0.97,2.17 -9.93,5.09 -5.57,8.23 -9.44,-9.68 -10.17,-3.39 -3.63,6.05 -8.48,0.24 -5.33,7.75 0.49,7.75 -3.64,5.09 v 0 l -4.6,0.24 v 0 l -5.33,1.21 v 0 z"
     class="land"
     title="Srednjebanatski okrug"
     id="RS-02" />
  <path
     d="m 169.98986,90.881993 -2.18,-4.99 -30.03,-6.3 v 0 l -2.91,-0.97 v 0 l -7.74,-18.89 3.39,-3.87 -2.18,-6.54 1.21,-9.69 10.89,-27.6 -1.49,-5.0599998 v 0 l 6.32,-3.95 8.13,-0.05 9.08,5.67 4.48,-5.95 5.26,6.06 5.36,-2.65 6.44,6.7699998 4.82,-0.69 0.58,5.49 9.03,9.18 0.54,9.2 7.69,6.43 5.4,-0.93 4.67,3.18 4.21,11.47 6.95,-3.38 1.58,7.65 10.26,7.49 0.26,6.23 v 0 l -5.51,8.21 -0.48,8.96 -6.78,-2.42 -5.33,4.6 -1.94,4.6 1.7,9.199997 -7.99,-1.69 -7.51,3.87 -6.54,-0.24 -3.39,-2.9 4.36,-5.09 v -4.119997 l 6.54,-3.15 0.97,-3.87 -4.12,-2.42 -5.57,-12.35 -23.25,1.94 -3.63,4.84 3.15,2.9 -2.67,5.82 v 0 z"
     class="land"
     title="Severnobanatski okrug"
     id="RS-03" />
  <path
     d="m 257.96986,282.46199 -8.95,-3.78 -12.19,-13.53 -1.63,-5.88 2.74,-7.92 -4.11,-16.34 -8.67,-0.86 -3.11,-9.55 -6.57,-3 -7.77,-10.83 -0.29,-6.71 v 0 l 0.78,-0.04 v 0 l 3.64,-5.09 -0.49,-7.75 5.33,-7.75 8.48,-0.24 3.63,-6.05 10.17,3.39 9.44,9.68 5.57,-8.23 9.93,-5.09 0.97,-2.17 -5.33,-3.4 26.05,-11.39 v 0 l 6.14,-0.61 4.39,6.5 10.01,-5.16 5.59,13.67 7.32,3.83 2.19,-2.31 13.23,4.46 1.68,-1.87 14.25,11 1.25,5.58 -6.33,3.06 -2.96,14.86 -12.39,3.47 10.12,10.95 13.91,5.35 1.93,7.7 -12.1,3.88 -12.59,-0.29 -1.4,8.15 v 0 l -17.9,7.58 -8.75,8.01 -14.18,3.73 v 0 l -2.01,-0.29 v 0 l -4.21,0.61 -9.14,8.2 -13.76,2.55 v 0 z"
     class="land"
     title="Južnobanatski okrug"
     id="RS-04" />
  <path
     d="m 99.559855,102.17199 -3.92,7.31 2.43,6.29 -4.85,-0.48 -1.45,7.26 -2.91,1.21 -6.29,-3.39 -12.11,13.08 4.12,4.6 -1.46,3.15 -6.54,-1.45 -3.14,2.18 -3.64,-4.36 -2.66,3.87 h -8.23 l -4.12,-3.39 -7.02,1.21 1.69,-1.94 -7.02,-4.84 -5.09,0.24 0.68,-2.28 v 0 l 7.47,0.16 2.08,-4.96 -8.72,-3.84 -1.55,-4.08 -9.26,4.1 -7.4,-6.3 2.89,-5.94 -1.48,-2.74 4.62,-1.4 3.58,-9.859997 -7.47,-5.38 -3.0099995,-12.76 -4.45,-5.01 0.77,-10.18 -5.67000002,-9.8 6.85000002,-0.1 5.1099995,-4.61 13.17,2.03 -1.68,-4.37 2.37,-2.95 8.62,-0.17 -1.8,-6.62 5.27,-7.3 3.82,0.67 1.56,7.24 19.56,1.35 v 0 l 5,5.16 -0.24,4.36 4.6,-1.45 -5.57,6.29 3.63,14.05 16.95,20.1 2.91,-4.36 7.99,4.12 -2.42,4.36 8.230005,7.75 -5.810005,4.109997 v 0 z"
     class="land"
     title="Zapadnobački okrug"
     id="RS-05" />
  <path
     d="m 28.029855,130.44199 -0.68,2.28 5.09,-0.24 7.02,4.84 -1.69,1.94 7.02,-1.21 4.12,3.39 h 8.23 l 2.66,-3.87 3.64,4.36 3.14,-2.18 6.54,1.45 1.46,-3.15 -4.12,-4.6 12.11,-13.08 6.29,3.39 2.91,-1.21 1.45,-7.26 4.85,0.48 -2.43,-6.29 3.92,-7.31 v 0 l 3.350005,0.19 v 0 l 14.29,6.05 7.5,-14.049997 -2.18,-5.57 14.35,-9.5 v 0 l 0.91,0.3 v 0 l 30.03,6.3 2.18,4.99 v 0 h -3.54 v 0 l -2.42,2.9 2.18,6.779997 -9.93,2.43 0.73,3.14 7.75,-1.69 -3.63,9.68 8.71,-0.48 -10.65,7.75 1.94,3.39 -2.18,7.51 1.69,2.66 5.57,-8.47 7.02,5.81 0.25,9.2 3.39,1.21 3.63,-3.15 1.45,3.88 -2.66,8.96 9.2,6.78 -6.78,6.29 14.29,17.2 -7.02,7.26 1.45,3.88 v 0 l -2.26,1.43 v 0 l -6.22,-7.49 -9.68,0.25 -3.39,-3.15 -5.57,5.81 -3.64,-0.48 0.73,-7.75 -3.15,-0.49 -7.02,9.93 -19.13,2.66 -7.75,-1.93 -21.07,1.69 -12.110005,-4.6 -7.51,4.84 -6.74,-5.89 v 0 l 0.33,-11.18 -19.18,-2.04 -18.33,-9.64 -2.78,-7.35 -8.32,-1.55 -5.73,-4.91 5.58,-9.24 -4.43,-5.21 0.65,-6.51 z"
     class="land"
     title="Južnobački okrug"
     id="RS-06" />
  <path
     d="m 188.16986,195.23199 -0.41,0.26 v 0 l 10.05,10.57 v 0 l -1.23,1.59 v 0 l 3.98,3.24 -0.39,6.35 -7.97,5.26 0.41,6.68 -16.67,9.75 -1.94,7.22 3,6.11 -8.82,3.3 1.34,6.01 -6.11,7.9 5.82,4.5 -12.29,5.86 -7.22,7.52 v 0 l -4.84,-1.2 -0.62,-2.74 6.61,-2.24 3.19,-4.98 -10.76,0.39 -15.33,-10.61 -9.16,-0.62 -2.67,-2.74 -1.05,-9.18 8.05,-16.25 -7.19,-3.8 -21.450005,4.79 -5.78,-4.02 -3.84,4.16 -8.29,-3.78 -9.49,-0.14 2.62,5.86 -11.76,-4.44 -5.78,2.99 -4.35,-4.59 -14.01,10.58 -6.11,1.42 -1.67,-8.61 8.79,-1.17 9.69,-7.99 -1.55,-4.84 -11.51,0.64 5.36,-3.35 2.6,-9.95 -3.04,-14.31 6.97,-0.22 5.27,-7.72 -1.19,-5.37 11.34,5.41 h 2.96 l 0.96,-4.95 3.06,-0.29 4.9,5.75 5.27,-0.61 v 0 l 6.74,5.89 7.51,-4.84 12.110005,4.6 21.07,-1.69 7.75,1.93 19.13,-2.66 7.02,-9.93 3.15,0.49 -0.73,7.75 3.64,0.48 5.57,-5.81 3.39,3.15 9.68,-0.25 z"
     class="land"
     title="Sremski okrug"
     id="RS-07" />
  <path
     d="m 153.38986,297.73199 -8.58,2.33 -3.39,-2.18 -6.3,6.06 3.64,10.89 -4.12,14.53 -6.78,-1.21 -12.35,-8.23 -8.96,3.63 -8.240005,-5.08 -9.2,2.9 3.39,5.33 -1.45,6.3 -4.6,1.45 5.57,5.33 -0.24,2.9 -4.36,0.73 -6.54,7.99 17.92,7.27 8.470005,17.43 -0.96,3.15 -4.12,-2.66 -12.070005,8.43 -4.48,-5.64 0.76,-5.04 -4.02,2.94 -4.74,-6.47 -6.31,-2.65 -4.42,-15.62 -5.91,-1.03 -5.46,2.6 -3.64,-5.23 -5.61,1.12 -7.52,-12.59 0.04,-7.65 4.95,-4.05 -3.72,-15.19 1.3,-3.79 5.74,-0.38 3.08,-4.88 -0.55,-5.77 4.17,-2.03 6.93,-16.57 4.55,-2.38 -1.43,-6.69 3.33,-0.93 -3.2,-4.88 3.52,-1.49 -4.28,-1.93 2.7,-1.64 0.25,-4.75 5.56,-2.96 -1.34,-2.57 4.44,-2.17 -7.56,-10.32 9.49,0.14 8.29,3.78 3.84,-4.16 5.78,4.02 9.640005,-0.57 7.08,-4.42 11.2,2.78 -7.33,17.47 0.7,8.61 3.03,3.31 9.15,0.62 15.33,10.61 10.76,-0.39 0.14,2.39 -10.1,5.86 5.42,2.96 z"
     class="land"
     title="Mačvanski okrug"
     id="RS-08" />
  <path
     d="m 153.23986,297.73199 -0.11,1.12 v 0 l -1.45,3.15 8.72,6.3 6.54,-5.33 7.02,7.02 5.57,-10.17 1.94,9.2 4.84,3.88 -1.94,6.78 2.18,1.69 -5.81,11.87 2.18,5.08 -3.87,2.18 11.86,14.05 9.21,-2.91 0.72,-3.39 5.9,-3.77 v 0 l -0.09,0.87 v 0 l 2.91,0.24 1.38,9.56 v 0 l -2.11,3.52 v 0 l -16.46,16.95 -13.81,1.21 -5.08,4.6 -6.06,0.73 v 0 l -1.82,0.54 v 0 l -8.35,-2.24 -7.51,2.91 -6.05,-7.51 -3.87,-0.97 -6.06,4.6 -6.05,-2.42 5.32,8.72 -5.32,2.18 -3.88,-7.75 -14.29,-8.48 v 0 l -8.47,-4.36 -2.420005,-8.71 -17.92,-7.27 6.53,-7.99 4.36,-0.73 0.25,-2.9 -5.57,-5.33 4.6,-1.45 1.45,-6.3 -3.39,-5.33 9.2,-2.9 8.240005,5.08 8.96,-3.63 12.35,8.23 6.78,1.21 4.11,-14.53 -3.63,-10.89 6.3,-6.06 3.39,2.18 z"
     class="land"
     title="Kolubarski okrug"
     id="RS-09" />
  <path
     d="m 300.62986,365.37199 -2.49,-0.31 0.49,-3.87 -5.57,0.96 -9.2,-7.26 -1.7,-4.6 -9.69,1.69 -11.38,-3.15 v -5.81 0 l -6.29,-0.24 -0.25,-5.09 v 0 l 3.15,-1.69 -6.78,-6.54 3.88,-8.47 7.75,1.21 2.66,-2.18 -6.05,-12.84 h -3.64 l -5.08,-6.29 13.32,-4.61 -5.57,-4.6 0.29,-9.2 v 0 l 1.4,0.06 v 0 l 13.76,-2.55 9.14,-8.2 4.21,-0.61 v 0 l 2.01,0.29 v 0 l 0.18,11.74 3.15,2.9 0.73,6.54 8.96,3.39 -1.21,10.17 5.08,10.9 -0.48,5.09 -5.33,6.05 0.49,4.12 5.32,1.93 0.97,4.36 -6.78,2.18 -0.42,4.29 v 0 l -1.07,2.15 6.43,8.93 -3.93,7.86 v 0 z"
     class="land"
     title="Podunavski okrug"
     id="RS-10" />
  <path
     d="m 299.65986,345.13199 0.42,-4.29 6.78,-2.18 -0.97,-4.36 -5.32,-1.93 -0.49,-4.12 5.33,-6.05 0.48,-5.09 -5.08,-10.9 1.21,-10.17 -8.96,-3.39 -0.73,-6.54 -3.15,-2.9 -0.18,-11.74 v 0 0 0 l 14.18,-3.73 8.75,-8.01 17.9,-7.58 v 0 l 5.73,8.49 23.91,3.17 6.12,17.69 37.67,2.73 9.21,2.65 2.04,5.24 v 0 l -5.32,9.69 -3.32,0.27 -0.83,15.47 -6.35,2.76 -1.38,3.86 h -4.69 l -5.25,8.29 3.31,6.07 -1.93,1.93 11.87,4.42 0.83,11.88 3.04,1.93 3.87,-4.42 3.59,10.49 -3.04,5.8 0.28,8.01 -8.29,1.66 -2.21,3.03 -5.52,-0.82 -2.4,3.42 v 0 l -2.15,-3.93 v 0 l -16.79,-2.86 -4.28,-3.93 -11.79,-0.71 -0.72,-5 -6.07,-5.36 -12.15,-2.15 -3.21,2.5 -3.94,-2.5 3.22,-3.57 -10.36,-11.79 -3.57,6.43 -4.65,-0.71 -6.07,-7.86 z"
     class="land"
     title="Braničevski okrug"
     id="RS-11" />
  <path
     d="m 254.77986,342.48199 6.31,0.54 v 0 5.81 l 11.38,3.15 9.69,-1.69 1.7,4.6 9.2,7.26 5.57,-0.96 -0.49,3.87 2.49,0.31 v 0 l -1.32,3.7 v 0 l 6.79,7.86 -10.01,12.5 2.86,8.93 -9.65,3.94 4.65,6.43 -8.22,8.57 1.07,4.65 3.93,1.07 -16.74,9.58 v 0 l -0.41,-2.44 v 0 l -13.22,-1.78 -3.57,1.43 -0.71,3.21 2.5,1.79 -10.01,3.21 -7.86,-12.14 v 0 l -2.23,-1 v 0 l -12.94,-19.47 13.81,-10.66 -12.84,-12.35 -2.66,-9.45 -10.17,-8.71 -2.67,-9.21 v 0 l -0.07,0.12 v 0 l -1.38,-9.56 -2.91,-0.24 v 0 l 0.49,-4.6 v 0 l 5.57,-7.03 -4.85,-7.02 2.43,-5.33 12.83,4.12 1.94,8.48 8.47,-3.64 5.09,7.75 9.69,-0.97 z"
     class="land"
     title="Šumadijski okrug"
     id="RS-12" />
  <path
     d="m 347.92986,441.68199 -0.39,-1.08 v 0 l -4.29,4.64 -6.07,1.43 -5.72,-4.65 4.29,-2.14 -3.57,-3.57 -11.79,2.86 0.35,-13.58 -3.21,2.86 -0.72,10.36 -6.43,4.64 -6.43,-1.07 1.43,6.43 -3.93,1.43 -15.36,-4.29 -2.86,1.79 v 0 l -3.6,-3.3 v 0 l -4.97,-7.85 v 0 l -0.67,-3.99 v 0 l 16.74,-9.58 -3.93,-1.07 -1.07,-4.65 8.22,-8.57 -4.65,-6.43 9.65,-3.94 -2.86,-8.93 10.01,-12.5 -6.79,-7.86 v 0 l 1.78,-5 v 0 l 3.93,-7.86 -6.43,-8.93 1.07,-2.15 v 0 l 8.58,-0.71 6.07,7.86 4.65,0.71 3.57,-6.43 10.36,11.79 -3.22,3.57 3.94,2.5 3.21,-2.5 12.15,2.15 6.07,5.36 0.72,5 11.79,0.71 4.28,3.93 16.79,2.86 v 0 l 2.15,3.93 v 0 l -4.65,10.36 v 0 l -2.14,6.43 v 0 l -6.07,13.58 -5,0.36 1.78,10 -4.64,5 v 0 l -2.15,1.79 v 0 l -12.14,0.71 z"
     class="land"
     title="Pomoravski okrug"
     id="RS-13" />
  <path
     d="m 390.76986,385.86199 2.4,-3.42 5.52,0.82 2.21,-3.03 8.29,-1.66 -0.28,-8.01 3.04,-5.8 -3.59,-10.49 -3.87,4.42 -3.04,-1.93 -0.83,-11.88 -11.87,-4.42 1.93,-1.93 -3.31,-6.07 5.25,-8.29 h 4.69 l 1.38,-3.86 6.35,-2.76 0.83,-15.47 3.32,-0.27 5.32,-9.69 v 0 l 9.22,19.74 7.43,4.54 5.44,-0.65 16.84,-33.56 20.82,-10.2 14.07,15.18 6.04,3.39 6.57,-0.49 10.16,9.48 1.12,4.73 -8.34,4.33 -8.99,-5.98 -5.51,-0.09 -4.78,12.4 -11.8,1.95 13.12,29.42 13.16,3.29 3.23,3.57 -1.92,10.86 -3.38,-0.34 -4.01,7.77 1.92,1.38 -2.32,9.13 1.37,7.85 -11.29,2.97 v 0 l -9.71,-0.28 -0.27,-6.9 4.96,-3.31 -10.76,-10.22 -14.64,-0.28 -6.9,-5.52 -4.97,8.29 6.35,19.05 -6.9,7.45 -3.32,12.15 -8.83,5.8 -8.01,-14.36 -4.97,3.32 -9.39,-4.14 -3.59,-6.63 -16.27,1 v 0 l 0.66,-1.99 v 0 z"
     class="land"
     title="Borski okrug"
     id="RS-14" />
  <path
     d="m 482.67986,392.79199 -0.66,4.85 -15.51,2.93 -0.28,11.61 -2.51,2.35 -3.98,20.85 5.63,9.18 0.89,11.02 10.82,10.31 -0.3,13.56 6.07,16.55 5.39,1.41 2.91,4.75 7.85,1.58 1.44,4.75 v 0 l -12.28,11.18 -5.8,-0.83 -3.31,-6.9 -8.01,4.42 -14.08,-5.8 v 0 0.74 0 l 1.38,-8.75 -5.53,-8.01 -4.97,3.59 -6.62,-6.35 -9.67,2.49 -1.38,-3.59 -10.77,-3.04 -1.1,-7.18 -8.56,-6.9 -2.76,0.83 5.24,10.49 v 0 l -4.42,-1.93 -5.52,1.93 v 0 l -7.18,-12.7 -2.76,1.93 -9.94,-4.14 -8.01,-13.26 1.38,-7.73 -2.76,-4.97 2.21,-3.86 -5.19,-8.54 v 0 l 0.02,-0.02 v 0 l 4.64,-5 -1.78,-10 5,-0.36 6.07,-13.58 v 0 l 1.48,-4.44 v 0 l 16.27,-1 3.59,6.63 9.39,4.14 4.97,-3.32 8.01,14.36 8.83,-5.8 3.32,-12.15 6.9,-7.45 -6.35,-19.05 4.97,-8.29 6.9,5.52 14.64,0.28 10.76,10.22 -4.96,3.31 0.27,6.9 z"
     class="land"
     title="Zaječarski okrug"
     id="RS-15" />
  <path
     d="m 165.59986,382.70199 -0.6,0.18 v 0 l -0.97,7.03 2.67,5.08 -3.39,6.78 6.53,7.99 -1.69,8.96 1.69,10.42 3.64,2.18 -1.7,7.26 9.69,22.28 -10.9,2.67 -0.48,3.39 -7.03,1.93 -7.99,9.93 -6.29,-1.21 -1.94,8.48 4.36,0.97 7.26,7.75 12.35,22.03 -0.97,5.09 8.48,3.39 14.05,-3.88 2.08,4.15 v 0 h -3.4 v 0 l -1.78,4.29 1.78,5.36 -6.07,3.57 8.22,6.43 1.07,4.65 -15.01,3.57 -1.78,6.43 -5.01,0.36 -2.5,3.57 -5.76,12.77 v 0 l -14.83,-19.13 -4.45,2.9 -10.89,-0.6 -6.17,-2.66 -3.7,-10.43 -2.93,3.47 -12.68,-5.92 -3.98,-7.23 -8.900005,-5.56 -2.87,-8.78 -6.2,-2.42 -3.03,-7.55 -19.94,-11.58 -9.02,-10.08 3.32,-17.61 14.93,-1.52 6.66,6.85 9.91,-2.52 -1.48,-9.08 4.8,-0.64 -2.51,-15.6 -6.81,-8.59 -6.86,-3.59 -1.49,-9.01 -17.22,-21.13 -3.07,-9.82 20.1,9.68 17.89,0.68 4.98,-7.72 7.300005,-3.04 0.41,-6.04 -4.68,-3.88 -1.720005,4.24 -9.11,-7.62 12.070005,-8.43 4.11,2.66 0.73,-7.02 2.66,-0.49 v 0 l 14.29,8.48 3.88,7.75 5.32,-2.18 -5.32,-8.72 6.05,2.42 6.06,-4.6 3.87,0.97 6.05,7.51 7.51,-2.91 z"
     class="land"
     title="Zlatiborski okrug"
     id="RS-16" />
  <path
     d="m 238.47986,424.88199 -0.98,-0.43 v 0 l -9.29,6.07 0.36,6.07 -6.79,3.22 -5.36,6.79 -5.72,0.35 4.29,12.51 -2.5,2.5 -4.29,-1.79 -3.21,1.79 -1.43,3.57 3.57,3.58 -2.86,7.5 -7.14,6.43 3.21,3.93 5.36,1.07 6.43,7.86 -2.86,10.72 2.86,2.5 -0.36,9.29 -4.64,1.79 -5,10 -7.5,-4.65 v 0 h -0.18 v 0 l -2.08,-4.15 -14.05,3.88 -8.48,-3.39 0.97,-5.09 -12.35,-22.03 -7.26,-7.75 -4.36,-0.97 1.94,-8.48 6.29,1.21 7.99,-9.93 7.03,-1.93 0.48,-3.39 10.9,-2.67 -9.69,-22.28 1.7,-7.26 -3.64,-2.18 -1.69,-10.42 1.69,-8.96 -6.53,-7.99 3.39,-6.78 -2.67,-5.08 0.97,-7.03 v 0 l 2.42,-0.72 v 0 l 6.06,-0.73 5.08,-4.6 13.81,-1.21 16.46,-16.95 v 0 l 2.18,-3.64 v 0 l 2.67,9.21 10.17,8.71 2.66,9.45 12.84,12.35 -13.81,10.66 z"
     class="land"
     title="Moravički okrug"
     id="RS-17" />
  <path
     d="m 279.62986,444.44199 -0.69,-0.63 v 0 l -7.5,18.58 6.79,5 -0.72,3.22 h -3.93 l 3.93,15 -3.93,2.5 -7.14,-3.21 -5.72,1.78 -3.93,-1.78 -1.79,2.85 4.65,3.94 -2.5,15.36 5.72,0.71 4.28,4.29 -0.71,6.43 -5.36,5 2.86,2.5 -2.67,5.54 v 0 h -0.2 v 0 l -25.7,12.36 6.16,8.4 -0.26,7.28 3.33,0.76 2.13,14.84 -8,2.47 0.05,2.35 -3.74,-1.87 -5,1.8 -9.78,6.85 -1.24,5.17 4.9,8.56 v 0 l -0.75,1.69 v 0 l -3.6,3.76 -19.01,2.99 v 0 l 2.16,-2.85 -1.03,-11.36 -6.5,-5.64 -18.93,-8.06 -4.32,1.58 -7.73,-6.05 v 0 l 5.76,-12.77 2.5,-3.57 5.01,-0.36 1.78,-6.43 15.01,-3.57 -1.07,-4.65 -8.22,-6.43 6.07,-3.57 -1.78,-5.36 1.78,-4.29 v 0 h 3.58 v 0 l 7.5,4.65 5,-10 4.64,-1.79 0.36,-9.29 -2.86,-2.5 2.86,-10.72 -6.43,-7.86 -5.36,-1.07 -3.21,-3.93 7.14,-6.43 2.86,-7.5 -3.57,-3.58 1.43,-3.57 3.21,-1.79 4.29,1.79 2.5,-2.5 -4.29,-12.51 5.72,-0.35 5.36,-6.79 6.79,-3.22 -0.36,-6.07 9.29,-6.07 v 0 l 3.21,1.43 v 0 l 7.86,12.14 10.01,-3.21 -2.5,-1.79 0.71,-3.21 3.57,-1.43 13.22,1.78 v 0 l 1.08,6.43 v 0 z"
     class="land"
     title="Raški okrug"
     id="RS-18" />
  <path
     d="m 347.53986,510.69199 -0.36,-0.78 v 0 l -8.22,-2.86 -3.57,1.78 -3.93,-3.21 -3.93,2.5 v 0 l -13.58,2.86 v 0 l -1.42,8.21 -5.72,3.22 -2.86,10.36 -5,3.22 -6.43,-5 -4.65,2.5 -2.5,-2.86 -2.14,1.43 -5.8,25.92 v 0 l -0.2,-0.09 v 0 l -10.19,-6.12 0.44,-5.37 6.82,1.31 0.28,-2.16 -6.88,-11.78 -5.98,-2.25 v 0 h -0.45 v 0 l 2.67,-5.54 -2.86,-2.5 5.36,-5 0.71,-6.43 -4.28,-4.29 -5.72,-0.71 2.5,-15.36 -4.65,-3.94 1.79,-2.85 3.93,1.78 5.72,-1.78 7.14,3.21 3.93,-2.5 -3.93,-15 h 3.93 l 0.72,-3.22 -6.79,-5 7.5,-18.58 v 0 l 4.29,3.93 v 0 l 2.86,-1.79 15.36,4.29 3.93,-1.43 -1.43,-6.43 6.43,1.07 6.43,-4.64 0.72,-10.36 3.21,-2.86 -0.35,13.58 11.79,-2.86 3.57,3.57 -4.29,2.14 5.72,4.65 6.07,-1.43 4.29,-4.64 v 0 l 1.43,3.93 v 0 l 2.86,5.35 -6.08,9.65 3.93,7.5 3.93,1.43 1.43,11.08 3.57,2.14 -3.57,10.01 4.29,8.57 z"
     class="land"
     title="Rasinski okrug"
     id="RS-19" />
  <path
     d="m 456.95986,511.30199 v 3.13 0 l -1.66,4.69 -7.46,1.93 -15.46,-4.97 0.28,8.56 3.31,6.08 -4.69,3.03 -2.49,6.63 13.81,10.77 7.18,0.83 0.27,8.01 -6.07,2.04 v 0 -0.3 0 l -3.87,4.97 -8.28,-1.38 -0.28,-3.87 -16.57,-11.87 -4.41,-0.28 -7.46,4.97 -2.49,-5.8 -11.12,3.2 v 0 l -0.52,-1.39 v 0 l -3.93,-15.72 -8.57,-2.86 -1.79,7.5 -7.14,-3.93 -1.79,-3.21 1.79,-5.36 -4.29,-0.72 -4.29,-5.71 3.22,-7.15 -13.22,0.72 v 0 l -1.43,-3.15 v 0 l 11.79,-10.43 -4.29,-8.57 3.57,-10.01 -3.57,-2.14 -1.43,-11.08 -3.93,-1.43 -3.93,-7.5 6.08,-9.65 -2.86,-5.35 v 0 l -1.04,-2.85 v 0 l 7.83,-7.59 12.14,-0.71 v 0 l 2.13,-1.77 v 0 l 5.19,8.54 -2.21,3.86 2.76,4.97 -1.38,7.73 8.01,13.26 9.94,4.14 2.76,-1.93 7.18,12.7 v 0 l 3.32,-1.93 6.62,1.93 v 0 l -5.24,-10.49 2.76,-0.83 8.56,6.9 1.1,7.18 10.77,3.04 1.38,3.59 9.67,-2.49 6.62,6.35 4.97,-3.59 5.53,8.01 z"
     class="land"
     title="Nišavski okrug"
     id="RS-20" />
  <path
     d="m 336.48986,604.43199 -0.31,-0.43 v 0 l -3.92,0.97 -5.68,-7.88 -11.94,-0.99 2.32,-10.04 -3.68,-6.98 -6.03,5.39 -1.82,-22.19 -4.24,2.21 -4.96,-8.67 -6.6,3.01 -6.71,-0.71 v 0 l -0.75,0.27 v 0 l -4.11,-0.14 v 0 l -0.63,-0.27 v 0 l 5.8,-25.92 2.14,-1.43 2.5,2.86 4.65,-2.5 6.43,5 5,-3.22 2.86,-10.36 5.72,-3.22 1.42,-8.21 v 0 l 13.58,-2.86 v 0 l 3.93,-2.5 3.93,3.21 3.57,-1.78 8.22,2.86 v 0 l 1.79,3.93 v 0 l 13.22,-0.72 -3.22,7.15 4.29,5.71 4.29,0.72 -1.79,5.36 1.79,3.21 7.14,3.93 1.79,-7.5 8.57,2.86 3.93,15.72 v 0 l 1.07,2.86 v 0 l -4.28,5.71 -28.23,15.01 h -6.07 l -8.93,7.5 2.5,4.65 -0.72,11.07 z"
     class="land"
     title="Toplički okrug"
     id="RS-21" />
  <path
     d="m 443.97986,562.03199 6.07,-2.04 -0.27,-8.01 -7.18,-0.83 -13.81,-10.77 2.49,-6.63 4.69,-3.03 -3.31,-6.08 -0.28,-8.56 15.46,4.97 7.46,-1.93 1.66,-4.69 v 0 -3.87 0 l 14.08,5.8 8.01,-4.42 3.31,6.9 5.8,0.83 12.28,-11.18 v 0 l 12.5,4.15 7.76,8.37 2.11,8.33 6.97,10.11 14.11,6.17 -2.61,4.48 1.13,5.4 -1.86,4.78 -7.96,5.13 -2.9,7.93 -14.59,9.34 -0.61,9.04 -4.44,7.84 -6.23,0.42 -2.31,2.96 -7.9,-5.06 -4.46,0.69 -1.28,4.86 -4.86,-2.9 -2.23,1.31 v 0 l -10.85,-2.28 -7.45,-8.56 3.31,-3.87 -23.75,-11.32 -1.93,-3.04 8.29,-5.8 -4.42,-2.76 v 0 z"
     class="land"
     title="Pirotski okrug"
     id="RS-22" />
  <path
     d="m 480.77986,601.84199 -1.62,4.06 -7.71,4.39 v 0 l -8.2,2.05 -4.74,6.04 -10.94,4.65 -5.25,-1.66 v -5.8 l -2.48,1.38 -2.77,-4.42 -7.45,3.59 -0.83,-6.35 -5.8,-0.55 -3.86,3.04 -5.8,-2.76 -2.49,5.52 -18.5,0.55 -5.52,15.46 -3.69,2.93 v 0 l -0.12,-0.07 v 0 l -10.22,7.01 -12.4,-14.22 -11.53,-1.09 v 0 l -0.13,-0.05 v 0 l -15.12,-3.68 3.52,-16.52 v 0 l -0.64,-0.91 v 0 l 7.83,-7.35 0.72,-11.07 -2.5,-4.65 8.93,-7.5 h 6.07 l 28.23,-15.01 4.28,-5.71 v 0 l -0.55,-1.47 v 0 l 11.12,-3.2 2.49,5.8 7.46,-4.97 4.41,0.28 16.57,11.87 0.28,3.87 8.28,1.38 3.87,-4.97 v 0 2.48 0 l 4.42,2.76 -8.29,5.8 1.93,3.04 23.75,11.32 -3.31,3.87 7.45,8.56 z"
     class="land"
     title="Jablanički okrug"
     id="RS-23" />
  <path
     d="m 471.44986,610.29199 -0.55,3.52 7.5,11.41 -5.33,9.18 2.19,2.46 -5.06,18.79 10.78,7.08 4.81,7.29 -5.02,15.13 -5.33,0.89 -3.31,10.51 -13.81,4.37 -10.46,-8.51 -7.98,4.96 1.05,5.73 -6.97,-2.95 -5.51,3.27 -11.31,-1.77 -11.98,-6.62 -2.12,6.5 -13.28,-0.49 -7.75,8.04 -12.63,2.91 -7.71,-2.34 v 0 l 0.13,-7.65 -3.69,-7.58 5.89,-6.54 1.27,-11.71 12.9,-9.77 2.59,-11.51 8.56,-8.86 -5.3,-11.54 v 0 l -0.89,-0.53 v 0 l 3.69,-2.93 5.52,-15.46 18.5,-0.55 2.49,-5.52 5.8,2.76 3.86,-3.04 5.8,0.55 0.83,6.35 7.45,-3.59 2.77,4.42 2.48,-1.38 v 5.8 l 5.25,1.66 10.94,-4.65 4.74,-6.04 z"
     class="land"
     title="Pčinjski okrug"
     id="RS-24" />
     <g id="stadiums" data-country="serbia" data-circle-radius="6"></g>
</svg>
