<?xml version="1.0" encoding="UTF-8" standalone="no"?>
<?xml-stylesheet type="text/css" href="/styles/home.css"?>
<!-- https://www.amcharts.com/svg-maps -->

<svg version="1.1" xmlns="http://www.w3.org/2000/svg" id="map-slovenia"
   viewBox="0 0 612.85449 397.79544">
  <defs
     id="defs4">
    <style
       type="text/css"
       id="style2">
			.land
			{
				fill: #CCCCCC;
				fill-opacity: 1;
				stroke:white;
				stroke-opacity: 1;
				stroke-width:0.5;
			}
		</style>
    <!-- <amcharts:ammap projection="mercator" leftLongitude="13.372971" topLatitude="46.875889" rightLongitude="16.594476" bottomLatitude="45.422671"></amcharts:ammap> -->
    <!-- All areas are listed in the line below. You can use this list in your script. -->
    <!--{id:"SI-JP"},{id:"SI-NO"},{id:"SI-SP"},{id:"SI-GO"},{id:"SI-LJ"},{id:"SI-JS"},{id:"SI-ZS"},{id:"SI-SA"},{id:"SI-KO"},{id:"SI-PS"},{id:"SI-PD"},{id:"SI-PM"}-->
  </defs>
  <path
     style="fill:#cccccc;fill-opacity:1;stroke:#ffffff;stroke-width:0.5;stroke-opacity:1"
     d="m 42.207138,290.94175 10.26,-0.49 2.63,1.06 h 4.73 l 1.56,-5.14 2.18,-0.02 2.49,-2.15 0.72,-3.45 -0.47,-1.96 5.66,1.63 3.5,2.61 0.97,1.71 3.32,1.93 4.13,-0.24 0.09,-1.9 0.84,0.13 0.79,-1 3.73,1.76 1.33,2.69 1.86,0.77 2.87,0.16 4.03,-1.22 -0.25,1.27 1.050002,0.11 v 1.9 l 0.91,-0.05 1.04,2.01 5.44,4.46 2.74,1.38 1.21,-0.27 0.32,0.84 1.07,-0.08 6.59,4.21 -0.6,2.01 2.01,-0.95 0.97,-1.66 2.68,0.46 3.21,2.56 v 0 l 1.39,2.36 4.22,0.49 2.64,1.84 -0.63,1.12 0.74,1.52 1.65,-0.33 -0.09,1.06 -1.29,0.4 1.63,0.66 0.4,3.22 -0.67,1.06 -2.83,-0.38 -0.41,1.06 -1.01,0.03 0.19,1.79 -1.26,1.79 -0.2,1.98 2.39,1.57 -0.19,3.01 0.76,1.06 -1.27,3.73 1.88,1.33 0.34,2.79 -1.06,1.85 3.11,1.97 -0.74,2.14 3.16,1.44 -1.34,9.93 -1.36,0.97 -0.82,5.77 3.59,0.73 -2.26,4.21 -0.76,4.09 -2.47,2.29 5.45,1.25 0.38,1.19 1.41,0.59 0.47,-1.43 1.24,-0.38 -0.48,1.97 0.99,3.79 -0.97,0.29 0.04,0.84 v 0 l -2.89,-1.35 -5.01,0.16 -3.25,-0.75 -4.81,-3.92 -1.5,-0.11 -5.51,-5.27 -2.4,-0.11 -0.38,3.11 -4.82,-1.81 -2.25,2.67 1.18,2.14 2.3,1 2.43,2.73 -0.89,0.27 0.78,1.29 -1.16,2.35 0.49,3.41 -2.92,2.4 -3.97,-2.4 -7.85,1.35 -2.450002,3.8 -1.71,1.27 -0.42,2.03 -1.52,0.24 -2.51,-0.51 -2.09,0.51 -0.59,-1.7 -1.77,-0.65 -5.15,0.08 -0.32,-1.81 -1.86,-0.67 0.85,-2.89 -1,-1.38 -2.74,-1.48 -4.09,-0.22 -1.71,-1.78 -3.11,0.4 -2.23,3 -3.49,0.6 -5.46,3.61 -5.26,-4.13 -7.85,-2 -2.28,-1.75 -1.71,-1.7 1.41,-2.35 -1.43,-2.98 0.82,-0.16 0.13,-1.13 1.75,0.05 -0.91,-0.13 0.57,-0.65 -0.86,-2 -4.27,-0.65 -1.35,-4.27 3.12,1.21 4.06,0.3 1.39,-0.97 -0.57,-0.95 -0.63,0.71 0.12,-2.01 2.35,-0.62 5.84,2.06 2.3,-0.71 -0.06,-2.08 2.66,0.79 0.85,-1.63 1.96,-0.86 3.31,-0.03 3.11,1.3 0.73,-1.46 2.71,-0.95 -1.16,-0.29 0.19,-0.84 2.55,-0.22 -2.43,-0.32 0.59,-1.22 1.71,-0.27 0.07,-0.89 -7.86,-5.69 0.28,-1.03 7.49,-1.57 9.14,4.82 8,-0.51 5.3,-4.47 0.82,-2.89 6.040002,-3.39 3.16,-3.03 -1.96,-1.87 -4.390002,-1.98 -4.05,-3.55 -5.79,-7.83 -0.35,-5.81 -4.67,-4.12 -2.53,-5.54 -3.86,-0.92 -2.28,-1.93 -3.21,0.36 -2.03,-1.33 0.55,-0.79 -5.4,-3.07 -5.89,-5.62 -0.99,0.51 -1,-2.2 -5.34,0.82 0.24,-1.22 -3.72,1.82 -0.42,-1.23 -4.52,-2.06 z"
     class="land"
     title="Obalno-kraška"
     id="SI-JP" />
  <path
     style="fill:#cccccc;fill-opacity:1;stroke:#ffffff;stroke-width:0.5;stroke-opacity:1"
     d="m 144.80714,276.07175 0.72,-0.79 1.92,0.08 1.22,-1.2 1.27,1.34 5.38,-1.15 3.97,2.4 1.25,-0.14 1.62,2.4 3.51,-0.22 -0.26,1.14 2.32,1.42 1.74,-1.77 -0.28,1.08 2.43,-0.08 1.31,1.47 4.43,-9.38 -0.17,-1.31 1.73,-1.6 1.65,-0.36 5.63,1.99 1.82,4.46 1.22,-0.13 0.74,1.11 1.71,-1.69 2.52,2.23 0.94,2.37 h 0.78 l 0.96,-2.34 1.51,-0.79 1.46,0.33 3.53,4.95 1.66,-1.01 1.82,-4.05 2.34,0.68 4.63,-3.18 1.3,2.45 -0.23,1.93 -1.07,0.65 0.18,1.41 2.05,2.59 -0.44,0.89 3.52,3.57 1.42,3.42 3.27,0.49 0.59,3.26 2.05,1.39 0.61,1.44 v 0 l -3.67,0.62 1.56,2.25 2.89,0.38 -1.2,5.92 1.39,0.85 1.14,4.12 -3.76,0.76 -1.9,-4.42 -1.77,0.7 0.55,2.99 3.86,8.44 0.87,9.21 1.37,0.17 v 0 l -1.37,6.01 -4.69,8.13 -2.62,2.68 -5.12,1.22 0.59,4.84 -1.44,3.68 -0.65,7.36 -1.38,2.46 -8.84,6.11 -1.86,2.22 -2.87,-0.73 v 0.84 l -2.8,0.65 -1.35,2.65 -5.37,2.26 -3.88,0.03 -3.55,3.32 -1.94,-3.45 h -2.57 l -3.25,-2.71 -2.24,0.25 -2.11,1.59 -3.46,-5.29 -4.37,1.46 -3.23,4.86 -0.13,3.32 -4.49,-1.86 -3.36,-0.46 -6.29,1.43 v 0 l -0.04,-0.84 0.97,-0.29 -0.99,-3.79 0.48,-1.97 -1.24,0.38 -0.47,1.43 -1.41,-0.59 -0.38,-1.19 -5.45,-1.25 2.47,-2.29 0.76,-4.09 2.26,-4.21 -3.59,-0.73 0.82,-5.77 1.36,-0.97 1.34,-9.93 -3.16,-1.44 0.74,-2.14 -3.11,-1.97 1.06,-1.85 -0.34,-2.79 -1.88,-1.33 1.27,-3.73 -0.76,-1.06 0.19,-3.01 -2.39,-1.57 0.2,-1.98 1.26,-1.79 -0.19,-1.79 1.01,-0.03 0.41,-1.06 2.83,0.38 0.67,-1.06 -0.4,-3.22 -1.63,-0.66 1.29,-0.4 0.09,-1.06 -1.65,0.33 -0.74,-1.52 0.63,-1.12 -2.64,-1.84 -4.22,-0.49 -1.39,-2.36 v 0 l 0.93,-3.02 1.39,0.08 0.53,-7.68 1.41,-0.79 0.6,1.09 0.44,-3.32 -3.61,-7.23 10.01,-3.15 -0.26,-0.87 1.77,-2.48 z"
     class="land"
     title="Notranjsko-kraška"
     id="SI-NO" />
  <path
     style="fill:#cccccc;fill-opacity:1;stroke:#ffffff;stroke-width:0.5;stroke-opacity:1"
     d="m 53.457138,120.42175 0.38,0.83 5.19,0.52 v 0 l -0.48,2.03 0.76,0.86 10.65,-3.85 2.79,3.46 5.05,1.48 2.08,2.04 3.95,1.4 0.4,5.96 1.88,2.09 1.97,-0.17 0.33,1.02 -2.53,4.33 -2.85,0.5 -0.97,0.96 -2.43,-0.25 -2.09,2.03 -6.33,2.06 -0.7,1.34 0.76,5.16 -4.01,3.43 1.48,1.31 -0.32,1.35 1.35,2.74 1.95,1.1 1.69,3.04 2.27,0.55 4.97,5.34 7.76,4.63 4.22,3.47 10.050002,-0.9 7.94,-2.71 9.01,-1.86 -0.11,0.87 1.91,1.26 0.25,2.93 -0.64,2.11 -1.54,0.63 -1.45,3.09 -0.49,3.75 0.85,2.66 2.26,0.82 2.65,-1.23 2.16,0.87 2.07,-1.01 6.81,2.08 -0.78,4.02 -2.57,3.11 0.31,1.86 -2.55,3.09 -0.36,2.32 -2.28,1.59 -1.65,2.81 -0.61,3.31 2.33,3.74 8.76,6.03 0.92,2.84 -0.59,0.52 1.44,0.33 -1.73,2.7 4.49,-2.16 0.59,3.96 1,0.95 -0.59,1.56 1.62,0.35 1.6,1.64 3.11,0.16 v 0 l 1.05,0.6 -0.8,1.2 0.46,1.53 -1.16,0.03 -1.2,3.24 -3.44,0.08 0.06,1.53 -1.01,0.46 0.38,1.91 1.84,-0.68 -0.47,1.58 0.61,3.08 -1.33,0.84 -0.33,3.22 -2.52,1.6 0.68,5.8 3.46,3.4 1.71,7.38 v 0 l -3.78,2.58 -1.77,2.48 0.26,0.87 -10.01,3.15 3.61,7.23 -0.44,3.32 -0.6,-1.09 -1.41,0.79 -0.53,7.68 -1.39,-0.08 -0.93,3.02 v 0 l -3.21,-2.56 -2.68,-0.46 -0.97,1.66 -2.01,0.95 0.6,-2.01 -6.59,-4.21 -1.07,0.08 -0.32,-0.84 -1.21,0.27 -2.74,-1.38 -5.44,-4.46 -1.04,-2.01 -0.91,0.05 v -1.9 l -1.050002,-0.11 0.25,-1.27 -4.03,1.22 -2.87,-0.16 -1.86,-0.77 -1.33,-2.69 -3.73,-1.76 -0.79,1 -0.84,-0.13 -0.09,1.9 -4.13,0.24 -3.32,-1.93 -0.97,-1.71 -3.5,-2.61 -5.66,-1.63 0.47,1.96 -0.72,3.45 -2.49,2.15 -2.18,0.02 -1.56,5.14 h -4.73 l -2.63,-1.06 -10.26,0.49 v 0 l -1.84,-6.06 -2,-1.03 0.04,-2.75 3.19,-5.77 -0.83,-2.28 1.27,-2.29 2.66,-2.09 2.64,-6.59 2.7,-3.46 -0.78,-4.27 1.92,-8.45 -1.48,-1.23 -3.59,1.91 -4.6,-2.1 -2.72,2.1 -2.2,3.43 -2.57,-0.27 -1.25,1.2 -2.26,-0.08 -4.28,-3.85 -1.73,-0.08 -2.94,-4.79 -2.34,-2.27 1.92,-2.21 2.16,-0.24 1.73,-3.11 0.67,-3.82 -0.49,-1.2 -1.43,-0.66 0.15,-2.75 1.1,-1.12 4.85,-1.64 2.58,-3.85 5.46,-2.27 4.46,-4.04 1.35,-2.38 3.88,-2.67 3.93,-4.29 1.92,-3.91 -0.15,-2.27 1.39,-1.45 0.76,-2.66 -1.45,-2.4 -3.97,-1.65 -4.27,2.11 -0.57,-0.44 0.45,-1.01 -3.95,0.08 -0.42,-0.68 -3.42,1.78 -0.97,-0.93 0.11,-1.84 -1.51,-2.7 -5.46,-2.44 -0.49,-1.48 -2.34,0.93 -2.89,-0.03 -1.14,-1.61 -1.94,-0.85 -3.55,0.38 -3.48,-0.82 -0.04,3.48 -4.48,1.72 -2.3,-1.06 -0.61,-1.24 1.2,-2.24 -0.72,-1.1 2.28,-1.78 -4.98,-5.83 -2.03,-9.48 -1.55999999,-0.11 -0.63,-2 5.25999999,-0.74 2.46,-2.22 0.09,-1.89 1.41,-1.57 3.27,-0.79 1.65,-3.1 -2.21,-5.49 0.48,-1.29 2.66,-0.77 3.15,0.52 2.89,-2.47 2.13,-0.19 2.51,-1.7 1.01,0.3 0.19,-1.62 1.9,-1.48 1.59,0.14 5.87,-3.22 2.04,-3.29 1.12,-5.44 2.7,-2.26 10.05,-2.31 z"
     class="land"
     title="Goriška"
     id="SI-SP" />
  <path
     style="fill:#cccccc;fill-opacity:1;stroke:#ffffff;stroke-width:0.5;stroke-opacity:1"
     d="m 69.877138,99.541749 6.04,0.22 4.37,2.870001 3.31,-0.2 3.86,-3.630001 1.16,0.96 2.81,0.450001 5.53,-2.260001 3.04,0.99 2.560002,-0.58 7.7,3.720001 3.4,3.16 1.14,-0.44 2.3,1.35 0.4,1.54 3.4,1.71 2.42,0.02 2.73,-2.75 3.06,-0.36 8.15,2.23 1.28,1.54 3.09,0.53 3.65,5.55 v 1.93 l 3.01,1.84 1.04,2.39 2.2,0.19 4.26,-2.47 3.9,0.82 1.21,-0.96 1.81,2.2 1.88,0.71 8.99,-2.99 5.09,3.63 3.65,-0.44 2.49,-1.76 4.98,-0.63 2.13,0.52 3.15,-1.82 5.99,-0.3 1.25,1.73 -0.95,0.28 -0.15,1.26 1.8,1.35 1.07,2.09 h 3.8 l 2.13,0.66 0.34,1.4 2.68,0.38 3.04,-3.49 2.45,0.36 3.53,3.79 v 1.43 l 2.26,3.02 1.18,5.19 0.82,0.74 2.57,-0.85 v 0 l -0.02,0.28 v 0 l -0.86,1.12 -3.86,1.07 2.27,3.27 -2.3,4.47 3,2.66 -3.5,4.06 2.83,4.88 -0.87,1.81 2.85,1.15 -0.53,1.43 1.82,1.97 -3.29,0.14 -1.1,1.59 0.08,0.79 2.73,0.88 -0.53,1.23 1.5,2.36 -4.65,3.69 0.15,1.76 -1.44,2.08 -2.61,2.43 -2.54,0.14 -2.8,3.8 -7.48,-1.25 -0.46,0.57 1.73,1.18 -2.03,1.28 v 0 l -5.02,0.22 v 0 l -4.85,-0.22 1.16,3.97 1.98,1.91 -4.71,2.68 h -2.74 l 0.25,2.11 -0.76,1.12 -0.8,-0.33 -0.08,-1.36 -2.16,-0.2 -0.02,1.29 -0.69,0.41 -0.91,-0.71 -1.5,2.71 -3.23,1.42 -0.51,3.39 1.78,1.74 0.19,2.14 -0.99,2.15 -2.45,0.2 -1.46,-1.34 -2,0.54 -7.69,-1.2 -2.21,2.95 -3.95,-0.03 -2.24,2.3 -1.26,2.7 0.4,4.83 -1.76,2.02 -0.46,2.6 -4.56,3.98 -0.15,1.88 -3.04,-0.11 -0.12,1.2 -1.69,0.52 0.14,1.69 -2.04,0.9 v 0 l -3.11,-0.16 -1.6,-1.64 -1.62,-0.35 0.59,-1.56 -1,-0.95 -0.59,-3.96 -4.49,2.16 1.73,-2.7 -1.44,-0.33 0.59,-0.52 -0.92,-2.84 -8.76,-6.03 -2.33,-3.74 0.61,-3.31 1.65,-2.81 2.28,-1.59 0.36,-2.32 2.55,-3.09 -0.31,-1.86 2.57,-3.11 0.78,-4.02 -6.81,-2.08 -2.07,1.01 -2.16,-0.87 -2.65,1.23 -2.26,-0.82 -0.85,-2.66 0.49,-3.75 1.45,-3.09 1.54,-0.63 0.64,-2.11 -0.25,-2.93 -1.91,-1.26 0.11,-0.87 -9.01,1.86 -7.94,2.71 -10.050002,0.9 -4.22,-3.47 -7.76,-4.63 -4.97,-5.34 -2.27,-0.55 -1.69,-3.04 -1.95,-1.1 -1.35,-2.74 0.32,-1.35 -1.48,-1.31 4.01,-3.43 -0.76,-5.16 0.7,-1.34 6.33,-2.06 2.09,-2.03 2.43,0.25 0.97,-0.96 2.85,-0.5 2.53,-4.33 -0.33,-1.02 -1.97,0.17 -1.88,-2.09 -0.4,-5.96 -3.95,-1.4 -2.08,-2.04 -5.05,-1.48 -2.79,-3.46 -10.65,3.85 -0.76,-0.86 0.48,-2.03 v 0 l 1.94,-1.62 1.16,-4.24 -0.99,-2.33 2.87,-3.47 -1.08,-1.4 0.58,-2.04 -0.66,-2.12 2.22,-2.56 -0.05,-3.220001 1.36,-0.85 z"
     class="land"
     title="Gorenjska"
     id="SI-GO" />
  <path
     style="fill:#cccccc;fill-opacity:1;stroke:#ffffff;stroke-width:0.5;stroke-opacity:1"
     d="m 228.85714,138.64175 4.6,3.1 1.02,-1.13 4.01,0.28 4.24,-1.57 -0.23,8.65 3.38,3.81 2.34,0.11 0.76,0.96 -0.09,6.75 1.63,0.6 3.82,-1.02 0.13,1.68 -1.65,3.15 1.61,2.33 0.02,1.92 -1.52,2.71 1.39,2.27 h 4.56 l 5.19,1.73 1.25,-0.77 2.55,0.8 4.45,-1.43 9.67,0.74 8.4,5.7 1.31,-0.52 1.18,3.31 2.35,0.38 -0.97,1.23 -1.14,-0.35 -0.74,1.67 v 0 l -1.67,0.22 0.25,5.09 -2.24,1.39 -0.12,1.75 -3.48,-0.87 -3.8,1.91 -6.86,0.27 0.69,1.1 1.88,0.38 -0.13,1.4 3.13,3.11 -1.24,2.71 0.16,2.13 8.15,-1.12 1.31,0.57 0.93,1.26 -0.64,2.82 0.83,2.56 2.64,2.79 2.06,0.25 6.32,-0.44 3.75,-4.64 4.08,-1.81 2.21,3.58 -0.67,1.23 -2.68,0.3 1.31,2.13 0.04,2.21 1.31,0.77 -2.6,0.95 0.68,1.45 5.42,2.87 9.71,-1.78 v 0 l 0.97,2.21 2.35,0.66 v 0 l 0.29,2.27 3.82,6.16 v 0 l -3.12,-0.03 0.48,-0.81 -1.64,-0.55 -1.76,1.42 -0.76,2.18 -3.08,-1.2 -0.8,-1.09 -5.32,-0.22 -0.61,1.34 0.97,0.46 1.14,3.36 -0.59,1.47 -2.94,1.5 0.45,1.72 -0.85,0.68 -1.83,-0.3 -0.21,0.76 -0.93,-0.03 -2.33,-1.71 -2.99,0.27 -1.37,-1.58 -2.47,-0.38 -1.76,1.14 -0.21,3.14 -2.91,0.92 -2.41,0.14 -1.6,-1.45 -1.88,-2.75 0.04,-2.53 h -1.66 l -1.04,-2.98 -1.41,-0.68 -1.75,1.09 0.12,2.13 -1.31,1.42 -3.54,-0.47 -3.04,0.63 -0.78,-1.23 -1.14,1.01 -2.66,-2.29 -1.63,1.8 -1.81,0.14 -0.15,1.74 -2.49,1.67 -2.3,-1.01 -1.42,2.1 0.61,1.01 -1.18,0.16 -1.75,2.37 -0.08,2.34 -0.8,-0.38 -1.25,1.17 0.67,1.37 -0.94,0.27 -1.34,3.16 1.33,1.63 0.87,-0.92 0.87,1.09 0.44,-0.66 1.75,0.71 -1.01,1.09 1.24,5.07 2.85,4.21 -1.45,0.66 -0.21,3.15 1.05,2.18 2.17,1.39 1.59,3.81 -1.48,0.49 -0.65,1.68 -1.42,1.01 0.23,6.01 1.78,-1.04 0.91,2.59 2.7,1.41 -0.47,3.37 2.96,0.84 1.24,1.3 -1.01,5.71 2.11,4.72 3.29,0.76 0.91,-2.14 0.76,0.08 0.72,1.95 3.56,-0.92 2.41,1.66 -0.51,9.66 -2.34,2.47 -1.83,-1.98 -1.52,0.29 -1.5,-1.03 -12.39,-11.61 -0.91,0.57 -0.55,-0.52 -1.62,-2.36 -0.96,-3.48 -6.43,-4.67 -0.4,-1.65 -2.6,-2.61 -2.64,-0.44 -2.09,2.77 -2.21,0.71 -1.25,1.58 -9.77,-1.01 -0.72,1.52 -5.26,-0.49 -0.63,1.23 v 0 l -0.61,-1.44 -2.05,-1.39 -0.59,-3.26 -3.27,-0.49 -1.42,-3.42 -3.52,-3.57 0.44,-0.89 -2.05,-2.59 -0.18,-1.41 1.07,-0.65 0.23,-1.93 -1.3,-2.45 -4.63,3.18 -2.34,-0.68 -1.82,4.05 -1.66,1.01 -3.53,-4.95 -1.46,-0.33 -1.51,0.79 -0.96,2.34 h -0.78 l -0.94,-2.37 -2.52,-2.23 -1.71,1.69 -0.74,-1.11 -1.22,0.13 -1.82,-4.46 -5.63,-1.99 -1.65,0.36 -1.73,1.6 0.17,1.31 -4.43,9.38 -1.31,-1.47 -2.43,0.08 0.28,-1.08 -1.74,1.77 -2.32,-1.42 0.26,-1.14 -3.51,0.22 -1.62,-2.4 -1.25,0.14 -3.97,-2.4 -5.38,1.15 -1.27,-1.34 -1.22,1.2 -1.92,-0.08 -0.72,0.79 v 0 l -1.71,-7.38 -3.46,-3.4 -0.68,-5.8 2.52,-1.6 0.33,-3.22 1.33,-0.84 -0.61,-3.08 0.47,-1.58 -1.84,0.68 -0.38,-1.91 1.01,-0.46 -0.06,-1.53 3.44,-0.08 1.2,-3.24 1.16,-0.03 -0.46,-1.53 0.8,-1.2 -1.05,-0.6 v 0 l 2.04,-0.9 -0.14,-1.69 1.69,-0.52 0.12,-1.2 3.04,0.11 0.15,-1.88 4.56,-3.98 0.46,-2.6 1.76,-2.02 -0.4,-4.83 1.26,-2.7 2.24,-2.3 3.95,0.03 2.21,-2.95 7.69,1.2 2,-0.54 1.46,1.34 2.45,-0.2 0.99,-2.15 -0.19,-2.14 -1.78,-1.74 0.51,-3.39 3.23,-1.42 1.5,-2.71 0.91,0.71 0.69,-0.41 0.02,-1.29 2.16,0.2 0.08,1.36 0.8,0.33 0.76,-1.12 -0.25,-2.11 h 2.74 l 4.71,-2.68 -1.98,-1.91 -1.16,-3.97 4.85,0.22 v 0 l 5.02,-0.22 v 0 l 2.03,-1.28 -1.73,-1.18 0.46,-0.57 7.48,1.25 2.8,-3.8 2.54,-0.14 2.61,-2.43 1.44,-2.08 -0.15,-1.76 4.65,-3.69 -1.5,-2.36 0.53,-1.23 -2.73,-0.88 -0.08,-0.79 1.1,-1.59 3.29,-0.14 -1.82,-1.97 0.53,-1.43 -2.85,-1.15 0.87,-1.81 -2.83,-4.88 3.5,-4.06 -3,-2.66 2.3,-4.47 -2.27,-3.27 3.86,-1.07 z"
     class="land"
     title="Osrednjeslovenska"
     id="SI-LJ" />
  <path
     style="fill:#cccccc;fill-opacity:1;stroke:#ffffff;stroke-width:0.5;stroke-opacity:1"
     d="m 227.08714,297.82175 0.63,-1.23 5.26,0.49 0.72,-1.52 9.77,1.01 1.25,-1.58 2.21,-0.71 2.09,-2.77 2.64,0.44 2.6,2.61 0.4,1.65 6.43,4.67 0.96,3.48 1.62,2.36 0.55,0.52 0.91,-0.57 12.39,11.61 1.5,1.03 1.52,-0.29 1.83,1.98 2.34,-2.47 0.51,-9.66 -2.41,-1.66 -3.56,0.92 -0.72,-1.95 -0.76,-0.08 -0.91,2.14 -3.29,-0.76 -2.11,-4.72 1.01,-5.71 -1.24,-1.3 -2.96,-0.84 0.47,-3.37 -2.7,-1.41 -0.91,-2.59 -1.78,1.04 -0.23,-6.01 1.42,-1.01 0.65,-1.68 1.48,-0.49 -1.59,-3.81 -2.17,-1.39 -1.05,-2.18 0.21,-3.15 1.45,-0.66 -2.85,-4.21 -1.24,-5.07 1.01,-1.09 -1.75,-0.71 -0.44,0.66 -0.87,-1.09 -0.87,0.92 -1.33,-1.63 1.34,-3.16 0.94,-0.27 -0.67,-1.37 1.25,-1.17 0.8,0.38 0.08,-2.34 1.75,-2.37 1.18,-0.16 -0.61,-1.01 1.42,-2.1 2.3,1.01 2.49,-1.67 0.15,-1.74 1.81,-0.14 1.63,-1.8 2.66,2.29 1.14,-1.01 0.78,1.23 3.04,-0.63 3.54,0.47 1.31,-1.42 -0.12,-2.13 1.75,-1.09 1.41,0.68 1.04,2.98 h 1.66 l -0.04,2.53 1.88,2.75 1.6,1.45 2.41,-0.14 2.91,-0.92 0.21,-3.14 1.76,-1.14 2.47,0.38 1.37,1.58 2.99,-0.27 2.33,1.71 0.93,0.03 0.21,-0.76 1.83,0.3 0.85,-0.68 -0.45,-1.72 2.94,-1.5 0.59,-1.47 -1.14,-3.36 -0.97,-0.46 0.61,-1.34 5.32,0.22 0.8,1.09 3.08,1.2 0.76,-2.18 1.76,-1.42 1.64,0.55 -0.48,0.81 3.12,0.03 v 0 l 4.05,1.31 0.68,2.13 1.66,-2.24 4.84,0.93 -0.32,3.14 -2.3,1.09 -0.5,2.78 1.81,0.92 0.25,2.68 6.51,5.47 4.22,1.75 1.24,0.05 -0.12,-1.41 0.78,-0.55 1.6,0.76 0.21,-1.55 1.61,-0.08 0.27,-2.84 2.51,0.63 1.86,3.35 1.79,-0.13 0.11,-1.69 -1.56,-1.77 1.43,-2.51 2.58,0.82 2.21,1.93 -0.12,-3 2.99,1.09 2.35,-0.19 0.08,3.46 2.56,0.79 0.8,1.37 -1.46,2.29 0.78,11 -1.56,4.08 7.75,3.75 -0.62,1.77 0.76,2.94 2.39,-0.03 -1.12,1.99 -4.31,0.87 -0.35,1.06 1.24,0.98 0.49,2.45 1.69,2.25 3.01,10.03 v 0 l -2.97,3.1 -3.93,0.76 -6.79,4.02 -4.67,1.65 -1.54,1.93 -2.38,1.25 -3.34,4.26 -4.41,1.57 2.13,1.57 2.91,-0.38 1.21,2.72 2.15,-0.73 0.84,1.22 0.13,3.17 1.88,1.71 0.53,-2.82 1.87,-0.08 -0.63,2.6 2.77,4.04 0.86,-0.87 -1.26,-5.26 2.36,-1.6 1.35,-3.12 3.44,-0.08 -0.17,3.82 1.16,0.28 0.09,1.11 -0.51,2.25 -1.81,0.49 -0.3,3.52 0.91,-0.19 0.19,-1.06 1.18,0.03 0.42,-2.87 1.14,-0.74 1.44,3.64 2.59,2.65 1.21,4.18 1.94,1.11 -2.15,2.27 -1.69,0.63 -2.35,-0.87 -0.67,-1.35 -4.67,-0.17 -0.78,0.95 1.73,0.84 -0.19,0.92 -1.89,0.9 -2.9,-0.27 -4.47,1 0.93,4.79 -3.04,0.38 -2.71,2.19 4.1,5.61 0.51,12.66 0.78,0.94 1.69,0.16 -0.15,2.01 2.03,0.94 1.33,2.6 4.81,2.89 1.28,1.75 1.42,-0.75 2.97,2.73 -5.21,3.21 -2.43,5.13 -3.01,1.03 -11.09,-3.49 -5.5,3.41 -2.94,4.18 -0.95,2.97 -3.46,0.08 -2.05,-2.62 -2.32,3.54 -4.35,-0.43 -2.02,-1.38 -1.9,-3.64 -2.85,-1.03 -3.57,-4.02 -3.34,-1.24 -0.19,-4.46 -4.83,-1.54 -1.07,-1.49 -2.75,1.87 -2.58,0.4 -2.8,-2.97 -5.66,-0.65 -2.62,-3.08 -7.09,-5.19 -1.77,0.27 -1.69,2.52 0.25,6.67 -1.29,4.59 -6.16,1.33 -1.37,1.51 -9.73,1.73 -0.38,-2.95 -1.61,-1.91 -0.14,-2.08 -1.16,-1.35 0.65,-1.11 -1.16,-2.06 -1.73,0.49 -0.25,-1.43 -3.45,-0.41 0.01,-1.32 -1.99,0.22 -4.43,-4.65 -3.02,-1.46 -2.89,-0.22 -0.64,2.16 -1.6,0.16 -1.29,-2.19 0.8,-5.22 1.29,-0.64 0.82,-1.74 -1.32,-3.78 -2.49,-3.28 -5.16,-0.73 -2.3,-3.33 -2.02,-0.4 -0.7,-2.2 -3.06,-1.11 -2.6,-2.49 2.18,-8.8 1.29,-1.03 -1.74,-0.55 -1.16,-1.4 -3.46,1.05 -0.42,-1.19 -0.36,0.46 -0.97,-1 v 0 l -1.37,-0.17 -0.87,-9.21 -3.86,-8.44 -0.55,-2.99 1.77,-0.7 1.9,4.42 3.76,-0.76 -1.14,-4.12 -1.39,-0.85 1.2,-5.92 -2.89,-0.38 -1.56,-2.25 z"
     class="land"
     title="Jugovzhodna Slovenija"
     id="SI-JS" />
  <path
     style="fill:#cccccc;fill-opacity:1;stroke:#ffffff;stroke-width:0.5;stroke-opacity:1"
     d="m 292.37714,185.73175 v 2.32 l 2.15,1.23 1.88,2.58 3.65,0.16 5.53,-2 5.6,0.66 0.31,1.97 0.93,0.27 4.47,-2.79 1.8,0.71 4.68,-0.27 4.84,-3.2 4.51,4.1 0.28,1.81 1.12,0.11 -0.32,2.32 4.08,-0.38 1.05,4.46 3.48,2.46 1.69,3.77 1.46,1.28 -2.43,0.61 -1.12,1.99 -6.1,-2.68 0.32,1.18 -0.8,0.44 -0.95,3.14 4.41,2.65 -3.93,1.39 -5.59,-1.91 -0.46,2.02 -2.88,0.52 0.03,3.36 -1.54,-1.07 -1.82,1.39 0.4,1.94 v 0 l -9.71,1.78 -5.42,-2.87 -0.68,-1.45 2.6,-0.95 -1.31,-0.77 -0.04,-2.21 -1.31,-2.13 2.68,-0.3 0.67,-1.23 -2.21,-3.58 -4.08,1.81 -3.75,4.64 -6.32,0.44 -2.06,-0.25 -2.64,-2.79 -0.83,-2.56 0.64,-2.82 -0.93,-1.26 -1.31,-0.57 -8.15,1.12 -0.16,-2.13 1.24,-2.71 -3.13,-3.11 0.13,-1.4 -1.88,-0.38 -0.69,-1.1 6.86,-0.27 3.8,-1.91 3.48,0.87 0.12,-1.75 2.24,-1.39 -0.25,-5.09 z"
     class="land"
     title="Zasavska"
     id="SI-ZS" />
  <path
     style="fill:#cccccc;fill-opacity:1;stroke:#ffffff;stroke-width:0.5;stroke-opacity:1"
     d="m 366.84714,104.72175 1.45,1.21 2.09,-0.41 0.3,2.72 1.71,2.01 0.16,2.72 1.67,0.3 2.03,-0.85 1.75,1.32 0.28,1.35 2.36,1.18 1.98,-1.37 3.74,3.19 -0.95,1.7 -0.29,4.12 h -1.44 l -0.27,0.75 3.63,2.88 -0.95,0.88 0.59,1.59 -2.56,0.5 1.06,1.12 2.83,0.63 -0.11,1.32 0.93,0.63 3.9,0.86 -0.1,1.34 1.41,0.77 3.15,-0.08 1.54,-0.83 1.62,1.16 1.5,-1.38 1.04,0.53 1.03,3.4 4.84,-1.4 1.26,1.1 1.69,10.62 1.31,1.56 -1.04,3.13 1.4,2 -1.44,1.51 3.84,1.04 0.36,3.73 3.08,1.04 3.3,-0.9 1.64,1.2 3.72,-0.82 3.46,1.32 0.26,1.45 5.72,0.93 1.58,0.93 2.28,-0.27 -0.55,1.61 0.53,0.74 3.86,-0.22 v 0 l 3.31,-0.24 v 0 l 1.27,-0.22 2.03,1.2 0.99,-0.52 1.96,3.84 6.86,-0.96 v 0 l 0.46,2.3 -1.11,0.74 -1.52,5.17 -5.28,2.69 -1.73,-0.91 0.89,-1.88 -0.83,-1.05 -2.32,-0.1 -1.75,1.53 -0.34,-1.78 -5.66,-0.14 -3.27,-1.23 -5.91,2.9 -1.45,2.58 1.3,1.04 -0.52,4.54 -1.42,0.33 -1.09,2.68 -4.52,2.43 -0.7,1.83 1.84,2.38 -3.23,1.59 2.09,1.97 -0.4,0.65 1.05,0.17 -0.7,2.76 0.76,0.24 -0.9,0.55 0.38,0.96 -0.89,1.25 1.06,2.38 0.74,-0.05 -0.13,1.88 1.98,0.74 -0.46,2.35 2.02,1.33 2.81,-0.98 0.36,1.31 1.75,0.49 0.23,2.82 2.03,-1.07 0.8,1.12 1.12,-0.44 2.72,2.52 3.87,0.9 1.12,1.74 v 0 l -2.62,-0.51 -2.01,1.33 -5.02,-0.49 -1.82,3.52 -3.56,1.47 -2.47,4.15 -1.94,1.72 -4.69,1.88 -6.59,0.71 1.31,-2.62 3.85,-2.45 1.24,-4.01 -3.88,-0.6 -1.71,0.92 -2.98,0.09 -1.05,-6.72 -1.9,-0.46 -1.61,-3.22 -2.17,-0.96 -2.22,1.64 -1.26,-1.91 -3.21,-1.69 -4.27,0.87 -3.1,-0.74 -1.67,0.88 v 0 h -3.69 v 0 l -3.59,-0.69 -1.56,-1.44 -3.89,2.21 -6.86,0.16 -3.23,-1.01 -1.92,0.77 -2.42,-0.39 -0.19,3.61 -1.5,-1.15 0.19,-4.7 -1.52,-0.73 0.02,-2.16 -1.1,-1.42 -0.7,-0.06 -1.09,2.16 -2.11,0.44 -2.26,-0.33 -2.3,-1.88 -2.33,0.84 -1.49,-0.71 -2.81,1.12 -0.36,1.37 2.81,1.75 -1.4,3.6 0.7,1.31 -1.07,1.15 2.72,1.04 -0.3,4.14 -5.17,-2.92 -7.24,-1.74 -6.75,1.91 -2.51,-0.52 v 0 l -2.35,-0.66 -0.97,-2.21 v 0 l -0.4,-1.94 1.82,-1.39 1.54,1.07 -0.03,-3.36 2.88,-0.52 0.46,-2.02 5.59,1.91 3.93,-1.39 -4.41,-2.65 0.95,-3.14 0.8,-0.44 -0.32,-1.18 6.1,2.68 1.12,-1.99 2.43,-0.61 -1.46,-1.28 -1.69,-3.77 -3.48,-2.46 -1.05,-4.46 -4.08,0.38 0.32,-2.32 -1.12,-0.11 -0.28,-1.81 -4.51,-4.1 -4.84,3.2 -4.68,0.27 -1.8,-0.71 -4.47,2.79 -0.93,-0.27 -0.31,-1.97 -5.6,-0.66 -5.53,2 -3.65,-0.16 -1.88,-2.58 -2.15,-1.23 v -2.32 0 l 0.74,-1.67 1.14,0.35 0.97,-1.23 -2.35,-0.38 -1.18,-3.31 -1.31,0.52 -8.4,-5.7 -9.67,-0.74 -4.45,1.43 -2.55,-0.8 -1.25,0.77 -5.19,-1.73 h -4.56 l -1.39,-2.27 1.52,-2.71 -0.02,-1.92 -1.61,-2.33 1.65,-3.15 -0.13,-1.68 -3.82,1.02 -1.63,-0.6 0.09,-6.75 -0.76,-0.96 -2.34,-0.11 -3.38,-3.81 0.23,-8.65 -4.24,1.57 -4.01,-0.28 -1.02,1.13 -4.6,-3.1 v 0 l 0.02,-0.28 v 0 l 1.99,-4.97 0.42,-5.19 -1.14,-1.26 0.55,-3.22 1.46,-0.66 0.61,-1.26 2.07,-0.69 4.41,-0.06 5.83,-1.53 0.78,-1.24 1.81,-0.41 0.47,-1.43 v 0 l 4.01,0.96 6.07,-0.61 0.49,1.05 2.53,0.93 2.33,5.53 1.94,-0.8 0.55,-2.09 1.28,-0.36 1.04,0.97 1.47,-0.39 1.4,1.24 2.32,0.49 5.26,-0.68 2.44,1.67 3.26,-0.88 4.77,0.33 3.31,-3.35 5.61,0.17 0.57,-1.85 2.83,-0.85 -1.33,-3.11 1.02,0.03 9.12,5.36 4.07,0.33 7.7,2.81 4.37,3.16 -0.32,-2.17 0.74,-0.86 5.36,2.2 1.5,3.88 3.42,1.81 0.93,-0.33 0.61,1.45 1.48,-0.08 0.17,-1.43 1.65,-0.93 2.3,-0.27 0.31,2.06 -1.98,1.86 -0.04,1.38 3.8,1.78 8.1,-3.76 -0.4,-1.68 3.53,-5.13 0.1,-4.26 1.82,-5.12 4.35,-2.47 4.77,-1.07 0.97,-1.85 -2.85,-3.1 -0.59,-3.28 z"
     class="land"
     title="Savinjska"
     id="SI-SA" />
  <path
     style="fill:#cccccc;fill-opacity:1;stroke:#ffffff;stroke-width:0.5;stroke-opacity:1"
     d="m 338.55714,60.631749 1.88,0.08 0.66,0.8 3.05,-0.3 1.9,2.2 7.9,2.35 4.73,-1.44 3.46,0.14 2.93,-2.23 2.75,-0.14 2.3,1.38 1.39,-1.52 2.76,0.5 v 0 l -0.86,3.81 0.3,4 -5.39,0.22 -0.72,0.77 0.01,3.53 -3.4,3.44 -1.63,0.53 -2.07,11.43 -1.88,2.07 -3.33,1.87 -0.78,3.97 -0.97,-0.06 -0.07,1.07 -0.75,-0.02 -0.79,5.780001 1.76,-0.09 2.87,-2.89 3.58,1 2.88,-1.6 1.05,0.91 2.01,-0.47 0.76,3 v 0 l -0.55,0.41 0.59,3.28 2.85,3.1 -0.97,1.85 -4.77,1.07 -4.35,2.47 -1.82,5.12 -0.1,4.26 -3.53,5.13 0.4,1.68 -8.1,3.76 -3.8,-1.78 0.04,-1.38 1.98,-1.86 -0.31,-2.06 -2.3,0.27 -1.65,0.93 -0.17,1.43 -1.48,0.08 -0.61,-1.45 -0.93,0.33 -3.42,-1.81 -1.5,-3.88 -5.36,-2.2 -0.74,0.86 0.32,2.17 -4.37,-3.16 -7.7,-2.81 -4.07,-0.33 -9.12,-5.36 -1.02,-0.03 1.33,3.11 -2.83,0.85 -0.57,1.85 -5.61,-0.17 -3.31,3.35 -4.77,-0.33 -3.26,0.88 -2.44,-1.67 -5.26,0.68 -2.32,-0.49 -1.4,-1.24 -1.47,0.39 -1.04,-0.97 -1.28,0.36 -0.55,2.09 -1.94,0.8 -2.33,-5.53 -2.53,-0.93 -0.49,-1.05 -6.07,0.61 -4.01,-0.96 v 0 l -0.26,-1.71 1.35,-1.57 1.82,1.19 1.5,-0.5 0.12,-1.59 -0.8,-0.91 0.87,-1.57 1.67,-0.27 0.58,-5.73 1.84,1.43 0.85,2.09 2.46,-4.42 1.52,2.11 1.8,-1.89 3.21,-0.06 1.96,1.27 5.97,-2.51 v -3.630001 l 1.44,-1.82 -0.3,-1.68 1.59,-1.13 -1.69,-1.07 1.65,-1.52 1.28,-2.97 -0.76,-1.57 1.44,-0.5 -0.36,-1.87 2.24,-2.18 0.71,-2.42 1.38,-0.03 0.84,-1.02 -0.08,-2.51 2.91,-1.96 1.41,-0.3 4.46,2.54 0.34,-0.8 0.86,1.35 0.95,-0.61 -0.32,-5.24 1.78,1.46 4.28,-3.55 2.68,2.4 1.75,4.71 3.25,-2.87 -0.18,-2.45 2.59,-2.32 1.52,-2.84 5.21,-3.23 4.42,0.17 2.89,1.54 4.73,-3.67 3.63,1.47 0.33,0.99 0.66,-0.06 0.4,-1.62 1.6,-0.17 0.28,-0.72 z"
     class="land"
     title="Koroška"
     id="SI-KO" />
  <path
     style="fill:#cccccc;fill-opacity:1;stroke:#ffffff;stroke-width:0.5;stroke-opacity:1"
     d="m 326.42714,225.14175 2.51,0.52 6.75,-1.91 7.24,1.74 5.17,2.92 0.3,-4.14 -2.72,-1.04 1.07,-1.15 -0.7,-1.31 1.4,-3.6 -2.81,-1.75 0.36,-1.37 2.81,-1.12 1.49,0.71 2.33,-0.84 2.3,1.88 2.26,0.33 2.11,-0.44 1.09,-2.16 0.7,0.06 1.1,1.42 -0.02,2.16 1.52,0.73 -0.19,4.7 1.5,1.15 0.19,-3.61 2.42,0.39 1.92,-0.77 3.23,1.01 6.86,-0.16 3.89,-2.21 1.56,1.44 3.59,0.69 v 0 h 3.69 v 0 l 1.67,-0.88 3.1,0.74 4.27,-0.87 3.21,1.69 1.26,1.91 2.22,-1.64 2.17,0.96 1.61,3.22 1.9,0.46 1.05,6.72 2.98,-0.09 1.71,-0.92 3.88,0.6 -1.24,4.01 -3.85,2.45 -1.31,2.62 6.59,-0.71 4.69,-1.88 1.94,-1.72 2.47,-4.15 3.56,-1.47 1.82,-3.52 5.02,0.49 2.01,-1.33 2.62,0.51 v 0 l 2.09,2.73 -1.56,0.41 -1.42,1.75 0.44,0.73 -0.84,2.84 0.67,0.55 -2.07,1.33 1.19,0.25 -0.15,2.65 -1.99,0.98 -0.29,1.2 1.24,1.6 -1.15,0.63 0.86,0.79 0.91,5.56 -0.42,11.55 -5.18,5.34 1.5,5.33 -0.59,1.47 1.23,2.5 -1.25,1.77 1.56,0.57 2.71,3.78 -3.17,1.17 -4.79,0.3 -4.41,5.65 -2.6,-3.45 -3.31,-2.17 -5.77,-1.74 -1.58,-1.58 -2.36,3.75 -1.21,-0.65 -0.57,-1.66 -2.24,-0.38 -0.94,5.14 -1.65,1.63 -4.46,0.41 -0.38,-1.69 -1.73,-0.95 -2.72,1.36 -0.38,1.69 -1.69,0.32 1.4,5.84 -2.01,0.9 -8.19,-0.38 -4.12,1.06 v 0 l -3.01,-10.03 -1.69,-2.25 -0.49,-2.45 -1.24,-0.98 0.35,-1.06 4.31,-0.87 1.12,-1.99 -2.39,0.03 -0.76,-2.94 0.62,-1.77 -7.75,-3.75 1.56,-4.08 -0.78,-11 1.46,-2.29 -0.8,-1.37 -2.56,-0.79 -0.08,-3.46 -2.35,0.19 -2.99,-1.09 0.12,3 -2.21,-1.93 -2.58,-0.82 -1.43,2.51 1.56,1.77 -0.11,1.69 -1.79,0.13 -1.86,-3.35 -2.51,-0.63 -0.27,2.84 -1.61,0.08 -0.21,1.55 -1.6,-0.76 -0.78,0.55 0.12,1.41 -1.24,-0.05 -4.22,-1.75 -6.51,-5.47 -0.25,-2.68 -1.81,-0.92 0.5,-2.78 2.3,-1.09 0.32,-3.14 -4.84,-0.93 -1.66,2.24 -0.68,-2.13 -4.05,-1.31 v 0 l -3.82,-6.16 z"
     class="land"
     title="Spodnjeposavska"
     id="SI-PS" />
  <path
     style="fill:#cccccc;fill-opacity:1;stroke:#ffffff;stroke-width:0.5;stroke-opacity:1"
     d="m 459.12714,46.491749 5.15,7.57 2.55,-1.74 1.88,3.03 -1.14,1.74 1.14,1.08 1.73,0.06 1.1,2.09 3.67,1.27 0.99,-0.49 0.57,1.73 1.38,-1.07 3.23,0.74 0.31,1.58 2.85,0.38 2.33,3.12 2.61,1.38 -0.12,1.07 -2.37,1.47 -0.19,0.93 -3.08,1.24 2.39,5.88 10.63,1.57 -0.14,5.45 -1.33,2.1 0.55,2.59 5.53,7.82 0.16,1.320001 -1.11,1.15 1.26,1.08 0.32,2.03 -1.1,1.43 5.21,4.87 0.53,1.41 -1.14,6.18 -2.62,2.97 0.15,3.16 0.91,0.61 1.96,-0.39 0.87,-2 0.99,-0.14 0.27,4.34 -0.88,0.8 3.27,3.62 -0.53,0.85 1.01,2.7 v 0 l -0.75,-0.03 0.02,1.18 3.37,5.93 0.66,3.81 -0.57,2.23 -6.67,0.66 -3.51,5.86 -3.44,1.1 -1.39,-0.98 -1.14,1.09 -1.41,-0.63 -2.39,3.73 -4.39,2.14 -5.15,0.96 -0.91,-1.1 -1.05,0.55 -1.46,-0.49 -1.03,1.31 -4.48,0.93 -1.46,2.96 -2.32,1.89 -2.51,-0.49 -1.79,0.88 -0.63,1.59 -6.15,0.79 1.12,2.44 v 0 l -6.86,0.96 -1.96,-3.84 -0.99,0.52 -2.03,-1.2 -1.27,0.22 v 0 l -3.31,0.24 v 0 l -3.86,0.22 -0.53,-0.74 0.55,-1.61 -2.28,0.27 -1.58,-0.93 -5.72,-0.93 -0.26,-1.45 -3.46,-1.32 -3.72,0.82 -1.64,-1.2 -3.3,0.9 -3.08,-1.04 -0.36,-3.73 -3.84,-1.04 1.44,-1.51 -1.4,-2 1.04,-3.13 -1.31,-1.56 -1.69,-10.62 -1.26,-1.1 -4.84,1.4 -1.03,-3.4 -1.04,-0.53 -1.5,1.38 -1.62,-1.16 -1.54,0.83 -3.15,0.08 -1.41,-0.77 0.1,-1.34 -3.9,-0.86 -0.93,-0.63 0.11,-1.32 -2.83,-0.63 -1.06,-1.12 2.56,-0.5 -0.59,-1.59 0.95,-0.88 -3.63,-2.88 0.27,-0.75 h 1.44 l 0.29,-4.12 0.95,-1.7 -3.74,-3.19 -1.98,1.37 -2.36,-1.18 -0.28,-1.35 -1.75,-1.32 -2.03,0.85 -1.67,-0.3 -0.16,-2.72 -1.71,-2.01 -0.3,-2.72 -2.09,0.41 -1.45,-1.21 v 0 l -0.76,-3 -2.01,0.47 -1.05,-0.91 -2.88,1.6 -3.58,-1 -2.87,2.89 -1.76,0.09 0.79,-5.780001 0.75,0.02 0.07,-1.07 0.97,0.06 0.78,-3.97 3.33,-1.87 1.88,-2.07 2.07,-11.43 1.63,-0.53 3.4,-3.44 -0.01,-3.53 0.72,-0.77 5.39,-0.22 -0.3,-4 0.86,-3.81 v 0 l 2.29,-1 0.76,1.05 2.63,0.25 9.19,-1.19 0.35,2.02 1.76,0.25 1.89,1.73 1.4,-0.66 1.54,0.89 -0.1,2.59 1.43,1.41 0.27,2.62 2.26,0.74 2.73,-2.26 1.62,0.52 0.7,1.24 1.62,-0.6 0.17,-1.6 1.2,0.27 3.49,-3.39 0.59,-0.27 0.59,1.1 1.29,-2.32 -1.1,-1.46 1.73,-1.08 -1.33,-5.88 0.74,-0.69 1.48,0.31 2.06,-2.38 3.93,-1.16 1.35,-1.68 2.07,0.61 -0.67,0.63 -1.44,-0.58 -0.7,2.21 2.41,1.63 0.93,-0.36 -0.97,-1.79 0.84,-0.67 3.06,1 1.27,-0.72 1.03,-2.46 2.83,-0.19 0.82,-3.98 3.8,-0.08 4.16,2.4 3.97,0.5 3.36,-1.08 5.25,0.17 z"
     class="land"
     title="Podravska"
     id="SI-PD" />
  <path
     style="fill:#cccccc;fill-opacity:1;stroke:#ffffff;stroke-width:0.5;stroke-opacity:1"
     d="m 549.31714,1.061749 6.02,0.25 1.62,3.3 4.99,3.93 1.85,0.33 1.92,2.6 -1.54,3.99 -0.48,5.09 -3.19,0.67 -1.69,1.58 0.02,4.56 2.92,-0.06 0.31,0.95 -2,5.5 5.78,5.94 -0.15,2.63 1.54,2.51 2.43,-2.13 1.71,1.94 -0.1,1.46 -1.61,1.69 0.83,0.83 10.46,1.6 -1.92,10.02 -2.64,-0.03 -2.55,-1.35 -0.19,2.35 -1.1,0.91 0.19,2.07 1.31,1.1 -0.23,1.63 3.1,0.91 2.77,4.99 4.32,0.88 4.56,6.84 0.78,-0.36 1.36,1.49 0.56,4.05 2.05,1.18 2.77,-0.27 1.85,2.95 -0.56,3.19 0.54,1.6 2.56,1.13 -1.33,3.47 1.45,1.590001 -1.88,2.48 10.48,5.61 3.12,3.91 -1.58,-0.03 -0.95,0.91 -1.92,-1.84 -0.79,1.21 -3.56,-2.62 -1.33,-0.11 -0.74,-1.43 -1.58,1.21 -1.35,-0.35 -0.79,-0.8 0.93,-2.15 -5.61,-2.36 0.69,-1.19 -0.65,-1.02 -3.54,-1.21 -1.57,0.28 -1.24,-2.450001 -3.86,0.91 -1.69,-3.61 -1.84,0.44 -1.41,-1.05 -0.83,1.3 -2.17,-1.85 0.53,-1.37 -0.53,-0.8 -0.93,-0.03 -0.72,2.31 -2.62,1.24 -1.9,-3.14 -1.43,1.44 -2.36,-1.08 -1.02,3.47 -2.22,-0.99 -2.7,1.13 -0.92,1.76 -2.28,1.410001 -5.35,-0.03 -1.83,5.09 -1.58,1.32 v 1.73 l 2.95,6.6 0.95,8.61 1.79,2.88 3.64,2.97 1.52,2.72 -0.2,2.83 -3.46,4.53 -2.93,0.22 -0.74,-2.33 -1.81,-2.06 -2.98,2.22 -3.04,-0.99 -3,1.73 -1.52,-0.68 -1.86,0.63 -2.72,-4.34 -5.99,-3.93 -1.63,0.25 -2.81,2.25 -2.28,3.87 -2.8,-0.77 -2.96,1.32 -2.47,-0.36 -1.86,-1.31 v 0 l -1.01,-2.7 0.53,-0.85 -3.27,-3.62 0.88,-0.8 -0.27,-4.34 -0.99,0.14 -0.87,2 -1.96,0.39 -0.91,-0.61 -0.15,-3.16 2.62,-2.97 1.14,-6.18 -0.53,-1.41 -5.21,-4.87 1.1,-1.43 -0.32,-2.03 -1.26,-1.08 1.11,-1.15 -0.16,-1.320001 -5.53,-7.82 -0.55,-2.59 1.33,-2.1 0.14,-5.45 -10.63,-1.57 -2.39,-5.88 3.08,-1.24 0.19,-0.93 2.37,-1.47 0.12,-1.07 -2.61,-1.38 -2.33,-3.12 -2.85,-0.38 -0.31,-1.58 -3.23,-0.74 -1.38,1.07 -0.57,-1.73 -0.99,0.49 -3.67,-1.27 -1.1,-2.09 -1.73,-0.06 -1.14,-1.08 1.14,-1.74 -1.88,-3.03 -2.55,1.74 -5.15,-7.57 v 0 l 2.24,-1.46 6.31,-1.99 7.38,-0.06 8.72,3.95 5.01,4.42 9.32,2.57 1.91,1.68 1.39,3.04 4.62,2.73 1.03,-1.32 0.22,-6.35 -2.31,-4.59 0.43,-3.26 -2.16,-0.38 -0.95,-1.47 -2.21,0.03 0.36,-1.33 -2.54,-2.29 -0.95,-2.4 0.72,-5.26 -0.36,-4.31 1.37,-3.82 -0.63,-4.18 1.33,-1.6 -2.53,-4.82 2.28,-2.21 1.65,1.3 4.07,-2.27 0.95,1.58 1.83,-2 3.13,0.53 0.65,-2.3 2.03,-1.83 1.31,0.17 2.04,-3.1 0.87,-0.2 0.91,1.05 2.66,-2.46 0.27,1.19 1.31,0.03 1.16,1.77 5.24,0.89 0.97,-1.36 2.59,0.33 2.39,-2.27 6.8,-1.05 2.61,-1.55 z"
     class="land"
     title="Pomurska"
     id="SI-PM" />
     <g id="stadiums" data-country="slovenia"></g>
</svg>
