<?xml version="1.0" encoding="UTF-8" standalone="no"?>
<?xml-stylesheet type="text/css" href="/styles/home.css"?>
<!-- https://www.amcharts.com/svg-maps -->

<svg version="1.1" xmlns="http://www.w3.org/2000/svg" id="map-slovakia"
   viewBox="0 0 612.70129 303.98813">
  <defs
     id="defs4">
    <style
       type="text/css"
       id="style2">
			.land
			{
				fill: #CCCCCC;
				fill-opacity: 1;
				stroke:white;
				stroke-opacity: 1;
				stroke-width:0.5;
			}
		</style>
    <!-- <amcharts:ammap projection="mercator" leftLongitude="16.834461" topLatitude="49.614162" rightLongitude="22.568332" bottomLatitude="47.731105"></amcharts:ammap> -->
    <!-- All areas are listed in the line below. You can use this list in your script. -->
    <!--{id:"SK-BC"},{id:"SK-BL"},{id:"SK-KI"},{id:"SK-NI"},{id:"SK-PV"},{id:"SK-TA"},{id:"SK-TC"},{id:"SK-ZI"}-->
  </defs>
  <path
     style="fill:#cccccc;fill-opacity:1;stroke:#ffffff;stroke-width:0.5;stroke-opacity:1"
     inkscape:connector-curvature="0"
     d="m 212.75874,142.21041 5.37,-4.5 1.62,1.75 -0.07,1.25 1.84,0.27 1.12,1.07 2.45,-1.04 2.41,0.65 2.84,-0.37 2.5,-2.94 0.47,-3.63 -2.96,-3.07 0.77,-3.06 -0.84,-3.7 2.27,-0.2 1.35,-1.71 0.79,-2.87 1.85,-0.82 2.79,1 8.82,-0.26 1.33,-0.73 1.41,0.52 1.97,-1.91 3.67,-1.03 2.04,0.94 0.63,1.57 0.07,2.23 -1.61,1.36 0.21,0.61 6.92,-1.1 2.08,-4.51 5.07,-5.85 h 6.74 l 5.29,-2.37 3.09,0.41 1.51,-1.04 5.21,1.72 8.14,6.11 h 3.04 l 4.78,-1.75 1.52,1.8 5.34,-2.6 2.36,0.09 1.74,1.29 4.77,-0.66 8.11,0.37 2.54,-1.43 1.91,1.98 v 0 l 5.28,0.49 1.22,1.53 8.93,1.3 1.94,-1.33 1.53,-2.59 2.2,2.06 2.85,0.19 2.79,3.08 1.48,0.47 v 0 l -1.4,0.64 -1.09,3.94 -4.43,4.07 0.21,3.67 -0.89,0.87 0.84,0.66 0.61,2.62 -2.47,1.6 -0.13,0.97 0.28,2.11 0.85,0.26 0.17,3.16 2.07,-0.29 4.39,3.75 3.84,6.86 1.32,1.08 -1.02,1.94 0.91,4.33 v 0 l -0.53,1.38 v 0 l 2,0.98 2.29,-0.49 0.66,1.48 1.35,0.22 -0.6,3.22 -2.3,4.53 0.01,1.84 -2.23,2.81 -0.54,2.91 0.94,1.44 0.3,2.71 1.67,-0.24 0.28,2.24 3.62,-0.1 2.16,-0.69 2.43,-3.07 1.22,-0.37 0.65,2.06 3.3,-0.93 0.96,1.46 v 0 l 0.64,1.39 -2.27,1.35 -0.83,1.86 -2.58,2.47 0.08,4.09 -1.55,2.1 0.72,2.49 -4.51,5.47 0.59,0.87 -0.87,1.44 -3.03,2.93 -1.25,4.28 -1.98,-0.08 0.52,1.33 -2.81,0.48 -4.83,-2.99 -1.46,0.51 0.87,0.91 -0.75,1.49 -2.72,0.21 0.47,1.53 -3.21,0.45 -4.47,-0.78 0.51,1.63 -0.74,2.91 -4.83,4.6 -1.01,-0.15 -0.87,0.9 0.84,1.37 -3.18,2.41 -1.79,-1.47 -2.85,0.8 -1.56,1.45 -1.37,-0.44 -1.19,1.94 -1.39,0.24 -1.55,3.03 -3.99,1.2 1.49,-3.51 -1.54,-2.94 -4.11,-0.7 -0.51,-1.32 -1.27,2.52 -2.32,-1.21 -1.5,1.29 -0.1,1 -1.3,0.24 -1.18,-1.67 2.4,-3.04 -0.72,-1.72 -1.14,0.26 -2.96,-3.29 -1.55,-0.4 -1.12,0.14 -1.22,1.98 -3.17,-0.22 -1.61,-1.5 -1.06,-4.16 -2.35,0.18 -1.79,-1.81 -5.5,5.21 -5.79,2.35 0.21,2.06 -2.23,2.78 0.52,3.38 -1.87,1.87 0.33,2.61 -1.27,2.46 0.4,1.26 -2.09,0.82 -0.15,1.8 -1.51,-1.08 -0.04,-1.59 -1.21,-0.15 -2.21,2.2 -2.47,0.7 -1.54,-1.41 -1.37,0.79 -4.38,-0.59 -3.13,0.43 -2.67,2.2 -2.43,0.67 -1.36,2.55 -2.4,-1.51 -3.33,0.7 -5.75,-2.27 -1.52,1.31 -1.45,0.11 -2.6,-1.16 -2.4,2.04 -1.32,-1.35 -1.31,0.39 -2.14,-1.92 v 0 l -0.02,-2.55 1.09,-0.51 0.38,-1.63 2.21,-1.58 1.83,-2.82 -0.41,-2.39 -1.37,-2.09 2.17,-3.48 -0.76,-0.8 0.94,-1.04 -2.37,-1.63 -1.6,1.94 -1.32,0.43 -1.15,-0.43 -4.28,1.82 -0.97,-0.9 -1.3,2.14 -1.88,-1.85 -0.64,1.79 0.79,2.34 -4.45,-0.25 -6.71,-2.67 -0.84,1.9 -1.74,-0.33 -0.56,-3.1 3.46,-3.13 -2.12,-3.24 0.98,-1.27 -1.42,-1.74 0.69,-1.92 2.9,-1.56 -0.06,-3.18 1.12,-3 -0.65,-2.21 -1.31,-0.16 -0.73,-1.23 -1.66,-6.61 -2.87,-1.04 -4,-6.27 -1.55,0.05 -3.41,3.57 0.26,0.58 -1.49,1.07 0.14,1.33 -1.05,0.39 0.08,2.13 -0.73,0.75 -2.08,1.38 -0.33,-0.84 -1.84,-0.41 -3.46,2.29 -2.88,-1.01 -3.66,5.22 -0.52,-0.4 -2.01,-4.69 -0.14,-6.44 3.15,-7.6 -1.01,-3.13 -1.46,-0.08 2.47,-3.73 -1.24,0.15 0.73,-3.74 -0.74,-1.35 -2.98,-0.29 -0.92,0.37 -0.23,1.07 -1.18,-0.19 0.44,-2.1 1.49,-1.43 -1.1,-4.07 v 0 l 0.5,-3.65 8.54,0.71 2.29,-1.08 0.34,-2.87 5.81,-7.88 6.72,2.12 -0.31,-3.46 2.86,-2.32 1.09,-4.77 1.21,-0.99 1.72,0.57 1.43,-0.97 z"
     class="land"
     title="Banskobystrický"
     id="SK-BC" />
  <path
     style="fill:#cccccc;fill-opacity:1;stroke:#ffffff;stroke-width:0.5;stroke-opacity:1"
     inkscape:connector-curvature="0"
     d="m 12.358741,175.76041 2.98,0.02 0.21,-1.72 3.29,-0.37 3.39,-1.4 1.78,0.67 -1.02,-2.58 3.95,2.38 2.06,-1.16 0.71,1.41 0.96,0.26 12.46,-3.51 0.52,-1.81 2.46,-1.55 6.83,-10.1 3,1.97 1.36,2.69 -0.17,2.61 -1.71,1.03 -1.3,2.06 -2.05,0.16 -0.74,2.65 -3.94,2.71 -0.33,1.01 3.36,2.39 0.45,1.98 2.17,0.34 0.07,1.41 1.94,0.92 -1.51,3.52 -1.91,0.66 -0.94,2.82 1.5,1.75 2.81,0.13 1.74,1.89 3.32,0.03 -0.53,3.07 1.7,0.24 -0.05,1.33 1.44,0.64 1.41,4.95 0.58,0.74 1.72,-0.67 1.88,1.78 0.62,2.43 -1.56,4 -1.24,0.55 1.11,1.13 -0.59,1.61 1.11,0.11 2.34,2.7 1.59,-0.7 1.34,1.53 -3.48,4.38 -0.98,3.74 4.98,2.18 -1.27,2.89 1.37,1.27 0.1,2.57 -1.89,0.74 -0.34,0.84 -1.77,0.07 -1.92,2.92 -2.94,1.05 -1.91,-1.29 -1.66,-0.08 0.09,-2.3 -1.95,-0.64 -1.29,1.15 0.46,1.72 1.09,0.61 -1.11,1.92 -1.13,-0.29 -2.88,2.26 -2.28,0.75 -1.86,-0.65 -0.03,2.96 0.8,1.52 2.08,0.84 1.09,-1.31 1.19,1.39 -1.48,0.3 -0.49,3.05 -2.07,0.3 -1.55,-0.83 0.8,2.82 -2.7,1.37 -1.54,2.08 -0.98,0.04 0.11,1.05 -1.16,1.22 v 0 l -0.48,-1.48 -1.8,0.94 -2.63,-0.54 -4.26,2.04 -2.14,-2.28 -1.54,-0.05 -1.49,-1.49 -2.24,1.6 -2.32,-1.7 1.85,-2.18 -1.94,-1.53 1.85,-1.69 -1.38,-0.84 0.65,-1.2 -0.58,-0.81 1.99,-1.35 -0.03,-1.26 -3.33,-3.52 0.64,-0.42 -1.28,-3.01 -2.99,0.33 -5.63,-4.91 0.05,-2.62 -1.45,-5.57 -1.51,-2.21 1.05,-4.41 -1.06,-0.98 -2.4599995,-0.35 -1.6,-2.48 0.44,-0.69 -0.53,0.26 -1.35,-3.02 1.04,-0.18 -0.56,-0.75 0.89,-1.75 -3.86,-1.92 0.06,-1.69 -2.2,0.11 -1.01,-0.79 -0.99000003,-4.55 1.82000003,-0.35 0.84,-2.89 -0.78,-1.63 1.22,-1.28 -1.31,-4.69 1.38,-0.78 0.04,-1.87 3.46,-3.13 -0.18,-1.75 2.45,-0.06 -0.52,-2.61 0.95,-0.2 -0.13,-1.03 1.0599995,-0.65 1.35,0.41 z"
     class="land"
     title="Bratislavský"
     id="SK-BL" />
  <path
     style="fill:#cccccc;fill-opacity:1;stroke:#ffffff;stroke-width:0.5;stroke-opacity:1"
     inkscape:connector-curvature="0"
     d="m 366.24874,121.25041 1.78,1.44 1.49,-0.41 -0.33,-3.2 0.76,-1.14 0.04,-4.11 1.57,-1.42 -1.45,-2.66 3.59,-3.73 5.36,-2.87 1.6,-2.03 3.58,1.48 7.07,5.27 1.67,0.05 -3.45,-4.4 2.93,-3.71 4.07,5.53 2.47,1.33 3.67,-0.93 3.63,5.77 3.08,1.82 -0.04,-3.29 1.21,-1.04 0.45,-1.94 3.27,-1.1 1.74,2.18 2.18,-1.65 1.04,1.64 1.87,-0.73 -1.88,-4.64 0.54,-0.44 4.68,2.53 2.92,-1.12 -2.05,2.08 2.62,1.52 5.79,-1.83 2.36,0.63 1.75,1.28 1.76,2.84 3.06,-2.3 2.41,4.02 1.57,0.92 0.44,2.82 10.53,1.7 1.39,-1.36 2.58,1.31 0.95,2.46 1.6,1.49 1.99,-2.1 2.67,1.57 0.29,-0.94 1.34,0.05 -0.06,1.81 2.18,-0.94 0.54,1.76 -1.63,5.57 3.73,3.04 1.99,-0.89 -0.1,-1.83 1.46,-1.31 5.87,-0.55 1.31,-2.16 -0.05,-5.04 1.69,-0.43 2.08,1.91 0.32,-3.53 1.18,3.61 2.22,0.4 0.6,-1.05 3.1,-1.62 0.07,2.91 1.89,1.02 -1.03,1.17 0.16,1.42 2.8,2.35 0.89,1.78 -0.22,1.79 1.3,2.23 3.79,0.99 0.65,1.69 1.95,-0.06 2.26,1.35 4.22,-1.3 2.84,3.06 2.43,-0.38 4.21,-2.31 0.98,0.1 0.01,0.75 0.57,-2.48 4.02,-2.36 0.2,-1.73 -1.12,-1.68 -0.69,-9.97 0.37,-2.23 1.1,-0.78 1.73,0.21 1.09,2.01 3.88,-0.6 5.4,2.1 2.84,1.94 1.86,3.13 3.67,0.39 0.75,1.4 7.97,-1 6.17,0.11 0.15,-6.26 2.79,-1.68 0.95,-2.17 3.09,-3.14 4.55,1.24 2.34,8.21 5.13,-0.18 2.2,-0.89 5.89,1.57 v 0 l -0.93,4.78 0.93,2.02 0.28,3.62 -4.18,5.36 -0.48,2.6 1.89,1.5 0.04,2.07 -1.1,1.24 -1.22,5.94 -3.88,1.25 -5.54,4.71 -0.73,2.54 -1.5,1.5 -1.67,0.05 -1.49,1.93 h -1.21 l -2.83,5.76 -2.72,22.49 0.23,3.84 0.48,1.18 1,-0.04 -0.41,1.25 -2.03,0.73 0.53,1.67 -3.76,0.75 -0.52,-0.86 -0.99,1.47 -1.1,-2.29 -2.18,1.44 -2.98,-2.4 -1.3,1.3 -3.24,1.3 -0.19,-0.58 -3.79,0.21 -2.2,1.17 0.47,0.73 -0.55,0.81 -1.93,-1.13 -1,0.6 -0.27,-0.82 -0.05,1.19 -0.54,-0.07 -0.33,-1.15 -0.64,0.78 0.51,1.09 -0.87,-0.62 -1.59,1.36 -0.79,-1.72 -2,-0.01 -0.47,4.66 -1.11,0.59 -2.45,-1.54 -3.53,0.24 -0.88,-0.89 -3.44,-0.56 -1.47,-0.92 0.21,-1.82 -1.38,-0.66 0.61,-1.07 -0.46,-0.87 -2.17,-1.28 -1.21,0.26 -0.97,-1.25 -0.14,-3.26 -4.22,-8.33 0.04,-3.85 -0.86,-0.79 -0.2,-2.04 -0.89,0.36 -1.27,-1 -1.46,1.66 -1.35,-0.2 -0.56,-1.03 -1.97,0.58 -2.91,-5.06 0.03,-1.69 -1.57,-0.87 -0.15,-0.83 -1.32,0.25 -0.63,-1.02 -3.34,-1.61 -1.13,-1.71 -1.74,1.01 -0.82,3.27 -1.68,-0.77 -2.32,0.83 -5.93,0.13 -0.14,-0.54 -0.48,0.78 1.08,0.33 -1.27,0.46 0.75,0.76 -0.46,1.22 -0.73,-0.11 0.6,1.17 -1.28,0.84 0.15,0.72 -4.11,-0.45 -2.97,-2.2 -0.75,0.82 -1.24,-0.53 -0.45,0.88 -0.84,-0.24 0.02,1 -2.37,0.43 -0.79,1.01 -0.76,-0.7 -2.39,1.04 -1.9,3.63 -1.18,0.31 -2.22,-1.05 -0.68,-3.03 -3.01,-1.48 -1.36,0.72 -0.01,-0.82 -4.09,-0.85 -2.26,0.95 -1.2,1.44 -0.77,-0.91 -1.81,0.08 -0.13,-1.72 -1.51,-0.31 -0.15,-1.09 -0.71,0.61 -1.73,-3.15 -5.51,1 -2.02,-1.97 v -2.18 l -0.92,0.25 0.7,-1.25 -4.26,1.45 -7.35,0.82 -0.47,0.67 -2.28,-0.67 -3.1,1.48 -2.81,0.08 -1.08,1.28 -0.39,-0.41 -2.82,1.94 -1.53,-0.01 -1.57,1.33 -4.07,-1.58 -1.07,2.64 -1.87,-1.45 -1.17,0.42 -0.76,0.92 0.92,2.42 -0.29,3.86 -1.36,0.29 -1.14,2.34 -2.14,1.37 v 0 l -0.96,-1.46 -3.3,0.93 -0.65,-2.06 -1.22,0.37 -2.43,3.07 -2.16,0.69 -3.62,0.1 -0.28,-2.24 -1.67,0.24 -0.3,-2.71 -0.94,-1.44 0.54,-2.91 2.23,-2.81 -0.01,-1.84 2.3,-4.53 0.6,-3.22 -1.35,-0.22 -0.66,-1.48 -2.29,0.49 -2,-0.98 v 0 l 0.53,-1.38 v 0 l -0.91,-4.33 1.02,-1.94 -1.32,-1.08 -3.84,-6.86 -4.39,-3.75 -2.07,0.29 -0.17,-3.16 -0.85,-0.26 -0.28,-2.11 0.13,-0.97 2.47,-1.6 -0.61,-2.62 -0.84,-0.66 0.89,-0.87 -0.21,-3.67 4.43,-4.07 1.09,-3.94 z"
     class="land"
     title="Košický"
     id="SK-KI" />
  <path
     style="fill:#cccccc;fill-opacity:1;stroke:#ffffff;stroke-width:0.5;stroke-opacity:1"
     inkscape:connector-curvature="0"
     d="m 122.17874,162.34041 2.01,-1.48 0.81,0.16 1.48,-2.19 -0.05,-2.54 -2.35,-4.29 -0.51,-3.48 1.43,-1.47 1.33,-0.13 1.2,1.45 4.97,-0.11 1.93,1.11 1.46,-0.51 3.55,3.24 1.37,4.32 1.66,1.61 1.42,-0.78 3.96,1.26 2.59,5.75 -0.31,1.88 -2.42,2.34 1.64,1.35 -0.87,2.01 3.5,0.47 1.17,0.93 3.55,5.06 1.19,3.54 3.17,0.96 1.15,-1.77 1.69,2.57 0.45,-1.56 5.2,-4.41 2.86,-1.34 2.9,-2.71 1.95,-0.1 v 0 l 1.1,4.07 -1.49,1.43 -0.44,2.1 1.18,0.19 0.23,-1.07 0.92,-0.37 2.98,0.29 0.74,1.35 -0.73,3.74 1.24,-0.15 -2.47,3.73 1.46,0.08 1.01,3.13 -3.15,7.6 0.14,6.44 2.01,4.69 0.52,0.4 3.66,-5.22 2.88,1.01 3.46,-2.29 1.84,0.41 0.33,0.84 2.08,-1.38 0.73,-0.75 -0.08,-2.13 1.05,-0.39 -0.14,-1.33 1.49,-1.07 -0.26,-0.58 3.41,-3.57 1.55,-0.05 4,6.27 2.87,1.04 1.66,6.61 0.73,1.23 1.31,0.16 0.65,2.21 -1.12,3 0.06,3.18 -2.9,1.56 -0.69,1.92 1.42,1.74 -0.98,1.27 2.12,3.24 -3.46,3.13 0.56,3.1 1.74,0.33 0.84,-1.9 6.71,2.67 4.45,0.25 -0.79,-2.34 0.64,-1.79 1.88,1.85 1.3,-2.14 0.97,0.9 4.28,-1.82 1.15,0.43 1.32,-0.43 1.6,-1.94 2.37,1.63 -0.94,1.04 0.76,0.8 -2.17,3.48 1.37,2.09 0.41,2.39 -1.83,2.82 -2.21,1.58 -0.38,1.63 -1.09,0.51 0.02,2.55 v 0 l -3.42,3.31 -4.92,-0.54 -3.12,1.11 -2.09,-1.08 -0.49,1.54 -3.02,0.47 -1.16,-0.77 -1.33,0.75 -0.93,1.46 0.64,1.1 -1.23,1.39 -0.07,4.59 -0.27,-0.52 -0.49,0.72 0.48,0.15 -1.25,0.99 -3.06,-0.41 -1.63,2.18 2.1,3.35 -0.96,0.14 0.7,3.13 -1.75,2.05 0.83,1.67 -0.58,4.06 0.22,2.18 3.06,0.71 3.23,2.27 0.9,2.41 2.09,1.22 -0.21,1.58 -5.89,-0.87 -5.87,1.62 -1.32,3.88 -6.57,4.1 -5.05,0.78 -5.28,-1.27 -2.84,0.13 -4.8,1.96 -4.7,-1.96 -3.84,1.85 -13.32,3.42 -6.93,-1.69 -5.73,0.12 -10.47,-2.43 -4.73,-0.02 -2.88,1.62 -3.32,-1.79 -2.74,2.07 -5.19,0.81 -4.14,-1.06 -7.79,1.09 -2.299999,-1.47 -5.7,-1.29 -1.76,-2.04 v 0 l 1.9,-1.8 1.05,-4.71 1.93,-0.05 2.3,1.24 0.869999,-1.9 2.89,-1.9 -0.03,-4.33 1.16,-2.34 2.35,-0.79 1.85,-2.78 3.04,-1.76 1.39,-1.7 -2.48,-2.46 1.18,-2.05 -0.65,-3.96 0.76,-3.97 -1.27,-2.37 -0.17,-3.14 1.57,-1.21 -0.42,-2.46 -4.03,-2.23 1.15,-1.53 -0.72,-1.23 -2.74,2.09 -1.14,-0.21 -0.46,-2.18 1.27,-3.14 -0.15,-2.14 -2.95,-3.41 -3.969999,-2.47 2.539999,-1.85 1.42,-0.05 0.86,1.26 0.86,0.03 1.44,-1.78 -1.89,-3.74 3.3,-0.08 1.18,1.07 0.47,-1.07 3.45,-2.25 -0.09,-3.12 -2.89,-0.92 -1.21,-1.98 0.35,-1.09 0.99,0.59 1.24,-0.8 -0.7,-1.68 1.66,-2.67 -0.61,-1.4 -2.31,-0.24 -0.74,-1.49 1.47,-1.19 0.29,-4.16 1.17,-0.91 -0.46,-2.1 1.63,-1.26 -0.45,-0.68 1.03,-0.54 3.01,-5.32 1.66,-4.8 1.13,-1.81 1.59,-0.03 -0.31,-0.97 1.27,-1.9 -6.03,-6.68 -4.45,-1.53 -1.18,-0.68 -0.1,-1.04 1.85,-1.46 0.99,-5.2 1.94,-2.33 0.63,-2.49 2.89,1.57 2.98,-0.24 -0.28,-1.09 1.33,-0.11 1.34,-1.23 z"
     class="land"
     title="Nitriansky"
     id="SK-NI" />
  <path
     style="fill:#cccccc;fill-opacity:1;stroke:#ffffff;stroke-width:0.5;stroke-opacity:1"
     inkscape:connector-curvature="0"
     d="m 477.78874,27.42041 4.31,-0.28 2.72,2.98 3.31,-0.18 3.31,3.4 4.45,-0.34 1.89,-2.52 2.82,1.9 -0.07,-1.29 1.28,-1.53 2.19,0.32 1.5,-1.33 2.62,1.26 4.48,-2.34 1.22,2.77 1.59,1.22 0.03,1.05 2.45,0.98 1.93,-1.29 2.33,1.08 0.5,2.26 0.95,-0.04 2.99,2.51 0.48,2.92 0.96,1.46 1.33,0.39 -0.14,-2.27 0.93,-1.65 3.05,-1.95 1.66,-0.11 1.94,3.61 1.41,-0.64 1.2,0.36 2.11,3.35 1.54,-0.54 1.45,1.21 3.32,-0.31 2.41,6.11 5.11,4.95 -0.1,2.72 1.22,1.22 -1.01,4.88 1.65,1.35 10.12,2.87 0.19,1.27 4.74,2.75 2.2,-1.64 1.47,0.24 1.12,2.09 -0.89,2.86 2.4,0.15 7.47,2.68 1.64,-1.69 3.59,0.25 2.29,2.65 0.2,1.41 3.36,3.29 3.7,-0.69 3.89,2.77 5.19,-1.38 2.51,1.44 -1.35,1.4 -0.23,8.02 -1.41,1.19 0.87,2.34 -2.64,1.6 -2.07,-0.48 -2.47,1.2 -0.49,2.58 -5.29,7.63 0.69,1.38 -1.12,5.71 -2.55,1.46 -1.3,1.94 v 0 l -5.89,-1.57 -2.2,0.89 -5.13,0.18 -2.34,-8.21 -4.55,-1.24 -3.09,3.14 -0.95,2.17 -2.79,1.68 -0.15,6.26 -6.17,-0.11 -7.97,1 -0.75,-1.4 -3.67,-0.39 -1.86,-3.13 -2.84,-1.94 -5.4,-2.1 -3.88,0.6 -1.09,-2.01 -1.73,-0.21 -1.1,0.78 -0.37,2.23 0.69,9.97 1.12,1.68 -0.2,1.73 -4.02,2.36 -0.57,2.48 -0.01,-0.75 -0.98,-0.1 -4.21,2.31 -2.43,0.38 -2.84,-3.06 -4.22,1.3 -2.26,-1.35 -1.95,0.06 -0.65,-1.69 -3.79,-0.99 -1.3,-2.23 0.22,-1.79 -0.89,-1.78 -2.8,-2.35 -0.16,-1.42 1.03,-1.17 -1.89,-1.02 -0.07,-2.91 -3.1,1.62 -0.6,1.05 -2.22,-0.4 -1.18,-3.61 -0.32,3.53 -2.08,-1.91 -1.69,0.43 0.05,5.04 -1.31,2.16 -5.87,0.55 -1.46,1.31 0.1,1.83 -1.99,0.89 -3.73,-3.04 1.63,-5.57 -0.54,-1.76 -2.18,0.94 0.06,-1.81 -1.34,-0.05 -0.29,0.94 -2.67,-1.57 -1.99,2.1 -1.6,-1.49 -0.95,-2.46 -2.58,-1.31 -1.39,1.36 -10.53,-1.7 -0.44,-2.82 -1.57,-0.92 -2.41,-4.02 -3.06,2.3 -1.76,-2.84 -1.75,-1.28 -2.36,-0.63 -5.79,1.83 -2.62,-1.52 2.05,-2.08 -2.92,1.12 -4.68,-2.53 -0.54,0.44 1.88,4.64 -1.87,0.73 -1.04,-1.64 -2.18,1.65 -1.74,-2.18 -3.27,1.1 -0.45,1.94 -1.21,1.04 0.04,3.29 -3.08,-1.82 -3.63,-5.77 -3.67,0.93 -2.47,-1.33 -4.07,-5.53 -2.93,3.71 3.45,4.4 -1.67,-0.05 -7.07,-5.27 -3.58,-1.48 -1.6,2.03 -5.36,2.87 -3.59,3.73 1.45,2.66 -1.57,1.42 -0.04,4.11 -0.76,1.14 0.33,3.2 -1.49,0.41 -1.78,-1.44 v 0 l -1.48,-0.47 -2.79,-3.08 -2.85,-0.19 -2.2,-2.06 -1.53,2.59 -1.94,1.33 -8.93,-1.3 -1.22,-1.53 -5.28,-0.49 v 0 l 0.43,-1.09 3.28,-0.64 2.29,-1.99 -2.23,-0.56 -1.61,-4.58 0.52,-1.35 -1.45,-0.96 -1.15,-2.75 -3.65,-2.61 0.33,-0.88 1.85,0.63 3.27,-1.43 0.89,-8.55 1.59,-6.13 -1.41,-0.86 -1.34,0.83 -3.82,-0.22 -0.99,-1.93 -0.74,1.46 -1.66,-2.62 -1.7,0.12 -0.3,-1.17 -2.91,0.71 1.04,-4.05 -3.85,-7.02 v 0 l 3.06,-2.88 0.23,-2.58 2.13,-0.94 2.36,0.21 4.27,0.55 2.42,2.12 -0.11,0.96 1.41,1.68 5.34,3.55 1.7,0.04 0.12,-4.24 1.58,-2.61 -0.63,-2.38 3.19,-6.03 0.37,-3.53 2.01,-3.26 1.4,1.83 1.58,-1.54 -0.44,-2.14 1.32,-0.09 1.01,-2.21 3.02,-1.8 1.04,1.07 1.19,-0.84 2.77,0.61 1.35,-0.79 3.61,1.23 0.72,-0.85 0.18,-4.68 0.83,-1.96 -1.69,0.11 0.75,-2.01 1.35,-0.34 2.84,0.83 1.21,-1.52 0.77,2.57 1.19,0.21 1.96,-0.75 0.77,-1.88 1.58,1.72 -0.16,-3.37 1.66,0.9 -0.03,-0.56 2.66,-0.08 3.59,1.93 0.52,1.82 7.04,2.66 0.59,-1.05 1.06,0.18 1.07,-1.07 1.73,-4.88 3.35,2.8 5.15,-3.24 3.23,1.09 1.48,-0.32 0.3,2.09 1.52,0.72 -1,1.31 1.29,1.18 -0.06,2.14 2.67,-0.57 -0.15,2.01 1.76,-0.15 1.1,0.82 -0.39,0.73 -0.73,-0.98 -0.2,2.57 1.69,-0.56 1.45,2.08 1.05,0.05 1.91,-2.08 1.02,-0.1 2.06,3.09 -1.03,1.36 3.19,-1.13 0.86,3.09 1.91,1.71 3.48,-1.84 3.03,0.08 0.6,-0.82 -0.85,-2.43 2.02,-1.03 0.45,-1.95 3.24,-2.94 1.5,0.46 1.12,-0.52 0.82,0.93 2,-0.9 1.2,-1.73 -3.7,-3.21 0.01,-1.03 -1.66,-0.59 -0.61,-1.88 0.45,-0.72 4.7,-1.41 1.74,1 1.3,-1.93 2.85,1.39 2.93,2.91 0.13,1.12 2.95,-0.04 1.97,-2.35 -0.35,-1.46 1.04,-1.86 0.82,0.41 2.6,-2.15 0.64,-2 z"
     class="land"
     title="Prešovský"
     id="SK-PV" />
  <path
     style="fill:#cccccc;fill-opacity:1;stroke:#ffffff;stroke-width:0.5;stroke-opacity:1"
     inkscape:connector-curvature="0"
     d="m 39.048741,121.28041 8.52,2.31 3.03,2.95 1.65,-0.46 0.57,1.41 3.86,3.54 1.52,-0.86 2.15,0.78 v 0 l -0.79,3.39 -3.83,1.99 -0.13,0.99 1.67,1.34 1.65,-0.15 3.59,-2.81 0.33,1.99 4.54,1.74 1.25,2.42 1.4,0.47 0.06,3.15 -1.51,0.53 -0.99,2.92 0.6,2.82 0.99,0.16 0.9,3.47 3.49,6.33 0.74,-0.82 1.11,0.48 0.28,-1.14 2.34,-2.05 1.92,0.86 4.53,-0.9 -0.71,-1.84 0.36,-1.44 0.78,-0.03 0.59,1.1 1.84,0.14 -0.12,-0.88 3.99,-2.52 0.77,0.16 0.8,-1.09 2.35,1.84 2.12,3.23 4.419999,2.13 4.05,-0.11 0.22,-2.29 1.64,0.16 0.98,3.11 0.72,-0.9 0.22,1 0.54,-1.05 1.14,1.55 7.41,1.17 1.61,1.42 1.97,-0.65 v 0 l -0.19,2.98 -1.34,1.23 -1.33,0.11 0.28,1.09 -2.98,0.24 -2.89,-1.57 -0.63,2.49 -1.94,2.33 -0.99,5.2 -1.85,1.46 0.1,1.04 1.18,0.68 4.45,1.53 6.03,6.68 -1.27,1.9 0.31,0.97 -1.59,0.03 -1.13,1.81 -1.66,4.8 -3.01,5.32 -1.03,0.54 0.45,0.68 -1.63,1.26 0.46,2.1 -1.17,0.91 -0.29,4.16 -1.47,1.19 0.74,1.49 2.31,0.24 0.61,1.4 -1.66,2.67 0.7,1.68 -1.24,0.8 -0.99,-0.59 -0.35,1.09 1.21,1.98 2.89,0.92 0.09,3.12 -3.45,2.25 -0.47,1.07 -1.18,-1.07 -3.3,0.08 1.89,3.74 -1.44,1.78 -0.86,-0.03 -0.86,-1.26 -1.42,0.05 -2.539999,1.85 3.969999,2.47 2.95,3.41 0.15,2.14 -1.27,3.14 0.46,2.18 1.14,0.21 2.74,-2.09 0.72,1.23 -1.15,1.53 4.03,2.23 0.42,2.46 -1.57,1.21 0.17,3.14 1.27,2.37 -0.76,3.97 0.65,3.96 -1.18,2.05 2.48,2.46 -1.39,1.7 -3.04,1.76 -1.85,2.78 -2.35,0.79 -1.16,2.34 0.03,4.33 -2.89,1.9 -0.869999,1.9 -2.3,-1.24 -1.93,0.05 -1.05,4.71 -1.9,1.8 v 0 l -6.44,-4.94 -2.78,-3.36 -3.65,1.08 -1.06,-0.41 -2.39,-5.38 -1.94,-2.33 -2.69,-0.24 -4.54,-2.52 -3.1,-6.69 -9.98,-10.77 -6.8,-0.24 -1.84,-0.78 -0.61,-1.99 v 0 l 1.16,-1.22 -0.11,-1.05 0.98,-0.04 1.54,-2.08 2.7,-1.37 -0.8,-2.82 1.55,0.83 2.07,-0.3 0.49,-3.05 1.48,-0.3 -1.19,-1.39 -1.09,1.31 -2.08,-0.84 -0.8,-1.52 0.03,-2.96 1.86,0.65 2.28,-0.75 2.88,-2.26 1.13,0.29 1.11,-1.92 -1.09,-0.61 -0.46,-1.72 1.29,-1.15 1.95,0.64 -0.09,2.3 1.66,0.08 1.91,1.29 2.94,-1.05 1.92,-2.92 1.77,-0.07 0.34,-0.84 1.89,-0.74 -0.1,-2.57 -1.37,-1.27 1.27,-2.89 -4.98,-2.18 0.98,-3.74 3.48,-4.38 -1.34,-1.53 -1.59,0.7 -2.34,-2.7 -1.11,-0.11 0.59,-1.61 -1.11,-1.13 1.24,-0.55 1.56,-4 -0.62,-2.43 -1.88,-1.78 -1.72,0.67 -0.58,-0.74 -1.41,-4.95 -1.44,-0.64 0.05,-1.33 -1.7,-0.24 0.53,-3.07 -3.32,-0.03 -1.74,-1.89 -2.81,-0.13 -1.5,-1.75 0.94,-2.82 1.91,-0.66 1.51,-3.52 -1.94,-0.92 -0.07,-1.41 -2.17,-0.34 -0.45,-1.98 -3.36,-2.39 0.33,-1.01 3.94,-2.71 0.74,-2.65 2.05,-0.16 1.3,-2.06 1.71,-1.03 0.17,-2.61 -1.36,-2.69 -3,-1.97 -6.83,10.1 -2.46,1.55 -0.52,1.81 -12.46,3.51 -0.96,-0.26 -0.71,-1.41 -2.06,1.16 -3.95,-2.38 1.02,2.58 -1.78,-0.67 -3.39,1.4 -3.29,0.37 -0.21,1.72 -2.98,-0.02 v 0 l -0.35,-1.54 0.93,-0.53 -1.76,-3.8 0.71,-0.42 -0.57,-0.49 -0.25,-4.12 0.71,-0.68 0.05,-2.06 1.48,-0.9 1.69,-3.01 -0.79,-0.54 1.13,-0.21 -0.61,-0.67 0.06,-2.71 4.27,-4.27 -1.22,-1.44 0.18,-0.98 1.44,-1.44 0.14,-1.59 2.76,-3.81 0.41,-1.97 4.83,-3.31 0.22,-1.69 1.53,-1.63 0.46,-3.67 4.66,-2.41 z"
     class="land"
     title="Trnavský"
     id="SK-TA" />
  <path
     style="fill:#cccccc;fill-opacity:1;stroke:#ffffff;stroke-width:0.5;stroke-opacity:1"
     inkscape:connector-curvature="0"
     d="m 159.57874,49.13041 5.35,-0.11 -0.07,2.17 5.47,7.31 -0.1,1.73 1.56,1.65 0.72,4.3 1.82,1.32 0.31,2.28 4.74,3.8 3.28,1.33 0.1,1.64 3.25,1.11 0.27,2.78 1.44,1.37 -0.85,1.84 -2.69,2.56 3.35,1.14 1.57,2.49 -0.78,3 0.34,3.87 -1.21,0.69 -2.26,3.64 -3.91,0.97 -2.24,1.45 -1.18,2.88 -3.75,1.12 v 1.14 l 1.41,1.54 5.22,0.48 1.48,-1.36 2.18,-0.52 1.48,-3.16 1.38,-0.45 -0.2,1.07 0.83,1.08 3.9,-0.9 4.56,1.42 2.43,-0.56 2.37,3.01 -2.52,4.46 1.7,2.41 -1.4,2.83 0.52,0.65 -0.31,4.64 3.51,2.62 2.12,0.65 0.17,1.26 2.82,1.12 -0.1,3.34 3.32,3.49 0.58,1.79 0.99,0.29 0.21,2.41 v 0 l -3.3,6.68 -1.43,0.97 -1.72,-0.57 -1.21,0.99 -1.09,4.77 -2.86,2.32 0.31,3.46 -6.72,-2.12 -5.81,7.88 -0.34,2.87 -2.29,1.08 -8.54,-0.71 -0.5,3.65 v 0 l -1.95,0.1 -2.9,2.71 -2.86,1.34 -5.2,4.41 -0.45,1.56 -1.69,-2.57 -1.15,1.77 -3.17,-0.96 -1.19,-3.54 -3.55,-5.06 -1.17,-0.93 -3.5,-0.47 0.87,-2.01 -1.64,-1.35 2.42,-2.34 0.31,-1.88 -2.59,-5.75 -3.96,-1.26 -1.42,0.78 -1.66,-1.61 -1.37,-4.32 -3.55,-3.24 -1.46,0.51 -1.93,-1.11 -4.97,0.11 -1.2,-1.45 -1.33,0.13 -1.43,1.47 0.51,3.48 2.35,4.29 0.05,2.54 -1.48,2.19 -0.81,-0.16 -2.01,1.48 v 0 l -1.97,0.65 -1.61,-1.42 -7.41,-1.17 -1.14,-1.55 -0.54,1.05 -0.22,-1 -0.72,0.9 -0.98,-3.11 -1.64,-0.16 -0.22,2.29 -4.05,0.11 -4.419999,-2.13 -2.12,-3.23 -2.35,-1.84 -0.8,1.09 -0.77,-0.16 -3.99,2.52 0.12,0.88 -1.84,-0.14 -0.59,-1.1 -0.78,0.03 -0.36,1.44 0.71,1.84 -4.53,0.9 -1.92,-0.86 -2.34,2.05 -0.28,1.14 -1.11,-0.48 -0.74,0.82 -3.49,-6.33 -0.9,-3.47 -0.99,-0.16 -0.6,-2.82 0.99,-2.92 1.51,-0.53 -0.06,-3.15 -1.4,-0.47 -1.25,-2.42 -4.54,-1.74 -0.33,-1.99 -3.59,2.81 -1.65,0.15 -1.67,-1.34 0.13,-0.99 3.83,-1.99 0.79,-3.39 v 0 l 2.14,-2.12 1.16,0.17 0.68,-1.99 0.95,0.27 1.04,-1.39 2.73,0.91 4.91,4.31 1.46,-0.81 1.06,0.3 1.54,-1.23 3.03,-0.2 0.85,-2.23 2.08,-0.32 1.5,-2.17 7.59,-0.92 3.54,-3.56 2.17,-3.6 2.389999,-1.65 0.34,-1.57 6.98,-0.47 2.07,0.75 1.66,-0.85 2.98,-10.71 0.12,-2.63 1.31,-1.4 1.06,-0.74 4.32,0.17 1.4,-0.76 3.91,0.64 4.88,-2.39 3.07,-3.59 -0.09,-1.41 1.97,-4.23 -0.5,-3.48 1.08,-0.68 -1.18,-2.49 0.73,-2.78 1.94,-1.65 -0.53,-4.26 2.58,-4.78 0.07,-1.93 -1.04,-0.51 0.11,-2.46 4.13,-4 -0.03,-2.53 8.58,-1.61 z"
     class="land"
     title="Trenčiansky"
     id="SK-TC" />
  <path
     style="fill:#cccccc;fill-opacity:1;stroke:#ffffff;stroke-width:0.5;stroke-opacity:1"
     inkscape:connector-curvature="0"
     d="m 281.27874,0.26041 1.03,1.46 -0.58,1.41 0.84,1.19 5.58,2.82 -0.06,5.61 2.37,4.77 0.23,3.04 3.29,5.75 1.5,-0.35 1.62,1.56 3.03,-1.61 -0.33,2.48 1.2,1.14 -2.01,4.42 5.99,0.9 3.36,2.67 3.42,-3.72 1.87,-0.68 2.49,0.62 0.19,4.9 1.16,2.05 -0.83,3.64 1.4,3.06 -1.42,4.16 1.63,0.95 1.28,2.85 -3.3,1.77 -0.31,2.52 -2.38,2.5 0.26,1.56 -0.84,1.88 2.68,2.41 2.13,-1.06 1.3,1.17 1,-0.52 1.12,0.82 3.52,0.01 v 0 l 3.85,7.02 -1.04,4.05 2.91,-0.71 0.3,1.17 1.7,-0.12 1.66,2.62 0.74,-1.46 0.99,1.93 3.82,0.22 1.34,-0.83 1.41,0.86 -1.59,6.13 -0.89,8.55 -3.27,1.43 -1.85,-0.63 -0.33,0.88 3.65,2.61 1.15,2.75 1.45,0.96 -0.52,1.35 1.61,4.58 2.23,0.56 -2.29,1.99 -3.28,0.64 -0.43,1.09 v 0 l -1.91,-1.98 -2.54,1.43 -8.11,-0.37 -4.77,0.66 -1.74,-1.29 -2.36,-0.09 -5.34,2.6 -1.52,-1.8 -4.78,1.75 h -3.04 l -8.14,-6.11 -5.21,-1.72 -1.51,1.04 -3.09,-0.41 -5.29,2.37 h -6.74 l -5.07,5.85 -2.08,4.51 -6.92,1.1 -0.21,-0.61 1.61,-1.36 -0.07,-2.23 -0.63,-1.57 -2.04,-0.94 -3.67,1.03 -1.97,1.91 -1.41,-0.52 -1.33,0.73 -8.82,0.26 -2.79,-1 -1.85,0.82 -0.79,2.87 -1.35,1.71 -2.27,0.2 0.84,3.7 -0.77,3.06 2.96,3.07 -0.47,3.63 -2.5,2.94 -2.84,0.37 -2.41,-0.65 -2.45,1.04 -1.12,-1.07 -1.84,-0.27 0.07,-1.25 -1.62,-1.75 -5.37,4.5 v 0 l -0.21,-2.41 -0.99,-0.29 -0.58,-1.79 -3.32,-3.49 0.1,-3.34 -2.82,-1.12 -0.17,-1.26 -2.12,-0.65 -3.51,-2.62 0.31,-4.64 -0.52,-0.65 1.4,-2.83 -1.7,-2.41 2.52,-4.46 -2.37,-3.01 -2.43,0.56 -4.56,-1.42 -3.9,0.9 -0.83,-1.08 0.2,-1.07 -1.38,0.45 -1.48,3.16 -2.18,0.52 -1.48,1.36 -5.22,-0.48 -1.41,-1.54 v -1.14 l 3.75,-1.12 1.18,-2.88 2.24,-1.45 3.91,-0.97 2.26,-3.64 1.21,-0.69 -0.34,-3.87 0.78,-3 -1.57,-2.49 -3.35,-1.14 2.69,-2.56 0.85,-1.84 -1.44,-1.37 -0.27,-2.78 -3.25,-1.11 -0.1,-1.64 -3.28,-1.33 -4.74,-3.8 -0.31,-2.28 -1.82,-1.32 -0.72,-4.3 -1.56,-1.65 0.1,-1.73 -5.47,-7.31 0.07,-2.17 -5.35,0.11 v 0 l 4.23,-1.29 2.59,-3.59 1.46,-0.8 -0.51,-0.88 1.78,-2.42 -1.15,-4.35 0.7,-0.57 2.83,1.43 4.03,-2.78 1.69,-4.41 1.17,-0.17 0.33,-1.09 1.61,-0.87 0.27,-1.23 2.44,-1.77 -1.16,-3.98 1.21,-1.56 2.26,-1.16 3.06,-0.33 0.61,1.98 1.74,0.3 6.55,-1.92 1.1,1.2 2.25,-0.23 3.31,2 h 1.48 l 2.98,-2.87 5.38,-2.15 6.81,0.97 4.59,-0.77 3.4,2.82 -1.09,3 0.69,1.01 -0.89,3.69 1.4,0.46 1.57,3.35 -0.4,1.59 -1.66,1.52 1.14,2.82 1.99,-0.56 3.93,0.49 1.24,-1.1 0.61,-1.94 1.94,0.26 0.38,-0.75 1.78,0.21 2.03,1.96 1.27,0.17 1.78,-1.34 1.33,1.04 2.64,-1.47 1.61,0.52 0.79,-0.81 -1.06,-3.43 1.97,-2.45 1.4,0.36 0.7,-1.03 0.3,-1.43 -0.92,-1.64 1.33,-2.08 -0.47,-0.82 0.79,-0.68 -0.04,-2.58 2.98,-3.31 5,-0.75 0.97,1.11 4.49,-1.03 0.4,-2.79 0.92,-0.89 -0.18,-1.51 3.12,-1.16 1.51,-3.16 2.99,-0.78 0.35,-2.29 z"
     class="land"
     title="Žilinský"
     id="SK-ZI" />
</svg>
