<?xml version="1.0" encoding="UTF-8" standalone="no"?>
<?xml-stylesheet type="text/css" href="/styles/home.css"?>

<svg version="1.1" xmlns="http://www.w3.org/2000/svg" id="map-germany"
   viewBox="0 0 418.24765 468.5632">
   <defs
      id="defs4">
      <style
         type="text/css"
         id="style2">
         .land
         {
         fill: #CCCCCC;
         fill-opacity: 1;
         stroke:white;
         stroke-opacity: 1;
         stroke-width:0.5;
         }
      </style>
      <!-- <amcharts:ammap
       projection="mercator"
       leftLongitude="-9.301684"
       topLatitude="43.792633"
       rightLongitude="4.313022"
       bottomLatitude="31.733447" /> -->
      <!-- All areas are listed in the line below. You can use this list in your script. -->
      <!--{id:"divider"},{id:"ES-A"},{id:"ES-AB"},{id:"ES-AL"},{id:"ES-AV"},{id:"ES-B"},{id:"ES-BA"},{id:"ES-BI"},{id:"ES-BU"},{id:"ES-C"},{id:"ES-CA"},{id:"ES-CC"},{id:"ES-CE"},{id:"ES-CO"},{id:"ES-CR"},{id:"ES-CS"},{id:"ES-CU"},{id:"ES-GC"},{id:"ES-GI"},{id:"ES-GR"},{id:"ES-GU"},{id:"ES-H"},{id:"ES-HU"},{id:"ES-J"},{id:"ES-L"},{id:"ES-LE"},{id:"ES-LO"},{id:"ES-LU"},{id:"ES-M"},{id:"ES-MA"},{id:"ES-ML"},{id:"ES-MU"},{id:"ES-NA"},{id:"ES-O"},{id:"ES-OR"},{id:"ES-P"},{id:"ES-PM"},{id:"ES-PO"},{id:"ES-S"},{id:"ES-SA"},{id:"ES-SE"},{id:"ES-SG"},{id:"ES-SO"},{id:"ES-SS"},{id:"ES-TE"},{id:"ES-TF"},{id:"ES-TO"},{id:"ES-T"},{id:"ES-V"},{id:"ES-VA"},{id:"ES-VI"},{id:"ES-Z"},{id:"ES-ZA"}-->
   </defs>
   <g
      id="g59"
      transform="translate(-271.6131,0.32320765)">
      <path
         id="divider"
         class="land"
         d="M 617.94,357.36 H 445.2 l -65.48,110.63 h -4.01 L 441.19,357.36 H 291.05 v -2.82 h 326.89 z" />
      <path
         id="ES-A"
         title="Alicante"
         class="land"
         d="m 528.8,203.9 2.9,2.01 3.06,-1.06 3.59,2.85 3.4,-2.21 -2.37,-0.99 0.12,-1.27 3.24,-0.12 5.02,-3.05 2.46,1.1 2.14,-1.33 0.39,1.14 2.38,-1.07 1.12,1.13 -0.11,-1.12 v 0 l 7.27,3.23 1.01,2.79 -4.22,2.46 -0.35,1.5 -3.42,0.49 -2.1,3.73 -1.57,-0.52 -6.98,3.68 -0.83,3.51 -1.31,-0.41 -2.33,2.86 0.32,3.46 -3.2,1.05 -1.01,6.77 -3.53,5.91 v 0 l -4.23,-2.95 -3.99,-6.75 1.93,-6.81 -0.64,-1.91 -2.93,-1.01 -0.3,-3.58 2.46,-2.29 -0.37,-6.2 v 0 l 3.39,-1.58 -1.4,-3.09 z" />
      <path
         id="ES-AB"
         title="Albacete"
         class="land"
         d="m 511.12,178.92 1.61,0.77 -0.07,1.49 1.25,-0.76 2.39,1.82 5.26,0.93 -3.12,10.23 3.68,4.78 5.75,-0.59 0.93,6.31 v 0 l -0.99,0.35 1.4,3.09 -3.39,1.58 v 0 l -4.84,-3.87 -4.88,3.01 -1.82,-0.54 -2.95,6.23 0.61,6.07 -3.4,2.54 -2.48,-0.04 -0.54,-2.08 -1.71,-0.61 -5.04,3.25 -4.34,-0.31 -5.04,4.05 -3.94,6.83 v 0 l -6.43,-2.26 v 0 l 3.22,-3.92 -1.14,-8.28 -2.7,-0.63 -0.65,-3.78 -2.46,0.55 -2.74,-1.41 v 0 l -0.05,-3.72 2.91,-0.83 0.95,-3.35 -2.89,-1.85 -0.91,-3.86 -3.71,-2.28 2.23,-3.36 -1,-4.36 3.67,-5.14 -0.59,-2.1 v 0 l 7.1,-0.95 4.2,4.32 1.62,-2.01 1,2.25 3.69,-2.15 3.6,0.57 -1.39,-3.64 2.33,0.28 0.94,2.29 6.75,0.52 z" />
      <path
         id="ES-AL"
         title="Almería"
         class="land"
         d="m 489.56,237.69 7.16,1.86 -1.17,6.48 1.1,3.17 4.04,6.32 3.32,0.47 3.28,2.61 v 0 l -5.32,5.82 -2.83,10.54 -2.95,2.08 -0.32,2.19 -3.64,3.96 -2.16,0.49 -5.2,-4.65 -2,1.19 -1.7,-0.9 -2.58,0.76 -4.12,5.02 -4.58,-0.47 -2.32,-2.17 -6.26,0.04 v 0 l -0.36,-1.42 3.41,-2.16 -1.22,-2.72 2.83,-2.36 -1.63,-5.2 2.48,0.64 3.18,-7.01 5.68,2.58 0.75,-7 5.51,-4.43 3,-0.5 -1.01,-4.25 2.32,0.4 0.64,-9.82 z" />
      <path
         id="ES-AV"
         title="Avila"
         class="land"
         d="m 400.05,110.25 4.14,-1.17 3.87,2.71 4.35,-2.25 v 0 l 0.27,3.51 4.51,4.32 1.06,3.95 -0.84,0.77 2,0.24 1.93,3.68 0.35,4.39 3.06,-0.56 v 0 l 1.91,-0.24 -0.54,-0.92 v 0 l 3.53,-0.55 v 0 l -0.04,2.68 -2.48,0.85 -1.46,-1.03 -0.95,8.73 -3.1,0.17 -1.03,3.47 -2.79,-0.89 0.53,1.98 -1.53,3.02 v 0 l -2.3,0.77 -1.36,-3.37 -3.25,0.29 -0.11,1.59 -4.51,4.57 -1.8,0.4 -0.16,-1.92 -4.7,2.97 -5.04,-1.24 v 0 l -0.98,-1.93 0.76,-4 -5.76,2.78 -6.34,-3.98 v 0 l 1.98,-2.19 -0.56,-2.94 1.75,-1.55 2.25,-0.67 -0.42,1.32 1.45,0.88 0.53,-1.66 1.36,-0.09 1.23,-3.64 -3.04,0.64 0.26,-1.8 2.1,0.23 1.99,-1.65 -0.08,-2.05 6.87,-5.75 2.2,-7.38 -1.93,-2.72 z" />
      <path
         id="ES-B"
         title="Barcelona"
         class="land"
         d="m 613.85,62.14 1.86,-0.7 5.12,1.31 -1.63,2.43 1.35,2.26 -1.71,0.65 0.08,-1.32 -1.29,-0.21 1.19,2.05 3.74,1.5 4.42,-1.32 0.76,1.75 2.18,-0.77 1.57,2.33 2.24,-0.1 0.26,2.71 -2.14,1.34 1.6,2.17 -3.02,1.83 -1.68,-0.47 0.72,3.01 2.62,0.29 3.39,3.42 3.39,-1.17 3.66,0.5 0.01,3.48 v 0 l -15.68,7.81 -4.7,6.93 -14.35,3.81 v 0 l -0.13,-1.61 -2.17,-1.03 1.52,0.29 0.52,-1.72 -1.49,0.08 -1.57,-3.72 -1.96,0.19 0.35,-3.84 -2.71,-1.55 1.78,-2.3 -1.89,-0.24 v 0 l 0.42,-1.04 -1.44,-0.53 2.78,-1.35 -2.09,-2.42 1.32,-1.11 -0.24,-2.53 1.66,-0.26 -0.31,0.99 1.34,-0.46 0.8,1.45 1.93,-1.04 1.13,-3.32 -1.88,-0.87 2.58,-2 -0.09,-2.09 2.12,-0.2 -0.66,-1.24 -0.01,1.21 -1.52,-0.62 1.58,-1.21 -0.77,-1.22 1.47,-1.31 -0.72,-1.84 1.24,-1.68 -1.8,-1.23 0.73,-1.23 -1.04,-1.88 z" />
      <path
         id="ES-BA"
         title="Badajoz"
         class="land"
         d="m 413.46,177.64 -0.58,4.85 -1.67,0.27 3.44,6.16 -4.95,-1.37 -1.97,3.96 1.28,2.08 -3.98,-0.49 1.36,4 2.67,0.84 -0.51,2.1 -2.06,-0.21 -0.88,1.3 -1.42,4.49 -1.75,0.42 v 0 l -4.22,0.37 -0.02,2.36 -3.82,3.21 -1.91,-0.24 -1.45,2.77 -4.57,3.09 -0.23,4.05 1.67,4.76 -1.95,2.94 v 0 l -1.5,-0.25 -2.36,2.21 -0.93,-1.76 1.73,-1.19 -0.32,-1.14 -4.81,0.56 -2.3,2.63 0.54,1.61 -1.37,2.62 -4.96,0.53 -2,1.57 v 0 l -7.17,-4.55 -1.18,0.1 -0.4,1.74 -3.59,-0.38 -1.23,-2.96 -4.16,0.17 -1.77,-1.06 0.64,-2.27 -4.2,-1.16 v 0 l -4.71,1.52 -5.97,-9.75 -1.72,-0.63 2.83,-7.36 -0.49,-3.92 6.76,-5.5 -0.4,-1.66 3.1,-4.59 -2.36,-3.62 -3.56,0.27 0.29,-2.46 -3.28,-1.46 0.29,-2.79 v 0 l 0.87,0.52 2.61,-4.66 1.72,0.45 -1.23,0.67 0.66,1.66 1.14,-0.54 1.07,-2.43 -1.77,-1.02 0.54,-0.89 5.1,2.13 2.49,-0.26 1.7,2.68 -1.66,3.25 1.02,2.01 4.12,-0.33 2.9,1.64 -0.05,-1.05 4.95,0.75 1.59,-0.94 0.98,3.49 4.7,2.62 3.79,-3.84 0.27,3.01 2.09,-2.21 0.52,1.01 3.51,-2.42 3.69,2.42 2.65,-0.69 0.84,-1.98 -1.13,-1.47 1.92,-1.09 4.2,2.33 2.05,-3.25 0.22,-3.72 2.83,1.24 3.81,-1.37 0.3,-2 1.84,0.98 3.11,-1.29 v 0 h 0.36 v 0 l 2.14,1.06 3.55,-1.88 v 0 z" />
      <path
         id="ES-BI"
         title="Vizcaya"
         class="land"
         d="m 472.86,14.14 2.1,3.89 0.06,-1.93 1.18,-0.22 7.08,3.96 v 0 l -0.74,3.26 -1.88,0.98 -0.1,5.19 -1.4,0.35 v 0 l -3.53,0.58 0.86,2.27 -4.18,-0.29 -3.82,-0.82 -2.42,-2.05 1.14,-1.71 -1.36,-2.75 -2.9,2.33 -2.04,-0.64 v 0 l -3.44,-1.55 -5.04,2.73 v 0 l -0.95,-4.31 3.57,-2.76 5.37,0.02 0.13,-2.18 v 0 l 1.52,-0.45 2.61,1.6 -0.56,-1.99 2.81,-1.51 -0.04,-1.13 z m -16.96,8.33 1.69,-0.04 -0.48,2.24 -1.01,-0.02 z" />
      <path
         id="ES-BU"
         title="Burgos"
         class="land"
         d="m 470.45,41.99 0.11,0.32 v 0 l 8.24,0.9 -1.55,2.78 0.96,1.15 1.71,-0.66 0.14,1.57 -7.69,-0.82 -3.09,-3.07 1.01,-2.35 v 0 z m -18.02,-14.26 5.04,-2.73 3.44,1.55 v 0 l -1.24,1.7 1.47,0.99 -0.24,2.82 -1.1,0.33 3.61,0.77 2.42,2.7 -3.31,1.66 -4.15,-2.12 -1.78,3.1 2.37,2.01 0.46,-1.75 2.32,-0.82 -1.01,5.53 3.02,-0.37 5.88,5.3 v 0 l -6.94,-0.1 0.75,2.14 -2.28,1.96 1.92,0.6 -0.7,1.64 1.49,1.78 -0.36,3.11 -1.34,-1.93 1.16,2.51 -1.4,0.17 0.63,4.39 -1.25,1.91 2.92,4.68 3.17,-0.03 0.54,2.63 v 0 0 0 l -3.16,5.59 -2.47,0.24 -2.28,3.61 -3.45,-3.73 0.26,4.72 -2.38,1.26 -3.26,6.07 -2.15,-0.94 -0.38,1.43 v 0 l -3.99,0.7 -1.74,1.75 -0.34,2.73 -0.87,-3.6 -1.72,2.36 -4.81,-4.17 v 0 l -2.94,-5.84 1.09,-1.73 v 0 l -1.47,-4.2 3.32,-1.23 -0.02,-1.24 2.73,-1.1 0.03,-1.61 -4.34,1.75 1.55,-4 -2.99,0.6 -0.71,-2.07 1.44,-0.57 -4.58,-1.39 0.52,-1.72 -1.31,-1.32 -1.27,-7.33 -1.5,0.24 -0.41,-1.66 0.55,-1.62 2.29,0.11 -1.86,-4.11 1.21,-2.6 -0.9,-3.03 6.5,-2.94 v 0 l 1.09,-0.21 v 0 l 1.42,-0.1 v 0 l 5.64,-1.73 -0.64,-2.84 -0.83,-0.46 -0.5,1.6 -1.35,-1.58 2.6,-2.11 -1.47,-0.37 -1.42,2.05 -1.76,-1.3 1.39,-3.13 2.96,-1.48 0.07,-1.81 2.76,-0.03 3.25,-4.02 1.46,1.32 z m -19.88,40.32 0.11,1.32 v 0 l -1.52,-1.11 v 0 z" />
      <path
         id="ES-C"
         title="A Coruña"
         class="land"
         d="m 321.35,0 0.84,0.68 -1.38,2.74 v 0 l 0.5,2.37 -1.36,1.41 -1.37,7.27 -1.32,2.03 -2.08,0.1 0.1,2.61 -1.82,2.11 1.2,14.02 -2.81,4.27 v 0 l -1.42,0.73 -4.23,-1.19 -2.94,2.05 -1.84,-1.24 0.23,1.94 -1.85,0.21 -0.45,1.46 -4.59,-0.27 -1.54,1.89 -3.4,0.37 -0.29,1.22 v 0 l -2.37,1.67 -1.45,-1.21 -0.18,2.48 -1.34,-1.55 -0.6,2.37 -3.94,2.88 0.41,-1.75 -1.76,-0.68 1.8,-5 4.37,-3.53 0.15,-1.48 -2.22,1.54 -3.2,-0.3 -0.85,2.07 -1.92,-2.72 1.43,-1.17 -2.05,-4.75 -0.42,1.22 -1.37,-1.11 -1.29,2.55 -0.73,-1.73 1.13,-3.3 -1.18,-2.35 4.1,-2 v -1.92 l -0.81,1.16 -0.66,-1.76 2.34,-1.56 2.39,0.77 1.47,-2.09 2.43,0.58 -1.8,-2.35 4.68,-2.96 3.86,2.38 5.54,-1.08 4.09,-3.16 0.49,2.13 1.1,-0.34 -0.23,-1.78 1.5,-0.65 2.95,3.31 0.69,-4.1 -3.96,-0.85 3.57,-0.65 1.44,-2.21 -1.43,1.48 -4.31,0.83 1.44,-3.17 -0.88,-1.34 1.83,0.38 5.21,-4.68 1.3,1.43 -0.36,-3.05 1.93,-0.01 2.87,-2.68 1.16,-0.22 0.57,2.42 -1.45,2 1.52,0.05 -0.19,-1.33 1.39,0.2 -0.66,-0.56 z" />
      <path
         id="ES-CA"
         title="Cadiz"
         class="land"
         d="m 363.04,276.84 13.5,2.16 1.4,-2.79 3.94,-0.16 1.51,-2.16 4.12,3.15 -0.37,-1.41 2.33,-2.05 -0.83,-2.13 2.11,-0.21 -0.33,4.2 4.2,-3.9 2.06,3.68 2.84,-2.4 v 0 l 1.71,3.78 -1.45,2.54 -5.14,-1.19 -1.2,1.92 1.53,1.69 -1.02,3.88 -4.05,2.05 -2.03,3.34 -2.75,-0.37 0.11,1.12 2.58,0.55 0.96,-1.46 1.86,0.07 3.44,7.95 2.08,0.54 v 0 l -2.66,5.91 -3.06,-0.4 0.24,3.59 -5.33,2.29 -2.58,-2.22 -3.4,-0.38 -3.37,-3.94 -3.85,0.08 -8.4,-13.34 1.13,-0.18 1.33,2.82 1.65,-2.26 -2.06,0.6 0.35,-3.08 -4.8,-1.55 -1.56,-3.36 2.73,-3.05 v 0 z" />
      <path
         id="ES-CC"
         title="Caceres"
         class="land"
         d="m 346.65,144.98 3.36,1.27 1.14,-1.22 0.87,1.07 3.16,-1.13 1.56,-3.06 9.36,-5.6 3.53,1.81 -0.41,0.84 1.98,0.97 -1.25,1.59 2.75,0.67 1.46,2.03 1.58,0.48 1.01,-1.97 2.66,-1.06 0.13,2.66 1.71,-0.29 v 0 l 6.34,3.98 5.76,-2.78 -0.76,4 0.98,1.93 v 0 l -1.01,0.63 -1.14,8.87 2.44,-0.57 1.3,1.12 -0.76,4.12 1.68,0.31 2.68,-1.88 0.89,3.38 -2.11,4.67 7.8,8.01 v 0 l -3.11,1.29 -1.84,-0.98 -0.3,2 -3.81,1.37 -2.83,-1.24 -0.22,3.72 -2.05,3.25 -4.2,-2.33 -1.92,1.09 1.13,1.47 -0.84,1.98 -2.65,0.69 -3.69,-2.42 -3.51,2.42 -0.52,-1.01 -2.09,2.21 -0.27,-3.01 -3.79,3.84 -4.7,-2.62 -0.98,-3.49 -1.59,0.94 -4.95,-0.75 0.05,1.05 -2.9,-1.64 -4.12,0.33 -1.02,-2.01 1.66,-3.25 -1.7,-2.68 -2.49,0.26 -5.1,-2.13 -0.54,0.89 1.77,1.02 -1.07,2.43 -1.14,0.54 -0.66,-1.66 1.23,-0.67 -1.72,-0.45 -2.61,4.66 -0.87,-0.52 v 0 l -2.4,-2.45 0.45,-4.66 -2.64,-1.29 -4.91,-6.84 6.38,0.91 9.77,-1.17 0.87,-5.55 2.56,-2.42 1.22,-5.63 -2.36,-4.01 -2.21,-0.55 -0.53,-2.41 0.98,-1.96 z" />
      <path
         id="ES-CE"
         title="Ceuta"
         class="land"
         d="m 307.58,403.44 -2.88,3.23 -1.81,-1.34 -1.96,0.79 -1.65,-2.14 -3.73,-1.49 -1.46,-9.15 -1.65,-2.81 1.01,-1.43 4.54,-0.79 5.28,3.78 3.91,5.55 3.55,-2.73 0.18,1.74 3.79,3.18 3.58,-1.41 0.55,-3.1 3.27,-2.91 1.89,2.6 1.45,0.07 -0.21,2.59 -2.32,1.77 -6.24,2.44 -4.04,-1.22 -2.71,3.42 z" />
      <path
         id="ES-CO"
         title="Cordoba"
         class="land"
         d="m 402.85,248.31 0.47,1.93 -2.02,-2.16 z m -0.41,-42.27 1.3,1.33 3.92,0.35 0.52,2.82 4.69,1.64 7.81,6.68 5.65,2.09 v 0 l 1.8,1.78 1.5,6.1 -3.71,4.73 -0.14,8.76 2.46,0.69 -0.98,2.28 2.27,1.48 -1.74,2.28 4.95,4.51 -0.85,0.75 2.66,3.23 v 0 l -2.61,-0.06 -2.21,2.37 -2.4,0.24 -0.58,4.08 -2.22,1.74 v 0 l -1.71,-3.57 -1.86,-0.02 -2.93,2.56 -1.93,0.08 -0.35,-1.76 -1.22,-0.03 v 0 l -1.03,-3.28 -2.92,0.49 -1.78,-4.09 -1.37,-0.12 -1.97,-3.23 0.53,-3.68 -1.3,0.67 0.62,-2.03 -1.41,-2.09 -2.23,-0.04 0.06,1.81 -1.81,-1.47 0.67,1.4 -2.11,-0.69 -5.57,3.66 -1.65,-3.78 3.2,-0.61 -0.07,-2.9 -8.43,-13.85 v 0 l 1.96,-2.94 -1.68,-4.76 0.23,-4.05 4.58,-3.09 1.45,-2.77 1.91,0.24 3.82,-3.21 0.02,-2.36 z" />
      <path
         id="ES-CR"
         title="Ciudad Real"
         class="land"
         d="m 405.7,179.83 2.38,-6.37 3.43,2.17 -0.12,3.39 v 0 l -3.55,1.88 z m 7.76,-2.19 2.13,-0.16 2.85,-4.24 1.96,3.29 0.55,-1.76 6.18,1.79 1.5,-0.69 1.06,-3.22 3.59,0.06 0.36,2.12 -0.91,0.01 -0.26,2.57 -1.53,0.01 -0.92,3.72 5.4,0.42 0.21,2.13 3.32,1.57 1.98,-1.33 2.16,0.89 5.83,-1.36 3.75,-3.97 3.1,0.22 0.46,-2.84 4.63,-0.98 4.42,2.13 2.09,-1.18 v 0 l 1.88,3.18 -0.7,1.28 1.46,0.37 2.14,-1.8 1.04,3.03 v 0 l 0.59,2.11 -3.67,5.14 1,4.36 -2.24,3.36 3.71,2.28 0.91,3.86 2.9,1.85 -0.95,3.34 -2.91,0.83 0.05,3.72 v 0 l -3.66,3.13 -2.52,-0.73 -1.19,2.47 -1.92,-2.73 -2,1.54 -6.02,-1.69 -3.89,3.2 -3.99,-2 -0.47,2.07 -5.75,-1.04 -3.9,2.19 -10.52,-1.27 -0.41,2.13 v 0 l -5.65,-2.09 -7.81,-6.68 -4.69,-1.64 -0.52,-2.82 -3.92,-0.35 -1.3,-1.33 v 0 l 1.75,-0.42 1.43,-4.49 0.88,-1.3 2.06,0.21 0.51,-2.1 -2.67,-0.84 -1.36,-4 3.98,0.5 -1.28,-2.08 1.97,-3.96 4.95,1.36 -3.44,-6.15 1.67,-0.27 z" />
      <path
         id="ES-CS"
         title="Castellón"
         class="land"
         d="m 532.83,160.54 -1.24,-3.81 2.59,-2.8 4.3,-0.93 2.13,-7.26 3.56,0.32 4.47,-4.86 -1.99,-3.16 2.29,-1.19 -0.63,-5.52 -2.37,-0.1 -0.23,-2.17 4.36,-0.95 0.37,-2.54 1.81,-1.39 3.08,2.47 2.47,-0.04 0.81,1.51 3.95,-1.69 v 0 l 3.72,1.79 -0.4,2.36 3.78,1.11 1.1,2.23 2.37,0.97 v 0 l -11.29,17.68 -3,1.86 -1.7,4.81 -5.61,7.66 v 0 l -4.28,-3.16 -1.52,0.06 -2.4,3.39 -2.28,-3.23 -1.77,2.16 -1.31,-0.18 -0.77,-3.56 -1.07,-0.66 -1.21,1.49 z" />
      <path
         id="ES-CU"
         title="Cuenca"
         class="land"
         d="m 463.17,149.51 1.57,0.2 0.32,-2.24 2.86,2.05 2.81,-1.92 1.24,-9.58 1.78,1.89 0.17,-0.92 1.13,0.69 0.15,-1.82 4.92,0.96 -0.36,-4.83 0.96,1.43 2.58,-0.68 0.98,-0.72 -1,-2.35 3.52,1.17 0.71,-2.89 1.87,1.03 2.45,-1.48 4.55,2.84 0.63,-1.05 1.18,0.7 2.15,6.64 1.54,1.23 v 0 l 3.33,3.09 0.23,0.46 4.6,4.76 3.11,-0.24 -0.3,2.06 v 0 l 2.21,5.15 6.49,0.25 v 0 l 0.7,1.53 v 0 l -2.02,1.12 0.26,3.36 -2.45,7.22 -2.73,-0.47 -4.16,4.99 -0.03,5.78 v 0 l -8.12,5.43 -6.75,-0.52 -0.94,-2.29 -2.33,-0.28 1.39,3.64 -3.6,-0.57 -3.69,2.15 -1,-2.25 -1.62,2.01 -4.2,-4.32 -7.1,0.95 v 0 l -1.04,-3.03 -2.13,1.8 -1.46,-0.38 0.71,-1.28 -1.88,-3.18 v 0 l 0.71,-6.77 -6.72,-9.24 0.94,-4.47 -1.41,0.08 -0.58,-3.2 v 0 l 3.09,-1.01 -1.11,-2.08 z" />
      <path
         id="ES-GC"
         title="Las Palmas"
         class="land"
         d="m 544.03,423.74 -0.02,4.2 1.92,4.46 -0.84,2.58 -5.71,4.18 -3.16,-0.43 -4.84,-5.55 0.27,-3.62 3.32,-2.22 0.2,-3.05 7.4,1.39 z m 47.02,-19.99 1.75,2.19 0.19,4.94 -2.85,10.42 -9.28,3.01 -3.44,4.14 -5.52,-0.72 0.59,-1.55 3.75,-0.2 4.48,-3.38 0.56,-3.94 5.26,-9.19 0.49,-4.25 z m 12.81,-16.89 1.56,1.98 -2.04,6.73 -7.7,2.99 -1.52,2.38 -2.71,-0.58 1.75,-6.23 4.86,-3.21 3.49,0.19 z" />
      <path
         id="ES-GI"
         title="Girona"
         class="land"
         d="m 611.35,54.61 5.39,1.41 2.41,4.43 2.11,-0.61 1.37,-2.14 3.92,-1.03 5.43,1.88 2.85,2.48 1.38,-1.04 3.08,0.74 0.01,-2.6 3.91,-0.6 1.25,-1.7 5.95,-0.64 1.6,2.03 2.71,-0.4 -0.33,3.11 4.82,1.61 -1.7,3.49 -3.12,-1.15 -1.56,2.23 0.37,3.43 2.72,2.43 -0.58,1.85 1.24,2.55 -0.95,2.89 -8.23,7.27 -4.84,2.62 v 0 l -0.01,-3.48 -3.66,-0.5 -3.38,1.17 -3.38,-3.42 -2.62,-0.29 -0.72,-3.01 1.68,0.47 3.02,-1.83 -1.6,-2.17 2.14,-1.34 -0.26,-2.71 -2.24,0.1 -1.57,-2.33 -2.18,0.77 -0.76,-1.75 -4.42,1.32 -3.74,-1.5 -1.19,-2.04 1.29,0.21 -0.08,1.32 1.71,-0.65 -1.34,-2.26 1.63,-2.43 -5.12,-1.31 -1.86,0.7 v 0 l 0.38,-2.62 -1.5,-0.02 -0.14,-2.27 -2.14,-0.64 -0.03,-2.16 v 0 z" />
      <path
         id="ES-GR"
         title="Granada"
         class="land"
         d="m 479.02,231.19 6.43,2.26 v 0 l 4.11,4.24 v 0 l -2.67,1.56 -0.64,9.82 -2.32,-0.4 1.01,4.25 -3,0.5 -5.51,4.43 -0.75,7 -5.68,-2.58 -3.18,7.01 -2.48,-0.64 1.63,5.2 -2.83,2.36 1.22,2.72 -3.41,2.16 0.36,1.42 v 0 l -6.43,0.46 -2.52,1.71 -5.6,-1.92 -5.36,0.27 v 0 l 0.28,-2.48 -1.81,-2.04 -6.76,-1.84 -6.91,-4.26 -1.69,-6.49 v 0 l 2.22,-1.73 0.58,-4.08 2.4,-0.25 2.22,-2.36 2.61,0.06 v 0 l 4.9,0.61 1.71,-4.03 4.86,-1.45 3.7,-3.42 3.29,2.05 5.63,-3.09 3.81,1.84 3.48,-0.24 2.89,-3.03 -0.61,-2.7 3.65,-6.42 5.5,-3.12 -0.02,-2.49 z" />
      <path
         id="ES-GU"
         title="Guadalajara"
         class="land"
         d="m 458.89,103.25 4.46,1.25 4.76,-2.21 2.59,2.89 3.24,-0.77 2.69,2.46 1.22,-0.38 -1,1.49 1.35,0.35 -0.55,1.13 1.83,-0.45 3.61,4.25 1.95,-1.17 0.98,1.21 2.8,-1.64 1.74,0.54 1.33,-1.39 2.31,1.96 0.15,-3.13 v 0 l 2.84,-1.04 10.48,9.27 v 0 l -0.09,2.6 2.39,2.76 -0.1,8.71 -1.63,1.33 -2.43,-1.16 -0.44,4.19 -3.49,3.56 v 0 l -1.54,-1.23 -2.15,-6.65 -1.17,-0.69 -0.63,1.04 -4.55,-2.84 -2.46,1.48 -1.86,-1.03 -0.71,2.9 -3.52,-1.18 1,2.36 -0.98,0.72 -2.58,0.68 -0.96,-1.43 0.36,4.82 -4.92,-0.95 -0.15,1.82 -1.12,-0.69 -0.17,0.91 -1.78,-1.89 -1.25,9.58 -2.81,1.92 -2.85,-2.05 -0.32,2.24 -1.57,-0.2 v 0 l -1.28,-5.11 -2.65,1.5 2,-6.31 -2.1,-1.49 -0.06,-2.91 -2.96,-0.91 -0.63,-4.71 -0.66,0.71 -1.67,-2.26 -0.36,0.91 -1.92,-0.79 0.74,-2.87 -2.06,-1.12 3.56,-8.56 -0.96,-3.37 -1.91,-0.43 -1.59,-2.88 v 0 l 4.21,-1.97 -0.22,-1.91 4.76,0.12 z" />
      <path
         id="ES-H"
         title="Huelva"
         class="land"
         d="m 343.05,264.73 1.03,1.97 -2.63,-1.61 -11.34,1.08 -1.85,-11.9 -1.81,-2.64 3.11,-7.84 4.23,-4.25 0.65,-4.3 4.35,-0.96 0.68,-1.52 2.97,0.83 2.16,-7.22 v 0 l 4.19,1.16 -0.64,2.27 1.77,1.07 4.17,-0.17 1.23,2.96 3.59,0.38 0.4,-1.74 1.18,-0.1 7.17,4.56 v 0 l 1.69,1.4 -1.2,1.63 0.92,2.9 -1.65,-0.85 -1.05,2.71 -2.73,-0.97 -4.99,1.53 -1.91,2.87 0.25,1.36 4.08,0.19 2.72,6.78 -2.39,3.75 1.58,1.48 -0.29,6.76 -1.35,1.86 0.99,3.38 -0.76,1.97 1.47,1.37 v 0 l -0.55,3.9 v 0 l -1.48,-0.5 -3.78,-6.38 z" />
      <path
         id="ES-HU"
         title="Huesca"
         class="land"
         d="m 529.66,44.04 1.64,-1.8 0.87,-4.78 2.81,-0.78 v 0 l 4.89,5.75 1.93,-1.91 3.46,1.13 2.44,-1.97 4.7,2.06 1.65,3.21 2.81,1.5 5.86,-2.15 3.64,2.63 2.01,-2.1 1.89,1.4 7.3,-0.03 v 0 l 1.48,2.9 1.82,0.41 -0.86,4.4 -1.5,0.73 2.27,6.84 -3.29,13.23 -2.93,2.61 1.4,0.78 -0.01,1.93 -4.22,4.37 -2.18,0.32 -2.16,3.15 0.66,3.34 2.42,-0.12 0.56,2.45 -3.22,2.38 -0.21,3.09 v 0 l -2.76,-0.83 -4.66,3.2 -2.56,-0.42 -1.04,-1.49 0.49,2 -1.27,-0.51 -3.28,-9.37 -1.52,-0.5 -1.23,1.17 -3.57,-2.62 -0.37,-2.06 -4.45,-1.69 0.08,-4.4 -4.33,-4.96 h -3.69 l -3.28,-1.9 2.46,-3.82 0.31,1.7 0.98,-0.53 1.04,-9.48 -0.23,-2.98 -1.27,-0.89 -1.08,5.25 -1.96,-0.71 -0.38,1.69 -0.88,-0.61 3.15,-5.77 -2.77,-1.72 0.39,-3.04 -1.25,0.16 1.13,-1.41 -1.15,-1.36 0.9,-1.17 -0.7,-2.3 1.46,-1.33 -1.3,-0.52 z" />
      <path
         id="ES-J"
         title="Jaén"
         class="land"
         d="m 472.55,213.72 2.74,1.41 2.46,-0.55 0.65,3.78 2.7,0.63 1.14,8.28 -3.22,3.92 v 0 l -1.69,0.87 0.02,2.49 -5.5,3.12 -3.65,6.42 0.61,2.7 -2.89,3.03 -3.48,0.24 -3.81,-1.84 -5.63,3.09 -3.29,-2.05 -3.7,3.42 -4.86,1.45 -1.71,4.03 -4.9,-0.61 v 0 l -2.65,-3.23 0.84,-0.75 -4.95,-4.51 1.74,-2.28 -2.27,-1.48 0.98,-2.27 -2.46,-0.69 0.13,-8.77 3.71,-4.73 -1.49,-6.1 -1.8,-1.78 v 0 l 0.4,-2.13 10.53,1.28 3.9,-2.19 5.74,1.04 0.47,-2.06 3.99,2 3.88,-3.2 6.03,1.69 2,-1.54 1.91,2.73 1.2,-2.46 2.52,0.73 z" />
      <path
         id="ES-L"
         title="Lleida"
         class="land"
         d="m 579.23,39.17 6.5,2.92 4.64,0.07 2.85,3.32 5.75,-0.52 2.58,5.05 -0.87,2.64 1.7,1.03 -1.54,1.12 0.95,1.9 3.15,0.19 0.26,-1.05 2.95,-0.42 0.4,-1.47 1.86,0.49 v 0 l 0.03,2.16 2.14,0.64 0.14,2.27 1.5,0.02 -0.38,2.62 v 0 l -5.29,1.02 1.04,1.88 -0.73,1.23 1.8,1.23 -1.24,1.68 0.72,1.84 -1.46,1.31 0.77,1.22 -1.58,1.21 1.52,0.62 0.01,-1.21 0.66,1.24 -2.12,0.2 0.09,2.09 -2.58,2 1.88,0.87 -1.13,3.32 -1.93,1.04 -0.79,-1.45 -1.34,0.46 0.31,-0.99 -1.66,0.26 0.24,2.54 -1.32,1.11 2.09,2.42 -2.78,1.35 1.44,0.53 -0.42,1.04 v 0 l -5.31,0.23 -1.69,1.44 0.5,1.89 -2.11,0.86 -2.22,-1.39 1.09,1.68 -3.4,4.26 -3.1,0.71 -0.57,-0.97 -0.77,1.35 -5.87,1.54 -2.26,-1.45 -1.57,1.5 -1.29,-1.84 -0.86,2.4 -1.46,-0.11 v 0 l -1.56,-5.27 v 0 l 0.22,-3.09 3.22,-2.38 -0.56,-2.46 -2.42,0.12 -0.66,-3.34 2.16,-3.14 2.18,-0.32 4.22,-4.38 0.01,-1.93 -1.4,-0.78 2.93,-2.61 3.29,-13.23 -2.27,-6.84 1.49,-0.75 0.86,-4.4 -1.81,-0.41 -1.48,-2.9 v 0 l -0.05,-6.07 z" />
      <path
         id="ES-LE"
         title="León"
         class="land"
         d="m 408.76,25.74 -0.32,2.3 3.51,4.39 v 0 l -5.03,6.83 0.16,3.01 -1.24,1.7 1.98,1.52 -1.34,6.14 0.37,7.2 -2.13,0.5 0.75,2.63 -1.66,0.9 v 0 l -1.11,-0.33 -0.5,1.64 -1.75,-2.24 -2.17,1.97 -1.65,-0.38 -0.15,2.43 -4.5,-0.29 0.36,7.42 v 0 l -1.39,0.44 v 0 l -3.05,-2.74 v 0 l -2.02,1.9 -2.48,-3.75 -5.44,1.29 -1.61,-1.87 -1.72,1.34 -2.31,-1.4 -5.63,0.39 -3.07,-2.41 -5.68,1.01 -6.33,-1.13 -2.47,-1.83 v 0 l 1.55,-4.36 -3.36,-1.93 0.64,-3.52 -3.36,-1.23 -1.44,1.13 -3.01,-0.62 v 0 l 0.92,-5.17 1.31,-0.42 -1.25,-2.16 5.46,-3.85 0.83,-1.51 -0.95,-2.1 1.73,0.13 -0.29,-1.85 v 0 l 2.07,1.34 2.02,-1.64 6.17,0.09 1.74,-0.81 -1.36,-2.18 1.61,0.18 2.02,-3.01 4.06,2.12 0.4,-1.58 3.59,0.67 0.46,-1.89 3.31,0.45 1.83,3.02 3.39,1.26 3.4,-3.92 6.13,1.47 0.47,-1.4 2.7,0.23 0.65,-1.89 8.21,-0.3 0.79,-3.34 2.42,0.35 2.59,-2.68 z m -15.53,38.35 1.35,0.3 v 0 l -0.99,0.87 z" />
      <path
         id="ES-LO"
         title="La Rioja"
         class="land"
         d="m 467.9,73.84 -0.54,-2.63 -3.16,0.03 -2.92,-4.68 1.25,-1.91 -0.63,-4.39 1.4,-0.17 -1.16,-2.51 1.34,1.93 0.36,-3.11 -1.5,-1.78 0.71,-1.64 -1.92,-0.6 2.28,-1.95 -0.74,-2.14 6.93,0.1 v 0 l 1.18,0.99 -0.16,2.47 1.88,-2.82 2.55,1.18 -0.76,3.22 0.91,-0.37 0.86,1.76 1.3,-0.84 0.26,1.27 2.06,-0.46 0.61,-1.49 -0.15,1.24 2.89,0.03 v 0 l 2.29,1.57 1.78,-0.66 2.2,2.14 3.22,-0.16 0.66,3.01 2.89,-0.69 3.83,3.08 -0.06,1.49 5.87,2.5 0.06,1.68 -4.36,-0.08 -2.18,2.83 -0.27,2.28 1.67,0.89 v 0 l -0.29,1.71 v 0 l -3.85,1.94 -3.93,-1.59 -1.59,-4.48 1.06,-1.25 -4.37,0.35 -1.92,-2.36 -5.6,1.29 -2,4.87 -5.1,-0.51 1.23,-3.86 -0.99,-0.92 -1.63,0.66 -0.65,2.97 z" />
      <path
         id="ES-LU"
         title="Lugo"
         class="land"
         d="m 322.93,1.62 1.35,3.55 2.05,-2.84 5.2,2.73 3.43,4.04 -0.65,1.51 0.91,-1.21 6.01,0.52 -0.34,3.48 v 0 l -1.54,2 -2.15,-0.14 -0.28,1.62 1.68,0.82 0.81,2.88 1.27,-0.05 -0.06,2.57 2.78,1.67 0.42,2.88 2.93,-1.96 1.24,1.64 -5.39,5.18 3.85,1.28 1.46,3.09 v 0 l 0.29,1.85 -1.73,-0.12 0.95,2.1 -0.83,1.51 -5.45,3.85 1.25,2.16 -1.31,0.42 -0.92,5.17 v 0 l -3.85,7.56 -0.53,-2.54 -2.67,-1.75 -9.5,1.87 -5.29,-3.39 0.75,-1.15 -4.56,-0.61 0.71,-1.73 -1.25,-1.18 v 0 l 2.13,-5.3 -3.59,-3.03 0.68,-2.53 -1.33,-0.38 v 0 l 2.81,-4.27 -1.19,-14.02 1.82,-2.11 -0.1,-2.61 2.08,-0.1 1.32,-2.03 1.37,-7.27 1.36,-1.41 -0.5,-2.37 v 0 z" />
      <path
         id="ES-M"
         title="Madrid"
         class="land"
         d="m 426.12,128.68 0.54,0.92 -1.91,0.24 v 0 z m 22.57,-19.77 1.59,2.88 1.91,0.43 0.96,3.37 -3.56,8.56 2.06,1.12 -0.74,2.87 1.92,0.79 0.36,-0.91 1.67,2.26 0.66,-0.71 0.63,4.71 2.96,0.91 0.06,2.91 2.1,1.5 -2,6.31 2.65,-1.5 1.28,5.11 v 0 l -0.89,0.6 1.11,2.08 -3.09,1.01 v 0 l -0.42,-1.03 -3.12,1.74 -1.77,-1.36 -1.83,1.84 -3.46,-0.51 -9.11,6.53 -2.21,-1.76 3.7,-0.85 4.13,-4.23 0.43,-2.11 -1.85,-1.38 -2.4,0.44 -1.87,-1.79 -4.4,-0.46 -3.74,-3.03 -2.22,0.79 -1.46,-2.08 -4,2.88 -1.83,-3.73 -1.73,3.23 -3.02,1.53 -1.32,-0.71 v 0 l 1.53,-3.02 -0.53,-1.98 2.79,0.89 1.03,-3.47 3.1,-0.17 0.95,-8.74 1.46,1.03 2.49,-0.85 0.03,-2.68 v 0 l 2.77,-4.19 2.77,0.39 2.6,-7.39 3.48,-1.35 5.16,-6.04 z" />
      <path
         id="ES-MA"
         title="Malaga"
         class="land"
         d="m 414.52,263.17 1.22,0.03 0.35,1.76 1.93,-0.08 2.93,-2.56 1.86,0.02 1.71,3.57 v 0 l 1.69,6.49 6.91,4.26 6.76,1.84 1.81,2.05 -0.28,2.48 v 0 l -18.95,0.54 -7.49,8.25 -9.07,0.23 -7.46,3.27 -2.28,3.91 v 0 l -2.08,-0.54 -3.44,-7.94 -1.86,-0.07 -0.96,1.46 -2.58,-0.55 -0.11,-1.11 2.75,0.37 2.03,-3.34 4.05,-2.05 1.02,-3.88 -1.53,-1.69 1.2,-1.92 5.14,1.19 1.45,-2.54 -1.71,-3.78 v 0 l 7.18,-4.24 -0.96,-2.34 1.97,0.67 1.52,-1.63 0.97,1.81 2.63,-1.69 -0.76,-2.01 z" />
      <path
         id="ES-ML"
         title="Melilla"
         class="land"
         d="m 350.43,412.76 1.53,0.74 -0.48,2.58 3.21,4.02 3.3,2.01 -1.99,-0.89 -1.57,0.8 -0.26,3.38 2.64,2.45 -0.58,1.14 -5.16,1.84 -5.54,-5.37 -0.85,-4.5 2.66,-7.57 2.47,-1.67 z" />
      <path
         id="ES-MU"
         title="Murcia"
         class="land"
         d="m 485.45,233.45 3.93,-6.83 5.05,-4.05 4.34,0.3 5.03,-3.25 1.72,0.6 0.54,2.08 2.47,0.04 3.41,-2.54 -0.61,-6.07 2.95,-6.23 1.82,0.54 4.88,-3.01 4.85,3.87 v 0 l 0.37,6.2 -2.46,2.29 0.3,3.58 2.93,1.01 0.66,1.88 -1.93,6.81 3.99,6.75 4.23,2.95 v 0 l -2.99,4.95 4.06,3.27 0.3,1.07 -6.19,2.04 -4.76,-1.16 -1.11,1.93 -3.18,-1.59 -3.41,0.48 -4.13,2.95 -0.67,2.36 -4.54,1.92 v 0 l -3.28,-2.61 -3.32,-0.47 -4.04,-6.32 -1.1,-3.17 1.17,-6.48 -7.15,-1.86 v 0 z" />
      <path
         id="ES-NA"
         title="Navarra"
         class="land"
         d="m 506.68,20.31 1.28,2.43 2.24,-1.76 4.63,1.7 0.05,2.71 -2.79,4.3 0.99,1.69 2.69,0.76 0.27,-2.79 2.29,-0.99 -1.18,2.05 1.38,1.05 1.58,-0.3 8.2,4.09 5.93,-0.57 0.74,2 v 0 l -2.81,0.78 -0.87,4.78 -1.64,1.8 v 0 0 0 l -3.9,1.78 -0.77,2.4 -3.05,-0.22 -1.54,4.07 -1.9,-0.3 -0.72,1.41 0.47,1.68 -2.11,2.42 0.38,2.84 -2.14,2.65 -0.57,3.28 0.57,3.53 2.89,3.43 -3.25,5.1 -4.53,0.21 -8.86,-3.87 v 0 l -1.67,-0.89 0.27,-2.28 2.18,-2.83 4.36,0.08 -0.06,-1.68 -5.87,-2.5 0.06,-1.49 -3.83,-3.08 -2.89,0.69 -0.66,-3.01 -3.22,0.16 -2.2,-2.14 -1.78,0.66 -2.29,-1.57 v 0 l 0.73,-4.55 -1.73,1.32 -1.44,-2.05 2.59,-1.92 1.04,1.18 2.86,-0.86 -1.08,-2.87 1.88,-1.01 0.36,-6.14 v 0 l 1.24,-2.27 2.48,0.44 2.8,-1.74 0.48,-3.52 3.7,-2.94 -0.43,-3.67 1.71,0.45 4.03,-3.52 v 0 z" />
      <path
         id="ES-O"
         title="Asturias"
         class="land"
         d="m 378.11,5.51 4.52,4.99 8.69,-0.47 3.39,0.79 2.57,2.62 8.86,0.46 12.71,2.92 v 0 l -0.34,4.84 -2.55,-0.94 -0.78,1.38 -3.04,0.43 -0.23,2.98 -3.15,0.24 v 0 l -2.19,-2.35 -2.59,2.68 -2.42,-0.35 -0.79,3.34 -8.2,0.31 -0.65,1.89 -2.7,-0.23 -0.47,1.4 -6.12,-1.47 -3.4,3.93 -3.39,-1.26 -1.83,-3.02 -3.31,-0.45 -0.46,1.89 -3.59,-0.67 -0.4,1.58 -4.06,-2.12 -2.02,3.01 -1.6,-0.18 1.36,2.18 -1.74,0.81 -6.17,-0.08 -2.01,1.64 -2.07,-1.33 v 0 l -1.46,-3.09 -3.85,-1.28 5.39,-5.18 -1.24,-1.63 -2.93,1.96 -0.42,-2.88 -2.78,-1.67 0.06,-2.57 -1.27,0.05 -0.81,-2.88 -1.68,-0.82 0.28,-1.61 2.15,0.14 1.54,-2 v 0 l 1.39,-2.34 -0.71,-1.2 2.56,-0.75 18.12,1.02 3.41,-1.95 3.93,1.78 4.75,-0.95 z" />
      <path
         id="ES-OR"
         title="Ourense"
         class="land"
         d="m 313.95,50.87 1.25,1.18 -0.71,1.73 4.56,0.61 -0.75,1.15 5.29,3.39 9.5,-1.88 2.67,1.75 0.53,2.55 3.85,-7.56 v 0 l 3.01,0.62 1.44,-1.13 3.36,1.23 -0.64,3.52 3.36,1.93 -1.54,4.37 v 0 l -0.09,1.56 -3.06,0.06 -4.5,5.77 1.8,0.79 -0.27,3.38 v 0 l -2.6,0.99 -1.56,-1.55 -1.81,0.27 -0.57,4.11 -5.19,1.12 -1.9,1.86 -0.76,-2.37 -4.88,1.48 0.79,-2.16 -3.53,-1.06 -4.43,1.08 -0.85,1.49 -1.03,-3.37 -0.45,2.02 -6.44,2.83 -2.64,-4.28 4.07,-5.52 -1.05,-1.44 -1.95,0.71 -0.53,-3.67 v 0 l 1.16,-3.71 -3.16,-0.36 0.09,-2.57 -1.93,-1.24 -1.28,-5.9 1.95,-0.11 3.96,-3.4 4.83,1.22 z" />
      <path
         id="ES-P"
         title="Palencia"
         class="land"
         d="m 432.22,67.86 0.43,1.5 v 0 l -1.52,-1.11 v 0 z m 0.94,-24.81 1.3,-2.7 0.12,2.6 v 0 z m -21.21,-10.62 5.48,0.06 3.4,-1.63 3.08,3.61 3.34,0.74 0.6,4.34 2.29,-0.75 0.48,0.93 -1.66,1.5 3.11,2.04 v 0 l -6.5,2.94 0.9,3.03 -1.21,2.6 1.86,4.11 -2.29,-0.11 -0.55,1.62 0.41,1.66 1.5,-0.24 1.27,7.33 1.31,1.32 -0.51,1.72 4.58,1.39 -1.44,0.57 0.71,2.07 2.99,-0.6 -1.55,4 4.34,-1.75 -0.03,1.61 -2.73,1.1 0.02,1.24 -3.32,1.23 1.47,4.2 v 0 l -5.99,-1.87 -2.5,2.07 -2.27,-0.98 -1.92,1.15 -1.44,-0.5 0.86,-2.94 -2.85,1.25 -3.18,-3.61 -3.67,3.39 -2.45,-4.67 -3.52,0.89 -0.66,-1.53 3.1,-5.4 -0.72,-2.96 -3.05,-0.15 0.76,-5.58 v 0 l 1.66,-0.9 -0.75,-2.63 2.13,-0.5 -0.37,-7.2 1.34,-6.14 -1.98,-1.52 1.24,-1.69 -0.16,-3.01 z" />
      <path
         id="ES-PM"
         title="Balears"
         class="land"
         d="m 600.9,203.61 2.24,3.94 2.36,-0.04 0.03,1.63 -3.67,-1.36 -2.04,1.73 z m 3.46,-12.88 2.19,1.09 0.51,2.51 -6.15,4.86 -0.47,2.9 -1.89,-1.6 h -3.69 l -0.29,-3.46 2.85,-0.59 -0.53,-2.16 z m 51.55,-33.43 -4.1,2.44 0.73,1.75 3.1,-1.29 -0.9,2.07 -1.66,0.18 0.57,2.19 3.52,1.96 2.88,-2.4 4.03,2.94 -1.3,3.25 -1.21,0.2 0.2,1.98 -3.29,3.15 -1.98,5.46 -4.88,3.68 -3.55,-3.76 -5.23,0.03 -2,-4.46 0.84,-1.37 -2.35,-1.96 -4.07,1.41 -0.53,2.68 -1.5,-0.34 -0.51,-2.78 -2.87,0.14 -0.02,-3.12 12.74,-9.76 z m 26.63,-5.13 1.42,2.59 0.85,-1.67 0.19,1.44 3.35,1.42 1.25,4.63 -0.91,2.79 -8.95,-4.8 -5.13,0.33 0.23,-2.8 -1.2,-0.86 0.97,-1.46 7.11,0.01 z" />
      <path
         id="ES-PO"
         title="Pontevedra"
         class="land"
         d="m 289.52,46.77 0.29,-1.22 3.4,-0.37 1.54,-1.89 4.59,0.27 0.45,-1.46 1.85,-0.21 -0.23,-1.94 1.84,1.24 2.94,-2.05 4.23,1.19 1.42,-0.73 v 0 l 1.33,0.38 -0.68,2.53 3.6,3.03 -2.13,5.3 v 0 l -2.63,1.49 -4.83,-1.22 -3.95,3.39 -1.95,0.12 1.28,5.89 1.93,1.24 -0.08,2.57 3.15,0.36 -1.16,3.71 v 0 l -4.06,2.9 -9.33,1.48 -7.34,7.29 -0.77,-9.95 2.63,-0.11 -1.09,-1.71 1.09,-1.34 6.16,-3.98 -0.56,-2.81 -1.76,3.06 -5.63,1.22 0.49,-2.43 1.25,1.26 -0.63,-2.55 2.06,0.32 3.5,-3.85 -5.6,1.74 -1.32,-2.97 -1.93,-0.33 2.27,-1.55 0.09,2.23 1.46,-0.22 -0.26,-5.1 z" />
      <path
         id="ES-S"
         title="Cantabria"
         class="land"
         d="m 456.11,24.66 -0.21,-2.18 1.69,-0.04 -0.48,2.24 z m -8.83,-12.97 4.85,2.38 -0.31,0.94 -1.56,-0.49 0.78,2.4 0.54,-1.3 3.74,0.08 0.11,1.27 2.98,-0.29 2.14,1.83 v 0 l -0.12,2.18 -5.37,-0.02 -3.57,2.76 0.95,4.31 v 0 l -5.7,-0.68 -1.46,-1.32 -3.25,4.02 -2.76,0.03 -0.07,1.81 -2.96,1.48 -1.39,3.13 1.76,1.3 1.42,-2.05 1.47,0.38 -2.6,2.11 1.36,1.58 0.51,-1.6 0.83,0.46 0.64,2.85 -5.63,1.73 v 0 l -0.12,-2.6 -1.3,2.7 v 0 l -1.09,0.21 v 0 l -3.11,-2.04 1.66,-1.5 -0.48,-0.93 -2.29,0.76 -0.6,-4.33 -3.34,-0.74 -3.07,-3.61 -3.4,1.63 -5.48,-0.06 v 0 l -3.51,-4.39 0.32,-2.3 v 0 l 3.15,-0.23 0.23,-2.98 3.04,-0.43 0.78,-1.38 2.55,0.94 0.34,-4.84 v 0 l 8.94,-0.02 13.41,-4.14 0.65,1.02 -1.76,0.81 0.19,1.97 1.31,-1.96 1.05,0.73 0.42,-1.75 z" />
      <path
         id="ES-SA"
         title="Salamanca"
         class="land"
         d="m 358.47,103.66 4.98,0.94 5.62,3.28 2.22,-1.25 1.63,0.84 -0.4,1.83 1.31,-0.78 0.8,1.4 1.7,-4 4.07,0.92 3.32,-1.21 5.27,2.71 0.26,0.03 2.12,-0.3 0.23,1.63 2.19,1.15 1.23,-2.63 v 0 l 1.42,-0.62 3.61,2.65 v 0 l -0.86,2.77 1.93,2.72 -2.2,7.38 -6.87,5.75 0.08,2.05 -1.99,1.65 -2.1,-0.23 -0.26,1.8 3.04,-0.64 -1.23,3.64 -1.36,0.09 -0.53,1.66 -1.45,-0.88 0.42,-1.32 -2.25,0.67 -1.75,1.55 0.56,2.94 -1.98,2.19 v 0 l -1.71,0.29 -0.13,-2.66 -2.66,1.06 -1.01,1.97 -1.58,-0.48 -1.46,-2.03 -2.75,-0.67 1.25,-1.59 -1.98,-0.97 0.41,-0.84 -3.53,-1.81 -9.36,5.6 -1.56,3.06 -3.16,1.13 -0.87,-1.07 -1.14,1.22 -3.36,-1.27 v 0 l 2.58,-3.76 -2.11,-3.5 1.67,-2.4 -1.54,-2.2 1.58,-3.84 -1.14,-3.69 0.95,-3.87 -4.03,-7.31 3.76,-0.29 1.26,-3.99 3.66,-4.58 2.37,0.35 z" />
      <path
         id="ES-SE"
         title="Sevilla"
         class="land"
         d="m 367.66,236.74 1.99,-1.58 4.96,-0.53 1.37,-2.62 -0.54,-1.61 2.3,-2.62 4.81,-0.57 0.32,1.15 -1.73,1.19 0.93,1.77 2.36,-2.22 1.49,0.25 v 0 l 8.43,13.85 0.07,2.9 -3.2,0.61 1.65,3.78 5.57,-3.66 2.11,0.7 -0.67,-1.4 1.81,1.47 -0.06,-1.81 2.23,0.04 1.41,2.09 -0.62,2.03 1.3,-0.67 -0.53,3.68 1.97,3.23 1.37,0.12 1.78,4.09 2.92,-0.49 1.03,3.29 v 0 l -2.46,0.22 0.76,2.01 -2.63,1.7 -0.97,-1.81 -1.52,1.63 -1.97,-0.67 0.96,2.34 -7.18,4.24 v 0 l -2.84,2.4 -2.06,-3.68 -4.2,3.91 0.33,-4.2 -2.11,0.21 0.83,2.13 -2.33,2.05 0.37,1.41 -4.12,-3.15 -1.51,2.16 -3.94,0.17 -1.4,2.79 -13.5,-2.16 v 0 l -1.47,-1.37 0.76,-1.97 -0.99,-3.37 1.35,-1.86 0.29,-6.76 -1.58,-1.47 2.39,-3.75 -2.71,-6.78 -4.08,-0.18 -0.25,-1.36 1.91,-2.87 5,-1.53 2.73,0.97 1.05,-2.71 1.65,0.85 -0.92,-2.9 1.2,-1.63 z m 35.66,13.49 -2.02,-2.16 1.55,0.24 z" />
      <path
         id="ES-SG"
         title="Segovia"
         class="land"
         d="m 435.16,91.86 4.81,4.18 1.72,-2.36 0.87,3.6 0.34,-2.73 1.74,-1.75 3.99,-0.7 v 0 l 1.22,1.98 2.38,0.51 0.34,1.65 2.54,0.63 -0.62,2.69 4.4,3.69 v 0 l -1.46,1.89 -4.75,-0.12 0.22,1.91 -4.21,1.98 v 0 l -2.27,0.64 -5.16,6.04 -3.48,1.35 -2.59,7.39 -2.77,-0.39 -2.77,4.19 v 0 l -3.53,0.55 v 0 l -1.37,1.16 v 0 l -3.06,0.56 -0.35,-4.39 -1.93,-3.68 -2,-0.24 0.84,-0.77 -1.06,-3.95 -4.51,-4.32 -0.27,-3.51 v 0 l 1.27,-1.48 1.62,0.61 -0.71,-2.05 2.37,-2.19 -0.71,-1.85 3.96,1.01 -1.44,-4.63 13.79,-3.48 2.01,-0.87 z" />
      <path
         id="ES-SO"
         title="Soria"
         class="land"
         d="m 467.9,73.84 3.1,-0.57 0.65,-2.97 1.63,-0.66 0.99,0.92 -1.23,3.86 5.1,0.51 2,-4.87 5.6,-1.29 1.92,2.36 4.37,-0.35 -1.06,1.25 1.59,4.48 3.93,1.59 3.85,-1.94 v 0 l 1.19,4.64 -1.08,2.62 2.03,3.7 -4.18,4.13 -2.16,-0.07 1.7,7.87 -2.8,0.94 -0.2,-1.74 -2.02,-0.77 -1.89,3.69 0.52,6.95 2.9,1.52 v 0 l -0.15,3.13 -2.31,-1.96 -1.33,1.39 -1.75,-0.53 -2.8,1.64 -0.98,-1.22 -1.95,1.17 -3.61,-4.25 -1.82,0.44 0.55,-1.12 -1.35,-0.36 1,-1.48 -1.22,0.38 -2.69,-2.46 -3.23,0.77 -2.6,-2.89 -4.76,2.21 -4.46,-1.25 v 0 l -4.4,-3.69 0.62,-2.69 -2.54,-0.63 -0.34,-1.65 -2.38,-0.51 -1.22,-1.98 v 0 l 0.38,-1.43 2.15,0.94 3.26,-6.07 2.38,-1.26 -0.26,-4.72 3.45,3.72 2.28,-3.61 2.47,-0.24 z" />
      <path
         id="ES-SS"
         title="Guipúzcoa"
         class="land"
         d="m 502.31,16.81 -0.18,1.96 1.91,0.72 0.21,1.41 v 0 l -4.03,3.52 -1.71,-0.45 0.43,3.67 -3.7,2.94 -0.48,3.52 -2.8,1.74 -2.48,-0.44 -1.24,2.27 v 0 l -3.19,-2.27 -6.94,-0.6 -0.48,-1.88 2.2,-1.47 -0.67,-1.83 v 0 l 1.4,-0.35 0.1,-5.19 1.88,-0.98 0.74,-3.26 v 0 l 8.75,1.29 z" />
      <path
         id="ES-TE"
         title="Teruel"
         class="land"
         d="m 507.68,117.88 4.43,-0.21 0.8,-1.12 -0.91,-1.56 2.19,-2.08 1.51,-0.9 0.05,1.26 2.05,0.35 1.01,-2.99 4.08,-0.5 0.52,-1.33 2.01,1.34 2.05,-0.76 -0.8,2.36 1.26,0.76 2.27,-2.93 0.72,1.65 h 2.19 l 0.83,-2.5 2.07,2.33 2.58,-3.23 -1.82,-1.83 1.35,-0.46 -0.14,-2.59 0.75,-0.47 2.94,3.46 -2.22,-3.38 0.44,-1.33 2.69,0.33 2.27,2.99 11.67,5.86 1.92,3.31 1.09,-1.33 4.54,0.32 v 0 l 2.24,4.09 -1.67,3.46 1.21,2.59 -3.3,3.56 v 0 l -3.95,1.68 -0.81,-1.51 -2.47,0.05 -3.07,-2.47 -1.82,1.39 -0.36,2.54 -4.36,0.96 0.23,2.16 2.37,0.11 0.63,5.52 -2.29,1.2 1.99,3.16 -4.47,4.86 -3.56,-0.31 -2.13,7.26 -4.3,0.94 -2.58,2.79 1.23,3.81 v 0 l -2.79,1.15 -0.98,-4.47 -6.81,-0.3 v 0 l -0.7,-1.53 v 0 l 2.86,-2.01 -2.31,-2.13 -2.99,-0.09 -1.64,-3.82 -1.81,3.31 -2.81,-0.66 v 0 l 0.3,-2.06 -3.11,0.24 -4.6,-4.76 -0.23,-0.46 -3.33,-3.09 v 0 l 3.49,-3.56 0.44,-4.19 2.44,1.17 1.63,-1.34 0.1,-8.71 -2.39,-2.75 z" />
      <path
         id="ES-TF"
         title="Santa Cruz de Tenerife"
         class="land"
         d="m 467.05,435.23 1.39,1.61 -2.94,5.67 -5.58,-2.61 0.79,-1.98 3.02,0.3 z m 20.51,-12.73 4.82,3.1 -2.94,3.62 -2.21,-0.03 -2.42,-2.53 0.84,-3.56 z m 33.79,-12.88 1.02,1.97 -7.21,5.3 -2.08,8.1 -3.63,4.2 -4.78,0.72 -6.78,-12.18 12.56,-2.21 5.64,-5.49 z m -54.06,-9.38 4.38,0.68 1.64,3.33 -1.36,2.3 0.27,3.77 -2.45,4.04 -5.22,-10.3 z" />
      <path
         id="ES-TO"
         title="Toledo"
         class="land"
         d="m 416.8,147.11 1.32,0.71 3.02,-1.52 1.73,-3.23 1.83,3.73 3.99,-2.88 1.47,2.08 2.22,-0.79 3.74,3.03 4.4,0.47 1.87,1.79 2.4,-0.44 1.85,1.39 -0.43,2.11 -4.14,4.23 -3.7,0.85 2.21,1.76 9.11,-6.53 3.47,0.51 1.83,-1.84 1.77,1.36 3.12,-1.73 0.42,1.03 v 0 l 0.58,3.2 1.41,-0.08 -0.94,4.47 6.72,9.24 -0.71,6.77 v 0 l -2.09,1.18 -4.42,-2.13 -4.63,0.98 -0.45,2.84 -3.11,-0.22 -3.75,3.97 -5.83,1.37 -2.16,-0.9 -1.98,1.33 -3.31,-1.56 -0.21,-2.14 -5.4,-0.42 0.92,-3.72 h 1.54 l 0.25,-2.57 0.91,-0.01 -0.36,-2.11 -3.59,-0.06 -1.05,3.23 -1.5,0.69 -6.19,-1.79 -0.55,1.76 -1.96,-3.28 -2.84,4.24 -2.14,0.16 v 0 0 0 l -2.07,1.37 v 0 l 0.12,-3.39 -3.43,-2.17 -2.38,6.38 v 0 h -0.36 v 0 l -7.8,-8.01 2.11,-4.67 -0.89,-3.38 -2.68,1.88 -1.68,-0.31 0.76,-4.12 -1.3,-1.12 -2.44,0.57 1.14,-8.87 1.01,-0.63 v 0 l 5.04,1.24 4.7,-2.97 0.16,1.92 1.8,-0.4 4.51,-4.57 0.11,-1.59 3.25,-0.29 1.36,3.37 z" />
      <path
         id="ES-T"
         title="Tarragona"
         class="land"
         d="m 600.05,92.2 1.89,0.24 -1.78,2.3 2.71,1.55 -0.35,3.84 1.96,-0.19 1.58,3.72 1.49,-0.08 -0.52,1.72 -1.52,-0.29 2.17,1.03 0.13,1.61 v 0 l -13.22,3.74 -1.29,1.98 -1.51,-0.82 -4.29,1.45 -8.71,9.59 5.36,2.84 -0.15,1.45 -6.11,5.46 -2.28,-0.65 3.37,-0.82 1.18,-1.58 -4.4,0.57 -2.63,3.99 v 0 l -2.37,-0.97 -1.1,-2.23 -3.78,-1.11 0.4,-2.36 -3.72,-1.79 v 0 l 3.3,-3.56 -1.2,-2.58 1.67,-3.46 -2.24,-4.09 v 0 l -0.59,-2.24 3.13,-1.53 2.53,-4.65 v 0 l 1.46,0.11 0.86,-2.4 1.29,1.84 1.57,-1.5 2.26,1.45 5.88,-1.54 0.78,-1.35 0.57,0.97 3.1,-0.71 3.4,-4.26 -1.09,-1.68 2.22,1.39 2.11,-0.86 -0.5,-1.89 1.69,-1.43 z" />
      <path
         id="ES-V"
         title="Valencia"
         class="land"
         d="m 522.25,156.92 6.81,0.3 0.98,4.47 2.79,-1.15 v 0 l 2.06,2.63 1.21,-1.49 1.07,0.66 0.77,3.57 1.31,0.19 1.77,-2.16 2.28,3.23 2.4,-3.39 1.52,-0.06 4.28,3.16 v 0 l -3.91,7.88 -0.55,3.96 3.63,9.35 -0.64,2.32 1.52,3.61 4.6,5.92 v 0 l 0.11,1.12 -1.12,-1.12 -2.38,1.07 -0.39,-1.14 -2.14,1.33 -2.46,-1.1 -5.02,3.05 -3.24,0.12 -0.12,1.27 2.37,1 -3.4,2.21 -3.59,-2.85 -3.06,1.06 -2.89,-2.01 v 0 l -0.93,-6.31 -5.75,0.6 -3.69,-4.78 3.12,-10.23 -5.26,-0.93 -2.39,-1.83 -1.26,0.76 0.07,-1.49 -1.61,-0.76 v 0 l 0.03,-5.78 4.17,-4.99 2.73,0.47 2.44,-7.22 -0.25,-3.36 z m -9.4,-6.93 2.82,0.66 1.81,-3.31 1.64,3.82 3,0.09 2.31,2.13 -2.85,2.01 v 0 l -6.5,-0.25 z" />
      <path
         id="ES-VA"
         title="Valladolid"
         class="land"
         d="m 387.9,70.78 3.05,2.74 v 0 l -0.51,2.6 -1.43,-0.71 z m 5.33,-6.69 1.35,0.3 v 0 l -1.04,0.87 z m -0.9,8.98 -0.36,-7.42 4.5,0.29 0.15,-2.43 1.65,0.38 2.17,-1.97 1.76,2.25 0.51,-1.64 1.11,0.33 v 0 l -0.76,5.58 3.05,0.15 0.72,2.96 -3.1,5.4 0.66,1.53 3.52,-0.89 2.45,4.67 3.67,-3.38 3.18,3.61 2.85,-1.25 -0.85,2.94 1.44,0.5 1.92,-1.15 2.27,0.98 2.51,-2.07 5.99,1.87 v 0 l -1.09,1.73 2.94,5.84 v 0 l -0.59,2.75 -2.01,0.87 -13.79,3.47 1.44,4.63 -3.96,-1 0.71,1.85 -2.36,2.19 0.71,2.06 -1.62,-0.61 -1.27,1.48 v 0 l -4.34,2.24 -3.87,-2.71 -4.15,1.17 v 0 l -3.61,-2.64 -1.42,0.62 v 0 l -1.58,-0.49 1.49,-3.05 -1.63,-8.56 3.56,-2.01 -1.97,-1.88 0.69,-1.09 -1.79,-0.6 0.02,-2.69 -1.94,-3.22 3.43,-2.17 -1.53,-0.73 1.1,-3.65 -1.27,-0.72 2.47,-1.82 z" />
      <path
         id="ES-VI"
         title="Alava"
         class="land"
         d="m 460.91,26.55 2.05,0.64 2.9,-2.33 1.36,2.75 -1.14,1.71 2.42,2.05 3.82,0.82 4.18,0.29 -0.86,-2.27 3.53,-0.58 v 0 l 0.67,1.83 -2.2,1.47 0.48,1.88 6.94,0.59 3.19,2.27 v 0 l -0.36,6.15 -1.88,1 1.08,2.87 -2.87,0.86 -1.04,-1.18 -2.59,1.92 1.44,2.05 1.73,-1.33 -0.73,4.56 v 0 l -2.89,-0.03 0.15,-1.24 -0.62,1.5 -2.06,0.46 -0.26,-1.27 -1.3,0.84 -0.86,-1.76 -0.91,0.37 0.77,-3.23 -2.55,-1.18 -1.88,2.82 0.16,-2.47 -1.17,-0.98 v 0 l -5.88,-5.3 -3.01,0.37 1.01,-5.52 -2.32,0.83 -0.46,1.75 -2.37,-2.01 1.78,-3.1 4.15,2.12 3.32,-1.66 -2.42,-2.7 -3.61,-0.77 1.1,-0.33 0.24,-2.82 -1.47,-0.99 z m 9.65,15.76 8.24,0.9 -1.55,2.78 0.96,1.15 1.71,-0.66 0.14,1.57 -7.69,-0.82 -3.09,-3.07 1.01,-2.35 v 0 z" />
      <path
         id="ES-Z"
         title="Zaragoza"
         class="land"
         d="m 529.66,44.04 -0.66,1.75 1.3,0.52 -1.46,1.33 0.7,2.3 -0.9,1.17 1.15,1.36 -1.13,1.41 1.25,-0.16 -0.39,3.04 2.77,1.72 -3.15,5.77 0.88,0.61 0.38,-1.69 1.96,0.71 1.08,-5.25 1.27,0.89 0.23,2.98 -1.04,9.48 -0.98,0.53 -0.31,-1.7 -2.46,3.82 3.28,1.9 h 3.69 l 4.33,4.96 -0.08,4.4 4.45,1.69 0.37,2.06 3.57,2.62 1.23,-1.17 1.52,0.5 3.28,9.37 1.27,0.51 -0.49,-2 1.04,1.49 2.56,0.42 4.66,-3.2 2.76,0.83 v 0 l 1.55,5.27 v 0 l -2.52,4.65 -3.14,1.53 0.59,2.24 v 0 l -4.54,-0.32 -1.09,1.33 -1.92,-3.31 -11.67,-5.86 -2.27,-2.99 -2.69,-0.33 -0.44,1.33 2.22,3.38 -2.94,-3.46 -0.75,0.47 0.14,2.59 -1.35,0.46 1.82,1.83 -2.58,3.23 -2.07,-2.33 -0.83,2.5 h -2.19 l -0.72,-1.65 -2.27,2.93 -1.26,-0.76 0.8,-2.36 -2.05,0.76 -2.01,-1.34 -0.52,1.33 -4.08,0.5 -1.01,2.99 -2.05,-0.35 -0.05,-1.26 -1.51,0.9 -2.19,2.08 0.91,1.56 -0.8,1.12 -4.43,0.21 v 0 l -10.49,-9.28 -2.84,1.04 v 0 l -2.9,-1.52 -0.52,-6.95 1.89,-3.69 2.02,0.77 0.2,1.74 2.8,-0.94 -1.7,-7.87 2.16,0.07 4.18,-4.13 -2.03,-3.7 1.08,-2.62 -1.19,-4.64 v 0 l 0.29,-1.71 v 0 l 8.86,3.87 4.53,-0.21 3.25,-5.1 -2.89,-3.43 -0.57,-3.53 0.57,-3.28 2.14,-2.65 -0.38,-2.84 2.11,-2.42 -0.47,-1.68 0.72,-1.41 1.9,0.3 1.54,-4.07 3.05,0.22 0.77,-2.4 z" />
      <path
         id="ES-ZA"
         title="Zamora"
         class="land"
         d="m 349.13,64.33 2.47,1.82 6.33,1.13 5.67,-1.01 3.08,2.41 5.63,-0.39 2.31,1.4 1.72,-1.34 1.62,1.87 5.44,-1.29 2.48,3.76 2.02,-1.91 v 0 l 1.1,4.64 1.43,0.7 0.51,-2.6 v 0 l 1.39,-0.45 v 0 l 3.73,2.47 -2.47,1.81 1.28,0.72 -1.1,3.65 1.53,0.72 -3.43,2.17 1.94,3.23 -0.02,2.69 1.79,0.61 -0.69,1.09 1.97,1.88 -3.56,2.01 1.63,8.55 -1.49,3.06 1.58,0.49 v 0 l -1.23,2.63 -2.19,-1.15 -0.23,-1.63 -2.12,0.3 -0.26,-0.03 -5.27,-2.71 -3.32,1.21 -4.07,-0.92 -1.7,4 -0.8,-1.4 -1.31,0.78 0.4,-1.83 -1.63,-0.84 -2.22,1.25 -5.62,-3.28 -4.98,-0.94 v 0 l 3.07,-2.53 -0.27,-1.19 2.19,-0.04 -0.5,-0.97 4.19,-7.32 -4.48,-3.43 -3.13,-0.46 -1.64,1.13 -1.53,-1.17 -0.64,-2.37 1.64,-5.25 -1.71,-0.49 0.76,-2.3 -1.17,-1.1 -3.54,1.35 -3.42,-2.43 -0.58,2.01 -3.41,-0.01 -1.29,-1.2 v 0 l 0.27,-3.38 -1.8,-0.79 4.5,-5.77 3.06,-0.06 z" />
   </g>
   <g id="stadiums" data-country="spain"></g>
</svg>