<?xml version="1.0" encoding="UTF-8" standalone="no"?>
<!-- (c) ammap.com | SVG map of Spain - Custom - Low -->

<svg version="1.1" xmlns="http://www.w3.org/2000/svg" id="map-germany" viewBox="0 0 371.44911 416.25995">
   <defs id="defs4">
      <style type="text/css" id="style2">
         .land {
            fill: #CCCCCC;
            fill-opacity: 1;
            stroke: white;
            stroke-opacity: 1;
            stroke-width: 0.5;
         }
      </style>
      <!-- <amcharts:ammap
       projection="mercator"
       leftLongitude="-9.301417"
       topLatitude="43.793549"
       rightLongitude="4.330897"
       bottomLatitude="31.700719" /> -->
      <!-- All areas are listed in the line below. You can use this list in your script. -->
      <!--{id:"divider"},{id:"ES-AN"},{id:"ES-AR"},{id:"ES-AS"},{id:"ES-CB"},{id:"ES-CE"},{id:"ES-CL"},{id:"ES-CM"},{id:"ES-CN"},{id:"ES-CT"},{id:"ES-EX"},{id:"ES-GA"},{id:"ES-IB"},{id:"ES-MC"},{id:"ES-MD"},{id:"ES-ML"},{id:"ES-NC"},{id:"ES-PV"},{id:"ES-RI"},{id:"ES-VC"}-->
   </defs>
   <g id="g26" transform="translate(-240.91781,0.33619649)">
      <path id="divider" class="land"
         d="m 575.79,317.73 h -153.5 l -58.19,98.31 h -3.56 l 58.19,-98.31 H 285.3 v -2.51 h 290.5 v 2.51 z"
         style="fill:#cccccc;fill-opacity:1;stroke:#ffffff;stroke-width:0.5;stroke-opacity:1" />
      <path id="ES-AN" title="Andalusia" class="land"
         d="m 438.16,248.99 -1.69,2.16 -1.72,0.46 -3.66,-3.86 -1.33,-0.24 -1.63,1.04 -1.35,-0.9 0.35,0.36 -2.69,0.33 -1.68,3.23 -2.13,1.31 -4.03,-0.4 -2.01,-1.94 -1.45,0.48 -7.49,-0.56 -4.52,2.03 -2.9,-1.06 -0.79,0.35 -1.26,-0.99 -3.45,0.84 -2.86,-1.18 -3.32,0.95 -3.05,-0.75 -3.1,1.14 -6.32,-0.13 -2.68,4.01 -2.52,1.3 -0.9,1.82 -2.84,0.77 -4.58,-0.71 -7.23,3 -3.77,6.21 -0.62,2.52 -2.36,-0.65 -0.6,1.17 0.46,2.38 -4.81,2.14 -2.15,-2.03 -3.03,-0.39 -3.25,-3.55 -3.24,0.08 -4.92,-7.12 -1.97,-4.35 0.25,-0.67 0.69,1.4 0.72,-2.68 -4.51,-1.79 -1.32,-3.52 2.32,-1.85 -1.11,-0.65 -1.29,-3.11 -2.24,-2.67 -11.03,-7 -3.49,-0.75 -9.32,0.98 -1.61,-10.39 -1.65,-2.32 0.52,-1.75 1.36,-1.48 0.92,-3.74 3.29,-2.81 1.24,-2.93 -0.09,-1.9 3.52,-0.71 0.79,-1.37 1.1,0.84 1.47,-0.13 1.51,-4.51 -0.36,-0.72 0.92,-1.15 v 0 l 3.7,1 -0.44,2.28 1.71,0.69 3.23,-0.23 1.24,2.58 2.93,0.55 0.64,-1.71 1.03,-0.1 1.24,0.32 1.77,2.45 3.35,1.3 1.77,-1.51 4.45,-0.37 1.2,-2.5 -0.49,-1.3 2.03,-2.28 3.38,-0.87 1.14,0.53 0.04,0.73 -0.57,-0.19 0.26,0.54 -1.24,0.79 0.19,1.39 0.77,0.23 1.94,-1.93 1.42,0.22 1.22,-1.08 0.34,-3.48 -1.6,-4.27 1.04,-2.21 1.68,-0.46 2.26,-2.9 0.47,0.26 0.4,-1.52 1.7,0.17 2.67,-3.11 0.66,0.3 0.03,-2.01 2.35,0.36 1.4,-0.77 v 0 l 1.2,1.22 3.45,0.35 0.51,2.45 4.1,1.41 3.1,3.01 1.42,0.14 2.39,2.81 4.49,2 0.61,-1.96 9.5,1.1 1.61,-0.2 0.86,-1.42 1.17,-0.36 4.53,1.09 1.28,-1.95 0.85,0.32 0.21,1.12 1.64,0.38 3.89,-2.9 5.16,1.45 1.93,-1.33 1.74,2.39 0.98,-2.11 2.3,0.58 3.04,-2.77 2.58,1.27 2.05,-0.61 0.86,0.78 -0.11,2.64 2.44,0.62 -0.06,3.28 1.35,1.26 -0.3,2.76 -2.91,3.53 3.6,1.76 2.22,0.2 v 0 l 4.55,4.72 1.31,-0.41 1.07,0.94 2.81,-0.03 -0.74,3.33 0.2,4.21 4.26,6.79 0.98,0.72 -0.04,-0.62 2.05,0.37 2.96,2.32 v 0 l -1.34,0.7 -3.37,4.35 -2.75,8.04 0.13,1.37 -2.56,1.8 -0.24,1.86 z"
         style="fill:#cccccc;fill-opacity:1;stroke:#ffffff;stroke-width:0.5;stroke-opacity:1" />
      <path id="ES-AR" title="Aragon" class="land"
         d="m 443.97,66.05 2.15,0.52 1.43,1.39 1.7,-0.31 2.62,1.83 4.01,-0.18 2.79,-4.52 -0.16,-1.1 -1.12,0.01 -1.27,-1.95 -0.48,-3.43 0.49,-2.63 1.89,-2.29 -0.8,-0.87 0.49,-1.68 1.77,-1.87 -0.34,-1.78 0.64,-1.24 1.67,0.28 0.04,-1.07 1.19,-0.79 -0.57,-0.45 0.6,0.01 0.12,-1.36 3.06,0.04 0.39,-1.97 1.54,-0.11 1.88,-2.11 0.97,-0.08 0.24,-3.1 1,-0.79 0.08,-1.26 2.51,-0.64 v 0 l -0.23,0.85 1.46,0.43 2.05,1.97 0.04,0.93 0.9,-0.01 0.03,0.91 1.75,-1.68 1.68,1.21 1.56,-0.23 1.93,-1.78 3.41,2.31 0.74,-0.41 1.48,2.86 2.46,1.31 5.22,-1.92 2.27,0.78 0.94,1.56 1.79,-1.87 1.7,1.23 4.76,-0.55 1.74,0.53 v 0 l 1.21,2.56 1.68,0.42 -0.44,2.83 -0.79,0.26 0.49,0.8 -1.32,0.72 1.48,3.7 -0.62,0.69 1.28,0.52 -0.81,0.55 0.65,0.55 -2.93,11.86 -2.5,2.23 1.21,0.66 v 1.72 l -3.37,2.59 -0.42,1.29 -1.87,0.25 -1.98,2.85 0.62,2.89 2.14,-0.09 0.52,2.14 -1.36,1.89 -1.51,0.21 0.35,1.21 -0.95,2.01 1.44,1.51 -0.7,0.89 1.05,1.89 -0.21,1.51 -1.58,0.48 -0.72,2.37 -2.53,1.11 0.48,2.95 1.63,0.78 -0.5,0.19 0.89,1.71 -1.45,3.09 1.04,2.23 -1.33,1.91 -1.87,0.61 0.25,0.57 v 0 l -3.52,1.5 -0.65,-1.23 -2.17,-0.05 -2.22,-2.06 -1.41,0.05 -1.1,3.32 -1.93,1.09 -0.61,-0.69 -1.33,0.5 0.26,1.87 2.08,0.12 -0.19,3.41 0.77,1.36 -2.03,1.22 1.78,2.74 -2.96,2.11 0.17,1.49 -1.18,0.72 -1.8,0.55 -1.39,-0.84 -0.95,4.05 -1.33,1.21 0.36,1.16 -1.81,0.93 -1.97,-0.06 -0.73,1.84 -1.46,0.59 -0.06,1.89 1.12,1.5 -2.03,1.2 -1.15,-0.87 -0.24,-3.26 -1.83,-0.57 -4.16,0.36 v 0 l -0.63,-1.45 v 0 l 2.22,-0.91 0.16,-1.16 -1.91,-1.54 -2.65,-0.13 -1.45,-3.32 -0.53,2.24 -0.94,0.63 -2.69,-0.46 v 0 l 0.29,-1.9 -2.77,0.22 -4.03,-4.27 -0.82,1.16 -0.24,-0.87 0.86,-0.62 -2.88,-2.82 2.99,-3.19 0.52,-3.68 2.04,1.05 1.42,-1.21 -0.48,-0.64 0.75,-2.58 -0.66,-1.84 0.61,-2.01 -2.23,-3.03 0.09,-2.3 -5.03,-5.25 -4.35,-2.98 -2.54,0.85 v 0 l -2.51,-1.34 -0.79,-3.78 0.38,-2.31 1.05,-0.61 0.64,-2.69 1.76,0.65 0.18,1.57 2.45,-0.83 -1.13,-2.86 0.39,-2.15 -0.71,-1.97 1.86,0.03 1.78,-2.27 1.38,-0.08 0.91,-2.23 -2.15,-2.34 0.96,-2.33 -1.01,-1.86 -0.05,-2.3 v 0 z"
         style="fill:#cccccc;fill-opacity:1;stroke:#ffffff;stroke-width:0.5;stroke-opacity:1" />
      <path id="ES-AS" title="Asturias" class="land"
         d="m 335.23,5.06 1.68,1.06 0.66,1.77 2.14,0.43 -0.64,0.13 0.15,0.88 7.85,-0.44 0.51,0.93 2.55,-0.18 2.16,2.3 2.5,-0.39 3,0.98 2.38,-0.15 6.26,2.03 4.98,0.52 v 0 l -0.72,1.38 0.45,2.9 -0.71,0.36 -1.56,-1.16 -0.71,1.2 -2.62,0.4 -0.21,2.58 -2.74,0.2 v 0 l -0.83,-1.64 -1.15,-0.39 -2.3,2.36 -2.14,-0.27 -0.72,2.92 -1.25,-0.46 -4.83,1.33 -1.2,-0.6 -0.6,1.68 -2.41,-0.2 -0.38,1.25 -5.36,-1.35 -1.02,0.57 -0.99,2.66 -1.16,0.25 -2.93,-1.07 -1.65,-2.7 -1.26,0.37 -1.64,-0.75 -0.47,1.63 -1.07,0.44 -2.11,-1 -0.35,1.37 -2.71,-0.82 -0.85,-1.03 -1.75,2.64 -1.5,-0.1 1.17,1.92 -1.51,0.75 -5.41,-0.09 -1.97,1.49 -1.71,-1.22 v 0 l -1.26,-2.75 -1.02,-0.03 -1.27,-1.72 -0.05,1.48 -1.09,-0.91 1.58,-2.44 0.67,0.45 1.17,-0.63 1.3,-1.93 -0.91,-1.06 -2.72,1.38 -0.37,-2.55 -2.49,-1.51 0.01,-2.24 -1.07,0.06 -1.01,-2.99 -1.08,0.03 0.08,-1.75 1.89,0.1 1.31,-1.7 v 0 l 0.64,-2.12 0.7,0.06 -0.61,-1.1 1.47,0.13 0.81,-0.8 3.67,0.76 1.77,-0.44 0.58,0.67 2.65,-0.87 2.51,1.01 1.65,-0.12 0.08,-0.81 3.16,0.74 3.01,-1.64 3.47,1.49 2.63,-1.24 1.69,0.33 z"
         style="fill:#cccccc;fill-opacity:1;stroke:#ffffff;stroke-width:0.5;stroke-opacity:1" />
      <path id="ES-CB" title="Cantabria" class="land"
         d="m 404.86,22.15 -0.6,-2.02 1.09,-0.51 0.47,0.26 z m -8.22,-11.71 4.2,1.81 0.19,0.78 -0.8,0.17 0.75,1.02 2.85,-0.28 -0.05,0.72 2.62,0.13 2.02,1.63 v 0 l -0.11,1.94 -1.42,0.66 -0.42,-0.93 -1.46,0.7 -1.43,-0.4 -0.2,0.84 -3,1.56 0.87,3.79 v 0 l -5.05,-0.61 -1.27,-1.12 -3.16,3.71 -2.49,-0.34 0.16,1.82 -1.15,-0.01 -1.63,1.49 -0.99,2.53 1.55,1.26 1.78,-2.06 1,0.99 -0.97,1.09 -1.21,-0.48 0.47,0.84 -0.83,-0.01 0.7,0.3 -0.45,0.76 1.1,0.33 0.23,-1.35 0.75,0.36 0.41,2.93 -1.12,0.46 -0.82,-0.66 -0.48,1.35 -1.83,0.35 -0.74,-2.69 -1.1,2.41 -0.96,0.16 -0.48,-1.09 -2.27,-0.69 1.52,-1.75 -0.61,-0.51 -1.35,0.98 -0.67,-0.45 -0.39,-3.69 -2.95,-0.65 -1.46,-2.27 -1.7,-1.01 -0.41,0.82 -1.16,-0.26 -1.03,1.01 -1.28,-0.61 -0.88,0.7 -2.66,-0.14 -0.14,-1.28 -2.94,-2.61 0.32,-2.1 v 0 l 2.74,-0.2 0.21,-2.58 2.62,-0.39 0.71,-1.2 1.56,1.16 0.71,-0.36 -0.45,-2.9 0.72,-1.38 v 0 l 9.21,-0.31 3.48,-1.65 2.19,0.25 0.59,-1.23 3.63,-0.91 1.31,1.03 -1.96,0.95 0.53,1.48 1.89,-1.8 -0.67,-0.35 z m -14.25,25.6 0.04,-0.05 v 0 h 0.02 v 0 l 0.36,0.19 v 0 l -0.23,1.02 -0.27,-0.82 v 0 z m -1.55,0.13 0.15,0.16 v 0 l -0.44,-0.2 v 0 z"
         style="fill:#cccccc;fill-opacity:1;stroke:#ffffff;stroke-width:0.5;stroke-opacity:1" />
      <path id="ES-CE" title="Ceuta" class="land"
         d="m 310.13,355.55 -1.08,0.63 -1.09,1.47 -0.15,0.68 -0.25,0.1 -0.89,-0.13 -0.36,-0.8 -0.37,-0.26 -0.93,0.8 -0.81,-0.09 -1.47,-1.91 -1.41,-0.8 -1.05,-0.09 -0.87,-0.44 -0.43,-0.71 v -0.85 l -0.94,-3.37 0.07,-3.24 -0.21,-0.76 -1.26,-1.74 0.89,-1.27 1.78,-0.59 0.72,0.14 1.55,-0.26 2.69,2.43 2.03,0.94 0.75,1.74 -0.11,0.41 0.76,0.79 0.6,0.08 1.49,1.93 0.79,0.13 v -0.63 l 2.37,-1.94 0.56,0.81 -0.4,0.75 1.71,1.55 0.44,0.49 v 0.44 l 1.23,0.35 0.17,-0.27 1.54,-0.44 -0.13,-0.45 0.65,-0.26 0.93,-0.45 0.68,-0.94 -0.16,-1.21 0.95,-1.02 1.58,-0.58 0.39,-0.99 0.27,-0.07 0.56,1.39 0.62,0.05 0.23,0.95 0.65,0.24 0.65,-0.19 0.22,1.38 -0.41,0.94 -0.25,0.27 -0.5,-0.35 -1.32,1.65 -0.97,0.44 -0.72,0.21 -0.82,-0.25 -1.33,1.17 -1.72,0.61 -0.7,-0.14 -1.57,-0.86 -1.34,-0.09 -1.07,1.07 -1.34,1.99 z"
         style="fill:#cccccc;fill-opacity:1;stroke:#ffffff;stroke-width:0.5;stroke-opacity:1" />
      <path id="ES-CL" title="Castile and Leon" class="land"
         d="m 414.24,44.04 0.34,0.41 -0.51,-0.2 v 0 z m -1.58,0.07 -0.03,0.17 v 0 z m 4.63,-6.55 0.08,-0.05 v 0 l 2.5,-0.29 3.49,0.86 0.38,0.73 0.83,-0.45 -1.36,2.44 0.87,1.04 1.48,-0.57 0.15,1.39 -3.22,-0.05 -0.63,-0.91 -2.95,0.23 -0.48,-1.18 -2.29,-1.52 0.82,-1.54 v 0 l 0.16,-0.47 v 0 l 0.1,0.17 v 0 z m -36.66,-1.41 0.36,0.18 v 0 l -0.44,-0.2 v 0 z m 2.02,-0.05 0.17,0.08 v 0 l -0.23,1.02 -0.27,-0.82 v 0 L 382.44,36 v 0 h 0.02 v 0 z m -74.12,-3.39 1.71,1.22 1.97,-1.49 5.41,0.09 1.51,-0.75 -1.17,-1.92 1.5,0.1 1.75,-2.64 0.85,1.03 2.71,0.82 0.35,-1.37 2.11,1 1.08,-0.44 0.47,-1.62 1.64,0.75 1.26,-0.37 1.65,2.7 2.93,1.07 1.16,-0.25 0.99,-2.66 1.02,-0.57 5.36,1.35 0.38,-1.25 2.41,0.2 0.6,-1.68 1.2,0.6 4.83,-1.33 1.25,0.46 0.72,-2.92 2.14,0.27 2.3,-2.35 1.15,0.4 0.83,1.64 v 0 l -0.31,2.1 2.94,2.61 0.14,1.28 2.66,0.14 0.88,-0.7 1.28,0.61 1.03,-1.01 1.16,0.26 0.41,-0.82 1.7,1.01 1.46,2.27 2.95,0.65 0.39,3.69 0.67,0.46 1.36,-0.98 0.61,0.51 -1.52,1.75 2.28,0.69 0.48,1.09 0.96,-0.16 1.1,-2.41 0.74,2.69 1.83,-0.35 0.48,-1.35 0.82,0.66 1.12,-0.46 -0.41,-2.93 -0.74,-0.36 -0.23,1.35 -1.1,-0.33 0.45,-0.76 -0.7,-0.3 0.83,0.02 -0.46,-0.84 1.21,0.48 0.97,-1.09 -1,-0.99 -1.78,2.06 -1.55,-1.26 0.99,-2.53 1.63,-1.49 1.15,0.01 -0.15,-1.82 2.5,0.34 3.16,-3.71 1.27,1.12 5.05,0.61 v 0 l 4.46,-2.39 0.85,0.98 2.13,0.2 -1.06,1.82 1.27,0.79 -0.61,0.86 0.43,1.65 -0.95,0.29 3.13,0.7 2.22,2.38 -1.07,1.11 -1.97,0.33 -3.62,-1.85 -1.65,2.51 1.92,2.05 0.66,-1.59 0.93,0.46 1.05,-1.3 0.28,0.77 -1.36,2.5 0.92,0.57 -0.63,1.18 2.67,-0.29 1.86,2.27 2.12,0.38 0.37,1.65 0.84,0.38 v 0 l -1.43,0.69 -0.93,-0.72 -3.76,-0.08 0.64,1.91 -1.99,1.72 1.65,0.49 -0.63,1.51 1.33,1.54 -0.27,2.78 -1.19,-1.68 -0.11,1.12 1.14,0.92 -1.26,0.33 0.53,3.89 -1.07,1.77 2.6,4.06 2.62,-0.08 1.45,2.91 2.03,-1.02 0.48,-2.61 1.52,-0.59 0.77,0.78 -1.35,2.6 0.31,0.85 4.46,0.49 1.79,-2.69 0.05,-1.63 5.27,-1.1 1.05,0.5 0.38,1.55 3.82,-0.35 -0.91,1.19 1.44,2.23 -0.13,1.55 3.57,1.53 3.41,-1.77 v 0 l 0.04,2.29 1.01,1.86 -0.96,2.33 2.15,2.35 -0.91,2.23 -1.37,0.08 -1.78,2.27 -1.87,-0.03 0.71,1.97 -0.38,2.15 1.13,2.87 -2.45,0.82 -0.18,-1.56 -1.77,-0.65 -0.64,2.69 -1.05,0.62 -0.38,2.3 0.79,3.79 2.51,1.34 v 0 l -0.12,2.81 -2.08,-1.8 -1.16,1.22 -1.42,-0.48 -2.47,1.4 -0.91,-1.04 -1.68,1.01 -1.38,-0.71 -1.88,-2.98 -1.02,0.81 -0.57,-0.38 0.42,-1.03 -1.15,-0.23 0.87,-1.4 -1.08,0.31 -2.39,-2.06 -2.75,0.6 -1.28,-0.61 -0.11,-1.56 -1.02,-0.38 -1.2,1.24 -3.02,0.67 -3.41,-1.07 -1.27,0.39 -0.58,1.31 -0.49,-0.63 -1.71,0.86 -2.1,-0.71 0.3,2.16 -1.09,-0.06 -0.59,1.12 -2.03,0.65 v 0 0 0 l -2.51,1 -4.04,4.82 -3.06,1.23 -1.23,1.47 -1.12,5 -2.49,-0.21 -2.47,3.73 v 0 l -3.08,0.49 v 0 0 0 l -1.24,0.97 v 0 l -0.38,0.38 1.18,0.33 v 0 l 0.03,2.25 -1.03,1.04 0.14,4.43 -2.72,0.15 -0.89,3.13 -1.28,0.15 -1.22,-0.95 0.48,1.74 -1.35,2.73 v 0 l -2.78,0.32 -0.45,-2.65 -1.67,0.7 -1.21,-0.5 -0.09,1.49 -3.15,2.31 -0.15,1.23 -1.88,0.84 -0.56,-1.66 -4.13,2.58 -4.66,-1.16 v 0 l -0.88,-1.7 0.68,-3.55 -2.31,0.36 -1.87,1.87 h -1.44 l -1.74,-0.65 -2.09,-2.63 -2.73,0.2 -0.49,-2.61 -2.29,1.41 -0.69,1.46 -1.56,-0.5 -1.08,-1.65 -2.38,-0.59 1.03,-1.38 -1.68,-0.9 0.33,-0.71 -0.78,0.21 -2.34,-1.83 -3.2,1.86 -0.56,1.1 -4.83,2.21 -1.13,2.54 -2.83,0.98 -0.7,-0.96 -1.05,1.05 -2.99,-1 v 0 l 0.11,-1.1 1.89,-1.16 0.29,-1.21 -1.8,-3.01 1.39,-2.24 -0.14,-1.37 -1.13,-0.66 1.31,-3.26 -0.96,-3.31 0.12,-3.23 0.69,-0.65 -3.55,-6.02 3.34,-0.27 1.42,-2.31 -0.36,-1.14 3.27,-4.12 1.59,-0.28 0.46,0.58 1.41,-1.32 0.79,0.26 3.14,-3.27 -0.35,-0.92 1.98,-0.08 -0.43,-0.86 3.86,-5.92 -2.86,-3.09 -4,-0.93 -1.52,0.99 -1.35,-1.06 -0.49,-2.14 1.43,-4.53 -1.5,-0.53 0.68,-1.74 -1.13,-1.24 -0.87,0.94 -2.14,0.27 -1.41,-0.33 -1.39,-1.75 -0.82,1.71 -3.1,-0.02 -1.04,-1.05 v 0 l 0.59,-1.95 -0.37,-1.01 -0.92,0.09 -0.64,-0.87 4.03,-5.14 1.14,-0.44 1.26,0.71 1.55,-3.23 0.15,-2.28 -2.94,-1.66 0.89,-2.28 -0.42,-0.96 -0.85,0.24 -2.04,-1.24 -1.23,1 -2.76,-0.54 1.12,-2.8 -0.34,-1.66 1.15,-0.56 -1.04,-1.91 4.84,-3.43 0.69,-1.33 -0.79,-1.86 1,-0.29 z"
         style="fill:#cccccc;fill-opacity:1;stroke:#ffffff;stroke-width:0.5;stroke-opacity:1" />
      <path id="ES-CM" title="Castile-La Mancha" class="land"
         d="m 377.9,114.18 3.08,-0.49 v 0 l -0.02,2.33 -2.31,0.73 -1.19,-0.9 v 0 l -1.18,-0.32 0.38,-0.37 v 0 l 1.69,-0.1 z m 20.01,-17.53 2.04,-0.65 0.59,-1.12 1.09,0.06 -0.3,-2.16 2.1,0.71 1.72,-0.86 0.49,0.64 0.58,-1.31 1.27,-0.39 3.41,1.07 3.02,-0.67 1.2,-1.24 1.02,0.38 0.11,1.56 1.28,0.61 2.75,-0.6 2.39,2.06 1.08,-0.31 -0.86,1.4 1.15,0.23 -0.42,1.03 0.57,0.38 1.02,-0.81 1.88,2.98 1.38,0.71 1.68,-1.01 0.91,1.04 2.47,-1.4 1.42,0.49 1.16,-1.22 2.08,1.8 0.12,-2.81 v 0 l 2.54,-0.84 4.35,2.97 5.03,5.25 -0.09,2.3 2.23,3.04 -0.61,2 0.66,1.85 -0.75,2.57 0.48,0.64 -1.42,1.21 -2.04,-1.05 -0.52,3.68 -3,3.19 2.88,2.82 -0.86,0.62 0.24,0.86 0.82,-1.16 4.03,4.27 2.78,-0.22 -0.3,1.9 v 0 l 2.11,4.55 3.43,0.67 2.25,-0.57 v 0 l 0.63,1.45 v 0 l -1.72,0.75 -0.35,5.07 -1.6,2.42 0.35,1.4 -1.4,0.97 -1.51,-0.64 -0.93,0.79 -1.59,3.14 -1.56,0.95 0.58,1.74 -0.79,1.63 1.08,1.79 0.8,0.05 0.13,1.34 1.54,-0.48 1.7,1.53 4.69,0.95 -2.73,9.09 3.25,4.09 5.01,-0.54 0.97,1.78 -0.11,3.77 -0.9,0.42 1.25,2.65 -1.29,1.37 -1.74,0.03 v 0 l -2.44,-1.91 -0.1,-0.95 -1.82,-0.56 -4.24,2.68 -1.16,-0.74 -1.71,1.69 -0.1,2.33 -1.23,1.6 0.52,5.53 -3.02,2.26 -2.16,-0.02 -0.37,-1.66 -1.68,-0.72 -4.48,2.88 -1.99,0.56 -1.77,-0.85 -1.81,2.36 -2.68,1.17 -3.46,6.12 v 0 l -2.22,-0.2 -3.59,-1.76 2.91,-3.53 0.3,-2.76 -1.35,-1.26 0.06,-3.28 -2.44,-0.62 0.11,-2.64 -0.86,-0.78 -2.05,0.61 -2.58,-1.27 -3.04,2.77 -2.3,-0.58 -0.98,2.11 -1.74,-2.39 -1.93,1.33 -5.16,-1.45 -3.89,2.9 -1.64,-0.38 -0.21,-1.12 -0.85,-0.31 -1.28,1.96 -4.53,-1.09 -1.17,0.36 -0.86,1.42 -1.61,0.2 -9.5,-1.1 -0.61,1.96 -4.49,-2 -2.39,-2.81 -1.42,-0.14 -3.1,-3.01 -4.1,-1.41 -0.51,-2.45 -3.45,-0.35 -1.2,-1.22 v 0 l 1.57,-0.43 1.49,-4.27 0.53,-0.78 1.8,0.14 0.44,-1.87 -2.44,-0.78 -1.1,-3.42 2.3,0.89 1.22,-0.48 -1.1,-1.98 1.79,-3.33 4.35,1.17 -1.6,-1.56 -1.43,-3.89 1.45,-0.29 1.02,-3.35 -0.55,-0.92 -4.94,2.88 -2.19,-0.84 -6.95,-7.25 1.25,-1.56 0.57,-2.55 -0.94,-1.39 0.19,-1.66 -1.07,0.12 -1.27,1.59 -1.47,-0.25 -0.11,-2.41 0.73,-1.23 -1.12,-1.04 -2.21,0.51 1.13,-3.73 -0.1,-4.09 0.82,-0.59 v 0 l 4.51,1.03 4.13,-2.58 0.56,1.66 1.88,-0.84 0.15,-1.23 3.15,-2.31 0.1,-1.49 1.21,0.5 1.67,-0.7 0.45,2.65 2.78,-0.32 v 0 l 1.33,0.6 2.54,-1.34 1.61,-2.86 0.78,2.87 1.4,0.64 1.3,-1.9 1.57,-0.8 1.27,1.75 1.16,0.13 0.82,-0.83 2.2,2 1.04,-0.13 0.11,0.84 0.51,-0.51 1.5,0.45 1.09,1.05 0.77,-0.57 1.74,1.58 2.07,-0.35 1.62,1.23 -0.39,1.9 -2.19,1.29 -0.72,2.02 -4,1.2 0.38,0.9 1.66,0.63 1.68,-1.95 3.22,-0.98 -0.31,-0.74 3.04,-1.16 0.39,-0.98 3.01,0.47 0.54,-1.42 1.2,-0.22 1.57,1.19 1.95,-0.43 0.97,-1.11 0.17,0.93 2.04,-0.25 0.88,-1.2 -1.15,-1.26 0.18,-0.76 0.55,0.21 -0.82,-4.21 -0.36,-0.39 -1.65,1.83 -0.61,-0.47 1.76,-5.58 -0.67,-1.23 -1.17,-0.1 -0.07,-2.57 -0.86,-0.9 -1.74,0.13 0.34,-1.22 -1.47,-1.96 0.57,-0.95 -0.64,0.55 -1.42,-1.96 -0.32,0.78 -1.65,-0.7 0.88,-1.42 -0.33,-1.32 -1.75,-0.81 3.1,-7.62 -1.18,-1.47 0.36,-1.41 -1.73,-0.42 z"
         style="fill:#cccccc;fill-opacity:1;stroke:#ffffff;stroke-width:0.5;stroke-opacity:1" />
      <path id="ES-CN" title="Canarias" class="land"
         d="m 431.5,380.94 1.15,1.37 -2.01,2.63 -0.57,2.44 -1.97,-1.62 -2.99,-0.68 0.71,-1.7 2.66,0.24 1.18,-1.84 z m 68.19,-10.15 0.5,0.46 -0.17,0.18 -0.6,0.64 0.27,2.45 1.26,1.53 -0.3,1.29 0.69,1 -0.7,0.26 -0.02,2.07 -1.16,1.61 -3.34,1.19 -0.56,0.92 -2.79,-0.38 -3.06,-2.6 -1.26,-2.31 0.28,-3.19 2.78,-1.73 0.31,-2.95 4.96,0.34 1.64,0.88 z m -50.46,-1.07 2.14,0.47 2.5,2.19 0.06,1.11 -1.86,1.76 -2.76,0.28 -2.13,-2.25 0.74,-3.05 z m 13.9,-4.94 6.85,-1.37 2.72,-3.28 2.39,-1.59 2.73,0.4 1.77,-0.7 1.04,0.9 -0.15,0.85 -2.99,1.39 -3.41,3.3 v 2.24 l -1.75,3.15 -0.04,1.71 -3.29,3.77 -4.21,0.64 -3.69,-6.21 -0.11,-1.77 -2.27,-2.38 2.5,-1.58 z m 78.07,-11.75 1.55,1.36 0.38,3.71 -1.23,3.46 0.41,2.69 -1.75,4.34 -2.58,1.36 -5.63,1.31 -3.08,3.71 -4.81,-0.65 0.46,-1.38 3.36,-0.24 3.93,-2.88 0.57,-3.52 4.58,-8.15 0.49,-3.82 z m -109.31,-3.08 1.43,0.75 2.19,-0.23 1.46,3.02 -1.26,2.04 0.3,3.26 -2.22,3.63 -4.53,-9.4 1.09,-2.16 z m 120.94,-11.45 1.25,1.32 -1.21,1.75 0.45,1.25 -1.04,2.94 -4.26,2.28 -2.52,0.38 -1.4,2.11 -0.38,-0.62 -1.95,0.11 -0.24,-0.97 1.41,-1.31 0.39,-3.25 4.46,-2.77 2.82,0.14 1.39,-3.11 z"
         style="fill:#cccccc;fill-opacity:1;stroke:#ffffff;stroke-width:0.5;stroke-opacity:1" />
      <path id="ES-CT" title="Catalonia" class="land"
         d="m 579.22,61.36 2.38,2.46 -0.66,2.23 1.27,2.1 -1.5,2.99 -2.04,0.83 -1.58,2.42 -1.84,0.79 -1.14,1.52 -3.22,1 -1.1,1.47 -13.64,6.76 -4.54,6.27 -16.32,3.91 -3.11,1.69 -2.64,0.18 -2.44,0.99 -1,1.61 -1.22,-0.71 -3.83,1.22 -7.78,8.5 0.83,1.27 1.4,0.05 -1.08,-0.81 0.76,-0.04 1.7,2.1 1.79,0.45 -3.79,2.74 -2.24,2.87 -1.35,0.21 -0.71,-0.85 1.49,0.4 -0.18,-0.57 1.76,-0.28 0.86,-1.55 -3.93,0.5 -2.38,3.54 v 0 l -2.06,-0.88 0.13,-1.09 -1.12,-0.87 -3.29,-0.95 0.14,-2.19 -1.33,-0.36 -0.31,-1.13 -1.53,-0.06 v 0 l -0.25,-0.58 1.87,-0.6 1.34,-1.92 -1.04,-2.22 1.45,-3.1 -0.89,-1.71 0.5,-0.19 -1.62,-0.78 -0.48,-2.96 2.53,-1.11 0.72,-2.37 1.59,-0.48 0.21,-1.51 -1.05,-1.88 0.7,-0.9 -1.44,-1.5 0.95,-2.01 -0.34,-1.2 1.51,-0.22 1.36,-1.88 -0.52,-2.15 -2.13,0.09 -0.62,-2.89 1.98,-2.85 1.87,-0.25 0.42,-1.28 3.37,-2.59 v -1.72 l -1.21,-0.66 2.5,-2.24 2.93,-11.86 -0.64,-0.55 0.81,-0.55 -1.28,-0.52 0.62,-0.69 -1.48,-3.7 1.32,-0.71 -0.5,-0.81 0.79,-0.26 0.44,-2.83 -1.68,-0.42 -1.21,-2.56 v 0 l 0.56,-0.64 -1.08,-1.71 0.67,-0.75 -0.59,-0.28 0.69,-0.81 -0.31,-1.23 1.36,-0.86 5.94,2.68 0.93,-0.61 0.65,0.71 2.59,-0.07 2.45,2.94 1.67,-0.71 3.42,0.32 2.37,4.27 -0.79,2.44 0.98,-0.13 0.49,1.08 -1.32,1 0.79,1.7 2.78,0.19 0.32,-0.9 2.6,-0.36 0.38,-1.36 3.59,0.47 2.1,1.54 1.46,-0.14 0.8,2.6 1.44,1.25 1.88,-0.52 1.91,-2.25 1.25,0.29 1.51,-0.82 4.8,1.64 1.34,1.95 1.61,0.25 0.96,-0.91 2.59,0.65 -0.53,-1.73 1.74,-1.2 1.68,0.31 1.67,-1.72 2.13,0.09 0.8,-0.95 0.54,0.61 1.98,-0.29 1.26,1.76 2.41,-0.34 -0.64,1.54 1.13,2.09 0.92,-0.57 2.59,1.15 -0.96,0.58 0.34,0.69 -0.61,-0.07 -0.38,1.78 -0.96,-0.49 -0.26,0.71 -1.33,-1.2 -0.89,0.61 -0.62,1.56 z"
         style="fill:#cccccc;fill-opacity:1;stroke:#ffffff;stroke-width:0.5;stroke-opacity:1" />
      <path id="ES-EX" title="Extremadura" class="land"
         d="m 307.38,128.71 2.99,1 1.05,-1.05 0.71,0.96 2.83,-0.98 1.13,-2.54 4.83,-2.2 0.56,-1.1 3.2,-1.87 2.33,1.84 0.78,-0.21 -0.33,0.71 1.68,0.9 -1.03,1.38 2.38,0.6 1.08,1.64 1.57,0.5 0.68,-1.45 2.3,-1.41 0.49,2.61 2.73,-0.2 2.09,2.63 1.74,0.66 1.45,-0.01 1.87,-1.87 2.31,-0.36 -0.68,3.55 0.88,1.7 v 0 l -0.91,0.56 0.11,4.09 -1.13,3.72 2.21,-0.5 1.13,1.05 -0.73,1.22 0.11,2.41 1.47,0.25 1.27,-1.59 1.07,-0.12 -0.18,1.66 0.94,1.39 -0.57,2.55 -1.25,1.56 6.94,7.24 2.2,0.85 4.93,-2.89 0.56,0.92 -1.02,3.35 -1.45,0.3 1.43,3.89 1.6,1.56 -4.35,-1.17 -1.79,3.33 1.1,1.97 -1.22,0.48 -2.29,-0.89 1.1,3.42 2.44,0.78 -0.44,1.87 -1.8,-0.13 -0.52,0.77 -1.49,4.27 -1.57,0.43 v 0 l -1.4,0.77 -2.35,-0.36 -0.03,2.01 -0.66,-0.3 -2.67,3.12 -1.7,-0.18 -0.39,1.53 -0.47,-0.26 -2.26,2.9 -1.68,0.46 -1.04,2.21 1.6,4.26 -0.34,3.48 -1.21,1.08 -1.42,-0.23 -1.94,1.94 -0.77,-0.23 -0.19,-1.39 1.24,-0.79 -0.27,-0.53 0.57,0.19 -0.04,-0.73 -1.13,-0.53 -3.38,0.87 -2.03,2.28 0.49,1.3 -1.2,2.51 -4.44,0.37 -1.78,1.51 -3.35,-1.3 -1.77,-2.46 -1.24,-0.32 -1.02,0.1 -0.65,1.71 -2.92,-0.55 -1.24,-2.59 -3.22,0.23 -1.71,-0.69 0.43,-2.28 -3.69,-1 v 0 l -0.71,-0.42 -3.48,1.57 -5.3,-8.6 -1.49,-0.55 1.02,-1.31 -0.71,-0.11 0.52,-2.23 1.62,-2.78 -0.77,-0.51 0.34,-2.96 6.09,-4.87 -0.32,-1.52 2.61,-4.09 -0.25,-1.02 -1.94,-2.18 -2.86,0.3 0.1,-2.17 -2.92,-1.49 0.22,-2.31 -2.03,-1.99 -0.44,-1.58 0.77,-2.83 -2.32,-1.07 -0.25,-1.39 -2.94,-2.07 -1.15,-2.63 5.58,0.83 2.29,-0.92 2.81,0.48 3.61,-0.63 0.84,-4.98 2.07,-1.8 1.23,-5.24 -2.07,-3.43 -1.64,-0.33 -0.83,-2.42 0.51,-1.42 1.59,-1.1 z"
         style="fill:#cccccc;fill-opacity:1;stroke:#ffffff;stroke-width:0.5;stroke-opacity:1" />
      <path id="ES-GA" title="Galicia" class="land"
         d="m 278.53,1.91 0.63,-1.08 1.22,0.2 0.24,2.02 -0.67,-0.44 0.11,1.83 -0.91,0.04 0.68,0.39 0.8,-0.52 -0.44,-0.91 1.62,0.18 -0.62,-0.56 0.45,-0.59 2.42,-0.92 L 285,0 l 0.72,0.64 -1.04,1.44 1.75,-0.64 0.95,3.59 1.22,-2.74 2.41,0.23 -0.24,0.6 3.29,1.38 1.31,3.04 1.66,0.55 0.28,0.24 5.26,0.51 -0.36,3.14 v 0 l -1.31,1.7 -1.89,-0.1 -0.08,1.75 1.08,-0.03 1.01,2.99 1.08,-0.06 -0.01,2.24 2.49,1.51 0.37,2.55 2.72,-1.38 0.91,1.06 -1.3,1.93 -1.16,0.63 -0.67,-0.45 -1.58,2.44 1.09,0.91 0.05,-1.48 1.27,1.72 1.02,0.03 1.26,2.75 v 0 l -0.28,1.23 -1,0.29 0.8,1.86 -0.69,1.33 -4.83,3.43 1.05,1.91 -1.15,0.56 0.35,1.67 -1.12,2.8 2.76,0.54 1.23,-1 2.04,1.24 0.85,-0.24 0.42,0.96 -0.89,2.28 2.94,1.66 -0.15,2.28 -1.54,3.23 -1.26,-0.71 -1.14,0.44 -4.03,5.14 0.65,0.87 0.92,-0.09 0.37,1.01 -0.58,1.95 v 0 l -0.7,0.84 -1.67,0.05 -1.37,-1.37 -1.62,0.22 -0.51,3.64 -3.17,1.33 -1.41,-0.3 -1.57,1.56 -0.7,-1.91 -1.18,-0.34 -0.94,1.11 -2.31,0.39 0.77,-1.79 -2.03,-0.14 -1.15,-0.88 -3.64,1.02 -1.18,1.05 -0.66,-2.77 -0.51,1.77 -1.54,0.19 -2.11,2.04 -1.96,0.28 -1.01,-0.35 -0.16,-2.05 -0.85,0.11 -0.41,-1.37 1.47,-2.58 2.01,-1.24 0.11,-1.18 -0.8,-1.17 -1.89,0.42 -0.41,-3.15 -3.66,2.56 -5.13,0.17 -0.67,0.91 -2.35,0.2 -3.37,4.17 -3.11,2.55 -0.28,-0.49 -0.54,-8.56 1.36,-0.62 0.73,0.44 0.14,-0.87 -0.83,-0.6 0.75,-0.01 1.64,-2.76 0.57,0.24 2.19,-2.14 1.34,-0.09 0.02,-2.05 -0.58,-0.36 -0.72,2.27 -1.96,0.15 -1.67,1.47 -2.19,-0.11 0.47,-2.16 1.07,1.12 -0.58,-2.17 2.26,-0.04 2.79,-3.19 -0.82,0.25 -0.24,-0.69 -2.26,1.91 -1.09,-0.48 -0.66,0.61 -1.15,-1.13 -0.12,-1.55 -1.59,-0.23 1.97,-1.39 0.07,1.96 0.75,-0.54 0.66,0.49 0.13,-2.95 -0.44,0.36 -0.28,-1.15 0.24,-0.91 1.74,-0.95 0.29,-1.7 -1.32,0.4 -0.98,-1.86 -0.48,2.98 -1.17,-1.2 -1.01,1.15 0.48,0.78 -1.85,0.77 -0.03,1.12 -1.47,0.66 0.26,-1.49 -1.56,-0.7 1.35,-2.16 0.5,-2.78 2.77,-2.8 1.07,0.55 -0.02,-1.64 -0.48,-0.68 -0.1,1.2 -1.43,0.85 -0.51,-0.53 -0.95,0.44 -0.1,-0.78 -1.23,0.52 0.41,0.71 -1.12,1.13 -1.69,-2.19 1.17,-0.92 -1.21,-1.88 0.59,-1.29 -0.9,-0.15 -0.62,-0.16 -1.42,-0.93 -1.3,1.89 -0.39,-1.82 1.34,-2.46 -0.79,-0.22 -0.59,-1.7 1.11,0.17 0.03,-1.51 0.97,0.16 0.05,-1.01 0.98,0.93 1.64,-1.6 -1.1,0.23 -0.02,-0.92 -0.5,1.06 -0.56,-0.19 -0.28,-1.22 0.92,-0.16 0.16,-0.97 2.57,0.39 1.86,-1.92 0.42,0.61 1.44,-0.14 -0.22,-1.57 -1.06,-0.46 2.27,-0.67 -0.08,-1.07 1.76,0.09 0.16,-0.96 1.48,1.53 2.14,0.49 2.7,-1.18 2,0.25 1.05,-1.62 1.62,-0.91 0.76,0.5 0.74,1.45 0.87,-0.58 -0.01,-1.84 1.17,-0.35 2.66,2.95 -0.32,-2.48 1.33,-1 -2.35,0.09 -1.58,-0.99 1.69,-0.83 1.45,0.25 1.05,-1.36 -1.9,0.94 -0.39,-0.83 -0.57,0.98 -1.94,0.31 0.31,-2.29 0.87,-0.59 -0.79,-0.98 1.76,0.15 1.99,-2.39 0.93,0.14 -0.03,0.73 1.7,-2.58 0.18,1.09 0.93,0.17 -0.65,-1 0.37,-1.68 1.69,-0.01 z"
         style="fill:#cccccc;fill-opacity:1;stroke:#ffffff;stroke-width:0.5;stroke-opacity:1" />
      <path id="ES-IB" title="Balearic Islands" class="land"
         d="m 533.41,182.06 2.11,2.42 1.42,-0.49 0.12,1.4 -3.4,-1.17 -1.72,1.53 -0.13,-2.72 1.28,-0.61 z m 2.62,-12.88 1.87,0.93 -0.43,0.97 0.9,1.23 -1.1,1.33 -1.27,0.21 -0.15,1.33 -1.41,1.12 -1.54,0.32 -0.38,2.5 -0.96,0.04 -0.73,-1.38 -0.66,0.5 -1.31,-0.8 -0.65,0.81 -0.65,-0.54 0.32,-2.37 -0.57,-0.67 2.48,-0.48 -0.35,-2.06 1.78,-1.48 0.46,0.41 z m 38.59,-1.63 0.61,0.21 -0.5,1.1 -1,-0.02 0.28,-0.56 z m 7.03,-27.94 -3.6,2.08 0.68,1.49 2.68,-1.1 -0.69,1.74 -1.5,0.21 0.5,2.01 3.06,1.69 2.57,-2.12 3.05,1.51 -0.17,0.87 0.71,0.26 -1.17,2.81 -1.16,0.45 0.27,1.49 -3.17,3.28 -1.46,4.32 -2.36,1.16 -2.03,2.14 -2.35,-1.63 -0.74,-1.63 -4.66,-0.01 -1.26,-1.55 -0.54,-2.44 0.72,-1.22 -2.14,-1.79 -1.01,-0.22 v 0.8 l -2.53,0.75 -0.45,2.33 -1.27,-0.29 -0.54,-1.38 0.65,-0.42 -0.75,-0.67 -2.43,0.16 0.73,-0.51 -1.18,-0.64 0.27,-1.42 6.28,-3.97 5.21,-4.87 1.83,-0.19 2.86,-2.09 0.89,0.41 1.63,-1.02 0.48,0.62 z m 26.01,3.89 -5.65,-3.15 -3.68,0.57 0.27,-2.8 -0.96,0.11 -0.19,-0.77 2.06,-1.33 5.06,0.22 0.96,-0.59 0.41,0.85 0.91,-0.79 0.97,0.22 -0.32,0.92 0.93,0.08 0.33,0.68 1.7,0.57 -0.4,1.15 1.97,3.1 -0.55,0.4 -0.95,1.98 z"
         style="fill:#cccccc;fill-opacity:1;stroke:#ffffff;stroke-width:0.5;stroke-opacity:1" />
      <path id="ES-MC" title="Murcia" class="land"
         d="m 430.55,207.06 3.46,-6.12 2.68,-1.17 1.81,-2.36 1.77,0.85 1.99,-0.56 4.48,-2.87 1.68,0.72 0.37,1.67 2.16,0.02 3.02,-2.26 -0.52,-5.53 1.23,-1.6 0.11,-2.33 1.72,-1.69 1.16,0.74 4.24,-2.68 1.82,0.56 0.1,0.95 2.44,1.91 v 0 l 0.69,2.86 -0.33,2.67 -2.15,2.03 0.22,3.14 2.9,0.33 0.6,1.52 -1.94,5.05 0.17,1.55 3.19,6.07 1.97,2.1 1.86,0.58 v 0 l 0.38,1.95 -0.98,-0.97 -2.09,3.34 1.66,2.2 3.11,0.77 -0.9,1.09 -5.36,1.81 -1.17,-0.23 0.45,-0.35 -1.32,-1.04 0.14,0.68 -3.32,0.47 -0.02,1.18 -1.51,-0.24 -1.03,-1.28 -3.35,0.39 -3.61,2.6 -0.74,2.19 -0.89,-0.29 -2.95,1.95 v 0 l -2.95,-2.32 -2.05,-0.37 0.04,0.63 -0.98,-0.72 -4.26,-6.79 -0.2,-4.21 0.74,-3.33 -2.81,0.03 -1.07,-0.94 -1.31,0.41 z"
         style="fill:#cccccc;fill-opacity:1;stroke:#ffffff;stroke-width:0.5;stroke-opacity:1" />
      <path id="ES-MD" title="Madrid" class="land"
         d="m 377.9,114.18 0.45,0.87 -1.69,0.1 v 0 z m 20.01,-17.53 1.34,2.55 1.73,0.42 -0.36,1.41 1.18,1.47 -3.1,7.63 1.75,0.81 0.34,1.32 -0.88,1.42 1.65,0.7 0.32,-0.78 1.42,1.96 0.64,-0.55 -0.57,0.95 1.47,1.96 -0.34,1.22 1.74,-0.13 0.86,0.9 0.07,2.57 1.17,0.1 0.68,1.23 -1.76,5.58 0.62,0.47 1.65,-1.83 0.36,0.39 0.83,4.21 -0.55,-0.21 -0.18,0.76 1.15,1.26 -0.88,1.2 -2.04,0.25 -0.17,-0.93 -0.97,1.11 -1.95,0.43 -1.57,-1.19 -1.2,0.22 -0.54,1.42 -3.01,-0.47 -0.39,0.98 -3.04,1.16 0.31,0.74 -3.22,0.98 -1.68,1.95 -1.65,-0.63 -0.38,-0.9 4,-1.2 0.72,-2.02 2.19,-1.29 0.39,-1.9 -1.62,-1.23 -2.07,0.35 -1.74,-1.58 -0.77,0.57 -1.08,-1.05 -1.5,-0.45 -0.51,0.51 -0.11,-0.84 -1.04,0.13 -2.2,-2 -0.82,0.83 -1.16,-0.13 -1.27,-1.74 -1.57,0.8 -1.3,1.9 -1.4,-0.64 -0.78,-2.87 -1.61,2.86 -2.54,1.34 -1.33,-0.6 v 0 l 1.36,-2.73 -0.48,-1.74 1.22,0.95 1.29,-0.15 0.89,-3.13 2.72,-0.15 -0.14,-4.43 1.03,-1.04 -0.03,-2.25 v 0 l 1.19,0.9 2.31,-0.73 0.02,-2.33 v 0 l 2.47,-3.73 2.49,0.22 1.12,-5 1.23,-1.47 3.06,-1.23 4.04,-4.82 z"
         style="fill:#cccccc;fill-opacity:1;stroke:#ffffff;stroke-width:0.5;stroke-opacity:1" />
      <path id="ES-ML" title="Melilla" class="land"
         d="m 348.35,363.86 0.21,0.31 0.97,0.05 0.18,0.3 -0.56,1.46 0.12,0.85 1.31,1.53 h 0.51 l 1.05,2.05 1,0.79 1.64,0.18 0.3,0.82 -0.08,0.56 -0.3,-0.86 -0.77,0.25 -0.21,-0.57 -0.41,-0.17 -1.4,0.71 0.17,0.95 -0.46,0.41 0.06,1.66 1.2,1.81 1.15,0.37 -0.51,1.02 -2.13,1.18 -2.48,0.46 -0.76,-0.57 -1.16,-1.89 -3.01,-2.33 -0.08,-0.64 0.25,-0.97 -0.61,-0.92 -0.33,-1.49 0.31,-1.63 1.58,-3.38 0.49,-1.74 2.2,-1.48 z"
         style="fill:#cccccc;fill-opacity:1;stroke:#ffffff;stroke-width:0.5;stroke-opacity:1" />
      <path id="ES-NC" title="Navarra" class="land"
         d="m 449.2,17.98 0.81,0.18 0.43,2.05 0.87,0.09 0.37,-1.44 1.33,-0.21 3.58,1.56 -0.88,4.62 -1.6,1.46 0.9,1.56 2.35,0.66 0.26,-2.46 2,-0.88 -1.06,1.82 1.26,0.95 1.33,-0.32 1.96,1.64 0.76,-0.59 4.65,2.62 5.15,-0.54 0.83,1.8 v 0 l -2.51,0.64 -0.08,1.26 -1,0.79 -0.24,3.1 -0.97,0.08 -1.88,2.11 -1.54,0.11 -0.39,1.97 -3.06,-0.04 -0.12,1.36 -0.6,-0.01 0.57,0.45 -1.19,0.79 -0.04,1.07 -1.67,-0.28 -0.64,1.24 0.34,1.78 -1.77,1.87 -0.49,1.68 0.8,0.87 -1.89,2.29 -0.49,2.63 0.48,3.43 1.27,1.95 1.12,-0.01 0.16,1.1 -2.79,4.52 -4.01,0.18 -2.62,-1.83 -1.7,0.31 -1.43,-1.39 -2.15,-0.52 v 0 l -1.47,-0.81 0.17,-2 1.86,-2.47 3.35,0.46 0.59,-1.89 -5.21,-2.21 0.06,-1.32 -3.43,-2.73 -2.51,0.6 -0.6,-2.68 -2.85,0.15 -1.95,-1.83 -1.61,0.51 -2.06,-1.4 v 0 l -0.03,-0.77 0.83,-0.26 -0.11,-2.97 -0.71,-0.29 -0.8,1.4 -1.28,-1.77 2.28,-1.7 0.87,0.22 0.05,0.82 2.42,-0.65 -0.85,-2.64 1.68,-0.93 -0.49,-1.42 1.29,-2 -0.12,-3.06 0.75,-0.95 2.24,0.35 0.98,-1.25 1.42,-0.25 0.69,-3.44 2.99,-2.32 -0.31,-3.31 0.87,0.62 0.16,-0.86 0.4,0.72 1.83,-1.26 0.41,-1.55 1.31,-0.46 v 0 z"
         style="fill:#cccccc;fill-opacity:1;stroke:#ffffff;stroke-width:0.5;stroke-opacity:1" />
      <path id="ES-PV" title="Basque Country" class="land"
         d="m 418.47,12.92 0.9,-0.37 1.61,1.88 1.23,-0.37 0.78,0.91 2.93,0.55 1.31,1.52 2.88,1.38 4.13,-0.5 1.25,1 6.56,-1.86 3.42,-2.2 0.23,1.23 -0.69,0.42 1.91,0.78 0.16,1.16 v 0 l -1.31,0.47 -0.41,1.55 -1.83,1.25 -0.4,-0.72 -0.16,0.86 -0.86,-0.61 0.31,3.31 -3,2.32 -0.69,3.44 -1.41,0.25 -0.98,1.25 -2.24,-0.35 -0.75,0.95 0.12,3.06 -1.29,2 0.49,1.42 -1.68,0.93 0.85,2.65 -2.42,0.65 -0.05,-0.82 -0.86,-0.22 -2.29,1.7 1.28,1.78 0.8,-1.4 0.71,0.28 0.11,2.98 -0.83,0.26 0.02,0.77 v 0 l -2.53,-0.03 0.13,-1.08 -0.58,1.32 -1.05,-0.38 -0.68,0.79 -0.28,-1.12 -1.13,0.73 -0.83,-1.58 -0.77,0.34 0.63,-2.88 -2.23,-0.99 -1.48,2.45 -0.6,-0.94 0.6,-1.12 -0.63,0.12 -0.43,-1.09 v 0 l -0.84,-0.38 -0.37,-1.64 -2.12,-0.38 -1.85,-2.27 -2.67,0.29 0.63,-1.17 -0.92,-0.57 1.36,-2.5 -0.28,-0.77 -1.05,1.3 -0.93,-0.45 -0.66,1.59 -1.92,-2.05 1.65,-2.51 3.62,1.86 1.97,-0.33 1.07,-1.11 -2.22,-2.38 -3.13,-0.7 0.95,-0.29 -0.42,-1.65 0.62,-0.86 -1.27,-0.79 1.06,-1.82 -2.12,-0.2 -0.85,-0.98 -4.46,2.39 v 0 l -0.86,-3.79 3,-1.56 0.2,-0.84 1.43,0.4 1.46,-0.7 0.43,0.93 1.42,-0.66 0.11,-1.94 v 0 l 1.02,0.37 0.51,-0.73 2.12,1.4 -0.45,-1.8 2.45,-1.44 -0.01,-0.87 3.74,0.21 z m -13.61,9.23 -0.6,-2.02 1.09,-0.51 0.47,0.26 z m 12.18,15.03 0.07,0.02 v 0 l 0.1,0.17 v 0 l 0.16,0.14 v 0 l 2.5,-0.29 3.49,0.86 0.38,0.73 0.83,-0.45 -1.36,2.44 0.87,1.04 1.48,-0.57 0.15,1.39 -3.22,-0.05 -0.63,-0.91 -2.95,0.23 -0.48,-1.18 -2.29,-1.52 0.82,-1.54 v 0 z"
         style="fill:#cccccc;fill-opacity:1;stroke:#ffffff;stroke-width:0.5;stroke-opacity:1" />
      <path id="ES-RI" title="La Rioja" class="land"
         d="m 443.67,67.53 -3.41,1.77 -3.57,-1.53 0.13,-1.55 -1.44,-2.23 0.91,-1.19 -3.81,0.35 -0.37,-1.55 -1.05,-0.5 -5.27,1.1 -0.05,1.63 -1.79,2.69 -4.46,-0.49 -0.3,-0.85 1.35,-2.6 -0.77,-0.78 -1.52,0.59 -0.48,2.62 -2.03,1.02 -1.45,-2.91 -2.61,0.08 -2.6,-4.05 1.07,-1.76 -0.53,-3.89 1.26,-0.33 -1.14,-0.92 0.11,-1.12 1.19,1.69 0.27,-2.78 -1.32,-1.54 0.63,-1.51 -1.65,-0.49 1.99,-1.72 -0.63,-1.91 3.76,0.08 0.93,0.72 1.43,-0.69 v 0 l 0.43,1.09 0.63,-0.12 -0.6,1.12 0.6,0.94 1.48,-2.45 2.23,1 -0.63,2.88 0.77,-0.33 0.83,1.58 1.14,-0.73 0.28,1.13 0.68,-0.79 1.05,0.38 0.58,-1.32 -0.12,1.08 2.53,0.03 v 0 l 2.06,1.4 1.61,-0.51 1.95,1.83 2.85,-0.15 0.6,2.68 2.51,-0.6 3.43,2.72 -0.06,1.33 5.21,2.2 -0.59,1.9 -3.35,-0.46 -1.85,2.48 -0.18,2 1.47,0.81 v 0 z m -31.06,-23.28 0.05,-0.14 v 0 l 0.17,0.06 v 0 0 0 l -0.19,0.1 v 0 z m 1.46,-0.04 0.17,-0.16 v 0 l 0.34,0.41 -0.51,-0.2 v 0 z"
         style="fill:#cccccc;fill-opacity:1;stroke:#ffffff;stroke-width:0.5;stroke-opacity:1" />
      <path id="ES-VC" title="Valencia" class="land"
         d="m 454.74,133.14 2.69,0.46 0.94,-0.63 0.53,-2.24 1.45,3.32 2.64,0.13 1.92,1.54 -0.16,1.16 -2.22,0.91 v 0 l -2.25,0.57 -3.43,-0.67 z m 8.42,6.1 4.16,-0.36 1.83,0.57 0.24,3.26 1.15,0.87 2.03,-1.2 -1.13,-1.51 0.06,-1.88 1.46,-0.59 0.73,-1.85 1.97,0.07 1.81,-0.93 -0.36,-1.16 1.33,-1.2 0.96,-4.06 1.39,0.84 1.81,-0.55 1.18,-0.71 -0.17,-1.49 2.95,-2.11 -1.78,-2.74 2.03,-1.22 -0.77,-1.36 0.19,-3.41 -2.08,-0.12 -0.26,-1.87 1.33,-0.5 0.61,0.69 1.93,-1.09 1.1,-3.31 1.41,-0.05 2.22,2.06 2.17,0.05 0.65,1.23 3.52,-1.5 v 0 l 1.53,0.06 0.31,1.13 1.33,0.36 -0.14,2.19 3.29,0.95 1.12,0.87 -0.13,1.09 2.06,0.88 v 0 l -2.85,5.9 -3.88,5.28 -1.97,1.26 -1.32,3.3 -2.65,1.74 -1.49,4.14 -2.1,1.99 -4.87,8.77 -1.99,6.06 0.84,3.67 2.43,5.08 -0.56,1.51 2.1,5.19 3.77,4.14 3.96,0.88 1.98,1.58 -0.18,1.08 1.17,1.3 -2.29,1.94 -1.41,0.27 -0.42,1.44 -0.93,-0.36 -2.12,0.82 -1.86,3.27 -1.47,-0.39 -6.1,3.23 -0.76,3.13 -1.16,-0.34 -1.54,0.95 -0.13,4.49 -2.9,1.12 -0.87,5.85 -1.44,1.19 -1.74,4.1 v 0 l -1.86,-0.58 -1.97,-2.1 -3.19,-6.07 -0.17,-1.55 1.94,-5.05 -0.6,-1.52 -2.9,-0.33 -0.21,-3.14 2.15,-2.03 0.34,-2.67 -0.69,-2.85 v 0 l 1.74,-0.03 1.29,-1.37 -1.25,-2.65 0.9,-0.42 0.11,-3.76 -0.97,-1.78 -5.01,0.54 -3.25,-4.09 2.73,-9.09 -4.69,-0.95 -1.69,-1.53 -1.54,0.48 -0.13,-1.34 -0.79,-0.05 -1.08,-1.79 0.79,-1.63 -0.58,-1.74 1.57,-0.95 1.59,-3.14 0.93,-0.78 1.51,0.64 1.4,-0.97 -0.35,-1.4 1.6,-2.42 0.35,-5.07 z"
         style="fill:#cccccc;fill-opacity:1;stroke:#ffffff;stroke-width:0.5;stroke-opacity:1" />
   </g>
   <g id="stadiums">
      <circle cx="152.95115055274684" cy="120" cz="301.26376953615164" r="3" fill="#FF0000" id="madrid" data-lat="40.45277778"
         data-lng="-3.68805556" data-football-api-venue-id="1456" data-stadium="Estadio Santiago Bernabéu"
         data-city="Madrid" data-stadium-capacity="85454" />
      <circle cx="312.1760737543473" cy="80" cz="332.6547629592939" r="3" fill="#FF0000" id="barcelona" data-lat="40.45277778"
         data-lng="-3.68805556" data-football-api-venue-id="19939" data-stadium="Estadi Olímpic Lluís Companys"
         data-city="Barcelona" data-stadium-capacity="55926" />
   </g>
</svg>