<?xml version="1.0" encoding="UTF-8" standalone="no"?>
<?xml-stylesheet type="text/css" href="/styles/home.css"?>
<!-- https://www.amcharts.com/svg-maps -->

<svg
   xmlns:dc="http://purl.org/dc/elements/1.1/"
   xmlns:cc="http://creativecommons.org/ns#"
   xmlns:rdf="http://www.w3.org/1999/02/22-rdf-syntax-ns#"
   xmlns:svg="http://www.w3.org/2000/svg"
   xmlns="http://www.w3.org/2000/svg"
   xmlns:sodipodi="http://sodipodi.sourceforge.net/DTD/sodipodi-0.dtd"
   xmlns:inkscape="http://www.inkscape.org/namespaces/inkscape"
   version="1.1"
   id="map-sweden"
   viewBox="0 0 1809 1809"
   width="1809"
   height="1809"
   sodipodi:docname="sweden2.svg"
   inkscape:version="1.0.1 (3bc2e813f5, 2020-09-07)">
  <metadata
     id="metadata29">
    <rdf:RDF>
      <cc:Work
         rdf:about="">
        <dc:format>image/svg+xml</dc:format>
        <dc:type
           rdf:resource="http://purl.org/dc/dcmitype/StillImage" />
        <dc:title></dc:title>
      </cc:Work>
    </rdf:RDF>
  </metadata>
  <sodipodi:namedview
     pagecolor="#ffffff"
     bordercolor="#666666"
     borderopacity="1"
     objecttolerance="10"
     gridtolerance="10"
     guidetolerance="10"
     inkscape:pageopacity="0"
     inkscape:pageshadow="2"
     inkscape:window-width="1920"
     inkscape:window-height="1106"
     id="namedview27"
     showgrid="false"
     inkscape:zoom="0.14365724"
     inkscape:cx="907.98618"
     inkscape:cy="500.30839"
     inkscape:window-x="-11"
     inkscape:window-y="-11"
     inkscape:window-maximized="1"
     inkscape:current-layer="map-sweden" />
  <defs
     id="defs4">
    <style
       type="text/css"
       id="style2">
			.land
			{
				fill: #05adda;
				fill-opacity: 1;
				stroke:white;
				stroke-opacity: 1;
				stroke-width:0.5;
			}
		</style>
    <!-- <amcharts:ammap projection="mercator" leftLongitude="11.105169" topLatitude="69.061149" rightLongitude="24.170696" bottomLatitude="55.338154"></amcharts:ammap> -->
    <!-- All areas are listed in the line below. You can use this list in your script. -->
    <!--{id:"SE-M"},{id:"SE-O"},{id:"SE-K"},{id:"SE-C"},{id:"SE-AB"},{id:"SE-I"},{id:"SE-AC"},{id:"SE-Y"},{id:"SE-BD"},{id:"SE-Z"},{id:"SE-S"},{id:"SE-N"},{id:"SE-U"},{id:"SE-D"},{id:"SE-E"},{id:"SE-T"},{id:"SE-G"},{id:"SE-W"},{id:"SE-H"},{id:"SE-F"},{id:"SE-X"}-->
  </defs>
  <path
     d="m 653.2166,1809.803 81.62,-0.88 22.54,-71.28 -0.77,-46.16 -62.91,5.88 -35.75,-5.54 -27.81,18.59 36.52,66.07 z"
     class="land"
     title="Skåne"
     id="SE-M" />
  <path
     d="m 589.3966,1560.293 -3.09,1.01 3.27,1.73 z m -7.49,-5.17 -1.55,-3.25 -1.14,3.85 z m -1.2,-20.94 -4.71,2.09 1.81,2.37 z m 6.29,-19.73 -14.58,3.48 5.86,10.56 z m 3.06,-21.55 -23.17,13.24 3.09,6.75 21.01,-6.14 z m -46.84,-77.85 -1.45,5.36 4.52,-0.01 z m 76.02,-34.34 -27.86,-4.77 -12.08,41.88 -30.47,-7.09 6.82,70.66 40.07,1.55 -4.48,3.53 4.89,9.83 -7.89,36.01 -6.24,7.13 15.53,29.07 72.87,47.82 59.65,-81.64 36.98,-95.82 -24.23,-35.51 -21.35,-3.84 -17.32,52.21 -77.78,27.56 23.51,-81.25 z"
     class="land"
     title="Västra Götaland"
     id="SE-O" />
  <path
     d="m 775.1666,1743.433 0.45,-1.38 -1.26,-0.49 z m 56.83,-3.34 0.15,2.06 1.28,-2.16 z m -6.71,-9.62 1.3,4.97 1.82,-4.78 z m -42.1,-0.58 -1.57,0.27 1.21,1.32 z m 30.06,2.69 0.62,-2.72 -2.93,1.47 z m 5.13,-0.6 -1.66,-2.51 -1.2,2.04 z m 4.03,0.29 0.06,-3.41 -2.12,2.66 z m 7.94,-3.26 -2.68,0.1 2.52,2.74 z m -21.32,-2.39 -0.82,-0.76 v 1.49 z m 11.54,-37.79 -14.19,2.14 -49.77,0.51 0.77,46.16 12.97,2.53 -5.17,-9.38 2.58,-5.49 38.78,2.89 2.32,-4.2 4.6,3.03 6.45,-6.2 14.53,5.38 -2.29,5.75 3.82,2.18 12.98,-27.17 z"
     class="land"
     title="Blekinge"
     id="SE-K" />
  <path
     d="m 1001.7066,1260.043 -1.7,1.23 3.85,0.5 z m -2.14,2.52 -0.23,-2.06 -4.61,-1.83 z m 5.03,-9.84 -1.51,-1.32 -0.76,1.42 z m -12,-22.26 -2.25,10.51 9.97,7.63 z m -1.75,-7 -0.67,-2.34 -2.33,1.25 z m -44.78,1.04 -17.79,-14.76 -9.11,38.6 -1.91,50.05 -24.65,11.94 10.83,31.92 28.94,17.49 67.19,-88.47 z"
     class="land"
     title="Uppsala"
     id="SE-C" />
  <path
     d="m 958.0066,1433.033 -0.72,-1.24 0.57,4.36 z m -8.88,-9.58 -1.55,-1.86 1.31,3.36 z m 23.54,-1.71 1.69,-3.94 -2.77,3.75 z m -15.65,0.7 -0.04,-5.38 -3.41,11.94 z m 18.4,-6.15 3.51,-4.04 -2.46,0.27 z m 12.01,-7.18 -9.7,6.58 7.43,-1.84 z m -19.63,3.04 0.04,-3.98 -2.31,5.08 z m 11.32,-9.75 -6.85,0.21 -3.2,7.26 z m -2.23,-3.1 -1.2,-0.78 -1.02,1.45 z m 22.14,-1.17 -1.7,0.59 -0.43,2.99 z m -51.94,15.98 -1.48,-17.3 -2.25,13.54 z m 55.51,-18.14 1.18,-3.06 -1.61,1.21 z m 8.21,-1.44 1.28,-2.57 -2.03,1.71 z m -17.2,4.02 1.41,-7.01 -8.35,9.81 z m 7.74,-7.77 0.75,-0.86 -1.57,0.67 z m 4.63,-7.68 -1.04,0.25 -0.79,1.73 z m 4.7,-1.13 -2.85,-1.31 -1.89,3.77 z m -18.8,-1.73 -0.14,-0.87 -1.19,-0.25 z m 11.38,-2.56 -1.67,0.96 1.55,0.22 z m 9.88,-3.09 1.95,-3.45 -5.34,3.18 z m 9.07,-1.64 -0.61,-2.13 -1.12,0.52 z m -24.52,-1.74 -10.81,-1.26 16.19,4.86 z m 22.34,-2.4 0.51,-0.21 -2.37,0.22 z m 1.3,-5.53 -2.18,0.31 -0.85,3.72 z m -13.06,-2.15 -1.25,8.79 4.21,-3.84 z m 10.13,-1.92 -0.03,-1.2 -1.12,0.47 z m 5.01,1.31 -1.62,-3.23 -1.34,0.62 z m -32.9,-3.82 -2.57,-0.97 4.14,3.15 z m 37.4,-0.78 -0.18,-0.29 -0.19,0.35 z m -3.97,-0.61 -0.56,3.35 1.9,-2.53 z m -37.5,0.05 1.18,-0.52 -3.2,-1.02 z m 53.47,-1.26 -0.05,-1.46 -0.81,0.17 z m -18.88,1.76 0.17,-3.49 -3.1,2.7 z m 36.54,-2.72 -0.19,-0.86 -0.62,0.26 z m -47.04,-2.11 -5.63,2.16 4.19,-0.17 z m 5.51,-2.19 -0.69,-0.72 -6.49,1.5 z m 21.17,-3.24 -0.79,0.55 -0.09,0.88 z m -29.77,-3.71 -10.53,6.2 2.78,7.25 z m 22.22,-5.36 -1.81,0.87 3.31,-0.37 z m 5.73,-0.53 2.16,-1.08 -0.46,-0.84 z m 6.62,-3.31 -0.58,0.37 -0.29,0.99 z m -16.97,-1.32 -1.38,-3.58 -5.68,6.85 z m 4.54,-2.81 -0.92,-1.02 -0.89,1.46 z m -16.14,8.64 8.52,-9.88 -10.15,9.73 z m 22.46,-9.25 -0.58,-1.13 -1.3,0.31 z m -15.68,-2.09 -3.14,0.47 2.64,0.95 z m 17.74,1.23 0.42,-1.17 -1.04,-0.16 z m -1.5,-1.89 -0.08,-0.2 -0.07,0.13 z m 14.48,-3.49 0.33,-0.67 -0.81,0.82 z m -15.37,-4.87 -2.5,-1.25 0.54,1.23 z m 2.16,-2.33 0.86,-2.38 -2.5,1.17 z m -5.47,-1.38 0.6,-1.78 -1.6,0.48 z m -6.17,-4.62 -2.02,-6.04 -4.44,8.4 z m 8.21,-3.78 0.43,-2.36 -2.61,3.84 z m -23.5,-30.69 -11.23,-2.77 -67.19,88.47 -9.42,23.56 18,26.11 4.4,-24.03 14.16,36.2 7.32,-21.58 24.84,-11.68 -8.04,-21.15 21.04,0.9 -38.13,-11.09 64.5,-40.79 -20.62,-2.3 11.52,-10.05 -2.31,-9.36 9,11.44 2.24,-7.39 z m -29.7,87.91 -3.58,3.36 -5.14,-4.66 z m 32.36,-97.31 -4.34,-4.41 0.74,6.9 z"
     class="land"
     title="Stockholm"
     id="SE-AB" />
  <path
     d="m 1013.4866,1539.423 -39.72,33.01 0.63,70.04 47.68,-52.53 -9.79,-26.4 19.41,-22.54 z m 26.51,-17.16 -11.23,9.69 18.26,-6.65 z m 4.17,-41.33 2.45,-2 -8.71,-3.16 z"
     class="land"
     title="Gotland"
     id="SE-I" />
  <path
     d="m 1051.5266,845.543 -0.16,-1.76 -0.23,2.21 z m 6.29,-1.16 1.04,0.72 -2.7,-3.42 z m 23.05,-5.22 -0.48,2.11 0.72,-0.17 z m -1.06,-6.75 -0.26,-3.57 0.02,4.74 z m 54.53,-8.71 -0.11,-2.17 -1.8,3 z m -31.63,-7.81 1,1.75 0.33,-0.77 z m 35.39,2.33 1.57,-4.3 -2.5,3.08 z m -15.95,-12.21 -1.09,-0.64 1.08,2.23 z m 19.94,5.24 2.4,-10.85 -5.23,11.11 z m 0.7,-10.74 -3.36,-3.16 -1.56,4.01 z m -13.26,-3.98 0.48,-1.11 -0.87,1.71 z m 18.74,0.06 0.26,-1.61 -0.95,1.78 z m 30.26,-110.22 -0.63,-0.92 0.12,1.08 z m -12.89,-39.66 -0.58,-3.23 -1.99,-0.82 z m -123.91,-48.69 -228.5,-168.43 -56.63,34.48 -12.58,148.19 146.02,154.73 9.49,7.95 92.31,-3.18 53.8,71.8 82.27,-45.17 56.02,-90.58 -34.06,-55.15 32.95,-33.59 z m 115.32,75.23 -1.86,-3.65 5.03,5.23 z m -2.05,69.18 0.41,1.03 -1.1,-0.97 z m -33.5,57.92 0.86,-2.65 0.04,1.84 z"
     class="land"
     title="Västerbotten"
     id="SE-AC" />
  <path
     d="m 948.4766,1011.833 2.29,-4 -3.56,-0.28 z m 11.15,-42.26 -0.4,0.28 0.15,0.24 z m 12.38,-18.5 -1.63,-2.49 -3.85,1.39 z m -0.39,-12.56 -5.24,5.63 9.38,-4.44 z m 6.96,-1 1.88,-3.65 -2.38,2.23 z m -12.19,-0.51 0.85,-2.35 -3.49,-1.25 z m -7.28,-17.48 0.79,-1.87 -1.39,0.57 z m 46.22,-12.33 0.62,-4.31 -2.42,4.92 z m -8.29,-4.35 3.32,-4.53 -3.59,-0.46 z m 6.5,-5.06 -0.04,-3.36 -0.69,0.84 z m 6.95,-1.93 -0.18,-2.5 -0.34,2.1 z m 2.08,-7.7 -0.45,-0.56 -0.02,1.12 z m 2.7,-1.37 -2.35,-0.57 0.98,1.25 z m -7.82,0.5 -0.72,-2.45 -0.89,0.63 z m 9.64,-1.86 1.27,-1.56 -2.06,0.97 z m 3.24,-5.08 0.3,-1.36 -1.41,0.83 z m 17.31,-11.16 -0.7,-1.54 -0.72,0.28 z m -138.11,-94.24 -9.49,-7.95 -50.4,51.85 63.71,89 -129.55,52.22 32.32,39.60001 129.53,17.44999 -9.5,-45.68 43.75,-12.82 -22.44,-52.68 8.31,-0.83 -1.28,2.73 4.17,9.09 2.59,-0.62 0.84,13.1 8.6,-5.14 4.17,4.45 -8.31,3.69 11.27,2.24 23.1,-24.02 -20.28,-5.52 24.99,-15.21 -5.45,-8.61 11.57,2.75 -3.34,-9.17 7.47,0.83 -3.07,6.82 8.49,-5.81 -9.82,-6.37 18.25,10.83 15.91,-37.6 -53.8,-71.8 z m 84.96,151.54 -0.13,0.88 -0.09,-1.64 z"
     class="land"
     title="Västernorrland"
     id="SE-Y" />
  <path
     d="m 1184.3666,614.763 -1.16,-1.03 -1.28,2.83 z m 7.31,-4.06 -1.17,-2.69 0.15,2.73 z m -2.11,-0.59 -1.54,-3.14 -0.75,0.54 z m 15.57,-8.13 -1.94,0.04 1.93,0.86 z m -3.38,-0.98 -1.31,-0.3 2.22,2.18 z m -2.68,-0.05 -2.45,-5.76 -2.81,0.17 z m 5.88,-11.42 -0.34,-0.92 -0.53,-0.12 z m -5.24,2.26 -6.66,-4.01 1.61,4.04 z m 31.01,-7.86 0.11,-1.1 -1.31,0.13 z m -34.03,-1.31 -3.55,-1.61 0.78,1.65 z m 5.07,-4.7 -0.9,1.26 1.94,0.69 z m 34.75,-0.27 0.6,-0.33 -2.18,0.64 z m 0.59,-3.43 -0.96,-1.79 -0.7,0.83 z m -43.94,-1.62 -5.65,0.39 10.02,5.57 z m 5.2,1.69 -2.84,-1.95 0.8,1.43 z m 35.95,2.53 0.29,-1.29 -3.76,-3.77 z m -24.63,-1.75 -1.97,-3.53 -1.3,1.3 z m 30.06,-3.58 -0.04,-1.82 -1.82,-0.41 z m -28.07,-0.13 0.62,-1.36 -2.04,0.27 z m 4.36,-4.58 -0.91,-1.39 -0.67,2 z m 17.39,-3 -6.74,-0.8 -1.29,3.47 z m 12.61,-0.18 -0.57,-1.74 -1.21,1.74 z m 0.61,-3.31 0.97,1.5 v -1.46 z m -24.4,7.28 -5.19,-6.52 0.38,5.58 z m 30.6,-7.83 0.06,-2.24 -1.91,2.81 z m -40.31,-2.48 -0.85,0.34 1.54,1.47 z m -2.62,-1.6 -2.52,0.18 1.33,1.62 z m 32.61,4.52 -1.45,-5 -2.56,2.36 z m 8.82,-2.87 -1.3,-2 -1.44,-0.04 z m -37.76,0.79 1.58,-2.83 -2.21,-0.75 z m 38.34,-4.21 -0.48,-1.89 -1,0.61 z m 50.32,-1.92 -1.17,0.79 1.33,0.75 z m -56.93,2.77 -0.22,-1.77 -3.49,-0.89 z m -14.16,-0.96 -3.12,-3.04 2.12,4.01 z m 2.66,-2.36 -0.51,-1.31 -0.28,0.92 z m -7.32,1.7 -7.05,-2.17 10.37,6.25 z m 30.3,-3.04 -3.59,-1.14 3.51,4.63 z m -6.96,-0.78 -1.9,-1.38 -1.01,2.4 z m 7.19,-0.26 -0.5,-2.18 -1.81,0.5 z m -10.06,-5.59 -6.8,1.88 4.13,3.27 z m 67.76,1.82 -0.51,-4.1 -1.98,4.12 z m 3.73,-4.13 -0.55,-0.79 -0.16,0.77 z m -87.13,-0.34 -0.93,1.06 0.86,0.82 z m 13.4,1.01 -0.57,-1.86 -2.46,1.12 z m 96.52,-0.82 0.08,-1.14 -0.41,0.14 z m -10.03,0.18 0.26,-1.78 -0.98,1.97 z m -95.4,0.23 -1.69,-2.89 -0.93,0.41 z m 21.72,-3.75 -0.4,-0.68 -0.16,0.83 z m -19.87,-1.11 -0.92,-0.54 1.15,2.36 z m 9.75,0.08 -0.17,-1.31 -1.95,0.12 z m 20.65,-0.59 -1.24,-2.22 -0.49,0.5 z m 49.36,0.12 -1.46,-2.43 -1.08,1.78 z m 14.19,-1.72 -0.38,-1.02 -0.25,0.73 z m -28.61,-0.75 -0.36,-0.41 -0.31,0.32 z m -69.45,-0.09 -1.22,-1.06 -0.06,0.9 z m 94.95,-0.32 -0.67,-0.74 -0.27,0.79 z m -9.27,1.01 -0.92,-2.48 0.13,1.96 z m -63.44,-2.57 -1.33,0.67 1.98,1.62 z m 81.43,0.32 -1.38,-1.39 1.06,1.89 z m -67.55,-1.4 -1.55,0.32 1.93,1.4 z m 68.92,1.26 -0.16,-1.17 -0.67,-0.15 z m -102.77,-1.5 -0.46,0.29 1.39,1.31 z m 38.21,0.79 -2.65,-0.39 2.11,2.08 z m -22.19,0.07 -1.32,-1.41 -0.66,1.12 z m 9.75,-1.52 -0.48,0.52 1.58,1.2 z m -14.98,3.63 -0.81,-4.4 -1.45,4.29 z m 80.37,-5.8 0.83,2.12 1.5,-1.16 z m 8.89,-1.21 -1.37,-0.06 1.8,1.12 z m 2.88,-1.43 -1.91,0.7 3.07,2.06 z m -104.74,2.16 0.05,-2.45 -2.1,1.38 z m 7.72,-2.83 -0.91,-0.88 0.45,1.28 z m 38.52,-0.44 -0.15,-0.8 -0.46,1 z m -37.25,-0.85 -0.41,-0.67 -0.55,0.14 z m 36.53,0.22 -0.85,-0.97 0.53,1.44 z m 23.11,0.42 -1.72,-1.32 2.08,2.55 z m -34.88,3.53 -5.98,-5.46 4.3,9.78 z m 32.13,-2.05 -1.69,-3.88 0.03,2.98 z m -14.84,-4.5 -3.59,0.98 5.66,2.79 z m 48.2,0.59 -0.07,-1.62 -0.92,1.14 z m -16,-0.44 -7.34,3.25 3.44,3.67 z m -22.7,0.07 -0.35,-2.52 -0.82,1.67 z m -11.32,-1.77 -3.27,0.54 1.5,1.25 z m 8.08,-0.25 0.12,-0.85 -0.36,0.3 z m 31.51,0.53 -0.32,-1.45 -0.22,1 z m -37.62,0.41 0.03,-1.74 -2.03,0.34 z m -47.81,-2.18 -0.17,-0.71 -0.37,-0.01 z m 19.85,7.56 -4.59,-7.7 -0.18,7.02 z m -10.75,-10.53 -1.74,1.94 2.05,-0.56 z m 80.9,0.54 -0.54,-0.9 -0.51,0.95 z m -29.6,-0.79 0.05,-0.94 -1.03,-0.45 z m -14.52,-0.02 -1.7,-1.41 0.43,1.53 z m 55.63,0.04 -0.09,-1.83 -0.73,-0.07 z m -105.63,-0.61 -1.7,-0.59 2.28,1.32 z m 103.05,0.24 0.81,-1.75 -1.87,1.84 z m -82.13,-0.47 -1.04,-2.17 -1.24,-0.34 z m -16.69,-0.6 -1.31,-2.4 0.15,1.95 z m 17.47,-1.47 -0.98,-1.29 1.27,2.94 z m -130.18,-510.0200049 -31.54,2.4 15.39,36.6099999 -23.32,75.130005 -108.92,-30.420005 -15.18,92.000005 -36.3,-21.44 -69.05,97.57 14.22,69.52 -56.87,106.81 228.5,168.43 141.09,21.05 -19.21,-38.82 21.7,13.88 -10.53,-16.86 35.27,-15.98 -10.78,-9.98 21.16,-1.99 -26.57,-26.23 38.81,27.26 -11.86,-32.19 26.86,-21.77 91.41,12.69 -30.29,-73.7 20.66,-74.37 -25.59,-53.85 11.13,-41.85 -20.21,-10.33 13.97,-74.23 -66.4,-79.17 z"
     class="land"
     title="Norrbotten"
     id="SE-BD" />
  <path
     d="m 890.0366,766.993 -146.02,-154.73 -41.77,75.64 28.62,20.08 -8.06,58.72 -60.53,-5.43 -49.16,63.23 -10.77,41.86 19.54,134.63 131.14,87.52 53.09,-88.84999 -32.32,-39.60001 129.55,-52.22 -63.71,-89 z"
     class="land"
     title="Jämtland"
     id="SE-Z" />
  <path
     d="m 751.1766,1281.573 -105.34,-125.63 -27.7,6.91 21.31,72.08 -9.6,44.88 -36.14,21.61 -2.33,74.52 27.86,4.77 30.62,17.33 26.9,17.59 -4.32,-42.06 28.8,-11.29 20.21,37.24 21.35,3.84 z"
     class="land"
     title="Värmland"
     id="SE-S" />
  <path
     d="m 670.3966,1616.333 -72.87,-47.82 60.42,123.31 35.75,5.54 -10.91,-44.93 22.54,-16.78 z"
     class="land"
     title="Halland"
     id="SE-N" />
  <path
     d="m 903.4366,1342.253 -10.83,-31.92 24.65,-11.94 1.91,-50.05 -30.8,11.43 -76.43,40.34 19.6,80.86 z"
     class="land"
     title="Västmanland"
     id="SE-U" />
  <path
     d="m 934.8466,1439.363 -1.31,-1.66 -0.06,2.5 z m 0.66,-5.41 -4.23,0.4 1.47,4.12 z m 12.3,-4.91 -6.24,-5.7 3.55,4.63 z m -44.37,-86.79 -71.9,38.72 -3.33,26.13 11.67,-0.52 52.36,41.43 48.72,-38.6 -18,-26.11 9.42,-23.56 z"
     class="land"
     title="Södermanland"
     id="SE-D" />
  <path
     d="m 894.4566,1509.823 1.27,0.02 -3.42,-0.75 z m 6.47,-11.83 -0.89,1.98 2.22,-0.13 z m 4.91,-5.49 2.04,-1.67 -1.35,-0.13 z m -5.71,0 1.1,-1.8 -0.51,-0.42 z m -2.63,-2.62 0.55,-3.12 -2.71,-0.52 z m -0.52,-14.72 -4.51,2.33 8.1,5.04 z m 6.29,-2.27 0.91,-1.18 -1.76,0.36 z m 1.11,-7.45 0.88,-0.81 -2.53,-0.82 z m -2.04,-2.62 -3.39,-2.33 0.96,1.77 z m -62.46,-56.25 -11.67,0.53 -50.18,35.47 -17.96,65.77 24.33,-4.81 26.83,50.42 60.34,-47.16 14.95,15.58 6.8,-38.37 -23.4,-17.77 31.94,-1.58 -46.07,-16.64 h 36.45 z"
     class="land"
     title="Östergötland"
     id="SE-E" />
  <path
     d="m 811.9366,1300.113 -60.76,-18.54 -8.38,121.79 24.23,35.51 11,3.7 50.18,-35.47 3.33,-26.13 z"
     class="land"
     title="Orebro"
     id="SE-T" />
  <path
     d="m 817.7466,1610.253 -112.42,25.4 -22.54,16.78 10.91,44.93 62.91,-5.88 49.77,-0.51 29.25,-50.79 z"
     class="land"
     title="Kronoberg"
     id="SE-G" />
  <path
     d="m 753.0266,1088.513 -131.14,-87.52 -9.29,70.52 43.9,46.15 -10.66,38.28 105.34,125.63 60.76,18.54 76.43,-40.34 -31.17,-44.61 12.38,-24.8 -15.2,-27.23 z"
     class="land"
     title="Dalarna"
     id="SE-W" />
  <path
     d="m 881.9166,1621.503 -1.84,-0.98 3.99,2.37 z m -2.93,-7.35 -2.21,1.9 h 2.48 z m 14.32,-7.94 -0.5,-1.04 -0.37,0.64 z m 16.61,-10.72 -39.59,84.12 0.55,40.22 z m -21.42,-17.78 -2.32,-2.54 0.59,1.64 z m 0.45,-11.47 -1.46,-2.31 -3.08,4.88 z m -1.09,-20.07 -0.04,-3.29 -3.18,0.46 z m 1.2,-8.34 -1.77,1.65 5.25,3.82 z m -17.49,-31.04 -60.34,47.16 6.52,56.3 17.88,29.93 -29.25,50.79 14.19,-2.14 28.38,18.13 31.3,-78.15 -7.16,-14.76 1.78,-7.33 -1.53,-3.63 13.31,-22.05 -10.2,-17.53 11.76,-8.56 -17.88,-21.8 16.98,17.15 -14.5,-17.15 13.71,-10.78 z"
     class="land"
     title="Kalmar"
     id="SE-H" />
  <path
     d="m 811.2266,1553.953 -26.83,-50.42 -24.33,4.81 -22.82,49.82 -7.2,-23.47 -59.65,81.64 34.93,19.32 112.42,-25.4 z"
     class="land"
     title="Jönköping"
     id="SE-F" />
  <path
     d="m 926.6866,1189.173 -1.43,-1.99 -1.36,0.19 -0.01,2.47 z m -6.15,-29.38 -0.66,-3.32 -1.91,2.63 z m 4.32,-14.79 0.11,-3.5 -1.16,1.76 z m 7.21,-51.8 -4.71,0.54 6.01,1.02 z m -9.44,0.28 0.94,-2.23 -1.66,-0.92 z m 16.52,-21.92 -1.89,-0.55 -0.23,1.22 z m -4.11,-28.48 -0.51,-1.67 -0.27,1.01 z m 2.4,-0.41 0.18,-1.13 -2.33,-0.44 z m -10.94,9.67 9.15,-35.23 -129.53,-17.44999 -53.09,88.84999 101.35,74.62 15.2,27.23 -12.38,24.8 31.17,44.61 30.8,-11.43 9.11,-38.6 -11.5,-8.45 9.02,-9.23 -3.19,-1.77 -0.05,-3.97 -1.39,-0.31 1.39,-3.15 -2.18,-7.09 -5.33,-6.28 5.43,-7.97 -5.4,-0.94 -0.41,-23.09 3.68,-3.92 -6.99,-10.78 10.83,0.86 -13.31,-33.96 26.64,-6.73 z"
     class="land"
     title="Gävleborg"
     id="SE-X" />
  <g
     id="stadiums"
     data-country="sweden"
     data-circle-radius="15" />
</svg>
