<?xml version="1.0" encoding="UTF-8" standalone="no"?>
<svg
   xmlns:dc="http://purl.org/dc/elements/1.1/"
   xmlns:cc="http://creativecommons.org/ns#"
   xmlns:rdf="http://www.w3.org/1999/02/22-rdf-syntax-ns#"
   xmlns:svg="http://www.w3.org/2000/svg"
   xmlns="http://www.w3.org/2000/svg"
   xmlns:sodipodi="http://sodipodi.sourceforge.net/DTD/sodipodi-0.dtd"
   xmlns:inkscape="http://www.inkscape.org/namespaces/inkscape"
   version="1.1"
   id="map-sweden"
   viewBox="0 0 1000 1000"
   width="1000"
   height="1000"
   sodipodi:docname="sweden.svg"
   inkscape:version="1.0.1 (3bc2e813f5, 2020-09-07)">
  <metadata
     id="metadata29">
    <rdf:RDF>
      <cc:Work
         rdf:about="">
        <dc:format>image/svg+xml</dc:format>
        <dc:type
           rdf:resource="http://purl.org/dc/dcmitype/StillImage" />
        <dc:title></dc:title>
      </cc:Work>
    </rdf:RDF>
  </metadata>
  <sodipodi:namedview
     pagecolor="#ffffff"
     bordercolor="#666666"
     borderopacity="1"
     objecttolerance="10"
     gridtolerance="10"
     guidetolerance="10"
     inkscape:pageopacity="0"
     inkscape:pageshadow="2"
     inkscape:window-width="1920"
     inkscape:window-height="1106"
     id="namedview27"
     showgrid="false"
     inkscape:zoom="0.5218638"
     inkscape:cx="-121.19193"
     inkscape:cy="288.89384"
     inkscape:window-x="-11"
     inkscape:window-y="-11"
     inkscape:window-maximized="1"
     inkscape:current-layer="map-sweden"
     inkscape:document-rotation="0" />
  <defs
     id="defs4">
    <style
       type="text/css"
       id="style2">
			.land
			{
				fill: #05adda;
				fill-opacity: 1;
				stroke:white;
				stroke-opacity: 1;
				stroke-width:0.5;
			}
		</style>
    <!-- <amcharts:ammap projection="mercator" leftLongitude="11.105169" topLatitude="69.061149" rightLongitude="24.170696" bottomLatitude="55.338154"></amcharts:ammap> -->
    <!-- All areas are listed in the line below. You can use this list in your script. -->
    <!--{id:"SE-M"},{id:"SE-O"},{id:"SE-K"},{id:"SE-C"},{id:"SE-AB"},{id:"SE-I"},{id:"SE-AC"},{id:"SE-Y"},{id:"SE-BD"},{id:"SE-Z"},{id:"SE-S"},{id:"SE-N"},{id:"SE-U"},{id:"SE-D"},{id:"SE-E"},{id:"SE-T"},{id:"SE-G"},{id:"SE-W"},{id:"SE-H"},{id:"SE-F"},{id:"SE-X"}-->
  </defs>
  <path
     d="m 357.43235,982.56446 43.62067,-0.47083 12.04629,-38.09436 -0.40988,-24.66937 -33.62076,3.14239 -19.10619,-2.96076 -14.86269,9.93517 19.51736,35.30993 z"
     class="land"
     title="Skåne"
     id="SE-M"
     inkscape:connector-curvature="0"
     style="fill:#05adda;fill-opacity:1;stroke:#ffffff;stroke-width:0.267216;stroke-opacity:1" />
  <path
     d="m 323.32538,849.21826 -1.65164,0.53941 1.74749,0.92452 z m -4.00325,-2.76305 -0.82801,-1.73685 -0.61166,2.05755 z m -0.64131,-11.19104 -2.51684,1.11699 0.96742,1.26657 z m 3.36189,-10.54432 -7.79206,1.85975 3.13171,5.64365 z m 1.63523,-11.51704 -12.38305,7.07586 1.65161,3.60745 11.22838,-3.28145 z m -25.03285,-41.60557 -0.77502,2.86459 2.41593,-0.005 z m 40.62768,-18.35236 -14.88916,-2.54928 -6.45639,22.38206 -16.28412,-3.78918 3.64503,37.76297 21.41493,0.82863 -2.3945,1.88652 2.61333,5.25352 -4.21639,19.24488 -3.3354,3.81047 8.29971,15.53597 38.94454,25.55661 31.87898,-43.63109 19.7633,-51.20935 -12.94935,-18.97769 -11.41062,-2.05216 -9.25574,27.90269 -41.5686,14.72892 12.56466,-43.4226 z"
     class="land"
     title="Västra Götaland"
     id="SE-O"
     inkscape:connector-curvature="0"
     style="fill:#05adda;fill-opacity:1;stroke:#ffffff;stroke-width:0.267216;stroke-opacity:1" />
  <path
     d="m 422.60669,947.09416 0.23969,-0.73752 -0.67281,-0.2615 z m 30.37175,-1.78495 0.0815,1.10091 0.68422,-1.15434 z m -3.58576,-5.14123 0.69431,2.65613 0.97313,-2.55466 z m -22.49961,-0.31011 -0.83942,0.1441 0.64631,0.70532 z m 16.06467,1.4376 0.33426,-1.45367 -1.56585,0.78532 z m 2.74197,-0.32142 -0.88732,-1.34136 -0.64132,1.09023 z m 2.15361,0.15551 0.0632,-1.82231 -1.13322,1.42153 z m 4.24351,-1.74223 -1.4328,0.052 1.34702,1.46444 z m -11.39423,-1.27723 -0.43515,-0.40662 V 938.5 Z m 6.16756,-20.19623 -7.58395,1.14365 -26.59871,0.27281 0.40988,24.66936 6.93126,1.35212 -2.76279,-5.01291 1.37855,-2.9341 20.72564,1.54453 1.23982,-2.24456 2.45821,1.61932 3.44702,-3.31352 7.76557,2.8752 -1.22404,3.07299 2.04134,1.16511 6.93694,-14.52062 z"
     class="land"
     title="Blekinge"
     id="SE-K"
     inkscape:connector-curvature="0"
     style="fill:#05adda;fill-opacity:1;stroke:#ffffff;stroke-width:0.267216;stroke-opacity:1" />
  <path
     d="m 543.67688,688.75491 -0.90873,0.65762 2.05775,0.26751 z m -1.14332,1.34673 -0.11985,-1.10092 -2.46388,-0.97792 z m 2.68774,-5.25884 -0.80662,-0.70531 -0.40356,0.75922 z m -6.41288,-11.89644 -1.20261,5.61688 5.32819,4.07775 z m -0.93523,-3.74096 -0.35943,-1.2506 -1.24549,0.66792 z m -23.93177,0.55591 -9.50801,-7.88829 -4.86847,20.62916 -1.02101,26.74828 -13.17385,6.38111 5.78793,17.05912 15.46683,9.34718 35.90869,-47.28119 z"
     class="land"
     title="Uppsala"
     id="SE-C"
     inkscape:connector-curvature="0"
     style="fill:#05adda;fill-opacity:1;stroke:#ffffff;stroke-width:0.267216;stroke-opacity:1" />
  <path
     d="m 520.32214,781.2063 -0.38471,-0.66282 0.30267,2.33004 z m -4.74549,-5.11975 -0.82863,-0.99413 0.70002,1.79564 z m 12.58043,-0.91403 0.90302,-2.10566 -1.48008,2.0042 z m -8.36405,0.37441 v -2.87527 l -1.82188,6.3812 z m 9.83343,-3.28675 1.87612,-2.15917 -1.31488,0.1441 z m 6.41854,-3.83722 -5.18377,3.51652 3.97107,-0.98332 z m -10.49053,1.62462 v -2.12703 l -1.23477,2.71493 z m 6.04963,-5.21062 -3.6608,0.1121 -1.71027,3.87994 z m -1.19188,-1.65675 -0.64132,-0.41691 -0.54246,0.77482 z m 11.83249,-0.62542 -0.90872,0.31531 -0.22706,1.59796 z m -27.75842,8.54021 -0.79082,-9.24563 -1.20263,7.23621 z m 29.66609,-9.69454 0.63061,-1.63539 -0.86021,0.64621 z m 4.38791,-0.76962 0.68422,-1.37349 -1.08531,0.91392 z m -9.19205,2.14842 0.75362,-3.74636 -4.46296,5.24276 z m 4.13629,-4.15254 0.40357,-0.45951 -0.83943,0.35791 z m 2.4746,-4.10441 -0.5549,0.1338 -0.42251,0.92442 z m 2.51179,-0.60453 -1.52296,-0.70012 -1.01023,2.01489 z m -10.04718,-0.92442 -0.0754,-0.46471 -0.63571,-0.13381 z m 6.08178,-1.3682 -0.89303,0.51332 0.82863,0.1172 z m 5.28027,-1.65137 1.04181,-1.84386 -2.85362,1.6995 z m 4.84702,-0.87642 -0.32795,-1.13835 -0.59912,0.27791 z m -13.10449,-0.92982 -5.7772,-0.67322 8.65288,2.59723 z m 11.93973,-1.28263 0.27118,-0.11211 -1.26693,0.1172 z m 0.6943,-2.95546 -1.16476,0.16591 -0.45401,1.98814 z m -6.9798,-1.14904 -0.66781,4.69761 2.25008,-2.05217 z m 5.41394,-1.02608 v -0.64101 l -0.59912,0.25101 z m 2.67767,0.70012 -0.86593,-1.72624 -0.71571,0.33181 z m -17.58259,-2.04156 -1.37351,-0.51862 2.21225,1.68352 z m 19.98781,-0.41691 -0.0937,-0.15552 -0.10191,0.18762 z m -2.12207,-0.3257 -0.29635,1.79034 1.01532,-1.35212 z m -20.04142,0.0255 0.63071,-0.2779 -1.70964,-0.54461 z m 28.57636,-0.67321 v -0.78002 l -0.43515,0.0907 z m -10.09008,0.94062 0.0876,-1.86523 -1.65667,1.44298 z m 19.5281,-1.45366 -0.10191,-0.45951 -0.33426,0.139 z m -25.13944,-1.12768 -3.00873,1.15442 2.23874,-0.0907 z m 2.94441,-1.1704 -0.37197,-0.38481 -3.46846,0.80172 z m 11.31414,-1.73155 -0.42252,0.2936 -0.0632,0.47083 z m -15.91016,-1.98275 -5.62775,3.31342 1.48576,3.87466 z m 11.87539,-2.8646 -0.96743,0.46471 1.76891,-0.19801 z m 3.06232,-0.28321 1.15407,-0.57681 -0.24591,-0.44911 z m 3.53785,-1.7689 -0.30899,0.19811 -0.15765,0.52901 z m -9.06972,-0.70532 -0.73721,-1.91326 -3.03585,3.66088 z m 2.42666,-1.5017 -0.49191,-0.5446 -0.47297,0.78002 z m -8.62575,4.61743 4.55315,-5.2802 -5.42469,5.20003 z m 12.0034,-4.94352 -0.30899,-0.60462 -0.69431,0.1659 z m -8.3798,-1.11698 -1.67812,0.251 1.41072,0.5072 z m 9.48088,0.65762 0.22074,-0.62542 -0.5549,-0.0866 z m -0.80213,-1.01003 -0.0632,-0.1069 -0.0632,0.0693 z m 7.73909,-1.86513 0.17661,-0.35781 -0.43516,0.43862 z m -8.21458,-2.60271 -1.33632,-0.66792 0.29014,0.65763 z m 1.15468,-1.24519 0.46042,-1.27205 -1.33567,0.62542 z m -2.92361,-0.73752 0.32173,-0.95133 -0.85452,0.25712 z m -3.29755,-2.46911 -1.07965,-3.22795 -2.37242,4.48922 z m 4.38791,-2.02011 0.22705,-1.26127 -1.39496,2.05226 z m -12.55899,-16.40173 -6.00169,-1.48034 -35.90869,47.28119 -5.03433,12.59119 9.61962,13.95407 2.35162,-12.84248 7.56756,19.34651 3.91179,-11.53301 13.2754,-6.24222 -4.29648,-11.30325 11.24413,0.48121 -20.37754,-5.9268 34.47085,-21.79947 -11.02026,-1.22922 6.15684,-5.37105 -1.23477,-5.00224 4.80982,6.11384 1.19755,-3.94945 z m -15.87294,46.98194 -1.91334,1.79564 -2.74702,-2.49039 z m 17.29438,-52.00563 -2.31946,-2.35689 0.39735,3.68763 z"
     class="land"
     title="Stockholm"
     id="SE-AB"
     inkscape:connector-curvature="0"
     style="fill:#05adda;fill-opacity:1;stroke:#ffffff;stroke-width:0.267216;stroke-opacity:1" />
  <path
     d="m 549.97246,838.06459 -21.22763,17.64164 0.33426,37.43169 25.48186,-28.07376 -5.23234,-14.10904 10.37323,-12.04613 z m 14.16773,-9.17085 -6.00171,5.17866 9.759,-3.55396 z m 2.22864,-22.08802 1.30982,-1.06886 -4.65531,-1.6889 z"
     class="land"
     title="Gotland"
     id="SE-I"
     inkscape:connector-curvature="0"
     style="fill:#05adda;fill-opacity:1;stroke:#ffffff;stroke-width:0.267216;stroke-opacity:1" />
  <path
     d="m 570.3027,467.23259 -0.0876,-0.94063 -0.12616,1.1811 z m 3.36126,-0.61992 0.55489,0.38471 -1.44288,-1.82776 z m 12.31872,-2.78971 -0.25854,1.12762 0.3847,-0.0907 z m -0.56753,-3.60746 -0.1388,-1.90791 v 2.53319 z m 29.14269,-4.65487 -0.0611,-1.15973 -0.96172,1.60326 z m -16.90468,-4.17395 0.53594,0.93533 0.17631,-0.41182 z m 18.91385,1.24525 0.83912,-2.29808 -1.33572,1.64607 z m -8.52422,-6.52544 -0.58027,-0.3418 0.58027,1.19182 z m 10.65638,2.80043 1.28272,-5.79857 -2.79502,5.93749 z m 0.37176,-5.73981 -1.796,-1.68882 -0.83392,2.14308 z m -7.08697,-2.12705 0.25895,-0.59342 -0.46644,0.91393 z m 10.01567,0.0306 0.139,-0.86052 -0.51077,0.95122 z m 16.17181,-58.90518 -0.33447,-0.49192 0.0611,0.57711 z m -6.88901,-21.19559 -0.30919,-1.72623 -1.06322,-0.43831 z m -66.22177,-26.0215 -122.11769,-90.01445 -30.26456,18.42718 -6.72314,79.1976 78.03728,82.69273 5.07216,4.24874 49.33354,-1.69949 28.7523,38.37225 43.96755,-24.14031 29.93913,-48.40894 -18.20252,-29.47393 17.60907,-17.95157 z m 61.63084,40.20537 -0.99392,-1.95073 2.68834,2.79508 z m -1.09543,36.972 0.22063,0.55052 -0.58629,-0.51842 z m -17.90354,30.95434 0.46042,-1.41625 v 0.98342 z"
     class="land"
     title="Västerbotten"
     id="SE-AC"
     inkscape:connector-curvature="0"
     style="fill:#05adda;fill-opacity:1;stroke:#ffffff;stroke-width:0.267216;stroke-opacity:1" />
  <path
     d="m 515.22917,556.10339 1.22406,-2.13773 -1.90262,-0.1494 z m 5.95882,-22.58512 -0.21441,0.1495 0.0815,0.128 z m 6.61657,-9.88695 -0.87143,-1.33075 -2.05711,0.74292 z m -0.2081,-6.71247 -2.80062,3.00887 5.01351,-2.37289 z m 3.71945,-0.53411 1.00524,-1.95067 -1.27198,1.19176 z m -6.5144,-0.2723 0.45411,-1.25589 -1.86477,-0.66802 z m -3.89097,-9.34184 0.42251,-0.99943 -0.74282,0.30461 z m 24.70176,-6.58958 0.33427,-2.30337 -1.29279,2.62935 z m -4.43017,-2.32475 1.77396,-2.42099 -1.91838,-0.24601 z m 3.4735,-2.70427 v -1.79566 l -0.37197,0.44901 z m 3.71441,-1.03146 -0.0937,-1.33606 -0.18283,1.12227 z m 1.1118,-4.11512 -0.2397,-0.29941 v 0.59852 z m 1.44288,-0.73222 -1.25621,-0.3046 0.52351,0.66791 z m -4.17918,0.26741 -0.38471,-1.30937 -0.47296,0.33671 z m 5.15162,-0.99402 0.67862,-0.83372 -1.10044,0.51841 z m 1.73171,-2.71493 0.15765,-0.72682 -0.75362,0.44341 z m 9.2507,-5.96423 -0.37197,-0.82302 -0.38471,0.1495 z m -73.81017,-50.36495 -5.07216,-4.24874 -26.93482,27.71031 34.04833,47.5645 -69.23559,27.90808 17.27296,21.16357 69.22485,9.32581 -5.07719,-24.41289 23.38185,-6.8514 -11.99267,-28.15391 4.4409,-0.44331 -0.68422,1.45903 2.22864,4.85799 1.38423,-0.3311 0.44779,7.00107 4.59604,-2.74697 2.22864,2.37824 -4.44089,1.97204 6.02251,1.19712 12.34583,-12.83704 -10.83862,-2.95008 13.35547,-8.1287 -2.91225,-4.60151 6.18333,1.46968 -1.78531,-4.90075 3.99251,0.44331 -1.64089,3.64486 4.53738,-3.1051 -5.2481,-3.40432 9.75331,5.78792 8.50279,-20.09465 -28.75231,-38.37224 z m 45.40534,80.98794 -0.0693,0.47052 -0.0632,-0.87643 z"
     class="land"
     title="Västernorrland"
     id="SE-Y"
     inkscape:connector-curvature="0"
     style="fill:#05adda;fill-opacity:1;stroke:#ffffff;stroke-width:0.267216;stroke-opacity:1" />
  <path
     d="m 641.29645,343.89627 -0.61767,-0.55062 -0.68453,1.51243 z m 3.90679,-2.16981 -0.6246,-1.43758 0.0785,1.45896 z m -1.12757,-0.3153 -0.82262,-1.67811 -0.40386,0.28882 z m 8.32113,-4.34491 -1.03673,0.0183 1.03104,0.45971 z m -1.80677,-0.52341 -0.70012,-0.1602 1.18622,1.16503 z m -1.43213,-0.0245 -1.30921,-3.07829 -1.50214,0.0907 z m 3.14238,-6.10316 -0.18242,-0.49192 -0.28402,-0.0642 z m -2.80057,1.20777 -3.55925,-2.14306 0.86083,2.15909 z m 16.57295,-4.20061 0.0611,-0.58771 -0.70012,0.0693 z m -18.18671,-0.70012 -1.89693,-0.86042 0.41609,0.88182 z m 2.7098,-2.5118 -0.47948,0.67331 1.03672,0.36892 z m 18.57135,-0.14451 0.32143,-0.17661 -1.16477,0.3418 z m 0.31531,-1.83312 -0.51077,-0.95662 -0.37176,0.44341 z m -23.48271,-0.86582 -3.02009,0.20871 5.35534,2.97677 z m 2.77851,0.90312 -1.51725,-1.04219 0.42914,0.76422 z m 19.21284,1.35213 0.15714,-0.68952 -2.00925,-2.01481 z m -13.1625,-0.93533 -1.05322,-1.88652 -0.69492,0.69472 z m 16.06463,-1.91326 v -0.97272 l -0.97253,-0.21891 z m -15.0014,-0.0693 0.33446,-0.72681 -1.0898,0.1444 z m 2.3301,-2.44766 -0.48559,-0.74282 -0.35964,1.06886 z m 9.29367,-1.60331 -3.60215,-0.42761 -0.68973,1.8545 z m 6.73952,-0.0958 -0.30227,-0.92993 -0.64712,0.92993 z m 0.32835,-1.769 0.51688,0.80162 v -0.78032 z m -13.04019,3.89068 -2.77409,-3.48454 0.20147,2.98218 z m 16.35352,-4.18461 0.0611,-1.19713 -1.02101,1.50172 z m -21.54296,-1.3254 -0.45421,0.1816 0.82343,0.78572 z m -1.40059,-0.85502 -1.34639,0.0958 0.71062,0.86583 z m 17.42804,2.41569 -0.77482,-2.67218 -1.36784,1.26127 z m 4.71402,-1.53383 -0.69492,-1.06892 -0.76962,-0.0183 z m -20.18015,0.42191 0.84432,-1.51244 -1.18118,-0.40112 z m 20.48974,-2.24996 -0.25896,-1.01002 -0.53594,0.3259 z m 26.89256,-1.02609 -0.6246,0.42191 0.71061,0.40112 z m -30.42533,1.48041 -0.11984,-0.94602 -1.86541,-0.47551 z m -7.56758,-0.51332 -1.66736,-1.62464 1.13323,2.14308 z m 1.42204,-1.26127 -0.27097,-0.70001 -0.15114,0.49191 z m -3.91234,0.90853 -3.76738,-1.15973 5.54192,3.34018 z m 16.19326,-1.62471 -1.91839,-0.60911 1.87548,2.47445 z m -3.71942,-0.41691 -1.01532,-0.73762 -0.54196,1.28264 z m 3.84242,-0.1388 -0.26486,-1.16508 -0.96681,0.26741 z m -5.3761,-2.98748 -3.63438,1.00473 2.2072,1.7476 z m 36.21325,0.97273 -0.27098,-2.19119 -1.05817,2.20185 z m 1.99343,-2.20721 -0.29615,-0.4219 -0.0887,0.4112 z m -46.56508,-0.1816 -0.49772,0.56631 0.46042,0.43831 z m 7.1608,0.53982 -0.30226,-0.99403 -1.31426,0.59852 z m 51.58365,-0.43832 0.0611,-0.60921 -0.22063,0.0744 z m -5.36037,0.0958 0.139,-0.95122 -0.52381,1.05283 z m -50.98455,0.123 -0.90363,-1.54453 -0.49854,0.21941 z m 11.60738,-2.00414 -0.21462,-0.36331 -0.0887,0.44341 z m -10.61921,-0.59342 -0.49161,-0.28881 0.61155,1.26126 z m 5.21096,0.0448 -0.0887,-0.70001 -1.04176,0.0642 z m 11.03599,-0.31531 -0.66272,-1.18639 -0.26486,0.26741 z m 26.37989,0.0642 -0.78093,-1.29867 -0.57416,0.95123 z m 7.58331,-0.91923 -0.20157,-0.54491 -0.13208,0.39042 z m -15.29024,-0.40111 -0.19546,-0.2188 -0.16418,0.1708 z m -37.11636,-0.051 -0.65232,-0.56631 -0.0611,0.48122 z m 50.7449,-0.1709 -0.35964,-0.39541 -0.14512,0.42252 z m -4.95421,0.53982 -0.49161,-1.3254 0.0693,1.04748 z m -33.90457,-1.37352 -0.71061,0.35821 1.05817,0.86583 z m 43.51851,0.1709 -0.73752,-0.74282 0.56723,1.01003 z m -36.10041,-0.74811 -0.82862,0.1708 1.03177,0.74811 z m 36.83258,0.67331 -0.0887,-0.62562 -0.35963,-0.0795 z m -54.92347,-0.80162 -0.24591,0.15511 0.74261,0.70012 z m 20.42041,0.42191 -1.41571,-0.20871 1.12749,1.11161 z m -11.85894,0.0387 -0.70531,-0.75352 -0.35363,0.59852 z m 5.21089,-0.81232 -0.25875,0.27811 0.84422,0.64132 z m -8.00591,1.93995 -0.43525,-2.3515 -0.77482,2.29272 z m 42.95224,-3.09967 0.44126,1.13298 0.80173,-0.61991 z m 4.75119,-0.64672 -0.73232,-0.0306 0.96223,0.59852 z m 1.53932,-0.76421 -1.02101,0.374 1.64095,1.10094 z m -55.97661,1.15436 v -1.30938 l -1.12246,0.73762 z m 4.12621,-1.51244 -0.4856,-0.47052 0.2398,0.68412 z m 20.58632,-0.23521 -0.0785,-0.42761 -0.24591,0.5341 z m -19.90774,-0.45401 -0.22064,-0.35821 -0.29625,0.0744 z m 19.52242,0.1172 -0.45431,-0.51842 0.28402,0.76952 z m 12.35092,0.2245 -0.91892,-0.70541 1.11116,1.36279 z m -18.64083,1.88658 -3.19598,-2.91804 2.29798,5.22677 z m 17.17145,-1.09557 -0.90302,-2.07365 v 1.59266 z m -7.93147,-2.40499 -1.91839,0.52402 3.02512,1.49106 z m 25.75995,0.31531 -0.0611,-0.86582 -0.49161,0.60921 z m -8.55073,-0.23521 -3.92312,1.73697 1.83891,1.96131 z m -12.13203,0.0387 -0.18934,-1.34677 -0.44127,0.89252 z m -6.04964,-0.94592 -1.74743,0.28881 0.80172,0.66791 z m 4.31863,-0.13371 0.0611,-0.45401 -0.18935,0.16021 z m 16.83971,0.28321 -0.17019,-0.77492 -0.11985,0.53411 z m -20.10519,0.21941 v -0.92993 l -1.08467,0.18161 z m -25.55121,-1.16509 -0.0887,-0.37972 -0.19546,-0.005 z m 10.60843,4.04032 -2.45312,-4.11512 -0.0938,3.75175 z m -5.74561,-5.62755 -0.92952,1.03681 1.09535,-0.29952 z m 43.23592,0.28881 -0.29014,-0.48122 -0.27098,0.50772 z m -15.81932,-0.42191 v -0.50261 l -0.54898,-0.24031 z m -7.75991,-0.0132 -0.90862,-0.75352 0.22675,0.81772 z m 29.73042,0.0183 -0.0611,-0.97803 -0.39083,-0.0387 z m -56.4521,-0.32591 -0.90873,-0.3153 1.21896,0.70552 z m 55.07356,0.128 0.43526,-0.93522 -0.99963,0.98332 z m -43.89313,-0.2509 -0.555,-1.15974 -0.66282,-0.1816 z m -8.91963,-0.3204 -0.70012,-1.28263 0.0785,1.04218 z m 9.33649,-0.78562 -0.52382,-0.68952 0.67933,1.57127 z m -69.57229,-272.571714 -16.85611,1.282641 8.22469,19.565605 -12.46252,40.151884 -58.21091,-16.25745 -8.11243,49.167804 -19.40006,-11.458227 -36.90257,52.144577 7.59973,37.15374 -30.39321,57.08272 122.11767,90.01446 75.40311,11.2498 -10.26602,-20.74671 11.59668,7.41797 -5.62713,-9.01057 18.84956,-8.54025 -5.76142,-5.3336 11.30837,-1.0635 -14.19981,-14.0182 20.74137,14.56863 -6.33846,-17.20334 14.35506,-11.63461 48.85238,6.78191 -16.18771,-39.38762 11.0411,-39.74576 -13.67587,-28.77916 5.94811,-22.36598 -10.80076,-5.52072 7.46604,-39.67091 -35.48619,-42.311032 z"
     class="land"
     title="Norrbotten"
     id="SE-BD"
     inkscape:connector-curvature="0"
     style="fill:#05adda;fill-opacity:1;stroke:#ffffff;stroke-width:0.267216;stroke-opacity:1" />
  <path
     d="m 483.99659,425.25296 -78.03727,-82.69274 -22.32367,40.42444 15.29593,10.73143 -4.30784,31.38185 -32.34941,-2.90196 -26.27267,33.79217 -5.75575,22.37134 10.44322,71.95067 70.08503,46.77355 28.3733,-47.48426 -17.27295,-21.16361 69.2356,-27.90807 -34.04834,-47.5645 z"
     class="land"
     title="Jämtland"
     id="SE-Z"
     inkscape:connector-curvature="0"
     style="fill:#05adda;fill-opacity:1;stroke:#ffffff;stroke-width:0.267216;stroke-opacity:1" />
  <path
     d="m 409.78535,700.26125 -56.29696,-67.1408 -14.80341,3.69294 11.38856,38.5219 -5.13081,23.98531 -19.3143,11.54909 -1.24486,39.82591 14.88917,2.54928 16.36421,9.2617 14.37646,9.40059 -2.30873,-22.47815 15.39116,-6.03373 10.80078,19.90228 11.41062,2.05215 z"
     class="land"
     title="Värmland"
     id="SE-S"
     inkscape:connector-curvature="0"
     style="fill:#05adda;fill-opacity:1;stroke:#ffffff;stroke-width:0.267216;stroke-opacity:1" />
  <path
     d="m 366.61432,879.16786 -38.94454,-25.55663 32.29077,65.90086 19.10619,2.96075 -5.8308,-24.01206 12.04565,-8.96776 z"
     class="land"
     title="Halland"
     id="SE-N"
     inkscape:connector-curvature="0"
     style="fill:#05adda;fill-opacity:1;stroke:#ffffff;stroke-width:0.267216;stroke-opacity:1" />
  <path
     d="m 491.15804,732.69061 -5.78793,-17.05913 13.17386,-6.38111 1.021,-26.74827 -16.46069,6.10853 -40.84653,21.55901 10.47477,43.21413 z"
     class="land"
     title="Västmanland"
     id="SE-U"
     inkscape:connector-curvature="0"
     style="fill:#05adda;fill-opacity:1;stroke:#ffffff;stroke-width:0.267216;stroke-opacity:1" />
  <path
     d="m 507.94477,784.5893 -0.70002,-0.88722 -0.0632,1.33613 z m 0.35322,-2.89126 -2.26017,0.2137 0.78521,2.20184 z m 6.57368,-2.62407 -3.33477,-3.04633 1.89694,2.47451 z m -23.71295,-46.38336 -38.42552,20.69316 -1.77966,13.96469 6.23695,-0.27791 27.98293,22.14154 26.03744,-20.62906 -9.61962,-13.95408 5.03432,-12.5912 z"
     class="land"
     title="Södermanland"
     id="SE-D"
     inkscape:connector-curvature="0"
     style="fill:#05adda;fill-opacity:1;stroke:#ffffff;stroke-width:0.267216;stroke-opacity:1" />
  <path
     d="m 486.35894,822.24536 0.67923,0.009 -1.82819,-0.40132 z m 3.45774,-6.32231 -0.47296,1.05826 1.18622,-0.0693 z m 2.62405,-2.934 1.09036,-0.89253 -0.72142,-0.0693 z m -3.05162,0 0.58649,-0.96203 -0.27118,-0.2241 z m -1.40504,-1.40025 0.29636,-1.66744 -1.44856,-0.27791 z m -0.27739,-7.86683 -2.41027,1.24527 4.32864,2.69348 z m 3.36126,-1.21315 0.48559,-0.63062 -0.94093,0.1919 z m 0.5927,-3.98158 0.47296,-0.43251 -1.35206,-0.43862 z m -1.09036,-1.40016 -1.81181,-1.24519 0.51077,0.94603 z m -33.3805,-30.0618 -6.23693,0.28321 -26.81754,18.95632 -9.59881,35.14959 13.00297,-2.57065 14.33862,26.94616 32.24789,-25.20385 7.98944,8.32643 3.63432,-20.50614 -12.50539,-9.49692 17.06926,-0.84432 -24.62105,-8.89297 h 19.48016 z"
     class="land"
     title="Östergötland"
     id="SE-E"
     inkscape:connector-curvature="0"
     style="fill:#05adda;fill-opacity:1;stroke:#ffffff;stroke-width:0.267216;stroke-opacity:1" />
  <path
     d="m 442.25773,710.16964 -32.47238,-9.90839 -4.47811,65.08847 12.94936,18.97769 5.87872,1.97746 26.81754,-18.95641 1.77964,-13.96469 z"
     class="land"
     title="Orebro"
     id="SE-T"
     inkscape:connector-curvature="0"
     style="fill:#05adda;fill-opacity:1;stroke:#ffffff;stroke-width:0.267216;stroke-opacity:1" />
  <path
     d="m 445.36295,875.9185 -60.08136,13.57452 -12.04565,8.96776 5.8308,24.01206 33.62076,-3.14239 26.59871,-0.27281 15.63205,-27.14377 z"
     class="land"
     title="Kronoberg"
     id="SE-G"
     inkscape:connector-curvature="0"
     style="fill:#05adda;fill-opacity:1;stroke:#ffffff;stroke-width:0.267216;stroke-opacity:1" />
  <path
     d="m 410.77416,597.08371 -70.08503,-46.77355 -4.96494,37.6882 23.46132,24.66406 -5.69712,20.45803 56.29696,67.1408 32.47238,9.90839 40.84653,-21.55901 -16.65809,-23.84104 6.61594,-13.25396 -8.12314,-14.55258 z"
     class="land"
     title="Dalarna"
     id="SE-W"
     inkscape:connector-curvature="0"
     style="fill:#05adda;fill-opacity:1;stroke:#ffffff;stroke-width:0.267216;stroke-opacity:1" />
  <path
     d="m 479.65723,881.93091 -0.98312,-0.52382 2.13215,1.26656 z m -1.56583,-3.92818 -1.18119,1.01542 h 1.32558 z m 7.6533,-4.24339 -0.26476,-0.55602 -0.19556,0.3414 z m 8.87675,-5.72912 -21.15826,44.95655 0.29635,21.49475 z m -11.44782,-9.50213 -1.23981,-1.35752 0.31531,0.87643 z m 0.23969,-6.13 -0.78073,-1.23451 -1.64595,2.60801 z m -0.58017,-10.72605 v -1.7583 l -1.69955,0.24581 z m 0.64132,-4.45725 -0.94603,0.88183 2.80567,2.04156 z m -9.34719,-16.58876 -32.24789,25.20394 3.48486,30.08853 9.55531,15.99551 -15.63205,27.14386 7.58395,-1.14375 15.16665,9.68925 16.72808,-41.76584 -3.82666,-7.88824 0.95153,-3.91738 -0.81793,-1.93993 7.11351,-11.78432 -5.45117,-9.36853 6.28486,-4.57478 -9.55593,-11.65063 9.07476,9.16545 -7.74917,-9.16545 7.32666,-5.76117 z"
     class="land"
     title="Kalmar"
     id="SE-H"
     inkscape:connector-curvature="0"
     style="fill:#05adda;fill-opacity:1;stroke:#ffffff;stroke-width:0.267216;stroke-opacity:1" />
  <path
     d="m 441.8781,845.82997 -14.33862,-26.94616 -13.00297,2.57065 -12.19574,26.62544 -3.84747,-12.54314 -31.87898,43.6311 18.66727,10.32516 60.08136,-13.57452 z"
     class="land"
     title="Jönköping"
     id="SE-F"
     inkscape:connector-curvature="0"
     style="fill:#05adda;fill-opacity:1;stroke:#ffffff;stroke-width:0.267216;stroke-opacity:1" />
  <path
     d="m 503.58396,650.8797 -0.76432,-1.06357 -0.72713,0.10191 -0.005,1.32007 z m -3.28685,-15.7017 -0.35322,-1.77429 -1.02101,1.40555 z m 2.30874,-7.90428 0.0632,-1.87044 -0.61809,0.94062 z m 3.85315,-27.68354 -2.51683,0.28922 3.21179,0.5446 z m -5.04503,0.1494 0.50445,-1.19176 -0.88732,-0.49161 z m 8.8288,-11.71482 -1.01022,-0.2936 -0.11985,0.65232 z m -2.19647,-15.22056 -0.27118,-0.89252 -0.14512,0.5394 z m 1.2827,-0.21982 0.0938,-0.60371 -1.2455,-0.23541 z m -5.84656,5.16806 4.88989,-18.82812 -69.22487,-9.32578 -28.3733,47.48426 54.16481,39.87934 8.12314,14.55258 -6.61594,13.25396 16.65809,23.84102 16.46069,-6.10853 4.86847,-20.62915 -6.14548,-4.51588 4.82053,-4.93292 -1.70523,-0.94603 v -2.12165 l -0.74282,-0.16591 0.74282,-1.6835 -1.1654,-3.78909 -2.84856,-3.35625 2.90216,-4.25946 -2.88576,-0.50303 -0.22074,-12.34005 1.96692,-2.09491 -3.73582,-5.76124 5.7879,0.45951 -7.11287,-18.14936 14.2371,-3.59669 z"
     class="land"
     title="Gävleborg"
     id="SE-X"
     inkscape:connector-curvature="0"
     style="fill:#05adda;fill-opacity:1;stroke:#ffffff;stroke-width:0.267216;stroke-opacity:1" />
  <g
     id="stadiums"
     data-country="sweden"
     data-circle-radius="15"
     transform="translate(0,191.09888)" />
</svg>
