<?xml version="1.0" encoding="UTF-8" standalone="no"?>
<!-- (c) ammap.com | SVG map of Sweden - Low -->

<svg
   xmlns:amcharts="http://amcharts.com/ammap"
   xmlns:dc="http://purl.org/dc/elements/1.1/"
   xmlns:cc="http://creativecommons.org/ns#"
   xmlns:rdf="http://www.w3.org/1999/02/22-rdf-syntax-ns#"
   xmlns:svg="http://www.w3.org/2000/svg"
   xmlns="http://www.w3.org/2000/svg"
   xmlns:sodipodi="http://sodipodi.sourceforge.net/DTD/sodipodi-0.dtd"
   xmlns:inkscape="http://www.inkscape.org/namespaces/inkscape"
   version="1.1"
   id="svg29"
   sodipodi:docname="swedenLow.svg"
   inkscape:version="0.92.4 (5da689c313, 2019-01-14)">
  <metadata
     id="metadata33">
    <rdf:RDF>
      <cc:Work
         rdf:about="">
        <dc:format>image/svg+xml</dc:format>
        <dc:type
           rdf:resource="http://purl.org/dc/dcmitype/StillImage" />
      </cc:Work>
    </rdf:RDF>
  </metadata>
  <sodipodi:namedview
     pagecolor="#ffffff"
     bordercolor="#666666"
     borderopacity="1"
     objecttolerance="10"
     gridtolerance="10"
     guidetolerance="10"
     inkscape:pageopacity="0"
     inkscape:pageshadow="2"
     inkscape:window-width="1920"
     inkscape:window-height="1017"
     id="namedview31"
     showgrid="false"
     inkscape:zoom="0.295"
     inkscape:cx="-262.90949"
     inkscape:cy="-896.11519"
     inkscape:window-x="-8"
     inkscape:window-y="-8"
     inkscape:window-maximized="1"
     inkscape:current-layer="g27" />
  <defs
     id="defs4">
    <style
       type="text/css"
       id="style2">
			.land
			{
				fill: #CCCCCC;
				fill-opacity: 1;
				stroke:white;
				stroke-opacity: 1;
				stroke-width:0.5;
			}
		</style>
    <amcharts:ammap
       projection="mercator"
       leftLongitude="11.105169"
       topLatitude="69.061149"
       rightLongitude="24.170696"
       bottomLatitude="55.338154" />
    <!-- All areas are listed in the line below. You can use this list in your script. -->
    <!--{id:"SE-M"},{id:"SE-O"},{id:"SE-K"},{id:"SE-C"},{id:"SE-AB"},{id:"SE-I"},{id:"SE-AC"},{id:"SE-Y"},{id:"SE-BD"},{id:"SE-Z"},{id:"SE-S"},{id:"SE-N"},{id:"SE-U"},{id:"SE-D"},{id:"SE-E"},{id:"SE-T"},{id:"SE-G"},{id:"SE-W"},{id:"SE-H"},{id:"SE-F"},{id:"SE-X"}-->
  </defs>
  <g
     id="g27">
    <path
       style="fill:#cccccc;fill-opacity:1;stroke:#ffffff;stroke-width:0.5;stroke-opacity:1"
       d="M 583.25,0 551.71094,2.4003906 567.09961,39.009766 543.7793,114.14062 434.85938,83.720703 419.67969,175.7207 l -36.29883,-21.4414 -69.05078,97.57031 14.2207,69.51953 -56.87109,106.81055 -56.62891,34.48047 -12.58008,148.18945 -41.77148,75.64062 28.62109,20.08008 -8.06054,58.71875 -60.5293,-5.42968 -49.160158,63.23046 -10.769531,41.85938 19.539063,134.63086 -9.289063,70.51952 43.898439,46.1504 -10.66016,38.2793 -27.699216,6.9102 21.310547,72.08 -9.59961,44.8809 -36.140625,21.6094 -2.330078,74.5195 -12.080078,41.8809 -30.4707031,-7.0899 6.8203121,70.6602 40.070313,1.5488 -4.480469,3.5312 4.890625,9.8301 -7.890625,36.0098 -6.240234,7.1289 15.53125,29.0703 60.419921,123.3106 -27.810546,18.5898 36.519536,66.0703 -13.43946,33.3203 81.61914,-0.8808 22.54102,-71.2793 12.9707,2.5293 -5.16992,-9.3789 2.58008,-5.4903 38.77929,2.8887 2.32032,-4.1992 4.59961,3.0293 6.44922,-6.1992 14.53124,5.3789 -2.29101,5.75 3.82031,2.1816 12.98047,-27.1699 31.29883,-78.1504 -7.16016,-14.7598 1.78125,-7.3301 -1.53125,-3.6308 13.31055,-22.0488 -10.19922,-17.5313 11.75977,-8.5605 -17.88086,-21.7989 16.98047,17.1504 -14.5,-17.1504 13.71093,-10.7793 6.79883,-38.3711 -23.40039,-17.7695 31.94141,-1.5801 -46.07032,-16.6406 h 36.44922 L 399.41016,1408 l 4.40039,-24.0293 14.16015,36.1992 7.31836,-21.5801 24.8418,-11.6796 -8.04102,-21.1504 21.04102,0.9004 L 425,1355.5703 l 64.5,-40.791 -20.61914,-2.2988 11.51953,-10.0508 -2.31055,-9.3594 9,11.4395 2.24024,-7.3907 -20.08008,-24.4882 -11.23047,-2.7715 -53.5,-46.7696 -17.78906,-14.7597 -11.5,-8.4492 9.01953,-9.2305 -3.18945,-1.7695 -0.0508,-3.9707 -1.39063,-0.3106 1.39063,-3.1504 -2.17969,-7.0898 -5.33008,-6.2793 5.42969,-7.9707 -5.40039,-0.9395 -0.41016,-23.0898 3.68164,-3.9199 -6.99023,-10.7793 10.83007,0.8593 -13.31054,-33.9609 26.64062,-6.7285 -9.02148,-30.6211 9.15039,-35.2305 -9.5,-45.67967 43.75,-12.82031 -22.43945,-52.67969 8.31054,-0.83008 -1.28125,2.73047 4.16993,9.08985 2.58984,-0.61915 0.83984,13.09961 8.60156,-5.14062 4.16993,4.45117 -8.31055,3.68945 11.26953,2.24024 23.09961,-24.01953 -20.2793,-5.52149 24.99024,-15.20898 -5.44922,-8.61133 11.56836,2.75 -3.33984,-9.16992 7.4707,0.83008 -3.07031,6.82031 8.49023,-5.81055 -9.82031,-6.36914 18.25,10.83008 15.91015,-37.59961 82.26954,-45.16992 56.02148,-90.58008 -34.06055,-55.15039 32.94922,-33.58984 -19.20898,-38.82032 21.69922,13.88086 -10.5293,-16.86132 35.26953,-15.97852 -10.7793,-9.98047 21.16016,-1.99023 -26.57031,-26.23047 38.80859,27.25976 -11.85937,-32.18945 26.85937,-21.76953 91.41016,12.68945 -30.28907,-73.69922 20.66016,-74.37109 -25.58984,-53.84961 11.1289,-41.84961 -20.20898,-10.33008 13.96875,-74.23047 -66.39844,-79.16992 z m 129.19922,508.73047 1.27148,2.93945 -0.29101,-1.65039 z m -17.79883,0.35937 0.15039,1.94922 1.16016,0.45117 z m 15.71875,0.49024 2.28125,2.50976 -1.04101,-2.16992 z m 85.2207,1.23047 -1.86914,1.83984 1.0586,-0.0898 z m 0.94922,0.21875 0.82032,1.90039 -0.0898,-1.83008 z m -56.50976,0.45117 0.43164,1.5293 1.26953,-0.11915 z m 15.24023,0.0391 0.98047,1.39063 0.0508,-0.93946 z m -65.24023,0.21094 2.28125,1.32031 -0.58008,-0.73047 z m 95.28125,1.07031 -0.50977,0.94922 1.04883,-0.0508 z m -80.36133,0.35938 -1.73828,1.93945 2.04883,-0.56055 z m -9.63867,2.25 0.53906,0.7207 -0.16992,-0.71094 z m 15.79883,0.58007 -0.17969,7.01954 4.76953,0.67968 z m 69.85156,0.45899 -0.22071,1 0.53907,0.45117 z m -31.07032,0.0703 -0.36132,0.30078 0.24023,0.54883 z m -6.20117,0.0508 -2.02929,0.33985 2,1.40039 z m 8.97071,0.29883 -0.82032,1.66992 1.16993,0.85156 z m -10.97071,0.75 -3.26953,0.54102 1.5,1.25 z m 49.95117,0.52148 -0.91992,1.13868 0.99024,0.48047 z m -48.13085,1.0293 -3.58985,0.98047 5.66016,2.78906 z m 32.20117,0.15039 -7.3418,3.25 3.44141,3.66992 z m -19.05078,0.46875 0.0293,2.98047 1.66016,0.90039 z m -36.41993,0.47071 4.29883,9.77929 1.68164,-4.31836 z m 16.90039,0.54101 0.5293,1.43945 0.32031,-0.4707 z m 22.24024,0.0684 2.08008,2.55078 -0.36133,-1.23047 z m -58.33008,0.0117 -0.55078,0.13867 0.96094,0.53125 z m 37.50977,0.71875 -0.46094,1 0.61133,-0.19922 z m -39.28125,0.36133 0.45117,1.27929 0.45898,-0.40039 z m -6.75977,1.25976 -2.09961,1.37891 2.05078,1.07031 z m 104.69141,0.28907 -1.91016,0.70117 3.06836,2.05859 z m -4.25,1.37109 1.79883,1.11914 -0.42969,-1.06055 z m -7.52149,1.26953 0.83008,2.11914 1.5,-1.16015 z m -81.17968,1.40039 -1.44922,4.28906 2.25976,0.10938 z m 15.79101,0.76953 -0.48047,0.51953 1.58008,1.19922 z m -11.07031,0.10938 -0.66016,1.12109 1.98047,0.28906 z m -14.70117,0.55078 -0.45899,0.28906 1.39063,1.31055 z m 101.9414,0.17969 0.83008,1.32031 -0.16016,-1.16992 z m -68.08984,0.0605 -1.55078,0.31836 1.92969,1.40039 z m 66.16992,0.01 1.0586,1.88867 0.32031,-0.5 z m -64.46094,0.15039 2.10938,2.08008 0.54101,-1.69141 z m -15.58984,0.91992 -1.33008,0.66992 1.98047,1.61914 z m 62.51953,0.0898 0.13086,1.95899 0.78906,0.51953 z m -85.98047,0.72852 -0.0586,0.90039 1.2793,0.16016 z m 95.5,0 -0.26953,0.79102 0.94141,-0.0508 z m -25.18945,0.74024 -0.31055,0.32031 0.67188,0.0898 z M 789.68945,532 l -0.25,0.73047 0.63086,0.28906 z m -15.26953,0.31055 -1.08008,1.77929 2.54102,0.65039 z m -49.14062,0.0898 -0.49024,0.5 1.73047,1.71875 z m -19.58008,1.5 -1.94922,0.11914 2.11914,1.19141 z m -10.5,0.68945 1.15039,2.35938 -0.23047,-1.81836 z m 20.39062,0.97071 -0.16015,0.83007 0.56054,-0.15039 z m -23.00976,1.53906 -0.92969,0.41016 2.61914,2.48046 z m 97.34961,0.88086 -0.98047,1.96875 0.7207,-0.18945 z m 9.84961,0.45898 -0.41016,0.14063 0.33008,1 z m -97.16992,0.0996 -2.45899,1.1211 3.0293,0.74023 z m 73.75,0.40039 -0.16016,0.77149 0.71094,0.0195 z m -86.58008,0.45117 -0.92969,1.0586 0.86133,0.82031 z m 82.89062,0.36915 -1.98047,4.12109 2.49024,-0.0215 z m -67.25,2.27929 -6.80078,1.88086 4.13086,3.26953 z m 9.56055,3.41016 -1.81055,0.5 2.31055,1.68164 z m -8.58985,1.06055 -1.00976,2.40039 2.9082,-1.01954 z m 5.26954,1.01953 3.50976,4.63086 0.0801,-3.49024 z m -19.90039,1.16992 -0.2793,0.91992 0.78906,0.39063 z m -5.26954,0.63086 2.11915,4.00976 1,-0.9707 z m -8.58984,0.20898 10.36914,6.25 -3.32031,-4.07812 z m 82.79883,1.02149 -1.16992,0.78906 1.33008,0.75 z m -50.79883,0.0293 -1,0.60938 1.48047,1.28125 z m -9.83984,0.0801 3.70898,2.66016 -0.21875,-1.76953 z m -28.65039,2.43946 0.6289,3.58007 1.58008,-2.83007 z m 28.11914,0.66015 -2.5586,2.36133 4.00977,2.63867 z m 7.53125,0.0898 2.74023,2.04101 -1.30078,-2 z m -38.69141,0.39062 -2.51953,0.17969 1.33008,1.62109 z m 2.62109,1.59961 -0.84961,0.33984 1.53907,1.47071 z m 40.36915,0.24023 -1.91016,2.81055 1.85156,-0.57031 z m -6.25977,2.79102 0.9707,1.5 v -1.46094 z m -29.58984,0.75976 0.38085,5.58008 4.8086,0.93946 z m 28.41015,0.8086 -1.20898,1.74023 h 1.77929 z m -18.7793,1.12109 -1.29101,3.46875 8.03125,-2.66992 z m -11.56054,2.41016 -0.66992,2 1.58007,-0.61133 z m 22.75976,3.86914 1.85938,2.23047 -0.0391,-1.82031 z m -25.58984,0.74023 -2.03906,0.26954 1.41992,1.08984 z m -4.58008,1.54102 -1.30078,1.29883 3.27148,2.23047 z m 23.13086,0.21875 3.46875,5.06055 0.29102,-1.29102 z m -35.32031,0.58008 0.79883,1.42969 2.04101,0.52148 z m 40.61914,0.0898 -0.69922,0.83008 1.66016,0.96094 z m -42.98047,0.16992 -5.64844,0.39063 10.01953,5.57031 z m 43.95117,4.72071 -2.17969,0.64062 1.58008,-0.31055 z m -35.34961,0.59961 -0.90039,1.25976 1.93946,0.69141 z m -8.62109,3.08984 0.78125,1.65039 2.76953,-0.0391 z m 37.68945,1.82031 -1.30859,0.13086 1.19922,0.96875 z m -37.77929,4.94922 1.60937,4.04102 5.05078,-0.0293 z m 11.02929,0.71094 0.8711,1.03906 -0.33985,-0.91992 z m -7.45898,6.69922 -2.81055,0.16992 5.25977,5.58984 z m 3.82031,5.50976 2.21875,2.18164 -0.9082,-1.88086 z m 4.68945,1.28125 -1.93945,0.0391 1.92969,0.86132 z m -17.10937,4.99024 -0.75,0.53906 2.28906,2.59961 z m 2.48047,1.03906 0.14844,2.73047 1.02148,-0.041 z m -7.30078,5.7207 -1.2793,2.83008 2.43945,-1.80078 z m -20.14063,28.92969 2.57031,4.05078 -0.58007,-3.23047 z m -7.87891,26.93945 5.0293,5.23047 -3.16992,-1.58008 z m 22.70899,15.84961 0.12109,1.08008 0.50977,-0.1582 z m -22.90039,56.98047 0.41016,1.03125 -1.09961,-0.9707 z m -6.46875,52.55078 -0.95117,1.7793 0.6914,-0.16992 z m -18.51953,0.43946 -0.8711,1.71093 0.39063,-0.60156 z m 9.41992,1.92968 -1.56055,4.00977 4.91992,-0.84961 z m -17.07031,0.34961 0.0391,1.8418 -0.90039,0.80859 z m 22.1289,2.70117 -5.22851,11.10938 2.82812,-0.25977 z m -23.42968,4.97071 1.08007,2.22851 0.01,-1.58984 z m 18.60937,8.54883 -2.5,3.08007 0.93164,1.22071 z m -36.95898,1.9707 1,1.75 0.33007,-0.76953 z m 31.51953,5.63867 -1.79883,3 1.9082,-0.83008 z M 538,827.42969 l 0.0195,4.74023 L 538.25977,831 Z m 1.32031,10.32031 -0.48047,2.10938 0.72071,-0.16993 z m -24.71093,2.51953 1.66015,2.70117 1.04102,0.71875 z m -4.78907,2.09961 -0.23047,2.21094 0.39063,-0.44922 z m -14.42969,23.86133 -0.7207,0.2793 1.41992,1.25976 z m -16.31054,11.33984 -1.41016,0.83008 1.10938,0.5293 z m -2.26953,4.87891 -2.06055,0.9707 0.78906,0.58985 z m -11.63086,0.9707 -0.89063,0.63086 1.61133,1.81836 z m 6.18945,1.38086 0.98047,1.25 1.37109,-0.68164 z m -0.79883,1.37891 -0.0195,1.12109 0.46875,-0.56055 z m -1.81054,5.75976 -0.33985,2.09961 0.51953,0.40039 z m -6.81055,1.07032 -0.68945,0.83984 0.73046,2.51953 z m -6.72852,3.42968 0.26953,4.99024 3.32032,-4.5293 z m 9.17969,5.03125 -2.41992,4.91992 1.79883,-0.61132 z m -46.05078,14.76953 -1.38867,0.57032 0.59961,1.29883 z m 24.37109,8.07032 0.21875,0.75976 -0.1289,0.87891 z m -20.52148,7.67968 2.64062,3.59961 0.84961,-2.34961 z m 16.71094,0.45899 -2.38086,2.23047 0.5,1.41992 z m -8.83985,4.65039 -5.24023,5.63086 9.38086,-4.44141 z m -1.24023,10.07031 -3.84961,1.39063 5.48047,1.09961 z m -10.75,20.99024 -0.40039,0.27929 0.15039,0.24024 z m -12.41992,37.98044 1.26953,4.2793 2.29101,-4 z m -11.91993,33.5489 2.15039,1.5703 0.17969,-1.1289 z m -0.75976,0.3105 -0.26953,1.0098 0.77929,0.6601 z m 2.73047,29.5996 -0.23047,1.2207 2.11914,-0.6699 z m -15.35156,19.3203 0.7207,3.1504 0.93945,-2.2305 z m 10.16015,2.8692 -4.70898,0.541 6.00976,1.0195 z m -7.09961,48.3007 -1.16015,1.7598 1.05078,1.7402 z m -5.08984,14.9707 -1.91016,2.629 2.57031,0.6914 z m 5.38086,30.709 -1.36133,0.1914 -0.01,2.4688 2.80078,-0.6699 z m 64.91992,33.9414 -2.33008,1.25 3,1.0899 z m 2.41992,9.3399 -2.25,10.5097 9.96875,7.629 z m 10.48828,20.9394 -0.75976,1.42 2.27148,-0.1 z m -8.35937,7.2696 4.83984,3.8906 -0.23047,-2.0606 z m 6.98047,1.3711 -1.69922,1.2285 3.84961,0.5 z m 7.41015,0.1894 0.74024,6.9004 3.59961,-2.4902 z m 25.60938,42.1406 -2.60938,3.8399 2.17969,-1.4805 z m -10.66016,0.1 -4.43945,8.4004 6.45898,-2.3613 z m 8.79102,8.879 -1.59961,0.4804 1,1.3008 z m 5.72851,0.7812 -2.5,1.1699 1.64063,1.209 z m -5.51953,3.459 0.54102,1.2305 1.95898,0.019 z m 18.20117,5.4512 -0.81054,0.8183 0.48046,-0.1484 z m -14.89062,3.9589 -0.0703,0.1309 0.15039,0.068 z m 0.95898,0.7598 0.6211,1.3301 0.41992,-1.1699 z m -17.11914,0.1 -3.14062,0.4707 2.64062,0.9492 z m 15.09961,0.961 -1.29883,0.3105 1.87891,0.8184 z m -13.35937,0.5 -10.15039,9.7304 1.63085,0.1485 z m 6.69922,0.2207 -0.88868,1.4589 1.8086,-0.4394 z m -5,0.25 -5.67969,6.8496 7.06054,-3.2696 z m 18.35156,4.8984 -0.58008,0.3711 -0.29102,0.9902 z m -4.92188,1.3906 -1.69922,1.9199 2.16016,-1.08 z m -7.42968,2.4492 -1.8086,0.8711 3.3086,-0.3711 z m -22.21876,5.3614 -10.53124,6.1992 2.78124,7.25 z m 29.76954,3.709 -0.79102,0.5507 -0.0898,0.8789 z m -21.85938,2.5214 -6.49023,1.5 7.17968,-0.7812 z m -4.82031,2.9082 -5.63086,2.1602 4.18945,-0.1699 z m 46.84961,1.25 -0.61914,0.2618 0.80859,0.5996 z m -36.17969,0.092 -3.09961,2.6993 2.92969,0.789 z m 18.66016,0.2696 -0.81055,0.1699 0.85938,1.2891 z m -55.44141,1.1797 2.02148,1.539 1.17969,-0.5195 z m 39.52148,1.4902 -0.56054,3.3496 1.90039,-2.5293 z m 3.78907,0.3203 -0.18946,0.3496 0.36915,-0.061 z m -39.78907,0.1 4.13868,3.1504 -1.56836,-2.1816 z m 33.84961,1.5606 -1.33984,0.6191 2.95899,2.6094 z m -3.41992,0.7187 -1.12109,0.4707 1.15039,0.7305 z m -45.99023,2.6406 8.7207,1.2989 -3.58008,3.3613 z m 35.89062,0.4805 -1.25,8.7891 4.20899,-3.8399 z m -307.03125,1.1484 20.21094,37.2403 -17.32031,52.2109 -77.779299,27.5606 23.509769,-81.25 26.90039,17.5898 -4.32032,-42.0605 z m 320.08985,1 -2.17969,0.3106 -0.84961,3.7207 z m -0.78907,5.3204 -2.37109,0.2207 1.86133,-0.01 z m -33.66015,1.3496 16.18945,4.8613 -5.37891,-3.5996 z m 34.7207,0.8711 -1.12109,0.5195 1.73047,1.6094 z m -6.51172,0.3203 -5.33984,3.1797 3.39062,0.2695 z m -11.82812,6.539 -1.67188,0.961 1.55078,0.2187 z M 449,1377.7109 l 1.33008,1.1192 -0.14063,-0.8692 z m 17.2793,1.5391 -1.88868,3.7695 4.74024,-2.459 z m -1.84961,2.4395 -1.03907,0.25 -0.79101,1.7304 z m -3.87891,6.8203 -1.57031,0.6699 0.82031,0.1894 z m -7.08008,1.6211 -8.35156,9.8086 6.94141,-2.7989 z m 17.06836,0.4199 -2.02929,1.709 0.75,0.8593 z m -8.30859,0.9492 -1.61133,1.2109 0.43164,1.8496 z m -58.16992,3.9004 -2.25,13.5391 3.72851,3.7597 z m 53.41992,1.3203 -1.70117,0.5898 -0.42969,2.9903 z m -23.33985,0.3887 -1.02148,1.4511 2.2207,-0.6699 z m 3.42969,3.8808 -6.84961,0.209 -3.20117,7.2617 z m -11.28125,5.7696 -2.30859,5.08 2.26953,-1.0996 z m 19.5918,0.9394 -9.70117,6.5801 7.42969,-1.8398 z m -8.5,3.1406 -2.46094,0.2696 -1.05078,3.7715 z M 1.6699219,1413.6406 0.22070312,1419 l 4.51953128,-0.01 z m 413.7597681,2.0098 -3.41016,11.9394 3.45117,-6.5605 z m 17.38086,0.7402 -2.77149,3.75 1.08008,0.1895 z m -26.78125,3.7891 1.31054,3.3594 0.24024,-1.5 z m -6.00977,1.75 3.55078,4.6308 2.68946,1.0704 z m 15.7207,8.4512 0.57032,4.3593 0.15039,-3.1211 z m -21.77929,2.1582 -4.23047,0.4004 1.46875,4.121 z m -1.97071,3.75 -0.0605,2.5 1.37109,-0.8399 z m -166.50976,1.1718 11,3.6993 -17.96094,65.7695 -22.82031,49.8203 -7.19922,-23.4707 z m 131.91992,21.6192 0.95899,1.7695 2.42968,0.5606 z m 3.7793,3.3203 1.65039,1.6289 0.88086,-0.8086 z m 1.45117,7.9004 -1.76172,0.3594 0.85156,0.8203 z m -7.20117,3.4492 -4.50977,2.3301 8.09961,5.039 z m 140.92969,0.6094 6.25976,5.1601 2.45117,-2 z m -142.57032,10.4707 2.16016,3.6406 0.55078,-3.1211 z m 5.38086,4.039 -0.58984,2.2207 1.09961,-1.8007 z m 5.81055,0.42 -0.69141,1.8007 2.04102,-1.6699 z m -316.470704,2.2011 -23.169922,13.2403 3.089844,6.75 21.009765,-6.1407 z m 310.871094,5.0899 -0.89063,1.9804 2.22071,-0.1308 z m -8.62109,11.0996 2.15039,0.7305 1.26953,0.019 z m -305.310551,5.3594 -14.580078,3.4804 5.861328,10.5606 z m 453.000001,7.8105 -11.22852,9.6895 18.25977,-6.6485 z m -459.289064,11.9199 -4.710937,2.0899 1.810547,2.3711 z m 308.349614,3.6504 -1.76954,1.6504 5.25,3.8203 z m 124.42968,1.5899 -39.71875,33.0097 0.62891,70.041 47.67969,-52.5312 -9.78907,-26.3984 19.41016,-22.5411 z m -125.66992,3.4609 -3.17969,0.459 3.22071,2.8301 z m -307.458983,8.9902 -1.140625,3.8496 2.689453,-0.5996 z m 9.039062,8.42 -3.089843,1.0097 3.269531,1.7285 z m 298.089841,3.6386 -3.08007,4.8809 4.54101,-2.5703 z m -1.30859,11.2403 0.58984,1.6406 1.72852,0.9004 z m 23.73828,20.3203 -39.58984,84.1191 0.55078,40.2207 z m -17.10937,9.6797 -0.36915,0.6406 0.86915,0.4004 z m -13.82032,8.9804 -2.20898,1.9004 h 2.48047 z m 1.08985,6.3692 3.99023,2.3711 -2.15039,-1.3907 z m -71.86914,105.3398 v 1.4903 l 0.82031,-0.7286 z m 14.25976,3 -2.11914,2.6602 2.0586,0.75 z m 7.88086,0.1504 -2.68164,0.1 2.52148,2.7403 z m -13.63086,0.4609 -1.19922,2.0391 2.85938,0.4707 z m -2.84961,0.3887 -2.92969,1.4707 2.3086,1.25 z m -30.67969,0.031 -1.57031,0.2695 1.20899,1.3203 z m 42.09961,0.58 1.29883,4.9688 1.82032,-4.7793 z m 8.14063,9.5196 -1.43164,0.1 0.15039,2.0605 z m -59.07031,1.5703 0.80859,1.8691 0.45117,-1.3789 z"
       id="SE-M"
       inkscape:connector-curvature="0" />
  </g>
</svg>
