<?xml version="1.0" encoding="UTF-8" standalone="no"?>
<!-- (c) ammap.com | SVG map of Switzerland - Low -->

<svg
   xmlns:amcharts="http://amcharts.com/ammap"
   xmlns:dc="http://purl.org/dc/elements/1.1/"
   xmlns:cc="http://creativecommons.org/ns#"
   xmlns:rdf="http://www.w3.org/1999/02/22-rdf-syntax-ns#"
   xmlns:svg="http://www.w3.org/2000/svg"
   xmlns="http://www.w3.org/2000/svg"
   xmlns:sodipodi="http://sodipodi.sourceforge.net/DTD/sodipodi-0.dtd"
   xmlns:inkscape="http://www.inkscape.org/namespaces/inkscape"
   version="1.1"
   id="svg34"
   sodipodi:docname="switzerlandLow.svg"
   inkscape:version="0.92.4 (5da689c313, 2019-01-14)">
  <metadata
     id="metadata38">
    <rdf:RDF>
      <cc:Work
         rdf:about="">
        <dc:format>image/svg+xml</dc:format>
        <dc:type
           rdf:resource="http://purl.org/dc/dcmitype/StillImage" />
      </cc:Work>
    </rdf:RDF>
  </metadata>
  <sodipodi:namedview
     pagecolor="#ffffff"
     bordercolor="#666666"
     borderopacity="1"
     objecttolerance="10"
     gridtolerance="10"
     guidetolerance="10"
     inkscape:pageopacity="0"
     inkscape:pageshadow="2"
     inkscape:window-width="1920"
     inkscape:window-height="1017"
     id="namedview36"
     showgrid="false"
     inkscape:zoom="1.18"
     inkscape:cx="-477.6919"
     inkscape:cy="-292.5581"
     inkscape:window-x="-8"
     inkscape:window-y="-8"
     inkscape:window-maximized="1"
     inkscape:current-layer="g32" />
  <defs
     id="defs4">
    <style
       type="text/css"
       id="style2">
			.land
			{
				fill: #CCCCCC;
				fill-opacity: 1;
				stroke:white;
				stroke-opacity: 1;
				stroke-width:0.5;
			}
		</style>
    <amcharts:ammap
       projection="mercator"
       leftLongitude="5.956647"
       topLatitude="47.807842"
       rightLongitude="10.492616"
       bottomLatitude="45.817599" />
    <!-- All areas are listed in the line below. You can use this list in your script. -->
    <!--{id:"CH-AG"},{id:"CH-AI"},{id:"CH-AR"},{id:"CH-BE"},{id:"CH-BL"},{id:"CH-BS"},{id:"CH-FR"},{id:"CH-GE"},{id:"CH-GL"},{id:"CH-GR"},{id:"CH-JU"},{id:"CH-LU"},{id:"CH-NE"},{id:"CH-NW"},{id:"CH-OW"},{id:"CH-SG"},{id:"CH-SH"},{id:"CH-SO"},{id:"CH-SZ"},{id:"CH-TG"},{id:"CH-TI"},{id:"CH-UR"},{id:"CH-VD"},{id:"CH-VS"},{id:"CH-ZG"},{id:"CH-ZH"}-->
  </defs>
  <g
     id="g32">
    <path
       style="fill:#cccccc;fill-opacity:1;stroke:#ffffff;stroke-width:0.5;stroke-opacity:1"
       d="m 16.38725,66.232554 -0.45117,2.738282 1.62109,0.78125 0.17969,1.839843 -1.48047,0.740235 -1.69922,-1.5 -3.50977,1.240234 -0.70117,1.539063 -1.2792903,-1 -5.05078,2.560546 -3.24024004,4.560547 0.65039004,3.519532 -1.48047004,-0.01953 -5.01952996,4.898438 2.04102,2.880859 -2.05078,2 0.88085,1.560547 1.58008,-0.04102 2.85937996,2.40039 3.08008004,-0.5 -0.57032,1.958984 1.58985,1.580079 -0.16016,-2.158203 2.59961,1.679687 V 98.43177 l 4.7812503,0.279297 -0.41992,-2.958984 0.90039,-0.580079 1,1.179688 v -1.5 l 2.45898,-1.099609 2.58985,1.560547 3.63086,-2.060547 1.42773,2.242187 0.002,0.0078 1.78907,2.269531 -1.7793,2.439449 -1.15039,-0.378902 0.98047,-0.861328 -0.73047,-1.648438 -1.73047,1.830078 1.21094,5.50977 -1.16992,1.91992 -0.39063,-0.041 -2.40039,2.2207 -1.89844,-1.06055 -9e-5,-0.01 1.70899,-2.20899 -0.69922,-1.12109 -4.12109,-2.70899 -2.8203203,-0.46093 -1.34961,3.07031 -3.86914,0.53906 -1.51953,2.31055 -1.5,0.32031 1.45899,3.4707 2.88085,-0.91015 0.64844,1.5293 -8,2.89062 -1.9082,-0.56055 -0.002,0.0137 -2.81836,-1.58398 -2.11133,2.23047 -7.5996097,-1.16016 -3.94922,-3.42969 -0.11133,-3.34961 -1.77929,-1 -2.53907,0.33985 -1.12109,-1.24024 -4.19922,2.07032 -1.03125,-2.52149 -2.26953,-0.47851 -4.91992,5.1289 -2.28907,-0.25976 -1.66992,2.34961 -3.66015,0.54101 -2.44141,4.67969 -3.03906,-1.32031 -6.33985,2.76953 -8.33984,-1.43945 -2.08008,2.79101 -4.20117,-1.30078 -0.41992,-4.21094 -2.36914,-3.16992 -6.75977,1.04102 -2.63086,-1.16016 -3.50976,6.06055 -10.78125,3.43359 -0.0684,-0.0234 -2.61914,1.5 -2.74024,-0.16016 -5.52148,-5.66015 5.74023,-0.54102 0.73047,-1.10937 0.43946,0.83008 0.31054,-1.33008 -2.19922,-2.73047 0.86914,-1.08008 1.89063,-1.7793 -2.50977,1.79883 -3.57031,-0.73828 -3.87109,3.56836 -3.86914,-2.64844 -0.89063,3.00977 -2.32031,-0.33985 -1.2793,2.38868 -7.75976,5.14062 0.34961,2.17969 2.31054,-1.2793 1.54883,1.11914 -1.04883,2.91992 -2.58984,-0.0801 -0.79102,-1.08984 1.58008,3.64063 c -0.78906,-2.55079 -0.78906,-2.55079 0,0 l 0.0703,1.11914 -4.17968,3.24023 -5.91993,-3.47851 -1.90039,3.43945 1.23047,-0.48047 3.50977,1.81055 -1.68946,2.38867 0.002,0.002 -1.90235,0.57812 -1.08984,2.55078 -5.40039,2.82032 -7.10938,-1.89063 -6.33984,1.39063 -5.18164,2.58984 -1.46875,-3.58008 -4.83008,0.70899 -3.57031,-1.62891 2.24023,-7.75976 2.04883,-2.22071 -4.1582,0.97071 -5.76172,-2.8711 -1.72852,1.6211 -5.33984,1.46875 -5.38086,-2.16993 -2.13086,-1.05859 -5.03906,2.05859 2.55078,8.03125 -4.07031,1.48047 -1.70117,2.51953 -2.58008,0.13868 -0.33984,5.39062 -3.21876,0.32031 -0.01,3.13086 -3.91992,2.84961 -0.75,4.21875 3.32812,-1.34961 2.63086,0.75977 9.58985,-1.49024 2.99023,-1.88867 4.38086,2.08985 0.21875,2.90039 1.49023,0.91015 -2.08984,3.23828 -4.83008,0.43164 0.75,2.25977 -2.59961,3.68945 -7.20117,1.50976 1.65039,8.83985 -10.13867,8.46093 -0.86133,3.0586 -4.37891,2.52148 2.36915,1.21875 -7.16016,7.1211 -8.61914,4.16992 -0.0195,3.40039 -2.14063,-0.0801 -3.12109,1.89844 0.5,1.40039 -1.97852,1.54101 3.68946,3.21876 -7.92969,4.52148 -3.66016,5.83984 -17.33008,6.33985 -1.09961,-1.58985 -8.75976,9.09961 4.30859,7.40039 -0.54883,7.41992 -2.37109,3.84961 -0.34961,3.40039 -1.23047,0.68946 0.61133,2.11914 3.09961,2.46094 -2.62109,5.07031 -5.99024,2.98047 -0.95898,2.78906 -2.39063,0.73047 0.0898,1.26953 -2.43945,1.75 -9.41992,4.73047 -13.98047,14.67969 -9.25,7.60937 6.25976,6.14063 -1.42968,3.02929 -1.08985,-0.28906 -3.27929,4.08008 -2.32032,5.65039 -3.2207,3.64844 1.78125,3.71093 -2.91016,5.16993 4.17969,1.51953 7.45899,6.24023 1.34179,-0.25 1.28907,2.30078 -6.01954,9.59961 0.0508,0.0566 -0.6914,4.37305 -2.42969,1.92969 3.00977,6.63086 -2.78907,2.42968 -2.36132,-1.76953 -1.96875,1.08985 -1.43164,-0.66016 -1.91993,2.66016 -1.83007,-1.33985 -4.47852,3.72852 -1.30078,-0.5 0.23047,1.38086 -1.62078,-0.33 -2.08008,3.91016 4.05078,2.92968 -0.9707,2.33008 -0.64844,-0.7207 -3.39062,8.70117 4.91015,-3.16016 4.65039,0.75977 1.06836,1.15039 2.1211,-3.28125 5.48046,0.041 0.29883,1.75 4.53125,0.56054 8.14844,-5.36132 -0.19922,-2.46876 6.06055,-5.00976 2.15039,0.1582 6.37891,-3.9082 1.93945,-3.66992 -0.0293,-2.33008 -1.68945,0.20898 -0.16016,-1.70898 -2.32031,2.38867 -2.41993,0.0195 -3.11914,-5.03906 2,-2.55078 -0.61132,-2.54883 -3.69922,-1.64062 v 0 0 l -0.0606,-0.01 1.66992,-3.61914 v 0 0 0 0 0 0 0 l 1.2793,-2.55076 -0.041,-0.0215 2.08203,-3.74804 22.83984,-10.63086 12.4707,-7.73047 22.01953,0.4707 18.61915,5.36914 0.0449,0.0488 -2.38477,7.13281 0.45117,2.06836 -1.78124,2.36133 -2.22852,0.61914 -0.71094,1.75 1.85938,4.04102 1.91015,0.88867 0.11133,1.70117 3.47852,1.90039 0.39062,1.83008 2.46094,2.21875 1.67969,-0.0195 0.76953,1.94922 -1.31055,4.86132 -4.50976,4.58985 -2.36915,5.43945 1.10938,4.14063 -2.61914,3.66992 0.58008,5.0293 2.53906,1.63085 2.63086,-0.67968 8.5,1.56836 -2.01172,5.65039 0.98047,4.21093 -2.40039,4.25977 2.32031,1.74023 4.26953,-4.00976 2.01172,0.0195 0.0195,1.76953 1.83985,0.54102 1.55078,3.96875 2.46875,2.23047 0.57031,2.8789 3.43945,1.55078 0.13086,1.82032 1.84961,1.77929 -1.9707,1.97071 3.66992,2.61914 0.8418,6.03125 6.52929,8.83007 1.08008,3.50977 2.24024,0.0605 5.08984,-3.92188 2.45899,3.05078 2.27148,0.94922 3.4082,-5.59961 4.44141,-1.02929 1.16992,0.89062 4.83008,-6.37109 3.84961,2.09961 3.05078,-0.68946 5.80859,3.32032 2.03125,-2.74024 2.41016,-0.0391 3.86914,-3.87109 3.10938,-0.61915 -0.0996,-2.58984 3.54101,-2.76172 5.84961,1.10156 0.13867,-4.32031 1.22071,-1.50976 3.24023,-0.21094 1.85938,3.31055 6.58984,0.11914 3.46094,-1.5293 2.41015,3.89062 3.48047,1.42969 0.0391,3.0293 1.89063,2.11133 1.74023,-0.0801 2.21875,-3.01172 2.31056,0.38104 4.17969,3.84961 2.9707,-1.71875 5.62891,1.94922 1.18164,-0.68946 0.86914,-10.58007 1.83984,-0.75977 2.07031,-3.5 9.2793,-0.46094 1.63086,0.76954 1.46875,-3.03907 1.4707,-0.0605 0.93946,-2.57032 -0.63868,-1.41992 3.08008,-2.18945 -1.78125,-5.54102 1.41016,-5.25 9.80078,-2.26953 1.48047,-3.7793 5.0293,-2.62109 -0.32032,-3.92969 2.07032,-3.00976 -3.58985,-8.61914 -3.38086,-2.53125 -0.50976,-2.24024 -4.51953,-2.05859 8.42968,-8.38086 3.81055,1.16016 5.76953,-2.28907 1.96094,-5.08984 5.0293,-2.24024 0.0898,-3.54101 h 2.9707 l 4.47852,-4.08008 -0.0391,-2.62891 -3.72071,-1.6914 2.05078,-3.25977 2.61915,-0.21875 5.23046,-5.03125 3.1406297,-0.36914 c 7.60960996,-2.33001 7.60960996,-2.33001 2.4e-4,0.0489 l 7.60936996,-2.37891 3.59961004,4.11915 -1.66992,1.89062 1.98047,7.2793 -1.30078,1.77148 1.12109,4.7793 -0.99023,1.75 0.25976,3.99023 -5.17968,6.89063 3.94922,6.55859 -1.76954004,1.79102 0.13086,1.41992 2.47852004,0.79883 1.15039,2.43164 8.0312503,2.63867 0.96875,3.5 3.45117,3.05078 1.37891,3.93945 3.90039,1.66993 -0.82031,2.80078 2.12109,3.70898 4.64844,-0.23047 1.36132,1.90039 4.67969,2.19141 3.58008,-0.37109 3.16992,-3.49024 2.23047,3.69141 3.29883,1.70898 3.20117,-1.35937 6.20899,5.08007 0.0703,2.92969 -1.25,2.08985 -1.50977,-0.42969 0.39063,1.62891 -4.80078,5.02148 -2.1211,5.0293 6.3711,0.34961 5.09961,5.35937 3.7207,0.87109 0.10937,4.41016 3.49024,5.50977 -0.33985,2.10937 1.25,1.01953 0.69922,3.98047 1.38086,0.21094 -4.21093,4.26953 -0.35938,2.67969 6.08008,-2.32031 0.84961,1.58007 2.82031,-0.51953 1.84961,0.98047 -0.88867,2.63867 6.17968,0.15039 -0.61132,-1.58007 2.58984,-5.36915 -0.0801,-2.63085 5.3711,-5.71876 -0.5,-0.85156 -1.43946,0.58008 -0.0312,-2.5293 -1.00976,0.23047 -1.12891,-1.91015 -5.41016,-1.41016 -0.66992,-5.93945 -3.21093,-1.83985 0.62109,-2.16992 1.46875,0.0391 0.68945,-1.60937 2.19141,-0.81055 -2.98047,-8.59961 1.42969,-2.75 4.2207,-2.34961 3.69922,-0.45117 1.62109,-4.35937 -2.10156,-6.32032 6.38086,-3.17968 5.90039,-6.59961 c -5.90039,6.59961 -0.0096,-0.0313 -0.0096,-0.0313 l 2.43946,0.0215 1.82031,-2.16016 0.91016,-5.03124 2.41015,-1.87891 0.25977,-3.33008 3.78906,-0.26953 0.5,-6.40039 4.33008,-5.92969 -0.25,-2.91992 2.08008,-2.65039 -0.83008,-1.70117 0.54101,-3.69922 -2.85156,-3.16992 1.23047,-3.08008 -0.92969,-1.36914 0.40039,-4.06055 -3.64062,-2.91992 -0.73047,-2.56055 0.12109,-1.25 3.40039,-1.75 0.57032,-7.66015 11.48828,-2.53907 1.58984,1.08985 -0.81836,1.66992 0.84961,1.94922 4.94922,3.46093 3.31055,-6.33007 3.75976,-1.91993 -0.58007,3.86915 -1.82032,0.67968 2.58008,1.55078 -1.37891,11.2793 1.79883,5.26953 -0.67968,3.74024 4.91015,1.5 2.60938,7.85156 3.95117,4.80859 1.2793,-0.94922 3.37109,2.31055 3.34961,0.0801 3.46875,1.70898 5.64062,-3.18945 1.97071,1.67969 3.33984,0.0703 1.60938,-4.07031 -1.0293,-1.84961 0.95898,-3.67969 1.58985,-1.41992 1.23047,-0.27148 4.32031,3.15039 8.06054,-5.2793 4.76954,-0.23047 4.59961,-3.36914 2.52929,2.89844 1.04102,-1.59961 3.15039,-0.83008 1.09961,2.80078 4.31054,2.40039 -2.04101,5.64844 2.74023,1.75 -0.99023,4.56055 0.89062,1.43945 7.35938,3.46094 0.70117,3.08984 -2.05078,3.74023 3.38086,2.34961 2.7793,-2.01953 5.90039,0.43946 5.63867,-5.91016 -2.85938,-6.88867 -5.24023,-4.28125 -1.50977,-3.58008 0.34961,-3.95899 2.84961,-1.81054 -0.0684,-3.17969 1.64844,-1.63086 2.9707,-0.54883 0.41016,-4.25 -0.7793,-1.00976 -1.5,0.79883 -0.75976,-3.10938 -1.8418,-0.64062 -4.17969,1.99023 -2.3789,-0.0605 -0.54102,-1.33984 -2.05859,0.18945 -0.6211,-2.5 -2.33984,-0.98828 1.88086,-3.91016 -1.5,-2.75 0.75976,-3.91015 -0.78124,-1.64063 1.61132,-2.35937 -1.33008,-3.91016 5.01954,-4.5 -0.0996,-2.37109 2.65039,-1.33008 0.20898,-5.66992 3.74024,0.96094 7.9707,-4.08008 3.43945,1.68945 3.37891,-3.23047 2.64062,4.6211 -2.40039,3.81054 0.66016,2.89844 1,0.94141 1.96094,-1.1211 2.51953,1.24024 1.26953,4.08008 2.06055,0.68945 2.15039,-0.7793 1.67968,1.64063 1.74024,-2.66016 5.85937,2.31055 2.89063,-1.27149 4.92969,3.91016 1.02929,-1.83984 1.71094,-0.50977 2.31055,-13.43945 -5.98047,-5.39063 -6.00977,0.83008 -2.20117,-9.60938 4.04102,-5.03124 0.21875,-1.62891 -2.19922,-2.98047 5.75976,-4.58008 -0.53906,-3.06054 -2.66992,-3.62891 2.70898,-0.95117 2.15039,-3.68946 0.0195,-2.91015 1.91015,-3.86914 -0.75,-7.17969 1.41992,-1.46094 1.83985,-9.11914 -4.58985,-2.9707 -3.83007,-0.89063 v -3.53906 l -3.83008,-4.13086 -1.74024,-0.62891 -1.86914,1.83985 -3.32031,0.20898 -2.67969,7.1211 -2.59961,1.24023 1.08985,4.38867 -2.54102,1.08985 -7.37891,-2.28907 -2.21093,6.89063 1.21093,2.41992 -0.49023,3.59961 -5,-0.0312 -3.37109,3.16016 -6.18946,0.45117 -2.32031,1.37891 -2.54883,-3.91016 -4.33008,-0.13867 -0.45117,-2.75 -4.49023,-5.04102 -3.8086,-0.16015 -1.78124,-2.69922 -5.17969,0.52929 -8.37891,-4.36914 0.33008,-4.4707 -1.05078,-1.13867 2.86914,-5.07032 -0.45899,-2.13085 -2.34961,-1.92969 1.01954,-2.10938 -2.50977,-0.49023 -3.2207,2.00976 -7.26953,-5.00976 -4.21094,0.30859 -4.45899,-1.3789 -1.38085,-1.97071 -2.59961,-0.33984 -1.19922,-1.43945 -4.79102,0.60937 -1.53906,1.59961 -3.95117,-2.08984 -6.0293,2.54101 -0.80078,-1.51953 -2,-1.66992 -6.18945,1.6582 -0.92969,1.44141 -0.55078,-1.41016 -0.81055,0.6836 -0.4082,-2.29297 5.41992,-4.01172 0.91992,-2.18945 -1.31055,-8.24024 -3.17968,-8.7793 6.01953,-17.65039 2.13086,-1.77929 1.5,-3.92969 3.49023,-2.62109 2.86914,-7.74023 2.56055,-2.90039 4.01953,-0.39844 2.57031,-2.78125 v -1.78906 l -2.91015,-3.04102 -0.88086,-5.25 1.82031,-4.01953 -5.16992,-1.41016 -1.31055,-1.91015 -0.93945,1.45117 -1.0293,-0.25977 -7.23047,-11.88086 c 0,0 7.23047,11.88086 -0.01,-9e-5 l -3.79688,-4.9336 0.006,-0.006 -1.10937,-1.52148 c 1.10937,1.52148 1.10937,1.52148 -0.0293,0.0216 L 137.71749,114.75216 100.11788,96.252165 97.946,96.492399 95.97725,94.412321 91.3171,94.11154 87.09639,91.732633 78.04756,90.412321 61.96749,97.922086 58.38741,96.701383 c 0.858237,-0.118112 -0.163678,0.05211 -0.0098,-4.7e-5 l -1.21093,-4.25 -2.25,-1.480468 1.12109,-1.759766 -1,-0.71875 3,0.398437 -0.20117,-1.939453 -3.00977,0.01953 -0.81054,-1.738282 -3.35938,-0.261718 -1.84961,-2.298829 0.79883,-0.580078 -0.45931,-1.990344 -1.42968,0.599609 0.24023,1.519532 -1.13086,-0.298829 -2.70898,2.039063 -0.0801,2.300781 3.08008,0.359375 2.30859,2.240235 -1.57031,0.90039 -0.39844,2.994141 -4.9707,-2.875 -4.20899,-0.898438 1.24805,-4.511718 -3.17969,-2.398438 1.25,-3.28125 2.56055,-0.740234 -1.76953,-2.638672 -1.84961,-0.88086 -2.74024,1.960938 -1.35156,-5.720703 -2.50976,-0.740235 -1.5,-2.320312 -1.33008,2.380859 1.07031,2.980469 -3.12891,2.878906 -1.35156,-1.699218 -0.19922,-6.310547 -5.65039,-0.220703 z m 13.53906,18.679688 2.66016,1.019531 2.40039,-0.960937 1.93554,4.410156 -1.64648,0.320312 -1.86914,-1.160156 -3.66016,2.03125 -0.68945,-1.541015 2.26953,-1.660157 -1.58984,-1.058593 z m 19,7.089844 0.008,0.002 -1.46679,0.757812 -0.004,-0.002 z"
       id="CH-AG"
       inkscape:connector-curvature="0"
       sodipodi:nodetypes="cccccccccccccccccccccccccccccccccccccccccccccccccccccccccccccccccccccccccccccccccccccccccccccccccccccccccccccccccccccccccccccccccccccccccccccccccccccccccccccccccccccccccccccccccccccccccccccccccccccccccccccccccccccccccccccccccccccccccccccccccccccccccccccccccccccccccccccccccccccccccccccccccccccccccccccccccccccccccccccccccccccccccccccccccccccccccccccccccccccccccccccccccccccccccccccccccccccccccccccccccccccccccccccccccccccccccccccccccccccccccccccccccccccccccccccccccccccccccccccccccccccccccccccccccccccccccccccccccccccccccccccccccccccccccccccccccccccccccccccccccccccccccccccccccccccccccccccccccccccccccccccccccccccccccccccccccccccccccccccccccccccccccccccccccccccccccccccccccccccccccccccccccccccccccccccccccccccccccccccccccccccccccccccccccc" />
  </g>
</svg>
