<?xml version="1.0" encoding="UTF-8" standalone="no"?>
<?xml-stylesheet type="text/css" href="/styles/home.css"?>
<!-- https://www.amcharts.com/svg-maps -->

<svg version="1.1" xmlns="http://www.w3.org/2000/svg" id="map-turkey"
   viewBox="0 0 792.58868 334.49701">
  <defs
     id="defs4">
    <style
       type="text/css"
       id="style2">
			.land
			{
				fill: #f05340;
				fill-opacity: 1;
				stroke:white;
				stroke-opacity: 1;
				stroke-width:0.5;
			}
		</style>
    <!-- <amcharts:ammap projection="mercator" leftLongitude="25.663689" topLatitude="42.099732" rightLongitude="44.819611" bottomLatitude="35.805510"></amcharts:ammap> -->
    <!-- All areas are listed in the line below. You can use this list in your script. -->
    <!--{id:"TR-01"},{id:"TR-02"},{id:"TR-03"},{id:"TR-04"},{id:"TR-68"},{id:"TR-05"},{id:"TR-06"},{id:"TR-07"},{id:"TR-75"},{id:"TR-08"},{id:"TR-09"},{id:"TR-10"},{id:"TR-74"},{id:"TR-72"},{id:"TR-69"},{id:"TR-11"},{id:"TR-12"},{id:"TR-13"},{id:"TR-14"},{id:"TR-15"},{id:"TR-16"},{id:"TR-17"},{id:"TR-18"},{id:"TR-19"},{id:"TR-20"},{id:"TR-21"},{id:"TR-81"},{id:"TR-22"},{id:"TR-23"},{id:"TR-24"},{id:"TR-25"},{id:"TR-26"},{id:"TR-27"},{id:"TR-28"},{id:"TR-29"},{id:"TR-30"},{id:"TR-31"},{id:"TR-33"},{id:"TR-36"},{id:"TR-32"},{id:"TR-34"},{id:"TR-35"},{id:"TR-46"},{id:"TR-78"},{id:"TR-70"},{id:"TR-36"},{id:"TR-37"},{id:"TR-38"},{id:"TR-79"},{id:"TR-71"},{id:"TR-39"},{id:"TR-40"},{id:"TR-41"},{id:"TR-42"},{id:"TR-43"},{id:"TR-44"},{id:"TR-45"},{id:"TR-47"},{id:"TR-48"},{id:"TR-49"},{id:"TR-50"},{id:"TR-51"},{id:"TR-52"},{id:"TR-80"},{id:"TR-53"},{id:"TR-54"},{id:"TR-55"},{id:"TR-63"},{id:"TR-56"},{id:"TR-57"},{id:"TR-73"},{id:"TR-58"},{id:"TR-59"},{id:"TR-60"},{id:"TR-61"},{id:"TR-62"},{id:"TR-64"},{id:"TR-65"},{id:"TR-77"},{id:"TR-66"},{id:"TR-67"}-->
  </defs>
  <path
     d="m 445.34591,206.92392 -3.09,8.85 -2.93,3.51 3.24,1.66 -2.8,3.97 2.49,5.4 -1.16,3.6 -2.89,2.9 v 0 l -5.49,2.81 -2.15,3.22 -1.29,4.13 -0.47,4.38 2.33,10.57 -1.24,9.1 v 0 l -2.23,2.65 0.25,2.58 v 0 l -8.98,8.59 -4.99,-0.04 -1.64,1.05 -0.84,1.74 0.91,-0.42 0.01,1.18 0.04,-1.49 1.01,-0.55 0.12,1.52 1.81,-0.22 -0.21,-0.74 1.08,0.75 -3.2,2.23 -0.78,3.14 -2.95,2.12 -5.13,-1.28 -3.83,2.67 -13.85,-8.74 -4.12,-0.62 v 0 l 2.14,-1.06 0.16,-0.96 2.74,0.23 0.02,-1.1 0.69,0.67 1.29,-1.71 2.84,0.73 0.81,-1.54 -0.68,-6.76 -1.35,-6 -3.01,-1.78 -1.69,-0.01 -0.92,-2.32 -2.19,-1.27 0.02,-1.54 2.02,-1.89 -0.08,-1.23 -6.09,-7.11 -0.7,-3.67 v 0 l 2.63,-2.09 -0.76,-1.45 1,-1.36 1.56,-7.07 5.05,0.61 3.29,-5 4.54,-2.7 v 0 l 5.44,1.9 1.32,-0.34 1.27,1.69 7.13,0.43 1.23,-2.07 1.29,-9.35 3.28,-1.42 4.36,-4.7 6.58,-2.48 2.52,-6.52 3.65,-4.99 5.12,-1.5 z"
     class="land"
     title="Adana"
     id="TR-01" />
  <path
     d="m 557.61591,211.19392 3.31,-1.09 1.63,2.9 -1.77,4.38 -2.34,2.49 v 0 l -3.04,0.61 -1.28,1.13 -1.32,3.64 -2.22,0.95 0.76,0.7 -0.57,3.07 -2.13,-0.03 -1.24,1.21 2.5,-0.05 0.05,2.59 -1.7,0.54 -0.22,1.43 -1.25,0.84 -2.67,0.53 1.42,2.03 -8.28,1.69 -6.71,5.86 -2.07,1.08 -6.86,0.52 -1.09,1.72 -1.97,-0.34 -0.86,2.09 -3.81,-2.06 v 0 l -5.63,-2.39 -7.59,-0.26 -1.69,-1.85 -4.33,1.35 -1.79,-0.84 v 0 l -1.42,-3.67 -3.92,-0.42 -0.68,-1.96 1.34,-1.97 0.27,-3.13 2.56,-2.67 -0.15,-4.58 3.28,-1.87 1.46,-2.63 v 0 l 0.86,0.93 -0.44,1.82 3.16,-0.72 1.04,2.49 2.04,-1.13 4.39,0.94 4.68,-0.9 4.01,-3.73 -0.71,-3.31 -1.35,-1.83 0.39,-1.09 7.2,-2.74 1.64,-2.28 1.42,-0.54 4.09,-0.27 5.89,2.88 0.71,1.13 2.05,0.39 6.92,4.75 8.46,-3.39 0.45,-1.38 z"
     class="land"
     title="Adıyaman"
     id="TR-02" />
  <path
     d="m 198.20591,155.52392 3.23,0.59 2.05,4.93 2.86,1.36 3.22,3.27 1.72,-4.03 8.12,0.88 0.97,-2.01 -3.01,-2.01 -0.23,-1.16 2.46,-0.19 3.21,1.36 0.56,-1.6 1.96,-0.34 1.19,-3.11 1.4,-0.92 3.86,2.67 3.57,-1.01 4.49,4.18 0.61,2.86 3.5,0.98 1.77,2.71 v 0 l 1.16,2.26 5.3,0.91 0.56,0.92 -5.95,1.21 0.79,1.49 -0.5,5.52 -3.39,6.3 0.44,1.77 2.23,2.02 -12.3,8.01 -1.21,3.75 v 0 l -1.29,0.21 -1.87,-2.96 -2.54,-2 -5.57,0.88 -3.11,3.03 -3.7,1.67 -3.09,5.34 -5.93,3.75 -5.45,1.36 -6.83,7.55 -4.02,1.85 -3.13,3.98 0.2,3.53 -2.15,4.33 v 0 0 0 l -7.8,-0.33 v 0 l -7.68,-4.37 -1.36,-3.05 0.33,-2.84 5.23,-4.88 2.03,-3.27 4.39,-0.22 1.9,-3.1 2.76,-2.25 -2.45,-6.74 -2.64,-1.1 -1.14,-1.78 -1.76,-0.2 -1.37,-1.56 -1.64,-0.02 -2.07,-1.4 v 0 l 4.69,-6.13 1.55,-0.89 -1,-4.02 3.93,-3.38 0.6,-2.58 v 0 l 2.08,-0.59 2.63,-3.5 2.85,-1.18 2.46,-3.91 -0.48,-7.15 3.35,-2.19 2.73,-0.12 z"
     class="land"
     title="Afyonkarahisar"
     id="TR-03" />
  <path
     d="m 696.84591,119.89392 23.7,-5.79 7.42,1.18 v 0 l 3.11,0.83 2.88,3.41 0.54,7.02 2.41,-0.22 1.64,-2.58 1.71,-0.45 3.37,2.63 7.15,0.67 3.6,2.71 h 6.34 l 4.26,1.34 3.76,-0.46 5.38,2.33 3.83,-0.47 v 0 l 0.26,3.87 -2.31,2.37 0.74,3.34 -1.07,1.69 0.41,3.01 -5.47,2.2 -2.43,-2.31 -3.65,1.01 -3.08,-0.75 -1.41,1.75 v 0 l -6.81,1.08 -3.01,4.87 -3.25,2.87 -3.24,-0.41 -4.3,-2.27 -5.22,-5.61 -5.4,-0.37 -4.69,1.39 -0.17,7.97 -4.06,3.28 -3.15,5.59 v 0 l -2.23,0.74 -0.25,2.82 -5.26,2.33 -4.75,-0.67 v 0 l -0.21,-6.44 0.81,-4 -4.15,-9.15 -0.55,-3.41 -3.44,0.06 -1.55,-4.06 -3.5,-3.61 v 0 l 1.52,-2.83 3.39,-2.67 0.67,-1.49 -2.94,-3.07 -5.34,-2.78 -1.91,-4.34 1.19,-1.23 z"
     class="land"
     title="Ağrı"
     id="TR-04" />
  <path
     d="m 339.69591,165.50392 1.12,0.98 2.16,-0.95 0.78,1.09 2.47,-0.34 1.57,3.03 -0.02,2.35 4.31,4.32 2.25,0.85 2.65,-0.52 v 0 l 1.07,0.96 -0.21,3.89 -1.52,2.81 0.38,2.6 4.53,2.42 2.93,4.49 0.44,3.74 1.6,1.54 v 0 l -3.1,1.81 -0.79,5.81 -3.37,4.98 -2.1,1.6 -4.38,1.1 -3.36,3.32 v 0 l -26.07,6.18 -2.88,-3.21 -1.74,-3.85 -4.04,-2.93 -0.45,-4.36 -2.1,-3.55 2.99,-9.56 3.12,-3.44 1.3,-3.94 5.31,-1.72 v 0 l 3.96,-0.09 6.76,-2.67 2.64,-5.66 -1.28,-4.21 1.7,-2.61 0.18,-3.44 z"
     class="land"
     title="Aksaray"
     id="TR-68" />
  <path
     d="m 390.56591,56.893916 5.1,0.63 1.65,2.08 5.42,-0.91 2.75,1.45 1.44,-1.05 0.56,1.24 1.37,-1.02 1.58,3.81 3.05,1.53 -0.34,1.69 0.8,1.05 4.31,0.17 1.49,1.44 5.08,-1.21 6.91,2.83 1.66,-4.97 1.25,-0.44 0.98,-2.1 5.53,2.04 0.29,1.09 -1.65,1.91 4.71,1.9 v 0 l 0.5,1.77 3.37,1.79 -3.25,2.92 0.24,2.45 -1.09,2.01 -5.62,0.44 0.28,1.27 2.68,0.44 -2.04,1.68 -0.88,2.2 -5.44,2.49 -1.16,1.63 -3.82,-1.41 0.09,-0.94 -1.65,-0.87 -5.59,0.29 -1.07,3.09 -2.54,1.62 -0.17,1.71 -2.47,1.67 -4.77,1.08 -4.77,3.050004 v 0 l -2.72,0.49 v 0 l 2.38,-4.010004 -2.04,-1.51 1.34,-2.82 -0.65,-1.91 1.92,-0.8 0.01,-1.71 1.61,-1.13 0.58,-2.06 -2.41,-4.23 -4.58,-1.09 0.18,-3.69 -5.74,-0.41 -3.97,1.14 -3.86,-2.94 -0.38,-3.39 2.97,-5.56 -2.55,-3.26 3.11,-2.44 z"
     class="land"
     title="Amasya"
     id="TR-05" />
  <path
     d="m 285.21591,76.843916 3.92,-0.27 7.34,4.32 4.88,1.19 0.66,1.56 -0.95,3.58 3.76,0.03 5.38,2.15 4.58,7.55 2.33,-1.15 1.58,-2.49 2.6,0.49 1.18,1.49 3.43,-0.41 6.57,1.14 0.8,1.04 v 0 l -2.47,0.49 0.07,1.44 -2.08,2.050004 0.55,0.66 -1.14,2.33 0.69,1.29 -0.85,4.41 1.1,1.65 -2.39,2.29 -6.69,2.36 -2.46,6.74 -1.3,0.4 0.42,3.56 -3.18,5.32 5.64,4.84 0.74,6.92 -0.5,2.47 1.56,0.74 v 0 l 2.08,3.21 -1.1,1.1 2.58,1.59 2.8,5 2.97,1.18 4.38,3.81 0.23,1.35 4.07,0.26 0.7,0.98 v 0 l -1.19,2.82 -0.18,3.44 -1.7,2.61 1.28,4.21 -2.64,5.66 -6.76,2.67 -3.96,0.09 v 0 l -4.48,-6.91 -1.28,-7.28 0.32,-5.96 -5.83,-3.65 -2.27,-2.84 -0.83,-4.96 2.94,-1.6 -0.68,-1.52 -3.13,1.02 -3.58,3.33 -1.2,-0.85 0.35,-3.91 -0.69,-0.68 -6.21,1.74 -1.21,1.84 -0.77,4.43 -2.75,1.37 -0.36,3.98 -3.39,2.08 -4.04,-1.89 -2.32,3.41 -1.29,0.51 -2.58,-0.31 -3.5,-2.63 -2.51,1.12 -1.06,-1.24 -3.15,4.37 -4.1,-0.42 -1.9,-1.88 -3.54,-7 -1.07,-0.46 v 0 l 0.34,-2.51 6.2,-6.79 -0.13,-1.08 -2.77,-1.15 0.76,-1.5 -1.05,-1.51 0.67,-4.07 -1.68,-0.6 0.38,-1.39 -1.88,-1.95 -1.39,-5.58 -2.65,-3.7 1.64,-4.6 1.23,-1.08 -2.01,0.32 0.87,-1.19 -0.56,-0.6 -2.22,0.34 -1.41,-1.22 -1.3,-1.87 -0.12,-1.93 -1.73,-0.79 0.66,-1.89 -2.02,0.45 0.39,-2.27 -1.96,1.59 -3.49,-0.77 -1.41,0.96 -1.73,-1.27 -2.54,1.45 -0.57,-1.03 1.64,-0.53 -1.49,-0.93 -2.13,0.89 -2.98,-0.89 -3.05,0.87 -3.29,-1.34 -0.71,1.05 -3.01,0.38 -0.41,0.99 -3.17,-0.1 -3.44,-1.81 -1.05,-4.74 v 0 l 4.09,-2.51 8.42,-9.410004 4.31,0.66 7.33,-1.27 0.99,0.68 0.65,2.5 6.28,0.77 6.27,-1.28 6.11,0.23 2.97,-2.39 2.85,-0.5 3.4,0.49 1.81,1.88 2.92,-0.35 0.89,-1.89 -2.4,-3.48 1.22,-3.82 2.06,-1.47 7.84,-2.47 0.12,-1.3 -1.52,-1.82 0.18,-1.58 1.29,-1.07 z"
     class="land"
     title="Ankara"
     id="TR-06" />
  <path
     d="m 235.11591,249.33392 3.26,3.2 8.94,2.08 2.8,-0.4 3.47,-2.07 1.72,0.1 1.06,2.91 2.15,2.11 2.3,6.9 4.26,5.95 7.46,3.44 1.44,1.74 0.85,4.4 4.95,3.32 v 0 l -0.87,5.4 0.5,1.84 6.02,6.21 v 0 l 3.47,10.46 -2.32,6.31 0.76,2.27 -1.86,3.44 v 0 l -3.06,-0.45 -7.74,-6.25 -5.6,-9.47 -5.93,-6.3 -1.35,0.55 -1.15,-1.47 -7.73,-2.37 -1.41,-1.69 -3.13,-0.64 -4.68,-3.32 -6.83,-2.53 -0.04,-0.9 -2.36,-1.44 -13.37,-2.48 -10.1,0.54 -2.56,-1.96 -2.74,1.43 -2.33,3.03 -0.82,9.07 1.48,1.55 -3.51,6.36 0.07,1.36 -1.21,0.36 -0.16,1.79 2.17,3.3 -2.61,1.09 0.87,1.77 -3.31,3.43 0.18,-3.03 -1.82,0.07 -3.52,-2.28 -3.88,0.03 -1.51,0.66 -0.01,1.45 -0.5,-0.3 -1.02,1.62 -2.4,-1.47 -0.27,1.11 -2.66,1.91 -2.29,-0.88 -1.87,1.96 h -1.88 l -1.67,1.63 1.25,-0.23 -2.17,1.57 -0.75,-0.38 0.92,-0.69 -2.29,-0.27 -1.85,1.36 -2.05,-1.7 0.81,-0.24 -0.2,-1.11 -2.54,0.46 1.98,-0.94 -9.06,-0.98 0.19,-1.78 -1.14,-0.28 -0.86,0.09 -0.61,1.69 -3.63,-3.28 v 0 l 1.99,-1.36 -0.12,-3.42 0.88,-0.38 -0.46,-2.36 3.11,-1.68 5.13,-0.3 2.29,-2.03 2.16,-3.75 3.88,-2.45 1.29,-3.22 -0.02,-6.16 2.39,-4.18 -0.53,-2.24 -1.6,-1.35 v 0 l 3.61,-3.28 -0.72,-3.76 0.98,-1.82 4.4,-3.96 3.25,-1.15 6.59,-5 5.73,-0.38 7.07,4.3 12.51,0.42 1.54,-0.98 3.17,-6.5 -1.13,-1.58 v 0 l 2.65,0.05 3.58,2.99 4.11,-3.11 z"
     class="land"
     title="Antalya"
     id="TR-07" />
  <path
     d="m 704.65591,27.733916 3.22,1.35 2.5,-0.39 -1.41,4.86 1.95,1.35 0.69,-1.4 1.37,-0.18 v 1.2 l 2.82,1.56 2.19,4.14 3.1,0.97 1.7,2.14 3.12,0.76 -0.02,0.85 -3.45,1.94 2.75,0.08 1.6,4.2 4.83,-1.47 4.07,1.47 1.1,2.86 -1.14,1.36 0.99,1.63 -0.09,2.04 2.14,0.9 v 0 l -1.66,1.71 -4.32,0.4 -1.87,1.08 -6.47,-0.39 -3.05,1.27 -2.06,-1.03 -2.29,2.51 -3.67,1.92 -0.42,1.92 -4.32,4.73 -0.53,3.43 -3.7,0.19 -1.33,1.37 v 0 l -1.74,-0.39 -2.52,-5.26 -7.06,-1.64 -2.86,-5.65 v 0 l 2.52,-2.21 0.82,-2.41 -1.93,-1.71 -1.34,-3.1 1.92,-1.46 0.79,-3.21 5.1,-2.6 3.68,-4.21 -1.58,-3.72 -2.05,-1.73 0.24,-3.06 v 0 -1.84 l 2.46,-2 0.17,-3.1 1.02,-1.1 z"
     class="land"
     title="Ardahan"
     id="TR-75" />
  <path
     d="m 675.00591,32.153916 2.51,1.52 5.67,-1.13 1.14,1.3 3.21,-0.11 1.87,1.42 2.93,0.03 2,1.55 2.65,-0.03 v 0 l -0.24,3.06 2.05,1.73 1.58,3.72 -3.68,4.21 -5.1,2.6 -0.79,3.21 -1.92,1.46 1.34,3.1 1.93,1.71 -0.82,2.41 -2.52,2.21 v 0 l -3.37,-3.16 -9.19,-0.31 -5.32,5.04 0.51,5.52 -2.63,2.57 -0.43,3.05 -1.64,1.48 -1.68,0.07 -0.41,-3.07 -0.83,-0.35 -7.5,3.21 -5.31,3.89 -1.57,-0.3 -0.63,-2.21 -0.06,-3.69 1.6,-0.93 -0.03,-0.82 -2.35,-2.51 -7.44,-3.29 v 0 l 3.64,-4.96 0.81,-3.09 4.75,-5.41 2.71,-1.76 -5.73,-7.71 -0.2,-2.85 -1.31,-2.28 v 0 l 5.74,-2.33 6.11,-7.62 3.57,1.76 3.23,-0.45 -0.06,1.21 3.13,0.69 1.52,1.55 2.51,-1.56 1.87,-2.56 z"
     class="land"
     title="Artvin"
     id="TR-08" />
  <path
     d="m 122.98591,217.05392 2.78,1.23 1.6,1.78 4.54,0.83 -1.47,2.83 -3.01,0.33 0.47,5.59 1.39,2.07 4.44,2.83 -2.42,3.04 -0.77,3.4 -6.33,5.29 -0.46,4.15 -0.72,0.47 v 0 l -1.34,0.24 -5.47,-3.93 -9.13,-0.37 -0.67,-2.07 -5.33,4.28 -7.360004,-0.58 -5,0.87 -2.98,-2.65 -2.62,0.16 -4.28,-1.81 -3.01,0.48 -2.59,1.97 -0.68,3.81 v 0 l -1.55,0.56 -0.92,1.81 -1.07,-0.37 -0.08,1.79 -1.59,-0.69 -1.63,1.04 -2.25,-0.95 1.47,-2.57 -0.08,-3.53 -1.09,-0.76 -0.31,-3.01 -1,0.02 2.13,-2.22 -3.96,-2.27 -4.97,-1.47 1.11,-1.58 2.76,0.46 5.61,-2.25 1.47,-4.37 -1.34,-1.63 1.3,-2.9 v 0 l 3.31,1.46 0.79,2.37 2.82,-2.22 0.7,-4.28 3.48,-2.26 2.73,-0.09 5.31,2.74 11.81,-3.62 10.180004,-0.95 1.94,-1.47 0.69,-1.72 3.05,-0.98 3.43,1.75 1.2,-2.21 v 0 z"
     class="land"
     title="Aydın"
     id="TR-09" />
  <path
     d="m 40.135906,147.44392 1.65,0.23 -1.93,1 1.22,0.38 0.52,1.29 1.32,-0.5 -0.22,0.8 -2.77,0.36 -0.31,-2.83 -0.76,-0.34 z m 41.03,-59.910004 1.28,0.81 -0.73,1.33 1.24,0.13 0.11,1.09 -3.68,-0.91 0.2,-1.05 1.07,0.01 -0.36,-1.45 z m 5.51,-0.96 1,-0.06 0.31,1.09 3.08,-0.53 7.17,2.02 -0.63,1.69 -4.97,3.2 2.3,1.88 7.690004,-2.01 v 0 l 1.98,3.08 0.03,2.14 -3.13,5.410004 1.91,1.66 0.08,4.18 1.39,1.84 0.46,2.84 1.89,1.73 -0.04,3.27 1.63,2.37 1.62,1.12 3.78,0.27 2.06,2.51 4.63,2.66 2.71,-0.74 1.55,-1.63 1.41,0.34 0.64,5.77 1.42,-0.05 0.91,2.28 8.3,0.92 v 0 l 0.19,1.58 -2.87,3.04 0.91,6.6 -6.14,7.04 -7.27,1.33 1.6,4.04 v 0 l -3.51,-0.37 -7.12,3.9 -4.3,-0.8 -2.78,2.41 -1.84,0.28 -4.29,-6.25 -4.530004,-3.46 -1.32,-3.7 -1.35,-1.35 -4.29,2.89 -3.52,-3.59 -6.36,1.04 -4.66,-3.72 -2.49,1.53 v 0 0 0 l -6.55,1.61 -3.18,-0.94 -3.6,1.1 -3.16,3.6 -6.95,2.23 -2.64,3.66 v 0 l -1.92,-4.84 -4.57,-1.04 1.77,-2.43 0.17,1.03 -1.03,0.31 1.67,0.94 -0.36,-1.23 1.63,-1.79 4.29,-2.98 -0.28,-2.17 2.29,-0.37 0.11,-1.95 2.96,-0.41 0.93,-3.65 -1.08,-1.6 -1.93,-0.18 -1.75,1.49 -2.57,-0.72 -5.45,0.87 v 0 l 0.28,-3 2.56,-3.56 4.38,-0.99 3.29,-2.38 3.8,0.43 3.54,1.88 2.91,-0.23 6.42,1.77 3.4,-3.37 4.99,-2.95 0.99,-1.46 0.67,-5.49 -2.53,-4.3 0.12,-3.36 -3.36,-3.08 2.79,-4.33 3.07,-2.2 0.54,-1.89 -0.71,-1.580004 v 0 l 3.77,-1.48 1.89,1.1 3.35,0.1 5.02,-3.63 -2.39,-1.44 -1.07,0.89 -2.06,-2.5 0.12,-1.13 -2.53,-1.23 -0.14,-1.58 z m -9.09,-0.2 0.78,0.46 -1.16,1.06 0.47,0.74 -1.95,1.06 0.34,-2.85 0.82,-0.93 z m 4.39,-7.43 4.26,1.79 -5.54,3.19 -3.25,-1.2 0.13,-2.78 z"
     class="land"
     title="Balıkesir"
     id="TR-10" />
  <path
     d="m 292.54591,14.193916 0.61,2.13 1.54,1.1 -0.85,2.29 0.99,1.47 2.57,-0.05 2.32,-1.16 1.49,0.77 -3.21,8.2 v 0 l -2.04,0.39 -1.09,1.94 -5.69,2.42 -0.37,1.29 1.76,4.9 -1.32,3.1 -2.11,-1.52 -2.34,1.32 -2.43,-1.01 -3.86,2.8 -5.3,-1.42 v 0 l 1.56,-3.31 v -2.37 l -1.9,-2.23 0.02,-2.88 -2.82,-0.44 -2.41,-3.9 v 0 l 6.29,-6.71 2.2,-0.05 2.01,-1.62 1.21,0.58 3.5,-3.41 3,-0.56 0.28,-0.84 3.87,-0.17 z"
     class="land"
     title="Bartın"
     id="TR-74" />
  <path
     d="m 654.69591,191.39392 5.44,3.3 -0.87,5.54 1.71,5.93 2.04,2.48 v 0 l -3.25,6.39 -6.58,2.72 -5.14,4.96 -0.5,2.01 9.49,7.24 1.26,2.25 5.05,1.68 2.32,-0.48 2.18,1.47 v 0 0 0 0 0 l -2.16,1.87 -6.02,0.56 -4.3,3.75 -6.33,3.1 -11.42,0.99 -3.31,-11.35 v 0 l 2.09,-3.1 -2.91,-1.27 0.8,-2.85 4.48,-6.48 2.31,-6.53 2.58,-2.64 -2.44,-1.85 0.27,-6.8 4.36,-8.32 3.64,-1.18 v 0 l 3.13,-0.56 z"
     class="land"
     title="Batman"
     id="TR-BM" />
  <path
     d="m 617.35591,85.493916 -1.58,5.71 0.81,2.83 -2.71,8.050004 1.53,1.55 6.44,0.05 0.14,2.42 -1.86,2.63 -7.74,4.62 -5.44,-0.26 v 0 l -15.34,-0.55 -3.07,1.61 -3.22,3.16 v 0 l -3.77,-3.89 4.45,-5.7 2.95,-7.11 -0.22,-7.070004 1.23,-3.53 14.38,-2.45 v 0 l 8.72,-0.94 v 0 z"
     class="land"
     title="Bayburt"
     id="TR-69" />
  <path
     d="m 177.87591,87.103916 2.74,5.05 1.04,0.29 1.48,-1.56 1.68,2.93 2.13,1.4 2.4,0.47 4.17,-1.44 1.95,1.12 3.35,-1.54 1.75,1.81 1.96,-0.14 v 0 l 4.68,11.720004 v 0 l -3.32,1.21 -5.47,5.55 -2.15,1.09 -0.86,1.76 -2.44,1.76 -1.81,3.84 -6.48,1.18 -3.36,4.17 -1.16,3.85 v 0 l -6.08,-0.25 -1.55,-0.78 -3.47,-2.97 -1.7,-5.66 v 0 l 3.71,-3.44 -2.34,-2.54 -0.2,-1.34 1.22,-1.22 -0.68,-5.98 2.43,-1.58 -0.44,-3.39 1.53,-1.65 0.65,-5.570004 1.81,-1.94 -0.35,-4.29 z"
     class="land"
     title="Bilecik"
     id="TR-11" />
  <path
     d="m 610.09591,140.90392 7.16,-0.56 2.9,1 v 0 l -0.89,2.13 1.52,1.35 2.68,0.51 13.32,-1.57 5.02,4.75 v 0 l -1.73,2.26 -0.13,2.94 3.82,6.64 3.5,2 0.57,1.96 -0.68,1.55 -4.57,1.93 -2.66,3.17 -0.77,5.58 0.58,6.17 v 0 l -7.41,2.5 -2.6,3.96 -2.61,1.35 -6.04,-2.97 -0.74,2.78 -1.19,0.7 -3.81,-2.54 -3.41,-0.3 -2.64,2.81 -0.13,2.94 -0.92,0.96 -4.18,0.89 v 0 l -5.03,-9.97 2.36,-1.79 1.18,-2.16 4.08,-0.21 1.04,-0.79 -0.57,-1.89 -3.76,-2.7 -1.19,-3.36 0.27,-2.11 -0.87,-0.79 1.94,-3.39 -0.07,-2.87 2.83,-3.4 0.05,-1.99 -1.26,-0.75 -3.3,1.71 -4.65,0.76 -4.04,2.77 -3.93,-0.04 v 0 l 1.99,-7.22 2.63,-2.28 -1.19,-4.25 7.56,0.52 z"
     class="land"
     title="Bingöl"
     id="TR-12" />
  <path
     d="m 716.63591,166.61392 3.13,2.55 1.03,2.39 5.1,2.3 0.19,1.45 -2.21,3.18 -5.67,3.38 -4.04,3.75 -6.47,9.67 -0.36,6.15 -4.65,3.21 0.01,1.21 1.66,1.26 0.41,2.41 -1.86,10.13 v 0 l -0.67,1.16 -2.25,0.9 0.34,0.96 -1.38,1.25 -0.68,-1.3 -3.06,-1.04 -10.2,-11.56 -4.21,-0.11 -3.42,2.08 -1.57,0.04 -0.91,-0.35 -0.14,-1.26 -4.45,0.8 -1.72,-0.61 -1.25,-1.95 -4.32,-0.02 v 0 l -2.04,-2.48 -1.71,-5.93 0.87,-5.54 -5.44,-3.3 v 0 l 0.26,-0.89 3.03,-1.47 7.85,0.42 7.08,1.66 1.15,-2.77 5.82,-5.28 -0.32,-3.44 2.21,-1.05 0.82,-2.92 1.46,-1.65 9.99,-3.04 10.1,0.87 v 0 l 4.75,0.67 5.26,-2.33 0.25,-2.82 z"
     class="land"
     title="Bitlis"
     id="TR-13" />
  <path
     d="m 271.19591,55.523916 5.02,0.71 v 0 l 2.07,6.89 0.05,3.42 4.75,-0.12 3.09,4.71 -0.96,5.71 v 0 l -3.27,0.58 -1.29,1.07 -0.18,1.58 1.52,1.82 -0.12,1.3 -7.84,2.47 -2.06,1.47 -1.22,3.82 2.4,3.48 -0.89,1.89 -2.92,0.35 -1.81,-1.88 -3.4,-0.49 -2.85,0.5 -2.97,2.39 -6.11,-0.23 -6.27,1.28 -6.28,-0.77 -0.65,-2.5 -0.99,-0.68 -7.33,1.27 -4.31,-0.66 -8.42,9.410004 -4.09,2.51 v 0 l -2,-0.81 -4.66,1.2 v 0 l -4.68,-11.720004 v 0 l 0.8,-1.82 -0.29,-6.03 6.73,0.25 5.67,-1.2 2.32,-2.25 -1.86,-3.5 1.47,-2.44 v 0 l 6.61,0.88 4.59,-0.69 2.95,-4.53 1.26,-3.98 6.29,-2.79 0.96,-7.55 v 0 l 4.71,-1.8 7.64,-0.04 3.24,1.53 z"
     class="land"
     title="Bolu"
     id="TR-14" />
  <path
     d="m 184.36591,231.61392 4.94,0.52 7.46,-2.73 1.28,1.67 -0.86,2.74 0.68,1.35 3.6,0.67 3.62,-0.52 5.47,2.96 0.75,5.17 3.25,3.35 0.5,3.32 1.54,0.38 v 0 l 1.13,1.58 -3.18,6.5 -1.53,0.98 -12.51,-0.42 -7.07,-4.3 -5.73,0.37 -6.59,5.01 -3.25,1.15 -4.4,3.97 -0.98,1.81 0.72,3.77 -3.61,3.28 v 0 l -3.44,-1.26 -4.46,1.85 -3,7.28 -1.07,-0.27 -0.5,1.38 -2.71,-0.82 1.16,-2.62 -2.3,-0.02 -0.93,-1.12 v 0 l 1.88,-4.35 -1.41,-2.31 0.36,-1.39 4.18,-2.72 0.58,-5.4 1.49,-3.39 6.12,-6.36 -0.81,-1.68 -4.53,-2.62 -0.23,-1.12 1.56,-2.21 -1.38,-3.67 0.73,-1.04 3.1,-0.93 4.06,0.97 -0.78,-2.74 0.53,-0.77 5.96,-2 2.81,-3.58 v 0 z"
     class="land"
     title="Burdur"
     id="TR-15" />
  <path
     d="m 119.78591,84.413916 -1.24,2.96 -0.24,-3 z m 36.5,0.52 4.47,0.88 10.38,-3.28 7.23,1.88 v 0 l -0.49,2.69 v 0 l -3.18,1.92 0.35,4.29 -1.81,1.94 -0.65,5.570004 -1.53,1.66 0.44,3.39 -2.43,1.58 0.69,5.98 -1.22,1.22 0.2,1.34 2.34,2.54 -3.71,3.44 v 0 l -5.11,0.31 -1.75,-1.57 -3.66,-1.28 -1.53,6.22 -4.36,3.88 -0.77,2.53 -2.89,2.14 -1.02,1.84 -8.42,-0.23 v 0 l -8.3,-0.92 -0.91,-2.28 -1.42,0.05 -0.64,-5.77 -1.41,-0.34 -1.55,1.63 -2.71,0.74 -4.63,-2.66 -2.06,-2.51 -3.78,-0.27 -1.62,-1.12 -1.63,-2.37 0.04,-3.27 -1.89,-1.73 -0.46,-2.84 -1.39,-1.84 -0.08,-4.18 -1.91,-1.66 3.13,-5.410004 -0.03,-2.14 -1.98,-3.08 v 0 l 15.35,-0.33 6.3,1.93 5.36,-1.77 7.6,2.06 3.25,-0.43 1.59,-2.95 2.46,-0.26 -2.93,-2.9 -2.28,-0.07 -2.29,1.08 v 0 l 0.63,-5.44 8.85,1.83 4.93,-1.76 z"
     class="land"
     title="Bursa"
     id="TR-16" />
  <path
     d="m 16.615906,123.42392 0.87,2.2 -1.06,0.68 -3.83,-1.96 0.01,-0.81 z m -4.65,-21.21 1.14,1.08 -0.39,3.61 1.88,-0.72 -0.74,1.62 -10.4899999,2.16 -3.09000002,-1.79 0.26,-1.51 4.70000002,-3.04 z m 56.27,-11.550004 1.09,2.1 -1.19,0.65 0.91,1.54 4.66,2.66 4.17,1.11 v 0 l 0.71,1.580004 -0.54,1.89 -3.07,2.2 -2.79,4.33 3.36,3.08 -0.12,3.36 2.53,4.3 -0.68,5.48 -0.98,1.49 -4.99,2.95 -3.4,3.37 -6.42,-1.77 -2.91,0.23 -3.54,-1.88 -3.8,-0.43 -3.29,2.38 -4.38,0.99 -2.56,3.56 -0.28,3 v 0 l -6.91,1.55 -4.05,1.55 -0.36,0.86 -3.35,-0.31 -1.94,1.28 -0.72,-0.6 -3.62,1.09 -2.68,-1.01 1.4,-6.12 1.34,-1.1 0.96,-2.66 -0.92,-5.46 0.98,-3.33 -1.15,-1.15 1.82,-8.17 0.74,-0.78 2.93,0.41 2.08,-0.87 1.86,-4.38 1.83,-1.01 -0.21,-4.25 5.18,-1.47 1.68,-2.940004 1.39,-0.15 6.25,-6.6 6.49,-0.21 2.02,1.3 3.3,-0.49 2.21,-2.74 2.68,-0.48 2.1,0.92 3.33,-2.14 z m -21.54,-16.57 5.96,-0.28 3.1,1.05 -3.32,7.79 0.05,2.95 v 0 l -9.46,4.83 -0.03,1.85 -2.46,0.98 -0.36,2.04 -1.76,2.33 -3.11,1.64 -3.69,3.750004 -2.74,0.94 0.91,3.26 -3.6,3.19 -4.96,2.17 4.06,-8.13 0.42,-2.65 -2.14,-2.470004 0.77,-0.8 -1.21,-0.79 4.64,-2.43 5.13,-4.13 6.26,-3.37 3.61,-0.21 2.17,-2.76 0.95,0.67 2.74,-2.02 -1.19,-3.83 -3.76,0.52 v 0 z"
     class="land"
     title="Çanakkale"
     id="TR-17" />
  <path
     d="m 301.25591,51.733916 2.92,0.72 2.81,4.47 4.39,-0.36 6.22,2.93 6.08,-3.29 2.41,2.43 1.75,0.32 6.62,-1.6 4.92,-2.3 0.12,1.9 -2.75,5.03 0.12,1.61 4,4.72 7.57,2.1 v 0 l -0.84,5.3 3.85,3.35 -1.23,2.7 0.65,2.65 -0.83,1.89 1.49,1.65 0.29,3.62 -3.34,5.66 -2.03,1.98 -2.96,1.140004 v 0 l -4.51,-0.440004 -2.04,-2.15 -3.66,-0.7 v 0 l -0.8,-1.04 -6.57,-1.14 -3.43,0.41 -1.18,-1.49 -2.6,-0.49 -1.58,2.49 -2.33,1.15 -4.58,-7.55 -5.38,-2.15 -3.76,-0.03 0.95,-3.58 -0.66,-1.56 -4.88,-1.19 -7.34,-4.32 -3.92,0.27 v 0 l 0.96,-5.71 -3.09,-4.71 -4.75,0.12 -0.05,-3.42 -2.07,-6.89 v 0 l 9.5,1.94 1.41,2.24 2.75,-2.54 4.71,1.84 1.03,-4.3 -1.03,-2.56 4.31,-0.05 1.41,-1.26 z"
     class="land"
     title="Çankırı"
     id="TR-18" />
  <path
     d="m 384.34591,43.053916 -0.14,2.46 2.76,5.89 -2.09,3.71 1.88,1.34 3.81,0.44 v 0 l -0.03,2.21 -3.11,2.44 2.55,3.26 -2.97,5.56 0.38,3.39 3.86,2.94 3.97,-1.14 5.74,0.41 -0.18,3.69 4.58,1.09 2.41,4.23 -0.58,2.06 -1.61,1.13 -0.01,1.71 -1.92,0.8 0.65,1.91 -1.34,2.82 2.04,1.51 -2.38,4.010004 v 0 l -3.54,1.07 -2.14,2.6 -2.43,-1.89 -1.18,0.41 2.17,3.49 -2.06,1.76 2.02,3.54 -0.89,1.46 -10.64,0.79 -0.31,-2.33 -0.85,-0.54 -3.6,3.82 -5.22,0.3 -2.75,1.21 -2.65,-0.58 -1.73,-1.78 -1.71,-0.4 -3.85,2.74 -1.14,1.89 -4.97,-0.62 -3.59,1.08 -0.4,-1.8 v 0 l 0.28,-0.9 -2.72,-4.33 0.55,-2.52 -1.01,-2.53 0.67,-2.3 -3.94,-1.37 -1.5,-2.84 v 0 l 2.96,-1.140004 2.03,-1.98 3.34,-5.66 -0.29,-3.62 -1.49,-1.65 0.83,-1.89 -0.65,-2.65 1.23,-2.7 -3.85,-3.35 0.84,-5.3 v 0 l 6.47,-1.64 3.24,-7.59 2.39,-1.19 -1.4,-3.52 -2.19,-1.01 -2.75,0.36 -0.39,-5.63 4.51,-3.58 0.27,-2.28 2.57,0.53 0.25,1.57 2.46,-2.21 v 0 l 2.04,-1.03 3.33,2 1.23,2.82 2.38,1.56 2.57,0.13 2.67,-2.13 2.89,-0.06 z"
     class="land"
     title="Çorum"
     id="TR-19" />
  <path
     d="m 171.09591,194.50392 2.07,1.4 1.64,0.02 1.37,1.56 1.76,0.2 1.14,1.78 2.64,1.1 2.45,6.74 -2.76,2.25 -1.9,3.1 -4.39,0.22 -2.03,3.27 -5.23,4.88 -0.33,2.84 1.36,3.05 7.68,4.37 v 0 l -2.81,3.58 -5.96,2 -0.53,0.77 0.78,2.74 -4.06,-0.97 -3.1,0.93 -0.73,1.04 1.38,3.67 -1.56,2.21 0.23,1.12 4.53,2.62 0.81,1.68 -6.12,6.36 -1.49,3.39 -0.58,5.4 -4.18,2.72 -0.36,1.39 1.41,2.31 -1.88,4.35 v 0 l -2.27,1.51 -3.76,0.57 -2.9,-1.17 -1.16,-3.21 0.09,-3.77 -2.92,-4.19 -0.38,-3.6 -4.09,0.61 -2.56,-0.88 -1.79,-3.61 -3.28,-1.97 0.13,-2.8 -1.61,-2.14 -2.12,-0.31 -0.71,-2.73 v 0 l 0.72,-0.47 0.46,-4.14 6.34,-5.3 0.76,-3.4 2.43,-3.04 -4.44,-2.83 -1.39,-2.07 -0.47,-5.59 3.01,-0.34 1.47,-2.83 -4.54,-0.83 -1.6,-1.78 -2.78,-1.23 v 0 l 4.59,-2.69 1.44,-3.48 2.45,-2.03 v 0 l 13.93,0.11 1.37,3.39 0.55,-2.48 1.2,-0.34 -0.32,-1.38 3.45,-3.96 11.6,2.55 1.29,-1.69 -0.38,-5.84 z"
     class="land"
     title="Denizli"
     id="TR-20" />
  <path
     d="m 639.73591,182.71392 2.25,1.71 2.73,-1.23 -0.44,3.07 1.07,4.31 2.01,1.58 1.86,-0.37 0.27,3 v 0 l -3.64,1.18 -4.36,8.32 -0.27,6.8 2.44,1.85 -2.58,2.64 -2.31,6.53 -4.48,6.48 -0.8,2.85 2.91,1.27 -2.09,3.1 v 0 l -1.03,2.28 -3.72,0.97 -8.42,-2.44 -0.61,2.48 0.89,3.31 -0.75,1.38 -8.82,-2.24 -0.56,1.9 -6.69,2.63 -1.99,-0.18 -4.73,-2.85 -5.63,2.67 -2.39,-0.06 v 0 l -2.96,-3.53 -0.5,-10.17 -1.73,-4.38 -3.51,0.87 -2.52,2.75 -2.78,-3.14 -5.72,-1 -3.31,-3.86 -8.38,-3.32 v 0 l 2.34,-2.49 1.77,-4.38 -1.63,-2.9 -3.31,1.09 v 0 l -1.53,-0.88 1.32,-1.34 0.53,-3.66 v 0 l 6.62,-2.1 1.83,1.14 2.2,-0.53 2.63,2.78 1.87,0.5 1.38,-4.03 5.22,0.37 5.32,-2.55 3.09,1.41 1.65,-4.53 1.67,-1.17 9.02,-0.01 3.62,-0.8 v 0 l 4.18,-0.89 0.92,-0.96 0.13,-2.94 2.64,-2.81 3.41,0.3 3.81,2.54 1.19,-0.7 0.74,-2.78 6.04,2.97 2.61,-1.35 2.6,-3.96 z"
     class="land"
     title="Diyarbakır"
     id="TR-21" />
  <path
     d="m 233.58591,54.173916 1.68,5.86 2.52,0.5 2.24,-0.69 v 0 l -0.96,7.55 -6.29,2.79 -1.26,3.98 -2.95,4.53 -4.59,0.69 -6.61,-0.88 v 0 l 1.39,-2.8 -3.85,-1.94 -0.34,-1.1 0.47,-1.98 1.94,-1.78 -1.44,-2.15 -2.51,0.17 -0.52,-0.99 1.45,-2.11 2.63,-0.47 2.91,-2.33 2.05,-2.85 -1.58,-1.39 v 0 z"
     class="land"
     title="Düzce"
     id="TR-81" />
  <path
     d="m 54.075906,5.6039158 -0.28,9.4400002 1.47,3.16 -1.55,3.39 0.39,2.81 -2.45,3.29 0.99,0.92 1.69,-1.86 1.15,1.09 -2.18,2.83 0.38,1.47 -2.27,3.91 1.14,4.34 -1.23,2.41 1.34,1.15 v 0 l 0.78,4.88 -2.39,4.17 -4.09,4.06 -4.33,0.66 -0.86,1.05 2.06,1.9 -1.1,8.26 3.96,5.16 v 0 l -3,6.09 v 0 l -4.43,0.39 -3.14,2.41 -3.24,-1.31 -1.77,0.91 -1.54,-0.5 -3.01,0.95 -6.52,0.05 -3.2,-1.91 -1.36,-5.66 3.79,-0.8 0.77,-2.77 3.01,-2.55 -0.42,-1.29 0.72,-0.09 v -1.26 l 1.04,0.45 0.51,-1.8 1.26,1.1 -0.2,-2 2.93,-0.74 -1.37,-2.2 1.71,-1.92 -1.66,-1.15 -0.61,-1.73 0.92,-1.96 -1.25,-0.19 1.39,-1.71 -1.26,-1.71 0.69,-0.57 v -3.72 l 3.19,0.09 4.89,-4.74 2.74,0.83 1.9,-1.43 -1.53,-14.3 -2.63,-0.74 -1.7,-1.74 0.34,-0.82 -4.92,-1.62 -2.04,-2.1 1.53,-4.46 7.18,-0.34 1.69,-2.7 -0.78,-2.9700002 2.61,-2.95 5.32,1.19 1.5,-1.75 2.23,1.13 1.13,-1.17 z"
     class="land"
     title="Edirne"
     id="TR-22" />
  <path
     d="m 589.13591,162.82392 3.93,0.04 4.04,-2.77 4.65,-0.76 3.3,-1.71 1.26,0.75 -0.05,1.99 -2.83,3.4 0.07,2.87 -1.94,3.39 0.87,0.79 -0.27,2.11 1.19,3.36 3.76,2.7 0.57,1.89 -1.04,0.79 -4.08,0.21 -1.18,2.16 -2.36,1.79 5.03,9.97 v 0 l -3.62,0.8 -9.02,0.01 -1.67,1.17 -1.65,4.53 -3.09,-1.41 -5.32,2.55 -5.22,-0.37 -1.38,4.03 -1.87,-0.5 -2.63,-2.78 -2.2,0.53 -1.83,-1.14 -6.62,2.1 v 0 l -1.8,-2.58 -6.09,1.31 -3.04,-2.04 -2.94,-4.26 -5.62,1.06 -9.59,-3.03 -3.03,-2.84 -0.44,-4.71 2.29,-3.17 1.99,-1.04 0.16,-2.53 1.56,0.19 1.09,-0.93 3.69,1.1 0.86,-0.7 -2.39,-7.88 1.03,-1.04 -0.22,-2.04 3.29,-3.58 v 0 l 1.52,0.88 1.24,-0.77 v 0 l 1.38,1.36 0.31,1.75 -1.93,3.31 0.56,1.37 4.02,1.34 4.32,-2.26 12.33,2.07 1.92,2.06 2.79,0.97 0.74,1.72 1.68,-0.8 2.2,1.16 0.94,-0.31 0.88,-2.47 5.99,-0.08 3.51,-0.96 1.73,0.7 0.7,-3 1.95,-2.02 1.33,-4.98 -1.64,-2.47 z"
     class="land"
     title="Elazığ"
     id="TR-23" />
  <path
     d="m 541.59591,110.90392 9.43,0.93 v 0 l 3.11,2.49 6.95,1.81 -0.11,2.33 2.93,0.26 6.57,3.16 8.55,-0.82 6.29,-3.75 v 0 l 3.22,-3.16 3.07,-1.61 15.34,0.55 v 0 l -3.17,2.72 -0.38,3.3 6.18,-0.24 0.98,1.17 5.55,2.15 0.76,2.71 -1.52,2.48 0.13,1.45 6.16,3.13 0.46,1.14 -1.09,3.33 2.59,2.85 -0.7,1.21 -2.74,0.85 v 0 l -2.9,-1 -7.16,0.56 v 0 l -3.05,-3.05 -5.93,-1.13 -4.97,1.84 -1.75,-1.17 -7.76,-1.94 -1.8,0.73 -1.63,5.38 -1.67,1.14 -8.8,-1.26 -6.01,1.81 -7.51,-1.15 -8.36,3.97 -4.73,3.8 -0.33,1.66 1.02,2.99 -2.2,1.55 -3.14,0.66 -0.79,1.08 1.21,1.07 -1.31,2.47 0.91,5.36 v 0 l -1.24,0.77 -1.52,-0.88 v 0 l -3.88,-3.99 -3.23,0.11 -2.61,-1.64 -3.04,1.72 -2.5,-1.99 v 0 l 3.03,-5.94 -3.08,-5.26 2.79,-0.7 0.57,-1.79 -2.9,-1.73 -1.32,-3.49 1.88,-3.87 -0.85,-5.11 1.73,-5.34 4.55,-3.36 -4.14,-3.45 -0.13,-2.26 2.53,-2.19 4.72,0.48 3.21,-2.82 4.27,-0.47 z"
     class="land"
     title="Erzincan"
     id="TR-24" />
  <path
     d="m 640.53591,70.313916 7.44,3.29 2.35,2.51 0.03,0.82 -1.6,0.93 0.06,3.69 0.63,2.21 1.57,0.3 5.31,-3.89 7.5,-3.21 0.83,0.35 0.41,3.07 1.68,-0.07 1.64,-1.48 0.43,-3.05 2.63,-2.57 -0.51,-5.52 5.32,-5.04 9.19,0.31 3.37,3.16 v 0 l 2.86,5.65 7.06,1.64 2.52,5.26 1.74,0.39 v 0 l 0.15,1.39 -4.24,3.4 -2.27,3.36 -1.13,3.97 1.07,2.14 -0.9,1.52 -1.73,0.88 -3.87,-0.39 -7.31,1.71 -2.17,2.48 0.31,1.470004 5.06,3.94 0.53,1.35 2.84,0.28 2.86,2.24 1.15,3.48 4.79,2.17 0.69,2.27 -1.98,3.17 v 0 l -8.71,2.92 -1.19,1.23 1.91,4.34 5.34,2.78 2.94,3.07 -0.67,1.49 -3.39,2.67 -1.52,2.83 v 0 l -6.68,5.06 -0.98,4.69 -4.93,1.19 -0.1,2.22 -4.1,2.82 -7.55,2.02 -7.07,0.19 -0.96,-4.88 -6.92,-4.83 -7.97,-0.24 -2.49,-0.95 v 0 l -5.02,-4.75 -13.32,1.57 -2.68,-0.51 -1.52,-1.35 0.89,-2.13 v 0 l 2.74,-0.85 0.7,-1.21 -2.59,-2.85 1.09,-3.33 -0.46,-1.14 -6.16,-3.13 -0.13,-1.45 1.52,-2.48 -0.76,-2.71 -5.55,-2.15 -0.98,-1.17 -6.18,0.24 0.38,-3.3 3.17,-2.72 v 0 l 5.44,0.26 7.74,-4.62 1.86,-2.63 -0.14,-2.42 -6.44,-0.05 -1.53,-1.55 2.71,-8.050004 -0.81,-2.83 1.58,-5.71 v 0 l 10.8,-5.03 7.67,-7.23 z"
     class="land"
     title="Erzurum"
     id="TR-25" />
  <path
     d="m 213.86591,106.82392 1.05,4.74 3.44,1.81 3.17,0.1 0.41,-0.99 3.01,-0.38 0.71,-1.05 3.29,1.34 3.05,-0.87 2.98,0.89 2.13,-0.89 1.49,0.93 -1.64,0.53 0.57,1.03 2.54,-1.45 1.73,1.27 1.41,-0.96 3.49,0.77 1.96,-1.59 -0.39,2.27 2.02,-0.45 -0.66,1.89 1.73,0.79 0.12,1.93 1.3,1.87 1.41,1.22 2.22,-0.34 0.56,0.6 -0.87,1.19 2.01,-0.32 -1.23,1.08 -1.64,4.6 2.65,3.7 1.39,5.58 1.88,1.95 -0.38,1.39 1.68,0.6 -0.67,4.07 1.05,1.51 -0.76,1.5 2.77,1.15 0.13,1.08 -6.2,6.79 -0.34,2.51 v 0 l -0.77,0.87 -2.54,0.16 -1.77,2.67 -7.64,1.02 v 0 l -1.77,-2.71 -3.5,-0.98 -0.61,-2.86 -4.49,-4.18 -3.57,1.01 -3.86,-2.67 -1.4,0.92 -1.19,3.11 -1.96,0.34 -0.56,1.6 -3.21,-1.36 -2.46,0.19 0.23,1.16 3.01,2.01 -0.97,2.01 -8.12,-0.88 -1.72,4.03 -3.22,-3.27 -2.86,-1.36 -2.05,-4.93 -3.23,-0.59 v 0 l -2.46,-0.37 -0.24,-2.93 -2.09,-1.7 0.92,-2.03 -0.74,-3.64 1.13,-1.87 -0.89,-4.35 -4.58,-2.44 -2.85,-2.67 1.27,-1.55 -0.65,-0.8 -4.47,1.03 -2.4,-0.58 v 0 l 1.16,-3.85 3.36,-4.17 6.48,-1.18 1.81,-3.84 2.44,-1.76 0.86,-1.76 2.15,-1.09 5.47,-5.55 3.32,-1.21 v 0 l 4.66,-1.2 z"
     class="land"
     title="Eskişehir"
     id="TR-26" />
  <path
     d="m 492.85591,245.63392 1.79,0.84 4.33,-1.35 1.69,1.85 7.59,0.26 5.63,2.39 v 0 l -0.86,1.05 -1.11,-0.72 -2.65,0.35 -4.11,4.78 0.53,0.95 -1.08,0.49 -0.87,2.74 1.73,2.24 -1.65,-0.27 -0.29,1.02 1.82,3.44 -0.64,3.66 2.19,1.42 2.57,-0.6 -0.48,3.49 1.62,1.21 -0.09,1.93 1.74,2.3 -0.77,2.45 v 0 l -3.53,0.68 -6.54,3.58 -5.17,0.01 -4.07,2.46 v 0 l -1.52,-3.18 -1.95,-0.86 -3.89,0.43 -1.49,-0.65 -0.87,-3.82 -1.1,-1.13 -7.41,-1.86 -1.25,-4.17 -1.91,-0.44 -1.55,0.43 -2.6,3.24 -4.06,1.89 -2.24,5.13 v 0 l -5.29,-1.74 v 0 l -2.29,-3.43 -4.51,-1.38 -1.6,-3.15 v 0 l 9.23,-10.96 v 0 l 2.52,-0.37 0.64,-1.67 2.39,-0.87 3.64,-3.8 2.72,1.27 3.09,3.47 2.91,0.29 4.7,-6.07 9.91,-1.08 -0.24,-2.28 2.43,-0.22 z"
     class="land"
     title="Gaziantep"
     id="TR-27" />
  <path
     d="m 559.04591,56.683916 -0.06,17.36 v 0 l -5.09,2.1 -3.36,-0.34 -4.29,2.49 -4.92,8.07 9.37,4.17 1.66,2.04 -0.65,6.58 -1.84,2.630004 -1.36,-0.47 -1.1,0.81 0.51,3.96 3.03,3.86 0.08,1.89 v 0 l -9.43,-0.93 v 0 l -5.8,-0.34 -2.75,-1.29 -1.32,-3.78 -2.57,1.8 -0.94,-1 -1.67,0.87 -3.24,-2.17 -4.24,-0.82 -2.26,-3.96 -0.21,-6.520004 0.88,-3.93 -4.54,-1.93 v 0 l 0.27,-3.66 -1.45,-2.39 0.94,-1.79 -2.39,-1.38 -1.58,-3.97 2.17,-1.76 -0.6,-2.38 3.04,-4.43 1.01,-3.29 v 0 l 3.87,1.32 3.77,-0.33 3.08,1.95 1.41,-0.82 1.56,0.73 4.28,-0.37 3.88,-3.03 2.52,1.42 1.2,-0.21 4.04,-3.19 2.42,-0.13 2.55,-1.76 3.57,0.62 z"
     class="land"
     title="Giresun"
     id="TR-28" />
  <path
     d="m 558.98591,74.043916 2.58,1.45 5.98,1.33 2.33,2.59 1.58,0.32 0.53,1.95 2.69,-0.19 2.54,2.3 4.32,-0.18 2.15,-2.36 0.44,-3.96 2.25,-0.2 0.59,1.62 -0.82,3.24 4.53,1.8 0.94,1.89 3.23,-1.43 -0.56,-1.11 -2.83,-1.28 -0.01,-1.43 3.02,-0.44 2.19,1.58 -0.47,1.94 2.18,1.63 2.44,-0.59 3.53,3.05 v 0 l -14.38,2.45 -1.23,3.53 0.22,7.070004 -2.95,7.11 -4.45,5.7 3.77,3.89 v 0 l -6.29,3.75 -8.55,0.82 -6.57,-3.16 -2.93,-0.26 0.11,-2.33 -6.95,-1.81 -3.11,-2.49 v 0 l -0.08,-1.89 -3.03,-3.86 -0.51,-3.96 1.1,-0.81 1.36,0.47 1.84,-2.630004 0.65,-6.58 -1.66,-2.04 -9.37,-4.17 4.92,-8.07 4.29,-2.49 3.36,0.34 z"
     class="land"
     title="Gümüşhane"
     id="TR-29" />
  <path
     d="m 736.58591,232.66392 4.7,1.04 7.62,-2.19 5.77,0.55 5.16,-1.29 2.77,1.39 1.26,2.54 5.56,0.52 1.98,-1.5 3.76,0.28 1.91,-1.01 v 0 l 4.27,-0.47 2.76,2.65 0.35,1.41 -2.45,3.05 1.91,2.13 -1.39,7.99 2.27,0.96 0.89,2.2 2.65,0.52 0.68,1.87 2.64,1.7 0.51,1.84 -2.29,2.23 1.07,4.37 -1.09,-1.31 -3.49,-0.01 -1.55,-1.16 -6.89,6.08 -5.08,1.6 0.75,1.03 -1.49,1.22 -0.43,1.69 -2.81,-1.58 -1,-3.04 -1.77,-2.05 1.67,-3.26 2.07,-0.35 -0.27,-4.13 -1.63,-1.89 -4.24,-2.1 -4.14,0.33 -0.26,-0.65 -1.05,1.59 -1.53,0.31 -1.66,3.51 -2.76,0.12 -0.77,1.49 -1.05,-1.8 -4.7,-0.36 -2.04,0.83 -3.13,-2.07 -2.39,0.81 -6.69,-4.39 v 0 l -0.25,-7.62 -1.92,-3.76 5.93,-6.65 z"
     class="land"
     title="Hakkâri"
     id="TR-30" />
  <path
     d="m 429.89591,271.04392 3.88,-0.78 6.69,3.09 3.09,-0.47 3.09,0.71 v 0 l 1.6,3.15 4.51,1.38 2.29,3.43 v 0 l 0.37,1.59 -2.48,2.87 0.62,1.94 -2.15,2.59 0.64,3.67 -1.94,5.17 0.9,3.21 0.89,1.49 0.75,-0.1 0.04,3.49 0.29,-0.68 1.88,0.07 -0.06,2.01 1.6,0.19 -0.63,1.09 0.65,1.36 -1.31,0.88 -1.64,-0.49 -0.2,1.18 -4.81,-1.32 -1.49,2.22 -3.55,-0.97 0.68,1.26 -1.3,1.32 1,4.31 -0.61,3.73 -1.6,1.02 -1.87,-1.12 -0.09,2.98 -1.58,-0.49 -2.28,0.78 -1.8,7.04 -1.59,-2.73 -4.73,-0.99 0.22,-2.88 -3.71,0.54 2.63,-4.38 -3.42,-7.3 -4.8,-7.27 -0.04,-1.18 3.05,-2.49 2.21,-3.75 2.86,-1.43 2.58,-3.21 6.3,-3.12 0.88,-2.43 -0.92,-5.26 0.54,-2.18 -3.63,-5.03 -4.48,-2.49 v 0 l -0.25,-2.58 z"
     class="land"
     title="Hatay"
     id="TR-31" />
  <path
     d="m 378.38591,248.84392 0.7,3.67 6.09,7.11 0.08,1.23 -2.02,1.89 -0.02,1.54 2.19,1.27 0.92,2.32 1.69,0.01 3.01,1.78 1.35,6 0.68,6.76 -0.81,1.54 -2.84,-0.73 -1.29,1.71 -0.69,-0.67 -0.02,1.1 -2.74,-0.23 -0.16,0.96 -2.14,1.06 v 0 l -1.6,-2.51 -4.33,-1.97 -4.51,0.05 -3.77,2.1 -5.46,5.34 -6.61,4.43 -4.18,5.66 -3.63,2.86 -0.24,4.66 -1.18,1.3 -1.48,-0.01 -1.95,3.22 -1.12,-2.77 -2.84,-1.52 -1.12,2.05 -1.06,0.1 -0.76,2.2 -4.13,2.97 -0.57,2.03 -1.49,-3.08 -2.29,0.95 -1.27,2.51 -3.9,-1.63 -2.78,1.54 -1.96,-1.33 -2.3,1.17 -6.1,-0.38 -2.83,3.48 -1.23,-1.25 -4.23,-0.49 -3.1,1.54 -2.91,2.87 -5.66,-1.4 -4.3,-2.87 v 0 l 1.84,-3.45 -0.76,-2.27 2.32,-6.31 -3.47,-10.46 v 0 l 4.68,0.11 8.81,3.31 5.4,0.89 5.63,-1.92 3.95,-3.63 -2.68,-3.21 -3.1,-1.9 -2.14,-3.46 0.55,-4.46 -1.53,-3.28 2.91,-1.21 1.91,1.67 3.16,-3.04 6.49,-1.42 3.28,0.23 2.76,-1.25 3.38,1.87 7.03,-4.1 v 0 l 7.89,-1.09 7.9,-2.78 1.48,-1.34 -0.22,-3 6.72,-2.06 7.58,-4.07 -1.54,-2.77 1.06,-2.14 v 0 l 3.35,-0.08 z"
     class="land"
     title="Mersin"
     id="TR-33" />
  <path
     d="m 744.08591,108.14392 2.54,2.41 2.23,-0.15 5.72,3.25 11.69,-0.4 3.54,-0.95 5.93,2.6 5.47,5.14 -0.01,0.99 1.75,1.52 0.07,1.82 4.16,1.72 -0.33,1.08 2.39,1.56 0.14,1.42 2.26,1.75 -0.15,1.34 0.79,0.35 -0.47,1.33 -3.87,-4.51 -1.98,-0.23 -2.12,-3.57 -5.89,5.43 v 0 l -3.83,0.47 -5.38,-2.33 -3.76,0.46 -4.26,-1.34 h -6.34 l -3.6,-2.71 -7.15,-0.67 -3.37,-2.63 -1.71,0.45 -1.64,2.58 -2.41,0.22 -0.54,-7.02 -2.88,-3.41 -3.11,-0.83 v 0 l 4.26,-6.92 4.54,0.84 7.3,-1.12 v 0 z"
     class="land"
     title="Iğdır"
     id="TR-76" />
  <path
     d="m 184.36591,231.61392 2.15,-4.33 -0.2,-3.53 3.13,-3.98 4.02,-1.85 6.83,-7.55 5.45,-1.36 5.93,-3.75 3.09,-5.34 3.7,-1.67 3.11,-3.03 5.57,-0.88 2.54,2 1.87,2.96 1.29,-0.21 v 0 l 0.9,3.07 2.59,3.3 5.18,4.34 2.98,1.07 1.01,2.82 -0.3,4.09 -3.01,2.22 -0.51,2.68 -3.22,2.44 -0.38,3.14 1.88,4.53 -0.03,1.93 -0.26,0.78 -3.33,1.19 -1.05,1.67 1.12,5.76 -1.3,5.21 v 0 l -8.19,1.09 -4.11,3.11 -3.58,-2.99 -2.64,-0.05 v 0 l -1.54,-0.38 -0.5,-3.32 -3.25,-3.35 -0.75,-5.17 -5.47,-2.96 -3.62,0.52 -3.6,-0.67 -0.68,-1.35 0.86,-2.74 -1.28,-1.67 -7.46,2.73 z"
     class="land"
     title="Isparta"
     id="TR-32" />
  <path
     d="m 149.43591,48.183916 13.17,3.21 0.97,-0.56 9.4,2.24 3.93,-0.05 v 0 l 0.09,2.6 -2.37,3.93 -1.63,0.55 -4.18,-0.92 -2.36,3.82 -3.88,-1 -3.13,0.58 -7.01,8.76 v 0 l -1.03,-0.72 -2.56,0.6 1.22,-2.52 -5.9,-2.58 -1.44,-2.14 -3.64,-2.04 -0.64,-2.35 1.87,-1.48 0.64,-2.98 1.15,-0.78 -0.95,-1.41 0.69,-1.95 3.24,-2.5 z m -45.33,-18.77 3.97,4.12 14.47,7.7 2.63,0.46 11.03,5.02 5.3,0.2 1.37,0.79 -0.02,1.47 -3.03,3.02 1.39,1.77 -3.64,6.48 -5.6,1.74 -0.73,0.96 -2.9,-1.3 -5.83,1.08 -1.03,-0.66 -0.32,-2.42 -0.93,-0.04 -1,1.8 -5.09,-3.12 -7.7,-1.98 -6.570004,1.16 -3.11,1.77 v 0 l -0.9,-1.97 0.17,-2.87 1.74,-3.51 -0.02,-2.43 2.390004,-4.07 3.14,-15.64 v 0 z"
     class="land"
     title="Istanbul"
     id="TR-34" />
  <path
     d="m 43.185906,192.47392 1.13,0.69 0.46,3.64 -1.94,-1.1 z m 28.73,-44.21 0.77,4.68 2.23,2.26 -0.6,4.13 3.03,8.11 -0.59,3.21 -1.56,1.55 -4.57,1.92 -2.06,-0.59 -5.27,2.76 0.34,1.32 -2.18,3.18 3.98,5.4 0.24,5.04 1.94,1.36 4.41,-0.34 1.85,0.98 1.11,2.37 2.9,-0.35 1.48,2.35 1.64,-0.26 1.55,1.51 2.78,0.34 2.03,4.02 2.69,0.08 0.8,1.34 1.13,-1.56 -0.45,-3.05 1.9,-0.41 1.43,1.19 4.04,-0.95 4.040004,1.84 1.09,1.56 3.71,0.65 2.94,2.64 5.28,1.78 -0.42,3.66 2.47,2.96 v 0 l -1.2,2.21 -3.43,-1.75 -3.05,0.98 -0.69,1.72 -1.94,1.47 -10.180004,0.95 -11.81,3.62 -5.31,-2.74 -2.73,0.09 -3.48,2.26 -0.7,4.28 -2.82,2.22 -0.79,-2.37 -3.31,-1.46 v 0 l 0.27,-2.32 -1.33,-2.13 -4.55,-0.41 -6.23,-4.58 -3.15,0.51 -1.71,1.71 -1.71,-6.53 -2.41,-0.93 0.97,-1.29 -1.33,-1.17 -5.12,1.13 -0.36,3.21 -0.74,-0.07 0.36,1.51 -0.9,0.38 -0.96,-2.05 -0.43,1.34 -1.18,-0.62 -0.61,-2.83 -5.19,-2.15 0.08,-1.89 -1.09,1.72 -1.22,0.08 -1.98,-1.97 -2.44,-0.34 0.14,-1.26 1.63,0.2 0.35,-1.67 0.92,0.15 -0.83,-2.56 3.64,3.16 0.51,-2.33 0.74,1.5 3.33,-2.79 -1.31,-2.71 1.63,1.44 1.09,-1.46 -3.38,-2.59 -1.78,1.57 0.81,-2.39 -2.12,-4.05 -0.29,-3.67 0.31,-0.98 2.33,-1.08 4.37,1.55 1.99,4.75 2.29,1.48 0.62,3.34 -2.21,-0.1 0.71,0.97 -0.87,1.37 1.37,0.46 2.42,5.6 1.19,-0.43 -1.16,-3.91 1.19,-1.94 h 1.26 l 1.23,3.29 1.49,0.61 9.19,-3.05 2.63,0.87 2.33,-2.31 1.12,0.02 -0.46,-1.34 -1.94,0.95 -1.39,-0.95 -5.21,1.57 -2.8,-3.52 -0.03,-1.62 -2.22,-1.17 0.7,-0.97 -3.74,-2.11 0.38,-1.29 -1.32,-0.34 0.83,-1.25 -1.01,-1.54 0.39,-2.25 3.69,-1.06 0.31,1.01 0.82,-0.55 1.58,0.99 0.5,-1.7 1.33,0.07 -1.9,-3.15 0.86,0.39 1.23,-0.98 0.25,1.65 1.03,-0.12 -0.17,-2.13 3.86,-1.18 -1.06,-1.34 0.84,-0.98 -0.56,-1.36 -1.36,1.5 -2.38,-1.47 -3.59,1.1 -2.74,-1.81 -0.06,-4.26 3.63,-2.31 -2.06,-3.42 -2.92,-1.31 v 0 l 2.64,-3.66 6.95,-2.23 3.16,-3.6 3.6,-1.1 3.18,0.94 z"
     class="land"
     title="İzmir"
     id="TR-35" />
  <path
     d="m 460.43591,192.12392 9.48,-2.05 6.86,1.29 4.41,-0.37 1.07,0.87 v 0 l -2,3.13 0.04,1.92 5.76,3.19 3.36,-0.35 4.31,3.39 3.7,0.7 -0.61,4.58 3.35,0.48 0.08,2.32 -2.04,3.21 -4.71,4.14 0.63,3.23 1.47,0.93 v 0 l -1.46,2.63 -3.28,1.87 0.15,4.58 -2.56,2.67 -0.27,3.13 -1.34,1.97 0.68,1.96 3.92,0.42 1.42,3.67 v 0 l -2.27,5.67 -2.43,0.22 0.24,2.28 -9.91,1.08 -4.7,6.07 -2.91,-0.29 -3.09,-3.47 -2.72,-1.27 -3.64,3.8 -2.39,0.87 -0.64,1.67 -2.52,0.37 v 0 l 0.43,-2.6 -1.66,-3.27 1.2,-2.63 -0.36,-0.97 -6.84,-0.09 -5.48,1.73 -0.84,-0.77 -3.61,0.09 -1.67,-14.95 1.15,-2.35 v 0 l 2.89,-2.9 1.17,-3.6 -2.49,-5.41 2.8,-3.97 -3.24,-1.67 2.93,-3.5 3.09,-8.85 v 0 l 11.6,-4.9 1.59,-6.88 z"
     class="land"
     title="Kahramanmaraş"
     id="TR-46" />
  <path
     d="m 298.00591,28.943916 -0.03,1.25 1.27,0.91 2.68,-1.33 1.17,0.99 1.31,-0.66 1.53,0.49 -0.2,2.95 1.88,1.1 0.46,2.13 -0.18,2.93 -1.18,2.12 -2.76,0.43 -2.39,2.44 -1.04,2.93 0.73,4.11 v 0 l -0.95,-0.19 -1.41,1.26 -4.31,0.05 1.03,2.56 -1.03,4.3 -4.71,-1.84 -2.75,2.54 -1.41,-2.24 -9.5,-1.94 v 0 l -5.02,-0.71 v 0 l -1.71,-4.78 1.7,-5.8 2.03,-1.79 v 0 l 5.3,1.42 3.86,-2.8 2.43,1.01 2.34,-1.32 2.11,1.52 1.32,-3.1 -1.76,-4.9 0.37,-1.29 5.69,-2.42 1.09,-1.94 z"
     class="land"
     title="Karabük"
     id="TR-78" />
  <path
     d="m 279.77591,283.00392 9.13,-1.63 4.22,-1.9 2.65,-2.68 1.28,-4.76 -0.82,-1.46 -4.04,-2.28 -1,-5.51 1.37,-1.82 2.97,0.11 2.11,-6.29 4.06,-3.55 2.37,-3.44 4.32,-2.28 3.88,-0.38 4.58,3.36 9.17,-3.15 0.69,10.33 6.84,9.46 2.38,6.52 v 0 l -7.04,4.1 -3.38,-1.87 -2.76,1.25 -3.28,-0.23 -6.5,1.42 -3.16,3.05 -1.91,-1.68 -2.92,1.21 1.53,3.28 -0.55,4.46 2.14,3.46 3.1,1.9 2.69,3.2 -3.96,3.63 -5.63,1.92 -5.4,-0.88 -8.81,-3.32 -4.68,-0.11 v 0 l -6.01,-6.2 -0.5,-1.84 z"
     class="land"
     title="Karaman"
     id="TR-70" />
  <path
     d="m 740.47591,61.133916 4.56,3.18 0.15,4.7 2.79,6.16 -0.08,3.49 -1.09,0.73 -2.05,4.93 -1.04,0.3 0.27,1.61 -0.93,-0.29 0.28,1 -3.18,1.35 -0.43,0.97 2.99,2.93 -1.18,4.15 2.1,3.960004 1.66,0.74 0.07,1.69 -1.25,0.09 2.57,3.37 -2.24,0.47 -0.38,1.42 v 0 l -7.3,1.12 -4.54,-0.84 -4.26,6.92 v 0 l -7.42,-1.18 -23.7,5.79 v 0 l 1.98,-3.17 -0.69,-2.27 -4.79,-2.17 -1.15,-3.48 -2.86,-2.24 -2.84,-0.28 -0.53,-1.35 -5.06,-3.94 -0.31,-1.470004 2.17,-2.48 7.31,-1.71 3.87,0.39 1.73,-0.88 0.9,-1.52 -1.07,-2.14 1.13,-3.97 2.27,-3.36 4.24,-3.4 -0.15,-1.39 v 0 l 1.33,-1.37 3.7,-0.19 0.53,-3.43 4.32,-4.73 0.42,-1.92 3.67,-1.92 2.29,-2.51 2.06,1.03 3.05,-1.27 6.47,0.39 1.87,-1.08 4.32,-0.4 1.66,-1.71 v 0 z"
     class="land"
     title="Kars"
     id="TR-36" />
  <path
     d="m 319.44591,4.9139158 16.6,2.32 11.16,-0.37 7.65,1.67 v 0 l 0.01,1.6500002 1.81,1.62 0.6,2.7 -1.18,2.91 4.91,0.23 1.58,3.44 4.86,1.03 2.43,1.9 -1.44,5.58 -3.58,3.05 0.93,2.92 -2.94,5.96 1.02,2.7 v 0 l -2.46,2.21 -0.25,-1.57 -2.57,-0.53 -0.27,2.28 -4.51,3.58 0.39,5.63 2.75,-0.36 2.19,1.01 1.4,3.52 -2.39,1.19 -3.24,7.59 -6.47,1.64 v 0 l -7.57,-2.1 -4,-4.72 -0.12,-1.61 2.75,-5.03 -0.12,-1.9 -4.92,2.3 -6.62,1.6 -1.75,-0.32 -2.41,-2.43 -6.08,3.29 -6.22,-2.93 -4.39,0.36 -2.81,-4.47 -2.92,-0.72 v 0 l -0.73,-4.11 1.04,-2.93 2.39,-2.44 2.76,-0.43 1.18,-2.12 0.18,-2.93 -0.46,-2.13 -1.88,-1.1 0.2,-2.95 -1.53,-0.49 -1.31,0.66 -1.17,-0.99 -2.68,1.33 -1.27,-0.91 0.03,-1.25 v 0 l 3.21,-8.2 -1.49,-0.77 -2.32,1.16 -2.57,0.05 -0.99,-1.47 0.85,-2.29 -1.54,-1.1 -0.61,-2.13 v 0 l 6.36,-1.05 17.03,-7.8600002 z"
     class="land"
     title="Kastamonu"
     id="TR-37" />
  <path
     d="m 420.03591,153.01392 7.16,3.1 1.03,2.61 1.92,1.12 1.79,2.69 4.16,0.12 6.58,-1.68 9.1,0.65 5.86,-0.92 4.14,1.74 2.65,2.24 1.97,5.34 -3.11,2.94 -1.99,3.72 -0.62,4.99 -3.65,3.24 3.41,7.21 v 0 l -1.9,3.02 -1.59,6.88 -11.6,4.9 v 0 l -6.47,-6.49 -5.12,1.51 -3.65,4.98 -2.52,6.53 -6.58,2.47 -4.35,4.7 -3.28,1.41 -1.29,9.35 -1.23,2.07 -7.13,-0.43 -1.27,-1.69 -1.32,0.34 -5.44,-1.9 v 0 l 1.84,-5.8 -0.3,-9.84 -2.4,-1.73 -5.66,-0.54 -1.22,-4.68 -3.31,-2.45 -2.05,-3.08 v 0 l 0.97,-2.78 4.97,-2.23 4.67,-6.7 -3.85,-9.12 -3.34,-1.85 2.97,-6.95 0.61,-4.35 v 0 l 4.15,-1.67 0.28,3.51 0.82,0.58 5.29,-2.06 5.77,-4.17 -1.41,-3.68 1.09,-1.67 10.28,-1.38 2.06,-1.06 z"
     class="land"
     title="Kayseri"
     id="TR-38" />
  <path
     d="m 460.33591,283.29392 2.24,-5.13 4.06,-1.89 2.6,-3.24 1.55,-0.43 1.91,0.44 1.25,4.17 7.41,1.86 1.1,1.13 0.87,3.82 1.49,0.65 3.89,-0.43 1.95,0.86 1.52,3.18 v 0 l -2.8,1.45 -0.77,1.97 -7.95,-1.96 -2.74,-0.17 -2.24,1.04 -0.83,-1.15 -1.37,0.22 -1.01,1.92 -2.63,-1.65 -0.25,-1.01 1.41,-1.75 -0.44,-0.85 -1.73,-0.22 -0.43,-1.06 -2.69,-1.14 z"
     class="land"
     title="Kilis"
     id="TR-79" />
  <path
     d="m 320.98591,147.02392 -1.56,-0.74 0.5,-2.47 -0.74,-6.92 -5.64,-4.84 3.18,-5.32 -0.42,-3.56 1.3,-0.4 2.46,-6.74 6.69,-2.36 2.39,-2.29 -1.1,-1.65 0.85,-4.41 -0.69,-1.29 1.14,-2.33 -0.55,-0.66 2.08,-2.050004 -0.07,-1.44 2.47,-0.49 v 0 l 3.66,0.7 2.04,2.15 4.51,0.440004 v 0 l 1.5,2.84 3.94,1.37 -0.67,2.3 1.01,2.53 -0.55,2.52 2.72,4.33 -0.28,0.9 v 0 l -3.4,1.32 1.67,2.11 0.71,4.49 v 0 l -1.04,1.27 -2.99,0.11 -1.95,4.72 -8.64,8.01 -3.25,1.22 -6.38,4.96 z"
     class="land"
     title="Kırıkkale"
     id="TR-71" />
  <path
     d="m 65.785906,0.25391583 1.78,0.12 1.78,2.10999997 1.24,0.11 1.15,2.87 3.23,2.57 1.67,-0.01 2.14,3.0300002 0.56,-1.8200002 1.66,-0.18 0.3,-1.02 2.05,0.21 1.09,-1.23 5.65,1.66 -0.68,-2.13 1.33,-0.91 0.19,0.62 0.16,-0.79 2.14,1.84 2.69,-0.96 2,0.54 1.22,5.3600002 -2.44,-0.19 -0.6,3.25 2.57,5.65 2.470004,3.07 -0.7,0.68 0.5,1.43 1.86,2.2 v 0 l -1.65,-0.14 -0.37,1.33 -8.410004,4.99 -3.54,0.39 -6.35,2.33 -2.16,1.86 -1.66,6.39 -2.87,2.96 -3.17,1.15 -4.83,-3.77 -1.1,-3.01 -1.75,-1.3 -6.98,0.97 -3.05,-0.6 -2.24,2.07 v 0 l -1.34,-1.15 1.23,-2.41 -1.14,-4.34 2.27,-3.91 -0.38,-1.47 2.18,-2.83 -1.15,-1.09 -1.69,1.86 -0.99,-0.92 2.45,-3.29 -0.39,-2.81 1.55,-3.39 -1.47,-3.16 0.28,-9.4400002 v 0 l 0.64,-1.95 1.8,-1.03 -0.05,-1.38 1.82,-0.63999997 5.52,1.84999997 -0.03,-1.22 z"
     class="land"
     title="Kırklareli"
     id="TR-39" />
  <path
     d="m 350.13591,125.06392 h 2.98 l 1.67,3.81 7.41,3.82 1.68,3.24 5.03,0.91 0.69,1.02 -2.27,2.8 4.24,2.2 1.59,2.82 v 0 l -4.7,5.27 1.18,2.3 4.92,0.52 -5.88,7.52 -0.09,2.61 1.77,1.92 -3.43,0.07 -3.15,3.03 -3,7.57 -1.37,-0.11 -2.69,-2.63 0.27,2.56 v 0 l -2.65,0.52 -2.25,-0.85 -4.31,-4.32 0.02,-2.35 -1.57,-3.03 -2.47,0.34 -0.78,-1.09 -2.16,0.95 -1.12,-0.98 v 0 l -0.7,-0.98 -4.07,-0.26 -0.23,-1.35 -4.38,-3.81 -2.97,-1.18 -2.8,-5 -2.58,-1.59 1.1,-1.1 -2.08,-3.21 v 0 l 4.9,-1.67 6.38,-4.96 3.25,-1.22 8.64,-8.01 1.95,-4.72 2.99,-0.11 z"
     class="land"
     title="Kırşehir"
     id="TR-40" />
  <path
     d="m 191.77591,49.813916 3.16,1.28 v 0 l -1.55,1.07 -2.76,4.8 0.53,1.56 -0.6,1.37 2.95,6.37 -1.4,2.56 -3.1,1.26 0.76,5.31 -3.21,1.38 -2.18,5.36 -6,2.29 v 0 l -7.23,-1.88 -10.38,3.28 -4.47,-0.88 v 0 l 0.78,-1.69 -0.12,-5.87 v 0 l 2.46,-2.48 2.07,2.92 10.17,-2.33 4.4,0.82 0.96,-1.5 -1.04,-1.04 -5.47,1.1 -2.18,-1.69 -4.7,-0.6 -1.8,0.9 -3.35,-0.73 -4.24,1.47 -1.45,-0.45 -0.34,-2.44 v 0 l 7.01,-8.76 3.13,-0.58 3.88,1 2.36,-3.82 4.18,0.92 1.63,-0.55 2.37,-3.93 -0.09,-2.6 v 0 l 9.93,-0.18 1.85,-0.77 0.24,-1.46 1.55,-1.17 z"
     class="land"
     title="Kocaeli"
     id="TR-41" />
  <path
     d="m 258.43591,160.21392 1.07,0.46 3.54,7 1.9,1.88 4.1,0.42 3.15,-4.37 1.06,1.24 2.51,-1.12 3.5,2.63 2.58,0.31 1.29,-0.51 2.32,-3.41 4.04,1.89 3.39,-2.08 0.36,-3.98 2.75,-1.37 0.77,-4.43 1.21,-1.84 6.21,-1.74 0.69,0.68 -0.35,3.91 1.2,0.85 3.58,-3.33 3.13,-1.02 0.68,1.52 -2.94,1.6 0.83,4.96 2.27,2.84 5.83,3.65 -0.32,5.96 1.28,7.28 4.48,6.91 v 0 l -5.31,1.72 -1.3,3.94 -3.12,3.44 -2.99,9.56 2.1,3.55 0.45,4.36 4.04,2.93 1.74,3.85 2.88,3.21 26.07,-6.18 v 0 l 3.29,5.56 3.85,2.17 5.36,7.84 1.28,3.61 -0.27,1.96 -4.07,4.98 3.04,1.43 -0.99,3.2 3.75,0.83 2.46,3.44 v 0 l -1.07,2.14 1.55,2.76 -7.59,4.07 -6.72,2.07 0.22,3 -1.47,1.34 -7.9,2.78 -7.89,1.09 v 0 l -2.38,-6.52 -6.84,-9.46 -0.69,-10.33 -9.17,3.15 -4.58,-3.36 -3.88,0.38 -4.32,2.28 -2.37,3.44 -4.06,3.55 -2.11,6.29 -2.97,-0.11 -1.37,1.82 1,5.51 4.04,2.28 0.82,1.46 -1.28,4.76 -2.65,2.68 -4.22,1.9 -9.13,1.63 v 0 l -4.95,-3.32 -0.85,-4.4 -1.43,-1.74 -7.47,-3.44 -4.26,-5.95 -2.3,-6.9 -2.15,-2.11 -1.06,-2.91 -1.72,-0.1 -3.47,2.07 -2.8,0.41 -8.94,-2.08 -3.26,-3.2 v 0 l 1.3,-5.21 -1.12,-5.76 1.05,-1.67 3.33,-1.19 0.26,-0.78 0.03,-1.93 -1.88,-4.53 0.38,-3.14 3.22,-2.44 0.51,-2.68 3.01,-2.22 0.3,-4.09 -1.01,-2.82 -2.98,-1.07 -5.18,-4.34 -2.59,-3.3 -0.9,-3.07 v 0 l 1.21,-3.75 12.3,-8.01 -2.23,-2.02 -0.44,-1.77 3.39,-6.3 0.5,-5.52 -0.79,-1.49 5.95,-1.21 -0.56,-0.92 -5.3,-0.91 -1.16,-2.26 v 0 l 7.64,-1.02 1.77,-2.67 2.54,-0.16 z"
     class="land"
     title="Konya"
     id="TR-42" />
  <path
     d="m 137.86591,135.81392 8.42,0.23 1.01,-1.85 2.89,-2.14 0.77,-2.53 4.35,-3.88 1.54,-6.22 3.65,1.28 1.75,1.57 5.11,-0.31 v 0 l 1.7,5.66 3.47,2.97 1.55,0.78 6.08,0.25 v 0 l 2.4,0.58 4.47,-1.03 0.65,0.8 -1.27,1.55 2.85,2.67 4.58,2.44 0.89,4.35 -1.13,1.87 0.74,3.64 -0.92,2.03 2.09,1.7 0.24,2.93 2.46,0.37 v 0 l -1.72,3.34 -2.73,0.12 -3.35,2.19 0.48,7.15 -2.46,3.91 -2.85,1.18 -2.63,3.5 -2.08,0.59 v 0 l -2.42,-0.89 -1.88,-3.84 -9.37,-1.14 -4.21,0.43 -8.58,2.92 -3.61,3.45 -4.19,-1.49 -4.93,0.54 v 0 l -4.64,-3.46 -1.53,-3.88 1.22,-1.64 -0.11,-2.29 -8.61,-1.59 -2.19,-1.82 -1.54,-3.35 v 0 l -1.6,-4.03 7.27,-1.34 6.14,-7.04 -0.91,-6.6 2.88,-3.05 z"
     class="land"
     title="Kütahya"
     id="TR-43" />
  <path
     d="m 523.47591,160.81392 2.5,1.99 3.04,-1.72 2.61,1.64 3.23,-0.11 3.88,3.99 v 0 l -3.29,3.58 0.22,2.04 -1.03,1.04 2.39,7.88 -0.86,0.7 -3.69,-1.1 -1.09,0.93 -1.56,-0.19 -0.16,2.53 -1.99,1.04 -2.29,3.17 0.44,4.71 3.03,2.84 9.59,3.03 5.62,-1.06 2.94,4.26 3.04,2.04 6.09,-1.31 1.8,2.58 v 0 l -0.53,3.66 -1.32,1.34 1.53,0.88 v 0 l -5.12,3.56 -0.45,1.38 -8.46,3.39 -6.92,-4.75 -2.05,-0.39 -0.71,-1.13 -5.89,-2.88 -4.09,0.27 -1.42,0.54 -1.64,2.28 -7.2,2.74 -0.39,1.09 1.35,1.83 0.71,3.31 -4.01,3.73 -4.68,0.9 -4.39,-0.94 -2.04,1.13 -1.04,-2.49 -3.16,0.72 0.44,-1.82 -0.86,-0.93 v 0 l -1.47,-0.93 -0.63,-3.23 4.71,-4.14 2.04,-3.21 -0.08,-2.32 -3.35,-0.48 0.61,-4.58 -3.7,-0.7 -4.31,-3.39 -3.36,0.35 -5.76,-3.19 -0.04,-1.92 2,-3.13 v 0 l 2.38,-2.08 1.41,-4.94 6.35,-3.33 -3.99,-5.16 2.41,-4.27 -2.25,-4.2 0.36,-0.94 11.93,1.93 1.08,-1.55 -1.51,-2.92 1.26,-1.44 5.76,1.23 9.65,-0.14 3.9,-2.74 z"
     class="land"
     title="Malatya"
     id="TR-44" />
  <path
     d="m 71.915906,148.26392 2.49,-1.53 4.66,3.71 6.35,-1.03 3.53,3.59 4.29,-2.89 1.35,1.36 1.32,3.7 4.520004,3.46 4.29,6.25 1.85,-0.28 2.78,-2.41 4.3,0.79 7.12,-3.9 3.51,0.37 v 0 l 1.54,3.35 2.19,1.82 8.61,1.59 0.11,2.29 -1.22,1.64 1.53,3.88 4.64,3.46 v 0 l -2.5,5.48 -3.57,2.06 -2.62,0.2 -1.05,1.36 -1.92,12 -2.76,4.54 4.21,5.73 v 0 l -2.45,2.03 -1.44,3.48 -4.59,2.69 v 0 l -4.96,-2.11 v 0 l -2.47,-2.96 0.42,-3.66 -5.28,-1.78 -2.94,-2.64 -3.72,-0.65 -1.08,-1.56 -4.040004,-1.84 -4.04,0.95 -1.43,-1.19 -1.9,0.41 0.44,3.05 -1.12,1.56 -0.8,-1.33 -2.69,-0.08 -2.03,-4.03 -2.78,-0.33 -1.55,-1.52 -1.64,0.26 -1.48,-2.35 -2.9,0.35 -1.11,-2.37 -1.86,-0.98 -4.41,0.34 -1.94,-1.37 -0.24,-5.04 -3.98,-5.41 2.18,-3.18 -0.34,-1.31 5.27,-2.76 2.06,0.59 4.57,-1.92 1.56,-1.55 0.59,-3.21 -3.03,-8.11 0.6,-4.13 -2.23,-2.26 z"
     class="land"
     title="Manisa"
     id="TR-45" />
  <path
     d="m 634.30591,235.80392 3.31,11.35 11.42,-0.99 6.33,-3.1 4.3,-3.75 6.02,-0.56 2.16,-1.87 v 0 l 0.49,3.12 2.72,3.11 -1.74,1.63 -0.47,1.93 -2.83,1.04 -6.09,0.38 -0.84,1.55 -1.3,10.63 0.49,1.08 1.93,-0.67 1.1,3.49 -0.37,2.73 v 0 l -5.89,1.89 -9.72,-0.02 -2.09,0.87 -2.17,-1.68 -10.52,-1.89 -3.06,1.26 -2.82,-1.03 -9.57,5.01 -5.11,0.81 -2.14,2.57 -5.23,2.84 v 0 l -0.56,-2.31 -2.18,-1.6 -0.67,-4.53 -2.2,-3.42 -0.17,-1.76 -1.58,0.16 -1.71,-1.71 -0.43,-3.31 -2.59,-6.28 -0.21,-2.7 1.21,-1.65 -1.67,-2.77 v 0 l 2.39,0.06 5.63,-2.67 4.73,2.85 1.99,0.18 6.69,-2.63 0.56,-1.9 8.82,2.24 0.75,-1.38 -0.89,-3.31 0.61,-2.48 8.42,2.44 3.72,-0.97 z"
     class="land"
     title="Mardin"
     id="TR-47" />
  <path
     d="m 72.565906,251.31392 0.68,-3.81 2.59,-1.97 3.01,-0.48 4.28,1.81 2.62,-0.16 2.98,2.65 5,-0.87 7.360004,0.58 5.33,-4.28 0.67,2.07 9.13,0.37 5.47,3.93 1.34,-0.24 v 0 l 0.72,2.73 2.12,0.31 1.61,2.14 -0.14,2.8 3.28,1.97 1.79,3.61 2.56,0.88 4.09,-0.61 0.38,3.59 2.92,4.19 -0.08,3.78 1.15,3.21 2.9,1.17 3.75,-0.58 2.28,-1.51 v 0 l 0.93,1.12 2.3,0.02 -1.17,2.62 2.71,0.82 0.51,-1.38 1.07,0.27 3,-7.28 4.46,-1.85 3.44,1.26 v 0 l 1.6,1.35 0.53,2.24 -2.39,4.18 0.02,6.16 -1.29,3.22 -3.88,2.45 -2.16,3.75 -2.29,2.03 -5.13,0.3 -3.11,1.68 0.46,2.36 -0.88,0.38 0.12,3.42 -1.99,1.36 v 0 l -1.79,-1.77 -2.45,-0.65 -1.05,-0.9 0.36,-0.92 -1.95,-0.55 1.3,-1.41 -0.24,-2.38 -0.96,-0.66 0.97,-1.21 0.01,-2.19 -1.38,-0.36 -0.22,-0.91 -1.53,0.51 v 0.87 l -1.66,-0.28 1.39,-0.86 -0.17,-2.97 1.46,0.26 0.07,-1.61 1,0.59 -0.55,0.74 1.13,-0.27 0.26,-1.11 -1.05,-1.52 -1.72,-0.29 -1.46,-1.74 -0.98,0.3 -2.76,-2.36 -1.31,2.92 -1.41,0.16 0.17,1.32 -0.75,0.44 0.68,1.31 0.45,-0.62 1.16,0.43 -2.48,2.62 -0.91,-1.94 1.1,-0.56 -1.39,-1.11 -0.99,0.43 0.46,-0.96 -0.79,-0.92 -2.54,-0.89 -2.24,0.66 -0.9,-1.59 -1.24,1 0.26,-1.3 -0.69,-0.34 1.07,-1.06 -0.84,-0.46 0.7,-0.7 -1.82,-1.94 -1.51,-0.7 -0.57,2.3 -0.71,-0.75 -0.75,0.43 -0.03,-1.53 -1.6,0.28 -0.2,-3.28 -3.13,1.61 0.33,0.77 1.61,-0.11 -1,2.39 -3.66,-1.48 v 1.05 l -1.6,-0.01 -0.37,-1.06 1.94,-0.43 -1.85,-1.32 -1.31,2.35 2.85,3.84 -2.13,-0.06 -1.29,2.07 -2.49,0.32 -2.47,4.73 -1.270004,-0.17 -2,1.66 -0.45,-0.76 -1.17,1.37 -0.83,-2.71 3.99,0.15 1.370004,-2.03 -0.57,-0.86 -1.170004,0.28 0.73,-1.22 -1.21,-0.83 -0.68,1.09 -2.44,-0.49 3.65,-2.18 1.760004,-0.35 0.16,1.07 1.15,-0.95 -1.78,-1.34 1.88,-2.38 -2,0.08 -0.790004,1.6 -4.55,0.53 -0.86,0.87 -8.33,-1.02 -1.7,1.89 -0.55,3.22 -4.12,-1.11 -3.99,1.57 -4.76,-1.64 -0.04,-1.25 2.42,-0.2 0.41,-1.88 7.35,-0.74 1.36,-2.4 2.54,1.29 4.83,-1.39 9.37,0.65 0.48,-2.03 -2.19,0.03 0.78,-0.38 -0.96,-0.55 2.34,-1.06 -0.19,-1.19 -1.46,-0.46 1.17,-0.25 -0.88,-0.84 3.060004,-0.79 2.63,0.83 0.12,1.01 -0.17,-2.11 1.81,-0.22 0.41,-2.25 1.41,0.5 -0.14,-0.77 3.49,-1.35 -0.24,-1.12 -9.22,0.89 0.59,0.93 -0.68,0.23 -0.38,-0.87 -4.660004,-0.18 -1.28,0.8 -2.27,-0.64 -5.46,2 -3.03,-0.7 -1.95,1.25 -2.62,-0.61 -0.38,0.98 -1.92,-0.94 -1.54,0.33 -2.42,-2.65 -0.44,0.95 -0.69,-0.62 -0.84,1.61 0.22,-1.5 -2.13,0.68 -1.13,3.04 -1.65,-0.4 -1.55,-4.91 2.8,-2.77 -1.59,-0.02 -0.07,-0.89 0.84,-0.57 1.6,1.24 0.47,-2.23 0.88,1.47 0.83,-1.3 1.04,0.56 -0.06,1.31 1.75,-0.43 1.67,2.45 2.73,-2.43 1.79,-0.41 -1.56,-0.86 -0.44,-2.03 1.56,-1 0.75,0.62 -0.53,1.09 0.61,-0.23 -0.63,-1.67 1.57,-3.32 -2.34,0.11 -1.42,2.58 -0.96,-0.53 1.08,-1.04 -0.62,-1.13 -2.18,1.48 1.67,-3.68 -0.98,-1.25 -1.25,2.24 -2.26,-1.06 -0.25,-1.72 2.03,-1.3 z"
     class="land"
     title="Muğla"
     id="TR-48" />
  <path
     d="m 691.55591,141.22392 3.5,3.61 1.55,4.06 3.44,-0.06 0.55,3.41 4.15,9.15 -0.81,4 0.21,6.44 v 0 l -10.1,-0.87 -9.99,3.04 -1.46,1.65 -0.82,2.92 -2.21,1.05 0.32,3.44 -5.82,5.28 -1.15,2.77 -7.08,-1.66 -7.85,-0.42 -3.03,1.47 -0.26,0.89 v 0 l -2.08,2.83 -3.13,0.56 v 0 l -0.27,-3 -1.86,0.37 -2.01,-1.58 -1.07,-4.31 0.44,-3.07 -2.73,1.23 -2.25,-1.71 v 0 l -0.58,-6.17 0.77,-5.58 2.66,-3.17 4.57,-1.93 0.68,-1.55 -0.57,-1.96 -3.5,-2 -3.82,-6.64 0.13,-2.94 1.73,-2.26 v 0 l 2.49,0.95 7.97,0.24 6.92,4.83 0.96,4.88 7.07,-0.19 7.55,-2.02 4.1,-2.82 0.1,-2.22 4.93,-1.19 0.98,-4.69 z"
     class="land"
     title="Muş"
     id="TR-49" />
  <path
     d="m 373.15591,145.68392 0.58,1.65 3.19,1.43 5.36,0.83 3.77,3.05 0.71,2.37 -0.71,2.09 1.67,3.66 -0.07,3.39 1.94,3.52 v 0 l -0.61,4.35 -2.97,6.95 3.34,1.85 3.85,9.12 -4.67,6.7 -4.97,2.23 -0.97,2.78 v 0 l -5.36,-0.27 -3.46,2.55 -1.8,0.07 -3.98,-1.81 -1.79,-3.43 v 0 l -1.6,-1.54 -0.44,-3.74 -2.93,-4.49 -4.53,-2.42 -0.38,-2.6 1.52,-2.81 0.21,-3.89 -1.07,-0.96 v 0 l -0.27,-2.56 2.69,2.63 1.37,0.11 3,-7.57 3.15,-3.03 3.43,-0.07 -1.77,-1.92 0.09,-2.61 5.88,-7.52 -4.92,-0.52 -1.18,-2.3 z"
     class="land"
     title="Nevşehir"
     id="TR-50" />
  <path
     d="m 366.20591,198.76392 1.79,3.43 3.98,1.81 1.8,-0.07 3.46,-2.55 5.36,0.27 v 0 l 2.05,3.08 3.31,2.45 1.22,4.68 5.66,0.54 2.4,1.73 0.3,9.84 -1.84,5.8 v 0 l -4.53,2.71 -3.29,5 -5.05,-0.61 -1.56,7.06 -1.01,1.36 0.76,1.46 -2.63,2.09 v 0 l -8.23,3.47 -3.35,0.09 v 0 l -2.46,-3.44 -3.75,-0.83 0.99,-3.2 -3.04,-1.43 4.07,-4.98 0.27,-1.96 -1.28,-3.61 -5.36,-7.84 -3.85,-2.17 -3.29,-5.56 v 0 l 3.36,-3.32 4.38,-1.1 2.1,-1.6 3.37,-4.98 0.79,-5.81 z"
     class="land"
     title="Niğde"
     id="TR-51" />
  <path
     d="m 477.21591,52.863916 3.88,-0.02 0.18,1.18 4.16,1.14 5.88,4.41 2.85,-1.41 3.04,-4.8 0.85,1.13 3.49,-0.09 -0.39,3.01 1.21,1.87 2.53,0.77 0.4,1.4 9.05,1.33 v 0 l -1.01,3.29 -3.04,4.43 0.6,2.38 -2.17,1.76 1.58,3.97 2.39,1.38 -0.94,1.79 1.45,2.39 -0.27,3.66 v 0 l -1.95,1.57 -3.01,0.33 -0.61,2.16 -3.7,3.48 -2.04,-1.36 -1.65,1.37 -4.27,-0.81 v 0 l 0.9,-2.06 -2.63,-1.54 1.9,-2.91 -0.36,-0.9 -4.82,-1.37 -6.24,0.09 -6.76,-6.19 -1.69,-0.64 -0.3,-1.13 -2.47,-1.04 -4.06,1.33 -2.27,-1.64 -2.35,0.1 -0.84,-1.04 -0.06,-2.69 -4.81,-1.59 -0.26,-1.44 -1.87,-1.19 v 0 l 0.26,-1.4 4.89,-2.68 1.17,-1.91 3.94,-0.2 1.27,-0.96 1.82,-2.17 -0.59,-2.42 1.73,-1.65 3.13,0.13 1.65,-2.59 v 0 z"
     class="land"
     title="Ordu"
     id="TR-52" />
  <path
     d="m 438.19591,236.82392 -1.15,2.35 1.67,14.95 3.61,-0.09 0.84,0.77 5.48,-1.73 6.84,0.09 0.36,0.97 -1.2,2.63 1.66,3.27 -0.43,2.6 v 0 l -9.23,10.96 v 0 l -3.09,-0.71 -3.09,0.47 -6.69,-3.09 -3.88,0.78 v 0 l 1.25,-9.1 -2.34,-10.58 0.47,-4.38 1.29,-4.13 2.15,-3.22 z"
     class="land"
     title="Osmaniye"
     id="TR-80" />
  <path
     d="m 645.20591,42.253916 1.31,2.28 0.2,2.85 5.73,7.71 -2.71,1.76 -4.75,5.41 -0.81,3.09 -3.64,4.96 v 0 l -4.71,2.92 -7.67,7.23 -10.8,5.03 v 0 l -4.3,1.13 v 0 l -1.48,-4.26 2.68,-4.81 -3.21,-4.92 1,-4.43 -2.07,-2.03 -0.28,-2.92 -3.57,-1.24 v 0 l 2.69,-2.63 4.77,-0.88 1.68,0.82 7.19,-3.15 3.72,-4.16 3.01,-1.18 2.4,0.31 5.03,-2.07 z"
     class="land"
     title="Rize"
     id="TR-53" />
  <path
     d="m 205.37591,53.703916 5.46,2.34 9.13,0.74 v 0 l 1.58,1.39 -2.05,2.85 -2.91,2.33 -2.63,0.47 -1.45,2.11 0.52,0.99 2.51,-0.17 1.44,2.15 -1.94,1.78 -0.47,1.98 0.34,1.1 3.85,1.94 -1.39,2.8 v 0 l -1.47,2.44 1.86,3.5 -2.32,2.25 -5.67,1.2 -6.73,-0.25 0.29,6.03 -0.8,1.82 v 0 l -1.96,0.14 -1.75,-1.81 -3.35,1.54 -1.95,-1.12 -4.17,1.44 -2.4,-0.47 -2.13,-1.4 -1.68,-2.93 -1.48,1.56 -1.04,-0.29 -2.74,-5.05 v 0 l 0.49,-2.69 v 0 l 6,-2.3 2.18,-5.35 3.21,-1.38 -0.76,-5.31 3.11,-1.26 1.4,-2.56 -2.95,-6.37 0.6,-1.36 -0.53,-1.57 2.77,-4.8 1.54,-1.07 v 0 z"
     class="land"
     title="Sakarya"
     id="TR-54" />
  <path
     d="m 426.43591,20.443916 4.05,3.2 1.87,2.83 0.87,9.14 4.28,5.6 4.18,2.36 0.26,1.67 1.89,1.69 2.68,0.45 3.68,-1.68 4.47,-6.23 0.98,1.14 7.86,1.49 5.22,3.07 1.28,1.48 0.39,3.89 5.57,2.34 v 0 l -1.65,2.59 -3.13,-0.13 -1.72,1.65 0.59,2.41 -1.82,2.17 -1.27,0.97 -3.94,0.19 -1.17,1.92 -4.89,2.67 -0.26,1.41 v 0 l -1.94,-1.5 -2.53,0.09 -3.43,1.41 -1.58,-0.31 -2.73,1.64 v 0 l -4.72,-1.91 1.65,-1.91 -0.29,-1.1 -5.52,-2.03 -0.98,2.09 -1.26,0.45 -1.65,4.96 -6.92,-2.83 -5.08,1.21 -1.49,-1.45 -4.31,-0.17 -0.8,-1.05 0.34,-1.69 -3.05,-1.53 -1.58,-3.81 -1.37,1.02 -0.56,-1.24 -1.44,1.05 -2.75,-1.45 -5.42,0.91 -1.64,-2.08 -5.1,-0.63 v 0 l -3.81,-0.44 -1.88,-1.34 2.08,-3.71 -2.75,-5.89 0.14,-2.45 v 0 l 6.97,-3.81 0.91,3.49 2.11,1.44 0.15,2.05 4.8,1.92 2,-0.65 1.22,-1.87 -0.56,-3.73 1.76,-0.38 3.31,1.38 -0.73,-6.82 -4.32,-2.11 -1.34,-4.27 1.92,-3.96 1.78,-1.53 v 0 l 3.47,1.8 4.38,-0.13 z"
     class="land"
     title="Samsun"
     id="TR-55" />
  <path
     d="m 558.44591,219.87392 8.38,3.32 3.31,3.86 5.72,1 2.78,3.14 2.52,-2.75 3.51,-0.87 1.73,4.38 0.5,10.17 2.96,3.53 v 0 l 1.67,2.77 -1.21,1.65 0.21,2.7 2.59,6.28 0.43,3.31 1.71,1.71 1.58,-0.16 0.17,1.76 2.2,3.42 0.67,4.53 2.18,1.6 0.56,2.31 v 0 l -2.12,1.69 -4.81,1.1 -1.35,1.48 -8.75,3.64 -25.17,4.51 -7.77,-2.1 -11.76,0.09 -7.74,-7.02 -6.82,-2.99 -5.89,-1.1 -8.5,3.29 -0.45,1.43 v 0 l 0.77,-2.45 -1.74,-2.3 0.09,-1.93 -1.62,-1.21 0.48,-3.49 -2.57,0.6 -2.19,-1.42 0.64,-3.66 -1.82,-3.44 0.29,-1.02 1.65,0.27 -1.73,-2.24 0.87,-2.74 1.08,-0.49 -0.53,-0.95 4.11,-4.78 2.65,-0.35 1.11,0.72 0.86,-1.05 v 0 l 3.81,2.06 0.86,-2.09 1.97,0.34 1.09,-1.72 6.86,-0.52 2.07,-1.08 6.71,-5.86 8.28,-1.69 -1.42,-2.03 2.67,-0.53 1.25,-0.84 0.22,-1.43 1.7,-0.54 -0.05,-2.59 -2.5,0.05 1.24,-1.21 2.13,0.03 0.57,-3.07 -0.76,-0.7 2.22,-0.95 1.32,-3.64 1.28,-1.13 z"
     class="land"
     title="Şanlıurfa"
     id="TR-63" />
  <path
     d="m 663.01591,208.64392 4.32,0.02 1.25,1.95 1.72,0.61 4.45,-0.8 0.14,1.26 0.91,0.35 1.57,-0.04 3.42,-2.08 4.21,0.11 10.2,11.56 3.06,1.04 0.68,1.3 1.38,-1.25 -0.34,-0.96 2.25,-0.9 0.67,-1.16 v 0 l 2.97,3.77 1.86,0.95 1.94,4.95 1.7,1.31 v 0 l 0.24,7.58 -5.36,-1.96 -4.8,-0.26 -4.58,-2.5 -1.68,0.56 -6.83,6.29 -2.48,1.06 -3.35,-0.04 -1.74,-1.35 -2.96,1.28 -3.09,-1.24 -3.41,0.32 -3.49,-3.49 v 0 l -2.18,-1.47 -2.32,0.48 -5.05,-1.68 -1.26,-2.25 -9.49,-7.24 0.5,-2.01 5.14,-4.96 6.58,-2.72 z"
     class="land"
     title="Siirt"
     id="TR-56" />
  <path
     d="m 384.57591,0.61391583 2.35,0.11 1.52,1.84999997 -0.26,0.98 1.47,0.84 4.55,-0.77 0.72,1.46 -2.55,-0.55 -2.04,3 -0.22,2.6100002 1.6,3.54 3.04,2.95 0.03,1.81 2.94,3.03 6.59,2.72 v 0 l -1.77,1.53 -1.92,3.96 1.33,4.27 4.32,2.11 0.74,6.82 -3.32,-1.38 -1.75,0.39 0.56,3.72 -1.22,1.88 -2,0.65 -4.8,-1.92 -0.15,-2.05 -2.11,-1.44 -0.91,-3.48 -6.97,3.8 v 0 l -3.37,4.46 -2.89,0.06 -2.67,2.13 -2.57,-0.13 -2.38,-1.56 -1.23,-2.82 -3.33,-2 -2.04,1.03 v 0 l -1.02,-2.7 2.94,-5.96 -0.93,-2.92 3.58,-3.05 1.44,-5.58 -2.43,-1.9 -4.86,-1.03 -1.58,-3.44 -4.91,-0.23 1.18,-2.91 -0.6,-2.7 -1.81,-1.62 -0.01,-1.6500002 v 0 l 4.69,0.24 5.68,-1.7 2.21,1.56 9.92,-0.08 5.04,-3.93 1.79,-2.96 -0.19,-1.18999997 z"
     class="land"
     title="Sinop"
     id="TR-57" />
  <path
     d="m 711.37591,230.63392 4.62,1.37 3.3,2.58 9.48,1.6 2.35,-0.51 2.87,-3.16 2.59,0.15 v 0 l -1.3,5.21 -5.93,6.65 1.92,3.76 0.25,7.62 v 0 l -0.9,-0.06 -0.94,1.32 -2.85,-2.19 -4.96,-1.47 -3.83,1.05 -2.72,2.15 -5.09,-1.65 -0.37,-1.35 -1.4,-0.58 -2.71,3.5 -1.62,0.15 0.33,1.16 -3.27,3.64 -1.44,3.6 -4.59,0.42 -4.83,1.87 -1.38,-4.14 0.87,-2.57 -2.41,-2.53 -3.23,0.11 0.85,-1.65 -0.61,-0.34 -7.27,7.08 -9.99,2.78 -6.23,0.7 v 0 l 0.37,-2.73 -1.1,-3.49 -1.93,0.67 -0.49,-1.08 1.3,-10.63 0.84,-1.55 6.09,-0.38 2.83,-1.04 0.47,-1.93 1.74,-1.63 -2.72,-3.11 -0.49,-3.12 v 0 0 0 l 3.49,3.49 3.41,-0.32 3.09,1.24 2.96,-1.28 1.74,1.35 3.35,0.04 2.48,-1.06 6.83,-6.29 1.68,-0.56 4.58,2.5 4.8,0.26 5.36,1.96 z"
     class="land"
     title="Şırnak"
     id="TR-73" />
  <path
     d="m 512.93591,87.833916 4.54,1.93 -0.88,3.93 0.21,6.520004 2.26,3.96 4.24,0.82 3.24,2.17 1.67,-0.87 0.94,1 2.57,-1.8 1.32,3.78 2.75,1.29 5.8,0.34 v 0 l -1.26,2.61 -4.27,0.47 -3.21,2.82 -4.72,-0.48 -2.53,2.19 0.13,2.26 4.14,3.45 -4.55,3.36 -1.73,5.34 0.85,5.11 -1.88,3.87 1.32,3.49 2.9,1.73 -0.57,1.79 -2.79,0.7 3.08,5.26 -3.03,5.94 v 0 l -2.48,0.5 -3.9,2.74 -9.65,0.14 -5.76,-1.23 -1.26,1.44 1.51,2.92 -1.08,1.55 -11.93,-1.93 -0.36,0.94 2.25,4.2 -2.41,4.27 3.99,5.16 -6.35,3.33 -1.41,4.94 -2.38,2.08 v 0 l -1.07,-0.87 -4.41,0.37 -6.86,-1.29 -9.48,2.05 v 0 l -3.41,-7.21 3.65,-3.24 0.62,-4.99 1.99,-3.72 3.11,-2.94 -1.97,-5.34 -2.65,-2.24 -4.14,-1.74 -5.86,0.92 -9.1,-0.65 -6.58,1.68 -4.16,-0.12 -1.79,-2.69 -1.92,-1.12 -1.03,-2.61 -7.16,-3.1 v 0 l 3.55,-4.98 0.79,-6.74 3.2,-1.25 2.51,1.18 1.97,-0.34 4.29,-4.38 -0.77,-5.49 -3.5,-4.17 0.62,-4.62 -3.46,-1.37 -0.19,-3.16 v 0 l 2.77,2.17 1.56,0.17 0.81,-2.82 1.88,-0.98 13.15,0.31 4.52,-1.62 1.45,-1.99 0.75,-5.7 1.62,-0.58 1.63,-3.12 1.92,-0.97 9.43,-0.2 1.89,1.31 6.09,-0.46 1.87,1.07 2.52,-0.04 1.28,1.29 1.81,-0.13 0.37,-2.33 5.41,-2.23 -0.61,-1.290004 2.74,-2.08 1.8,-2.9 v 0 l 4.27,0.81 1.65,-1.37 2.04,1.36 3.7,-3.48 0.61,-2.16 3.01,-0.33 z"
     class="land"
     title="Sivas"
     id="TR-58" />
  <path
     d="m 52.665906,43.953916 2.24,-2.07 3.05,0.6 6.98,-0.97 1.75,1.3 1.1,3.01 4.83,3.77 3.17,-1.15 2.87,-2.96 1.66,-6.39 2.16,-1.86 6.35,-2.33 3.54,-0.39 8.410004,-4.99 0.37,-1.33 1.65,0.14 v 0 l 0.49,0.61 v 0 l -3.15,15.65 -2.390004,4.07 0.02,2.43 -1.75,3.51 -0.16,2.87 0.89,1.96 v 0 l -1.55,3.31 -3.35,-0.09 -5.08,-2.69 -10.01,2.23 -1.79,3.43 -0.6,3.59 -4.6,4.32 -1.91,3.85 -4.97,3.68 -5.57,1.57 -2.1,2.3 -2.72,0.68 v 0 l -0.05,-2.95 3.32,-7.8 -3.11,-1.05 -5.96,0.28 v 0 l -3.96,-5.16 1.1,-8.26 -2.06,-1.9 0.86,-1.05 4.33,-0.66 4.09,-4.06 2.39,-4.17 z"
     class="land"
     title="Tekirdağ"
     id="TR-59" />
  <path
     d="m 444.50591,70.053916 2.73,-1.64 1.58,0.31 3.44,-1.41 2.52,-0.09 1.94,1.5 v 0 l 1.87,1.19 0.26,1.44 4.81,1.59 0.06,2.69 0.84,1.04 2.35,-0.1 2.27,1.64 4.06,-1.33 2.47,1.04 0.3,1.13 1.69,0.64 6.76,6.19 6.24,-0.09 4.82,1.37 0.36,0.9 -1.9,2.91 2.63,1.54 -0.9,2.06 v 0 l -1.8,2.9 -2.74,2.08 0.61,1.290004 -5.41,2.23 -0.37,2.33 -1.81,0.13 -1.28,-1.29 -2.52,0.04 -1.87,-1.07 -6.09,0.46 -1.89,-1.31 -9.43,0.2 -1.92,0.97 -1.63,3.12 -1.62,0.58 -0.75,5.7 -1.45,1.99 -4.52,1.62 -13.15,-0.31 -1.88,0.98 -0.81,2.82 -1.56,-0.17 -2.77,-2.17 v 0 l -1.54,-1.48 -0.79,-6.32 -7.62,-0.28 -4.4,0.95 -1.5,-1.02 -4.52,-0.59 -0.14,-3.11 -2.74,-2.27 -0.46,-3.14 v 0 l 4.77,-3.050004 4.77,-1.08 2.47,-1.67 0.17,-1.71 2.54,-1.62 1.07,-3.09 5.59,-0.29 1.65,0.87 -0.09,0.94 3.82,1.41 1.16,-1.63 5.44,-2.49 0.88,-2.2 2.04,-1.68 -2.68,-0.44 -0.28,-1.27 5.62,-0.44 1.09,-2.01 -0.24,-2.45 3.25,-2.92 -3.37,-1.79 z"
     class="land"
     title="Tokat"
     id="TR-60" />
  <path
     d="m 569.58591,55.243916 2.24,0.56 3.4,3.67 3.14,1.48 3.06,-0.77 4.49,1.42 1.79,1.68 6.91,-0.21 3.41,2.46 4.52,-0.85 3.58,-2.67 v 0 l 3.57,1.24 0.28,2.92 2.07,2.03 -1,4.43 3.21,4.92 -2.68,4.81 1.48,4.26 v 0 l -8.72,0.94 v 0 l -3.53,-3.05 -2.44,0.59 -2.18,-1.63 0.47,-1.94 -2.19,-1.58 -3.02,0.44 0.01,1.43 2.83,1.28 0.56,1.11 -3.23,1.43 -0.94,-1.89 -4.53,-1.8 0.82,-3.24 -0.59,-1.62 -2.25,0.2 -0.44,3.96 -2.15,2.36 -4.32,0.18 -2.54,-2.3 -2.69,0.19 -0.53,-1.95 -1.58,-0.32 -2.33,-2.59 -5.98,-1.33 -2.58,-1.45 v 0 l 0.06,-17.36 v 0 l 4.15,1.41 5.76,-3.19 z"
     class="land"
     title="Trabzon"
     id="TR-61" />
  <path
     d="m 541.49591,166.71392 -0.91,-5.36 1.31,-2.47 -1.21,-1.07 0.79,-1.08 3.14,-0.66 2.2,-1.55 -1.02,-2.99 0.33,-1.66 4.73,-3.8 8.36,-3.97 7.51,1.15 6.01,-1.81 8.8,1.26 1.67,-1.14 1.63,-5.38 1.8,-0.73 7.76,1.94 1.75,1.17 4.97,-1.84 5.93,1.13 3.05,3.05 v 0 l -9.97,8.69 -7.56,-0.52 1.19,4.25 -2.63,2.28 -1.99,7.22 v 0 l -1.93,2.35 1.64,2.47 -1.33,4.98 -1.95,2.02 -0.7,3 -1.73,-0.7 -3.51,0.96 -5.99,0.08 -0.88,2.47 -0.94,0.31 -2.2,-1.16 -1.68,0.8 -0.74,-1.72 -2.79,-0.97 -1.92,-2.06 -12.33,-2.07 -4.32,2.26 -4.02,-1.34 -0.56,-1.37 1.93,-3.31 -0.31,-1.75 z"
     class="land"
     title="Tunceli"
     id="TR-62" />
  <path
     d="m 141.67591,177.48392 4.93,-0.54 4.19,1.49 3.61,-3.45 8.58,-2.92 4.21,-0.43 9.37,1.14 1.88,3.84 2.42,0.89 v 0 l -0.6,2.58 -3.93,3.38 1,4.02 -1.55,0.89 -4.69,6.13 v 0 l -6.94,4.71 0.38,5.84 -1.29,1.69 -11.6,-2.55 -3.45,3.96 0.32,1.38 -1.2,0.34 -0.55,2.48 -1.37,-3.39 -13.93,-0.11 v 0 l -4.21,-5.73 2.76,-4.54 1.92,-12 1.05,-1.36 2.62,-0.2 3.57,-2.06 z"
     class="land"
     title="Uşak"
     id="TR-64" />
  <path
     d="m 759.95591,148.89392 1.67,1.89 0.19,1.93 0.95,0.41 -0.76,1.67 0.49,2.66 2.86,1.53 1.94,2.32 0.45,2.03 -1.3,1.17 0.78,2.72 -1.67,1.55 1.15,2.23 -0.37,0.82 1.19,0.92 -0.32,1.41 1.46,2.05 2.23,0.63 0.57,1.65 -2.23,4.93 0.86,1.96 -0.45,1.55 2.14,1.68 -0.52,4.57 0.66,2.34 -0.92,2.03 0.66,1.92 -0.67,0.85 0.74,1.12 1.63,-0.15 0.83,0.88 2.81,-1.43 0.6,1.38 2.01,0.9 -0.63,1.94 -3.94,2.8 -0.43,5.47 -1.68,0.7 0.7,1.54 -1.59,0.23 -0.84,3.1 -2.68,4.07 0.41,1.12 -1.19,2.83 1.79,1.07 2.2,-0.47 2.91,0.73 0.25,2.19 1.25,1.18 0.96,-0.47 -0.03,1.95 v 0 l -1.91,1.01 -3.76,-0.28 -1.98,1.5 -5.56,-0.52 -1.26,-2.54 -2.77,-1.39 -5.16,1.29 -5.77,-0.55 -7.62,2.19 -4.7,-1.04 v 0 l -2.59,-0.15 -2.87,3.16 -2.35,0.51 -9.48,-1.6 -3.3,-2.58 -4.62,-1.37 v 0 l -1.7,-1.31 -1.94,-4.95 -1.86,-0.95 -2.97,-3.77 v 0 l 1.86,-10.13 -0.41,-2.41 -1.66,-1.26 -0.01,-1.21 4.65,-3.21 0.36,-6.15 6.47,-9.67 4.04,-3.75 5.67,-3.38 2.21,-3.18 -0.19,-1.45 -5.1,-2.3 -1.03,-2.39 -3.13,-2.55 v 0 l 3.15,-5.59 4.06,-3.28 0.17,-7.97 4.69,-1.39 5.4,0.37 5.22,5.61 4.3,2.27 3.24,0.41 3.25,-2.87 3.01,-4.87 6.81,-1.08 v 0 z"
     class="land"
     title="Van"
     id="TR-65" />
  <path
     d="m 155.73591,77.713916 1.22,-0.33 v 0 l 0.12,5.86 -0.79,1.69 v 0 l -4.84,-0.09 -4.93,1.76 -8.85,-1.83 -0.63,5.44 v 0 l -7.91,-3.22 -0.02,-0.98 8.75,-5.87 11.68,-0.79 2.86,-0.81 1.46,-1.51 z"
     class="land"
     title="Yalova"
     id="TR-77" />
  <path
     d="m 405.33591,100.43392 0.46,3.14 2.74,2.27 0.14,3.11 4.52,0.59 1.5,1.02 4.4,-0.95 7.62,0.28 0.79,6.32 1.54,1.48 v 0 l 0.19,3.16 3.46,1.37 -0.62,4.62 3.5,4.17 0.77,5.49 -4.29,4.38 -1.97,0.34 -2.51,-1.18 -3.2,1.25 -0.79,6.74 -3.55,4.98 v 0 l -2.11,3.06 -2.06,1.06 -10.28,1.38 -1.09,1.67 1.41,3.68 -5.77,4.17 -5.29,2.06 -0.82,-0.58 -0.28,-3.51 -4.15,1.67 v 0 l -1.94,-3.52 0.07,-3.39 -1.67,-3.66 0.71,-2.09 -0.71,-2.37 -3.77,-3.05 -5.36,-0.83 -3.19,-1.43 -0.58,-1.65 v 0 l -1.59,-2.82 -4.24,-2.2 2.27,-2.8 -0.69,-1.02 -5.03,-0.91 -1.68,-3.24 -7.41,-3.82 -1.67,-3.81 h -2.98 v 0 l -0.71,-4.49 -1.67,-2.11 3.4,-1.32 v 0 l 0.4,1.8 3.59,-1.08 4.97,0.62 1.14,-1.89 3.85,-2.74 1.71,0.4 1.73,1.78 2.65,0.58 2.75,-1.21 5.22,-0.3 3.6,-3.82 0.85,0.54 0.31,2.33 10.64,-0.79 0.89,-1.46 -2.02,-3.54 2.06,-1.76 -2.17,-3.49 1.18,-0.41 2.43,1.89 2.14,-2.6 3.54,-1.07 v 0 z"
     class="land"
     title="Yozgat"
     id="TR-66" />
  <path
     d="m 267.66591,28.023916 2.41,3.9 2.82,0.44 -0.02,2.88 1.9,2.23 v 2.37 l -1.56,3.31 v 0 l -2.03,1.79 -1.7,5.8 1.71,4.78 v 0 l -15.58,4.01 -3.24,-1.53 -7.64,0.04 -4.71,1.8 v 0 l -2.24,0.69 -2.52,-0.5 -1.68,-5.86 v 0 l 4.15,-4.92 0.55,-3.55 -1.17,-0.95 0.26,-1.25 8.84,-3.48 10.6,-7.14 5.6,-2.24 1.82,-1.71 z"
     class="land"
     title="Zonguldak"
     id="TR-67" />
     <g id="stadiums" data-country="turkey" data-circle-radius="6"></g>
</svg>
