<?xml version="1.0" encoding="UTF-8" standalone="no"?>
<?xml-stylesheet type="text/css" href="/styles/home.css"?>
<!-- https://www.amcharts.com/svg-maps -->

<svg version="1.1" xmlns="http://www.w3.org/2000/svg" id="map-turkey" viewBox="0 0 1000 1000" width="1000" height="1000"
   class="">

   <defs id="defs4">
      <style type="text/css" id="style2">
         .land {
            fill: #f05340;
            fill-opacity: 1;
            stroke: white;
            stroke-opacity: 1;
            stroke-width: 0.5;
         }

         .rectangle:hover {
            fill: #bdbdbd;
            cursor: pointer;
         }
      </style>
      <!-- <amcharts:ammap projection="mercator" leftLongitude="25.663689" topLatitude="42.099732" rightLongitude="44.819611" bottomLatitude="35.805510"></amcharts:ammap> -->
      <!-- All areas are listed in the line below. You can use this list in your script. -->
      <!--{id:"TR-01"},{id:"TR-02"},{id:"TR-03"},{id:"TR-04"},{id:"TR-68"},{id:"TR-05"},{id:"TR-06"},{id:"TR-07"},{id:"TR-75"},{id:"TR-08"},{id:"TR-09"},{id:"TR-10"},{id:"TR-74"},{id:"TR-72"},{id:"TR-69"},{id:"TR-11"},{id:"TR-12"},{id:"TR-13"},{id:"TR-14"},{id:"TR-15"},{id:"TR-16"},{id:"TR-17"},{id:"TR-18"},{id:"TR-19"},{id:"TR-20"},{id:"TR-21"},{id:"TR-81"},{id:"TR-22"},{id:"TR-23"},{id:"TR-24"},{id:"TR-25"},{id:"TR-26"},{id:"TR-27"},{id:"TR-28"},{id:"TR-29"},{id:"TR-30"},{id:"TR-31"},{id:"TR-33"},{id:"TR-36"},{id:"TR-32"},{id:"TR-34"},{id:"TR-35"},{id:"TR-46"},{id:"TR-78"},{id:"TR-70"},{id:"TR-36"},{id:"TR-37"},{id:"TR-38"},{id:"TR-79"},{id:"TR-71"},{id:"TR-39"},{id:"TR-40"},{id:"TR-41"},{id:"TR-42"},{id:"TR-43"},{id:"TR-44"},{id:"TR-45"},{id:"TR-47"},{id:"TR-48"},{id:"TR-49"},{id:"TR-50"},{id:"TR-51"},{id:"TR-52"},{id:"TR-80"},{id:"TR-53"},{id:"TR-54"},{id:"TR-55"},{id:"TR-63"},{id:"TR-56"},{id:"TR-57"},{id:"TR-73"},{id:"TR-58"},{id:"TR-59"},{id:"TR-60"},{id:"TR-61"},{id:"TR-62"},{id:"TR-64"},{id:"TR-65"},{id:"TR-77"},{id:"TR-66"},{id:"TR-67"}-->
   </defs>
   <rect id="background" class="rectangle" stroke-width="0" stroke="#000" width="1000" height="1000" y="0" x="0"
      fill="#d3d3d3" />
   <path
      d="m 557.76904,532.96914 -3.69159,10.57301 -3.50045,4.19337 3.8708,1.98319 -3.34513,4.74292 2.97478,6.45133 -1.38584,4.30089 -3.45266,3.4646 v 0 l -6.55885,3.35708 -2.56859,3.84691 -1.54115,4.93407 -0.56151,5.23275 2.78363,12.62788 -1.48141,10.87169 v 0 l -2.66416,3.16593 0.29867,3.0823 v 0 l -10.72833,10.2624 -5.9615,-0.0478 -1.9593,1.25443 -1.00354,2.07876 1.08717,-0.50177 0.0119,1.40973 0.0478,-1.78009 1.20663,-0.65708 0.14337,1.81593 2.16239,-0.26283 -0.25089,-0.88407 1.29027,0.89602 -3.82301,2.66416 -0.93186,3.75133 -3.52434,2.53274 -6.12876,-1.5292 -4.57567,3.18982 -16.54647,-10.44159 -4.92213,-0.74071 v 0 l 2.55664,-1.26638 0.19115,-1.1469 3.27346,0.27478 0.0239,-1.31416 0.82434,0.80044 1.54115,-2.04292 3.39292,0.87213 0.9677,-1.83983 -0.81239,-8.07611 -1.61283,-7.16815 -3.59602,-2.12655 -2.01903,-0.0119 -1.09912,-2.77168 -2.61637,-1.51726 0.0239,-1.83983 2.41328,-2.25796 -0.0956,-1.46947 -7.27566,-8.49426 -0.83629,-4.38451 v 0 l 3.14204,-2.49691 -0.90796,-1.7323 1.19469,-1.62478 1.86371,-8.44646 6.03319,0.72876 3.93054,-5.97346 5.42389,-3.22566 v 0 l 6.49912,2.26991 1.57699,-0.40619 1.51726,2.01903 8.51815,0.51371 1.46947,-2.47301 1.54115,-11.17036 3.91859,-1.69646 5.20885,-5.61505 7.86107,-2.96283 3.01062,-7.78939 4.36062,-5.9615 6.11682,-1.79204 z"
      class="land" title="Adana" id="TR-01" />
   <path
      d="m 691.897,538.07047 3.95442,-1.30221 1.94735,3.4646 -2.1146,5.23275 -2.79558,2.97478 v 0 l -3.63186,0.72876 -1.5292,1.35 -1.577,4.34867 -2.65221,1.13496 0.90796,0.83628 -0.68097,3.6677 -2.54469,-0.0358 -1.48142,1.44558 2.98673,-0.0597 0.0597,3.09424 -2.03097,0.64514 -0.26283,1.70841 -1.49337,1.00354 -3.18982,0.63318 1.69646,2.42523 -9.89204,2.01902 -8.01638,7.00089 -2.47301,1.29027 -8.19558,0.62124 -1.30221,2.05487 -2.35354,-0.4062 -1.02744,2.49691 -4.55177,-2.46107 v 0 l -6.72611,-2.85531 -9.0677,-0.31062 -2.01903,-2.21018 -5.17301,1.61284 -2.1385,-1.00355 v 0 l -1.69646,-4.38451 -4.68319,-0.50177 -0.81239,-2.3416 1.60089,-2.35354 0.32256,-3.73938 3.05841,-3.18982 -0.1792,-5.47169 3.91858,-2.23407 1.74425,-3.14204 v 0 l 1.02744,1.11106 -0.52567,2.17434 3.77523,-0.86018 1.24248,2.97479 2.43717,-1.35001 5.24469,1.12301 5.59115,-1.07522 4.79071,-4.4562 -0.84823,-3.95442 -1.61283,-2.18629 0.46593,-1.30221 8.60177,-3.27345 1.9593,-2.7239 1.69646,-0.64513 4.88628,-0.32257 7.03673,3.44071 0.84824,1.35 2.44911,0.46593 8.26726,5.67478 10.10709,-4.05 0.53761,-1.64867 z"
      class="land" title="Adıyaman" id="TR-02" />
   <path
      d="m 262.51312,471.56202 3.85885,0.70487 2.44912,5.88983 3.41681,1.62478 3.84691,3.90664 2.05487,-4.81461 9.70089,1.05133 1.15885,-2.40133 -3.59602,-2.40133 -0.27478,-1.38584 2.93894,-0.22699 3.83496,1.62478 0.66902,-1.91151 2.3416,-0.40619 1.42168,-3.71549 1.67257,-1.09912 4.6115,3.18983 4.26505,-1.20664 5.36416,4.99381 0.72877,3.41681 4.18141,1.1708 2.11461,3.23761 v 0 l 1.38584,2.70001 6.33186,1.08716 0.66903,1.09912 -7.10841,1.44558 0.9438,1.78009 -0.59734,6.59469 -4.05001,7.52655 0.52567,2.11461 2.66416,2.41327 -14.6947,9.56948 -1.44558,4.48009 v 0 l -1.54115,0.25088 -2.23407,-3.53628 -3.03451,-2.38938 -6.65443,1.05132 -3.71549,3.61992 -4.42036,1.99513 -3.69159,6.37965 -7.08452,4.48009 -6.51107,1.62478 -8.15974,9.01992 -4.80265,2.21018 -3.73939,4.75487 0.23894,4.21726 -2.56858,5.17301 v 0 0 0 l -9.31859,-0.39425 v 0 l -9.17523,-5.2208 -1.62478,-3.64381 0.39425,-3.39292 6.24823,-5.83009 2.42522,-3.90664 5.2447,-0.26283 2.26991,-3.70354 3.29735,-2.68806 -2.92699,-8.05222 -3.15399,-1.31416 -1.36195,-2.12655 -2.10265,-0.23893 -1.63673,-1.86372 -1.95929,-0.0239 -2.47301,-1.67256 v 0 l 5.6031,-7.32346 1.85177,-1.06327 -1.19469,-4.80266 4.69513,-4.03806 0.71682,-3.0823 v 0 l 2.48495,-0.70487 3.14204,-4.18142 3.40487,-1.40973 2.93894,-4.67124 -0.57345,-8.54204 4.00221,-2.61638 3.26151,-0.14336 z"
      class="land" title="Afyonkarahisar" id="TR-03" />
   <path
      d="m 858.23382,428.99518 28.31418,-6.91726 8.8646,1.40974 v 0 l 3.71549,0.99159 3.44071,4.0739 0.64513,8.38673 2.87921,-0.26283 1.95929,-3.08231 2.04292,-0.53761 4.02611,3.14204 8.54204,0.80044 4.30089,3.23762 h 7.57434 l 5.08938,1.60088 4.49204,-0.54956 6.42744,2.78363 4.57567,-0.5615 v 0 l 0.31062,4.62345 -2.75974,2.83142 0.88407,3.99027 -1.27832,2.01903 0.48983,3.59602 -6.53496,2.62832 -2.9031,-2.75974 -4.36063,1.20664 -3.67964,-0.89602 -1.68452,2.09071 v 0 l -8.13584,1.29026 -3.59602,5.81815 -3.88275,3.42876 -3.8708,-0.48982 -5.13717,-2.71195 -6.23629,-6.70222 -6.45133,-0.44203 -5.6031,1.66062 -0.20309,9.52169 -4.85045,3.91858 -3.76328,6.67833 v 0 l -2.66416,0.88407 -0.29867,3.36903 -6.28407,2.78363 -5.67479,-0.80045 v 0 l -0.25088,-7.69381 0.9677,-4.77876 -4.95797,-10.93142 -0.65708,-4.0739 -4.10974,0.0717 -1.85177,-4.85044 -4.18142,-4.31284 v 0 l 1.81593,-3.38097 4.05001,-3.18983 0.80044,-1.78009 -3.51239,-3.6677 -6.37965,-3.32124 -2.28186,-5.18496 1.42168,-1.46947 z"
      class="land" title="Ağrı" id="TR-04" />
   <path
      d="m 431.54994,483.48504 1.33806,1.1708 2.58053,-1.13496 0.93186,1.30221 2.95088,-0.40619 1.87567,3.61991 -0.0239,2.80752 5.14911,5.16107 2.68806,1.01549 3.16593,-0.62124 v 0 l 1.27832,1.1469 -0.25089,4.64735 -1.81593,3.35708 0.45399,3.1062 5.41195,2.89115 3.50044,5.36416 0.52566,4.46815 1.91151,1.83982 v 0 l -3.70354,2.16239 -0.94381,6.94115 -4.02611,5.94957 -2.50885,1.9115 -5.23274,1.31416 -4.01417,3.96638 v 0 l -31.14559,7.38319 -3.44071,-3.83496 -2.07876,-4.59956 -4.82655,-3.50045 -0.53761,-5.20885 -2.50885,-4.24115 3.57212,-11.42125 3.72744,-4.10974 1.5531,-4.70708 6.3438,-2.05487 v 0 l 4.73098,-0.10752 8.07611,-3.18982 3.15399,-6.76195 -1.52921,-5.02965 2.03098,-3.11815 0.21504,-4.10973 z"
      class="land" title="Aksaray" id="TR-68" />
   <path
      d="m 492.32387,353.72964 6.09293,0.75266 1.97124,2.48495 6.47522,-1.08717 3.2854,1.73231 1.72036,-1.25443 0.66902,1.48142 1.63673,-1.21859 1.88761,4.55178 3.64381,1.82787 -0.4062,2.01903 0.95576,1.25443 5.14911,0.20309 1.78009,1.72036 6.06903,-1.44558 8.25532,3.38098 1.98319,-5.93762 1.49336,-0.52566 1.1708,-2.50885 6.60664,2.43717 0.34646,1.30221 -1.97124,2.28186 5.62699,2.26991 v 0 l 0.59735,2.11461 4.02611,2.13849 -3.88275,3.4885 0.28673,2.92699 -1.30222,2.40133 -6.71416,0.52567 0.33451,1.51725 3.20178,0.52567 -2.43717,2.00708 -1.05133,2.62832 -6.49912,2.97478 -1.38584,1.94735 -4.56372,-1.68452 0.10752,-1.12301 -1.97124,-1.03938 -6.67832,0.34646 -1.27832,3.6916 -3.03452,1.9354 -0.20309,2.04292 -2.95089,1.99513 -5.69868,1.29027 -5.69867,3.64382 v 0 l -3.24956,0.5854 v 0 l 2.84336,-4.79073 -2.43717,-1.80398 1.60089,-3.36903 -0.77655,-2.28186 2.29381,-0.95575 0.0119,-2.04292 1.92346,-1.35 0.69292,-2.46107 -2.87921,-5.05354 -5.47168,-1.30221 0.21504,-4.40841 -6.85752,-0.48983 -4.74293,1.36195 -4.61151,-3.51239 -0.45398,-4.05 3.54823,-6.64248 -3.04646,-3.8947 3.71549,-2.91504 z"
      class="land" title="Amasya" id="TR-05" />
   <path
      d="m 366.46318,377.56373 4.68319,-0.32257 8.76903,5.16106 5.83009,1.42169 0.7885,1.86371 -1.13496,4.277 4.49204,0.0358 6.42744,2.56858 5.47168,9.01992 2.78363,-1.37389 1.88761,-2.97478 3.1062,0.58539 1.40973,1.78009 4.09779,-0.48982 7.84912,1.36195 0.95576,1.24248 v 0 l -2.95089,0.5854 0.0836,1.72035 -2.48496,2.44913 0.65708,0.7885 -1.36195,2.78362 0.82434,1.54116 -1.01549,5.26858 1.31416,1.97124 -2.85531,2.73585 -7.99248,2.81947 -2.93894,8.05221 -1.5531,0.47788 0.50177,4.2531 -3.79912,6.35576 6.73806,5.7823 0.88407,8.26726 -0.59734,2.95089 1.86372,0.88407 v 0 l 2.48495,3.83496 -1.31416,1.31416 3.0823,1.89956 3.34514,5.97345 3.54823,1.40974 5.23275,4.55177 0.27478,1.61283 4.86239,0.31062 0.83628,1.1708 v 0 l -1.42168,3.36903 -0.21504,4.10973 -2.03098,3.11815 1.52921,5.02965 -3.15399,6.76195 -8.07611,3.18982 -4.73098,0.10752 v 0 l -5.35221,-8.25531 -1.5292,-8.69735 0.3823,-7.12036 -6.96505,-4.36062 -2.71195,-3.39292 -0.99159,-5.92567 3.51239,-1.91151 -0.81239,-1.81593 -3.73939,1.21859 -4.27699,3.97832 -1.43363,-1.01549 0.41814,-4.67124 -0.82433,-0.81239 -7.41903,2.07876 -1.44558,2.19823 -0.91991,5.29249 -3.2854,1.63672 -0.43009,4.75487 -4.05,2.48496 -4.82655,-2.25797 -2.77169,4.0739 -1.54115,0.60929 -3.0823,-0.37035 -4.18142,-3.14204 -2.99867,1.33805 -1.26638,-1.48141 -3.76327,5.2208 -4.89824,-0.50177 -2.26991,-2.24602 -4.22921,-8.36284 -1.27831,-0.54956 v 0 l 0.40619,-2.99867 7.40708,-8.11195 -0.15531,-1.29027 -3.30929,-1.37389 0.90797,-1.79204 -1.25443,-1.80398 0.80044,-4.8624 -2.00708,-0.71681 0.45398,-1.66062 -2.24601,-2.32965 -1.66062,-6.66637 -3.16594,-4.42036 1.9593,-5.49558 1.46947,-1.29026 -2.40133,0.3823 1.03938,-1.42169 -0.66903,-0.71681 -2.65221,0.40619 -1.68452,-1.45752 -1.55309,-2.23407 -0.14337,-2.30575 -2.06681,-0.94381 0.78849,-2.25797 -2.41327,0.53761 0.46593,-2.71194 -2.3416,1.89956 -4.16947,-0.91992 -1.68451,1.14691 -2.06682,-1.51726 -3.03451,1.7323 -0.68098,-1.23053 1.9593,-0.63319 -1.78009,-1.11106 -2.54469,1.06328 -3.56018,-1.06328 -3.64381,1.03938 -3.93053,-1.60088 -0.84823,1.25442 -3.59602,0.45398 -0.48983,1.18275 -3.78717,-0.11947 -4.10974,-2.16239 -1.25442,-5.66284 v 0 l 4.88629,-2.99867 10.05929,-11.24206 5.14912,0.7885 8.75709,-1.51726 1.18274,0.81239 0.77655,2.98673 7.50266,0.91991 7.49071,-1.5292 7.29956,0.27478 3.54823,-2.85531 3.40487,-0.59735 4.06195,0.5854 2.16239,2.24602 3.4885,-0.41814 1.06328,-2.25797 -2.86726,-4.15752 1.45752,-4.56372 2.46106,-1.7562 9.36638,-2.95089 0.14336,-1.55309 -1.81593,-2.17434 0.21505,-1.88761 1.54115,-1.27832 z"
      class="land" title="Ankara" id="TR-06" />
   <path
      d="m 306.60916,583.63598 3.89469,3.82301 10.68054,2.48496 3.34514,-0.47788 4.14557,-2.47301 2.05487,0.11947 1.26638,3.47655 2.56858,2.5208 2.74779,8.24337 5.08938,7.10841 8.9124,4.10974 1.72035,2.07876 1.01549,5.25664 5.91372,3.96637 v 0 l -1.03938,6.45133 0.59734,2.19824 7.19204,7.41903 v 0 l 4.14558,12.49646 -2.77168,7.5385 0.90796,2.71195 -2.22212,4.10974 v 0 l -3.65576,-0.53761 -9.2469,-7.46682 -6.69027,-11.31372 -7.08452,-7.52656 -1.61283,0.65708 -1.3739,-1.75619 -9.23496,-2.83142 -1.68451,-2.01903 -3.73939,-0.7646 -5.59115,-3.96637 -8.15974,-3.02257 -0.0478,-1.07522 -2.81947,-1.72036 -15.97301,-2.96283 -12.06638,0.64513 -3.05841,-2.34159 -3.27346,1.7084 -2.78363,3.61992 -0.97964,10.83585 1.76814,1.85177 -4.19336,7.59823 0.0836,1.62478 -1.44557,0.43009 -0.19115,2.1385 2.59248,3.94248 -3.11815,1.30221 1.03938,2.1146 -3.95442,4.09779 0.21504,-3.61991 -2.17434,0.0836 -4.20531,-2.7239 -4.6354,0.0358 -1.80398,0.7885 -0.012,1.7323 -0.59735,-0.35841 -1.21858,1.9354 -2.86726,-1.75619 -0.32256,1.3261 -3.17788,2.28186 -2.73585,-1.05132 -2.23407,2.34159 h -2.24602 l -1.99513,1.94735 1.49336,-0.27478 -2.59248,1.87566 -0.89601,-0.45398 1.09911,-0.82434 -2.73584,-0.32256 -2.21018,1.62478 -2.44912,-2.03098 0.9677,-0.28672 -0.23893,-1.32611 -3.03452,0.54956 2.36549,-1.12301 -10.8239,-1.1708 0.22699,-2.12655 -1.36195,-0.33451 -1.02743,0.10752 -0.72876,2.01903 -4.33673,-3.91859 v 0 l 2.37743,-1.62478 -0.14336,-4.08584 1.05133,-0.45399 -0.54956,-2.81947 3.71549,-2.00708 6.12876,-0.3584 2.73585,-2.42523 2.58053,-4.48009 4.6354,-2.92699 1.54115,-3.84691 -0.0239,-7.35929 2.85531,-4.99381 -0.63319,-2.67611 -1.9115,-1.61283 v 0 l 4.31283,-3.91859 -0.86018,-4.49204 1.1708,-2.17433 5.25664,-4.73098 3.88275,-1.37389 7.87301,-5.97346 6.84558,-0.45398 8.44647,5.13717 14.94558,0.50177 1.83982,-1.1708 3.78717,-7.76549 -1.35,-1.88761 v 0 l 3.16593,0.0597 4.277,3.57213 4.91018,-3.71549 z"
      class="land" title="Antalya" id="TR-07" />
   <path
      d="m 867.56436,318.89245 3.8469,1.61284 2.98673,-0.46593 -1.68452,5.80619 2.32965,1.61284 0.82434,-1.67257 1.63672,-0.21504 v 1.43362 l 3.36903,1.86372 2.61638,4.94602 3.70354,1.15885 2.03097,2.55664 3.72744,0.90797 -0.0239,1.01548 -4.12169,2.3177 3.2854,0.0956 1.91151,5.0177 5.77035,-1.75619 4.8624,1.75619 1.31416,3.41682 -1.36195,1.62478 1.18274,1.94734 -0.10752,2.43717 2.55664,1.07523 v 0 l -1.98319,2.04292 -5.16106,0.47787 -2.23407,1.29027 -7.72966,-0.46593 -3.6438,1.51726 -2.46107,-1.23053 -2.73584,2.99867 -4.38451,2.29381 -0.50177,2.2938 -5.16107,5.65089 -0.63319,4.09779 -4.42035,0.22699 -1.58894,1.63673 v 0 l -2.07876,-0.46593 -3.01062,-6.28407 -8.43452,-1.9593 -3.41682,-6.75 v 0 l 3.01062,-2.64027 0.97965,-2.8792 -2.30575,-2.04293 -1.60089,-3.70354 2.29381,-1.74425 0.9438,-3.83495 6.09293,-3.1062 4.39646,-5.02965 -1.88761,-4.44425 -2.44912,-2.06682 0.28673,-3.65575 v 0 -2.19823 l 2.93894,-2.38938 0.20309,-3.70354 1.21859,-1.31416 z"
      class="land" title="Ardahan" id="TR-75" />
   <path
      d="m 832.14177,324.17299 2.99867,1.81593 6.7739,-1.35 1.36195,1.55309 3.83496,-0.13141 2.23407,1.69646 3.50044,0.0358 2.38939,1.85177 3.16593,-0.0358 v 0 l -0.28673,3.65575 2.44912,2.06682 1.88761,4.44425 -4.39646,5.02965 -6.09293,3.1062 -0.9438,3.83495 -2.29381,1.74425 1.60089,3.70354 2.30575,2.04293 -0.97965,2.8792 -3.01062,2.64027 v 0 l -4.02611,-3.77522 -10.97921,-0.37036 -6.35575,6.02124 0.60929,6.5947 -3.14204,3.07035 -0.51372,3.64381 -1.95929,1.76814 -2.00708,0.0836 -0.48982,-3.6677 -0.9916,-0.41814 -8.96018,3.83496 -6.34381,4.64734 -1.87566,-0.3584 -0.75266,-2.64027 -0.0717,-4.40841 1.91151,-1.11106 -0.0358,-0.97965 -2.80753,-2.99867 -8.8885,-3.93054 v 0 l 4.34868,-5.92566 0.9677,-3.6916 5.67478,-6.46328 3.23761,-2.10265 -6.84558,-9.21107 -0.23894,-3.40487 -1.56504,-2.72389 v 0 l 6.85752,-2.78363 7.29957,-9.10355 4.26504,2.10266 3.85885,-0.53761 -0.0717,1.44557 3.73939,0.82434 1.81593,1.85177 2.99867,-1.86372 2.23407,-3.05841 z"
      class="land" title="Artvin" id="TR-08" />
   <path
      d="m 172.64846,545.07136 3.32125,1.46947 1.9115,2.12655 5.4239,0.99159 -1.7562,3.38098 -3.59602,0.39424 0.56151,6.67833 1.66062,2.47301 5.30443,3.38097 -2.89116,3.63186 -0.91991,4.06195 -7.56239,6.31992 -0.54956,4.95796 -0.86018,0.56151 v 0 l -1.60088,0.28673 -6.53496,-4.69514 -10.90753,-0.44204 -0.80044,-2.47301 -6.36771,5.11328 -8.79292,-0.69292 -5.97346,1.03938 -3.56018,-3.16593 -3.13009,0.19115 -5.11327,-2.16239 -3.59602,0.57345 -3.09425,2.35354 -0.81239,4.55178 v 0 l -1.85177,0.66902 -1.09912,2.16239 -1.27832,-0.44203 -0.0956,2.13849 -1.89956,-0.82433 -1.94735,1.24248 -2.68806,-1.13496 1.7562,-3.07036 -0.0956,-4.21725 -1.30221,-0.90797 -0.37036,-3.59602 -1.19469,0.0239 2.54469,-2.65221 -4.73097,-2.71195 -5.93762,-1.75619 1.32611,-1.88762 3.29735,0.54956 6.70222,-2.68805 1.7562,-5.2208 -1.6009,-1.94735 1.55311,-3.4646 v 0 l 3.95442,1.74425 0.94381,2.83141 3.36903,-2.65221 0.83628,-5.11328 4.15753,-2.7 3.2615,-0.10752 6.34381,3.27345 14.1093,-4.32478 12.16196,-1.13496 2.3177,-1.75619 0.82433,-2.05487 3.64381,-1.1708 4.09779,2.09071 1.43363,-2.64026 v 0 z"
      class="land" title="Aydın" id="TR-09" />
   <path
      d="m 73.668314,461.90892 1.97124,0.27478 -2.305753,1.19469 1.457523,0.45398 0.621239,1.54115 1.576992,-0.59734 -0.262832,0.95575 -3.309294,0.43009 -0.370354,-3.38098 -0.907965,-0.40619 z m 49.018176,-71.57395 1.5292,0.9677 -0.87212,1.58894 1.48142,0.15531 0.13141,1.30221 -4.39646,-1.08717 0.23894,-1.25442 1.27832,0.012 -0.43009,-1.73231 z m 6.58275,-1.1469 1.19469,-0.0717 0.37035,1.30221 3.67965,-0.63319 8.56593,2.41328 -0.75265,2.01903 -5.93762,3.82301 2.74779,2.24602 9.18718,-2.40133 v 0 l 2.36549,3.67965 0.0358,2.55664 -3.73939,6.46329 2.28186,1.98318 0.0956,4.99381 1.66062,2.19823 0.54956,3.39292 2.25796,2.06682 -0.0478,3.90664 1.94735,2.83142 1.9354,1.33805 4.51593,0.32257 2.46107,2.99867 5.53141,3.17788 3.23762,-0.88407 1.85177,-1.94735 1.68451,0.4062 0.7646,6.89336 1.69647,-0.0597 1.08716,2.72389 9.91594,1.09912 v 0 l 0.22699,1.88761 -3.42876,3.63186 1.08717,7.88496 -7.33541,8.41063 -8.6854,1.58894 1.91151,4.82655 v 0 l -4.19337,-0.44204 -8.5062,4.6593 -5.13717,-0.95576 -3.32124,2.87921 -2.19823,0.33451 -5.12523,-7.46682 -5.41195,-4.13363 -1.57699,-4.42035 -1.61283,-1.61284 -5.12523,3.45266 -4.20531,-4.28894 -7.59823,1.24248 -5.56726,-4.44425 -2.97478,1.82788 v 0 0 0 l -7.82523,1.92345 -3.79912,-1.12301 -4.30089,1.31416 -3.77522,4.30089 -8.303103,2.66416 -3.153984,4.37257 v 0 l -2.293807,-5.78231 -5.459738,-1.24248 2.114603,-2.9031 0.203098,1.23054 -1.230532,0.37035 1.995134,1.12301 -0.430089,-1.46947 1.947346,-2.1385 5.125225,-3.56018 -0.334514,-2.59248 2.735842,-0.44203 0.131416,-2.32965 3.536286,-0.48982 1.111062,-4.36062 -1.290266,-1.91151 -2.305753,-0.21504 -2.09071,1.78009 -3.070355,-0.86018 -6.511066,1.03938 v 0 l 0.334513,-3.58407 3.058409,-4.2531 5.232747,-1.18275 3.930533,-2.84336 4.539823,0.51372 4.22921,2.24601 3.47655,-0.27477 7.66992,2.1146 4.06195,-4.02611 5.96151,-3.52434 1.18274,-1.74425 0.80044,-6.55885 -3.02256,-5.13717 0.14336,-4.01416 -4.01416,-3.67965 3.33319,-5.17301 3.6677,-2.62832 0.64513,-2.25797 -0.84823,-1.88762 v 0 l 4.50398,-1.76815 2.25797,1.31416 4.00221,0.11947 5.99735,-4.33672 -2.85531,-1.72036 -1.27832,1.06328 -2.46106,-2.98673 0.14336,-1.35 -3.02257,-1.46947 -0.16725,-1.88761 z m -10.85974,-0.23894 0.93185,0.54956 -1.38584,1.26637 0.56151,0.88407 -2.32965,1.26637 0.4062,-3.40486 0.97964,-1.11107 z m 5.24469,-8.87655 5.08938,2.13849 -6.61859,3.81107 -3.88274,-1.43363 0.15531,-3.32124 z"
      class="land" title="Balıkesir" id="TR-10" />
   <path
      d="m 375.22026,302.71634 0.72877,2.54469 1.83982,1.31416 -1.01549,2.73584 1.18275,1.7562 3.07035,-0.0597 2.77169,-1.38584 1.78008,0.91991 -3.83495,9.79647 v 0 l -2.43717,0.46593 -1.30222,2.3177 -6.79779,2.89115 -0.44203,1.54115 2.10265,5.85399 -1.57699,3.70354 -2.5208,-1.81593 -2.79557,1.57699 -2.9031,-1.20664 -4.61151,3.34514 -6.33186,-1.69646 v 0 l 1.86372,-3.95443 v -2.83142 l -2.26992,-2.66416 0.0239,-3.44071 -3.36903,-0.52566 -2.87921,-4.6593 v 0 l 7.51461,-8.01637 2.62832,-0.0597 2.40133,-1.9354 1.44557,0.69292 4.18142,-4.07389 3.58408,-0.66903 0.33451,-1.00354 4.62345,-0.2031 z"
      class="land" title="Bartın" id="TR-74" />
   <path
      d="m 807.8776,514.41559 6.49911,3.94248 -1.03938,6.61859 2.04292,7.08451 2.43717,2.96284 v 0 l -3.88274,7.63407 -7.86107,3.24956 -6.14071,5.92567 -0.59734,2.40133 11.33761,8.64956 1.50531,2.68805 6.03319,2.00708 2.77169,-0.57345 2.60442,1.7562 v 0 0 0 0 0 l -2.58053,2.23407 -7.19204,0.66903 -5.13717,4.48009 -7.5624,3.70354 -13.64337,1.18275 -3.95442,-13.55975 v 0 l 2.4969,-3.70354 -3.47655,-1.51726 0.95575,-3.40487 5.35222,-7.74159 2.75973,-7.80134 3.08231,-3.15398 -2.91505,-2.21018 0.32257,-8.1239 5.20885,-9.93983 4.34868,-1.40973 v 0 l 3.73938,-0.66903 z"
      class="land" title="Batman" id="TR-BM" />
   <path
      d="m 763.26784,387.8978 -1.88762,6.82169 0.9677,3.38097 -3.23761,9.61728 1.82788,1.85177 7.69381,0.0597 0.16725,2.89116 -2.22212,3.14203 -9.24691,5.51947 -6.49912,-0.31061 v 0 l -18.32656,-0.65708 -3.6677,1.92345 -3.8469,3.77522 v 0 l -4.50399,-4.64735 5.31638,-6.80974 3.52433,-8.49425 -0.26283,-8.44648 1.46947,-4.21725 17.17966,-2.927 v 0 l 10.4177,-1.12301 v 0 z"
      class="land" title="Bayburt" id="TR-69" />
   <path
      d="m 238.22505,389.82126 3.27346,6.03318 1.24247,0.34646 1.76815,-1.86371 2.00708,3.50044 2.54469,1.67257 2.86726,0.5615 4.98186,-1.72035 2.32965,1.33805 4.00221,-1.83982 2.09071,2.16239 2.34159,-0.16726 v 0 l 5.59116,14.00179 v 0 l -3.96638,1.44558 -6.53496,6.63053 -2.56858,1.30222 -1.02744,2.10265 -2.91504,2.10266 -2.16239,4.58761 -7.7416,1.40974 -4.01416,4.98186 -1.38584,4.59956 v 0 l -7.26372,-0.29867 -1.85177,-0.93186 -4.14558,-3.54824 -2.03098,-6.76195 v 0 l 4.43231,-4.10973 -2.79558,-3.03452 -0.23894,-1.60088 1.45752,-1.45753 -0.81239,-7.14425 2.9031,-1.88761 -0.52566,-4.05 1.82788,-1.97124 0.77655,-6.65444 2.16239,-2.3177 -0.41815,-5.12523 z"
      class="land" title="Bilecik" id="TR-11" />
   <path
      d="m 754.59438,454.09564 8.55399,-0.66903 3.4646,1.19469 v 0 l -1.06328,2.5447 1.81594,1.61283 3.20177,0.60929 15.91328,-1.87566 5.99735,5.67478 v 0 l -2.06682,2.7 -0.15531,3.51239 4.56372,7.93275 4.18142,2.38938 0.68098,2.3416 -0.81239,1.85177 -5.45974,2.30575 -3.17788,3.78717 -0.91991,6.66638 0.69292,7.37124 v 0 l -8.85266,2.98673 -3.1062,4.73097 -3.11814,1.61284 -7.21593,-3.54824 -0.88408,3.32124 -1.42168,0.83629 -4.55177,-3.03452 -4.0739,-0.3584 -3.15398,3.35708 -0.15531,3.51239 -1.09912,1.1469 -4.9938,1.06328 v 0 l -6.0093,-11.91107 2.81947,-2.1385 1.40974,-2.58053 4.87433,-0.25089 1.24248,-0.9438 -0.68097,-2.25797 -4.49204,-3.22566 -1.42168,-4.01416 0.32257,-2.5208 -1.03939,-0.94381 2.31771,-4.05 -0.0836,-3.42876 3.38097,-4.06195 0.0597,-2.37744 -1.50531,-0.89602 -3.94248,2.04293 -5.55532,0.90796 -4.82655,3.30929 -4.69513,-0.0478 v 0 l 2.37743,-8.62567 3.14204,-2.7239 -1.42168,-5.07743 9.03186,0.62124 z"
      class="land" title="Bingöl" id="TR-12" />
   <path
      d="m 881.87675,484.81115 3.73939,3.04646 1.23053,2.85531 6.09292,2.74779 0.22699,1.7323 -2.64026,3.79912 -6.7739,4.03805 -4.82655,4.48009 -7.72965,11.55267 -0.43009,7.34734 -5.55532,3.83496 0.0119,1.44558 1.98319,1.50531 0.48982,2.8792 -2.22212,12.10222 v 0 l -0.80045,1.38585 -2.68805,1.07522 0.40619,1.1469 -1.64867,1.49336 -0.81239,-1.55309 -3.65575,-1.24248 -12.18585,-13.81063 -5.02965,-0.13142 -4.08584,2.48496 -1.87567,0.0478 -1.08717,-0.41814 -0.16725,-1.50531 -5.31638,0.95575 -2.05487,-0.72876 -1.49336,-2.32965 -5.16107,-0.0239 v 0 l -2.43717,-2.96284 -2.04292,-7.08451 1.03938,-6.61859 -6.49911,-3.94248 v 0 l 0.31062,-1.06328 3.61991,-1.75619 9.37832,0.50177 8.45841,1.98318 1.3739,-3.30929 6.9531,-6.30797 -0.3823,-4.10974 2.64027,-1.25442 0.97964,-3.4885 1.74425,-1.97124 11.93496,-3.63186 12.06638,1.03938 v 0 l 5.67479,0.80045 6.28407,-2.78363 0.29867,-3.36903 z"
      class="land" title="Bitlis" id="TR-13" />
   <path
      d="m 349.71361,352.09291 5.99735,0.84824 v 0 l 2.47301,8.23142 0.0597,4.08584 5.67478,-0.14336 3.69159,5.62699 -1.1469,6.82169 v 0 l -3.90664,0.69292 -1.54115,1.27832 -0.21505,1.88761 1.81593,2.17434 -0.14336,1.55309 -9.36638,2.95089 -2.46106,1.7562 -1.45752,4.56372 2.86726,4.15752 -1.06328,2.25797 -3.4885,0.41814 -2.16239,-2.24602 -4.06195,-0.5854 -3.40487,0.59735 -3.54823,2.85531 -7.29956,-0.27478 -7.49071,1.5292 -7.50266,-0.91991 -0.77655,-2.98673 -1.18274,-0.81239 -8.75709,1.51726 -5.14912,-0.7885 -10.05929,11.24206 -4.88629,2.99867 v 0 l -2.38938,-0.9677 -5.56726,1.43363 v 0 l -5.59116,-14.00179 v 0 l 0.95576,-2.17434 -0.34646,-7.20398 8.04027,0.29867 6.77389,-1.43363 2.77169,-2.68805 -2.22213,-4.18142 1.7562,-2.91505 v 0 l 7.89691,1.05133 5.48363,-0.82434 3.52433,-5.41195 1.50532,-4.75487 7.5146,-3.33318 1.1469,-9.01992 v 0 l 5.627,-2.15044 9.12744,-0.0478 3.8708,1.82788 z"
      class="land" title="Bolu" id="TR-14" />
   <path
      d="m 245.9786,562.46606 5.90177,0.62124 8.91239,-3.26151 1.52921,1.99513 -1.02744,3.27346 0.81239,1.61283 4.30089,0.80044 4.32478,-0.62124 6.53496,3.53629 0.89602,6.17655 3.88275,4.00222 0.59734,3.96637 1.83983,0.45398 v 0 l 1.35,1.88761 -3.79912,7.7655 -1.82788,1.17079 -14.94558,-0.50177 -8.44647,-5.13717 -6.84558,0.44204 -7.87301,5.9854 -3.88275,1.37389 -5.25664,4.74293 -1.17079,2.16239 0.86017,4.50398 -4.31283,3.91859 v 0 l -4.10974,-1.50531 -5.32832,2.21018 -3.58407,8.69735 -1.27832,-0.32257 -0.59735,1.64867 -3.23761,-0.97964 1.38584,-3.13009 -2.74779,-0.0239 -1.11106,-1.33805 v 0 l 2.24602,-5.19691 -1.68451,-2.75973 0.43009,-1.66062 4.9938,-3.24956 0.69292,-6.45133 1.78009,-4.05001 7.31151,-7.59823 -0.9677,-2.00708 -5.41195,-3.13009 -0.27478,-1.33806 1.86372,-2.64026 -1.64867,-4.38452 0.87212,-1.24248 3.70354,-1.11106 4.85045,1.15885 -0.93186,-3.27345 0.63319,-0.91991 7.12036,-2.38939 3.35708,-4.27699 v 0 z"
      class="land" title="Burdur" id="TR-15" />
   <path
      d="m 168.82545,386.60754 -1.48141,3.53628 -0.28673,-3.58407 z m 43.60622,0.62124 5.34027,1.05132 12.40089,-3.91858 8.63762,2.24602 v 0 l -0.5854,3.21372 v 0 l -3.79912,2.2938 0.41815,5.12523 -2.16239,2.3177 -0.77655,6.65444 -1.82788,1.98318 0.52566,4.05001 -2.9031,1.88761 0.82434,7.14425 -1.45752,1.45752 0.23894,1.60089 2.79557,3.03451 -4.4323,4.10974 v 0 l -6.10487,0.37035 -2.09071,-1.87566 -4.37257,-1.5292 -1.82788,7.43097 -5.20885,4.6354 -0.91991,3.02257 -3.45266,2.55664 -1.21858,2.19823 -10.0593,-0.27478 v 0 l -9.91594,-1.09911 -1.08716,-2.7239 -1.69647,0.0597 -0.7646,-6.89337 -1.68451,-0.40619 -1.85177,1.94734 -3.23762,0.88407 -5.53141,-3.17788 -2.46107,-2.99867 -4.51593,-0.32257 -1.9354,-1.33805 -1.94735,-2.83142 0.0478,-3.90664 -2.25796,-2.06681 -0.54956,-3.39292 -1.66062,-2.19824 -0.0956,-4.9938 -2.28186,-1.98319 3.73939,-6.46329 -0.0358,-2.55664 -2.36549,-3.67965 v 0 l 18.3385,-0.39425 7.52656,2.30576 6.40354,-2.11461 9.07965,2.46107 3.88275,-0.51372 1.89956,-3.52434 2.93894,-0.31062 -3.50045,-3.4646 -2.72389,-0.0836 -2.73585,1.29027 v 0 l 0.75266,-6.49912 10.57301,2.18628 5.88983,-2.10265 z"
      class="land" title="Bursa" id="TR-16" />
   <path
      d="m 45.569183,433.21244 1.039381,2.62832 -1.266373,0.81239 -4.575666,-2.34159 0.01195,-0.9677 z m -5.555313,-25.33939 1.361947,1.29026 -0.465929,4.31284 2.246019,-0.86018 -0.884071,1.9354 -12.532309,2.58053 -3.691595,-2.13849 0.31062,-1.80399 5.615048,-3.63186 z m 67.22526,-13.7987 1.30222,2.50886 -1.42168,0.77654 1.08716,1.83983 5.56726,3.17788 4.98187,1.3261 v 0 l 0.84823,1.88763 -0.64514,2.25796 -3.6677,2.62832 -3.33319,5.17302 4.01417,3.67964 -0.14337,4.01417 3.02257,5.13717 -0.81239,6.5469 -1.1708,1.78009 -5.9615,3.52434 -4.06195,4.02611 -7.66992,-2.1146 -3.47655,0.27478 -4.22921,-2.24602 -4.539826,-0.51372 -3.930533,2.84336 -5.232747,1.18275 -3.058409,4.2531 -0.334513,3.58407 v 0 l -8.255315,1.85177 -4.838498,1.85177 -0.430089,1.02744 -4.002215,-0.37036 -2.3177,1.52921 -0.860178,-0.71682 -4.324781,1.30222 -3.201772,-1.20664 1.672568,-7.31151 1.600886,-1.31416 1.146903,-3.17788 -1.099116,-6.52301 1.170797,-3.97832 -1.373894,-1.3739 2.174337,-9.76062 0.884072,-0.93186 3.500444,0.48982 2.484957,-1.03938 2.222126,-5.23275 2.186284,-1.20663 -0.250885,-5.07744 6.188499,-1.7562 2.007081,-3.5124 1.66062,-0.1792 7.466819,-7.88496 7.753544,-0.25089 2.413276,1.5531 3.942478,-0.5854 2.64027,-3.27345 3.20177,-0.57345 2.50885,1.09911 3.97833,-2.55664 z m -25.733643,-19.79602 7.120358,-0.33452 3.703545,1.25443 -3.966377,9.30664 0.05973,3.52434 v 0 l -11.301776,5.77036 -0.03584,2.21017 -2.93894,1.1708 -0.430088,2.43717 -2.102656,2.78363 -3.715489,1.95929 -4.40841,4.48011 -3.273453,1.12301 1.087169,3.89469 -4.300888,3.81106 -5.925667,2.59248 4.850445,-9.71283 0.501771,-3.16594 -2.556639,-2.95089 0.919912,-0.95576 -1.445576,-0.9438 5.543366,-2.9031 6.128765,-4.93408 7.478765,-4.0261 4.312834,-0.25089 2.59248,-3.29735 1.134956,0.80045 3.273453,-2.41328 -1.421682,-4.57567 -4.492038,0.62124 v 0 z"
      class="land" title="Çanakkale" id="TR-17" />
   <path
      d="m 385.62602,347.56504 3.4885,0.86017 3.35708,5.34027 5.24469,-0.43009 7.43098,3.50045 7.26372,-3.93054 2.87921,2.9031 2.09071,0.3823 7.90885,-1.9115 5.87788,-2.74779 0.14336,2.26991 -3.2854,6.0093 0.14337,1.92345 4.77876,5.63894 9.04381,2.50885 v 0 l -1.00354,6.33186 4.59956,4.00222 -1.46947,3.22567 0.77655,3.16593 -0.99159,2.25796 1.78009,1.97124 0.34646,4.32478 -3.99027,6.76195 -2.42522,2.36549 -3.53629,1.36196 v 0 l -5.38805,-0.52567 -2.43717,-2.56859 -4.37257,-0.83628 v 0 l -0.95576,-1.24248 -7.84912,-1.36195 -4.09779,0.48982 -1.40973,-1.78009 -3.1062,-0.58539 -1.88761,2.97478 -2.78363,1.37389 -5.47168,-9.01992 -6.42744,-2.56858 -4.49204,-0.0358 1.13496,-4.277 -0.7885,-1.86371 -5.83009,-1.42169 -8.76903,-5.16106 -4.68319,0.32257 v 0 l 1.1469,-6.82169 -3.69159,-5.62699 -5.67478,0.14336 -0.0597,-4.08584 -2.47301,-8.23142 v 0 l 11.34956,2.3177 1.68452,2.6761 3.2854,-3.03451 5.62699,2.19823 1.23054,-5.13717 -1.23054,-3.05841 5.14912,-0.0597 1.68452,-1.50532 z"
      class="land" title="Çankırı" id="TR-18" />
   <path
      d="m 484.89289,337.19512 -0.16725,2.93894 3.29734,7.03673 -2.4969,4.4323 2.24602,1.60089 4.55177,0.52566 v 0 l -0.0358,2.64027 -3.71549,2.91504 3.04646,3.8947 -3.54823,6.64248 0.45398,4.05 4.61151,3.51239 4.74293,-1.36195 6.85752,0.48983 -0.21504,4.40841 5.47168,1.30221 2.87921,5.05354 -0.69292,2.46107 -1.92346,1.35 -0.0119,2.04292 -2.29381,0.95575 0.77655,2.28186 -1.60089,3.36903 2.43717,1.80398 -2.84336,4.79073 v 0 l -4.22921,1.27832 -2.55664,3.10619 -2.9031,-2.25796 -1.40973,0.48982 2.59248,4.16947 -2.46106,2.10266 2.41327,4.2292 -1.06327,1.74425 -12.71152,0.94381 -0.37035,-2.78363 -1.01549,-0.64514 -4.30088,4.56372 -6.23629,0.35841 -3.2854,1.44558 -3.16593,-0.69292 -2.06682,-2.12655 -2.04292,-0.47788 -4.59956,3.27345 -1.36195,2.25797 -5.93761,-0.74071 -4.28894,1.29027 -0.47788,-2.15045 v 0 l 0.33451,-1.07522 -3.24955,-5.17301 0.65708,-3.01062 -1.20664,-3.02257 0.80044,-2.74779 -4.70708,-1.63673 -1.79204,-3.39292 v 0 l 3.53629,-1.36196 2.42522,-2.36549 3.99027,-6.76195 -0.34646,-4.32478 -1.78009,-1.97124 0.99159,-2.25796 -0.77655,-3.16593 1.46947,-3.22567 -4.59956,-4.00222 1.00354,-6.33186 v 0 l 7.72965,-1.95929 3.8708,-9.0677 2.85531,-1.42169 -1.67256,-4.20531 -2.61638,-1.20664 -3.2854,0.43009 -0.46593,-6.72611 5.38806,-4.27699 0.32257,-2.7239 3.07035,0.63319 0.29867,1.87566 2.93894,-2.64026 v 0 l 2.43717,-1.23054 3.97832,2.38939 1.46947,3.36903 2.84337,1.86371 3.07035,0.15531 3.18983,-2.54469 3.45266,-0.0717 z"
      class="land" title="Çorum" id="TR-19" />
   <path
      d="m 230.12505,518.13108 2.47301,1.67256 1.95929,0.0239 1.63673,1.86372 2.10265,0.23893 1.36195,2.12655 3.15399,1.31416 2.92699,8.05222 -3.29735,2.68806 -2.26991,3.70354 -5.2447,0.26283 -2.42522,3.90664 -6.24823,5.83009 -0.39425,3.39292 1.62478,3.64381 9.17523,5.2208 v 0 l -3.35708,4.27699 -7.12036,2.38939 -0.63319,0.91991 0.93186,3.27345 -4.85045,-1.15885 -3.70354,1.11106 -0.87212,1.24248 1.64867,4.38452 -1.86372,2.64026 0.27478,1.33806 5.41195,3.13009 0.9677,2.00708 -7.31151,7.59823 -1.78009,4.05001 -0.69292,6.45133 -4.9938,3.24956 -0.43009,1.66062 1.68451,2.75973 -2.24602,5.19691 v 0 l -2.71195,1.80398 -4.49203,0.68098 -3.46461,-1.39779 -1.38584,-3.83496 0.10752,-4.50399 -3.4885,-5.00575 -0.45398,-4.30089 -4.88628,0.72876 -3.05841,-1.05132 -2.1385,-4.31284 -3.91859,-2.35354 0.15531,-3.34513 -1.92345,-2.55664 -2.53274,-0.37036 -0.84823,-3.2615 v 0 l 0.86017,-0.56151 0.54956,-4.94602 7.57434,-6.33186 0.90797,-4.06195 2.9031,-3.63186 -5.30443,-3.38098 -1.66062,-2.47301 -0.56151,-6.67832 3.59602,-0.40619 1.7562,-3.38098 -5.4239,-0.99159 -1.9115,-2.12655 -3.32125,-1.46947 v 0 l 5.48364,-3.21372 1.72035,-4.15753 2.92699,-2.42522 v 0 l 16.64205,0.13142 1.63673,4.05 0.65708,-2.96283 1.43363,-0.4062 -0.38231,-1.64867 4.12169,-4.73098 13.85841,3.04646 1.54115,-2.01902 -0.45398,-6.977 z"
      class="land" title="Denizli" id="TR-20" />
   <path
      d="m 790.00502,504.04567 2.68805,2.04292 3.26151,-1.46947 -0.52566,3.6677 1.27832,5.14912 2.40132,1.88761 2.22213,-0.44203 0.32257,3.58407 v 0 l -4.34868,1.40973 -5.20885,9.93983 -0.32257,8.1239 2.91505,2.21018 -3.08231,3.15398 -2.75973,7.80134 -5.35222,7.74159 -0.95575,3.40487 3.47655,1.51726 -2.4969,3.70354 v 0 l -1.23053,2.7239 -4.44426,1.15885 -10.05929,-2.91505 -0.72876,2.96284 1.06327,3.95442 -0.89602,1.64868 -10.53717,-2.67611 -0.66903,2.26991 -7.99248,3.14204 -2.37744,-0.21505 -5.65088,-3.40486 -6.72611,3.18982 -2.85532,-0.0717 v 0 l -3.53628,-4.21726 -0.59735,-12.15001 -2.06681,-5.23274 -4.19337,1.03938 -3.01062,3.2854 -3.32124,-3.75133 -6.83363,-1.19469 -3.95443,-4.61151 -10.01151,-3.96637 v 0 l 2.79558,-2.97478 2.1146,-5.23275 -1.94735,-3.4646 -3.95442,1.30221 v 0 l -1.82788,-1.05133 1.57699,-1.60089 0.63319,-4.37256 v 0 l 7.90885,-2.50886 2.18629,1.36195 2.62832,-0.63318 3.14203,3.32124 2.23408,0.59734 1.64867,-4.8146 6.23629,0.44203 6.35575,-3.04646 3.6916,1.68452 1.97124,-5.41195 1.99513,-1.39779 10.77611,-0.012 4.32479,-0.95575 v 0 l 4.9938,-1.06328 1.09912,-1.1469 0.15531,-3.51239 3.15398,-3.35708 4.0739,0.3584 4.55177,3.03452 1.42168,-0.83629 0.88408,-3.32124 7.21593,3.54824 3.11814,-1.61284 3.1062,-4.73097 z"
      class="land" title="Diyarbakır" id="TR-21" />
   <path
      d="m 304.78129,350.48008 2.00708,7.00089 3.01062,0.59735 2.6761,-0.82434 v 0 l -1.1469,9.01992 -7.5146,3.33318 -1.50532,4.75487 -3.52433,5.41195 -5.48363,0.82434 -7.89691,-1.05133 v 0 l 1.66062,-3.34513 -4.59956,-2.3177 -0.4062,-1.31416 0.56151,-2.36549 2.3177,-2.12655 -1.72036,-2.56859 -2.99867,0.2031 -0.62124,-1.18274 1.7323,-2.5208 3.14204,-0.56151 3.47655,-2.78363 2.44912,-3.40486 -1.88762,-1.66062 v 0 z"
      class="land" title="Düzce" id="TR-81" />
   <path
      d="m 90.322306,292.45394 -0.334513,11.27788 1.756197,3.77523 -1.851773,4.05 0.46593,3.35708 -2.926993,3.93054 1.182744,1.09911 2.019028,-2.22212 1.373894,1.30221 -2.604426,3.38097 0.453983,1.7562 -2.711949,4.67124 1.361948,5.18496 -1.46947,2.87921 1.600886,1.37389 v 0 l 0.931859,5.83009 -2.855312,4.98186 -4.886286,4.85045 -5.173011,0.78849 -1.027435,1.25443 2.461064,2.26991 -1.31416,9.86815 4.730976,6.16461 v 0 l -3.584073,7.27566 v 0 l -5.292481,0.46593 -3.75133,2.87921 -3.870798,-1.56505 -2.114603,1.08717 -1.839824,-0.59734 -3.59602,1.13495 -7.789385,0.0597 -3.823011,-2.28186 -1.62478,-6.76195 4.527879,-0.95576 0.919912,-3.30929 3.596019,-3.04646 -0.50177,-1.54115 0.860178,-0.10753 v -1.50531 l 1.242478,0.53761 0.609293,-2.15044 1.50531,1.31416 -0.238938,-2.38938 3.500445,-0.88407 -1.636727,-2.62832 2.042922,-2.29381 -1.983187,-1.37389 -0.728762,-2.06682 1.099116,-2.34159 -1.493364,-0.22699 1.660621,-2.04293 -1.505311,-2.04292 0.824337,-0.68097 v -4.44425 l 3.811064,0.10752 5.842039,-5.66283 3.273453,0.99159 2.269913,-1.70841 -1.827877,-17.08408 -3.142038,-0.88407 -2.030974,-2.07876 0.406195,-0.97965 -5.87788,-1.9354 -2.437169,-2.50885 1.827877,-5.32832 8.577881,-0.4062 2.019028,-3.22566 -0.931859,-3.54823 3.118143,-3.52434 6.355756,1.42168 1.792036,-2.09071 2.664161,1.35 1.350001,-1.39779 z"
      class="land" title="Edirne" id="TR-22" />
   <path
      d="m 729.55366,480.28327 4.69513,0.0478 4.82655,-3.30929 5.55532,-0.90796 3.94248,-2.04293 1.50531,0.89602 -0.0597,2.37744 -3.38097,4.06195 0.0836,3.42876 -2.31771,4.05 1.03939,0.94381 -0.32257,2.5208 1.42168,4.01416 4.49204,3.22566 0.68097,2.25797 -1.24248,0.9438 -4.87433,0.25089 -1.40974,2.58053 -2.81947,2.1385 6.0093,11.91107 v 0 l -4.32479,0.95575 -10.77611,0.012 -1.99513,1.39779 -1.97124,5.41195 -3.6916,-1.68452 -6.35575,3.04646 -6.23629,-0.44203 -1.64867,4.8146 -2.23408,-0.59734 -3.14203,-3.32124 -2.62832,0.63318 -2.18629,-1.36195 -7.90885,2.50886 v 0 l -2.15045,-3.08231 -7.27566,1.56505 -3.63186,-2.43717 -3.5124,-5.08939 -6.71416,1.26638 -11.45708,-3.61992 -3.61992,-3.39292 -0.52566,-5.62699 2.73584,-3.78717 2.37743,-1.24248 0.19116,-3.02257 1.86371,0.22699 1.30222,-1.11106 4.40841,1.31416 1.02743,-0.83629 -2.85531,-9.41416 1.23053,-1.24248 -0.26283,-2.43717 3.93053,-4.27699 v 0 l 1.81593,1.05133 1.48142,-0.91992 v 0 l 1.64867,1.62478 0.37036,2.09071 -2.30576,3.95443 0.66903,1.63673 4.80266,1.60088 5.16106,-2.7 14.73054,2.47301 2.29381,2.46106 3.33319,1.15886 0.88407,2.05486 2.00708,-0.95575 2.62832,1.38584 1.12301,-0.37035 1.05133,-2.95089 7.1562,-0.0956 4.19336,-1.14691 2.06682,0.83629 0.83628,-3.58408 2.32965,-2.41327 1.58894,-5.94956 -1.9593,-2.95089 z"
      class="land" title="Elazığ" id="TR-23" />
   <path
      d="m 672.75805,418.25491 11.26593,1.11106 v 0 l 3.71549,2.97478 8.3031,2.1624 -0.13141,2.78363 3.50044,0.31062 7.84912,3.77522 10.21461,-0.97965 7.51461,-4.48009 v 0 l 3.8469,-3.77522 3.6677,-1.92345 18.32656,0.65708 v 0 l -3.78717,3.24955 -0.45398,3.94248 7.38319,-0.28672 1.1708,1.39779 6.63053,2.56858 0.90797,3.23762 -1.81593,2.96283 0.15531,1.7323 7.35929,3.73938 0.54956,1.36195 -1.30221,3.97832 3.09425,3.40487 -0.83629,1.44558 -3.27345,1.01548 v 0 l -3.4646,-1.19469 -8.55399,0.66903 v 0 l -3.64381,-3.64381 -7.08452,-1.35 -5.93761,2.19823 -2.09071,-1.39778 -9.2708,-2.31771 -2.15044,0.87213 -1.94735,6.42744 -1.99514,1.36194 -10.51328,-1.50531 -7.18009,2.16239 -8.97213,-1.37389 -9.98761,4.74292 -5.65089,4.53983 -0.39425,1.98319 1.21858,3.57212 -2.62832,1.85177 -3.75132,0.7885 -0.94381,1.29026 1.44558,1.27832 -1.56505,2.95089 1.08717,6.40354 v 0 l -1.48142,0.91992 -1.81593,-1.05133 v 0 l -4.6354,-4.76682 -3.85885,0.13142 -3.11814,-1.9593 -3.63186,2.05487 -2.98673,-2.37743 v 0 l 3.61991,-7.09647 -3.67965,-6.28407 3.33319,-0.83628 0.68097,-2.1385 -3.4646,-2.06682 -1.57699,-4.16947 2.24602,-4.62345 -1.01549,-6.10487 2.06682,-6.37965 5.43584,-4.01416 -4.94602,-4.12169 -0.15531,-2.7 3.02257,-2.61637 5.63894,0.57345 3.83496,-3.36903 5.10133,-0.5615 z"
      class="land" title="Erzincan" id="TR-24" />
   <path
      d="m 790.96077,369.76239 8.8885,3.93054 2.80753,2.99867 0.0358,0.97965 -1.91151,1.11106 0.0717,4.40841 0.75266,2.64027 1.87566,0.3584 6.34381,-4.64734 8.96018,-3.83496 0.9916,0.41814 0.48982,3.6677 2.00708,-0.0836 1.95929,-1.76814 0.51372,-3.64381 3.14204,-3.07035 -0.60929,-6.5947 6.35575,-6.02124 10.97921,0.37036 4.02611,3.77522 v 0 l 3.41682,6.75 8.43452,1.9593 3.01062,6.28407 2.07876,0.46593 v 0 l 0.1792,1.66062 -5.06549,4.06195 -2.71195,4.01416 -1.35,4.74292 1.27832,2.55664 -1.07522,1.81593 -2.06681,1.05133 -4.62346,-0.46593 -8.73319,2.04292 -2.59248,2.96284 0.37036,1.7562 6.04513,4.70709 0.63319,1.61283 3.39292,0.33451 3.41682,2.67611 1.37389,4.15753 5.72257,2.59247 0.82434,2.71195 -2.36549,3.78717 v 0 l -10.40576,3.4885 -1.42168,1.46947 2.28186,5.18496 6.37965,3.32124 3.51239,3.6677 -0.80044,1.78009 -4.05001,3.18983 -1.81593,3.38097 v 0 l -7.98053,6.04514 -1.1708,5.6031 -5.88982,1.42168 -0.11947,2.65221 -4.89824,3.36903 -9.01991,2.41328 -8.44647,0.22699 -1.1469,-5.83009 -8.26726,-5.77036 -9.52169,-0.28672 -2.97478,-1.13496 v 0 l -5.99735,-5.67478 -15.91328,1.87566 -3.20177,-0.60929 -1.81594,-1.61283 1.06328,-2.5447 v 0 l 3.27345,-1.01548 0.83629,-1.44558 -3.09425,-3.40487 1.30221,-3.97832 -0.54956,-1.36195 -7.35929,-3.73938 -0.15531,-1.7323 1.81593,-2.96283 -0.90797,-3.23762 -6.63053,-2.56858 -1.1708,-1.39779 -7.38319,0.28672 0.45398,-3.94248 3.78717,-3.24955 v 0 l 6.49912,0.31061 9.24691,-5.51947 2.22212,-3.14203 -0.16725,-2.89116 -7.69381,-0.0597 -1.82788,-1.85177 3.23761,-9.61728 -0.9677,-3.38097 1.88762,-6.82169 v 0 l 12.90266,-6.00929 9.16328,-8.63762 z"
      class="land" title="Erzurum" id="TR-25" />
   <path
      d="m 281.22198,413.38057 1.25442,5.66284 4.10974,2.16239 3.78717,0.11947 0.48983,-1.18275 3.59602,-0.45398 0.84823,-1.25442 3.93053,1.60088 3.64381,-1.03938 3.56018,1.06328 2.54469,-1.06328 1.78009,1.11106 -1.9593,0.63319 0.68098,1.23053 3.03451,-1.7323 2.06682,1.51726 1.68451,-1.14691 4.16947,0.91992 2.3416,-1.89956 -0.46593,2.71194 2.41327,-0.53761 -0.78849,2.25797 2.06681,0.94381 0.14337,2.30575 1.55309,2.23407 1.68452,1.45752 2.65221,-0.40619 0.66903,0.71681 -1.03938,1.42169 2.40133,-0.3823 -1.46947,1.29026 -1.9593,5.49558 3.16594,4.42036 1.66062,6.66637 2.24601,2.32965 -0.45398,1.66062 2.00708,0.71681 -0.80044,4.8624 1.25443,1.80398 -0.90797,1.79204 3.30929,1.37389 0.15531,1.29027 -7.40708,8.11195 -0.40619,2.99867 v 0 l -0.91992,1.03938 -3.03451,0.19115 -2.1146,3.18983 -9.12744,1.21858 v 0 l -2.11461,-3.23761 -4.18141,-1.1708 -0.72877,-3.41681 -5.36416,-4.99381 -4.26505,1.20664 -4.6115,-3.18983 -1.67257,1.09912 -1.42168,3.71549 -2.3416,0.40619 -0.66902,1.91151 -3.83496,-1.62478 -2.93894,0.22699 0.27478,1.38584 3.59602,2.40133 -1.15885,2.40133 -9.70089,-1.05133 -2.05487,4.81461 -3.84691,-3.90664 -3.41681,-1.62478 -2.44912,-5.88983 -3.85885,-0.70487 v 0 l -2.93894,-0.44203 -0.28673,-3.50045 -2.4969,-2.03097 1.09911,-2.42522 -0.88407,-4.34868 1.35,-2.23407 -1.06327,-5.19691 -5.47169,-2.91504 -3.40486,-3.18983 1.51725,-1.85177 -0.77655,-0.95575 -5.34026,1.23053 -2.86726,-0.69292 v 0 l 1.38584,-4.59956 4.01416,-4.98186 7.7416,-1.40974 2.16239,-4.58761 2.91504,-2.10266 1.02744,-2.10265 2.56858,-1.30222 6.53496,-6.63053 3.96638,-1.44558 v 0 l 5.56726,-1.43363 z"
      class="land" title="Eskişehir" id="TR-26" />
   <path
      d="m 614.52881,579.21562 2.1385,1.00355 5.17301,-1.61284 2.01903,2.21018 9.0677,0.31062 6.72611,2.85531 v 0 l -1.02743,1.25443 -1.32611,-0.86018 -3.16593,0.41814 -4.91018,5.71062 0.63319,1.13496 -1.29027,0.5854 -1.03938,3.27345 2.06681,2.67611 -1.97124,-0.32257 -0.34646,1.21859 2.17434,4.10974 -0.7646,4.37256 2.61637,1.69647 3.07036,-0.71682 -0.57345,4.16947 1.9354,1.44558 -0.10753,2.30575 2.07877,2.74779 -0.91992,2.92699 v 0 l -4.21726,0.81239 -7.81327,4.277 -6.17656,0.0119 -4.86239,2.93894 v 0 l -1.81593,-3.79911 -2.32965,-1.02744 -4.64734,0.51372 -1.78009,-0.77655 -1.03939,-4.56372 -1.31416,-1.35 -8.85266,-2.22212 -1.49336,-4.98187 -2.28186,-0.52566 -1.85177,0.51372 -3.1062,3.8708 -4.85044,2.25796 -2.67611,6.12877 v 0 l -6.31991,-2.07877 v 0 l -2.73585,-4.09779 -5.38805,-1.64867 -1.91151,-3.76328 v 0 l 11.027,-13.09381 v 0 l 3.01062,-0.44203 0.7646,-1.99514 2.85531,-1.03938 4.34868,-4.53983 3.24956,1.51726 3.69159,4.14558 3.47655,0.34646 5.61505,-7.25177 11.83939,-1.29027 -0.28673,-2.7239 2.9031,-0.26283 z"
      class="land" title="Gaziantep" id="TR-27" />
   <path
      d="m 693.60541,353.47876 -0.0717,20.73983 v 0 l -6.08097,2.50885 -4.01416,-0.40619 -5.12523,2.97478 -5.87788,9.64115 11.19426,4.98187 1.98318,2.43716 -0.77655,7.86107 -2.19823,3.14205 -1.62478,-0.5615 -1.31416,0.9677 0.60929,4.73097 3.61992,4.61151 0.0956,2.25796 v 0 l -11.26593,-1.11106 v 0 l -6.92921,-0.40619 -3.2854,-1.54115 -1.57699,-4.51594 -3.07036,2.15045 -1.12301,-1.19469 -1.99513,1.03938 -3.8708,-2.59248 -5.06549,-0.97965 -2.7,-4.73097 -0.25089,-7.7894 1.05133,-4.69514 -5.4239,-2.30575 v 0 l 0.32257,-4.37257 -1.7323,-2.85531 1.12301,-2.1385 -2.85531,-1.64867 -1.88761,-4.74292 2.59248,-2.10266 -0.71682,-2.84336 3.63186,-5.29249 1.20664,-3.93053 v 0 l 4.62345,1.57699 4.50399,-0.39425 3.67965,2.32965 1.68451,-0.97964 1.86372,0.87212 5.11328,-0.44204 4.6354,-3.61991 3.01062,1.69646 1.43363,-0.25088 4.82655,-3.81107 2.89115,-0.15531 3.04646,-2.10265 4.26505,0.74071 z"
      class="land" title="Giresun" id="TR-28" />
   <path
      d="m 693.53372,374.21859 3.08231,1.7323 7.14425,1.58894 2.78363,3.09425 1.88761,0.3823 0.63319,2.32965 3.21371,-0.22699 3.03452,2.74779 5.16106,-0.21505 2.56859,-2.81947 0.52566,-4.73097 2.68806,-0.23894 0.70487,1.9354 -0.97965,3.8708 5.41195,2.15044 1.12301,2.25797 3.85885,-1.70841 -0.66903,-1.32611 -3.38097,-1.5292 -0.0119,-1.70841 3.60797,-0.52567 2.61637,1.88762 -0.5615,2.3177 2.60442,1.94734 2.91505,-0.70486 4.21726,3.6438 v 0 l -17.17966,2.927 -1.46947,4.21725 0.26283,8.44648 -3.52433,8.49425 -5.31638,6.80974 4.50399,4.64735 v 0 l -7.51461,4.48009 -10.21461,0.97965 -7.84912,-3.77522 -3.50044,-0.31062 0.13141,-2.78363 -8.3031,-2.1624 -3.71549,-2.97478 v 0 l -0.0956,-2.25796 -3.61992,-4.61151 -0.60929,-4.73097 1.31416,-0.9677 1.62478,0.5615 2.19823,-3.14205 0.77655,-7.86107 -1.98318,-2.43716 -11.19426,-4.98187 5.87788,-9.64115 5.12523,-2.97478 4.01416,0.40619 z"
      class="land" title="Gümüşhane" id="TR-29" />
   <path
      d="m 905.71084,563.72048 5.61505,1.24248 9.10354,-2.61637 6.89337,0.65708 6.1646,-1.54115 3.3093,1.66062 1.50531,3.03451 6.64248,0.62124 2.36549,-1.79203 4.49204,0.33451 2.28186,-1.20664 v 0 l 5.10133,-0.5615 3.29734,3.16593 0.41814,1.68451 -2.92699,3.64381 2.28186,2.54469 -1.66062,9.54558 2.71195,1.14691 1.06327,2.62832 3.16594,0.62123 0.81239,2.23408 3.15398,2.03097 0.60929,2.19823 -2.73584,2.66416 1.27832,5.2208 -1.30221,-1.56504 -4.16948,-0.012 -1.85177,-1.38584 -8.23142,7.26372 -6.06903,1.91151 0.89602,1.23053 -1.78009,1.45752 -0.51372,2.01903 -3.35708,-1.88761 -1.19469,-3.63186 -2.1146,-2.44912 1.99513,-3.89469 2.47301,-0.41814 -0.32256,-4.93408 -1.94735,-2.25796 -5.06549,-2.50886 -4.94602,0.39425 -0.31062,-0.77655 -1.25443,1.89956 -1.82787,0.37036 -1.98319,4.19336 -3.29735,0.14336 -0.91991,1.78009 -1.25442,-2.15044 -5.61505,-0.43009 -2.43717,0.9916 -3.73938,-2.47302 -2.85532,0.9677 -7.99248,-5.24469 v 0 l -0.29867,-9.10354 -2.29381,-4.49204 7.08452,-7.9447 z"
      class="land" title="Hakkâri" id="TR-30" />
   <path
      d="m 539.31107,609.57272 4.6354,-0.93186 7.99248,3.6916 3.6916,-0.56151 3.69159,0.84823 v 0 l 1.91151,3.76328 5.38805,1.64867 2.73585,4.09779 v 0 l 0.44203,1.89956 -2.96283,3.42877 0.74071,2.3177 -2.56859,3.09425 0.7646,4.38451 -2.3177,6.17655 1.07522,3.83496 1.06328,1.78009 0.89602,-0.11947 0.0478,4.16947 0.34647,-0.81239 2.24601,0.0836 -0.0717,2.40133 1.91151,0.22699 -0.75266,1.30222 0.77655,1.62478 -1.56504,1.05132 -1.9593,-0.5854 -0.23893,1.40974 -5.74647,-1.57699 -1.78009,2.65221 -4.24115,-1.15885 0.81239,1.50531 -1.5531,1.57699 1.19469,5.14912 -0.72876,4.4562 -1.91151,1.21858 -2.23407,-1.33805 -0.10752,3.56018 -1.88761,-0.5854 -2.7239,0.93186 -2.15044,8.41062 -1.89956,-3.2615 -5.65089,-1.18275 0.26283,-3.44071 -4.4323,0.64514 3.14204,-5.23275 -4.08584,-8.72124 -5.73452,-8.68541 -0.0478,-1.40973 3.64381,-2.97478 2.64027,-4.48009 3.41681,-1.70841 3.0823,-3.83496 7.52656,-3.72744 1.05133,-2.90309 -1.09912,-6.28408 0.64513,-2.60442 -4.33672,-6.0093 -5.35222,-2.97478 v 0 l -0.29867,-3.0823 z"
      class="land" title="Hatay" id="TR-31" />
   <path
      d="m 477.77254,583.05058 0.83628,4.38452 7.27567,8.49425 0.0956,1.46947 -2.41327,2.25797 -0.0239,1.83982 2.61638,1.51726 1.09911,2.77168 2.01903,0.0119 3.59602,2.12655 1.61283,7.16814 0.81239,8.07612 -0.9677,1.83982 -3.39292,-0.87212 -1.54115,2.04292 -0.82434,-0.80045 -0.0239,1.31416 -3.27345,-0.27478 -0.19116,1.14691 -2.55663,1.26637 v 0 l -1.91151,-2.99867 -5.17301,-2.35354 -5.38806,0.0597 -4.50398,2.50885 -6.52301,6.37965 -7.89691,5.29248 -4.99381,6.76195 -4.33673,3.41682 -0.28672,5.56726 -1.40974,1.5531 -1.76814,-0.0119 -2.32965,3.8469 -1.33805,-3.30929 -3.39293,-1.81593 -1.33805,2.44912 -1.26637,0.11947 -0.90797,2.62832 -4.93407,3.54823 -0.68097,2.42522 -1.78009,-3.67965 -2.73585,1.13496 -1.51725,2.99867 -4.6593,-1.94734 -3.32124,1.83982 -2.34159,-1.58894 -2.74779,1.39779 -7.28762,-0.45398 -3.38097,4.15752 -1.46947,-1.49336 -5.05355,-0.5854 -3.70354,1.83982 -3.47655,3.42877 -6.76195,-1.67257 -5.13717,-3.42876 v 0 l 2.19823,-4.12169 -0.90796,-2.71195 2.77168,-7.5385 -4.14558,-12.49646 v 0 l 5.59115,0.13141 10.52523,3.95443 6.45133,1.06328 6.72611,-2.29381 4.71903,-4.33673 -3.20177,-3.83496 -3.70354,-2.26991 -2.55664,-4.13363 0.65708,-5.32832 -1.82788,-3.91859 3.47655,-1.44558 2.28186,1.99514 3.77523,-3.63186 7.75354,-1.69646 3.91859,0.27478 3.29734,-1.49337 4.03806,2.23407 8.39868,-4.89823 v 0 l 9.42611,-1.30221 9.43806,-3.32124 1.76814,-1.60089 -0.26283,-3.58407 8.02832,-2.46106 9.05576,-4.8624 -1.83983,-3.30929 1.26638,-2.55664 v 0 l 4.00221,-0.0956 z"
      class="land" title="Mersin" id="TR-33" />
   <path
      d="m 914.67102,414.95756 3.03452,2.87921 2.66416,-0.1792 6.83363,3.88274 13.96594,-0.47787 4.2292,-1.13496 7.08452,3.1062 6.53496,6.14071 -0.012,1.18274 2.09071,1.81593 0.0836,2.17434 4.96991,2.05487 -0.39424,1.29026 2.85531,1.86372 0.16725,1.69646 2.70001,2.09071 -0.17921,1.60089 0.94381,0.41814 -0.56151,1.58894 -4.62345,-5.38806 -2.36549,-0.27478 -2.53274,-4.26504 -7.03673,6.48717 v 0 l -4.57567,0.5615 -6.42744,-2.78363 -4.49204,0.54956 -5.08938,-1.60088 h -7.57434 l -4.30089,-3.23762 -8.54204,-0.80044 -4.02611,-3.14204 -2.04292,0.53761 -1.95929,3.08231 -2.87921,0.26283 -0.64513,-8.38673 -3.44071,-4.0739 -3.71549,-0.99159 v 0 l 5.08939,-8.26726 5.42389,1.00354 8.72125,-1.33806 v 0 z"
      class="land" title="Iğdır" id="TR-76" />
   <path
      d="m 245.9786,562.46606 2.56858,-5.17301 -0.23894,-4.21726 3.73939,-4.75487 4.80265,-2.21018 8.15974,-9.01992 6.51107,-1.62478 7.08452,-4.48009 3.69159,-6.37965 4.42036,-1.99513 3.71549,-3.61992 6.65443,-1.05132 3.03451,2.38938 2.23407,3.53628 1.54115,-0.25088 v 0 l 1.07523,3.6677 3.09425,3.94248 6.18849,5.18496 3.56018,1.27832 1.20664,3.36903 -0.35841,4.88628 -3.59602,2.65222 -0.60929,3.20177 -3.8469,2.91504 -0.45399,3.75133 2.24602,5.41195 -0.0358,2.30576 -0.31062,0.93186 -3.97832,1.42168 -1.25442,1.99513 1.33805,6.88142 -1.5531,6.22434 v 0 l -9.78452,1.30221 -4.91018,3.71549 -4.27699,-3.57212 -3.15398,-0.0597 v 0 l -1.83983,-0.45398 -0.59734,-3.96637 -3.88275,-4.00222 -0.89602,-6.17655 -6.53496,-3.53629 -4.32478,0.62124 -4.30089,-0.80044 -0.81239,-1.61283 1.02744,-3.27346 -1.52921,-1.99513 -8.91239,3.26151 z"
      class="land" title="Isparta" id="TR-32" />
   <path
      d="m 204.24804,343.32388 15.73408,3.83496 1.15885,-0.66903 11.2301,2.67611 4.69513,-0.0597 v 0 l 0.10752,3.10619 -2.83141,4.69514 -1.94735,0.65708 -4.99381,-1.09912 -2.81947,4.56372 -4.6354,-1.19469 -3.73938,0.69292 -8.37479,10.4655 v 0 l -1.23053,-0.86018 -3.05841,0.71681 1.45753,-3.01062 -7.04868,-3.0823 -1.72036,-2.55664 -4.34867,-2.43717 -0.7646,-2.80752 2.23407,-1.76815 0.7646,-3.56017 1.3739,-0.93186 -1.13496,-1.68452 0.82434,-2.32965 3.8708,-2.98672 z m -54.15534,-22.42435 4.74292,4.92213 17.28718,9.19912 3.14204,0.54956 13.17744,5.99735 6.33186,0.23894 1.63673,0.9438 -0.0239,1.7562 -3.61991,3.60796 1.66062,2.11461 -4.34867,7.74159 -6.69027,2.07877 -0.87213,1.1469 -3.4646,-1.5531 -6.96505,1.29027 -1.23053,-0.7885 -0.3823,-2.89115 -1.11107,-0.0478 -1.19469,2.15045 -6.08097,-3.72744 -9.19912,-2.36549 -7.84912,1.38584 -3.71549,2.11461 v 0 l -1.07522,-2.35355 0.20309,-3.42876 2.07877,-4.19336 -0.0239,-2.9031 2.85531,-4.86239 3.75133,-18.68497 v 0 z"
      class="land" title="Istanbul" id="TR-34" />
   <path
      d="m 77.312122,515.70585 1.35,0.82434 0.549558,4.34868 -2.3177,-1.31416 z m 34.323478,-52.81728 0.91991,5.59115 2.66416,2.7 -0.71681,4.93408 3.61991,9.68894 -0.70487,3.83496 -1.86372,1.85177 -5.45973,2.2938 -2.46107,-0.70486 -6.29602,3.29734 0.40619,1.577 -2.60442,3.79911 4.75487,6.45133 0.28672,6.02125 2.31771,1.62478 5.26858,-0.4062 2.21018,1.1708 1.32611,2.83142 3.4646,-0.41815 1.76815,2.80753 1.95929,-0.31062 1.85177,1.80398 3.32124,0.4062 2.42522,4.80265 3.21372,0.0956 0.95575,1.60089 1.35001,-1.86372 -0.53762,-3.64381 2.26992,-0.48982 1.70841,1.42168 4.82655,-1.13496 4.82655,2.19823 1.30221,1.86372 4.4323,0.77655 3.5124,3.15399 6.30796,2.12655 -0.50177,4.37256 2.95089,3.53629 v 0 l -1.43363,2.64027 -4.09779,-2.09071 -3.64381,1.17079 -0.82433,2.05487 -2.3177,1.7562 -12.16196,1.13495 -14.1093,4.32479 -6.34381,-3.27346 -3.2615,0.10753 -4.15753,2.7 -0.83628,5.11327 -3.36903,2.65222 -0.94381,-2.83142 -3.95442,-1.74425 v 0 l 0.32256,-2.77168 -1.58894,-2.54469 -5.43584,-0.48983 -7.442928,-5.47168 -3.763276,0.60929 -2.042922,2.04292 -2.042921,-7.80133 -2.879206,-1.11106 1.158851,-1.54115 -1.588939,-1.39779 -6.116818,1.35 -0.430089,3.83496 -0.884071,-0.0836 0.430089,1.80398 -1.075222,0.45398 -1.146904,-2.44911 -0.513717,1.60088 -1.409735,-0.7407 -0.728762,-3.38098 -6.200446,-2.56859 0.09558,-2.25796 -1.302214,2.05487 -1.457523,0.0956 -2.365488,-2.35354 -2.915046,-0.40619 0.167257,-1.50531 1.947346,0.23893 0.418142,-1.99513 1.099116,0.1792 -0.991594,-3.0584 4.348676,3.77522 0.609292,-2.78363 0.884071,1.79203 3.978321,-3.33318 -1.565045,-3.23762 1.947346,1.72036 1.302213,-1.74425 -4.038055,-3.09425 -2.12655,1.87567 0.9677,-2.85532 -2.532745,-4.83849 -0.34646,-4.38452 0.370354,-1.1708 2.78363,-1.29026 5.220799,1.85177 2.377435,5.67478 2.735842,1.76814 0.740709,3.99027 -2.640267,-0.11947 0.84823,1.15885 -1.039381,1.63673 1.636727,0.54956 2.891152,6.69027 1.421682,-0.51372 -1.385841,-4.67124 1.421682,-2.3177 h 1.505311 l 1.469469,3.93053 1.78009,0.72876 10.979203,-3.64381 3.14204,1.03938 2.78363,-2.75973 1.33805,0.0239 -0.54955,-1.60088 -2.3177,1.13495 -1.66062,-1.13495 -6.224341,1.87566 -3.345134,-4.20531 -0.03584,-1.9354 -2.652214,-1.39779 0.836284,-1.15885 -4.468145,-2.5208 0.453983,-1.54115 -1.576992,-0.40619 0.991593,-1.49337 -1.206637,-1.83982 0.465929,-2.68806 4.40841,-1.26637 0.370354,1.20664 0.979646,-0.65708 1.887612,1.18274 0.597346,-2.03097 1.588939,0.0836 -2.269913,-3.76328 1.027434,0.46593 1.46947,-1.1708 0.298673,1.97124 1.230531,-0.14336 -0.203097,-2.54469 4.611509,-1.40974 -1.26637,-1.60088 1.00354,-1.1708 -0.66903,-1.62478 -1.62478,1.79204 -2.843365,-1.7562 -4.288941,1.31416 -3.273453,-2.16239 -0.07168,-5.08938 4.336728,-2.75974 -2.461064,-4.08584 -3.488497,-1.56505 v 0 l 3.153984,-4.37257 8.303108,-2.66416 3.77522,-4.30088 4.30089,-1.31416 3.79912,1.12301 z"
      class="land" title="İzmir" id="TR-35" />
   <path
      d="m 575.79693,515.28771 11.32567,-2.44911 8.19558,1.54115 5.26859,-0.44204 1.27832,1.03938 v 0 l -2.38939,3.73938 0.0478,2.29381 6.88142,3.81107 4.01416,-0.41815 5.14912,4.05001 4.42036,0.83628 -0.72876,5.47168 4.00221,0.57346 0.0956,2.77168 -2.43717,3.83496 -5.627,4.94602 0.75266,3.85885 1.75619,1.11106 v 0 l -1.74425,3.14204 -3.91858,2.23407 0.1792,5.47169 -3.05841,3.18982 -0.32256,3.73938 -1.60089,2.35354 0.81239,2.3416 4.68319,0.50177 1.69646,4.38451 v 0 l -2.71195,6.7739 -2.9031,0.26283 0.28673,2.7239 -11.83939,1.29027 -5.61505,7.25177 -3.47655,-0.34646 -3.69159,-4.14558 -3.24956,-1.51726 -4.34868,4.53983 -2.85531,1.03938 -0.7646,1.99514 -3.01062,0.44203 v 0 l 0.51372,-3.1062 -1.98319,-3.90663 1.43363,-3.14204 -0.43009,-1.15885 -8.17169,-0.10752 -6.5469,2.06681 -1.00354,-0.91991 -4.31284,0.10752 -1.99513,-17.86063 1.37389,-2.80752 v 0 l 3.45266,-3.46461 1.39779,-4.30088 -2.97478,-6.46328 3.34513,-4.74292 -3.8708,-1.99514 3.50045,-4.18142 3.69159,-10.57301 v 0 l 13.85842,-5.85399 1.89956,-8.21947 z"
      class="land" title="Kahramanmaraş" id="TR-46" />
   <path
      d="m 381.74328,320.33803 -0.0358,1.49336 1.51725,1.08717 3.20178,-1.58894 1.39778,1.18275 1.56505,-0.7885 1.82788,0.5854 -0.23894,3.52434 2.24602,1.31416 0.54955,2.54469 -0.21504,3.50044 -1.40973,2.53275 -3.29735,0.51372 -2.85531,2.91504 -1.24248,3.50045 0.87212,4.91018 v 0 l -1.13495,-0.227 -1.68452,1.50532 -5.14912,0.0597 1.23054,3.05841 -1.23054,5.13717 -5.62699,-2.19823 -3.2854,3.03451 -1.68452,-2.6761 -11.34956,-2.3177 v 0 l -5.99735,-0.84824 v 0 l -2.04292,-5.71062 2.03098,-6.92921 2.42522,-2.13849 v 0 l 6.33186,1.69646 4.61151,-3.34514 2.9031,1.20664 2.79557,-1.57699 2.5208,1.81593 1.57699,-3.70354 -2.10265,-5.85399 0.44203,-1.54115 6.79779,-2.89115 1.30222,-2.3177 z"
      class="land" title="Karabük" id="TR-78" />
   <path
      d="m 359.96406,623.86123 10.90753,-1.94735 5.04159,-2.26991 3.16594,-3.20177 1.5292,-5.68673 -0.97965,-1.74425 -4.82655,-2.7239 -1.19469,-6.58275 1.63673,-2.17433 3.54823,0.13141 2.5208,-7.5146 4.85044,-4.24116 2.83142,-4.10973 5.16107,-2.7239 4.6354,-0.45398 5.47168,4.01416 10.95532,-3.76328 0.82433,12.34116 8.17169,11.30178 2.84336,7.78938 v 0 l -8.41062,4.89824 -4.03805,-2.23408 -3.29735,1.49337 -3.91859,-0.27478 -7.76549,1.69646 -3.77522,3.64381 -2.28186,-2.00708 -3.4885,1.44557 1.82788,3.91859 -0.65708,5.32832 2.55664,4.13363 3.70354,2.26991 3.21372,3.82302 -4.73098,4.33672 -6.72611,2.29381 -6.45133,-1.05133 -10.52523,-3.96637 -5.59115,-0.13142 v 0 l -7.1801,-7.40708 -0.59734,-2.19823 z"
      class="land" title="Karaman" id="TR-70" />
   <path
      d="m 910.35819,358.79513 5.44779,3.79912 0.1792,5.61505 3.33319,7.35929 -0.0956,4.16947 -1.30221,0.87213 -2.44912,5.88982 -1.24248,0.35841 0.32257,1.92345 -1.11106,-0.34646 0.33451,1.19469 -3.79911,1.61284 -0.51372,1.15885 3.57212,3.50044 -1.40973,4.95797 2.50885,4.73099 1.98319,0.88407 0.0836,2.01903 -1.49336,0.10752 3.07036,4.02611 -2.67611,0.5615 -0.45398,1.69646 v 0 l -8.72125,1.33806 -5.42389,-1.00354 -5.08939,8.26726 v 0 l -8.8646,-1.40974 -28.31418,6.91726 v 0 l 2.36549,-3.78717 -0.82434,-2.71195 -5.72257,-2.59247 -1.37389,-4.15753 -3.41682,-2.67611 -3.39292,-0.33451 -0.63319,-1.61283 -6.04513,-4.70709 -0.37036,-1.7562 2.59248,-2.96284 8.73319,-2.04292 4.62346,0.46593 2.06681,-1.05133 1.07522,-1.81593 -1.27832,-2.55664 1.35,-4.74292 2.71195,-4.01416 5.06549,-4.06195 -0.1792,-1.66062 v 0 l 1.58894,-1.63673 4.42035,-0.22699 0.63319,-4.09779 5.16107,-5.65089 0.50177,-2.2938 4.38451,-2.29381 2.73584,-2.99867 2.46107,1.23053 3.6438,-1.51726 7.72966,0.46593 2.23407,-1.29027 5.16106,-0.47787 1.98319,-2.04292 v 0 z"
      class="land" title="Kars" id="TR-36" />
   <path
      d="m 407.35745,291.6296 19.83187,2.77169 13.33275,-0.44204 9.13939,1.99514 v 0 l 0.0119,1.97124 2.1624,1.9354 0.71681,3.22566 -1.40974,3.47655 5.86594,0.27478 1.88761,4.10974 5.8062,1.23053 2.9031,2.26991 -1.72036,6.66638 -4.27699,3.64381 1.11106,3.48849 -3.51239,7.12036 1.21858,3.22567 v 0 l -2.93894,2.64026 -0.29867,-1.87566 -3.07035,-0.63319 -0.32257,2.7239 -5.38806,4.27699 0.46593,6.72611 3.2854,-0.43009 2.61638,1.20664 1.67256,4.20531 -2.85531,1.42169 -3.8708,9.0677 -7.72965,1.95929 v 0 l -9.04381,-2.50885 -4.77876,-5.63894 -0.14337,-1.92345 3.2854,-6.0093 -0.14336,-2.26991 -5.87788,2.74779 -7.90885,1.9115 -2.09071,-0.3823 -2.87921,-2.9031 -7.26372,3.93054 -7.43098,-3.50045 -5.24469,0.43009 -3.35708,-5.34027 -3.4885,-0.86017 v 0 l -0.87212,-4.91018 1.24248,-3.50045 2.85531,-2.91504 3.29735,-0.51372 1.40973,-2.53275 0.21504,-3.50044 -0.54955,-2.54469 -2.24602,-1.31416 0.23894,-3.52434 -1.82788,-0.5854 -1.56505,0.7885 -1.39778,-1.18275 -3.20178,1.58894 -1.51725,-1.08717 0.0358,-1.49336 v 0 l 3.83495,-9.79647 -1.78008,-0.91991 -2.77169,1.38584 -3.07035,0.0597 -1.18275,-1.7562 1.01549,-2.73584 -1.83982,-1.31416 -0.72877,-2.54469 v 0 l 7.59824,-1.25443 20.34559,-9.39027 z"
      class="land" title="Kastamonu" id="TR-37" />
   <path
      d="m 527.53141,468.56335 8.55399,3.70354 1.23053,3.11814 2.29381,1.33806 2.1385,3.21372 4.96991,0.14336 7.86107,-2.00708 10.87169,0.77655 7.00088,-1.09912 4.94603,2.07876 3.16593,2.67611 2.35354,6.37965 -3.71549,3.51239 -2.37744,4.44425 -0.7407,5.96151 -4.36063,3.8708 4.0739,8.61372 v 0 l -2.26991,3.60797 -1.89956,8.21947 -13.85842,5.85399 v 0 l -7.72965,-7.75355 -6.11682,1.80399 -4.36062,5.94956 -3.01062,7.80133 -7.86107,2.95089 -5.1969,5.61504 -3.91859,1.68452 -1.54115,11.17036 -1.46947,2.47301 -8.51814,-0.51372 -1.51726,-2.01903 -1.57699,0.4062 -6.49912,-2.26991 v 0 l 2.19823,-6.92921 -0.35841,-11.75576 -2.86726,-2.06682 -6.76195,-0.64513 -1.45752,-5.59115 -3.95443,-2.927 -2.44911,-3.67964 v 0 l 1.15885,-3.32124 5.93761,-2.66417 5.57921,-8.00442 -4.59956,-10.89559 -3.99027,-2.21017 3.54823,-8.30311 0.72876,-5.1969 v 0 l 4.95797,-1.99514 0.33451,4.19337 0.97965,0.69292 6.31991,-2.46106 6.89337,-4.98186 -1.68451,-4.39647 1.30221,-1.99513 12.28142,-1.64868 2.46107,-1.26637 z"
      class="land" title="Kayseri" id="TR-38" />
   <path
      d="m 575.67746,624.20769 2.67611,-6.12877 4.85044,-2.25796 3.1062,-3.8708 1.85177,-0.51372 2.28186,0.52566 1.49336,4.98187 8.85266,2.22212 1.31416,1.35 1.03939,4.56372 1.78009,0.77655 4.64734,-0.51372 2.32965,1.02744 1.81593,3.79911 v 0 l -3.34513,1.73231 -0.91992,2.35354 -9.49779,-2.3416 -3.27345,-0.20309 -2.67611,1.24247 -0.99159,-1.37389 -1.63673,0.26283 -1.20664,2.29381 -3.14204,-1.97124 -0.29867,-1.20664 1.68452,-2.09071 -0.52567,-1.01549 -2.06681,-0.26283 -0.51372,-1.26637 -3.21372,-1.36195 z"
      class="land" title="Kilis" id="TR-79" />
   <path
      d="m 409.19728,461.40715 -1.86372,-0.88407 0.59734,-2.95089 -0.88407,-8.26726 -6.73806,-5.7823 3.79912,-6.35576 -0.50177,-4.2531 1.5531,-0.47788 2.93894,-8.05221 7.99248,-2.81947 2.85531,-2.73585 -1.31416,-1.97124 1.01549,-5.26858 -0.82434,-1.54116 1.36195,-2.78362 -0.65708,-0.7885 2.48496,-2.44913 -0.0836,-1.72035 2.95089,-0.5854 v 0 l 4.37257,0.83628 2.43717,2.56859 5.38805,0.52567 v 0 l 1.79204,3.39292 4.70708,1.63673 -0.80044,2.74779 1.20664,3.02257 -0.65708,3.01062 3.24955,5.17301 -0.33451,1.07522 v 0 l -4.06195,1.577 1.99514,2.52079 0.84823,5.36417 v 0 l -1.24248,1.51725 -3.57213,0.13142 -2.32965,5.63894 -10.32213,9.56948 -3.88274,1.45752 -7.62213,5.92567 z"
      class="land" title="Kırıkkale" id="TR-71" />
   <path
      d="m 104.31214,286.06235 2.12655,0.14336 2.12655,2.5208 1.48142,0.13141 1.37389,3.42877 3.85886,3.07035 1.99513,-0.0119 2.55664,3.61992 0.66902,-2.17434 1.98319,-0.21504 0.35841,-1.21859 2.44912,0.25089 1.30221,-1.46947 6.75,1.98318 -0.81239,-2.54469 1.58894,-1.08717 0.22699,0.74071 0.19115,-0.9438 2.55664,2.19823 3.21372,-1.14691 2.38938,0.64514 1.45753,6.40354 -2.91505,-0.22699 -0.71681,3.88274 3.07035,6.75001 2.95089,3.6677 -0.83629,0.81239 0.59735,1.70841 2.22212,2.62832 v 0 l -1.97124,-0.16726 -0.44203,1.58894 -10.04735,5.96151 -4.22921,0.46593 -7.58629,2.78363 -2.58053,2.22212 -1.98319,7.63408 -3.42876,3.53628 -3.78717,1.3739 -5.77036,-4.50399 -1.31416,-3.59602 -2.09071,-1.5531 -8.33894,1.15885 -3.64381,-0.71681 -2.676108,2.47301 v 0 l -1.600886,-1.37389 1.46947,-2.87921 -1.361948,-5.18496 2.711949,-4.67124 -0.453983,-1.7562 2.604426,-3.38097 -1.373894,-1.30221 -2.019028,2.22212 -1.182744,-1.09911 2.926993,-3.93054 -0.46593,-3.35708 1.851773,-4.05 -1.756197,-3.77523 0.334513,-11.27788 v 0 l 0.764602,-2.32965 2.150442,-1.23053 -0.0597,-1.64867 2.17434,-0.7646 6.59469,2.21018 -0.0358,-1.45753 z"
      class="land" title="Kırklareli" id="TR-39" />
   <path
      d="m 444.02252,435.17174 h 3.56018 l 1.99513,4.55177 8.85266,4.56372 2.00708,3.8708 6.0093,1.08717 0.82433,1.21858 -2.71195,3.34513 5.06549,2.62832 1.89956,3.36903 v 0 l -5.61504,6.29602 1.40973,2.74779 5.87788,0.62124 -7.02478,8.98408 -0.10753,3.11814 2.11461,2.29381 -4.09779,0.0836 -3.76328,3.61991 -3.58407,9.04381 -1.63673,-0.13141 -3.21372,-3.14204 0.32257,3.05841 v 0 l -3.16593,0.62124 -2.68806,-1.01549 -5.14911,-5.16107 0.0239,-2.80752 -1.87567,-3.61991 -2.95088,0.40619 -0.93186,-1.30221 -2.58053,1.13496 -1.33806,-1.1708 v 0 l -0.83628,-1.1708 -4.86239,-0.31062 -0.27478,-1.61283 -5.23275,-4.55177 -3.54823,-1.40974 -3.34514,-5.97345 -3.0823,-1.89956 1.31416,-1.31416 -2.48495,-3.83496 v 0 l 5.85398,-1.99513 7.62213,-5.92567 3.88274,-1.45752 10.32213,-9.56948 2.32965,-5.63894 3.57213,-0.13142 z"
      class="land" title="Kırşehir" id="TR-40" />
   <path
      d="m 254.83126,345.27123 3.77522,1.5292 v 0 l -1.85177,1.27832 -3.29735,5.73452 0.63319,1.86372 -0.71682,1.63672 3.52434,7.61019 -1.67257,3.0584 -3.70354,1.50531 0.90797,6.34381 -3.83496,1.64868 -2.60443,6.40354 -7.16814,2.73584 v 0 l -8.63762,-2.24602 -12.40089,3.91859 -5.34027,-1.05133 v 0 l 0.93186,-2.01903 -0.14336,-7.01283 v 0 l 2.93894,-2.96283 2.47301,3.48849 12.15,-2.78363 5.25664,0.97965 1.14691,-1.79204 -1.24248,-1.24248 -6.53496,1.31416 -2.60443,-2.01902 -5.61504,-0.71682 -2.15045,1.07522 -4.00221,-0.87212 -5.06549,1.7562 -1.7323,-0.53762 -0.4062,-2.91504 v 0 l 8.37478,-10.46549 3.73939,-0.69292 4.6354,1.19469 2.81947,-4.56372 4.99381,1.09911 1.94734,-0.65708 2.83142,-4.69513 -0.10752,-3.1062 v 0 l 11.86328,-0.21504 2.21018,-0.91992 0.28672,-1.74425 1.85177,-1.39778 z"
      class="land" title="Kocaeli" id="TR-41" />
   <path
      d="m 334.46936,477.16512 1.27831,0.54956 4.22921,8.36284 2.26991,2.24602 4.89824,0.50177 3.76327,-5.2208 1.26638,1.48141 2.99867,-1.33805 4.18142,3.14204 3.0823,0.37035 1.54115,-0.60929 2.77169,-4.0739 4.82655,2.25797 4.05,-2.48496 0.43009,-4.75487 3.2854,-1.63672 0.91991,-5.29249 1.44558,-2.19823 7.41903,-2.07876 0.82433,0.81239 -0.41814,4.67124 1.43363,1.01549 4.27699,-3.97832 3.73939,-1.21859 0.81239,1.81593 -3.51239,1.91151 0.99159,5.92567 2.71195,3.39292 6.96505,4.36062 -0.3823,7.12036 1.5292,8.69735 5.35221,8.25531 v 0 l -6.3438,2.05487 -1.5531,4.70708 -3.72744,4.10974 -3.57212,11.42125 2.50885,4.24115 0.53761,5.20885 4.82655,3.50045 2.07876,4.59956 3.44071,3.83496 31.14559,-7.38319 v 0 l 3.93054,6.64248 4.59956,2.59248 6.40354,9.36637 1.52921,4.31284 -0.32257,2.34159 -4.86239,5.94956 3.63186,1.70841 -1.18275,3.82301 4.4801,0.9916 2.93893,4.10973 v 0 l -1.27831,2.55664 1.85177,3.29735 -9.06771,4.86239 -8.02832,2.47301 0.26283,3.58407 -1.75619,1.60089 -9.43806,3.32124 -9.42612,1.30221 v 0 l -2.84336,-7.78938 -8.17169,-11.30178 -0.82433,-12.34116 -10.95532,3.76328 -5.47168,-4.01416 -4.6354,0.45398 -5.16107,2.7239 -2.83142,4.10973 -4.85044,4.24116 -2.5208,7.5146 -3.54823,-0.13141 -1.63673,2.17433 1.19469,6.58275 4.82655,2.7239 0.97965,1.74425 -1.5292,5.68673 -3.16594,3.20177 -5.04159,2.26991 -10.90753,1.94735 v 0 l -5.91372,-3.96638 -1.01549,-5.25664 -1.7084,-2.07876 -8.92435,-4.10974 -5.08938,-7.10841 -2.74779,-8.24337 -2.56858,-2.52079 -1.26638,-3.47655 -2.05487,-0.11947 -4.14557,2.47301 -3.34514,0.48982 -10.68054,-2.48496 -3.89469,-3.82301 v 0 l 1.5531,-6.22434 -1.33805,-6.88142 1.25442,-1.99513 3.97832,-1.42168 0.31062,-0.93186 0.0358,-2.30576 -2.24602,-5.41195 0.45399,-3.75133 3.8469,-2.91504 0.60929,-3.20177 3.59602,-2.65222 0.35841,-4.88628 -1.20664,-3.36903 -3.56018,-1.27832 -6.18849,-5.18496 -3.09425,-3.94248 -1.07523,-3.6677 v 0 l 1.44558,-4.48009 14.6947,-9.56948 -2.66416,-2.41327 -0.52567,-2.11461 4.05001,-7.52655 0.59734,-6.59469 -0.9438,-1.78009 7.10841,-1.44558 -0.66903,-1.09912 -6.33186,-1.08716 -1.38584,-2.70001 v 0 l 9.12744,-1.21858 2.1146,-3.18983 3.03451,-0.19115 z"
      class="land" title="Konya" id="TR-42" />
   <path
      d="m 190.42547,448.01466 10.05929,0.27478 1.20664,-2.21018 3.45266,-2.55663 0.91991,-3.02257 5.19691,-4.6354 1.83982,-7.43098 4.36062,1.5292 2.09071,1.87567 6.10487,-0.37036 v 0 l 2.03098,6.76195 4.14558,3.54824 1.85177,0.93186 7.26372,0.29867 v 0 l 2.86726,0.69292 5.34026,-1.23053 0.77655,0.95575 -1.51725,1.85177 3.40486,3.18983 5.47169,2.91504 1.06327,5.19691 -1.35,2.23407 0.88407,4.34868 -1.09911,2.42522 2.4969,2.03097 0.28673,3.50045 2.93894,0.44203 v 0 l -2.05487,3.99027 -3.26151,0.14336 -4.00221,2.61638 0.57345,8.54204 -2.93894,4.67124 -3.40487,1.40973 -3.14204,4.18142 -2.48495,0.70487 v 0 l -2.89115,-1.06328 -2.24602,-4.58761 -11.19426,-1.36195 -5.02965,0.51372 -10.25045,3.4885 -4.31283,4.12168 -5.00575,-1.78009 -5.88983,0.64514 v 0 l -5.54337,-4.13363 -1.82787,-4.63541 1.45752,-1.95929 -0.13142,-2.73584 -10.28629,-1.89956 -2.61637,-2.17434 -1.83982,-4.00221 v 0 l -1.91151,-4.81461 8.6854,-1.60088 7.33541,-8.41063 -1.08717,-7.88496 3.44071,-3.6438 z"
      class="land" title="Kütahya" id="TR-43" />
   <path
      d="m 651.11025,477.88194 2.98673,2.37743 3.63186,-2.05487 3.11814,1.9593 3.85885,-0.13142 4.6354,4.76682 v 0 l -3.93053,4.27699 0.26283,2.43717 -1.23053,1.24248 2.85531,9.41416 -1.02743,0.83629 -4.40841,-1.31416 -1.30222,1.11106 -1.86371,-0.22699 -0.19116,3.02257 -2.37743,1.24248 -2.73584,3.78717 0.52566,5.62699 3.61992,3.39292 11.45708,3.61992 6.71416,-1.26638 3.5124,5.08939 3.63186,2.43717 7.27566,-1.56505 2.15045,3.08231 v 0 l -0.63319,4.37256 -1.57699,1.60089 1.82788,1.05133 v 0 l -6.11682,4.2531 -0.53761,1.64867 -10.10709,4.05 -8.26726,-5.67478 -2.44911,-0.46593 -0.84824,-1.35 -7.03673,-3.44071 -4.88628,0.32257 -1.69646,0.64513 -1.9593,2.7239 -8.60177,3.27345 -0.46593,1.30221 1.61283,2.18629 0.84823,3.95442 -4.79071,4.4562 -5.59115,1.07522 -5.24469,-1.12301 -2.43717,1.35001 -1.24248,-2.97479 -3.77523,0.86018 0.52567,-2.17434 -1.02744,-1.11106 v 0 l -1.75619,-1.11106 -0.75266,-3.85885 5.627,-4.94602 2.43717,-3.83496 -0.0956,-2.77168 -4.00221,-0.57346 0.72876,-5.47168 -4.42036,-0.83628 -5.14912,-4.05001 -4.01416,0.41815 -6.88142,-3.81107 -0.0478,-2.29381 2.38939,-3.73938 v 0 l 2.84336,-2.48496 1.68452,-5.90177 7.58628,-3.97832 -4.76681,-6.1646 2.8792,-5.10134 -2.68805,-5.0177 0.43009,-1.12301 14.25266,2.30576 1.29026,-1.85177 -1.80398,-3.4885 1.50531,-1.72036 6.88142,1.46947 11.52877,-0.16725 4.65929,-3.27346 z"
      class="land" title="Malatya" id="TR-44" />
   <path
      d="m 111.6356,462.88857 2.97478,-1.82788 5.56726,4.4323 7.58629,-1.23053 4.21725,4.28894 5.12523,-3.45266 1.61283,1.62478 1.57699,4.42036 5.40001,4.13363 5.12522,7.46682 2.21018,-0.33451 3.32124,-2.87921 5.13717,0.94381 8.5062,-4.6593 4.19337,0.44204 v 0 l 1.83982,4.00221 2.61637,2.17434 10.28629,1.89956 0.13142,2.73584 -1.45752,1.95929 1.82787,4.63541 5.54337,4.13363 v 0 l -2.98673,6.5469 -4.26505,2.46107 -3.13009,0.23893 -1.25442,1.62478 -2.29381,14.3363 -3.29734,5.42389 5.02964,6.84558 v 0 l -2.92699,2.42522 -1.72035,4.15753 -5.48364,3.21372 v 0 l -5.92566,-2.5208 v 0 l -2.95089,-3.53629 0.50177,-4.37256 -6.30797,-2.12655 -3.51239,-3.15399 -4.44425,-0.77655 -1.29026,-1.86372 -4.82656,-2.19823 -4.82655,1.13496 -1.70841,-1.42168 -2.26991,0.48982 0.52567,3.64381 -1.33806,1.86372 -0.95575,-1.58894 -3.21372,-0.0956 -2.42522,-4.8146 -3.32124,-0.39425 -1.85177,-1.81593 -1.9593,0.31062 -1.76814,-2.80753 -3.4646,0.41815 -1.32611,-2.83142 -2.22213,-1.1708 -5.26858,0.4062 -2.31771,-1.63673 -0.28672,-6.02124 -4.75487,-6.46328 2.60442,-3.79912 -0.40619,-1.56504 6.29602,-3.29735 2.46107,0.70487 5.45973,-2.29381 1.86372,-1.85177 0.70487,-3.83496 -3.61991,-9.68894 0.71681,-4.93408 -2.66416,-2.7 z"
      class="land" title="Manisa" id="TR-45" />
   <path
      d="m 783.51785,567.47181 3.95442,13.55975 13.64337,-1.18275 7.5624,-3.70354 5.13717,-4.48009 7.19204,-0.66903 2.58053,-2.23407 v 0 l 0.5854,3.72743 3.24956,3.71549 -2.07876,1.94735 -0.56151,2.30575 -3.38097,1.24248 -7.27567,0.45398 -1.00354,1.85178 -1.5531,12.69956 0.5854,1.29027 2.30575,-0.80045 1.31416,4.16948 -0.44203,3.2615 v 0 l -7.03673,2.25797 -11.6124,-0.0239 -2.4969,1.03938 -2.59248,-2.00708 -12.56815,-2.25796 -3.65576,1.50531 -3.36902,-1.23053 -11.4332,5.9854 -6.10487,0.9677 -2.55664,3.07035 -6.24823,3.39293 v 0 l -0.66903,-2.75974 -2.60442,-1.91151 -0.80045,-5.41195 -2.62832,-4.08584 -0.20309,-2.10265 -1.88762,0.19115 -2.04292,-2.04293 -0.51371,-3.95442 -3.09425,-7.50266 -0.25089,-3.22567 1.44558,-1.97124 -1.99514,-3.30929 v 0 l 2.85532,0.0717 6.72611,-3.18982 5.65088,3.40486 2.37744,0.21505 7.99248,-3.14204 0.66903,-2.26991 10.53717,2.67611 0.89602,-1.64868 -1.06327,-3.95442 0.72876,-2.96284 10.05929,2.91505 4.44426,-1.15885 z"
      class="land" title="Mardin" id="TR-47" />
   <path
      d="m 112.41215,586.00147 0.81239,-4.55177 3.09425,-2.35354 3.59602,-0.57346 5.11327,2.16239 3.13009,-0.19115 3.56018,3.16594 5.97346,-1.03939 8.79292,0.69292 6.36771,-5.11327 0.80044,2.47301 10.90753,0.44203 6.53496,4.69514 1.60088,-0.28673 v 0 l 0.86018,3.26151 2.53274,0.37035 1.92346,2.55664 -0.16726,3.34514 3.91859,2.35354 2.13849,4.31283 3.05841,1.05133 4.88629,-0.72876 0.45398,4.28894 3.4885,5.00575 -0.0956,4.51594 1.3739,3.83495 3.4646,1.39779 4.48009,-0.69292 2.7239,-1.80398 v 0 l 1.11106,1.33805 2.74779,0.0239 -1.39779,3.13009 3.23761,0.97964 0.6093,-1.64867 1.27832,0.32257 3.58407,-8.69735 5.32832,-2.21018 4.10974,1.50531 v 0 l 1.9115,1.61283 0.63319,2.67611 -2.85531,4.99381 0.0239,7.35929 -1.54115,3.84691 -4.6354,2.92699 -2.58053,4.48009 -2.73585,2.42523 -6.12876,0.3584 -3.71549,2.00708 0.54956,2.81947 -1.05133,0.45399 0.14336,4.08584 -2.37743,1.62478 v 0 l -2.1385,-2.1146 -2.92699,-0.77655 -1.25443,-1.07522 0.43009,-1.09912 -2.32964,-0.65708 1.55309,-1.68451 -0.28672,-2.84337 -1.14691,-0.78849 1.15885,-1.44558 0.012,-2.61637 -1.64867,-0.43009 -0.26283,-1.08717 -1.82788,0.60929 v 1.03938 l -1.98319,-0.33451 1.66062,-1.02744 -0.2031,-3.54823 1.74425,0.31062 0.0836,-1.92345 1.19469,0.70487 -0.65708,0.88407 1.35,-0.32257 0.31062,-1.32611 -1.25442,-1.81593 -2.05487,-0.34646 -1.74425,-2.07876 -1.1708,0.35841 -3.29734,-2.81947 -1.56505,3.4885 -1.68451,0.19115 0.20309,1.57699 -0.89601,0.52566 0.81239,1.56505 0.53761,-0.74071 1.38584,0.51372 -2.96284,3.13009 -1.08716,-2.3177 1.31416,-0.66903 -1.66062,-1.32611 -1.18275,0.51372 0.54956,-1.1469 -0.94381,-1.09912 -3.03451,-1.06327 -2.67611,0.78849 -1.07522,-1.89956 -1.48142,1.19469 0.31062,-1.55309 -0.82434,-0.4062 1.27832,-1.26637 -1.00354,-0.54956 0.83629,-0.83628 -2.17434,-2.3177 -1.80398,-0.83629 -0.68098,2.74779 -0.84823,-0.89602 -0.89602,0.51372 -0.0358,-1.82788 -1.9115,0.33452 -0.23894,-3.91859 -3.73938,1.92345 0.39424,0.91992 1.92346,-0.13142 -1.19469,2.85531 -4.37257,-1.76814 v 1.25442 l -1.91151,-0.0119 -0.44203,-1.26638 2.3177,-0.51371 -2.21018,-1.577 -1.56505,2.80753 3.40487,4.58761 -2.54469,-0.0717 -1.54115,2.47301 -2.97478,0.3823 -2.95089,5.65089 -1.51726,-0.2031 -2.38938,1.98319 -0.53761,-0.90797 -1.39779,1.63673 -0.99159,-3.23761 4.76682,0.1792 1.63672,-2.42522 -0.68097,-1.02743 -1.39779,0.33451 0.87213,-1.45752 -1.44558,-0.9916 -0.81239,1.30222 -2.91505,-0.5854 4.36063,-2.60443 2.10265,-0.41814 0.19115,1.27832 1.3739,-1.13496 -2.12655,-1.60088 2.24602,-2.84337 -2.38939,0.0956 -0.9438,1.9115 -5.43585,0.63319 -1.02743,1.03938 -9.95178,-1.21859 -2.03097,2.25797 -0.65708,3.84691 -4.92213,-1.32611 -4.76681,1.87566 -5.68673,-1.95929 -0.0478,-1.49336 2.89115,-0.23894 0.48982,-2.24602 8.78098,-0.88407 1.62478,-2.86726 3.03452,1.54115 5.77036,-1.66062 11.19425,0.77655 0.57345,-2.42522 -2.61637,0.0358 0.93186,-0.45398 -1.14691,-0.65708 2.79558,-1.26638 -0.22699,-1.42168 -1.74425,-0.54956 1.39779,-0.29867 -1.05133,-1.00354 3.65576,-0.94381 3.14203,0.9916 0.14337,1.20664 -0.2031,-2.5208 2.16239,-0.26283 0.48982,-2.68806 1.68452,0.59735 -0.16726,-0.91992 4.16947,-1.61283 -0.28672,-1.33805 -11.01506,1.06327 0.70487,1.11106 -0.81239,0.27478 -0.45398,-1.03938 -5.56726,-0.21504 -1.5292,0.95575 -2.71195,-0.7646 -6.52302,2.38938 -3.61991,-0.83628 -2.32965,1.49336 -3.13009,-0.72876 -0.45398,1.1708 -2.29381,-1.12301 -1.83982,0.39424 -2.89115,-3.16593 -0.52567,1.13496 -0.82433,-0.74071 -1.00354,1.92345 0.26283,-1.79203 -2.54469,0.81239 -1.35,3.63186 -1.97124,-0.47788 -1.85178,-5.86593 3.34514,-3.30929 -1.89956,-0.0239 -0.0836,-1.06327 1.00354,-0.68098 1.91151,1.48142 0.5615,-2.66416 1.05133,1.75619 0.99159,-1.55309 1.24248,0.66902 -0.0717,1.56505 2.09071,-0.51372 1.99514,2.92699 3.2615,-2.9031 2.1385,-0.48982 -1.86372,-1.02743 -0.52566,-2.42523 1.86371,-1.19469 0.89602,0.74071 -0.63318,1.30222 0.72876,-0.27478 -0.75266,-1.99514 1.87567,-3.96637 -2.79558,0.13141 -1.69646,3.08231 -1.1469,-0.63319 1.29026,-1.24248 -0.74071,-1.35 -2.60442,1.76814 1.99513,-4.39646 -1.1708,-1.49336 -1.49336,2.67611 -2.7,-1.26638 -0.29867,-2.05487 2.42522,-1.55309 z"
      class="land" title="Muğla" id="TR-48" />
   <path
      d="m 851.9139,454.47794 4.18142,4.31284 1.85177,4.85044 4.10974,-0.0717 0.65708,4.0739 4.95797,10.93142 -0.9677,4.77876 0.25088,7.69381 v 0 l -12.06638,-1.03938 -11.93496,3.63186 -1.74425,1.97124 -0.97964,3.4885 -2.64027,1.25442 0.3823,4.10974 -6.9531,6.30797 -1.3739,3.30929 -8.45841,-1.98318 -9.37832,-0.50177 -3.61991,1.75619 -0.31062,1.06328 v 0 l -2.48496,3.38097 -3.73938,0.66903 v 0 l -0.32257,-3.58407 -2.22213,0.44203 -2.40132,-1.88761 -1.27832,-5.14912 0.52566,-3.6677 -3.26151,1.46947 -2.68805,-2.04292 v 0 l -0.69292,-7.37124 0.91991,-6.66638 3.17788,-3.78717 5.45974,-2.30575 0.81239,-1.85177 -0.68098,-2.3416 -4.18142,-2.38938 -4.56372,-7.93275 0.15531,-3.51239 2.06682,-2.7 v 0 l 2.97478,1.13496 9.52169,0.28672 8.26726,5.77036 1.1469,5.83009 8.44647,-0.22699 9.01991,-2.41328 4.89824,-3.36903 0.11947,-2.65221 5.88982,-1.42168 1.1708,-5.6031 z"
      class="land" title="Muş" id="TR-49" />
   <path
      d="m 471.5243,459.80626 0.69292,1.97124 3.81107,1.70841 6.40354,0.9916 4.50399,3.6438 0.84823,2.83142 -0.84823,2.4969 1.99513,4.37257 -0.0836,4.05001 2.3177,4.20531 v 0 l -0.72876,5.1969 -3.54823,8.30311 3.99027,2.21017 4.59956,10.89559 -5.57921,8.00442 -5.93761,2.66417 -1.15885,3.32124 v 0 l -6.40355,-0.32257 -4.13363,3.04646 -2.15044,0.0836 -4.75487,-2.16239 -2.1385,-4.09779 v 0 l -1.91151,-1.83982 -0.52566,-4.46815 -3.50044,-5.36416 -5.41195,-2.89115 -0.45399,-3.1062 1.81593,-3.35708 0.25089,-4.64735 -1.27832,-1.1469 v 0 l -0.32257,-3.05841 3.21372,3.14204 1.63673,0.13141 3.58407,-9.04381 3.76328,-3.61991 4.09779,-0.0836 -2.11461,-2.29381 0.10753,-3.11814 7.02478,-8.98408 -5.87788,-0.62124 -1.40973,-2.74779 z"
      class="land" title="Nevşehir" id="TR-50" />
   <path
      d="m 463.2212,523.22046 2.1385,4.09779 4.75487,2.16239 2.15044,-0.0836 4.13363,-3.04646 6.40355,0.32257 v 0 l 2.44911,3.67964 3.95443,2.927 1.45752,5.59115 6.76195,0.64513 2.86726,2.06682 0.35841,11.75576 -2.19823,6.92921 v 0 l -5.41195,3.23761 -3.93054,5.97345 -6.03319,-0.72876 -1.86371,8.43452 -1.20664,1.62478 0.90796,1.74425 -3.14203,2.4969 v 0 l -9.83231,4.14558 -4.00222,0.10752 v 0 l -2.93893,-4.10973 -4.4801,-0.9916 1.18275,-3.82301 -3.63186,-1.70841 4.86239,-5.94956 0.32257,-2.34159 -1.52921,-4.31284 -6.40354,-9.36637 -4.59956,-2.59248 -3.93054,-6.64248 v 0 l 4.01417,-3.96638 5.23274,-1.31416 2.50885,-1.9115 4.02611,-5.94957 0.94381,-6.94115 z"
      class="land" title="Niğde" id="TR-51" />
   <path
      d="m 595.84384,348.91504 4.6354,-0.0239 0.21505,1.40974 4.96991,1.36195 7.02479,5.26858 3.40487,-1.68451 3.63186,-5.73452 1.01548,1.35 4.16947,-0.10752 -0.46592,3.59602 1.44557,2.23407 3.02257,0.91991 0.47788,1.67257 10.81195,1.58894 v 0 l -1.20664,3.93053 -3.63186,5.29249 0.71682,2.84336 -2.59248,2.10266 1.88761,4.74292 2.85531,1.64867 -1.12301,2.1385 1.7323,2.85531 -0.32257,4.37257 v 0 l -2.32964,1.87566 -3.59602,0.39425 -0.72876,2.58053 -4.42036,4.15753 -2.43717,-1.62478 -1.97124,1.63673 -5.10133,-0.9677 v 0 l 1.07522,-2.46107 -3.14204,-1.83982 2.26992,-3.47655 -0.43009,-1.07522 -5.75841,-1.63673 -7.45487,0.10752 -8.07611,-7.39513 -2.01903,-0.76461 -0.35841,-1.35 -2.95089,-1.24248 -4.85044,1.58894 -2.71195,-1.95929 -2.80752,0.11947 -1.00354,-1.24248 -0.0717,-3.21372 -5.74646,-1.89956 -0.31062,-1.72035 -2.23407,-1.42168 v 0 l 0.31062,-1.67257 5.84204,-3.20177 1.39779,-2.28186 4.70708,-0.23894 1.51726,-1.14691 2.17433,-2.59247 -0.70486,-2.89116 2.06681,-1.97124 3.73938,0.15531 1.97124,-3.09425 v 0 z"
      class="land" title="Ordu" id="TR-52" />
   <path
      d="m 549.227,568.6904 -1.37389,2.80752 1.99513,17.86063 4.31284,-0.10752 1.00354,0.91991 6.5469,-2.06681 8.17169,0.10752 0.43009,1.15885 -1.43363,3.14204 1.98319,3.90663 -0.51372,3.1062 v 0 l -11.027,13.09381 v 0 l -3.69159,-0.84823 -3.6916,0.56151 -7.99248,-3.6916 -4.6354,0.93186 v 0 l 1.49336,-10.87169 -2.79558,-12.63983 0.56151,-5.23274 1.54115,-4.93408 2.56859,-3.8469 z"
      class="land" title="Osmaniye" id="TR-80" />
   <path
      d="m 796.53998,336.23937 1.56504,2.72389 0.23894,3.40487 6.84558,9.21107 -3.23761,2.10265 -5.67478,6.46328 -0.9677,3.6916 -4.34868,5.92566 v 0 l -5.62699,3.4885 -9.16328,8.63762 -12.90266,6.00929 v 0 l -5.13718,1.35 v 0 l -1.76814,-5.08938 3.20177,-5.74646 -3.83495,-5.87788 1.19469,-5.29248 -2.47301,-2.42523 -0.33452,-3.48849 -4.26504,-1.48142 v 0 l 3.21371,-3.14204 5.69868,-1.05133 2.00708,0.97965 8.58983,-3.76328 4.44425,-4.96991 3.59602,-1.40974 2.86726,0.37036 6.00929,-2.47301 z"
      class="land" title="Rize" id="TR-53" />
   <path
      d="m 271.07905,349.91858 6.52302,2.79557 10.90752,0.88408 v 0 l 1.88762,1.66062 -2.44912,3.40486 -3.47655,2.78363 -3.14204,0.56151 -1.7323,2.5208 0.62124,1.18274 2.99867,-0.2031 1.72036,2.56859 -2.3177,2.12655 -0.56151,2.36549 0.4062,1.31416 4.59956,2.3177 -1.66062,3.34513 v 0 l -1.7562,2.91505 2.22213,4.18142 -2.77169,2.68805 -6.77389,1.43363 -8.04027,-0.29867 0.34646,7.20398 -0.95576,2.17434 v 0 l -2.34159,0.16726 -2.09071,-2.16239 -4.00221,1.83982 -2.32965,-1.33805 -4.98186,1.72035 -2.86726,-0.5615 -2.54469,-1.67257 -2.00708,-3.50044 -1.76815,1.86371 -1.24247,-0.34646 -3.27346,-6.03318 v 0 l 0.5854,-3.21372 v 0 l 7.16815,-2.74779 2.60442,-6.3916 3.83496,-1.64867 -0.90796,-6.34381 3.71548,-1.50531 1.67257,-3.05841 -3.52434,-7.61018 0.71682,-1.62478 -0.63319,-1.87567 3.3093,-5.73451 1.83982,-1.27832 v 0 z"
      class="land" title="Sakarya" id="TR-54" />
   <path
      d="m 535.17744,310.18316 4.8385,3.82301 2.23407,3.38097 1.03938,10.91948 5.11328,6.69027 4.9938,2.81947 0.31062,1.99513 2.25797,2.01903 3.20177,0.53761 4.39646,-2.00708 5.34027,-7.44293 1.1708,1.36195 9.39027,1.78009 6.23629,3.6677 1.5292,1.76815 0.46593,4.64734 6.65443,2.79558 v 0 l -1.97124,3.09425 -3.73938,-0.15531 -2.05487,1.97124 0.70487,2.87921 -2.17434,2.59247 -1.51726,1.15886 -4.70708,0.22699 -1.39779,2.2938 -5.84204,3.18983 -0.31062,1.68451 v 0 l -2.3177,-1.79203 -3.02257,0.10752 -4.09779,1.68451 -1.88761,-0.37035 -3.2615,1.95929 v 0 l -5.63895,-2.28186 1.97124,-2.28186 -0.34646,-1.31416 -6.59469,-2.42522 -1.1708,2.4969 -1.50531,0.53761 -1.97124,5.92567 -8.26726,-3.38097 -6.06903,1.44557 -1.78009,-1.7323 -5.14912,-0.2031 -0.95575,-1.25442 0.4062,-2.01903 -3.64381,-1.82788 -1.88761,-4.55177 -1.63673,1.21858 -0.66903,-1.48141 -1.72035,1.25442 -3.2854,-1.7323 -6.47523,1.08717 -1.95929,-2.48496 -6.09292,-0.75265 v 0 l -4.55178,-0.52567 -2.24602,-1.60088 2.48496,-4.43231 -3.2854,-7.03673 0.16726,-2.92699 v 0 l 8.32699,-4.55177 1.08717,4.16947 2.5208,1.72036 0.1792,2.44911 5.73452,2.29381 2.38938,-0.77655 1.45753,-2.23407 -0.66903,-4.4562 2.10265,-0.45398 3.95443,1.64867 -0.87212,-8.14779 -5.16107,-2.5208 -1.60088,-5.10133 2.2938,-4.73098 2.12655,-1.82787 v 0 l 4.14558,2.15044 5.23275,-0.15531 z"
      class="land" title="Samsun" id="TR-55" />
   <path
      d="m 692.88859,548.44039 10.01151,3.96637 3.95443,4.61151 6.83363,1.19469 3.32124,3.75133 3.01062,-3.2854 4.19337,-1.03938 2.06681,5.23274 0.59735,12.15001 3.53628,4.21726 v 0 l 1.99514,3.30929 -1.44558,1.97124 0.25089,3.22567 3.09425,7.50266 0.51371,3.95442 2.04292,2.04293 1.88762,-0.19115 0.20309,2.10265 2.62832,4.08584 0.80045,5.41195 2.60442,1.91151 0.66903,2.75974 v 0 l -2.53274,2.01902 -5.74647,1.31416 -1.61283,1.76815 -10.45355,4.34867 -30.07037,5.38806 -9.28275,-2.50885 -14.04956,0.10752 -9.24691,-8.38673 -8.14779,-3.57213 -7.03673,-1.31416 -10.15488,3.93054 -0.53761,1.7084 v 0 l 0.91992,-2.92699 -2.07877,-2.74779 0.10753,-2.30575 -1.9354,-1.44558 0.57345,-4.16947 -3.07036,0.71682 -2.61637,-1.69647 0.7646,-4.37256 -2.17434,-4.10974 0.34646,-1.21859 1.97124,0.32257 -2.06681,-2.67611 1.03938,-3.27345 1.29027,-0.5854 -0.63319,-1.13496 4.91018,-5.71062 3.16593,-0.41814 1.32611,0.86018 1.02743,-1.25443 v 0 l 4.55177,2.46107 1.02744,-2.49691 2.35354,0.4062 1.30221,-2.05487 8.19558,-0.62124 2.47301,-1.29027 8.01638,-7.00089 9.89204,-2.01902 -1.69646,-2.42523 3.18982,-0.63318 1.49337,-1.00354 0.26283,-1.70841 2.03097,-0.64514 -0.0597,-3.09424 -2.98673,0.0597 1.48142,-1.44558 2.54469,0.0358 0.68097,-3.6677 -0.90796,-0.83628 2.65221,-1.13496 1.577,-4.34867 1.5292,-1.35 z"
      class="land" title="Şanlıurfa" id="TR-63" />
   <path
      d="m 817.81742,535.02401 5.16107,0.0239 1.49336,2.32965 2.05487,0.72876 5.31638,-0.95575 0.16725,1.50531 1.08717,0.41814 1.87567,-0.0478 4.08584,-2.48496 5.02965,0.13142 12.18585,13.81063 3.65575,1.24248 0.81239,1.55309 1.64867,-1.49336 -0.40619,-1.1469 2.68805,-1.07522 0.80045,-1.38585 v 0 l 3.54823,4.50399 2.22212,1.13496 2.3177,5.91372 2.03098,1.56504 v 0 l 0.28673,9.05576 -6.40355,-2.3416 -5.73452,-0.31062 -5.47168,-2.98672 -2.00708,0.66902 -8.15974,7.51461 -2.96283,1.26637 -4.00222,-0.0478 -2.07876,-1.61283 -3.53629,1.52921 -3.69159,-1.48142 -4.0739,0.3823 -4.16947,-4.16947 v 0 l -2.60442,-1.7562 -2.77169,0.57345 -6.03319,-2.00708 -1.50531,-2.68805 -11.33761,-8.64956 0.59734,-2.40133 6.14071,-5.92567 7.86107,-3.24956 z"
      class="land" title="Siirt" id="TR-56" />
   <path
      d="m 485.16767,286.49243 2.80753,0.13142 1.81593,2.21018 -0.31062,1.1708 1.75619,1.00354 5.43585,-0.91992 0.86017,1.74425 -3.04646,-0.65708 -2.43717,3.58408 -0.26283,3.11814 1.91151,4.2292 3.63186,3.52434 0.0358,2.16239 3.51239,3.61992 7.87301,3.24956 v 0 l -2.1146,1.82787 -2.29381,4.73098 1.58894,5.10133 5.16107,2.5208 0.88407,8.14779 -3.96638,-1.64867 -2.0907,0.46593 0.66902,4.44425 -1.45752,2.24602 -2.38938,0.77655 -5.73452,-2.29381 -0.1792,-2.44912 -2.5208,-1.72035 -1.08717,-4.15753 -8.327,4.53983 v 0 l -4.0261,5.32832 -3.45266,0.0717 -3.18983,2.54469 -3.07035,-0.15531 -2.84337,-1.86371 -1.46947,-3.36903 -3.97832,-2.38939 -2.43717,1.23054 v 0 l -1.21858,-3.22567 3.51239,-7.12036 -1.11106,-3.48849 4.27699,-3.64381 1.72036,-6.66638 -2.9031,-2.26991 -5.8062,-1.23053 -1.88761,-4.10974 -5.86594,-0.27478 1.40974,-3.47655 -0.71681,-3.22566 -2.1624,-1.9354 -0.0119,-1.97124 v 0 l 5.6031,0.28672 6.78584,-2.03097 2.64027,1.86372 11.85133,-0.0956 6.02125,-4.69514 2.13849,-3.53628 -0.22699,-1.42168 z"
      class="land" title="Sinop" id="TR-57" />
   <path
      d="m 875.59268,561.29526 5.51947,1.63673 3.94248,3.0823 11.32567,1.91151 2.80753,-0.6093 3.42876,-3.77522 3.09425,0.1792 v 0 l -1.5531,6.22434 -7.08452,7.9447 2.29381,4.49204 0.29867,9.10354 v 0 l -1.07522,-0.0717 -1.12301,1.57699 -3.40487,-2.61637 -5.92567,-1.7562 -4.57566,1.25443 -3.24956,2.56858 -6.08098,-1.97124 -0.44203,-1.61283 -1.67257,-0.69292 -3.23761,4.18142 -1.9354,0.1792 0.39424,1.38584 -3.90663,4.34868 -1.72036,4.30089 -5.48363,0.50177 -5.77036,2.23407 -1.64867,-4.94602 1.03938,-3.07036 -2.87921,-3.02257 -3.85885,0.13142 1.01549,-1.97124 -0.72876,-0.40619 -8.68541,8.45841 -11.93496,3.32124 -7.44292,0.83628 v 0 l 0.44203,-3.2615 -1.31416,-4.16948 -2.30575,0.80045 -0.5854,-1.29027 1.5531,-12.69956 1.00354,-1.85178 7.27567,-0.45398 3.38097,-1.24248 0.56151,-2.30575 2.07876,-1.94735 -3.24956,-3.71549 -0.5854,-3.72743 v 0 0 0 l 4.16947,4.16947 4.0739,-0.3823 3.69159,1.48142 3.53629,-1.52921 2.07876,1.61283 4.00222,0.0478 2.96283,-1.26637 8.15974,-7.51461 2.00708,-0.66902 5.47168,2.98672 5.73452,0.31062 6.40355,2.3416 z"
      class="land" title="Şırnak" id="TR-73" />
   <path
      d="m 638.5182,390.69338 5.4239,2.30575 -1.05133,4.69514 0.25089,7.7894 2.7,4.73097 5.06549,0.97965 3.8708,2.59248 1.99513,-1.03938 1.12301,1.19469 3.07036,-2.15045 1.57699,4.51594 3.2854,1.54115 6.92921,0.40619 v 0 l -1.50531,3.11815 -5.10133,0.5615 -3.83496,3.36903 -5.63894,-0.57345 -3.02257,2.61637 0.15531,2.7 4.94602,4.12169 -5.43584,4.01416 -2.06682,6.37965 1.01549,6.10487 -2.24602,4.62345 1.57699,4.16947 3.4646,2.06682 -0.68097,2.1385 -3.33319,0.83628 3.67965,6.28407 -3.61991,7.09647 v 0 l -2.96284,0.59734 -4.65929,3.27346 -11.52877,0.16725 -6.88142,-1.46947 -1.50531,1.72036 1.80398,3.4885 -1.29026,1.85177 -14.25266,-2.30576 -0.43009,1.12301 2.68805,5.0177 -2.8792,5.10134 4.76681,6.1646 -7.58628,3.97832 -1.68452,5.90177 -2.84336,2.48496 v 0 l -1.27832,-1.03938 -5.26859,0.44204 -8.19558,-1.54115 -11.32567,2.44911 v 0 l -4.0739,-8.61372 4.36063,-3.8708 0.7407,-5.96151 2.37744,-4.44425 3.71549,-3.51239 -2.35354,-6.37965 -3.16593,-2.67611 -4.94603,-2.07876 -7.00088,1.09912 -10.87169,-0.77655 -7.86107,2.00708 -4.96991,-0.14336 -2.1385,-3.21372 -2.29381,-1.33806 -1.23053,-3.11814 -8.55399,-3.70354 v 0 l 4.24116,-5.94956 0.9438,-8.05222 3.82301,-1.49336 2.99868,1.40973 2.35354,-0.40619 5.12522,-5.23275 -0.91991,-6.55885 -4.18142,-4.98186 0.74071,-5.51948 -4.13363,-1.63672 -0.22699,-3.77523 v 0 l 3.30929,2.59248 1.86372,0.2031 0.9677,-3.36903 2.24602,-1.1708 15.71019,0.37036 5.4,-1.9354 1.7323,-2.37744 0.89602,-6.80973 1.9354,-0.69292 1.94735,-3.72744 2.2938,-1.15885 11.26594,-0.23894 2.25796,1.56505 7.27567,-0.54956 2.23407,1.27832 3.01063,-0.0478 1.5292,1.54115 2.16239,-0.15531 0.44204,-2.78363 6.46327,-2.66416 -0.72876,-1.54116 3.27346,-2.48496 2.15044,-3.4646 v 0 l 5.10133,0.9677 1.97124,-1.63673 2.43717,1.62478 4.42036,-4.15753 0.72876,-2.58053 3.59602,-0.39425 z"
      class="land" title="Sivas" id="TR-58" />
   <path
      d="m 88.637792,338.27034 2.676108,-2.47301 3.64381,0.71681 8.33894,-1.15885 2.09071,1.5531 1.31416,3.59602 5.77036,4.50399 3.78717,-1.3739 3.42876,-3.53628 1.98319,-7.63408 2.58053,-2.22212 7.58629,-2.78363 4.22921,-0.46593 10.04735,-5.96151 0.44203,-1.58894 1.97124,0.16726 v 0 l 0.5854,0.72876 v 0 l -3.76327,18.69691 -2.85531,4.86239 0.0239,2.9031 -2.09071,4.19337 -0.19115,3.42876 1.06327,2.3416 v 0 l -1.85177,3.95442 -4.00221,-0.10752 -6.06903,-3.21372 -11.95886,2.66416 -2.13849,4.09779 -0.71682,4.28894 -5.49558,5.16107 -2.28186,4.59956 -5.93762,4.39646 -6.65443,1.87567 -2.50885,2.74779 -3.249556,0.81239 v 0 l -0.05973,-3.52434 3.966366,-9.31859 -3.715481,-1.25443 -7.120358,0.33452 v 0 l -4.730976,-6.16461 1.31416,-9.86815 -2.461064,-2.26991 1.027435,-1.25443 5.173011,-0.78849 4.886286,-4.85045 2.855312,-4.98186 z"
      class="land" title="Tekirdağ" id="TR-59" />
   <path
      d="m 556.7655,369.45177 3.26151,-1.95929 1.88761,0.37036 4.10974,-1.68452 3.01062,-0.10752 2.3177,1.79204 v 0 l 2.23407,1.42168 0.31062,1.72035 5.74646,1.89956 0.0717,3.21372 1.00354,1.24248 2.80752,-0.11947 2.71195,1.95929 4.85044,-1.58894 2.95089,1.24248 0.35841,1.35 2.01903,0.76461 8.07611,7.39513 7.45487,-0.10752 5.75841,1.63673 0.43009,1.07522 -2.26992,3.47655 3.14204,1.83982 -1.07522,2.46107 v 0 l -2.15044,3.4646 -3.27346,2.48496 0.72876,1.54116 -6.46327,2.66416 -0.44204,2.78363 -2.16239,0.15531 -1.5292,-1.54115 -3.01063,0.0478 -2.23407,-1.27832 -7.27567,0.54956 -2.25796,-1.56505 -11.26594,0.23894 -2.2938,1.15885 -1.94735,3.72744 -1.9354,0.69292 -0.89602,6.80973 -1.7323,2.37744 -5.4,1.9354 -15.71019,-0.37036 -2.24602,1.1708 -0.9677,3.36903 -1.86372,-0.2031 -3.30929,-2.59248 v 0 l -1.83982,-1.76814 -0.94381,-7.55045 -9.10354,-0.33451 -5.25664,1.13496 -1.79204,-1.21859 -5.4,-0.70487 -0.16726,-3.71548 -3.27345,-2.71195 -0.54956,-3.75133 v 0 l 5.69867,-3.64382 5.69868,-1.29027 2.95089,-1.99513 0.20309,-2.04292 3.03452,-1.9354 1.27832,-3.6916 6.67832,-0.34646 1.97124,1.03938 -0.10752,1.12301 4.56372,1.68452 1.38584,-1.94735 6.49912,-2.97478 1.05133,-2.62832 2.43717,-2.00708 -3.20178,-0.52567 -0.33451,-1.51725 6.71416,-0.52567 1.30222,-2.40133 -0.28673,-2.92699 3.88275,-3.4885 -4.02611,-2.13849 z"
      class="land" title="Tokat" id="TR-60" />
   <path
      d="m 706.19745,351.7584 2.67611,0.66903 4.06194,4.38451 3.75133,1.76815 3.65576,-0.91992 5.36416,1.69647 2.1385,2.00708 8.25531,-0.25089 4.0739,2.93894 5.4,-1.01549 4.277,-3.18982 v 0 l 4.26504,1.48142 0.33452,3.48849 2.47301,2.42523 -1.19469,5.29248 3.83495,5.87788 -3.20177,5.74646 1.76814,5.08938 v 0 l -10.4177,1.12301 v 0 l -4.21726,-3.6438 -2.91505,0.70486 -2.60442,-1.94734 0.5615,-2.3177 -2.61637,-1.88762 -3.60797,0.52567 0.0119,1.70841 3.38097,1.5292 0.66903,1.32611 -3.85885,1.70841 -1.12301,-2.25797 -5.41195,-2.15044 0.97965,-3.8708 -0.70487,-1.9354 -2.68806,0.23894 -0.52566,4.73097 -2.56859,2.81947 -5.16106,0.21505 -3.03452,-2.74779 -3.21371,0.22699 -0.63319,-2.32965 -1.88761,-0.3823 -2.78363,-3.09425 -7.14425,-1.58894 -3.08231,-1.7323 v 0 l 0.0717,-20.73983 v 0 l 4.95796,1.68451 6.88142,-3.81106 z"
      class="land" title="Trabzon" id="TR-61" />
   <path
      d="m 672.63858,484.93061 -1.08717,-6.40354 1.56505,-2.95089 -1.44558,-1.27832 0.94381,-1.29026 3.75132,-0.7885 2.62832,-1.85177 -1.21858,-3.57212 0.39425,-1.98319 5.65089,-4.53983 9.98761,-4.74292 8.97213,1.37389 7.18009,-2.16239 10.51328,1.50531 1.99514,-1.36194 1.94735,-6.42744 2.15044,-0.87213 9.2708,2.31771 2.09071,1.39778 5.93761,-2.19823 7.08452,1.35 3.64381,3.64381 v 0 l -11.91107,10.38187 -9.03186,-0.62124 1.42168,5.07743 -3.14204,2.7239 -2.37743,8.62567 v 0 l -2.30576,2.80752 1.9593,2.95089 -1.58894,5.94956 -2.32965,2.41327 -0.83628,3.58408 -2.06682,-0.83629 -4.19336,1.14691 -7.1562,0.0956 -1.05133,2.95089 -1.12301,0.37035 -2.62832,-1.38584 -2.00708,0.95575 -0.88407,-2.05486 -3.33319,-1.15886 -2.29381,-2.46106 -14.73054,-2.47301 -5.16106,2.7 -4.80266,-1.60088 -0.66903,-1.63673 2.30576,-3.95443 -0.37036,-2.09071 z"
      class="land" title="Tunceli" id="TR-62" />
   <path
      d="m 194.97724,497.79744 5.88983,-0.64514 5.00575,1.78009 4.31283,-4.12168 10.25045,-3.4885 5.02965,-0.51372 11.19426,1.36195 2.24602,4.58761 2.89115,1.06328 v 0 l -0.71682,3.0823 -4.69513,4.03806 1.19469,4.80266 -1.85177,1.06327 -5.6031,7.32346 v 0 l -8.29116,5.62699 0.45398,6.977 -1.54115,2.01902 -13.85841,-3.04646 -4.12169,4.73098 0.38231,1.64867 -1.43363,0.4062 -0.65708,2.96283 -1.63673,-4.05 -16.64205,-0.13142 v 0 l -5.02964,-6.84558 3.29734,-5.42389 2.29381,-14.3363 1.25442,-1.62478 3.13009,-0.23893 4.26505,-2.46107 z"
      class="land" title="Uşak" id="TR-64" />
   <path
      d="m 933.63077,463.64122 1.99513,2.25797 0.22699,2.30575 1.13496,0.48982 -0.90797,1.99514 0.5854,3.17788 3.41682,1.82787 2.3177,2.77169 0.53761,2.42522 -1.5531,1.39779 0.93186,3.24956 -1.99513,1.85177 1.37389,2.66416 -0.44204,0.97965 1.42169,1.09911 -0.3823,1.68452 1.74424,2.44911 2.66417,0.75266 0.68097,1.97124 -2.66416,5.88982 1.02743,2.3416 -0.53761,1.85177 2.55664,2.00708 -0.62124,5.45974 0.7885,2.79557 -1.09912,2.42523 0.7885,2.2938 -0.80045,1.01549 0.88408,1.33805 1.94734,-0.1792 0.9916,1.05133 3.35708,-1.70841 0.71681,1.64867 2.40133,1.07523 -0.75265,2.3177 -4.70709,3.34513 -0.51371,6.53496 -2.00709,0.83628 0.83629,1.83983 -1.89956,0.27478 -1.00354,3.70354 -3.20177,4.86239 0.48982,1.33806 -1.42168,3.38097 2.1385,1.27832 2.62832,-0.5615 3.47655,0.87212 0.29867,2.61637 1.49336,1.40974 1.14691,-0.56151 -0.0358,2.32965 v 0 l -2.28186,1.20664 -4.49204,-0.33451 -2.36549,1.79203 -6.64248,-0.62124 -1.50531,-3.03451 -3.3093,-1.66062 -6.1646,1.54115 -6.89337,-0.65708 -9.10354,2.61637 -5.61505,-1.24248 v 0 l -3.09425,-0.1792 -3.42876,3.77522 -2.80753,0.6093 -11.32567,-1.91151 -3.94248,-3.0823 -5.51947,-1.63673 v 0 l -2.03098,-1.56504 -2.3177,-5.91372 -2.22212,-1.13496 -3.54823,-4.50399 v 0 l 2.22212,-12.10222 -0.48982,-2.8792 -1.98319,-1.50531 -0.0119,-1.44558 5.55532,-3.83496 0.43009,-7.34734 7.72965,-11.55267 4.82655,-4.48009 6.7739,-4.03805 2.64026,-3.79912 -0.22699,-1.7323 -6.09292,-2.74779 -1.23053,-2.85531 -3.73939,-3.04646 v 0 l 3.76328,-6.67833 4.85045,-3.91858 0.20309,-9.52169 5.6031,-1.66062 6.45133,0.44203 6.23629,6.70222 5.13717,2.71195 3.8708,0.48982 3.88275,-3.42876 3.59602,-5.81815 8.13584,-1.29026 v 0 z"
      class="land" title="Van" id="TR-65" />
   <path
      d="m 211.77459,378.60311 1.45753,-0.39425 v 0 l 0.14336,7.00089 -0.94381,2.01903 v 0 l -5.7823,-0.10753 -5.88983,2.10266 -10.57301,-2.18628 -0.75266,6.49911 v 0 l -9.45,-3.8469 -0.0239,-1.1708 10.45355,-7.01283 13.95399,-0.94381 3.41682,-0.9677 1.74424,-1.80398 z"
      class="land" title="Yalova" id="TR-77" />
   <path
      d="m 509.96946,405.7465 0.54956,3.75133 3.27345,2.71195 0.16726,3.71548 5.4,0.70487 1.79204,1.21859 5.25664,-1.13496 9.10354,0.33451 0.94381,7.55045 1.83982,1.76814 v 0 l 0.22699,3.77523 4.13363,1.63672 -0.74071,5.51948 4.18142,4.98186 0.91991,6.55885 -5.12522,5.23275 -2.35354,0.40619 -2.99868,-1.40973 -3.82301,1.49336 -0.9438,8.05222 -4.24116,5.94956 v 0 l -2.52079,3.65575 -2.46107,1.26637 -12.28142,1.64868 -1.30221,1.99513 1.68451,4.39647 -6.89337,4.98186 -6.31991,2.46106 -0.97965,-0.69292 -0.33451,-4.19337 -4.95797,1.99514 v 0 l -2.3177,-4.20531 0.0836,-4.05001 -1.99513,-4.37257 0.84823,-2.4969 -0.84823,-2.83142 -4.50399,-3.6438 -6.40354,-0.9916 -3.81107,-1.70841 -0.69292,-1.97124 v 0 l -1.89956,-3.36903 -5.06549,-2.62832 2.71195,-3.34513 -0.82433,-1.21858 -6.0093,-1.08717 -2.00708,-3.8708 -8.85266,-4.56372 -1.99513,-4.55177 h -3.56018 v 0 l -0.84823,-5.36417 -1.99514,-2.52079 4.06195,-1.577 v 0 l 0.47788,2.15045 4.28894,-1.29027 5.93761,0.74071 1.36195,-2.25797 4.59956,-3.27345 2.04292,0.47788 2.06682,2.12655 3.16593,0.69292 3.2854,-1.44558 6.23629,-0.35841 4.30088,-4.56372 1.01549,0.64514 0.37035,2.78363 12.71152,-0.94381 1.06327,-1.74425 -2.41327,-4.2292 2.46106,-2.10266 -2.59248,-4.16947 1.40973,-0.48982 2.9031,2.25796 2.55664,-3.10619 4.22921,-1.27832 v 0 z"
      class="land" title="Yozgat" id="TR-66" />
   <path
      d="m 345.49635,319.23891 2.87921,4.6593 3.36903,0.52566 -0.0239,3.44071 2.26992,2.66416 v 2.83142 l -1.86372,3.95443 v 0 l -2.42522,2.13849 -2.03098,6.92921 2.04292,5.71062 v 0 l -18.61328,4.79072 -3.8708,-1.82788 -9.12744,0.0478 -5.627,2.15044 v 0 l -2.6761,0.82434 -3.01062,-0.59735 -2.00708,-7.00089 v 0 l 4.95796,-5.87788 0.65708,-4.24115 -1.39779,-1.13496 0.31062,-1.49336 10.56107,-4.15753 12.66373,-8.53009 6.69027,-2.67611 2.17433,-2.04292 z"
      class="land" title="Zonguldak" id="TR-67" />
   <g id="stadiums" data-country="turkey" data-circle-radius="6" data-circle-colors="#FF0000,#00FF00" />
</svg>