<?xml version="1.0" encoding="UTF-8" standalone="no"?>
<?xml-stylesheet type="text/css" href="/styles/home.css"?>
<!-- https://www.amcharts.com/svg-maps -->

<svg version="1.1" xmlns="http://www.w3.org/2000/svg" id="map-ukraine"
   viewBox="0 0 612.47827 407.47662" width="612.47827" height="407.47662">
  <defs
     id="defs4">
    <style
       type="text/css"
       id="style2">
			.land
			{
				fill: #9373a4;
				fill-opacity: 1;
				stroke:white;
				stroke-opacity: 1;
				stroke-width:0.5;
			}
		</style>
    <!-- <amcharts:ammap projection="mercator" leftLongitude="22.138115" topLatitude="52.374337" rightLongitude="40.216930" bottomLatitude="44.387017"></amcharts:ammap> -->
    <!-- All areas are listed in the line below. You can use this list in your script. -->
    <!--{id:"UA-40"},{id:"UA-43"},{id:"UA-71"},{id:"UA-74"},{id:"UA-77"},{id:"UA-12"},{id:"UA-14"},{id:"UA-26"},{id:"UA-63"},{id:"UA-65"},{id:"UA-68"},{id:"UA-30"},{id:"UA-32"},{id:"UA-35"},{id:"UA-09"},{id:"UA-46"},{id:"UA-48"},{id:"UA-51"},{id:"UA-53"},{id:"UA-56"},{id:"UA-59"},{id:"UA-61"},{id:"UA-21"},{id:"UA-05"},{id:"UA-07"},{id:"UA-23"},{id:"UA-18"}-->
  </defs>
  <path
     d="m 386.51302,387.21257 4.44,0.97 0.33,1.49 -2.07,0.68 0.96,1.56 2.42,-0.95 1.69,1.01 -1.11,3.93 3.14,1.96 2.95,6.49 -1.59,2.03 v 0 l -4.83,0.82 -1.06,-1.64 -1.89,-0.21 -1.15,-2.9 -4.34,-0.44 -3.69,-3.99 1.87,-0.97 5.3,-0.46 -2.68,-0.88 1.22,-1.98 z"
     class="land"
     title="Sevastpol' City"
     id="UA-40" />
  <path
     d="m 491.21302,359.58257 -1.21,1.9 -4.4,-0.33 -0.22,1.07 1.23,0.81 -2.71,1.65 0.7,0.94 -1.21,2.56 1.79,5.63 -2.81,1.88 -3.85,0.31 -1.26,1.18 -6.67,-1.1 -6.56,2.15 -2.22,-3.32 -2.84,-1.87 -3.58,-1.11 -2.89,0.61 -3.82,3.15 0.07,1.22 1.22,0.61 -2.26,1.16 0.88,1.91 -4.19,-0.78 -0.77,2.25 -2.62,1.02 -1.01,3.47 -1.61,1.47 -1.72,-1.75 -2.18,-0.51 -2.41,1.14 -5.59,0.21 -4.08,1.8 -5.15,3.01 -3.67,6.05 -0.06,1.64 -1.4,-0.23 -1.9,2.25 -2.79,0.58 -1.36,3.09 -5.32,1.65 -3.09,-0.57 v 0 l 1.59,-2.03 -2.95,-6.49 -3.14,-1.96 1.11,-3.93 -1.69,-1.01 -2.42,0.95 -0.96,-1.56 2.07,-0.68 -0.33,-1.49 -4.44,-0.97 v 0 l 0.15,-1.41 1.78,-1.36 -0.07,-6.14 -1.39,-4.21 -3.82,-4.35 -2.14,-1.02 -4.33,2.36 -11.93,-10.25 -5.06,-0.18 -3.6,2.45 -5.31,-1.56 0.67,-1.34 -1.16,-1.04 3.66,-4.09 6.84,-3.91 1.21,0.42 0.64,-1.09 -0.75,-0.62 2.99,-2.48 7.7,-3.74 1.4,-2.62 2,1.06 3.75,-1.62 2.49,-2.42 0.8,0.51 1.24,-1.47 2,0.92 2.39,-2.66 2.34,2.34 -0.1,-3.15 2.72,-1.03 -0.49,-1.09 -4.35,0.21 -0.09,-5.17 0.95,-1.47 -0.92,-2.52 v 0 l 0.7,-0.25 -0.73,-4.24 0.99,-0.17 v 0 l 5.06,5.33 1.26,-1.43 -0.8,-1.3 1.26,0.11 0.71,1.66 -1.46,1.74 4.25,2.36 1.8,-0.31 -2.26,-0.95 0.41,-0.59 2.59,-0.38 2.04,1.34 0.36,1.42 3.19,2.15 -1.51,1.57 -1.36,-0.61 1.66,2.09 2.34,-0.76 -1.12,-3.36 -0.75,0.44 -2.04,-1.7 0.25,-0.97 3.52,1.08 0.86,2.56 0.99,-2.75 0.38,2.3 1.36,0.74 0.47,-1.34 -0.74,-0.56 1.39,-0.5 1.8,3.26 2.71,2.2 -0.08,2.51 1.69,-2.4 1.64,0.31 -0.94,-3.48 2.83,1.83 -0.37,3.07 -2.51,1.19 -1.44,2.76 -1.69,0.1 0.43,0.97 2.47,-0.52 3.76,-3.59 3.23,-1.37 0.16,1.56 -0.82,-0.67 -2.04,1.1 -0.54,2.71 3.2,-1.12 1.03,1.45 -3.75,3.49 0.76,0.71 6.19,-2.18 -1.91,1.55 0.47,1.2 1.37,-0.9 0.68,2.05 2.38,-0.8 -0.18,1.02 2.18,1.22 2.04,3.93 0.8,3.53 -2.77,2.26 2.02,3.84 8.91,3.63 -0.64,1.41 0.77,1.13 0.65,-1.2 2.86,-0.24 0.12,-1.73 -1.57,-0.19 -3.77,-4.25 -10.14,-14.07 -2.17,-5.04 v 0 l 0.56,-0.29 v 0 l 3.75,7.3 7.99,11.06 3.4,3.7 3.85,2.37 6.79,-2.41 1.32,-1.84 -0.34,-0.98 3.41,-3.9 0.79,0.35 -0.92,0.87 0.75,1.35 3.61,2.41 2.76,-0.95 0.99,-2.83 6.78,-1.56 4.28,1.66 2.2,-0.44 2.61,1.58 1.41,-0.72 z"
     class="land"
     title="Crimea"
     id="UA-43" />
  <path
     d="m 338.02302,116.09257 2,3.28 4.16,1.21 0.19,1.28 -1.76,0.42 0.16,1.53 1.86,2.32 0.7,-1.01 0.6,0.48 1.06,3.55 1.58,1.03 -0.39,2.96 0.69,0.8 -2.06,0.72 2.57,4.08 1.79,-0.47 0.44,1.63 1.34,0.19 0.62,3.58 4.54,2.24 -0.38,2.88 1.98,1.43 -0.21,2.69 -2.48,1.37 -0.81,3.19 2.94,4.4 -6.76,-1.43 -1.08,-1.35 -1.42,4.1 4.88,3.9 3.58,-0.21 1.54,1.33 3.16,-0.78 v 0 l -3.32,4.38 4.52,2.23 -0.01,1.13 -2.6,1.13 0.5,3.24 1.44,0.62 -0.91,0.93 -3.74,0.8 -1.96,-0.97 0.09,1.36 -3.26,0.38 -1.44,-0.83 0.28,1.37 -0.89,0.04 -1.62,-4.89 -1.03,-0.91 -0.7,1.17 -1.4,-0.2 -1.06,-2.43 -2.23,-0.22 -1.76,1.34 -0.51,3.7 -1.07,-0.59 -0.28,1.25 -1.46,0.43 0.35,2.71 -1.56,0.48 -2.42,-1.49 -3.75,2.53 0.02,-1.25 -3.77,-2.17 -1.93,1.16 -1.59,-0.22 -0.51,1.76 -2.21,-0.42 -1.41,0.95 0.12,-1.33 -0.75,4.22 -6.09,5.19 -1.75,0.08 -0.67,-1.55 -1.58,0.46 -1.52,-1.05 -3.45,2.11 -5.58,-2.2 -2.32,1.25 -2.4,-1.17 -0.28,0.66 -3.69,-0.55 -1.96,0.84 -0.95,1.62 -1.13,-0.06 1.16,1.23 -0.43,1.69 -2.24,1.81 1.36,1.15 -0.19,1.92 -5.45,-0.35 -0.54,2.31 -4.48,1.23 -0.84,1.15 -2.29,-1.14 -1.72,2.7 -2.19,-1.5 -2.73,0.46 v 0 l -0.02,-0.91 1.2,-0.3 -0.35,-1.18 0.94,0.03 -0.52,-2.76 -1.94,-1.1 1.56,-2.02 -4.46,-3.38 0.8,-1.67 -0.61,-1.53 -3.35,-1.09 -0.33,-3.14 -1.53,-2.47 0.62,-0.67 -2.7,-1.54 1.47,-3.25 -0.37,-1.15 -1.43,0.6 -1.17,-2.16 0.3,-0.63 0.43,0.69 0.78,-2.17 1.22,0.4 -0.2,-1.29 1.76,-0.52 -1.02,-5.27 1.03,-0.27 v 0 l 0.71,0.16 -0.98,0.99 1.29,1.43 4.03,-0.33 -0.3,-0.76 2.73,-2.84 -0.28,-3.01 2.75,-1.02 1.54,0.44 1.1,2.74 1.33,-3.27 1.85,0.31 -0.4,2.72 5.86,1.02 0.39,0.99 1.42,-4.77 1.95,-1.9 1.54,1.93 3,-2.15 4.18,1.96 6.02,-1.42 0.79,-1.15 -0.36,-1.82 2.53,-0.37 1.13,-2.43 0.53,0.74 -0.15,-0.86 1.79,-1.29 0.65,-3.02 1.39,-0.07 -0.58,-2.5 2.85,-4.59 -0.71,-0.4 0.54,-3.96 -0.85,-0.69 0.67,-3.26 5.65,-2.56 -1.33,-1.93 0.4,-0.7 -2.01,-0.35 0.52,-1.72 4.6,0.5 -0.54,4.19 2.62,2.98 2.95,-3.36 0.76,0.05 0.16,2.69 3.35,0.3 3.43,-6.08 2.44,0.17 0.44,1.13 -0.05,-4.07 2.75,-1.22 -2.53,-0.78 0.12,-2.37 2.1,-1.17 -1.23,-1.74 0.97,0.28 0.98,-2.61 2.12,0.7 z"
     class="land"
     title="Cherkasy"
     id="UA-71" />
  <path
     d="m 374.66302,0.25257242 3.61,1.26999998 2.96,-1.09999998 1.17,1.39999998 v 0 l -1.27,1.55 -0.72,4.1 -1.77,1.57 0.2,4.2599996 3.1,0.71 0.84,2.05 2.07,-0.07 -0.02,2.71 -2.47,0.65 -1.28,-1.3 -2.44,1.04 -0.41,0.89 2.38,2.09 -0.78,2.62 -1.31,-0.39 -4.62,1.77 -0.03,1.07 -1.83,1.16 0.82,2.54 -2.23,2.29 1.88,2.79 -0.24,4.24 2.11,3.36 1.06,0.19 -2.22,0.94 1.22,3.07 -2.09,1.25 0.01,5.57 -1.46,-0.61 0.8,1.22 -0.83,0.13 -1.64,-1.23 0.33,-0.98 -0.96,0.7 0.6,2.68 0.94,-0.02 0.48,1.22 -1.29,1.61 1.11,0.25 -0.17,1.93 -1.24,1.39 0.28,1.22 -2.18,0.9 -0.48,1.43 1.01,0.98 -1.6,2.75 4.28,1.28 0.44,1.7 -1.4,2.39 1.2,0.51 1.34,-1.29 0.74,2.65 2.08,-0.2 0.22,3.59 -1.24,0.39 0.45,2.08 -1.04,3.03 1.19,2.33 1.69,0.76 -3.4,1.16 0.36,2.91 -1.07,0.56 0.18,2.73 -2.46,2.86 0.62,1.089998 v 0 l -1.49,0.98 -0.36,1.55 -1.36,-0.05 -1.92,3.48 -4.28,2 0.02,1.22 -4.03,-0.54 0.05,-0.69 -5.02,1.37 -1.33,-1.31 0.21,-1.56 -3.3,-0.41 -0.93,-1.09 -1.47,0.14 -1.11,2.37 -1.25,0.35 -0.02,1.39 -3.67,0.03 v 0 l 0.38,-1.55 -2.4,0.1 0.48,-2.14 -1.68,0.78 -0.86,-3.05 -1.92,-0.67 0.61,-1.38 1.98,0.1 0.62,-2.489998 v 0 l -3.73,-0.17 v 0 l -1.04,-2.67 -2.15,-1.91 -2.49,1.4 -0.13,2.39 -4.51,0.3 -0.54,1.659998 -3.68,-0.38 -2.82,1.52 -2.36,-1.769998 -1.4,1.769998 -2.82,-3.599998 -2.62,-1.08 0.02,-1.06 1.98,-0.21 -0.92,-1.61 0.61,-2.73 -3.2,-3.05 0.07,-1.27 -5.91,0.94 -2.05,-0.86 -1.32,1.55 -0.7,-0.62 0.11,-0.24 -3.23,-0.62 -0.18,-2.34 0.98,0.23 0.6,-1.13 -0.41,-2.33 -2.73,-1.46 -1.44,-5.16 -1.45,-1.41 -3.36,0.21 0.25,-2.76 -0.8,-1.12 1.09,-0.86 -0.92,-3.08 1.66,-0.66 -1.19,-2.52 1.79,-0.46 -0.63,-1.48 v 0 l 2.53,-1.27 0.3,-1.08 -0.99,-0.44 1.93,-1.37 0.14,-2.17 -1.22,-2.54 -1.11,-0.1 -0.15,-1.2 1.39,-0.86 -1.8,-2.41 0.45,-1.95 -1.17,0.29 -0.63,-1.18 0.86,-0.88 -1.51,-0.96 1.58,-0.49 -1.62,-1.12 0.9,-1.62 -0.61,-0.69 1.82,0.41 -0.22,-2.4 2.03,-0.43 0.85,-2.51 -1.2,-0.43 1.44,-0.33 -0.16,-2.76 1.47,-0.65 1.75,-3.6 1.84,0.23 0.76,-1.27 -0.5,-1.5 2.68,-1.14 0.43,-1.93 1.02,0.55 -0.59,-1.49 1.22,-3.71 1.24,0.64 5.24,-1.34 3.82,3.28 1.45,-0.56 0.92,-2.89 2.07,-0.87 -0.26,-0.67 2.49,-0.44 0.6,1.2 6.9,0.25 1.68,1.05 2.01,-0.95 1.19,0.81 1.71,-0.65 3.08,1.79 -1.45,1.79 1.89,-0.47 4.17,1.04 1.81,-1.98 3.58,-0.99 3.85,-3.2 -1.37,-0.31 0.71,-2.1 -0.78,-1.6999996 0.72,-1.21 1.74,-0.26 -1.43,-3.6 0.43,-1.24 4.06,1.23 2.09,-0.64 5.13,4.18 1.85,-0.99 2.03,0.38 0.72,-1.03 1.54,0.26 0.8,1.55 2.97,-1.48 2.21,-3.02 0.28,1.33 2.21,-2.3 1.16,0.26 0.07,-1.75999998 z"
     class="land"
     title="Chernihiv"
     id="UA-74" />
  <path
     d="m 118.42302,196.86257 2.85,0.56 0.79,1.5 1.67,-2.16 2.37,2.7 -0.15,1.27 1.96,0.53 2.25,-1.76 1.55,0.59 1.01,-1.89 0.52,2.09 -0.74,1.14 1.7,2.37 1.09,-0.76 -1.06,-2.38 0.72,-1.06 1.73,4.68 3.39,-0.59 1.13,1.58 1.74,0.06 1.31,-1.4 1.74,-0.14 v 0 l 1.45,-0.35 2.26,4.38 1.61,0.33 0.9,-0.52 -0.51,-2.29 1.58,1.11 1.92,-0.44 -1.37,-2.37 -1.65,0.25 -0.18,-0.95 1.29,-0.37 2.35,1.5 0.04,-2.86 1.71,2.13 -0.03,-2.52 0.86,-0.74 2.53,3.53 3.75,-2.41 0.32,0.9 2.89,0.69 2.67,-1.29 2.76,0.89 0.64,-0.91 -0.64,-2.02 2.52,1.18 1.77,-1.57 v 0 l 2.69,1.56 0.9,4.68 1.83,1.91 v 0 l -2.08,0.9 -0.91,2.09 -1.94,0.01 -0.7,-1.61 -1.59,-0.01 -1.23,3.62 -3.05,-1.12 -1.86,1 -1.89,-3.08 -2.26,0.6 1.11,2.13 -1.56,0.05 -0.31,1.1 -2.26,-0.3 -1.67,-2.8 -3.3,0.05 -0.84,1 -0.94,-0.56 1.28,2.82 1.93,0.52 -0.25,2.54 -2.47,-0.97 -1.9,-2.13 0.43,1.38 -2.63,2.72 0.01,1.75 -1.15,-0.33 -0.5,1.35 -3.46,-0.01 -1.08,1.3 -3.53,0.52 -1.97,5.12 -2.07,1.55 -0.98,2.89 -10.99,1.26 -2.9,1.54 -4.31,-0.54 -11.3,1.77 -2.77,1.12 -3.89,6.9 -2.090005,0.4 -0.52,1.08 -3.99,-0.08 v 0 l 2.54,-6.45 -2.66,-4.56 -0.18,-4.11 2.75,-3.01 -0.29,-1.46 1.68,0.22 1.940005,-2.62 -0.25,-0.93 1.76,-0.05 -1.01,-2.13 2.57,-1.35 5.13,-6.36 4.55,-1.32 4.91,1.05 -1.02,-12.63 z"
     class="land"
     title="Chernivtsi"
     id="UA-77" />
  <path
     d="m 398.16302,185.09257 4.26,1.91 1.68,1.97 1.75,0.21 0.37,2.09 5.25,1.99 0.28,1.03 1.5,-3.19 -1.39,-0.03 -0.12,-1.81 1.76,-0.15 -0.78,-0.46 0.85,-1.15 -1.56,-2.16 1.73,-4.4 -0.89,-0.86 3.02,-2.83 -0.47,-2.06 5.02,2.02 1.36,-2.91 5.89,-1.56 0.02,-1.53 3.17,-0.88 1.35,0.7 -1.14,0.78 1.1,0.6 1.78,-2.27 2.29,2.25 v 0 l 1.18,-1.29 1.07,1.58 1.28,-1.13 0.67,0.8 1.71,-0.5 1.21,1.76 -1.32,0.83 2.25,-0.17 7.71,7.3 0.79,-0.73 1.87,0.69 2.18,-0.6 0.08,0.88 1.78,-0.12 0.89,1.03 0.5,-0.76 2.15,0.52 0.6,1.31 2.69,-2.43 1.03,0.25 0.84,-1.49 3.51,4.25 -1,1.47 0.9,0.75 -0.67,1 1.85,0.94 -0.35,1.36 h 1.98 l 2.12,1.32 -1.56,0.9 0.77,0.88 -0.63,1.24 4.74,3.35 -1.02,1.97 2.21,1.65 -1.59,2.3 0.87,0.64 0.93,-1.2 1.01,1.07 3.16,-4.14 -0.59,-1.04 1.77,-1.41 3.68,3.13 5.04,-1.29 v 0 l 0.23,1.51 2.05,0.01 0.16,1.41 3.01,1.24 0.17,1.15 -1.86,0.33 0.14,1.43 -0.8,0.22 0.69,3.42 -0.97,0.16 -0.47,3.37 0.3,1.76 3.13,0.16 0.88,5.89 -2.18,0.52 0.77,5.24 -1.43,2.34 -3.58,-0.96 -1.01,-1.67 -2.18,-0.71 -2.49,0.97 0.2,6.13 1.46,-0.17 0.4,2.07 -3.3,0.76 1.42,2.87 v 0 l -4.22,1.2 -4.49,-0.84 0.03,0.98 -1.74,0.25 -0.39,-0.77 -2.34,-0.01 -0.1,-1.36 -4.02,0.59 -0.12,-0.91 h 1.51 l 0.43,-1.91 -0.66,-1.9 -0.82,0.54 -0.38,-1.76 -0.73,0.25 0.65,-0.63 -1.24,-2.21 1.07,-0.41 -0.43,-1.75 -2.6,0.6 -0.33,-2.36 -5.11,1.31 -0.28,-1.59 -2.16,0.17 -1.3,-2.18 -6.16,3.16 -0.13,-0.92 -7.68,-2.53 -6.45,0.66 -3.76,2.1 -2.53,-0.03 0.01,-2.02 -1.99,-0.1 0.67,3.93 -1.2,0.26 0.23,1.78 0.68,1.6 1.24,-0.09 0.36,2.53 -3.85,0.9 0.51,2.55 1.47,-0.68 0.34,1.36 0.94,-0.04 -0.2,4.62 2.16,-0.38 -0.6,4.54 -1.11,0.32 1.67,6.88 -2.89,0.69 -9.18,-2.17 -15.55,4.3 v 0 l -4.79,0.96 -2.3,-2.87 -9.73,1.56 -0.29,-1.43 -1.52,0.51 0.65,-3.49 -1.05,-1.37 -3.42,0.69 0.31,2.14 -5.37,1.02 0.79,1.52 -1.27,0.54 -0.94,-2.96 -2.38,0.48 0.61,-2.23 -4.77,-0.12 v 0 l 0.05,-0.96 -4.48,0.24 1.2,-1.23 -0.81,-5.2 3.34,-0.86 -0.7,-2.15 0.25,-2.51 0.79,-0.23 -0.06,-4.18 -2.53,0.18 -0.03,-3.68 v 0 l 0.57,0.22 0.7,-2.62 2.31,-0.27 -0.12,-1.28 1.3,0.08 0.3,1.12 -0.37,-1.75 2.84,-0.78 0.29,-1.03 -1.67,0.43 -0.12,-0.69 1.55,-0.38 -0.47,-2.31 1.98,0.93 0.63,2.6 0.87,-0.88 -0.81,-1.52 4.69,-1.07 -0.07,-0.86 1.72,-0.32 0.73,-1.83 1.5,-0.43 -1.09,-2 0.07,-2.62 -1.38,0.07 -0.51,-1.29 0.29,-1.73 0.99,-0.28 -0.85,-7.74 1.24,-1.17 3.82,0.07 -0.37,-1.59 1.61,0.63 2.81,-1.58 2.14,-3.62 -1.85,0.31 -2.28,-2.1 -2.18,-0.29 -1.11,-1.32 -0.1,-2.18 2.48,0.2 0.89,-1.22 1.78,1.4 2.54,-0.7 0.22,1.46 1.12,0.13 z"
     class="land"
     title="Dnipropetrovs'k"
     id="UA-12" />
  <path
     d="m 532.80302,167.95257 2.18,2.34 -1.42,0.91 0.54,1.23 4.34,1.18 0.25,-1.24 1.17,0.21 -0.94,4.54 1.6,3.26 -1.56,0.52 0.01,1.04 -0.82,-0.45 -0.79,1.48 3.59,0.92 3.82,-0.31 -0.04,4.74 3.04,0.7 -1.7,3.79 2.14,1.66 -0.71,0.27 0.35,1.47 -1.84,0.95 0.47,6.27 1.43,1.7 -0.8,1.75 0.65,1.12 2.31,1.26 1.73,-0.81 0.52,3.55 1.54,0.65 -1.99,1.25 -0.37,2.69 1.42,0.75 3.04,-0.36 1.23,1.19 0.58,4.27 7.19,2.67 0.6,5.17 6.83,0.47 0.02,2.41 1.77,0.89 -0.62,3.49 v 0 l -8.08,0.37 -0.24,2.4 -1.3,0.05 -0.59,6.52 -3.61,-0.7 0.07,1.49 -1.29,0.01 -0.4,1.25 -5.31,0.04 -0.13,1.26 -3.55,0.1 -0.01,1.96 -1.42,0.02 -0.16,1.58 -0.73,0.06 0.61,7.64 -2.74,3.25 0.07,0.94 3.88,0.12 -0.19,2.07 -3.36,1.59 0.16,4.51 -2.46,3.64 -1,0.17 -2.46,-2.42 -1.09,1.12 -4.64,-1.06 -3.47,1.24 -8.53,0.24 -8.11,10.58 0.66,-2.16 -2.8,-1.94 -5.8,3.3 v 0 l -1.42,-2.25 4.03,-2.55 -1.7,-1.32 1.16,-1.64 -4.73,-1.92 0.9,-0.55 -0.38,-1.91 -4.97,-3.52 3.69,-0.11 -1.24,-5.81 3.79,0.85 2.79,-1.93 -0.45,-1.75 0.98,-0.25 0.86,1.93 1.34,-0.68 1.39,-5.64 -2.16,-0.8 -0.8,1.48 -2.66,-1.9 -1.82,-3.05 -0.69,0.74 -1.91,-1.81 -1.76,1.41 -2.2,-3.8 -2.8,0.76 0.59,-1.33 -1.31,0.21 -0.22,-1.39 2.47,-1.32 -2.63,0.28 -1.42,-5.75 -2.8,0.39 0.65,-2.8 -0.79,-0.33 v 0 l -1.42,-2.87 3.3,-0.76 -0.4,-2.07 -1.46,0.17 -0.21,-6.13 2.5,-0.97 2.18,0.71 1,1.67 3.58,0.96 1.43,-2.33 -0.77,-5.25 2.18,-0.52 -0.88,-5.89 -3.13,-0.16 -0.31,-1.76 0.47,-3.37 0.97,-0.16 -0.69,-3.42 0.8,-0.22 -0.14,-1.43 1.87,-0.33 -0.17,-1.15 -3.01,-1.24 -0.16,-1.41 -2.05,-0.02 -0.22,-1.51 v 0 l -0.83,-3.36 0.71,-0.65 -1.59,-3.54 1.01,-1.54 3.47,1.66 1.14,-1.48 3.79,0.38 2.16,2.26 0.4,-0.82 -1.61,-1.22 0.94,-1.4 1.48,0.21 1.04,-1.9 3.16,1.88 0.04,-3.31 2.57,-2.24 1.99,0.07 -1.07,-2.59 1.62,-1.72 0.99,0.56 0.45,-2.86 3.19,-0.37 0.9,-0.71 -0.37,-1.82 4.73,-1.93 -4.51,-2.38 1.96,-1.98 9.67,1.41 z"
     class="land"
     title="Donets'k"
     id="UA-14" />
  <path
     d="m 48.043015,194.06257 1.01,-2.86 -0.82,-2.07 0.69,-2.17 1.14,-0.53 -1.58,-1.71 0.87,-2.19 -0.7,-1.08 1.98,-2.67 1.51,-0.46 0.71,-3.15 2.29,-1.46 4.86,1.18 2.3,-1.97 1.63,1.17 1.39,-1.6 3.56,1.05 0.25,-0.85 1.98,-0.03 4.27,-2.14 2.55,0.59 0.59,-2.92 -3.46,-0.14 0.52,-2.41 -2.06,-0.2 -0.09,-0.95 0.04,-0.74 2.56,0.25 0.53,-2.22 1.43,-1.28 -1.58,-0.74 -0.61,-1.91 1.36,-0.77 -0.25,-2.53 1.49,-0.63 -0.34,-1.57 1.33,-1.17 1.59,0.86 -0.13,0.92 1.83,-0.55 2.22,1.84 2.85,0.15 v 0 l 1.9,5.71 1.23,-0.07 1.53,2.01 -1.09,1.62 0.62,2.91 2.87,1.43 -2.42,3.73 1.49,1.72 2.71,0.6 0.27,2.43 -2.52,-0.6 -0.4,1.45 2.09,3.13 1.74,-0.91 2.440005,1.53 0.83,-0.81 -0.19,1.64 1.25,1.01 -0.96,1 0.73,2.89 0.99,-0.06 0.69,-2.91 1.51,-0.25 -0.87,4.3 1.26,-1.04 2.71,1.39 -2.84,1.18 0.41,1.71 0.92,0.09 1.14,-1.89 1.34,0.64 -0.31,-2.63 2.86,0.78 -0.07,-1.29 0.86,0.05 0.06,1.84 6.27,4.22 -1.04,1.17 1.44,0.97 -0.78,1.77 v 0 l -1.53,2.19 1.02,12.63 -4.91,-1.05 -4.55,1.32 -5.13,6.36 -2.57,1.35 1.01,2.13 -1.76,0.05 0.25,0.93 -1.940005,2.62 -1.68,-0.22 0.29,1.46 -2.75,3.01 0.18,4.11 2.66,4.56 -2.54,6.45 v 0 l -1.3,0.16 -1.89,-4.81 -4.14,-1.06 -2.64,-5.47 -2.11,-0.93 v 0 l 0.4,-2.64 1.69,-1.46 -4.18,-5.55 1.47,-3.03 -2.05,-1.35 -0.02,-1.87 -4.05,-3.38 -0.9,-1.94 -1.78,-0.37 -1.02,2.27 -2.59,-0.89 -1.33,-2.14 -0.61,-6.37 -2.91,1.65 -1.29,-0.24 -0.97,2.38 -1.64,-0.42 -0.53,-4.78 -1.89,0.38 -1.82,-1.86 -0.2,-2.32 -2.8,-0.15 -2.76,-3.45 z"
     class="land"
     title="Ivano-Frankivs'k"
     id="UA-26" />
  <path
     d="m 519.52302,103.95257 -0.47,3.98 0.67,1.4 3.05,2.6 2.11,-0.17 -0.76,4.89 0.95,2.29 3.82,5.05 1.41,-0.27 4.27,2.43 1.45,3.12 2.62,2.4 -0.37,1.69 v 0 l 2,2.76 -2.38,0.59 -0.37,1.25 1.48,1.45 -1.88,1.67 -0.74,-0.74 -0.8,1.85 0.77,1.17 1.31,-0.25 -0.43,0.7 1.48,2.23 -2.07,0.57 0.46,1.01 -1.79,0.87 0.19,2.11 -1.68,-0.14 -0.5,1.13 1.28,0.67 -2.49,0.87 -0.38,1.4 0.23,2.51 1.1,-0.01 0.64,2.19 -0.46,4.84 2.16,0.47 0.34,0.94 -1.97,0.75 0.41,0.54 -1.38,1.19 v 0 l -0.86,1.9 -9.67,-1.41 -1.96,1.99 4.51,2.38 -4.72,1.92 0.36,1.83 -0.9,0.7 -3.18,0.38 -0.45,2.86 -0.99,-0.56 -1.62,1.72 1.08,2.59 -2,-0.07 -2.57,2.24 -0.04,3.3 -3.15,-1.87 -1.04,1.89 -1.48,-0.21 -0.94,1.41 1.61,1.22 -0.4,0.83 -2.17,-2.27 -3.79,-0.38 -1.14,1.48 -3.46,-1.66 -1.01,1.55 1.59,3.54 -0.71,0.65 0.83,3.36 v 0 l -5.04,1.29 -3.68,-3.13 -1.77,1.41 0.59,1.04 -3.16,4.14 -1.01,-1.07 -0.93,1.2 -0.87,-0.64 1.59,-2.3 -2.21,-1.65 1.02,-1.97 -4.74,-3.35 0.63,-1.24 -0.77,-0.88 1.56,-0.9 -2.12,-1.32 h -1.98 l 0.35,-1.36 -1.85,-0.94 0.67,-1 -0.9,-0.75 1,-1.47 -3.51,-4.25 -0.84,1.49 -1.03,-0.25 -2.69,2.43 -0.6,-1.31 -2.15,-0.52 -0.5,0.76 -0.89,-1.03 -1.78,0.12 -0.08,-0.88 -2.18,0.6 -1.87,-0.69 -0.79,0.73 -7.71,-7.3 -2.25,0.17 1.32,-0.83 -1.21,-1.76 -1.71,0.5 -0.67,-0.8 -1.28,1.13 -1.07,-1.58 -1.18,1.29 v 0 l -1.25,-5.09 1.47,-3.92 2.23,1.19 5.07,-0.04 1.25,1.35 0.14,-2.2 3.2,-4.01 -0.91,-0.38 0.44,-2.23 -1.57,-0.54 0.68,-2.39 4.94,0.95 0.11,-1.54 -1.89,-0.67 -0.81,-1.43 2.74,-0.94 -1.79,-5.23 -2.73,0.41 -3.72,-1.54 0.39,-2.1 -1.51,-0.76 0.25,-4.26 -2.49,-1.46 -2.52,-0.02 -0.49,-1.4 -1.53,0.72 -4.22,-3.46 -0.92,-2.6 3.59,-4.74 -0.99,-1.35 0.24,-2.62 v 0 l 1.04,-0.36 -0.37,-1.35 2.78,1.02 0.91,-2.08 2.7,-1.98 3.65,0.41 0.29,-1.56 2.13,-0.55 -1.1,-0.75 1.12,-1.56 1.72,1.25 -0.06,-1.25 1.53,-0.73 3.38,2.22 -0.24,-1.36 2.58,-0.66 2.14,0.9 0.82,-1.57 -0.61,-0.56 v 0 l 2.6,-0.19 3.2,-4.06 1.23,0.52 0.67,-0.97 5.97,-0.51 3.19,1.05 4.06,4.86 0.56,2.45 2.38,0.23 2.21,-2.16 3.21,2.28 1.99,0.02 -0.8,1.85 2.96,1.61 1.34,-2.51 5.83,-3.44 9.73,-1.13 4.77,-2.38 1.46,-1.97 2.68,0.23 z"
     class="land"
     title="Kharkiv"
     id="UA-63" />
  <path
     d="m 359.89302,328.50257 3.49,-1.44 6.65,2.23 -6.47,-0.03 z m 69.8,-5.16 1.27,8.04 3.21,8.76 v 0 l -0.55,0.29 v 0 l -1.52,-3.62 -1.58,1.88 -1.05,-0.55 0.65,-6 -0.93,-4 -1.26,-0.56 -0.54,2.01 -1.72,-1.99 0.07,-1.55 -1.3,-0.52 3.04,-0.67 0.92,1.63 0.31,-3.13 z m -58.66,-71.16 4.77,0.12 -0.61,2.23 2.39,-0.48 0.94,2.96 1.27,-0.54 -0.8,-1.51 5.37,-1.02 -0.3,-2.14 3.42,-0.69 1.05,1.38 -0.64,3.48 1.51,-0.51 0.29,1.43 9.73,-1.56 2.3,2.88 4.79,-0.96 v 0 l 3.47,2.16 2.2,8.02 0.77,-0.79 2.45,0.15 0.45,-1.79 3.42,-0.67 -1.24,1.15 0.34,1.66 1.24,0.63 0.12,0.81 -1.31,0.24 0.98,7 1.11,-0.1 0.48,4.17 0.76,-0.1 1.09,2.52 3.86,0.52 0.58,4.06 1.73,-0.15 0.41,2.67 -2.04,0.31 0.27,2.12 -0.96,1.56 -3.73,1.17 0.27,1.82 3.81,0.21 0.32,2.81 -1.44,0.41 1.47,3.28 4.53,-0.72 0.03,2.95 1.8,-0.27 3.72,1.45 0.61,8.94 0.97,-0.09 v 0 l -2.25,1.96 -4.7,1 -2.14,1.75 -0.69,2.1 -4.32,-1.11 -1.92,0.52 0.53,3.8 -1.25,3.13 -2.09,2.4 -1.1,-0.53 -1.05,1.88 -0.03,-2.28 -2.08,-1.46 0.53,-0.78 0.37,-0.28 -0.3,-1.61 1.1,-1.95 0.76,1.77 0.42,-1.38 1.41,-0.57 0.82,2.12 0.7,-3.83 -1.55,-1.57 -0.83,0.54 0.56,1.81 -2.05,0.42 -3.29,-2.85 -0.99,0.25 -1.62,-3.22 0.04,3.21 1.32,1.4 -1.49,2.97 -0.11,-2.63 -4.13,-6.53 -1,1.42 0.24,0.23 1.98,3.97 -1.63,1.77 -0.34,1.25 -1.03,-1.29 -1.13,0.76 -0.8,-1.71 -0.66,2 -3.34,-5.04 -1.74,0.13 -0.52,-0.81 -1.38,0.69 -2.12,-1.69 -1.75,0.7 0.54,2.04 -3.43,-2 0.15,0.59 v 0 l -0.98,0.17 0.73,4.23 -0.7,0.25 v 0 l -1.13,-1.16 -1.48,1.96 0.81,2.08 -2.16,0.01 0.65,2.23 -1.93,-0.91 -1.24,0.93 -2.96,-3.99 -0.95,1.74 -0.85,-0.14 0.85,-2.05 -0.79,-0.59 -2.24,0.03 -0.63,1.15 0.84,-5.3 -3.29,4.54 -3.25,-1.57 -0.62,2.3 -8.29,-0.64 -5.58,1.17 -1.9,1.62 -1.73,-0.4 -9.89,-3.09 1.17,-0.48 v -1.8 l -1.53,0.38 -3.49,-2.32 -0.47,-1.29 -3.48,-0.32 -1.05,-1.7 -1.51,-0.33 -0.65,1.36 -3.35,0.23 -0.75,-1.53 1.11,-1.27 5.77,-1.05 3.41,-2.14 -1.62,-3.13 -2.03,0.62 -4.98,-1.94 v 0 l 1.71,-1.85 v 0 l 16.53,2.66 2.74,-1.11 -0.7,-0.53 -2.84,1.12 -1.17,-0.77 0.7,-0.57 -1.05,-0.2 1.24,-0.08 -0.62,-3.31 -1.66,-0.85 -3.66,1.64 -1.2,-2.69 -1.66,-0.11 -2.36,-1.99 v 0 l 3.46,-1.48 -0.95,-2.93 5.48,-1.33 -0.21,-1.72 1.24,-0.63 -0.83,-1.44 4.17,2.65 0.91,-0.09 -0.25,-1.72 3.28,-0.54 0.23,1.22 2.09,-0.27 -0.04,-2.93 1.79,1.33 3.57,-0.26 0.26,1.95 8.51,-1.87 -1.11,-1.27 -2.53,0.17 -0.1,-0.87 4.82,-1.72 -1.7,-2.69 0.68,-0.61 2.43,1.34 1.54,-2.41 -4.59,-2.81 -0.84,-2.32 1.68,-3.18 1.59,-0.33 1.11,0.91 0.96,-2.05 2.16,0.8 0.06,-1.46 1.65,-0.25 -2.57,-2.16 -0.06,-2.06 1.09,-0.49 -0.42,-2.77 -2.99,0.06 0.59,-4.09 0.67,2.81 2.23,-0.34 0.16,-5.89 -1.66,0.62 z"
     class="land"
     title="Kherson"
     id="UA-65" />
  <path
     d="m 138.45302,118.60257 2.28,-0.02 1.26,-2.58 2.43,-1.84 3.67,0.09 -0.42,-0.92 1.16,-1.6 2.54,-3.01 1.57,0.17 3.01,-4.25 -0.05,-1.75 0.2,0.85 1.53,-0.34 -0.8,-0.13 0.13,-1.01 1.98,-1.65 1.01,0.63 1.54,-1.939998 2.72,1.169998 1.25,-1.919998 1.76,0.39 0.09,-1.26 1.47,-0.92 0.51,1.76 2.15,-0.1 v 0 l 2.46,3.769998 1.08,-0.08 -1.66,5.2 2.32,1.4 -0.08,1.97 2.28,0.49 1.19,1.22 -0.97,0.47 4.35,3.33 2.65,-1.64 0.9,4.55 1.35,-1.16 0.58,1.83 -1.64,0.73 0.33,1.57 -0.9,1.49 1.76,0.5 0.43,2.13 -1.33,-0.02 -1.04,1.7 -2.12,-0.33 0.87,3.29 -0.91,2.37 2.67,0.62 -0.13,2.78 1.23,2.21 2.36,-0.26 -0.86,1.68 2.93,2.21 1.51,-1.05 v 0 l -0.8,2.39 -1.59,0.22 1.63,3.78 -1.82,2.47 1.23,1.16 -0.1,1.3 -1.81,0.07 -0.01,1.74 1.57,0.44 -0.94,1.24 v 0 l -0.2,1.21 v 0 l 3.38,0.53 -1.19,3.77 1.52,1.51 -0.1,4.67 1.41,2.57 -1.47,0.79 -1.33,-0.88 -0.76,0.61 -0.49,-0.97 -1.31,2.85 -3.35,-1.4 -1.54,0.56 -0.57,1.82 -1.5,-0.99 0.09,0.95 -1.46,-0.02 0.21,2.66 -2.07,0.09 -1.95,3.12 1.21,1.95 -0.85,3.33 1.2,5.66 -1.31,1.51 0.88,3.55 -1.43,3.42 v 0 l -1.77,1.57 -2.52,-1.18 0.64,2.02 -0.64,0.91 -2.76,-0.89 -2.67,1.29 -2.89,-0.69 -0.32,-0.9 -3.75,2.41 -2.53,-3.53 -0.86,0.74 0.03,2.52 -1.71,-2.13 -0.04,2.86 -2.35,-1.5 -1.29,0.37 0.18,0.95 1.65,-0.25 1.37,2.37 -1.92,0.44 -1.58,-1.11 0.51,2.29 -0.9,0.52 -1.61,-0.33 -2.26,-4.38 -1.45,0.35 v 0 l -2.04,-1.32 -0.77,1.07 -0.79,-1.32 0.74,-0.93 -2.22,-1.82 1.01,-0.36 -1.13,-0.45 0.65,-0.84 -1.27,0.38 0.16,-1.16 -1.8,-0.93 0.72,-2.53 -0.7,-0.81 0.74,-0.06 -1.26,-2.23 0.93,0.37 -0.32,-1.18 1.1,-0.19 -1.89,-2.01 0.68,-2.76 -1.3,-0.45 0.78,-1.82 -1.02,-0.96 1.19,-0.57 -1.16,-0.65 1.25,-0.51 -1.02,-2.44 1.01,-0.91 -0.79,-0.2 -0.07,-4.34 0.72,-0.11 -0.9,-1.81 0.64,-2.44 1.38,0.02 0.56,-2.34 -1.15,-1.92 0.57,-2.21 -1.65,-3.18 -0.09,-2.63 -1.66,-1.59 1.13,-2.02 1.44,-0.08 -0.63,-3.01 2.5,-2.41 -2.81,-2.88 1.81,-1.84 -0.19,-1.52 -2.08,-3.74 0.8,-1.11 -2.31,-1.9 1.05,-0.85 -0.54,-2.9 1.78,-0.9 0.35,-1.25 -1.14,-0.43 1.68,-1.12 -0.87,-2.76 2.46,-0.17 -2.18,-2.73 z"
     class="land"
     title="Khmel'nyts'kyy"
     id="UA-68" />
  <path
     d="m 291.67302,101.32257 0.2,2.83 1.67,1.51 v 0 l 0.19,1.81 -1.35,1.82 -1.93,0.9 -1.55,-1 -1.16,0.5 0.26,6.54 -0.9,1 -2,-1.91 -1.1,-4.72 -2.51,-0.81 -0.84,-2.52 -1.54,-0.4 -0.45,-2.02 -2.58,0.2 -1.61,1.21 0.84,-4.64 v 0 l 1.54,-1.819998 v 0 l 1.23,-0.4 -1.36,-2.23 5.09,0.2 3.03,3.239998 4.45,-0.909998 2.45,-2.23 2.45,1.22 v 1.409998 l -2.2,0.61 v 0 z"
     class="land"
     title="Kyiv City"
     id="UA-30" />
  <path
     d="m 336.96302,108.42257 0.48,-2.14 -1.68,0.78 -0.86,-3.06 -1.93,-0.66 0.61,-1.38 1.98,0.1 0.62,-2.499998 -3.73,-0.16 -1.04,-2.68 -2.15,-1.9 -2.49,1.39 -0.13,2.39 -4.52,0.3 -0.53,1.659998 -3.68,-0.38 -2.82,1.52 -2.37,-1.769998 -1.39,1.779998 -2.82,-3.599998 -2.62,-1.08 0.02,-1.06 1.98,-0.21 -0.92,-1.61 0.61,-2.72 -3.21,-3.06 0.07,-1.27 -5.91,0.94 -2.05,-0.86 -1.32,1.55 -0.7,-0.61 0.1,-0.24 -3.23,-0.62 -0.18,-2.34 0.99,0.24 0.6,-1.13 -0.41,-2.33 -2.73,-1.47 -1.44,-5.16 -1.45,-1.42 -3.36,0.21 0.24,-2.76 -0.8,-1.12 1.09,-0.85 -0.92,-3.08 1.67,-0.66 -1.19,-2.53 1.79,-0.45 -0.61,-1.49 -1.09,-1.01 -1.81,0.41 0.3,-1.8 -2,-0.15 -2.37,-2.39 0.58,-3.75 -5.98,-4.74 -0.42,1.2 -1.19,-0.99 -0.28,1.05 -3.48,-0.89 -1.7,1.8 -2.38,-0.72 -0.59,2.11 -2.49,-0.77 -0.39,0.96 -1.64,-0.86 -0.03,-3.1 -0.95,-0.79 -1.6,1.47 -1.22,-0.11 -1.69,2.27 -1.47,-0.95 -1.29,4.41 -3.05,-0.73 -1.75,1.44 1.2,0.31 0.15,2.99 -1.46,2.71 -2.96,0.48 0.92,4.56 0.8,2.84 1.03,-1.69 5.4,5.28 -1.54,2.39 0.42,2.03 -2.12,-0.4 -0.05,1.94 3.43,3.77 -0.46,2.27 1.66,1.25 -1.83,-0.03 0.54,2.08 2.11,0.17 0.87,2.24 -5.15,5.84 1.99,2.43 -1.48,3.129998 1.52,0.76 0.14,1.51 -0.9,0.67 -0.93,-0.59 -0.23,0.94 1.72,0.73 -1.92,1.2 0.53,0.83 1.02,-0.69 2.51,-0.43 0.91,1.33 0.04,1.15 1.58,0.31 -0.4,2.14 2.29,0.26 -0.17,2.36 -0.78,0.3 1.23,2.33 -1.89,2.54 1.61,1.53 -1.48,2.53 1.59,1.86 -0.66,1.95 1.99,4.57 -2.14,1.68 0.79,0.44 -1.48,2.09 -3.77,2.35 -1.11,-0.81 -0.85,1.68 -1.55,-0.12 0.84,2.25 -0.8,1.79 0.3,0.81 1.59,0.02 0.35,3.29 0.96,0.67 -1.08,2.19 1.39,3.83 1.48,0.76 -1.18,1.7 1.46,1.17 -3.16,3.98 1.31,2.74 2.73,0.87 -0.25,2.18 2.56,1.32 0.8,-1.2 0.76,1.69 0.72,0.16 -0.98,0.99 1.29,1.43 4.02,-0.33 -0.3,-0.75 2.73,-2.84 -0.27,-3.01 2.74,-1.02 1.54,0.44 1.1,2.74 1.32,-3.27 1.85,0.31 -0.39,2.73 5.87,1.01 0.39,0.99 1.42,-4.77 1.95,-1.9 1.54,1.92 3,-2.15 4.17,1.96 6.02,-1.42 0.79,-1.15 -0.36,-1.82 2.54,-0.38 1.13,-2.43 0.53,0.75 -0.16,-0.87 1.79,-1.29 0.65,-3.02 1.39,-0.06 -0.58,-2.5 2.85,-4.59 -0.71,-0.4 0.54,-3.96 -0.85,-0.69 0.67,-3.26 5.65,-2.56 -1.33,-1.93 0.4,-0.7 -2.01,-0.35 0.52,-1.73 4.6,0.51 -0.54,4.18 2.62,2.98 2.95,-3.35 0.76,0.05 0.16,2.69 3.35,0.3 3.43,-6.08 2.45,0.17 0.44,1.13 -0.05,-4.07 2.75,-1.22 -2.54,-0.78 0.13,-2.37 2.1,-1.17 -1.23,-1.74 0.97,0.28 0.98,-2.61 2.12,0.7 2.02,-2.15 -0.91,-1.01 0.32,-2.01 1.42,-0.95 0.12,-2.25 0.38,-1.54 z m -42.77,-8.32 -2.19,0.61 -0.32,0.61 0.19,2.83 1.68,1.51 0.19,1.81 -1.35,1.81 -1.93,0.91 -1.55,-1.01 -1.16,0.5 0.26,6.54 -0.9,1 -2,-1.91 -1.1,-4.73 -2.51,-0.81 -0.84,-2.52 -1.55,-0.4 -0.45,-2.02 -2.58,0.2 -1.61,1.21 0.84,-4.64 1.55,-1.819998 1.22,-0.4 -1.35,-2.23 5.09,0.2 3.03,3.239998 4.45,-0.909998 2.45,-2.23 2.45,1.21 v 1.439998 z"
     class="land"
     title="Kyiv"
     id="UA-32" />
  <path
     d="m 363.05302,167.43257 2.49,0.7 1.47,-0.64 0.69,2.13 3.97,1.03 1.44,2.26 0.22,2.95 2.91,0.26 -0.1,-4.44 1.98,2.3 -1.24,1.38 1.89,1.53 0.35,1.86 -1.07,1.16 0.68,2.75 2.76,1.13 0.19,-1.48 2.15,0.18 0.13,1.92 2.13,-0.77 1.19,0.97 3.13,-3.44 1.66,1.98 3.44,0.14 2.65,1.8 v 0 l -1.48,6.71 -1.12,-0.13 -0.22,-1.46 -2.54,0.7 -1.78,-1.4 -0.89,1.22 -2.48,-0.2 0.1,2.18 1.11,1.32 2.18,0.29 2.28,2.1 1.85,-0.31 -2.14,3.62 -2.81,1.58 -1.61,-0.63 0.37,1.59 -3.82,-0.07 -1.24,1.17 0.85,7.74 -0.99,0.28 -0.29,1.73 0.51,1.29 1.38,-0.07 -0.07,2.62 1.09,2 -1.5,0.43 -0.73,1.83 -1.72,0.32 0.07,0.86 -4.69,1.07 0.81,1.52 -0.87,0.88 -0.63,-2.6 -1.98,-0.93 0.47,2.31 -1.55,0.38 0.12,0.69 1.67,-0.43 -0.29,1.03 -2.84,0.78 0.37,1.75 -0.3,-1.12 -1.3,-0.08 0.12,1.28 -2.31,0.27 -0.7,2.62 -0.57,-0.22 v 0 l -0.42,-3.07 -4.12,0.91 0.74,2.35 -6.77,0.17 0.16,1.78 1.29,-0.26 0.32,0.98 -3.1,0.57 1.08,2.31 -1,2.73 -9.82,1.45 -2.16,-1.73 -2.12,0.53 -0.34,2.72 -3,0.63 -2.88,-3.46 -7.36,1.62 -0.3,-1.64 1.39,-0.3 -0.41,-1.99 0.91,-0.05 -0.23,-2.71 -0.82,0.17 -0.34,-2.46 -3.11,0.94 -0.71,-4.08 1.74,-0.9 -0.46,-3 -2.45,0.45 -0.34,-1.3 -1.49,0.2 -0.3,-0.98 -1.65,0.31 -0.58,1.45 -0.84,-0.37 0.26,1.97 -1.92,0.85 -0.69,-0.68 0.92,-1.19 -0.43,-2.05 -3.12,1.05 -0.4,-1.19 -1.95,0.94 -0.19,-1.12 -2.85,0.93 -0.54,-2.72 -1.35,-0.46 -0.53,-1.97 -3.81,-0.64 -2.43,0.49 0.35,1.78 -1.91,0.13 -1.11,1.28 -1.46,-0.07 -1.36,-1.5 -0.74,1.14 -0.31,-1.17 -2.32,-0.29 -2.39,0.59 -0.96,1.5 -2.22,0.03 -0.98,-1.11 -0.79,0.99 -4.47,-0.98 -2.23,1.59 v 0 l -8.43,-0.5 -1.68,-1.49 -0.52,-2.34 -0.54,0.68 -1.45,-0.78 -1.41,2.4 -1.44,-1.43 -2.18,0.22 v 0 l -1.04,-4.07 2.09,-3 -0.82,-1.08 6.06,-5.19 v 0 l 2.73,-0.46 2.19,1.5 1.72,-2.7 2.29,1.14 0.84,-1.15 4.48,-1.23 0.54,-2.31 5.45,0.35 0.19,-1.92 -1.36,-1.15 2.24,-1.81 0.43,-1.69 -1.16,-1.23 1.13,0.06 0.95,-1.62 1.96,-0.84 3.69,0.55 0.28,-0.66 2.4,1.17 2.32,-1.25 5.58,2.2 3.45,-2.11 1.52,1.05 1.58,-0.46 0.67,1.55 1.75,-0.08 6.09,-5.19 0.75,-4.22 -0.12,1.33 1.41,-0.95 2.21,0.42 0.51,-1.76 1.59,0.22 1.93,-1.16 3.77,2.17 -0.02,1.25 3.75,-2.53 2.42,1.49 1.56,-0.48 -0.35,-2.71 1.46,-0.43 0.28,-1.25 1.07,0.59 0.51,-3.7 1.76,-1.34 2.23,0.22 1.06,2.43 1.4,0.2 0.7,-1.17 1.03,0.91 1.62,4.89 0.89,-0.04 -0.28,-1.37 1.44,0.83 3.26,-0.38 -0.09,-1.36 1.96,0.97 3.74,-0.8 0.91,-0.93 -1.44,-0.62 -0.5,-3.24 2.6,-1.13 0.01,-1.13 -4.52,-2.23 z"
     class="land"
     title="Kirovohrad"
     id="UA-35" />
  <path
     d="m 548.39302,124.31257 0.69,3.49 2.17,1.22 0.55,-0.89 1.23,0.24 0.69,1.59 1.3,0.41 1.93,-1.03 2.13,1.14 1.38,-2.3 0.82,1.01 -0.65,2.44 3.24,2.87 3.79,0.5 1.07,3.81 3.11,-1.43 1.44,0.32 3.85,-3.77 3.55,6.9 3.12,0.9 2.3,-1.09 5.48,1.42 -0.35,1.3 2.02,4.9 3.07,0.94 1.94,2.04 4.03,-0.56 1.09,-1.47 6.12,-0.94 1.05,2.41 -4.24,2.51 -0.33,2.93 1.59,2.84 3.75,3.27 -0.49,2.77 1.26,2.52 -2.61,0.27 -2.04,2.71 -1.54,0.41 -3.12,6.34 -4.4,-0.24 -1.3,1.05 -3.28,-0.03 -0.26,2.12 2.91,0.64 1.28,2.44 -0.5,0.75 1.83,2.04 0.6,-0.77 2.53,0.21 2.44,1.42 1.42,-2.52 1.45,2.41 -3.39,3.98 -5.99,-2.47 -1.1,3.86 -1.02,0.04 -1.12,2.27 0.58,1.85 -2.05,3.79 0.93,1.18 3.52,-0.34 1.92,1.19 0.58,3.04 -0.65,1.89 1.69,1.25 0.3,2.86 0.56,0.8 0.61,-0.58 0.17,1.82 -3.24,0.9 -0.27,1.21 2,0.47 0.57,1.5 2.33,-2.32 1.16,3.2 -0.41,1.49 -2.26,-0.2 -0.19,2.4 -0.92,0.12 -1.43,4.98 -1.05,0.61 1.62,1.39 -3.66,0.06 1.45,2.93 -0.87,5.44 -1.05,0.23 -0.88,2.13 -3.85,-0.6 -2.63,0.67 -2.34,-1.82 -2.12,1.54 -0.95,-2.05 -4.9,0.2 -3.21,1.28 -2.06,-0.49 -0.37,-0.95 v 0 l 0.62,-3.48 -1.77,-0.89 -0.01,-2.41 -6.83,-0.47 -0.6,-5.17 -7.19,-2.67 -0.58,-4.27 -1.23,-1.18 -3.04,0.36 -1.42,-0.75 0.37,-2.7 1.99,-1.25 -1.54,-0.64 -0.52,-3.55 -1.72,0.81 -2.31,-1.26 -0.66,-1.12 0.81,-1.76 -1.43,-1.69 -0.47,-6.27 1.85,-0.95 -0.35,-1.47 0.71,-0.27 -2.14,-1.67 1.7,-3.78 -3.04,-0.71 0.04,-4.74 -3.82,0.31 -3.59,-0.92 0.79,-1.48 0.82,0.45 -0.01,-1.04 1.56,-0.52 -1.6,-3.26 0.94,-4.54 -1.17,-0.21 -0.25,1.24 -4.33,-1.18 -0.54,-1.22 1.43,-0.91 -2.18,-2.34 v 0 l 1.38,-1.19 -0.41,-0.54 1.97,-0.75 -0.34,-0.94 -2.16,-0.47 0.46,-4.84 -0.64,-2.19 -1.1,0.01 -0.23,-2.51 0.38,-1.4 2.49,-0.87 -1.28,-0.67 0.5,-1.13 1.68,0.14 -0.19,-2.11 1.79,-0.87 -0.46,-1.01 2.07,-0.57 -1.48,-2.23 0.43,-0.7 -1.31,0.25 -0.77,-1.17 0.8,-1.85 0.74,0.74 1.88,-1.67 -1.48,-1.45 0.37,-1.25 2.38,-0.59 -2,-2.76 v 0 l 3.07,-2.13 0.11,1.05 3.07,-3.01 -1.31,-5.33 3.13,0.41 1.43,-0.82 z"
     class="land"
     title="Luhans'k"
     id="UA-09" />
  <path
     d="m 66.283015,93.112572 1.75,-0.11 3.55,4.34 2.37,0.43 0.47,-1.21 1.76,-0.54 0.88,2.51 1.4,0.98 2.68,-0.59 0.87,3.119998 1.48,-0.17 -0.06,4.49 1.96,0.17 2.29,1.74 -0.28,1.71 5.28,-0.78 2.32,0.77 0.19,-2.29 3.72,2.47 0.2,2.09 1.860005,0.76 v 0 l 3.17,0.4 -1.3,3.26 1.62,2 -0.65,2.65 5.14,6.58 v 0 l 1.73,1.03 0.82,2.3 -1.29,0.43 -0.48,3.48 -2.48,0.65 -0.36,1.38 -6.950005,0.04 -0.24,2.94 1.390005,1.43 -1.670005,1.71 -1.57,-1.34 -1.12,4.96 -1.68,1.6 -7.51,2.02 0.21,3.88 v 0 l -2.85,-0.15 -2.22,-1.84 -1.83,0.55 0.13,-0.92 -1.59,-0.86 -1.33,1.17 0.34,1.57 -1.49,0.63 0.25,2.53 -1.36,0.77 0.61,1.91 1.58,0.74 -1.43,1.28 -0.53,2.22 -2.56,-0.25 -0.04,0.74 0.09,0.95 2.06,0.2 -0.52,2.41 3.46,0.14 -0.59,2.92 -2.55,-0.59 -4.27,2.14 -1.98,0.03 -0.25,0.85 -3.56,-1.05 -1.39,1.6 -1.63,-1.17 -2.3,1.97 -4.86,-1.18 -2.29,1.46 -0.71,3.15 -1.51,0.46 -1.98,2.67 0.7,1.08 -0.87,2.19 1.58,1.71 -1.14,0.53 -0.69,2.17 0.82,2.07 -1.01,2.86 v 0 l -4.26,-0.07 -2.06,-2.09 -1.24,0.81 -1.36,-1.1 -2.83,0.73 -1.72,-3.69 -1.79,-1.58 -3.7,1.5 -0.77,-2.22 -2.43,-1.55 -0.7,-1.68 1.52,-1.48 -0.55,-1.65 1.21,-0.84 -1.92,-1.08 v 0 l -0.54,-1.43 0.83,-1.54 -2.03,-0.79 -1.36,-2.37 -1.7,-0.05 0.56,-1.23 -1.24,0.93 -0.39,-0.54 1.33,-2.08 -1.08,-0.79 0.84,-0.88 0.22,-5.9 -1.65,-6.84 -1.93,-1.89 21.59,-29.96 13.72,-12.02 1.37,-2.96 9.23,-1.3 2.93,-6.919998 z"
     class="land"
     title="L'viv"
     id="UA-46" />
  <path
     d="m 319.81302,303.77257 5.97,-0.46 3.43,1.49 v 0 l -1.71,1.85 v 0 l -2.81,-0.21 -0.67,2.23 z m -43.18,-80.08 2.23,-1.58 4.47,0.97 0.79,-0.99 0.97,1.11 2.22,-0.03 0.96,-1.5 2.39,-0.59 2.33,0.29 0.31,1.17 0.74,-1.14 1.35,1.51 1.47,0.07 1.11,-1.28 1.91,-0.13 -0.35,-1.78 2.43,-0.49 3.81,0.64 0.53,1.96 1.34,0.46 0.54,2.72 2.85,-0.93 0.18,1.12 1.95,-0.94 0.4,1.19 3.12,-1.05 0.43,2.05 -0.91,1.19 0.69,0.69 1.92,-0.85 -0.26,-1.97 0.84,0.37 0.58,-1.45 1.65,-0.31 0.3,0.98 1.48,-0.2 0.35,1.3 2.45,-0.44 0.45,3 -1.74,0.9 0.71,4.09 3.11,-0.94 0.34,2.46 0.82,-0.17 0.23,2.71 -0.91,0.05 0.41,1.99 -1.38,0.31 0.29,1.64 7.37,-1.62 2.87,3.47 3.01,-0.63 0.33,-2.73 2.12,-0.53 2.16,1.73 9.82,-1.45 1,-2.74 -1.08,-2.31 3.1,-0.57 -0.33,-0.98 -1.29,0.26 -0.15,-1.78 6.77,-0.17 -0.74,-2.36 4.11,-0.91 0.42,3.07 v 0 l 0.03,3.68 2.53,-0.18 0.06,4.18 -0.79,0.23 -0.25,2.52 0.7,2.15 -3.33,0.86 0.81,5.2 -1.2,1.24 4.48,-0.25 -0.05,0.97 v 0 l 0.05,2.68 1.66,-0.62 -0.16,5.89 -2.23,0.34 -0.67,-2.81 -0.59,4.09 2.99,-0.06 0.42,2.77 -1.09,0.49 0.06,2.06 2.57,2.16 -1.65,0.25 -0.06,1.46 -2.16,-0.8 -0.96,2.05 -1.11,-0.91 -1.59,0.33 -1.68,3.18 0.84,2.32 4.59,2.81 -1.54,2.41 -2.43,-1.34 -0.68,0.61 1.7,2.69 -4.82,1.72 0.1,0.87 2.53,-0.17 1.11,1.27 -8.51,1.87 -0.26,-1.95 -3.57,0.26 -1.79,-1.33 0.04,2.93 -2.09,0.27 -0.23,-1.22 -3.28,0.54 0.25,1.72 -0.91,0.09 -4.17,-2.65 0.83,1.44 -1.24,0.63 0.21,1.72 -5.48,1.33 0.95,2.93 -3.46,1.48 v 0 l -2.6,-0.21 -0.77,1.25 -2.96,1.2 -6.17,-1.82 -2.11,2.27 -2.19,-1.27 -4.02,0.15 -0.56,1.1 -5.85,-1.32 v 0 l 0.65,-1.62 -1.68,-3.93 0.96,-1.41 -0.69,-3.16 -3.95,-3.3 -0.75,-3.01 2.41,-1.13 5.26,-0.38 -0.49,-1.52 2.08,-0.09 0.37,-2.94 -1.13,-4.38 -5.33,0.77 -0.03,-1.66 1.61,0.37 0.5,-4.19 -5.17,1.33 -1.08,-1.4 0.31,-1.07 -3.02,0.61 -1.24,-2.79 1.24,-0.63 -0.9,-1.06 0.13,-2.92 -1.24,0.2 0.77,-6.05 -3.32,-0.26 -0.85,-1.09 1.06,-0.7 0.33,-3.26 -2.71,0.53 0.37,1.47 -1.51,0.41 -0.39,-1.65 -6.42,0.8 -0.26,-1.16 -1.5,0.27 -1.08,-5.93 1.18,-0.4 0.39,-1.95 -0.46,-1.04 -3.12,0.42 -0.78,-5.83 -2.06,-1.86 -0.62,-2.4 1.02,-0.53 -1.63,-2.16 3.59,-1.97 1.34,0.17 -1.43,-0.68 z"
     class="land"
     title="Mykolayiv"
     id="UA-48" />
  <path
     d="m 258.98302,220.45257 2.18,-0.22 1.44,1.43 1.41,-2.4 1.45,0.78 0.54,-0.68 0.53,2.34 1.67,1.49 8.44,0.5 v 0 l 0.35,1.53 1.43,0.68 -1.34,-0.17 -3.59,1.97 1.63,2.16 -1.02,0.53 0.62,2.4 2.06,1.86 0.78,5.83 3.12,-0.42 0.46,1.04 -0.39,1.95 -1.18,0.4 1.08,5.93 1.5,-0.27 0.26,1.16 6.42,-0.8 0.39,1.65 1.51,-0.41 -0.37,-1.47 2.71,-0.53 -0.33,3.26 -1.06,0.7 0.85,1.09 3.32,0.26 -0.77,6.05 1.24,-0.2 -0.13,2.92 0.9,1.06 -1.24,0.63 1.24,2.79 3.02,-0.61 -0.31,1.07 1.08,1.4 5.17,-1.33 -0.5,4.19 -1.61,-0.37 0.03,1.66 5.33,-0.77 1.13,4.38 -0.37,2.94 -2.08,0.09 0.49,1.52 -5.26,0.38 -2.41,1.13 0.75,3.01 3.95,3.3 0.69,3.16 -0.96,1.41 1.68,3.93 -0.65,1.62 v 0 l -14.44,4.04 -0.77,1.74 1.48,3.24 -0.75,3.3 -2.34,2.51 -6.82,11.97 -8.89,10.49 -19.77,16.84 -0.96,1.64 1.39,1.36 0.52,-1.28 0.53,1.13 2.98,-0.39 -0.79,11.29 -0.95,0.78 -1.31,-0.09 -0.27,-4.6 -2.35,-3.65 -5.79,-2.79 -6.34,0.5 -9.27,4.92 -0.84,2.46 -4.88,-2.64 0.1,1.69 -1.65,0.82 1.37,1.93 -2.49,0.84 -5.26,-1.15 -7.34,-3.54 -2.12,-3.6 -0.09,-2.34 -2.27,-0.94 1.1,-1.92 2.09,-1.93 4.05,0.78 0.17,2.08 2.76,-0.68 -0.77,-3.39 1.91,-0.45 -0.97,-4.12 -1.23,-0.02 1.13,-2.42 0.91,-0.93 1.69,0.23 -0.2,-1.97 4.17,-0.46 -0.31,-1.73 2.86,-0.82 -0.92,-4.45 0.59,-2.23 6.93,-1.56 0.88,-2.17 -1.88,-2.37 3.85,-4.8 -3.79,-3.14 1.47,-3.51 -2.18,-6.17 3.22,-0.24 -1.26,-1.24 5.85,-1.31 0.06,-1.41 2.43,-0.72 0.67,3.59 -1.19,1.06 0.84,2.29 -1.3,1.57 1.13,0.39 0.85,-1.4 1.99,-0.43 -0.44,-2.51 1.28,-1.88 1.66,3.83 -0.3,-1.06 2.17,-2.35 1.74,1.75 -0.77,0.96 2.75,1.11 0.54,2.72 0.9,0.32 2.36,-0.34 -0.42,-3.58 2.45,0.07 0.21,-1.87 2.8,3.65 -0.48,0.57 2.6,1.58 -0.05,-0.99 1.76,-1.4 1.65,0.91 2.53,-0.81 1.08,0.89 2.33,-1.55 -0.16,-0.81 -0.76,0.91 -1.29,-1.44 -0.61,0.8 -0.45,-0.92 -1.38,0.02 -0.99,-0.88 0.96,-0.45 -1.11,-0.48 -0.08,-1.49 -1.68,0.73 -2.11,-2.54 2.5,-0.62 0.83,-9.5 -1.28,-2.64 1.4,-0.53 -0.33,-0.79 -2.11,0.61 -0.73,-3.21 -4.43,1.25 -1.07,-3.45 -2.44,0.44 -0.32,-1.62 -2.23,0.63 -0.52,-0.82 1.32,-0.25 0.19,-3.7 0.84,-0.36 -0.5,-2.67 -2.22,0.19 -0.52,1.06 -1.21,-2.42 2.89,-0.72 -0.99,-5.64 1.59,-0.41 -0.88,-5.62 -2.92,0.79 -0.12,2.4 -1.81,0.84 -1.07,-0.56 -0.29,-3.95 -1.77,0.49 -0.67,-3.83 -2.38,1.62 -0.17,-2.25 -1.75,1.8 0.05,-2.18 -1.13,0.46 0.99,-0.84 0.04,-1.92 -1.27,0.25 -1.26,-2.32 2.34,-0.87 1.66,-3.45 -0.88,0.04 0.82,-2.14 -0.83,-1.85 2.3,-4.15 -1.79,0.35 -0.69,-1.54 2.6,-3.2 -2.55,0.29 -0.91,-5.42 -2.8,0.55 0.21,1.08 -0.67,-0.47 -0.48,1.37 -3.37,-1.88 -1.45,1.02 -2.85,-3.79 0.32,-2.37 v 0 l 0.69,0.59 2.03,-1.26 0.61,-3.12 2.24,0.36 0.42,1.64 0.51,-0.33 1.01,-3.57 2.94,2.23 -0.49,0.47 3.7,-0.38 0.31,0.88 -1.93,0.58 0.52,0.78 1.35,-0.43 0.79,1.15 3.06,-0.07 0.74,-1.22 2.52,-0.45 1.12,1.07 2.33,0.22 1.09,-1.73 2.12,1.21 -0.27,-4.34 z"
     class="land"
     title="Odessa"
     id="UA-51" />
  <path
     d="m 370.24302,100.64257 1.67,0.77 1.87,-0.96 1.61,1.04 1.92,-2.589998 1.42,1.689998 1.84,0.04 0.1,1.19 1.19,-0.05 0.74,1.22 0.98,-0.85 0.69,0.78 0.59,-1.04 0.8,0.89 1.62,-0.78 5.64,1.94 3.59,-1.71 -1.13,-1.32 2.11,-0.9 1.44,0.9 1.29,-1.659998 2.42,2.549998 1.27,-0.87 1.36,0.54 -0.14,1.26 0.7,-1.49 3.38,-1.319998 0.97,0.819998 0.37,4.46 4.32,3.57 0.84,3.03 3.35,1.39 0.25,1.98 1.83,1.03 -1.67,2.43 0.8,2.5 5.23,1.18 0.01,-1.96 1.11,-0.68 0.29,0.84 3.58,-1.04 3.15,0.63 v 0 l -0.24,2.62 0.99,1.35 -3.59,4.74 0.92,2.6 4.22,3.46 1.53,-0.72 0.49,1.4 2.52,0.02 2.49,1.46 -0.25,4.26 1.51,0.76 -0.39,2.1 3.72,1.54 2.73,-0.41 1.79,5.23 -2.74,0.94 0.81,1.43 1.89,0.67 -0.11,1.54 -4.94,-0.95 -0.68,2.39 1.57,0.54 -0.44,2.23 0.91,0.38 -3.2,4.01 -0.14,2.2 -1.25,-1.35 -5.07,0.04 -2.23,-1.19 -1.47,3.92 1.25,5.09 v 0 l -2.29,-2.25 -1.78,2.27 -1.1,-0.6 1.14,-0.78 -1.35,-0.7 -3.17,0.88 -0.02,1.53 -5.89,1.56 -1.36,2.91 -5.02,-2.02 0.47,2.06 -3.02,2.83 0.89,0.86 -1.73,4.4 1.56,2.16 -0.85,1.15 0.78,0.46 -1.76,0.15 0.12,1.81 1.39,0.03 -1.5,3.19 -0.28,-1.03 -5.25,-1.99 -0.37,-2.09 -1.75,-0.21 -1.68,-1.97 -4.26,-1.91 v 0 l -2.65,-1.8 -3.44,-0.14 -1.66,-1.98 -3.13,3.44 -1.19,-0.97 -2.13,0.77 -0.13,-1.92 -2.15,-0.18 -0.19,1.48 -2.76,-1.13 -0.68,-2.75 1.07,-1.16 -0.35,-1.86 -1.89,-1.53 1.24,-1.38 -1.98,-2.3 0.1,4.44 -2.91,-0.26 -0.22,-2.95 -1.44,-2.26 -3.97,-1.03 -0.69,-2.13 -1.47,0.64 -2.49,-0.7 v 0 l -3.16,0.78 -1.54,-1.33 -3.58,0.21 -4.88,-3.9 1.42,-4.1 1.08,1.35 6.76,1.43 -2.94,-4.4 0.81,-3.19 2.48,-1.37 0.21,-2.69 -1.98,-1.43 0.38,-2.88 -4.54,-2.24 -0.62,-3.58 -1.34,-0.19 -0.44,-1.63 -1.79,0.47 -2.57,-4.08 2.06,-0.72 -0.69,-0.8 0.39,-2.96 -1.58,-1.03 -1.06,-3.55 -0.6,-0.48 -0.7,1.01 -1.86,-2.32 -0.16,-1.53 1.76,-0.42 -0.19,-1.28 -4.16,-1.21 -2,-3.28 v 0 l -0.9,-1.02 0.32,-2 1.42,-0.95 0.12,-2.25 v 0 l 3.67,-0.03 0.02,-1.39 1.25,-0.35 1.11,-2.37 1.47,-0.14 0.93,1.09 3.3,0.41 -0.21,1.56 1.33,1.31 5.02,-1.37 -0.05,0.69 4.03,0.54 -0.02,-1.22 4.28,-2 1.92,-3.48 1.36,0.05 0.36,-1.55 z"
     class="land"
     title="Poltava"
     id="UA-53" />
  <path
     d="m 125.21302,25.002572 3.54,0.52 2.53,-0.98 6.11,3.84 6.91,-0.71 0.1,2.21 2.52,1.95 2.41,0.09 1.68,-1.71 3.33,0.22 2.02,1.19 0.1,1.43 1.39,1.1 1.8,-0.49 3.38,1.67 1.56,-1.81 7.08,-0.28 0.23,5.95 2.2,0.54 -1,2.79 3.96,-0.78 2.2,0.68 0.89,-0.88 1.74,1.83 0.47,-2.66 3.5,1.7 3.43,0.05 -0.11,2.16 -1.89,2.58 v 0 l 0.21,1.01 -3.06,1.09 0.05,2.64 1.12,1.49 -1.05,0.01 -1.82,-1.68 0.15,-1.07 -0.95,0.03 -0.45,4.08 0.91,0.43 0.02,1.41 -0.89,1.34 -1.82,0.38 1.14,3.93 -3.36,4.4 -0.3,3.16 -1.44,0.98 0.17,1.93 -3.57,0.67 0.09,1.19 -0.91,0.43 1.33,2.95 -0.68,1.45 1.3,1.15 -0.72,5.26 1.39,4.11 -1.06,2.49 -1.42,0.7 -0.41,2.02 1.33,0.99 0.05,2 -1.2,0.25 v 0 l -2.15,0.1 -0.51,-1.76 -1.47,0.92 -0.09,1.26 -1.76,-0.39 -1.25,1.919998 -2.72,-1.169998 -1.54,1.939998 -1.01,-0.63 -1.98,1.65 -0.13,1.01 0.8,0.13 -1.53,0.34 -0.2,-0.85 0.05,1.75 -3.01,4.25 -1.57,-0.17 -2.54,3.01 -1.16,1.6 0.42,0.92 -3.67,-0.09 -2.43,1.84 -1.26,2.58 -2.28,0.02 v 0 l -1.37,-0.93 1.42,-3.59 -1.99,1.96 -3.42,-1.44 -1.73,1.38 -2.72,-1.41 -2.48,3.5 -4.37,0.21 -3.37,1.85 -1.75,-1.18 -0.74,1.32 -2.68,-0.87 -0.89,2.01 1.32,1.32 -1.22,0.4 -0.74,2.19 -2.26,0.38 -0.51,2.19 v 0 l -5.14,-6.58 0.65,-2.65 -1.62,-2 1.3,-3.26 -3.17,-0.4 v 0 l -0.08,-1.25 1.91,-1.03 -0.78,-2.07 0.82,-0.52 1.01,0.88 0.42,-0.92 -1.31,-0.84 -0.46,-1.83 -0.69,0.19 0.42,-1.34 -2.14,-1.23 2.17,0.34 0.32,-1.9 -1.19,-2.429998 5.83,0.76 0.94,-1.52 -0.27,-0.93 -0.72,0.32 -0.34,-2.87 3.92,0.98 -1.59,-1.64 1.29,-1.25 -0.32,-1.11 2.79,1.39 4.54,-1.88 -0.12,-1.02 3.21,-0.55 0.61,2.85 2.21,-0.26 2.04,2.84 2.51,-11.09 3.79,0.6 0.59,-1.17 -1.58,-1.39 0.38,-3.71 -1.33,-1.07 3.94,-0.72 0.84,-1.83 -0.58,-2.57 -2.38,-1.59 -2.67,-0.19 -0.19,-1.79 4.02,-1.27 0.34,-2.12 -2.1,-2.32 -1.85,-0.42 -0.25,-2.16 -3.73,-3.32 0.12,-2.8 -1.76,0.69 -0.65,-1.41 -1.1,0.01 -0.06,1.11 -0.91,0.18 -1.96,-2.65 0.01,-3.04 -1.22,-1.3 -1.74,0.19 1.37,-1.14 -0.93,-0.91 1.21,-2.39 -2.4,-2.57 1.52,0.35 0.97,-0.9 2.1,-4.19 0.56,-1.97 -1.74,-2.6 0.23,-2.39 2.24,-2.69 -2.51,-0.36 -1.36,-1.3 v 0 l 6.41,0.15 -0.02,-1.53 1.48,0.39 z"
     class="land"
     title="Rivne"
     id="UA-56" />
  <path
     d="m 396.26302,0.94257242 0.13,2.26999998 2.67,0.87 0.69,3.14 2,1 0.36,1.33 1.43,0.2 0.21,1.8999996 1.92,1.39 -0.58,2.72 -1.23,1.13 1.24,1.62 -0.02,1.88 1.35,0.44 0.19,1.72 1.52,-0.05 1.09,2.68 1.31,0.52 -0.35,1.62 1.7,-0.39 3.94,3.35 -0.25,2.03 1.1,2.45 -0.63,1.16 -3.83,0.14 -7.65,2.9 2.82,1.24 0.54,2.53 1.03,-0.14 0.14,1.32 0.66,-0.52 0.75,2.82 1.7,0.8 -3.02,5.55 4,3.31 -1.89,1.11 -1.71,3.82 2.69,1.46 2.54,-1.87 6.59,2.1 0.76,-1.08 2.01,0.38 0.28,2.71 1.62,1.27 2.37,-0.64 1.44,0.8 1.02,-1.55 2.56,-0.32 1.41,-1.59 2.09,1.57 1.07,-1.43 2.62,0.44 -0.82,3.23 1.59,2.13 0.01,1.89 -0.84,0.31 1.36,1.62 2.79,-0.27 1.16,-1.1 3.36,1.55 0.12,1.24 -1.24,0.99 -1.75,-0.42 1.1,2.08 -0.8,1.75 2.43,1.56 -0.59,2.36 1.22,1.34 -0.14,2.42 2.5,1.27 -1.14,2.68 1.35,2.71 -0.26,1.15 -0.84,-0.56 -2.17,0.76 0.92,2.61 -1.08,1.24 2.84,4.799998 3.66,2.02 0.65,4.39 2,0.77 v 0 l 0.61,0.56 -0.82,1.57 -2.14,-0.9 -2.58,0.66 0.24,1.36 -3.38,-2.22 -1.53,0.73 0.06,1.25 -1.72,-1.25 -1.12,1.56 1.1,0.75 -2.13,0.55 -0.29,1.56 -3.65,-0.41 -2.7,1.98 -0.91,2.08 -2.78,-1.02 0.37,1.35 -1.04,0.36 v 0 l -3.15,-0.63 -3.58,1.04 -0.29,-0.84 -1.11,0.68 -0.01,1.96 -5.23,-1.18 -0.8,-2.5 1.67,-2.43 -1.83,-1.03 -0.25,-1.98 -3.35,-1.39 -0.84,-3.03 -4.32,-3.57 -0.37,-4.46 -0.97,-0.819998 -3.38,1.319998 -0.7,1.49 0.14,-1.26 -1.36,-0.54 -1.27,0.87 -2.42,-2.549998 -1.29,1.659998 -1.44,-0.9 -2.11,0.9 1.13,1.32 -3.59,1.71 -5.64,-1.94 -1.62,0.78 -0.8,-0.89 -0.59,1.04 -0.69,-0.78 -0.98,0.85 -0.74,-1.22 -1.19,0.05 -0.1,-1.19 -1.84,-0.04 -1.42,-1.689998 -1.92,2.589998 -1.61,-1.04 -1.87,0.96 -1.67,-0.77 v 0 l -0.62,-1.089998 2.46,-2.86 -0.18,-2.73 1.07,-0.56 -0.36,-2.91 3.4,-1.16 -1.69,-0.76 -1.19,-2.33 1.04,-3.03 -0.45,-2.08 1.24,-0.39 -0.22,-3.59 -2.08,0.2 -0.74,-2.65 -1.34,1.29 -1.2,-0.51 1.4,-2.39 -0.44,-1.7 -4.28,-1.28 1.6,-2.75 -1.01,-0.98 0.48,-1.43 2.18,-0.9 -0.28,-1.22 1.24,-1.39 0.17,-1.93 -1.11,-0.25 1.29,-1.61 -0.48,-1.22 -0.94,0.02 -0.6,-2.68 0.96,-0.7 -0.33,0.98 1.64,1.23 0.83,-0.13 -0.8,-1.22 1.46,0.61 -0.01,-5.57 2.09,-1.25 -1.22,-3.07 2.22,-0.94 -1.06,-0.19 -2.11,-3.36 0.24,-4.24 -1.88,-2.79 2.23,-2.29 -0.82,-2.54 1.83,-1.16 0.03,-1.07 4.62,-1.77 1.31,0.39 0.78,-2.62 -2.38,-2.09 0.41,-0.89 2.44,-1.04 1.28,1.3 2.47,-0.65 0.02,-2.71 -2.07,0.07 -0.84,-2.05 -3.1,-0.71 -0.2,-4.2599996 1.77,-1.57 0.72,-4.1 1.27,-1.55 v 0 l 0.65,0.2 0.36,-1.40999998 1.92,0.56999998 -1.15,2.4 2.61,0.67 -0.41,-1.2 1.23,0.64 3.42,-2.54 z"
     class="land"
     title="Sumy"
     id="UA-59" />
  <path
     d="m 108.95302,127.89257 0.51,-2.19 2.26,-0.38 0.74,-2.19 1.22,-0.4 -1.32,-1.32 0.89,-2.01 2.68,0.87 0.74,-1.32 1.75,1.18 3.37,-1.85 4.37,-0.21 2.48,-3.5 2.72,1.41 1.73,-1.38 3.42,1.44 1.99,-1.96 -1.42,3.59 1.37,0.93 v 0 l -0.38,1.43 2.18,2.73 -2.46,0.17 0.87,2.76 -1.68,1.12 1.14,0.43 -0.35,1.25 -1.78,0.9 0.54,2.9 -1.05,0.85 2.31,1.9 -0.8,1.11 2.08,3.74 0.19,1.52 -1.81,1.84 2.81,2.88 -2.5,2.41 0.63,3.01 -1.44,0.08 -1.13,2.02 1.66,1.59 0.09,2.63 1.65,3.18 -0.57,2.21 1.15,1.92 -0.56,2.34 -1.38,-0.02 -0.64,2.44 0.9,1.81 -0.72,0.11 0.07,4.34 0.79,0.2 -1.01,0.91 1.02,2.44 -1.25,0.51 1.16,0.65 -1.19,0.57 1.02,0.96 -0.78,1.82 1.3,0.45 -0.68,2.76 1.89,2.01 -1.1,0.19 0.32,1.18 -0.93,-0.37 1.26,2.23 -0.74,0.06 0.7,0.81 -0.72,2.53 1.8,0.93 -0.16,1.16 1.27,-0.38 -0.65,0.84 1.13,0.45 -1.01,0.36 2.22,1.82 -0.74,0.93 0.79,1.32 0.77,-1.07 2.04,1.32 v 0 l -1.74,0.14 -1.31,1.4 -1.74,-0.06 -1.13,-1.58 -3.39,0.59 -1.73,-4.68 -0.72,1.06 1.06,2.38 -1.09,0.76 -1.7,-2.37 0.74,-1.14 -0.52,-2.09 -1.01,1.89 -1.55,-0.59 -2.25,1.76 -1.96,-0.53 0.15,-1.27 -2.37,-2.7 -1.67,2.16 -0.79,-1.5 -2.85,-0.56 v 0 l 0.78,-1.77 -1.44,-0.97 1.04,-1.17 -6.27,-4.22 -0.06,-1.84 -0.86,-0.05 0.07,1.29 -2.86,-0.78 0.31,2.63 -1.34,-0.64 -1.14,1.89 -0.92,-0.09 -0.41,-1.71 2.84,-1.18 -2.71,-1.39 -1.26,1.04 0.87,-4.3 -1.51,0.25 -0.69,2.91 -0.99,0.06 -0.73,-2.89 0.96,-1 -1.25,-1.01 0.19,-1.64 -0.83,0.81 -2.440005,-1.53 -1.74,0.91 -2.09,-3.13 0.4,-1.45 2.52,0.6 -0.27,-2.43 -2.71,-0.6 -1.49,-1.72 2.42,-3.73 -2.87,-1.43 -0.62,-2.91 1.09,-1.62 -1.53,-2.01 -1.23,0.07 -1.9,-5.71 v 0 l -0.21,-3.88 7.51,-2.02 1.68,-1.6 1.12,-4.96 1.57,1.34 1.670005,-1.71 -1.390005,-1.43 0.24,-2.94 6.950005,-0.04 0.36,-1.38 2.48,-0.65 0.48,-3.48 1.29,-0.43 -0.82,-2.3 z"
     class="land"
     title="Ternopil'"
     id="UA-61" />
  <path
     d="m 17.853015,177.58257 3.82,-0.25 2.61,2.62 1.46,-0.3 -0.3,-1.58 v 0 l 1.92,1.08 -1.21,0.84 0.55,1.65 -1.52,1.48 0.7,1.68 2.43,1.55 0.77,2.22 3.7,-1.5 1.79,1.58 1.72,3.69 2.83,-0.73 1.36,1.1 1.24,-0.81 2.06,2.09 4.26,0.07 v 0 l 2.57,1.06 2.76,3.45 2.8,0.15 0.2,2.32 1.82,1.86 1.89,-0.38 0.53,4.78 1.64,0.42 0.97,-2.38 1.29,0.24 2.91,-1.65 0.61,6.37 1.33,2.14 2.59,0.89 1.02,-2.27 1.78,0.37 0.9,1.94 4.05,3.38 0.02,1.87 2.05,1.35 -1.47,3.03 4.18,5.55 -1.69,1.46 -0.4,2.64 v 0 l -1.85,0.86 -2.55,-0.96 -2.9,2.78 -0.84,-0.57 -3.25,1.47 -1.23,-1.05 -2.72,0.16 -3.49,-2.62 -4.83,1.74 -2.95,-3.13 -3.79,0.53 -4.65,-1.79 -1.15,2.62 -5.52,-2.65 0.12,-0.89 -1.88,-0.86 -0.46,-2.27 -2.53,0.1 -0.84,-1.14 -1.79,1.65 -0.74,4.13 -2.59,0.8 -2.94,-1.45 0.68,2.64 -1.76,0.56 -2.05,-1.72 1.52,-3.22 -1.88,-3.23 -3.03,-0.17 -2.24,1.43 -2.71,-0.84 -0.69,-4.49 -2.34,-2.63 -3.4099995,-0.08 -0.68,0.73 -2.3,-4.52 0.19,-1.37 -2.62,-1.65 0.81,-1.25 -1.94,-0.84 -2.09000004,1.18 -0.23,-1.69 1.52000004,-8.52 5.32,-4.14 0.75,-2.52 -0.54,-1.46 1.39,-1.96 -0.16,-3.1 1.29,-1.28 0.14,-2.24 1.8299995,-3.24 2.28,-0.74 0.91,-4.43 1.81,0.63 z"
     class="land"
     title="Transcarpathia"
     id="UA-21" />
  <path
     d="m 193.05302,141.39257 4.15,-1.68 3.9,0.44 5.2,-0.84 0.73,-1.4 4.44,1.73 1.51,-2.23 2.08,0.77 1.46,-0.57 1.45,2.3 1.76,-2.02 3.75,0.82 0.69,-2.4 3.07,-0.91 0.96,-1.46 2.69,2.5 0.53,1.95 -0.9,1.11 2.08,2.38 -1.89,3.03 2.16,2.34 -0.67,1.94 4.38,0.68 4.14,-0.99 1.08,0.67 0.15,-2 2.11,0.72 0.49,-0.76 0.84,0.43 0.9,-1.94 3.3,0.46 v 0 l 0.96,0.68 -1.08,2.19 1.4,3.83 1.47,0.75 -1.18,1.71 1.46,1.17 -3.16,3.98 1.31,2.74 2.73,0.87 -0.25,2.18 2.56,1.32 0.81,-1.2 0.76,1.68 v 0 l -1.03,0.27 1.02,5.27 -1.76,0.52 0.2,1.29 -1.22,-0.4 -0.78,2.17 -0.43,-0.69 -0.3,0.63 1.17,2.16 1.43,-0.6 0.37,1.15 -1.47,3.25 2.7,1.54 -0.62,0.67 1.53,2.47 0.33,3.14 3.35,1.09 0.61,1.53 -0.8,1.67 4.46,3.38 -1.56,2.02 1.94,1.1 0.52,2.76 -0.94,-0.03 0.35,1.18 -1.2,0.3 0.02,0.91 v 0 l -6.06,5.19 0.82,1.08 -2.09,3 1.04,4.07 v 0 l -4.21,0.77 0.27,4.34 -2.12,-1.2 -1.09,1.72 -2.32,-0.21 -1.12,-1.07 -2.52,0.45 -0.74,1.21 -3.07,0.07 -0.78,-1.15 -1.35,0.43 -0.53,-0.78 1.93,-0.58 -0.31,-0.88 -3.7,0.38 0.49,-0.46 -2.94,-2.24 -1.01,3.57 -0.51,0.33 -0.42,-1.64 -2.23,-0.36 -0.61,3.12 -2.03,1.25 -0.69,-0.59 v 0 l -0.23,-2.22 -5.09,-0.05 -0.32,-1.01 -3.87,-1.48 -2.11,1.23 -0.14,4.31 -1.19,-0.38 -1.46,-2.47 0.23,-2.5 -1.57,-0.11 -1.03,1.92 -1.51,-0.16 2.06,-3.17 -0.51,-2.26 -4.95,2.14 -1.44,-2.83 -2.48,1.36 -0.42,-4.12 -4.33,-0.79 -1.91,-1.57 -0.8,-2.23 -2.93,-2.14 -4.86,0.21 -1.71,-0.98 0.18,-1.53 -2.13,1.12 v 0 l -1.83,-1.91 -0.9,-4.68 -2.69,-1.56 v 0 l 1.43,-3.42 -0.88,-3.55 1.31,-1.51 -1.2,-5.66 0.85,-3.33 -1.21,-1.95 1.95,-3.12 2.07,-0.09 -0.21,-2.66 1.46,0.02 -0.09,-0.95 1.5,0.99 0.57,-1.82 1.54,-0.56 3.35,1.4 1.31,-2.85 0.49,0.97 0.76,-0.61 1.33,0.88 1.47,-0.79 -1.41,-2.57 0.1,-4.67 -1.52,-1.51 1.19,-3.77 -3.38,-0.53 v 0 l 0.2,-1.21 v 0 l 0.94,-1.24 -1.57,-0.44 0.01,-1.74 1.81,-0.07 0.1,-1.3 -1.23,-1.16 1.82,-2.47 -1.63,-3.78 1.59,-0.22 z"
     class="land"
     title="Vinnytsya"
     id="UA-05" />
  <path
     d="m 104.82302,23.042572 1.17,-0.42 5.1,2.62 3.39,-0.11 0.6,-0.98 2.07,0.8 v 0 l 1.36,1.3 2.51,0.36 -2.24,2.69 -0.23,2.39 1.74,2.6 -0.56,1.97 -2.1,4.19 -0.97,0.9 -1.52,-0.35 2.4,2.57 -1.21,2.39 0.93,0.91 -1.37,1.14 1.74,-0.19 1.22,1.3 -0.01,3.04 1.96,2.65 0.91,-0.18 0.06,-1.11 1.1,-0.01 0.65,1.41 1.76,-0.69 -0.12,2.8 3.73,3.32 0.25,2.16 1.85,0.42 2.1,2.32 -0.34,2.12 -4.02,1.27 0.19,1.79 2.67,0.19 2.38,1.59 0.58,2.57 -0.84,1.83 -3.94,0.72 1.33,1.07 -0.38,3.71 1.58,1.39 -0.59,1.17 -3.79,-0.6 -2.51,11.09 -2.04,-2.84 -2.21,0.26 -0.61,-2.85 -3.21,0.55 0.12,1.02 -4.54,1.88 -2.79,-1.39 0.32,1.11 -1.29,1.25 1.59,1.64 -3.92,-0.98 0.34,2.87 0.72,-0.32 0.27,0.93 -0.94,1.52 -5.83,-0.76 1.19,2.429998 -0.32,1.9 -2.17,-0.34 2.14,1.23 -0.42,1.34 0.69,-0.19 0.46,1.83 1.31,0.84 -0.42,0.92 -1.01,-0.88 -0.82,0.52 0.78,2.07 -1.91,1.03 0.08,1.25 v 0 l -1.860005,-0.76 -0.2,-2.09 -3.72,-2.47 -0.19,2.29 -2.32,-0.77 -5.28,0.78 0.28,-1.71 -2.29,-1.74 -1.96,-0.17 0.06,-4.49 -1.48,0.17 -0.87,-3.119998 -2.68,0.59 -1.4,-0.98 -0.88,-2.51 -1.76,0.54 -0.47,1.21 -2.37,-0.43 -3.55,-4.34 -1.75,0.11 v 0 l -0.82,-0.9 0.28,-2.2 -1.83,-0.2 0.19,-2.24 -1.87,-0.5 -0.21,-2.08 1.41,-1.46 3.47,0.09 1.35,-1.55 -3.14,-1.24 -2.81,-3.18 -0.47,-2.08 -1.47,-1.12 0.73,-0.2 -0.85,-3.18 -1.76,-1.39 0.42,-2.75 -4.42,-3.39 -1.45,-4.21 h -1.73 l -0.3,-2.22 1.6,-1.92 0.6,-2.73 -1.79,-1.47 0.68,-1.98 -1.69,-0.77 -0.07,-0.81 1.99,0.33 -1.34,-2.5 0.9,-1.64 -1.91,-2.29 2.39,-1.61 3.49,-0.72 0.39,1.5 4.05,0.41 -1.03,2.21 3.9,0.57 4.22,-4.64 6.63,-4.53 -0.77,-2.86 1.45,-3.16 1.65,-1.22 8.23,-1.1 4.35,1.05 2.26,-1.61 0.65,0.87 2.53,-0.77 1.57,0.78 4.430005,-2.98 z"
     class="land"
     title="Volyn"
     id="UA-07" />
  <path
     d="m 406.50302,257.23257 15.55,-4.3 9.18,2.16 2.88,-0.69 -1.66,-6.88 1.11,-0.32 0.6,-4.54 -2.16,0.38 0.19,-4.62 -0.94,0.04 -0.34,-1.36 -1.47,0.68 -0.51,-2.55 3.85,-0.9 -0.36,-2.54 -1.24,0.09 -0.68,-1.6 -0.24,-1.78 1.2,-0.26 -0.67,-3.93 1.99,0.11 -0.01,2.02 2.52,0.04 3.76,-2.1 6.45,-0.66 7.67,2.53 0.13,0.91 6.16,-3.16 1.3,2.18 2.16,-0.17 0.28,1.6 5.11,-1.32 0.33,2.36 2.6,-0.6 0.44,1.75 -1.07,0.41 1.24,2.2 -0.65,0.63 0.72,-0.25 0.38,1.77 0.82,-0.54 0.66,1.9 -0.42,1.91 h -1.52 l 0.12,0.91 4.02,-0.59 0.1,1.36 2.34,0.01 0.39,0.77 1.74,-0.25 -0.03,-0.98 4.49,0.84 4.22,-1.2 v 0 l 0.79,0.33 -0.65,2.8 2.8,-0.39 1.42,5.75 2.63,-0.28 -2.47,1.32 0.22,1.39 1.31,-0.21 -0.59,1.33 2.8,-0.76 2.2,3.8 1.76,-1.41 1.91,1.81 0.69,-0.74 1.82,3.05 2.66,1.9 0.8,-1.48 2.16,0.8 -1.39,5.64 -1.34,0.68 -0.86,-1.93 -0.98,0.25 0.45,1.75 -2.79,1.93 -3.79,-0.85 1.24,5.81 -3.69,0.11 4.97,3.52 0.38,1.91 -0.9,0.55 4.73,1.92 -1.16,1.64 1.7,1.32 -4.03,2.55 1.42,2.25 v 0 l -5.34,3.34 -4.74,8.99 -0.69,-0.03 2.82,-3.34 -0.69,-1.52 -3.17,-2.34 -3.48,0.12 -8.03,3.44 -6.01,9.14 -2.79,1.61 4.77,-5.22 -0.85,-2.8 -1.57,-0.93 -5.5,0.15 -5.02,1.15 -4.94,2.88 -4.53,4.9 -4.86,2.35 -9.24,14.32 -6.39,3.16 1.38,-2.95 6.22,-2.26 4.85,-8.4 -1.25,1.23 -1.86,-1.1 0.2,-3.89 -2.02,-1.14 -1.1,-1.37 0.34,-0.95 -0.96,0.56 1.63,4.97 -3.62,4.53 v 0 l -0.97,0.09 -0.61,-8.94 -3.72,-1.45 -1.8,0.27 -0.03,-2.95 -4.53,0.72 -1.47,-3.28 1.44,-0.41 -0.32,-2.81 -3.81,-0.21 -0.27,-1.82 3.73,-1.17 0.96,-1.56 -0.27,-2.12 2.04,-0.31 -0.41,-2.67 -1.73,0.15 -0.58,-4.06 -3.86,-0.52 -1.09,-2.52 -0.76,0.1 -0.48,-4.17 -1.11,0.1 -0.98,-7 1.31,-0.24 -0.12,-0.81 -1.24,-0.63 -0.34,-1.66 1.24,-1.15 -3.42,0.67 -0.45,1.79 -2.45,-0.15 -0.77,0.79 -2.2,-8.02 z"
     class="land"
     title="Zaporizhzhya"
     id="UA-23" />
  <path
     d="m 207.42302,41.492572 0.85,-0.12 2.11,2.66 0.35,1.91 3.89,-2.94 2.91,1.24 3.44,0.1 -0.92,0.44 0.75,-0.01 1,6.13 1.82,-1.02 0.52,2.76 0.98,-1.98 -0.68,-1.89 2.1,-3.96 2.84,-1.53 3.06,0.78 3.67,-4.18 2,-0.09 1.51,4.34 1.42,0.34 -0.2,3.83 0.7,1.85 1.23,0.39 0.57,4.1 1.31,-0.34 v 0 l 1.2,0.32 0.15,2.98 -1.46,2.71 -2.96,0.48 0.92,4.56 0.79,2.83 1.03,-1.69 5.4,5.28 -1.55,2.39 0.43,2.03 -2.12,-0.4 -0.05,1.94 3.43,3.77 -0.46,2.28 1.66,1.24 -1.84,-0.03 0.55,2.08 2.1,0.17 0.88,2.24 -5.15,5.84 1.99,2.43 -1.48,3.139998 1.52,0.76 0.14,1.51 -0.9,0.67 -0.94,-0.59 -0.23,0.94 1.71,0.73 -1.92,1.21 0.53,0.83 1.02,-0.69 v 0 l 2.33,-0.44 1.09,1.34 v 0 l 0.04,1.15 1.58,0.31 -0.4,2.14 2.29,0.26 -0.17,2.36 -0.78,0.3 1.23,2.33 -1.89,2.54 1.61,1.53 -1.48,2.53 1.59,1.86 -0.66,1.95 1.99,4.57 -2.14,1.68 0.8,0.44 -1.48,2.09 -3.77,2.35 -1.11,-0.81 -0.85,1.68 -1.55,-0.11 0.83,2.25 -0.79,1.79 0.3,0.81 1.59,0.02 0.35,3.28 v 0 l -3.3,-0.46 -0.9,1.94 -0.84,-0.43 -0.49,0.76 -2.11,-0.72 -0.15,2 -1.08,-0.67 -4.14,0.99 -4.38,-0.68 0.67,-1.94 -2.16,-2.34 1.89,-3.03 -2.08,-2.38 0.9,-1.11 -0.53,-1.95 -2.69,-2.5 -0.96,1.46 -3.07,0.91 -0.69,2.4 -3.75,-0.82 -1.76,2.02 -1.45,-2.3 -1.46,0.57 -2.08,-0.77 -1.51,2.23 -4.44,-1.73 -0.73,1.4 -5.2,0.84 -3.9,-0.44 -4.15,1.68 v 0 l -1.51,1.05 -2.93,-2.21 0.86,-1.68 -2.36,0.26 -1.23,-2.21 0.13,-2.78 -2.67,-0.62 0.91,-2.37 -0.87,-3.29 2.12,0.33 1.04,-1.7 1.33,0.02 -0.43,-2.13 -1.76,-0.5 0.9,-1.49 -0.33,-1.57 1.64,-0.73 -0.58,-1.83 -1.35,1.16 -0.9,-4.55 -2.65,1.64 -4.35,-3.33 0.97,-0.47 -1.19,-1.22 -2.28,-0.49 0.08,-1.97 -2.32,-1.4 1.66,-5.2 -1.08,0.08 -2.46,-3.769998 v 0 l 1.2,-0.25 -0.05,-2 -1.33,-0.99 0.41,-2.02 1.42,-0.7 1.06,-2.49 -1.39,-4.11 0.72,-5.26 -1.3,-1.15 0.68,-1.45 -1.33,-2.95 0.91,-0.43 -0.09,-1.19 3.57,-0.67 -0.17,-1.93 1.44,-0.98 0.3,-3.16 3.36,-4.4 -1.14,-3.93 1.82,-0.38 0.89,-1.34 -0.02,-1.41 -0.91,-0.43 0.45,-4.08 0.95,-0.03 -0.15,1.07 1.82,1.68 1.05,-0.01 -1.12,-1.49 -0.05,-2.64 3.06,-1.09 -0.21,-1.01 v 0 l 3.27,2.22 1.34,-3.05 1.67,-0.58 -0.97,-4.04 1.07,-0.75 2.07,0.76 0.24,2.1 1.92,-0.88 -1.22,1.93 5.39,-1.05 2.49,-3.74 2.87,-1.95 z"
     class="land"
     title="Zhytomyr"
     id="UA-18" />
     <g id="stadiums" data-country="ukraine" data-circle-radius="6"></g>
</svg>
