<?xml version="1.0" encoding="UTF-8" standalone="no" ?>
<?xml-stylesheet type="text/css" href="../style.css" ?>

<svg
   xmlns:dc="http://purl.org/dc/elements/1.1/"
   xmlns:cc="http://creativecommons.org/ns#"
   xmlns:rdf="http://www.w3.org/1999/02/22-rdf-syntax-ns#"
   xmlns:svg="http://www.w3.org/2000/svg"
   xmlns="http://www.w3.org/2000/svg"
   xmlns:sodipodi="http://sodipodi.sourceforge.net/DTD/sodipodi-0.dtd"
   xmlns:inkscape="http://www.inkscape.org/namespaces/inkscape"
   width="830"
   height="594"
   id="svg3211"
   sodipodi:version="0.32"
   inkscape:version="0.92.4 (5da689c313, 2019-01-14)"
   version="1.0"
   sodipodi:docname="europe-uefa-euro2020_shortened3.svg"
   inkscape:output_extension="org.inkscape.output.svg.inkscape"
   sodipodi:modified="true">
  <defs
     id="defs3213">
    <inkscape:perspective
       sodipodi:type="inkscape:persp3d"
       inkscape:vp_x="0 : 365.6864 : 1"
       inkscape:vp_y="0 : 1000 : 0"
       inkscape:vp_z="840.54822 : 365.6864 : 1"
       inkscape:persp3d-origin="420.27411 : 243.79093 : 1"
       id="perspective3146" />
    <inkscape:perspective
       id="perspective3156"
       inkscape:persp3d-origin="0.5 : 0.33333333 : 1"
       inkscape:vp_z="1 : 0.5 : 1"
       inkscape:vp_y="0 : 1000 : 0"
       inkscape:vp_x="0 : 0.5 : 1"
       sodipodi:type="inkscape:persp3d" />
    <clipPath
       clipPathUnits="userSpaceOnUse"
       id="clipPath1069">
      <rect
         style="opacity:1;fill:#000000;fill-opacity:0;stroke:none;stroke-width:0.62362206;stroke-miterlimit:4;stroke-dasharray:none;stroke-opacity:1"
         id="rect1071"
         width="819.27246"
         height="598.14978"
         x="304.90039"
         y="220.36043" />
    </clipPath>
    <clipPath
       clipPathUnits="userSpaceOnUse"
       id="clipPath1052">
      <rect
         style="opacity:1;fill:#000000;fill-opacity:0;stroke:none;stroke-width:0.62362206;stroke-miterlimit:4;stroke-dasharray:none;stroke-opacity:1"
         id="rect1054"
         width="819.27246"
         height="598.14978"
         x="21.189594"
         y="-16.689194" />
    </clipPath>
    <clipPath
       clipPathUnits="userSpaceOnUse"
       id="clipPath1061">
      <rect
         style="opacity:1;fill:#000000;fill-opacity:0;stroke:none;stroke-width:0.62362206;stroke-miterlimit:4;stroke-dasharray:none;stroke-opacity:1"
         id="rect1063"
         width="841.16876"
         height="602.29297"
         x="-0.70710677"
         y="-4.5658751" />
    </clipPath>
  </defs>
  <sodipodi:namedview
     id="base"
     pagecolor="#ffffff"
     bordercolor="#666666"
     borderopacity="1.0"
     inkscape:pageopacity="0.0"
     inkscape:pageshadow="2"
     inkscape:zoom="0.7071068"
     inkscape:cx="218.49657"
     inkscape:cy="284.10407"
     inkscape:document-units="px"
     inkscape:current-layer="svg3211"
     inkscape:window-width="1920"
     inkscape:window-height="1001"
     inkscape:window-x="-9"
     inkscape:window-y="-9"
     showgrid="false"
     inkscape:window-maximized="1"
     inkscape:document-rotation="0" />
  <metadata
     id="metadata3216">
    <rdf:RDF>
      <cc:Work
         rdf:about="">
        <dc:format>image/svg+xml</dc:format>
        <dc:type
           rdf:resource="http://purl.org/dc/dcmitype/StillImage" />
        <dc:title></dc:title>
      </cc:Work>
    </rdf:RDF>
  </metadata>
  <g
     inkscape:label="Calque 1"
     inkscape:groupmode="layer"
     id="layer1" />
  <g
     id="g1055"
     clip-path="url(#clipPath1061)">
    <rect
       y="-133.2867"
       x="0.03889928"
       height="731.2478"
       width="840.42322"
       id="Ocean"
       style="color:#000000;display:inline;overflow:visible;visibility:visible;opacity:1;fill:#c6ecff;fill-opacity:1;fill-rule:nonzero;stroke:#000000;stroke-width:0.07779856px;stroke-linecap:butt;stroke-linejoin:miter;stroke-miterlimit:4;stroke-dashoffset:0;stroke-opacity:1;marker:none;marker-start:none;marker-mid:none;marker-end:none" />
    <path
       inkscape:connector-curvature="0"
       id="Switzerland"
       class="country"
       data-country="switzerland"
       d="m 306.23378,397.63929 c -0.13204,0.5283 0,1.18864 -0.26412,1.71693 -0.13208,0.52829 -0.52829,0.92451 -0.79243,1.45278 0,0.26414 2.50935,2.11314 0.92451,2.64144 -2.77351,0.66033 -1.84902,-3.16971 -4.2263,-1.45279 -1.84898,1.32069 0.5283,2.77348 0.79243,3.43383 0.13208,0.5283 -0.66034,0.92451 -0.66034,1.4528 0.13205,0.52828 0.66034,0.79242 0.92448,1.18864 0.13208,0.52829 -0.92448,1.05657 -1.45277,0.79243 -0.92451,-0.5283 -0.39621,-2.64144 -1.45278,-2.7735 -3.56593,-0.66037 -1.849,1.98107 -3.96214,1.32071 -3.43385,-0.79243 -1.32071,-3.43385 -3.03764,-3.698 -2.24521,-0.39622 -0.79243,3.16972 -0.79243,3.43386 -0.52827,2.37727 -3.69798,3.1697 -3.69798,6.07527 0,1.32072 2.64141,0.79243 0.39621,2.50935 -0.79243,0.66036 -1.05657,-1.58484 -1.58486,-2.2452 -0.39622,-0.39621 -1.32071,-0.13208 -1.45279,-0.66037 -0.13206,-0.52828 0.79244,-0.92449 0.9245,-1.45277 0,-0.26415 -0.26414,-0.52829 -0.39622,-0.52829 -1.45277,-0.52829 -3.56591,-0.92451 -4.4904,-2.64142 -0.13208,-0.52829 0.26414,-1.05657 0.26414,-1.45278 0,-0.79243 0.13206,-1.58487 -0.13208,-2.37728 -0.13206,-0.13208 -0.3962,0.13206 -0.66035,0.26414 -0.66036,0.52827 -1.18865,1.05657 -1.849,1.58484 -0.66034,0.5283 -1.71691,0.79244 -1.98105,1.58487 -0.13208,0.52827 1.05655,0.79243 0.92449,1.45278 0,0.66034 -3.698,4.49042 -3.83006,4.49042 -1.18865,0 -2.11314,-1.58486 -3.30179,-1.32072 -1.71692,0.39621 -5.28283,3.03764 -6.60356,0.66037 -0.52829,-0.79244 -0.52829,-1.71693 -1.18864,-2.3773 -0.13207,-0.26414 -0.66036,0.52829 -0.79242,0.26416 -0.13208,-0.39622 0.52828,-1.05659 0.26414,-1.4528 -0.13208,-0.3962 -0.92451,0 -1.18865,-0.26413 -0.79241,-1.32071 1.05657,-1.18864 0.92451,-1.98106 -0.13208,-0.66037 -0.92451,-0.92451 -0.92451,-1.58486 -0.13207,-0.39622 0.92451,-1.18865 0.39622,-1.32071 -1.71693,-0.79243 -5.41491,-0.79243 -6.60356,1.05655 -0.26414,0.26416 -0.13208,0.5283 -0.13208,0.92451 0.13208,0.26414 0.79243,0.52829 0.66037,0.79243 -0.79243,1.58485 -2.64143,2.24522 -4.22628,1.849 -0.13207,0 0.52828,-0.26415 0.52828,-0.52829 0,-1.71692 1.32071,-1.05657 1.45279,-1.45278 0.66036,-2.11313 -1.05657,-3.96213 0.52829,-5.94321 0.92449,-1.32071 3.30177,-1.32071 3.83006,-2.77348 0.39622,-0.79244 -0.39621,-1.98107 0,-2.90557 0.52828,-1.05658 2.37728,-0.66037 3.16971,-1.58486 0.92449,-0.79243 1.98106,-3.43385 3.1697,-4.35834 0.66036,-0.52829 1.32072,0.92449 1.4528,-0.92451 0,-0.66035 -1.98108,0.66037 -2.11316,0 -0.26414,-0.66035 0.79243,-1.18865 1.18865,-1.71692 0,0 0.26414,0.13206 0.26414,0 0,-0.26414 -0.52828,-0.79242 -0.26414,-0.9245 3.69799,-1.05657 2.11314,3.96213 6.60356,-0.66035 0.13207,0 0.39621,-0.26414 0.52829,-0.52829 l 0.26414,-0.26414 c 0.26412,-0.13208 0.52829,-0.13208 0.79241,0.13208 0.13208,0.13206 -0.79241,0.26413 -0.66034,0.52829 0.39622,0.79241 6.47147,-0.66037 6.86769,-0.66037 2.64143,-0.13208 0.26413,2.37728 3.56592,0.66037 0.13208,-0.13208 -0.26414,-0.79245 0,-0.92451 0.3962,-0.26415 1.849,-0.39622 1.32071,-0.52829 -0.79242,-0.13208 -1.58485,0.13207 -2.37728,0 -0.3962,-0.13208 1.84899,-3.69799 3.83006,-1.71693 0.26414,0.26416 -0.39621,0.79243 -0.26413,1.18865 0.13207,0.26414 0.66035,0.3962 0.92449,0.26414 0.26414,-0.13208 -0.13208,-1.05657 0,-0.79243 0.52829,0.26414 0.52829,1.18864 1.05658,1.45278 0,0 4.35834,-0.26414 4.49042,-0.26414 1.32069,0.26414 2.2452,1.58487 3.43383,2.24522 v 0.13206 c 0,0.92451 1.71693,1.18863 1.18865,2.50936 -0.13206,0.26414 -0.66035,0.13207 -0.79243,0.26414 -0.39622,0.66035 -1.71691,5.41491 -1.45277,5.54698 0.26414,0.13207 4.62249,0.5283 4.75456,0.5283 0.26415,0.26414 -0.39622,0.66035 -0.13207,0.92449 0.66036,0.79243 1.45277,1.32071 2.37728,1.71692 2.11314,1.05659 2.50934,-2.50935 3.96213,-2.2452 0.39621,0 0.66037,0.13206 0.92451,0.26414 l -0.1321,1.18863 c -0.13204,0.39622 -0.26412,0.66036 0,0.79243 z"/>
    <path
       inkscape:connector-curvature="0"
       id="France"
       class="country"
       data-country="france"
       d="m 219.33098,320.37767 c 0.26414,1.849 0.3962,6.86769 3.30177,6.86769 1.05657,0 1.71693,-1.849 2.50936,-1.45278 1.71692,0.66037 0.9245,3.69798 1.45277,4.75457 0.79243,1.84898 3.698,-0.26415 4.09422,1.84898 0.13206,0.5283 -0.26414,1.18865 -0.13208,1.71694 0.26414,1.05656 5.67906,-0.26414 5.9432,1.98105 0,0.79243 -1.05657,1.4528 -1.05657,2.24523 -0.13207,0.52828 0.92451,0.52828 0.92451,0.9245 0,0.66035 -0.66037,1.05657 -1.05658,1.71691 -0.39622,0.79243 3.96215,1.849 5.81114,0.13207 0.92449,-0.79241 1.71692,-3.16969 2.64143,-2.37728 0.26414,0.26414 -0.39622,0.66036 -0.52829,1.05657 -0.13208,0.5283 -0.66036,1.05659 -0.66036,1.71693 0,0.52829 0.79243,0.66037 0.92448,1.18864 0,0.66036 -1.05656,1.45279 -0.52826,1.98107 0.52826,0.79243 1.84898,0.39621 2.77348,0.79243 0.52829,0.39621 0.66035,1.18864 1.18864,1.58486 0.13208,0.13205 0.5283,-0.39622 0.79243,-0.26415 0.26416,0.13207 0.39622,0.3962 0.5283,0.66037 0,0.13204 -0.66037,0.3962 -0.5283,0.52826 0.39622,0.26415 1.05657,0 1.32071,0.39621 0.39622,0.5283 -0.13206,1.71693 0.52829,1.98108 0.79244,0.39622 1.71693,-0.52829 2.64142,-0.39621 0.39622,0 0.79243,0.13206 1.18863,0.26413 0.66037,0.26414 1.18866,0.5283 1.71694,0.79244 0.13208,0.13207 0,0.66034 0.13208,0.52829 0.79242,0 1.45277,-0.66037 2.11312,-0.66037 0.79244,0 1.58487,0.39621 2.24522,0.66037 0.26414,0.39621 1.05657,0 1.45279,0.39621 1.05655,0.66034 1.71692,3.69799 3.03763,5.0187 1.58486,1.71694 -1.05657,-3.69799 2.90555,-0.13208 0.26416,0.26414 -0.26412,0.79243 -0.13206,1.18865 0.26414,0.3962 4.49042,-1.32071 5.15077,-0.79243 0.39621,0.39621 0.13208,1.18863 0.5283,1.58484 0.52829,0.39622 8.45256,1.32073 7.92426,2.24522 -1.45278,2.50936 -4.0942,4.0942 -5.15078,6.20736 -0.3962,0.92449 -0.52828,3.83005 -0.66034,4.62248 0,0 -1.84902,3.03763 -1.84902,3.03763 -0.26412,0.66037 -0.52826,1.32071 -0.39621,1.98106 0,0.39622 0.52829,0.39622 0.52829,0.66037 -0.13208,1.84899 -1.45277,3.56591 -1.32071,5.41491 0,1.71693 0,2.24522 0.13208,2.24522 -4.49042,4.62248 -2.90557,-0.39622 -6.60356,0.66035 -0.26414,0.13208 0.26414,0.66036 0.26414,0.9245 0,0.13206 -0.26414,0 -0.26414,0 -0.39622,0.52827 -1.45279,1.05657 -1.18865,1.71692 0.13208,0.66037 2.11316,-0.66035 2.11316,0 -0.13208,1.849 -0.79244,0.39622 -1.4528,0.92451 -1.18864,0.92449 -2.24521,3.56591 -3.1697,4.35834 -0.79243,0.92449 -2.64143,0.52828 -3.16971,1.58486 -0.39621,0.9245 0.39622,2.11313 0,2.90557 -0.52829,1.45277 -2.90557,1.45277 -3.83006,2.77348 -1.58486,1.98108 0.13207,3.83008 -0.52829,5.94321 -0.13208,0.39621 -1.45279,-0.26414 -1.45279,1.45278 0,0.26414 -0.66035,0.52829 -0.52828,0.52829 1.58485,0.39622 3.43385,-0.26415 4.22628,-1.849 0.13206,-0.26414 -0.52829,-0.52829 -0.66037,-0.79243 0,-0.39621 -0.13206,-0.66035 0.13208,-0.92451 1.18865,-1.84898 4.88663,-1.84898 6.60356,-1.05655 0.52829,0.13206 -0.52829,0.92449 -0.39622,1.32071 0,0.66035 0.79243,0.92449 0.92451,1.58486 0.13206,0.79242 -1.71692,0.66035 -0.92451,1.98106 0.26414,0.26413 1.05657,-0.13207 1.18865,0.26413 0.26414,0.39621 -0.39622,1.05658 -0.26414,1.4528 0.13206,0.26413 0.66035,-0.5283 0.79242,-0.26416 0.66035,0.66037 0.66035,1.58486 1.18864,2.3773 -6.07526,3.56591 -2.64143,1.98106 -0.79243,5.15077 0.26414,0.52829 -0.26414,1.45278 0.13208,1.98106 0.39621,0.92449 1.71692,1.05659 2.11314,1.849 0.66035,1.18863 -3.56593,4.6225 -4.22627,4.75456 -0.39621,0.13208 -0.66038,-0.66036 -1.05658,-0.66036 -0.66036,0.13208 -1.84899,0.13208 -1.84899,0.79244 -0.26415,2.11313 4.09421,3.83006 4.75456,4.88663 0.3962,0.79241 0.52828,1.849 0.52828,2.90555 -0.13208,0.39622 -1.32071,-0.26413 -1.45279,0.13208 -0.13206,0.26414 0.26416,0.52829 0.13208,0.66036 -0.39622,0.66036 -1.05656,1.05658 -1.58485,1.58486 -0.39621,0.79243 0.92449,1.18864 1.05656,1.58486 0,0.26412 -0.66036,0.26412 -0.66036,0.52826 -0.13207,1.849 3.30179,4.35837 4.75456,4.75457 0.79243,0.26414 1.71692,-0.13207 2.50935,-0.13207 0.79244,-0.13208 1.71694,-0.66034 2.3773,-0.26413 1.98106,1.45277 -2.50936,4.49041 -1.849,6.86768 -0.13208,0 -2.37728,0.79244 -2.64144,1.05659 -0.13206,0.13206 0.26416,0.66034 0,0.66034 -0.13206,-0.13206 0,-0.66034 -0.13206,-0.66034 -0.79241,0.13206 -1.71692,0.26414 -2.24521,0.79242 -0.39622,0.39621 0.26415,1.3207 -0.26414,1.71692 -0.52828,0.39623 -1.45279,-0.13206 -2.11314,0.26415 -0.52829,0.39622 -0.39622,1.45277 -1.05656,1.98105 -0.52829,0.26414 -1.18864,-0.3962 -1.71694,-0.13206 -0.3962,0.13206 -0.13206,0.79242 -0.52827,1.18863 -0.39622,0.52829 -1.4528,0.66037 -1.71694,1.32072 -0.13206,0.52828 1.05658,1.32071 0.52829,1.71693 -0.66035,0.66037 -1.98106,0 -2.90556,0.13208 -1.18864,0.26412 -1.98107,1.45277 -3.03764,1.84898 -1.18865,0.39622 -0.26414,-1.45277 -2.90556,-1.58486 -1.71694,-0.13206 0.13206,0.66038 -0.13208,0.92451 -0.26414,0.26414 -0.79241,0.26414 -1.18864,0.13207 -0.39622,0 -0.79243,0 -0.9245,-0.26415 0,-0.26412 0.9245,-0.92449 -0.9245,-1.84899 -0.3962,-0.13207 -0.79242,0 -1.32071,0 -0.92451,-0.26415 -1.98107,-0.13207 -2.64142,-0.79243 -0.66035,-0.66035 0,-1.98107 -0.52828,-2.64143 -0.26415,-0.3962 -0.79243,0.52829 -1.32072,0.52829 -0.79243,0 -2.37728,0.26414 -2.24522,-0.52829 0.13208,-1.05655 2.50936,-0.66034 2.64144,-1.71691 0,-1.05657 -1.45278,-1.849 -2.37728,-1.71694 -0.79242,0.13208 0.66035,1.58488 0.26414,2.11314 -0.66036,0.66037 -1.71693,1.05659 -2.64142,0.92451 -2.11314,-0.13208 -1.45279,-3.83006 -1.849,-3.30179 -1.84899,2.11316 2.24521,3.03765 1.05657,3.56593 -4.22628,1.71692 -2.3773,-1.05657 -2.50934,-1.58485 -0.13208,-0.52829 -4.75457,-1.05657 -5.15079,-1.32072 -1.05656,-0.52828 -2.37728,-2.2452 -3.69799,-1.45277 -1.45277,0.79241 -3.56592,3.43385 -5.01871,4.22628 -1.32072,0.66034 -3.96212,0.13206 -5.54698,2.37728 -0.26414,0.26413 0.39621,0.79241 0.39621,1.18863 -0.26415,1.32072 -1.98108,2.11314 -2.11314,3.56592 0,0.39622 0.92451,0.26414 1.05657,0.66036 0.66036,2.37728 -1.05657,1.71694 -0.13206,4.35834 0.26414,0.79243 1.05655,1.4528 1.84898,2.11314 h -0.52829 c -2.11314,-0.52828 -4.49042,-1.71693 -6.47148,-0.3962 -0.39621,0.26414 0.13208,1.32071 -0.39621,1.45278 -1.32071,0.39622 -3.56591,-2.24521 -4.88664,-2.24521 -1.18863,0 -2.11314,0.66035 -3.16969,0.79243 -0.79245,0.13206 -0.92451,-1.32073 -1.18865,-1.58487 -0.66035,-0.52829 -1.71692,-0.79243 -2.64143,-1.18863 1.32072,-1.71692 1.05657,-3.43386 -2.37726,-3.16972 -0.13208,0 -0.5283,0.52829 -0.79245,1.18866 v -0.13208 c -0.66035,-0.39621 -0.26414,-1.58486 -0.92449,-2.11314 -0.39622,-0.39621 -1.18863,-0.39621 -1.849,-0.52829 -0.26414,0 -0.66036,0.13208 -0.79243,0 -1.45278,-1.32069 -2.77348,-2.90557 -5.0187,-3.30177 -1.58486,-0.26414 -0.92449,2.77349 -0.92449,2.77349 -1.45279,-0.13207 -2.64142,-1.18864 -3.96214,-1.05658 -0.39622,0 -0.39622,0.79243 -0.79243,0.79243 -0.79242,-0.13205 -1.18864,-1.05655 -1.98105,-1.18863 -0.79243,-0.13208 -1.32073,0.66037 -2.11316,0.52829 -1.71692,0 -1.05657,-1.71694 -1.98106,-2.50935 -1.849,-1.58487 -3.56592,0.79241 -5.28285,-0.5283 -0.13208,0 -1.45278,-3.03763 -1.58486,-3.16969 -1.71691,-1.32072 -4.62247,-0.66037 -6.47148,-2.37729 -0.26414,-0.26414 0.13207,-0.9245 0,-1.18864 -0.26414,-0.26415 -1.05656,1.18864 -1.84899,0.9245 -1.71694,-0.79243 2.11313,-2.3773 0.9245,-3.698 -0.39622,-0.52828 -1.18865,-0.79242 -1.84901,-0.9245 -0.13207,0 0,0.66036 -0.26413,0.52829 0,0 -1.45279,-1.32072 -2.24521,-2.11315 0.79242,-0.13206 1.32071,-0.26414 1.84899,-0.52828 3.83006,-1.84898 5.41491,-14.52782 6.8677,-18.48996 0.26415,-0.66036 0.52829,-1.58485 1.18864,-1.84899 0.5283,-0.26414 1.71693,0.9245 1.98107,0.26414 0.39621,-0.66035 -0.5283,-1.71694 -1.32071,-1.849 -0.66036,-0.13208 -0.79243,1.71694 -1.45279,1.45279 -1.32071,-0.39622 0.66036,-2.50936 0.92451,-3.83008 0.52828,-2.11313 1.98106,-9.90533 3.43383,-10.9619 0.5283,-0.26413 2.3773,2.64143 2.90557,3.96214 1.84902,3.96214 -0.66035,0.26415 0.66037,4.49042 0.26414,0.79243 1.05656,1.45278 1.3207,2.24521 0.13207,0.3962 -0.39622,1.58485 0,1.45279 0.66037,-0.13208 1.05658,-1.05659 0.9245,-1.58488 -0.26413,-0.79241 -1.18864,-1.05655 -1.71693,-1.71691 -1.05656,-1.71692 0.39621,-4.88663 -0.66034,-6.86769 -0.5283,-1.05657 -1.45279,-1.98108 -2.24522,-2.90557 -0.52828,-0.66036 -1.18865,-1.32071 -1.98106,-1.84899 0,0 0,0 0,0 0.79241,0.26414 1.71692,0.52828 2.50935,0.13206 0.92449,-0.52828 -1.98108,-1.849 -1.71694,-2.90557 0.26416,-1.05655 1.4528,-1.58485 1.58487,-2.64142 0.13207,-0.79243 -0.79244,-1.45278 -0.79244,-2.24521 0,-0.92448 0.79244,-1.84899 0.79244,-2.7735 0,-0.26414 -0.66036,-0.26414 -1.05657,-0.13206 -0.26414,0.13206 0,0.92449 -0.26414,0.79242 -0.66036,-0.26414 -0.79242,-1.3207 -1.32071,-1.71691 -0.39622,-0.13208 -0.9245,0.39621 -1.32071,0.13206 -0.39622,-0.26414 0,-1.18865 -0.39622,-1.45279 -2.37727,-2.24521 -1.05657,2.64144 -3.30178,-1.71692 -0.13208,-0.3962 -0.26413,-3.30177 -0.79243,-3.96213 -0.13208,-0.13207 -0.52828,0 -0.66036,-0.13207 -0.52828,-0.79243 -1.18863,-1.71694 -1.58484,-2.64142 -0.52828,-1.32072 2.11312,-2.64143 2.37729,-3.16972 0.52826,-1.18863 -2.64143,-1.98105 -2.64143,-2.11313 -0.26414,-0.92451 -0.26414,-1.45278 -0.13208,-1.849 0,0 -0.13206,0 -0.13206,0 -5.41493,-0.52828 -0.39622,-1.849 -0.26416,-4.75456 0.13208,-1.71693 -5.41491,-0.26413 -5.54698,-0.9245 -0.26414,-1.05657 1.3207,-1.45279 2.11315,-1.98107 0.13205,-0.13207 -0.66037,0.26414 -0.79245,0.13208 -0.13206,-0.13208 0,-0.52829 -0.13206,-0.66037 -0.39621,0 -0.52829,0.39622 -0.9245,0.52829 -1.05656,0 -2.11314,-0.79243 -3.03764,-0.39621 -0.13206,0.13207 -0.26415,0.26414 -0.26415,0.39621 0,0 0,-0.13207 0,-0.13207 0.26415,-1.71691 1.58486,-3.43385 -1.18863,-3.69799 -1.45279,-0.13206 -1.05657,1.71692 -2.11314,1.05657 -0.79243,-0.52829 -1.84899,-2.24522 -2.64143,-2.64143 -0.52827,-0.13206 -1.18864,0.39621 -1.58485,0 -1.71693,-1.32071 0.39621,-2.90556 -2.90557,-2.6414 -0.26414,0.13206 0.26415,0.79241 0,0.92447 -0.92448,0.39622 -2.24519,1.18865 -3.03762,0.5283 -0.79243,-0.5283 0,-1.98107 -0.26415,-2.90557 -0.39622,-1.58485 -2.11314,-1.18864 -3.16971,-1.84899 -0.13208,-0.13208 0.26414,-0.52829 0.52829,-0.52829 1.32071,-0.26413 2.64142,-0.13208 3.96214,-0.13208 0.26412,0 0.92449,0.52829 0.92449,0.26415 0,-0.26415 -1.18863,-2.11314 -1.98106,-3.43384 0,0 0.13206,0.13207 0.13206,0.13207 0.66037,0.26414 1.45279,0 2.2452,0.13206 0.5283,0 1.71694,0.52828 1.32073,0.26414 -0.92451,-0.52827 -2.50936,-0.26414 -2.90556,-1.18863 -0.26415,-0.79244 1.84899,-0.52829 1.98105,-1.32072 0.39621,-1.58485 -7.92427,4.49043 -5.15077,-2.64142 0.13207,0 4.49043,-1.71692 5.67906,-1.71692 1.45279,0 -1.849,1.71692 1.32071,0.79241 0.92451,-0.13206 1.849,-1.18863 2.77351,-0.92449 0.79241,0.26414 0.39621,1.849 1.18863,2.11313 0.52828,0 0.13208,-1.58485 0.66035,-1.71691 0.9245,0 1.58485,1.71691 2.50936,1.45278 0.79243,-0.26414 0.26414,-1.98106 1.05657,-2.50935 0.26414,-0.26414 0.79243,0.52829 1.18863,0.52829 0.79243,0 1.71694,-0.79243 2.37728,-0.39622 0.66035,0.39622 0.13208,1.71693 0.79243,2.11314 0.39622,0.26414 0.39622,-0.66037 0.79243,-0.92451 0.66037,-0.52827 2.7735,5.15079 3.30177,6.20736 0.13208,0.13206 0.13208,-0.52829 0.39622,-0.52829 0.79243,-0.52828 1.58486,-0.66036 2.50935,-1.05657 0.66037,-0.39622 1.18864,-1.45279 1.849,-1.18865 1.18864,0.52828 0.13207,5.15077 3.30179,3.83007 0.92448,-0.39622 0.39622,-2.11313 1.05656,-3.03764 0.66035,-0.92449 0.79243,1.849 1.58484,1.98108 0.79243,0.13206 1.4528,-0.26414 2.24522,-0.13208 0.79243,0 2.37728,1.18864 2.64142,0.39622 0.26415,-1.45279 -2.77348,-2.50937 -2.37727,-3.96214 0.26414,-0.92449 0.52828,-1.849 0.9245,-2.77349 -0.26414,0 -0.5283,-0.13208 -0.39622,-0.66036 0.26414,-0.92451 1.05656,-1.98108 1.05656,-3.03763 0,-0.26415 -0.79242,0.13206 -0.92448,-0.13208 -0.26416,-0.66035 0,-1.71692 -0.39622,-2.37728 -0.13208,-0.39621 -0.92449,-0.39621 -1.18864,-0.79243 -0.26414,-0.79241 -0.39622,-1.849 -0.26414,-2.64141 0,-0.39622 0.66035,-0.5283 0.66035,-0.79244 0,-0.92449 -0.52828,-1.849 -0.66035,-2.77349 0,-0.26415 0.26414,0.52828 0.39621,0.66035 1.05657,0.5283 1.98106,1.05657 3.03765,1.32071 0.26412,0.13208 0.66034,-0.13206 0.92448,-0.13206 1.05657,0 2.11314,-0.52829 3.03764,0 0.5283,0.13206 0.26413,0.92449 0,1.45279 -0.13207,0.26414 -0.52829,0.13206 -0.79243,0.39621 -0.39621,0.39622 1.05656,4.62248 1.18865,4.62248 5.41491,0.79243 -2.37729,-2.50935 1.84899,-0.92449 1.98107,0.79243 4.49043,1.18865 6.33942,2.11314 0.66035,0.39621 1.05657,1.32069 1.71692,1.45277 3.03763,0.39621 2.37728,-1.32071 4.62249,-1.98106 0.52828,-0.13207 1.05657,-0.13207 1.71693,-0.13207 -1.45279,-0.26413 -2.7735,-1.18864 -0.92449,-4.35834 1.3207,-2.11315 10.16946,-2.37729 12.54676,-3.698 0.92447,-0.39621 1.58484,-1.18863 2.50935,-1.71692 0.79242,-0.39622 2.2452,-0.26414 2.64142,-1.05659 0.39621,-0.79241 -1.05657,-1.18863 -1.18865,-1.98106 -0.13207,-0.39622 0,-1.05657 0.26414,-1.32071 0.26415,-0.26414 0.79243,0.26414 0.79243,0 0,-0.26414 -0.66035,-0.26414 -0.66035,-0.66035 0,-0.92451 1.05657,-7.26391 1.32071,-7.92427 0.52829,-1.58486 4.88663,-1.849 6.07528,-1.98108 1.58484,-0.13206 3.16969,-0.26414 4.62249,-0.52827 z m 74.0919,144.08963 c 1.84902,1.32072 0,4.88663 0,6.33942 0,0.52829 1.18867,1.71694 1.05659,1.18865 -0.26414,-0.5283 -1.05659,-1.98108 -0.92451,-1.45279 0.26414,0.79243 0.79243,1.32069 1.05659,1.98108 0.39621,0.92448 0.39621,3.83005 0.39621,4.62246 0.13205,2.24522 -2.11315,3.96214 -2.11315,5.54701 0,1.71692 0.66035,4.0942 -0.79242,5.67906 -0.13208,0.26414 -0.79243,0 -0.79243,0.26414 0,0.39622 0.92449,0 0.79243,0.26414 0,0.52829 -0.79243,0.52829 -1.05658,0.92451 -0.39622,0.92449 0,2.11312 -0.66034,2.90555 -1.849,1.849 -1.32073,-1.98106 -1.71693,-2.11314 -1.71694,-0.52829 -2.77351,0.79243 -3.96214,-1.18863 -0.26415,-0.39621 0.52828,-0.92451 0.26414,-1.45278 -0.3962,-0.79244 -1.98106,-1.05657 -1.849,-1.98108 0,-1.05657 2.11314,-1.58485 1.98108,-2.64143 -0.13208,-0.79242 -2.24522,0.79244 -2.3773,0 -0.26413,-1.05656 1.84902,-1.58485 1.71693,-2.50934 -0.13206,-1.05657 -2.11314,-0.79244 -2.37728,-1.84901 -0.13206,-0.79241 1.58486,-1.05655 1.58486,-1.98106 0,-0.79241 -1.32072,-1.18863 -1.71692,-1.98106 -0.13208,-0.52829 1.32071,-0.13208 1.58483,-0.52829 0.26417,-0.9245 0.13209,-2.11313 0.66038,-2.90556 0.13207,-0.26414 0.39622,0.66034 0.66034,0.52829 0.66036,-0.13207 0.79244,-1.05658 1.45279,-1.32072 0.52828,-0.26414 1.18865,0.26414 1.71694,0 0.66035,-0.39622 0.66035,-1.58485 1.32069,-1.71692 0.79243,-0.13208 1.45279,0.92449 2.3773,0.92449 0.79241,0 -0.13208,-1.71693 0,-2.64143 0.13206,-1.05656 1.18863,-1.84897 1.7169,-2.90556 z m -30.50843,-11.35811 c 1.05657,0 1.98108,-0.92451 1.98108,-1.849 0,-0.92451 -0.92451,-1.71694 -1.98108,-1.71694 -1.05657,0 -1.98106,0.79243 -1.98106,1.71694 0,0.92449 0.92449,1.849 1.98106,1.849 1.05657,0 -1.05657,0 0,0 z" />

       <path
       inkscape:connector-curvature="0"
       id="Germany"
       class="country"
       data-country="germany"
       d="m 344.2703,277.58661 c 0.26414,2.11314 2.37726,6.20734 2.64141,7.52805 0.39622,3.16971 -3.83006,5.28285 -2.90557,7.79221 0.5283,1.58484 5.54699,2.2452 5.54699,4.22628 0,1.98106 -1.58485,2.64141 -0.39621,4.0942 0.39621,0.66035 1.32072,0.92449 1.58486,1.71692 0.39621,0.66036 -0.13206,1.58486 0,2.24522 0.13207,0.39621 0.66035,0.26414 0.79243,0.52828 0.66035,0.9245 -0.92449,3.1697 -1.32071,3.96214 -0.79243,1.18863 1.18863,1.849 1.58485,3.03763 0.26414,0.66035 -0.66036,1.45277 -0.26414,1.98106 0.52828,0.79243 1.71691,0.52829 2.2452,1.05659 1.849,1.71691 1.05657,11.35811 -0.52829,11.62225 -1.71691,0.39621 -4.49042,-6.8677 -5.94319,-2.77349 -0.26414,0.66033 2.11314,1.18863 1.58485,1.58484 -1.58485,1.32073 -3.83007,1.45279 -5.41491,2.37728 -0.26414,0.13208 0,0.79245 -0.26414,0.92449 -1.05659,0.5283 -2.50936,-0.26412 -3.30179,0.39622 -0.66035,0.52829 -0.3962,1.58486 -1.05657,2.11314 -0.26414,0.26415 -0.52828,-0.66034 -0.92449,-0.52828 -1.18865,0.26414 -1.32071,1.849 -2.11314,2.37729 -0.3962,0.39622 -1.18863,-0.26415 -1.58485,0.13207 -0.39621,0.26415 0,1.05657 -0.39621,1.45278 -0.5283,0.66034 -1.98108,-0.52829 -2.3773,-0.52829 -3.30177,0.52829 -3.83005,3.03765 -4.88663,5.15079 -0.26414,0.52826 -0.26414,-1.32073 -0.79242,-1.71693 -0.39621,-0.52829 -1.18864,-0.66037 -1.84898,-0.79243 -1.18866,-0.26415 1.32069,3.96213 3.96212,5.67905 0.26414,0.13208 1.18863,0.26414 1.32071,1.05657 0.39622,1.849 -1.32071,1.18865 -1.58485,2.64143 -0.13207,0.3962 2.77348,5.28284 3.1697,5.67905 2.24521,2.24522 2.77349,0.66037 4.22629,2.11314 0.92448,0.92451 1.05656,2.37728 1.98105,3.16971 2.11315,1.45279 7.7922,3.43385 7.66013,6.8677 -0.13206,3.56592 -0.92449,2.77351 -3.69799,2.11315 -0.26414,0 -0.52828,0.13206 -0.66035,0.39622 -0.26414,1.32071 0.52829,2.77348 -0.79242,3.83005 -1.18865,0.92449 -6.73563,2.24521 -6.86771,4.35835 0,0 3.16971,4.35834 3.16971,4.49042 0.13206,0.13208 -1.71693,1.71693 -1.05657,2.24522 1.45278,1.32069 2.90556,-0.66037 1.71692,3.69798 0,0.26414 -0.26414,0.66036 -0.52829,0.66036 -4.22626,-1.18863 -0.92448,-3.30179 -2.90556,-3.43385 -1.05656,0 -1.98107,0.92449 -3.03763,0.79242 -0.52829,-0.13207 -0.39621,-1.05657 -0.79243,-1.18864 -0.79242,-0.26413 -1.58485,0.39622 -2.24522,0.13207 -0.26413,-0.13207 0.26416,-0.9245 0,-0.9245 -1.58484,0.13208 -0.13207,2.24522 -0.52827,2.37728 -1.849,0.52829 -4.88664,-0.26414 -6.60357,0.39622 -0.52828,0.26415 -0.26414,1.18864 -0.79242,1.45278 -0.52828,0.39622 -1.18863,-0.26414 -1.71691,0.13208 -0.39623,0.13206 0.13206,0.79243 -0.13208,1.05655 -0.13207,0.1321 -4.62249,1.32073 -5.15078,1.05659 -0.26414,-0.26415 0,-0.92449 -0.26414,-1.18865 -0.13208,-0.26415 -0.79243,-0.26415 -0.9245,-0.52827 -0.13207,-0.26416 0.66036,-0.13208 0.52828,-0.39622 -0.52828,-1.71692 -4.22628,0.39622 -5.28283,-0.79243 0,0 0.26414,-0.13206 0.26414,-0.26414 -0.79244,-0.52829 0,1.71691 -0.26414,2.64142 0,0.52829 -2.50936,3.56592 -3.43387,2.64141 -0.52829,-0.52827 0.92451,-1.32069 0.5283,-1.84898 -0.13208,-0.13208 -0.5283,0.39621 -0.79243,0.39621 -0.26416,0 -0.66037,-0.13207 -0.79242,-0.39621 -0.26417,-0.39622 0.66034,-0.92451 0,-1.45279 -0.52829,-0.39621 -0.79243,-1.05657 -1.32072,-1.32071 -0.39622,-0.26413 -0.9245,0.39622 -1.45279,0.26414 -0.26414,-0.26414 0,-0.92449 -0.26414,-1.18863 -0.66035,-0.52829 -0.52829,1.84899 -2.64143,1.18863 -1.45277,-0.52827 -2.37728,-1.98106 -3.83005,-2.37728 -0.13208,0 -4.49042,0.26414 -4.49042,0.26414 -0.52829,-0.26414 -0.52829,-1.18864 -1.05658,-1.45278 -0.13208,-0.26414 0.26414,0.66035 0,0.79243 -0.26414,0.13206 -0.79242,0 -0.92449,-0.26414 -0.13208,-0.39622 0.52827,-0.92449 0.26413,-1.18865 -1.98107,-1.98106 -4.22626,1.58485 -3.83006,1.71693 0.79243,0.13207 1.58486,-0.13208 2.37728,0 0.52829,0.13207 -0.92451,0.26414 -1.32071,0.52829 -0.26414,0.13206 0.13208,0.79243 0,0.92451 -3.30179,1.71691 -0.92449,-0.79245 -3.56592,-0.66037 -0.39622,0 -6.47147,1.45278 -6.86769,0.66037 -0.13207,-0.26416 0.79242,-0.39623 0.66034,-0.52829 -1.18863,-0.92451 -1.71692,3.03761 -1.71692,-1.58487 -0.13206,-1.849 1.18863,-3.56592 1.32071,-5.41491 0,-0.26415 -0.52829,-0.26415 -0.52829,-0.66037 -0.13205,-0.66035 0.13209,-1.32069 0.39621,-1.98106 0,0 1.84902,-3.03763 1.84902,-3.03763 0.13206,-0.79243 0.26414,-3.69799 0.66034,-4.62248 1.05658,-2.11316 3.698,-3.698 5.15078,-6.20736 0.5283,-0.92449 -7.39597,-1.849 -7.92426,-2.24522 -0.39622,-0.39621 -0.13209,-1.18863 -0.5283,-1.58484 -0.66035,-0.52828 -4.88663,1.18863 -5.15077,0.79243 -0.13206,-0.39622 0.39622,-0.92451 0.13206,-1.18865 -3.96212,-3.56591 -1.32069,1.84902 -2.90555,0.13208 -1.32071,-1.32071 -1.98108,-4.35836 -3.03763,-5.0187 -0.39622,-0.39621 -1.18865,0 -1.45279,-0.39621 -1.45278,-2.64143 3.83006,-3.698 1.98108,-5.94321 -0.26417,-0.39621 -3.43386,-0.66035 -4.09423,-3.43384 -1.18864,-4.88665 4.88664,-4.6225 3.03764,-7.66013 -0.39621,-0.66036 -1.58484,-0.52829 -1.84898,-1.32072 -0.13208,-0.52828 0.92449,-1.05657 0.79241,-1.58485 0,-0.39622 -0.79241,0.13206 -1.05657,-0.13208 -0.13206,-0.13206 -1.98106,-2.90557 -1.849,-3.30178 0.13208,-0.52828 1.05657,-0.52828 1.18865,-1.05656 0.39622,-2.24522 -3.43385,-3.03765 -2.24522,-3.30179 0.39622,-0.13207 0.66037,0.39622 0.92451,0.39622 0,0 2.50936,-2.24522 2.50936,-2.24522 0.13207,-0.66035 -1.58487,0.13208 -1.05657,-0.92449 0.39621,-0.92449 1.3207,-1.58485 1.71692,-2.50934 1.18863,-2.90557 -1.71692,-5.01871 -2.50935,-6.47151 -0.13208,-0.26412 0.13206,-0.66034 0.26413,-0.92448 0,-0.26415 -0.26413,-0.66037 0,-0.79243 0.66036,-0.39622 1.45279,0 2.24522,-0.26415 0.26414,-0.13207 -0.26414,-0.9245 0,-0.79242 0.79242,0.26414 1.32071,1.18863 2.2452,1.18863 0.92451,0.13208 4.49043,-1.05657 4.88665,-1.98106 0.3962,-0.92451 -2.50937,-1.05656 -1.32072,-1.84899 2.11314,-1.45278 4.62249,-1.98107 4.0942,-5.28286 -0.13206,-1.84899 -5.0187,-1.05656 -3.83005,-3.03763 0.13206,-0.3962 0.79242,0 0.79242,-0.26414 0.13206,-0.39622 -0.52828,-0.79243 -0.3962,-1.18865 0,-0.26414 0.3962,-0.26414 0.66035,-0.26414 0.92448,0 1.71691,0.39622 2.64142,0.39622 1.05657,0 0.13206,-2.11314 0.52828,-3.1697 0.26415,-0.9245 2.50934,-5.15078 2.24521,-7.39599 0.39622,-0.13207 0.79242,-0.39621 1.18863,-0.9245 0.5283,-0.5283 -0.66034,-0.26416 -1.84898,-0.26416 0,0 0,0 0,0 -0.26416,-0.26414 -0.66036,-0.13206 -0.92451,-0.13206 -0.26414,0 -0.3962,-0.13208 -0.52828,-0.26414 -1.05657,-1.32071 1.849,-5.41491 2.90556,-5.94319 0.66035,-0.39621 1.45278,0.39621 2.11314,0.39621 9.90534,-0.39621 -10.30155,-1.18864 4.75455,-0.79242 0.13208,0 0.5283,0.13205 0.66037,0.26412 0.79243,1.45279 1.32071,7.52807 4.6225,6.20734 1.05655,-0.39621 -1.05659,-9.50911 1.98106,-9.50911 0.26414,0 0.26414,0.79243 0.66035,0.92449 0.39622,0.26414 1.05657,0.26414 1.58485,0.26414 1.32071,0.26416 2.77351,-1.05655 3.96214,-0.52827 0.92451,0.39621 0.92451,1.71692 1.45279,2.50934 0.66037,1.05658 4.22628,7.79221 4.22628,3.30178 0,-0.92449 -1.98108,-0.66035 -2.7735,-1.45278 -1.32071,-1.18863 -1.05658,-4.22627 -3.56592,-4.62248 -0.39622,0 -3.43385,0.66035 -3.16971,-1.18865 0.13208,-1.18865 1.98106,-4.88663 0.79242,-6.33942 -0.39621,-0.39621 -3.30178,1.05657 -3.69799,-0.39621 -0.13208,-0.26414 0.79243,0 0.92451,-0.26414 0.26413,-0.26413 -0.92451,-0.79242 -0.66037,-0.79242 1.32072,-0.39621 3.56594,0.92451 3.96214,-1.71692 0,-0.26414 -3.03764,-3.56593 -3.30177,-4.09421 -0.39622,-0.9245 -0.5283,-1.98107 -0.5283,-2.90557 0.92451,0.13207 2.50936,0 2.90557,0 1.71693,0.26414 3.43385,1.18864 5.15079,1.45279 -0.13208,0.39621 -0.13208,0.52828 0.13205,0.39621 0.52831,-0.39621 0.79243,-1.05658 1.32072,-1.18864 0.26414,0 -0.13207,0.66035 0,0.92449 0.39622,0.26415 0.9245,0.13208 1.32071,0.26415 0.92451,0.13207 1.849,0.13207 2.50936,0.52828 0.39621,0.26416 0.52829,0.79242 0.52829,1.18863 0,0.13208 -0.26416,0 -0.26416,0 -0.26413,0.13208 -0.79241,0.39622 -0.52827,0.5283 0.13206,0.26414 0.79243,-0.26414 0.92449,0 0.3962,0.66035 0.26415,1.45278 0,2.11314 -0.26414,0.66035 -2.11314,1.05657 -1.58485,1.71692 0.66036,0.92451 3.1697,-1.45279 3.30177,-0.26414 0.13208,0.79243 -1.32072,2.2452 -0.52829,2.50934 0.92451,0.39622 0.92451,-1.84898 1.849,-1.98106 0.79243,-0.13206 3.83008,2.50935 4.49042,2.24522 0.13208,0 2.77349,-3.03765 3.698,-1.4528 1.849,3.43386 -7.39599,6.99977 -2.37728,7.52806 1.05657,0.13208 1.84899,-1.18865 2.90557,-1.18865 1.32071,0.1321 -0.13207,3.96214 2.77348,1.98108 0.66036,-0.39621 1.05657,-3.69799 2.24522,-4.35834 1.71691,-0.92451 3.56593,-1.32072 4.35834,0.52828 -0.13206,-0.39622 -0.26414,-1.05657 -0.13206,-1.18865 0.79242,-0.92449 1.849,-1.32071 2.50934,-2.11314 0.79243,-0.92448 0.92451,-2.37728 1.71692,-3.30177 0.26416,-0.26414 1.98108,0.39622 3.56593,0.92449 0.66035,-0.13206 1.32071,-0.26414 1.58486,-0.26414 0.92449,0 0.39622,1.84899 0.92449,2.64142 0.39622,0.52829 1.32071,0.26416 1.71693,0.79243 0.79243,0.66036 1.18863,2.50936 2.37728,2.3773 0.92449,0 1.98107,-0.66037 3.03764,-0.39622 0.39622,0.13206 -0.52829,0.79243 -0.52829,1.18863 0.13208,1.05657 0.52829,2.11314 0.92451,3.16971 0.3962,1.05657 1.71691,1.45279 2.77348,1.849 0.79243,0.26414 1.32072,0.39622 1.71694,0.26414 z m -12.01849,-10.16947 c 0.26416,-1.18864 -0.26413,-2.64143 0.13208,-3.83008 0.39622,-1.18864 4.35834,2.24522 3.56591,1.05657 -0.52826,-0.79243 -2.2452,-0.39621 -2.64142,-1.3207 -0.13207,-0.79243 1.05657,-1.45279 1.58487,-2.11314 0.52829,-0.3962 -0.39622,1.58484 0.13207,1.71692 0.92448,0.26414 1.84899,-0.13208 2.64141,0.13206 0.79243,0.26416 -1.05656,1.32073 -0.79242,2.11316 0.26414,0.92449 1.45278,1.05657 1.849,1.98105 0.26414,0.26416 -1.4528,1.58486 -3.56594,2.11315 -1.05656,0.3962 -1.98106,-1.18865 -2.90556,-1.84899 z" />

       <circle
       r="3.5200067"
       cy="375.34415"
       cx="322.4805"
       id="munich"
       class="city"
       data-city="munich" />
  </g>
  <!-- <script><![CDATA[
   var bars = document.getElementsByClassName('city');
   for (var i = 0; i < bars.length; i++) {
      bars[i].addEventListener('mouseover', mouseOverEffect);
      bars[i].addEventListener('mouseout', mouseOutEffect);
   }
   function mouseOverEffect() {
      console.log('abc')
   this.classList.add("bar-highlight");
   }
   function mouseOutEffect() {
      console.log('def')
   this.classList.remove("bar-highlight");
   }
  ]]></script> -->
</svg>

