<?xml version="1.0" encoding="UTF-8" standalone="no"?>
<svg
   xmlns:dc="http://purl.org/dc/elements/1.1/"
   xmlns:cc="http://creativecommons.org/ns#"
   xmlns:rdf="http://www.w3.org/1999/02/22-rdf-syntax-ns#"
   xmlns:svg="http://www.w3.org/2000/svg"
   xmlns="http://www.w3.org/2000/svg"
   xmlns:xlink="http://www.w3.org/1999/xlink"
   xmlns:sodipodi="http://sodipodi.sourceforge.net/DTD/sodipodi-0.dtd"
   xmlns:inkscape="http://www.inkscape.org/namespaces/inkscape"
   width="1920"
   height="250"
   viewBox="0 0 507.99999 66.145838"
   version="1.1"
   id="svg8"
   inkscape:version="1.0.1 (3bc2e813f5, 2020-09-07)"
   sodipodi:docname="footer.svg">
  <defs
     id="defs2">
    <linearGradient
       inkscape:collect="always"
       id="linearGradient4149">
      <stop
         style="stop-color:#003399;stop-opacity:1;"
         offset="0"
         id="stop4145" />
      <stop
         style="stop-color:#003399;stop-opacity:0;"
         offset="1"
         id="stop4147" />
    </linearGradient>
    <linearGradient
       inkscape:collect="always"
       xlink:href="#linearGradient4149"
       id="linearGradient4151"
       x1="-9.4494047"
       y1="32.316965"
       x2="516.31549"
       y2="32.316965"
       gradientUnits="userSpaceOnUse"
       gradientTransform="matrix(0.97321116,0,0,0.84266286,-499.37392,-67.424486)" />
  </defs>
  <sodipodi:namedview
     id="base"
     pagecolor="#ffffff"
     bordercolor="#666666"
     borderopacity="1"
     inkscape:pageopacity="0"
     inkscape:pageshadow="2"
     inkscape:zoom="0.49497475"
     inkscape:cx="944.07372"
     inkscape:cy="240.31777"
     inkscape:document-units="mm"
     inkscape:current-layer="layer4"
     inkscape:document-rotation="0"
     showgrid="false"
     units="px"
     inkscape:window-width="1920"
     inkscape:window-height="1106"
     inkscape:window-x="-11"
     inkscape:window-y="-11"
     inkscape:window-maximized="1"
     inkscape:snap-global="true"
     inkscape:snap-bbox="false" />
  <metadata
     id="metadata5">
    <rdf:RDF>
      <cc:Work
         rdf:about="">
        <dc:format>image/svg+xml</dc:format>
        <dc:type
           rdf:resource="http://purl.org/dc/dcmitype/StillImage" />
        <dc:title></dc:title>
      </cc:Work>
    </rdf:RDF>
  </metadata>
  <g
     inkscape:groupmode="layer"
     id="layer2"
     inkscape:label="Layer 2"
     style="display:inline" />
  <g
     inkscape:groupmode="layer"
     id="layer4"
     inkscape:label="Layer 3">
    <path
       style="fill:#003399;stroke:none;stroke-width:0.264583px;stroke-linecap:butt;stroke-linejoin:miter;stroke-opacity:1;fill-opacity:1"
       d="m -20.312484,17.10525 81.784476,1.069078 -2.138156,25.123334 33.67596,-3.207234 -0.534541,-14.967093 54.522985,-1.603617 v 19.777944 l 19.77794,-1.069078 21.9161,-40.0904278 16.03618,47.5739748 32.07234,-3.207235 -0.53454,-13.898014 h 10.15624 c 0,0 -11.22532,-18.174328 1.06908,-16.57071 12.2944,1.603617 16.03617,9.621702 16.03617,9.621702 v 17.639788 l 18.17433,4.276313 20.31249,-18.708865 27.26147,1.603616 21.9161,-10.690781 h 31.53781 l 2.67271,27.79603 h 9.08717 c 0,0 -7.48356,-47.03943595 3.20723,-46.5048969 10.69078,0.5345391 10.69078,0.5345391 10.69078,0.5345391 0,0 -12.2944,48.1085138 2.13815,49.7121318 14.43257,1.603616 25.12335,-2.672696 25.12335,-2.672696 l 33.67595,-33.67596 16.03616,1.603618 0.53454,31.003264 37.95228,0.53454 v 52.384825 l -546.833449,5.87993 z"
       id="path4191" />
  </g>
</svg>
